<svg width="1000" height="1000" viewBox="0 0 1000 1000" fill="none" xmlns="http://www.w3.org/2000/svg">
<path d="M260.508 339.28C218.946 369.592 166.594 339.114 122.827 358.508C118.976 360.213 166.104 419.993 170.661 424.736C173.18 427.363 175.826 430.058 177.09 433.468C178.354 436.878 177.864 441.249 174.924 443.405C173.386 444.532 169.779 447.169 170.367 449.501C170.789 451.137 175.012 452.98 176.247 454.293C180.255 458.548 181.983 464.465 180.892 470.208C180.564 471.852 179.933 473.421 179.03 474.834C176.749 477.92 173.391 480.037 169.622 480.763C165.565 481.292 160.861 478.881 157.637 481.4C156.68 482.306 155.858 483.346 155.197 484.487C151.969 488.958 146.701 491.498 141.193 491.239C136.449 490.974 130.971 488.809 127.414 491.974C126.14 493.111 125.454 494.738 124.278 495.992C121.112 499.442 115.654 499.226 111.087 498.236C65.3798 488.338 45.8484 433.36 37.7242 393.082C32.589 367.661 32.3538 339.349 46.26 316.642C58.657 296.386 80.0112 282.666 102.434 275.943C142.545 263.908 184.303 282.724 224.934 283.185" fill="var(--color-illustration-base, #FFFFFF)"/>
<path d="M259.018 336.703C233.92 354.48 203.736 350.305 174.856 348.776C161.028 348.041 146.955 348.022 133.451 351.471C129.932 352.373 120.975 353.706 119.603 357.792C119.054 359.439 119.858 361.193 120.583 362.692C123.239 368.308 127.208 373.472 130.795 378.46C136.136 385.938 141.663 393.288 147.249 400.569C152.214 407.05 157.245 413.482 162.341 419.865C165.938 424.354 174.483 431.625 174.424 437.104C174.366 442.582 165.31 444.022 167.123 450.422C167.721 452.519 169.622 453.813 171.308 454.979C174.145 456.722 176.239 459.451 177.188 462.642C178.364 466.651 177.962 471.413 174.807 474.402C171.651 477.391 168.123 477.284 164.027 476.882C161.165 476.598 158.323 476.637 155.863 478.332C153.129 480.224 151.943 483.565 149.18 485.447C142.574 489.906 135.754 485.094 128.805 487.182C125.954 488.044 124.474 489.926 122.7 492.082C119.868 495.6 116.32 495.57 112.057 494.728C100.709 492.503 90.2228 486.496 81.7948 478.705C64.4096 462.642 54.3548 439.818 47.6124 417.543C39.7724 391.779 34.1276 363.172 41.5658 336.673C49.7292 307.626 75.3758 287.83 103.443 279.471C135.783 269.847 169.289 280.549 201.541 284.968C209.302 286.086 217.131 286.673 224.973 286.723C229.598 286.723 229.579 279.706 224.973 279.539C190.761 278.304 157.353 265.878 122.916 268.455C93.5156 270.651 63.8706 285.576 46.4756 309.684C28.0614 335.105 28.62 368.014 34.892 397.384C39.9488 421.032 47.6908 445.002 61.156 465.288C67.4466 475.069 75.4823 483.61 84.8622 490.484C93.9272 496.933 107.686 503.969 119.162 502.244C122.057 501.888 124.75 500.578 126.816 498.52C127.855 497.442 128.462 495.953 129.629 495.012C131.657 493.356 134.088 493.914 136.587 494.247C143.211 495.149 149.327 494.688 154.687 490.19C157.382 487.926 158.823 483.948 162.625 483.791C166.428 483.634 169.436 484.771 173.17 483.409C179.357 481.25 183.768 475.747 184.528 469.238C185.283 463.034 183.029 455.91 178.364 451.598C177.518 450.88 176.621 450.225 175.679 449.638C175.385 449.442 174.336 448.981 174.209 448.658C173.807 447.678 174.209 448.364 175.189 447.462C177.217 445.502 179.285 444.307 180.334 441.474C183.793 432.164 175.532 425.471 170.21 419.081C159.068 405.704 148.435 391.847 138.204 377.765C134.117 372.13 129.54 366.387 126.444 360.125C126.174 359.604 125.944 359.063 125.758 358.508C125.924 358.508 125.62 359.684 125.758 359.537C124.866 360.791 123.66 360.977 125.522 360.762C127.384 360.546 129.707 359.154 131.579 358.566C138.987 356.347 146.646 355.072 154.374 354.774C183.676 353.323 214.154 361.546 242.642 351.834C249.573 349.457 256.117 346.076 262.066 341.799C265.143 339.603 262.203 334.458 259.126 336.673L259.018 336.703Z" fill="var(--color-illustration-primary, #382C80)"/>
<path d="M285.057 489.073C304.333 518.258 316.093 551.46 317.152 584.133C318.21 616.807 308.332 648.96 287.997 673.598C271.092 694.099 247.728 708.74 222.807 720.118C210.41 725.783 197.562 730.663 184.587 735.249C174.669 738.748 156.706 741.345 150.62 749.734C146.7 755.124 147.592 762.65 149.199 769.451C150.806 776.253 153.031 783.328 151.394 789.816C151.24 790.617 150.879 791.364 150.346 791.982C149.538 792.665 148.538 793.082 147.484 793.177C142.968 793.837 138.365 792.838 134.529 790.365C130.393 787.719 127.522 783.681 124.817 779.751C107.765 754.898 93.5058 726.831 90.8402 698.156C90.5396 696.468 90.7056 694.73 91.3204 693.129C92.3004 691.169 94.3878 690.189 96.3968 689.209C126.581 675.205 157.941 663.641 187.243 647.775C197.601 642.169 217.878 633.878 224.953 624.411C233.979 612.338 222.386 595.884 216.927 585.055C209.836 570.658 205.281 555.146 203.462 539.2C199.356 505.645 206.029 470.649 223.179 441.416" fill="var(--color-illustration-base, #FFFFFF)"/>
<path d="M282.724 490.445C314.368 538.945 327.304 603.145 296.934 655.545C282.852 679.849 260.488 697.284 235.968 710.249C222.222 717.351 208.016 723.525 193.446 728.732C182.411 732.789 170.671 735.112 159.832 739.62C148.993 744.128 143.407 751.86 144.868 763.904C145.72 770.921 148.788 777.79 148.65 784.905C148.65 787.199 148.699 789.433 146.034 790.06C144.342 790.277 142.623 790.123 140.997 789.609C137.249 788.52 133.935 786.286 131.52 783.22C122.083 772.107 114.625 758.102 108.323 745C101.895 731.652 96.9162 717.413 94.8974 702.693C94.3584 698.773 93.4176 694.716 97.5924 692.648C101.101 690.904 104.727 689.365 108.304 687.748C115.634 684.504 123.004 681.349 130.383 678.203C144.564 672.156 158.754 666.119 172.641 659.416C184.087 653.899 195.465 648.058 206.725 642.149C215.545 637.523 226.854 631.721 230.667 621.843C234.841 611.014 228.942 599.44 223.865 590.022C216.881 577.405 211.849 563.801 208.94 549.676C201.737 513.268 207.803 475.483 226.041 443.16C228.138 439.436 222.503 436.143 220.308 439.808C205.008 465.803 197.488 495.642 198.64 525.783C199.101 541.026 201.822 556.116 206.715 570.56C209.07 577.366 211.967 583.973 215.379 590.316C218.456 596.03 221.817 601.724 223.552 608.035C225.335 614.552 224.375 620.265 219.377 624.989C214.987 629.144 209.479 632.182 204.197 635.034C192.319 641.414 180.206 647.588 168.084 653.458C153.384 660.573 138.331 666.962 123.327 673.43C115.693 676.723 108.059 680.035 100.483 683.485C95.113 685.925 88.1354 687.983 87.2828 694.745C86.4302 701.507 88.8018 709.886 90.4188 716.403C92.3073 723.835 94.7511 731.114 97.7296 738.179C103.784 752.355 111.222 765.899 119.936 778.614C123.553 783.984 127.237 789.766 132.833 793.314C137.596 796.322 144.917 798.214 150.336 795.871C155.971 793.47 155.608 785.699 154.942 780.633C153.962 772.9 150.248 765.129 151.277 757.24C152.884 744.823 170.994 742.667 180.677 739.865C195.298 735.631 209.704 729.555 223.552 723.204C249.414 711.444 274.453 695.833 292.152 673.224C329.48 625.518 325.903 560.093 299.443 508.281C295.802 501.209 291.782 494.338 287.399 487.701C285.498 484.761 280.803 487.505 282.724 490.435V490.445Z" fill="var(--color-illustration-primary, #382C80)"/>
<path d="M242.427 421.021C206.323 440.327 199.022 502.94 203.462 539.2C205.278 555.155 209.833 570.677 216.927 585.083C222.386 595.863 233.979 612.366 224.953 624.44C217.878 633.907 197.601 642.198 187.243 647.803C180.187 651.625 173.003 655.202 165.751 658.583C160.851 660.876 154.844 662.072 153.599 668.128C152.561 673.205 156.628 683.583 157.745 688.777C161.352 705.471 167.881 721.396 177.031 735.817C182.441 744.333 189.124 752.585 198.327 756.711C204.295 759.376 212.047 759.857 216.77 755.378C218.642 753.624 219.847 751.301 221.347 749.214C227.629 740.462 239.594 735.807 248.689 730.662C267.044 720.274 284.351 708.475 297.885 692.06C318.22 667.423 328.098 635.318 327.04 602.596C326.138 574.793 317.602 547.549 304.382 523.216C299.1 513.484 292.622 506.556 292.622 495.158C292.622 479.351 295.043 463.191 298.502 447.785" fill="var(--color-illustration-secondary, #7F72FF)"/>
<path d="M227.717 429.127C200.189 459.33 195.377 504.665 200.845 543.63C202.581 556.27 205.992 568.622 210.988 580.36C215.134 590.004 221.827 598.98 224.14 609.31C226.668 620.668 218.505 626.773 209.734 631.957C201.325 636.936 192.319 640.777 183.695 645.413C177.168 648.892 170.573 652.273 163.84 655.36C159.754 657.212 155.246 658.594 152.374 662.22C146.22 670.06 152.316 681.457 154.55 689.66C155.677 693.825 161.763 692.041 160.949 687.896C159.617 681.036 153.011 668.894 161.204 664.631C171.004 659.544 181.226 655.193 191.035 650.058C199.326 645.726 207.911 641.904 215.81 636.848C222.866 632.34 230.049 626.675 231.49 617.924C233.077 608.584 228.501 599.363 224.208 591.376C218.632 581.017 213.752 570.678 210.645 559.271C205.157 539.161 203.883 517.65 205.961 496.943C208.293 473.766 215.761 450.471 231.509 432.88C233.822 430.293 230.03 426.461 227.678 429.048L227.717 429.127Z" fill="var(--color-illustration-primary, #382C80)"/>
<path d="M280.97 392.592C426.716 488.632 484.487 643.57 500.255 664.571C506.497 672.882 512.475 683.622 520.364 690.443C531.272 699.861 543.032 697.627 556.232 697.999C558.156 698.013 560.075 698.17 561.975 698.469C563.787 698.697 565.506 699.404 566.954 700.518C569.668 702.85 569.894 707.142 568.492 710.416C567.091 713.689 564.268 716.158 561.505 718.432C542.989 733.557 521.393 744.454 498.226 750.36C494.855 751.223 491.366 751.968 487.926 751.458C470.218 748.802 456.929 717.432 448.021 704.33L409.301 647.392C402.039 636.7 394.709 625.94 385.399 617.012C377.559 609.436 368.396 603.292 359.762 596.608C341.495 582.437 325.462 565.699 310.194 548.353C303.177 540.356 296.846 531.938 290.398 523.647C284.253 515.748 276.237 511.387 268.416 505.027C258.832 497.187 249.189 487.103 249.326 474.745" fill="var(--color-illustration-base, #FFFFFF)"/>
<path d="M279.647 394.866C332.057 429.666 376.932 474.746 414.083 525.372C440.102 560.819 462.025 598.872 482.076 637.925C486.809 647.157 491.092 657.035 497.031 665.581C505.116 677.204 513.093 692.384 526.715 698.235C533.575 701.175 541.111 701.322 548.481 701.282C552.606 701.282 558.604 700.371 562.426 701.978C568.806 704.654 565.141 710.651 561.446 714.042C548.147 726.331 530.801 735.602 513.936 741.854C510.016 743.298 506.073 744.605 502.107 745.774C497.462 747.097 492.258 748.94 487.407 747.872C481.703 746.617 477.137 742.06 473.452 737.797C465.004 727.997 459.516 716.159 452.725 705.261C442.396 688.719 430.792 672.853 419.836 656.712C409.34 641.248 399.344 624.774 385.35 612.151C371.355 599.529 355.705 589.611 342.083 576.685C328.127 563.505 315.135 549.34 303.206 534.3C297.454 527.019 292.279 519.11 285.057 513.162C278.481 507.732 271.258 503.195 265.074 497.286C258.704 491.19 253.138 483.889 252.932 474.746C252.824 470.11 245.621 470.091 245.719 474.746C246.102 492.562 261.233 504.41 274.394 514.063C282.352 519.943 288.065 526.529 294.092 534.281C300.495 542.513 307.182 550.487 314.153 558.202C327.461 572.902 341.593 586.946 357.273 599.137C364.995 605.135 373.11 610.642 380.391 617.189C388.045 624.049 394.385 632.124 400.285 640.493C412.417 657.712 424.04 675.293 435.888 692.698C440.387 699.313 445.071 705.83 449.128 712.739C452.597 718.619 455.9 724.655 459.604 730.428C465.935 740.306 474.549 752.742 487.044 754.839C495.414 756.241 504.91 752.38 512.691 749.665C521.34 746.639 529.73 742.92 537.779 738.542C545.567 734.285 553.003 729.412 560.015 723.969C566.032 719.295 573.431 713.709 572.657 705.163C571.883 696.618 563.455 694.952 556.262 694.726C547.755 694.462 538.837 695.706 530.645 692.815C521.727 689.66 515.847 681.29 510.672 673.852C507.732 669.589 504.577 665.424 501.735 661.112C499.138 657.133 496.962 652.87 494.757 648.666C475.5 611.897 456.155 575.46 432.664 541.258C397.178 489.514 354.362 442.631 303.775 405.293C296.758 400.106 289.597 395.117 282.293 390.328C279.461 388.466 276.844 393.004 279.647 394.866Z" fill="var(--color-illustration-primary, #382C80)"/>
<path d="M281.715 386.095C369.915 444.395 434.311 529.959 482.899 622.804C490.18 636.73 496.619 657.947 510.525 665.111C513.965 666.884 517.385 670.236 516.64 674.048C516.256 675.538 515.539 676.922 514.543 678.096C502.94 693.57 485.3 703.125 467.66 711.004C451.892 718.06 442.337 718.903 432.635 704.418C421.855 688.356 410.938 672.421 400.099 656.398C392.71 645.501 385.252 634.515 375.785 625.372C367.769 617.639 358.488 611.387 349.707 604.556C331.146 590.16 314.78 573.059 299.316 555.37C292.171 547.207 285.743 538.622 279.177 530.155C272.924 522.099 264.78 517.66 256.813 511.153C247.062 503.195 237.262 492.876 237.399 480.263" fill="var(--color-illustration-secondary, #7F72FF)"/>
<path d="M466.366 708.74C459.085 711.895 449.981 715.698 442.552 710.935C438.338 708.24 435.692 703.84 432.968 699.773C429.401 694.402 425.807 689.048 422.188 683.711C409.624 665.032 397.933 644.834 382.812 628.056C375.364 619.805 366.514 613.16 357.684 606.496C348.294 599.417 339.322 591.8 330.813 583.682C314.428 567.834 299.273 550.762 285.478 532.614C281.832 527.881 278.246 523.392 273.63 519.551C269.014 515.709 263.967 512.416 259.322 508.624C250.551 501.47 241.231 492.326 240.957 480.272C240.859 475.647 233.665 475.627 233.754 480.272C234.185 503.792 257.528 513.671 272.189 527.793C281.009 536.279 287.605 547.236 295.601 556.497C303.598 565.758 312.095 574.95 320.876 583.643C329.311 592.051 338.255 599.932 347.659 607.241C357.253 614.65 367.406 621.402 375.922 630.114C384.595 639.003 391.534 649.371 398.521 659.593C406.165 670.752 413.816 681.911 421.473 693.07C427.215 701.458 432.723 713.16 442.719 717.236C451.48 720.813 460.927 716.874 468.973 713.316C472.07 711.944 469.385 707.436 466.327 708.789L466.366 708.74Z" fill="var(--color-illustration-primary, #382C80)"/>
<path d="M188.517 320.405C186.361 331.666 186.606 343.533 188.252 354.931C190.898 373.296 196.886 390.985 201.325 408.997C202.531 413.897 203.628 418.944 202.962 423.942C202.58 426.824 201.619 429.705 202.06 432.576C205.196 452.705 254.324 439.975 265.76 436.29C281.744 431.126 298.1 423.08 306.264 408.38C308.792 403.833 310.429 398.521 309.38 393.425C308.4 388.574 305.117 384.605 302.079 380.685C285.43 359.333 272.412 335.385 263.546 309.802" fill="var(--color-illustration-base, #FFFFFF)"/>
<path d="M185.655 319.621C179.844 350.491 190.3 379.46 197.552 409.075C198.532 412.995 199.512 417.043 199.424 421.119C199.297 424.971 197.905 428.705 198.297 432.576C198.626 435.738 200.006 438.699 202.217 440.984C207.049 445.982 214.702 447.148 221.317 447.442C236.321 448.128 252.119 444.747 266.397 440.298C277.618 436.799 288.692 431.997 297.875 424.549C306.695 417.415 315.407 405.812 313.731 393.826C312.614 385.859 306.754 379.891 302.177 373.678C297.401 367.19 292.942 360.497 288.8 353.597C280.314 339.339 273.247 324.283 267.701 308.645C265.858 303.49 257.607 305.656 259.41 310.928C267.703 335.269 279.774 358.155 295.18 378.744C298.718 383.438 304.157 388.544 305.254 394.561C306.401 400.843 302.54 407.399 298.728 412.054C291.476 420.874 280.872 426.5 270.308 430.449C257.284 435.371 243.633 438.439 229.755 439.563C223.552 440.014 216.221 440.396 210.439 437.603C208.36 436.766 206.742 435.073 206 432.958C205.206 430.322 206.206 427.529 206.559 424.902C206.961 421.749 206.911 418.555 206.412 415.416C204.167 400.147 198.366 385.33 194.818 370.336C191.016 354.264 188.546 337.623 191.369 321.179C192.006 317.455 186.361 315.828 185.645 319.601L185.655 319.621Z" fill="var(--color-illustration-primary, #382C80)"/>
<path d="M225.306 282.146C244.112 279.001 266.329 285.439 284.625 289.986C306.636 295.435 327.187 305.5 347.345 315.574C349.364 316.554 351.804 317.593 353.774 316.486C354.764 315.802 355.548 314.86 356.038 313.761C359.292 307.764 361.163 301.139 362.898 294.543C366.926 279.079 378.627 248.728 367.161 234.411C364.084 230.579 360.134 227.021 359.194 222.2C358.253 217.378 362.918 211.42 367.357 213.517C368.523 214.066 369.454 215.075 370.699 215.389C381.057 218.045 368.974 197.2 367.867 194.809C366.947 193.206 366.483 191.383 366.524 189.536C366.936 185.959 371.052 183.784 374.638 184.166C378.225 184.548 381.312 186.734 384.233 188.85C381.694 186.312 382.89 181.52 385.977 179.707C389.064 177.894 393.18 178.56 396.12 180.579C399.06 182.598 401.177 185.626 403.068 188.664C403.294 183.764 409.928 181.491 414.319 183.588C418.709 185.685 421.179 190.36 423.246 194.76C426.529 191.977 431.567 192.075 435.408 194.005C439.25 195.936 442.111 199.376 444.552 202.913C456.41 220.161 457.595 240.153 457.87 260.528C458.187 285.286 455.054 309.968 448.56 333.861C437.878 373.159 412.114 412.486 367.161 407.361C341.632 404.421 319.141 395.248 296.601 383.253C281.656 375.286 266.858 366.103 250.169 363.212" fill="var(--color-illustration-base, #FFFFFF)"/>
<path d="M226.09 284.998C238.918 283.038 251.972 285.331 264.486 288.163C276.727 290.947 289.055 293.916 300.893 298.13C313.221 302.691 325.275 307.959 336.997 313.908C341.23 315.995 346.395 319.788 351.285 320.072C356.175 320.356 358.527 316.211 360.34 312.291C364.564 303.128 366.681 292.995 369.474 283.322C372.12 274.169 374.57 264.839 375.207 255.294C375.756 247.082 374.707 238.693 369.523 232.049C367.876 229.922 365.897 228.031 364.417 225.767C363.172 223.807 360.634 217.613 364.789 216.633C366.583 216.212 368.837 218.456 370.669 218.799C372.154 219.156 373.715 219.011 375.109 218.387C381.155 215.447 377.333 206.627 375.442 202.257C374.217 199.424 372.727 196.739 371.395 193.946C370.415 191.839 369.376 189.556 371.757 188.066C375.119 185.94 379.97 190.026 382.537 191.878C385.33 193.897 389.515 189.83 387.378 187.037C384.272 182.98 390.505 181.637 393.454 183.196C396.404 184.754 398.354 187.723 400.069 190.497C401.549 192.829 406.145 192.907 406.635 189.634C407.174 186.047 411.261 185.822 413.858 187.419C417.023 189.379 418.699 193.407 420.238 196.592C421.245 198.287 423.425 198.863 425.138 197.886C437.388 189.174 447.678 214.752 450.098 222.993C453.852 235.733 454.244 249.208 454.322 262.409C454.469 290.378 450.618 319.249 441.063 345.66C434.017 365.133 422.541 384.909 404.421 395.924C383.008 408.948 357.439 403.833 334.988 396.248C320.19 391.25 306.244 384.262 292.554 376.804C279.402 369.631 266.094 362.281 251.149 359.782C246.67 359.027 244.671 365.76 249.247 366.701C264.604 369.856 278.108 377.549 291.75 384.919C305.019 392.092 318.68 398.639 332.998 403.46C357.204 411.604 384.546 416.377 407.625 402.647C427.578 390.779 440.142 369.523 447.923 348.247C458.448 319.474 462.133 287.742 461.515 257.254C461.192 241.3 459.859 225.1 453.048 210.44C448.011 199.581 435.34 181.814 421.502 191.663L426.402 192.956C423.531 187.008 419.444 180.216 412.202 179.344C406.635 178.717 400.53 181.833 399.648 187.723L406.214 186.871C401.98 180.226 395.277 172.847 386.447 175.61C379.519 177.786 377.549 185.881 381.763 191.29L386.055 185.734C381.988 182.794 377.441 180.011 372.257 180.716C368.014 181.285 364.015 184.166 363.212 188.556C362.153 194.328 367.318 200.63 369.474 205.706C370.133 207.19 370.674 208.723 371.091 210.293C371.218 210.822 371.385 213.037 371.738 212.556C372.09 212.076 369.533 210.665 368.298 210.204C366.212 209.418 363.892 209.55 361.908 210.567C351.716 215.467 356.626 226.953 361.957 233.293C365.181 237.135 367.504 240.428 368.396 245.494C369.1 250.45 369.034 255.484 368.2 260.42C366.798 270.386 363.692 280.02 360.948 289.663C359.635 294.269 358.547 298.934 357.028 303.481C356.312 305.588 354.725 312.438 352.52 313.457C349.982 314.623 344.68 310.674 342.612 309.625C331.146 303.981 319.562 298.512 307.606 293.945C294.161 288.84 280.166 285.361 266.133 282.244C252.472 279.206 238.497 277.089 224.542 279.245C220.778 279.824 222.386 285.517 226.119 284.959L226.09 284.998Z" fill="var(--color-illustration-primary, #382C80)"/>
<path d="M213.125 207.676C219.573 202.981 230.206 204.373 233.195 211.968C236.899 221.356 241.819 230.225 243.122 240.388C243.471 242.493 243.441 244.644 243.034 246.738C241.496 253.422 234.508 257.107 228.256 259.939C228.07 260.017 232.695 271.091 233.156 272.081C234.91 276.001 235.371 275.697 233.303 279.872C230.696 285.135 223.13 289.555 217.878 288.692C212.625 287.83 210.351 283.42 208.597 278.667C202.844 263.124 198.993 246.601 196.171 230.304" fill="var(--color-illustration-base, #FFFFFF)"/>
<path d="M214.555 210.126C218.534 207.578 224.13 206.882 228.011 210.077C230.245 211.909 230.951 214.918 231.99 217.495C233.264 220.592 234.616 223.66 235.821 226.786C237.928 232.244 241.015 239.888 239.594 245.827C238.173 251.766 231.294 254.5 226.345 256.715C225.168 257.375 224.448 258.629 224.473 259.978C224.826 264.016 227.413 268.308 228.903 272.023C229.971 274.6 231.137 275.845 229.559 278.422C227.599 281.597 223.405 284.694 219.514 284.645C214.859 284.596 213.36 279.392 212.105 275.825C210.371 270.876 208.901 265.839 207.519 260.782C204.687 250.345 202.501 239.761 200.502 229.138C199.424 223.405 190.908 225.894 191.829 231.529C194.031 245.575 197.417 259.41 201.953 272.885C205.049 281.911 208.813 293.926 220.631 292.867C228.275 292.181 238.967 284.547 238.595 275.952C238.477 273.091 236.556 270.298 235.439 267.701C234.694 265.976 233.963 264.245 233.244 262.507C232.96 261.811 231.901 258.714 232.039 260.008L230.167 263.271C236.811 260.135 244.171 255.99 246.298 248.405C248.64 240.065 244.534 230.235 241.319 222.689C238.536 216.163 236.419 207.313 229.647 203.815C223.842 201.016 216.979 201.567 211.694 205.255C208.754 207.294 211.459 212.115 214.555 210.155V210.126Z" fill="var(--color-illustration-primary, #382C80)"/>
<path d="M202.629 290.447C202.629 288.398 206.784 273.003 207.421 273.257C212.772 275.355 218.505 274.678 224.012 273.659C226.805 273.13 229.589 272.503 232.411 272.101C234.675 271.778 237.977 270.915 240.182 271.621C245.093 273.283 248.585 277.655 249.12 282.812C247.809 282.896 246.493 282.82 245.2 282.587C242.583 282.294 239.935 282.427 237.36 282.979C234.498 283.596 231.754 283.881 229.216 285.351C225.828 287.294 222.603 289.51 219.573 291.975" fill="var(--color-illustration-base, #FFFFFF)"/>
<path d="M205.49 290.447C205.824 287.928 207.068 284.92 207.803 282.342C208.244 280.813 208.695 279.275 209.185 277.756C209.507 277.08 209.75 276.37 209.91 275.639C209.753 274.757 211.488 275.051 209.116 276.149L206.529 276.492C213.468 278.863 220.396 277.795 227.433 276.443C230.52 275.845 234.479 274.581 237.683 274.786C241.888 275.051 245.053 278.706 245.523 282.813L249.1 279.236C243.22 279.363 238.075 278.716 232.176 280.167C226.57 281.548 221.043 285.341 216.986 289.359C214.046 292.299 217.858 297.434 221.455 295.161C225.904 292.328 229.834 288.722 235.028 287.321C239.928 286.017 244.21 286.625 249.1 286.341C250.209 286.318 251.246 285.791 251.917 284.909C252.589 284.027 252.822 282.887 252.55 281.813C251.452 275.257 246.013 268.426 238.957 267.917C229.755 267.25 220.827 272.67 211.517 270.915C208.764 270.396 206.382 268.887 204.383 271.562C203.403 272.836 203.04 274.865 202.599 276.364C201.306 280.794 199.659 285.723 199.659 290.398C199.659 294.2 204.932 293.945 205.392 290.398L205.49 290.447Z" fill="var(--color-illustration-primary, #382C80)"/>
<path d="M194.044 255.295C194.524 256.128 195.024 256.961 195.455 257.813C201.58 269.074 212.987 261.596 209.175 249.974C207.333 244.329 204.824 238.419 206.333 232.677C206.449 232.095 206.705 231.55 207.078 231.089C208.283 229.756 210.606 230.481 211.792 231.834C212.978 233.186 213.517 235.009 214.644 236.41C213.007 232 212.203 226.806 214.644 222.798C217.75 217.732 224.277 216.663 229.589 215.468C233.754 214.488 235.733 215.017 238.173 218.31C240.614 221.603 239.291 224.494 243.75 220.721C250.992 214.586 247.023 201.522 241.153 196.221C234.489 190.135 224.836 188.488 215.81 188.871C206.588 189.253 197.013 191.693 189.487 197.24C181.235 203.306 179.393 212.469 180.275 222.416C181.431 235.058 188.056 244.721 194.044 255.295Z" fill="var(--color-illustration-primary, #382C80)"/>
<path d="M191.545 256.754C193.799 260.802 196.102 265.182 201.002 266.309C204.68 267.065 208.461 265.611 210.684 262.585C213.37 259.155 213.83 254.598 212.958 250.433C212.243 247.033 210.753 243.828 210.096 240.398C209.78 239.007 209.649 237.58 209.704 236.155C210.501 233.613 210.472 233.012 209.616 234.351C208.901 234.9 208.96 235.498 209.773 236.174C210.154 236.989 210.61 237.766 211.135 238.497C213.566 242.25 220.122 239.967 218.652 235.331C217.456 231.598 216.182 226.903 219.377 223.767C221.905 221.288 226.237 220.661 229.549 219.955C233.117 219.191 233.871 219.377 235.645 222.582C236.88 224.796 238.017 226.805 240.917 226.864C246.601 226.972 250.913 219.563 251.746 214.781C252.726 209.048 251.119 202.825 248.111 197.915C240.398 185.371 223.748 183.352 210.39 185.057C196.318 186.861 180.99 193.623 176.992 208.499C172.219 226.384 181.814 242.564 190.31 257.499C193.064 262.34 200.551 257.979 197.788 253.138C190.996 241.27 183.323 229.442 184.528 215.134C185.773 200.179 200.953 194.093 214.232 193.231C225.992 192.456 241.27 195.553 243.211 209.391C243.612 212.203 242.838 213.85 241.976 216.359C241.868 216.672 240.712 217.476 240.731 217.691C240.78 218.132 243.171 219.299 243.328 218.671C243.534 217.858 241.76 215.888 241.29 215.29C238.095 211.243 234.067 210.332 229.138 211.214C223.395 212.252 216.996 213.801 212.889 218.25C207.94 223.611 208.372 231.127 210.724 237.556L218.23 234.391C215.565 230.647 213.419 225.855 207.911 226.649C202.58 227.423 201.864 233.509 202.217 237.938C202.6 241.238 203.404 244.476 204.608 247.572C205.588 250.423 207.117 253.452 206.343 256.578C205.882 258.401 204.726 260.145 202.707 260.204C199.581 260.292 197.807 256.039 196.543 253.873C194.701 250.59 189.742 253.491 191.545 256.754Z" fill="var(--color-illustration-primary, #382C80)"/>
<path d="M304.529 384.537C305.921 359.468 311.272 328.04 333.802 312.742C337.585 310.184 333.988 303.991 330.205 306.597C318.386 314.751 311.252 326.736 306.225 339.917C300.962 353.765 296.493 370.376 298.737 385.291C299.257 388.731 304.353 387.653 304.529 384.507V384.537Z" fill="var(--color-illustration-primary, #382C80)"/>
<path d="M249.826 479.42L257.205 478.832C260.341 478.578 262.046 479.656 263.418 482.576C265.31 486.623 268.318 490.004 271.258 493.287C274.678 497.07 278.353 500.853 280.147 505.724C282.156 511.153 280.529 519.444 273.493 519.904C270.847 520.071 270.827 524.216 273.493 524.04C278.794 523.707 282.793 520.179 284.4 515.151C286.36 508.958 283.753 502.715 280.068 497.727C275.168 491.082 269.357 486.153 265.711 478.607C262.869 472.727 255.01 475.736 249.806 476.284C247.846 476.5 247.768 479.587 249.806 479.42H249.826Z" fill="var(--color-illustration-primary, #382C80)"/>
<path d="M311.556 437.281C318.053 442.651 317.504 451.226 317.367 458.9C317.24 466.073 317.416 473.306 321.15 479.676C325.55 487.163 332.861 492.886 338.957 498.913C346.052 505.91 353.026 513.022 359.88 520.248C387.408 549.232 413.021 579.978 436.555 612.289C449.844 630.556 462.133 649.441 474.54 668.306C475.892 670.354 479.126 668.512 477.862 666.346C457.595 631.968 433.438 599.52 408.184 568.669C395.379 553.029 382.07 537.819 368.259 523.041C361.255 515.521 354.13 508.148 346.885 500.922C340.113 494.14 332.077 487.819 326.364 480.097C316.564 466.789 327.549 445.405 313.477 434.792C312.056 433.714 310.174 436.134 311.517 437.271L311.556 437.281Z" fill="var(--color-illustration-primary, #382C80)"/>
<path d="M493.963 664.258L497.53 660.024C498.113 659.409 498.113 658.445 497.53 657.829C496.923 657.226 495.943 657.226 495.335 657.829L491.778 662.073C491.197 662.685 491.197 663.645 491.778 664.258C492.386 664.849 493.355 664.849 493.963 664.258Z" fill="var(--color-illustration-primary, #382C80)"/>
<path d="M159.94 706.486C161.302 709.593 162.645 712.7 164.076 715.777C164.935 717.227 166.8 717.716 168.26 716.874C169.693 715.998 170.181 714.149 169.368 712.68C167.966 709.603 166.496 706.555 165.036 703.507C164.643 702.829 163.996 702.336 163.238 702.137C162.48 701.938 161.673 702.051 160.998 702.449C159.622 703.295 159.155 705.074 159.94 706.486Z" fill="var(--color-illustration-primary, #382C80)"/>
<path d="M183.372 703.135C222.768 692.276 257.695 665.503 278.05 630.007C278.556 629.141 278.264 628.029 277.398 627.523C276.532 627.017 275.42 627.309 274.914 628.175C254.191 662.897 221.314 688.688 182.656 700.548C181.96 700.76 181.56 701.488 181.754 702.19C181.948 702.891 182.665 703.31 183.372 703.135Z" fill="var(--color-illustration-primary, #382C80)"/>
<path d="M217.221 743.854C214.631 742.013 212.51 739.589 211.027 736.778C209.94 734.818 206.97 736.553 208.019 738.533C209.83 741.822 212.429 744.611 215.584 746.647C217.329 747.803 218.926 745.02 217.221 743.854Z" fill="var(--color-illustration-primary, #382C80)"/>
<path d="M568.492 710.416C569.933 707.143 569.668 702.85 566.954 700.518C565.506 699.404 563.787 698.697 561.975 698.47C560.075 698.171 558.156 698.014 556.232 697.999C543.032 697.627 531.272 699.861 520.364 690.443C519.453 689.65 518.561 688.797 517.689 687.905C514.974 690.434 513.857 694.432 513.495 698.195C513.093 702.429 513.387 706.79 512.132 710.857C506.791 728.036 484.222 728.203 470.806 734.426C470.087 734.693 469.44 735.123 468.914 735.68C467.787 737.091 468.464 739.149 469.189 740.806L472.521 748.401C473.501 750.615 474.657 753.026 476.901 753.928C478.061 754.302 479.283 754.449 480.498 754.359C494.012 754.202 509.094 747.783 521.55 742.511C535.951 736.437 549.407 728.328 561.505 718.432C564.268 716.159 567.052 713.689 568.492 710.416Z" fill="var(--color-illustration-primary, #382C80)"/>
<path d="M571.991 711.386C573.578 707.015 573.314 701.939 569.972 698.431C566.16 694.413 559.79 694.413 554.655 694.334C541.719 694.119 530.204 695.148 520.257 685.338C518.827 683.949 516.551 683.949 515.121 685.338C509.731 691.12 510.153 698.137 509.437 705.496C508.781 712.268 505.214 717.256 499.392 720.549C489.7 726.067 477.293 725.841 467.944 731.819C461.574 735.886 466.504 743.697 468.718 748.714C471.56 755.143 474.794 758.269 482.066 757.946C497.815 757.24 513.201 750.341 527.352 743.912C536.04 739.964 544.368 735.268 552.244 729.879C559.104 725.155 567.708 719.883 571.628 712.239C573.765 708.093 567.493 704.399 565.356 708.574C561.348 716.414 551.411 721.882 544.237 726.468C536.441 731.438 528.247 735.752 519.737 739.365C511.348 742.952 502.842 746.49 493.973 748.744C489.779 749.812 484.879 751.135 480.518 750.704C476.157 750.273 475.549 746.264 474.01 742.756C473.393 741.345 471.511 738.944 472.658 737.542C473.295 736.768 475.745 736.308 476.686 735.984C479.557 735.004 482.487 734.21 485.398 733.377C491.278 731.721 497.227 730.016 502.597 727.076C507.759 724.408 511.918 720.142 514.455 714.914C517.875 707.407 514.455 696.647 520.276 690.414H515.141C521.652 697.001 530.391 700.913 539.641 701.38C544.139 701.704 548.647 701.498 553.145 701.527C558.771 701.527 568.022 701.155 565.043 709.367C563.396 713.856 570.413 715.747 571.991 711.386Z" fill="var(--color-illustration-primary, #382C80)"/>
<path d="M165.095 741.08C164.329 739.086 163.398 737.158 162.312 735.318C158.95 729.722 153.492 725.028 147.053 724.107C142.702 723.48 138.017 724.548 134.029 722.705C128.786 720.285 126.845 713.964 125.473 708.348L118.417 679.487C111.038 682.682 103.717 685.916 96.3968 689.287C94.4368 690.267 92.2612 691.247 91.3204 693.207C90.7056 694.808 90.5396 696.546 90.8402 698.235C93.5058 726.939 107.765 754.977 124.817 779.83C127.522 783.75 130.393 787.797 134.529 790.443C138.365 792.916 142.968 793.915 147.484 793.256C148.538 793.161 149.538 792.743 150.346 792.06C150.879 791.442 151.24 790.695 151.394 789.894C153.031 783.407 150.806 776.331 149.199 769.53C147.592 762.729 146.72 755.202 150.62 749.812C153.492 745.814 159.019 743.148 165.095 741.08Z" fill="var(--color-illustration-primary, #382C80)"/>
<path d="M168.603 740.1C166.153 734.132 162.939 728.703 157.676 724.802C151.933 720.549 146.406 720.667 139.585 720.177C130.883 719.559 129.785 710.69 128.09 703.752C126.032 695.337 123.977 686.922 121.926 678.507C121.308 676.008 118.643 675.44 116.585 676.332C108.862 679.683 100.787 682.751 93.3588 686.729C86.4988 690.385 86.8614 696.226 87.7826 703.164C89.7426 718.158 94.7014 732.564 101.091 746.225C107.696 760.347 115.791 774.724 125.591 786.915C129.932 792.315 135.607 796.195 142.623 796.93C149.15 797.607 154.285 795.578 155.363 788.708C156.716 779.888 152.737 771.705 151.757 763.101C151.267 758.848 151.463 754.232 154.481 750.929C157.5 747.627 162.116 746.029 166.143 744.569C170.514 743.021 168.633 735.994 164.183 737.562C157.627 739.885 150.346 742.874 146.72 749.224C143.094 755.574 144.182 763.571 145.74 770.461C146.72 774.675 148.043 778.879 148.317 783.201C148.474 785.69 149.082 788.983 146.073 789.757C144.113 790.247 141.487 789.551 139.654 788.885C131.461 785.945 126.61 776.145 122.22 769.285C112.782 754.477 104.58 738.728 99.376 721.892C98.0455 717.599 96.9431 713.238 96.0734 708.828C95.358 705.232 93.741 700.204 94.3976 696.51C95.1914 692.07 103.218 690.189 106.706 688.611C111.227 686.592 115.755 684.603 120.289 682.643L114.958 680.477L121.132 705.722C122.543 711.514 123.758 718.021 127.992 722.568C132.892 727.889 138.939 726.998 145.495 727.595C153.55 728.33 158.813 735.073 161.684 742.07C163.35 746.294 170.377 744.432 168.603 740.1Z" fill="var(--color-illustration-primary, #382C80)"/>
<path d="M526.842 691.032C527.343 693.581 527.046 696.223 525.99 698.597C525.196 700.498 528.371 701.42 529.126 699.46C530.238 696.523 530.375 693.307 529.518 690.287C529.047 688.552 526.48 689.307 526.842 691.032Z" fill="var(--color-illustration-base, #FFFFFF)"/>
<path d="M534.369 693.06C535.799 695.892 535.75 698.597 535.515 701.664C535.378 703.389 538.102 703.722 538.514 702.076C539.386 698.567 538.406 694.785 536.789 691.649C535.956 690.051 533.565 691.462 534.369 693.06Z" fill="var(--color-illustration-base, #FFFFFF)"/>
<path d="M542.454 693.981C543.944 696.427 544.465 699.343 543.914 702.154C543.61 704.114 546.462 704.947 546.903 702.977C547.645 699.388 546.806 695.653 544.6 692.727C543.679 691.462 541.601 692.599 542.454 693.981Z" fill="var(--color-illustration-base, #FFFFFF)"/>
<path d="M148.053 745.98C151.015 747.244 153.396 749.573 154.726 752.507C155.599 754.349 158.431 752.732 157.49 750.88C155.668 747.333 152.552 744.621 148.788 743.305C147.082 742.697 146.445 745.314 148.053 745.98Z" fill="var(--color-illustration-base, #FFFFFF)"/>
<path d="M145.456 756.084C148.217 755.415 151.114 756.437 152.845 758.691C154.178 760.288 156.51 757.975 155.148 756.388C152.538 753.446 148.478 752.252 144.691 753.311C143.966 753.554 143.558 754.322 143.761 755.059C143.964 755.796 144.708 756.246 145.456 756.084Z" fill="var(--color-illustration-base, #FFFFFF)"/>
<path d="M275.315 782.701C276.221 781.648 277.508 780.999 278.892 780.897C279.556 780.88 280.11 780.388 280.206 779.731C280.297 779.064 279.877 778.433 279.226 778.261C276.968 777.965 274.725 778.899 273.346 780.711C272.842 781.267 272.842 782.115 273.346 782.671C273.894 783.194 274.757 783.194 275.306 782.671L275.315 782.701Z" fill="var(--color-illustration-base, #FFFFFF)"/>
<path d="M532.752 682.437C532.379 681.663 531.115 677.723 532.369 677.204C533.349 676.822 534.584 680.732 534.702 681.339C535.025 683.015 537.877 683.074 538.151 681.339C538.896 676.665 544.933 680.173 541.278 683.084C539.7 684.348 541.846 687.161 543.463 685.916C546.775 683.368 547.236 678.301 543.277 676.018C539.318 673.735 535.074 676.684 534.643 680.859L537.965 679.958C536.985 677.772 534.045 671.902 530.713 674.195C527.93 676.155 529.175 681.408 530.449 683.78C531.262 685.308 533.477 683.966 532.752 682.437Z" fill="var(--color-illustration-primary, #382C80)"/>
<path d="M164.615 754.163C165.416 753.856 166.321 754.019 166.967 754.585C167.496 755.496 167.339 756.143 166.486 756.545C165.756 756.564 165.105 757.012 164.825 757.688C164.546 758.364 164.69 759.14 165.193 759.671C165.82 760.327 167.104 761.396 167.153 762.366C167.29 764.326 165.908 763.953 164.82 762.993C163.017 761.396 160.401 763.973 162.155 765.659C164.37 767.805 168.211 768.922 170.201 765.796C172.19 762.67 169.975 759.357 167.751 757.084L166.947 760.141C168.156 759.906 169.206 759.165 169.832 758.104C170.458 757.044 170.599 755.766 170.22 754.594C169.319 752.027 166.379 751.145 163.968 751.948C163.387 752.149 163.061 752.767 163.224 753.36C163.387 753.953 163.983 754.317 164.585 754.193L164.615 754.163Z" fill="var(--color-illustration-primary, #382C80)"/>
<path d="M222.591 852.623C225.355 852.349 228.128 852.045 230.892 851.643C241.848 850.271 241.476 867.431 241.182 874.467C241.217 876.108 240.882 877.736 240.202 879.23C239.065 881.072 237.389 882.52 235.4 883.376C226.502 887.933 216.251 888.883 206.284 889.706C171.514 892.646 136.704 895.008 101.787 895.057C98.4156 895.057 94.6916 894.91 92.2416 892.597C89.0566 889.599 87.665 880.837 87.2044 876.545C86.4792 869.901 87.6062 863.207 87.5082 856.563C87.4349 855.802 87.5493 855.035 87.8414 854.328C88.4588 853.152 89.8014 853.172 90.9284 853.28C99.817 854.132 108.127 850.732 117.006 851.32C151.982 853.711 187.449 856.073 222.591 852.623Z" fill="var(--color-illustration-primary, #382C80)"/>
<path d="M222.591 855.348C226.07 855.034 232.235 853.006 235.116 855.73C237.34 857.837 237.772 861.973 238.056 864.834C238.293 867.703 238.319 870.586 238.134 873.458C237.693 880.514 231.196 882.073 225.198 883.611C213.781 886.551 201.531 886.61 189.84 887.443C177.276 888.345 164.703 889.158 152.12 889.785C139.223 890.439 126.313 890.87 113.39 891.079C110.166 891.128 106.932 891.167 103.698 891.167C101.287 891.167 98.3568 891.559 96.142 890.452C92.4572 888.619 91.879 882.239 91.3302 878.545C90.605 873.645 90.8892 868.745 91.1538 863.845C91.3981 862.039 91.4769 860.216 91.389 858.396C91.193 857.043 92.0848 856.593 90.9088 857.2C91.3106 856.994 93.741 857.337 94.4368 857.337C96.47 857.28 98.4985 857.11 100.513 856.828C106.011 856.122 111.401 855.015 116.987 855.26C123.366 855.544 129.727 856.132 136.126 856.524C164.899 858.317 193.887 859.464 222.621 856.524C227.521 856.024 227.599 848.38 222.621 848.811C191.261 851.555 159.852 850.291 128.462 848.243C121.318 847.773 114.35 847.067 107.216 848.037C104.119 848.459 101.032 849.017 97.9158 849.36C94.7994 849.703 90.6638 848.635 87.6062 849.801C82.1378 851.879 83.6078 859.297 83.3628 863.874C82.8993 869.861 83.1196 875.881 84.0194 881.818C84.774 886.169 85.8422 891.304 88.8606 894.724C93.0648 899.487 99.866 899.007 105.638 898.968C121.152 898.87 136.645 898.282 152.12 897.37C167.594 896.459 183.078 895.263 198.532 893.921C211.351 892.813 225.443 892.559 237.027 886.247C242.495 883.258 244.23 879.231 244.377 873.135C244.536 869.113 244.267 865.085 243.573 861.12C242.838 857.279 241.358 853.084 238.056 850.713C233.558 847.459 227.668 849.38 222.621 849.948C219.171 850.281 219.063 855.662 222.591 855.348Z" fill="var(--color-illustration-primary, #382C80)"/>
<path d="M309.586 852.623C311.546 852.349 313.532 852.022 315.544 851.643C317.044 851.379 318.827 851.3 319.749 853.378C320.215 854.743 320.444 856.179 320.425 857.621L321.483 881.141C305.646 887.56 288.006 884.924 271.797 884.924C257.352 884.924 242.809 886.806 228.364 887.737C224.64 887.982 217.231 890.677 214.232 885.179C211.047 879.299 212.693 863.864 212.615 856.465C212.56 855.712 212.639 854.956 212.85 854.231C213.291 853.055 214.261 853.074 215.065 853.182C221.445 854.035 227.413 850.634 233.773 851.222C258.92 853.711 284.4 856.073 309.586 852.623Z" fill="var(--color-illustration-secondary, #7F72FF)"/>
<path d="M309.586 855.349C310.968 855.172 315.525 853.81 316.446 854.369C318.259 855.505 317.553 861.229 317.612 863.081L318.161 881.211L320.582 878.026C308.371 882.524 295.65 882.161 282.842 881.622C269.696 881.166 256.535 881.54 243.436 882.74C237.664 883.22 231.803 883.406 226.07 884.21C222.454 884.719 218.417 886.023 216.996 881.73C215.575 877.438 216.065 872.469 216.163 868.157C216.163 866.031 216.3 863.914 216.368 861.797C216.427 860.288 215.869 856.701 216.78 855.447L214.448 857.24C215.898 856.76 218.181 857.24 219.759 857.122C221.141 856.985 222.523 856.721 223.895 856.466C227.942 855.692 231.47 855.045 235.655 855.388C243.857 856.074 252.04 856.926 260.253 857.465C277.06 858.553 293.896 858.681 310.605 856.309C314.858 855.711 313.898 848.214 309.576 848.734C289.672 851.135 269.769 850.507 249.796 848.851C240.418 848.067 231.843 846.891 222.572 848.773C216.065 850.106 209.077 847.675 208.666 856.534C208.372 862.973 208.068 869.568 208.421 876.017C208.715 881.201 209.322 887.571 214.065 890.717C219.122 894.078 225.571 891.903 231.147 891.501C240.947 890.795 250.649 889.698 260.429 889.11C280.901 887.885 302.765 892.246 322.316 884.396C323.721 883.967 324.696 882.689 324.737 881.221L323.865 866.717C323.62 862.581 323.865 857.975 322.885 853.977C321.091 846.774 314.182 849.175 308.802 850.057C305.862 850.468 306.538 855.741 309.586 855.349Z" fill="var(--color-illustration-primary, #382C80)"/>
<path d="M494.355 761.229C497.132 760.954 499.899 760.644 502.656 760.298C513.612 758.926 513.25 776.076 512.946 783.112C512.975 784.756 512.641 786.386 511.966 787.885C510.811 789.711 509.125 791.141 507.134 791.981C498.226 796.538 487.975 797.479 478.009 798.312C443.238 801.193 408.429 803.604 373.511 803.663C370.14 803.663 366.416 803.516 363.966 801.203C360.791 798.204 359.399 789.443 358.929 785.15C358.204 778.506 359.341 771.813 359.243 765.158C359.172 764.399 359.283 763.633 359.566 762.924C360.183 761.748 361.526 761.777 362.663 761.885C371.542 762.738 379.852 759.327 388.731 759.925C423.756 762.316 459.222 764.678 494.355 761.229Z" fill="var(--color-illustration-primary, #382C80)"/>
<path d="M494.355 763.944C497.844 763.64 504.008 761.611 506.889 764.336C509.104 766.443 509.545 770.578 509.829 773.44C510.071 776.305 510.097 779.185 509.908 782.054C509.467 789.12 502.979 790.678 496.972 792.217C485.565 795.157 473.315 795.216 461.613 796.049C449.05 796.95 436.476 797.764 423.903 798.381C410.996 799.018 398.08 799.479 385.173 799.675C381.939 799.733 378.705 799.773 375.481 799.773C373.07 799.773 370.14 800.155 367.916 799.057C364.241 797.225 363.662 790.835 363.114 787.14C362.379 782.24 362.673 777.34 362.927 772.44C363.176 770.636 363.255 768.811 363.163 766.992C362.967 765.639 363.868 765.188 362.692 765.796C363.094 765.59 365.515 765.933 366.22 765.923C368.25 765.874 370.276 765.707 372.286 765.424C377.794 764.718 383.184 763.601 388.76 763.856C395.15 764.14 401.5 764.728 407.909 765.12C436.672 766.913 465.671 768.06 494.394 765.12C499.294 764.62 499.373 756.966 494.394 757.407C463.034 760.151 431.625 758.887 400.236 756.839C393.092 756.368 386.124 755.663 378.99 756.633C375.893 757.054 372.816 757.613 369.699 757.956C366.583 758.299 362.447 757.231 359.39 758.397C353.921 760.475 355.381 767.893 355.146 772.47C354.683 778.457 354.903 784.477 355.803 790.414C356.548 794.765 357.626 799.9 360.634 803.32C364.848 808.083 371.649 807.603 377.422 807.564C392.925 807.456 408.419 806.878 423.903 805.966C439.387 805.055 454.851 803.849 470.316 802.517C483.134 801.409 497.217 801.154 508.8 794.833C514.279 791.893 516.013 787.817 516.16 781.721C516.316 777.702 516.043 773.677 515.347 769.716C514.622 765.874 513.132 761.68 509.839 759.308C505.331 756.055 499.441 757.976 494.394 758.544C490.935 758.887 490.837 764.267 494.355 763.944Z" fill="var(--color-illustration-primary, #382C80)"/>
<path d="M581.34 761.229C583.3 760.954 585.309 760.641 587.298 760.298C588.798 760.033 590.581 759.955 591.493 762.032C591.965 763.396 592.194 764.833 592.169 766.276L593.237 789.796C577.391 796.225 559.751 793.588 543.551 793.588C529.096 793.588 514.563 795.47 500.118 796.401C496.384 796.646 488.985 799.341 485.976 793.843C482.801 787.963 484.438 772.528 484.359 765.119C484.314 764.367 484.394 763.612 484.594 762.885C485.045 761.709 486.015 761.738 486.819 761.846C493.189 762.699 499.157 759.288 505.527 759.886C530.694 762.317 556.134 764.678 581.34 761.229Z" fill="var(--color-illustration-secondary, #7F72FF)"/>
<path d="M581.34 763.943C582.722 763.777 587.279 762.415 588.2 762.963C590.023 764.1 589.307 769.823 589.366 771.676L589.915 789.796L592.336 786.621C580.125 791.109 567.404 790.756 554.606 790.217C541.457 789.763 528.293 790.133 515.19 791.325C509.428 791.815 503.557 792.001 497.834 792.804C494.218 793.314 490.18 794.617 488.759 790.315C487.338 786.013 487.828 781.064 487.926 776.752C487.926 774.625 488.064 772.509 488.132 770.392C488.181 768.873 487.632 765.296 488.544 764.041L486.28 765.874C487.73 765.394 490.014 765.874 491.582 765.756C492.973 765.619 494.355 765.355 495.717 765.09C499.765 764.316 503.303 763.679 507.477 764.022C515.69 764.708 523.873 765.56 532.085 766.099C548.892 767.187 565.729 767.305 582.428 764.943C586.691 764.345 585.73 756.838 581.448 757.368C561.544 759.769 541.64 759.141 521.668 757.475C512.299 756.701 503.714 755.515 494.443 757.397C487.936 758.74 480.949 756.309 480.547 765.159C480.132 771.648 480.051 778.153 480.302 784.651C480.586 789.835 481.194 796.195 485.937 799.351C491.004 802.712 497.442 800.537 503.018 800.135C512.818 799.429 522.53 798.332 532.301 797.744C552.773 796.519 574.647 800.88 594.188 793.03C595.602 792.608 596.581 791.32 596.608 789.845L595.687 775.38C595.432 771.235 595.687 766.638 594.707 762.591C592.914 755.398 586.015 757.799 580.634 758.671C577.636 759.063 578.312 764.335 581.34 763.943Z" fill="var(--color-illustration-primary, #382C80)"/>
<path d="M681.388 550.587C684.162 550.313 686.925 550.009 689.689 549.607C700.645 548.235 700.283 565.395 699.979 572.432C700.008 574.075 699.674 575.705 698.999 577.204C697.832 579.024 696.146 580.451 694.158 581.301C685.259 585.848 675.008 586.798 665.042 587.622C630.271 590.513 595.462 592.923 560.544 592.972C557.173 592.972 553.449 592.825 550.999 590.513C547.824 587.573 546.432 578.753 545.962 574.47C545.237 567.826 546.364 561.132 546.276 554.478C546.194 553.718 546.306 552.949 546.599 552.244C547.216 551.068 548.559 551.097 549.696 551.205C558.575 552.048 566.885 548.647 575.764 549.245C610.789 551.685 646.245 554.037 681.388 550.587Z" fill="var(--color-illustration-primary, #382C80)"/>
<path d="M681.388 553.312C684.877 552.998 691.031 550.97 693.913 553.704C696.137 555.811 696.568 559.937 696.853 562.798C697.094 565.667 697.121 568.55 696.931 571.422C696.49 578.488 689.993 580.046 683.995 581.575C672.578 584.515 660.338 584.574 648.637 585.407C636.073 586.309 623.5 587.122 610.916 587.749C598.02 588.403 585.11 588.834 572.187 589.043C568.963 589.043 565.729 589.131 562.504 589.141C560.084 589.141 557.163 589.523 554.939 588.416C551.254 586.583 550.686 580.203 550.127 576.509C549.402 571.609 549.686 566.709 549.951 561.809C550.195 560 550.273 558.173 550.186 556.35C549.99 555.007 550.882 554.547 549.715 555.154C550.117 554.949 552.538 555.301 553.234 555.292C555.267 555.239 557.296 555.069 559.31 554.782C564.807 554.076 570.207 552.969 575.783 553.214C582.163 553.498 588.523 554.086 594.933 554.488C623.696 556.281 652.684 557.428 681.418 554.488C686.318 553.988 686.396 546.334 681.418 546.766C650.058 549.519 618.649 548.245 587.259 546.197C580.115 545.727 573.147 545.031 566.013 546.001C562.916 546.423 559.839 546.981 556.713 547.314C553.586 547.648 549.461 546.589 546.413 547.755C540.935 549.843 542.405 557.252 542.16 561.838C541.701 567.825 541.921 573.844 542.816 579.782C543.571 584.133 544.649 589.258 547.657 592.679C551.862 597.451 558.663 596.971 564.435 596.932C579.948 596.824 595.442 596.236 610.916 595.325C626.391 594.413 641.875 593.218 657.329 591.885C670.148 590.768 684.24 590.523 695.824 584.202C701.292 581.262 703.036 577.185 703.183 571.089C703.339 567.067 703.067 563.039 702.37 559.074C701.645 555.233 700.155 551.048 696.853 548.667C692.354 545.423 686.465 547.334 681.418 547.902C677.968 548.245 677.87 553.626 681.388 553.312Z" fill="var(--color-illustration-primary, #382C80)"/>
<path d="M768.393 550.587C770.353 550.313 772.313 550.009 774.351 549.607C775.85 549.352 777.624 549.264 778.545 551.352C779.013 552.713 779.242 554.146 779.222 555.585L780.28 579.203C764.433 585.632 746.793 582.986 730.594 582.986C716.139 582.986 701.596 584.868 687.151 585.808C683.427 586.044 676.028 588.748 673.019 583.251C669.834 577.371 671.48 561.936 671.402 554.527C671.347 553.774 671.426 553.017 671.637 552.292C672.078 551.116 673.058 551.146 673.862 551.254C680.232 552.096 686.2 548.696 692.57 549.294C717.717 551.685 743.167 554.037 768.393 550.587Z" fill="var(--color-illustration-secondary, #7F72FF)"/>
<path d="M768.393 553.312C769.765 553.135 774.273 551.773 775.253 552.332C777.075 553.459 776.36 559.192 776.419 561.034L776.968 579.164L779.388 575.989C767.177 580.477 754.457 580.115 741.658 579.585C728.509 579.126 715.345 579.496 702.243 580.693C696.48 581.173 690.61 581.359 684.887 582.163C681.271 582.672 677.223 583.986 675.812 579.683C674.401 575.381 674.881 570.432 674.969 566.11C675.018 563.994 675.106 561.877 675.185 559.76C675.234 558.241 674.675 554.654 675.587 553.41L673.254 555.193C674.705 554.713 676.988 555.193 678.566 555.085C679.957 554.938 681.329 554.684 682.701 554.419C686.749 553.645 690.277 552.998 694.461 553.351C702.664 554.027 710.847 554.88 719.069 555.419C735.866 556.516 752.713 556.634 769.412 554.272C773.675 553.664 772.714 546.167 768.432 546.687C748.518 549.098 728.614 548.461 708.652 546.804C699.273 546.02 690.698 544.844 681.427 546.726C674.92 548.069 667.933 545.628 667.521 554.488C667.115 560.974 667.036 567.476 667.286 573.97C667.57 579.154 668.178 585.524 672.921 588.67C677.988 592.031 684.426 589.856 690.002 589.454C699.802 588.739 709.504 587.641 719.285 587.063C739.757 585.828 761.621 590.189 781.172 582.339C782.579 581.913 783.554 580.633 783.592 579.164L782.72 564.66C782.475 560.524 782.72 555.928 781.74 551.92C779.947 544.727 773.048 547.118 767.667 548C764.669 548.431 765.335 553.694 768.393 553.312Z" fill="var(--color-illustration-primary, #382C80)"/>
<path d="M866.608 387.162C869.372 386.888 872.135 386.584 874.899 386.231C885.855 384.859 885.493 402.019 885.189 409.056C885.223 410.7 884.888 412.331 884.209 413.828C883.049 415.65 881.365 417.078 879.378 417.925C870.469 422.472 860.219 423.422 850.252 424.246C815.482 427.137 780.672 429.547 745.755 429.596C742.383 429.596 738.669 429.449 736.209 427.137C733.034 424.197 731.643 415.377 731.172 411.094C730.447 404.45 731.584 397.756 731.486 391.102C731.415 390.342 731.526 389.576 731.809 388.868C732.427 387.692 733.769 387.721 734.906 387.829C743.785 388.672 752.105 385.271 760.974 385.869C795.96 388.28 831.465 390.612 866.608 387.162Z" fill="var(--color-illustration-primary, #382C80)"/>
<path d="M866.608 389.887C870.087 389.574 876.251 387.545 879.133 390.279C881.357 392.386 881.788 396.512 882.073 399.374C882.306 402.243 882.329 405.125 882.141 407.998C881.7 415.063 875.213 416.622 869.205 418.15C857.798 421.09 845.548 421.149 833.847 421.982C821.283 422.884 808.72 423.697 796.136 424.324C783.24 424.978 770.33 425.409 757.407 425.618C754.173 425.618 750.949 425.706 747.715 425.716C745.304 425.716 742.374 426.098 740.159 424.991C736.474 423.158 735.896 416.778 735.347 413.084C734.612 408.184 734.906 403.284 735.171 398.384C735.416 396.575 735.492 394.748 735.396 392.925C735.2 391.583 736.102 391.122 734.926 391.73C735.327 391.524 737.758 391.877 738.454 391.867C740.484 391.815 742.509 391.645 744.52 391.357C750.027 390.661 755.417 389.544 760.994 389.789C767.383 390.073 773.734 390.661 780.143 391.063C808.916 392.857 837.904 394.003 866.638 391.063C871.538 390.563 871.616 382.91 866.638 383.341C835.278 386.095 803.859 384.821 772.479 382.772C765.325 382.302 758.357 381.606 751.233 382.576C748.126 382.998 745.049 383.556 741.933 383.89C738.816 384.223 734.681 383.164 731.623 384.331C726.155 386.418 727.615 393.827 727.38 398.413C726.916 404.4 727.137 410.42 728.036 416.357C728.791 420.708 729.859 425.834 732.877 429.254C737.082 434.026 743.883 433.546 749.655 433.507C765.159 433.399 780.652 432.811 796.136 431.9C811.62 430.988 827.095 429.793 842.549 428.46C855.368 427.343 869.45 427.098 881.044 420.777C886.512 417.788 888.247 413.76 888.394 407.664C888.548 403.642 888.279 399.615 887.59 395.65C886.855 391.808 885.365 387.623 882.073 385.242C877.565 381.998 871.675 383.909 866.638 384.478C863.178 384.821 863.08 390.24 866.608 389.887Z" fill="var(--color-illustration-primary, #382C80)"/>
<path d="M953.603 387.162C955.563 386.888 957.582 386.584 959.561 386.231C961.061 385.977 962.844 385.888 963.765 387.976C964.234 389.337 964.46 390.77 964.432 392.209L965.5 415.778C949.653 422.207 932.013 419.561 915.814 419.561C901.359 419.561 886.826 421.443 872.38 422.384C868.656 422.619 861.248 425.324 858.239 419.826C855.064 413.946 856.7 398.511 856.632 391.102C856.579 390.35 856.655 389.594 856.857 388.868C857.308 387.692 858.278 387.721 859.082 387.829C865.462 388.672 871.42 385.271 877.79 385.869C902.937 388.28 928.387 390.612 953.603 387.162Z" fill="var(--color-illustration-secondary, #7F72FF)"/>
<path d="M953.603 389.888C954.985 389.711 959.542 388.349 960.463 388.908C962.286 390.035 961.58 395.768 961.629 397.61L962.188 415.74L964.608 412.565C952.388 417.053 939.667 416.691 926.868 416.162C913.72 415.702 900.555 416.072 887.453 417.269C881.69 417.749 875.83 417.935 870.097 418.739C866.481 419.249 862.443 420.562 861.022 416.26C859.601 411.957 860.091 407.008 860.189 402.687C860.238 400.57 860.326 398.453 860.395 396.336C860.444 394.817 859.895 391.23 860.807 389.986L858.474 391.769C859.925 391.289 862.208 391.769 863.776 391.662C865.168 391.515 866.549 391.26 867.912 390.995C871.969 390.221 875.497 389.574 879.672 389.927C887.874 390.603 896.057 391.456 904.27 391.995C921.077 393.092 937.913 393.21 954.622 390.848C958.875 390.241 957.915 382.744 953.642 383.263C933.738 385.674 913.834 385.047 893.862 383.381C884.493 382.597 875.918 381.421 866.638 383.302C860.13 384.645 853.143 382.214 852.741 391.064C852.326 397.553 852.245 404.059 852.496 410.556C852.79 415.73 853.398 422.1 858.131 425.256C863.198 428.617 869.646 426.442 875.213 426.04C885.013 425.325 894.724 424.227 904.495 423.649C924.977 422.414 946.841 426.775 966.382 418.925C967.794 418.507 968.773 417.223 968.803 415.75L967.94 401.246C967.685 397.11 967.94 392.514 966.96 388.506C965.167 381.313 958.268 383.704 952.887 384.586C949.879 385.007 950.555 390.241 953.603 389.888Z" fill="var(--color-illustration-primary, #382C80)"/>
<path d="M143.28 276.824C140.565 300.981 137.87 327.471 149.327 349.942C151.522 354.235 157.696 350.471 155.726 346.208C145.583 324.237 147.122 300.335 149.121 276.824C149.444 273.051 143.692 273.149 143.241 276.824H143.28Z" fill="var(--color-illustration-primary, #382C80)"/>
<path d="M102.924 375.344C111.499 368.16 120.407 363.192 130.628 358.762C134.068 357.273 131.608 351.5 128.07 352.696C117.055 356.579 107.127 363.037 99.1114 371.532C96.6908 374.089 100.297 377.549 102.924 375.344Z" fill="var(--color-illustration-primary, #382C80)"/>
<path d="M373.031 320.494C364.76 319.289 357.067 316.505 349.511 313.075C345.474 311.243 342.093 316.662 345.973 319.122C353.902 324.149 362.996 326.158 372.286 326.237C375.471 326.237 376.393 320.984 373.061 320.494H373.031Z" fill="var(--color-illustration-primary, #382C80)"/>
<path d="M155.04 437.692C158.068 443.944 163.027 449.717 169.377 452.725C173.297 454.607 176.59 449.236 172.847 446.796C167.79 443.513 163.262 439.936 159.842 434.879C159.049 433.591 157.371 433.172 156.065 433.937C154.759 434.702 154.304 436.37 155.04 437.692Z" fill="var(--color-illustration-primary, #382C80)"/>
<path d="M186.821 206.176C177.903 200.296 168.868 194.416 158.95 190.496C149.033 186.576 138.076 184.538 127.59 186.576C123.229 187.448 118.917 189.075 115.624 192.045C112.332 195.014 110.195 199.502 110.822 203.903C111.998 212.144 121.338 216.182 129.384 218.358C124.013 219.524 120.809 225.688 121.544 231.098C122.279 236.507 125.963 241.182 130.256 244.622C140.264 252.637 153.483 255.427 165.877 252.141C178.271 248.855 188.371 239.883 193.093 227.962" fill="var(--color-illustration-primary, #382C80)"/>
<path d="M188.419 203.432C169.446 190.192 144.319 175.012 120.387 184.655C111.499 188.252 104.188 197.395 107.52 207.362C110.46 216.182 120.162 220.102 128.306 222.385V214.408C118.368 217.348 115.046 228.657 119.133 237.546C123.631 247.346 134.48 253.785 144.613 256.303C165.634 261.536 189.948 250.315 196.69 228.991C197.954 224.992 191.849 222.356 189.83 226.119C182.558 239.967 170.23 250.041 153.884 249.296C145.85 248.961 138.155 245.966 132.01 240.78C127.306 236.693 120.995 225.227 130.471 222.385C134.391 221.229 134.47 215.525 130.471 214.408C125.003 212.889 116.497 210.488 114.948 204.069C112.498 193.946 126.522 190.212 133.725 189.771C152.678 188.605 169.73 199.326 185.185 208.92C188.703 211.106 191.702 205.745 188.389 203.432H188.419Z" fill="var(--color-illustration-primary, #382C80)"/>
<path d="M457.86 505.243C497.658 487.044 530.008 454.959 561.74 425.598C595.57 394.284 628.272 361.807 659.848 328.167C677.488 309.361 695.069 290.378 711.572 270.533C714.13 267.466 709.887 263.036 707.123 266.074C676.527 299.766 646.206 333.567 614.111 365.867C582.32 397.874 549.627 429.175 515.543 458.752C496.982 474.863 477.48 490.053 455.253 500.784C452.245 502.244 454.871 506.615 457.86 505.243Z" fill="var(--color-illustration-primary, #382C80)"/>
<path d="M663.18 283.028C681.565 279.245 698.881 273.179 716.1 265.878L710.788 262.84C712.378 276.468 710.953 290.278 706.613 303.294C705.29 307.263 711.396 308.831 712.827 305.009C717.882 291.575 719.62 277.119 717.893 262.869C717.55 260.155 715.149 258.499 712.542 259.802C696.5 267.818 679.066 273.404 661.582 277.442C657.858 278.285 659.446 283.89 663.15 283.126L663.18 283.028Z" fill="var(--color-illustration-primary, #382C80)"/>
<path d="M596.461 459.869C615.277 453.705 631.618 441.665 643.08 425.521C645.285 422.414 640.14 419.484 637.984 422.581C627.355 437.527 612.366 448.822 595.07 454.921C591.904 456.018 593.247 461.065 596.471 459.977L596.461 459.869Z" fill="var(--color-illustration-primary, #382C80)"/>
<path d="M432.008 460.319C462.339 442.483 491.474 421.119 515.582 395.385C518.179 392.601 514.141 388.525 511.388 391.19C486.162 415.553 459.634 437.936 429.577 456.154C426.921 457.762 429.322 461.907 432.008 460.319Z" fill="var(--color-illustration-primary, #382C80)"/>
<path d="M530.929 380.773C535.123 380.773 535.133 374.246 530.929 374.246C526.725 374.246 526.715 380.773 530.929 380.773Z" fill="var(--color-illustration-primary, #382C80)"/>
<path d="M214.036 786.65C229.638 782.955 244.161 774.694 256.039 764.11C257.568 762.738 255.343 760.592 253.814 761.876C241.731 772.058 228.207 778.967 213.272 783.906C212.544 784.152 212.135 784.922 212.338 785.663C212.54 786.403 213.285 786.857 214.036 786.699V786.65Z" fill="var(--color-illustration-primary, #382C80)"/>
<path d="M447.443 189.438C454.69 192.365 461.243 196.778 466.68 202.394C468.101 203.795 470.149 201.698 468.856 200.228C463.185 194.073 456.067 189.431 448.148 186.723C446.433 186.106 445.747 188.791 447.403 189.438H447.443Z" fill="var(--color-illustration-primary, #382C80)"/>
<path d="M666.022 742.706C659.348 740.492 649.068 736.131 650.44 727.271C651.42 720.794 660.24 719.48 664.16 724.204C665.346 725.664 667.492 724.351 667.59 722.783C668.09 714.786 669.481 705.143 676.9 700.508C680.085 698.499 684.181 697.568 687.68 699.449C691.328 701.309 693.031 705.587 691.659 709.445L695.755 710.572C699.312 700.096 710.132 692.423 721.235 696.617C731.819 700.615 734.759 714.482 725.714 721.725L728.791 724.802C733.691 718.99 740.6 713.757 748.577 713.826C756.358 713.904 763.679 719.99 763.277 728.085C763.284 728.781 763.612 729.434 764.166 729.856C764.719 730.277 765.437 730.419 766.109 730.241C769.872 728.869 773.116 729.829 776.389 731.926C778.349 733.171 783.142 736.405 783.926 738.786C785.229 742.628 779.8 742.589 777.33 742.932C774.861 743.275 772.283 743.549 769.745 743.784C758.14 744.714 746.495 745.041 734.857 744.764C711.866 744.441 688.944 742.726 665.992 741.638C663.052 741.501 663.052 746.058 665.992 746.195C695.314 747.557 724.655 750.037 754.036 749.135C761.052 748.92 768.089 748.508 775.066 747.665C779.29 747.156 785.935 747.195 788.541 743.128C791.717 738.159 784.847 732.906 781.574 730.241C776.791 726.321 771.039 723.704 764.914 725.948L767.756 728.104C768.226 718.922 760.807 711.209 751.978 709.671C741.599 707.867 732.123 714.159 725.723 721.744C724.874 722.594 724.874 723.972 725.723 724.821C726.573 725.671 727.951 725.671 728.801 724.821C739.777 716.001 736.464 698.822 724.146 693.177C710.357 686.856 696.196 696.117 691.668 709.465C690.786 712.081 694.824 713.12 695.765 710.592C699.273 701.203 689.64 692.57 680.506 694.52C667.511 697.283 664.209 711.464 663.601 722.803L667.031 721.382C661.925 715.217 650.695 716.482 647.431 723.959C642.276 735.719 656.477 742.961 665.316 745.597C667.159 746.156 667.913 743.324 666.11 742.726L666.022 742.706Z" fill="var(--color-illustration-primary, #382C80)"/>
<path d="M491.954 136.254C487.387 125.19 496.276 110.039 508.996 110.94C521.276 111.813 528.645 127.355 522.618 137.645L526.058 139.654C529.831 133.137 536.495 126.767 544.678 127.571C551.675 128.257 558.173 136.264 554.478 143.084C553.498 144.858 555.546 147.289 557.418 146.024C565.003 140.899 575.813 141.124 582.487 147.769C585.614 150.995 587.546 155.192 587.965 159.666C588.122 161.195 586.838 175.346 582.594 172.337V176.081C594.227 167.261 610.26 166.281 622.245 175.101C626.743 178.404 638.905 190.781 631.634 196.142C628.919 198.16 624.529 198.768 621.255 199.415C617.127 200.159 612.952 200.611 608.76 200.767C575.901 202.512 542.836 200.973 510.133 197.553C507.37 197.269 507.409 201.561 510.133 201.875C542.547 205.612 575.213 206.664 607.8 205.02C614.66 204.658 621.618 204.04 628.204 201.904C632.721 200.463 637.651 198.347 638.004 192.966C638.709 182.343 626.665 171.779 618.021 167.829C605.586 162.347 591.151 164.075 580.36 172.337C579.714 172.74 579.321 173.448 579.321 174.209C579.321 174.971 579.714 175.679 580.36 176.081C585.123 179.521 589.533 173.758 591.003 169.662C593.223 163.195 592.659 156.097 589.445 150.062C582.928 137.714 566.454 134.656 555.203 142.281L558.143 145.221C562.24 136.959 557.095 127.081 548.579 124.18C537.916 120.544 527.489 128.737 522.628 137.616C521.403 139.87 524.823 141.869 526.068 139.625C533.016 127.061 524.441 108.579 509.594 107.363C494.238 106.109 483.046 123.945 488.955 137.489C489.69 139.184 492.67 137.949 491.964 136.224L491.954 136.254Z" fill="var(--color-illustration-primary, #382C80)"/>
<path d="M201.296 133.755C185.704 134.333 170.318 137.038 154.638 136.44C150.218 136.273 134.46 136.283 138.586 128.404C139.811 126.071 141.947 124.533 143.015 122.053C143.927 119.927 144.103 117.624 144.858 115.458C146.132 111.773 149.875 105.266 154.766 107.706C157.755 109.186 159.499 113.135 160.783 115.977C161.42 117.398 163.674 117.261 164.36 115.977C166.437 112.057 169.613 108.402 174.16 107.324C179.775 105.991 185.587 110.078 185.155 116.056C185.16 116.711 185.469 117.327 185.99 117.724C186.512 118.121 187.188 118.254 187.821 118.084C194.633 115.199 202.393 115.6 208.871 119.172C212.684 121.299 219.416 126.659 213.036 130.374C209.528 132.422 205.285 132.833 201.276 133.196C198.66 133.441 198.611 137.557 201.276 137.341C207.039 136.881 213.546 136.234 217.936 132.069C221.513 128.708 220.876 124.513 217.819 121.005C210.263 112.244 197.151 109.686 186.635 114.017L189.301 116.056C189.761 109.313 184.254 103.512 177.541 102.914C170.122 102.257 163.948 107.736 160.695 113.89H164.272C162.361 109.666 159.519 104.619 154.697 103.296C149.875 101.973 146.22 105.06 143.701 108.774C140.252 113.763 140.399 119.75 136.557 124.454C134.225 127.316 132.51 131.158 134.764 134.627C137.772 139.233 145.544 139.654 150.385 140.027C159.489 140.722 168.711 140.134 177.825 139.37C185.665 138.723 193.505 137.812 201.345 136.783C203.158 136.538 203.305 133.686 201.296 133.755Z" fill="var(--color-illustration-primary, #382C80)"/>
</svg>
