<svg width="1000" height="1000" viewBox="0 0 1000 1000" fill="none" xmlns="http://www.w3.org/2000/svg">
<path d="M296.405 897.664C304.108 910.159 319.366 915.51 333.645 918.911C340.319 920.488 347.747 921.753 353.715 918.381C360.634 914.461 363.094 905.837 364.495 898.017C366.044 889.579 367.141 880.926 365.838 872.449C362.182 848.76 340.869 831.905 316.975 833.807" fill="var(--color-illustration-primary, #382C80)"/>
<path d="M294.014 899.056C300.599 909.581 310.86 915.647 322.336 919.763C333.812 923.879 349.452 928.926 359.782 919.44C364.045 915.52 366.436 909.758 367.818 904.24C369.585 897.225 370.548 890.031 370.689 882.798C371.057 869.419 366.42 856.384 357.684 846.244C347.383 834.775 332.387 828.67 317.005 829.682C311.713 830.025 311.693 838.316 317.005 837.943C339.545 836.346 360.811 852.937 362.134 876.085C362.506 882.651 361.585 889.178 360.409 895.616C359.546 900.291 358.606 905.23 356.244 909.424C350.462 919.675 337.389 915.736 328.137 913.393C317.259 910.63 305.186 906.122 298.786 896.273C296.826 893.333 292.113 896.028 294.014 899.056Z" fill="var(--color-illustration-primary, #382C80)"/>
<path d="M434.516 306.94C436.731 304.882 439.416 304.568 441.21 307.244C440.798 300.286 457.38 287.261 463.191 284.008C484.212 272.248 508.212 288.908 515.866 309.488C518.806 317.328 519.904 326.422 526.166 331.93C530.507 335.752 536.632 337.094 540.866 341.024C546.922 346.64 547.53 356.44 544.218 364.005C540.905 371.571 534.418 377.265 527.734 382.086C503.734 399.364 468.483 408.34 440.514 395.806C431.371 391.7 423.099 385.026 418.503 376.157C414.063 367.425 413.38 357.259 416.612 348.012C418.278 343.337 420.904 339.074 423.472 334.85C426.627 329.735 429.538 326.109 430.175 320.297C430.802 315.054 430.302 310.86 434.516 306.94Z" fill="var(--color-illustration-primary, #382C80)"/>
<path d="M436.672 309.066C437.829 308.145 438.152 308.459 438.936 309.488C440.739 311.801 444.385 309.743 444.424 307.214C444.424 303.784 448.697 300.256 450.912 298.1C454.18 294.935 457.715 292.056 461.476 289.496C470.12 283.616 480.096 282.146 489.818 286.477C500.114 291.259 508.17 299.828 512.309 310.399C514.524 316.132 515.631 322.247 518.473 327.745C521.413 333.429 526.127 336.712 531.713 339.505C537.299 342.298 541.679 345.552 542.493 352.147C543.198 358.204 540.846 363.995 537.122 368.67C529.42 378.362 517.307 385.261 506.076 390.063C483.654 399.658 453.989 402.598 433.203 387.417C420.934 378.45 415.103 362.3 420.865 347.894C423.717 340.769 428.96 334.958 432.106 328.01C433.43 324.934 434.206 321.651 434.399 318.308C434.673 315.015 434.82 312.055 437.153 309.488C440.328 305.989 435.457 301.109 431.968 304.304C429.542 306.439 427.865 309.297 427.186 312.457C426.441 315.838 426.735 319.366 425.726 322.698C424.716 326.03 422.58 328.911 420.747 331.832C418.453 335.335 416.39 338.986 414.573 342.759C408.184 356.743 409.938 373.727 420.277 385.399C439.926 407.635 473.814 408.86 500.176 400.04C513.73 395.532 527.058 388.466 537.612 378.735C547.314 369.797 554.272 355.215 546.854 342.602C543.071 336.154 536.329 334.36 530.458 330.489C524.373 326.491 522.795 319.111 520.796 312.575C516.876 299.982 509.173 288.673 497.648 281.92C485.751 274.953 470.914 274.129 459.212 282.009C454.196 285.39 449.557 289.3 445.375 293.671C442.023 297.169 437.829 302.01 437.995 307.195L443.483 304.921C440.23 301.128 435.898 301.726 432.37 304.745C429.362 307.351 433.664 311.448 436.672 309.066Z" fill="var(--color-illustration-primary, #382C80)"/>
<path d="M498.559 379.382C440.739 384.155 365.75 381.342 307.969 386.879L343.896 359.282C363.065 344.582 384.585 325.707 391.592 301.648C401.843 266.457 373.854 235.008 375.628 200.512C375.863 195.828 376.736 191.163 376.353 186.498C375.971 181.834 374.041 176.963 370.032 174.533C368.939 173.818 367.654 173.452 366.348 173.484C363.143 173.719 361.173 177.1 360.291 180.197C359.409 183.294 358.89 186.773 356.45 188.87C356.92 184.156 357.332 179.129 355.127 174.944C352.922 170.76 347.022 168.172 343.288 171.083C339.878 173.729 339.995 179.237 336.742 182.079C336.742 178.502 336.742 174.787 335.203 171.563C333.665 168.339 330.137 165.752 326.648 166.526C320.317 167.918 320.278 177.306 315.564 181.726C317.357 175.571 310.135 169.682 303.804 170.691C297.473 171.7 292.808 177.228 290.025 182.99C282.587 198.405 287.232 212.39 286.664 228.344C286.007 246.964 274.09 257.049 262.036 269.504C248.61 283.381 235.714 297.924 225.188 314.134C213.105 332.754 205.588 358.665 206.902 380.93C208.058 399.884 215.418 418.543 228.168 432.606C243.24 449.266 264.673 458.664 286.174 465.073C345.395 482.713 418.572 468.885 476.49 447.335" fill="var(--color-illustration-base, #FFFFFF)"/>
<path d="M498.559 376.746C448.579 380.352 398.266 378.863 348.169 380.754C334.752 381.264 321.336 381.999 307.989 383.214L309.841 390.074C326.893 377.069 344.592 364.594 360.801 350.57C374.678 338.585 387.525 324.492 394.013 307.077C400.589 289.438 397.482 271.082 391.955 253.648C386.594 236.723 379.019 219.652 379.666 201.541C380.038 191.143 382.89 178.08 372.482 171.289C368.406 168.38 362.781 169.083 359.546 172.906C358.047 174.733 356.951 176.857 356.332 179.139C355.607 181.52 355.352 184.176 353.539 185.998L360.546 188.938C361.389 180.197 360.487 169.27 350.472 166.33C346.722 165.12 342.612 166.052 339.75 168.76C336.81 171.7 336.712 176.355 333.87 179.188L340.887 182.127C340.887 177.227 340.672 172.004 337.761 167.849C335.095 164.046 330.284 161.44 325.58 162.606C317.279 164.664 317.74 173.709 312.683 178.864L319.543 182.872C321.503 174.15 313.731 166.408 305.127 166.516C295.856 166.643 289.133 174.856 285.723 182.647C281.519 192.222 281.342 202.335 281.999 212.596C282.626 222.219 283.675 232.196 279.676 241.28C276.256 249.061 270.268 255.275 264.398 261.253C257.117 268.681 249.904 276.168 243.073 284.018C229.647 299.443 217.368 315.937 210.214 335.262C203.452 353.51 200.649 373.482 204.216 392.769C207.78 412.268 217.88 429.973 232.852 442.964C247.719 455.636 266.015 463.397 284.557 468.964C303.471 474.648 323.306 477.078 343.024 477.313C384.056 477.813 425.187 469.248 463.936 456.175C468.522 454.636 473.07 453.009 477.597 451.333C482.497 449.501 480.4 441.533 475.402 443.366C439.975 456.498 402.676 465.789 364.897 468.297C328.382 470.728 290.202 466.455 257.352 449.315C241.211 440.896 227.658 428.823 219.455 412.378C211.253 395.934 209.254 377.402 212.292 359.507C215.452 341.415 222.684 324.277 233.44 309.39C244.769 293.387 258.381 279.353 271.974 265.29C277.403 259.675 282.754 253.677 286.252 246.602C290.251 238.448 291.152 229.844 290.76 220.877C290.378 211.626 288.8 202.11 290.917 192.956C292.387 186.469 297.248 173.905 305.882 174.719C308.655 174.983 312.32 177.472 311.605 180.599C310.733 184.519 315.525 187.655 318.465 184.607C322.11 180.883 322.659 175.65 325.815 171.74C327.246 169.966 329.147 170.319 330.627 171.994C332.93 174.601 332.587 178.854 332.587 182.049C332.615 183.697 333.615 185.172 335.135 185.809C336.656 186.446 338.409 186.124 339.603 184.989C341.632 183.029 342.661 180.618 343.71 178.021C344.435 176.247 345.121 173.758 347.453 173.974C354 174.582 352.716 184.626 352.304 188.88C351.951 192.545 356.949 194.113 359.301 191.82C362.241 188.88 362.976 185.195 364.201 181.334C364.525 180.354 365.181 177.806 366.544 177.629C368.317 177.384 370.101 180.099 370.758 181.373C372.767 185.293 372.394 189.918 372.032 194.181C371.535 198.622 371.362 203.093 371.512 207.558C372.492 224.218 378.882 239.673 383.919 255.343C388.956 271.014 392.288 287.399 386.741 303.53C381.195 319.661 369.219 332.626 356.812 343.71C340.544 358.243 322.561 370.993 305.323 384.331C302.863 386.232 304.892 390.897 307.92 390.593C357.9 385.693 408.194 386.673 458.281 384.664C471.707 384.115 485.133 383.292 498.461 382.077C501.803 381.773 501.872 376.55 498.461 376.795L498.559 376.746Z" fill="var(--color-illustration-primary, #382C80)"/>
<path d="M321.356 253.481C330.878 251.591 340.568 250.678 350.276 250.757C355.012 250.796 359.733 251.071 364.437 251.58C367.377 251.894 372.335 253.54 374.864 251.306C376.004 250.124 376.815 248.664 377.216 247.072C378.322 243.294 379.704 239.603 381.351 236.028C383.145 232.519 385.742 229.285 389.28 227.551C392.795 225.85 396.875 225.761 400.461 227.306C401.662 227.764 402.703 228.561 403.46 229.599C404.046 230.588 404.382 231.704 404.44 232.852C405.283 242.652 397.864 250.306 396.6 259.567C395.846 264.987 394.278 270.132 393.876 275.649C393.474 281.166 393.572 286.684 393.68 292.201" fill="var(--color-illustration-base, #FFFFFF)"/>
<path d="M322.248 256.705C333.84 254.726 345.62 254.069 357.361 254.745C362.016 255.049 366.896 256.44 371.542 256.293C376.54 256.137 379.244 253.001 380.95 248.591C382.714 243.994 384.007 238.859 387.084 234.871C389.476 231.793 395.326 228.471 399.099 231.48C401.824 233.646 398.991 240.3 397.923 242.916C396.257 246.954 394.111 250.805 392.886 255.01C391.392 260.614 390.328 266.325 389.701 272.091C388.961 278.755 388.981 285.482 389.76 292.142C390.269 297.042 397.129 297.159 397.472 292.142C397.894 285.87 397.61 279.51 398.57 273.287C399.021 270.415 399.707 267.593 400.256 264.741C400.649 261.966 401.195 259.214 401.892 256.499C404.577 247.895 412.447 237.37 407.674 228.079C405.273 223.395 399.276 221.552 394.317 221.807C389.085 222.147 384.239 224.677 380.969 228.775C377.284 233.244 375.324 238.742 373.805 244.249C373.237 246.327 373.08 248.453 370.669 248.522C368.259 248.591 366.054 247.895 363.809 247.66C349.328 246.171 334.701 247.031 320.493 250.208C316.221 251.188 318.102 257.342 322.267 256.666L322.248 256.705Z" fill="var(--color-illustration-primary, #382C80)"/>
<path d="M340.838 194.524C341.044 192.564 340.838 190.604 340.975 188.644C341.156 186.724 341.511 184.825 342.034 182.97C343.504 177.413 334.419 175.237 333.625 180.657C332.91 185.616 332.645 191.535 335.144 196.092C336.703 199.032 340.544 197.327 340.838 194.553V194.524Z" fill="var(--color-illustration-primary, #382C80)"/>
<path d="M319.317 193.7C319.523 191.74 319.317 189.78 319.455 187.82C319.635 185.904 319.989 184.008 320.513 182.156C321.983 176.59 312.898 174.424 312.105 179.833C311.389 184.792 311.174 190.721 313.624 195.278C315.182 198.218 319.023 196.513 319.317 193.74V193.7Z" fill="var(--color-illustration-primary, #382C80)"/>
<path d="M290.937 414.014C296.156 403.397 304.078 394.342 313.908 387.76C318.083 384.937 314.074 378.107 309.988 380.998C299.259 388.525 290.682 398.724 285.106 410.584C283.253 414.504 289.026 417.954 290.986 414.014H290.937Z" fill="var(--color-illustration-primary, #382C80)"/>
<path d="M360.183 200.228C360.389 198.268 360.183 196.308 360.33 194.348C360.511 192.431 360.865 190.536 361.389 188.683C362.859 183.117 353.764 180.951 352.98 186.361C352.255 191.329 352 197.249 354.49 201.806C356.058 204.746 359.889 203.04 360.183 200.267V200.228Z" fill="var(--color-illustration-primary, #382C80)"/>
<path d="M469.943 382.959C527.352 375.119 583.094 371.787 641.071 374.707L603.939 348.747C584.133 334.9 561.799 317.015 553.724 293.299C541.905 258.597 568.424 225.983 565.15 191.545C564.7 186.881 563.622 182.255 563.798 177.58C563.974 172.906 565.689 167.957 569.58 165.35C570.64 164.585 571.909 164.161 573.216 164.135C576.43 164.223 578.547 167.516 579.566 170.564C580.585 173.611 581.262 177.071 583.79 179.07C583.114 174.376 582.477 169.378 584.486 165.085C586.495 160.793 592.277 157.961 596.148 160.705C599.666 163.194 599.793 168.711 603.174 171.397C602.998 167.829 602.851 164.115 604.243 160.822C605.634 157.53 609.045 154.795 612.563 155.413C618.943 156.52 619.423 165.869 624.323 170.113C622.255 164.047 629.223 157.833 635.573 158.568C641.924 159.303 646.843 164.595 649.891 170.24C658.005 185.293 653.987 199.464 655.261 215.389C656.761 234.009 669.119 243.505 681.721 255.422C695.745 268.691 709.279 282.617 720.529 298.365C733.436 316.427 742.089 341.975 741.776 364.28C741.472 383.263 734.916 402.226 722.832 416.847C708.524 434.135 687.552 444.503 666.335 451.873C607.967 472.159 527.597 463.907 468.767 445.013" fill="var(--color-illustration-base, #FFFFFF)"/>
<path d="M469.943 385.605C514.043 380.009 558.565 376.785 603.057 377.137C615.738 377.248 628.409 377.64 641.071 378.313C644.932 378.519 645.579 373.492 642.884 371.59C626.763 360.232 610.191 349.315 594.59 337.232C581.742 327.285 569.374 315.809 561.593 301.344C553.312 285.968 553.645 269.465 557.673 252.883C561.544 236.84 567.63 221.307 569.208 204.755C569.686 199.938 569.66 195.083 569.129 190.271C568.561 185.263 567.169 179.951 568.257 174.914C568.874 172.062 572.275 165.34 574.98 170.152C577.234 174.179 577.273 178.648 580.919 181.961C584.162 184.901 588.327 181.912 587.779 177.972C587.191 173.866 585.936 164.507 592.169 163.782C594.452 163.517 595.227 165.889 596.03 167.643C596.972 170.138 598.432 172.406 600.313 174.297C602.802 176.551 607.486 175.14 607.32 171.357C607.173 168.123 606.693 164.076 608.682 161.273C609.966 159.46 611.945 158.774 613.533 160.45C615.121 162.125 615.885 164.487 616.875 166.457C618 168.882 619.546 171.089 621.442 172.974C624.382 175.728 629.429 172.974 628.302 168.966C627.41 165.732 630.84 162.958 633.839 162.596C637.759 162.125 641.483 165.359 643.756 168.231C649.764 175.835 651.057 185.783 651.057 195.161C651.057 204.736 650.077 214.575 652.586 223.944C654.722 231.784 659.23 238.644 664.66 244.612C670.54 251.06 677.233 256.744 683.495 262.791C690.865 269.925 698.038 277.266 704.751 285.017C717.619 299.864 727.928 315.956 733.397 334.997C738.62 353.108 739.218 372.061 733.073 390.034C726.929 408.007 714.287 422.443 698.254 432.517C667.276 451.97 629.468 458.683 593.394 459.379C555.814 459.944 518.355 454.991 482.213 444.679C478.064 443.509 473.942 442.271 469.845 440.965C464.779 439.338 462.603 447.305 467.65 448.922C505.666 461.146 545.319 467.523 585.25 467.836C624.323 468.022 665.12 461.682 699.283 441.66C716.835 431.37 731.074 416.778 738.973 397.864C746.872 378.95 747.597 358.341 742.893 338.564C738.062 318.102 728.026 300.286 714.767 284.145C707.692 275.651 700.168 267.542 692.227 259.851C685.367 253.099 677.958 246.827 671.363 239.8C665.424 233.469 660.779 226.129 659.534 217.387C658.084 207.166 659.926 196.808 658.829 186.508C657.78 176.806 654.36 166.271 646.814 159.617C639.954 153.59 629.781 152.198 623.206 159.479C620.254 162.597 619.139 167.028 620.266 171.171L627.126 167.172C621.716 162.125 621.736 152.776 613.014 151.355C608.486 150.61 604.243 153.139 601.714 156.775C598.774 161.028 598.774 166.408 598.97 171.377L605.977 168.437C602.978 165.722 602.586 161.155 599.607 158.274C596.58 155.512 592.238 154.727 588.435 156.255C578.302 159.96 578.469 171.19 579.733 180.099L586.593 176.11C583.516 173.317 583.555 168.221 581.203 164.82C578.694 161.194 574.539 159.038 570.139 160.459C560.789 163.468 558.967 174.875 559.907 183.244C560.486 188.389 561.328 193.417 561.26 198.62C561.169 203.174 560.694 207.711 559.839 212.184C558.163 221.17 555.468 229.912 552.979 238.644C547.902 256.342 543.639 275.119 549.451 293.22C555.047 310.684 567.718 324.835 581.507 336.438C599.548 351.628 619.834 364.29 639.18 377.715L641.002 370.993C596.29 369.07 551.496 370.59 507.017 375.54C494.394 376.912 481.801 378.607 469.238 380.44C466.298 380.871 466.984 386.006 469.943 385.634V385.605Z" fill="var(--color-illustration-primary, #382C80)"/>
<path d="M621.736 242.044C612.14 240.579 602.42 240.1 592.728 240.614C588.004 240.868 583.29 241.349 578.616 242.064C575.676 242.505 570.776 244.357 568.188 242.26C566.993 241.131 566.115 239.708 565.64 238.134C564.369 234.41 562.827 230.784 561.025 227.286C559.065 223.865 556.33 220.749 552.724 219.171C549.136 217.629 545.056 217.722 541.542 219.426C540.363 219.934 539.359 220.776 538.651 221.847C538.116 222.861 537.84 223.992 537.848 225.139C537.446 234.939 545.198 242.289 546.893 251.472C547.873 256.852 549.686 261.938 550.333 267.426C550.98 272.914 551.127 278.442 551.313 283.949" fill="var(--color-illustration-base, #FFFFFF)"/>
<path d="M622.618 238.811C610.203 236.622 597.545 236.167 585.005 237.458C582.173 237.743 579.311 238.046 576.518 238.585C574.96 238.879 571.961 240.085 570.589 239.036C568.972 237.801 568.541 233.832 567.845 232.029C566.824 229.174 565.51 226.432 563.925 223.846C558.369 215.154 546.285 209.764 537.191 216.986C528.097 224.209 536.417 237.88 540.072 245.612C542.542 250.826 543.394 256.755 544.747 262.331C546.462 269.455 546.57 276.717 547.383 283.969C547.922 288.869 554.792 289.016 555.086 283.969C555.454 278.07 555.296 272.151 554.615 266.28C553.988 261.047 552.45 256 551.362 250.865C550.253 246.38 548.545 242.066 546.285 238.037C544.325 234.264 542.052 230.05 542.238 225.669C542.454 220.769 550.46 222.484 553.018 224.395C557.085 227.404 558.78 232.529 560.691 236.968C562.504 241.182 564.18 245.906 569.227 246.935C573.265 247.758 577.508 246.043 581.487 245.475C594.821 243.714 608.327 243.691 621.667 245.406C625.381 245.837 626.263 239.526 622.549 238.83L622.618 238.811Z" fill="var(--color-illustration-primary, #382C80)"/>
<path d="M605.33 185.42C607.555 180.775 607.222 174.934 606.31 169.995C605.272 164.527 596.216 166.888 597.912 172.308C598.572 174.291 599.045 176.332 599.323 178.403C599.578 180.501 599.47 182.608 599.784 184.695C600.176 187.253 604.292 187.684 605.37 185.42H605.33Z" fill="var(--color-illustration-primary, #382C80)"/>
<path d="M626.793 183.636C629.017 178.981 628.684 173.14 627.773 168.201C626.734 162.742 617.679 165.094 619.374 170.524C620.033 172.504 620.506 174.541 620.785 176.609C621.04 178.707 620.932 180.814 621.246 182.901C621.638 185.459 625.754 185.9 626.832 183.636H626.793Z" fill="var(--color-illustration-primary, #382C80)"/>
<path d="M665.071 397.502C658.993 385.898 649.999 376.077 638.974 369.003C634.711 366.299 630.712 373.139 635.054 375.765C645.19 381.879 653.535 390.556 659.25 400.922C661.347 404.764 667.159 401.353 665.13 397.502H665.071Z" fill="var(--color-illustration-primary, #382C80)"/>
<path d="M735.935 942.46C727.679 940.581 720.996 934.541 718.295 926.516C716.57 921.175 719.128 916.716 724.881 916.52C729.497 916.343 733.701 919.313 737.395 921.773C739.189 922.988 741.531 920.587 740.335 918.833C735.563 911.473 734.534 899.968 743.893 895.636C747.391 894.019 751.566 894.244 754.291 897.184C756.848 899.958 757.583 903.907 755.496 907.131L759.749 907.69C756.221 896.4 760.131 880.946 773.469 878.79C778.644 877.947 784.641 879.378 787.993 883.69C792.756 889.756 791.139 898.478 789.845 905.436C789.619 906.364 789.962 907.337 790.72 907.918C791.477 908.499 792.506 908.579 793.344 908.121C801.184 904.044 811.591 905.269 817.981 911.581C824.37 917.892 825.821 928.241 821.989 936.198C820.725 938.815 824.566 941.098 825.909 938.501C830.985 928.701 829.368 916.03 821.381 908.121C813.394 900.213 800.801 898.86 791.06 903.937L794.559 906.632C796.088 898.164 797.577 888.276 791.932 880.926C787.718 875.428 780.506 873.204 773.773 874.017C757.182 876.026 750.88 894.597 755.378 908.895C755.652 909.776 756.412 910.416 757.326 910.536C758.24 910.656 759.14 910.234 759.632 909.454C762.454 905.083 761.699 899.409 758.652 895.342C755.449 891.024 749.907 889.139 744.736 890.609C731.016 894.186 729.624 910.846 736.67 920.989L739.61 918.049C734.632 914.942 729.144 911.659 723.038 912.698C718.06 913.55 713.807 917.284 713.699 922.557C713.454 933.944 724.773 943.47 735.073 945.528C737.033 945.92 737.895 942.96 735.916 942.49L735.935 942.46Z" fill="var(--color-illustration-primary, #382C80)"/>
<path d="M696.108 935.248C694.672 932.368 695.277 928.889 697.6 926.662C699.923 924.436 703.425 923.979 706.241 925.536C708.201 926.633 710.063 923.576 708.034 922.468C703.91 920.021 698.654 920.659 695.235 924.023C691.816 927.387 691.092 932.632 693.472 936.796C694.373 938.55 696.99 937.002 696.108 935.248Z" fill="var(--color-illustration-primary, #382C80)"/>
<path d="M494.953 380.097C515.383 379.149 535.812 378.169 556.242 377.157C564.366 376.765 575.068 374.285 582.83 376.079C590.376 377.813 596.648 385.732 600.401 391.759C611.181 409.144 613.611 430.282 612.876 450.559C612.582 458.791 610.613 468.659 602.704 471.599C597.412 473.559 591.561 471.491 586.044 470.482C580.527 469.473 574.803 469.502 569.149 469.58C534.329 469.953 499.5 470.335 464.72 471.991C447.08 472.824 429.538 473.951 412.006 475.647C403.186 476.47 394.434 477.607 385.644 478.518C379.656 479.165 374.325 484.035 368.494 483.849C364.309 483.712 361.016 480.331 358.909 476.813C346.365 455.9 354.989 421.178 362.506 399.873C367.7 385.173 372.786 385.359 387.516 384.801C423.305 383.507 459.124 381.753 494.953 380.097Z" fill="var(--color-illustration-secondary, #7F72FF)"/>
<path d="M494.953 382.87C507.125 382.328 519.296 381.776 531.468 381.214C542.963 380.685 554.478 380.411 565.915 379.117C570.727 378.578 575.715 377.912 580.615 378.637C585.231 379.333 588.876 382.126 591.993 385.497C598.676 392.641 603.047 401.99 605.791 411.29C608.658 421.575 610.07 432.21 609.985 442.886C609.985 450.402 610.809 462.162 604.105 467.454C599.774 470.894 593.884 469.101 589.033 468.072C583.661 467.009 578.192 466.507 572.716 466.572C560.623 466.572 548.53 466.798 536.456 466.964C487.711 467.621 439.093 469.414 390.622 474.804C385.671 475.183 380.816 476.378 376.255 478.342C371.61 480.429 367.288 482.076 363.437 477.695C357.929 471.433 356.283 461.702 355.881 453.656C354.98 435.869 359.625 417.856 365.515 401.216C367.475 395.552 369.876 390.328 376.187 389.025C379.469 388.492 382.789 388.233 386.114 388.251C391.994 388.035 397.842 387.806 403.656 387.565C428.048 386.585 452.431 385.487 476.823 384.419C482.866 384.144 488.91 383.88 494.953 383.625C499.461 383.429 499.471 376.373 494.953 376.589C468.62 377.882 442.298 379.244 415.955 380.381C404.195 380.891 392.288 381.048 380.499 381.871C373.982 382.322 368.023 383.772 363.986 389.299C359.164 395.904 357.126 405.028 354.931 412.819C352.187 422.359 350.375 432.143 349.521 442.033C348.786 451.441 349.178 461.3 352.255 470.286C355.107 478.607 360.967 488.681 371.238 486.946C376.275 486.113 380.46 482.752 385.467 481.86C391.886 480.723 398.57 480.341 405.067 479.636C418.043 478.234 431.067 477.235 444.101 476.392C470.502 474.696 496.962 473.873 523.422 473.373C536.691 473.128 549.97 472.962 563.249 472.805C569.619 472.736 576.077 472.413 582.428 473.109C588.112 473.736 593.698 475.98 599.49 475.471C609.29 474.598 614.003 465.945 615.336 457.125C616.894 446.776 616.218 435.702 614.827 425.373C613.499 414.294 610.144 403.554 604.929 393.69C600.568 385.732 594.266 376.922 585.329 373.805C575.646 370.415 564.21 373.923 554.292 374.413C541.036 375.066 527.777 375.72 514.514 376.373C507.98 376.7 501.447 377.026 494.914 377.353C491.396 377.5 491.366 383.037 494.953 382.87Z" fill="var(--color-illustration-primary, #382C80)"/>
<path d="M586.24 191.976C588.474 187.331 588.131 181.49 587.22 176.551C586.171 171.092 577.116 173.444 578.812 178.873C579.471 180.854 579.946 182.891 580.233 184.959C580.478 187.056 580.38 189.163 580.693 191.251C581.075 193.808 585.191 194.24 586.269 191.976H586.24Z" fill="var(--color-illustration-primary, #382C80)"/>
<path d="M428.078 543.12C392.955 605.023 357.802 666.91 322.62 728.781C304.98 759.71 287.34 790.635 269.7 821.558C261.586 835.787 254.569 851.458 243.015 863.335C228.932 877.82 213.615 878.476 194.642 879.917C187.723 880.446 179.775 883.543 178.286 890.315C176.58 898.037 184.234 904.368 191.026 908.356C210.92 919.979 261.772 953.025 284.625 937.933C297.463 929.456 305.823 908.797 313.604 896.185C325.09 877.565 336.33 858.778 346.375 839.345C359.213 814.521 370.611 789.071 386.898 766.129C403.803 742.335 424.922 721.833 442.582 698.607C471.718 660.228 490.881 615.223 498.354 567.62" fill="var(--color-illustration-base, #FFFFFF)"/>
<path d="M425.736 541.728C386.882 610.015 347.937 678.249 308.9 746.431L279.853 797.312C275.002 805.799 270.053 814.247 265.319 822.792C261.399 829.887 257.666 837.13 253.442 844.068C245.082 857.788 234.626 869.695 218.505 873.674C211.704 875.35 204.697 875.849 197.739 876.369C190.986 876.869 183.695 877.819 178.707 882.935C173.983 887.835 173.64 894.92 177.208 900.575C180.775 906.229 186.567 909.601 192.123 912.913C201.6 918.558 211.057 924.242 220.847 929.328C231.862 935.061 243.387 940.392 255.51 943.342C265.31 945.723 276.658 946.801 285.674 941.382C297.522 934.306 304.294 920.273 310.674 908.591C318.827 893.548 328.314 879.191 336.791 864.393C354.833 832.906 368.474 798.733 389.417 768.951C409.997 739.659 436.77 715.296 456.635 685.406C475.487 657.19 489.197 625.859 497.129 592.865C499.02 584.838 500.49 576.724 501.666 568.561C502.283 564.249 495.786 562.298 495.002 566.718C489.518 599.316 478.74 630.798 463.093 659.916C455.141 674.589 445.927 688.541 435.555 701.615C424.599 715.394 412.643 728.33 401.324 741.795C389.961 755.111 379.78 769.392 370.895 784.474C362.075 799.654 354.529 815.481 346.61 831.122C338.3 847.557 329.304 863.58 319.827 879.319C315.642 886.296 311.203 893.137 307.263 900.251C303.892 906.357 300.717 912.57 297.062 918.509C291.309 927.848 284.096 937.54 272.297 938.285C261.39 938.981 250.355 935.13 240.427 931.023C229.291 926.243 218.487 920.723 208.087 914.501C203.873 912.051 199.699 909.552 195.514 907.062C190.467 904.122 183.754 900.702 181.794 894.734C179.403 887.453 188.184 884.023 193.799 883.317C200.835 882.445 207.911 882.337 214.928 881.141C229.52 878.662 241.28 871.42 250.443 859.846C260.684 846.979 267.642 831.759 275.737 817.53C285.184 800.928 294.625 784.324 304.059 767.716C341.586 701.677 379.006 635.576 416.318 569.413L430.42 544.472C432.135 541.424 427.48 538.69 425.726 541.728H425.736Z" fill="var(--color-illustration-primary, #382C80)"/>
<path d="M428.078 543.12C392.955 605.023 357.802 666.91 322.62 728.781C306.283 757.485 290.525 785.298 270.984 811.768C268.727 814.576 266.828 817.654 265.329 820.931C263.819 824.656 263.374 828.727 264.045 832.691C272.473 832.348 281.832 835.689 289.231 839.678C302.628 846.901 315.691 854.956 326.912 865.354C341.808 879.172 353.284 897.694 354.705 917.96C360.82 914.609 365.015 908.631 368.366 902.516C383.419 875.076 390.906 843.118 405.028 814.864C420.274 784.404 438.336 755.436 458.977 728.34C492.297 684.573 510.515 630.34 518.973 575.95" fill="var(--color-illustration-base, #FFFFFF)"/>
<path d="M425.736 541.728C403.294 581.144 380.809 620.537 358.282 659.907C336.34 698.215 315.29 737.16 292.005 774.665C285.782 784.68 279.314 794.549 272.464 804.143C269.19 808.729 265.29 813.159 262.889 818.284C260.696 823.062 259.977 828.384 260.821 833.572C261.218 835.004 262.521 835.994 264.006 835.993C275.237 835.748 285.213 841.109 294.68 846.548C304.523 851.999 313.783 858.442 322.316 865.775C337.467 879.191 349.619 897.341 351.226 917.97C351.264 919.187 351.933 920.296 352.992 920.896C354.051 921.497 355.347 921.502 356.41 920.91C366.808 914.903 372.208 903.27 377.079 892.833C382.4 881.416 386.83 869.568 391.22 857.7C395.738 845.47 400.216 833.2 405.783 821.44C411.349 809.68 417.543 798.302 424.099 787.14C430.75 775.713 437.809 764.535 445.277 753.604C452.509 743.03 460.457 733.024 467.817 722.538C481.939 702.537 493.062 680.555 501.784 657.702C511.638 631.622 518.518 604.513 522.295 576.891C522.893 572.589 516.415 570.619 515.631 575.048C507.37 622.735 493.209 669.981 466.719 710.886C459.987 721.274 452.245 730.927 445.091 741.021C437.682 751.474 430.642 762.186 423.972 773.155C410.702 794.98 398.844 817.52 389.75 841.461C384.713 854.711 380.146 868.147 374.658 881.22C371.934 887.708 368.964 894.097 365.613 900.271C362.457 906.073 358.753 911.62 352.931 914.971L358.116 917.911C356.312 895.459 343.71 875.605 327.079 860.954C317.814 852.992 307.744 846.02 297.032 840.148C286.84 834.396 276.001 829.055 264.006 829.368L267.181 831.789C265.692 821.528 273.708 813.62 279.157 805.887C285.125 797.42 290.809 788.747 296.287 779.947C307.332 762.209 317.563 743.971 327.883 725.802C349.841 687.111 371.728 648.382 393.543 609.613C405.832 587.89 418.118 566.163 430.4 544.433C432.115 541.385 427.46 538.651 425.706 541.689L425.736 541.728Z" fill="var(--color-illustration-primary, #382C80)"/>
<path d="M551.332 547.766C576.371 612.446 591.003 680.693 600.332 749.312C604.968 783.397 608.29 817.638 610.985 851.918C612.22 867.598 612.171 884.513 618.511 899.243C626.704 918.294 648.509 918.745 659.515 934.523C671.333 951.437 648.519 956.974 635.848 957.945C611.348 959.836 585.142 955.181 561.368 949.35C555.987 948.027 550.372 946.41 546.462 942.49C540.758 936.786 539.827 928.172 538.867 920.597C532.497 870.352 526.852 820.696 525.147 770.039C524.98 765.198 524.833 760.308 523.677 755.604C522.197 749.587 519.13 744.109 516.229 738.621C486.829 682.819 501.529 705.007 505.057 642.012" fill="var(--color-illustration-base, #FFFFFF)"/>
<path d="M548.716 548.49C572.412 610.23 586.632 675.008 595.932 740.345C600.744 774.184 604.184 808.22 606.947 842.265C608.182 857.494 608.153 873.184 611.504 888.149C612.974 894.695 615.111 901.506 619.099 906.994C622.386 911.325 626.446 915.01 631.075 917.862C640.013 923.644 651.087 927.662 657.094 936.943C659.201 940.206 660.553 943.999 657.682 947.184C654.938 950.222 650.479 951.643 646.647 952.662C634.26 955.955 620.697 955.249 608.065 954.122C592.106 952.572 576.303 949.7 560.819 945.537C553.773 943.705 547.755 940.833 545.139 933.611C542.718 927.055 542.395 919.705 541.542 912.835C539.425 895.724 537.397 878.613 535.594 861.473C533.79 844.333 532.242 827.242 531.046 810.082C530.439 801.49 529.932 792.883 529.527 784.259C529.135 775.978 529.331 767.54 528.214 759.318C527.156 751.478 523.755 744.618 520.1 737.699C516.974 731.76 513.857 725.812 510.868 719.804C507.585 713.199 504.008 706.368 502.577 699.077C502.363 698.22 502.238 697.343 502.205 696.461C502.131 695.24 502.131 694.016 502.205 692.795C502.341 690.486 502.669 688.191 503.185 685.935C504.694 677.958 506.252 670.03 507.164 661.945C507.918 655.32 508.33 648.666 508.614 642.002C508.8 637.523 502.029 637.612 501.705 642.002C500.898 653.478 499.426 664.898 497.295 676.204C496.188 682.025 494.6 687.964 494.492 693.844C494.375 699.969 496.266 705.8 498.599 711.386C503.224 722.45 509.104 732.946 514.69 743.589C518.61 750.978 520.943 757.965 521.354 766.364C521.795 775.341 522.07 784.337 522.599 793.314C523.579 810.954 525.068 828.516 526.803 846.077C528.538 863.639 530.547 881.171 532.683 898.684C533.732 907.259 534.751 915.834 535.927 924.379C536.809 930.857 538.132 937.452 542.199 942.754C546.697 948.634 553.616 950.986 560.544 952.701C568.551 954.661 576.626 956.425 584.75 957.876C600.999 960.816 617.61 962.531 634.133 961.462C643.305 960.865 654.046 959.326 661.308 953.172C669.932 945.851 665.434 935.14 658.77 928.201C650.93 920.077 640.052 916.52 631.232 909.816C619.727 901.085 617.149 886.061 615.826 872.488C614.209 855.828 613.327 839.041 611.789 822.342C610.175 804.787 608.313 787.258 606.203 769.755C597.931 702.135 584.976 634.77 562.583 570.266C559.871 562.465 557.023 554.717 554.037 547.02C552.783 543.796 547.54 545.188 548.794 548.471L548.716 548.49Z" fill="var(--color-illustration-primary, #382C80)"/>
<path d="M473.677 609.858C468.64 645.04 472.06 681.114 477.754 715.992C479.43 726.253 481.752 736.416 483.105 746.735C487.721 782.015 483.35 817.922 486.339 853.339C486.888 859.847 487.76 866.775 491.974 871.754C495.649 876.105 501.264 878.222 506.615 880.162C527.362 887.679 549.451 888.002 571.295 886.042C582.8 885.062 609.515 884.631 612.837 869.862C614.366 863.002 611.161 853.8 610.554 846.852C609.633 836.18 608.77 825.507 607.761 814.835C605.693 792.952 603.263 771.088 600.303 749.303C590.983 680.703 589.758 625.597 551.303 547.756" fill="var(--color-illustration-base, #FFFFFF)"/>
<path d="M471.061 609.143C467.141 636.289 468.072 663.729 471.257 690.895C474.442 718.06 481.057 744.618 481.958 771.999C482.86 799.381 480.694 826.987 483.193 854.368C483.673 859.729 484.408 865.148 486.907 870.048C489.406 874.948 493.885 878.339 498.834 880.603C510.163 885.787 522.579 888.443 534.937 889.697C547.501 890.913 560.045 890.325 572.608 889.354C580.213 888.766 587.877 888.374 595.344 886.62C602.469 884.984 610.387 881.985 614.327 875.389C619.687 866.432 614.768 855.103 613.935 845.607C611.485 817.756 609.035 789.924 605.585 762.17C602.782 739.708 600.068 717.227 597.187 694.785C591.414 649.852 581.977 605.693 563.19 564.23C560.407 558.085 557.408 552.048 554.321 546.051C552.263 542.062 546.481 545.561 548.353 549.539C558.604 571.393 567.659 593.855 574.411 617.052C580.062 636.902 584.393 657.105 587.377 677.527C590.434 697.657 592.63 717.894 595.217 738.082C598.549 763.865 601.851 789.63 604.321 815.502C605.507 827.957 605.742 840.786 608.006 853.104C609.466 861.042 612.435 870.744 604.311 875.899C598.078 879.868 590.121 880.975 582.908 881.779C574.019 882.7 565.033 883.396 556.105 883.661C543.512 884.033 530.831 883.308 518.551 880.348C508.31 877.888 494.561 874.723 491.19 863.306C489.534 857.681 489.367 851.615 489.024 845.803C488.642 839.247 488.475 832.681 488.407 826.115C488.279 812.963 488.593 799.822 488.505 786.67C488.565 773.534 487.822 760.407 486.28 747.362C484.643 734.681 481.723 722.206 479.714 709.583C475.569 683.525 472.972 657.075 474.383 630.664C474.736 623.954 475.373 617.261 476.294 610.584C476.764 607.173 471.541 605.684 471.051 609.143H471.061Z" fill="var(--color-illustration-primary, #382C80)"/>
<path d="M418.542 429.44C420.223 435.919 419.527 442.785 416.582 448.795C414.848 452.304 412.398 455.401 410.369 458.752C404.431 468.895 402.495 480.89 404.94 492.386C407.282 503.656 415.318 511.408 418.111 522.638C419.707 529.565 420.151 536.707 419.424 543.777C418.915 549.657 415.847 557.252 417.347 563.122C419.797 572.726 436.741 577.195 444.787 579.469C465.851 585.36 487.986 586.335 509.486 582.32C523.295 579.733 542.356 577.009 551.96 565.602C559.212 556.997 556.017 549.971 553.851 539.867C551.715 529.956 549.941 519.983 548.53 509.947C547.716 504.156 545.697 497.335 546.893 491.651C548.089 485.967 551.479 481.077 553.332 475.745C558.751 460.124 553.567 441.396 540.886 430.773" fill="var(--color-illustration-secondary, #7F72FF)"/>
<path d="M415.602 430.213C417.631 438.808 414.975 446.079 410.212 453.184C405.891 459.643 402.647 466.444 401.392 474.176C400.087 481.557 400.483 489.139 402.549 496.344C404.656 503.204 408.703 509.133 411.829 515.522C415.583 523.186 416.533 531.575 416.132 540.022C415.789 547.255 412.662 554.428 413.466 561.69C414.74 573.195 427.833 578.085 437.368 581.094C451.963 585.784 467.178 588.259 482.507 588.434C497.55 588.513 512.779 586.131 527.371 582.554C539.22 579.614 553.224 574.303 558.584 562.327C561.289 556.271 560.241 549.979 558.78 543.707C556.82 535.475 555.243 527.174 553.88 518.825C553.096 514.082 552.489 509.319 551.626 504.585C550.882 500.509 549.902 496.177 550.823 492.041C551.803 487.7 554.184 483.809 555.919 479.742C557.484 476.081 558.53 472.218 559.025 468.267C560.895 453.118 555.11 438.032 543.59 428.018C539.915 424.902 534.565 430.154 538.249 433.359C547.675 441.621 552.581 453.892 551.45 466.375C550.764 473.637 547.069 479.527 544.502 486.181C541.856 493.041 542.806 499.627 544.08 506.663C545.541 514.719 546.56 522.843 548.089 530.889C549.372 537.66 551.489 544.413 552.41 551.233C554.155 564.189 540.337 570.833 529.959 573.911C502.038 582.29 472.139 583.319 444.042 575.43C439.11 574.194 434.306 572.495 429.695 570.353C425.912 568.462 421.296 565.777 420.6 561.19C420.101 557.888 421.051 554.409 421.718 551.204C422.515 547.515 422.997 543.764 423.158 539.993C423.423 532.525 422.766 524.675 420.091 517.639C417.415 510.603 412.829 504.458 409.948 497.49C406.985 489.92 406.303 481.649 407.988 473.696C408.776 469.68 410.139 465.798 412.035 462.171C414.044 458.408 416.749 455.086 418.758 451.332C422.47 444.342 423.455 436.222 421.522 428.547C420.591 424.725 414.72 426.342 415.642 430.174L415.602 430.213Z" fill="var(--color-illustration-primary, #382C80)"/>
<path d="M456.243 588.288C455.929 602.439 456.243 616.63 457.096 630.771C457.497 637.445 458.027 644.128 458.84 650.773C459.232 653.958 459.536 656.859 461.78 659.299C463.662 661.259 466.68 662.307 467.856 664.885C469.816 669.207 475.961 665.443 474.157 661.2C473.07 658.632 470.914 657.221 468.748 655.634C466.043 653.674 465.867 651.714 465.426 648.44C464.534 641.845 463.907 635.21 463.387 628.586C462.339 615.179 461.76 601.724 461.76 588.288C461.76 584.701 456.282 584.711 456.204 588.288H456.243Z" fill="var(--color-illustration-primary, #382C80)"/>
<path d="M517.64 607.868C523.971 616.688 536.123 623.891 547.226 620.539C550.95 619.412 550.254 613.826 546.315 613.758C541.817 613.67 537.495 613.758 533.173 612.151C528.899 610.571 525.161 607.812 522.393 604.193C520.296 601.488 515.602 605.075 517.62 607.868H517.64Z" fill="var(--color-illustration-primary, #382C80)"/>
<path d="M396.453 602.39C403.022 605.104 410.32 605.495 417.141 603.497C421.571 602.135 419.748 595.54 415.24 596.569C409.624 597.99 403.724 597.824 398.198 596.089C394.111 594.766 392.641 600.871 396.453 602.39Z" fill="var(--color-illustration-primary, #382C80)"/>
<path d="M661.014 932.974C655.134 927.299 647 923.066 640.356 919.254C631.663 914.285 623.186 908.875 619.08 899.213C617.617 895.724 616.453 892.118 615.601 888.433C605.27 893.073 594.506 896.684 583.467 899.213C584.388 904.113 585.25 909.454 582.928 913.854C579.498 920.341 570.981 921.694 563.71 921.841C560.005 921.926 556.301 921.926 552.597 921.841C550.441 921.772 541.983 920.008 540.513 921.41C537.446 924.35 542.659 942.548 543.63 946.321C544.276 948.85 545.09 951.466 546.942 953.289C548.555 954.688 550.47 955.695 552.538 956.229C565.209 960.276 578.87 960.688 592.051 961.06C603.086 961.374 614.033 962.266 625.058 961.315C638.249 960.178 652.498 960.619 663.435 953.122C665.142 952.082 666.54 950.603 667.482 948.84C668.883 945.812 667.884 942.166 666.179 939.295C664.747 936.967 663.01 934.841 661.014 932.974Z" fill="var(--color-illustration-primary, #382C80)"/>
<path d="M663.797 930.219C655.81 922.771 645.883 918.371 636.759 912.579C632.643 909.963 628.645 906.935 625.714 902.985C622.343 898.458 620.716 892.881 619.393 887.472C618.727 884.777 615.836 884.13 613.621 885.12C603.574 889.557 593.13 893.031 582.428 895.498C580.366 896.119 579.158 898.251 579.684 900.339C580.429 904.357 581.477 909.394 578.9 912.991C576.773 915.931 572.804 917.019 569.374 917.558C561.897 918.734 554.155 918.048 546.687 917.225C543.894 916.921 540.494 916.509 538.132 918.361C536.172 919.91 535.721 922.546 535.633 924.918C535.437 930.798 537.152 936.972 538.573 942.636C540.18 948.957 541.513 955.69 548.04 958.708C556.967 962.863 567.826 963.775 577.538 964.412C597.902 965.764 618.257 966.058 638.592 964.284C648.48 963.422 658.995 961.687 667.012 955.337C676.312 947.957 670.647 936.962 663.787 930.219C660.181 926.672 654.615 932.179 658.231 935.776C660.661 938.167 663.866 941.411 664.179 945.037C664.532 949.133 658.976 951.505 655.83 952.818C648.362 955.935 640.042 956.376 632.065 956.905C613.5 958.045 594.878 957.901 576.332 956.474C572.041 956.188 567.769 955.671 563.533 954.925C559.515 954.18 554.067 953.563 550.597 951.211C547.128 948.859 546.207 940.931 545.266 936.903C544.659 934.277 544.071 931.611 543.728 928.936C543.591 927.178 543.568 925.414 543.659 923.653C543.708 923.653 542.346 925.947 542.12 924.878H544.08C545.345 924.937 546.609 925.084 547.863 925.241C551.081 925.663 554.321 925.888 557.565 925.917C565.317 925.976 574.225 926.162 581.007 921.674C589.16 916.225 588.847 906.974 587.289 898.271L584.545 903.103C595.895 900.423 606.964 896.666 617.6 891.882L611.828 889.54C613.2 895.096 614.954 900.888 618.1 905.719C621.16 910.204 625.037 914.074 629.527 917.127C638.827 923.781 649.822 927.907 658.26 935.747C661.935 939.206 667.502 933.659 663.797 930.219Z" fill="var(--color-illustration-primary, #382C80)"/>
<path d="M187.517 880.866C195.24 878.181 204.285 877.711 211.851 877.025C221.758 876.143 231.647 874.751 239.398 867.695C242.171 865.144 244.725 862.364 247.033 859.385C254.376 867.883 262.544 875.634 271.415 882.523C268.524 886.59 265.535 891.088 265.751 896.037C266.123 903.357 273.218 908.101 279.686 911.286C282.953 912.906 286.291 914.435 289.702 915.872C291.662 916.705 300.021 918.626 300.746 920.507C302.275 924.427 289.966 938.794 287.497 941.813C285.85 943.841 284.018 945.88 281.617 946.713C279.587 947.31 277.445 947.421 275.364 947.036C262.262 945.448 249.806 940.176 237.791 934.992C227.736 930.69 217.515 926.946 207.999 921.497C196.612 914.98 183.646 909.463 176.923 898.105C175.824 896.453 175.185 894.538 175.071 892.558C175.071 889.216 177.511 886.315 180.246 884.424C182.502 882.922 184.947 881.726 187.517 880.866Z" fill="var(--color-illustration-primary, #382C80)"/>
<path d="M188.566 884.659C199.503 881.013 211.106 881.719 222.376 879.632C227.56 878.801 232.545 877.013 237.076 874.359C242.123 871.243 246.2 866.764 249.816 862.158H244.22C251.586 870.635 259.747 878.387 268.593 885.306L267.975 880.543C263.438 886.982 259.645 894.498 263.359 902.27C266.535 908.924 273.512 912.716 279.863 915.745C283.113 917.4 286.461 918.857 289.888 920.106C290.966 920.458 292.064 920.762 293.142 921.086C294.22 921.409 295.974 922.536 296.964 922.477L297.483 922.752C297.602 922.133 297.381 921.498 296.905 921.086C297.022 921.144 296.964 921.321 296.826 921.576C296.493 922.203 296.287 922.957 295.954 923.604C294.591 926.091 293.035 928.467 291.299 930.709C288.585 934.384 285.566 939 282.019 941.92C278.853 944.517 274.061 943.047 270.425 942.312C266.108 941.408 261.853 940.23 257.685 938.784C248.953 935.844 240.545 931.924 232.019 928.426C223.563 924.98 215.311 921.054 207.303 916.666C200.14 912.697 192.515 909.071 186.41 903.524C183.715 901.084 179.687 897.232 179.021 893.459C178.168 888.677 185.008 885.894 188.497 884.639C193.211 882.915 191.173 875.32 186.41 877.064C178.57 879.926 168.574 886.168 171.582 896.047C174.032 904.043 181.52 910.306 188.242 914.765C204.197 925.398 222.003 932.61 239.565 940.049C248.895 943.969 258.361 947.889 268.328 949.849C272.797 950.76 278.128 951.995 282.577 950.495C286.115 949.31 288.555 946.575 290.858 943.763C294.602 939.466 298.078 934.943 301.266 930.219C303.853 926.133 307.224 919.782 301.932 916.313C299.08 914.441 295.503 913.706 292.299 912.658C287.763 911.075 283.386 909.07 279.226 906.67C275.796 904.769 271.827 902.289 270.249 898.497C268.181 893.499 272.072 888.432 274.806 884.561C275.711 883.018 275.457 881.059 274.188 879.798C265.343 872.879 257.181 865.128 249.816 856.651C248.532 855.171 245.514 855.063 244.259 856.651C240.819 860.972 237.017 865.402 232.156 868.156C227.804 870.414 223.074 871.852 218.201 872.399C207.597 873.957 196.759 873.654 186.478 877.084C181.696 878.671 183.744 886.266 188.566 884.659Z" fill="var(--color-illustration-primary, #382C80)"/>
<path d="M226.129 867.393C230.049 871.489 231.137 875.233 231.294 880.828C231.319 881.707 231.977 882.438 232.848 882.554C233.719 882.671 234.546 882.14 234.802 881.299C236.409 875.419 233.166 868.098 228.158 864.756C226.531 863.678 224.865 866.05 226.129 867.393Z" fill="var(--color-illustration-base, #FFFFFF)"/>
<path d="M216.172 872.4C219.035 875.112 220.67 878.874 220.7 882.817C220.77 883.78 221.572 884.525 222.537 884.525C223.503 884.525 224.305 883.78 224.375 882.817C224.698 877.662 222.013 873.017 217.985 869.999C216.594 868.95 214.869 871.234 216.133 872.4H216.172Z" fill="var(--color-illustration-base, #FFFFFF)"/>
<path d="M207.852 874.174C209.402 877.022 210.428 880.126 210.88 883.337C211.243 885.748 215.016 884.748 214.585 882.357C213.953 878.866 212.594 875.547 210.596 872.616C210.151 871.866 209.185 871.615 208.432 872.054C207.679 872.492 207.42 873.456 207.852 874.213V874.174Z" fill="var(--color-illustration-base, #FFFFFF)"/>
<path d="M176.6 890.177C209.606 918.382 250.286 937.864 293.22 944.92C296.023 945.381 297.248 941.108 294.406 940.608C252.06 933.16 211.958 915.451 178.501 888.237C177.159 887.129 175.208 889.021 176.541 890.197L176.6 890.177Z" fill="var(--color-illustration-base, #FFFFFF)"/>
<path d="M661.416 943.126C641.406 947.966 620.934 950.644 600.352 951.113C579.778 951.355 559.234 949.479 539.043 945.517C536.917 945.116 535.976 948.301 538.142 948.8C578.586 958.179 622.206 956.817 662.219 946.037C664.101 945.537 663.307 942.675 661.416 943.097V943.126Z" fill="var(--color-illustration-base, #FFFFFF)"/>
<path d="M622.814 902.927C619.614 906.42 617.172 910.537 615.64 915.02C614.944 917.058 618.208 917.96 618.874 915.912C620.143 911.923 622.244 908.249 625.038 905.132C626.381 903.632 624.186 901.408 622.814 902.907V902.927Z" fill="var(--color-illustration-base, #FFFFFF)"/>
<path d="M630.124 910.62C627.561 913.43 625.925 916.961 625.44 920.734C625.244 922.753 628.184 922.89 628.792 921.195C629.629 918.33 630.955 915.631 632.712 913.217C634.152 911.424 631.663 908.847 630.134 910.65L630.124 910.62Z" fill="var(--color-illustration-base, #FFFFFF)"/>
<path d="M638.582 916.314C636.568 918.72 635.142 921.562 634.417 924.614C633.907 926.937 637.357 927.927 637.994 925.594C638.655 923.017 639.777 920.58 641.306 918.401C642.443 916.823 639.817 914.765 638.582 916.304V916.314Z" fill="var(--color-illustration-base, #FFFFFF)"/>
<path d="M636.632 905.583C636.337 902.492 636.593 899.373 637.386 896.371C637.641 895.459 638.013 892.029 639.503 893.636C640.307 894.499 638.641 898.536 638.249 899.389C637.85 900.149 637.992 901.079 638.599 901.685C639.205 902.291 640.135 902.433 640.895 902.035C642.307 901.349 643.818 900.89 645.373 900.673C647.039 900.34 646.784 900.349 645.785 901.555C644.443 903.11 642.768 904.343 640.885 905.161C638.552 906.259 640.591 909.767 642.913 908.63C645.853 907.219 651.861 903.103 650.567 899.124C649.097 894.607 641.649 897.282 638.944 898.693L641.6 901.339C642.953 898.164 645.52 887.139 638.66 888.599C635.995 889.158 634.985 892.01 634.28 894.322C633.196 897.975 632.863 901.808 633.3 905.592C633.525 907.719 636.857 907.778 636.681 905.592L636.632 905.583Z" fill="var(--color-illustration-primary, #382C80)"/>
<path d="M213.713 866C211.972 864.551 210.683 862.633 209.998 860.473C209.773 859.738 209.205 858.18 209.557 857.465C211.067 854.397 212.497 858.445 212.88 859.542C213.083 860.311 213.731 860.881 214.52 860.984C215.309 861.087 216.082 860.703 216.476 860.013C217.084 858.944 218.436 855.603 219.122 858.053C219.573 859.679 219.044 862.11 218.818 863.766C218.466 866.441 222.68 866.412 223.032 863.766C223.464 860.483 224.434 854.74 220.533 853.113C216.633 851.487 213.673 855.181 212.88 858.474L216.476 858.004C215.447 855.691 214.154 853.309 211.498 852.653C209.398 852.069 207.189 853.117 206.314 855.113C204.265 859.679 207.774 865.648 211.272 868.431C212.978 869.773 215.418 867.451 213.713 865.981V866Z" fill="var(--color-illustration-primary, #382C80)"/>
<path d="M396.659 942.882C392.791 930.873 390.807 918.337 390.779 905.72L389.799 907.377C393.631 904.956 397.786 915.658 398.737 917.97C400.538 922.453 401.716 927.162 402.235 931.965C402.549 934.66 406.567 934.826 406.567 931.965C406.517 925.425 407.666 918.931 409.958 912.806C411.159 909.668 412.669 906.658 414.466 903.819C415.201 902.643 416.132 900.634 417.513 900.174C418.895 899.713 419.65 901.242 420.12 902.545C421.022 905.064 420.669 907.749 420.434 910.385C420.12 913.962 419.611 917.52 418.944 921.057C417.622 927.916 415.69 934.642 413.172 941.157C412.143 943.833 416.455 944.999 417.464 942.343C420.768 933.667 423.05 924.636 424.266 915.432C425.02 909.768 426.843 900.311 420.992 896.43C414.603 892.196 409.752 902.751 407.713 907.043C404.01 914.838 402.137 923.375 402.235 932.004L406.488 931.436C405.528 924.565 403.383 917.914 400.148 911.777C398.188 908.053 394.072 901.222 388.79 903.574C386.104 904.76 386.928 907.612 387.045 910.081C387.212 913.737 387.555 917.392 388.025 921.018C389.095 928.771 390.893 936.407 393.396 943.823C394.082 945.871 397.316 944.999 396.649 942.921L396.659 942.882Z" fill="var(--color-illustration-primary, #382C80)"/>
<path d="M389.485 934.463C387.55 933.465 385.684 932.339 383.899 931.092C382.841 930.289 381.567 931.229 381.175 932.209C378.98 937.599 382.635 944.244 388.28 945.439C390.652 945.939 391.651 942.499 389.26 941.784C387.508 941.265 386.04 940.061 385.188 938.445C384.336 936.829 384.171 934.938 384.732 933.199L382.439 934.493C384.31 935.255 386.127 936.142 387.878 937.149C389.652 938.07 391.21 935.453 389.456 934.463H389.485Z" fill="var(--color-illustration-primary, #382C80)"/>
<path d="M456.331 367.583V391.367C456.331 399.511 458.036 408.507 468.993 410.144C473.951 410.911 478.991 409.403 482.713 406.038C484.988 403.715 486.614 400.836 487.427 397.688C490.827 386.173 487.603 373.972 488.857 362.134" fill="var(--color-illustration-base, #FFFFFF)"/>
<path d="M453.626 367.582C453.626 373.845 453.283 380.097 453.166 386.359C453.087 390.573 452.882 394.768 453.607 398.942C455.047 407.282 461.045 412.917 469.463 413.946C480.145 415.259 488.544 408.066 491.307 398.129C492.895 392.465 493.042 386.496 492.856 380.646C492.67 374.531 492.856 368.21 492.219 362.134C491.817 358.439 486.682 357.302 485.496 361.222C481.762 373.453 492.65 408.007 469.953 406.518C463.377 406.087 460.398 401.157 459.732 395.101C459.281 390.975 459.457 386.751 459.389 382.606C459.301 377.598 459.046 372.59 459.036 367.582C459.036 364.103 453.646 364.103 453.626 367.582Z" fill="var(--color-illustration-primary, #382C80)"/>
<path d="M473.177 372.12C487.054 372.061 498.403 362.369 502.048 351.873C505.488 341.975 506.693 329.01 501.284 319.533C494.1 307.019 477.088 304.353 463.975 307.215C452.45 309.733 444.14 314.418 441.719 326.815C438.779 342.122 443.238 358.518 456.537 367.543" fill="var(--color-illustration-base, #FFFFFF)"/>
<path d="M473.177 375.148C487.397 374.903 500.617 365.818 505.282 352.275C509.888 338.957 510.182 321.346 498.804 311.272C489.004 302.599 474.491 301.285 462.172 304.098C456.351 305.421 450.588 307.587 446.061 311.575C441.043 315.976 438.672 322.297 437.731 328.755C435.369 344.964 440.926 361.32 454.695 370.787C458.615 373.462 462.172 367.171 458.379 364.476C448.736 357.616 444.238 346.042 444.552 334.449C444.689 329.255 445.532 323.59 448.648 319.268C451.431 315.417 455.802 313.232 460.232 311.85C469.973 308.822 481.507 308.439 490.612 313.673C501.646 320.013 503.156 333.42 500.696 344.866C499.324 351.207 496.874 356.783 492.111 361.31C486.988 366.164 480.242 368.937 473.187 369.092C469.267 369.199 469.267 375.207 473.187 375.148H473.177Z" fill="var(--color-illustration-primary, #382C80)"/>
<path d="M468.973 340.936C471.225 341.794 473.743 341.596 475.833 340.397C477.137 339.652 480.371 336.732 480.87 340.28C480.928 341.542 480.36 342.752 479.351 343.514C477.511 345.102 475.049 345.768 472.658 345.327C470.757 344.954 468.807 343.494 468.875 341.554" fill="var(--color-illustration-primary, #382C80)"/>
<path d="M468.581 342.367C472.011 343.748 475.098 342.621 478.077 340.848C478.381 340.661 479.332 340.23 479.234 340.171C480.008 340.612 477.391 342.817 476.852 343.111C475.186 343.935 470.757 344.376 470.492 341.583C470.286 339.515 467.072 339.446 467.199 341.583C467.67 349.295 480.116 348.58 482.291 342.19C483.095 339.809 481.811 336.594 478.93 336.996C477.764 337.283 476.671 337.814 475.725 338.554C473.87 339.845 471.523 340.207 469.365 339.534C467.484 339.015 466.856 341.7 468.581 342.396V342.367Z" fill="var(--color-illustration-primary, #382C80)"/>
<path d="M467.199 320.268C466.406 322.228 466.396 324.482 466.219 326.54C466.063 328.166 465.592 330.058 466.219 331.636C466.589 332.775 467.584 333.597 468.772 333.746C469.96 333.895 471.127 333.344 471.766 332.331C472.972 330.283 469.885 328.509 468.601 330.479C469.385 330.244 469.718 329.774 469.581 329.078L469.649 328.235C469.708 327.255 469.796 326.275 469.865 325.295C470.079 323.631 470.053 321.944 469.787 320.287C469.473 318.886 467.709 319.209 467.258 320.287L467.199 320.268Z" fill="var(--color-illustration-primary, #382C80)"/>
<path d="M476.764 315.976C478.461 315.386 480.252 315.117 482.046 315.182C482.772 315.211 483.495 315.28 484.212 315.388C484.81 315.476 487.289 315.241 486.113 314.525C485.74 314.516 485.369 314.467 485.006 314.378C484.525 314.21 484.056 314.007 483.605 313.771C483.077 313.553 482.529 313.389 481.968 313.281C480.439 313.016 478.881 313.34 477.362 313.036C475.402 312.634 474.491 315.613 476.509 316.133C477.951 316.39 479.416 316.502 480.88 316.466C482.262 316.534 483.409 317.358 484.8 317.573C486.535 317.857 489.044 317.691 488.877 315.339C488.73 313.153 486.417 312.605 484.663 312.399C481.764 312.03 478.819 312.367 476.078 313.379C474.451 313.967 475.098 316.574 476.803 315.995L476.764 315.976Z" fill="var(--color-illustration-primary, #382C80)"/>
<path d="M463.74 313.359C460.861 312.339 457.779 312.026 454.753 312.447C453.264 312.634 451.039 312.82 451.176 314.848C451.284 316.603 453.234 317.093 454.665 317.24C457.574 317.424 460.493 317.388 463.397 317.132C465.445 317.034 465.475 313.927 463.397 313.927C461.172 313.927 458.948 313.996 456.713 314.064C456.159 314.099 455.602 314.099 455.047 314.064C454.79 314.059 454.535 314.03 454.283 313.976C453.803 313.78 453.783 313.859 454.214 314.211L454.058 315.417C453.793 315.897 454.773 315.505 455.165 315.417C455.89 315.309 456.606 315.211 457.341 315.172C459.263 315.053 461.19 315.309 463.015 315.926C464.681 316.495 465.367 313.898 463.74 313.31V313.359Z" fill="var(--color-illustration-primary, #382C80)"/>
<path d="M479.959 318.249C478.545 318.917 477.663 320.361 477.715 321.924C477.795 323.761 479.216 325.258 481.047 325.432C482.854 325.552 484.457 324.28 484.751 322.492C484.877 320.562 483.871 318.735 482.174 317.808C481.208 317.277 479.999 317.529 479.327 318.402C478.654 319.275 478.719 320.508 479.479 321.307C479.685 321.512 479.89 321.728 480.106 321.924C480.322 322.12 480.302 322.149 480.175 321.973C480.273 322.11 480.361 322.247 480.449 322.394C480.453 322.135 480.473 321.877 480.508 321.62C480.959 321.238 481.027 321.14 480.714 321.346C480.915 321.189 481.186 321.156 481.419 321.258C481.605 321.365 481.615 321.365 481.419 321.258C481.505 321.299 481.574 321.368 481.615 321.454C481.478 321.209 481.566 321.346 481.615 321.542C481.592 321.245 481.721 320.957 481.958 320.777C482.513 320.199 482.56 319.301 482.069 318.668C481.578 318.034 480.697 317.856 479.998 318.249H479.959Z" fill="var(--color-illustration-primary, #382C80)"/>
<path d="M456.713 319.435C455.304 320.114 454.423 321.555 454.459 323.119C454.54 324.958 455.969 326.453 457.801 326.618C459.607 326.733 461.208 325.463 461.506 323.678C461.627 321.749 460.622 319.924 458.928 318.994C457.962 318.448 456.741 318.695 456.063 319.573C455.384 320.451 455.452 321.694 456.223 322.492C456.439 322.698 456.635 322.914 456.86 323.11C457.086 323.306 457.056 323.325 456.929 323.159C457.027 323.296 457.115 323.433 457.203 323.58C457.203 323.321 457.22 323.063 457.252 322.806C457.703 322.414 457.772 322.326 457.468 322.522C457.669 322.372 457.935 322.342 458.164 322.443C458.35 322.551 458.36 322.551 458.164 322.443C458.251 322.482 458.321 322.552 458.36 322.639C458.223 322.384 458.311 322.522 458.36 322.718C458.34 322.422 458.473 322.137 458.713 321.963C459.286 321.388 459.344 320.476 458.847 319.833C458.351 319.19 457.454 319.016 456.753 319.425L456.713 319.435Z" fill="var(--color-illustration-primary, #382C80)"/>
<path d="M490.827 734.749C489.549 732.097 489.144 729.109 489.671 726.213C490.014 724.41 491.631 718.902 493.983 718.932C495.815 718.932 496.149 726.889 496.247 728.565C496.412 732.3 496.149 736.042 495.463 739.718C495.11 741.678 497.423 743.402 499.01 741.785C503.361 737.385 509.908 740.012 511.329 745.607C511.985 748.185 512.152 751.487 510.584 753.771C509.978 754.898 508.736 755.531 507.468 755.358C506.488 755.231 504.88 754.486 505.106 753.261L501.186 754.3C504.324 758.007 505.917 762.779 505.635 767.628C505.576 768.451 505.635 770.882 504.106 770.754C503.342 770.695 502.146 768.941 501.617 768.324C499.987 766.254 498.551 764.04 497.325 761.709C496.09 759.553 492.209 761.003 493.189 763.453C494.845 767.599 503.802 781.711 508.967 773.577C510.927 770.45 510.574 765.394 509.947 761.944C509.124 757.879 507.26 754.097 504.537 750.968C503.943 750.387 503.086 750.162 502.283 750.375C501.479 750.588 500.847 751.208 500.617 752.007C499.784 756.505 503.469 760.043 507.928 760.072C513.426 760.072 516.17 754.525 516.317 749.714C516.474 744.48 514.357 738.708 509.388 736.395C504.891 734.3 499.563 735.253 496.07 738.777L499.618 740.845C500.584 735.187 500.611 729.409 499.696 723.744C499.177 720.539 498.314 713.64 493.444 714.796C489.828 715.659 487.476 720.676 486.643 723.93C485.576 728.119 486.092 732.554 488.093 736.386C489.073 738.257 491.778 736.611 490.886 734.749H490.827Z" fill="var(--color-illustration-secondary, #7F72FF)"/>
<path d="M540.033 807.299C535.493 803.864 532.442 798.821 531.507 793.206C531.289 791.945 531.216 790.662 531.291 789.384C531.527 786.719 533.349 784.386 535.211 787.189C536.828 789.678 536.946 793.99 536.799 796.822C536.662 799.468 540.249 799.547 541.091 797.41C542.483 793.787 545.914 791.353 549.794 791.236L547.55 788.992C547.525 792.936 546.791 796.843 545.384 800.527C545.057 801.764 545.78 803.036 547.011 803.388C553.733 804.476 559.329 810.856 556.203 817.785C554.931 820.775 552.055 822.768 548.808 822.911C545.562 823.053 542.522 821.318 540.993 818.451C539.641 815.932 536.093 817.745 536.623 820.293C537.446 824.645 532.193 826.173 529.331 823.812C526.215 821.185 526.979 816.726 529.4 813.914C531.262 811.728 528.136 808.543 526.215 810.729C521.393 816.217 521.266 825.331 528.616 828.78C531.666 830.242 535.281 829.854 537.951 827.779C540.622 825.704 541.891 822.297 541.229 818.98L536.858 820.823C541.64 829.976 554.929 829.799 559.888 820.94C565.141 811.571 558.535 800.36 548.245 798.861L549.872 801.722C551.309 797.628 552.045 793.321 552.048 788.982C552.032 787.744 551.032 786.744 549.794 786.728C543.932 786.908 538.791 790.691 536.877 796.234L541.17 796.813C540.925 792.618 540.621 786.346 537.367 783.191C534.427 780.339 529.919 782.073 528.361 785.503C526.509 789.561 527.744 795.039 529.341 798.978C531.157 803.364 534.178 807.146 538.053 809.886C539.563 810.983 541.552 808.445 540.062 807.289L540.033 807.299Z" fill="var(--color-illustration-secondary, #7F72FF)"/>
<path d="M575.519 683.084C572.177 676.674 562.093 670.118 555.135 675.371C547.432 681.251 560.339 692.031 564.729 695.422L565.258 691.355C558.281 694.128 553.498 701.429 556.203 708.995C557.183 711.68 559.643 714.551 562.798 714.218C566.385 713.856 568.551 708.995 570.403 706.447L566.268 705.33C565.856 710.974 570.188 717.521 576.411 717.266C583.212 716.982 584.897 707.544 583.692 702.37C583.153 700.057 579.223 700.498 579.468 702.938C579.743 705.624 579.939 712.65 575.95 712.738C572.304 712.738 570.491 708.407 570.707 705.369C570.883 702.938 567.767 702.684 566.571 704.252C565.787 705.3 563.7 709.152 562.573 709.524C560.486 710.161 559.996 705.281 560.054 704.173C560.27 699.979 563.416 697.127 566.973 695.471C568.629 694.697 568.188 692.531 566.973 691.629C564.428 689.786 562.143 687.607 560.182 685.151C558.624 683.191 555.282 679.673 558.839 678.154C563.827 675.998 570.256 680.908 572.775 684.74C573.219 685.498 574.193 685.752 574.95 685.308C575.708 684.864 575.963 683.89 575.519 683.133V683.084Z" fill="var(--color-illustration-secondary, #7F72FF)"/>
<path d="M513.426 636.768C507.242 638.189 502.577 644.755 504.753 651.106C505.733 653.84 508.232 656.094 511.28 655.418C515.259 654.526 516.18 650.263 516.582 646.804L512.289 647.392C514.083 653.007 518.571 659.965 525.5 657.319C528.42 656.256 530.496 653.643 530.87 650.557C531.321 646.637 529.067 643.295 526.823 640.365L524.863 643.775C527.479 643.981 530.037 645.245 532.624 644.109C534.368 643.303 535.608 641.697 535.946 639.806C536.926 635.151 532.683 631.055 529.508 628.321C526.146 625.381 521.286 621.696 516.572 623.48C511.858 625.263 511.397 630.81 511.936 635.122L515.856 633.505C513.681 630.937 510.506 628.605 507.036 630.212C505.805 630.767 504.875 631.828 504.486 633.121C504.097 634.414 504.287 635.813 505.008 636.955C506.497 639.483 510.31 637.239 508.928 634.661C509.81 634.083 510.604 634.289 511.29 635.289C511.755 635.749 512.194 636.237 512.603 636.749C513.818 638.18 516.768 637.082 516.523 635.122C516.229 632.741 515.543 629.085 518.287 627.939C521.031 626.792 524.402 629.899 526.333 631.506C528.038 632.946 530.155 634.701 531.105 636.749C533.33 641.512 526.979 639.395 524.863 639.238C522.746 639.081 522.187 641.727 523.255 643.109C525.294 645.735 529.204 653.213 522.756 653.438C519.179 653.566 517.395 648.96 516.503 646.225C516.188 645.199 515.176 644.552 514.112 644.695C513.048 644.838 512.244 645.73 512.211 646.804C512.173 647.741 512.032 648.671 511.789 649.577C509.757 651.204 508.598 651.067 508.31 649.165C507.999 647.866 508.074 646.503 508.526 645.245C509.392 642.579 511.563 640.541 514.279 639.846C516.239 639.356 515.435 636.288 513.426 636.759V636.768Z" fill="var(--color-illustration-secondary, #7F72FF)"/>
<path d="M601.557 862.09C596.207 864.756 588.043 866.383 582.349 863.776C580.781 863.061 578.812 861.551 580.164 859.562C580.811 858.582 582.418 858.259 583.457 858.043C586.427 857.296 589.571 857.75 592.208 859.307L592.728 855.279C588.915 856.112 587.524 851.467 587.004 848.664C586.71 847.087 585.691 844.411 588.425 844.274C589.552 844.215 591.601 845.685 591.581 846.861L595.393 845.283C592.022 841.618 593.051 836.816 596.736 833.857C598.598 832.347 596.177 829.241 594.178 830.534C587.818 834.67 587.142 842.98 592.218 848.439C592.863 849.057 593.813 849.235 594.639 848.894C595.464 848.552 596.01 847.755 596.03 846.861C596.118 840.236 583.78 836.081 582.242 843.921C580.879 850.85 585.564 861.444 593.884 859.601C595.844 859.16 595.922 856.553 594.413 855.573C589.004 852.085 572.5 852.761 575.744 862.825C577.244 867.48 582.604 868.588 586.906 868.852C592.595 869.101 598.245 867.8 603.253 865.089C605.213 864.109 603.488 861.169 601.538 862.149L601.557 862.09Z" fill="var(--color-illustration-secondary, #7F72FF)"/>
<path d="M498.393 852.026C497.619 850.634 498.216 842.098 501.813 845.607C503.773 847.478 502.891 852.075 501.901 854.093C500.911 856.112 502.881 858.288 504.9 857.092C506.483 856.03 508.187 855.161 509.976 854.505C510.388 854.378 511.299 854.025 511.711 854.182C513.436 854.819 511.182 856.21 510.545 856.671C509.541 857.294 509.14 858.555 509.599 859.643C510.057 860.732 511.24 861.325 512.387 861.042C514.837 860.552 517.797 862.276 517.924 864.962C518.071 868.068 514.739 869.666 512.113 869.323C509.486 868.98 508.898 873.448 511.486 873.929C517.199 874.967 523.128 870.695 522.726 864.56C522.354 858.866 516.425 855.162 511.113 856.416L513.436 860.414C516.464 858.082 519.316 853.153 514.935 850.438C511.084 848.027 505.86 851.183 502.685 853.3L505.909 855.779C507.399 851.202 507.458 840.854 500.392 840.814C494.767 840.814 493.307 849.879 495.649 853.623C496.093 854.381 497.067 854.635 497.824 854.191C498.582 853.748 498.837 852.774 498.393 852.016V852.026Z" fill="var(--color-illustration-secondary, #7F72FF)"/>
<path d="M348.306 865.804C345.366 863.844 342.142 860.13 342.161 856.347C342.161 853.407 344.631 852.545 346.806 854.387C348.453 855.769 349.168 858.209 349.639 860.267L352.334 857.562C351.354 857.347 351.687 854.103 351.804 853.495C352.079 851.967 352.931 849.791 354.45 849.085C358.86 847.037 358.439 855.945 358.047 857.984C357.819 858.813 358.053 859.701 358.662 860.309C359.27 860.917 360.158 861.152 360.987 860.924C363.104 860.316 365.652 859.375 367.847 860.238C370.219 861.218 370.336 863.442 370.346 865.677C370.346 869.45 370.258 874.791 365.622 875.624C363.202 876.065 363.839 879.808 366.191 879.828C374.227 879.906 375.491 870.42 375.089 864.256C374.883 861.061 373.805 857.984 370.865 856.328C367.396 854.368 363.329 855.269 359.762 856.328L362.702 859.268C363.368 855.279 363.349 850.614 361.056 847.086C360.149 845.653 358.709 844.64 357.053 844.272C355.398 843.904 353.664 844.211 352.236 845.126C348.933 847.086 347.208 851.192 347.198 854.926C347.198 857.974 348.247 861.874 351.863 861.904C353.686 861.904 354.382 860.061 353.755 858.601C352.343 855.279 351.089 851.633 347.483 850.124C344.837 849.027 341.495 849.37 339.643 851.751C335.321 857.406 342.083 865.794 346.757 868.666C348.541 869.754 350.099 867.019 348.384 865.883L348.306 865.804Z" fill="var(--color-illustration-secondary, #7F72FF)"/>
<path d="M290.76 794.362C288.272 796.858 287.106 800.381 287.614 803.868C287.997 806.72 289.868 810.934 293.004 811.708C296.532 812.541 298.6 807.083 299.531 804.623C301.129 799.951 301.752 795.002 301.364 790.08L297.679 791.06C299.208 794.676 303.559 803.8 308.91 801.702C311.301 800.722 311.575 797.782 311.85 795.548C312.232 791.736 311.859 787.886 310.752 784.219L307.597 786.64C310.752 788.276 314.741 789.462 318.161 787.875C322.277 785.964 323.188 780.897 322.963 776.771C322.738 772.645 320.866 768.765 317.083 766.922C312.898 764.894 308.087 766.922 304.843 769.784C302.883 771.489 305.372 774.282 307.479 773.204C309.586 772.126 312.105 769.882 314.78 770.705C317.455 771.528 318.592 774.723 318.7 777.32C318.808 779.917 318.524 783.327 315.76 784.18C313.849 784.778 311.438 783.778 309.802 782.935C309.047 782.52 308.119 782.591 307.437 783.116C306.754 783.641 306.448 784.521 306.656 785.356C307.518 788.296 308.861 793.49 307.499 796.469C307.665 797.351 307.44 797.606 306.822 797.224C306.436 797.211 306.085 796.995 305.901 796.655C305.277 796.072 304.728 795.413 304.265 794.695C303.057 793.11 302.068 791.37 301.325 789.521C300.56 787.561 297.405 787.649 297.405 790.05C297.503 795.362 297.15 801.036 294.533 805.799C293.818 807.083 293.984 807.514 292.877 806.857C292.064 806.377 291.544 804.564 291.358 803.731C290.731 801.23 291.389 798.582 293.112 796.665C294.543 795.087 292.279 792.745 290.76 794.313V794.362Z" fill="var(--color-illustration-secondary, #7F72FF)"/>
<path d="M372.982 765.021C370.264 764.458 367.816 762.994 366.034 760.866C364.074 758.543 362.3 754.212 364.848 751.674C367.396 749.135 371.444 750.694 373.257 753.261C375.217 756.113 374.923 759.621 374.148 762.816C373.915 763.794 374.349 764.81 375.217 765.318C376.086 765.825 377.184 765.705 377.921 765.021C379.519 763.698 381.498 761.905 383.694 761.728C386.957 761.464 387.506 764.541 387.614 767.177C387.834 769.634 387.308 772.1 386.104 774.253C385.571 775.114 384.867 775.858 384.037 776.438C383.694 776.673 380.577 778.163 380.469 777.918L380.097 780.789L380.352 780.584L377.48 780.946C379.019 781.926 375.618 784.004 374.952 784.366C373.228 785.383 371.205 785.767 369.229 785.454C365.73 784.749 363.349 780.799 366.524 778.124L362.604 777.144C363.163 779.104 359.36 777.732 358.851 777.222C357.822 776.177 357.614 774.575 358.341 773.302C359.497 770.774 362.477 769.637 364.907 768.755C367.602 767.775 366.475 763.473 363.702 764.404C357.822 766.364 349.56 772.665 354.882 779.594C358.508 784.308 369.141 783.288 367.083 775.88C366.836 775.106 366.207 774.514 365.419 774.315C364.632 774.115 363.797 774.336 363.212 774.9C356.508 780.466 362.232 789.903 369.778 790.335C374.014 790.505 378.105 788.773 380.93 785.611C383.272 782.789 382.939 778.947 379.842 776.918C378.907 776.397 377.741 776.548 376.971 777.291L376.706 777.497C375.96 778.267 375.813 779.437 376.344 780.368C378.039 784.21 384.135 782.181 386.643 780.417C390.72 777.565 392.337 772.577 392.239 767.775C392.151 763.492 391.053 758.72 386.359 757.475C381.665 756.231 377.941 759.102 374.668 761.885L378.451 764.08C379.519 759.004 379.058 753.359 375.207 749.508C372.04 746.181 366.948 745.591 363.104 748.106C359.292 750.752 359.105 755.79 360.869 759.71C362.96 764.214 367.185 767.359 372.1 768.069C374.06 768.373 374.913 765.531 372.923 765.08L372.982 765.021Z" fill="var(--color-illustration-secondary, #7F72FF)"/>
<path d="M433.007 733.779C429.94 735.279 424.756 735.739 421.806 733.574C419.611 731.947 420.032 729.654 422.786 729.222C424.649 729.082 426.467 729.835 427.686 731.251L429.224 727.537C428.558 727.605 428.734 721.657 428.96 721.049C429.273 720.14 429.875 719.359 430.675 718.825C431.821 718.158 434.467 718.227 434.095 720.393H438.603C438.142 717.639 441.847 715.238 444.228 715.287C447.168 715.346 448.285 719.883 446.502 722.01L450.49 723.068L450.373 722.529L450.128 724.371L449.354 724.685C450.453 724.643 451.362 723.816 451.51 722.726C451.657 721.636 451 720.598 449.951 720.265C447.266 719.422 445.296 721.765 445.894 724.332C446.276 725.988 448.736 726.763 449.873 725.381C453.489 721.03 452.676 711.896 446.218 710.681C439.759 709.466 432.978 715.14 434.095 721.667C434.575 724.469 438.436 723.45 438.691 721.039C439.436 713.983 430.459 712.043 426.412 716.786C423.325 720.393 422.805 733.005 429.803 731.839C430.548 731.633 431.13 731.048 431.331 730.301C431.533 729.554 431.324 728.756 430.783 728.203C428.176 725.89 424.903 724.518 421.365 725.263C418.082 725.93 415.72 728.389 416.132 731.888C416.543 735.387 419.63 737.543 422.815 738.366C427 739.444 430.871 738.464 434.575 736.465C436.32 735.485 434.791 732.986 433.046 733.838L433.007 733.779Z" fill="var(--color-illustration-secondary, #7F72FF)"/>
<path d="M371.483 660.965C366.583 664.571 360.84 672.911 365.867 678.762C368.102 681.349 371.679 681.261 374.364 679.428C377.804 677.076 379.519 672.754 380.146 668.785L376.363 669.275C378.215 672.45 382.596 676.566 386.692 675.39C391.014 674.156 391.592 667.55 391.132 663.993L387.476 665.502C393.837 671.666 404.577 666.668 404.264 657.897C403.891 647.519 391.945 643.874 384.115 649.077L387.565 651.723C388.214 649.654 387.882 647.401 386.664 645.607C385.446 643.812 383.475 642.672 381.312 642.511C378.735 642.237 378.108 646.647 380.695 647.078C382.488 647.372 383.635 648.656 383.037 650.479C382.439 652.302 384.791 654.301 386.487 653.125C391.034 649.979 398.315 650.449 399.697 656.761C400.844 662.023 394.709 666.463 390.505 662.445C389.309 661.298 386.585 662.004 386.849 663.954C387.114 665.904 387.476 670.157 385.369 670.961C383.262 671.764 380.812 668.619 379.94 667.149C379.068 665.679 376.432 665.796 376.157 667.648C375.907 669.877 375.182 672.025 374.031 673.95C372.678 676.086 369.268 678.291 368.151 674.793C366.847 670.745 370.111 665.973 373.129 663.699C374.736 662.464 373.178 659.691 371.502 660.926L371.483 660.965Z" fill="var(--color-illustration-secondary, #7F72FF)"/>
<path d="M440.622 635.074C437.839 630.233 431.018 627.734 427.059 632.839C422.864 638.249 428.617 644.727 434.624 643.12L432.429 639.356C427.794 643.012 426.206 649.97 429.303 655.134C432.243 660.034 440.014 661.377 441.925 654.909L437.368 654.292C437.16 655.866 437.588 657.459 438.557 658.717C439.526 659.975 440.957 660.795 442.533 660.995C445.89 661.369 449.117 659.581 450.579 656.536C453.94 650.254 450.402 640.621 442.229 642.355C439.289 642.973 440.583 647.255 443.444 646.765C446.874 646.177 447.668 650.607 446.953 653.067C446.702 654.24 446.038 655.284 445.081 656.007C443.621 656.918 441.768 656.212 442.004 654.321C442.347 651.655 438.162 651.283 437.447 653.704C436.614 656.546 433.664 653.606 433.046 652.42C432.509 651.338 432.26 650.137 432.321 648.931C432.409 646.424 433.618 644.09 435.614 642.571C437.407 641.101 435.467 638.22 433.419 638.808C429.803 639.846 428.96 634.995 432.351 634.035C434.585 633.398 436.712 634.956 437.946 636.671C439.181 638.386 441.641 636.867 440.622 635.103V635.074Z" fill="var(--color-illustration-secondary, #7F72FF)"/>
<path d="M543.875 106.775C543.492 124.749 535.505 142.8 522.697 156.236C517.542 161.646 511.486 166.33 508.977 173.278C506.387 180.545 505.061 188.202 505.057 195.916C505.057 199.101 505.292 202.57 503.361 205.177C502.232 206.524 500.825 207.611 499.236 208.362C483.007 217.182 462.691 214.918 444.895 209.597C442.033 208.735 439.073 207.735 437.055 205.677C431.175 199.621 435.712 189.478 434.438 182.157C432.478 171.132 423.609 169.78 415.269 164.145C408.105 159.195 402.285 152.54 398.335 144.78C392.788 134.078 390.661 122.005 390.397 110.068C390.103 97.4261 391.886 84.5881 397.257 73.0045C402.627 61.4209 411.614 51.1603 423.56 45.6037C429.13 43.1311 434.992 41.3759 441.004 40.3803C460.516 36.7935 481.243 37.8029 499.539 45.2215C517.836 52.6401 533.428 66.8403 540.18 84.6273C542.823 91.7041 544.077 99.2239 543.875 106.775Z" fill="var(--color-illustration-secondary, #7F72FF)"/>
<path d="M540.915 106.775C540.209 123.876 532.624 140.536 520.943 152.942C515.709 158.509 509.3 163.321 506.125 170.484C502.656 178.324 501.343 187.409 501.313 195.964C501.313 200.286 501.45 202.913 497.334 205.176C493.503 207.214 489.387 208.661 485.124 209.469C476.872 211.154 468.14 210.743 459.879 209.322C455.876 208.616 451.912 207.707 448.001 206.597C444.248 205.539 439.701 204.637 438.26 200.521C437.123 197.307 437.839 193.485 438.142 190.182C438.466 186.517 438.642 182.872 437.633 179.295C435.81 172.827 431.077 168.789 425.393 165.643C418.778 161.9 412.78 158.254 407.88 152.394C396.443 138.87 393.494 120.132 394.229 102.943C394.964 85.7537 400.54 68.7997 413.407 56.9515C426.5 44.8975 445.933 42.1731 463.132 42.3397C482.095 42.4965 501.46 47.7199 516.425 59.7347C530.968 71.3967 539.945 87.9881 539.808 106.775C539.808 112.018 547.844 112.018 547.942 106.775C548.667 68.1235 515.268 40.9285 479.342 35.6953C469.52 34.2716 459.557 34.12 449.697 35.2445C439.769 36.3715 429.714 38.2727 420.698 42.7415C404.793 50.5815 394.052 66.3399 389.564 83.1861C384.595 101.806 385.232 123.699 392.7 141.574C396.069 149.9 401.31 157.338 408.017 163.311C411.176 166.022 414.619 168.381 418.288 170.347C421.13 171.905 424.236 173.287 426.686 175.453C432.929 180.951 430.195 189.016 430.165 196.209C430.165 200.129 430.959 204.098 433.458 207.244C435.957 210.39 439.975 212.056 443.895 213.242C461.349 218.524 481.135 220.778 498.236 213.036C502.274 211.203 506.282 208.881 507.889 204.51C509.349 200.59 508.653 196.092 508.869 191.966C509.408 182.558 511.554 173.062 518.081 166.006C524.235 159.342 530.537 153.266 535.339 145.485C542.665 133.888 546.644 120.491 546.834 106.775C546.903 102.953 541.072 102.982 540.915 106.775Z" fill="var(--color-illustration-secondary, #7F72FF)"/>
<path d="M432.321 217.495C431.792 219.759 432.409 222.395 431.449 224.512C430.312 226.962 428.313 228.638 428.166 231.538C428.166 233.735 429.024 235.845 430.557 237.418C432.351 239.525 433.38 240.417 433.36 243.357C433.311 248.257 434.448 251.766 438.162 255.117C441.477 258.003 445.215 260.362 449.246 262.114C454.094 264.157 459.233 265.427 464.475 265.878C470.274 266.714 476.162 266.737 481.968 265.946C486.682 265.172 492.17 263.918 496.452 261.752C501.186 259.351 504.645 253.784 505.468 248.63C505.968 245.484 504.753 242.916 504.557 239.868C504.39 237.32 506.635 234.792 507.497 232.42C509.565 226.364 508.408 219.249 506.38 213.34C504.577 208.067 497.334 210.253 498.177 215.594C499.157 221.474 500.647 226.619 497.697 232.175C496.345 234.714 495.374 237.075 495.521 240.015C495.668 242.955 497.187 245.523 496.266 248.355C494.355 254.235 489.553 254.588 484.398 256.019C478.67 257.506 472.717 257.924 466.837 257.254C461.682 256.803 456.498 256.156 451.725 254.049C448.423 252.589 442.788 250.217 441.22 246.67C440.24 244.523 441.073 241.613 440.475 239.32C439.828 236.801 438.28 235.096 436.486 233.322C435.222 232.068 434.918 231.94 435.506 230.186C435.947 228.883 437.045 227.824 437.466 226.491C438.338 223.914 437.466 221.533 437.819 218.965C438.358 215.447 433.193 213.81 432.341 217.456L432.321 217.495Z" fill="var(--color-illustration-primary, #382C80)"/>
<path d="M478.126 203.109C482.703 167.545 487.427 138.243 497.197 103.747C486.089 105.148 474.889 101.963 466.18 94.9268C462.054 102.933 451.715 104.913 442.778 105.971C453.215 138.527 463.172 168.946 462.182 203.129" fill="var(--color-illustration-secondary, #7F72FF)"/>
<path d="M479.675 203.53C484.349 170.073 489.935 136.832 499.108 104.266C499.282 103.669 499.163 103.024 498.786 102.53C498.409 102.035 497.819 101.748 497.197 101.757C486.672 102.908 476.115 99.8815 467.797 93.3294C467.301 92.8544 466.617 92.6293 465.935 92.7168C465.254 92.8043 464.649 93.1952 464.289 93.7802C460.114 101.297 450.569 102.767 442.817 103.708C442.121 103.722 441.471 104.053 441.049 104.606C440.627 105.16 440.481 105.875 440.651 106.55C445.737 122.23 450.804 137.91 454.508 153.933C458.281 170.23 459.742 186.42 460.261 203.109C460.339 205.657 463.985 205.598 464.181 203.109C465.504 186.733 462.731 169.789 459.085 153.913C455.322 137.469 450.059 121.426 444.963 105.354L442.807 108.196C452.196 107.02 463.083 105.06 468.101 96.0342L464.602 96.485C473.751 103.884 485.526 107.222 497.197 105.726L495.237 103.218C486.006 135.959 480.469 169.358 476.5 203.109C476.284 204.873 479.381 205.314 479.636 203.53H479.675Z" fill="var(--color-illustration-base, #FFFFFF)"/>
<path d="M434.262 100.856C436.986 100.856 436.986 96.6221 434.262 96.6221C431.537 96.6221 431.527 100.856 434.262 100.856Z" fill="var(--color-illustration-base, #FFFFFF)"/>
<path d="M500.98 100.337C503.616 100.337 503.626 96.2402 500.98 96.2402C498.334 96.2402 498.344 100.337 500.98 100.337Z" fill="var(--color-illustration-base, #FFFFFF)"/>
<path d="M465.357 80.2361C466.288 80.1669 467.008 79.3912 467.008 78.4574C467.008 77.5236 466.288 76.7479 465.357 76.6787C464.426 76.7479 463.705 77.5236 463.705 78.4574C463.705 79.3912 464.426 80.1669 465.357 80.2361Z" fill="var(--color-illustration-base, #FFFFFF)"/>
<path d="M431.106 112.292C431.869 112.292 432.488 111.673 432.488 110.91C432.488 110.147 431.869 109.528 431.106 109.528C430.343 109.528 429.724 110.147 429.724 110.91C429.724 111.673 430.343 112.292 431.106 112.292Z" fill="var(--color-illustration-base, #FFFFFF)"/>
<path d="M505.468 111.233C506.394 111.233 507.144 110.483 507.144 109.558C507.144 108.632 506.394 107.882 505.468 107.882C504.543 107.882 503.792 108.632 503.792 109.558C503.792 110.483 504.543 111.233 505.468 111.233Z" fill="var(--color-illustration-base, #FFFFFF)"/>
<path d="M518.453 67.6529C523.353 71.4553 526.48 75.9241 527.646 82.0883C528.018 84.0483 531.429 83.6269 531.174 81.6081C530.38 74.9245 526.46 68.3977 520.325 65.2323C518.865 64.4777 517.003 66.5259 518.453 67.6529Z" fill="var(--color-illustration-base, #FFFFFF)"/>
<path d="M463.064 239.613C469.424 241.113 476.568 240.339 482.977 239.613C489.151 238.898 496.541 238.134 501.95 234.772C504.214 233.371 502.146 229.804 499.863 231.195C494.894 234.223 488.103 234.909 482.448 235.762C476.568 236.654 469.806 237.84 463.828 236.742C461.976 236.419 461.153 239.153 463.034 239.594L463.064 239.613Z" fill="var(--color-illustration-primary, #382C80)"/>
<path d="M445.12 223.943C442.359 223.553 439.652 222.842 437.055 221.826C434.899 221.023 434.017 224.414 436.075 225.247C438.952 226.34 442.003 226.908 445.081 226.922C447.041 226.922 446.933 224.169 445.081 223.982L445.12 223.943Z" fill="var(--color-illustration-primary, #382C80)"/>
<path d="M453.244 229.991C454.395 230.221 455.581 230.201 456.723 229.932C457.341 229.75 457.765 229.184 457.765 228.54C457.765 227.897 457.341 227.33 456.723 227.149C455.581 226.879 454.395 226.859 453.244 227.09C452.56 227.249 452.077 227.858 452.077 228.56C452.077 229.262 452.56 229.871 453.244 230.03V229.991Z" fill="var(--color-illustration-primary, #382C80)"/>
<path d="M460.918 248.894C463.085 250.13 465.574 250.686 468.062 250.492C470.198 250.325 470.208 246.954 468.062 247.15C466.166 247.352 464.255 246.969 462.584 246.052C460.722 245.072 459.075 247.856 460.918 248.894Z" fill="var(--color-illustration-primary, #382C80)"/>
<path d="M462.887 119.643C466.835 122.25 471.807 122.766 476.206 121.025C478.322 120.133 477.421 116.635 475.226 117.517C471.757 119.094 467.74 118.893 464.446 116.978C462.74 115.998 461.202 118.595 462.887 119.643Z" fill="var(--color-illustration-base, #FFFFFF)"/>
<path d="M513.25 63.2931C514.029 63.2931 514.661 62.6613 514.661 61.8819C514.661 61.1025 514.029 60.4707 513.25 60.4707C512.47 60.4707 511.839 61.1025 511.839 61.8819C511.839 62.6613 512.47 63.2931 513.25 63.2931Z" fill="var(--color-illustration-base, #FFFFFF)"/>
<path d="M403.156 92.4773C402.826 81.5884 407.45 71.1368 415.73 64.0573C417.553 62.4795 414.887 59.8041 413.084 61.4113C404.316 69.3003 399.532 80.694 400.04 92.4773C400.109 94.4961 403.254 94.5059 403.186 92.4773H403.156Z" fill="var(--color-illustration-base, #FFFFFF)"/>
<path d="M565.983 70.6322C569.688 67.6922 573.431 64.7522 577.253 61.8808C580.821 59.2348 584.956 56.2262 589.65 56.9024L588.523 54.1486C585.819 58.8069 583.12 63.4717 580.429 68.143C578.939 70.74 574.549 75.5812 576.685 78.825C578.39 81.471 583.604 81.765 586.279 82.8528C590.826 84.6635 595.11 87.0727 599.019 90.0166V86.0966L586.828 92.9566C584.407 94.2992 579.517 95.8084 580.448 99.4736C580.85 101.071 582.281 102.306 583.388 103.511L588.092 108.803L597.892 119.867C599.931 122.161 603.302 118.78 601.263 116.506L593.962 108.343C591.61 105.716 589.356 102.463 586.661 100.189C586.661 100.189 584.701 98.4642 584.701 99.4344C585.399 98.9514 586.141 98.5347 586.916 98.1898L591.346 95.7006L601.303 90.1048C601.973 89.6786 602.379 88.9392 602.379 88.1448C602.379 87.3504 601.973 86.611 601.303 86.1848C595.658 81.8285 589.206 78.6342 582.32 76.7866C582.242 76.7866 580.732 76.5318 580.752 76.5514C581.288 75.3743 581.904 74.2349 582.594 73.141L585.358 68.0156C587.514 64.0237 589.657 60.0319 591.787 56.04C592.11 55.4567 592.104 54.7468 591.771 54.169C591.438 53.5913 590.827 53.2303 590.16 53.2176C585.133 52.5414 580.713 54.8934 576.763 57.7648C572.226 61.0576 567.943 64.6248 563.631 68.2704C561.965 69.6718 564.347 71.965 565.993 70.6322H565.983Z" fill="var(--color-illustration-primary, #382C80)"/>
<path d="M569.07 125.277C570.766 127.237 572.461 129.197 574.186 131.157C575.685 132.872 578.233 130.344 576.695 128.648C574.941 126.688 573.167 124.826 571.393 122.925C569.933 121.357 567.708 123.66 569.07 125.248V125.277Z" fill="var(--color-illustration-primary, #382C80)"/>
<path d="M558.506 40.6152C557.595 43.4082 556.693 46.211 555.831 49.0236C555.037 51.5716 559.055 52.679 559.819 50.1212C560.675 47.3119 561.502 44.4895 562.299 41.654C562.994 39.2138 559.29 38.224 558.506 40.6152Z" fill="var(--color-illustration-primary, #382C80)"/>
<path d="M370.287 72.5341C361.627 64.8225 351.155 59.4283 339.848 56.8541C337.634 56.3151 336.546 58.8141 337.79 60.3919C343.896 68.2319 350.334 75.7975 356.41 83.6473L356.92 80.0703C348.1 84.1863 340.26 90.6935 333.861 97.9847C333.352 98.5096 333.11 99.2375 333.204 99.9623C333.297 100.687 333.716 101.33 334.341 101.709C336.68 102.994 339.365 103.511 342.014 103.188C343.533 103.071 345.042 102.806 346.561 102.669C347.185 102.527 347.826 102.481 348.463 102.532C349.07 102.777 348.463 103.512 348.11 104.492C345.385 111.499 342.573 118.476 339.799 125.464C339.123 127.179 341.122 128.884 342.739 128.404C350.074 126.254 356.989 122.874 363.192 118.408C365.564 116.673 363.359 112.694 360.85 114.39C354.907 118.497 348.374 121.676 341.475 123.817L344.415 126.757L349.413 113.88L351.932 107.471C352.569 105.854 353.549 104.07 353.598 102.287C353.686 99.0039 350.864 97.8965 348.041 97.8867C344.307 97.8867 340.201 99.6017 336.703 97.6319L337.183 101.356C343.504 94.1529 350.903 88.7335 359.174 84.0001C359.771 83.6387 360.172 83.0248 360.261 82.3323C360.351 81.6399 360.12 80.9443 359.635 80.4427C353.235 72.8575 347.169 64.9881 340.779 57.3931L338.721 60.9603C349.399 63.3208 359.387 68.1169 367.906 74.9743C369.562 76.2777 371.934 74.0923 370.287 72.5831V72.5341Z" fill="var(--color-illustration-primary, #382C80)"/>
<path d="M362.261 49.2878C363.114 50.209 364.074 50.993 364.868 51.973C365.638 52.9397 366.311 53.9803 366.877 55.0796C367.965 57.1572 371.199 55.2952 370.023 53.2372C368.668 50.6247 366.676 48.3966 364.231 46.7594C363.528 46.3746 362.649 46.5593 362.16 47.1946C361.672 47.8299 361.719 48.7266 362.271 49.3074L362.261 49.2878Z" fill="var(--color-illustration-primary, #382C80)"/>
<path d="M367.22 150.14L370.493 146.279C371.179 145.556 371.179 144.424 370.493 143.701C369.776 142.994 368.623 142.994 367.906 143.701L364.691 147.621C364.017 148.329 364.017 149.442 364.691 150.15C365.391 150.845 366.52 150.845 367.22 150.15V150.14Z" fill="var(--color-illustration-primary, #382C80)"/>
</svg>
