<svg width="1000" height="1000" viewBox="0 0 1000 1000" fill="none" xmlns="http://www.w3.org/2000/svg">
<path d="M422.354 195.887C421.678 190.771 421.59 184.391 426.059 181.824C436.966 175.562 456.654 203.707 462.721 209.901C476.751 224.223 490.022 239.27 502.479 254.981C521.423 278.854 535.799 305.147 553.439 329.608C554.498 331.078 555.723 332.656 557.496 332.979C558.795 333.09 560.099 332.846 561.269 332.273C596.412 318.671 631.506 304.951 666.551 291.113C683.727 284.286 700.88 277.397 718.011 270.445C730.751 265.281 749.371 255.941 751.762 277.825C752.624 285.606 749.449 293.25 745.696 300.12C737.611 314.947 726.615 327.961 715.453 340.633C697.96 360.507 679.702 379.97 658.27 395.513C636.837 411.056 611.916 422.58 585.544 424.952C536.818 429.284 490.004 401.55 457.233 365.231C434.957 340.554 416.7 311.047 388.28 293.887" fill="var(--color-illustration-base, #FFFFFF)"/>
<path d="M425.197 195.886C424.677 191.378 424.276 182.529 431.136 184.009C435.35 184.92 439.113 188.438 442.151 191.29C448.736 197.474 453.979 204.804 460.046 211.449C470.698 223.091 481.537 234.449 491.592 246.631C502.359 259.767 512.365 273.509 521.56 287.791C530.38 301.393 538.896 315.231 548.197 328.529C551.94 333.89 555.213 338.192 562.24 335.86C570.531 333.106 578.645 329.588 586.809 326.462C619.737 313.833 652.599 301.021 685.397 288.026C699.117 282.567 712.729 276.825 726.498 271.493C733.652 268.72 744.344 264.633 746.941 274.923C750.763 290.006 737.582 306.401 729.056 317.632C719.373 330.372 708.475 342.328 697.607 354.009C675.91 377.245 651.547 399.089 621.853 411.467C594.526 423.022 563.892 424.069 535.839 414.407C508.487 405.156 484.252 387.653 464.416 366.906C444.581 346.16 429.078 321.15 406.9 302.569C401.637 298.134 396.03 294.123 390.132 290.574C385.869 288.026 382.077 294.582 386.212 297.199C412.8 313.859 430.312 340.73 450.549 364.005C470.522 386.996 494.924 406.586 523.128 418.484C551.333 430.381 581.997 433.046 611.328 424.138C643.335 414.417 670.452 393.601 693.785 370.238C705.79 358.194 717.227 345.474 728.085 332.41C738.395 320.043 749.704 306.097 754.467 290.447C757.495 280.5 756.662 264.379 744.765 260.557C735.739 257.666 725.822 262.683 717.648 266.054C683.152 280.294 648.431 293.994 613.7 307.675C596.168 314.535 578.675 321.62 561.074 328.363C558.291 329.431 557.232 328.451 555.419 326.315C554.077 324.727 552.959 322.855 551.764 321.15C549.186 317.446 546.668 313.712 544.169 309.949C539.181 302.442 534.31 294.857 529.361 287.32C520.017 272.867 509.888 258.937 499.02 245.592C488.054 232.313 476.245 219.945 464.475 207.372C457.87 200.345 452.255 192.505 445.003 186.077C439.583 181.255 430.361 174.385 423.286 180.265C418.758 184.028 418.856 190.526 419.493 195.857C419.924 199.434 425.608 199.493 425.177 195.857L425.197 195.886Z" fill="var(--color-illustration-primary, #382C80)"/>
<path d="M744.451 514.837C714.355 549.96 693.491 591.601 686.7 634.397C679.908 677.194 687.611 720.912 710.22 756.593C729.036 786.268 757.26 809.317 788.11 828.359C803.447 837.826 819.47 846.342 835.777 854.486C848.223 860.718 871.371 867.079 877.966 879.084C882.2 886.796 879.819 896.528 876.585 905.191C873.351 913.854 869.284 922.831 870.371 931.553C870.423 932.625 870.761 933.664 871.351 934.561C872.297 935.595 873.54 936.311 874.909 936.61C880.73 938.22 886.938 937.666 892.382 935.051C898.262 932.258 902.672 927.437 906.857 922.723C933.317 892.921 956.651 858.464 964.863 821.234C965.353 819 965.843 816.648 965.069 814.56C964.089 811.905 961.531 810.17 959.042 808.612C921.733 785.268 882.484 764.933 846.646 739.306C833.974 730.241 808.739 716.021 801.007 702.448C791.148 685.112 809.072 665.424 818.02 652.116C829.878 634.485 838.1 614.66 843.274 594.08C854.182 550.715 838.776 508.016 821.077 466.847" fill="var(--color-illustration-base, #FFFFFF)"/>
<path d="M742.286 512.672C692.717 570.717 664.493 651.626 691.649 726.214C704.605 761.778 729.418 790.188 759.269 812.855C775.439 825.145 792.834 835.729 810.66 845.411C819.48 850.203 828.3 855.103 837.502 859.209C844.46 862.345 851.634 864.962 858.494 868.323C864.697 871.361 872.312 875.183 875.262 881.867C879.348 891.118 873.782 902.035 870.548 910.699C867.951 917.676 863.296 929.946 868.47 936.816C873.282 943.205 885.522 941.784 891.99 939.344C900.565 936.081 906.69 928.907 912.512 922.184C918.94 914.828 925.085 907.226 930.945 899.38C942.607 883.7 952.819 866.932 960.345 848.861C964.177 840.035 967.093 830.841 969.048 821.421C971.008 811.052 964.481 807.093 956.553 802.183C938.354 790.913 919.764 780.29 901.369 769.334C883.19 758.505 865.364 747.195 848.057 735.034C835.141 725.949 820.754 718.227 809.837 706.672C804.467 701.018 801.438 694.55 803.183 686.651C805.025 678.233 810.239 670.785 815.129 663.856C825.978 648.5 835.111 632.741 841.589 614.984C848.635 595.501 852.447 575.313 850.997 554.567C849.527 533.536 843.725 513.122 836.366 493.454C832.759 483.82 828.682 474.373 824.527 464.965C822.822 461.124 816.021 463.926 817.667 467.905C833.23 505.351 848.968 546.413 840.589 587.593C836.686 606.473 829.735 624.591 820.009 641.238C812.032 654.889 799.89 666.963 795.441 682.398C790.992 697.833 799.273 709.524 810.68 719.011C822.528 728.811 835.895 736.749 848.508 745.559C881.828 768.883 917.941 787.875 952.564 809.18C954.524 810.386 956.631 811.503 958.444 812.865C961.267 814.933 961.913 816.619 961.188 820.156C960.17 824.965 958.881 829.713 957.327 834.376C954.405 843.262 950.777 851.901 946.478 860.209C937.658 877.388 926.575 893.343 914.354 908.229C908.641 915.197 902.839 923.056 895.665 928.593C891.841 931.673 887.134 933.451 882.23 933.67C879.407 933.748 876.791 933.748 875.125 931.386C873.459 929.025 874.145 925.428 874.791 922.566C878.065 907.112 891.138 889.178 879.27 874.174C870.597 863.218 855.211 858.955 842.892 853.594C825.252 845.999 808.063 836.16 791.658 826.154C760.484 807.142 730.722 783.534 711.563 751.929C691.806 719.334 684.72 680.389 688.944 642.727C693.09 605.762 708.211 570.472 729.124 539.945C734.604 531.973 740.492 524.289 746.764 516.925C749.302 513.936 745 509.575 742.433 512.593L742.286 512.672Z" fill="var(--color-illustration-primary, #382C80)"/>
<path d="M818.343 442.18C849.174 478.489 854.182 550.715 843.275 594.08C838.09 614.66 829.878 634.485 818.069 652.076C809.122 665.384 791.197 685.073 801.056 702.409C808.788 715.982 834.023 730.202 846.695 739.267C855.319 745.431 864.168 751.301 873.155 756.985C879.162 760.797 886.875 763.355 887.522 771.509C888.051 778.369 881.014 791.285 878.702 797.969C871.225 819.293 860.042 839.129 845.666 856.563C837.159 866.853 827.046 876.565 814.306 880.465C806.035 882.993 795.843 882.347 790.335 875.692C788.169 873.086 786.954 869.812 785.337 866.872C778.477 854.348 763.591 846.293 752.507 838.021C730.134 821.361 709.387 803.045 694.295 779.28C671.667 743.608 663.984 699.9 670.775 657.084C676.4 620.677 692.08 586.338 713.474 556.555C722 544.658 731.623 536.642 733.515 521.677C736.141 500.931 735.592 479.322 733.632 458.555" fill="var(--color-illustration-secondary, #7F72FF)"/>
<path d="M732.26 408.978C567.277 570.423 531.36 786.16 516.209 817.393C510.202 829.76 505.155 845.205 496.609 856.054C484.849 871.028 469.002 871.097 451.95 874.909C449.459 875.415 447.009 876.106 444.62 876.977C442.325 877.734 440.273 879.087 438.671 880.897C435.731 884.611 436.476 890.256 439.171 894.136C441.866 898.017 446.1 900.526 450.294 902.78C478.133 917.738 508.904 926.434 540.454 928.26C545.041 928.515 549.764 928.613 554.096 927.074C576.43 919.166 585.76 875.134 594.021 855.818C605.99 827.928 617.953 800.033 629.909 772.136C636.641 756.456 643.442 740.6 653.272 726.615C661.572 714.796 671.892 704.536 681.398 693.658C701.537 670.647 718.177 644.864 733.573 618.511C740.668 606.359 746.754 593.825 753.036 581.438C759.024 569.629 768.324 561.946 776.869 551.705C787.346 539.151 797.302 523.589 794.01 507.605" fill="var(--color-illustration-base, #FFFFFF)"/>
<path d="M730.153 406.9C667.972 467.66 619.188 540.935 582.693 619.687C557.82 673.46 539.279 729.379 522.677 786.16C516.935 805.76 510.917 822.185 501.813 840.491C496.835 850.497 490.641 859.67 480.096 864.344C470.483 868.607 459.614 869.244 449.481 871.655C439.73 873.988 430.381 879.77 433.684 891.255C436.624 901.663 448.893 906.582 457.723 910.855C480.485 921.743 504.937 928.67 530.027 931.337C540.278 932.435 551.587 933.954 560.76 928.231C567.15 924.252 571.932 918.088 575.764 911.718C584.692 896.871 589.337 879.917 595.207 863.698C599 853.241 603.782 843.118 608.173 832.886L624.98 793.686C635.113 770.137 644.06 745 659.848 724.42C667.747 714.12 676.978 704.928 685.465 695.128C693.895 685.331 701.827 675.116 709.23 664.522C724.118 643.335 737.489 621.122 749.244 598.049C752.184 592.169 754.928 586.142 758.25 580.478C761.527 575.202 765.358 570.29 769.677 565.827C777.82 556.938 786.111 548.04 791.952 537.407C797.254 527.763 799.949 517.415 797.989 506.468C797.009 501.303 789.169 503.528 790.149 508.634C794.539 533.31 769.804 551.568 756.476 568.698C749.057 578.243 744.451 589.729 738.895 600.411C733.015 611.661 726.625 622.598 719.971 633.388C706.672 654.948 692.119 675.783 675.156 694.677C667.208 703.497 658.995 712.18 651.9 721.764C644.54 731.701 638.778 742.668 633.633 753.889C622.579 778.026 612.573 802.693 602.126 827.095C594.58 844.735 587.573 862.188 581.164 880.23C576.264 894.156 570.286 912.57 557.242 921.155C548.089 927.172 534.349 924.164 524.147 922.772C512.01 921.096 500.037 918.392 488.358 914.687C476.428 910.925 464.86 906.101 453.793 900.271C449.001 897.753 442.739 894.832 441.053 889.227C438.691 881.534 447.453 879.779 453.029 878.515C462.633 876.349 472.629 875.379 481.782 871.655C490.935 867.931 498.03 861.375 503.342 853.035C509.222 843.735 513.015 833.318 517.532 823.331C518.983 820.117 520.531 816.961 521.756 813.649C524.04 807.514 525.853 801.193 527.695 794.921C542.924 743.089 558.702 691.668 580.174 642.041C612.514 567.159 655.35 496.433 710.455 436.035C718.217 427.542 726.207 419.248 734.426 411.153C737.15 408.468 732.956 404.293 730.222 406.959L730.153 406.9Z" fill="var(--color-illustration-primary, #382C80)"/>
<path d="M729.643 400.735C629.82 498.677 567.845 625.998 528.204 758.788C522.265 778.702 519.306 807.876 503.018 820.685C499 823.85 495.443 829.054 497.334 833.827C498.205 835.669 499.485 837.288 501.078 838.56C520.002 855.74 545.364 863.668 570.207 869.46C592.453 874.644 605.075 873.321 614.013 852.065C623.921 828.545 634.103 805.025 644.138 781.563C650.998 765.55 657.858 749.41 667.884 735.151C676.331 723.097 686.798 712.611 696.48 701.546C716.962 678.085 733.877 651.802 749.518 624.93C756.73 612.533 762.914 599.754 769.294 587.122C775.38 575.087 784.837 567.257 793.529 556.81C804.172 544.011 814.305 528.135 810.944 511.809" fill="var(--color-illustration-secondary, #7F72FF)"/>
<path d="M569.413 872.322C578.949 874.537 589.748 876.82 599.225 873.175C609.025 869.392 614.003 860.199 617.904 851.036C624.803 834.873 631.764 818.749 638.787 802.664C645.265 787.709 651.361 772.509 658.701 757.937C666.149 743.129 675.626 730.261 686.719 717.992C697.499 706.036 708.181 694.07 717.805 681.114C737.483 654.654 754.212 626.029 769.029 596.57C772.949 588.73 776.958 581.468 782.749 574.824C788.326 568.434 794.313 562.436 799.547 555.753C809.709 542.778 817.902 527.656 814.844 510.673C813.913 505.508 806.073 507.733 807.004 512.839C809.719 528.205 799.988 542.64 790.638 553.881C781.887 564.396 771.685 573.481 765.394 585.868C751.164 613.818 736.307 641.12 718.354 666.934C709.538 679.673 699.956 691.864 689.659 703.439C679.673 714.63 669.363 725.587 661.337 738.327C653.429 750.871 647.549 764.542 641.737 778.154C635.282 793.403 628.808 808.645 622.314 823.881C618.838 832.087 615.388 840.299 611.965 848.518C609.632 854.104 607.065 859.886 602.459 863.982C593.854 871.597 581.036 868.814 570.922 866.55C567.208 865.717 565.611 871.45 569.345 872.283L569.413 872.322Z" fill="var(--color-illustration-primary, #382C80)"/>
<path d="M793.637 524.756C788.845 523.501 783.455 521.208 778.477 520.992C775.301 520.845 773.733 522.521 772.165 525.059C766.648 534.017 757.769 539.015 750.4 546.198C744.676 551.774 739.776 559.193 740.815 567.523C741.658 574.255 745.921 580.361 752.82 581.703C755.76 582.282 757.034 577.783 754.065 577.186C747.283 575.843 744.108 568.307 745.509 561.927C747.058 554.881 752.84 549.51 758.171 545.081C763.159 540.916 768.49 537.074 772.557 531.949C774.831 529.077 775.782 525.638 779.966 525.177C781.515 525.001 783.886 526.088 785.425 526.461L792.696 528.186C794.911 528.705 795.852 525.344 793.676 524.765L793.637 524.756Z" fill="var(--color-illustration-primary, #382C80)"/>
<path d="M677.262 508.947C672.853 517.03 671.646 526.476 673.881 535.407C675.126 540.415 677.458 545.109 677.743 550.333C678.056 555.987 676.4 561.417 673.891 566.424C669.491 575.244 663.258 583.222 657.966 591.503C651.655 601.381 645.487 611.348 639.464 621.402C615.788 660.921 594.36 701.744 575.284 743.677C564.749 766.854 554.557 790.354 546.031 814.355C545.051 817.04 549.196 818.039 550.225 815.511C567.62 773.018 585.505 730.976 606.585 690.159C617.084 669.841 628.145 649.832 639.768 630.134C650.989 611.112 663.493 592.894 674.969 574.068C680.006 565.797 683.711 556.428 681.908 546.628C680.928 541.317 678.164 536.534 677.223 531.213C676.085 524.246 677.169 517.097 680.32 510.78C681.3 508.722 678.36 506.919 677.223 508.967L677.262 508.947Z" fill="var(--color-illustration-primary, #382C80)"/>
<path d="M526.675 812.463L520.991 807.848C520.294 807.194 519.209 807.194 518.512 807.848C517.827 808.536 517.827 809.648 518.512 810.337L524.206 814.933C524.898 815.59 525.983 815.59 526.675 814.933C527.003 814.606 527.188 814.161 527.188 813.698C527.188 813.235 527.003 812.791 526.675 812.463Z" fill="var(--color-illustration-primary, #382C80)"/>
<path d="M866.912 816.649C864.501 820.422 862.071 824.185 859.729 827.997C857.386 831.809 863.355 835.278 865.716 831.505C868.078 827.732 870.381 823.861 872.684 820.02C874.987 816.178 869.225 813.042 866.912 816.649Z" fill="var(--color-illustration-primary, #382C80)"/>
<path d="M844.127 809.504C795.062 787.612 755.944 748.18 734.445 698.941C733.524 696.834 729.79 698.372 730.692 700.528C751.635 750.577 792.922 791.453 842.961 812.248C844.529 812.905 845.695 810.171 844.127 809.475V809.504Z" fill="var(--color-illustration-primary, #382C80)"/>
<path d="M793.333 863.855C797.743 861.682 801.542 858.446 804.388 854.437C805.858 852.359 802.428 850.429 800.987 852.477C798.514 855.936 795.256 858.761 791.481 860.719C789.384 861.797 791.236 864.933 793.333 863.874V863.855Z" fill="var(--color-illustration-primary, #382C80)"/>
<path d="M439.24 894.127C436.545 890.207 435.8 884.601 438.74 880.887C440.342 879.077 442.394 877.725 444.689 876.967C447.078 876.097 449.528 875.406 452.019 874.899C469.071 871.087 484.898 870.979 496.678 856.044C497.658 854.78 498.638 853.447 499.51 852.075C503.675 854.672 506.145 859.572 507.556 864.374C509.153 869.774 509.859 875.507 512.524 880.466C523.785 901.428 553.126 895.94 572.118 900.634C573.119 900.803 574.068 901.198 574.892 901.791C576.705 903.339 576.342 906.181 575.872 908.513C575.068 912.081 574.268 915.648 573.471 919.215C572.765 922.331 571.854 925.752 569.178 927.486C567.765 928.266 566.214 928.766 564.611 928.956C547.04 932.171 525.833 927.633 508.33 923.939C488.074 919.694 468.53 912.569 450.294 902.78C446.1 900.526 441.896 898.018 439.24 894.127Z" fill="var(--color-illustration-primary, #382C80)"/>
<path d="M442.748 892.059C440.406 888.266 440.024 884.307 444.081 881.74C447.021 879.868 451.176 879.27 454.518 878.555C460.584 877.261 466.739 876.379 472.756 874.899C485.633 871.744 495.561 865.197 503.018 854.162L497.393 855.642C504.89 860.924 504.449 872.302 507.771 880.054C510.282 885.883 514.493 890.819 519.855 894.215C530.713 901.173 544.482 901.545 556.928 902.623C559.868 902.868 562.808 903.123 565.66 903.603C567.101 903.829 568.522 904.103 569.952 904.407C572.638 904.956 572.167 905.71 571.609 908.327C570.746 912.414 570.139 916.912 568.669 920.842C566.826 925.947 560.397 925.604 555.684 925.849C537.603 926.761 518.963 922.566 501.519 918.215C491.216 915.649 481.118 912.324 471.306 908.268C466.19 906.151 461.163 903.809 456.233 901.281C451.49 898.85 446.022 896.381 442.699 892.069C439.524 887.923 432.38 892.01 435.594 896.214C441.788 904.299 451.784 908.494 460.839 912.619C470.545 917.063 480.557 920.806 490.798 923.821C510.574 929.622 532.507 934.601 553.214 934.16C561.887 933.974 572.628 933.758 576.146 924.36C577.783 919.969 578.498 915.089 579.488 910.522C580.282 906.867 580.909 902.947 578.439 899.742C574.48 894.646 563.435 894.94 557.526 894.45C549.862 893.774 542.111 893.402 534.623 891.51C526.499 889.433 519.188 885.258 515.543 877.379C510.78 867.108 511.691 855.74 501.539 848.537C499.647 847.204 497.07 848.302 495.913 850.017C491.18 857.024 485.133 862.208 477.117 865.06C470.512 867.412 463.524 868.441 456.674 869.754C450.089 871.028 441.837 872.067 436.761 876.938C431.322 882.141 431.949 890.217 435.643 896.204C438.417 900.703 445.532 896.577 442.748 892.059Z" fill="var(--color-illustration-primary, #382C80)"/>
<path d="M860.424 865.226C861.754 862.731 863.295 860.354 865.03 858.121C870.362 851.33 878.27 846.067 886.894 845.911C892.706 845.813 898.654 847.978 904.221 846.224C911.502 843.911 915.079 835.924 917.803 828.79C922.468 816.546 927.136 804.31 931.808 792.079C940.961 797.479 950.085 802.938 959.091 808.573C961.58 810.131 964.187 811.865 965.118 814.521C965.843 816.609 965.402 818.961 964.912 821.195C956.7 858.435 933.366 892.882 906.906 922.684C902.721 927.398 898.282 932.219 892.431 935.012C886.987 937.627 880.779 938.18 874.958 936.57C873.589 936.271 872.346 935.556 871.4 934.522C870.81 933.625 870.472 932.586 870.42 931.514C869.333 922.694 873.36 913.825 876.634 905.152C879.907 896.479 882.249 886.757 878.015 879.044C874.87 873.38 868.059 868.96 860.424 865.226H860.424Z" fill="var(--color-illustration-primary, #382C80)"/>
<path d="M863.972 867.304C868.637 858.974 875.938 850.732 886.139 850.066C895.557 849.449 904.201 853.329 912.178 846.215C918.352 840.697 920.91 832.122 923.771 824.655L935.767 793.187L929.73 795.647C938.344 800.733 946.939 805.848 955.425 811.15C957.033 812.13 959.257 813.169 960.325 814.708C961.893 816.883 961.08 819.304 960.531 821.724C959.551 826.252 958.209 830.721 956.748 835.121C951.123 852.055 942.627 867.922 932.787 882.749C923.066 897.449 912.06 911.963 899.634 924.468C896.73 927.638 893.195 930.165 889.256 931.886C885.483 933.376 875.722 935.532 874.301 929.926C873.38 926.241 875.193 921.292 876.261 917.794C877.741 913.119 879.72 908.621 881.308 903.986C884.091 895.891 885.894 886.502 882.121 878.408C878.348 870.313 870.028 865.54 862.414 861.748C857.69 859.386 853.525 866.481 858.258 868.843C866.931 873.174 876.33 878.496 876.055 889.423C875.8 899.772 869.871 909.023 867.372 918.891C865.344 926.839 864.178 937.629 873.772 940.569C882.709 943.313 892.539 940.706 899.84 935.208C907.533 929.426 913.677 921.292 919.753 913.903C926.153 906.122 932.268 898.086 937.942 889.756C949.153 873.302 958.708 855.525 964.892 836.552C967.646 828.104 973.203 815.521 965.51 808.269C961.335 804.349 955.563 801.625 950.702 798.675C945.083 795.264 939.445 791.893 933.787 788.561C931.327 787.111 928.681 788.561 927.75 791.021L916.5 820.705C913.746 827.918 910.865 840.599 901.976 842.5C897.017 843.559 891.882 841.677 886.884 841.805C882.886 841.929 878.956 842.876 875.34 844.588C867.118 848.39 861.208 855.368 856.867 863.149C854.289 867.775 861.385 871.92 863.972 867.304Z" fill="var(--color-illustration-primary, #382C80)"/>
<path d="M484.967 858.307C484.671 862.4 485.702 866.479 487.907 869.94C489.171 871.9 492.405 870.047 491.082 868.087C489.105 865.207 488.077 861.781 488.142 858.287C488.142 856.239 485.144 856.327 484.997 858.287L484.967 858.307Z" fill="var(--color-illustration-base, #FFFFFF)"/>
<path d="M475.843 861.973C474.54 866.451 474.393 871.42 476.333 875.693C477.146 877.486 480.028 876.202 479.489 874.36C478.342 870.44 477.744 866.834 478.891 862.776C479.124 861.935 478.63 861.064 477.788 860.831C476.947 860.598 476.076 861.092 475.843 861.934V861.973Z" fill="var(--color-illustration-base, #FFFFFF)"/>
<path d="M466.083 864.971C463.929 869.364 463.779 874.473 465.671 878.985C466.435 880.798 469.591 879.505 468.866 877.643C467.327 873.945 467.25 869.801 468.65 866.049C469.219 864.579 466.749 863.521 466.083 864.971Z" fill="var(--color-illustration-base, #FFFFFF)"/>
<path d="M881.309 871.155C876.227 872.325 871.787 875.397 868.902 879.74C867.598 881.7 870.774 883.542 872.038 881.573C874.358 877.926 877.965 875.285 882.142 874.174C884.102 873.644 883.269 870.704 881.309 871.155Z" fill="var(--color-illustration-base, #FFFFFF)"/>
<path d="M884.895 884.836C880.159 882.924 874.745 883.913 870.989 887.374C869.225 888.962 871.852 891.598 873.586 889.971C876.381 887.322 880.468 886.555 884.033 888.011C885.993 888.766 886.797 885.649 884.895 884.865V884.836Z" fill="var(--color-illustration-base, #FFFFFF)"/>
<path d="M880.24 897.419C877.849 895.722 874.742 895.406 872.057 896.586C870.411 897.331 871.636 899.693 873.223 899.36C875.061 898.885 877.013 899.175 878.633 900.163C880.377 901.271 881.926 898.556 880.24 897.419Z" fill="var(--color-illustration-base, #FFFFFF)"/>
<path d="M481.654 849.762C482.634 846.509 482.889 839.394 478.871 837.777C474.236 835.905 472.07 844.235 471.413 847.136H475.333C473.795 842.128 467.836 839.757 463.573 843.294C461.681 844.917 460.741 847.389 461.078 849.858C461.415 852.328 462.982 854.458 465.239 855.515C467.572 856.681 469.64 853.212 467.297 851.987C461.506 848.969 469.257 842.187 471.394 848.204C472.148 850.292 475.314 850.056 475.363 847.675C475.371 846.408 475.607 845.154 476.059 843.971L476.754 842.442C477.205 840.923 477.607 840.629 477.95 841.55C479.753 842.53 479.077 847.626 478.724 848.959C478.581 849.484 478.728 850.046 479.111 850.433C479.494 850.82 480.055 850.973 480.581 850.835C481.108 850.696 481.521 850.288 481.664 849.762H481.654Z" fill="var(--color-illustration-primary, #382C80)"/>
<path d="M425.324 390.427C414.544 400.54 397.629 403.735 382.204 404.147C347.649 405.058 313.036 404.941 278.471 404.147C230.451 403.098 182.431 400.57 134.46 398.042C131.671 398.048 128.899 397.594 126.257 396.699C117.036 392.975 115.477 380.784 115.536 370.847C115.644 303.423 120.083 236.048 126.885 168.967C127.473 163.194 128.119 157.265 130.805 152.101C139.625 134.882 168.221 141.066 183.725 141.066H377.412C406.194 141.066 432.292 138.773 433.409 175.974C434.454 212.292 435.14 248.621 435.467 284.959C435.751 312.34 440.7 344.406 435.516 371.444C434.262 378.708 430.686 385.369 425.324 390.427Z" fill="var(--color-illustration-primary, #382C80)"/>
<path d="M422.413 387.526C410.252 398.502 392.955 399.786 377.333 400.148C357.439 400.619 337.539 400.779 317.632 400.629C278.285 400.374 238.957 399.08 199.659 397.257C179.876 396.336 160.097 395.34 140.32 394.268C132.02 393.827 124.435 394.053 121.416 385.037C119.084 378.059 119.652 370.337 119.701 363.095C119.956 323.552 121.661 284.018 124.464 244.573C125.836 225.169 127.45 205.785 129.305 186.42C130.207 176.953 130.03 166.291 133.117 157.226C135.156 151.277 139.223 147.612 145.211 145.829C156.373 142.516 168.515 144.623 179.922 145.113C197.846 145.887 215.937 145.211 233.881 145.211H352.167C367.092 145.211 382.126 144.662 397.041 145.378C406.332 145.819 417.219 147.142 423.364 155.001C427.01 159.656 428.46 165.781 429.019 171.554C429.891 180.746 429.675 190.174 429.901 199.356C430.358 218.812 430.724 238.272 430.998 257.735C431.263 276.286 431.508 294.759 432.605 313.281C433.674 331.117 434.938 349.375 432.106 367.113C430.841 375.031 428.186 381.813 422.394 387.526C418.601 391.23 424.422 397.042 428.205 393.337C440.788 381.038 441.68 362.673 441.925 346.043C442.219 327.04 440.112 308.117 439.622 289.124C439.093 268.289 439.103 247.435 438.701 226.6C438.492 215.899 438.253 205.194 437.986 194.486C437.75 185.185 438.103 175.621 436.565 166.409C434.712 155.305 428.725 145.731 418.199 141.193C407.674 136.656 395.659 136.93 384.507 136.96C343.651 137.077 302.795 136.96 261.929 136.96H199.14C191.153 136.96 183.166 137.097 175.189 136.587C168.78 136.025 162.344 135.816 155.912 135.96C143.878 136.489 131.412 140.096 126.287 152.091C122.533 160.862 122.543 171.22 121.632 180.579C120.593 191.235 119.613 201.891 118.692 212.547C115.105 254.863 112.635 297.278 111.753 339.731C111.538 350.1 111.342 360.478 111.41 370.846C111.41 377.706 111.979 384.802 114.987 391.034C118.172 397.62 123.905 401.158 131.099 401.912C141.212 402.99 151.522 403.049 161.675 403.578C204.167 405.764 246.67 407.714 289.222 408.478C310.416 408.857 331.62 408.952 352.833 408.763C371.238 408.576 390.946 409.88 408.693 404.225C415.886 402.029 422.521 398.309 428.146 393.318C432.164 389.78 426.333 383.988 422.413 387.526Z" fill="var(--color-illustration-primary, #382C80)"/>
<path d="M284.204 390.426C275.649 400.54 262.184 403.734 249.904 404.146C222.464 405.057 194.906 404.94 167.427 404.146C129.207 403.097 91.0755 400.569 52.9241 398.041C50.6799 398.041 48.4591 397.584 46.3973 396.698C39.0669 392.974 37.8615 380.783 37.8811 370.846C37.9595 303.422 41.4875 236.047 46.8971 168.966C47.3675 163.193 47.8771 157.264 49.9841 152.1C57.0401 134.911 79.7761 141.094 92.1241 141.094H246.111C268.994 141.094 289.78 138.801 290.633 176.002C291.469 212.334 292.005 248.662 292.24 284.988C292.465 312.369 296.405 344.435 292.24 371.473C291.074 379.558 288.173 385.742 284.204 390.426Z" fill="var(--color-illustration-secondary, #7F72FF)"/>
<path d="M281.294 387.526C271.18 398.923 256.539 399.884 242.28 400.266C225.022 400.717 207.754 400.776 190.487 400.55C155.609 400.041 120.74 398.306 85.9501 396.121C77.2216 395.572 68.4931 395.003 59.7645 394.415C56.1679 394.18 50.6897 394.739 47.5635 392.622C45.1527 391.005 44.0943 387.722 43.3985 385.047C41.6247 378.255 42.0265 371.033 42.0559 364.075C42.0951 355.32 42.1931 346.572 42.3499 337.83C42.9575 302.844 44.4177 267.868 46.5247 232.97C47.5831 215.526 48.7885 198.085 50.1409 180.648C51.1209 168.496 49.3177 148.906 64.2823 145.084C73.6315 142.693 83.6079 145.192 93.0943 145.25C110.617 145.348 128.149 145.25 145.671 145.25C179.971 145.25 214.33 145.388 248.66 145.25C256.715 145.25 265.643 144.545 273.277 147.632C282.097 151.179 285.096 160.372 286.086 169.084C287.958 185.744 287.066 203.08 287.37 219.838C287.657 237.354 287.882 254.87 288.046 272.386C288.203 288.419 288.8 304.393 289.496 320.406C290.172 336.037 290.692 351.854 288.751 367.446C287.85 374.727 285.998 381.773 281.294 387.585C277.991 391.662 283.773 397.512 287.105 393.396C296.905 381.283 297.748 365.456 298.179 350.462C298.679 333.136 297.395 315.819 296.729 298.522C295.288 261.282 295.749 224.042 294.984 186.802C294.71 174.131 295.464 159.451 287.526 148.68C282.244 141.507 274.13 138.567 265.565 137.587C253.089 136.146 240.085 137.087 227.58 137.087H112.567C104.57 137.087 96.4949 137.43 88.5177 136.95C83.1571 136.626 77.8161 135.97 72.4261 135.97C61.6461 136.097 51.0817 139.576 46.4855 150.111C43.1339 157.804 43.0261 166.624 42.3695 174.866C41.6378 184.228 40.9387 193.587 40.2723 202.943C37.6067 240.693 35.6271 278.521 34.5981 316.437C34.0885 335.243 33.5005 354.128 33.8337 372.934C34.0591 385.301 36.5091 400.57 51.3071 402.059C70.1917 403.961 89.3213 404.598 108.265 405.676C127.022 406.754 145.789 407.636 164.566 408.204C183.343 408.772 202.306 409.008 221.19 408.841C237.105 408.704 255.03 410.311 270.239 404.637C276.708 402.32 282.502 398.438 287.105 393.337C290.613 389.388 284.812 383.557 281.294 387.526Z" fill="var(--color-illustration-primary, #382C80)"/>
<path d="M421.894 741.531C411.114 751.635 394.209 754.84 378.823 755.251C344.259 756.153 309.655 756.035 275.09 755.251C227.07 754.203 179.05 751.674 131.079 749.146C128.286 749.156 125.511 748.702 122.867 747.803C113.655 744.089 112.087 731.888 112.155 721.951C112.263 654.527 116.693 587.162 123.494 520.071C124.082 514.289 124.729 508.36 127.414 503.195C136.234 485.977 164.821 492.17 180.334 492.17H373.982C402.765 492.17 428.862 489.877 429.979 527.068C431.025 563.4 431.711 599.728 432.037 636.054C432.321 663.445 437.28 695.51 432.096 722.549C430.83 729.81 427.252 736.468 421.894 741.531Z" fill="var(--color-illustration-primary, #382C80)"/>
<path d="M418.983 738.621C406.821 749.607 389.524 750.881 373.903 751.253C353.996 751.717 334.096 751.874 314.202 751.724C274.855 751.479 235.527 750.175 196.219 748.352C176.436 747.444 156.657 746.464 136.88 745.412C128.59 744.981 121.004 745.207 117.986 736.191C115.644 729.213 116.212 721.491 116.261 714.248C116.516 674.696 118.221 635.172 121.024 595.727C122.396 576.323 124.01 556.939 125.865 537.574C126.767 528.097 126.6 517.435 129.687 508.38C131.716 502.421 135.793 498.756 141.771 496.982C152.933 493.66 165.085 495.767 176.482 496.257C194.416 497.031 212.507 496.355 230.451 496.355H348.756C363.682 496.355 378.725 495.806 393.631 496.522C402.921 496.973 413.819 498.286 419.963 506.155C423.599 510.81 425.059 516.935 425.608 522.707C426.48 531.89 426.265 541.327 426.49 550.5C426.96 569.963 427.33 589.426 427.597 608.889C427.862 627.43 428.107 645.903 429.205 664.425C430.263 682.261 431.527 700.519 428.705 718.266C427.441 726.185 424.785 732.966 418.983 738.67C415.2 742.374 421.012 748.186 424.804 744.481C437.388 732.182 438.27 713.817 438.524 697.196C438.818 678.184 436.702 659.261 436.221 640.278C435.692 619.443 435.692 598.589 435.29 577.744C435.081 567.043 434.846 556.341 434.585 545.639C434.35 536.329 434.702 526.765 433.154 517.562C431.302 506.449 425.314 496.875 414.799 492.347C404.283 487.819 392.259 488.074 381.096 488.113C340.24 488.231 299.384 488.113 258.528 488.113H195.749C187.762 488.113 179.775 488.26 171.798 487.751C165.388 487.191 158.954 486.978 152.521 487.114C140.477 487.643 128.021 491.249 122.886 503.245C119.142 512.065 119.142 522.374 118.231 531.743C117.205 542.386 116.225 553.038 115.291 563.701C111.714 606.017 109.235 648.432 108.362 690.885C108.147 701.254 107.951 711.632 108.01 722C108.01 728.86 108.578 735.955 111.587 742.188C114.772 748.774 120.505 752.312 127.698 753.076C137.811 754.144 148.121 754.213 158.284 754.732C200.767 756.927 243.279 758.868 285.821 759.632C307.028 760.005 328.232 760.099 349.433 759.916C367.837 759.72 387.545 761.034 405.293 755.369C412.486 753.175 419.121 749.454 424.746 744.462C428.734 740.885 422.903 735.083 418.983 738.621Z" fill="var(--color-illustration-primary, #382C80)"/>
<path d="M280.774 741.531C272.228 751.635 258.763 754.839 246.474 755.251C219.034 756.152 191.486 756.035 164.007 755.251C125.787 754.202 87.6454 751.674 49.494 749.145C47.2525 749.151 45.034 748.694 42.977 747.803C35.6956 744.108 34.5 731.907 34.5 721.97C34.5882 654.546 38.1064 587.181 43.5258 520.09C43.9864 514.308 44.5058 508.379 46.6128 503.214C53.6394 486.006 76.3558 492.16 88.694 492.16H242.681C265.564 492.16 286.35 489.867 287.203 527.058C288.033 563.39 288.578 599.718 288.839 636.044C289.065 663.435 293.004 695.5 288.839 722.538C287.654 730.653 284.743 736.837 280.774 741.531Z" fill="var(--color-illustration-secondary, #7F72FF)"/>
<path d="M277.863 738.621C267.759 750.018 253.108 750.978 238.859 751.361C221.601 751.811 204.324 751.87 187.066 751.635C152.178 751.165 117.339 749.401 82.5297 747.205C73.7946 746.657 65.0628 746.091 56.3343 745.51C52.7377 745.275 47.2693 745.824 44.1333 743.717C41.7323 742.09 40.6641 738.817 39.9683 736.141C38.2043 729.35 38.5963 722.117 38.6355 715.169C38.6747 706.421 38.7694 697.67 38.9197 688.915C39.5273 653.929 40.9973 618.963 43.1043 584.055C44.1562 566.605 45.3616 549.164 46.7205 531.733C47.7005 519.571 45.8973 499.981 60.8521 496.159C70.2111 493.768 80.1875 496.276 89.6641 496.325C107.196 496.423 124.719 496.325 142.241 496.325C176.541 496.325 210.91 496.463 245.229 496.325C253.285 496.325 262.213 495.62 269.857 498.707C278.628 502.254 281.617 511.447 282.655 520.169C284.537 536.829 283.635 554.155 283.949 570.913C284.23 588.423 284.452 605.938 284.615 623.461C284.772 639.503 285.37 655.468 286.066 671.481C286.752 687.112 287.261 702.929 285.331 718.521C284.419 725.802 282.577 732.858 277.863 738.66C274.561 742.737 280.343 748.587 283.684 744.471C293.484 732.368 294.327 716.541 294.758 701.547C295.258 684.211 293.965 666.894 293.298 649.607C291.858 612.367 292.318 575.127 291.554 537.887C291.289 525.226 292.034 510.545 284.096 499.765C278.814 492.601 270.709 489.661 262.144 488.672C249.659 487.241 236.664 488.172 224.149 488.172H109.137C101.15 488.172 93.0745 488.525 85.0875 488.044C79.7269 487.721 74.3859 487.064 69.0057 487.064C58.2257 487.192 47.6613 490.681 43.0651 501.216C39.7037 508.82 39.5959 517.64 38.9491 525.902C38.2043 535.264 37.5052 544.626 36.8519 553.989C34.1863 591.787 32.2067 629.645 31.1777 667.531C30.6681 686.338 30.0703 705.222 30.4035 724.038C30.6289 736.396 33.0887 751.664 47.8867 753.154C66.7713 755.055 85.8911 755.692 104.844 756.78C123.592 757.848 142.359 758.74 161.135 759.299C179.912 759.857 198.885 760.102 217.76 759.945C233.685 759.808 251.609 761.406 266.809 755.731C273.283 753.42 279.081 749.537 283.684 744.432C287.183 740.492 281.391 734.652 277.863 738.621Z" fill="var(--color-illustration-primary, #382C80)"/>
<path d="M860.16 879.937C857.337 878.574 853.545 878.957 851.859 881.897C851.086 883.351 851.016 885.079 851.667 886.592C852.319 888.105 853.623 889.24 855.211 889.678L854.299 886.209C851.163 888.708 847.978 892.402 849.978 896.646C851.879 900.693 856.71 900.095 859.778 897.822C861.924 896.214 859.915 892.539 857.622 894.137C856.005 895.254 852.653 895.656 853.956 892.637C854.593 891.167 856.044 890.119 857.249 889.139C857.766 888.615 857.966 887.857 857.777 887.146C857.588 886.435 857.037 885.877 856.328 885.679C854.603 885.287 854.446 883.22 855.907 882.269C856.947 881.784 858.154 881.813 859.17 882.347C860.542 882.896 861.522 880.583 860.15 879.937H860.16Z" fill="var(--color-illustration-primary, #382C80)"/>
<path d="M769.206 245.681C783.69 248.062 794.274 260.498 801.859 273.062C816.883 297.934 816.05 323.042 813.747 351.119C812.917 361.272 812.087 371.421 811.258 381.567C810.63 389.133 810.023 396.836 811.699 404.235C814.149 415.093 823.537 423.384 825.017 434.223C828.623 460.732 762.032 463.133 746.274 462.78C724.214 462.29 700.596 458.301 684.838 442.866C679.938 438.084 675.9 432.018 675.302 425.226C674.744 418.758 677.341 412.486 679.712 406.44C692.654 373.329 700.051 338.311 701.605 302.795" fill="var(--color-illustration-base, #FFFFFF)"/>
<path d="M768.314 248.914C786.003 252.374 797.969 270.661 804.212 286.321C811.179 303.785 811.591 322.414 810.386 340.936C809.7 351.324 808.71 361.683 807.838 372.051C807.005 381.93 805.505 392.053 806.956 401.941C808.259 410.761 813.11 417.621 817.236 425.354C819.637 429.822 822.244 435.487 819.764 440.436C815.844 448.207 804.241 451.216 796.597 453.117C785.727 455.71 774.636 457.268 763.473 457.772C737.493 459.291 704.399 458.419 686.053 437.192C682.309 432.851 679.654 427.598 680.173 421.728C680.692 415.857 683.427 410.487 685.455 405.185C689.604 394.329 693.156 383.255 696.098 372.012C702.032 349.382 705.511 326.179 706.476 302.805C706.731 296.533 697.068 296.572 696.745 302.805C695.126 337.256 687.996 371.226 675.626 403.421C671.814 413.417 668.139 423.286 672.568 433.742C679.781 450.785 699.293 460.202 716.335 464.122C729.683 467.17 743.52 467.827 757.172 467.288C769.244 466.91 781.264 465.53 793.108 463.162C803.575 460.977 815.482 457.752 823.361 450.079C833.7 440.014 828.496 427.235 822.067 416.445C819.676 412.427 817.167 408.429 816.021 403.872C814.57 398.345 814.756 392.514 815.041 386.859C815.756 374.952 816.912 363.055 817.843 351.158C819.598 328.735 820.558 305.48 811.767 284.263C804.359 266.398 790.384 246.2 770.049 242.486C765.845 241.711 764.012 248.121 768.265 248.954L768.314 248.914Z" fill="var(--color-illustration-primary, #382C80)"/>
<path d="M733.534 259.371C713.669 269.866 697.578 286.232 681.025 301.119C643.442 334.919 606.683 369.336 566.64 400.295C565.131 401.461 563.484 402.666 561.583 402.745C559.682 402.823 558.016 401.765 556.458 400.785C503.998 366.926 469.375 314.78 427.48 269.7C417.543 259.028 407.341 248.444 395.453 239.996C393.376 238.526 391.122 237.056 388.593 236.84C384.811 236.497 381.41 238.879 377.813 240.182C371.345 242.544 360.81 235.439 354.293 233.763C343.518 231.077 332.486 229.549 321.385 229.206C314.525 228.951 307.44 228.706 300.805 230.696C294.17 232.685 287.977 237.34 286.007 243.955C284.037 250.57 287.722 258.89 294.474 260.341C287.114 260.709 281.087 266.318 280.192 273.633C279.297 280.947 283.794 287.845 290.848 289.976C283.831 291.407 277.442 296.748 275.923 303.745C274.404 310.742 278.745 318.847 285.723 320.464C278.422 325.668 271.415 333.615 272.826 342.475C275.433 358.87 301.795 365.064 312.026 376.696C326.569 393.219 339.466 410.349 355.607 425.618C392.719 460.692 436.878 489.318 486.084 502.95C530.625 515.278 591.973 517.777 632.809 491.974C674.597 465.572 719.51 419.101 733.406 370.865" fill="var(--color-illustration-base, #FFFFFF)"/>
<path d="M731.839 256.48C713.924 266.084 699.067 280 684.171 293.612C667.838 308.561 651.39 323.394 634.828 338.114C617.884 353.265 600.773 368.239 583.163 382.616C579.053 385.967 574.918 389.286 570.756 392.573C568.541 394.307 566.14 396.757 563.671 398.061C560.505 399.736 558.153 397.62 555.527 395.875C547.233 390.322 539.272 384.288 531.683 377.804C502.068 352.598 477.783 321.944 452.686 292.495C439.681 277.256 426.5 261.86 411.702 248.277C408.017 244.906 404.182 241.711 400.197 238.693C396.512 235.91 392.592 232.891 387.751 232.911C383.243 232.911 379.989 236.047 375.756 236.655C371.777 237.223 367.141 234.695 363.633 233.166C353.715 228.815 343.171 227.021 332.43 225.924C321.503 224.806 308.969 223.474 298.404 227.198C290.368 230.02 282.852 236.439 281.607 245.259C280.431 253.55 285.184 261.919 293.367 264.261L294.455 256.255C285.341 257.146 277.334 263.673 276.158 273.081C274.982 282.489 281.127 290.839 289.751 293.906V286.066C280.872 288.193 272.846 295.043 271.68 304.471C270.575 313.385 276.029 321.806 284.616 324.443L283.636 316.956C276.099 322.503 268.455 330.274 268.534 340.309C268.602 347.953 273.238 354.323 278.951 358.978C285.086 363.986 292.152 367.583 298.865 371.718C306.881 376.618 312.32 383.272 318.347 390.426C333.361 408.243 348.443 425.491 366.122 440.749C383.015 455.423 401.263 468.46 420.62 479.685C456.772 500.48 496.952 513.387 538.671 515.759C558.957 516.905 579.635 515.631 599.352 510.555C618.629 505.596 635.309 496.276 651.194 484.467C688.709 456.596 724.44 417.886 737.356 371.944C738.777 366.887 731.055 364.79 729.516 369.778C717.56 408.419 690.12 441.259 659.662 466.984C645.265 479.146 629.497 490.984 611.769 497.756C594.041 504.528 575.097 507.311 556.232 507.683C474.892 509.291 397.149 466.876 343.661 407.331C335.605 398.364 327.981 388.986 320.141 379.823C314.593 373.134 307.929 367.458 300.443 363.045C293.583 358.968 285.645 355.205 280.392 349.021C272.62 339.809 279.539 330.039 287.752 323.992C290.505 321.964 290.398 317.563 286.772 316.505C281.607 314.996 278.716 309.341 280 304.177C281.391 298.581 286.605 295.17 291.897 293.906C296.072 292.926 295.484 287.291 291.897 286.066C280.745 282.146 282.509 265.623 294.435 264.447C298.796 264.016 300.207 257.754 295.513 256.441C285.713 253.677 289.78 241.643 295.905 237.468C303.98 231.96 314.819 232.94 324.1 233.411C334.38 233.93 345.464 234.871 355.254 238.311C361.889 240.624 368.415 245.092 375.716 244.622C379.636 244.367 382.635 241.564 386.408 240.967C391.563 240.153 397.296 246.19 400.922 249.228C408.675 255.884 416.019 263.002 422.913 270.543C435.722 284.185 447.854 298.434 459.967 312.683C483.742 340.682 507.752 368.857 536.956 391.416C540.503 394.16 544.12 396.816 547.804 399.384C551.254 401.785 555.056 405.136 559.231 406.126C562.72 406.959 565.67 405.46 568.414 403.451C572.687 400.324 576.783 396.914 580.909 393.651C597.667 380.195 613.945 366.152 630.017 351.883C647.98 335.85 665.679 319.68 683.466 303.559C699.861 288.732 715.6 272.875 735.2 262.272C739.002 260.214 735.621 254.432 731.809 256.48H731.839Z" fill="var(--color-illustration-primary, #382C80)"/>
<path d="M740.972 158.607C731.094 155.118 718.236 160.851 717.325 171.533C716.198 184.743 713.326 197.738 715.512 211.066C715.865 213.845 716.707 216.539 718.001 219.024C722.45 226.864 732.622 228.873 741.521 230.088C741.785 230.088 740.119 245.768 739.933 247.209C739.188 252.795 738.493 252.589 742.658 257.067C747.91 262.712 759.092 265.437 765.354 262.32C771.783 259.135 772.861 252.873 773.292 246.229C774.694 224.512 773.341 202.285 770.774 180.716" fill="var(--color-illustration-base, #FFFFFF)"/>
<path d="M741.825 155.511C734.13 152.943 725.651 154.627 719.521 159.94C712.004 166.741 712.739 179.187 711.681 188.439C710.485 199.062 708.995 213.468 715.601 222.739C721.265 230.667 731.339 232.872 740.414 234.224L737.425 231.284C736.974 229.648 737.317 231.118 737.21 231.804C737.063 232.784 737.023 233.862 736.925 234.871C736.7 237.115 736.455 239.35 736.2 241.594C735.828 244.965 734.711 248.924 734.965 252.276C735.377 257.627 740.845 262.311 745.275 264.702C750.538 267.564 757.035 269.053 762.915 267.995C778.281 265.251 778.232 248.287 778.693 236.018C779.264 217.557 778.317 199.08 775.861 180.775C775.047 174.405 764.983 174.199 765.679 180.775C767.276 195.71 768.501 210.675 768.775 225.698C768.903 232.784 768.883 239.879 768.393 246.954C768.06 251.854 767.07 257.411 761.533 258.714C757.035 259.822 751.341 258.185 747.666 255.5C743.335 252.344 743.874 251.335 744.413 246.631C744.785 243.319 745.069 240.006 745.393 236.694C745.598 234.381 746.373 231.274 745.667 228.971C745.069 227.011 743.482 226.09 741.541 225.835C735.034 224.973 726.439 223.826 722.206 218.123C717.061 211.263 718.286 199.277 718.962 191.271C719.344 186.577 719.942 181.892 720.422 177.198C720.775 173.641 720.579 169.838 722.706 166.771C726.508 161.312 734.074 159.911 740.11 161.724C744.089 162.919 745.726 156.824 741.816 155.53L741.825 155.511Z" fill="var(--color-illustration-primary, #382C80)"/>
<path d="M785.111 211.714C784.359 213.52 783.501 215.28 782.544 216.986C775.282 229.952 761.366 226.649 761.768 210.381C761.964 202.59 762.914 194.211 758.828 187.557C758.468 186.867 757.943 186.278 757.299 185.842C755.27 184.617 752.624 186.391 751.644 188.547C750.664 190.703 750.664 193.182 749.763 195.407C750.174 189.252 749.243 182.402 744.647 178.286C739.659 173.807 733.23 172.916 726.811 172.406C722.529 172.073 711.729 173.386 711.788 166.722C711.94 164.866 712.598 163.086 713.689 161.577C720.739 150.31 732.965 143.323 746.252 142.968C759.538 142.614 772.119 148.938 779.761 159.813C783.847 165.624 786.307 172.445 787.983 179.354C790.416 190.177 789.412 201.489 785.111 211.714Z" fill="var(--color-illustration-primary, #382C80)"/>
<path d="M782.24 210.058C780.417 214.203 775.743 223.778 769.647 220.72C763.552 217.662 766.286 206.167 766.296 200.895C766.296 194.662 765.365 184.039 758.534 181.295C755.271 179.991 751.674 181.295 749.322 183.696C746.539 186.557 746.382 190.477 745.108 194.064L754.575 195.348C754.996 187.929 753.742 180.079 748.117 174.768C742.491 169.456 734.299 167.908 726.802 167.457C724.753 167.339 722.695 167.457 720.657 167.3C718.109 167.134 716.423 167.673 717.217 165.232C719.265 158.931 727.752 153.345 733.348 150.807C747.529 144.378 764.708 148.729 774.508 160.813C785.631 174.591 786.738 194.476 780.388 210.41C778.046 216.29 787.522 218.819 789.835 213.017C800.86 185.42 789.6 147.955 758.72 139.635C745.05 136.053 730.491 139.142 719.452 147.965C712.17 153.727 698.921 170.505 713.728 175.914C719.187 177.933 725.332 176.894 731.006 177.718C735.259 178.364 740.032 179.678 742.658 183.343C745.098 186.763 745.167 191.34 745.01 195.367C744.794 200.963 752.85 201.669 754.467 196.641C754.986 195.044 755.839 192.829 755.819 191.134C755.819 190.291 754.839 189.056 755.672 191.232C756.121 192.264 756.51 193.321 756.839 194.397C757.975 198.543 757.75 202.982 757.701 207.245C757.613 213.644 758.044 220.534 762.973 225.257C766.498 228.594 771.645 229.567 776.145 227.747C782.387 225.297 785.484 219.181 787.973 213.37C789.571 209.548 783.994 206.187 782.24 210.058Z" fill="var(--color-illustration-primary, #382C80)"/>
<path d="M771.283 273.1C776.364 271.226 781.109 268.546 785.337 265.162C790.923 260.694 790.237 250.776 787.679 244.729C787.109 243.157 786.123 241.768 784.827 240.711C782.553 239.065 779.466 239.29 776.713 239.8C764.198 242.113 752.516 248.845 739.806 248.973C736.699 248.973 733.583 248.63 730.496 248.973C727.409 249.316 724.194 250.492 722.421 253.04C719.755 256.842 721.568 261.928 719.392 265.995C718.161 268.099 716.68 270.047 714.982 271.797" fill="var(--color-illustration-base, #FFFFFF)"/>
<path d="M772.205 276.462C782.867 272.787 793.451 266.769 793.471 254.265C793.471 249.414 792.314 243.651 789.276 239.751C785.66 235.135 780.172 235.145 774.851 236.174C767.991 237.497 761.533 240.094 754.908 242.142C747.499 244.416 740.933 244.71 733.279 244.847C727.977 244.945 722.039 246.278 718.942 251.04C717.433 253.363 717.05 255.999 716.747 258.694C716.237 263.222 714.983 265.378 711.984 268.827C708.436 272.924 714.277 278.892 717.981 274.825C720.794 271.738 723.44 268.455 724.312 264.28C725.449 258.792 724.165 253.755 731.29 252.971C736.396 252.403 741.472 253.118 746.597 252.324C751.757 251.387 756.828 250.016 761.758 248.228C766.456 246.5 771.254 245.057 776.125 243.906C778.663 243.387 781.564 242.671 783.387 244.886C784.523 246.287 784.974 248.492 785.347 250.227C786.14 254.245 786.072 258.91 783.112 262.036C779.672 265.662 774.067 268.112 769.549 270.052C765.943 271.611 768.569 277.706 772.234 276.422L772.205 276.462Z" fill="var(--color-illustration-primary, #382C80)"/>
<path d="M821.068 450.549C828.633 463.955 836.513 478.048 840.668 492.934C844.588 506.977 845.744 521.677 846.107 536.211C846.881 567.522 840.854 599.411 827.389 627.782C821.666 639.865 814.237 650.528 806.603 661.425C800.155 670.637 793.314 681.633 794.137 693.363C794.931 704.682 803.271 713.022 811.581 719.823C820.676 727.262 830.633 733.543 840.325 740.1C846.616 744.382 852.781 748.841 859.121 753.055C865.462 757.269 871.949 760.836 878.202 764.943C883.915 768.686 883.749 773.253 881.789 779.241C879.829 785.229 876.967 790.922 874.987 796.881C873.439 801.565 880.475 803.261 882.23 798.841C885.836 789.864 893.451 779.162 891.324 769.01C890.246 763.894 886.708 760.307 882.504 757.524C876.781 753.741 870.744 750.38 865.031 746.587C854.094 739.365 843.363 731.828 832.455 724.557C822.979 718.236 811.777 711.346 805.407 701.605C798.028 690.335 805.28 677.487 811.787 667.697C819.363 656.29 827.261 645.49 833.171 633.054C846.285 605.082 853.067 574.562 853.035 543.668C853.035 527.508 851.928 510.897 848.008 495.178C843.794 478.253 834.945 462.407 826.321 447.374C824.361 443.944 819.078 447.021 821.029 450.47L821.068 450.549Z" fill="var(--color-illustration-primary, #382C80)"/>
<path d="M720.304 476.479C729.315 478.535 738.723 478.012 747.45 474.97C751.703 473.461 749.802 466.591 745.578 468.179C738.056 471.144 729.873 472.024 721.892 470.727C718.168 470.09 716.492 475.627 720.304 476.479Z" fill="var(--color-illustration-primary, #382C80)"/>
<path d="M720.941 187.811C722.411 188.791 721.372 191.82 720.843 192.917C720.314 194.015 719.863 194.877 719.324 195.857C718.266 197.817 717.197 199.856 716.1 201.825C715.696 202.54 715.693 203.414 716.094 204.131C716.494 204.847 717.239 205.303 718.06 205.334C720.353 205.53 722.636 205.932 724.92 206.02C727.507 206.118 727.86 202.404 725.518 201.649C723.088 200.951 720.568 200.621 718.04 200.669L720.049 204.168C722.097 199.532 729.722 188.782 722.421 185.185C721.7 184.843 720.836 185.109 720.433 185.798C720.03 186.487 720.221 187.37 720.872 187.831L720.941 187.811Z" fill="var(--color-illustration-primary, #382C80)"/>
<path d="M738.032 185.919C735.818 184.812 733.191 184.293 730.908 185.498C730.265 185.901 729.961 186.677 730.16 187.41C730.358 188.142 731.012 188.659 731.77 188.683C733.515 188.624 735.043 188.389 736.67 189.046C738.297 189.702 739.718 186.782 737.983 185.919H738.032Z" fill="var(--color-illustration-primary, #382C80)"/>
<path d="M735.2 191.418C734.514 191.047 733.698 191.004 732.976 191.3C732.203 191.616 731.622 192.276 731.408 193.084C731.065 194.338 731.408 196.259 732.643 196.925C733.604 197.454 734.798 197.291 735.583 196.523C736.011 196.088 736.309 195.541 736.445 194.946C736.686 194.193 736.614 193.375 736.245 192.677C735.877 191.978 735.242 191.457 734.485 191.231C733.394 190.952 732.263 191.514 731.826 192.552C731.389 193.59 731.778 194.792 732.741 195.377C732.427 195.093 732.339 195.014 732.456 195.142C732.574 195.269 732.456 195.142 732.241 194.848C732.309 194.985 732.3 194.946 732.241 194.74C732.137 194.558 732.089 194.35 732.104 194.142V194.24C732.104 194.475 732.104 194.377 732.104 193.956C731.751 194.779 733.564 192.907 733.24 192.976H734.397C734.956 193.124 735.4 193.55 735.573 194.103V193.975C735.573 193.887 735.573 193.799 735.494 193.701C735.416 193.603 735.494 193.525 735.494 193.701C735.539 193.838 735.539 193.985 735.494 194.122C735.347 194.426 735.318 194.495 735.387 194.358L735.465 194.211C735.234 194.623 734.801 194.881 734.328 194.887C735.176 194.905 735.93 194.348 736.161 193.531C736.391 192.715 736.041 191.846 735.308 191.418H735.2Z" fill="var(--color-illustration-primary, #382C80)"/>
<path d="M729.154 211.948C731.239 211.747 733.235 210.997 734.936 209.772C736.562 208.44 734.485 206.048 732.77 206.96C731.28 207.744 730.045 208.724 728.37 209.086C726.478 209.498 727.301 212.262 729.154 211.948Z" fill="var(--color-illustration-primary, #382C80)"/>
<path d="M749.832 226.168C745.304 227.226 741.335 226.168 736.945 225.11C734.367 224.453 733.358 227.677 735.249 229.128C739.875 232.656 746.353 232.068 751.331 229.716C753.389 228.736 751.899 225.678 749.832 226.168Z" fill="var(--color-illustration-primary, #382C80)"/>
<path d="M127.061 143.172C125.434 154.451 124.062 165.79 122.161 177.031C121.671 179.971 123.327 181.999 126.238 182.381C140.28 184.042 154.404 184.926 168.544 185.027C171.074 185.006 173.119 182.961 173.141 180.431C172.641 168.671 174.307 157.48 175.718 145.857C176.326 140.8 168.476 140.134 167.104 144.691C163.693 156.019 163.38 168.691 163.938 180.431L168.544 175.825C154.393 175.649 140.35 174.708 126.238 173.934L130.462 178.158C131.108 166.76 132.284 155.382 133.196 144.005C133.47 140.526 127.551 139.663 127.041 143.172H127.061Z" fill="var(--color-illustration-primary, #382C80)"/>
<path d="M54.5412 349.423C49.896 356.126 58.8826 360.83 64.5274 359.948C66.948 359.566 69.1334 358.527 71.4952 359.36C73.857 360.193 75.4152 361.898 77.679 362.77C81.8091 364.422 86.4163 364.422 90.5464 362.77C95.5052 360.81 93.4864 352.745 88.2924 354.627C82.2752 356.812 79.639 353.715 74.4058 351.794C72.5901 351.14 70.6401 350.948 68.7316 351.236C68.2612 351.295 59.8136 353.617 60.235 351.853C61.0876 348.315 56.5306 346.581 54.5412 349.452V349.423Z" fill="var(--color-illustration-primary, #382C80)"/>
<path d="M53.9237 377.745C57.6869 377.863 61.4403 377.99 65.1937 377.97C70.1623 377.97 70.1623 370.287 65.1937 370.268C61.4403 370.268 57.6869 370.375 53.9237 370.493C49.2589 370.63 49.2491 377.608 53.9237 377.745Z" fill="var(--color-illustration-primary, #382C80)"/>
<path d="M193.054 339.339C195.916 316.123 196.857 292.299 197.464 268.936C197.592 263.947 190.046 264.036 189.752 268.936C188.389 292.328 186.684 315.907 186.341 339.339C186.282 343.768 192.545 343.494 193.054 339.339Z" fill="var(--color-illustration-primary, #382C80)"/>
<path d="M180.658 284.743L185.558 279.167C186.724 277.844 189.478 273.63 191.153 273.591C192.829 273.551 195.073 276.727 196.22 277.854C198.131 279.686 200.032 281.538 201.953 283.361C205.873 287.066 211.753 281.127 207.833 277.481C204.815 274.669 201.806 271.846 198.729 269.092C196.583 267.132 194.162 264.82 191.006 265.016C187.851 265.212 185.979 267.583 184.146 269.916C181.383 273.287 178.613 276.651 175.836 280.01C173.102 283.322 177.698 288.104 180.628 284.802L180.658 284.743Z" fill="var(--color-illustration-primary, #382C80)"/>
<path d="M234.116 346.885C235.733 324.423 237.556 301.805 237.801 279.265C237.801 274.786 231.372 274.973 230.941 279.265C228.756 301.687 228.119 324.404 227.296 346.885C227.139 351.305 233.793 351.217 234.107 346.885H234.116Z" fill="var(--color-illustration-primary, #382C80)"/>
<path d="M222.846 292.064C225.522 288.193 230.353 281.048 235.204 279.696L231.186 278.638C234.966 281.885 237.895 286.006 239.722 290.643C241.77 295.856 250.277 293.632 248.238 288.291C246.002 282.191 242.118 276.83 237.017 272.807C234.94 271.17 232.049 271.16 230.539 273.64C228.795 276.511 225.336 278.804 223.15 281.372C221.113 283.774 219.249 286.319 217.574 288.986C215.447 292.338 220.632 295.258 222.846 292.064Z" fill="var(--color-illustration-primary, #382C80)"/>
<path d="M337.751 141.899C339.421 149.484 340.441 157.199 340.799 164.958C340.846 167.32 342.749 169.223 345.111 169.27C350.58 169.27 356.077 169.074 361.526 168.692C365.623 168.408 371.248 168.868 374.707 166.261C378.421 163.459 377.647 158.706 377.471 154.629C377.274 149.136 376.796 143.657 376.04 138.214C375.334 133.471 368.2 134.941 368.024 139.302C367.837 142.928 367.828 146.485 368.024 150.082C368.112 151.885 368.21 153.688 368.298 155.491L368.484 159.098C369.131 158.794 368.945 158.745 367.935 158.97C365.407 160.185 359.831 159.656 357.008 159.862C353.088 160.156 349.1 160.342 345.15 160.617L349.306 163.772C348.111 155.781 346.363 147.883 344.072 140.135C342.867 136.087 336.899 137.773 337.791 141.859L337.751 141.899Z" fill="var(--color-illustration-base, #FFFFFF)"/>
<path d="M601.558 375.599C608.898 392.522 618.395 408.425 629.811 422.914C635.515 430.094 641.686 436.89 648.284 443.258C654.585 449.315 661.289 455.097 669.658 457.958C674.44 459.615 677.87 451.755 673.147 449.687C657.937 443.013 645.854 428.637 635.446 416.073C624.275 402.69 614.622 388.11 606.663 372.6C604.919 369.161 600.048 372.179 601.558 375.54V375.599Z" fill="var(--color-illustration-primary, #382C80)"/>
<path d="M599.686 325.158C601.175 337.477 605.037 350.697 613.406 360.125C616.199 363.251 620.824 359.272 619.002 355.803C613.553 345.434 608.388 335.948 606.193 324.266C605.507 320.621 599.176 321.405 599.637 325.158H599.686Z" fill="var(--color-illustration-primary, #382C80)"/>
<path d="M723.362 146.024C727.36 137.204 729.604 127.248 737.64 120.946C741.19 118.303 745.247 116.421 749.557 115.419C756.476 113.645 764.1 113.508 770.774 115.909C778.359 118.633 784.082 124.376 788.022 130.678C794.882 141.644 794.265 160.127 780.603 167.418C775.909 169.917 770.294 170.671 764.825 171.122C741.462 173.082 720.422 168.947 697.989 164.507C689.65 162.851 680.849 160.587 675.361 154.805C673.401 152.777 671.961 150.189 672.353 147.573C672.872 144.123 676.371 141.693 679.781 139.87C689.858 134.676 701.039 131.987 712.376 132.03" fill="var(--color-illustration-base, #FFFFFF)"/>
<path d="M726.135 147.641C729.34 140.527 731.574 132.461 736.915 126.591C742.981 119.966 753.163 117.526 761.866 118.202C776.634 119.349 789.022 133.216 787.855 148.112C786.385 167.104 765.57 167.339 750.821 167.134C732.054 166.869 712.944 163.527 694.697 159.205C690.306 158.167 685.788 156.912 681.957 154.433C679.997 153.188 677.057 151.179 677.145 148.651C677.233 146.122 679.908 144.878 682.045 143.751C691.296 138.763 701.929 136.616 712.366 136.518C718.148 136.46 718.158 127.473 712.366 127.522C700.519 127.533 688.838 130.298 678.242 135.597C674.195 137.665 669.814 140.556 668.325 145.113C666.639 150.307 669.383 155.481 673.166 158.96C681.006 166.183 692.139 167.947 702.213 169.917C714.4 172.48 726.722 174.352 739.12 175.522C758.367 177.081 787.757 178.805 795.176 156.099C800.752 139.027 790.276 119.839 774.292 112.871C763.208 108.049 748.665 109.529 738.424 115.811C727.977 122.259 725.214 133.814 720.608 144.349C718.971 148.092 724.449 151.375 726.155 147.592L726.135 147.641Z" fill="var(--color-illustration-primary, #382C80)"/>
<path d="M721.108 150.826C724.842 153.982 729.673 156.932 734.534 157.804C738.16 158.451 740.972 153.384 737.219 151.434C733.299 149.366 728.987 147.798 724.959 145.838C721.931 144.358 718.168 148.347 721.108 150.826Z" fill="var(--color-illustration-primary, #382C80)"/>
<path d="M741.805 138.165C744.468 129.874 750.322 122.984 758.073 119.015C760.367 117.79 758.328 114.321 756.035 115.536C747.342 120.142 741.511 127.963 738.709 137.312C738.111 139.272 741.208 140.134 741.805 138.165Z" fill="var(--color-illustration-primary, #382C80)"/>
<path d="M763.62 119.29C767.609 121.063 768.667 126.796 769.5 130.726C770.267 135.078 770.527 139.505 770.274 143.917C770.186 146.583 774.057 146.455 774.341 143.917C775.223 135.891 774.165 119.574 764.884 116.399C763.208 115.83 762.013 118.555 763.659 119.339L763.62 119.29Z" fill="var(--color-illustration-primary, #382C80)"/>
<path d="M756.084 148.454C756.328 147.608 756.518 146.747 756.652 145.877C756.822 145.015 756.297 144.169 755.45 143.938C754.603 143.706 753.721 144.167 753.428 144.995C753.183 145.991 753.006 147.003 752.899 148.023C752.898 148.831 753.499 149.512 754.3 149.611C755.099 149.721 755.858 149.229 756.084 148.454Z" fill="var(--color-illustration-primary, #382C80)"/>
<path d="M761.434 126.835C761.639 123.648 762.629 120.561 764.316 117.849C765.423 115.957 762.689 114.507 761.444 116.173C759.215 119.279 758.031 123.013 758.063 126.835C758.063 129.021 761.336 129.001 761.434 126.835Z" fill="var(--color-illustration-primary, #382C80)"/>
<path d="M677.517 322.777C681.594 328.265 685.945 333.655 689.698 339.368C690.04 339.938 690.624 340.32 691.282 340.406C691.941 340.492 692.603 340.272 693.079 339.809C697.529 334.909 701.841 329.823 706.202 324.815C707.049 323.938 707.049 322.547 706.202 321.669L695.333 310.497C693.305 308.41 690.11 311.605 692.148 313.682L703.056 324.815V321.64C698.714 326.667 694.295 331.636 690.032 336.732H693.06C688.503 331.626 684.426 326.04 680.183 320.67C678.987 319.16 676.341 321.179 677.497 322.747L677.517 322.777Z" fill="var(--color-illustration-primary, #382C80)"/>
<path d="M38.91 452.402C82.5102 454.077 126.228 453.333 169.858 453.382C212.853 453.447 255.846 453.473 298.835 453.46H373.1C378.647 453.46 378.656 444.846 373.1 444.846C286.461 444.846 199.819 444.911 113.174 445.042C88.4196 445.042 63.655 445.042 38.91 445.953C34.8038 446.11 34.794 452.186 38.91 452.353V452.402Z" fill="var(--color-illustration-primary, #382C80)"/>
<path d="M308.596 453.077C310.762 458.957 306.401 464.484 303.197 469.129C300.208 473.461 297.669 477.861 297.444 483.222C297.238 488.22 304.951 489.249 306.146 484.408C309.008 472.844 321.464 463.21 314.584 450.558C312.85 447.364 307.293 449.578 308.596 453.077Z" fill="var(--color-illustration-primary, #382C80)"/>
<path d="M421.002 767.991C435.653 770.872 434.105 790.531 424.236 798.038C412.231 807.21 394.964 797.94 382.332 805.309C376.452 808.749 375.717 815.668 374.55 821.763C372.897 830.453 371.476 839.188 370.287 847.969C367.974 864.668 366.564 881.48 366.064 898.331C365.907 904.27 375.05 904.211 375.285 898.331C375.961 879.152 377.698 860.026 380.489 841.04C381.142 836.656 381.868 832.289 382.665 827.937C383.341 824.184 383.351 817.481 385.703 814.325C387.869 811.385 393.308 811.591 396.483 811.444C400.756 811.258 405.038 811.444 409.311 811.238C423.492 810.572 436.369 803.731 439.789 789.022C442.602 776.958 436.33 760.513 422.08 760.249C417.729 760.17 416.583 767.109 421.032 768.01L421.002 767.991Z" fill="var(--color-illustration-primary, #382C80)"/>
<path d="M291.72 815.011C308.959 816.226 326.177 816.657 343.455 816.206C351.755 815.991 360.036 815.54 368.317 814.913C376.804 814.266 385.957 814.041 394.179 811.914C398.687 810.758 397.727 803.849 393.092 803.839C384.889 803.839 376.49 805.475 368.317 806.24C359.726 807.03 351.118 807.684 342.494 808.2C325.609 809.18 308.635 809.484 291.72 809.18C287.928 809.121 288.006 814.766 291.72 815.06V815.011Z" fill="var(--color-illustration-primary, #382C80)"/>
<path d="M122.073 498.452C118.464 508.148 117.032 518.52 117.878 528.832C117.925 530.672 119.146 532.275 120.907 532.811C126.772 534.555 132.87 535.388 138.988 535.28C144.123 535.143 150.983 534.79 155.599 532.34C160.214 529.89 159.724 523.873 160.165 519.424C160.851 512.495 162.125 505.184 161.498 498.236C161.126 494.316 155.618 493.17 154.403 497.256C153.002 501.911 152.717 506.88 152.208 511.701C152.002 513.661 151.816 515.543 151.62 517.474C151.502 518.718 151.816 523.922 151.198 524.716C150.395 525.784 145.446 526.107 144.142 526.294C142.135 526.576 140.113 526.736 138.086 526.774C133.03 526.842 127.988 526.215 123.102 524.912L126.13 528.891C124.974 519.3 125.934 509.572 128.943 500.392C130.383 495.982 123.641 494.248 122.083 498.491L122.073 498.452Z" fill="var(--color-illustration-primary, #382C80)"/>
<path d="M76.0522 673.715C76.9439 655.177 78.8545 636.703 81.7754 618.375C82.3144 614.984 83.118 611.23 85.96 609.3C87.92 607.967 90.4484 607.83 92.82 607.81C105.462 607.702 118.045 609.457 130.687 609.653C156.442 610.054 182.951 604.057 207.529 611.75C208.876 612.061 210.111 612.74 211.096 613.71C212.233 615.023 212.37 616.895 212.449 618.61C213.386 641.094 211.924 663.614 208.088 685.789C182.037 683.151 155.812 682.712 129.688 684.476C110.823 685.75 90.8992 687.984 73.8276 679.811" fill="var(--color-illustration-base, #FFFFFF)"/>
<path d="M79.4427 673.715C80.5795 656.477 82.2455 639.278 84.9405 622.216C85.3619 619.57 85.4501 615.582 87.2337 613.396C89.6935 610.388 95.9655 611.662 99.4641 611.828C107.676 612.23 115.85 613.141 124.062 613.622C140.183 614.543 156.167 612.642 172.258 612.25C180.183 611.917 188.122 612.347 195.965 613.533C199.257 614.092 203.334 614.513 206.372 615.964C209.645 617.512 208.489 624.715 208.528 627.969C208.765 646.957 207.213 665.925 203.893 684.623L208.097 681.428C184.923 678.949 161.592 678.252 138.311 679.34C117.084 680.32 95.3383 683.907 74.9837 675.812C70.5835 674.058 67.6141 681.271 71.7693 683.447C91.4575 693.756 114.164 690.062 135.469 688.817C159.677 687.444 183.954 687.88 208.097 690.12C210.058 690.125 211.78 688.816 212.301 686.926C215.482 667.743 217.019 648.324 216.897 628.88C216.829 621.912 218.387 612.22 211.017 608.437C203.442 604.517 193.142 603.939 184.783 603.537C166.084 602.646 147.474 605.713 128.786 605.35C118.682 605.145 108.617 604.076 98.5037 603.929C91.4085 603.822 83.6077 603.479 79.9915 610.789C78.1393 614.523 77.8747 619.002 77.2867 623.059C76.5092 628.456 75.8167 633.862 75.2091 639.278C73.9155 650.724 73.0433 662.19 72.6611 673.705C72.5043 678.086 79.1487 678.017 79.4329 673.705L79.4427 673.715Z" fill="var(--color-illustration-primary, #382C80)"/>
<path d="M112.165 642.385C128.09 642.757 144.015 643.129 159.94 643.051C165.046 643.051 165.055 635.142 159.94 635.123C144.015 635.044 128.09 635.417 112.165 635.799C107.931 635.897 107.921 642.277 112.165 642.385Z" fill="var(--color-illustration-primary, #382C80)"/>
<path d="M113.664 659.377C120.122 660.642 126.914 660.112 133.323 658.838C137.596 657.986 135.704 651.773 131.549 652.4C125.826 653.262 120.25 653.154 114.497 653.203C111.057 653.203 110.077 658.682 113.664 659.377Z" fill="var(--color-illustration-primary, #382C80)"/>
<path d="M161.135 664.993C165.271 664.993 165.281 658.574 161.135 658.574C156.99 658.574 157 664.993 161.135 664.993Z" fill="var(--color-illustration-primary, #382C80)"/>
<path d="M398.619 62.0191C397.031 68.5851 395.375 75.1413 393.925 81.7367C393.405 84.1181 396.992 85.1373 397.6 82.7167C399.246 76.1703 400.697 69.5651 402.196 62.9795C402.735 60.6569 399.187 59.6671 398.619 61.9995V62.0191Z" fill="var(--color-illustration-primary, #382C80)"/>
<path d="M442.709 81.3736C438.299 87.2536 433.869 93.0944 429.42 98.896C427.95 100.856 431.253 102.816 432.693 100.856C437.044 94.976 441.409 89.096 445.786 83.216C447.158 81.3736 444.071 79.6096 442.709 81.4226V81.3736Z" fill="var(--color-illustration-primary, #382C80)"/>
<path d="M467.914 130.952L452.499 133.069C449.931 133.421 451.009 137.371 453.577 136.989L468.943 134.705C471.423 134.333 470.345 130.619 467.914 130.952Z" fill="var(--color-illustration-primary, #382C80)"/>
<path d="M502.401 554.675C518.294 564.924 538.533 565.613 555.086 556.468C557.575 555.096 555.341 551.264 552.861 552.656C537.647 561.126 519.044 560.71 504.224 551.568C502.264 550.333 500.47 553.42 502.401 554.675Z" fill="var(--color-illustration-primary, #382C80)"/>
</svg>
