<svg width="1000" height="1000" viewBox="0 0 1000 1000" fill="none" xmlns="http://www.w3.org/2000/svg">
<path d="M609.358 792.814C642.335 803.594 680.496 795.823 707.358 773.842C734.22 751.86 749.331 716.649 747.969 681.967C746.607 647.284 729.163 613.808 702.291 591.807C686.366 578.792 667.609 569.796 649.048 560.917C627.988 550.843 606.663 540.68 583.79 536.025C551.842 529.518 519.237 534.124 487.015 535.045C457.125 535.868 427.597 531.821 397.6 533.016C335.174 535.515 273.336 547.854 213.997 567.179C168.25 582.085 122.553 601.999 89.1544 636.612C45.76 681.575 22.681 747.783 56.638 804.653C75.0718 835.523 104.844 858.347 137.096 874.233C187.497 899.066 248.885 906.367 304.588 907.151C354.734 907.857 404.812 903.358 454.959 902.251C464.867 902.026 474.873 901.937 484.555 904.064C499.366 907.353 512.613 915.594 522.109 927.427C527.234 933.856 531.144 941.216 536.583 947.38C544.1 955.906 560.417 963.697 571.746 958.885C586.602 952.564 585.73 931.396 581.546 915.765C576.126 895.352 568.61 875.644 562.926 855.338C557.722 836.66 550.715 817.118 535.486 804.212C522.393 793.157 505.106 788.689 488.534 784.533C405.998 763.904 323.257 743.226 238.967 731.731" fill="white"/>
<path d="M608.378 796.381C639.797 806.495 675.489 800.84 702.654 782.201C729.82 763.561 747.127 732.907 751.233 700.42C755.408 667.423 744.638 634.054 724.205 608.123C701.047 578.723 665.287 563.21 632.026 548.186C614.249 540.15 595.923 533.202 576.528 530.341C556.429 527.401 536.133 528.087 515.906 529.184C495.326 530.292 474.951 530.938 454.342 529.958C433.733 528.978 413.182 527.675 392.602 528.655C352.61 530.654 312.884 536.289 273.914 545.491C237.145 554.076 200.483 565.023 165.82 580.134C133.549 594.197 102.973 613.16 79.5214 639.758C58.0202 664.12 41.5464 694.206 36.8424 726.625C31.9424 760.18 40.6252 793 61.0092 820.078C81.5892 847.39 110.391 867.725 141.31 881.818C210.479 913.256 289.535 914.275 364.045 911.218C385.027 910.355 405.989 909.179 426.98 908.278C437.398 907.846 447.835 907.454 458.262 907.298C468.013 907.151 477.862 907.298 487.29 910.042C495.5 912.412 503.122 916.479 509.663 921.978C516.631 927.858 521.364 935.228 526.529 942.646C535.231 955.18 548.745 966.166 564.945 965.49C580.233 964.853 588.2 952.103 589.239 938.05C590.464 921.39 583.976 904.622 578.949 889.05C575.803 879.25 572.55 869.577 569.639 859.748C567.199 851.477 564.994 843.147 561.858 835.091C555.811 819.529 546.962 805.289 532.889 795.823C517.64 785.562 499.069 781.809 481.576 777.438C461.493 772.407 441.393 767.445 421.277 762.552C381.048 752.84 340.662 743.726 299.953 736.258C280.147 732.622 260.292 729.545 240.349 726.811C233.92 725.929 231.137 735.778 237.635 736.67C315.966 747.45 392.984 766.07 469.61 785.17C486.672 789.423 505.018 792.559 520.766 800.693C535.368 808.239 544.943 820.891 551.146 835.895C557.899 852.329 561.926 870.009 567.444 886.855C572.452 902.231 579.341 918.695 579.086 935.139C579.008 940.696 578.047 946.9 574.088 951.123C569.512 956.023 562.495 955.719 556.576 953.936C549.801 951.913 543.763 947.959 539.2 942.558C533.663 935.904 529.635 928.152 523.932 921.615C513.016 909.227 498.146 901.002 481.851 898.34C462.76 895.312 442.651 897.36 423.472 898.203C348.992 901.447 273.238 907.758 199.816 890.716C166.496 882.994 134.509 870.205 106.579 850.301C80.4622 831.681 57.5792 805.75 49.0434 774.253C31.9914 711.18 74.2098 647.333 124.778 613.307C152.923 594.374 184.705 581.702 216.839 571.275C253.428 559.314 290.915 550.298 328.941 544.315C347.809 541.395 366.792 539.357 385.889 538.2C405.607 537.005 425.187 537.573 444.895 538.563C464.572 539.667 484.294 539.742 503.979 538.788C523.236 537.74 542.542 536.27 561.799 537.583C599.725 540.16 634.966 557.859 668.168 575.185C683.593 583.231 698.352 592.571 710.436 605.222C721.473 616.774 730.13 630.383 735.916 645.275C747.568 675.479 746.186 709.259 731.143 738.052C716.26 766.825 688.755 786.963 656.83 792.461C641.272 795.124 625.304 794.022 610.26 789.247C605.713 787.796 603.772 794.931 608.3 796.381H608.378Z" fill="#382C80"/>
<path d="M609.358 792.814C642.335 803.594 680.496 795.823 707.358 773.842C734.22 751.86 749.331 716.649 747.969 681.967C746.607 647.284 729.163 613.808 702.291 591.807C686.366 578.792 667.609 569.796 649.048 560.917C627.988 550.843 606.663 540.68 583.79 536.025C551.842 529.518 519.237 534.124 487.015 535.045C457.125 535.868 427.597 531.821 397.6 533.016C335.174 535.515 273.336 547.854 213.997 567.179C168.25 582.085 122.553 601.999 89.1544 636.612C45.76 681.575 22.681 747.783 56.638 804.653C75.0718 835.523 104.844 858.347 137.096 874.233C187.497 899.066 248.885 906.367 304.588 907.151C324.188 907.435 344.278 905.142 363.682 908.386C374.246 910.16 383.174 912.933 391.729 919.352C397.825 923.929 403.137 935.287 412.545 932.2C414.995 931.396 416.945 929.554 418.689 927.662C432.047 913.188 437.838 893.48 443.189 874.527C448.54 855.574 453.969 836.395 452.803 816.834C450.039 768.814 413.74 765.815 374.883 757.054C329.921 746.911 284.655 737.974 238.967 731.741" fill="white"/>
<path d="M608.378 796.382C636.984 805.594 668.932 801.723 695.02 786.993C721.108 772.264 739.649 746.813 747.724 718.285C755.888 689.444 752.409 658.672 739.287 631.849C724.91 602.449 700.43 582.232 671.863 567.336C656.428 559.29 640.591 551.656 624.587 544.796C608.388 537.867 591.777 532.281 574.264 529.91C537.348 524.892 500 531.556 462.927 530.194C444.307 529.518 425.687 527.979 407.067 528.087C388.84 528.33 370.638 529.54 352.539 531.713C316.365 535.854 280.571 542.82 245.484 552.548C183.901 569.58 118.623 592.943 76.3264 643.413C57.3046 666.12 42.6144 693.305 37.44 722.676C32.2166 752.331 37.293 782.603 53.022 808.406C86.4498 863.286 150.65 891.863 211.439 903.525C244.091 909.697 277.269 912.652 310.497 912.345C328.686 912.217 347.169 910.444 365.172 913.913C372.629 915.354 379.793 917.637 386.202 921.753C391.102 924.967 394.268 929.946 398.795 933.611C403.499 937.433 409.33 939.07 415.112 936.688C421.845 933.915 426.745 926.565 430.557 920.646C439.015 907.484 443.572 892.226 447.825 877.29C455.91 848.87 466.239 813.208 449.452 785.837C437.75 766.746 415.21 760.533 394.679 755.996C361.555 748.665 328.422 741.364 295.023 735.357C276.864 732.084 258.646 729.31 240.359 726.802C233.93 725.92 231.147 735.769 237.644 736.66C273.022 741.56 308.204 748.077 343.131 755.447C357.998 758.573 372.806 761.944 387.663 765.139C397.864 767.325 408.243 769.53 417.945 773.459C426.284 776.831 434.34 781.917 439.446 789.502C446.306 799.694 448.04 812.316 447.776 824.361C447.384 841.746 442.366 858.661 437.643 875.232C433.625 889.335 429.362 903.652 421.247 916.03C418.709 919.891 413.211 929.466 407.527 927.104C403.107 925.291 400.256 919.989 396.806 916.873C386.026 907.18 371.012 903.829 357.047 902.339C339.623 900.467 322.091 902.222 304.627 902.026C289.019 901.836 273.424 901.059 257.842 899.693C197.298 894.254 134.068 877.712 88.3804 835.386C67.183 815.786 50.8072 790.678 46.505 761.699C42.34 734.122 49.5136 705.8 62.4692 681.477C76.4909 655.503 96.4003 633.173 120.603 616.277C145.436 598.784 173.454 586.456 202.002 576.421C266.152 553.881 334.645 539.043 402.784 537.534C420.561 537.142 438.309 538.397 456.057 539.171C473.735 539.868 491.437 539.669 509.094 538.573C526.646 537.593 544.257 536.456 561.828 537.652C579.085 538.953 596.046 542.861 612.132 549.245C627.625 555.223 642.619 562.603 657.545 569.884C672.245 577.077 687.053 584.839 699.763 595.364C722.078 613.771 737.141 639.495 742.276 667.962C747.244 696.304 740.394 726.106 724.146 749.763C707.381 773.984 681.003 789.819 651.743 793.226C637.82 794.865 623.707 793.528 610.338 789.306C605.791 787.855 603.851 794.99 608.378 796.44V796.382Z" fill="#382C80"/>
<path d="M367.171 666.688L415.916 550.96C417.759 546.579 419.67 542.14 422.913 538.631C428.793 532.33 437.947 530.488 446.433 529.145C494.385 521.599 540.66 524.157 588.7 522.746C633.319 521.432 672.657 516.16 716.316 531.223C757.162 545.315 793.951 571.932 818.236 607.663C874.322 690.083 855.416 802.072 775.38 861.512C724.205 899.487 656.193 908.728 593.032 900.291C540.308 893.244 490.004 875.016 440.877 855.318C398.178 838.178 350.717 829.535 308.097 852.653C297.14 858.592 286.644 866.373 274.277 868.049C261.909 869.724 247.062 861.796 247.16 849.321C247.16 842.755 251.247 836.973 255.128 831.681L304.441 764.374C316.995 747.254 326.746 725.674 348.649 719.5C360.497 716.158 373.031 716.501 385.34 716.815C481.38 719.272 577.453 718.648 673.558 714.943" fill="white"/>
<path d="M370.385 668.56C383.753 636.971 397.13 605.389 410.516 573.814C413.848 565.974 417.043 558.134 420.512 550.294C423.57 543.434 427.519 538.446 434.801 535.917C441.827 533.467 449.501 532.683 456.851 531.762C465.406 530.674 474.001 529.89 482.605 529.302C516.199 527.038 549.892 528.077 583.545 527.342C614.611 526.656 645.902 523.354 676.89 527.009C733.074 533.644 786.973 567.189 817.226 615.062C848.165 664.062 853.868 726.537 831.926 780.172C810.709 831.926 766.658 869.911 713.64 886.365C656.545 904.084 595.55 898.703 538.622 883.259C507.144 874.723 476.549 863.316 446.296 851.222C418.444 840.09 389.035 831.426 358.723 832.906C343.741 833.549 328.995 836.868 315.182 842.706C301.717 848.478 289.555 859.258 274.943 861.973C265.898 863.649 250.678 858.347 253.383 846.714C254.941 839.854 260.821 833.778 264.849 828.281C269.997 821.277 275.136 814.267 280.264 807.25C290.26 793.608 300.384 780.055 310.262 766.325C317.201 756.682 323.002 746.098 331.185 737.415C340.711 727.301 352.334 723.421 366.044 722.715C382.371 721.823 398.913 723.058 415.24 723.372C484.369 724.685 553.557 724.548 622.667 722.519C639.66 722.029 656.634 721.225 673.627 720.559C680.849 720.275 680.879 709.024 673.627 709.299C601.342 712.072 528.891 712.846 456.557 712.151C438.394 711.974 420.231 711.69 402.069 711.298C385.173 710.926 367.671 709.24 351.011 712.846C323.6 718.775 311.38 745 296.248 765.58L264.408 809.082C259.194 816.197 253.893 823.253 248.728 830.437C244.573 836.258 240.82 843.039 241.241 850.438C241.966 863.071 253.491 871.675 265.212 873.606C280.382 876.105 293.877 867.569 306.44 860.297C334.243 844.206 365.691 841.393 396.845 847.822C429.185 854.505 459.36 869.45 490.426 880.309C550.842 901.418 614.729 915.099 678.791 905.622C707.76 901.34 736.18 892.186 761.454 877.3C840.006 830.791 874.858 735.338 844.754 649.156C825.154 593.296 780.241 550.666 725.527 529.449C695.245 517.689 663.396 515.337 631.212 516.396C614.464 516.954 597.736 518.013 580.978 518.356C563.269 518.777 545.551 518.767 527.832 519.042C510.476 519.306 493.101 519.865 475.794 521.374C466.798 522.158 457.824 523.22 448.874 524.559C441.955 525.598 434.928 526.676 428.538 529.684C422.149 532.693 417.533 537.858 414.495 544.277C410.82 551.94 407.88 559.78 404.646 567.561C397.708 584.189 390.756 600.813 383.792 617.434L363.584 665.699C361.967 669.55 368.739 672.441 370.385 668.56Z" fill="#382C80"/>
<path d="M367.171 666.688L415.916 550.96C417.758 546.579 419.669 542.14 422.913 538.631C428.793 532.33 437.946 530.488 446.433 529.145C494.385 521.599 540.66 524.157 588.7 522.746C633.319 521.432 672.656 516.16 716.315 531.223C757.162 545.315 793.951 571.932 818.236 607.663C874.322 690.083 855.415 802.072 775.38 861.512C724.204 899.487 656.193 908.728 593.031 900.291C557.408 895.528 522.707 885.591 488.897 873.625C460.251 863.472 419.718 842.265 390.093 858.386C385.546 860.855 380.499 864.158 375.628 862.414C368.994 860.032 368.69 850.85 369.876 843.901C373.796 820.921 380.587 798.537 388.79 776.742C394.954 760.386 402.059 729.829 415.524 718.275C422.56 712.229 427.284 715.12 434.732 716.315C444.709 717.932 455.41 718.05 465.994 718.128C488.782 718.305 511.567 718.305 534.349 718.128C580.736 717.775 627.122 716.704 673.509 714.914" fill="white"/>
<path d="M370.386 668.56C382.4 640.185 394.425 611.821 406.459 583.466L415.671 561.799C418.278 555.664 420.424 548.735 424.374 543.296C428.323 537.857 434.536 535.731 440.799 534.368C447.813 532.964 454.895 531.921 462.016 531.242C492.396 527.832 522.923 527.91 553.41 527.773C582.477 527.646 611.466 525.813 640.513 525.509C668.551 525.186 695.971 528.351 722.255 538.563C745.36 547.512 766.636 560.607 785.033 577.204C823.901 612.475 845.781 662.717 845.127 715.198C844.402 764.874 822.048 812.875 785.347 846.175C747.617 880.348 696.569 895.498 646.461 897.213C590.729 899.124 534.869 885.022 483.115 865.226C461.055 856.788 438.182 846.312 414.064 846.665C408.222 846.701 402.414 847.568 396.816 849.242C391.162 851.016 386.36 854.76 380.813 856.553C370.258 859.964 377.873 833.729 378.686 829.966C384.36 804.946 393.572 780.966 401.795 756.691C405.136 746.823 408.713 736.601 414.74 728.007C417.122 724.616 420.532 720.343 425.03 720.48C427.363 720.559 429.656 721.352 431.89 721.784C435.477 722.46 439.133 722.891 442.759 723.224C457.733 724.577 472.913 724.126 487.927 724.204C503.411 724.25 518.892 724.214 534.369 724.096C565.504 723.871 596.648 723.381 627.773 722.421C643.041 721.95 658.31 721.313 673.568 720.617C680.771 720.284 680.84 709.132 673.568 709.357C607.908 711.396 542.248 712.699 476.529 712.356C461.516 712.278 446.208 712.826 431.449 709.69C425.687 708.465 420.179 708.26 414.966 711.445C410.536 714.14 407.126 718.305 404.186 722.548C397.845 731.897 393.964 742.971 390.358 753.604C386.585 764.747 382.714 775.831 378.843 786.924C373.68 801.574 369.46 816.54 366.211 831.73C364.035 842.137 359.802 857.455 369.474 865.54C374.698 869.911 381.43 869.166 387.251 866.52C393.073 863.874 397.884 860.816 404.137 859.464C416.093 856.877 428.696 859.17 440.289 862.404C452.608 865.795 464.466 870.597 476.363 875.222C489.407 880.289 502.686 884.758 516.063 888.883C545.335 897.899 575.353 904.779 605.889 907.621C658.927 912.521 715.12 904.926 761.513 877.496C806.378 850.728 838.535 806.98 850.693 756.172C863.247 702.781 851.487 644.217 819 599.979C787.64 557.3 738.327 526.783 685.877 518.777C656.879 514.357 627.655 516.542 598.5 517.797C566.689 519.139 534.8 518.414 503.019 519.698C487.182 520.335 471.365 521.501 455.655 523.618C443.121 525.303 427.755 526.411 419.003 536.838C414.682 542.003 412.477 548.598 409.909 554.752L400.511 577.292C394.356 592.045 388.196 606.794 382.028 621.539L363.584 665.698C361.967 669.55 368.739 672.441 370.386 668.56Z" fill="#382C80"/>
<path d="M486.741 99.5913C496.188 106.451 502.421 117.094 505.488 128.335C508.556 139.575 508.83 151.414 508.134 163.046C507.782 168.838 507.605 175.62 512.103 179.285C515.455 182.019 520.188 181.941 524.442 182.695C535.025 184.739 543.624 192.441 546.815 202.736C549.804 212.86 546.864 224.1 540.866 232.793C534.869 241.485 526.108 247.924 516.905 253.098C495.277 265.241 470.532 271.17 445.777 272.698C433.762 273.433 421.561 273.139 409.88 270.199C398.198 267.259 387.026 261.497 378.951 252.559C375.119 248.316 372.346 243.514 369.621 238.526C367.103 233.93 364.515 233.41 360.546 230.01C353.265 223.777 349.639 213.8 348.963 204.451C348.523 200.16 348.97 195.823 350.276 191.711C351.932 187.027 355.127 183.087 358.038 179.069C367.24 166.388 374.345 150.963 372.13 135.44C371.366 130.099 369.523 124.954 368.72 119.613C367.916 114.272 368.308 108.421 371.562 104.109C373.852 101.326 376.852 99.2126 380.244 97.9939C385.703 95.7693 392.318 94.9853 397.238 98.2389" fill="#382C80"/>
<path d="M484.761 102.973C499.001 113.958 503.44 132.569 503.577 149.699C503.646 157.696 501.764 166.065 503.362 173.964C504.881 181.422 510.545 185.841 517.817 187.057C525.284 188.311 531.684 189.575 536.976 195.514C542.044 201.392 543.967 209.354 542.14 216.898C538.504 233.175 523.677 243.093 509.751 250.218C493.826 258.342 476.157 263.173 458.438 265.329C440.906 267.475 422.267 268.103 405.381 262.174C397.953 259.644 391.167 255.524 385.497 250.1C382.677 247.263 380.221 244.086 378.186 240.643C376.04 237.115 374.345 233.166 371.326 230.284C369.082 228.177 366.309 226.717 364.055 224.6C361.343 221.984 359.218 218.82 357.822 215.32C354.882 208.146 353.52 198.591 357.126 191.447C361.34 183.107 367.906 176.257 371.934 167.692C375.962 159.127 378.794 149.611 378.412 139.958C378.088 130.658 372.62 120.975 374.492 111.714C376.06 103.933 387.722 99.5622 394.65 102.757C397.125 104.107 400.224 103.246 401.648 100.813C403.071 98.3796 402.303 95.2557 399.913 93.7606C392.426 88.3608 382.626 90.1052 374.903 94.133C366.465 98.5234 362.261 106.873 362.653 116.252C363.055 126.13 367.553 135.156 366.514 145.181C365.534 154.981 360.87 164.183 355.46 172.278C349.874 180.628 343.7 187.527 342.818 198.003C342.078 207.245 343.999 216.505 348.355 224.689C350.338 228.383 352.956 231.7 356.087 234.489C358.88 236.919 362.212 238.507 364.143 241.741C369.219 250.227 374.09 257.901 382.047 264.016C397.806 276.119 418.16 279.637 437.604 279.284C458.108 279.064 478.432 275.421 497.736 268.504C515.376 261.968 533.683 252.54 544.855 236.821C555.145 222.337 556.762 201.953 544.335 188.252C537.858 181.108 529.88 178.452 520.668 176.914C515.259 176.012 513.446 173.65 513.26 168.221C513.064 162.625 513.534 157.029 513.358 151.434C512.691 130.452 506.4 109.107 488.75 96.2792C484.634 93.2804 480.91 100.023 484.83 103.031L484.761 102.973Z" fill="#382C80"/>
<path d="M261.341 312.036C264.976 301.05 270.592 286.85 279.618 279.137C287.654 272.277 295.16 265.104 303.01 257.871C321.344 240.834 342.959 227.713 366.534 219.308C378.922 215.148 391.629 212.008 404.528 209.92C413.133 208.421 425.206 204.677 433.781 208.264C442.856 212.056 441.837 222.729 441.621 230.912C441.269 243.24 440.318 256.088 445.071 267.779C450.628 281.421 450.618 297.669 450.51 312.252C450.285 343.69 443.16 375.609 425.412 401.951C403.852 434.007 367.465 456.302 328.245 465.749C289.026 475.196 247.209 472.452 208.519 461.692" fill="white"/>
<path d="M264.849 313.006C267.848 304.108 271.758 295.258 277.589 287.791C280.529 284.008 284.351 281.166 287.948 278.05C292.554 274.071 297.013 269.916 301.491 265.8C317.279 251.325 334.243 238.712 353.774 229.706C373.306 220.7 394.503 216.623 415.593 212.674C422.982 211.292 434.585 209.489 436.496 219.21C438.211 227.913 436.281 237.625 436.496 246.445C436.546 251.539 437.094 256.617 438.133 261.605C439.328 267.064 441.798 272.091 443.131 277.511C445.669 287.879 445.747 298.669 445.708 309.282C445.62 330.382 442.768 351.324 435.457 371.199C421.796 408.203 391.661 435.594 355.881 450.961C309.39 470.923 258.156 468.601 210.048 456.341C203.188 454.587 200.248 464.975 207.108 466.994C252.795 480.478 304.676 481.38 349.707 464.896C388.76 450.598 423.55 423.354 440.779 384.811C450.05 364.074 454.45 341.593 455.293 318.965C455.714 307.724 455.783 296.278 454.362 285.096C453.754 279.694 452.588 274.371 450.883 269.21C448.785 263.154 446.963 257.587 446.473 251.109C445.767 241.123 447.453 231.068 446.59 221.121C445.806 211.802 441.083 204.363 431.469 202.433C421.13 200.365 410.203 203.893 400.109 205.745C388.305 207.784 376.677 210.732 365.329 214.565C341.414 223.029 319.464 236.254 300.805 253.442C295.729 258.087 290.77 262.869 285.713 267.534C281.147 271.738 276.109 275.649 272.209 280.5C265.094 289.32 261.429 300.403 257.921 311.046C256.451 315.515 263.458 317.406 264.947 313.006H264.849Z" fill="#382C80"/>
<path d="M233.323 320.043C236.704 329.392 239.565 331.646 242.936 340.995C244.305 344.373 245.275 347.899 245.827 351.501C246.807 360.184 243.926 365.378 236.41 368.945C229.971 371.993 223.033 372.737 217.917 366.926C225.149 375.138 219.583 389.525 209.499 393.778C199.415 398.031 187.527 394.444 178.511 388.231C183.205 394.866 177.423 404.744 169.691 407.184C161.959 409.625 153.6 407.037 145.897 404.46C147.455 408.919 144.642 414.084 140.448 416.22C136.254 418.356 131.128 418.023 126.659 416.504C112.939 411.839 104.619 397.286 102.963 382.92C99.778 355.362 103.757 330.646 123.014 309.008C145.662 283.577 177.531 273.63 210.4 283.048C219.132 285.547 228.462 289.369 236.939 286.105C240.349 284.792 243.279 282.421 246.739 281.205C253.266 278.971 260.694 281.46 265.957 285.929C271.219 290.398 274.718 296.552 277.864 302.697C292.211 330.656 310.331 362.085 314.545 393.219" fill="white"/>
<path d="M229.52 321.082C233.195 331.862 241.211 342.309 241.349 354C241.349 358.312 239.839 361.458 236.076 363.663C231.245 366.495 225.62 367.828 221.376 363.408C216.858 358.684 210.459 365.564 214.35 370.435C218.916 376.138 214.35 385.203 208.803 388.349C199.924 393.396 188.821 388.77 181.167 383.596C176.659 380.548 171.102 386.536 173.827 390.936C176.296 394.964 172.739 399.884 168.927 401.589C162.272 404.529 153.737 401.177 147.367 399.07C143.231 397.698 139.429 402.01 140.507 405.93C142.271 412.535 132.667 412.516 128.845 411.31C123.614 409.496 119.097 406.064 115.948 401.51C108.794 391.661 107.853 379.304 107.814 367.534C107.814 355.568 109.607 343.328 114.674 332.381C120.086 320.946 128.028 310.893 137.9 302.981C156.78 287.64 181.768 282.055 205.383 287.899C212.047 289.555 218.456 292.113 225.296 293.015C231.883 293.913 238.58 292.566 244.308 289.193C249.992 286.037 255.147 285.674 260.694 289.565C266.241 293.456 269.582 299.933 272.64 305.823C287.34 334.096 304.186 362.84 308.969 394.817C309.439 397.943 313.349 399.609 316.123 398.874C319.484 397.992 320.601 394.817 320.18 391.72C315.633 358.253 297.924 327.814 282.479 298.356C275.619 285.243 263.712 271.396 247.14 274.894C243.681 275.62 240.672 277.423 237.615 279.099C234.12 281.068 230.049 281.761 226.1 281.059C218.485 279.912 211.292 276.737 203.717 275.326C174.649 269.722 144.691 278.845 123.68 299.698C113.056 309.899 105.08 322.537 100.444 336.517C96.0048 350.296 95.3678 365.084 96.7594 379.402C98.249 394.807 104.237 410.36 118.084 418.739C125.062 422.963 134.215 425.04 141.928 421.679C149.232 418.608 153.202 410.666 151.277 402.98L144.417 409.84C155.03 413.359 167.937 416.602 177.56 409.047C184.607 403.539 188.242 393.523 183.176 385.527L175.826 392.877C187.645 400.648 204.893 404.999 216.937 395.219C226.492 387.457 229.5 373.237 221.455 363.418L214.428 370.444C224.463 380.685 244.112 375.727 249.316 362.536C255.353 347.248 242.554 332.322 237.144 319.004C235.292 314.447 227.893 316.211 229.569 321.092L229.52 321.082Z" fill="#382C80"/>
<path d="M434.203 200.767C469.757 197.66 511.338 192.927 544.835 206.647C608.417 232.705 665.757 283.88 714.296 289.172C696.509 275.031 697.783 260.674 690.776 240.496C677.056 201.149 658.25 160.136 665.904 117.476C671 89.0565 688.846 62.7533 714.414 49.3469C739.982 35.9405 772.891 36.6069 796.822 52.7671C823.821 70.9853 841.687 108.323 849.566 138.84C856.857 167.045 861.512 195.68 865.158 224.737C871.479 274.953 875.624 326.873 861.238 375.393C839.678 448.187 736.778 464.759 671.853 452.058C628.076 443.493 587.573 422.893 551.95 396.375C535.466 384.095 520.766 371.953 511.299 353.47C502.313 335.919 494.639 322.875 478.763 310.115" fill="white"/>
<path d="M434.203 204.158C455.126 202.433 476.108 200.385 497.129 201.218C507.732 201.54 518.273 202.952 528.587 205.432C538.769 207.999 548.324 212.194 557.771 216.721C593.923 234.038 626.606 257.529 662.22 275.825C678.615 284.253 695.853 291.554 714.297 293.749C718.217 294.21 720.549 288.291 717.57 285.851C710.896 280.392 705.888 273.973 703.027 265.8C700.41 258.362 698.95 250.571 696.627 243.054C690.287 222.474 681.673 202.717 675.92 181.941C670.167 161.165 666.806 138.949 671.02 117.467C674.478 99.4392 683.098 82.8041 695.834 69.5842C721.96 42.8302 765.786 36.1858 796.685 59.0002C826.154 80.7954 839.805 119.202 847.645 153.502C852.898 176.414 856.603 199.66 859.562 222.974C862.424 245.465 864.835 268.054 865.442 290.721C866.03 313.261 864.825 335.909 860.082 357.969C856.701 373.649 851.84 388.613 841.903 401.471C824.772 423.629 798.087 436.398 771.548 443.346C743.925 450.423 715.227 452.304 686.916 448.893C648.362 444.356 611.338 428.558 578.665 408.086C562.005 397.649 545.11 386.065 531.341 371.924C524.75 365.075 519.214 357.283 514.916 348.806C510.931 340.75 506.304 333.029 501.078 325.717C495.712 318.492 489.456 311.972 482.458 306.313C477.215 302.06 469.718 309.488 474.971 313.8C482.606 319.92 489.282 327.147 494.777 335.243C500.314 343.514 504.293 352.598 509.389 361.124C519.737 378.412 535.594 391.073 551.627 402.823C586.907 428.676 627.214 448.883 670.354 457.253C700.028 463.035 731.055 462.603 760.7 456.9C789.972 451.265 819.588 439.613 841.158 418.415C868.598 391.504 874.576 351.462 876.026 314.653C877.006 290.643 875.242 266.633 872.606 242.75C869.95 218.652 866.726 194.573 862.12 170.759C854.574 131.412 843.137 90.3994 814.423 60.8132C800.98 46.7074 783.06 37.7021 763.718 35.3332C744.037 32.9746 724.132 37.2475 707.153 47.4754C671.833 69.0256 655.82 110.607 659.74 150.718C661.994 173.69 669.374 195.642 677.243 217.211C680.977 227.462 685.083 237.644 688.219 248.121C690.63 256.264 692.266 264.653 695.628 272.493C699.055 280.303 704.353 287.149 711.053 292.426L714.326 284.528C698.019 282.685 682.457 276.011 667.923 268.72C650.44 259.949 633.721 249.708 616.904 239.732C599.362 229.334 581.693 219.152 563.24 210.391C554.067 206.059 544.708 201.816 534.927 199.081C525.048 196.413 514.92 194.771 504.704 194.181C481.184 192.594 457.664 195.161 434.232 197.376C429.93 197.778 429.862 204.52 434.232 204.158H434.203Z" fill="#382C80"/>
<path d="M933.023 177.639C934.067 192.766 931.951 207.944 926.81 222.209C917.01 249.09 884.523 275.129 856.896 281.842C843.029 285.223 828.476 284.782 814.364 282.548C801.742 280.588 789.257 277.079 777.997 271.052C752.125 257.195 734.445 229.755 730.957 200.62C725.4 154.315 752.899 104.746 797.205 88.2333C847.116 69.6133 901.339 91.3595 923.458 139.566C928.929 151.572 932.17 164.473 933.023 177.639Z" fill="#7F72FF"/>
<path d="M927.731 177.639C929.054 199.836 924.448 222.719 910.247 240.271C897.978 255.461 880.985 268.201 862.482 274.659C840.334 282.372 814.305 279.441 792.53 271.719C773.495 264.889 757.537 251.465 747.548 233.881C728.555 200.885 733.436 159.401 754.555 128.668C775.36 98.3373 812.453 81.9321 848.929 88.1747C868.417 91.442 886.376 100.781 900.242 114.86C916.676 131.687 926.006 154.286 927.731 177.639C928.23 184.391 938.824 184.45 938.324 177.639C935.061 133.539 907.249 94.2703 864.393 80.9717C825.428 68.8883 781.573 81.0697 754.545 111.587C727.517 142.104 716.58 187.674 732.113 226.139C740.149 246.043 754.32 263.546 773.028 274.345C794.98 287.027 823.792 291.985 848.821 288.683C873.546 285.39 896.567 270.984 913.305 252.864C921.596 243.897 928.426 233.675 932.454 222.092C937.311 207.803 939.309 192.699 938.334 177.639C937.913 170.867 927.329 170.818 927.731 177.639Z" fill="#7F72FF"/>
<path d="M730.927 356.087C715.055 317.119 701.228 277.348 689.502 236.938C677.889 197.258 658.201 160.204 665.875 117.457C670.971 89.0368 688.816 62.7336 714.385 49.3272C749.145 31.1188 795.274 40.6444 823.4 66.2714C830.26 72.5238 836.61 80.5206 836.669 89.7914C836.669 93.192 835.689 96.7494 833.308 99.121C829.76 102.571 824.076 102.629 819.313 101.297C814.55 99.9638 810.131 97.4746 805.289 96.4848C810.768 101.934 809.209 112.233 802.859 116.692C796.509 121.151 787.248 119.887 781.456 114.732C782.328 119.485 783.014 124.993 779.79 128.59C776.987 131.726 772.038 132.127 768.089 130.677C764.139 129.227 760.944 126.287 757.867 123.415C757.632 127.11 757.358 130.961 755.496 134.195C753.634 137.429 749.694 139.722 746.195 138.488C741.295 136.763 736.533 130.736 731.574 128.188C724.881 124.743 717.837 122.029 710.563 120.093" fill="white"/>
<path d="M734.22 355.186C720.422 320.327 708.378 284.763 697.725 248.816C692.757 232.088 687.484 215.496 681.977 198.974C676.694 183.088 671.657 166.82 669.923 150.091C666.679 118.731 676.41 86.989 700.224 65.5662C722.245 45.7604 752.821 41.0662 780.849 48.9748C796.127 53.2868 810.876 61.1758 822.107 72.4948C826.723 77.14 834.945 87.3712 830.182 94.388C825.694 101.023 812.17 92.5162 806.721 91.2422C804.366 90.6626 801.91 91.7035 800.689 93.799C799.468 95.8946 799.773 98.5441 801.439 100.307C804.467 103.639 803.34 109.509 799.871 112.146C795.647 115.35 789.091 114.106 785.298 110.911C780.996 107.373 775.214 110.705 776.184 116.213C776.782 119.603 777.958 125.581 773.097 126.013C768.599 126.444 764.689 122.328 761.7 119.564C760.122 118.079 757.82 117.656 755.818 118.485C753.815 119.314 752.485 121.24 752.419 123.406C752.243 126.169 752.125 133.382 747.96 133.314C745.02 133.314 740.728 128.1 738.523 126.395C731.016 120.613 721.01 117.398 711.955 114.948C705.369 113.165 702.576 123.337 709.142 125.16C715.99 126.918 722.608 129.474 728.86 132.775C733.76 135.499 737.337 140.203 742.413 142.682C747.583 145.245 753.819 144.145 757.799 139.968C762.18 135.577 762.895 129.276 763.287 123.406L754.016 127.247C760.553 133.323 768.824 139.36 778.213 135.95C788.013 132.383 788.248 121.975 786.699 113.273L777.585 118.584C785.984 125.444 798.881 127.571 807.564 119.799C815.426 112.677 816.115 100.563 809.112 92.5946L803.8 101.718C812.395 103.678 820.196 109.127 829.388 107.03C837.512 105.168 842.04 97.867 842.03 89.7918C842.03 72.877 825.88 59.8136 812.856 51.5718C785.955 34.559 750.018 28.8554 720.059 40.9388C689.395 53.3064 667.355 82.6084 661.171 114.782C653.762 153.276 668.756 189.115 680.84 224.865C688.151 246.494 694.266 268.505 701.822 290.055C709.74 312.634 718.351 334.945 727.654 356.989C729.311 360.909 735.818 359.292 734.191 355.186H734.22Z" fill="#382C80"/>
<path d="M349.335 466.474C363.97 479.825 379.504 492.156 395.826 503.381C400.628 506.684 405.558 509.918 411.036 511.907C423.776 516.533 437.898 513.867 451.471 514.161C467.151 514.455 482.654 518.689 498.373 519.061C530.566 519.855 561.24 504.42 586.377 484.291C579.742 463.249 572.019 442.566 563.24 422.325C501.72 449.918 433.361 458.511 366.926 447.002" fill="#382C80"/>
<path d="M346.493 469.316C359.753 481.898 373.809 493.614 388.574 504.39C395.806 509.672 403.156 515.17 411.849 517.738C420.061 520.188 428.783 520.148 437.26 519.835C446.477 519.338 455.718 519.577 464.896 520.55C474.108 521.687 483.242 523.412 492.493 524.147C509.229 525.38 526.031 522.931 541.719 516.973C559.535 510.28 575.627 500.205 590.503 488.426C592.016 486.959 592.593 484.775 592.002 482.752C585.222 461.225 577.312 440.07 568.306 419.375C566.973 416.308 562.847 416.033 560.27 417.268C530.87 431.4 497.658 439.622 465.357 443.346C449.124 445.254 432.776 446.024 416.435 445.649C399.775 445.237 383.429 443.101 366.926 441.356C360.556 440.69 359.321 450.97 365.426 452.45C390.808 458.604 418.121 459.173 444.101 457.644C470.72 456.075 497.064 451.384 522.589 443.669C536.915 439.16 551.002 433.926 564.798 427.989L558.163 425.294C566.689 445.08 574.196 465.317 580.703 485.848L582.212 480.164C558.418 499.176 528.704 514.641 497.501 513.641C480.184 513.092 463.319 508.408 445.924 508.849C437.839 509.055 429.626 509.927 421.561 508.947C413.113 507.918 406.008 504.047 399.021 499.421C382.627 488.53 366.965 476.575 352.138 463.632C348.276 460.27 342.681 465.709 346.463 469.306L346.493 469.316Z" fill="#382C80"/>
<path d="M354.46 275.58C347.767 312.565 341.573 325.56 334.86 362.535C329.754 390.691 325.06 421.943 338.692 446.453C350.324 467.425 372.639 478.038 394.268 484.134C447.617 498.988 504.539 494.042 554.527 470.208C562.494 466.406 570.56 461.917 575.94 454.41C585.348 441.278 584.486 422.678 582.271 406.126C573.637 341.554 556.556 319.17 544.315 270.886" fill="white"/>
<path d="M350.491 274.511C342.651 316.818 327.206 358.066 325.393 401.402C324.502 422.658 328.578 444.277 342.965 460.672C355.832 475.372 374.57 483.634 392.945 488.877C438.367 501.6 486.574 500.313 531.252 485.182C541.878 481.687 552.204 477.341 562.132 472.187C571.677 467.121 579.909 460.123 584.329 450.078C593.07 430.204 588.063 406.135 584.329 385.653C580.393 364.949 574.759 344.604 567.483 324.825C560.897 306.518 554.106 288.32 549.176 269.484C547.52 263.143 537.779 265.819 539.376 272.189C547.275 303.892 561.122 333.654 569.149 365.289C574.205 385.193 578.949 406.684 578.37 427.313C578.096 436.829 576.107 446.805 569.472 454.028C562.612 461.476 552.44 465.68 543.316 469.58C502.469 486.963 457.392 491.873 413.76 483.692C394.797 480.057 374.981 474.52 359.35 462.72C342.965 450.392 335.36 431.899 334.38 411.8C333.273 387.741 338.574 363.025 343.925 339.701C348.757 318.67 354.568 297.953 358.39 276.687C359.321 271.513 351.422 269.278 350.452 274.502L350.491 274.511Z" fill="#382C80"/>
<path d="M413.76 186.086V228.412C413.76 242.907 416.7 258.92 435.516 261.83C444.042 263.153 453.205 260.302 459.036 254.529C463.191 250.404 465.602 245.063 467.14 239.653C473.02 219.161 467.454 197.464 469.61 176.384" fill="white"/>
<path d="M410.134 186.087C410.056 201.855 408.733 217.75 409.438 233.509C409.879 243.113 412.192 253.452 419.787 260.018C429.117 268.083 443.023 269.161 454.087 264.163C467.494 258.068 472.707 243.799 474.432 230.118C475.549 221.494 475.324 212.821 474.961 204.148C474.569 194.916 474.873 185.597 474.246 176.385C473.903 171.396 466.563 169.887 465.181 175.16C463.015 183.509 463.75 192.359 464.132 200.875C464.514 209.538 465.014 218.26 464.132 226.913C463.427 234.244 461.8 242.535 457.272 248.571C452.862 254.451 445.414 257.284 438.201 257.039C426.049 256.617 420.013 247.729 418.601 236.566C417.621 229.236 418.033 221.68 417.945 214.311C417.827 204.903 417.474 195.495 417.455 186.087C417.455 181.402 410.193 181.392 410.173 186.087H410.134Z" fill="#382C80"/>
<path d="M396.649 168.133C382.179 153.804 373.602 134.573 372.61 114.233C372.414 109.784 372.61 105.09 375.001 101.307C377.99 96.5047 385.722 94.2801 390.524 97.5043C389.486 93.3393 393.317 90.0857 395.424 86.9693C398.709 82.2124 403.106 78.33 408.233 75.6601C419.161 69.8218 431.339 66.715 443.729 66.6049C455.185 66.4089 469.071 67.8789 479.675 72.2497C485.143 74.5037 490.269 77.5809 495.874 79.4723C501.48 81.3637 507.87 81.9615 513.142 79.2763C516.023 77.8161 519.59 75.4641 522.031 77.5711C522.984 78.5609 523.518 79.8814 523.52 81.2559C524.04 87.6651 520.276 93.6725 515.847 98.3177C505.067 109.617 489.504 115.83 473.903 116.497C458.301 117.163 442.719 112.577 429.225 104.668" fill="#382C80"/>
<path d="M399.55 165.242C390.329 155.329 383.694 143.296 380.235 130.207C378.376 123.819 377.536 117.178 377.745 110.528C378.02 105.442 381.793 98.337 387.986 101.865C392.132 104.217 395.983 100.346 395.356 96.2006C395.042 94.0544 399.217 89.9776 400.442 88.3606C402.653 85.5369 405.347 83.128 408.4 81.2458C415.419 77.0038 423.171 74.1121 431.253 72.7198C446.159 69.9072 463.76 71.044 477.872 76.777C485.585 79.913 492.621 84.5092 501.01 85.597C504.591 86.178 508.254 85.9977 511.76 85.0678C513.487 84.4916 515.163 83.7704 516.768 82.9118C517.483 82.4263 518.265 82.0498 519.091 81.7946C518.307 81.8534 519.091 81.04 518.718 82.6276C517.101 90.4676 512.544 96.0438 505.978 100.669C499.674 104.943 492.618 107.986 485.183 109.636C466.386 114.125 448.599 108.529 431.743 100.395C426.02 97.6314 421.424 105.373 426.745 108.931C443.405 120.064 465.593 124.297 485.202 120.416C494.475 118.562 503.215 114.654 510.78 108.98C517.915 103.707 525.284 96.7984 527.685 87.949C529.724 80.4324 526.911 69.6818 516.984 72.2102C512.584 73.3274 509.359 76.2282 504.587 76.1792C499.216 76.1204 494.169 73.6802 489.436 71.3968C471.473 62.7588 451.322 59.7396 431.616 62.7336C421.003 64.3212 409.938 67.957 401.148 74.2486C397.282 77.0997 393.9 80.5542 391.132 84.4798C388.192 88.3998 384.801 92.1924 385.507 97.504L393.053 93.1724C386.048 89.2645 377.266 90.7703 371.963 96.7886C365.838 103.894 367.152 114.703 368.426 123.249C371.25 141.558 380.177 158.375 393.759 170.975C397.59 174.601 403.176 169.015 399.55 165.183V165.242Z" fill="#382C80"/>
<path d="M440.73 201.012C455.561 200.77 469.537 194.022 478.95 182.558C483.291 177.315 484.183 170.857 485.614 164.311C487.446 155.942 487.574 147.278 487.103 138.752C486.457 127.061 484.291 114.566 476.059 106.246C472.169 102.541 467.568 99.6639 462.535 97.7885C449.16 92.4416 434.437 91.4639 420.473 94.9955C416.832 95.8404 413.346 97.2525 410.144 99.1801C404.823 102.571 401.001 108 398.649 113.88C396.297 119.76 395.307 126.052 394.729 132.343C392.867 152.737 395.591 181.343 414.084 193.887" fill="white"/>
<path d="M440.729 205.088C461.486 204.775 483.604 192.152 488.573 171.014C491.404 159.125 492.308 146.86 491.248 134.685C490.376 124.591 488.2 114.242 481.879 106.069C467.973 88.1056 438.318 85.0578 417.866 90.8104C394.689 97.3372 389.524 120.926 389.26 142.3C389.005 162.791 393.758 185.723 411.604 198.101C416.847 201.727 421.678 193.201 416.572 189.594C404.263 180.774 400.363 164.212 399.442 149.944C398.462 134.616 398.462 111.204 413.73 102.561C421.864 97.9546 432.576 97.1706 441.709 97.739C451.147 98.327 461.446 101.002 469.257 106.5C477.068 111.998 480.262 120.759 481.742 129.765C483.358 139.436 483.507 149.294 482.183 159.009C481.563 164.145 480.434 169.207 478.812 174.12C476.999 179.138 473.236 183.028 469.188 186.39C461.157 193.013 451.128 196.738 440.719 196.964C435.486 197.082 435.467 205.186 440.719 205.108L440.729 205.088Z" fill="#382C80"/>
<path d="M452.49 141.457C452.171 144.087 452.171 146.745 452.49 149.375C452.666 151.864 452.303 155.804 453.685 157.94C451.96 155.285 447.805 157.676 449.422 160.43C451.431 163.811 456.145 162.87 457.468 159.381C458.399 156.921 457.644 153.922 457.39 151.404C457.066 148.131 457.007 144.544 455.89 141.457C455.361 139.987 452.803 139.585 452.48 141.457H452.49Z" fill="#382C80"/>
<path d="M460.574 131.912C463.317 130.95 466.214 130.502 469.12 130.589C470.435 130.619 471.745 130.75 473.04 130.981C473.736 131.108 476.382 132.265 476.097 130.344C476.097 130.599 469.414 128.384 468.845 128.325C466.395 127.914 463.945 128.423 461.486 127.923C458.781 127.365 457.566 131.412 460.329 132.088C462.662 132.676 464.847 132.471 467.189 132.598C469.531 132.725 471.295 134.048 473.51 134.401C476.019 134.803 479.802 134.685 479.537 131.216C479.282 127.963 475.774 127.218 473.167 126.875C468.568 126.257 463.888 126.776 459.535 128.384C457.34 129.168 458.271 132.676 460.515 131.912H460.574Z" fill="#382C80"/>
<path d="M443.16 127.502C438.584 125.885 433.684 125.404 428.881 126.1C426.754 126.365 423.354 126.561 423.54 129.501C423.687 132.078 426.656 132.754 428.734 132.97C433.311 133.45 438.132 132.97 442.709 132.803C445.472 132.676 445.512 128.472 442.709 128.482C439.583 128.482 436.476 128.56 433.35 128.658C432.213 128.658 431.047 128.795 429.91 128.746C429.192 128.586 428.46 128.501 427.725 128.491C426.862 128.168 426.745 128.825 427.401 130.451C427.888 130.336 428.383 130.254 428.881 130.206C430.047 130.03 431.223 129.863 432.399 129.775C435.715 129.512 439.05 129.928 442.199 131C444.443 131.765 445.374 128.256 443.179 127.472L443.16 127.502Z" fill="#382C80"/>
<path d="M415.289 493.493C414.818 516.219 415.357 538.985 416.778 561.672C417.464 572.628 418.356 583.584 419.718 594.482C420.316 599.215 420.963 603.302 424.471 606.84C427.509 609.878 432.203 611.514 433.997 615.66C436.192 620.707 445.11 617.032 442.993 611.867C441.161 607.398 438.093 604.88 434.261 602.175C430.194 599.333 429.43 596.873 428.754 592.032C427.245 581.252 426.196 570.394 425.343 559.525C423.619 537.583 422.707 515.553 422.746 493.542C422.746 488.72 415.357 488.72 415.259 493.542L415.289 493.493Z" fill="#382C80"/>
<path d="M511.544 529.223C521.56 543.119 540.513 553.899 557.996 548.999C563.014 547.598 562.063 539.807 556.761 539.856C549.666 539.915 542.777 539.856 536.005 537.455C529.146 535.082 523.112 530.789 518.62 525.087C515.484 521.011 508.418 524.882 511.544 529.223Z" fill="#382C80"/>
<path d="M317.23 520.041C327.608 524.274 339.113 524.871 349.874 521.736C355.832 519.923 353.372 510.956 347.296 512.397C338.162 514.755 328.544 514.459 319.572 511.544C314.094 509.731 312.065 518.002 317.23 520.041Z" fill="#382C80"/>
<path d="M466.053 141.741C464.238 142.789 463.456 145.002 464.212 146.957C464.967 148.912 467.033 150.026 469.081 149.581C471.213 149.133 472.694 147.189 472.56 145.014C472.482 143.803 471.933 142.671 471.031 141.859C469.976 140.924 468.542 140.539 467.16 140.82C465.844 141.182 465.003 142.468 465.2 143.819C465.389 145.161 466.53 146.165 467.885 146.181C467.415 146.092 467.327 146.083 467.621 146.181C467.817 146.239 467.915 146.279 467.621 146.181C467.425 146.122 467.376 146.073 467.572 146.181C467.248 145.916 467.17 145.857 467.317 145.994C467.101 145.573 467.797 146.416 467.317 145.994L467.17 145.632C467.248 145.913 467.248 145.825 467.17 145.367C467.17 145.916 467.346 144.74 467.17 145.279C467.356 144.887 467.395 144.789 467.287 144.965L467.474 144.701C467.16 145.073 467.954 144.426 467.542 144.632C467.954 144.475 468.032 144.446 467.768 144.534C467.503 144.622 467.572 144.583 467.826 144.534C468.326 144.534 467.748 144.534 467.66 144.534C467.572 144.534 467.562 144.534 467.973 144.583C467.719 144.505 467.787 144.583 468.169 144.691C467.777 144.485 468.532 145.073 468.169 144.691L468.365 144.946C468.248 144.72 468.258 144.769 468.414 145.103L468.356 144.877C468.356 144.701 468.356 144.779 468.356 145.122C468.356 145.122 468.287 144.681 468.356 144.662C468.307 144.995 468.307 145.034 468.356 144.799L468.258 145.024C468.385 144.838 468.365 144.848 468.209 145.024L468.434 144.828C469.112 144.149 469.199 143.079 468.64 142.3C468.021 141.517 466.926 141.297 466.053 141.78V141.741Z" fill="#382C80"/>
<path d="M437.564 140.193C435.707 140.44 434.182 141.782 433.703 143.593C433.409 144.77 433.614 146.015 434.269 147.035C434.924 148.055 435.97 148.76 437.162 148.983C439.867 149.346 441.719 146.896 441.729 144.397C441.723 142.097 440.241 140.061 438.054 139.35C436.695 139.097 435.344 139.824 434.807 141.096C434.269 142.369 434.691 143.845 435.819 144.642C436.094 144.759 436.554 145.132 436.074 144.73C435.81 144.456 436.476 145.073 436.074 144.73C436.339 145.004 436.143 145.142 436.143 144.848C436.143 144.554 436.055 144.642 436.094 144.789C436.133 144.936 436.094 144.926 436.094 144.71C435.986 144.162 436.251 145.073 436.094 144.563C436.094 144.358 436.094 144.328 436.094 144.485C436.094 144.642 436.094 144.612 436.094 144.436C436.711 143.966 436.731 143.221 438.054 143.672C438.406 143.781 438.679 144.061 438.779 144.416C438.652 144.103 438.779 144.328 438.779 144.524C438.788 144.39 438.788 144.256 438.779 144.122C438.779 144.338 438.671 144.475 438.779 144.201C439.014 143.593 438.642 144.465 438.779 144.122C438.808 144.062 438.841 144.003 438.877 143.946C438.946 143.838 438.946 143.838 438.877 143.946C438.965 143.946 437.975 144.338 438.603 144.171C439.681 143.862 440.313 142.746 440.024 141.663C439.701 140.595 438.596 139.969 437.515 140.242L437.564 140.193Z" fill="#382C80"/>
<path d="M400.04 97.6412C401.833 103.982 408.115 108.078 414.436 109.96C421.043 111.904 428.044 112.083 434.742 110.479C441.2 108.931 446.629 106.148 453.127 109.646C456.41 111.41 459.193 113.988 462.388 115.928C466.945 118.692 472.188 120.064 477.401 121.21C482.028 122.367 486.774 122.979 491.543 123.033C503.199 122.828 513.985 116.822 520.296 107.02C526.303 97.2884 526.676 84.225 520.864 74.3662" fill="#382C80"/>
<path d="M396.178 98.7096C399.481 110.048 411.31 115.193 422.217 116.271C429.077 116.947 435.3 115.458 441.876 113.89C445.169 113.096 448.001 112.91 451.049 114.635C453.695 116.134 455.949 118.241 458.448 119.946C468.434 126.806 483.565 130.079 495.521 128.668C507.576 127.303 518.412 120.682 525.127 110.577C532.496 99.2486 533.565 82.8238 525.94 71.3774C521.687 64.9976 512.671 70.4856 515.797 77.3064C520.913 88.4784 519.56 101.316 510.162 109.784C500.049 118.898 486.995 117.761 474.735 114.546C471.425 113.84 468.225 112.693 465.219 111.136C462.799 109.725 460.633 107.922 458.271 106.422C452.166 102.502 446.011 102.081 439.132 103.943C432.252 105.805 425.951 107.441 418.787 106.167C413.034 105.187 406.194 102.483 403.95 96.5732C402.156 91.8104 394.699 93.6332 396.178 98.7096Z" fill="#382C80"/>
<path d="M704.967 642.266C703.366 644.327 701.471 646.14 699.342 647.647C678.105 662.739 637.455 662.846 612.474 665.551C465.641 681.476 317.906 687.748 170.24 690.747C143.456 691.296 114.046 697.107 99.6012 669.314C92.7412 656.153 91.232 640.963 89.8894 626.194C85.6296 578.998 82.1408 531.739 79.423 484.418C78.0706 460.761 76.924 437.094 75.9832 413.417C75.3364 397.306 69.9072 371.042 80.3148 357.037C91.7808 341.602 125.571 342.181 142.604 339.897C193.289 333.096 244.435 330.999 295.484 328.039C401.461 321.895 507.252 312.055 612.367 297.228C623.852 295.601 635.691 293.945 646.931 296.807C681.31 305.558 680.094 343.406 685.857 371.287C695.608 418.66 701.88 466.592 706.839 514.7C709.298 538.759 711.386 562.847 713.405 586.945C714.816 603.713 716.06 628.007 704.967 642.266Z" fill="#7F72FF"/>
<path d="M701.223 638.523C694.01 647.343 681.829 650.92 671.118 653.389C658.799 656.222 646.177 657.407 633.603 658.436C603.576 660.896 573.647 664.365 543.639 667.031C475.902 673.048 408.007 677.233 340.064 680.202C306.221 681.679 272.375 682.881 238.526 683.809C208.146 684.671 177.697 685.837 147.298 686.298C136.969 686.455 125.904 686.004 116.781 680.594C105.481 673.891 100.64 660.72 98.1018 648.45C94.809 632.613 94.2798 616.061 92.8882 599.96C91.4574 583.058 90.1279 566.143 88.8996 549.215C86.4692 515.53 84.4373 481.811 82.804 448.06C82.0886 433.272 81.8828 418.405 80.5696 403.656C79.5308 391.955 77.757 379.313 81.0106 367.808C83.8526 357.753 91.9082 353.323 101.453 350.687C111.743 347.835 122.445 347.09 133.039 346.169C146.935 344.964 160.743 342.857 174.62 341.475C191.672 339.78 208.754 338.476 225.855 337.359C293.298 332.959 360.742 329.627 428.078 323.639C462.051 320.601 495.992 317.109 529.9 313.163C546.697 311.203 563.481 309.122 580.252 306.92C596.628 304.764 613.2 301.393 629.703 300.658C642.012 300.119 654.516 302.755 663.091 312.163C669.501 319.2 672.529 328.706 674.616 337.8C676.89 347.708 678.017 357.821 679.781 367.827C682.476 383.056 685.749 398.207 688.297 413.436C693.873 446.756 698.009 480.253 701.449 513.828C703.154 530.38 704.683 547.04 706.133 563.7C707.348 577.675 709.073 591.757 709.014 605.84C708.955 617.6 707.632 629.977 700.4 639.65C696.313 645.108 705.506 650.43 709.543 645.001C717.295 634.632 719.265 621.049 719.569 608.437C719.912 594.099 718.109 579.703 716.874 565.454C713.865 530.762 710.504 496.099 706.015 461.574C703.801 444.561 701.341 427.588 698.509 410.614C695.872 394.856 692.413 379.254 689.738 363.496C686.308 343.406 685.024 320.523 670.579 304.696C649.45 281.46 614.033 291.799 587.22 295.386C552.24 300.05 517.199 304.193 482.095 307.812C411.917 315.084 341.563 320.209 271.121 324.109C236.037 326.069 200.933 328.029 165.986 331.783C152.903 333.194 139.889 334.948 126.786 336.124C115.477 337.104 103.727 338.231 93.0352 342.288C82.7354 346.208 74.8856 352.676 71.3184 363.368C67.3984 375.04 68.6234 388.064 69.6916 400.079C72.5728 432.752 73.004 465.739 74.9738 498.442C77.0906 533.473 79.6386 568.482 82.6178 603.468C84.0192 619.844 84.6464 636.68 88.2332 652.762C91.1732 665.875 96.867 679.056 107.833 687.307C127.09 701.743 154.873 696.372 177.227 695.902C212.507 695.157 247.816 694.177 283.155 692.962C353.715 690.531 424.324 686.984 494.757 681.613C529.971 678.928 565.144 675.76 600.273 672.107C626.087 669.403 652.968 669.216 678.164 662.503C689.159 659.563 701.292 655.046 708.701 645.971C712.993 640.777 705.545 633.28 701.223 638.523Z" fill="#7F72FF"/>
<path d="M445.924 314.231C446.59 305.941 446.61 297.571 446.904 289.3C447.198 281.029 448.06 272.64 447.884 264.379C447.786 257.342 437.986 257.715 437.212 264.379C436.232 272.601 436.457 281.039 436.428 289.3C436.256 297.618 436.501 305.939 437.163 314.231C437.163 316.629 439.106 318.573 441.504 318.573C443.902 318.573 445.845 316.629 445.845 314.231H445.924Z" fill="#382C80"/>
<path d="M463.172 299.149C469.561 299.149 469.571 289.222 463.172 289.222C456.772 289.222 456.772 299.149 463.172 299.149Z" fill="#382C80"/>
<path d="M233.323 320.043C236.704 329.392 239.565 331.646 242.936 340.995C244.305 344.373 245.275 347.899 245.827 351.501C246.807 360.184 243.926 365.378 236.41 368.945C229.971 371.993 223.033 372.737 217.917 366.926C225.149 375.138 219.583 389.525 209.499 393.778C199.415 398.031 187.527 394.444 178.511 388.231C183.205 394.866 177.423 404.744 169.691 407.184C161.959 409.625 153.6 407.037 145.897 404.46C147.455 408.919 144.642 414.084 140.448 416.22C136.254 418.356 131.128 418.023 126.659 416.504C112.939 411.839 104.619 397.286 102.963 382.92C99.778 355.362 103.757 330.646 123.014 309.008C145.662 283.577 177.531 273.63 210.4 283.048" fill="white"/>
<path d="M237.556 279.118C234.061 281.087 229.991 281.78 226.041 281.078C218.426 279.931 211.233 276.756 203.658 275.345C174.613 269.756 144.682 278.87 123.68 299.698C113.056 309.898 105.08 322.536 100.444 336.516C96.0048 350.295 95.3678 365.083 96.7594 379.401C98.249 394.807 104.237 410.359 118.084 418.738C125.062 422.962 134.215 425.04 141.928 421.678C149.232 418.607 153.202 410.666 151.277 402.98L144.417 409.84C155.03 413.358 167.937 416.602 177.56 409.046C184.607 403.538 188.242 393.523 183.176 385.526L175.826 392.876C187.645 400.647 204.893 404.999 216.937 395.218C226.492 387.457 229.5 373.237 221.455 363.417L214.428 370.444C224.463 380.685 244.112 375.726 249.316 362.535C255.353 347.247 242.554 332.322 237.144 319.004C235.292 314.447 227.893 316.211 229.569 321.091C233.244 331.871 241.26 342.318 241.398 354.009C241.398 358.321 239.888 361.467 236.125 363.672C231.294 366.504 225.669 367.837 221.425 363.417C216.907 358.694 210.508 365.573 214.399 370.444C218.965 376.147 214.399 385.212 208.852 388.358C199.973 393.405 188.87 388.78 181.216 383.605C176.708 380.557 171.151 386.545 173.876 390.945C176.345 394.973 172.788 399.893 168.976 401.598C162.321 404.538 153.786 401.186 147.416 399.079C143.28 397.707 139.478 402.019 140.556 405.939C142.32 412.545 132.716 412.525 128.894 411.32C123.663 409.505 119.146 406.073 115.997 401.52C108.843 391.671 107.902 379.313 107.863 367.543C107.863 355.577 109.656 343.337 114.723 332.39C120.135 320.956 128.077 310.902 137.949 302.99C156.829 287.649 181.817 282.064 205.432 287.908C212.096 289.564 218.505 292.122 225.345 293.024" fill="#382C80"/>
<path d="M452.47 170.465C448.001 170.955 443.719 171.073 439.799 168.574C437.535 167.133 434.732 170.612 436.859 172.356C441.612 176.208 447.335 175.796 453.019 174.728C455.4 174.277 454.891 170.191 452.45 170.465H452.47Z" fill="#382C80"/>
<path d="M418.503 837.423C418.746 823.419 421.942 809.624 427.882 796.939C430.224 791.843 422.864 787.335 420.238 792.471C413.206 806.395 409.751 821.85 410.183 837.443C410.301 842.784 418.435 842.803 418.503 837.443V837.423Z" fill="#382C80"/>
<path d="M434.213 774.909C438.897 774.909 438.907 767.628 434.213 767.628C429.518 767.628 429.518 774.909 434.213 774.909Z" fill="#382C80"/>
<path d="M82.3732 452.294C120.064 474.54 159.793 493.767 199.973 511.094C240.119 528.529 281.236 543.637 323.12 556.34C343.965 562.603 366.171 570.56 388.28 569.58C410.908 568.6 428.166 555.331 445.865 542.66C484.065 515.311 522.109 487.744 559.996 459.957C602.554 428.741 644.929 397.273 687.121 365.554C692.639 361.369 687.259 351.903 681.604 356.117C607.732 411.323 533.399 465.896 458.605 519.835C449.21 526.578 439.815 533.297 430.42 539.994C422.022 545.952 413.339 552.156 403.5 555.507C382.655 562.612 360.38 555.507 340.094 549.696C298.424 537.882 257.403 523.888 217.202 507.772C172.269 489.671 129.051 468.297 86.3618 445.473C81.8832 443.082 77.973 449.707 82.3732 452.333V452.294Z" fill="#382C80"/>
<path d="M144.475 664.042C164.075 642.071 183.555 619.959 202.913 597.706L231.607 564.612C240.182 554.723 248.61 544.737 259.292 537.044C264.192 533.516 259.714 525.382 254.471 528.793C243.504 535.917 234.969 546.001 226.541 555.841L197.464 589.778C177.864 612.645 158.454 635.655 139.232 658.809C136.234 662.416 141.261 667.629 144.475 664.042Z" fill="#382C80"/>
<path d="M628.272 613.474C591.846 572.314 555.84 530.586 517.532 491.19C512.368 485.878 504.724 493.757 509.486 499.226C545.521 540.66 584.094 580.017 621.99 619.766C625.91 623.921 632.006 617.747 628.253 613.513L628.272 613.474Z" fill="#382C80"/>
<path d="M400.04 465.24C363.437 423.1 326.54 502.568 379.656 504.283C388.564 504.567 397.826 500.559 402.588 493.023C407.88 484.604 406.567 472.766 400.04 465.24Z" fill="#382C80"/>
<path d="M402.52 462.76C395.111 453.871 384.605 446.61 372.522 448.815C363.026 450.549 355.225 457.948 351.168 466.455C346.875 475.441 345.954 486.339 350.864 495.306C356.842 506.223 370.317 510.711 382.224 510.006C393.082 509.398 403.99 503.724 408.88 493.679C414.103 482.946 412.063 470.094 403.774 461.506C399.668 457.38 392.132 462.799 395.523 467.866C399.609 473.971 401.844 482.076 398.218 488.946C394.699 495.61 386.889 498.638 379.676 498.491C375.258 498.518 370.895 497.511 366.936 495.551C364.112 494.153 361.818 491.877 360.399 489.063C359.125 486.475 358.529 483.605 358.665 480.723C358.775 477.519 359.466 474.361 360.703 471.404C362.83 466.19 367.563 460.526 373.149 458.497C382.42 455.155 391.279 461.016 397.581 467.729C400.687 471.11 405.391 466.18 402.52 462.76Z" fill="#382C80"/>
<path d="M710.308 158.892C717.972 163.135 726.968 164.429 734.808 168.202C742.648 171.975 749.959 179.864 748.44 188.488C747.529 193.662 743.638 197.827 739.326 200.806C733.888 204.549 727.603 206.88 721.039 207.588C725.229 218.805 724.456 231.274 718.913 241.888" fill="white"/>
<path d="M708.26 162.39C713.944 165.859 720.128 167.868 726.341 170.132C732.103 172.229 738.042 174.836 741.492 180.197C749.332 192.408 730.712 201.179 721.068 201.874C717.658 202.119 714.208 205.363 715.561 209.107C719.481 219.955 717.776 229.942 714.012 240.555C711.974 246.298 720.255 249.022 723.352 244.475C730.839 233.479 730.986 218.25 726.576 206.049L722.587 213.076C737.209 210.449 757.867 199.473 753.252 181.422C751.36 174.003 745.186 167.908 738.552 164.438C730.261 160.107 720.804 159.176 712.346 155.373C707.672 153.276 703.703 159.597 708.25 162.371L708.26 162.39Z" fill="#382C80"/>
<path d="M834.357 233.528C842.275 222.405 852.487 213.135 862.61 203.962L955.602 119.682C957.053 118.378 958.591 116.879 958.738 114.929C958.924 112.547 956.955 110.597 955.142 109.049L919.587 78.1689C896.626 114.429 869.842 147.435 840.629 178.756C824.566 167.614 821.087 145.524 802.918 136.097C793.716 147.406 784.602 158.304 773.342 167.721C777.967 172.249 835.572 232.313 834.357 233.528Z" fill="white"/>
<path d="M837.12 236.321C846.116 224.875 857.318 215.447 868.303 206C880.651 195.377 892.735 184.489 904.828 173.582C916.686 162.88 928.531 152.159 940.363 141.418C946.393 135.963 952.417 130.501 958.434 125.033C963.06 120.819 966.676 115.448 963.03 109.235C961.07 105.864 957.562 103.424 954.651 100.895L944.802 92.3201C937.779 86.2245 930.746 80.1355 923.703 74.0529C922.417 72.7986 920.628 72.2008 918.847 72.4299C917.065 72.6591 915.486 73.69 914.559 75.2289C892 110.94 865.285 143.751 836.522 174.64L843.558 173.729C835.885 168.221 831.338 159.617 826.301 151.865C820.891 143.555 814.707 135.881 805.848 131.079C803.77 129.962 800.458 129.982 798.821 131.991C789.668 143.221 780.397 154.295 769.255 163.635C766.864 165.595 767.187 169.75 769.255 171.798C787.493 189.899 805.064 208.93 822.263 228.011C824.086 230.03 825.909 232.058 827.653 234.146C828.221 234.812 830.034 236.331 828.555 235.194C828.76 235.394 828.926 235.63 829.045 235.89C829.045 235.959 829.143 236.008 829.162 236.086C828.741 234.126 827.29 234.587 829.28 230.559C825.948 237.311 836.071 243.299 839.423 236.488C841.824 231.588 837.718 227.844 834.787 224.444C830.534 219.544 826.105 214.742 821.685 209.959C810.474 197.853 799.122 185.884 787.63 174.052C784.249 170.563 780.907 167.026 777.418 163.635V171.798C788.443 162.38 797.881 151.385 807.014 140.183L799.997 141.085C808.592 145.75 813.717 153.639 818.813 161.665C824.105 170.005 829.593 177.904 837.698 183.735C839.658 185.175 843.098 184.577 844.734 182.833C874.134 151.228 901.339 117.506 924.614 81.0795L915.52 82.2849C926.692 92.0261 937.877 101.758 949.075 111.479C950.173 112.459 951.231 113.576 952.387 114.419C953.142 114.988 952.77 114.811 952.966 114.086C952.897 114.341 952.113 114.968 951.986 115.066C949.114 117.33 946.507 120.044 943.803 122.494L926.996 137.704C905.044 157.578 882.896 177.286 861.483 197.739C850.467 208.244 839.511 218.721 831.034 231.461C828.496 235.214 834.356 239.879 837.12 236.321Z" fill="#382C80"/>
<path d="M687.787 867.372C682.388 866.598 678.644 863.011 676.37 858.18C674.606 854.456 671.96 847.116 673.195 842.99C674.116 839.913 678.34 839.825 680.888 840.903C685.504 842.863 688.258 848.253 690.629 852.339C693.432 857.18 701.164 855.093 701.145 849.497C701.145 843.451 701.929 837.825 706.045 833.072C707.593 831.289 709.965 828.417 712.385 829.907C715.139 831.593 714.698 836.355 714.287 839.011L726.154 840.618C726.086 837.433 728.33 835.111 731.339 834.278C734.925 833.298 738.63 835.258 741.246 837.6C746.039 841.902 752.624 853.28 743.971 857.082C737.905 859.719 742.246 870.165 748.518 867.862C767.138 861.002 760.582 837.482 748.391 827.633C742.226 822.645 734.043 820.078 726.37 822.998C719.147 825.742 713.356 832.602 714.071 840.638C714.767 848.478 725.292 848.341 726.154 840.638C726.909 833.954 726.292 826.781 721.254 821.773C716.68 817.08 709.495 816.11 703.84 819.421C693.373 825.301 687.18 839.364 690.12 850.997L700.429 846.645C696.108 839.785 690.992 832.21 682.623 830.054C675.841 828.3 667.697 830.642 664.179 837.012C660.259 844.107 663.679 855.269 666.884 862.071C670.608 869.911 677.831 875.624 686.7 875.859C691.443 875.987 692.756 868.068 687.846 867.372H687.787Z" fill="#382C80"/>
<path d="M520.325 751.39C515.817 757.025 512.721 763.953 514.445 771.313C515.802 777.832 520.845 782.956 527.342 784.416C534.643 785.915 541.552 782.26 546.854 777.556C552.156 772.852 558.095 766.982 556.654 759.249L547.04 763.287C551.391 771.862 559.3 779.261 569.453 779.163C574.12 779.18 578.632 777.485 582.134 774.4C582.683 773.9 586.054 770.549 585.701 769.804C582.866 770.457 582.402 771.036 584.31 771.539L585.603 772.087C586.713 772.512 587.857 772.84 589.023 773.067C597.745 774.773 607.918 771.196 611.083 762.287C613.935 754.271 609.878 744.549 601.391 742.305C596.256 740.953 592.473 748.842 597.647 751.194C599.452 752.051 600.697 753.766 600.955 755.747C601.212 757.728 600.446 759.704 598.921 760.994C593.639 765.257 588.524 760.073 583.143 760.249C576.822 760.445 576.283 768.04 570.051 768.697C563.416 769.392 558.741 763.228 556.086 757.995C553.253 752.389 545.521 756.535 546.531 762.033C546.923 764.14 540.915 769.01 539.514 770.255C536.76 772.705 533.203 775.067 529.322 774.518C520.09 773.185 523.765 761.562 527.362 756.77C530.302 752.742 523.53 747.431 520.374 751.38L520.325 751.39Z" fill="#382C80"/>
<path d="M546.785 843.372C543.493 839.452 539.69 832.073 546.56 829.153C550.578 827.447 554.978 831.955 551.195 835.033C546.295 839.06 552.646 847.087 557.918 843.745C563.534 840.197 571.266 839.501 576.136 844.901C581.007 850.301 579.821 857.867 575.901 863.247C572.275 868.225 580.311 874.34 584.417 869.813C592.659 860.709 592.669 845.93 584.104 836.924C575.539 827.918 560.682 827.349 551.195 835.033L559.035 842.873C568.737 832.73 559.359 815.227 545.315 818.99C531.595 822.675 528.783 843 541.954 849.517C543.67 850.727 546.035 850.37 547.317 848.707C548.599 847.043 548.343 844.666 546.736 843.314L546.785 843.372Z" fill="#382C80"/>
<path d="M770.48 695.02C761.071 692.579 751.199 696.784 746.441 705.261C741.541 714.248 744.108 725.322 750.674 732.701C757.956 740.884 770.049 743.197 780.358 740.541C785.258 739.296 790.511 736.797 792.383 731.799C794.23 727.216 792.41 721.973 788.12 719.52C784.092 717.227 779.839 720.216 779.476 724.479C778.82 732.064 779.241 740.257 783.661 746.754C787.365 752.203 793.579 756.084 800.321 755.898C801.85 755.898 803.624 754.986 805.113 755.143C806.603 755.3 808.612 757.034 810.209 757.544C813.419 758.524 816.848 758.524 820.058 757.544C827.663 755.27 832.004 748.538 835.307 741.864C838.443 735.484 829.505 730.104 825.693 736.249C823.439 739.894 820.793 745.157 816.236 746.303C813.904 746.891 812.316 745.5 810.248 744.618C807.814 743.531 805.105 743.216 802.487 743.716C791.266 745.676 790.345 732.799 790.991 724.538L782.348 729.496C782.416 728.095 782.113 727.605 781.446 728.046L780.731 728.448C779.702 728.546 778.428 729.369 777.35 729.653C774.716 730.357 771.975 730.567 769.265 730.271C763.885 729.829 759.053 726.808 756.299 722.166C753.996 718.109 753.301 712.885 755.878 708.779C758.455 704.673 763.326 701.919 768.285 703.095C773.479 704.369 775.684 696.451 770.5 695.079L770.48 695.02Z" fill="#382C80"/>
<path d="M774.018 615.885C765.462 623.725 767.922 637.572 777.516 643.325C789.129 650.273 802.8 644.609 811.277 635.485C816.324 630.085 808.337 622 803.153 627.351C798.469 632.251 792.265 636.68 785.141 635.024C779.329 633.672 774.821 626.635 779.917 621.784C783.837 618.06 777.957 612.259 774.037 615.904L774.018 615.885Z" fill="#382C80"/>
<path d="M706.506 674.146C708.858 673.832 709.759 677.527 709.769 679.046C709.769 681.986 708.701 685.279 707.956 688.131C706.741 692.766 713.836 696.157 715.963 691.512C718.717 685.632 720.863 678.772 717.59 672.637C715.131 667.675 709.693 664.932 704.242 665.904C698.774 666.835 701.194 674.842 706.506 674.117V674.146Z" fill="#382C80"/>
<path d="M171.553 849.165C171.171 845.696 173.905 840.698 178.139 842.011C180.638 842.785 182.264 846.489 180.941 848.714C177.413 854.653 185.234 859.955 190.104 855.78C194.387 852.115 201.031 849.812 205.628 854.339C209.459 858.112 207.588 863.512 202.56 864.845C196.504 866.462 197.758 875.713 204.03 875.733C218.054 875.782 224.061 858.779 216.319 848.293C207.793 836.778 191.378 837.993 181.853 847.509L191.604 853.183C194.171 844.363 189.193 834.102 179.658 832.515C169.387 830.809 161.528 840.688 163.105 850.272C163.88 855.006 172.092 853.957 171.553 849.135V849.165Z" fill="#382C80"/>
<path d="M220.611 750.939C219.533 759.759 221.003 770.481 229.284 775.518C236.576 779.947 246.18 778.379 250.844 771.088C254.529 765.336 245.366 760.024 241.701 765.747C239.849 768.687 234.988 767.893 232.646 766.031C228.236 762.543 228.089 755.996 228.638 750.939C229.186 745.883 221.229 745.892 220.611 750.939Z" fill="#382C80"/>
<path d="M105.893 770.539C97.553 767.688 98.141 757.202 103.051 751.567C105.324 748.94 109.578 745.941 112.606 749.117C115.487 752.145 114.566 757.241 113.115 760.7C111.959 763.464 114.095 766.786 116.614 767.825C119.554 769.079 122.327 767.825 124.15 765.355C126.551 762.131 131.343 760.142 134.852 762.797C137.958 765.13 137.302 769.295 133.382 770.069C128.433 771.049 127.11 779.193 131.912 781.339C138.194 784.152 141.222 792.119 135.332 797.146C129.815 801.85 121.818 798.607 119.652 792.041C117.447 785.239 107.608 788.032 108.999 794.981C112.126 810.661 131.079 816.688 143.103 806.741C155.128 796.794 152.335 777.066 138.086 770.726L136.616 781.996C149.17 779.506 152.864 763.523 144.221 754.82C134.813 745.353 120.818 749.528 113.674 759.299L124.924 762.347C125.904 754.193 125.806 745.883 118.731 740.336C111.871 734.965 103.051 737.249 97.1708 742.943C86.3124 753.487 87.3708 773.94 103.776 778.154C108.676 779.428 110.636 772.196 105.863 770.579L105.893 770.539Z" fill="#382C80"/>
<path d="M154.472 721.187C153.265 725.961 155.348 730.96 159.587 733.466C164.164 736.288 169.74 735.357 174.699 734.25C181.314 732.76 178.501 722.265 171.886 724.038C169.926 724.548 167.574 725.42 165.536 725.018C164.762 724.862 163.194 724.107 163.292 723.627C164.379 717.913 156.079 715.463 154.472 721.196V721.187Z" fill="#382C80"/>
<path d="M568.894 693.678C575.509 699.754 585.828 701.773 593.325 696.03C597.97 692.472 594.06 685.015 588.602 687.955C584.515 690.169 578.88 690.601 575.185 687.396C570.893 683.672 564.641 689.777 568.894 693.678Z" fill="#382C80"/>
</svg>
