<svg width="1000" height="1000" viewBox="0 0 1000 1000" fill="none" xmlns="http://www.w3.org/2000/svg">
<path d="M779.957 744.098C794.47 728.203 816.932 721.999 838.423 720.774C846.126 720.343 853.956 720.461 861.395 722.509C865.903 723.753 870.126 727.272 874.458 728.281C879.485 729.457 879.466 728.281 884.552 727.869C900.418 726.693 923.566 727.869 923.321 749.625C923.233 756.613 919.665 763.179 914.932 768.304C911.012 772.548 906.239 776.046 903.025 780.838C898.37 787.777 902.329 793.892 900.085 800.958C898.458 806.113 894.852 809.317 890.011 811.483C880.367 815.815 867.98 815.472 860.219 823.508C851.663 832.328 854.417 847.488 847.753 857.808C836.179 875.8 810.415 861.081 796.891 874.35C792.589 878.574 791.187 885.022 787.179 889.53C763.395 916.176 714.444 870.91 685.191 879.426C674.009 882.68 663.356 892.245 652.292 888.58C641.884 885.13 638.513 871.92 639.376 861.002C641.394 835.375 660.161 815.246 680.928 802.104C701.694 788.963 727.889 793.902 742.168 770.107" fill="#382C80"/>
<path d="M782.24 746.411C791.727 737.16 803.447 731.31 816.256 728.174C829.309 724.989 844.451 723.342 857.651 726.351C864.511 727.899 869.832 732.946 876.986 733.475C879.182 733.632 881.201 733.054 883.347 732.77C885.869 732.505 888.405 732.388 890.942 732.417C898.517 732.339 908.16 732.642 914.079 738.101C922.9 746.255 916.784 759.475 909.787 766.452C904.887 771.352 898.84 775.9 896.557 782.74C894.597 788.679 897.449 795.48 894.597 801.115C892.01 806.211 885.875 807.887 880.769 809.239C874.781 810.817 868.637 812.042 863.129 815.031C851.457 821.362 849.742 833.19 847.155 844.97C846.038 850.056 844.47 855.495 840.188 858.857C836.846 861.483 832.445 862.306 828.32 862.63C818.392 863.404 807.867 862.032 798.733 866.863C793.51 869.627 790.237 874.213 787.591 879.348C785.307 883.758 782.985 887.698 778.624 890.285C771.979 894.205 763.787 893.5 756.476 891.863C737.66 887.649 720.608 877.163 701.468 874.223C697.298 873.492 693.047 873.347 688.836 873.792C682.878 874.527 677.507 877.045 672.176 879.672C666.845 882.298 660.72 885.669 654.624 884.16C649.862 882.974 647.029 878.643 645.638 874.194C642.188 863.149 645.148 850.556 650.303 840.521C655.957 829.476 664.64 820.205 674.322 812.62C678.856 808.921 683.787 805.736 689.022 803.124C694.024 800.885 699.207 799.079 704.516 797.724C714.855 794.784 725.616 792.119 734.347 785.543C739.066 781.976 743.058 777.538 746.107 772.47C749.136 767.511 741.394 763.022 738.346 767.932C731.858 778.389 721.686 783.23 710.239 786.552C698.793 789.874 687.151 792.618 676.919 799.224C654.977 813.365 635.416 835.572 634.407 862.924C633.976 874.684 638.2 888.688 650.224 893.166C664.209 898.37 675.498 886.581 688.376 883.837C696.666 882.063 706.016 884.944 713.944 887.58C723.91 890.883 733.544 895.058 743.52 898.36C752.536 901.379 762.297 903.937 771.872 902.751C782.505 901.428 790.668 895.244 795.607 885.807C798.185 880.907 800.605 876.428 806.191 874.625C810.866 873.125 815.805 873.125 820.656 873.027C831.436 872.822 843.069 872.047 850.36 862.943C854.427 857.837 856.24 851.644 857.475 845.303C858.602 839.639 859.239 832.985 862.874 828.241C866.51 823.498 872.674 821.803 878.231 820.401C884.415 818.824 891.069 817.461 896.4 813.786C902.126 809.927 905.657 803.557 905.896 796.656C906.024 793.647 905.338 790.551 905.74 787.552C906.249 783.749 909.268 780.888 911.874 778.34C917.353 772.95 922.772 767.903 925.849 760.7C928.457 754.71 928.975 748.017 927.319 741.698C924.556 731.613 915.559 725.89 905.759 723.969C900.915 723.053 895.987 722.656 891.059 722.784C888.923 722.833 886.767 722.94 884.64 723.136C881.886 723.381 879.113 724.391 876.389 723.901C872.949 723.283 870.028 721.147 866.912 719.716C863.191 718.115 859.243 717.1 855.211 716.708C847.537 715.917 839.797 716.038 832.151 717.07C818.431 718.668 804.77 722.156 792.834 729.242C787.127 732.563 782.018 736.82 777.722 741.835C775.037 745.02 779.29 749.469 782.358 746.47L782.24 746.411Z" fill="#382C80"/>
<path d="M790.394 434.212C788.865 471.58 776.282 507.389 769.118 544.1C759.524 593.247 765.286 656.094 797.322 694.589C823.096 725.547 850.536 754.868 875.957 786.16C892.216 806.162 908.033 825.585 923.252 846.743C924.678 848.474 925.741 850.474 926.378 852.623C927.153 856.053 925.751 859.542 923.997 862.423C918.313 871.861 907.523 879.201 899.997 887.178C890.599 897.145 880.74 906.631 870.646 915.765C864.433 921.4 839.619 951.417 833.131 933.532C831.456 928.907 832.416 923.732 833.837 919.116C836.375 910.875 840.295 903.25 843.372 895.244C846.45 887.237 848.704 878.584 847.645 869.842C844.519 843.921 812.091 828.525 793.539 815.638C772.587 801.085 750.998 787.287 732.093 769.98C701.39 741.854 672.852 701.38 668.452 658.142C665.032 624.597 673.744 590.611 687.846 560.319C701.949 530.027 721.255 502.881 740.443 475.941" fill="white"/>
<path d="M787.61 434.213C785.65 476.294 769.5 515.709 763.943 557.193C759.435 590.924 761.532 626.773 773.488 658.819C779.496 674.92 788.188 688.807 799.204 701.939C813.394 718.844 828.055 735.357 842.549 752.017C856.922 768.494 870.927 785.249 884.562 802.281C891.422 810.797 898.282 819.343 904.897 828.016C908.216 832.341 911.482 836.689 914.697 841.06C916.255 843.186 917.813 845.313 919.352 847.449C920.89 849.586 923.046 852.026 922.968 854.878C922.84 859.386 918.822 863.845 915.941 866.981C912.825 870.362 909.375 873.419 905.955 876.477C898.536 883.092 891.853 890.412 884.748 897.351C878.642 903.319 872.086 908.866 866.069 914.912C862.453 918.548 858.935 922.282 855.152 925.761C851.369 929.24 847.126 933.15 842.216 934.816C840.599 935.365 839.276 935.532 838.364 934.865C836.404 933.425 835.973 929.407 836.13 926.937C836.757 916.921 842.765 907.141 846.43 897.988C850.173 888.639 852.79 878.603 851.33 868.48C849.233 853.623 838.364 842.196 826.977 833.376C815.011 824.096 801.771 816.491 789.306 807.896C771.832 795.882 754.104 784.112 738.179 770.049C724.053 757.657 711.477 743.603 700.723 728.193C689.943 712.64 681.182 695.598 676.223 677.302C670.902 657.702 670.706 637.033 674.067 617.081C681.153 575.146 702.654 537.946 726.282 503.254C732.064 494.767 737.993 486.388 743.922 477.999C746.979 473.687 739.894 469.62 736.846 473.863C711.778 508.83 686.621 544.482 673.146 585.789C666.472 606.222 662.69 627.929 663.591 649.43C664.424 669.128 669.648 688.042 678.125 705.8C695.353 741.874 723.9 771.029 755.888 794.372C771.195 805.544 786.895 816.373 802.928 826.516C815.442 834.454 829.29 842.745 837.767 855.27C842.38 861.862 844.512 869.875 843.784 877.888C842.804 888.619 837.727 898.468 833.66 908.268C830.083 916.912 825.82 927.515 830.24 936.619C832.367 941.321 837.528 943.856 842.549 942.666C847.841 941.617 852.506 937.982 856.563 934.63C860.971 930.851 865.165 926.83 869.127 922.586C874.027 917.49 879.387 912.845 884.503 907.945C892.196 900.575 899.291 892.559 907.043 885.307C913.903 878.946 921.419 873.047 926.496 865.089C928.926 861.277 930.739 856.749 929.857 852.173C928.877 847.175 924.957 842.971 922.017 839.002C908.846 821.126 894.871 803.878 880.857 786.67C866.49 769.03 851.565 751.889 836.532 734.818C829.172 726.449 821.832 718.089 814.501 709.671C807.71 701.831 800.517 694.079 794.549 685.563C774.4 656.8 767.657 620.05 768.01 585.476C768.196 567.003 770.891 548.971 774.929 530.978C779.829 509.418 785.787 488.044 789.629 466.229C791.522 455.646 792.723 444.952 793.226 434.213C793.382 430.626 787.826 430.645 787.659 434.213H787.61Z" fill="#382C80"/>
<path d="M833.866 462.682C840.312 502.192 837.592 542.655 825.918 580.948C814.433 618.845 792.285 650.479 772.998 684.456C768.794 691.855 764.521 699.293 761.817 707.476C758.563 717.276 757.71 727.84 757.034 738.238C754.29 779.976 753.81 821.812 750.605 863.511C748.557 890.187 746.597 916.098 743.05 942.803C742.899 945.089 742.304 947.323 741.295 949.379C739.541 952.417 736.219 953.838 733.044 954.583C722.734 956.994 710.269 954.014 699.655 953.975C686.406 953.975 673.146 953.191 659.965 952.015C651.841 951.3 614.366 953.828 621.824 936.12C623.784 931.533 627.88 928.583 631.986 926.32C639.287 922.4 647.137 919.92 654.654 916.52C662.17 913.119 669.579 908.68 674.685 901.643C688.483 882.661 676.811 839.305 675.204 817.304C672.862 785.219 671.284 752.948 673.332 720.696C678.781 634.103 710.416 548.853 761.189 483.026" fill="white"/>
<path d="M831.181 463.417C837.806 504.46 834.362 546.499 821.146 585.917C808.562 623.098 785.376 655.114 766.56 689.14C761.836 697.705 757.994 706.535 756.123 716.178C754.163 726.527 753.663 737.14 753.036 747.626C751.742 769.186 750.968 790.746 750.008 812.306C748.048 855.377 745.313 898.684 739.521 941.431C739.218 943.734 739.061 946.547 737.424 948.37C736.052 949.889 733.945 950.516 732.025 950.967C727.526 952.035 722.773 951.849 718.207 951.545C713.64 951.241 708.808 950.624 704.104 950.33C699.087 950.006 694.04 950.114 689.022 949.957C675.028 949.506 661.053 948.37 647.068 947.733C642.15 947.638 637.255 947.024 632.466 945.9C630.507 945.47 628.631 944.725 626.91 943.695C625.829 943.163 625.039 942.18 624.754 941.01C623.499 934.748 633.407 929.799 638.366 927.515C646.97 923.595 656.163 920.89 664.326 915.981C670.951 911.992 677.213 906.504 680.584 899.399C683.407 893.431 684.573 886.924 685.053 880.387C686.16 865.226 683.613 849.919 681.408 834.964C678.918 818.02 677.948 800.968 677.184 783.857C676.083 762.239 676.197 740.576 677.527 718.971C682.713 643.446 707.296 570.537 748.9 507.291C753.905 499.726 759.164 492.34 764.678 485.133C766.04 483.369 764.943 480.567 763.208 479.538C761.111 478.283 758.955 479.263 757.612 481.008C710.347 542.532 681.3 616.973 671.715 693.805C669.173 714.789 668.034 735.918 668.305 757.054C668.501 778.251 669.285 799.713 671.461 820.803C673.019 835.503 676.076 850.105 677.037 864.903C677.938 878.917 677.899 894.587 666.639 904.642C659.367 911.13 649.891 914.305 641.032 917.921C632.966 921.214 623.166 924.967 618.884 933.18C616.483 937.766 616.051 943.293 619.521 947.448C622.461 950.996 627.204 952.682 631.584 953.691C640.747 955.778 650.077 955.249 659.377 955.818C669.716 956.445 679.957 957.356 690.365 957.601C695.333 957.729 700.312 957.601 705.271 957.954C710.229 958.307 715.463 958.934 720.578 959.159C728.595 959.463 739.874 959.091 744.461 951.212C746.793 947.194 746.822 941.931 747.401 937.443C748.106 931.713 748.76 925.977 749.361 920.234C751.624 898.223 753.369 876.134 754.829 854.064C756.319 831.632 757.122 809.17 758.034 786.709C758.485 775.478 758.955 764.247 759.553 753.026C760.121 742.178 760.396 731.153 762.14 720.412C765.443 700.136 777.663 682.603 787.963 665.248C798.145 648.098 808.435 630.948 816.844 612.847C834.317 575.215 841.99 533.134 839.864 491.729C839.338 481.734 838.242 471.777 836.581 461.907C835.993 458.379 830.701 459.889 831.22 463.387L831.181 463.417Z" fill="#382C80"/>
<path d="M621.804 936.1C623.764 931.513 627.86 928.564 631.967 926.3C639.268 922.38 647.117 919.9 654.634 916.5C656.951 915.473 659.215 914.328 661.416 913.07C662.631 920.733 663.376 928.495 663.924 936.237C672.751 937.315 681.591 938.295 690.443 939.177C700.988 940.265 711.562 941.255 722.166 941.676C727.517 941.882 733.25 942.44 738.581 941.823C740.109 941.58 741.65 941.43 743.197 941.372C743.138 941.803 743.089 942.225 743.03 942.656C742.881 944.942 742.285 947.176 741.276 949.232C739.522 952.27 736.199 953.691 733.024 954.436C722.715 956.846 710.249 953.867 699.636 953.828C686.386 953.828 673.127 953.044 659.946 951.868C651.821 951.309 614.346 953.848 621.804 936.1Z" fill="#382C80"/>
<path d="M625.342 938.207C628.37 931.7 635.769 928.76 642.002 926.153C649.234 923.144 656.623 920.557 663.464 916.706L657.447 914.256C658.583 921.576 659.309 928.956 659.808 936.335C659.884 938.565 661.675 940.355 663.905 940.432C677.341 942.058 690.796 943.587 704.281 944.753C710.857 945.312 717.423 945.675 724.008 945.998C727.193 946.155 730.368 946.38 733.553 946.351C736.738 946.321 739.953 945.724 743.177 945.616L739.12 941.519C738.777 944.283 738.542 947.341 736.062 949.036C733.975 950.467 731.162 950.927 728.663 951.202C722.852 951.839 716.903 951.202 711.131 950.624C698.303 949.428 685.377 949.742 672.509 948.899C665.306 948.428 658.191 947.86 650.949 947.684C644.785 947.527 638.513 947.292 632.525 945.724C630.173 945.106 627.302 944.116 625.861 942.617C625.237 942.113 624.876 941.352 624.881 940.549C625.027 939.401 625.324 938.278 625.763 937.207C627.723 932.307 619.795 930.181 617.864 935.032C611.004 952.192 634.946 955.112 646.167 955.68C653.86 956.063 661.494 956.288 669.197 956.847C683.956 957.905 698.754 957.689 713.493 959.022C720.862 959.679 728.869 960.355 736.033 957.974C739.128 957.071 741.878 955.254 743.922 952.76C746.401 949.506 746.793 945.498 747.293 941.559C747.558 939.403 745.196 937.403 743.197 937.462C739.972 937.57 736.807 938.168 733.573 938.197C730.633 938.197 727.624 938.031 724.655 937.884C717.864 937.541 711.082 937.188 704.3 936.6C690.816 935.434 677.36 933.905 663.924 932.278L668.021 936.374C667.472 928.25 666.61 920.165 665.365 912.119C664.944 909.415 661.445 908.503 659.348 909.669C651.733 913.962 643.413 916.618 635.465 920.165C628.664 923.203 621.559 927.025 618.266 934.111C616.051 938.815 623.107 942.96 625.342 938.207Z" fill="#382C80"/>
<path d="M271.827 182.205C270.847 159.616 268.779 137.067 265.584 114.683C264.761 108.901 262.722 97.8961 268.308 93.8095C272.395 90.8695 288.496 93.1823 293.739 93.0157L348.619 91.2713L460.8 87.7139C477.225 87.1945 496.384 85.4207 511.976 91.0165C532.918 98.5429 553.332 108.852 573.304 118.623C575.472 119.263 576.805 121.438 576.391 123.66L576.93 163.86" fill="#382C80"/>
<path d="M274.796 182.206C274.345 166.689 273.3 151.218 271.66 135.793C270.843 128.227 269.906 120.668 268.847 113.116C268.24 108.764 267.211 103.561 268.71 99.2976C270.121 95.2698 274.394 95.8186 278.02 95.8578C282.665 95.8578 287.281 96.4458 291.917 96.583C298.777 96.7986 305.637 96.24 312.497 96.0342L335.928 95.3286C367.641 94.3682 399.354 93.4045 431.067 92.4376C446.012 91.977 460.957 91.3792 475.902 90.9578C482.868 90.647 489.847 90.837 496.786 91.5262C503.842 92.3396 510.359 94.4662 516.944 97.0534C532.742 103.188 548 110.607 563.21 118.065L568.992 120.907C570.707 121.749 571.932 121.887 572.432 123.66C572.951 125.62 572.491 128.345 572.52 130.364L572.618 137.077L572.981 163.889C573.059 168.985 580.987 169.005 580.919 163.889L580.546 138.409L580.36 126.346C580.36 122.935 580.507 119.348 577.783 116.84C575.274 114.527 571.364 113.302 568.335 111.812C564.651 110.009 560.976 108.206 557.281 106.422C550.068 102.933 542.826 99.5622 535.496 96.2988C528.165 93.0354 520.619 89.8798 512.956 87.2534C506.183 85.0773 499.149 83.8151 492.042 83.5C476.745 82.52 461.212 83.9214 445.914 84.4212C412.143 85.5057 378.376 86.6196 344.611 87.763C328.098 88.3118 311.585 88.8998 295.082 89.4094C290.241 89.5662 285.419 88.988 280.588 88.8116C276.237 88.6646 270.788 88.2922 266.868 90.5364C261.968 93.3392 260.909 99.7974 260.988 104.923C261.125 111.93 262.722 118.996 263.624 125.914C266.054 144.613 267.73 163.419 268.818 182.235C269.043 186.037 274.884 186.096 274.767 182.235L274.796 182.206Z" fill="#382C80"/>
<path d="M475.755 139.027C475.101 124.503 474.801 109.976 474.853 95.4462C474.912 83.6176 473.354 68.7216 477.362 57.4222C490.66 56.5304 505.782 60.1956 518.63 63.361C519.932 63.5253 521.134 64.147 522.02 65.1152C522.548 66.0277 522.81 67.0701 522.775 68.1238C524.082 90.7226 524.5 113.351 524.029 136.008" fill="white"/>
<path d="M479.136 139.027C478.92 124.327 478.528 109.627 478.577 94.9267C478.626 82.8237 477.107 70.1327 481.027 58.4413L477.362 61.2343C486.064 60.7149 494.639 61.9595 503.136 63.7627C507.232 64.6251 511.289 65.6247 515.356 66.6341C515.905 66.7713 518.1 67.0261 518.532 67.4377C519.149 68.0159 518.875 69.3977 518.914 70.1621C519.051 72.6513 519.169 75.1405 519.286 77.6199C520.158 97.0435 520.58 116.585 519.708 136.018C519.453 141.555 528.361 141.594 528.341 136.018C528.273 113.821 528.234 91.6437 526.832 69.4859C526.538 64.8603 525.431 61.3421 520.639 59.8035C516.146 58.5151 511.589 57.4618 506.987 56.6479C497.285 54.6095 487.26 53.1199 477.362 53.6295C475.667 53.6669 474.188 54.7899 473.697 56.4127C469.61 68.4471 471.011 81.3929 471.109 93.8585C471.237 108.931 471.198 123.993 472.383 139.027C472.717 143.29 479.194 143.427 479.136 139.027Z" fill="#382C80"/>
<path d="M505.115 144.26C505.919 131.441 503.832 75.0131 502.724 74.6799L467.327 64.6839C463.513 63.4425 459.565 62.6563 455.567 62.3417C452.324 62.3261 449.086 62.5752 445.884 63.0865C439.202 63.8965 432.477 64.3056 425.745 64.3115C419.865 64.3115 414.358 63.4393 408.703 65.1641C403.725 66.6929 404.283 64.7427 404.714 59.9799C405.048 56.1971 406.175 50.6307 402.754 47.8083C401.587 46.9953 400.244 46.4713 398.834 46.2795L364.093 38.8217C362.712 38.5277 361.153 38.2533 359.948 38.9785C358.174 40.0271 358.066 42.4869 358.076 44.5449C358.076 49.6997 358.449 58.0493 355.215 62.5181C351.687 67.4181 344.885 65.7325 339.799 66.0461C336.859 66.2225 333.919 66.4871 330.979 66.5851C325.099 66.8006 317.445 67.2319 314.202 73.0629C312.34 76.4341 311.889 80.3835 311.556 84.2251C310.702 94.0398 310.352 103.892 310.507 113.743C310.585 118.554 311.389 123.621 311.085 128.443C310.86 132.029 310.105 135.195 310.331 138.88C311.066 152.982 313.78 169.446 326.383 177.972C326.853 178.285 327.363 178.589 327.804 178.883L488.524 169.23C490.69 166.016 490.043 158.96 494.061 158.803" fill="white"/>
<path d="M509.212 144.26C510.26 126.698 509.016 108.764 508.163 91.2126C507.987 87.4592 507.791 83.7058 507.507 79.9524C507.36 77.9924 507.418 75.66 506.781 73.8176C505.85 71.1422 503.734 70.7306 501.186 70.0152L488.083 66.3108C479.263 63.8216 470.443 60.6954 461.427 58.9804C453.097 57.4026 444.875 59.3332 436.525 59.8722C432.115 60.1564 427.705 60.3034 423.256 60.1858C419.228 60.078 415.249 59.8232 411.251 60.4406C410.683 60.5288 406.684 60.9208 406.469 61.5774L408.517 63.4786C408.576 63.704 408.585 63.655 408.566 63.312C408.668 62.763 408.701 62.2033 408.664 61.646C408.919 58.706 409.458 55.668 409.183 52.6594C409.046 49.7331 407.807 46.9671 405.714 44.9174C402.607 42.0852 397.482 41.801 393.562 40.9974L367.827 35.48C364.231 34.7058 360.262 33.569 357.116 36.1268C354.411 38.3318 354.078 41.7226 354.058 44.9468C354.058 49.3764 355.362 59.4998 350.03 61.5088C347.561 62.4398 344.523 61.9204 341.955 61.9106C338.035 61.9106 334.115 62.3516 330.274 62.528C324.472 62.7828 318.102 63.4002 313.614 67.4966C307.812 72.7494 307.734 81.687 307.234 88.9096C306.481 97.9737 306.281 107.075 306.636 116.163C306.852 120.25 307.371 124.317 307.126 128.404C306.901 132.226 306.215 135.92 306.42 139.772C307.106 152.639 309.537 166.584 318.533 176.424C320.836 178.942 324.58 182.754 328.186 182.921C329.057 182.913 329.927 182.86 330.793 182.764L417.778 177.58L466.778 174.64C473.991 174.209 481.478 174.307 488.642 173.327C491.738 172.896 492.865 170.475 493.698 167.721C494.081 166.486 494.277 165.193 494.678 163.958C494.83 163.631 494.935 163.285 494.992 162.929L495.306 162.37C494.433 162.841 494.433 162.968 495.306 162.753C500.5 162.008 498.246 154.119 493.13 154.854C486.691 155.765 487.642 162.929 485.153 167.163L488.681 165.134L424.912 168.966L336.34 174.248C333.802 174.395 330.92 174.248 328.412 174.718H327.98C327.882 174.297 283.88 231.911 329.313 174.836C328.668 174.434 328.046 173.996 327.451 173.523C326.089 172.441 324.838 171.227 323.717 169.897C319.866 165.33 317.769 159.558 316.465 153.805C314.974 147.744 314.36 141.5 314.643 135.264C314.888 131.736 315.476 128.296 315.387 124.738C315.28 120.613 314.799 116.506 314.741 112.371C314.633 103.864 314.927 95.3482 315.583 86.8908C316.093 80.3934 316.279 73.2296 323.678 71.4362C326.134 70.9409 328.631 70.6849 331.136 70.6718C334.889 70.5052 338.662 70.0544 342.426 70.1034C348.159 70.172 354.264 70.2896 358.223 65.3994C362.182 60.5092 362.29 53.7962 362.31 47.9554C362.31 46.6618 362.31 45.378 362.31 44.0354C362.31 43.5062 362.153 42.6536 362.467 42.193C361.977 42.8986 361.712 42.095 363.133 42.7124C364.819 43.4474 367.151 43.5748 368.925 43.957L376 45.476L387.584 47.9652L394.013 49.347C395.718 49.7096 398.433 49.739 399.893 50.7092C401.853 51.9636 401.098 55.5406 400.873 57.4712C400.628 59.9506 400.001 62.675 400.52 65.1446C401.98 72.0046 408.958 68.7902 413.525 68.2806C417.151 67.869 420.845 68.2806 424.481 68.3394C428.94 68.408 433.409 68.2218 437.848 67.8984C445.825 67.3202 453.656 65.419 461.574 67.3202C469.747 69.2802 477.803 71.8478 485.888 74.1802L497.648 77.522L498.951 77.8944C500.392 78.5902 500.647 78.4628 499.725 77.5318C499.872 78.1198 498.363 75.2386 498.853 76.0716C498.96 76.3256 499.01 76.5999 499 76.8752C499.196 75.7188 499 76.787 499 77.3554L499.118 78.7372C499.245 80.2366 499.353 81.6772 499.441 83.2256C500.549 100.679 501.117 118.231 501.107 135.724C501.107 138.556 501.107 141.398 500.921 144.24C500.607 149.503 508.761 149.483 509.114 144.24L509.212 144.26Z" fill="#382C80"/>
<path d="M328.029 81.9122C336.33 84.7346 344.689 87.5276 352.921 90.399L358.664 92.359L362.486 93.682C363.006 93.8584 364.721 94.1328 365.044 94.5444C365.975 95.7204 365.309 99.219 365.299 100.611L365.25 107.343C365.113 124.817 363.897 142.388 364.338 159.861C364.476 165.026 372.178 165.026 372.374 159.861C372.698 150.012 372.208 140.085 372.071 130.236C371.933 120.387 371.875 110.489 371.875 100.611C371.875 97.1316 372.766 92.3002 369.748 89.7718C366.73 87.2434 361.447 86.5672 357.782 85.4108C348.364 82.4708 338.956 79.3936 329.548 76.3654C326.02 75.2384 324.56 80.7068 328.029 81.8926V81.9122Z" fill="#382C80"/>
<path d="M400.197 53.8944C399.962 68.3788 400.452 82.8828 400.628 97.377L400.893 119.123C400.971 126.218 400.697 133.441 401.687 140.477C402.314 144.887 408.38 143.172 408.821 139.497C409.683 132.353 409.095 124.935 408.958 117.751C408.834 110.734 408.677 103.714 408.488 96.691C408.096 82.4222 407.87 68.1142 406.822 53.8846C406.508 49.6804 400.266 49.5726 400.197 53.8846V53.8944Z" fill="#382C80"/>
<path d="M367.337 76.7381C371.15 78.0807 375.06 79.1587 378.843 80.5699C380.616 81.2265 382.371 81.9615 384.076 82.7651C384.585 83.0101 385.712 83.9803 385.164 82.9317C385.516 83.5883 385.056 85.1563 385.007 85.8717C384.497 94.6133 384.19 103.365 384.086 112.126C383.988 120.665 384.082 129.194 384.37 137.714C384.527 142.202 384.736 146.687 384.997 151.169C385.242 155.412 385.075 160.244 386.457 164.291C387.574 167.564 393.317 168.388 393.954 164.291C394.719 159.568 393.837 154.579 393.523 149.826C393.19 144.894 392.925 139.961 392.729 135.028C392.324 125.15 392.187 115.272 392.318 105.393C392.376 100.454 392.501 95.5181 392.69 90.5855C392.837 86.7733 394.062 81.6381 391.445 78.4237C389.211 75.6797 384.585 74.5723 381.42 73.5237C377.133 72.0298 372.64 71.2099 368.102 71.0933C364.721 71.0933 364.368 75.6993 367.337 76.7479V76.7381Z" fill="#382C80"/>
<path d="M420.267 76.8554C423.629 77.8942 427 78.8154 430.391 79.7954L434.83 81.0106C435.918 81.3046 438.485 81.4516 439.299 82.1572C438.691 81.0694 438.534 81.2948 438.828 82.8432L438.877 85.5578C438.877 87.3708 438.936 89.174 438.975 90.987C439.044 94.1524 439.132 97.3276 439.211 100.493C439.563 113.988 439.211 127.786 440.524 141.222C441.024 146.308 448.364 146.504 448.579 141.222C448.854 133.568 448.207 125.797 447.962 118.143C447.707 110.224 447.403 102.306 447.119 94.3778C446.969 90.5362 446.806 86.6914 446.629 82.8432C446.492 80.0208 446.286 77.2964 443.611 75.6892C440.779 73.984 436.751 73.8076 433.576 73.1804C429.656 72.416 425.804 71.6712 421.884 71.0244C417.964 70.3776 416.455 75.7088 420.267 76.9044V76.8554Z" fill="#382C80"/>
<path d="M454.695 79.3156C456.322 79.6292 457.948 79.9526 459.595 80.2956C460.575 80.472 463.387 80.423 464.142 81.0894C463.76 80.7464 464.073 82.4516 464.142 82.9318C464.22 84.735 464.289 86.5382 464.377 88.3316C464.71 94.865 465.037 101.398 465.357 107.932C465.677 114.465 465.981 120.998 466.269 127.532C466.582 134.117 466.327 141.026 467.503 147.504C468.346 152.218 475.069 150.689 475.343 146.436C475.902 138.958 474.638 130.971 474.158 123.484C473.668 115.834 473.168 108.183 472.658 100.533C472.423 96.936 472.178 93.3296 471.933 89.7526C471.708 86.3912 471.806 82.7064 471.012 79.4136C469.414 72.7986 460.732 73.9746 455.508 73.6708C452.255 73.4748 451.471 78.7864 454.734 79.4234L454.695 79.3156Z" fill="#382C80"/>
<path d="M482.193 88.1846C482.526 98.0434 482.526 107.902 482.526 117.761C482.526 122.661 482.477 127.63 482.438 132.569C482.399 137.508 481.938 142.3 482.624 147.053C483.163 150.787 489.543 150.748 490.121 147.053C490.866 142.32 490.415 137.351 490.308 132.569C490.2 127.669 490.004 122.7 489.788 117.761C489.347 107.892 488.602 98.0336 487.916 88.1846C487.662 84.539 482.036 84.4606 482.193 88.1846Z" fill="#382C80"/>
<path d="M838.257 933.209C836.071 928.75 836.503 923.586 837.473 918.891C839.178 910.561 842.373 902.741 844.646 894.597C845.342 892.118 845.95 889.58 846.401 887.012C852.898 890.932 859.141 895.224 865.275 899.752C871.704 893.389 878.084 886.973 884.415 880.505C891.961 872.782 899.438 864.982 906.514 856.789C910.091 852.653 914.158 848.439 917.108 843.794C917.897 842.438 918.764 841.129 919.705 839.874C919.989 840.188 920.283 840.501 920.567 840.854C922.182 842.444 923.465 844.339 924.34 846.43C925.487 849.762 924.428 853.29 922.958 856.318C918.176 866.118 908.003 874.125 901.202 882.563C892.715 893.098 883.709 903.202 874.429 912.943C868.715 918.911 846.695 950.418 838.257 933.209Z" fill="#382C80"/>
<path d="M841.794 931.141C838.962 924.722 842.088 916.441 844.029 910.179C846.302 902.848 848.929 895.655 850.35 888.099L844.342 890.54C850.83 894.46 857.082 898.762 863.207 903.28C864.658 904.338 866.98 903.819 868.166 902.633C878.133 892.774 888.031 882.847 897.645 872.645C902.329 867.676 906.837 862.561 911.365 857.445C913.481 855.054 915.598 852.672 917.558 850.144C919.518 847.616 921.233 844.558 923.242 841.883L916.813 842.716C918.646 844.744 920.802 846.783 920.733 849.723C920.655 852.457 919.018 855.152 917.607 857.406C914.736 862.002 910.953 865.932 907.219 869.832C898.889 878.535 891.539 888.041 883.493 897.027C878.005 903.182 872.243 909.052 866.971 915.383C862.708 920.518 858.347 925.702 853.192 929.975C851.124 931.7 848.625 933.611 845.94 934.12C845.288 934.303 844.592 934.244 843.98 933.954C842.992 933.241 842.221 932.267 841.755 931.141C839.335 926.457 832.259 930.592 834.68 935.267C843.754 952.838 862.276 933.395 869.656 924.8C875.359 918.176 881.181 911.747 887.051 905.2C896.371 894.891 904.985 884.032 914.491 873.929C919.214 868.921 924.026 863.58 926.888 857.269C928.417 853.858 929.338 850.085 928.515 846.361C927.691 842.637 925.026 839.687 922.527 836.914C920.567 834.758 917.578 835.758 916.098 837.737C914.138 840.324 912.639 843.166 910.62 845.705C908.601 848.243 906.425 850.605 904.318 852.986C899.918 858.004 895.498 862.953 890.883 867.794C881.543 877.653 871.959 887.276 862.296 896.831L867.265 896.194C861.149 891.686 854.887 887.374 848.39 883.454C846.283 882.17 842.872 883.297 842.382 885.904C840.716 894.724 837.394 903.015 834.964 911.619C832.739 919.459 831.23 927.515 834.64 935.247C836.836 940.079 843.901 935.923 841.794 931.141Z" fill="#382C80"/>
<path d="M735.759 454.361C702.069 491.957 676.962 536.432 662.18 584.702C650.42 623.353 645.52 663.758 644.325 704.066C643.737 724.646 644.138 745.353 645.079 765.962C645.804 781.76 647.039 797.254 647.039 813.071C647.039 820.088 644.158 825.439 641.973 832.103C639.372 840.02 637.538 848.168 636.494 856.436C635.965 860.601 634.779 877.408 641.835 877.702C645.118 877.839 644.638 873.527 645.354 871.332C646.804 866.902 649.577 862.561 651.998 858.592C655.536 852.8 659.936 847.057 666.247 844.578C670.81 842.905 675.809 842.85 680.408 844.421C686.788 846.509 692.041 851.085 698.166 853.829C705.768 857.18 714.337 857.623 722.244 855.074C727.997 853.202 731.731 847.469 735.445 842.961C738.385 839.413 741.756 834.788 746.509 833.7C752.673 832.279 758.161 837.62 761.915 841.775C766.903 847.292 774.968 852.79 781.093 848.576C788.443 843.52 785.2 828.976 793.628 826.036C796.46 825.056 799.557 825.968 802.448 826.703C814.58 829.809 830.113 828.447 835.924 817.353C842.784 804.221 831.367 784.269 845.009 774.38C855.24 766.972 881.053 777.526 882.092 758.818C882.386 753.409 883.533 746.078 887.296 741.874C891.216 737.444 894.509 738.865 899.448 737.954C902.653 737.385 905.867 736.337 909.14 736.317C910.973 736.317 916.755 738.767 917.96 738.091C921.449 736.062 916 726.116 914.648 723.734C908.915 713.346 899.487 705.359 889.834 698.725C876.34 689.454 863.717 680.781 851.693 669.648C839.668 658.515 850.507 638.807 856.054 626.792C880.955 572.892 880.554 507.899 855.025 454.312" fill="#7F72FF"/>
<path d="M733.661 452.264C704.712 484.555 681.653 521.041 666.041 561.564C649.068 605.536 641.894 652.606 640.012 699.538C639.032 724.381 639.483 749.263 640.806 774.087C641.463 786.405 642.276 798.724 642.345 811.062C642.345 816.766 640.796 821.587 638.836 826.879C636.908 832.107 635.327 837.456 634.103 842.892C632.408 850.438 631.045 858.308 631.428 866.079C631.712 871.959 633.005 880.495 639.885 882.2C644.354 883.317 648.156 880.642 649.283 876.32C649.561 874.694 649.927 873.084 650.381 871.499C651.472 868.905 652.783 866.41 654.301 864.041C659.583 855.221 666.267 845.421 678.076 848.616C682.976 849.929 687.101 853.035 691.413 855.534C696.072 858.329 701.238 860.175 706.613 860.964C717.099 862.394 727.262 859.925 734.318 851.771C737.356 848.263 739.963 844.333 743.265 841.05C746.93 837.414 750.488 837.6 754.418 840.815C758.083 843.814 760.866 847.616 764.737 850.419C768.608 853.222 773.4 855.231 778.261 854.525C787.081 853.241 789.649 844.823 791.56 837.385C792.089 835.297 792.657 831.554 794.911 830.525C796.94 829.613 799.713 830.819 801.771 831.309C804.101 831.863 806.465 832.265 808.847 832.514C817.03 833.416 826.212 832.357 833.063 827.457C840.06 822.42 842.794 814.58 843 806.113C843.147 798.714 840.795 789.835 843.911 782.809C846.459 777.056 851.908 776.203 857.543 775.89C863.619 775.547 870.126 775.89 875.938 773.822C882.798 771.362 886.11 765.982 886.718 758.877C887.051 754.8 887.462 750.478 889.471 746.823C891.794 742.619 894.969 743.177 899.173 742.619C901.741 742.286 904.22 741.521 906.768 741.139C909.12 740.786 909.865 741.139 912.286 741.805C915.628 742.785 919.254 743.765 921.9 740.825C926.594 735.592 921.41 726.557 918.656 721.588C913.638 712.543 906.19 705.33 898.076 699.107C889.334 692.433 879.965 686.582 871.165 679.958C866.592 676.508 862.146 672.879 857.827 669.07C854.574 666.13 851.712 663.523 851.055 659.015C849.85 650.881 854.074 642.169 857.416 635.015C861.687 626.155 865.434 617.051 868.637 607.751C882.055 566.735 882.639 522.601 870.312 481.243C867.163 471.301 863.275 461.607 858.68 452.245C856.338 447.345 848.997 451.608 851.33 456.537C868.97 493.777 874.007 537.485 866.657 577.851C864.827 587.897 862.242 597.79 858.925 607.447C855.857 616.336 851.849 624.705 848.008 633.261C844.558 640.944 841.05 649.499 841.647 658.104C842.373 668.413 849.34 674.176 856.837 680.369C865.167 687.229 873.968 693.501 882.847 699.626C891.245 705.428 899.614 711.288 906.092 719.305C908.455 722.297 910.491 725.533 912.168 728.958C912.863 730.289 913.456 731.672 913.942 733.093C914.083 733.811 914.283 734.515 914.54 735.2C913.883 734.044 914.716 735.749 914.54 735.582C914.363 735.416 916.892 733.475 917.196 733.779C916.568 733.142 913.648 732.799 912.697 732.544C910.953 732.051 909.133 731.882 907.327 732.045C904.652 732.299 902.094 733.025 899.487 733.485C897.468 733.877 895.449 733.867 893.421 734.103C883.738 735.19 879.495 744.442 878.201 753.095C877.329 758.975 878.094 763.934 871.782 765.6C859.885 768.755 846.146 763.816 837.669 775.459C832.974 781.917 833.141 790.159 833.533 797.783C833.876 804.643 834.925 813.012 829.613 818.363C824.301 823.714 815.217 824.243 808.112 823.263C803.437 822.587 798.851 820.499 794.059 821.303C790.301 821.969 787.052 824.315 785.239 827.673C783.514 830.74 782.798 834.239 781.926 837.6C781.289 840.041 780.662 843.48 778.33 844.892C774.733 847.087 769.872 843.108 767.373 840.795C763.924 837.6 761.101 833.935 757.005 831.446C752.908 828.957 747.989 828.104 743.442 829.898C739.081 831.613 735.954 835.101 733.054 838.639C730.153 842.177 727.644 846.117 724.106 848.88C720.568 851.644 715.169 852.251 710.661 852.104C699.792 851.732 692.423 843.931 682.701 840.344C672.48 836.552 661.651 839.531 654.369 847.459C651.076 851.27 648.18 855.408 645.726 859.807C643.286 863.894 641.12 868.069 640.257 872.773C639.885 874.733 640.257 873.753 641.825 872.988C641.933 872.939 642.658 873.155 642.59 873.282C642.146 872.555 641.797 871.775 641.551 870.96C640.915 868.132 640.677 865.229 640.845 862.336C641.032 853.966 642.962 845.597 645.285 837.6C646.774 832.465 648.95 827.555 650.41 822.42C651.968 816.922 651.831 811.346 651.694 805.692C651.135 781.682 649.107 757.74 648.705 733.72C647.911 686.769 651.155 639.386 663.64 593.953C674.871 553.077 693.863 515.553 718.275 480.988C724.32 472.461 730.841 464.281 737.807 456.488C740.335 453.656 736.18 449.462 733.622 452.304L733.661 452.264Z" fill="#7F72FF"/>
<path d="M514.112 210.351C534.369 212.527 552.891 223.483 567.689 237.487C582.487 251.491 594.08 268.514 605.487 285.38L651.822 353.705C674.146 337.878 701.233 326.099 721.813 308.331C740.012 292.651 764.355 286.046 788.453 289.711C798.253 291.211 808.053 294.523 815.54 301.05C823.028 307.577 827.8 317.71 826.164 327.51C824.625 336.712 817.961 344.101 811.513 350.844C797.381 365.616 782.871 380.005 767.981 394.013C753.399 407.733 738.052 421.325 719.491 428.783C703.115 435.32 685.22 436.751 667.58 437.652C643.403 438.877 618.58 439.152 595.638 431.468C557.82 418.807 530.096 386.32 508.869 352.539C497.462 334.38 492.748 309.743 475.402 295.768C470.747 292.024 464.985 289.976 459.281 288.222C451.196 285.723 442.982 283.665 434.673 282.058C426.245 280.421 416.69 278.588 412.133 271.327" fill="white"/>
<path d="M514.112 213.262C538.436 216.094 559.065 231.421 574.872 249.247C592.698 269.298 606.801 292.769 621.795 314.907L649.107 355.254C649.979 356.557 651.91 357.39 653.351 356.371C673.029 342.534 695.05 332.381 714.454 318.151C724.107 311.076 732.544 303.147 743.707 298.355C754.432 293.804 766.018 291.637 777.664 292.005C789.424 292.338 802.164 294.827 811.689 302.197C820.823 309.263 826.007 321.444 821.107 332.498C818.686 337.947 814.668 342.494 810.621 346.787C806.084 351.608 801.438 356.332 796.783 361.036C787.147 370.777 777.347 380.349 767.383 389.75C749.234 406.9 730.3 423.452 705.398 429.558C692.658 432.694 679.458 433.527 666.375 434.154C653.292 434.781 640.395 435.134 627.449 434.036C603.508 432.076 581.389 423.972 562.358 409.291C544.718 395.669 530.302 378.108 517.954 359.654C512.021 350.807 506.879 341.454 502.587 331.705C498.422 322.287 494.414 312.653 488.377 304.265C482.224 295.341 473.293 288.702 462.976 285.38C451.353 281.519 439.368 279.745 427.598 276.56C422.972 275.325 418.219 273.493 415.446 269.357C412.672 265.221 406.008 269.122 408.792 273.277C415.26 282.901 426.892 284.312 437.388 286.517C444.215 287.948 450.971 289.682 457.654 291.721C463.593 293.534 469.473 295.641 474.216 299.747C490.749 314.192 495.041 337.8 506.478 355.793C519.012 375.52 533.457 394.493 551.303 409.693C570.08 425.726 592.022 436.457 616.552 439.975C629.938 441.886 643.462 442.092 656.957 441.631C670.677 441.161 684.505 440.504 698.048 438.191C711.028 436.094 723.502 431.591 734.828 424.912C745.872 418.297 755.761 409.899 765.208 401.196C775.576 391.641 785.68 381.792 795.647 371.796C805.055 362.379 815.501 353.049 823.234 342.151C830.162 332.351 831.74 320.768 826.448 309.811C821.156 298.855 810.268 291.936 798.841 288.555C775.762 281.695 749.322 285.772 729.163 298.777C724.018 302.099 719.54 306.185 714.748 309.958C709.671 313.937 704.32 317.563 698.881 321.023C688.013 327.941 676.724 334.155 665.728 340.858C660.465 344.053 655.291 347.385 650.264 350.932L654.517 352.049C637.909 327.589 621.295 303.134 604.674 278.687C589.974 257.234 574.294 235.645 552.126 221.347C540.708 213.807 527.701 209.011 514.122 207.333C510.398 206.911 510.437 212.733 514.122 213.154L514.112 213.262Z" fill="#382C80"/>
<path d="M551.019 258.469C543.179 260.429 535.015 260.831 526.93 261.223L321.738 271.131C317.573 271.327 313.281 271.513 309.341 270.151C305.401 268.789 302.334 266.094 299.247 263.448L271.993 239.928C269.053 237.429 266.113 234.861 264.241 231.519C262.115 227.746 261.546 223.317 261.105 219.014C256.901 177.854 259.577 135.156 264.976 94.231C273.368 99.3571 281.427 105.01 289.104 111.156C296.15 116.8 302.824 125.718 310.664 129.981C315.917 132.814 323.404 132.921 329.225 133.96C339.643 135.763 350.236 135.489 360.752 135.146L461.966 131.834C479.067 131.275 496.188 130.854 513.289 130.158C526.803 129.609 541.199 126.238 554.733 124.278C559.79 123.533 573.686 118.231 577.753 121.573C581.82 124.915 581.81 140.193 582.408 145.191C586.534 179.55 583.77 214.291 582.34 248.738" fill="#7F72FF"/>
<path d="M550.313 255.892C536.593 259.165 521.893 258.763 507.908 259.43L464.416 261.478L378.127 265.555L334.644 267.603C327.784 267.936 320.238 269.122 313.369 268.093C306.499 267.064 301.707 261.684 296.787 257.44L281.156 243.946C276.374 239.82 269.964 235.665 266.828 230.039C263.585 224.228 263.8 216.388 263.3 209.92C262.758 202.936 262.402 195.939 262.232 188.928C261.399 157.274 263.928 125.62 268.063 94.2604L263.418 96.926C270.346 101.167 277.049 105.766 283.498 110.705C288.947 114.889 293.612 119.731 298.561 124.425C303.235 128.913 308.292 133.108 314.672 134.793C321.052 136.479 327.971 137.086 334.478 137.821C350.726 139.654 367.435 138.086 383.723 137.567L433.654 135.979C450.307 135.45 466.967 134.934 483.634 134.431C499.716 133.96 515.846 133.911 531.771 131.491C539.347 130.324 546.873 128.874 554.449 127.698C559.349 126.943 563.984 125.307 568.825 124.376C570.511 124.052 573.363 123.278 575.038 123.964C576.312 124.484 576.577 125.728 576.998 127.032C578.37 131.814 578.498 136.91 578.841 141.839C579.37 149.454 580.37 157.01 580.801 164.634C581.291 173.817 581.399 183.019 581.281 192.221C581.036 211.067 579.929 229.892 579.409 248.738C579.292 252.658 585.289 252.658 585.544 248.738C587.504 214.722 589.934 180.5 586.093 146.524C585.573 141.947 585.436 137.341 584.887 132.804C584.368 128.531 583.907 123.004 580.771 119.731C577.635 116.457 572.765 116.996 568.757 117.633C563.906 118.417 559.28 120.113 554.468 121.005C538.631 123.945 522.785 126.561 506.674 127.169C489.798 127.806 472.913 128.266 456.027 128.835C422.129 129.972 388.221 131.481 354.313 132.226C345.267 132.386 336.222 131.822 327.265 130.54C323.276 130.001 319.19 129.707 315.319 128.521C311.917 127.34 308.802 125.457 306.175 122.994C300.188 117.8 295.043 111.92 288.78 107.02C281.657 101.475 274.23 96.3321 266.534 91.6144C264.329 90.262 262.173 92.0946 261.889 94.28C258.106 123.249 255.696 152.453 256.009 181.696C256.176 195.867 256.382 210.567 258.792 224.571C259.856 230.659 263.023 236.18 267.74 240.173C273.061 244.984 278.618 249.551 284.057 254.226C289.496 258.9 294.925 263.889 300.629 268.357C305.351 272.205 311.277 274.266 317.367 274.179C332.155 274.179 347.081 272.787 361.849 272.062L452.225 267.603L502.499 265.123C518.767 264.32 535.819 264.859 551.763 261.047C555.105 260.243 553.723 255.098 550.342 255.892H550.313Z" fill="#7F72FF"/>
<path d="M90.9872 427.196C90.0268 404.597 87.9459 382.086 84.7446 359.664C83.9214 353.882 81.883 342.877 87.469 338.79C91.5556 335.801 107.657 338.163 112.949 337.996L167.829 336.252L279.98 332.694C296.395 332.175 315.564 330.401 331.146 335.997C352.089 343.523 372.502 353.833 392.474 363.604C393.401 363.968 394.221 364.561 394.856 365.328C395.417 366.341 395.663 367.498 395.561 368.651L396.13 408.831" fill="#382C80"/>
<path d="M93.9665 427.196C93.5222 411.705 92.4736 396.234 90.8207 380.783C90.004 373.204 89.0697 365.642 88.0179 358.096C87.4005 353.745 86.3715 348.551 87.8709 344.278C89.2821 340.25 93.5549 340.799 97.1809 340.838C101.826 340.887 106.442 341.426 111.077 341.564C117.937 341.779 124.797 341.23 131.657 341.025L155.079 340.309C186.792 339.355 218.505 338.392 250.218 337.418C265.163 336.958 280.108 336.36 295.053 335.938C302.022 335.628 309.004 335.818 315.946 336.507C322.992 337.32 329.509 339.447 336.095 342.044C351.902 348.179 367.151 355.587 382.361 363.055L388.143 365.887C389.868 366.73 391.083 366.867 391.583 368.651C392.112 370.611 391.651 373.335 391.671 375.354L391.769 382.057L392.141 408.87C392.21 413.966 400.148 413.986 400.069 408.87L399.707 383.39L399.53 371.316C399.481 367.916 399.677 364.319 396.953 361.81C394.444 359.498 390.534 358.273 387.506 356.783C383.834 354.98 380.153 353.183 376.461 351.393C369.248 347.914 361.996 344.533 354.666 341.27C347.336 338.006 339.799 334.851 332.126 332.224C325.353 330.053 318.319 328.801 311.213 328.5C295.905 327.52 280.382 328.922 265.074 329.412C231.304 330.509 197.536 331.623 163.772 332.753C147.259 333.302 130.756 333.89 114.243 334.41C109.401 334.557 104.58 333.978 99.7485 333.812C95.3973 333.655 89.9485 333.292 86.0285 335.527C81.1285 338.33 80.0701 344.788 80.1485 349.913C80.2759 356.92 81.8733 363.986 82.7749 370.915C85.2053 389.603 86.8811 408.419 87.9787 427.235C88.1943 431.028 94.0351 431.087 93.9273 427.235L93.9665 427.196Z" fill="#382C80"/>
<path d="M173.983 346.228C172.435 328.306 172.013 310.304 172.719 292.328C172.685 291.912 172.796 291.497 173.033 291.152C173.319 290.875 173.686 290.696 174.081 290.643L195.122 285.459C227.923 277.374 265.996 284.89 299.002 289.771C303.285 290.398 307.959 291.241 310.252 293.426C311.742 294.857 311.928 296.601 312.065 298.267C315.67 341.114 316.397 384.154 314.241 427.098" fill="white"/>
<path d="M177.051 346.228C176.541 335.007 175.943 323.796 175.953 312.555C175.953 307.606 176.071 302.667 176.276 297.728C176.48 296.389 176.542 295.033 176.463 293.681L176.531 292.328C174.512 294.288 174.483 294.808 176.423 294.053C177.56 294.122 179.275 293.396 180.343 293.142C182.107 292.74 183.871 292.338 185.635 291.956C195.435 289.859 205.049 287.516 215.035 286.801C224.83 286.194 234.656 286.299 244.435 287.115C254.735 287.889 265.015 289.241 275.188 290.77C284.38 292.142 294.004 292.946 303.02 295.2C304.284 295.523 306.283 295.837 307.097 296.983C307.91 298.13 307.547 301.001 307.655 302.324C308.113 308.204 308.521 314.084 308.88 319.964C309.534 330.816 310.011 341.668 310.311 352.52C310.964 377.386 310.67 402.252 309.429 427.117C309.125 433.164 318.533 433.154 318.827 427.117C320.003 403.179 320.301 379.215 319.719 355.225C319.412 343.236 318.889 331.257 318.151 319.288C317.779 313.408 317.354 307.528 316.877 301.648C316.495 296.983 316.377 292.338 312.32 289.28C308.537 286.419 303.5 285.821 298.972 285.145C293.867 284.39 288.761 283.596 283.655 282.822C272.875 281.186 262.095 279.627 251.246 278.579C240.425 277.436 229.531 277.125 218.661 277.648C207.846 278.379 197.137 280.248 186.713 283.224C183.666 284.057 180.628 284.919 177.57 285.723C175.326 286.311 171.955 286.595 170.249 288.438C168.544 290.28 168.799 293.279 168.76 295.699C168.714 299.071 168.714 302.442 168.76 305.813C168.676 319.315 169.383 332.809 170.877 346.228C171.347 350.031 177.207 350.276 177.021 346.228H177.051Z" fill="#382C80"/>
<path d="M168.691 396.051C169.671 379.881 170.818 308.949 171.808 292.769C188.783 293.83 205.621 296.481 222.101 300.687C224.581 301.315 227.295 302.157 228.618 304.353C229.361 305.852 229.724 307.511 229.677 309.184C231.761 352.088 232.179 395.032 230.931 438.015" fill="white"/>
<path d="M171.768 396.051C173.052 383.596 173.013 371.012 173.532 358.508C174.209 342.455 174.993 326.413 175.571 310.35C175.777 304.47 175.933 298.59 176.345 292.769L171.808 297.316C183.798 298.086 195.722 299.664 207.499 302.04C210.276 302.608 213.043 303.216 215.8 303.863C218.26 304.441 221.17 304.774 223.463 305.901C225.757 307.028 225.09 309.821 225.178 311.879C225.329 315.041 225.466 318.204 225.59 321.366C226.59 346.192 227.04 371.058 226.942 395.963C226.884 409.977 226.645 423.991 226.227 438.005C226.051 444.062 235.468 444.062 235.635 438.005C236.399 411.114 236.514 384.213 235.978 357.302C235.704 343.739 235.259 330.179 234.645 316.622C234.41 311.399 235.204 304.47 231.323 300.315C227.442 296.16 220.808 295.562 215.643 294.435C201.198 291.233 186.526 289.162 171.759 288.242C169.22 288.075 167.329 290.456 167.211 292.779C165.79 321.317 166.467 349.923 165.888 378.48C165.761 384.36 165.673 390.24 165.575 396.061C165.506 400.089 171.318 399.913 171.719 396.061L171.768 396.051Z" fill="#382C80"/>
<path d="M137.302 414.476C138.282 398.306 139.428 327.373 140.418 311.193C157.39 312.255 174.225 314.906 190.702 319.112C193.191 319.739 195.896 320.582 197.229 322.777C197.971 324.277 198.335 325.936 198.287 327.608C200.371 370.513 200.789 413.456 199.542 456.439" fill="white"/>
<path d="M140.34 414.475C141.633 402.029 141.594 389.436 142.114 376.931C142.79 360.879 143.574 344.836 144.152 328.774C144.358 322.894 144.515 317.014 144.926 311.193L140.418 315.76C152.408 316.533 164.333 318.114 176.11 320.493C178.887 321.062 181.65 321.669 184.401 322.316C186.87 322.894 189.781 323.227 192.074 324.354C194.367 325.481 193.691 328.274 193.789 330.332C193.933 333.495 194.07 336.657 194.201 339.819C195.2 364.645 195.651 389.511 195.553 414.416C195.494 428.43 195.256 442.444 194.838 456.458C194.661 462.515 204.069 462.515 204.246 456.458C204.997 429.567 205.111 402.666 204.589 375.755C204.314 362.192 203.87 348.632 203.256 335.076C203.021 329.852 203.814 322.924 199.934 318.768C196.053 314.613 189.418 314.015 184.303 312.888C169.858 309.686 155.185 307.615 140.418 306.695C137.88 306.528 135.989 308.91 135.871 311.232C134.45 339.77 135.126 368.376 134.548 396.933C134.421 402.813 134.332 408.693 134.234 414.514C134.166 418.542 139.977 418.366 140.369 414.514L140.34 414.475Z" fill="#382C80"/>
<path d="M401.598 390.181C406.498 431.341 400.187 469.444 400.06 510.721L399.638 656.683C399.364 753.983 399.083 851.288 398.796 948.595C398.796 951.045 398.747 953.622 397.502 955.72C395.238 959.571 390.083 960.296 385.624 960.571C311.634 965.226 237.409 960.737 163.419 956.239C160.058 956.043 156.618 955.818 153.551 954.426C149.631 952.633 146.691 949.124 144.015 945.734C121.475 917.549 92.8396 880.505 83.0788 845.401C78.6884 829.623 78.4238 813.061 78.1788 796.676C76.7774 699.656 70.623 603.067 74.0824 506.194C75.2094 474.834 76.9146 443.572 78.8452 412.28C79.3254 404.44 88.7138 342.093 84.1862 339.319C92.5588 344.436 100.598 350.079 108.255 356.215C115.311 361.869 121.975 370.777 129.815 375.04C135.068 377.873 142.555 377.98 148.376 379.019C158.794 380.822 169.387 380.558 179.913 380.205L281.117 376.893C298.228 376.334 315.339 375.913 332.44 375.217C345.964 374.668 360.35 371.297 373.894 369.337C378.941 368.592 392.847 363.29 396.904 366.632C400.961 369.974 401.02 385.232 401.598 390.181Z" fill="white"/>
<path d="M398.922 390.181C401.862 415.161 400.677 440.24 399.197 465.269C397.678 490.886 397.315 516.395 397.237 542.052L396.708 698.234L396.12 854.427L395.845 932.827V942.382C395.845 945.469 396.237 948.889 395.659 951.937C394.679 957.239 388.613 957.337 384.262 957.601C371.188 958.405 358.086 958.905 344.993 959.189C293.22 960.316 241.486 957.787 189.82 954.72L170.22 953.534C164.752 953.201 158.058 953.75 153.246 950.692C148.866 947.899 145.749 942.921 142.564 938.932C139.134 934.611 135.704 930.279 132.372 925.888C118.789 908.131 105.775 889.628 95.8771 869.548C90.8267 859.632 87.0342 849.123 84.5875 838.267C82.0199 826.085 81.6475 813.571 81.4221 801.164C80.9778 775.194 80.3833 749.227 79.6385 723.264C78.0803 671.5 76.2379 619.707 76.2771 567.904C76.3163 516.102 78.2371 463.956 82.1571 412.231C83.8525 390.005 89.2327 367.837 88.7525 345.454C88.6839 342.298 88.6839 338.418 85.8811 336.399L82.5197 342.151C92.7901 348.463 103.1 355.342 111.724 363.829C119.221 371.208 126.169 378.784 136.968 380.724C148.745 382.898 160.706 383.905 172.68 383.733C185.89 383.488 199.14 382.919 212.311 382.488C238.624 381.626 264.937 380.724 291.26 379.921C304.539 379.509 317.818 379.146 331.097 378.607C343.533 378.108 355.724 375.716 367.964 373.639C372.766 372.816 377.402 371.963 382.096 370.699C385.163 369.895 391.318 367.426 394.444 368.905C396.894 370.062 397.129 375.824 397.384 378.157C397.894 382.145 398.021 386.163 398.462 390.162C398.903 394.16 405.038 394.082 404.597 390.162C403.793 382.841 404.43 374.893 401.559 367.955C398.393 360.272 389.799 361.996 383.174 363.535C373.119 365.877 363.054 367.671 352.862 369.415C339.779 371.6 326.736 372.051 313.506 372.482C286.281 373.364 259.057 374.237 231.833 375.099L191.349 376.432C177.835 376.883 163.987 378.039 150.551 375.971C144.671 375.06 137.909 374.991 132.372 372.571C127.031 370.199 122.768 365.495 118.652 361.438C108.852 351.638 97.5235 343.651 85.7537 336.428C82.0395 334.145 78.9819 339.721 82.3923 342.181C81.4123 341.485 81.6475 340.799 81.6377 341.671C81.6377 342.759 81.8043 342.387 81.8729 343.308C82.0199 345.474 82.0003 347.649 81.9317 349.825C81.7357 356.048 81.1575 362.261 80.5401 368.445C79.2661 381.185 77.6001 393.817 76.0517 406.508C73.6899 426.167 73.4155 446.237 72.4355 466.014C71.1419 492.278 70.1423 518.561 69.8385 544.865C69.3485 597.539 71.0243 650.224 72.7197 702.86C73.5331 729.114 74.3465 755.378 74.8561 781.642C75.3265 806.074 74.4445 830.985 82.6961 854.358C90.1833 875.467 102.296 894.773 115.173 912.943C121.582 921.939 128.296 930.71 135.136 939.403C141.555 947.537 147.425 957.307 158.529 958.807C171.043 960.502 184.008 960.492 196.602 961.217C209.668 961.969 222.768 962.661 235.9 963.295C262.075 964.52 288.32 965.412 314.515 965.5C327.582 965.546 340.678 965.376 353.803 964.99C360.337 964.794 366.87 964.533 373.403 964.206C379.195 963.912 385.222 964.001 390.935 962.874C394.924 962.09 398.707 960.071 400.491 956.259C402.842 951.231 401.735 944.381 401.745 939.011L401.833 899.448L402.206 741.217L402.627 582.32C402.686 555.997 402.372 529.655 402.872 503.342C403.352 478.117 405.92 452.98 406.145 427.745C406.306 415.207 405.681 402.671 404.273 390.211C403.871 386.81 398.53 386.761 398.922 390.181Z" fill="#382C80"/>
<path d="M318.053 261.615C317.984 243.711 318.69 225.796 319.19 207.901C319.689 190.007 321.003 172.112 321.218 154.227C321.267 149.934 315.221 150.199 314.721 154.227C312.506 171.926 312.555 190.085 312.183 207.901C311.81 225.718 311.977 243.73 312.771 261.615C312.918 264.996 318.063 265.035 318.053 261.615Z" fill="#382C80"/>
<path d="M266.593 127.787C266.593 129.57 266.593 131.364 266.515 133.147C266.515 134.529 266.838 136.656 266.289 137.939C265.309 140.331 266.054 142.604 268.563 143.535C275.903 146.26 282.626 149.415 288.447 154.795C289.56 155.856 291.145 156.259 292.629 155.858C294.113 155.458 295.281 154.312 295.709 152.835C296.689 149.396 297.62 145.975 298.345 142.447C299.433 137.116 291.857 134.98 290.172 140.193C289.064 143.604 288.163 147.053 287.33 150.523L294.592 148.563C287.732 142.859 279.5 137.832 270.582 136.097L272.865 137.851C272.277 136.548 272.581 134.47 272.542 133.059C272.483 131.275 272.434 129.482 272.385 127.698C272.277 123.974 266.652 123.955 266.593 127.698V127.787Z" fill="#382C80"/>
<path d="M755.339 319.68C742.08 323.287 730.673 335.017 726.841 349.002C722.049 366.495 728.585 383.684 726.841 401.069C724.979 419.875 717.707 439.417 714.287 458.203C712.768 466.563 711.602 475.951 716.159 482.576C719.099 486.878 723.999 489.152 728.762 490.974C760.749 503.224 831.524 513.838 855.25 474.422C862.424 462.515 859.543 447.56 857.308 434.134C854.564 417.543 847.802 402.333 846.195 385.183C845.073 372.833 845.316 360.397 846.92 348.1C848.037 339.28 852.918 330.46 851.144 321.777C847.577 304.137 835.356 291.652 817.03 294.759" fill="white"/>
<path d="M754.437 316.426C736.082 321.689 723.832 338.515 721.94 357.126C720.804 368.298 723.107 379.411 723.616 390.553C724.145 402.039 721.656 413.27 718.902 424.354C716.051 435.663 712.689 446.894 710.661 458.369C709.034 467.581 707.877 478.224 714.238 486.005C719.089 491.885 727.076 494.463 734.122 496.785C740.308 498.8 746.599 500.475 752.967 501.803C780.407 507.575 813.178 509.643 838.649 495.678C852.77 487.926 863.296 474.716 864.129 458.222C865.109 436.545 856.504 415.935 852.192 395.101C849.821 383.635 849.576 371.718 850.232 360.056C850.427 354.314 851.192 348.605 852.516 343.014C853.868 337.888 855.554 332.851 855.926 327.53C856.543 318.994 852.741 309.419 847.616 302.706C842.941 296.581 836.355 292.014 828.653 290.731C824.45 290.082 820.166 290.165 815.991 290.976C811.64 291.75 812.6 299.355 817.049 298.767C824.027 297.845 831.044 298.972 836.551 303.667C842.059 308.361 845.234 315.191 846.685 322.091C847.665 326.677 846.596 331.087 845.401 335.517C843.938 340.522 842.867 345.633 842.196 350.805C840.952 361.8 840.794 372.892 841.726 383.919C842.618 394.199 845.185 404.097 847.978 414.005C850.741 423.552 852.898 433.263 854.436 443.081C855.74 451.676 856.632 461.153 853.153 469.375C850.654 475.255 846.028 480.439 841.089 484.388C820.656 500.705 789.854 500.157 765.384 496.482C753.808 494.821 742.426 492.011 731.407 488.093C727.967 486.838 724.351 485.466 721.509 483.075C717.766 479.92 716.609 475.235 716.609 470.541C716.511 460.496 719.549 450.275 722.019 440.631C724.959 429.077 728.203 417.562 729.859 405.724C731.427 394.15 729.761 382.958 728.879 371.424C728.036 360.389 728.742 349.344 734.7 339.731C739.591 331.678 747.288 325.72 756.309 323.002C760.494 321.806 758.72 315.26 754.506 316.465L754.437 316.426Z" fill="#382C80"/>
<path d="M824.684 335.007C782.831 349.328 740.74 362.915 698.411 375.766C678.471 345.495 660.538 313.95 644.726 281.333C630.026 250.953 620.021 219.71 607.016 188.782C605.477 185.136 603.841 181.343 600.813 178.795C597.784 176.247 592.973 175.414 589.954 178.021C588.092 179.658 587.357 182.216 585.868 184.195C580.899 190.761 570.668 188.409 562.994 185.42L518.953 168.231C512.299 165.634 476.431 144.711 476.225 163.106C476.225 166.438 477.979 169.525 480.145 172.053C480.806 172.636 481.228 173.442 481.331 174.317C481.331 175.297 480.4 176.071 479.587 176.679C476.059 179.315 472.501 182.441 471.394 186.694C470.286 190.947 472.972 196.396 477.372 196.494C474.549 198.699 471.707 201.208 470.512 204.589C469.316 207.97 470.512 212.429 473.824 213.732C475.588 214.438 478.283 214.859 478.117 216.751C477.993 217.359 477.717 217.926 477.313 218.397C469.983 228.893 477.783 242.103 488.191 245.337C519.296 255 528.773 283.165 540.895 310.507C553.831 339.672 566.699 369.435 587.034 394.346C616.081 429.92 660.054 453.333 705.908 455.89C770.088 459.467 834.797 421.267 858.278 360.781C861.003 353.774 863.178 346.415 863.031 338.908C862.776 326.795 856.279 315.388 847.351 307.205C838.423 299.022 827.3 293.612 815.991 289.369" fill="white"/>
<path d="M823.812 331.852C781.94 346.088 739.833 359.615 697.49 372.433L701.41 374.021C682.69 345.502 665.74 315.86 650.656 285.262C635.24 254.02 624.46 221.053 611.132 189.007C608.526 182.745 605.635 175.659 598.608 173.327C595.646 172.272 592.388 172.431 589.543 173.768C586.24 175.483 585.172 178.491 583.193 181.373C579.576 186.645 571.629 184.313 566.65 182.666C558.536 179.922 550.608 176.453 542.63 173.327L530.684 168.633L525.02 166.418L521.874 165.183C521.423 165.007 519.032 164.017 520.179 164.526C517.239 163.223 514.377 161.714 511.476 160.322C503.636 156.569 495.169 152.551 486.378 151.708C482.458 151.326 478.029 151.904 475.157 154.922C471.237 159.038 471.659 165.702 474.177 170.377C474.532 171.034 474.921 171.672 475.344 172.288C475.765 172.866 476.196 173.444 476.637 174.003C477.245 175.166 477.519 175.166 477.46 174.003C477.95 172.092 476.48 174.003 475.961 174.415C475.148 175.052 474.344 175.689 473.58 176.375C470.714 178.796 468.61 181.996 467.523 185.587C465.72 192.603 470.159 199.806 477.411 200.561L474.471 193.593C470.101 197.033 465.896 201.502 465.955 207.45C465.962 209.881 466.722 212.251 468.131 214.232C469.268 215.82 472.051 218.309 474.168 218.152L474.383 218.221C475.272 218.58 475.053 217.927 473.727 216.261C473.321 216.802 472.967 217.379 472.668 217.985C472.045 219.148 471.53 220.365 471.13 221.621C470.392 224.003 470.132 226.508 470.365 228.991C470.909 234.128 473.118 238.947 476.657 242.711C480.41 246.788 484.957 248.483 490.014 250.335C494.783 252.092 499.275 254.524 503.352 257.558C511.28 263.438 517.19 271.503 521.972 280.019C526.99 288.937 530.919 298.424 534.977 307.802C539.965 319.347 545.031 330.862 550.402 342.22C561.368 365.436 574.177 388.094 591.934 406.841C624.059 440.749 670.334 461.653 717.247 460.741C760.151 459.889 802.585 441.367 832.142 410.203C847.214 394.307 860.043 374.384 865.776 353.069C869.209 341.064 867.621 328.179 861.375 317.367C855.133 306.587 845.186 298.483 834.288 292.691C828.72 289.89 822.979 287.448 817.099 285.38C812.062 283.479 809.886 291.544 814.874 293.426C835.053 301.04 859.161 316.289 858.377 340.809C858.024 351.951 852.791 363.153 847.655 372.865C842.958 381.775 837.295 390.142 830.77 397.815C804.43 428.315 767.248 447.36 727.106 450.912C683.652 454.597 639.974 438.485 607.751 409.409C572.618 377.696 556.076 332.812 536.966 290.829C529.195 273.718 519.385 256.715 502.597 247.072C494.757 242.544 483.497 241.672 479.616 232.313C478.774 230.353 478.437 228.214 478.636 226.09C478.95 223.395 480.498 221.631 481.576 219.289C482.646 217.122 482.28 214.521 480.655 212.733C479.117 211.047 476.735 211.184 475.138 209.891C471.169 206.696 478.019 201.208 480.214 199.463C483.301 197.013 480.41 192.799 477.323 192.486C475.471 192.3 474.981 189.242 475.265 187.841C475.892 184.754 478.852 182.382 481.145 180.54C483.438 178.697 485.702 176.669 485.134 173.317C484.536 169.809 480.861 167.868 480.234 164.291C479.977 163.065 480.15 161.788 480.724 160.675C480.89 160.391 481.361 159.979 482.576 159.754C485.114 159.293 488.691 160.087 491.494 160.881C498.893 162.968 505.822 166.408 512.721 169.701C523.687 175.003 535.437 178.854 546.786 183.264C553.538 185.881 560.29 189.036 567.297 190.928C572.716 192.398 578.881 193.084 584.065 190.467C586.362 189.263 588.291 187.462 589.651 185.253C591.454 182.441 592.454 179.079 596.511 180.647C599.314 181.725 600.901 184.675 602.136 187.223C603.9 190.839 605.331 194.632 606.84 198.356C618.806 227.864 629.115 258.018 643.198 286.634C658.681 317.989 676.124 348.338 695.422 377.5C696.235 378.837 697.826 379.485 699.342 379.097C741.652 366.174 783.727 352.53 825.566 338.163C829.486 336.801 827.83 330.47 823.822 331.842L823.812 331.852Z" fill="#382C80"/>
<path d="M763.708 191.898C758.085 194.534 754.387 200.071 754.104 206.275C748.371 203.57 741.119 201.375 736.092 205.295C731.535 208.803 731.29 215.986 734.2 220.975C737.111 225.963 742.334 229.03 747.568 231.392C750.614 232.762 753.736 233.959 756.917 234.979C761.895 236.557 767.315 237.674 772.293 236.125C779.222 233.761 783.575 226.898 782.759 219.622" fill="#382C80"/>
<path d="M762.748 188.409C755.56 191.043 750.416 197.435 749.381 205.02L756.584 202.08C747.862 197.269 734.24 195.505 728.948 206.147C723.979 216.153 729.928 226.502 738.278 232.225C743.109 235.518 748.832 237.762 754.34 239.614C759.847 241.467 765.58 242.682 771.362 241.702C782.26 239.869 789.424 228.962 787.454 218.309C786.474 212.88 777.781 214.193 777.899 219.603C778.026 225.483 774.43 231.079 768.197 231.559C760.974 232.098 752.517 228.364 746.304 224.954C741.698 222.425 735.886 217.78 737.699 211.743C739.659 205.197 748.754 209.519 752.801 211.038C755.8 212.165 759.073 209.283 759.014 206.314C759.024 201.644 761.528 197.335 765.58 195.015C768.932 192.976 766.756 186.881 762.797 188.409H762.748Z" fill="#382C80"/>
<path d="M776.047 211.351C765.776 222.131 759.837 236.439 760.572 251.462C760.729 254.775 761.258 258.195 763.081 260.968C765.433 264.536 769.569 266.476 773.577 267.946C775.194 268.544 776.968 269.2 777.82 270.69C778.348 271.783 778.555 273.003 778.418 274.208C778.036 281.617 776.605 288.614 777.252 296.062C777.294 297.914 777.753 299.733 778.595 301.384C779.775 303.154 781.524 304.467 783.553 305.108C788.659 306.94 794.333 305.882 799.449 303.981C803.738 302.445 807.7 300.118 811.131 297.121C813.875 294.661 817.011 291.035 817.824 287.321C818.138 285.939 817.824 284.508 817.883 283.097C818.069 280.647 818.441 278.197 818.716 275.757L821.94 247.18C822.606 241.3 823.273 235.322 822.401 229.461C821.528 223.601 818.961 217.75 814.237 214.173C811.471 212.238 808.371 210.829 805.094 210.018C799.339 208.379 793.389 207.521 787.405 207.47" fill="white"/>
<path d="M773.636 208.94C762.062 221.298 754.163 239.644 757.701 256.803C758.415 260.506 760.343 263.865 763.179 266.349C764.672 267.609 766.319 268.676 768.079 269.524C769.765 270.347 772.823 270.827 774.155 272.121C775.253 273.199 774.675 275.365 774.557 276.805C774.342 279.373 774.018 281.921 773.773 284.479C773.293 289.379 772.901 294.445 773.832 299.296C775.694 308.979 786.572 310.958 794.873 309.41C803.546 307.783 812.228 303.001 817.756 296.072C820.343 292.828 821.989 289.437 822.068 285.292C822.166 279.951 823.048 274.639 823.645 269.338C824.802 259.469 826.331 249.561 826.987 239.644C827.644 229.726 826.007 218.691 818.167 211.812C810.327 204.932 797.587 203.511 787.444 203.913C782.74 204.089 782.809 210.773 787.444 211.165C795.029 211.733 804.751 212.88 811.15 217.368C817.207 221.602 818.598 229.589 818.51 236.478C818.412 244.828 817.04 253.236 816.139 261.537C815.668 265.868 815.194 270.2 814.718 274.532C814.541 276.188 814.335 277.834 814.139 279.49C813.894 281.715 814.208 284.185 813.855 286.35C812.767 293.21 803.663 298.248 797.871 300.364C794.412 301.638 790.561 302.638 786.856 301.991C781.897 301.129 781.094 298.071 780.976 293.485C780.942 289.208 781.177 284.933 781.682 280.686C781.995 277.197 782.897 273.022 781.407 269.7C778.742 263.742 770.451 264.516 766.541 259.616C763.944 256.353 763.993 251.531 764.101 247.562C764.184 243.447 764.797 239.359 765.923 235.4C768.346 227.301 772.64 219.885 778.458 213.752C781.398 210.547 776.645 205.726 773.636 208.93V208.94Z" fill="#382C80"/>
<path d="M790.315 265.78C784.337 266.652 779.418 265.025 773.655 264.124C772.073 263.752 770.453 264.577 769.823 266.075C769.192 267.574 769.735 269.309 771.107 270.18C776.791 274.394 785.621 273.983 792.011 271.817C795.931 270.504 794.275 265.202 790.345 265.78H790.315Z" fill="#382C80"/>
<path d="M816.325 235.968C817.04 240.369 815.492 255.853 822.45 256.254C824.616 256.382 826.37 254.647 827.81 252.991C834.935 244.622 840.354 234.449 841.374 223.503C842.393 212.556 838.061 197.111 827.095 192.143C816.883 187.507 800.792 187.419 789.639 186.733C786.929 186.409 784.183 186.561 781.525 187.184C778.957 187.968 776.625 189.918 776.498 192.368C772.411 187.978 763.65 188.811 760.494 193.623C754.467 202.825 774.861 220.435 784.014 222.729C787.209 223.542 790.806 223.777 793.256 225.825C796.196 228.256 796.313 232.244 796.264 235.772L796.029 250.472C796.509 246.121 797.009 241.652 799.145 237.732C801.282 233.812 805.329 230.549 810.18 230.363C811.559 230.251 812.936 230.595 814.1 231.343C815.56 232.46 816.05 234.283 816.325 235.968Z" fill="#382C80"/>
<path d="M813.287 235.968C814.178 242.76 811.826 253.922 818.657 258.352C823.763 261.654 828.506 257.538 831.691 253.667C836.098 248.381 839.634 242.426 842.167 236.027C846.627 224.728 846.219 212.088 841.04 201.1C838.809 196.247 835.2 192.158 830.662 189.34C825.243 186.155 818.667 184.94 812.532 184.087C805.221 183.107 797.832 182.745 790.511 182.313C783.573 181.912 773.665 182.5 772.136 191.133L779.624 189.173C773.097 182.833 760.396 183.705 756.045 192.26C752.448 199.326 757.485 207.186 762.013 212.439C766.982 218.211 773.606 223.591 780.78 226.355C784.053 227.619 790.149 227.119 791.384 231.068C792.207 233.744 791.717 237.017 791.678 239.761L791.521 250.482C791.433 256.303 799.753 256.009 800.341 250.482C800.831 246.121 801.321 241.172 804.418 237.742C805.665 236.298 807.346 235.298 809.21 234.89C811.474 234.469 811.689 234.89 812.15 237.056C813.238 242.505 821.342 240.153 820.421 234.783C818.853 225.688 809.308 224.091 802.164 228.334C794.235 233.038 792.481 241.986 791.521 250.443H800.341C800.439 244.896 800.792 239.291 800.596 233.783C800.429 229.226 799.224 224.777 795.402 221.945C792.001 219.426 787.983 219.436 784.141 218.113C781.536 217.073 779.089 215.674 776.87 213.958C772.058 210.498 766.609 205.637 764.394 199.963C763.679 198.131 763.414 196.67 764.757 195.416C767.241 193.385 770.822 193.422 773.263 195.504C775.488 197.66 780.123 196.994 780.751 193.544C781.466 189.379 790.345 191.222 793.344 191.369C798.449 191.623 803.555 191.79 808.651 192.27C817.246 193.084 827.173 194.328 832.357 202.07C836.851 209.137 838.594 217.607 837.257 225.874C836.324 231.357 834.416 236.628 831.622 241.437C830.33 243.759 828.893 245.998 827.32 248.14C826.487 249.267 824.076 253.275 822.42 252.913C820.362 252.481 820.107 246.621 819.98 245.073C819.696 241.76 819.804 238.418 819.304 235.126C818.804 231.833 812.836 232.568 813.287 235.968Z" fill="#382C80"/>
<path d="M837.787 207.225C835.543 201.806 837.62 195.142 842.069 191.32C846.519 187.498 852.908 186.361 858.651 187.596C864.166 188.784 869.07 191.914 872.469 196.416C875.174 188.272 884.876 183.842 893.333 185.303C901.791 186.763 908.837 192.927 913.462 200.159C915.765 203.766 917.618 208.156 916.334 212.233C915.05 216.31 909.209 218.809 906.299 215.673C911.551 217.055 917.079 218.613 920.803 222.533C925.467 227.56 925.948 235.165 925.164 241.976C924.046 251.668 920.371 261.792 912.277 267.24C904.182 272.689 891.05 270.945 887.149 261.997C884.768 266.378 882.328 270.817 878.663 274.228C874.997 277.638 869.843 279.794 865.001 278.648C861.777 277.893 859.053 275.786 856.662 273.512C847.195 264.506 844.392 254.314 840.982 242.28C838.816 234.548 825.047 231.284 825.057 223.875" fill="#382C80"/>
<path d="M840.56 206.461C838.12 199.307 843.255 192.506 850.282 190.977C857.308 189.448 864.884 192.721 869.205 198.356C871.244 201.012 874.899 200.669 876.124 197.455C879.76 187.87 892.255 187.537 899.801 192.123C904.218 194.918 907.866 198.772 910.414 203.335C911.541 205.295 913.354 208.813 912.159 211.106C911.737 211.89 910.12 213.213 909.434 212.576L905.122 219.975C912.08 221.857 918.695 224.052 920.381 231.872C921.831 238.673 920.381 246.749 917.715 253.099C915.207 259.106 911.385 264.722 904.583 265.996C899.115 266.976 893.235 265.202 890.736 259.969C889.393 257.146 884.974 257.382 883.572 259.969C879.995 266.545 873.351 278.461 864.021 273.993C856.887 270.582 851.869 261.841 849.164 254.765C846.646 248.14 846.087 239.957 840.923 234.744C838.544 232.584 836.023 230.587 833.377 228.766C831.995 227.697 829.212 225.904 829.065 223.944C828.663 218.917 820.999 218.77 821.127 223.944C821.323 232.147 829.388 235.185 834.572 240.026C837.591 242.848 837.983 246.827 839.139 250.639C840.501 255.373 842.309 259.967 844.539 264.359C848.88 272.572 856.995 282.783 867.079 283.175C878.751 283.626 885.797 273.238 890.726 264.202H883.572C887.257 271.984 896.224 275.384 904.436 274.414C913.462 273.356 921.469 266.78 925.32 258.646C929.436 249.963 931.475 238.928 929.24 229.461C926.682 218.466 917.48 214.056 907.445 211.478C903.368 210.44 899.723 215.83 903.143 218.877C909.405 224.444 919.107 220.2 920.783 212.331C922.645 203.452 915.383 194.034 909.023 188.674C902.663 183.313 894.391 179.981 885.875 181.5C878.094 182.741 871.591 188.089 868.872 195.485L875.193 193.809C868.657 185.665 857.161 181.383 847.028 184.862C837.532 188.066 831.172 198.16 835.003 207.96C836.326 211.341 841.775 209.999 840.56 206.431V206.461Z" fill="#382C80"/>
<path d="M497.785 181.774C501.529 181.774 501.539 175.953 497.785 175.953C494.032 175.953 494.032 181.774 497.785 181.774Z" fill="#382C80"/>
<path d="M491.357 232.205C495.1 232.205 495.11 226.384 491.357 226.384C487.603 226.384 487.603 232.205 491.357 232.205Z" fill="#382C80"/>
<path d="M494.718 197.111C498.834 197.111 498.844 190.712 494.718 190.712C490.592 190.712 490.592 197.111 494.718 197.111Z" fill="#382C80"/>
<path d="M493.366 216.447C497.541 216.447 497.55 209.95 493.366 209.95C489.181 209.95 489.171 216.447 493.366 216.447Z" fill="#382C80"/>
<path d="M743.775 363.016C761.964 384.791 768.01 413.427 762.787 440.994C761.856 445.894 769.206 448.04 770.343 443.082C777.036 413.682 767.403 381.4 747.803 358.968C745.353 356.175 741.413 360.223 743.755 363.016H743.775Z" fill="#382C80"/>
<path d="M841.315 696.412C838.492 665.904 855.73 638.925 865.873 611.338C876.791 581.673 882.837 550.215 878.613 518.62C876.383 501.517 871.347 484.898 863.708 469.434C861.356 464.652 854.427 468.836 856.612 473.589C869.54 501.499 874.219 532.523 870.097 563.004C867.835 578.37 864.047 593.471 858.788 608.084C853.986 621.912 847.9 635.24 842.785 648.96C837.169 664.209 833.641 680.085 835.425 696.402C835.827 700.106 841.658 700.195 841.305 696.402L841.315 696.412Z" fill="#382C80"/>
<path d="M727.478 630.742C724.239 661.958 727.659 693.506 737.513 723.303C747.279 752.096 762.646 778.671 782.73 801.497C794.519 815.035 807.868 827.13 822.499 837.532C826.056 840.04 829.261 834.288 825.88 831.759C801.282 813.375 779.673 791.579 763.454 765.355C747.963 740.135 737.866 711.979 733.799 682.662C731.448 665.446 731.119 648.015 732.819 630.722C733.133 627.322 727.841 627.361 727.507 630.722L727.478 630.742Z" fill="#382C80"/>
<path d="M731.976 614.503C736.073 614.503 736.082 608.133 731.976 608.133C727.87 608.133 727.87 614.503 731.976 614.503Z" fill="#382C80"/>
<path d="M845.822 532.281C844.088 521.991 829.476 521.119 825.007 529.733C820.107 539.2 829.603 549.647 839.56 546.217C844.352 544.57 842.412 537.779 837.473 538.68C826.261 540.719 823.233 554.115 828.378 563.024C830.711 567.042 834.866 570.374 839.727 570.168C844.734 569.952 849.223 565.493 848.762 560.368L840.442 561.495C841.441 566.057 845.346 569.401 850.007 569.688C854.907 569.835 858.582 566.61 860.238 562.259C862.198 557.075 853.868 554.811 851.937 559.966C851.114 562.161 848.997 560.828 848.605 559.251C847.508 554.723 839.785 555.546 840.295 560.368C840.481 562.2 838.619 561.906 837.473 561.142C835.738 559.986 834.68 557.653 834.229 555.723C833.249 551.44 835.081 547.197 839.56 546.197L837.473 538.661C833.758 540.092 829.348 537.132 831.465 532.987C833.876 528.253 838.864 530.772 840.677 534.427C842.196 537.495 846.312 535.192 845.822 532.261V532.281Z" fill="white"/>
<path d="M766.981 642.374C760.925 637.621 757.73 629.487 759.788 621.922C760.523 619.197 764.139 612.523 767.383 616.434C770.441 620.118 770.921 626.234 770.784 630.791C770.666 634.711 775.997 635.857 777.967 632.751C780.309 629.027 785.239 630.996 786.327 634.642C787.64 639.023 784.367 642.374 780.701 644.089C777.507 645.589 778.271 651.077 781.681 651.743C788.541 653.076 792.393 660.798 787.561 666.443C782.73 672.088 774.655 669.236 771.823 663.052C769.863 658.73 763.434 661.886 764.424 666.169C764.865 668.05 761.052 667.482 760.239 667.09C758.158 665.985 756.642 664.052 756.064 661.768C754.712 656.457 758.112 650.724 760.729 646.373C763.502 641.767 756.407 637.67 753.546 642.178C747.969 650.998 743.608 663.356 752.438 671.735C755.907 675.028 760.817 676.753 765.502 675.302C770.348 673.872 773.28 668.956 772.234 664.013L764.394 666.169C768.54 678.742 785.19 682.446 793.902 672.156C802.448 662.072 797.048 646.108 783.886 643.629L784.866 651.292C792.706 647.068 797.303 637.112 792.216 628.987C787.385 621.275 776.086 621.01 771.244 628.831L778.428 630.791C778.575 623.931 777.183 614.826 771.685 610.073C766.188 605.32 758.72 608.613 755.025 614.091C747.764 624.979 753.065 640.306 763.052 647.323C765.992 649.352 769.696 644.589 766.874 642.374H766.981Z" fill="white"/>
<path d="M820.274 788.61C815.374 788.424 809.592 785.346 809.288 779.79C809.156 777.558 809.983 775.376 811.561 773.792C812.247 773.111 813.127 772.659 814.08 772.499C815.521 772.273 814.962 773.381 815.246 771.793L822.341 769.921C819.539 767.334 825.948 763.247 827.79 762.248C829.348 761.405 831.387 760.611 833.18 761.17C834.376 761.532 836.12 762.816 835.826 764.286C834.787 769.735 842.98 772.126 844.244 766.609C845.394 761.683 843.18 756.587 838.796 754.065C834.444 751.429 829.231 751.811 824.752 753.879C816.667 757.612 807.112 769.412 817.196 776.595C819.764 778.428 823.792 775.997 823.586 772.93C823.233 767.52 818.539 764.306 813.267 764.874C807.994 765.443 804.182 769.774 802.712 774.517C799.213 785.856 809.572 795.009 820.274 794.999C824.429 794.999 824.399 788.727 820.274 788.561V788.61Z" fill="white"/>
<path d="M871.42 708.417C870.704 713.14 871.812 718.912 876.967 720.618C879.164 721.367 881.583 721.065 883.529 719.799C885.474 718.533 886.729 716.442 886.933 714.13C887.129 711.994 884.973 710.21 883.013 710.21C880.855 710.246 879.107 711.972 879.044 714.13C879.044 713.878 879.112 713.631 879.24 713.415C879.544 713.052 879.544 713.062 879.24 713.415L879.485 713.199C879.074 713.415 879.083 713.405 879.485 713.199C879.08 713.284 879.021 713.303 879.309 713.258C879.593 713.258 879.524 713.258 879.113 713.258C878.642 713.258 878.701 713.258 879.113 713.258C879.583 713.258 879.456 713.434 879.221 713.258C879.152 713.013 878.662 712.611 878.515 712.121C878.323 711.21 878.323 710.269 878.515 709.357C879.015 705.437 872.165 704.457 871.567 708.377L871.42 708.417Z" fill="white"/>
<path d="M659.044 743.216C660.632 742.697 665.365 741.08 666.316 743.275C666.923 744.657 665.336 747.558 664.826 748.812C663.88 750.948 662.772 753.009 661.514 754.976C660.809 756.229 660.815 757.76 661.531 759.006C662.247 760.252 663.565 761.03 665.002 761.052C668.05 761.141 673.636 761.121 675.635 763.992C678.242 767.775 672.205 772.548 669.755 774.616C665.835 777.977 670.873 784.22 675.185 781.652C674.459 781.485 674.342 781.554 674.802 781.848C675.119 782.083 675.391 782.371 675.606 782.701C676.072 783.429 676.404 784.236 676.586 785.082C676.989 786.497 677.193 787.962 677.194 789.433C677.194 792.618 676.331 795.999 673.999 798.253C672.2 799.944 669.716 800.7 667.28 800.299C664.844 799.897 662.734 798.384 661.572 796.205C659.348 791.736 652.331 794.872 653.625 799.557C657.349 813.012 675.841 812.297 682.799 802.173C686.464 796.842 687.121 789.698 685.612 783.553C684.054 777.193 677.772 769.559 670.657 773.91L676.086 780.946C681.849 775.86 687.768 767.961 683.123 760.17C679.448 754.026 671.451 752.997 664.963 752.938L668.452 759.024C670.873 754.075 675.018 744.706 671.01 739.649C667.844 735.651 661.798 736.494 657.564 737.944C654.281 739.061 655.604 744.275 659.005 743.187L659.044 743.216Z" fill="white"/>
<path d="M743.04 765.061C737.081 765.57 733.877 772.901 736.748 777.957C739.766 783.279 747.979 783.563 751.693 778.937L744.96 775.017C743 783.191 744.637 793.265 753.29 796.832C760.591 799.851 770.725 793.892 767.99 785.327C766.579 780.976 760.856 782.113 760.386 786.307C760.013 789.58 756.466 788.992 754.829 787.287C752.134 784.425 752.702 779.672 752.869 776.066C753.124 771.754 747.459 771.039 745.352 774.037C745.029 774.371 744.577 774.549 744.113 774.525C743.649 774.5 743.218 774.276 742.932 773.91C742.187 772.646 743.833 771.499 744.617 770.97C746.94 769.363 746.421 764.816 743.03 765.09L743.04 765.061Z" fill="white"/>
<path d="M681.8 577.233C682.78 576.175 684.161 576.577 685.112 577.576C686.582 579.125 686.464 582.045 686.425 583.986C686.386 585.926 686.112 592.12 683.26 592.12L685.328 599.715L683.681 599.587L684.122 600.205C684.269 600.746 684.452 601.276 684.671 601.792C685.028 603.287 685.058 604.842 684.759 606.349C684.593 606.967 683.985 607.457 683.848 607.78C683.848 607.839 683.524 607.78 683.495 607.78C683.466 607.78 684.122 609.74 683.809 607.966L677.213 613.043C678.066 613.601 677.929 615.179 677.399 615.924C676.557 617.119 674.842 617.031 673.597 616.649C669.422 615.385 668.864 610.22 669.109 606.545C669.52 600.665 660.749 600.91 660.093 606.545C658.926 616.58 665.835 627.615 677.056 625.871C687.062 624.322 690.443 610.887 681.751 605.291C678.183 602.998 674.479 606.771 675.145 610.367C675.9 614.434 679.83 616.708 683.75 616.659C687.827 616.548 691.395 613.889 692.668 610.014C694.038 605.662 693.708 600.953 691.747 596.833C689.787 592.913 685.406 590.022 681.202 592.659C677.968 594.697 679.036 600.499 683.26 600.263C692.746 599.705 694.824 588.582 693.922 580.889C693.422 576.645 691.56 572.51 687.533 570.589C684.005 568.913 679.536 569.286 676.968 572.412C674.205 575.773 678.83 580.614 681.868 577.312L681.8 577.233Z" fill="white"/>
<path d="M733.24 526.342C725.253 528.949 718.687 537.318 723.548 545.668C725.516 549.019 729.249 550.926 733.118 550.556C736.988 550.186 740.292 547.607 741.589 543.943L733.867 542.904C734.114 547.437 736.949 551.424 741.15 553.145C745.351 554.866 750.168 554.016 753.526 550.96C761.189 544.1 758.014 532.428 749.606 527.812C746.235 525.94 741.766 529.831 744.069 533.349C749.753 541.954 763.228 536.358 763.042 526.626C762.944 521.393 759.259 516.601 754.731 514.239C748.567 511.025 741.256 511.946 734.729 513.357C728.987 514.592 731.525 522.912 737.121 522.02C742.354 521.197 750.086 519.296 753.781 524.51C754.761 525.862 755.3 527.616 753.928 528.812C753.124 529.517 751.438 529.792 751.076 529.263L745.529 534.8C748.783 536.573 751.409 540.454 749.037 544.041C747.175 546.824 741.991 547.04 741.697 542.904C741.749 540.905 740.287 539.188 738.306 538.919C736.324 538.65 734.458 539.915 733.975 541.856C732.995 544.796 729.565 541.709 729.31 539.896C728.751 535.976 732.485 533.359 735.611 532.056C738.738 530.752 736.542 525.274 733.21 526.352L733.24 526.342Z" fill="white"/>
<path d="M793.882 564.788C789.806 568.561 790.854 576.117 794.951 579.439C795.759 580.208 796.871 580.571 797.977 580.429C799.084 580.286 800.067 579.653 800.654 578.704C802.506 576.195 802.739 572.84 801.252 570.099C799.498 566.983 794.882 568.512 794.755 571.863C794.838 572.936 794.712 574.014 794.382 575.039L799.351 573.735C797.263 572.5 797.587 570.246 798.577 568.414C799.3 567.117 798.967 565.486 797.791 564.579C796.616 563.671 794.954 563.76 793.882 564.788Z" fill="white"/>
<path d="M682.094 679.222C683.858 679.614 685.759 680.045 686.827 681.368C686.827 681.368 686.474 680.32 686.719 681.192C686.847 680.888 686.808 680.927 686.612 681.29C686.817 681.025 686.788 681.045 686.514 681.349C686.808 681.133 686.788 681.133 686.465 681.349C686.684 681.244 686.928 681.2 687.17 681.221H686.612C687.056 681.3 687.075 681.3 686.67 681.221C683.789 680.437 682.104 683.436 683.133 685.827C684.299 688.542 687.778 688.954 690.091 687.552C692.09 686.28 693.35 684.118 693.472 681.751C693.697 676.419 687.964 674.244 683.672 673.626C682.132 673.223 680.551 674.118 680.104 675.645C679.708 677.185 680.606 678.76 682.133 679.203L682.094 679.222Z" fill="white"/>
<path d="M813.041 715.541C817.118 715.541 817.118 709.2 813.041 709.2C808.964 709.2 808.955 715.541 813.041 715.541Z" fill="white"/>
<path d="M718.903 812.365C719.344 812.188 719.628 812.277 718.765 812.365C718.128 812.439 717.524 812.691 717.021 813.09C716.468 813.525 716.003 814.06 715.649 814.668C715.059 815.72 714.739 816.902 714.718 818.108C714.645 820.576 715.873 822.901 717.952 824.233C723.175 827.398 729.986 821.822 728.203 816.079C727.849 814.643 726.744 813.512 725.316 813.125C723.888 812.739 722.363 813.159 721.334 814.221C720.304 815.283 719.932 816.82 720.363 818.235C720.539 818.901 720.363 817.833 720.363 817.676C720.363 816.834 720.363 817.931 720.275 817.902L720.471 817.422C720.275 817.716 720.284 817.735 720.471 817.471C720.686 816.863 720.471 817.686 720.235 817.657L720.608 817.353C720.294 817.52 720.294 817.529 720.608 817.353C720.921 817.177 720.921 817.226 720.716 817.284C720.51 817.343 720.539 817.353 721.108 817.284L721.617 817.373C721.264 817.284 721.274 817.275 721.617 817.373C722.186 817.569 721.245 816.951 722.097 817.676C721.725 817.353 722.166 817.774 722.264 817.921C721.872 817.324 722.411 818.705 722.264 817.99C722.255 817.831 722.218 817.676 722.156 817.529C722.391 817.745 722.244 818.343 722.254 817.716C722.254 817.265 722.029 818.539 722.254 817.912C722.019 818.402 721.97 818.519 722.107 818.274C722.244 818.029 722.166 818.137 721.999 818.362C721.647 818.794 721.784 818.607 722.421 817.804L722.793 816.922C722.883 816.499 722.939 816.07 722.96 815.638L721.98 818.019L722.146 817.853C723.193 816.774 723.405 815.134 722.666 813.825C721.905 812.519 720.359 811.89 718.903 812.296V812.365Z" fill="white"/>
<path d="M863.433 731.839C870.498 737.499 878.221 742.287 886.433 746.098C890.412 747.891 893.95 742.178 889.922 740.129C882.091 736.245 874.592 731.725 867.5 726.615C864.481 724.4 860.483 729.555 863.462 731.839H863.433Z" fill="#382C80"/>
<path d="M823.478 745.471C831.789 756.564 841.579 766.893 853.202 774.557C857.171 777.174 860.522 771.009 856.867 768.285C846.312 760.445 836.473 752.095 827.996 741.992C825.928 739.512 821.509 742.854 823.478 745.471Z" fill="#382C80"/>
<path d="M747.019 824.723C748.66 817.758 749.463 810.622 749.41 803.467C749.41 799.213 742.707 799.204 742.785 803.467C742.924 810.041 742.359 816.612 741.099 823.067C740.325 826.908 746.117 828.574 746.979 824.703L747.019 824.723Z" fill="#382C80"/>
<path d="M673.832 838.168C677.282 831.259 679.497 823.9 679.144 816.128C678.948 812.042 673.342 812.208 672.901 816.128C672.186 822.577 670.941 828.976 668.256 834.915C666.551 838.639 671.951 841.932 673.832 838.168Z" fill="#382C80"/>
<path d="M354.323 160.802C406.175 159.822 458.046 157.47 509.79 154.07C524.657 153.09 539.514 152.11 554.341 150.698C558.016 150.355 558.124 144.652 554.341 144.877C502.548 148.013 450.804 151.58 398.962 154.07C384.095 154.785 369.199 155.108 354.323 155.657C351.02 155.775 350.991 160.871 354.323 160.802Z" fill="#382C80"/>
<path d="M572.912 146.406C578.076 146.406 578.086 138.38 572.912 138.38C567.737 138.38 567.737 146.406 572.912 146.406Z" fill="#382C80"/>
<path d="M154.589 449.539C150.983 511.044 148.425 572.569 147.641 634.171C146.857 695.533 147.752 756.874 150.326 818.196C151.786 852.79 153.54 887.423 156.039 921.968C156.412 927.093 164.409 927.172 164.105 921.968C160.479 860.473 157.892 798.998 156.667 737.405C155.451 676.066 155.393 614.699 156.804 553.361C157.607 518.737 158.568 484.133 160.322 449.539C160.508 445.855 154.805 445.874 154.589 449.539Z" fill="#382C80"/>
<path d="M81.6476 737.483C92.8784 749.792 103.903 762.317 114.527 775.155C119.753 781.466 124.866 787.859 129.864 794.333C132.477 797.711 135.067 801.105 137.635 804.515C140.124 807.828 142.398 811.542 145.534 814.315C148.925 817.255 153.237 813.62 151.512 809.7C149.787 805.78 146.837 802.526 144.289 799.184C141.741 795.842 139.164 792.501 136.537 789.218C131.35 782.684 126.055 776.265 120.652 769.961C109.708 757.123 98.2456 744.768 86.2634 732.897C83.2548 729.957 78.8252 734.416 81.6476 737.513V737.483Z" fill="#382C80"/>
<path d="M152.766 811.953C206.441 821.665 261.115 820.519 315.446 820.068C331.126 819.94 346.904 820.636 362.486 819.764C364.636 819.658 366.325 817.884 366.325 815.731C366.325 813.579 364.636 811.805 362.486 811.699C348.903 810.797 335.046 811.63 321.463 811.846C307.881 812.061 294.151 812.316 280.49 812.424C253.461 812.639 226.472 812.169 199.483 810.611C184.126 809.729 168.77 808.327 153.521 806.358C150.355 805.956 149.601 811.385 152.756 811.953H152.766Z" fill="#382C80"/>
<path d="M105.06 807.602C97.1021 810.748 95.4851 820.597 100.346 827.202C104.501 832.847 116.702 841.138 122.886 834.062C125.101 831.563 123.013 826.399 119.279 827.859C112.762 830.417 99.0229 818.059 107.666 813.855C111.116 812.169 108.646 806.132 105.02 807.573L105.06 807.602Z" fill="#382C80"/>
<path d="M71.152 607.8C84.921 619.305 98.3078 631.32 111.332 643.629C124.356 655.938 136.489 669.295 149.209 682.016C153.286 686.102 159.146 680.056 155.471 675.753C143.711 662.033 129.991 649.578 116.565 637.533C103.139 625.489 89.1252 614.141 74.5722 603.371C72.0144 601.469 68.6922 605.752 71.1422 607.82L71.152 607.8Z" fill="#382C80"/>
<path d="M155.784 679.987C213.928 686.847 272.463 683.485 330.812 682.113C347.051 681.731 363.339 682.025 379.558 681.261C384.801 681.016 384.761 673.489 379.558 673.136C365.083 672.156 350.481 672.784 335.987 673.136C321.493 673.489 306.92 673.969 292.396 674.43C263.055 675.41 233.704 676.204 204.353 675.929C188.154 675.782 171.935 675.263 155.784 674.048C151.864 673.754 152.041 679.585 155.784 680.026V679.987Z" fill="#382C80"/>
<path d="M153.08 513.484C211.233 520.344 269.759 516.973 328.108 515.601C344.346 515.229 360.634 515.523 376.853 514.758C382.106 514.513 382.057 506.977 376.853 506.634C362.388 505.654 347.776 506.272 333.292 506.634C318.808 506.997 304.225 507.457 289.692 507.928C260.36 508.859 231 509.702 201.649 509.427C185.449 509.27 169.24 508.751 153.08 507.536C149.16 507.242 149.336 513.083 153.08 513.524V513.484Z" fill="#382C80"/>
<path d="M148.964 398.285C149.503 403.646 150.003 409.007 150.61 414.357C151.09 418.64 157.813 418.767 157.47 414.357C157 408.997 156.431 403.636 155.892 398.285C155.461 393.915 148.572 393.875 149.032 398.285H148.964Z" fill="#382C80"/>
<path d="M81.4811 461.917L115.193 489.122C126.297 498.079 137.145 507.575 148.866 515.709C152.12 517.963 156.01 512.887 153.09 510.231C142.594 500.696 130.952 492.317 119.77 483.565L86.1557 457.213C82.8433 454.616 78.1001 459.173 81.4517 461.917H81.4811Z" fill="#382C80"/>
<path d="M176.6 838.933C177.972 839.325 178.383 841.353 178.854 842.529C179.496 844.471 180.428 846.305 181.617 847.968C185.214 852.437 191.947 852.163 197.16 852.819C210.782 854.524 224.427 856.037 238.095 857.357C265.633 860.012 293.288 861.502 320.944 862.1C328.588 862.257 336.235 862.351 343.886 862.384C351.99 862.384 360.124 862.639 368.17 861.649C372.982 861.061 373.139 854.475 368.17 854.034C354.578 852.839 340.671 853.78 327.01 853.603C313.349 853.427 299.57 853.015 285.85 852.408C258.685 851.222 231.519 849.311 204.51 846.39C200.708 845.979 196.909 845.551 193.113 845.107C190.114 844.754 187.517 844.822 186.037 841.931C184.136 838.227 182.95 833.807 178.197 832.915C174.277 832.18 172.631 837.815 176.531 838.933H176.6Z" fill="#382C80"/>
<path d="M184.156 703.252C186.371 702.056 188.164 707.319 188.83 708.583C189.808 710.667 191.375 712.418 193.338 713.62C197.925 716.178 204.785 715.08 209.822 715.247C223.15 715.672 236.488 715.975 249.835 716.158C276.289 716.57 302.749 716.923 329.215 717.217C344.102 717.383 359.086 718.03 373.972 717.511C379.401 717.325 379.372 709.396 373.972 709.102C360.448 708.358 346.826 708.642 333.282 708.534L292.593 708.181C265.466 707.956 238.33 707.721 211.253 708.034C207.47 708.083 203.687 708.142 199.904 708.083C196.298 708.034 195.191 706.613 193.466 703.673C190.947 699.381 186.39 695.559 181.324 698.283C178.06 700.037 180.961 705.016 184.264 703.252H184.156Z" fill="#382C80"/>
<path d="M105.873 660.298C101.6 661.69 98.0331 665.522 95.4851 669.118C94.3287 670.784 95.2695 673.038 96.7787 674.018C101.581 677.262 106.677 681.79 112.547 682.838C117.8 683.769 122.7 681.3 124.66 676.292C126.316 672.009 119.436 669.216 117.29 673.185C115.771 675.998 112.331 674.694 110.077 673.499C106.794 671.754 103.629 669.726 100.424 667.834L101.718 672.734C103.678 669.589 106.108 667.354 108.382 664.551C109.852 662.738 108.558 659.406 105.893 660.279L105.873 660.298Z" fill="#382C80"/>
<path d="M109.842 506.742C106.726 509.859 103.747 513.749 102.385 517.993C101.15 521.844 105.04 525.94 108.157 527.734C115.664 532.065 124.905 528.714 128.874 521.266C131.373 516.572 124.356 512.446 121.72 517.081C118.839 522.148 111.92 523.647 109.156 517.601L109.548 520.541C110.62 517.226 112.361 514.167 114.664 511.554C117.526 508.281 112.978 503.606 109.842 506.732V506.742Z" fill="#382C80"/>
<path d="M183.812 533.32C183.558 543.649 193.612 549.421 202.687 550.215C208.685 550.734 214.829 549.999 220.827 549.735C227.354 549.431 233.881 549.186 240.427 548.951C266.56 547.99 292.694 548.062 318.827 549.166C333.684 549.794 348.492 550.97 363.329 552.038C368.65 552.42 368.523 544.325 363.329 543.816C339.387 541.473 315.181 540.67 291.132 540.425C267.259 540.17 243.347 540.67 219.533 542.385C211.341 542.983 189.467 547.148 189.565 533.32C189.565 529.655 183.959 529.655 183.871 533.32H183.812Z" fill="#382C80"/>
<path d="M101.199 392.984C95.4854 397.6 93.7018 408.105 100.924 412.309C106.804 415.739 116.085 412.094 115.86 404.636C115.693 399.393 108.02 399.422 107.735 404.636C107.735 404.861 107.598 405.077 107.059 405.332C106.301 405.723 105.411 405.766 104.619 405.449C101.885 403.783 104.296 399.168 105.854 397.609C108.96 394.581 104.423 390.338 101.199 392.945V392.984Z" fill="#382C80"/>
<path d="M184.704 400.814C186.322 402.304 187.221 404.417 187.174 406.615C187.19 408.386 188.618 409.818 190.388 409.84C214.771 408.958 239.134 407.135 263.516 406.184C287.689 405.257 311.882 404.851 336.095 404.969C349.893 405.047 363.682 405.518 377.47 405.733C383.233 405.831 383.194 397.041 377.47 396.815C353.098 395.835 328.588 396.1 304.206 396.551C280 396.992 255.823 397.962 231.686 399.589C217.966 400.51 204.069 401.549 190.408 403.391L193.632 406.615C193.431 402.802 191.691 399.234 188.811 396.727C186.018 394.316 182.039 398.168 184.724 400.814H184.704Z" fill="#382C80"/>
<path d="M251.541 304.48C262.115 305.195 272.366 306.185 282.901 304.735C293.308 303.304 303.481 300.648 314.025 301.706C319.278 302.236 319.151 294.16 314.025 293.543C303.637 292.308 293.445 295.189 283.273 296.993C272.885 298.845 262.046 299.129 251.501 298.953C247.915 298.894 247.983 304.254 251.501 304.49L251.541 304.48Z" fill="#382C80"/>
<path d="M252.109 313.221C253.5 334.497 254.422 355.704 255.049 377.01C255.186 381.576 262.056 381.596 262.144 377.01C262.495 355.406 261.049 333.811 257.822 312.447C257.342 309.194 251.864 309.948 252.07 313.221H252.109Z" fill="#382C80"/>
<path d="M279 316.475C280.509 326.069 281.519 335.752 282.126 345.434C282.414 350.079 282.594 354.731 282.665 359.389C282.744 363.946 281.95 369.189 283.204 373.609C283.651 375.067 284.997 376.063 286.522 376.063C288.047 376.063 289.393 375.067 289.839 373.609C291.152 369.258 290.27 363.888 290.035 359.389C289.761 354.287 289.356 349.191 288.82 344.101C287.84 334.301 286.272 324.648 284.341 315.005C283.636 311.467 278.461 313.045 279 316.475Z" fill="#382C80"/>
<path d="M767.256 230.568C771.254 230.833 772.616 234.792 770.009 237.644C768.863 238.898 767.579 240.006 767.069 241.681C766.021 244.955 769.382 246.954 772.165 247.63C774.41 248.189 776.027 244.866 773.792 243.759C773.371 243.553 770.441 242.514 770.382 242.103C770.441 242.573 772.655 240.221 772.94 239.898C774.427 238.407 775.214 236.356 775.105 234.253C774.953 232.354 774.027 230.601 772.545 229.404C771.063 228.207 769.154 227.672 767.265 227.922C766.535 227.922 765.942 228.515 765.942 229.245C765.942 229.976 766.535 230.568 767.265 230.568H767.256Z" fill="#382C80"/>
<path d="M781.191 235.684C781.988 235.682 782.783 235.764 783.563 235.929C784.293 236.254 784.997 236.634 785.67 237.066C787.247 237.811 789.364 236.204 788.257 234.479C786.787 232.225 782.681 231.294 780.417 232.96C779.872 233.309 779.618 233.972 779.788 234.596C779.959 235.22 780.515 235.661 781.162 235.684H781.191Z" fill="#382C80"/>
<path d="M781.868 241.731C783.085 241.731 784.073 240.744 784.073 239.526C784.073 238.308 783.085 237.321 781.868 237.321C780.65 237.321 779.663 238.308 779.663 239.526C779.684 240.735 780.659 241.71 781.868 241.731Z" fill="#382C80"/>
<path d="M767.716 237.83C770.323 237.83 770.333 233.773 767.716 233.773C765.1 233.773 765.1 237.83 767.716 237.83Z" fill="#382C80"/>
<path d="M775.057 254.02C776.545 254.541 778.158 254.585 779.672 254.147C781.309 253.588 783.044 252.452 782.985 250.521C782.978 249.992 782.728 249.495 782.307 249.174C781.886 248.853 781.341 248.742 780.829 248.875C779.065 249.345 777.948 251.53 775.929 251.011C775.391 250.864 774.816 251.015 774.42 251.407C774.024 251.799 773.867 252.372 774.009 252.911C774.15 253.45 774.568 253.873 775.106 254.02H775.057Z" fill="#382C80"/>
</svg>
