<svg width="1000" height="1000" viewBox="0 0 1000 1000" fill="none" xmlns="http://www.w3.org/2000/svg">
<path d="M322.444 387.888C320.709 394.454 324.286 401.431 329.304 405.998C331.695 408.174 334.556 410.026 337.771 410.398C344.484 411.163 350.109 405.41 353.598 399.618C359.197 390.306 362.324 379.717 362.682 368.856C362.8 365.122 362.545 361.222 360.722 357.968C358.272 353.598 353.402 351.108 348.531 349.932C341.125 348.167 333.345 348.855 326.364 351.892" fill="#382C80"/>
<path d="M319.543 387.094C316.965 396.688 322.306 406.567 330.137 412.045C339.378 418.503 349.433 413.299 355.499 405.283C361.565 397.267 365.299 386.839 366.779 376.863C368.288 366.416 368.102 355.225 358.38 348.855C348.267 342.23 334.605 343.239 323.963 347.767C319.063 349.864 322.61 358.547 327.638 356.499C335.478 353.304 346.591 352.069 353.882 357.479C357.606 360.242 357.978 364.564 357.861 368.886C357.698 373.869 356.891 378.81 355.46 383.586C353.294 390.965 349.217 402.118 341.426 405.332C333.057 408.782 324.021 396.12 325.344 388.731C326.021 384.977 320.562 383.331 319.543 387.133V387.094Z" fill="#382C80"/>
<path d="M491.768 456.419C487.26 452.989 480.42 454.058 476.088 457.733C471.756 461.408 469.649 467.072 468.758 472.668C468.171 475.513 468.258 478.457 469.012 481.262C469.715 483.259 470.789 485.104 472.178 486.701C476.421 491.856 482.732 495.57 489.406 495.521C496.08 495.472 502.822 491.151 504.596 484.741C505.958 479.783 504.371 474.53 502.568 469.708C501.635 466.821 500.213 464.116 498.363 461.711C496.403 459.408 493.463 457.703 490.523 457.87" fill="#382C80"/>
<path d="M493.248 453.94C474.079 440.387 456.753 472.482 467.444 487.711C473.119 495.776 482.85 501.431 492.924 499.775C502.489 498.216 510.016 489.975 509.682 480.175C509.477 474.167 507.193 467.65 504.302 462.397C501.411 457.145 496.599 453.45 490.523 453.47C484.751 453.47 484.751 462.29 490.523 462.437C494.551 462.525 496.55 466.827 497.854 470.051C499.49 474.138 501.49 479.175 500.255 483.614C498.216 490.896 489.142 492.434 483.066 489.739C479.386 488.108 476.279 485.412 474.148 481.997C471.982 478.332 472.678 473.873 473.736 469.943C475.471 463.446 482.654 453.911 490.308 459.036C493.473 461.153 496.315 456.096 493.248 453.969V453.94Z" fill="#382C80"/>
<path d="M561.848 629.36C568.433 666.6 575.016 703.84 581.595 741.08C584.28 756.289 583.633 784.602 591.571 797.626C598.911 809.69 615.875 806.534 629.742 807.426C678.246 810.693 726.821 812.215 775.468 811.993C799.772 811.901 824.07 811.375 848.361 810.415C857.925 810.043 868.539 811.787 877.055 806.877C884.415 802.634 889.795 795.313 894.695 788.561L916.255 758.74C922.321 750.361 928.456 741.854 932.111 732.181C936.502 720.549 937.07 707.887 938.07 695.49C943.842 623.451 965.51 552.41 960.727 480.273C960.722 478.76 960.415 477.265 959.826 475.872C957.699 471.658 951.231 471.747 947.517 474.657C943.803 477.568 941.96 482.193 939.677 486.319C936.402 492.097 931.96 497.13 926.633 501.098C917.813 507.732 906.357 512.23 895.401 509.996C882.465 507.36 869.979 506.654 856.524 506.252C825.412 505.331 794.287 504.861 763.15 504.841C701.521 504.802 639.918 506.523 578.341 510.006C520.237 513.279 555.566 593.786 561.848 629.36Z" fill="#7F72FF"/>
<path d="M559.153 630.066C563.818 656.526 568.326 682.986 572.873 709.446C574.95 721.49 577.596 733.554 579.086 745.706C580.242 755.045 580.625 764.473 581.791 773.822C582.849 782.191 584.113 791.178 588.357 798.626C592.806 806.466 600.979 809.278 609.466 810.121C614.023 810.582 618.609 810.493 623.186 810.552C628.811 810.621 634.417 811.101 640.032 811.464C653.556 812.326 667.087 813.051 680.624 813.639C733.936 815.952 787.287 816.191 840.677 814.355C846.557 814.149 852.437 814.061 858.317 814.1C863.639 814.1 869.195 813.943 874.262 812.14C884.954 808.377 891.951 798.694 898.35 789.884C906.001 779.352 913.651 768.814 921.302 758.269C928.407 748.401 934.963 738.179 938.031 726.272C941.137 714.208 941.382 701.596 942.529 689.248C943.724 676.41 945.39 663.631 947.282 650.881C951.084 625.273 955.769 599.803 959.424 574.166C963.021 548.98 965.696 523.589 965.471 498.109C965.412 491.788 965.363 485.369 964.716 479.077C964.197 473.922 961.511 469.738 956.17 468.718C944.499 466.504 940.108 478.068 935.159 486.006C929.194 495.43 919.955 502.317 909.219 505.341C903.133 506.968 897.772 506.135 891.696 505.096C885.62 504.057 879.378 503.342 873.184 502.881C847.087 500.921 820.695 501.088 794.539 500.804C740.966 500.203 687.425 500.938 633.917 503.009C620.354 503.538 606.791 504.149 593.227 504.841C583.898 505.321 573.921 504.969 564.954 508.016C553.194 512.015 545.354 521.423 542.63 533.496C539.69 546.56 541.444 560.378 543.865 573.363C546.452 587.171 550.343 600.646 554.204 614.141C555.835 619.468 557.192 624.874 558.271 630.34C559.114 635.034 566.268 633.045 565.425 628.38C560.956 603.449 551.528 579.155 550 553.743C549.382 543.463 549.941 531.203 556.791 523.363C560.282 519.508 564.867 516.81 569.933 515.631C573.557 514.787 577.257 514.308 580.977 514.2C587.439 513.841 593.897 513.495 600.352 513.161C652.011 510.548 703.713 509.183 755.457 509.065C781.067 509.006 806.678 509.251 832.289 509.8C844.911 510.065 857.573 510.212 870.175 510.986C876.251 511.358 882.327 511.966 888.345 512.887C893.96 513.789 899.321 515.102 905.054 514.475C915.716 513.308 925.771 507.909 933.572 500.657C937.398 497.092 940.653 492.96 943.225 488.407C945.312 484.702 947.145 478.812 951.466 477.088C952.642 476.607 954.828 476.255 955.896 477.205C957.533 478.675 956.984 483.262 957.082 485.271C957.395 491.432 957.529 497.599 957.484 503.773C957.415 516.101 956.7 528.42 955.524 540.699C950.927 590.15 939.52 638.699 934.875 688.131C933.748 700.204 933.611 712.542 930.592 724.391C927.652 735.847 921.165 745.549 914.334 755.035C906.965 765.266 899.575 775.491 892.167 785.709C886.032 794.206 879.26 804.025 868.284 806.142C863.1 807.122 857.72 806.75 852.477 806.73C846.41 806.73 840.325 807.112 834.258 807.318C821.479 807.749 808.693 808.076 795.901 808.298C770.147 808.69 744.399 808.599 718.658 808.024C692.916 807.449 667.142 806.368 641.336 804.78C635.74 804.447 630.144 803.957 624.538 803.878C620.099 803.878 615.65 803.947 611.21 803.643C602.841 803.085 595.913 800.439 592.59 792.275C585.985 776.252 587.632 757.75 584.75 740.923C580.517 715.708 575.685 690.571 571.109 665.463C568.874 653.203 566.709 640.963 564.533 628.664C563.916 625.038 558.535 626.538 559.153 630.066Z" fill="#7F72FF"/>
<path d="M912.805 528.175C910.048 528.093 907.289 528.188 904.544 528.459C901.722 528.841 899.154 529.341 896.243 529.439C891.716 529.625 887.139 529.439 882.612 529.439H748.851C680.555 529.439 611.779 527.597 543.659 529.155C552.185 507.762 572.677 494.002 587.759 476.637C596.246 466.886 599.862 468.532 610.799 470.404C623.539 472.58 638.621 470.404 651.577 470.404H933.915C943.715 470.404 966.999 464.681 956.778 483.291C949.444 496.641 940.645 509.131 930.543 520.531C927.956 523.471 925.065 526.411 921.282 527.391C918.498 527.99 915.652 528.253 912.805 528.175Z" fill="#382C80"/>
<path d="M912.805 524.284C907.19 524.284 901.82 525.264 896.243 525.568C890.452 525.872 884.611 525.568 878.819 525.568H769.569C721.382 525.568 673.195 524.931 624.999 524.706C597.882 524.578 570.766 524.706 543.659 525.274L547.412 530.174C553.292 515.886 564.856 505.057 575.734 494.541C581.36 489.112 586.632 483.438 592.002 477.773C595.922 473.667 599.068 472.364 604.625 473.236C612.61 474.652 620.712 475.309 628.821 475.196C637.719 474.941 646.588 474.294 655.506 474.294H921.008C927.456 474.294 933.885 474.441 940.324 473.912C944.626 473.559 949.82 472.677 953.965 474.098C954.191 474.177 955.298 474.833 955.141 474.686C955.494 475.01 955.475 474.941 955.465 475.666C955.406 478.606 953.426 481.458 952.025 483.918C947.105 492.638 941.536 500.975 935.365 508.859C932.407 512.754 929.23 516.477 925.849 520.011C922.057 523.833 918.078 524.265 912.825 524.294C907.817 524.294 907.807 532.134 912.825 532.075C917.294 532.075 921.968 531.938 925.986 529.753C930.004 527.567 932.846 524.02 935.669 520.697C941.723 513.622 947.308 506.158 952.388 498.353C957.219 490.915 971.468 471.991 956.484 466.768C952.054 465.22 946.958 465.641 942.372 465.994C936.1 466.464 929.916 466.543 923.615 466.543H671.059C660.847 466.543 650.626 466.386 640.424 466.905C631.32 467.366 622.01 468.15 612.984 466.846C606.281 465.866 599.392 463.593 593.002 467.042C589.298 469.002 586.534 472.325 583.761 475.412C580.615 478.92 577.293 482.272 573.961 485.545C560.76 498.353 547.04 510.78 539.906 528.136C538.926 530.497 541.356 533.114 543.659 533.036C591.953 531.948 640.267 532.536 688.572 532.977C736.876 533.418 785.307 533.32 833.67 533.32H873.762C880.426 533.32 887.1 533.506 893.764 533.388C900.163 533.29 906.386 532.026 912.805 532.036C917.823 532.075 917.823 524.284 912.805 524.284Z" fill="#382C80"/>
<path d="M903.554 575.93C899.223 630.536 893.548 685.05 886.532 739.473C884.572 754.712 881.975 769.951 880.71 785.268C880.397 789.11 886.679 789.962 887.463 786.18C890.226 772.881 891.686 759.298 893.431 745.833C895.221 732.041 896.913 718.236 898.507 704.418C901.624 677.213 904.214 649.96 906.279 622.657C907.464 607.094 908.297 591.503 909.219 575.93C909.424 572.295 903.878 572.353 903.593 575.93H903.554Z" fill="#382C80"/>
<path d="M484.614 464.377L509.967 471.335C513.21 472.217 517.513 472.766 519.963 475.255C522.413 477.744 523.118 481.713 523.971 485.055C528.312 501.852 533.036 518.541 536.711 535.495C540.386 552.449 542.924 569.648 545.952 586.71C548.98 603.772 552.087 620.873 555.301 637.925C568.041 705.712 582.663 773.165 600.205 839.932C602.273 847.772 604.125 855.799 606.653 863.531C608.77 870.018 612.024 876.143 617.992 879.828C624.852 884.091 633.574 884.728 641.512 885.306C653.409 886.208 665.346 886.531 677.262 886.884C715.051 888.011 752.869 888.491 790.678 888.687C820.274 888.844 850.125 889.56 879.681 887.658C881.21 887.56 882.729 887.443 884.248 887.276C889.599 886.698 889.658 878.231 884.248 878.829C874.595 879.877 864.756 879.809 855.064 879.907C838.325 880.171 821.587 880.21 804.849 880.181C766.517 880.096 728.196 879.596 689.885 878.682C675.939 878.329 661.984 877.956 648.058 877.202C644.295 876.996 640.512 876.79 636.769 876.369C630.752 875.693 623.656 874.83 619.374 870.067C614.866 865.05 613.651 857.474 611.945 851.183C593.933 784.807 579.037 717.619 565.885 650.116C559.202 615.816 553.067 581.516 546.854 547.089C543.845 530.429 539.396 514.131 534.859 497.854C533.732 493.777 532.585 489.7 531.448 485.623C530.409 481.929 529.488 478.097 527.783 474.657C524.255 467.797 517.385 466.464 510.486 464.71L486.211 458.556C482.429 457.576 480.841 463.358 484.604 464.436L484.614 464.377Z" fill="#382C80"/>
<path d="M650.175 902.015C643.256 902.447 640.473 912.041 641.688 917.695C643.237 924.898 650.401 928.818 657.368 927.593C664.336 926.368 669.716 920.449 669.128 913.266C668.638 905.72 661.7 898.38 653.801 899.84C649.617 900.614 650.067 906.827 653.801 907.876C656.996 908.768 660.357 910.198 660.514 914.109C660.632 916.98 658.162 918.891 655.497 919.293C654.141 919.577 652.728 919.303 651.577 918.532C650.426 917.761 649.634 916.558 649.381 915.196C649.043 913.626 649.172 911.99 649.754 910.492C650.42 908.905 651.939 908.072 652.811 906.572C653.958 904.671 652.508 901.829 650.175 901.966V902.015Z" fill="#382C80"/>
<path d="M847.635 904.671C844.323 909.317 845.675 915.853 849.458 919.793C853.663 924.172 860.567 924.474 865.138 920.479C869.617 916.716 871.498 909.797 868.784 904.466C866.069 899.134 857.024 895.842 853.8 902.506C852.349 905.514 855.544 909.816 858.837 907.533C859.366 907.17 859.591 907.033 860.454 907.621C861.112 908.111 861.503 908.879 861.512 909.699C861.664 911.727 860.693 913.674 858.984 914.775C855.348 916.814 852.124 911.375 854.025 908.376C856.622 904.338 850.37 900.869 847.665 904.662L847.635 904.671Z" fill="#382C80"/>
<path d="M273.061 366.798C265.875 363.349 258.789 359.527 251.805 355.332C236.213 345.973 221.092 334.517 210.528 319.504C198.297 302.118 197.415 286.742 197.915 265.996C198.385 246.895 201.619 235.077 222.415 234.636C241.339 234.214 259.577 243.034 275.629 252.158C299.149 265.515 319.886 282.156 342.416 296.807C348.296 300.629 361.036 307.724 367.896 307.067C383.85 305.548 403.813 287.654 417.112 279.226C435.379 267.649 453.306 255.595 470.894 243.064C484.418 233.42 497.74 223.493 510.858 213.281C523.755 203.227 531.615 199.561 533.81 182.225C534.79 174.777 534.986 166.055 541.052 161.645C542.74 160.303 544.905 159.714 547.04 160.018C551.803 160.949 553.42 166.829 554.018 171.641C554.125 172.494 554.37 173.533 555.203 173.758C555.782 173.828 556.365 173.662 556.82 173.297C564.298 168.544 570.658 161.606 578.224 156.637C586.436 151.208 595.707 146.034 605.507 146.955C607.339 147.131 609.29 147.592 610.515 148.915C612.876 151.541 611.357 155.667 609.652 158.764C606.112 165.187 602.164 171.377 597.833 177.296C601.364 170.283 607.783 165.164 615.405 163.282C618.345 162.576 621.765 162.468 624.166 164.34C628.086 167.417 627.037 173.748 624.401 177.992C621.765 182.235 617.904 185.979 617.022 190.888C622.373 186.194 629.958 181.245 635.985 185.008C640.405 187.782 641.228 194.211 639.219 199.022C637.21 203.834 633.104 207.401 629.135 210.782C634.534 206.921 642.08 203.06 647.245 207.235C651.586 210.733 650.881 217.486 649.283 222.827C643.139 243.407 628.017 262.497 615.591 279.794C600.048 301.442 576.724 320.297 555.115 335.566C471.747 394.464 365.74 411.408 273.061 366.798Z" fill="white"/>
<path d="M274.443 364.437C252.746 353.774 230.588 340.466 215.584 321.052C208.633 312.27 204.024 301.868 202.188 290.819C200.561 280.588 200.767 269.68 201.619 259.381C202.139 252.952 203.364 245.21 209.165 241.349C217.152 236.027 229.383 237.791 238.075 239.82C250.433 242.76 261.87 248.463 272.846 254.686C284.322 261.203 295.268 268.563 306.068 276.139C316.867 283.714 327.51 291.466 338.506 298.747C346.091 303.765 354.784 309.174 363.898 310.644C373.012 312.114 382.831 306.891 390.475 302.305C399.521 296.875 407.792 290.309 416.563 284.469C427.284 277.315 438.299 270.621 449.02 263.467C460.418 255.872 471.56 247.954 482.683 239.879C493.463 232.039 503.969 223.924 514.504 215.81C521.178 210.655 528.616 205.902 533.046 198.493C538.181 189.918 537.103 180.275 539.778 171.053C540.641 168.045 545.08 160.783 548.138 165.751C550.313 169.289 548.843 175.218 553.116 177.325C555.899 178.697 558.467 177.227 560.76 175.63C563.504 173.67 566.111 171.592 568.678 169.426C573.247 165.377 578.097 161.656 583.192 158.294C588.465 155.001 594.198 151.845 600.46 151.071C601.93 150.895 606.34 150.228 607.477 151.669C608.613 153.109 605.624 157.549 604.919 158.823C601.681 164.48 598.138 169.956 594.305 175.228L601.371 179.364C603.375 175.355 606.483 172.003 610.328 169.701C612.886 168.201 619.609 164.909 622.088 167.976C624.284 170.72 621.393 175.326 619.825 177.619C617.139 181.539 614.199 185.067 613.141 189.81C612.73 191.568 613.519 193.388 615.082 194.291C616.646 195.193 618.616 194.966 619.932 193.73C623.549 190.614 633.652 183.254 635.955 191.525C637.915 198.385 630.899 204.001 626.322 207.921C622.882 210.861 627.449 216.898 631.222 214.261C635.524 211.243 646.04 205.304 646.539 214.771C646.892 221.553 643.139 229.03 640.258 234.959C633.231 249.375 623.451 262.223 614.082 275.139C595.501 300.786 570.393 320.983 544.1 338.3C493.748 371.444 433.87 390.446 373.325 387.947C339.227 386.519 305.774 378.184 274.992 363.447C270.494 361.291 266.535 368.004 271.072 370.17C330.048 398.403 397.345 403.009 460.153 385.438C491.38 376.621 521.057 363.035 548.138 345.16C562.353 335.857 575.915 325.592 588.729 314.437C601.476 303.143 612.916 290.454 622.833 276.609C633.927 261.39 645.373 245.945 651.812 228.04C654.37 220.896 656.849 211.135 650.734 205.01C643.874 198.15 633.75 202.697 627.096 207.343L631.996 213.683C639.758 207.058 648.382 196.935 642.433 186.243C639.858 181.686 634.776 179.147 629.585 179.824C623.627 180.52 618.57 184.273 614.16 188.076L620.942 191.996C622.304 185.93 627.802 181.853 629.821 176.022C631.732 170.622 631.046 163.85 625.812 160.577C620.246 157.088 612.896 159.185 607.486 161.978C601.837 164.948 597.239 169.584 594.315 175.257C591.846 180.01 598.323 183.607 601.381 179.393C605.595 173.637 609.448 167.625 612.916 161.39C615.483 156.726 617.61 150.512 613.435 146.034C609.407 141.722 601.842 142.369 596.628 143.437C590.15 144.76 584.094 148.004 578.547 151.502C573 155.001 567.924 159.342 562.867 163.615C561.711 164.595 560.554 165.575 559.368 166.486C558.183 167.398 556.428 168.084 555.693 169.132L554.762 169.74L558.163 171.22C558.136 170.724 558.061 170.231 557.938 169.75C557.746 168.35 557.444 166.967 557.036 165.614C555.488 160.714 552.136 156.147 546.56 155.814C540.68 155.481 535.652 159.862 533.242 164.938C528.89 174.111 531.184 185.057 525.97 193.956C521.482 201.619 512.632 206.627 505.782 211.909C483.085 229.402 459.722 246.043 435.957 262.007C425.461 269.053 414.691 275.727 404.489 283.155C395.581 289.672 386.487 296.797 376.157 300.933C371.992 302.599 367.778 303.873 363.349 302.657C358.505 301.232 353.862 299.197 349.531 296.601C338.427 290.368 328.108 282.558 317.691 275.247C295.797 259.89 272.973 243.328 247.248 235.067C230.588 229.736 203.913 226.492 196.984 247.366C193.946 256.539 194.367 267.142 194.554 276.668C194.769 287.742 196.298 298.63 200.777 308.831C210.822 331.685 232.538 347.639 253.559 359.693C259.485 363.091 265.538 366.256 271.719 369.19C274.835 370.64 277.618 365.995 274.443 364.437Z" fill="#382C80"/>
<path d="M214.291 398.315C212.399 434.712 221.758 470.6 225.6 506.86C230.725 555.419 219.181 615.797 183.46 650.067C154.746 677.625 124.513 703.448 96.1126 731.407C77.9532 749.253 60.2936 766.58 43.0652 785.65C41.4979 787.16 40.2513 788.969 39.4 790.972C38.3122 794.216 39.4 797.734 40.8896 800.772C45.7406 810.464 55.8934 818.608 62.724 827.055C71.2402 837.6 80.2758 847.733 89.5662 857.553C95.26 863.58 117.457 895.009 125.64 878.28C127.747 873.948 127.257 868.862 126.257 864.227C124.464 856.005 121.23 848.243 118.868 840.187C116.506 832.132 115.056 823.527 116.908 815.158C122.426 790.325 156.392 778.487 176.198 767.756C198.572 755.633 221.523 744.314 242.084 729.32C275.482 704.977 307.851 668.482 316.24 626.959C322.738 594.766 317.112 560.985 305.735 530.282C294.357 499.579 277.462 471.482 260.655 443.493" fill="white"/>
<path d="M211.645 398.315C209.489 441.161 223.13 482.546 223.816 525.157C224.375 559.074 217.642 594.599 200.061 623.97C190.32 640.238 176.473 652.508 162.645 665.238C146.347 680.251 129.785 694.981 113.576 710.092C97.367 725.204 81.2362 741.031 65.5562 756.936C57.8338 764.776 50.2094 772.705 42.781 780.829C39.498 784.425 35.8132 788.002 35.5486 793.167C35.3036 797.881 37.6556 802.506 40.1644 806.338C45.2408 814.09 52.2576 820.235 58.2944 827.183C65.4288 835.376 72.1712 843.843 79.4918 851.918C83.745 856.593 88.0276 861.159 92.0554 866.01C95.7482 870.627 99.7667 874.973 104.08 879.015C107.922 882.474 112.537 886.159 117.878 886.708C123.562 887.306 127.678 883.307 129.57 878.251C133.049 868.901 128.502 857.769 125.513 848.851C122.073 838.639 118.133 827.624 120.319 816.707C123.19 802.379 136.244 793.118 148.121 786.327C154.628 782.603 161.381 779.339 168.113 776.046C175.561 772.401 182.813 768.432 190.153 764.531C208.862 754.584 227.648 744.598 244.769 732.035C259.811 721.121 273.508 708.467 285.576 694.334C297.63 680.055 307.802 664.189 314.496 646.696C321.689 627.929 323.874 607.496 322.512 587.494C319.572 544.512 301.148 504.959 279.863 468.199C274.669 459.242 269.318 450.383 263.967 441.523C261.37 437.241 254.657 441.141 257.244 445.443C278.51 481.008 300.256 517.326 309.958 558.036C314.721 578.037 316.593 599.058 313.516 619.472C310.772 637.651 303.716 654.615 293.916 670.079C273.336 702.341 242.868 726.458 209.93 745.137C194.25 754.016 178.335 762.64 162.165 770.617C149.17 776.997 135.607 783.553 125.199 793.873C120.267 798.601 116.502 804.412 114.203 810.846C111.067 820.097 112.243 830.211 114.762 839.452C117.437 849.252 122.396 858.964 123.288 869.166C123.562 872.292 123.406 876.781 120.652 878.966C119.75 879.681 118.574 879.632 117.055 879.103C112.39 877.496 108.47 873.37 105.129 869.911C101.424 866.089 98.0334 861.973 94.6132 857.896C89.5858 851.82 83.9802 846.332 78.7764 840.472C72.0928 832.965 65.9678 824.929 59.0294 817.657C53.1494 811.483 44.5352 804.3 42.5948 795.588C41.4286 790.315 47.3772 785.876 50.5818 782.397C54.2405 778.418 57.9449 774.478 61.695 770.578C76.7184 754.898 92.1632 739.59 107.833 724.518C123.504 709.446 139.389 695.187 155.265 680.634C163.203 673.352 171.122 666.041 178.942 658.633C185.4 652.508 191.682 646.383 197.102 639.287C217.143 613.043 226.394 579.507 228.942 546.971C230.304 529.606 229.324 512.407 226.982 495.169C224.042 473.481 219.789 451.97 217.78 430.165C216.754 419.565 216.463 408.907 216.907 398.266C217.064 394.866 211.792 394.875 211.615 398.266L211.645 398.315Z" fill="#382C80"/>
<path d="M139.438 384.86C137.478 422.1 135.626 459.546 140.487 496.413C146.543 542.365 162.929 585.956 180.667 628.253C183.901 635.946 187.204 643.688 188.84 651.949C190.8 661.867 190.271 672.147 189.595 682.27C186.88 722.901 181.892 763.336 179.638 804.006C178.197 830.015 176.776 855.279 176.825 881.524C176.679 883.753 176.982 885.99 177.717 888.1C179.079 891.265 182.215 893.078 185.293 894.215C195.279 897.9 208.136 896.684 218.75 898.056C231.999 899.771 245.347 900.82 258.685 901.447C266.897 901.829 304.029 909.287 298.865 891.167C297.532 886.492 293.788 883.092 289.976 880.387C283.195 875.605 275.668 872.194 268.593 867.941C261.517 863.688 254.696 858.376 250.512 850.928C239.32 830.799 256.607 790.511 261.086 769.5C267.632 738.855 273.404 707.917 275.59 676.537C281.47 592.257 260.978 505.792 218.838 435.536" fill="white"/>
<path d="M136.792 384.86C134.499 427.98 132.51 471.315 140.389 514.004C147.925 554.841 162.929 593.639 178.854 631.839C182.931 641.639 186.371 651.439 186.929 662.219C187.478 672.754 186.39 683.368 185.567 693.863C183.852 715.874 181.647 737.836 179.687 759.818C177.727 781.799 176.296 803.682 175.14 825.664C174.571 836.444 174.081 847.155 173.758 857.915C173.601 863.443 173.49 868.97 173.425 874.497C173.425 879.181 172.68 884.611 174.405 889.079C177.56 897.302 188.125 899.213 195.759 900.114C205.285 901.232 214.889 901.29 224.424 902.417C239.33 904.162 254.314 904.74 269.23 906.279C278.187 907.2 290.525 908.856 298.404 903.339C302.403 900.536 303.784 896.018 302.814 891.314C301.021 882.592 292.622 877.28 285.488 873.115C271.513 864.962 253.148 857.651 250.933 839.413C249.12 824.713 253.873 809.229 257.94 795.225C259.9 788.531 261.978 781.877 263.722 775.135C266.094 765.933 267.799 756.515 269.602 747.205C273.84 726.134 276.967 704.855 278.971 683.456C282.273 644.505 280.186 605.285 272.767 566.904C265.559 528.971 253.06 492.238 235.635 457.781C231.46 449.559 226.962 441.513 222.229 433.595C219.661 429.303 212.929 433.213 215.506 437.515C234.531 469.632 249.001 504.236 258.499 540.337C268.259 576.97 273.016 614.755 272.64 652.664C272.376 672.849 270.738 692.992 267.74 712.954C264.8 732.554 261.448 752.419 256.705 771.754C253.275 785.641 248.414 799.135 245.523 813.159C242.907 825.899 240.741 841.01 247.376 852.888C251.629 860.503 258.606 866.197 265.927 870.704C274.022 875.683 283.44 879.26 290.652 885.571C293.151 887.766 295.552 890.618 295.739 894.077C295.974 895.28 295.439 896.502 294.396 897.145C291.779 899.105 286.87 899.507 283.263 899.605C273.6 899.879 264.016 898.115 254.383 897.596C243.965 897.037 233.548 896.224 223.179 895.018C213.86 893.94 204.432 894.107 195.151 892.911C191.173 892.402 186.4 891.628 183.097 889.177C179.177 886.237 180.393 880.034 180.412 875.781C180.412 865.177 180.716 854.574 181.128 843.99C181.941 822.753 183.088 801.507 184.646 780.29C186.273 758.926 188.38 737.601 190.242 716.257C191.222 705.584 192.045 694.902 192.76 684.22C193.436 674.175 193.985 664.111 192.476 654.115C190.967 644.119 186.91 634.965 183.039 625.783C179.168 616.6 175.297 607.163 171.631 597.745C164.174 578.95 157.745 559.762 152.374 540.268C146.946 520.354 143.338 499.987 141.594 479.42C139.87 458.33 140.017 437.133 140.761 415.994C141.124 405.626 141.634 395.248 142.153 384.879C142.32 381.479 137.037 381.488 136.861 384.879L136.792 384.86Z" fill="#382C80"/>
<path d="M165.82 453.813C168.838 480.273 198.229 515.131 200.806 541.64C203.383 568.149 200.581 596.52 185.175 618.266C172.964 635.514 154.187 647 140.487 662.68C124.562 680.928 105.295 696.853 87.1652 712.846C84.725 715.012 82.079 717.57 82.0398 720.823C82.1755 722.702 82.7603 724.52 83.745 726.125C99.425 756.839 115.899 788.62 143.329 809.484C144.926 810.69 146.7 811.914 148.709 811.885C150.532 811.885 152.169 810.807 153.678 809.778C179.961 792.04 206.255 774.302 232.009 755.8C253.922 740.061 279.686 723.038 296.797 702.203C314.496 680.643 324.835 653.488 327.981 625.901C331.901 591.601 325.178 556.634 312.761 524.392C296.052 481.008 268.181 440.975 229.304 415.475" fill="#7F72FF"/>
<path d="M312.761 524.363C310.723 519.064 308.515 513.837 306.136 508.683C304.609 509.887 303.168 511.197 301.824 512.603C283.312 531.672 282.015 561.582 298.806 582.183C301.158 585.064 303.902 587.759 307.312 589.229C312.32 591.385 318.092 590.65 323.326 588.954C324.974 588.425 326.579 587.77 328.128 586.994C326.001 565.523 320.484 544.413 312.761 524.363Z" fill="white"/>
<path d="M316.515 523.324C314.339 517.712 312 512.159 309.498 506.664C308.361 504.155 305.137 504.479 303.392 505.88C286.732 519.218 279.716 542.346 284.919 562.828C287.379 572.481 292.563 582.692 300.296 589.18C309.018 596.501 320.484 594.884 330.088 590.219C331.313 589.548 332.067 588.254 332.048 586.857C329.697 565.087 324.484 543.721 316.544 523.314C314.77 518.689 307.244 520.698 309.037 525.382C316.603 545.158 322.101 565.768 324.266 586.857L326.226 583.496C322.355 585.506 318.054 586.548 313.692 586.534C309.214 586.358 305.852 584.084 302.912 580.85C294.275 570.941 290.035 557.949 291.164 544.853C292.293 531.757 298.695 519.682 308.9 511.397L302.785 510.604C305.006 515.471 307.084 520.4 309.018 525.392C310.801 530.017 318.328 528.008 316.515 523.324Z" fill="white"/>
<path d="M123.445 689.365C122.184 687.579 120.731 685.936 119.113 684.465C108.666 694.216 97.7296 703.517 87.1652 712.827C84.725 714.992 82.079 717.55 82.0398 720.804C82.1755 722.682 82.7603 724.5 83.745 726.106C88.449 735.337 93.2314 744.677 98.3666 753.781C110.901 752.664 122.867 744.363 127.375 732.485C129.57 726.605 130.089 720.294 129.991 714.052C129.864 705.398 128.453 696.412 123.445 689.365Z" fill="white"/>
<path d="M126.806 687.395C125.346 685.355 123.706 683.449 121.906 681.702C120.381 680.201 117.934 680.201 116.408 681.702C110.254 687.435 103.962 693.001 97.6316 698.538L88.6646 706.378C85.9108 708.789 82.8924 711.092 80.6776 714.042C75.6992 720.725 79.9916 727.262 83.255 733.642C87.0672 741.08 90.948 748.479 95.015 755.77C95.6941 756.987 96.9823 757.739 98.3764 757.73C112.43 756.28 125.395 747.793 130.785 734.465C133.901 726.762 134.303 717.971 133.725 709.769C133.157 701.929 131.334 694.089 126.865 687.464C124.062 683.348 117.31 687.239 120.142 691.384C123.876 696.862 125.513 703.203 126.022 709.759C126.512 716.619 126.355 723.812 124.121 730.398C120.436 741.178 109.656 748.783 98.4744 749.939L101.836 751.899C98.3568 745.696 95.0248 739.424 91.7614 733.103C90.1542 729.986 88.4392 726.889 86.9594 723.714C85.2836 720.108 86.9594 718.403 89.6544 715.992C100.336 706.319 111.42 697.117 121.994 687.297H116.497C117.853 688.557 119.096 689.935 120.211 691.413C123.033 695.314 129.785 691.433 126.806 687.395Z" fill="white"/>
<path d="M162.596 453.813C164.154 466.553 169.74 478.616 175.336 490.073C181.324 502.293 188.34 514.102 193.025 526.93C197.856 540.19 198.131 554.527 197.092 568.482C195.965 583.545 192.192 598.637 184.244 611.602C175.983 625.058 163.301 634.907 151.639 645.236C139.507 656.016 129.237 668.55 117.437 679.663C111.097 685.622 104.58 691.423 98.0334 697.127L89.1448 704.82C85.901 707.652 82.1084 710.396 79.6486 713.983C74.68 721.264 79.58 728.34 83.0492 735.063C86.6066 742.001 90.2228 748.91 94.0448 755.711C101.561 769.088 109.882 782.073 119.887 793.755C124.752 799.459 130.078 804.753 135.812 809.582C138.664 811.963 141.859 815.06 145.495 816.177C149.885 817.52 153.599 815.619 157.176 813.237C187.066 793.245 216.506 772.665 245.759 751.762C271.748 733.201 297.826 713.836 313.771 685.475C330.039 656.545 335.791 622.755 332.998 589.876C330.186 556.703 319.749 524.147 304.372 494.688C290.545 468.228 272.032 443.728 248.816 424.756C243.226 420.192 237.39 415.939 231.333 412.016C226.972 409.183 223.023 416.083 227.286 418.944C276.805 452.215 309.047 509.535 320.572 567.287C326.922 599.117 325.942 632.545 314.202 663.043C308.753 677.355 300.824 690.594 290.78 702.154C280.745 713.571 268.896 723.273 256.725 732.309C229.814 752.281 202.021 771.088 174.326 789.943C166.983 794.941 159.636 799.926 152.286 804.898C151.218 805.613 149.66 807.152 148.307 806.985C146.955 806.818 145.289 804.966 144.25 804.133C141.251 801.742 138.37 799.233 135.607 796.519C125.042 786.327 116.34 774.449 108.647 761.974C104.727 755.643 101.091 749.155 97.5728 742.589C95.897 739.463 94.2604 736.327 92.6728 733.181C90.9088 729.771 88.7528 726.321 87.3416 722.744C86.0186 719.334 89.0468 717.491 91.4086 715.404C94.6753 712.542 97.9223 709.7 101.15 706.878C107.402 701.41 113.645 695.941 119.77 690.316C125.895 684.691 131.834 678.958 137.518 672.931C142.839 667.286 147.808 661.396 153.492 656.094C164.448 645.873 176.551 636.769 185.832 624.921C204.452 601.322 208.528 569.276 204.746 540.17C203.158 527.989 197.552 516.582 192.006 505.772C185.969 494.012 179.03 482.576 173.915 470.375C171.567 465.111 169.945 459.552 169.093 453.852C168.584 449.775 162.116 449.706 162.615 453.852L162.596 453.813Z" fill="#382C80"/>
<path d="M252.197 502.499C264.388 525.735 269.161 552.636 272.591 579.155C282.243 653.977 282.638 729.704 273.767 804.623C273.267 808.798 272.63 813.247 270.043 816.383C266.927 820.166 261.86 821.028 257.215 821.558C223.725 825.297 189.844 823.355 157 815.815C155.432 815.452 153.727 814.982 152.806 813.571C151.884 812.159 152.041 810.131 152.276 808.347C158.078 764.953 165.918 721.95 175.796 679.34C176.482 676.4 177.168 673.372 176.659 670.412C176.09 667.119 174.121 664.366 172.386 661.592C167.417 653.635 164.046 644.648 160.842 635.671C148.807 601.881 138.664 567.071 134.587 531.046C130.511 495.022 132.716 457.742 144.721 423.854" fill="#7F72FF"/>
<path d="M272.64 579.155L272.317 576.666C263.34 579.125 255.578 585.407 250.433 593.208C244.926 601.558 242.231 611.534 241.427 621.501C240.702 630.438 241.652 640.052 247.072 647.206C250.414 651.616 255.167 654.713 259.812 657.721C263.732 660.269 268.073 662.915 272.748 662.514C275.226 662.248 277.561 661.221 279.431 659.574C278.314 632.682 276.05 605.876 272.64 579.155Z" fill="white"/>
<path d="M276.491 579.155C276.384 578.322 276.276 577.498 276.158 576.665C275.845 574.245 273.924 572.138 271.258 572.912C258.45 576.626 248.424 586.475 243.083 598.539C237.742 610.603 235.243 626.067 238.859 639.072C240.616 645.37 244.283 650.968 249.355 655.095C254.324 659.181 260.312 663.542 266.456 665.561C271.64 667.257 283.116 666.286 283.273 658.976C283.41 650.91 282.499 642.678 281.96 634.632C280.705 616.091 278.889 597.598 276.511 579.155C275.874 574.255 268.083 574.186 268.72 579.155C272.156 605.863 274.42 632.682 275.511 659.613L276.658 656.859C272.356 660.201 267.691 658.025 263.604 655.536C259.633 653.286 255.922 650.604 252.54 647.539C245.945 641.1 244.7 631.859 245.18 623.039C246.16 605.174 254.833 585.799 273.326 580.409L268.426 576.656L268.749 579.145C269.024 581.242 270.347 583.065 272.669 583.065C274.492 583.065 276.756 581.242 276.491 579.155Z" fill="white"/>
<path d="M198.826 708.27C196.866 705.418 194.769 702.566 191.829 700.782C188.595 698.822 184.695 698.342 180.912 698.225C177.752 698.125 174.588 698.246 171.445 698.587C166.911 719.527 162.857 740.587 159.283 761.768C167.368 766.403 177.335 767.854 186.194 764.865C201.1 759.837 210.9 742.844 207.833 727.36C206.431 720.431 202.815 714.13 198.826 708.27Z" fill="white"/>
<path d="M202.188 706.3C198.905 701.537 195.279 697.392 189.595 695.579C183.911 693.766 177.335 694.109 171.445 694.697C169.709 694.736 168.195 695.887 167.692 697.548C163.177 718.514 159.123 739.574 155.53 760.729C155.113 762.429 155.837 764.205 157.323 765.129C173.807 774.243 193.711 770.696 204.942 755.329C209.77 748.763 212.348 740.812 212.292 732.662C212.115 722.93 207.499 714.169 202.188 706.28C199.395 702.145 192.652 706.045 195.465 710.2C199.797 716.639 204.099 723.803 204.481 731.76C204.711 738.22 202.874 744.585 199.238 749.929C190.722 762.797 174.473 765.698 161.253 758.377L163.037 762.767C166.61 741.619 170.664 720.559 175.199 699.587L171.445 702.448C176.041 701.998 180.99 701.615 185.538 702.546C190.085 703.477 192.868 706.466 195.465 710.2C198.287 714.326 205.02 710.445 202.188 706.3Z" fill="white"/>
<path d="M278.157 745.735C273.561 742.629 267.456 743.207 262.046 744.412C253.991 746.196 245.22 750.008 242.564 757.828C241.555 761.154 241.504 764.697 242.417 768.05C245.798 781.936 261.801 791.335 275.57 787.503L275.629 787.434C276.988 773.714 278.043 759.994 278.794 746.274L278.157 745.735Z" fill="white"/>
<path d="M280.117 742.374C271.444 737.033 259.263 740.022 250.717 744.216C240.819 749.048 235.968 758.681 238.82 769.51C241.153 778.33 248.013 785.68 256.284 789.365C260.468 791.3 265.022 792.303 269.631 792.305C271.863 792.298 274.083 791.998 276.237 791.413C279.177 790.531 279.49 788.375 279.765 785.533C280.49 778.033 281.127 770.519 281.676 762.993C281.95 759.132 282.215 755.261 282.44 751.4C282.665 747.538 283.42 744.853 280.166 742.384C276.188 739.346 272.326 746.098 276.246 749.106L276.883 749.596L274.923 746.235C274.172 759.994 273.117 773.714 271.758 787.395L272.895 784.641C273.992 783.318 273.297 784.083 272.013 784.269C271.356 784.357 270.69 784.386 270.053 784.416C268.528 784.474 267.001 784.378 265.496 784.132C262.375 783.576 259.385 782.446 256.676 780.8C251.304 777.668 247.456 772.466 246.033 766.413C244.406 758.74 248.699 753.487 255.402 750.518C261.35 747.872 270.259 745.412 276.178 749.057C280.48 751.733 284.4 745 280.117 742.374Z" fill="white"/>
<path d="M249.767 503.92C261.38 526.911 265.662 552.675 268.808 577.998C272.251 605.667 274.411 633.433 275.286 661.298C276.178 689.228 275.874 717.217 274.306 745.118C273.529 758.838 272.437 772.558 271.033 786.278C270.347 792.991 269.827 799.802 268.71 806.456C268.299 808.916 267.809 811.787 265.976 813.629C264.143 815.472 261.576 815.942 259.224 816.334C246.18 818.5 232.46 818.657 219.308 818.5C205.635 818.305 191.992 817.146 178.482 815.031C171.729 813.953 164.918 812.777 158.284 811.111C157.676 810.964 156.412 810.131 156.99 811.111C156.569 810.356 157.235 807.916 157.343 807.112C157.813 803.552 158.307 799.991 158.823 796.43C160.783 782.756 162.936 769.114 165.281 755.506C167.672 741.707 170.318 727.948 173.062 714.208C174.473 707.133 175.94 700.07 177.462 693.021C178.825 686.749 180.981 680.281 181.382 673.793C181.755 667.139 177.943 662.278 174.826 656.81C171.679 651.095 169.011 645.129 166.849 638.974C162.217 626.371 157.97 613.631 154.109 600.754C138.88 549.931 130.883 495.521 143.584 443.238C145.073 437.104 146.788 430.998 148.592 424.952C150.101 419.914 142.78 418.209 140.918 422.835C130.628 448.06 127.708 476.48 128.208 503.587C128.727 531.634 133.509 559.496 140.644 586.573C144.182 600.029 148.317 613.317 152.806 626.479C157.206 639.376 161.439 652.733 168.721 664.346C170.348 666.953 172.19 669.462 172.219 672.647C172.219 676.106 170.926 679.722 170.142 683.064C168.495 690.081 166.908 697.111 165.379 704.154C162.312 718.256 159.499 732.417 156.99 746.617C154.377 761.252 151.982 775.922 149.807 790.629C149.317 793.99 148.827 797.361 148.366 800.723C147.906 804.084 147.014 807.671 147.141 811.081C147.386 818.314 153.374 820.097 159.323 821.381C187.382 827.471 216.162 829.57 244.808 827.614C256.401 826.801 271.915 827.163 276.717 814.159C279.03 807.887 279.059 800.439 279.735 793.892C280.473 786.738 281.127 779.574 281.695 772.401C283.988 743.275 284.89 714.084 284.4 684.828C283.93 655.84 281.921 626.841 278.618 598.049C275.531 571.217 272.121 543.796 262.477 518.404C260.23 512.47 257.612 506.683 254.637 501.078C252.922 497.873 248.15 500.696 249.737 503.92H249.767Z" fill="#382C80"/>
<path d="M337.134 293.681C318.582 277.922 296.425 263.938 275.649 252.129C260.243 243.367 207.872 217.515 202.06 248.699C196.964 276.001 209.146 310.723 226.472 331.283C238.124 345.121 254.755 353.823 265.672 367.886C277.726 383.409 297.277 397.727 314.898 406.106C317.397 407.282 320.405 408.458 322.787 407.086C326.109 405.126 325.354 400.226 324.374 396.512C315.554 363.104 326.334 328.304 344.072 299.874C341.818 297.764 339.505 295.699 337.134 293.681Z" fill="white"/>
<path d="M339.888 290.927C324.208 277.697 307.175 266.25 289.604 255.745C279.039 249.434 268.377 243.465 257.019 238.683C240.359 231.647 205.726 219.965 198.738 245.749C194.426 261.664 197.67 280.176 202.737 295.503C208.087 311.693 216.555 327.422 228.775 339.466C235.429 346.042 243.005 351.569 250.09 357.645C253.557 360.562 256.831 363.702 259.89 367.043C262.909 370.405 265.574 374.06 268.651 377.373C281.205 390.838 297.365 402.774 314.339 410.056C318.328 411.78 323.09 412.398 326.442 409.076C329.264 406.243 329.333 402.098 328.735 398.394C328 393.866 326.599 389.476 325.962 384.909C325.286 379.937 325.001 374.921 325.109 369.905C325.482 350.481 331.44 331.44 340.26 314.329C342.465 310.047 344.876 305.862 347.414 301.775C348.301 300.244 348.052 298.309 346.806 297.052C344.533 294.974 342.223 292.932 339.878 290.927C336.085 287.693 330.558 293.171 334.37 296.434C336.722 298.434 339.032 300.475 341.299 302.559L340.691 297.846C331.126 313.241 323.58 330.186 319.876 347.943C318.024 356.601 317.172 365.443 317.338 374.295C317.46 378.73 317.863 383.152 318.543 387.535C319.17 391.73 320.503 395.806 321.16 399.991C321.297 400.922 321.689 402.931 320.807 403.656C319.621 404.636 316.074 402.343 315.015 401.824C310.88 399.785 306.855 397.551 302.942 395.12C295.328 390.438 288.154 385.075 281.509 379.097C275.159 373.335 270.17 366.612 264.339 360.389C258.508 354.166 251.893 349.07 245.396 343.729C238.899 338.388 232.656 332.949 227.501 326.393C222.581 320.004 218.414 313.069 215.085 305.725C208.362 291.25 204.236 274.992 204.824 258.969C205.02 253.638 205.216 246.915 208.744 242.525C211.125 239.585 214.889 238.222 218.544 237.781C228.863 236.517 239.81 240.261 249.306 243.887C260.243 248.071 270.543 253.579 280.666 259.479C299.423 270.474 317.72 282.381 334.38 296.434C338.182 299.649 343.719 294.2 339.888 290.927Z" fill="#382C80"/>
<path d="M248.365 276.178C262.291 279.833 267.319 296.807 264.565 310.311C261.811 323.816 253.883 336.007 251.256 349.511C247.072 371.071 256.784 392.631 260.606 414.27C262.232 423.423 263.056 439.162 253.481 445.11C245.955 449.785 230.49 450.275 221.807 451.118C195.906 453.656 166.094 457.399 141.183 449.05C138.699 448.353 136.371 447.189 134.323 445.62C127.845 440.073 129.795 429.832 131.736 421.531C142.329 376.03 130.569 327.099 146.436 281.881C151.512 267.387 159.911 253.216 173.317 245.719" fill="white"/>
<path d="M247.532 279.216C260.909 283.136 263.653 299.737 260.645 311.556C258.508 319.925 254.588 327.677 251.482 335.703C248.165 343.84 246.422 352.533 246.347 361.32C246.445 380.087 253.785 397.708 256.754 416.043C257.656 421.678 257.96 427.803 256.499 433.389C254.892 439.524 250.962 442.366 245.024 443.895C238.409 445.6 231.539 445.953 224.757 446.492C216.711 447.119 208.685 448.011 200.649 448.668C183.068 450.098 164.86 450.824 147.641 446.276C144.142 445.345 139.507 444.473 136.861 441.847C134.607 439.612 134.303 436.3 134.391 433.301C134.607 425.461 137.331 417.768 138.498 410.065C141.251 391.7 141.32 373.129 141.575 354.597C141.849 334.096 142.398 313.379 147.612 293.436C152.031 276.56 159.783 258.714 175.561 249.649C180.598 246.709 176.051 238.948 170.994 241.809C155.844 250.512 146.847 266.241 141.438 282.381C135.068 301.383 133.323 321.581 132.745 341.495C132.167 361.408 132.745 381.4 130.52 401.275C129.54 410.457 127.002 419.316 125.758 428.43C124.709 436.065 125.405 444.454 131.951 449.52C135.734 452.46 140.663 453.803 145.22 455.008C149.734 456.16 154.317 457.021 158.94 457.586C168.39 458.705 177.917 459.013 187.419 458.507C197.082 458.095 206.706 457.135 216.319 456.125C223.934 455.332 231.607 454.842 239.193 453.754C246.102 452.774 254.079 451.235 259.116 445.914C264.153 440.592 265.564 433.291 265.721 426.314C266.113 408.38 258.332 391.151 255.304 373.698C253.608 363.898 253.55 354.098 256.382 344.503C259.087 335.34 263.497 326.785 266.29 317.651C270.357 304.314 269.769 287.173 258.087 277.618C255.468 275.481 252.425 273.925 249.159 273.052C245.239 271.974 243.603 277.952 247.493 279.128L247.532 279.216Z" fill="#382C80"/>
<path d="M206.49 288.859C235.086 322.806 263.761 356.842 296.199 387.133C302.873 393.366 310.488 400.295 318.406 404.93C326.726 409.83 337.888 409.027 347.257 409.144C370.826 409.428 394.297 406.459 417.67 404.136C450.784 400.844 484.947 398.893 516.65 408.87C542.199 416.896 559.349 442.19 557.918 469.316C557.693 473.442 556.85 477.921 553.724 480.616C550.597 483.311 544.619 482.703 543.483 478.724C544.051 482.968 544.619 487.309 543.747 491.464C542.875 495.619 540.278 499.745 536.26 501.215C532.242 502.685 526.93 500.598 525.95 496.433C525.686 499.784 525.392 503.293 523.745 506.233C522.099 509.173 518.728 511.417 515.464 510.643C513.536 510.055 511.828 508.901 510.564 507.33C504.312 500.549 502.646 493.473 501.441 484.79C499.294 469.248 479.881 465.043 466.964 468.758C459.379 470.933 452.823 475.618 445.933 479.479C418.68 494.777 385.673 497.236 354.793 492.278C311.213 485.28 269.533 467.003 232.94 442.915C194.367 417.523 160.959 378.392 147.2 333.851C136.832 300.315 136.165 244.259 175.326 228.991C190.086 223.385 206.641 225.208 219.828 233.891" fill="white"/>
<path d="M204.158 291.191C224.12 316.387 245.21 340.877 267.328 364.211C278.177 375.658 289.31 386.986 301.187 397.365C306.538 402.049 312.35 407.067 318.896 409.997C325.246 412.829 332.312 413.397 339.192 413.564C355.148 413.919 371.112 413.366 387.006 411.908C403.441 410.408 419.836 408.39 436.31 407.194C452.127 406.047 468.062 405.626 483.869 407.125C497.658 408.429 512.956 410.722 525.196 417.592C536.618 424.068 545.377 434.379 549.921 446.698C552.205 452.897 553.389 459.447 553.42 466.053C553.42 469.208 553.498 472.913 551.842 475.765C551.433 476.66 550.664 477.34 549.725 477.636C549.617 477.636 549.029 477.636 548.745 477.636C548.049 477.636 547.765 477.019 547.932 477.47C547.287 475.286 545.154 473.892 542.895 474.177C540.876 474.451 538.602 476.421 538.906 478.685C539.572 483.585 540.758 489.828 537.759 494.287C536.387 496.335 531.576 499.118 530.37 495.267C528.802 490.19 521.805 491.405 521.403 496.482C521.129 499.882 519.629 509.545 514.543 504.841C510.751 501.333 508.546 496.394 507.321 491.474C506.145 486.721 506.047 481.821 503.94 477.342C502.091 473.642 499.282 470.508 495.806 468.268C489.122 463.76 480.233 462.319 472.286 463.191C460.957 464.446 452.009 471.09 442.258 476.372C399.971 499.294 347.904 490.2 304.774 474.52C282.08 466.119 260.366 455.275 240.016 442.18C221.262 430.342 204.302 415.877 189.654 399.227C164.487 370.405 146.171 333.949 145.652 295.121C145.446 279.529 147.857 263.007 156.53 249.708C166.54 234.482 184.945 227.062 202.717 231.088C208.081 232.314 213.177 234.502 217.76 237.546C222.454 240.614 226.815 233.087 222.15 230.039C203.442 217.799 178.148 218.652 160.557 232.509C147.229 243.005 140.546 259.635 138.194 276.041C132.52 315.633 146.583 355.274 169.279 387.359C197.513 427.245 238.477 455.596 282.842 475.069C327.824 494.806 382.253 508.448 430.253 491.435C436.143 489.366 441.859 486.829 447.345 483.85C452.931 480.792 458.213 477.048 464.083 474.54C471.717 471.296 481.233 470.757 488.779 474.598C492.117 476.124 494.779 478.824 496.256 482.184C498.118 486.868 497.922 492.268 499.53 497.08C502.636 506.409 512.495 521.129 523.716 512.985C529.086 509.065 530.066 502.636 530.576 496.472L521.56 497.687C524.069 505.831 534.124 508.653 540.974 503.93C549.284 498.187 549.284 487.711 548.098 478.724L539.073 479.949C541.385 486.123 548.275 488.436 554.184 485.712C560.887 482.615 562.397 474.549 562.602 467.915C562.949 454.894 559.4 442.067 552.41 431.077C545.39 420.015 535.155 411.363 523.079 406.283C508.271 400.118 491.376 397.992 475.48 397.12C440.69 395.218 406.234 401.539 371.6 403.754C362.78 404.313 354.049 404.568 345.258 404.626C338.202 404.626 330.823 405.136 324.051 402.813C316.877 400.344 310.537 394.415 304.96 389.485C298.728 383.958 292.701 378.196 286.752 372.365C259.096 345.229 234.596 315.348 208.783 286.527C205.892 283.302 201.541 287.948 204.118 291.191H204.158Z" fill="#382C80"/>
<path d="M557.957 469.316C559.388 442.18 542.238 416.896 516.66 408.86C484.918 398.884 450.755 400.834 417.68 404.127C394.278 406.449 370.836 409.419 347.267 409.134C337.898 409.017 326.736 409.791 318.416 404.92C310.497 400.285 302.883 393.356 296.209 387.124C294.788 385.801 293.387 384.458 291.985 383.125C281.205 372.865 270.866 362.222 260.782 351.305C247.768 369.601 231.284 393.445 222.376 408.497C218.74 414.632 215.173 420.875 212.174 427.333C218.836 432.902 225.808 438.088 233.058 442.866C235.665 444.581 238.311 446.267 240.966 447.923C275.609 469.483 314.466 485.731 354.911 492.229C385.771 497.187 418.778 494.728 446.051 479.43C452.911 475.569 459.506 470.884 467.082 468.709C480.028 464.994 499.422 469.199 501.558 484.741C502.764 493.463 504.43 500.539 510.682 507.281C511.946 508.852 513.653 510.007 515.582 510.594C518.845 511.368 522.226 509.114 523.863 506.184C525.5 503.254 525.823 499.775 526.068 496.384C527.048 500.549 532.35 502.646 536.378 501.166C540.405 499.686 542.993 495.61 543.865 491.415C544.737 487.221 544.169 482.879 543.6 478.675C544.737 482.654 550.715 483.271 553.841 480.567C556.967 477.862 557.732 473.442 557.957 469.316Z" fill="white"/>
<path d="M561.848 469.316C562.716 449.921 554.89 431.148 540.503 418.111C523.667 403.127 499.647 399.491 477.901 398.07C452.225 396.395 426.578 399.325 401.069 401.99C387.653 403.372 374.217 404.656 360.742 405.126C354.588 405.332 348.433 405.283 342.279 405.273C336.801 405.273 331.215 405.273 325.893 403.843C319.739 402.186 314.417 397.963 309.586 393.915C304.431 389.642 299.57 385.036 294.729 380.421C283.949 370.16 273.62 359.507 263.526 348.6C261.693 346.64 258.793 347.444 257.411 349.394C248.591 361.85 239.771 374.403 231.353 387.143C223.179 399.462 215.104 412.016 208.813 425.422C208.136 426.873 208.038 428.98 209.42 430.136C230.343 447.531 254.226 461.565 279 472.825C303.5 483.987 329.431 492.425 356.107 496.345C381.42 500.108 408.047 499.236 432.194 490.141C438.359 487.833 444.318 485.01 450.01 481.704C455.694 478.391 461.261 474.579 467.65 472.658C475.49 470.287 485.535 470.835 492.268 475.961C496.482 479.165 497.462 483.399 498.256 488.377C499.236 494.61 501.029 500.814 504.724 506.017C508.516 511.388 514.063 516.797 521.09 513.769C528.116 510.741 529.429 503.254 529.978 496.482L522.334 497.511C524.716 505.243 534.28 507.85 540.739 503.342C548.814 497.717 548.667 487.456 547.51 478.734L539.866 479.773C541.954 485.33 548.049 487.495 553.479 485.3C559.839 482.733 561.544 475.5 561.946 469.326C562.269 464.328 554.478 464.348 554.106 469.326C553.939 471.962 553.645 475.588 551.509 477.47C550.764 478.127 547.883 479.195 547.324 477.705C545.923 473.952 539.053 474.05 539.68 478.734C540.356 483.85 541.483 490.083 538.426 494.689C536.701 497.266 531.184 499.961 529.792 495.443C528.449 491.121 522.491 492.16 522.138 496.482C521.913 499.265 521.805 502.754 519.992 505.057C517.787 507.85 515.543 506.811 513.446 504.587C509.673 500.559 507.566 495.551 506.439 490.22C505.459 485.467 505.253 480.684 502.783 476.372C500.607 472.701 497.465 469.697 493.699 467.69C486.123 463.544 476.862 462.701 468.483 464.397C456.723 466.768 447.011 475.177 436.271 480.077C413.731 490.377 388.064 492.288 363.751 489.553C338.584 486.731 313.663 479.224 290.398 469.356C263.624 457.988 237.419 443.229 215.006 424.599L215.614 429.323C221.915 415.916 229.99 403.362 238.154 391.044C246.601 378.304 255.353 365.75 264.212 353.294L258.097 354.078C266.789 363.467 275.678 372.698 284.841 381.597C293.387 389.917 302.011 398.423 311.811 405.264C316.139 408.488 321.108 410.748 326.383 411.888C331.66 412.775 337.008 413.159 342.357 413.035C355.166 413.035 367.906 412.721 380.685 411.683C406.096 409.605 431.39 405.891 456.919 405.42C469.373 405.062 481.835 405.8 494.159 407.625C504.831 409.321 516.121 411.545 525.637 416.945C544.257 427.441 555.037 448.109 554.057 469.326C553.831 474.324 561.622 474.314 561.848 469.316Z" fill="#382C80"/>
<path d="M506.429 459.389C516.778 471.061 521.707 485.741 522.393 501.186C522.609 506.086 530.027 506.086 529.998 501.186C529.88 484.153 522.079 467.631 510.3 455.518C507.82 452.97 504.106 456.772 506.429 459.389Z" fill="#382C80"/>
<path d="M525.284 442.935C530.184 448.442 533.124 455.087 535.26 462.094C536.24 465.504 537.22 468.954 537.965 472.452C538.71 475.951 539.122 479.92 540.337 483.399C541.66 487.201 547.824 486.849 547.687 482.419C547.55 478.411 546.403 474.285 545.492 470.385C544.598 466.403 543.426 462.49 541.983 458.674C539.234 451.259 534.849 444.56 529.155 439.074C526.558 436.653 522.942 440.318 525.235 442.945L525.284 442.935Z" fill="#382C80"/>
<path d="M219.936 233.793C206.741 225.132 190.197 223.31 175.434 228.893C122.641 249.316 118.27 315.319 128.639 348.855C139.85 385.115 238.634 523.099 212.164 427.323C215.163 420.865 218.73 414.583 222.366 408.488C231.274 393.474 247.758 369.591 260.772 351.295C242.054 331.058 224.257 309.929 206.49 288.839" fill="white"/>
<path d="M221.896 230.431C212.594 224.371 201.626 221.379 190.536 221.876C180.422 222.356 170.847 225.884 162.184 231.01C147.964 239.408 136.998 252.403 130.226 267.387C123.87 281.868 120.485 297.477 120.27 313.29C119.976 326.03 121.25 339.535 125.464 351.638C128.609 360.595 133.304 369.082 137.998 377.294C144.26 388.28 151.12 398.933 158.323 409.35C165.526 419.767 173.209 430.165 181.431 439.955C187.586 447.296 194.103 454.655 201.894 460.349C206.343 463.564 213.281 466.896 217.76 461.858C223.209 455.733 220.034 443.787 218.544 436.868C217.78 433.321 216.878 429.803 215.918 426.314L215.526 429.313C221.827 415.906 229.902 403.352 238.066 391.034C246.513 378.294 255.265 365.74 264.124 353.284C265.011 351.753 264.762 349.818 263.516 348.561C244.798 328.294 227.001 307.205 209.234 286.105C206 282.273 200.522 287.801 203.726 291.613C221.504 312.712 239.291 333.753 258.009 354.068L257.401 349.354C243.887 368.366 230.255 387.467 218.387 407.566C215.026 413.26 211.145 419.179 208.793 425.383C207.45 428.93 209.949 434.085 210.753 437.741C211.909 442.905 212.919 447.658 212.713 452.921C212.713 453.332 212.713 453.744 212.644 454.165C212.566 455.332 212.772 453.764 212.576 454.646C212.453 455.311 212.279 455.966 212.056 456.606C211.811 458.164 212.595 455.145 212.056 456.606C212.056 456.655 211.253 457.439 211.909 456.802C212.409 456.321 211.253 456.958 211.958 456.802C212.85 456.576 211.782 456.743 211.743 456.802C211.949 456.468 212.723 456.9 211.949 456.753C210.733 456.517 212.615 457.164 211.125 456.635L210.302 456.38C209.322 456.067 210.459 456.478 210.047 456.282C209.371 455.949 208.705 455.596 208.087 455.204C207.47 454.812 206.647 454.283 205.951 453.783C205.267 453.325 204.612 452.824 203.991 452.284C202.247 450.843 200.59 449.344 198.973 447.727C195.053 443.875 191.329 439.759 187.752 435.545C170.534 415.058 155.36 392.935 142.447 369.493C137.459 360.487 133.313 352.569 130.942 342.798C127.501 328.106 126.945 312.886 129.305 297.983C131.853 281.519 137.802 265.104 148.778 252.344C161.635 237.36 181.774 226.374 201.835 230.5C207.587 231.679 213.062 233.944 217.966 237.174C222.17 239.918 226.08 233.185 221.886 230.451L221.896 230.431Z" fill="#382C80"/>
<path d="M212.164 427.343C209.537 432.881 207.472 438.669 206 444.62C204.912 449.197 204.412 454.469 207.303 458.183C209.685 461.241 213.909 462.417 217.76 461.976C221.611 461.535 225.149 459.693 228.432 457.635C232.897 454.793 237.089 451.545 240.957 447.933C238.301 446.276 235.655 444.591 233.048 442.876C225.799 438.097 218.826 432.911 212.164 427.343V427.343Z" fill="#382C80"/>
<path d="M208.803 425.383C204.089 435.663 194.867 455.42 207.627 463.603C219.985 471.521 235.067 458.595 243.71 450.686C245.67 448.952 244.955 445.845 242.926 444.571C233.146 438.556 223.788 431.879 214.918 424.589C211.096 421.414 205.559 426.892 209.41 430.096C218.782 437.823 228.667 444.905 238.997 451.294L238.203 445.188C234.33 448.81 230.108 452.04 225.6 454.832C221.817 457.095 216.702 459.585 212.341 457.321C207.98 455.057 208.94 449.118 209.92 445.12C211.293 439.69 213.18 434.404 215.555 429.332C217.603 424.785 210.9 420.826 208.803 425.383Z" fill="#382C80"/>
<path d="M214.35 139.683C220.414 127.595 232.251 119.457 245.71 118.123C258.744 116.987 268.475 124.327 270.21 137.616C271.139 144.934 268.988 152.309 264.271 157.98C269.171 159.038 274.159 160.312 278.089 163.39C282.019 166.467 284.596 171.808 282.989 176.541C281.431 181.128 276.629 183.715 272.052 185.302C258.215 190.012 243.133 189.5 229.647 183.862" fill="#382C80"/>
<path d="M216.78 141.104C223.366 129.06 238.761 119.005 252.932 122.563C267.103 126.12 269.396 144.515 261.096 154.775C259.136 157.206 259.479 161.469 263.056 162.262C268.514 163.478 275.796 164.977 278.275 170.749C280.588 176.188 275.178 179.256 270.798 180.765C257.754 185.11 243.574 184.553 230.912 179.197C228.501 178.217 225.669 180.275 225.032 182.548C224.238 185.283 226.012 187.448 228.373 188.428C236.895 191.934 246.079 193.539 255.284 193.132C263.585 192.75 273.15 191.172 280.235 186.517C287.32 181.862 290.094 173.777 286.174 166.133C282.156 158.244 273.532 155.353 265.447 153.609L267.407 161.106C273.973 152.923 276.58 142.319 273.561 132.127C271.329 124.138 265.231 117.805 257.332 115.271C239.447 109.538 219.308 122.2 211.9 138.262C210.4 141.486 214.987 144.328 216.751 141.094L216.78 141.104Z" fill="#382C80"/>
<path d="M192.28 167.78C192.627 176.104 193.61 184.39 195.22 192.564C196.602 199.424 197.788 205.706 196.435 212.654C195.975 214.997 195.357 217.29 194.671 219.573C193.917 222.053 192.153 225.061 193.28 227.599C196.425 234.704 207.127 244.857 214.085 247.954C218.397 249.865 223.728 250.188 227.658 247.572C233.675 243.564 233.989 235.047 234.312 227.825C234.557 222.376 235.449 216.398 239.555 212.821C241.741 210.92 244.553 209.959 247.042 208.499C257.195 202.541 260.468 189.242 259.782 177.492C259.185 166.937 256 156.206 249.002 148.327C238.34 136.42 223.64 136.94 209.636 141.379C200.022 144.417 191.525 151.62 192.28 167.78Z" fill="white"/>
<path d="M189.164 167.78C189.215 174.546 189.729 181.301 190.702 187.997C191.682 194.397 193.387 200.737 193.152 207.245C192.974 210.296 192.438 213.315 191.555 216.241C190.751 219.112 189.252 221.945 189.017 224.934C188.654 229.53 191.957 233.675 194.701 237.076C200.345 244.122 208.577 251.982 217.868 253.412C223.346 254.255 229.069 252.864 232.872 248.64C236.184 244.965 237.438 240.202 238.046 235.41C238.683 230.422 238.193 225.13 239.8 220.308C241.633 214.82 247.248 213.879 251.462 210.733C259.626 204.648 263.144 194.661 264.026 184.842C265.986 163.409 255.049 137.616 231.5 134.529C221.513 133.215 209.195 135.342 200.59 140.801C191.241 146.739 187.664 157 188.066 167.78C188.272 173.16 196.612 173.19 196.455 167.78C196.249 160.41 197.964 153.002 204.354 148.611C210.459 144.427 219.112 142.731 226.394 142.79C246.974 142.79 256.137 164.046 255.549 182.068C255.284 189.781 253.069 198.66 246.641 203.628C242.779 206.568 237.997 207.676 234.881 211.596C232.019 215.163 230.892 219.524 230.373 223.973C229.628 230.284 231.353 243.23 222.925 245.092C215.212 246.788 207.303 238.801 202.59 233.754C201.12 232.234 199.779 230.595 198.581 228.854C197.18 226.756 196.739 225.796 197.601 223.326C199.512 217.789 201.061 212.076 200.953 206.157C200.855 199.993 199.267 194.015 198.14 187.988C196.866 181.304 195.94 174.559 195.367 167.78C195.044 163.86 189.095 163.713 189.164 167.78Z" fill="#382C80"/>
<path d="M212.517 183.695C212.36 188.517 212.135 193.593 209.577 197.67C209.257 192.352 207.927 187.143 205.657 182.323C204.138 179.079 201.904 175.796 198.464 174.758C195.024 173.719 190.516 176.316 190.996 179.873C191.761 185.567 201.619 192.535 191.388 196.602C183.548 199.699 176.09 185.93 174.199 180.745C168.466 165.065 165.487 147.357 171.68 131.863C178.295 115.311 191.28 110.813 206.862 109.774C210.224 109.548 213.811 111.93 218.426 111.508C225.6 110.832 231.166 105.158 239.526 105.756C249.223 106.505 258.128 111.393 263.967 119.172C269.053 126.032 271.278 135.636 267.436 143.28C260.576 157 240.976 161.165 227.256 159.94C210.733 158.499 212.938 170.289 212.517 183.695Z" fill="#382C80"/>
<path d="M210.047 183.695C209.851 188.095 209.597 192.466 207.284 196.337L212.184 197.67C211.645 188.732 206.647 166.702 193.093 172.19C187.997 174.248 186.812 179.246 188.948 183.95C190.202 186.723 195.534 192.476 189.83 193.495C185.841 194.21 182.421 188.693 180.696 185.851C177.903 181.274 176.286 176.227 174.875 171.073C171.22 157.696 170.063 142.486 176.786 129.844C181.823 120.367 190.702 115.83 201.031 114.321C203.515 113.808 206.062 113.67 208.587 113.909C211.527 114.389 214.291 115.585 217.407 115.565C223.405 115.565 228.324 112.086 233.901 110.469C245.661 107.088 259.645 116.457 263.751 127.286C265.898 132.921 265.711 138.968 262.144 143.946C259.283 147.935 254.892 150.738 250.384 152.541C244.991 154.643 239.267 155.771 233.479 155.873C227.844 156.02 222.052 154.667 216.711 157.108C206.745 161.655 208.519 174.748 208.636 183.705C208.695 188.762 216.074 188.664 216.417 183.705C216.731 179.089 216.417 174.199 217.339 169.661C218.142 165.8 220.073 164.242 224.101 164.134C229.736 163.977 235.116 164.565 240.761 163.762C246.565 162.987 252.198 161.237 257.421 158.587C268.602 152.776 275.59 141.614 272.885 128.864C270.092 115.732 258.322 105.422 245.445 102.561C238.644 101.042 232.754 101.953 226.423 104.687C223.846 105.795 221.19 107.177 218.368 107.52C215.29 107.892 212.409 106.481 209.43 106.02C204.069 105.197 197.611 106.638 192.456 108.137C187.263 109.596 182.437 112.137 178.295 115.595C168.084 124.278 164.252 138.782 164.487 151.708C164.713 164.448 167.819 178.913 174.709 189.761C177.59 194.299 181.657 199.385 187.262 200.365C192.711 201.345 199.552 197.219 199.287 191.251C199.16 188.507 197.621 186.057 196.249 183.773C195.269 182.107 192.78 179.167 195.465 177.942C199.042 176.296 201.845 181.255 203.109 183.822C205.215 188.176 206.485 192.887 206.853 197.709C207.058 200.169 210.39 201.462 211.753 199.032C214.428 194.308 214.781 189.056 214.898 183.734C215.045 180.52 210.194 180.52 210.047 183.695Z" fill="#382C80"/>
<path d="M256.166 167.055C253.011 167.055 248.963 167.378 247.65 170.788C246.886 172.748 247.346 175.169 247.817 177.158C248.067 178.312 248.448 179.433 248.953 180.5C249.267 181.098 251.198 183.44 249.933 183.548C248.12 183.675 248.081 186.439 249.933 186.4C253.579 186.331 254.216 183.46 252.56 180.637C251.247 178.374 249.884 175.62 250.169 172.866C250.472 169.848 253.765 169.926 256.127 169.926C256.869 169.865 257.439 169.245 257.439 168.5C257.439 167.756 256.869 167.136 256.127 167.074L256.166 167.055Z" fill="#382C80"/>
<path d="M216.349 209.773C222.288 213.705 229.38 215.518 236.478 214.918C241.868 214.369 248.385 213.203 252.442 209.312C256.058 205.833 250.551 200.336 246.935 203.805C244.308 206.323 238.742 207.147 235.273 207.539C229.794 208.166 223.513 206.745 218.475 204.716C215.418 203.481 213.909 208.117 216.349 209.773Z" fill="#382C80"/>
<path d="M241.956 168.084C240.598 167.675 239.172 167.541 237.762 167.692C237.027 167.799 236.3 167.957 235.586 168.162C235.404 168.175 235.224 168.204 235.047 168.25C234.851 168.417 235.439 170.308 235.361 170.318C235.851 170.259 236.409 169.74 236.929 169.622C238.13 169.426 239.363 169.607 240.457 170.142C242.348 171.014 243.995 168.348 242.113 167.3C239.526 165.869 234.998 165.516 232.901 168.191C231.833 169.563 232.803 171.073 234.342 171.386C235.345 171.496 236.36 171.337 237.282 170.926C238.565 170.577 239.918 170.577 241.202 170.926C241.976 171.139 242.776 170.685 242.99 169.911C243.204 169.137 242.75 168.337 241.976 168.123L241.956 168.084Z" fill="#382C80"/>
<path d="M236.596 177.374L236.919 177.678C236.978 177.756 236.919 177.727 236.86 177.609C236.786 177.541 236.735 177.452 236.713 177.354C236.596 177.051 236.713 177.296 236.713 177.354L236.645 176.855C236.655 176.91 236.655 176.966 236.645 177.021L236.713 176.512C236.713 176.698 236.713 176.619 236.831 176.286C237.024 175.982 237.319 175.756 237.664 175.649L238.164 175.581H238.007L238.507 175.649C238.763 175.73 238.986 175.892 239.144 176.11C239.217 176.183 239.271 176.274 239.3 176.374C239.369 176.561 239.379 176.58 239.3 176.433L239.369 176.933C239.364 176.874 239.364 176.815 239.369 176.757L239.3 177.247C239.379 176.953 239.114 177.59 239.232 177.394C239.349 177.198 238.908 177.756 239.153 177.521C239.87 176.796 239.87 175.63 239.153 174.904C238.419 174.203 237.262 174.203 236.527 174.904C235.765 175.575 235.45 176.619 235.714 177.599C236.036 178.755 237.165 179.492 238.353 179.324C239.541 179.155 240.42 178.133 240.408 176.933C240.375 176.052 239.982 175.223 239.32 174.64C238.54 174.097 237.483 174.192 236.812 174.865C236.141 175.538 236.05 176.596 236.596 177.374Z" fill="#382C80"/>
<path d="M298.933 891.167C297.601 886.492 293.857 883.092 290.045 880.387C283.263 875.605 275.737 872.194 268.661 867.941C266.505 866.647 264.379 865.246 262.33 863.727C260.116 870.959 258.312 878.349 256.793 885.757C247.83 885.62 238.866 885.405 229.902 885.111C219.21 884.768 208.509 884.317 197.856 883.317C192.476 882.817 186.674 882.592 181.422 881.289C179.927 880.854 178.409 880.504 176.874 880.24V881.504C176.728 883.734 177.031 885.97 177.766 888.08C179.128 891.245 182.264 893.058 185.342 894.195C195.328 897.88 208.185 896.665 218.799 898.037C232.048 899.752 245.396 900.8 258.734 901.428C266.936 901.8 304.069 909.248 298.933 891.167Z" fill="#382C80"/>
<path d="M302.687 890.128C300.119 882.288 293.347 877.574 286.546 873.537C279.137 869.117 271.278 865.501 264.3 860.385C262.193 858.837 259.243 860.522 258.577 862.708C256.382 869.969 254.579 877.319 253.04 884.738L256.793 881.876C243.073 881.661 229.442 881.357 215.79 880.691C209.018 880.357 202.276 879.809 195.524 879.24C192.319 878.976 189.085 878.78 185.9 878.26C183.205 877.809 180.598 876.927 177.903 876.506C175.444 876.124 173.003 877.486 173.003 880.259C173.003 887.168 174.385 892.999 180.902 896.478C186.429 899.418 192.917 900.232 199.062 900.712C206.069 901.261 213.076 901.241 220.063 902.104C227.524 903.038 235.001 903.786 242.495 904.348C251.433 905.024 260.312 905.524 269.22 906.435C276.619 907.19 284.361 907.807 291.701 906.22C299.757 904.485 304.941 898.566 302.716 890.128C301.432 885.297 293.896 887.345 295.2 892.206C295.421 893.116 295.526 894.052 295.513 894.989C295.463 895.677 295.103 896.305 294.533 896.694C293.298 897.821 290.741 898.546 288.545 898.919C282.42 899.957 275.903 899.32 269.769 898.713C263.144 898.046 256.617 897.488 249.973 897.076C237.056 896.282 224.218 894.215 211.312 893.548C204.853 893.205 198.287 893.284 191.927 892C189.105 891.431 186.047 890.716 183.617 889.06C180.51 886.943 180.745 883.689 180.765 880.24L175.865 883.993C178.56 884.415 181.167 885.297 183.862 885.747C187.145 886.296 190.467 886.59 193.789 886.865C200.698 887.433 207.607 888.031 214.536 888.384C228.618 889.109 242.73 889.422 256.823 889.648C258.572 889.638 260.104 888.471 260.576 886.786C262.115 879.368 263.918 872.018 266.113 864.766L260.4 867.088C266.427 871.508 273.14 874.82 279.588 878.466C285.302 881.68 293.024 885.493 295.2 892.186C296.728 896.9 304.245 894.94 302.687 890.128Z" fill="#382C80"/>
<path d="M120.485 877.486C123.092 873.38 123.131 868.323 122.592 863.688C121.612 855.456 119.162 847.567 117.614 839.452C117.143 836.983 116.771 834.464 116.546 831.936C109.686 835.101 102.963 838.688 96.4262 842.481C90.5462 835.706 84.7315 828.882 78.9822 822.008C72.1222 813.806 65.2622 805.535 58.9608 796.92C55.7562 792.579 52.0518 788.1 49.5234 783.318C48.8533 781.909 48.1006 780.542 47.2694 779.222L46.2894 780.064C44.5281 781.441 43.0616 783.157 41.9774 785.111C40.527 788.238 41.262 791.785 42.4674 794.833C46.3874 804.741 55.8444 813.512 61.9008 822.332C69.4958 833.357 77.62 843.98 86.0284 854.368C91.2126 860.748 110.44 893.372 120.485 877.486Z" fill="#382C80"/>
<path d="M123.847 879.456C127.767 872.753 126.914 865.07 125.611 857.749C124.062 849.105 121.299 840.697 120.436 831.936C120.424 830.541 119.673 829.258 118.462 828.566C117.251 827.874 115.764 827.877 114.556 828.574C107.696 831.769 101.003 835.327 94.4466 839.119L99.1604 839.737C90.3404 829.535 81.5204 819.264 73.063 808.788C68.8882 803.643 64.8898 798.381 60.9012 793.108C58.9412 790.57 56.9812 788.051 55.276 785.405C53.5708 782.759 52.336 779.917 50.6112 777.281C49.9944 776.248 48.9374 775.556 47.7441 775.403C46.5509 775.25 45.3534 775.653 44.496 776.497C39.4686 780.946 36.2444 785.69 37.7536 792.706C39.0668 798.841 42.9476 804.378 46.701 809.268C50.4544 814.159 54.6978 818.814 58.2748 823.91C62.4398 829.848 66.6244 835.768 71.0148 841.55C75.0818 846.92 79.335 852.055 83.5 857.347C82.961 856.651 83.9704 857.994 84.0782 858.141L85.264 859.807C86.244 861.159 87.175 862.522 88.1452 863.874C92.7022 870.215 97.4944 876.761 103.747 881.514C110.607 886.796 118.741 887.198 123.886 879.427C126.659 875.232 119.966 871.332 117.163 875.507C116.632 876.385 115.896 877.122 115.017 877.653C114.494 877.897 113.907 877.969 113.341 877.859C111.026 877.239 108.91 876.034 107.196 874.36C102.247 870.068 98.2686 864.717 94.4564 859.415C89.9778 853.143 85.166 847.204 80.4522 841.118C73.2982 831.877 66.987 821.989 59.6272 812.914C55.7072 808.014 51.4834 803.3 48.3082 797.842C46.8578 795.343 45.2114 792.363 45.1036 789.404C44.9664 785.964 47.6614 784.014 50.0036 781.936L43.8884 781.152C45.5642 783.788 46.8284 786.65 48.5532 789.267C50.4152 792.089 52.4732 794.745 54.5312 797.45C58.5492 802.781 62.5868 808.092 66.7812 813.296C75.513 824.076 84.5584 834.69 93.6528 845.195C94.9097 846.441 96.8452 846.69 98.3764 845.803C104.933 842.01 111.616 838.453 118.486 835.258L112.606 831.897C113.38 839.737 115.389 847.273 117.075 854.936C118.496 861.355 120.622 869.401 117.075 875.516C114.615 879.868 121.338 883.788 123.847 879.456Z" fill="#382C80"/>
<path d="M201.423 478.332C197.773 487.557 191.06 495.246 182.411 500.108C178.197 502.509 182.039 509.114 186.224 506.615C196.305 500.613 203.873 491.166 207.529 480.018C208.832 476.098 202.874 474.618 201.423 478.332Z" fill="#382C80"/>
<path d="M240.996 190.643C239.559 190.374 238.231 189.693 237.174 188.683C235.547 187.184 233.166 189.536 234.734 191.124C236.376 192.8 238.651 193.705 240.996 193.613C242.956 193.613 242.828 190.888 240.996 190.673V190.643Z" fill="#382C80"/>
<path d="M180.255 583.868C171.435 583.261 166.212 573.823 164.036 565.307C162.537 559.427 161.753 553.028 164.183 547.481C167.692 539.484 176.796 535.594 185.351 533.83C189.614 532.957 194.064 532.428 198.307 533.428C206.392 535.388 212.301 542.61 215.124 550.421C218.848 560.701 217.78 573.186 210.449 581.301C203.119 589.415 189.056 591.297 181.108 583.77" fill="white"/>
<path d="M181.069 580.899C171.318 578.753 167.437 567.503 166.555 558.545C166.036 553.293 167.055 548.246 170.985 544.512C174.346 541.317 178.883 539.612 183.303 538.416C188.556 537.034 194.642 535.937 199.806 538.23C204.305 540.19 207.548 544.286 209.734 548.569C213.977 556.928 214.281 568.091 209.028 576.068C203.913 583.839 191.516 587.348 183.989 580.889C180.069 577.518 174.356 583.026 178.227 586.652C187.566 595.413 202.286 594.325 211.684 586.191C222.003 577.254 223.777 561.054 219.063 548.834C216.788 542.491 212.66 536.977 207.215 533.007C200.875 528.616 193.407 528.293 186.037 529.626C173.121 531.958 160.087 539.034 158.911 553.449C157.931 565.739 165.105 587.103 180.255 586.936C183.627 586.936 184.548 581.664 181.069 580.899Z" fill="white"/>
<path d="M174.091 139.017C167.846 130.376 159.333 123.63 149.493 119.525C143.966 117.241 137.733 115.82 132 117.339C126.267 118.858 121.083 123.984 121.132 129.962C111.773 114.282 92.1534 105.227 74.1998 108.725C56.2462 112.224 41.36 128.217 39.498 146.426C37.636 164.634 49.298 183.46 66.4774 189.644C83.6568 195.828 104.854 188.468 114.223 172.749C124.66 179.991 137.625 184.342 150.15 182.225C162.674 180.108 174.268 170.563 176.473 158.049" fill="#382C80"/>
<path d="M177.159 137.224C169.534 126.444 158.539 117.624 145.799 113.87C139.321 111.91 132.079 111.763 126.042 115.095C120.501 118.069 116.882 123.687 116.467 129.962L125.179 127.6C117.339 113.576 101.454 104.678 85.7344 103.345C69.4566 101.963 53.8942 109.862 44.1138 122.7C34.216 135.416 31.7889 152.421 37.734 167.398C43.6728 182.098 56.5696 193.946 72.5338 196.308C90.409 198.944 109.049 190.84 118.594 175.336L111.675 177.149C124.003 185.577 139.87 190.477 154.668 186.439C167.408 182.96 178.785 172.719 181.304 159.421C182.49 153.149 172.935 150.424 171.651 156.765C169.573 167.045 161.087 174.493 151.071 176.924C139.056 179.864 126.571 175.12 116.771 168.417C114.478 166.869 111.205 168.035 109.852 170.24C103.355 180.863 91.1048 186.988 78.7568 186.851C65.8796 186.714 54.7468 178.844 48.7296 167.712C42.5534 156.468 42.8335 142.786 49.4646 131.804C55.913 121.093 67.5456 113.41 80.168 112.851C95.2502 112.175 108.843 120.015 117.085 132.363C119.593 136.126 125.767 134.833 125.797 130.001C125.797 126.081 128.737 123.141 132.275 121.808C137.302 119.917 143.055 121.426 147.876 123.278C157.053 126.899 165.056 132.979 171.004 140.85C173.709 144.417 179.824 141.046 177.149 137.263L177.159 137.224Z" fill="#382C80"/>
<path d="M555.252 435.32C559.29 437.417 564.513 437.28 568.835 438.946C573.18 440.523 576.748 443.718 578.792 447.864C583.692 457.39 584.064 468.552 588.661 478.244C590.513 482.164 595.903 479.224 595.217 475.471C593.984 468.997 592.401 462.594 590.474 456.292C588.915 451.108 587.259 445.649 584.084 441.19C581.017 436.951 576.725 433.753 571.785 432.027C567.316 430.361 560.731 428.607 555.997 429.646C553.42 430.204 552.91 434.124 555.252 435.34V435.32Z" fill="#382C80"/>
<path d="M565.219 569.345C610.632 631.411 657.898 692.073 707.015 751.331C720.814 767.893 734.534 784.651 749.077 800.527C750.909 802.487 753.673 799.625 752.017 797.587C739.875 782.887 727.203 768.559 714.885 753.977C702.566 739.394 690.385 724.743 678.252 709.985C653.902 680.251 630.056 650.126 606.712 619.609C593.561 602.488 580.497 585.309 567.689 567.924C566.63 566.493 564.219 567.875 565.278 569.325L565.219 569.345Z" fill="white"/>
<path d="M629.135 553.126C656.509 586.289 683.443 619.811 709.936 653.693C736.644 687.941 762.833 722.568 788.502 757.573C795.617 767.282 802.693 777.026 809.729 786.807C816.883 796.754 823.753 806.946 831.211 816.658C832.886 818.833 836.61 816.873 835.013 814.433C823.145 796.205 809.739 778.83 796.881 761.288C784.024 743.746 771.186 726.556 758.142 709.348C732.074 674.936 705.437 640.963 678.233 607.428C662.814 588.383 647.206 569.502 631.408 550.784C630.066 549.186 627.821 551.47 629.135 553.057V553.126Z" fill="white"/>
<path d="M733.093 558.8C740.345 569.992 748.832 580.497 756.78 591.199C764.901 602.129 773.044 613.036 781.211 623.921C797.231 645.383 813.27 666.838 829.329 688.287C838.521 700.577 847.675 712.885 856.975 725.096C858.641 727.291 862.424 725.165 860.738 722.891C828.398 679.311 795.47 636.21 762.738 592.943C753.693 580.987 745.01 568.512 735.19 557.183C734.21 556.036 732.25 557.526 733.093 558.8Z" fill="white"/>
<path d="M812.414 562.847C815.599 567.512 819.666 571.667 823.292 576.038L835.229 590.258C843.069 599.568 850.762 608.946 858.886 617.992C860.532 619.824 863.021 617.178 861.542 615.336C854.094 605.997 846.244 596.981 838.482 587.896L826.85 574.284C823.018 569.795 819.382 564.846 815.09 560.76C813.727 559.456 811.228 561.181 812.375 562.847H812.414Z" fill="white"/>
<path d="M597.892 705.369C622.269 734.518 644.885 765.097 665.62 796.94C667.139 799.262 670.902 797.067 669.344 794.764C647.843 763.063 624.615 732.568 599.764 703.418C598.627 702.086 596.736 704.006 597.804 705.329L597.892 705.369Z" fill="white"/>
<path d="M616.326 775.909C648.019 746.117 680.026 716.697 711.945 687.092C743.651 657.633 775.416 628.233 807.24 598.892C825.37 582.232 843.676 565.709 861.63 548.843C863.482 547.108 860.738 544.404 858.856 546.07C826.36 574.96 794.637 604.772 762.728 634.27C730.819 663.768 699.322 693.197 667.854 722.911C649.95 739.816 632.241 756.946 614.366 773.871C613.072 775.096 615.023 777.046 616.326 775.831V775.909Z" fill="white"/>
<path d="M701.263 794.774C746.754 755.143 790.577 713.725 832.73 670.52C844.666 658.29 856.514 646.02 867.951 633.28C869.499 631.565 867.03 629.056 865.403 630.732C844.352 652.478 823.508 674.381 802.065 695.735C780.78 716.943 759.092 737.741 737.003 758.132C724.446 769.716 711.794 781.188 699.048 792.55C697.539 793.902 699.753 796.087 701.263 794.764V794.774Z" fill="white"/>
<path d="M779.035 801.399C788.483 793.951 797.381 785.631 806.319 777.575C815.256 769.519 824.145 761.287 832.847 752.928C834.592 751.252 831.955 748.626 830.211 750.282C821.456 758.605 812.636 766.851 803.751 775.017C794.862 783.151 785.572 790.903 776.811 799.184C775.302 800.595 777.487 802.604 779.026 801.399H779.035Z" fill="white"/>
<path d="M593.492 678.899C636.612 642.502 680.467 606.879 725.322 572.588C737.67 563.151 750.429 554.155 762.454 544.306C763.963 543.061 761.983 540.493 760.347 541.581C748.587 549.421 737.483 558.241 726.262 566.846C715.208 575.274 704.209 583.767 693.266 592.326C671.164 609.672 649.336 627.357 627.782 645.383C615.513 655.673 603.364 666.107 591.336 676.684C589.846 677.987 592.002 680.104 593.492 678.85V678.899Z" fill="white"/>
<path d="M580.723 618.413C610.191 597.806 638.571 575.684 665.747 552.136C667.649 550.489 664.885 547.765 662.994 549.382C635.874 572.562 607.921 594.668 579.135 615.699C577.528 616.875 579.047 619.619 580.723 618.413Z" fill="white"/>
<path d="M951.153 531.438C939.52 551.8 929.569 573.078 921.4 595.06C920.538 597.422 924.34 598.451 925.173 596.099C932.982 574.306 942.586 553.2 953.887 532.996C954.867 531.232 952.182 529.655 951.182 531.409L951.153 531.438Z" fill="white"/>
<path d="M941.755 620.265C931.68 640.306 921.351 660.308 911.972 680.682C910.992 682.809 914.06 684.69 915.157 682.544C925.398 662.562 934.757 642.06 944.283 621.784C945.067 620.108 942.607 618.619 941.755 620.314V620.265Z" fill="white"/>
<path d="M922.958 711.758C918.058 720.284 913.001 728.751 908.376 737.444C907.935 738.196 908.187 739.164 908.939 739.605C909.692 740.046 910.659 739.794 911.1 739.041C916.265 730.653 921.028 722.029 925.898 713.473C926.302 712.669 926.011 711.689 925.233 711.235C924.456 710.782 923.46 711.011 922.958 711.758Z" fill="white"/>
<path d="M918.617 549.529C922.439 554.85 927.162 559.682 931.602 564.474C936.182 569.616 941.093 574.454 946.302 578.958C946.949 579.601 947.994 579.598 948.639 578.953C949.284 578.309 949.286 577.264 948.644 576.616C944.126 571.716 939.216 567.179 934.561 562.396C929.906 557.614 925.741 552.41 920.959 547.755C919.812 546.618 917.647 548.137 918.646 549.529H918.617Z" fill="white"/>
<path d="M921.067 635.112C924.075 645.099 928.26 654.84 931.994 664.64C932.866 666.923 936.58 665.933 935.688 663.66C931.896 653.781 928.436 643.56 923.928 633.976C923.174 632.359 920.567 633.505 921.067 635.181V635.112Z" fill="white"/>
<path d="M909.767 717.266C912.261 722.99 915.317 728.453 918.891 733.573C919.336 734.323 920.302 734.574 921.055 734.135C921.809 733.696 922.068 732.732 921.635 731.976C919.116 726.261 916.03 720.815 912.423 715.717C911.978 715.025 911.066 714.806 910.354 715.221C909.643 715.636 909.384 716.537 909.767 717.266Z" fill="white"/>
<path d="M567.816 222.033C570.54 213.746 571.093 204.899 569.423 196.337C567.836 188.095 564.366 179.001 558.643 172.69C555.605 169.319 549.97 173.67 552.361 177.531C556.487 184.136 560.143 190.153 561.897 197.866C563.605 205.324 563.834 213.045 562.573 220.592C561.956 223.993 566.728 225.404 567.787 222.033H567.816Z" fill="#382C80"/>
<path d="M714.885 160.606C689.924 132.353 663.552 105.579 640.14 75.9736C619.305 83.5131 598.637 91.4838 578.135 99.8856C575.208 110.078 572.788 120.4 570.874 130.854C570.47 132.564 570.348 134.328 570.511 136.077C570.883 138.635 572.402 140.859 573.882 142.937C600.715 181.343 628.596 219.269 655.722 257.597C656.222 258.293 656.829 259.057 657.682 259.106C658.353 259.055 658.986 258.775 659.475 258.312L714.62 216.27C717.559 214.665 719.27 211.473 718.981 208.136C719.517 197.481 720.059 186.825 720.608 176.169C720.858 173.731 720.713 171.269 720.177 168.878C719.314 165.693 717.08 163.086 714.885 160.606Z" fill="#7F72FF"/>
<path d="M716.923 158.578C692.149 130.226 666.061 102.904 642.776 73.3177C641.822 72.3299 640.4 71.9525 639.082 72.3377C626.257 76.9111 613.477 81.6412 600.744 86.5281C594.211 89.0369 587.677 91.5882 581.144 94.1819C578.42 95.2697 575.264 95.8479 574.059 98.7879C572.775 101.904 572.167 105.56 571.344 108.823C569.75 115.154 568.345 121.53 567.13 127.953C566.63 130.618 566.003 133.362 566.277 136.097C566.75 139.212 568 142.158 569.913 144.662C577.753 156.079 585.828 167.29 593.864 178.54C609.76 200.777 625.812 222.895 641.688 245.18C643.648 247.964 645.608 250.747 647.627 253.53C649.421 256.068 651.067 259.136 653.252 261.37C658.456 266.642 664.552 259.812 668.756 256.627L702.076 231.372L711.288 224.375C714.091 222.239 717.237 220.259 719.745 217.789C724.645 212.948 723.567 204.942 723.861 198.621C724.234 190.957 724.734 183.303 725.077 175.63C725.384 172.162 724.871 168.67 723.577 165.438C722.14 162.561 720.277 159.918 718.05 157.598C714.346 153.354 708.132 159.558 711.856 163.791C715.012 167.359 716.57 170.152 716.443 175.032C716.296 180.128 715.943 185.234 715.698 190.32C715.453 195.406 715.149 200.551 714.885 205.667C714.806 207.166 715.061 209.371 714.395 210.753C713.415 212.801 710.2 214.399 708.456 215.731C692.423 227.942 676.416 240.173 660.436 252.423C659.365 253.138 658.34 253.92 657.368 254.765L659.328 255.402C658.878 254.765 658.427 254.118 657.966 253.442C656.486 251.354 655.026 249.277 653.507 247.189L644.57 234.685C638.598 226.348 632.62 218.021 626.636 209.704C614.915 193.41 603.233 177.096 591.591 160.763C588.128 155.889 584.685 151.012 581.262 146.132C578.557 142.28 574.245 138.076 574.833 133.059C576.087 122.279 579.321 111.42 582.281 101.052L579.341 103.992C599.79 95.4984 620.419 87.3971 641.228 79.6877L637.533 78.7077C661.141 108.108 687.866 134.636 712.993 162.694C715.335 165.408 719.334 161.351 716.923 158.578Z" fill="#7F72FF"/>
<path d="M626.871 114.674C650.156 137.9 672.304 162.419 694.256 186.9C699.685 192.956 705.094 199.013 710.445 205.138C711.866 206.774 714.179 204.403 712.807 202.776C691.639 177.609 668.893 153.639 645.951 130.089C640.277 124.209 634.505 118.535 628.723 112.822C628.202 112.372 627.423 112.4 626.936 112.887C626.449 113.373 626.421 114.153 626.871 114.674Z" fill="#382C80"/>
<path d="M578.723 131.314C585.28 129.472 591.826 127.492 598.186 125.032C604.546 122.573 610.622 119.417 616.943 116.849C619.883 115.654 623.353 115.448 626.185 114.105C628.37 113.067 629.125 111.244 629.938 109.058C632.486 101.944 634.838 94.7699 637.278 87.6061C638.092 85.1561 634.338 84.1565 633.437 86.5477C631.078 93.0419 628.765 99.5752 626.498 106.148C625.95 107.755 625.724 109.588 624.156 110.47C623.153 110.823 622.109 111.05 621.05 111.146C618.266 111.863 615.559 112.848 612.965 114.086C601.45 119.368 590.033 124.66 577.979 128.619C577.232 128.825 576.793 129.597 576.999 130.344C577.204 131.091 577.976 131.53 578.723 131.324V131.314Z" fill="#382C80"/>
<path d="M641.973 195.857C636.485 192.398 630.556 188.429 627.331 182.598C623.725 176.09 624.44 168.152 631.359 164.321C634.221 162.733 638.219 161.381 641.453 162.233C644.687 163.086 647.01 166.094 648.205 169.093C650.273 174.366 653.105 186.616 645.981 189.399C643.354 190.379 644.491 194.71 647.167 193.681C656.761 189.967 655.389 177.874 652.949 169.828C650.185 160.704 642.766 155.853 633.456 159.048C624.921 161.988 619.736 169.338 621.745 178.423C623.911 188.154 632.702 193.427 640.542 198.307C642.1 199.287 643.482 196.827 641.973 195.847V195.857Z" fill="#382C80"/>
<path d="M653.586 206.98C656.398 205.02 659.24 203.06 661.994 201.051C663.954 199.62 662.121 196.367 660.034 197.768C657.202 199.728 654.448 201.757 651.675 203.775C649.764 205.157 651.567 208.362 653.546 206.98H653.586Z" fill="#382C80"/>
<path d="M661.092 214.154C661.909 212.317 663.4 210.865 665.257 210.096C666.148 209.818 666.671 208.897 666.453 207.989C666.196 207.082 665.257 206.549 664.346 206.794C661.348 207.908 658.982 210.268 657.858 213.262C657.614 214.154 658.134 215.077 659.025 215.33C659.917 215.552 660.827 215.034 661.092 214.154Z" fill="#382C80"/>
<path d="M667.394 223.13L671.941 219.348C672.532 218.739 672.532 217.771 671.941 217.162C671.327 216.586 670.37 216.586 669.756 217.162L665.218 220.955C664.623 221.558 664.623 222.527 665.218 223.13C665.827 223.71 666.785 223.71 667.394 223.13Z" fill="#382C80"/>
<path d="M661.024 303.451C729.839 302.282 798.681 301.955 867.549 302.471C886.884 302.599 906.318 303.451 925.643 302.942C928.789 302.853 928.77 298.208 925.643 298.042C908.484 297.238 891.177 297.767 874.007 297.757C856.838 297.748 839.58 297.757 822.371 297.836C787.947 297.973 753.523 298.339 719.099 298.933C699.734 299.257 680.379 299.806 661.024 300.247C658.985 300.247 658.976 303.441 661.024 303.402V303.451Z" fill="#382C80"/>
<path d="M764.914 277.207C762.738 240.8 760.866 204.383 759.68 167.927C759.386 159.107 758.573 150.042 758.936 141.202C759.063 138.174 760.278 136.714 763.277 136.371C765.237 136.136 767.324 136.165 769.333 136.116C774.175 135.999 779.013 135.982 783.847 136.067C792.687 136.237 801.507 136.747 810.307 137.596C814.717 138.027 819.121 138.543 823.518 139.144C825.358 139.254 827.183 139.543 828.966 140.007C831.906 141.046 831.416 143.819 831.534 146.406C832.514 166.986 833.327 187.645 834.415 208.254C834.572 211.047 838.913 211.076 838.796 208.254C837.992 187.85 836.944 167.447 835.983 147.053C835.826 143.77 836.169 139.732 833.425 137.351C830.681 134.97 826.144 135.097 822.851 134.666C812.836 133.327 802.774 132.448 792.667 132.03C783.171 131.647 773.43 131.314 763.943 132.137C761.101 132.382 758.063 133.029 756.29 135.528C753.82 139.076 754.937 144.613 755.045 148.631C755.62 168.786 756.404 188.938 757.397 209.087C758.514 231.813 759.896 254.52 761.67 277.207C761.836 279.255 765.021 279.294 764.894 277.207H764.914Z" fill="#382C80"/>
<path d="M848.439 162.615C866.785 162.723 885.15 162.557 903.495 162.351L901.369 160.744C904.674 178.255 906.458 196.02 906.7 213.84C906.7 216.613 911.032 216.623 911.022 213.84C910.89 195.634 909.076 177.479 905.602 159.607C905.332 158.66 904.47 158.005 903.486 158C885.13 158.205 866.775 158.45 848.429 158.98C847.412 158.98 846.587 159.804 846.587 160.822C846.587 161.839 847.412 162.664 848.429 162.664L848.439 162.615Z" fill="#382C80"/>
<path d="M709.377 118.692C709.534 112.283 709.602 105.873 709.749 99.4545L707.995 101.209C721.852 99.8465 735.651 98.6705 749.586 98.5823C753.007 98.5823 756.446 98.5823 759.857 98.6607C763.012 98.7293 766.452 98.4941 769.549 99.1311C773.636 99.9641 773.743 103.894 774.449 107.334C775.155 110.773 775.909 114.419 776.683 117.947C777.291 120.681 781.397 119.505 780.868 116.791C780.084 112.871 779.241 108.872 778.408 104.923C777.791 101.983 777.311 98.8567 774.9 96.8085C772.832 95.0445 770 94.7211 767.403 94.5839C763.395 94.3781 759.367 94.3879 755.359 94.3977C739.355 94.309 723.368 95.4359 707.535 97.7689C706.775 97.9789 706.247 98.6668 706.241 99.4545V118.692C706.306 119.507 706.986 120.136 707.804 120.136C708.622 120.136 709.303 119.507 709.367 118.692H709.377Z" fill="#382C80"/>
<path d="M795.372 222.042C790.923 219.779 787.924 216.672 788.071 211.262C788.218 205.853 792.167 202.188 797.234 201.462C809.896 199.581 815.619 213.732 810.758 223.777C809.513 226.345 813.306 228.608 814.619 226.031C818.157 219.102 818.03 210.351 813.277 204.02C809.085 198.564 802.057 196.112 795.382 197.778C789.041 199.316 784.386 204.638 784.523 211.292C784.641 216.878 788.443 224.169 794.686 224.581C795.299 224.572 795.831 224.157 795.99 223.566C796.15 222.974 795.897 222.348 795.372 222.033V222.042Z" fill="#382C80"/>
<path d="M864.452 220.788C862.002 215.633 866.667 208.117 872.655 209.195C877.966 210.175 880.338 217.192 877.614 221.474C876.193 223.699 879.662 225.678 881.112 223.522C885.689 216.77 880.906 206.02 872.537 205.441C864.168 204.863 858.19 214.957 861.934 222.268C862.796 223.954 865.246 222.474 864.452 220.788Z" fill="#382C80"/>
<path d="M864.981 245.788C870.009 246.053 875.105 246.062 880.142 245.955C881.154 245.955 881.975 245.134 881.975 244.122C881.975 243.11 881.154 242.289 880.142 242.289C875.105 242.172 870.009 242.191 864.981 242.456C864.061 242.456 863.315 243.202 863.315 244.122C863.315 245.042 864.061 245.788 864.981 245.788Z" fill="#382C80"/>
<path d="M867.294 259.508C870.46 260.223 874.154 259.841 877.388 259.812C878.28 259.609 878.913 258.816 878.913 257.901C878.913 256.986 878.28 256.193 877.388 255.99C874.154 255.99 870.46 255.578 867.294 256.294C866.582 256.504 866.093 257.158 866.093 257.901C866.093 258.644 866.582 259.298 867.294 259.508Z" fill="#382C80"/>
<path d="M870.499 274.6C872.331 274.708 874.174 274.659 876.006 274.669C876.905 274.669 877.633 273.94 877.633 273.042C877.633 272.143 876.905 271.415 876.006 271.415C874.174 271.415 872.331 271.415 870.499 271.484C869.638 271.484 868.941 272.181 868.941 273.042C868.941 273.902 869.638 274.6 870.499 274.6Z" fill="#382C80"/>
<path d="M786.866 251.237C789.629 250.815 792.393 250.394 795.156 249.943C797.361 249.581 796.43 246.19 794.225 246.572C791.472 247.033 788.728 247.552 785.974 248.032C783.857 248.405 784.778 251.56 786.866 251.237Z" fill="#382C80"/>
<path d="M791.432 263.908L798.292 265.319C800.488 265.77 801.419 262.379 799.272 261.958L792.412 260.596C790.256 260.174 789.325 263.467 791.501 263.908H791.432Z" fill="#382C80"/>
<path d="M717.295 248.258C716.651 255.781 717.107 263.357 718.648 270.749C719.059 272.885 722.215 271.954 721.872 269.867C720.828 262.713 720.369 255.486 720.5 248.258C720.5 246.17 717.56 246.298 717.325 248.258H717.295Z" fill="#382C80"/>
<path d="M692.619 443.983C691.825 433.879 690.747 423.766 690.189 413.652C689.953 409.419 689.963 404.832 692.031 400.971C694.099 397.11 698.323 395.512 700.851 392.151C705.437 386.193 704.604 378.313 704.124 371.297C703.869 367.661 703.085 362.849 704.34 359.341C705.388 356.401 708.652 357.381 711.102 357.567L719.922 358.116L718.177 357.136C721.264 362.869 719.265 369.876 719.412 376.099C719.559 382.635 722.107 386.692 727.713 389.936C735.298 394.327 734.396 405.263 735.112 412.927C735.994 422.355 736.755 431.789 737.395 441.229C737.581 443.885 741.746 443.915 741.57 441.229C740.982 432.429 740.286 423.638 739.483 414.858C738.846 407.919 739.071 399.766 736.268 393.298C735.227 390.785 733.442 388.651 731.153 387.182C728.124 385.222 725.165 384.056 724.077 380.322C722.509 374.874 724.273 368.827 723.901 363.261C723.816 360.698 723.188 358.183 722.058 355.881C720.539 353.039 715.776 353.921 712.993 353.755C710.21 353.588 706.359 352.706 703.664 353.902C700.969 355.097 700.459 358.125 700.155 360.762C699.391 367.19 700.753 373.6 700.635 380.038C700.577 383.223 700.165 386.506 698.43 389.26C696.578 392.2 693.364 393.709 691.071 396.218C686.269 401.471 686.376 409.046 686.935 415.681C687.729 425.157 688.699 434.614 689.63 444.101C689.806 445.963 692.727 446.061 692.57 444.101L692.619 443.983Z" fill="#382C80"/>
<path d="M740.766 374.188C746.127 374.021 748.185 368.778 748.724 364.133C749.165 360.291 748.724 356.352 748.606 352.49L748.107 338.045L745.813 339.79C747.962 340.248 750.173 340.331 752.35 340.035C754.408 339.829 757.475 339.055 759.396 340.084C762.895 342.044 761.092 351.383 761.209 354.784C761.356 358.87 761.974 363.133 764.453 366.544C767.462 370.66 772.616 371.532 776.34 374.746C783.681 381.087 785.219 391.926 785.386 401.079C785.601 412.192 784.67 423.374 789.306 433.791C790.423 436.3 794.098 434.134 792.991 431.635C785.886 415.642 792.991 397.198 785.886 381.038C784.505 377.776 782.489 374.821 779.957 372.345C776.821 369.405 772.675 368.366 769.402 365.72C762.993 360.536 766.041 350.197 765.247 343.131C764.845 339.535 762.865 336.654 759.171 335.958C755.035 335.184 750.909 337.183 746.774 336.369C746.23 336.228 745.651 336.344 745.203 336.684C744.756 337.025 744.49 337.552 744.481 338.114C744.781 345.026 745.082 351.938 745.382 358.851C745.549 362.535 746.049 370.983 740.757 371.444C738.983 371.591 738.924 374.305 740.757 374.256L740.766 374.188Z" fill="#382C80"/>
<path d="M806.309 393.817C812.189 391.073 813.296 385.673 812.973 379.783C812.826 378.455 812.826 377.114 812.973 375.785C813.482 372.845 815.589 373.217 818.157 373.609C822.518 374.266 826.869 375.217 831.191 376.069L829.858 374.325C831.083 385.428 832.367 396.522 833.318 407.645C834.249 418.425 834.082 429.607 835.768 440.308C836.091 442.386 839.139 441.719 839.256 439.828C839.599 434.389 838.972 428.852 838.6 423.413C838.195 417.729 837.737 412.055 837.228 406.39C836.248 395.512 835.052 384.644 833.416 373.845C833.264 373.218 832.777 372.727 832.151 372.571C827.389 371.777 822.655 370.826 817.892 370.052C815.041 369.582 812.012 369.719 810.474 372.512C809.112 374.913 809.494 377.961 809.7 380.587C810.003 385.154 809.347 389.044 804.868 391.367C803.212 392.22 804.662 394.621 806.319 393.846L806.309 393.817Z" fill="#382C80"/>
<path d="M639.072 442.601C639.238 431.165 639.248 419.738 639.287 408.301C639.287 402.804 639.287 397.296 639.287 391.788C639.287 388.153 639.287 383.713 641.541 380.616C644.08 377.098 648.617 379.911 651.537 377.059C654.183 374.462 654.036 369.219 654.477 365.818C655.929 354.676 656.466 343.434 656.085 332.204L653.664 334.057C658.937 335.757 664.588 335.903 669.942 334.478L667.364 332.518C668.609 343.788 669.55 355.176 671.284 366.377C671.99 370.963 674.146 372.531 677.919 374.815C682.301 377.458 684.847 382.32 684.524 387.427C684.397 390.269 688.826 390.269 688.944 387.427C689.147 383.149 687.828 378.937 685.22 375.54C684.019 373.97 682.561 372.615 680.908 371.532C678.762 370.121 676.4 369.572 675.694 366.818C674.332 361.487 674.244 355.548 673.587 350.089C672.872 344.209 672.166 338.329 671.422 332.449C671.408 331.819 671.108 331.229 670.606 330.847C670.104 330.466 669.455 330.334 668.844 330.489C664.203 331.806 659.279 331.741 654.673 330.303C654.098 330.161 653.49 330.286 653.018 330.644C652.546 331.001 652.261 331.554 652.243 332.146C652.538 343.376 651.978 354.614 650.567 365.76C650.273 368.033 650.322 370.905 649.43 373.041C648.362 375.628 645.079 374.58 642.806 375.403C640.233 376.486 638.257 378.631 637.386 381.283C636.053 384.605 635.877 388.231 635.867 391.759C635.867 397.267 635.867 402.771 635.867 408.272C635.867 419.709 635.867 431.135 635.995 442.572C636.059 443.372 636.726 443.988 637.528 443.988C638.33 443.988 638.998 443.372 639.062 442.572L639.072 442.601Z" fill="#382C80"/>
<path d="M866.667 432.929L865.54 422.521C865.246 419.728 863.688 414.309 866.02 412.241C868.353 410.173 873.958 411.378 876.859 411.427L888.119 411.604L886.159 410.144C888.277 416.853 889.779 423.742 890.648 430.724C890.961 432.889 894.568 432.36 894.46 430.204C894.043 422.981 892.553 415.86 890.04 409.075C889.778 408.211 888.983 407.619 888.08 407.615H873.145C869.97 407.615 865.707 407.027 863.257 409.575C861.032 411.908 861.542 415.318 861.914 418.229C862.531 423.129 863.168 428.029 863.796 432.929C864.021 434.722 866.863 434.781 866.667 432.929Z" fill="#382C80"/>
<path d="M567.287 392.102C569.07 386.722 567.796 381.204 566.728 375.814C565.748 370.914 564.474 363.711 568.923 359.978C570.668 358.508 573.686 357.4 575.872 358.557C578.508 359.958 578.527 363.408 578.616 366.005C578.841 372.257 578.792 378.539 579.106 384.791C579.321 389.142 580.84 392.386 585.397 393.386C590.101 394.366 594.423 393.601 598.647 396.6C608.535 403.646 608.319 417.131 608.094 427.96C608.035 430.685 612.259 430.685 612.337 427.96C612.582 418.297 612.68 407.704 607.026 399.383C604.801 395.944 601.68 393.176 598 391.377C594.08 389.544 590.16 390.299 586.093 389.28C582.79 388.447 583.153 385.095 583.055 382.273L582.732 373.511C582.555 368.974 583.222 363.28 581.213 359.056C578.037 352.383 569.139 353.578 565.033 358.645C557.497 367.955 566.65 380.881 564.004 391.191C563.816 392.074 564.349 392.95 565.22 393.19C566.091 393.429 566.997 392.948 567.287 392.092V392.102Z" fill="#382C80"/>
</svg>
