<svg width="1000" height="1000" viewBox="0 0 1000 1000" fill="none" xmlns="http://www.w3.org/2000/svg">
<path d="M450.726 447.08C386.477 523.52 328.598 610.524 314.388 709.328C312.007 725.919 309.223 747.705 317.122 763.159C324.393 777.463 338.033 787.457 353.862 790.08C369.366 792.795 385.222 789.992 400.814 787.777C404.087 787.316 407.468 786.875 410.614 787.777C418.533 789.884 422.374 798.782 424.109 806.779C425.843 814.776 427.049 823.665 433.066 829.182C441.171 836.561 454.91 833.955 462.74 826.242C470.571 818.529 473.795 807.426 475.921 796.666C480.126 775.488 481.311 753.791 480.733 732.211C480.38 719.167 479.204 705.222 472.893 693.54C467.072 682.76 457.713 677.86 447.031 673.068C462.662 645.128 482.517 619.991 499.059 592.424C511.437 571.795 520.56 548.392 534.829 529.106" fill="var(--color-illustration-base, #FFFFFF)"/>
<path d="M448.697 445.12C416.778 482.84 386.653 521.972 362.271 565.072C338.359 607.339 319.837 653.105 311.811 701.165C308.214 722.725 303.598 748.342 315.446 768.167C320.885 777.308 328.899 784.641 338.486 789.247C349.609 794.51 361.957 795.656 374.129 794.951C381.293 794.529 388.417 793.53 395.522 792.51C401.03 791.717 408.262 789.502 413.084 793.285C421.179 799.596 420.444 812.542 423.687 821.342C427.431 831.505 435.947 838.394 447.149 837.434C458.35 836.473 467.199 829.515 472.491 819.901C478.479 809.033 480.449 796.127 482.144 783.994C484.028 770.211 484.965 756.315 484.947 742.403C484.947 718.952 484.104 691.335 462.731 676.743C458.415 673.944 453.86 671.533 449.118 669.54L450.588 675.106C461.653 655.448 474.785 637.092 487.348 618.384C493.581 609.113 499.745 599.764 505.263 590.033C510.515 580.791 515.17 571.226 520.021 561.769C525.451 551.166 531.105 540.66 537.936 530.89C540.601 527.077 534.516 523.775 531.811 527.303C518.826 544.188 510.359 563.818 500.118 582.359C489.338 601.959 476.117 620.119 463.691 638.68C456.625 649.225 449.765 659.916 443.552 671.02C442.572 672.784 442.964 675.675 445.012 676.596C453.96 680.604 463.074 685.171 468.395 693.805C474.598 703.86 476.059 716.159 476.598 727.713C477.197 740.855 476.988 754.022 475.97 767.138C474.99 779.633 473.442 792.373 470.09 804.476C467.356 814.276 462.25 824.88 451.96 828.369C447.746 829.799 442.944 830.182 438.828 828.231C434.281 826.095 431.968 821.469 430.587 816.883C427.784 807.553 427.372 797.557 420.787 789.796C412.457 779.996 399.383 784.141 388.447 785.631C375.883 787.336 362.584 788.571 350.227 785.258C340.628 782.681 332.093 777.131 325.844 769.402C312.007 752.223 315.515 728.389 318.533 708.142C325.344 662.592 341.652 619.021 363.339 578.547C385.448 537.299 412.849 499.167 441.906 462.613C445.512 458.085 449.171 453.597 452.882 449.148C455.224 446.345 451.216 442.288 448.824 445.1L448.697 445.12Z" fill="var(--color-illustration-primary, #382C80)"/>
<path d="M462.76 826.252C470.6 818.588 473.814 807.436 475.941 796.675C480.145 775.497 481.331 753.8 480.753 732.221C480.4 719.177 479.224 705.231 472.913 693.55C467.15 682.917 457.929 677.958 447.384 673.225L440.112 684.338C438.673 685.941 438.607 688.351 439.955 690.032C452.695 714.532 459.487 745.098 448.021 771.764C447.411 773.42 446.475 774.936 445.267 776.223C442.503 778.869 438.142 778.937 434.418 778.045C430.694 777.154 427.157 775.458 423.344 775.105C414.524 774.312 408.958 780.231 405.303 787.287C407.096 787.151 408.899 787.303 410.644 787.738C418.562 789.845 422.404 798.743 424.138 806.74C425.873 814.737 427.078 823.625 433.095 829.133C441.2 836.532 454.92 833.925 462.76 826.252Z" fill="var(--color-illustration-secondary, #7F72FF)"/>
<path d="M465.602 829.065C473.442 821.127 477.097 810.513 479.371 799.821C481.934 787.373 483.572 774.752 484.271 762.062C485.112 749.304 485.135 736.505 484.34 723.744C483.565 712.366 481.605 700.626 475.804 690.62C469.865 680.369 459.869 674.538 449.344 669.805C447.444 668.764 445.062 669.388 443.915 671.226L439.279 678.301C437.937 680.359 436.124 682.476 435.359 684.858C433.801 689.758 438.162 695.216 440.063 699.46C444.471 709.184 447.489 719.48 449.03 730.045C450.575 740.395 450.045 750.949 447.472 761.092C446.414 765.012 444.993 773.048 440.494 774.361C435.82 775.723 430.547 772.401 426.049 771.539C415.063 769.5 406.782 775.998 401.824 785.259C400.461 787.807 402.127 791.325 405.254 791.227C413.407 790.962 417.268 797.107 419.375 804.3C421.629 811.915 422.031 820.107 426.284 827.026C435.104 841.334 454.459 839.443 465.484 828.986C469.208 825.478 463.583 819.872 459.869 823.371C454.969 827.957 447.658 830.75 441.004 828.986C433.585 827.026 430.998 819.676 429.43 812.934C427.862 806.191 426.814 799.057 423.031 792.961C419.013 786.484 412.849 783.005 405.205 783.25L408.625 789.218C410.497 785.709 412.819 782.113 416.465 780.212C421.12 777.762 425.853 779.555 430.518 781.005C434.997 782.407 439.906 783.201 444.365 781.299C449.314 779.192 451.274 774.292 453.029 769.539C460.418 749.685 458.458 727.458 451.755 707.711C449.851 702.12 447.599 696.654 445.012 691.345C444.522 690.365 443.229 688.631 443.131 687.425C443.033 686.22 444.356 684.809 445.091 683.672L450.716 675.087L445.287 676.508C453.45 680.193 461.947 684.348 467.219 691.874C473.315 700.508 475.363 711.563 476.186 721.882C478.04 745.218 476.881 768.696 472.736 791.736C470.718 802.938 468.14 814.923 459.869 823.302C456.4 827.085 462.005 832.7 465.602 829.065Z" fill="var(--color-illustration-secondary, #7F72FF)"/>
<path d="M421.394 710.524C431.596 699.685 440.171 687.356 448.834 675.244C453.675 668.452 458.428 661.582 463.172 654.664C466.68 649.577 471.58 644.06 473.54 638.053C474.608 634.681 470.394 632.947 468.072 634.868C465.749 636.788 464.152 639.474 462.476 641.924C460.447 644.864 458.477 647.862 456.468 650.832C451.895 657.613 447.283 664.375 442.631 671.118C434.301 683.24 426.02 695.51 417.151 707.211C415.259 709.691 419.336 712.738 421.433 710.524H421.394Z" fill="var(--color-illustration-primary, #382C80)"/>
<path d="M546.775 533.085C532.497 552.361 523.383 575.774 510.996 596.403C502.842 609.985 493.846 623.029 484.947 636.132C478.626 645.452 467.386 658.437 466.817 670.069C466.602 674.342 467.376 679.173 464.593 682.427C460.908 686.729 454.018 685.073 448.736 683.074L416.837 670.971C400.795 664.885 384.556 658.691 370.552 648.764C358.89 640.493 338.78 622.088 344.709 606.457C351.873 587.563 363.986 568.767 374.433 551.499C396.786 514.582 422.982 480.126 450.726 447.119" fill="var(--color-illustration-base, #FFFFFF)"/>
<path d="M544.296 531.634C534.124 545.354 526.382 560.319 518.512 575.401C510.252 590.937 501.11 605.988 491.131 620.481C486.417 627.459 481.684 634.426 476.745 641.247C472.276 647.421 467.836 653.723 465.073 660.847C463.915 663.793 463.221 666.901 463.015 670.059C462.819 673.117 463.936 678.497 460.986 680.535C458.605 682.162 454.851 681.016 452.362 680.241C448.148 678.948 444.071 677.164 439.946 675.596C410.673 664.463 377.226 655.202 356.156 630.448C352.294 625.91 348.404 620.256 347.708 614.17C347.472 611.51 347.91 608.834 348.982 606.389C350.746 601.812 352.843 597.343 355.048 592.953C362.957 577.194 372.482 562.181 381.802 547.226C403.225 512.867 428.45 481.566 453.234 449.618C455.949 446.119 451.363 441.131 448.217 444.6C422.943 472.423 400.354 503.185 380.068 534.76C369.905 550.607 359.821 566.748 350.971 583.368C348.757 587.533 346.65 591.757 344.719 596.108C343.063 599.803 341.054 603.694 340.182 607.672C338.761 614.15 340.574 620.628 343.67 626.292C350.256 638.405 361.908 648.107 373.423 655.359C388.819 665.051 406.243 671.039 423.168 677.458C432.145 680.859 441.122 684.838 450.314 687.64C456.978 689.669 465.22 689.708 468.934 682.74C470.757 679.32 470.531 675.302 470.58 671.559C470.682 667.888 471.571 664.282 473.187 660.984C476.529 653.772 481.507 647.421 486.094 640.983C498.373 623.725 510.349 605.869 520.296 587.161C529.665 569.521 537.495 550.744 549.255 534.515C551.43 531.517 546.472 528.704 544.296 531.575V531.634Z" fill="var(--color-illustration-primary, #382C80)"/>
<path d="M402.745 789.766C404.46 784.68 407.488 781.436 412.76 779.898C418.729 778.163 425.275 778.653 431.38 778.594C436.721 778.594 442.827 779.476 447.129 775.654C451.147 772.097 453.617 766.648 454.802 761.513C455.851 756.995 448.922 755.064 447.844 759.553C447.203 762.441 446.034 765.185 444.395 767.648C442.356 770.656 440.749 771.215 437.221 771.264C431.028 771.362 424.756 771.146 418.601 771.666C409.546 772.42 395.826 777.467 396.551 788.894C396.592 790.441 397.75 791.731 399.284 791.938C400.818 792.145 402.275 791.208 402.725 789.727L402.745 789.766Z" fill="var(--color-illustration-primary, #382C80)"/>
<path d="M417.415 803.31C419.63 801.014 422.812 799.92 425.971 800.37C427.931 800.586 428.342 797.352 426.431 796.96C422.212 796.072 417.847 797.579 415.073 800.88C413.721 802.487 415.916 804.8 417.415 803.232V803.31Z" fill="var(--color-illustration-primary, #382C80)"/>
<path d="M419.13 812.796C421.33 811.524 423.843 810.895 426.382 810.983C428.842 811.081 428.852 807.191 426.382 807.152C423.179 807.046 420.027 807.978 417.396 809.807C415.632 811.111 417.131 813.874 419.13 812.747V812.796Z" fill="var(--color-illustration-primary, #382C80)"/>
<path d="M422.227 821.322C424.617 819.502 427.461 818.373 430.449 818.059C432.351 817.765 431.861 814.737 430.008 814.756C426.242 814.915 422.658 816.425 419.914 819.01C418.327 820.421 420.63 822.645 422.227 821.322Z" fill="var(--color-illustration-primary, #382C80)"/>
<path d="M399.178 803.036C395.944 804.437 392.171 807.181 393.876 811.248C395.689 815.55 401.49 813.473 404.597 812.071L402.088 808.828C398.786 812.169 397.845 816.756 398.697 821.274C398.982 822.793 400.765 823.145 401.941 822.597C405.844 820.878 409.166 818.066 411.506 814.502C412.78 812.463 409.713 809.974 408.105 811.875C405.849 814.757 402.981 817.1 399.707 818.735L402.96 820.058C402.274 816.677 403.372 813.982 405.332 811.238C406.635 809.455 404.185 807.534 402.51 808.416C401.941 808.72 396.63 811.356 397.218 808.004C397.414 806.897 399.824 806.044 400.716 805.584C402.519 804.751 400.951 802.183 399.178 802.948V803.036Z" fill="var(--color-illustration-primary, #382C80)"/>
<path d="M591.777 678.419C584.202 682.388 575.842 684.632 567.493 686.504C560.633 688.033 553.704 689.346 546.726 688.934C539.749 688.523 532.663 686.239 527.616 681.408C522.354 676.351 519.776 668.962 519.365 661.671C518.953 654.379 520.58 647.127 522.54 640.14C528.126 620.481 538.22 600.636 556.144 590.826C572.383 581.938 593.492 583.163 608.937 593.365C619.433 600.293 627.439 611.357 629.399 623.745C631.359 636.132 626.763 649.744 616.806 657.437" fill="var(--color-illustration-primary, #382C80)"/>
<path d="M590.258 675.812C580.625 680.3 569.678 682.672 559.182 684.201C550.088 685.573 539.367 685.504 531.909 679.301C524.451 673.097 522.952 662.886 524.069 653.821C525.166 644.54 528.244 635.044 531.909 626.449C538.553 610.769 549.764 595.834 566.728 590.738C583.692 585.642 603.116 590.65 615.199 603.694C628.527 618.09 630.242 641.581 613.984 654.556C609.868 657.849 615.689 663.601 619.766 660.348C636.23 647.206 637.641 622.814 626.685 605.781C615.307 588.073 593.933 578.733 573.177 581.36C551.94 584.025 536.26 598.608 526.813 617.09C521.942 626.61 518.388 636.748 516.248 647.225C514.053 658.211 514.141 670.53 520.796 680.085C528.136 690.639 541.189 694.089 553.488 692.884C567.042 691.561 581.379 687.66 593.306 681.026C596.755 679.066 593.727 674.166 590.258 675.812Z" fill="var(--color-illustration-primary, #382C80)"/>
<path d="M547.932 427.98C596.872 484.855 636.141 549.381 664.17 618.982C687.954 677.782 700.479 739.62 715.639 801.027C716.835 805.868 718.158 810.954 721.637 814.531C725.968 818.98 732.593 820.078 738.748 820.95L764.982 824.635C773.802 825.879 781.152 826.026 788.581 831.495C795.744 836.748 801.595 845.381 794.392 853.182C788.159 859.934 779.741 866.167 772.91 872.527C755.907 888.384 738.199 903.956 717.521 914.883C701.645 923.272 672.441 933.268 657.104 919.381C653.929 916.51 651.577 912.884 649.264 909.268C625.371 871.41 611.23 831.71 596.53 789.708C584.515 755.251 575.754 722.107 557.82 690.12C527.597 636.132 509.251 580.252 498.697 519.394" fill="var(--color-illustration-base, #FFFFFF)"/>
<path d="M545.707 430.204C593.059 485.609 631.278 548.206 658.927 615.64C673.813 651.9 684.583 689.63 694.05 727.634C698.803 746.705 703.262 765.854 707.848 784.945C709.906 793.559 711.229 803.065 714.924 811.16C718.315 818.598 725.057 822.302 732.828 823.831C742.256 825.693 751.948 826.644 761.464 827.986C769.304 829.094 777.879 829.27 784.778 833.553C788.099 835.483 790.848 838.259 792.746 841.599C794.882 845.803 793.167 848.939 790.119 852.045C783.612 858.68 776.115 864.256 769.314 870.567C745.941 892.216 719.461 915.843 686.994 921.527C680.32 922.684 673.088 922.88 666.639 920.547C658.976 917.754 654.879 910.747 650.861 904.181C641.174 888.233 632.639 871.612 625.322 854.446C610.622 820.352 599.421 784.866 587.534 749.714C581.546 732.074 575.029 714.434 566.65 697.774C558.271 681.114 549.01 664.993 541.376 647.911C526.676 614.934 515.788 580.291 508.056 545.07C506.096 536.191 504.328 527.273 502.754 518.316C501.833 513.112 493.934 515.376 494.835 520.502C501.235 557.742 510.829 594.482 524.676 629.703C531.515 647.131 539.315 664.167 548.04 680.732C552.548 689.287 557.428 697.627 561.622 706.349C565.817 715.071 569.462 723.881 572.834 732.868C579.576 750.831 585.211 769.128 591.454 787.307C597.696 805.486 604.096 823.449 611.171 841.207C618.038 858.79 625.961 875.941 634.897 892.568C639.454 900.898 644.119 909.483 649.832 917.068C654.165 923.094 660.514 927.367 667.727 929.113C681.78 932.445 697.009 928.211 709.975 922.772C725.753 916.157 739.894 906.181 753.095 895.332C760.455 889.295 767.52 882.896 774.488 876.408C781.456 869.921 789.051 864.246 795.686 857.475C801.752 851.281 803.604 843.5 798.488 835.993C793.661 829.215 786.462 824.5 778.32 822.783C769.412 820.764 760.043 820.117 751.007 818.863C746.607 818.245 742.187 817.677 737.807 817.001C733.72 816.373 729.173 815.658 725.763 813.081C722.519 810.689 721.137 806.848 720.088 803.114C718.667 798.047 717.531 792.893 716.296 787.777C713.924 777.977 711.602 768.255 709.259 758.485C699.92 719.52 690.316 680.565 677.008 642.717C652.165 572.157 614.68 505.635 568.032 447.198C562.23 439.926 556.272 432.778 550.156 425.755C547.491 422.688 543.091 427.147 545.707 430.204Z" fill="var(--color-illustration-primary, #382C80)"/>
<path d="M484.065 506.752C485.731 522.687 484.065 539.161 488.965 554.439C493.61 569.139 497.785 584.104 503.665 598.186C509.604 612.475 513.867 626.92 512.75 642.57C511.858 655.085 510.202 665.287 517.856 676.155C520.56 679.997 524.382 683.25 528.949 684.328C523.01 682.927 527.607 662.249 528.616 659.034C531.615 649.46 537.348 640.924 543.424 633.055C547.344 628.027 551.372 623.098 556.36 619.178C561.691 615.003 567.904 612.102 574.186 609.554C598.196 599.803 624.47 594.707 650.205 597.794C671.539 600.342 653.35 576.028 647.196 569.952C630.085 553.047 621.598 530.752 608.79 510.349C590.655 481.406 570.343 453.887 548.03 428.029" fill="var(--color-illustration-base, #FFFFFF)"/>
<path d="M480.919 506.752C482.144 519.953 481.331 533.291 483.526 546.403C484.643 553.136 486.956 559.594 488.936 566.101C490.915 572.608 492.856 578.841 494.973 585.172C499.226 597.657 505.018 609.593 507.664 622.578C509.007 629.152 509.465 635.876 509.026 642.57C508.653 648.039 507.967 653.517 508.281 659.015C508.957 671.049 515.415 684.495 527.881 687.944C532.546 689.218 534.457 682.162 529.841 680.722C530.37 680.888 530.37 681.349 530.164 680.839C529.944 680.235 529.796 679.607 529.723 678.968C529.514 676.769 529.55 674.553 529.831 672.362C530.19 668.641 530.845 664.954 531.791 661.337C533.369 655.261 536.485 649.577 539.886 644.374C543.79 638.247 548.256 632.495 553.224 627.194C563.475 616.414 578.41 611.387 592.336 607.29C607.345 602.743 622.98 600.6 638.66 600.94C646.216 601.165 661.994 605.693 664.072 594.403C665.444 587.014 659.632 578.998 655.438 573.471C653.003 570.397 650.409 567.453 647.666 564.651C642.8 559.337 638.452 553.572 634.681 547.432C627.077 535.319 620.961 522.354 613.523 510.192C595.053 480.113 574.071 451.65 550.803 425.108C547.314 421.11 541.591 426.931 545.002 430.92C565.9 455.381 585.095 481.249 602.449 508.34C610.172 520.404 616.61 533.163 623.843 545.511C627.51 551.851 631.613 557.929 636.122 563.7C639.385 567.836 643.188 571.422 646.618 575.391C649.079 578.244 651.27 581.318 653.164 584.574C654.069 586.06 654.836 587.624 655.457 589.249C655.701 589.908 655.901 590.582 656.055 591.267C656.094 591.744 656.16 592.219 656.251 592.688C656.173 593.384 656.055 593.404 656.045 593.414C656.036 593.423 655.742 593.6 655.693 593.61C653.461 594.012 651.178 594.031 648.94 593.668C641.101 592.845 633.204 592.718 625.342 593.286C609.809 594.475 594.515 597.812 579.899 603.204C572.912 605.742 565.836 608.515 559.457 612.367C553.315 616.231 547.89 621.132 543.424 626.851C534.898 637.347 526.617 648.97 523.824 662.445C522.452 669.109 518.64 685.102 527.871 687.925L529.831 680.702C519.267 677.841 515.474 665.277 515.533 655.565C515.533 649.979 516.366 644.442 516.513 638.905C516.58 632.98 516.002 627.065 514.788 621.265C512.27 608.868 506.791 597.539 502.587 585.691C498.432 574.019 494.296 562.024 491.229 550.019C487.623 535.917 488.72 521.158 487.201 506.791C486.78 502.822 480.537 502.734 480.91 506.791L480.919 506.752Z" fill="var(--color-illustration-primary, #382C80)"/>
<path d="M485.859 312.389C459.399 293.769 427.647 284.606 397.149 273.786C379.934 267.678 362.947 260.971 346.189 253.667C337.8 250.012 329.421 246.18 321.856 241.015C315.172 236.449 309.223 230.892 303.294 225.335C287.007 210.126 270.66 194.847 256.254 177.786C249.394 169.671 240.976 160.469 236.468 150.767C231.568 140.213 236.066 128.59 227.981 119.182C222.845 113.395 215.442 110.132 207.705 110.244C206.131 110.416 204.539 110.255 203.031 109.774C199.571 108.274 197.533 102.296 195.945 98.9937C193.681 94.2897 190.761 90.3697 185.734 88.3607C183.806 87.4551 181.614 87.2843 179.569 87.8805C176.629 88.9389 175.042 92.1141 172.239 93.3881C169.613 94.5837 166.555 93.8683 163.713 93.3293C160.871 92.7903 157.608 92.5355 155.393 94.4073C153.962 95.6225 153.266 97.5139 151.933 98.8467C147.896 102.904 141.986 100.66 137.086 101.865C134.893 102.316 132.962 103.607 131.706 105.462C130.677 107.167 130.491 109.284 129.491 111.018C128.364 112.978 126.316 114.223 124.807 115.918C122.298 118.721 121.377 122.671 121.524 126.434C121.749 132.078 123.984 137.557 125.562 142.908C127.414 148.719 129.708 154.38 132.422 159.842C140.613 177.163 150.248 193.764 161.224 209.469C171.543 224.346 182.882 241.045 195.22 254.02C228.726 289.202 269.867 317.396 315.505 334.057C329.821 339.269 344.537 343.311 359.507 346.14C367.347 347.62 375.569 349.364 383.537 349.462C390.397 349.55 395.904 350.628 401.716 354.94C408.017 359.625 412.388 366.534 415.25 373.845C418.111 381.155 419.601 388.917 421.061 396.629" fill="var(--color-illustration-base, #FFFFFF)"/>
<path d="M487.407 309.743C462.613 291.417 432.429 281.979 403.617 272.042C388.133 266.711 372.832 260.887 357.714 254.569C342.534 248.199 327.52 241.75 314.956 230.863C302.716 220.259 290.986 208.862 279.549 197.396C268.308 186.306 257.79 174.505 248.062 162.067C243.661 156.343 239.183 150.307 237.791 143.035C236.547 136.567 237.086 129.834 234.567 123.631C231.88 117.313 226.896 112.249 220.622 109.46C217.829 108.167 214.854 107.307 211.802 106.912C208.862 106.53 205 107.569 203.04 105.031C201.414 102.924 200.541 100.199 199.444 97.7983C198.211 94.9819 196.559 92.3684 194.544 90.0465C190.398 85.4209 182.784 81.6479 176.776 84.9701C174.101 86.4499 172.288 89.8701 169.123 90.1837C165.732 90.5659 162.263 88.8705 158.823 89.2037C155.738 89.4276 152.914 91.0157 151.12 93.5353C150.297 94.6329 149.67 96.0147 148.494 96.7889C147.024 97.7689 145.103 97.6905 143.427 97.7689C137.047 97.8571 130.324 98.7489 127.639 105.462C127.081 106.863 126.875 108.402 126.032 109.686C125.093 110.81 124.056 111.849 122.935 112.792C120.5 115.323 118.914 118.55 118.398 122.024C117.212 129.56 120.26 136.822 122.524 143.848C125.121 151.407 128.222 158.783 131.804 165.928C145.658 194.557 162.831 221.456 182.97 246.072C201.472 268.857 225.169 288.085 249.522 304.304C274.345 320.846 301.462 334.449 330.107 343.082C345.787 347.806 362.369 351.902 378.715 353.274C385.938 353.872 392.553 353.441 398.786 357.792C404.548 361.8 408.586 368.043 411.202 374.452C414.27 381.881 415.73 389.897 417.229 397.757C418.209 402.764 425.824 400.648 424.873 395.65C422.119 381.155 418.787 365.632 407.762 354.97C403.012 350.219 396.877 347.096 390.24 346.052C386.81 345.552 383.38 345.611 379.93 345.376C375.825 345.049 371.741 344.486 367.7 343.69C337.212 338.104 307.802 328.804 280.255 314.486C254.657 301.187 231.333 283.822 210.557 263.849C199.761 253.58 189.832 242.435 180.873 230.529C171.769 218.289 162.723 205.843 154.462 193.015C145.975 179.844 137.802 165.898 131.824 151.365C130.364 147.788 129.197 144.152 128.08 140.458C126.826 136.322 125.277 132.098 124.974 127.718C124.738 124.503 125.15 121.034 127.326 118.496C129.501 115.958 132.128 114.429 133.47 111.165C134.813 107.902 135.371 105.795 139.35 105.374C142.437 105.04 145.505 105.501 148.582 104.864C151.499 104.237 154.086 102.564 155.853 100.16C156.667 99.0723 157.225 97.7003 158.509 97.1319C160.038 96.4557 162.194 97.1319 163.742 97.3769C166.947 97.9551 170.142 98.4451 173.278 97.2495C176.414 96.0539 177.874 92.8297 180.687 91.6929C183.499 90.5561 187.047 93.2217 188.86 95.1033C190.902 97.4578 192.523 100.146 193.652 103.051C195.935 108.078 198.699 113.429 204.834 113.949C207.94 114.203 210.871 113.9 213.938 114.684C217.581 115.56 220.948 117.328 223.738 119.829C229.05 124.729 229.775 131.265 230.294 138.057C230.814 144.848 232.039 150.61 235.302 156.539C238.84 162.968 243.505 168.682 248.228 174.258C253.197 180.138 258.195 186.018 263.428 191.672C274.384 203.491 286.115 214.555 297.895 225.551C303.53 230.814 309.135 236.145 315.25 240.868C321.398 245.535 328.032 249.524 335.037 252.766C349.492 259.626 364.437 265.555 379.431 271.258C408.027 282.166 438.093 290.133 465.435 304.098C471.92 307.409 478.224 311.063 484.32 315.045C487.691 317.24 490.523 312.036 487.417 309.743H487.407Z" fill="var(--color-illustration-primary, #382C80)"/>
<path d="M211.88 108.666C207.421 108.467 202.954 108.796 198.572 109.646C195.024 110.372 191.035 111.371 188.948 114.625C184.43 121.632 190.83 128.286 196.171 132.177L197.062 125.317C189.399 126.934 182.304 130.001 178.207 137.077C174.356 143.711 171.484 154.442 175.689 161.479C177.315 164.213 182.549 163.311 182.157 159.724C181.765 156.324 181.108 153.168 181.716 149.728C182.224 146.628 183.276 143.643 184.822 140.908C187.821 135.763 193.642 133.97 199.062 132.559C202.345 131.706 202.57 127.414 199.963 125.699C197.356 123.984 190.986 119.192 196.406 116.879C201.022 114.919 206.911 114.243 211.88 114.145C215.359 114.076 215.349 108.853 211.88 108.755V108.666Z" fill="var(--color-illustration-primary, #382C80)"/>
<path d="M121.553 135.871C123.415 140.173 127.022 146.21 132 147.298C137.165 148.415 139.193 143.78 142.133 140.703L135.636 138.008C136.087 143.161 140.513 147.046 145.681 146.828C151.13 146.592 155.099 141.81 156.285 136.822L149.758 138.547C158.205 145.818 170.622 140.663 171.239 129.462L163.899 131.422C166.996 138.027 176.032 135.597 180.148 131.422C186.282 125.248 181.128 116.644 181.431 109.401C181.657 104.384 174.15 104.501 173.709 109.401C173.268 114.301 175.973 118.986 175.395 123.758C175.366 125.227 174.446 126.531 173.072 127.051C172.459 127.373 171.796 127.591 171.112 127.698C170.21 127.816 171.112 128.266 170.671 127.414C168.887 123.641 163.527 125.816 163.341 129.374C163.278 131.256 162.141 132.936 160.417 133.695C158.693 134.454 156.686 134.157 155.256 132.931C153.139 131.118 149.444 131.598 148.729 134.656C148.356 136.224 147.749 138.145 146.191 138.919C145.211 139.389 143.358 139.311 143.251 137.939C142.957 134.862 139.193 132.647 136.753 135.244C135.918 136.177 135.14 137.159 134.421 138.184C134.166 138.537 133.029 139.948 133.255 139.928C132.275 139.987 130.442 138.057 129.805 137.469C128.455 136.155 127.364 134.599 126.591 132.882C124.905 129.462 120.103 132.461 121.553 135.822V135.871Z" fill="var(--color-illustration-primary, #382C80)"/>
<path d="M458.654 222.748C456.547 218.407 455.283 214.173 452.029 210.616C448.775 207.058 443.65 202.776 443.327 197.523C443.169 195.949 443.727 194.388 444.846 193.27C446.03 192.168 447.834 192.073 449.128 193.044C447.482 191.712 448.148 188.977 449.501 187.38C454.832 181.275 461.378 184.136 465.857 189.134C466.827 185.455 469.738 182.606 473.436 181.713C477.135 180.821 481.024 182.03 483.565 184.861C484.986 182.613 486.879 180.7 489.112 179.256C491.395 177.818 494.234 177.577 496.727 178.609C499.735 180.059 501.117 183.509 502.225 186.665C504.143 185.1 506.769 184.726 509.047 185.691C511.326 186.657 512.883 188.805 513.093 191.271C518.649 190.114 518.081 196.474 521.501 198.131C522.383 198.572 523.402 198.719 524.265 199.209C526.097 200.257 526.803 202.639 526.489 204.726C526.045 206.79 525.189 208.744 523.971 210.469L517.111 221.709" fill="var(--color-illustration-primary, #382C80)"/>
<path d="M460.996 221.386C458.83 216.486 457.341 211.792 453.734 207.666C452.274 205.99 450.657 204.412 449.305 202.639C448.466 201.626 447.779 200.497 447.266 199.287C447.207 199.13 446.531 195.632 447.335 196.122C450.882 198.278 454.293 193.456 451.637 190.536C451.451 190.32 453.47 188.576 453.695 188.458C454.658 187.809 455.843 187.58 456.978 187.821C459.379 188.282 461.378 190.3 462.966 192.025C465.141 194.387 468.895 193.005 469.826 190.222C471.472 185.106 476.999 184.401 480.478 187.988C482.615 190.183 485.79 189.33 487.407 187.096C488.799 185.136 491.16 182.196 493.904 182.431C496.364 182.686 497.246 185.9 497.952 187.85C498.844 190.33 501.97 192.3 504.508 190.516C506.723 188.958 508.428 189.879 508.791 192.476C509.323 194.427 511.1 195.778 513.122 195.769C513.328 195.769 514.298 195.769 513.896 195.475C514.455 195.896 514.876 197.18 515.18 197.758C516.286 199.906 518.1 201.606 520.315 202.57C521.609 203.099 521.952 202.874 521.981 204.226C522.011 205.579 520.747 207.107 520.07 208.225C517.816 211.988 515.513 215.722 513.21 219.465C510.163 224.473 518.012 229.04 521.05 224.052C524.088 219.063 527.636 214.33 529.87 209.087C531.742 204.716 531.566 199.493 527.744 196.21C526.411 195.073 524.079 194.622 523.412 193.917C522.746 193.211 522.305 191.751 521.727 190.869C519.375 187.302 516.003 186.253 511.927 186.949L517.464 190.095C516.786 186.331 514.244 183.169 510.715 181.697C507.186 180.226 503.151 180.646 500 182.813L506.556 185.479C504.547 179.863 501.49 174.199 494.884 173.572C488.279 172.945 483.34 177.58 479.763 182.637L486.692 181.745C482.974 178.058 477.595 176.592 472.521 177.882C467.446 179.173 463.421 183.031 461.917 188.046L468.777 186.253C464.514 181.735 458.252 178.501 452.068 181.069C446.6 183.342 441.886 190.369 446.639 195.563L450.951 189.977C449.297 188.948 447.292 188.644 445.407 189.137C443.522 189.63 441.923 190.876 440.984 192.584C439.024 196.043 439.877 200.336 441.719 203.658C443.562 206.98 446.482 209.538 449.148 212.282C452.441 215.624 454.254 219.985 456.341 224.12C457.948 227.286 462.397 224.512 461.025 221.386H460.996Z" fill="var(--color-illustration-primary, #382C80)"/>
<path d="M485.153 312.389C511.613 293.769 543.365 284.606 573.863 273.786C591.085 267.678 608.071 260.971 624.823 253.667C633.221 250.012 641.59 246.18 649.156 241.015C655.84 236.449 661.798 230.892 667.717 225.335C684.005 210.126 700.351 194.847 714.757 177.786C721.617 169.671 730.045 160.469 734.543 150.767C739.443 140.213 734.945 128.59 743.04 119.182C748.172 113.393 755.572 110.13 763.306 110.244C764.88 110.416 766.473 110.255 767.981 109.774C771.45 108.274 773.479 102.296 775.066 98.9937C777.33 94.2897 780.26 90.3697 785.278 88.3607C787.206 87.4551 789.398 87.2843 791.442 87.8805C794.382 88.9389 795.97 92.1141 798.773 93.3881C801.409 94.5837 804.457 93.8683 807.299 93.3293C810.141 92.7903 813.414 92.5355 815.619 94.4073C817.059 95.6225 817.755 97.5139 819.078 98.8467C823.126 102.904 829.025 100.66 833.925 101.865C836.12 102.314 838.051 103.605 839.305 105.462C840.285 107.167 840.521 109.284 841.52 111.018C842.657 112.978 844.695 114.223 846.205 115.918C848.713 118.721 849.635 122.671 849.488 126.434C849.262 132.078 847.028 137.557 845.45 142.908C843.602 148.72 841.308 154.382 838.59 159.842C830.398 177.163 820.764 193.764 809.788 209.469C799.478 224.346 788.12 241.045 775.792 254.02C742.285 289.202 701.145 317.396 655.506 334.057C641.194 339.269 626.481 343.31 611.514 346.14C603.903 347.584 596.239 348.701 588.523 349.492C583.104 350.05 574.47 349.639 570.364 353.921C568.169 356.214 567.336 359.448 566.728 362.565C565.312 369.853 564.656 377.269 564.768 384.693" fill="var(--color-illustration-base, #FFFFFF)"/>
<path d="M486.701 315.045C511.858 298.62 540.209 289.623 568.326 279.765C583.352 274.492 598.222 268.831 612.935 262.781C627.008 256.96 641.737 251.354 654.095 242.201C666.453 233.048 677.38 221.68 688.454 211.047C699.763 200.13 710.435 188.742 720.637 176.747C729.673 166.153 738.826 155.256 740.453 140.957C741.158 134.754 740.855 127.963 744.716 122.661C748.577 117.359 755.633 114.086 762.277 113.929C765.119 113.86 767.942 114.164 770.509 112.645C773.077 111.126 774.625 108.617 775.899 106.158C778.467 101.258 780.162 95.3776 785.454 92.5552C788.826 90.7814 790.443 91.5752 793.059 93.986C795.676 96.3968 798.332 97.8472 801.879 97.906C805.005 97.9746 808.112 96.4752 811.209 96.7692C814.306 97.0632 815.442 101.022 817.892 102.757C820.359 104.359 823.242 105.2 826.183 105.178C828.908 105.276 832.24 104.648 834.729 106.069C837.424 107.598 837.453 111.567 839.296 113.909C841.442 116.673 844.48 118.133 845.617 121.671C847.9 128.737 844.078 137.106 841.981 143.809C839.639 151.277 835.915 158.362 832.338 165.31C825.142 179.272 816.954 192.7 807.838 205.49C799.165 217.691 790.825 230.147 781.289 241.701C763.169 263.653 741.168 282.783 717.501 298.541C693.22 314.638 666.692 327.055 638.778 335.389C623.195 340.065 607.226 343.345 591.062 345.189C585.28 345.846 579.027 345.493 573.49 347.463C567.022 349.776 564.18 354.989 562.867 361.448C561.362 369.112 560.656 376.912 560.76 384.723C560.76 389.828 568.737 389.838 568.698 384.723C568.629 376.775 568.953 368.19 571.275 360.536C573.235 354.078 579.537 354.107 585.289 353.735C601.126 352.706 617.051 349.57 632.329 345.483C661.347 337.722 688.611 325.07 713.993 309.106C738.267 293.837 761.337 275.374 780.839 254.294C791.168 243.132 799.919 230.559 808.602 218.103C817.637 205.233 825.862 191.814 833.229 177.923C840.53 164.027 847.165 149.66 851.31 134.47C853.094 127.943 853.731 120.436 849.507 114.674C847.547 111.989 844.94 110.548 843.853 107.314C842.765 104.08 841.403 101.512 838.423 99.7582C835.789 98.361 832.84 97.6625 829.858 97.7296C827.006 97.6708 823.527 98.2392 821.46 95.8382C819.392 93.4372 818.245 90.9382 815.001 89.7916C811.758 88.645 808.465 89.282 805.201 89.7916C803.437 90.0954 801.575 90.4874 799.929 89.5662C798.942 88.8526 798.038 88.0308 797.234 87.1162C794.51 84.676 791.57 83.2746 787.836 83.7156C781.436 84.4702 776.262 89.1154 773.136 94.4956C771.823 96.7496 770.911 99.18 769.794 101.522C768.304 104.629 767.422 106.51 763.787 106.501C757.026 106.422 750.426 108.563 745 112.596C739.714 116.532 736.114 122.323 734.926 128.805C733.72 135.126 734.328 141.869 731.986 147.935C729.32 154.736 724.234 160.675 719.638 166.222C714.796 172.102 709.838 177.884 704.751 183.509C693.971 195.445 682.211 206.578 670.5 217.593C664.856 222.885 659.289 228.305 653.301 233.215C646.992 238.267 640.099 242.544 632.77 245.955C617.992 253.089 602.616 259.145 587.269 264.918C558.8 275.639 529.067 283.694 502.117 298.12C495.669 301.538 489.481 305.426 483.605 309.753C480.508 312.046 483.33 317.25 486.701 315.054V315.045Z" fill="var(--color-illustration-primary, #382C80)"/>
<path d="M477.509 295.719C468.985 295.333 460.558 293.742 452.48 290.995C447.021 289.143 441.543 286.723 435.771 286.919C420.091 287.448 419.111 316.789 417.455 327.667C415.731 339.126 415.101 350.722 415.573 362.3C416.612 387.839 426.921 413.329 424.119 438.995C423.472 444.944 421.884 450.902 422.668 456.841C424.883 473.628 442.758 480.988 456.968 484.996C492.983 495.149 538.7 494.571 565.425 464.475C568.399 461.335 570.73 457.643 572.285 453.607C573.98 448.707 573.863 443.415 573.598 438.26C572.54 417.347 565.758 397.972 565.572 376.961C565.356 352.52 564.014 328.755 556.252 305.264C554.459 299.855 552.391 294.298 549.157 289.584C545.237 283.861 543.571 284.204 537.397 285.988C524.196 289.819 510.368 292.573 496.58 292.201" fill="var(--color-illustration-base, #FFFFFF)"/>
<path d="M477.509 292.632C471.096 292.304 464.738 291.282 458.546 289.584C452.891 288.026 447.501 285.429 441.739 284.312C434.046 282.822 427.549 284.772 423.07 291.348C419.091 297.169 417.484 304.559 416.347 311.409C415.161 318.475 414.387 325.648 413.466 332.763C411.801 345.382 411.593 358.15 412.849 370.816C414.201 383.4 417.053 395.748 419.052 408.233C421.132 420.616 421.294 433.246 419.532 445.679C418.072 455.949 419.464 465.396 426.706 473.197C432.635 479.587 440.847 483.487 448.942 486.349C457.508 489.304 466.33 491.46 475.294 492.787C494.071 495.727 513.72 495.61 531.987 489.916C540.976 487.196 549.434 482.96 556.997 477.391C564.758 471.57 572.834 464.014 576.097 454.636C578.106 448.844 577.851 442.445 577.459 436.418C577.021 430.406 576.281 424.421 575.244 418.484C573.226 406.312 570.442 394.229 569.756 381.881C569.061 369.376 569.335 356.891 568.13 344.396C567.059 332.001 564.761 319.743 561.27 307.802C559.695 302.192 557.595 296.742 554.998 291.525C553.038 287.81 550.372 283.097 546.178 281.499C542.365 280.039 538.338 281.646 534.594 282.695C528.348 284.475 522.007 285.905 515.602 286.977C509.336 287.986 502.993 288.436 496.648 288.32C491.748 288.242 491.748 295.817 496.648 295.944C508.323 296.088 519.963 294.651 531.252 291.672C533.986 290.995 536.681 290.211 539.396 289.457C540.435 289.163 542.052 288.418 543.14 288.692C544.227 288.967 545.207 290.603 545.825 291.505C547.327 293.738 548.617 296.107 549.676 298.581C558.869 319.621 560.887 343.719 561.495 366.397C561.799 377.853 562.142 389.005 564.033 400.344C565.905 411.526 568.463 422.619 569.453 433.938C569.933 439.446 570.521 445.414 569.11 450.824C567.777 455.929 564.347 460.085 560.76 463.818C554.726 470.044 547.601 475.109 539.739 478.763C524.059 486.162 506.066 487.936 488.897 486.799C480.241 486.196 471.653 484.845 463.23 482.762C455.528 480.88 447.766 478.597 440.808 474.726C433.85 470.855 427.843 465.239 426.402 457.154C425.363 451.343 426.98 445.394 427.666 439.593C428.293 433.91 428.382 428.181 427.931 422.482C426.265 399.354 418.709 377.235 418.768 353.882C418.768 343.69 420.071 333.714 421.247 323.61C421.822 317.314 422.837 311.066 424.285 304.911C425.598 299.904 427.696 292.965 432.909 290.682C436.682 289.026 441.376 290.505 445.061 291.662C450.383 293.367 455.547 295.337 461.016 296.562C466.443 297.744 471.96 298.465 477.509 298.718C481.488 298.914 481.429 292.759 477.509 292.554V292.632Z" fill="var(--color-illustration-primary, #382C80)"/>
<path d="M481.556 294.631C478.45 295.935 476.784 296.846 473.569 296.317C470.718 295.847 468.003 294.269 465.132 293.681C461.261 292.897 456.772 293.357 454.156 296.307C451.539 299.257 451.333 304.98 450.52 308.9C449.589 313.398 449.893 318.014 450.098 322.62C450.441 330.196 450.686 338.251 452.421 345.67C453.901 351.991 456.155 358.41 460.741 362.986C464.237 366.293 468.533 368.633 473.207 369.778C491.013 374.58 512.181 366.005 520.805 349.717C526.627 338.731 525.607 324.09 523.677 312.262C522.756 306.617 521.825 298.483 518.561 293.642C514.641 287.762 507.713 292.162 502.156 293.014C499.657 293.397 496.884 293.122 494.953 291.476" fill="var(--color-illustration-base, #FFFFFF)"/>
<path d="M480.821 291.975C478.577 292.906 476.47 293.935 473.961 293.494C471.453 293.053 468.973 291.662 466.406 291.015C462.652 289.964 458.648 290.27 455.096 291.877C451.47 293.7 449.618 297.218 448.726 301.031C447.708 305.253 447.052 309.554 446.766 313.888C446.63 319.446 446.794 325.008 447.256 330.548C447.475 335.735 448.105 340.896 449.138 345.983C451.157 355.195 455.018 364.143 463.397 369.248C477.587 377.951 497.305 375.226 510.515 365.965C517.26 361.382 522.494 354.902 525.558 347.345C528.988 338.594 529.047 328.725 528.077 319.474C527.567 314.574 526.813 309.674 525.931 304.774C525.088 300.1 523.971 294.974 520.982 291.123C518.277 287.624 514.239 286.732 510.035 287.458C505.831 288.183 500.696 291.289 496.531 288.771C493.542 286.958 489.984 291.319 492.719 293.671C495.299 295.938 498.751 296.946 502.146 296.425C505.566 296.033 508.771 294.386 512.201 294.141C518.738 293.671 519.414 307.41 520.129 311.86C522.56 327.059 523.726 344.2 512.005 355.96C502.411 365.642 487.319 370.091 474.079 366.524C465.367 364.172 459.83 358.468 457.017 349.982C454.077 341.113 453.715 331.822 453.264 322.542C452.99 317.429 453.216 312.302 453.94 307.234C454.42 303.912 454.479 299.129 457.752 297.228C461.947 294.788 466.621 297.346 470.708 298.541C475.235 299.864 478.754 298.845 482.958 297.013C485.79 295.778 483.722 290.77 480.831 291.975H480.821Z" fill="var(--color-illustration-primary, #382C80)"/>
<path d="M506.938 310.184C503.998 300.325 501.931 291.485 503.018 281.058L506.938 310.184Z" fill="var(--color-illustration-base, #FFFFFF)"/>
<path d="M509.565 309.459C508.459 304.592 507.671 299.659 507.203 294.69C506.926 292.384 506.765 290.064 506.723 287.742C506.723 285.194 507.193 282.587 506.36 280.147C505.439 277.422 501.588 276.619 500.049 279.314C497.57 283.665 498.697 290.388 499.432 295.16C500.274 300.629 502.499 305.735 504.332 310.909C505.478 314.192 510.447 312.869 509.594 309.459H509.565Z" fill="var(--color-illustration-primary, #382C80)"/>
<path d="M485.173 297.826C499.275 297.767 510.829 287.918 514.573 277.246C518.022 267.299 516.386 257.215 515.954 246.866C515.709 241.074 514.357 234.91 510.074 230.961C505.429 226.629 498.569 226.061 492.434 224.238C490.46 223.553 488.435 223.025 486.378 222.66C484.087 222.473 481.781 222.582 479.518 222.983C475.224 223.384 470.989 224.271 466.896 225.629C462.868 227.139 459.056 229.696 456.89 233.401C454.93 236.743 454.41 240.721 453.95 244.573C452.882 254.236 452.264 264.32 454.773 273.826C455.972 278.621 458.177 283.108 461.241 286.987C464.602 291.123 468.611 292.72 469.081 298.502C469.395 302.338 469.375 306.194 469.022 310.027" fill="var(--color-illustration-base, #FFFFFF)"/>
<path d="M485.173 300.884C499.069 300.639 512.309 292.005 517.326 278.873C520.472 270.621 520.07 261.674 519.561 253.02C519.1 245.337 519.267 237.135 514.367 230.696C509.731 224.6 502.323 223.228 495.335 221.406C491.17 220.328 487.368 218.848 482.997 219.093C478.597 219.362 474.229 220.018 469.943 221.053C462.515 222.846 455.528 226.933 452.578 234.332C451.409 237.631 450.687 241.072 450.432 244.563C449.816 249.439 449.489 254.348 449.452 259.263C449.452 268.847 451.137 279.039 456.704 287.066C458.85 290.162 461.907 292.348 464.112 295.317C466.866 299.012 465.749 305.774 465.435 310.017C465.073 314.77 472.393 314.702 472.815 310.017C473.403 303.324 474.099 295.572 469.561 290.074C467.856 288.006 465.69 286.389 464.014 284.302C461.739 281.357 460.025 278.019 458.958 274.453C456.664 267.162 456.527 259.449 456.998 251.913C457.419 245.357 457.233 236.841 462.603 232.156C467.974 227.472 476.323 226.511 483.007 226.1C486.554 225.884 489.641 227.08 493.022 227.991C496.129 228.795 499.314 229.353 502.352 230.422C509.359 232.891 512.025 238.81 512.544 245.866C513.103 253.452 513.994 261.341 513.152 268.926C511.669 283.368 499.695 294.465 485.182 294.847C481.262 294.945 481.262 301.021 485.182 300.952L485.173 300.884Z" fill="var(--color-illustration-primary, #382C80)"/>
<path d="M482.36 274.394C480.4 273.208 478.44 271.229 478.44 269.426C478.44 268.994 491.464 264.986 492.807 264.526C492.758 265.996 492.67 267.466 492.552 268.926C492.514 269.81 492.339 270.683 492.033 271.513C490.994 274.032 487.133 276.001 484.496 275.355C483.741 275.142 483.021 274.818 482.36 274.394Z" fill="var(--color-illustration-primary, #382C80)"/>
<path d="M483.154 273.101C482.732 272.797 479.665 269.906 479.489 270.66C479.489 270.513 480.469 270.288 480.576 270.239C482.144 269.661 483.742 269.181 485.329 268.681C487.995 267.838 490.67 267.064 493.326 266.192L491.18 264.535C491.072 266.868 491.425 270.239 489.651 272.042C487.992 273.793 485.348 274.174 483.262 272.963C481.39 271.983 479.734 274.757 481.586 275.825C484.575 277.697 488.419 277.481 491.18 275.286C494.669 272.699 494.483 268.514 494.61 264.506C494.607 263.97 494.356 263.467 493.93 263.142C493.504 262.818 492.951 262.71 492.434 262.85C488.416 264.212 484.349 265.417 480.371 266.887C479.283 267.279 477.597 267.632 477.068 268.789C475.872 271.415 479.851 274.571 481.674 275.649C483.497 276.727 484.663 274.218 483.154 273.101Z" fill="var(--color-illustration-primary, #382C80)"/>
<path d="M479.106 249.12C478.303 251.08 478.293 253.403 478.077 255.49C477.911 257.146 477.431 259.067 478.077 260.674C478.45 261.826 479.457 262.658 480.659 262.807C481.86 262.957 483.04 262.396 483.683 261.37C484.908 259.302 481.782 257.519 480.488 259.508C480.811 259.453 481.097 259.27 481.282 259.001C481.467 258.731 481.534 258.398 481.468 258.077L481.527 257.215C481.596 256.235 481.684 255.206 481.752 254.206C481.967 252.516 481.94 250.803 481.674 249.12C481.37 247.709 479.577 248.032 479.126 249.12H479.106Z" fill="var(--color-illustration-primary, #382C80)"/>
<path d="M488.818 244.71C490.543 244.109 492.364 243.833 494.189 243.897C494.927 243.925 495.663 243.994 496.394 244.102C496.991 244.191 499.51 243.975 498.354 243.25C497.974 243.24 497.596 243.191 497.227 243.103C496.74 242.929 496.265 242.723 495.806 242.485C495.269 242.261 494.711 242.094 494.14 241.986C492.581 241.721 490.994 242.044 489.455 241.741C487.436 241.329 486.515 244.338 488.593 244.857C490.057 245.123 491.545 245.238 493.032 245.2C494.434 245.278 495.6 246.102 496.952 246.327C498.716 246.611 501.254 246.454 501.088 244.063C500.941 241.848 498.589 241.3 496.805 241.074C493.865 240.695 490.876 241.032 488.093 242.054C486.447 242.642 487.113 245.278 488.818 244.7V244.71Z" fill="var(--color-illustration-primary, #382C80)"/>
<path d="M489.269 251.08C490.718 251.206 492.154 251.455 493.561 251.825C494.506 252.095 495.491 251.549 495.762 250.605C496.032 249.66 495.486 248.675 494.541 248.405C492.841 247.886 491.076 247.609 489.298 247.581C487.035 247.503 487.074 250.933 489.298 251.08H489.269Z" fill="var(--color-illustration-primary, #382C80)"/>
<path d="M475.5 242.064C472.574 241.027 469.441 240.711 466.366 241.143C464.857 241.329 462.603 241.515 462.731 243.573C462.848 245.347 464.828 245.837 466.278 245.984C469.233 246.178 472.198 246.142 475.147 245.876C476.04 245.876 476.764 245.152 476.764 244.259C476.764 243.366 476.04 242.642 475.147 242.642C472.883 242.642 470.62 242.711 468.356 242.779C467.791 242.814 467.225 242.814 466.66 242.779C466.4 242.777 466.141 242.751 465.886 242.701C465.396 242.495 465.377 242.573 465.798 242.926L465.641 244.141C465.386 244.622 466.386 244.23 466.778 244.141C467.513 244.034 468.248 243.926 468.993 243.887C470.949 243.77 472.909 244.033 474.765 244.661C476.451 245.229 477.146 242.603 475.5 242.015V242.064Z" fill="var(--color-illustration-primary, #382C80)"/>
<path d="M474.353 247.572C472.579 247.599 470.817 247.876 469.12 248.395C468.176 248.665 467.629 249.65 467.9 250.595C468.171 251.539 469.156 252.086 470.1 251.815C471.507 251.445 472.943 251.196 474.393 251.07C476.617 250.923 476.656 247.493 474.393 247.572H474.353Z" fill="var(--color-illustration-primary, #382C80)"/>
<path d="M796.058 828.682C795.084 825.894 793.686 823.273 791.913 820.911C786.708 814.432 778.887 810.61 770.578 810.484C761.895 810.415 753.693 814.404 745.098 815.511C739.924 816.168 730.819 816.413 726.282 813.296C722.215 810.503 721.833 805.28 721.382 800.399C721.049 797.048 720.833 793.539 719.02 790.668C712.16 779.888 696.833 791.364 691.815 798.028C686.798 804.692 684.769 813.767 687.895 821.42C688.973 824.076 690.669 826.624 690.728 829.496C690.816 833.416 687.788 836.738 684.848 839.374C673.891 849.115 660.994 856.485 650.254 866.451C644.32 871.942 639.418 878.45 635.779 885.669C639.954 893.607 644.452 901.467 649.362 909.248C651.645 912.864 653.997 916.49 657.202 919.362C672.529 933.248 701.743 923.282 717.619 914.863C738.297 903.936 756.005 888.403 773.008 872.508C779.868 866.148 788.257 859.915 794.48 853.163C799.635 847.488 799.057 836.904 796.058 828.682Z" fill="var(--color-illustration-secondary, #7F72FF)"/>
<path d="M799.88 827.634C796.773 819.558 791.452 813.09 783.475 809.455C775.145 805.662 766.56 806.201 757.887 808.475C749.92 810.523 741.991 812.924 733.661 811.718C730.202 811.219 727.389 810.17 726.272 806.613C725.086 802.849 725.292 798.773 724.626 794.853C723.322 787.767 718.011 781.917 710.445 782.309C703.928 782.642 697.901 786.552 693.158 790.766C687.653 795.557 683.982 802.111 682.77 809.308C682.135 813.047 682.326 816.88 683.329 820.538C684.544 824.723 688.356 828.721 685.436 832.945C683.191 836.189 679.556 838.717 676.498 841.158C672.411 844.392 668.158 847.39 663.944 850.458C656.526 855.867 648.999 861.395 642.855 868.264C640.169 871.26 637.731 874.469 635.563 877.859C634.285 879.686 633.185 881.632 632.28 883.67C631.183 886.512 632.663 888.433 634.005 890.922C638.611 899.487 643.364 908.239 649.087 916.128C668.148 942.421 706.486 926.721 728.624 913.08C746.539 902.045 761.817 887.815 777.379 873.801C781.142 870.411 785.082 867.206 788.904 863.874C792.55 860.679 796.813 857.328 799.341 853.094C803.859 845.577 802.644 835.513 799.88 827.614C798.194 822.822 790.531 824.88 792.226 829.721C794.186 835.464 795.842 843.049 792.697 848.704C791.138 851.506 788.247 853.77 785.905 855.907C782.72 858.847 779.398 861.551 776.105 864.354C764.277 874.478 753.281 885.473 740.884 894.95C729.741 903.476 717.678 911.335 704.546 916.431C693.854 920.567 681.212 924.154 669.736 921.429C662.092 919.616 657.457 914.687 653.311 908.219C648.215 900.242 643.511 892.01 639.111 883.641V887.649C647.617 870.871 662.954 861.248 677.527 850.252C683.593 845.675 692.305 840.325 694.275 832.455C695.255 828.457 693.736 824.939 692.129 821.381C690.352 817.635 689.876 813.404 690.777 809.357C692.276 802.624 696.725 797.273 702.399 793.549C706.457 790.893 713.277 787.669 716.061 793.628C717.648 797.038 717.335 801.468 717.883 805.113C718.432 808.759 719.491 812.287 722.068 814.913C726.968 819.921 735.367 820.166 741.884 819.745C751.625 819.108 760.807 814.315 770.549 814.413C780.226 814.568 788.82 820.635 792.207 829.701C794.049 834.454 801.722 832.406 799.88 827.634Z" fill="var(--color-illustration-secondary, #7F72FF)"/>
<path d="M722.401 788.669C711.063 772.136 689.081 790.942 684.181 803.79C682.346 808.656 681.921 813.942 682.956 819.039C683.936 823.939 688.699 828.623 685.122 833.327C681.751 837.757 676.518 841.167 672.098 844.49C667.198 848.155 662.141 851.673 657.261 855.417C647.069 863.257 638.141 872.077 632.271 883.66C629.958 888.207 636.808 892.225 639.131 887.668C648.931 868.372 667.835 858.484 683.956 845.264C687.572 842.324 691.502 839.129 693.462 834.758C695.579 830.035 694.167 825.86 692.149 821.401C688.483 813.257 690.943 804.114 697.137 797.881C700.91 794.108 710.974 785.984 715.541 792.648C718.413 796.832 725.282 792.863 722.401 788.639V788.669Z" fill="var(--color-illustration-primary, #382C80)"/>
<path d="M458.438 230.716C470.883 227.199 483.806 225.681 496.727 226.217C502.166 226.443 507.879 227.139 512.211 230.245C512.742 230.75 513.438 231.046 514.171 231.078C515.151 230.99 515.66 230.02 515.945 229.118C517.586 223.938 516.271 218.276 512.515 214.35C507.232 208.832 498.599 207.735 490.729 207.392C480.929 206.951 470.806 207.186 461.662 210.596C458.066 211.939 454.508 213.909 452.578 217.064C450.647 220.22 450.902 224.796 453.989 226.992" fill="var(--color-illustration-base, #FFFFFF)"/>
<path d="M459.193 233.44C471.933 230.784 485.32 229.001 498.393 230.098C501.141 230.264 503.853 230.815 506.448 231.735C509.045 232.715 511.25 235.282 514.2 235.214C519.884 235.086 521.237 227.707 520.874 223.297C519.894 211.998 510.261 205.657 499.882 203.981C488.377 202.109 475.686 202.021 464.397 205.059C458.517 206.657 452.078 209.44 448.942 214.957C446.237 219.7 446.806 226.306 451.186 229.853C455.106 233.038 460.81 227.54 456.841 224.199C452.245 220.279 459.732 216.123 462.878 214.938C468.415 212.974 474.232 211.911 480.106 211.792C488.985 211.449 503.381 210.214 509.859 217.78C511.406 219.604 512.308 221.888 512.426 224.277C512.426 224.836 511.77 227.766 511.936 228.04C514.602 227.462 515.092 226.815 513.426 226.08C512.817 225.713 512.186 225.386 511.535 225.1C506.527 222.778 500.951 222.474 495.512 222.356C482.68 221.934 469.876 223.823 457.713 227.932C456.294 228.421 455.5 229.929 455.9 231.375C456.299 232.822 457.754 233.709 459.222 233.401L459.193 233.44Z" fill="var(--color-illustration-primary, #382C80)"/>
<path d="M514.7 233.44C516.608 234.771 517.595 237.069 517.248 239.369C516.856 241.809 514.778 243.289 515.386 245.974C515.954 248.473 518.483 248.738 519.404 250.717C520.021 252.05 519.404 253.785 518.796 255.02C518.189 256.254 518.199 256.637 517.17 256.548C512.564 256.166 511.897 262.291 515.014 264.486C521.06 268.759 526.401 261.654 527.812 256.401C528.69 253.428 528.514 250.243 527.313 247.385C526.794 246.181 526.06 245.082 525.147 244.142C524.553 243.566 523.895 243.059 523.187 242.632C522.158 242.015 522.432 241.77 522.971 242.77L523.393 245.974C523.589 244.632 524.51 243.23 524.735 241.76C525.516 236.517 522.899 231.353 518.208 228.883C515.455 227.462 511.976 231.294 514.7 233.44Z" fill="var(--color-illustration-primary, #382C80)"/>
<path d="M454.489 229.324C449.598 229.033 445.143 232.127 443.709 236.811C442.337 241.858 445.179 247.229 449.648 249.61L453.205 241.182C445.933 239.614 440.779 246.435 441.798 253.246C442.817 260.057 448.432 265.614 455.381 262.625C459.673 260.782 457.341 253.952 453.068 254.069C452.156 254.069 451.578 252.413 451.568 251.649C451.568 250.384 452.029 250.296 453.205 250.081C458.183 249.101 456.929 242.701 453.205 241.182C449.481 239.663 452.94 235.586 455.302 235.165C458.752 234.557 457.703 229.491 454.508 229.285L454.489 229.324Z" fill="var(--color-illustration-primary, #382C80)"/>
<path d="M759.102 114.056C764.081 114.154 769.961 114.791 774.577 116.791C779.996 119.143 773.489 124.013 771.019 125.611C768.55 127.208 768.648 131.628 771.921 132.471C777.389 133.882 783.161 135.675 786.17 140.82C787.584 143.379 788.577 146.149 789.11 149.023C789.845 152.688 789.198 155.971 788.787 159.607C788.375 163.243 793.618 164.095 795.255 161.361C799.469 154.305 796.558 143.613 792.726 136.959C788.659 129.893 781.515 126.836 773.871 125.199L774.773 132.059C780.055 128.198 786.533 121.465 781.995 114.507C779.976 111.44 776.37 110.391 772.969 109.607C768.392 108.679 763.718 108.32 759.053 108.539C755.594 108.637 755.574 113.86 759.053 113.929L759.102 114.056Z" fill="var(--color-illustration-primary, #382C80)"/>
<path d="M844.431 132.931C843.723 134.481 842.763 135.901 841.589 137.135C840.893 137.841 838.825 140.075 837.757 139.977C838.071 139.977 837.042 138.86 836.826 138.566C836.028 137.437 835.171 136.351 834.258 135.313C831.808 132.706 828.055 134.921 827.761 138.008C827.624 139.389 825.801 139.448 824.821 138.988C823.243 138.213 822.645 136.283 822.283 134.725C821.558 131.667 817.863 131.187 815.746 133C814.315 134.219 812.313 134.512 810.593 133.755C808.872 132.997 807.737 131.321 807.671 129.442C807.485 125.865 802.124 123.68 800.331 127.482C799.929 128.335 800.791 127.884 799.89 127.767C799.205 127.66 798.543 127.441 797.93 127.12C796.556 126.6 795.636 125.296 795.607 123.827C795.029 119.054 797.724 114.331 797.293 109.47C796.862 104.609 789.345 104.452 789.57 109.47C789.904 116.722 784.67 125.307 790.854 131.491C794.97 135.636 803.996 138.066 807.103 131.491L799.772 129.531C800.38 140.732 812.796 145.887 821.244 138.615L814.717 136.89C815.903 141.869 819.872 146.69 825.321 146.896C830.491 147.12 834.919 143.232 835.366 138.076L828.868 140.771C831.808 143.848 833.847 148.484 839.002 147.367C843.99 146.279 847.596 140.242 849.448 135.94C850.899 132.578 846.097 129.58 844.421 133L844.431 132.931Z" fill="var(--color-illustration-primary, #382C80)"/>
<path d="M717.56 914.864C745.98 899.86 772.371 882.063 793.177 857.122C795.754 854.025 798.4 850.086 797.097 846.264C796.019 843.049 792.363 841.275 788.973 841.295C785.582 841.315 782.367 842.726 779.271 844.117C755.574 854.76 731.613 864.697 710.141 879.838C699.786 887.177 689.87 895.119 680.447 903.623C676.292 907.357 662.543 918.382 668.129 924.732C672.049 929.221 686.259 925.712 691.178 924.732C700.379 922.654 709.254 919.334 717.56 914.864Z" fill="var(--color-illustration-primary, #382C80)"/>
<path d="M719.52 918.293C740.913 906.955 761.523 893.852 779.3 877.359C783.808 873.184 788.12 868.803 792.216 864.207C796.038 859.905 801.036 854.985 801.301 848.88C801.546 843.441 797.626 839.08 792.481 837.786C786.728 836.277 781.201 838.884 776.076 841.187C752.183 851.879 727.948 862.198 706.496 877.447C696.131 884.974 686.158 893.027 676.616 901.574C671.196 906.347 663.297 912.599 662.758 920.43C661.945 932.19 676.478 931.308 684.318 930.053C696.58 928.04 708.439 924.069 719.442 918.293C723.969 915.922 719.971 909.071 715.443 911.433C706.568 916.041 697.106 919.414 687.317 921.459C683.845 922.28 680.306 922.792 676.743 922.987C675.244 922.987 671.373 923.428 670.687 921.596C669.863 919.391 673.627 915.608 674.881 914.216C677.147 911.796 679.549 909.505 682.074 907.356C690.336 900.095 698.675 892.97 707.554 886.463C725.743 873.125 745.892 863.305 766.354 854.123C771.45 851.839 776.536 849.536 781.652 847.263C784.308 846.097 792.079 842.951 793.236 847.792C793.804 850.183 791.276 853.025 789.845 854.652C788.169 856.681 786.415 858.65 784.641 860.532C781.12 864.374 777.445 868.065 773.616 871.606C756.29 887.639 736.2 900.271 715.404 911.286C711.004 913.824 715.012 920.684 719.52 918.293Z" fill="var(--color-illustration-primary, #382C80)"/>
<path d="M731.741 808.073C729.108 811.591 727.543 815.792 727.233 820.176C727.027 822.606 730.849 822.606 731.025 820.176C731.311 816.458 732.602 812.888 734.759 809.846C736.062 807.965 733.064 806.309 731.741 808.073Z" fill="var(--color-illustration-primary, #382C80)"/>
<path d="M742.119 809.121C738.875 813.041 737.219 818.216 738.689 823.214C739.394 825.556 742.609 824.537 742.276 822.234C741.678 818.461 742.187 814.688 744.637 811.66C746.068 809.896 743.589 807.357 742.119 809.131V809.121Z" fill="var(--color-illustration-primary, #382C80)"/>
<path d="M750.88 806.819C748.893 810.285 748.311 814.382 749.253 818.265C749.89 820.94 754.153 819.804 753.399 817.118C752.608 814.335 752.914 811.354 754.251 808.788C755.427 806.574 752.105 804.614 750.88 806.828V806.819Z" fill="var(--color-illustration-primary, #382C80)"/>
<path d="M741.286 792.383C741.021 791.197 740.561 789.541 740.943 788.345C741.325 787.15 742.393 786.307 743.236 787.267C744.539 788.747 743.06 792.942 742.344 794.363C741.861 795.286 742.111 796.424 742.937 797.059C743.764 797.694 744.927 797.644 745.696 796.94C746.46 796.293 747.783 793.373 748.469 793.304C751.556 793 747.783 798.596 747.274 799.312C745.853 801.33 749.234 803.947 750.733 801.977C753.408 798.557 756.005 793.432 751.86 789.972C750.486 788.719 748.526 788.341 746.784 788.992C744.471 789.972 744.314 792.354 742.677 793.892L746.235 795.96C747.626 792.422 748.92 783.798 743.354 783.044C737.385 782.23 737.15 789.306 738.169 793.206C738.708 795.166 741.717 794.363 741.286 792.344V792.383Z" fill="var(--color-illustration-primary, #382C80)"/>
<path d="M441.082 427.284C441.154 420.097 441.226 412.888 441.298 405.655C441.298 402.206 439.426 387.623 441.847 385.428C444.904 382.655 457.429 386.82 460.976 387.614C467.366 389.044 473.716 390.72 480.322 390.877C494.806 391.039 509.234 389.057 523.138 384.997C525.46 384.35 528.038 383.684 530.184 384.86C532.33 386.036 533.124 388.78 533.692 391.181C536.734 404.49 538.872 417.989 540.092 431.586C540.303 432.65 540.14 433.754 539.631 434.712C538.947 435.496 538.018 436.024 536.995 436.212C528.685 438.632 520.051 439.73 511.437 440.485C489.671 442.386 467.268 442.023 446.61 434.928C444.806 434.311 442.895 433.536 441.906 431.91C441.209 430.473 440.924 428.872 441.082 427.284Z" fill="var(--color-illustration-primary, #382C80)"/>
<path d="M443.807 427.284C444.052 418.787 444.787 410.173 444.287 401.677C444.14 398.972 443.954 396.257 443.924 393.543C443.879 392.14 443.921 390.736 444.052 389.338C444.111 388.888 444.189 388.456 444.277 388.015C444.463 387.104 444.395 387.927 443.934 388.015C446.09 387.369 448.991 388.182 451.098 388.643C453.989 389.27 456.802 390.142 459.663 390.857C469.081 393.2 478.283 394.709 487.975 394.376C498.093 394.003 508.151 392.661 518.012 390.367C520.423 389.819 522.795 389.074 525.215 388.574C527.636 388.074 528.42 388.094 529.135 390.446C530.586 395.062 531.291 400.089 532.164 404.832C533.095 409.909 533.908 415.014 534.565 420.13C534.888 422.668 535.182 425.216 535.437 427.754C535.525 428.607 535.613 429.46 535.682 430.302C535.75 431.145 535.829 431.88 535.858 432.674C536.838 431.821 536.838 431.625 535.858 432.096C535.015 431.959 533.124 432.841 532.271 433.076C531.076 433.37 529.87 433.644 528.655 433.889C526.235 434.389 523.755 434.801 521.354 435.153C516.454 435.839 511.554 436.271 506.576 436.614C495.654 437.474 484.681 437.438 473.765 436.506C468.114 435.96 462.51 435.003 456.998 433.644C454.263 432.968 451.539 432.204 448.864 431.312C446.188 430.42 445.238 430.116 445.1 427.264C444.855 422.09 437.26 422.08 437.045 427.264C436.78 432.684 439.054 436.437 444.14 438.456C449.501 440.48 455.039 441.999 460.682 442.993C471.986 445.124 483.484 446.041 494.982 445.728C506.821 445.59 518.626 444.423 530.262 442.239C534.604 441.367 541.14 440.759 543.453 436.359C544.766 433.879 544.237 431.057 543.973 428.382C543.646 425.206 543.274 422.031 542.855 418.856C542.065 412.773 541.085 406.714 539.915 400.677C538.935 395.552 538.455 389.142 535.564 384.644C532.673 380.146 527.793 379.627 522.991 380.852C517.111 382.371 511.231 384.037 505.253 385.144C493.081 387.378 480.576 388.221 468.415 385.634C461.094 384.086 453.401 381.077 445.875 381.008C442.552 381.008 439.171 381.92 437.966 385.33C436.761 388.741 437.172 392.7 437.378 396.169C438.005 406.537 438.182 416.827 438.26 427.225C438.378 430.802 443.709 430.792 443.807 427.284Z" fill="var(--color-illustration-primary, #382C80)"/>
<path d="M445.061 658.76C450.192 661.452 455.651 663.468 461.3 664.758C465.69 665.738 467.533 658.878 463.152 658.035C458.026 657.045 453.049 655.398 448.344 653.135C444.61 651.332 441.318 656.81 445.061 658.76Z" fill="var(--color-illustration-primary, #382C80)"/>
<path d="M618.58 575.46C625.23 573.219 632.237 572.222 639.248 572.52C643.57 572.677 643.58 565.915 639.248 565.797C631.649 565.62 624.08 566.829 616.914 569.364C613.112 570.678 614.729 576.734 618.58 575.431V575.46Z" fill="var(--color-illustration-primary, #382C80)"/>
<path d="M537.936 501.735C549.558 527.401 557.467 554.263 563.896 581.644C564.954 586.171 571.873 584.251 570.854 579.684C564.601 551.891 554.194 525.01 542.081 499.265C540.768 496.462 536.671 498.902 537.936 501.695V501.735Z" fill="var(--color-illustration-secondary, #7F72FF)"/>
<path d="M556.203 495.022C561.622 507.115 566.875 519.296 571.736 531.635C576.597 543.973 580.419 556.37 585.191 568.571C586.838 572.804 593.414 571.236 592.149 566.611C588.582 553.685 583.202 541.131 577.998 528.763C572.794 516.396 567.11 504.175 560.829 492.268C559.192 489.171 554.811 491.896 556.203 494.983V495.022Z" fill="var(--color-illustration-secondary, #7F72FF)"/>
<path d="M386.79 629.203C388.584 618.031 393.65 607.829 398.668 597.794C403.49 588.164 408.605 578.691 414.015 569.374C425.108 550.421 437.423 532.21 450.882 514.857C453.342 511.672 447.785 507.321 445.267 510.515C431.242 528.327 418.565 547.159 407.341 566.856C401.794 576.571 396.623 586.482 391.828 596.589C387.006 606.771 382.184 617.1 381.342 628.488C381.116 631.565 386.291 632.329 386.79 629.223V629.203Z" fill="var(--color-illustration-secondary, #7F72FF)"/>
<path d="M415.338 635.828C424.593 607.587 436.364 580.233 450.51 554.096C452.382 550.617 447.119 547.52 445.208 550.999C430.753 577.546 418.937 605.446 409.928 634.299C408.84 637.749 414.23 639.199 415.338 635.789V635.828Z" fill="var(--color-illustration-secondary, #7F72FF)"/>
<path d="M457.448 542.042C461.623 542.042 461.633 535.564 457.448 535.564C453.264 535.564 453.274 542.042 457.448 542.042Z" fill="var(--color-illustration-secondary, #7F72FF)"/>
<path d="M456.684 409.664C460.976 414.132 466.376 409.223 467.239 404.528C467.572 402.715 468.219 399.57 466.445 398.276C464.671 396.982 462.799 398.678 462.045 400.236C459.497 405.45 464.828 409.83 469.64 409.86C475.186 409.86 482.017 406.92 483.526 401.196H479.881C480.346 403.461 481.7 405.443 483.64 406.7C485.58 407.957 487.944 408.382 490.2 407.88C491.484 407.547 492.591 406.518 493.983 406.792C495.59 407.106 497.129 408.096 498.785 408.439C502.139 409.118 505.605 409.024 508.918 408.164C511.456 407.547 510.378 403.607 507.84 404.244C505.048 405.009 502.113 405.086 499.285 404.47C497.325 404.038 495.453 402.657 493.454 402.608C491.611 402.608 490.288 404.107 488.554 404.244C486.096 404.321 483.962 402.564 483.565 400.138C483.222 398.237 480.39 398.443 479.92 400.138C479.028 403.294 475.833 404.744 472.903 405.518C471.129 405.979 469.091 406.322 467.366 405.567C466.131 405.018 463.711 402.137 466.053 401.118H464.259C463.946 400.55 463.867 400.824 464.044 401.922C464.016 402.822 463.905 403.718 463.711 404.597C463.27 406.381 461.212 409.615 458.918 407.429C458.301 406.88 457.362 406.909 456.779 407.494C456.196 408.08 456.171 409.019 456.723 409.634L456.684 409.664Z" fill="var(--color-illustration-secondary, #7F72FF)"/>
<path d="M518.238 408.449L518.522 408.204C519.026 407.699 519.223 406.965 519.039 406.276C518.854 405.587 518.316 405.049 517.627 404.865C516.939 404.68 516.204 404.877 515.7 405.381L515.455 405.665C514.686 406.434 514.686 407.68 515.455 408.449C516.223 409.217 517.469 409.217 518.238 408.449Z" fill="var(--color-illustration-secondary, #7F72FF)"/>
<path d="M460.741 424.834C476.353 427.882 492.777 430.253 508.163 424.893C510.653 424.03 509.575 419.993 507.066 420.924C492.307 426.137 476.686 424.52 461.506 422.061C459.712 421.767 458.899 424.481 460.741 424.834Z" fill="var(--color-illustration-secondary, #7F72FF)"/>
<path d="M463.348 684.025C470.894 686.553 473.961 694.805 476.088 701.723C478.425 709.609 479.719 717.766 479.939 725.988C480.086 730.653 487.387 730.663 487.191 725.988C486.852 715.914 484.955 705.954 481.566 696.461C478.567 688.248 473.863 680.546 465.112 677.753C461.104 676.469 459.428 682.711 463.387 684.025H463.348Z" fill="var(--color-illustration-primary, #382C80)"/>
<path d="M958.023 447.374C934.15 467.337 901.976 474.628 870.881 475.794C839.235 476.933 807.64 472.392 777.595 462.388C750.155 453.244 725.655 435.614 698.215 427.529C686.229 424.001 636.142 408.615 628.115 420.081C636.083 408.693 651.155 405.165 662.494 397.129L634.074 386.291L658.525 372.433L636.455 360.84C657.76 349.217 685.455 359.38 707.29 365.544C750.41 377.706 785.915 406.822 831.328 414.916C862.159 420.404 890.04 413.535 917.01 397.923C931.043 389.799 945.283 380.901 961.355 378.735" fill="var(--color-illustration-secondary, #7F72FF)"/>
<path d="M955.7 445.042C935.806 460.722 909.905 468.023 885.032 470.414C856.869 472.998 828.472 470.936 800.978 464.308C787.473 461.198 774.305 456.777 761.66 451.108C749.322 445.473 737.425 438.917 725.135 433.174C708.603 425.451 691.188 420.199 673.46 416.014C663.954 413.77 654.203 411.78 644.423 411.369C637.269 411.065 628.831 411.535 624.205 417.749L632.045 422.345C639.777 411.663 654.33 408.272 664.777 401C666.297 400.046 667.123 398.294 666.891 396.515C666.659 394.735 665.413 393.253 663.699 392.719L635.279 381.939L636.367 390.191L660.808 376.324C663.66 374.717 663.827 370.121 660.808 368.543L638.729 357.028V364.76C658.123 354.49 681.77 362.8 701.263 368.523C711.728 371.461 721.997 375.061 732.005 379.303C742.089 383.703 751.938 388.633 761.797 393.513C781.476 403.254 801.497 412.888 823.008 417.827C845.386 423.125 868.795 422.107 890.628 414.887C903.074 410.702 914.452 404.558 925.771 398.011C937.305 391.328 949.134 385.017 962.433 382.831C967.107 382.057 966.059 373.884 961.306 374.491C937.1 377.539 918.568 393.993 896.626 403.078C875.324 412.064 851.817 414.454 829.143 409.938C807.112 405.479 786.777 395.846 766.756 385.948C746.735 376.05 726.968 366.573 705.535 360.379C682.731 353.784 656.712 345.023 634.123 356.949C632.761 357.768 631.927 359.241 631.927 360.83C631.927 362.42 632.761 363.892 634.123 364.711L656.192 376.246V368.464L631.692 382.312C628.047 384.38 629.321 389.25 632.77 390.573L661.19 401.412L660.112 393.131C648.009 401.539 633.104 405.293 624.088 417.709C620.638 422.472 628.498 426.931 631.928 422.306C631.222 423.286 632.731 421.874 631.82 422.394C632.339 422.1 632.8 421.757 633.349 421.502C633.669 421.381 633.996 421.279 634.329 421.198C635.122 420.992 635.906 420.787 636.71 420.659C640.008 420.304 643.333 420.274 646.637 420.571C655.083 421.357 663.453 422.815 671.667 424.932C689.307 429.146 706.623 434.379 723.038 442.219C735.112 447.982 746.852 454.42 759.073 459.859C771.966 465.527 785.362 469.973 799.086 473.138C826.35 479.587 854.848 482.017 882.768 479.351C910.983 476.666 938.53 468.483 960.277 449.657C963.55 446.835 958.875 442.415 955.612 444.993L955.7 445.042Z" fill="var(--color-illustration-secondary, #7F72FF)"/>
<path d="M40.6838 522.912C59.0588 536.505 82.4122 542.091 105.266 542.385C128.119 542.679 150.728 538.024 172.984 532.83C211.89 523.736 249.649 509.957 284.469 490.269C316.809 471.992 340.789 441.465 381.704 446.815C389.231 447.795 396.718 449.873 404.244 449.314C392.255 436.137 374.625 429.585 356.94 431.733C368.847 428.882 380.402 424.725 391.396 419.336C381.53 411.933 369.595 407.804 357.263 407.527C366.065 399.609 375.53 392.461 385.556 386.163C381.567 383.586 376.491 383.527 371.738 383.772C299.394 387.545 254.784 451 187.38 468.64C138.302 481.468 84.48 477.46 38.7728 454.998" fill="var(--color-illustration-secondary, #7F72FF)"/>
<path d="M39.0179 525.764C59.5979 541.444 85.4503 547.128 110.969 546.677C139.389 546.178 168.015 539.455 195.249 531.762C221.863 524.37 247.689 514.389 272.356 501.96C283.209 496.499 293.662 490.277 303.637 483.34C312.35 477.225 320.817 470.757 329.813 465.053C339.525 458.899 349.893 453.783 361.291 451.696C367.511 450.607 373.856 450.432 380.126 451.176C388.211 452.068 396.081 454.312 404.283 453.852C406.095 453.792 407.704 452.678 408.397 451.003C409.09 449.328 408.738 447.402 407.498 446.08C394.628 432.098 375.865 425.084 356.979 427.196L358.184 436.094C370.45 433.082 382.359 428.769 393.709 423.227C397.061 421.6 396.189 417.259 393.709 415.387C383.12 407.641 370.418 403.312 357.302 402.98L360.487 410.663C369.021 403.024 378.18 396.114 387.868 390.005C389.221 389.179 390.046 387.709 390.046 386.124C390.046 384.539 389.221 383.069 387.868 382.243C382.037 378.823 375.364 378.931 368.817 379.421C362.971 379.865 357.158 380.673 351.412 381.841C340.561 384.15 329.983 387.599 319.856 392.131C299.668 400.951 281.274 413.231 262.928 425.285C244.426 437.427 225.688 449.736 205.02 458.007C181.245 467.533 155.128 471.482 129.56 471.335C98.9118 471.122 68.6727 464.278 40.9191 451.274C36.0191 448.981 31.7071 456.096 36.6267 458.605C84.3723 482.909 143.447 486.888 194.514 471.227C237.556 458.036 271.386 427.127 310.644 406.547C321.442 400.74 332.833 396.11 344.621 392.739C350.48 391.106 356.447 389.885 362.477 389.084C368.896 388.26 377.441 386.614 383.292 390.064V382.302C372.963 388.833 363.194 396.212 354.088 404.362C351.05 407.067 353.568 411.927 357.263 412.045C368.779 412.422 379.9 416.336 389.113 423.256V415.416C378.445 420.576 367.255 424.578 355.734 427.353C350.903 428.529 351.814 436.868 356.94 436.241C373.407 434.2 389.843 440.263 401.04 452.509L404.254 444.738C397.002 445.14 390.024 443.376 382.89 442.405C377.179 441.576 371.39 441.422 365.642 441.945C355.092 443.108 344.86 446.264 335.487 451.245C316.642 460.947 300.933 475.598 282.567 486.084C258.899 499.466 233.893 510.331 207.96 518.502C194.838 522.697 181.5 526.235 168.094 529.282C154.05 532.516 139.889 535.545 125.542 537.034C97.1221 539.974 66.4089 536.828 42.3793 520.021C38.8415 517.552 35.7447 523.216 39.0473 525.725L39.0179 525.764Z" fill="var(--color-illustration-secondary, #7F72FF)"/>
<path d="M703.458 379.783C700.645 393.209 697.637 406.606 694.873 420.052C694.403 422.364 697.95 423.354 698.43 421.032C701.194 407.576 703.703 394.062 706.417 380.597C706.809 378.637 703.869 377.843 703.477 379.783H703.458Z" fill="var(--color-illustration-primary, #382C80)"/>
<path d="M631.722 365.564C637.226 368.181 642.234 371.736 646.52 376.069C648.127 377.628 650.342 375.315 648.94 373.649C644.62 368.69 639.148 364.867 633.006 362.516C631.271 361.801 630.007 364.78 631.722 365.564Z" fill="var(--color-illustration-primary, #382C80)"/>
<path d="M633.133 389.407C640.005 392.65 646.499 396.64 652.498 401.304C654.301 402.745 656.898 400.324 655.095 398.707C649.061 393.304 642.053 389.1 634.446 386.32C632.633 385.683 631.389 388.594 633.133 389.446V389.407Z" fill="var(--color-illustration-primary, #382C80)"/>
<path d="M710.974 385.085L709.455 388.888C709.229 389.699 709.703 390.541 710.514 390.769C711.325 390.972 712.154 390.502 712.395 389.701L713.914 385.899C714.134 385.085 713.658 384.246 712.846 384.017C712.038 383.82 711.216 384.289 710.974 385.085Z" fill="var(--color-illustration-primary, #382C80)"/>
<path d="M365.593 407.762C371.555 401.309 378.964 396.365 387.212 393.337C389.24 392.582 388.417 389.348 386.31 390.054C377.396 393.035 369.453 398.367 363.319 405.489C361.977 407.037 364.182 409.291 365.593 407.762Z" fill="var(--color-illustration-primary, #382C80)"/>
<path d="M378.382 428.715C382.488 426.755 386.594 424.795 390.642 422.756C392.533 421.776 390.867 418.983 388.976 419.905C384.899 421.865 380.891 424.03 376.883 426.147C375.168 427.049 376.677 429.528 378.382 428.715Z" fill="var(--color-illustration-primary, #382C80)"/>
<path d="M321.522 413.643C326.565 424.474 332.266 434.986 338.594 445.12C339.809 447.08 342.896 445.257 341.661 443.327C335.198 433.292 329.352 422.871 324.159 412.124C323.306 410.34 320.689 411.898 321.522 413.662V413.643Z" fill="var(--color-illustration-primary, #382C80)"/>
<path d="M317.112 437.603L319.396 439.887C320.021 440.475 321 440.461 321.607 439.854C322.214 439.247 322.228 438.267 321.64 437.643L319.347 435.32C318.724 434.718 317.735 434.718 317.112 435.32C316.514 435.948 316.514 436.936 317.112 437.564V437.603Z" fill="var(--color-illustration-primary, #382C80)"/>
<path d="M600.587 145.24C595.781 147.709 591.171 150.543 586.799 153.717C585.985 143.917 585.005 132.373 590.356 123.572C596.434 127.719 600.752 133.979 602.469 141.134C602.773 141.973 602.773 142.892 602.469 143.731C602.01 144.414 601.354 144.941 600.587 145.24Z" fill="var(--color-illustration-secondary, #7F72FF)"/>
<path d="M599.715 142.075C594.423 143.652 589.268 147.141 584.839 150.356L590.719 153.717C590.033 144.348 589.013 134.117 593.992 125.679L588.288 127.179C590.927 129.071 593.138 131.499 594.776 134.303C595.539 135.561 596.213 136.871 596.795 138.223C597.1 138.956 597.365 139.705 597.588 140.467L597.863 141.447C597.971 142.692 598.167 142.731 598.431 141.565C593.747 144.672 597.784 151.463 602.812 149.062C609.476 145.867 606.967 138.537 604.468 133.304C601.9 127.894 597.392 123.396 592.502 120.044C590.513 118.901 587.975 119.564 586.799 121.534C581.203 131.442 581.957 142.859 582.947 153.786C583.182 156.363 586.201 159.087 588.827 157.137C593.355 153.727 598.627 151.257 602.978 147.631C605.487 145.426 602.714 141.183 599.715 142.075Z" fill="var(--color-illustration-secondary, #7F72FF)"/>
<path d="M386.859 154.874L384.83 151.424C382.606 147.661 380.303 143.388 381.332 139.145C382.361 134.901 388.76 132.285 391.132 135.92C390.753 142.036 390.374 148.154 389.995 154.276" fill="var(--color-illustration-secondary, #7F72FF)"/>
<path d="M389.652 154.109C388.27 150.101 384.958 146.681 384.576 142.349C384.419 140.565 386.624 136.312 388.496 138.674L387.3 135.92C386.604 141.947 386.085 148.209 385.977 154.276C385.879 159.587 393.523 159.342 394.062 154.276C394.434 150.797 394.493 147.278 394.67 143.79C394.817 140.928 395.875 136.596 394.493 133.99C392.416 130.07 387.035 129.746 383.488 131.471C372.914 136.616 378.95 150.454 384.791 156.951C386.692 159.068 390.573 156.853 389.632 154.138L389.652 154.109Z" fill="var(--color-illustration-secondary, #7F72FF)"/>
<path d="M310.537 137.194C308.341 145.211 309.86 159.186 319.984 161.204C323.639 161.858 327.252 159.857 328.637 156.412C329.715 153.894 329.402 149.552 326.138 148.974C322.385 148.278 320.033 152.169 319.562 155.354C318.984 159.274 320.778 163.351 323.198 166.33C328.343 172.661 337.104 175.267 344.65 172.004C346.728 171.102 345.238 167.516 343.092 168.309C335.458 171.102 322.738 165.81 323.649 156.177C323.649 155.716 324.355 152.727 325.129 153.031C325.903 153.335 324.805 155.364 324.58 155.707C322.855 158.294 319.866 157.804 317.72 156.059C312.624 151.934 312.134 143.917 313.594 138.037C313.78 137.21 313.284 136.383 312.467 136.158C311.65 135.933 310.8 136.389 310.537 137.194Z" fill="var(--color-illustration-secondary, #7F72FF)"/>
<path d="M483.546 94.3389C488.849 91.4335 494.714 89.6991 500.745 89.2527L499.02 86.9595C497.757 93.1134 496.811 99.3283 496.188 105.58C495.972 107.843 499.775 108.382 500.196 106.119C501.304 99.9565 502.096 93.7416 502.568 87.4985C502.568 86.5026 501.76 85.6953 500.764 85.6953C494.122 86.2009 487.692 88.2657 481.997 91.7223C481.259 92.1553 481.011 93.1052 481.444 93.844C481.877 94.5828 482.827 94.8307 483.565 94.3977L483.546 94.3389Z" fill="var(--color-illustration-secondary, #7F72FF)"/>
<path d="M647.98 105.932C649.087 112.449 650.391 118.947 651.439 125.473C651.635 126.708 653.047 127.159 654.095 126.983C659.666 126.05 665.157 124.69 670.52 122.916C673.195 122.024 672.059 117.79 669.354 118.672C663.986 120.425 658.505 121.81 652.949 122.818L655.604 124.327C654.085 117.908 652.831 111.43 651.39 104.991C650.891 102.747 647.608 103.727 647.98 105.971V105.932Z" fill="var(--color-illustration-secondary, #7F72FF)"/>
<path d="M572.951 210.577C571.971 208.685 570.403 205.677 572.344 203.805C573.51 202.697 575.47 202.55 576.979 202.658C578.88 202.776 581.105 203.393 581.124 205.677C581.144 207.96 578.684 209.381 576.93 210.42C574.97 211.566 576.273 215.026 578.508 214.163C581.977 212.831 585.035 209.969 585.191 206.049C585.348 202.129 582.32 199.473 578.586 198.924C575.372 198.444 571.491 198.983 569.355 201.678C566.787 204.893 568.59 208.969 570.276 212.145C571.207 213.909 573.863 212.341 572.951 210.577Z" fill="var(--color-illustration-secondary, #7F72FF)"/>
<path d="M384.282 80.805C381.244 77.522 384.772 73.3766 388.407 72.965C389.96 72.7484 391.53 73.225 392.7 74.2684C393.68 75.2484 393.729 78.5118 391.524 78.1884C388.878 77.7572 387.682 81.7066 390.397 82.2848C392.106 82.6417 393.886 82.2348 395.27 81.1707C396.654 80.1066 397.505 78.4913 397.6 76.7478C397.933 72.8278 394.66 70.0152 391.063 69.3586C383.605 67.9768 375.53 76.7184 382.028 83.0786C382.647 83.701 383.654 83.7032 384.277 83.0835C384.899 82.4638 384.901 81.4568 384.282 80.8344V80.805Z" fill="var(--color-illustration-secondary, #7F72FF)"/>
<path d="M395.454 210.9C395.336 214.722 395.62 218.544 395.61 222.366C395.641 223.578 396.613 224.555 397.825 224.591C402.37 224.927 406.939 224.577 411.379 223.552C414.319 222.954 413.054 218.573 410.154 219.083C406.068 219.676 401.952 220.029 397.825 220.141L400.04 222.366C399.54 218.446 399.344 214.399 398.727 210.449C398.433 208.489 395.503 209.087 395.444 210.9H395.454Z" fill="var(--color-illustration-secondary, #7F72FF)"/>
<path d="M863.227 229.118C862.09 235.067 861.012 241.035 859.719 246.954C859.536 247.663 859.742 248.415 860.259 248.933C860.776 249.45 861.529 249.655 862.237 249.473C868.767 247.322 875.6 246.234 882.474 246.249C883.251 246.237 883.965 245.818 884.353 245.144C884.741 244.471 884.746 243.643 884.366 242.966C880.836 236.377 876.381 230.328 871.136 225.002C869.176 223.042 866.148 226.051 868.068 228.07C872.973 233.208 877.184 238.967 880.593 245.2L882.474 241.907C875.213 241.924 868.005 243.156 861.15 245.553L863.668 248.071C864.531 242.064 865.628 236.076 866.608 230.088C866.99 227.864 863.668 226.894 863.188 229.108L863.227 229.118Z" fill="var(--color-illustration-secondary, #7F72FF)"/>
<path d="M760.112 324.129L755.78 329.147C755.198 329.764 755.08 330.686 755.486 331.43C757.23 334.204 760.641 334.723 763.512 333.459C766.197 332.263 768.667 329.108 766.932 326.187C766.256 325.06 763.992 325.07 763.816 326.599C763.64 328.128 763.385 329.127 761.954 329.813C760.974 330.284 759.455 330.578 758.74 329.529L758.446 331.812L762.562 326.609C763.934 324.884 761.582 322.395 760.082 324.129H760.112Z" fill="var(--color-illustration-secondary, #7F72FF)"/>
<path d="M207.205 324.247C203.521 320.895 197.278 321.199 193.534 324.247C189.448 327.618 189.399 333.557 192.554 337.585C195.71 341.612 201.325 342.543 205.138 338.976C208.685 335.664 209.479 329.921 206.02 326.295C204.128 324.335 201.365 327.216 203.08 329.235C204.795 331.254 203.854 334.321 202.1 335.889C199.777 337.967 196.719 336.526 195.298 334.135C194.493 332.909 194.22 331.409 194.544 329.978C194.867 328.547 195.759 327.31 197.013 326.55C199.679 324.835 202.658 325.256 205.314 326.667C206.843 327.481 208.617 325.442 207.274 324.188L207.205 324.247Z" fill="var(--color-illustration-secondary, #7F72FF)"/>
<path d="M115.203 307.146C111.136 314.986 108.774 327.157 116.81 333.41C122.769 338.045 133.558 334.341 132.588 325.883C132.575 325.236 132.267 324.629 131.752 324.236C131.237 323.843 130.57 323.706 129.942 323.865C123.031 326.046 118.608 332.787 119.358 339.995C120.338 347.581 127.375 353.118 134.881 352.941C137.655 352.882 137.665 348.58 134.881 348.639C129.658 348.727 124.464 345.101 123.641 339.721C122.857 334.615 126.326 329.607 131.05 327.892L128.482 326.432C128.874 329.255 125.875 331.479 123.327 331.695C120.387 331.95 117.927 329.735 116.575 327.314C113.076 321.023 116.379 314.574 117.937 308.302C118.329 306.705 115.977 305.597 115.203 307.146Z" fill="var(--color-illustration-secondary, #7F72FF)"/>
<path d="M861.737 313.633C854.084 316.818 851.271 328.02 857.749 333.87C864.227 339.721 875.34 335.546 877.692 327.52C877.851 326.908 877.721 326.256 877.339 325.752C876.957 325.247 876.365 324.946 875.732 324.933C864.864 323.845 859.591 337.879 867.99 344.533C870.038 346.16 872.968 343.337 870.93 341.593C865.324 336.938 868.588 328.853 875.751 328.99L873.791 326.403C872.498 331.94 864.55 334.841 860.189 330.881C855.828 326.922 857.945 318.935 863.129 316.691C864.873 315.927 863.599 312.83 861.816 313.575L861.737 313.633Z" fill="var(--color-illustration-secondary, #7F72FF)"/>
</svg>
