<svg width="1000" height="1000" viewBox="0 0 1000 1000" fill="none" xmlns="http://www.w3.org/2000/svg">
<path d="M339.035 451.069C338.118 459.313 339.873 467.633 344.043 474.804C346.336 478.724 349.482 482.35 353.637 484.183C358.841 486.486 365.064 485.653 370.082 482.987C375.099 480.322 379.068 476 382.332 471.335C394.645 453.36 397.528 430.548 390.074 410.075" fill="#382C80"/>
<path d="M336.34 451.069C335.203 461.339 336.34 471.57 342.533 480.233C348.482 488.583 358.213 492.258 368.131 488.897C377.657 485.653 384.507 477.538 389.377 469.052C394.165 460.595 397.21 451.264 398.335 441.612C399.667 430.763 398.697 418.993 394.415 408.86C393.435 406.606 391.475 405.048 388.897 405.724C386.53 406.409 385.142 408.858 385.771 411.241C388.838 421.11 390.348 431.047 388.985 441.367C387.673 451.279 384.004 460.733 378.284 468.934C373.237 476.147 363.496 484.614 354.235 479.342C345.415 474.353 340.946 460.584 341.789 451.039C342.102 447.511 336.702 447.599 336.32 451.039L336.34 451.069Z" fill="#382C80"/>
<path d="M505.801 356.097C473.932 354.519 442.64 363.506 411.515 370.503C393.941 374.462 376.242 377.797 358.419 380.509C349.501 381.871 340.495 383.076 331.479 382.733C323.492 382.439 315.613 380.93 307.773 379.431C286.213 375.305 264.525 371.15 243.553 364.476C233.587 361.31 221.709 358.067 212.86 352.334C204.539 346.953 198.581 336.487 193.26 328.363C189.438 322.542 182.764 306.93 175.149 306.421C173.678 306.263 172.193 306.56 170.896 307.273C168.662 308.635 167.829 311.477 167.613 314.133C167.064 320.993 169.279 328.098 172.15 334.145C170.993 335.767 168.877 336.39 167.025 335.654C158.705 332.391 151.012 327.05 142.143 325.942C130.383 324.462 118.623 331.068 111.469 340.574C104.315 350.08 101.296 362.055 100.091 373.894C98.964 384.938 99.4148 396.541 104.393 406.469C111.253 420.12 121.886 423.129 135.253 421.982C152.403 420.502 165.408 434.634 180.814 442.778C271.611 490.798 412.789 479.714 493.943 412.3" fill="white"/>
<path d="M505.802 353.167C477.019 351.099 448.413 358.184 420.601 364.672C406.479 367.965 392.337 371.071 378.069 373.659C363.604 376.275 348.669 379.323 333.969 379.196C319.67 379.068 305.323 375.354 291.378 372.551C277.207 369.699 263.075 366.563 249.238 362.408C237.478 358.88 224.16 355.842 213.958 348.688C209.058 345.268 205.383 340.368 202.031 335.556C199.277 331.636 196.514 327.599 194.191 323.404C190.075 316.142 184.607 303.393 174.787 303.059C167.927 302.824 164.605 308.479 164.184 314.643C163.684 322.032 166.144 329.294 169.142 335.919L169.701 331.587C168.211 333.243 165.173 330.891 163.517 330.098C161.087 328.931 158.686 327.697 156.236 326.56C151.444 324.365 146.524 322.522 141.242 322.062C131.363 321.199 121.583 325.639 114.351 332.116C106.687 338.976 101.934 348.58 99.4154 358.429C96.6835 368.902 95.8668 379.781 97.0046 390.544C98.1218 400.128 101.493 410.144 108.48 417.141C114.086 422.717 121.652 425.05 129.423 425.305C133.931 425.442 138.38 424.677 142.859 425.628C147.416 426.725 151.768 428.548 155.746 431.028C164.164 436.016 171.759 442.21 180.471 446.708C211.537 462.858 246.033 471.09 280.784 474.148C317.211 477.323 354.441 475.049 390.005 466.435C424.403 458.105 457.958 443.983 486.525 422.884C489.981 420.323 493.372 417.67 496.698 414.926C500.461 411.81 495.071 406.479 491.347 409.566C465.23 431.126 434.027 446.032 401.628 455.528C367.843 465.48 332.671 469.908 297.473 468.64C263.644 467.337 229.736 460.389 198.552 447.08C190.692 443.844 183.105 439.98 175.865 435.526C168.094 430.626 160.597 425.04 152.022 421.532C147.907 419.794 143.518 418.799 139.056 418.592C134.862 418.445 130.726 419.219 126.522 418.856C118.773 418.287 111.825 413.871 108.02 407.096C102.542 397.845 102.14 386.516 103.12 376.06C104.1 365.926 106.462 355.548 111.685 346.718C116.585 338.379 124.67 331.636 134.372 329.833C144.701 327.873 153.658 333.753 162.723 337.722C166.957 339.564 171.23 340.584 174.679 336.654C175.773 335.478 175.997 333.737 175.238 332.322C172.641 326.795 170.387 320.317 171.083 314.114C171.357 311.674 172.327 309.322 175.248 309.821C176.743 310.259 178.076 311.128 179.08 312.32C182.265 315.515 184.499 319.661 186.694 323.561C188.772 327.246 190.938 330.842 193.182 334.429C199.199 344.053 205.471 352.981 215.839 358.243C226.619 363.702 238.644 366.975 250.198 370.317C263.703 374.237 277.442 377.177 291.221 379.931C304.461 382.557 317.955 385.86 331.489 386.359C345.278 386.869 359.184 384.125 372.718 381.802C386.438 379.45 400.089 376.768 413.672 373.757C444.16 366.955 474.285 358.449 505.792 359.057C509.594 359.135 509.516 353.471 505.792 353.177L505.802 353.167Z" fill="#382C80"/>
<path d="M505.802 356.097C473.932 354.519 442.641 363.506 411.516 370.503C398.56 373.423 385.536 376.004 372.443 378.245C368.523 378.921 358.086 377.951 358.723 383.468C359.007 385.83 363.074 389.789 364.378 391.886C366.338 395.091 368.21 398.403 369.885 401.794C376.47 415.095 380.49 429.517 381.734 444.307C382.978 459.448 376.363 479.939 361.546 486.799C371.522 488.505 381.753 486.486 391.485 483.732C409.673 478.577 426.97 470.865 444.62 464.181C451.715 461.496 460.614 459.977 466.67 455.253C472.403 450.784 478.077 445.963 483.693 441.327" fill="white"/>
<path d="M505.801 353.167C485.221 350.942 464.366 355.009 444.335 359.311C423.5 363.78 402.852 368.984 381.89 372.874C377.881 373.619 373.863 374.834 369.796 375.168C366.935 375.432 363.916 375.442 361.153 376.324C358.595 377.147 356.253 378.764 355.557 381.498C354.734 384.801 356.831 387.761 358.742 390.23C364.289 397.374 368.101 405.842 371.306 414.27C374.781 423.359 377.208 432.815 378.538 442.454C380.567 457.635 374.265 476.549 359.673 483.546C356.88 484.879 357.409 489.935 360.575 490.406C372.335 492.278 383.526 489.71 394.728 486.28C405.929 482.85 417.14 478.597 428.214 474.432C433.663 472.384 439.082 470.257 444.531 468.209C449.284 466.425 454.223 465.19 458.986 463.426C469.58 459.506 477.822 451.069 486.426 443.973C490.18 440.857 484.799 435.526 481.066 438.613C472.961 445.336 465.229 453.313 455.086 456.802C445.354 460.104 435.829 463.534 426.333 467.503C416.196 471.921 405.829 475.791 395.276 479.097C384.79 482.223 373.599 484.82 362.613 483.134L363.515 489.994C376.539 483.663 382.781 468.973 384.389 455.283C386.417 438.054 382.311 419.591 375.088 403.97C373.109 399.673 370.87 395.5 368.385 391.475C366.709 388.75 363.564 386.3 362.358 383.39C362.113 382.782 361.672 382.978 362.78 382.606C364.007 382.218 365.277 381.984 366.562 381.91C369.502 381.655 372.325 381.606 375.226 381.195C395.982 378.255 416.386 373.012 436.77 368.268C459.613 362.947 482.349 359.37 505.83 358.958C509.682 358.89 509.495 353.5 505.83 353.078L505.801 353.167Z" fill="#382C80"/>
<path d="M156.019 233.215C150.041 259.351 144.044 285.468 139.595 311.919C134.578 341.507 131.254 371.357 129.638 401.324C128.589 421.375 128.05 441.504 128.864 461.594C129.05 466.288 136.165 466.337 136.204 461.594C136.429 427.892 136.919 394.366 140.232 360.801C142.956 333.165 147.337 305.735 152.54 278.481C155.333 263.85 158.205 249.238 161.243 234.665C161.948 231.274 156.803 229.765 156.019 233.225V233.215Z" fill="#382C80"/>
<path d="M557.546 290.643C565.67 291.623 563.073 298.933 566.189 303.628C568.845 307.626 574.539 309.4 577.616 313.428C580.35 317.024 589.092 342.406 579.792 343.935C591.885 341.975 604.889 349.08 609.691 360.36C614.493 371.64 610.671 385.957 600.871 393.298C596.265 396.737 590.719 398.658 585.191 400.226C576.707 402.638 568.037 404.342 559.27 405.322C546.295 406.782 531.458 405.959 522.687 396.277C517.562 390.603 515.464 382.763 514.847 375.138C512.985 349.854 525.901 326.138 538.367 304.039" fill="#382C80"/>
<path d="M556.839 293.22C560.22 293.847 560.759 295.523 561.416 298.659C561.935 301.403 562.504 303.951 564.209 306.234C567.374 310.478 573.823 312.722 575.645 317.475C577.38 322.003 578.125 326.912 578.948 331.665C579.386 333.802 579.489 335.994 579.252 338.163C579.252 338.349 578.821 339.368 578.791 339.554C578.762 339.741 578.791 339.554 578.791 339.554C579.673 339.251 579.164 339.368 578.546 339.496C576.077 340.005 574.695 342.886 575.302 345.199C576.008 347.875 578.546 348.796 581.016 348.443C594.128 346.542 606.966 357.341 607.035 370.562C607.103 376.97 604.609 383.141 600.106 387.702C594.481 393.249 586.063 395.209 578.634 397.031C570.468 399.141 562.12 400.476 553.703 401.02C547 401.373 539.885 401.069 533.633 398.364C518.933 391.965 517.953 373.1 520.119 359.331C523.157 340.172 532.859 322.973 542.149 306.264C544.873 301.364 537.455 297.042 534.662 301.883C524.685 319.2 514.484 337.467 511.191 357.439C508.319 374.815 509.985 396.992 527.625 406.038C544.099 414.446 565.365 410.32 582.319 405.92C591.433 403.578 601.155 400.589 607.691 393.415C613.141 387.355 616.239 379.543 616.423 371.395C616.884 351.216 597.803 336.595 578.527 339.456L580.996 348.404C587.513 347.022 588.905 339.829 588.474 334.174C587.974 327.638 585.798 321.532 582.946 315.672C582.1 313.682 580.953 311.835 579.546 310.194C576.508 306.96 571.569 305.568 568.893 302.04C566.992 299.521 567.178 295.925 565.796 293.122C564.13 289.741 561.112 288.398 557.515 287.928C554.575 287.546 553.84 292.642 556.8 293.191L556.839 293.22Z" fill="#382C80"/>
<path d="M515.974 353.333C545.54 341.348 578.057 339.545 609.75 335.909C627.645 333.864 645.454 331.189 663.179 327.883C671.999 326.236 680.947 324.413 689.355 321.121C696.793 318.181 703.742 314.202 710.651 310.203C729.672 299.198 748.763 288.153 766.373 274.923C774.743 268.642 784.895 261.674 791.363 253.363C797.449 245.523 799.635 233.705 801.996 224.267C803.682 217.515 804.848 200.581 811.875 197.592C813.211 196.958 814.709 196.75 816.167 196.994C818.725 197.552 820.45 199.934 821.518 202.354C824.272 208.617 824.536 216.074 823.821 222.748C825.446 223.903 827.65 223.793 829.152 222.484C835.934 216.662 841.441 209.097 849.448 205.128C860.091 199.855 873.389 202.188 883.238 208.852C893.087 215.516 899.898 225.786 904.936 236.547C909.63 246.611 907.092 257.195 905.651 268.201C903.691 283.342 900.555 290.211 887.55 293.524C870.89 297.777 863.237 315.397 851.369 328.157C781.416 403.343 644.471 439.367 545.658 402.421" fill="white"/>
<path d="M516.758 356.156C542.405 346.659 569.502 343.71 596.54 340.995C610.426 339.594 624.284 337.8 638.082 335.703C651.88 333.606 666.081 331.567 679.673 328C692.825 324.551 704.379 318.024 716.051 311.272C728.124 304.294 740.159 297.248 751.811 289.574C762.599 282.559 773.002 274.97 782.975 266.838C787.65 263.168 791.807 258.883 795.333 254.098C798.577 249.463 800.478 243.848 801.977 238.418C803.477 232.989 804.741 227.638 805.77 222.18C806.494 217.471 807.476 212.806 808.71 208.205C809.592 205.265 813.198 196.641 817.255 201.786C821.489 207.176 820.911 216.408 820.254 222.758C820.239 224.036 820.918 225.221 822.028 225.855C826.703 228.501 830.407 226.355 833.955 223.062C837.502 219.769 840.736 216.202 844.401 213.046C851.8 206.495 862.096 204.31 871.518 207.294C881.044 210.096 888.746 217.015 894.43 224.934C897.297 228.954 899.809 233.217 901.937 237.674C904.436 242.877 904.877 248.454 904.485 254.157C904.113 259.488 903.358 264.859 902.525 270.121C902.054 273.773 901.129 277.351 899.771 280.774C896.724 287.712 890.775 288.879 884.219 291.113C867.49 296.826 859.337 314.241 847.959 326.393C824.625 351.148 795.539 370.493 764.659 384.664C732.201 399.54 697.039 408.439 661.514 411.829C627.008 415.132 591.669 412.976 558.437 402.735C554.517 401.52 550.597 400.19 546.677 398.746C542.101 397.041 540.131 404.362 544.668 406.047C578.175 418.503 614.582 422.443 650.126 420.257C687.19 417.984 723.793 408.978 758.034 394.709C790.952 380.989 822.204 362.565 847.675 337.369C853.901 331.127 859.616 324.396 864.766 317.24C869.891 310.223 875.311 302.755 883.19 298.62C886.894 296.66 891.098 296.052 894.881 294.239C897.745 292.883 900.26 290.889 902.231 288.408C907.2 282.087 907.7 273.708 908.856 266.103C910.522 255.078 912.11 244.455 907.317 233.959C903.152 224.826 897.517 215.908 889.834 209.342C882.151 202.776 872.459 198.562 862.237 198.562C851.634 198.562 843.265 203.648 835.905 210.871C834.317 212.419 827.692 220.798 825.644 219.691L827.418 222.787C828.251 213.967 827.349 190.849 813.1 193.721C803.967 195.573 801.948 207.019 800.517 214.683C798.616 224.875 796.724 235.674 792.197 245.063C786.758 256.352 775.537 263.683 765.737 270.915C754.3 279.431 742.393 287.203 730.173 294.553C718.128 301.805 706.016 309.488 693.295 315.515C680.183 321.728 665.542 323.953 651.361 326.403C636.602 328.951 621.775 330.989 606.889 332.606C575.754 335.977 543.6 338.251 514.504 350.805C511.486 352.108 513.651 357.312 516.768 356.156H516.758Z" fill="#382C80"/>
<path d="M545.325 421.326C553.4 424.952 562.357 426.039 571.167 426.921C588.699 428.676 606.447 429.773 623.93 427.901C635.632 426.637 647.137 424.03 658.799 422.384C663.052 421.786 666.854 420.992 670.765 423.09C673.264 424.432 674.9 426.373 677.948 426.333C697.038 426.059 687.219 387.731 684.563 378.029C682.298 369.765 679.371 361.696 675.812 353.902C672.813 347.336 668.511 335.135 662.729 330.607C657.427 326.462 645.882 330.97 639.209 331.999C629.409 333.508 619.586 334.815 609.74 335.919C578.047 339.554 545.53 341.358 515.964 353.343" fill="white"/>
<path d="M543.845 423.854C550.931 427.48 558.731 428.97 566.562 429.96C575.022 431.031 583.516 431.75 592.042 432.116C608.686 432.852 625.36 431.761 641.767 428.862C645.765 428.166 649.764 427.441 653.762 426.784C657.76 426.128 661.984 424.971 665.914 425.354C669.177 425.667 671.392 428.058 674.401 429.068C676.854 429.811 679.474 429.794 681.917 429.019C689.659 426.755 692.266 418.484 692.864 411.261C694.461 391.661 687.062 370.748 678.879 353.441C676.4 348.179 674.469 342.661 671.843 337.487C669.52 332.9 666.453 327.618 661.269 325.923C655.555 324.051 649.176 325.923 643.56 327.207C636.181 328.931 628.605 329.853 621.128 331.038C603.253 333.871 585.152 334.606 567.228 337.016C549.304 339.427 531.732 342.994 514.984 349.698C510.515 351.491 512.466 358.821 517.003 357.008C544.659 345.925 575.195 342.877 604.605 339.809C618.835 338.33 633.309 337.389 647.255 334.076C651.273 333.096 657.77 330.911 661.347 333.92C665.551 337.457 667.923 343.377 670.167 348.228C678.007 365.103 684.093 384.429 685.681 403.108C686.131 408.429 687.082 418.043 682.084 421.728C677.89 424.864 674.587 420.561 670.765 419.042C664.601 416.602 656.888 418.866 650.616 419.915C641.737 421.394 632.898 423.207 623.941 424.197C615.385 425.116 606.777 425.444 598.176 425.177C589.16 424.932 580.154 424.119 571.177 423.305C562.602 422.521 554.253 421.345 546.109 418.405C542.993 417.288 540.905 422.247 543.855 423.756L543.845 423.854Z" fill="#382C80"/>
<path d="M493.561 306.068C499.333 300.374 502.861 292.064 501.548 284.057C500.451 277.334 495.492 271.092 488.906 269.034C480.292 266.358 472.658 275.306 469.189 282.107C467.689 285.047 467.033 289.408 465.102 291.476C462.103 294.68 457.193 293.651 455.028 298.983C453.224 303.422 455.665 309.508 460.388 310.302C456.057 313.408 456.017 320.376 459.31 324.58C462.603 328.784 468.13 330.578 473.491 330.901C479.778 331.26 486.044 329.905 491.621 326.981" fill="#382C80"/>
<path d="M495.903 308.41C502.626 302.04 506.634 292.877 505.282 283.547C504.067 275.149 497.569 266.976 489.102 264.986C480.086 262.86 472.442 269.563 467.767 276.56C465.455 280.029 464.68 283.871 462.867 287.516C461.397 290.456 457.379 290.672 454.929 292.612C447.472 298.492 449.765 311.977 459.32 314.172L457.536 307.42C449.255 314.035 453.126 326.55 461.084 331.43C470.756 337.359 484.075 335.546 493.59 330.362C498.049 327.922 494.129 321.542 489.67 323.639C483.046 326.716 474.647 328.206 467.62 325.599C462.769 323.786 458.026 317.357 463.269 313.153C465.641 311.252 464.249 307.038 461.486 306.401C458.722 305.764 457.497 301.746 459.349 299.463C461.201 297.179 464.739 297.003 466.915 295.258C469.953 292.808 470.835 289.104 472.109 285.605C473.487 282.101 475.615 278.941 478.342 276.344C480.89 273.875 484.222 271.807 487.877 272.856C491.509 274.075 494.51 276.682 496.227 280.108C500.48 288.046 496.883 297.512 491.238 303.726C488.377 306.871 492.816 311.36 495.923 308.41H495.903Z" fill="#382C80"/>
<path d="M469.297 496.266C434.095 558.333 398.848 620.367 363.555 682.368C345.915 713.375 328.275 744.373 310.635 775.36C302.511 789.619 295.474 805.329 283.891 817.236C269.779 831.75 254.491 832.406 235.4 833.896C228.472 834.425 220.504 837.532 219.015 844.313C217.309 852.055 224.973 858.396 231.813 862.394C251.756 874.056 302.726 907.18 325.639 892.049C338.496 883.552 346.875 862.845 354.676 850.203C366.191 831.583 377.451 812.708 387.526 793.226C400.393 768.353 411.81 742.834 428.147 719.843C445.081 695.99 466.249 675.449 483.958 652.165C513.142 613.701 532.334 568.602 539.818 520.903" fill="white"/>
<path d="M467.043 494.943C428.019 563.543 388.914 632.074 349.727 700.537C339.927 717.668 330.15 734.798 320.396 751.928C315.711 760.131 310.958 768.285 306.362 776.536C302.217 783.965 298.355 791.55 293.887 798.792C285.586 812.247 275.169 823.792 259.342 827.712C252.482 829.407 245.377 829.907 238.33 830.436C231.745 830.926 224.914 831.857 219.867 836.581C214.634 841.481 214.35 849.125 218.27 854.907C221.857 860.199 227.384 863.511 232.764 866.716C242.26 872.4 251.717 878.064 261.527 883.18C272.581 888.932 284.165 894.293 296.317 897.262C306.029 899.634 317.289 900.732 326.305 895.499C338.163 888.639 345.013 874.546 351.305 862.953C359.517 847.802 369.023 833.396 377.588 818.451C395.816 786.65 409.566 752.076 430.802 722.068C451.382 692.982 477.94 668.707 497.727 638.964C516.63 610.702 530.386 579.319 538.357 546.266C540.317 538.171 541.768 529.988 542.944 521.766C543.542 517.61 537.26 515.739 536.525 520.002C531.015 552.877 520.118 584.618 504.273 613.944C496.403 628.397 487.308 642.148 477.088 655.046C466.082 668.932 454.038 681.947 442.641 695.51C431.265 708.841 421.068 723.134 412.163 738.228C403.343 753.526 395.669 769.48 387.663 785.268C379.264 801.85 370.131 818.01 360.546 833.935C356.43 840.795 352.069 847.518 348.198 854.515C344.866 860.552 341.72 866.706 338.094 872.596C332.214 882.17 324.855 891.912 312.771 892.559C301.766 893.147 290.653 889.227 280.657 885.042C269.625 880.264 258.917 874.771 248.601 868.598C244.377 866.147 240.202 863.629 236.008 861.15C230.961 858.151 224.032 854.662 222.239 848.586C220.132 841.442 228.481 837.992 234.067 837.237C241.006 836.257 248.023 836.258 254.961 835.101C269.218 832.924 282.093 825.353 290.927 813.953C301.246 801.056 308.234 785.778 316.358 771.499C325.701 755.087 335.033 738.669 344.357 722.244C382.315 655.467 420.16 588.631 457.89 521.736L471.58 497.579C473.246 494.639 468.728 492.003 467.062 494.943H467.043Z" fill="#382C80"/>
<path d="M469.297 496.266C434.095 558.333 398.848 620.367 363.555 682.368C341.858 720.5 327.677 745.382 310.635 775.36C304.892 785.435 296.797 792.794 307.068 801.997C324.939 817.965 346.328 829.489 369.494 835.63C378.647 838.051 385.232 838.668 391.397 831.818C398.521 823.91 403.313 810.905 408.194 801.438C421.061 776.556 432.478 751.047 448.805 728.046C465.749 704.203 486.917 683.662 504.665 660.377C533.853 621.916 553.046 576.815 560.525 529.116" fill="#7F72FF"/>
<path d="M467.043 494.943C437.238 547.275 407.374 599.575 377.451 651.841L336.291 723.969L319.249 753.82L310.753 768.696C307.92 773.645 304.716 778.389 301.933 783.396C299.639 787.483 298.013 792.216 299.522 796.832C301.364 802.467 306.842 806.309 311.282 809.856C321.227 817.838 332.115 824.569 343.7 829.897C349.461 832.535 355.375 834.826 361.409 836.757C366.769 838.472 372.336 840.207 377.981 840.599C389.594 841.412 396.395 832.151 401.412 822.959C404.264 817.736 406.655 812.267 409.252 806.907C412.045 801.125 415.083 795.45 417.974 789.708C424.256 777.232 430.469 764.698 437.408 752.566C444.356 740.354 452.246 728.702 461.006 717.717C469.669 706.937 478.95 696.588 488.035 686.131C505.43 666.139 521.227 645.167 533.614 621.657C545.759 598.869 554.737 574.53 560.3 549.314C561.662 542.944 562.75 536.574 563.651 530.076C564.23 525.931 557.977 524.039 557.232 528.312C548.55 578.047 528.371 625.244 496.747 664.738C480.087 685.553 461.241 704.585 445.787 726.38C430.332 748.175 419.033 772.842 406.851 796.705C401.716 806.76 397.757 817.834 391.054 826.997C388.055 831.093 384.478 834.111 379.196 834.043C373.914 833.974 368.259 832.083 363.163 830.417C351.374 826.664 340.098 821.456 329.598 814.913C324.23 811.593 319.084 807.926 314.192 803.937C310.566 800.997 304.569 797.146 305.372 791.717C306.137 786.817 310.116 782.416 312.575 778.3C315.457 773.459 318.161 768.5 320.954 763.6L337.085 735.2C349.806 712.823 362.516 690.44 375.217 668.05C403.898 617.495 432.501 566.892 461.026 516.239C464.541 510.025 468.052 503.819 471.561 497.619C473.217 494.679 468.709 492.042 467.043 494.982V494.943Z" fill="#382C80"/>
<path d="M519.777 638.337C519.337 637.445 518.843 636.581 518.297 635.75C515.004 630.761 509.663 626.979 503.724 626.283L505.518 625.636C496.492 624.293 486.986 629.027 482.194 636.788C477.481 644.816 477.241 654.707 481.557 662.954C484.056 667.737 488.172 671.902 493.375 673.352C493.611 673.421 493.846 673.46 494.071 673.519C497.668 669.217 501.186 664.865 504.567 660.406C510.016 653.292 515.086 645.935 519.777 638.337Z" fill="white"/>
<path d="M523.049 636.416C519.355 629.36 512.759 623.803 504.733 622.627V629.938L506.526 629.291C510.721 627.772 509.721 622.431 505.546 621.843C491.748 620.099 478.489 629.997 475.5 643.403C472.56 656.496 478.802 673.783 493.14 677.145C494.455 677.511 495.865 677.136 496.824 676.165C506.388 664.788 515.173 652.779 523.118 640.218C525.715 636.073 519.198 632.261 516.571 636.387C508.997 648.418 500.608 659.917 491.464 670.804L495.149 669.824C484.623 667.364 480.625 653.831 483.075 644.452C485.723 634.47 495.379 628.013 505.615 629.38L504.635 621.941L502.842 622.588C499.745 623.705 498.775 629.301 502.842 629.899C509.123 630.81 513.739 634.662 516.63 640.209C518.767 644.57 525.303 640.738 523.049 636.416Z" fill="white"/>
<path d="M309.958 776.438C316.579 778.92 323.791 779.364 330.665 777.712C344.905 774.125 356.145 760.856 357.331 746.225C357.819 741.049 357.003 735.834 354.96 731.054C352.389 725.636 348.446 720.984 343.523 717.56C331.822 738.14 321.836 755.633 310.585 775.38C310.379 775.723 310.174 776.085 309.958 776.438H309.958Z" fill="white"/>
<path d="M308.949 780.094C326.666 786.361 346.336 779.148 355.803 762.914C360.372 755.258 362.107 746.239 360.703 737.434C359.105 727.634 353.137 720.108 345.415 714.247C343.798 713.013 341.152 713.993 340.24 715.6C329.059 735.2 318.063 754.986 306.666 774.488C304.206 778.702 310.752 782.524 313.212 778.31C324.609 758.808 335.595 739.11 346.777 719.432L341.593 720.784C347.698 725.419 352.373 731.701 353.402 739.404C354.288 746.527 352.652 753.736 348.776 759.778C340.623 772.793 325.325 777.732 310.948 772.704C306.352 771.176 304.372 778.486 308.949 780.094Z" fill="white"/>
<path d="M443.63 735.631C436.237 731.184 427.223 730.337 419.13 733.328C410.702 736.425 404.048 743.275 399.628 751.096C397.28 754.948 395.842 759.285 395.424 763.777C394.817 774.557 402.284 787.189 412.231 793.432C422.149 773.832 431.596 754.065 443.63 735.631Z" fill="white"/>
<path d="M445.552 732.358C436.362 727.007 425.155 726.42 415.456 730.78C407.263 734.475 400.756 741.433 396.385 749.185C391.632 757.593 390.26 766.717 393.67 775.87C396.847 784.419 402.688 791.719 410.33 796.695C412.134 797.738 414.442 797.135 415.505 795.343C425.393 775.743 434.928 755.966 446.865 737.523C449.53 733.416 442.945 729.624 440.328 733.701C428.362 752.125 418.827 771.921 408.968 791.521L414.152 790.158C408.295 786.319 403.754 780.779 401.138 774.282C398.198 766.874 399.021 759.925 402.912 753.007C406.371 746.872 411.242 741.413 417.553 738.15C425.206 734.26 434.315 734.544 441.71 738.904C445.973 741.296 449.805 734.749 445.552 732.358Z" fill="white"/>
<path d="M411.349 622.049C419.758 622.97 428.94 620.344 434.164 613.69C438.378 608.339 439.524 601.087 438.829 594.305C437.844 585.159 433.853 576.597 427.48 569.962L399.452 619.246C403.29 620.659 407.285 621.6 411.349 622.049Z" fill="white"/>
<path d="M411.349 625.832C425.001 627.116 438.544 619.952 441.876 606.036C445.208 592.12 439.642 577.39 430.116 567.277C429.279 566.46 428.114 566.072 426.955 566.223C425.795 566.374 424.768 567.047 424.168 568.051L396.159 617.335C395.59 618.356 395.515 619.579 395.956 620.662C396.396 621.744 397.303 622.568 398.423 622.902C402.598 624.374 406.929 625.361 411.33 625.842C416.151 626.42 416.112 618.844 411.33 618.266C407.618 617.81 403.972 616.929 400.462 615.64L402.725 621.206L430.734 571.912L424.785 572.677C432.174 580.517 436.927 592.188 434.791 603.057C432.537 614.474 422.208 619.305 411.349 618.286C406.498 617.806 406.528 625.381 411.349 625.832Z" fill="white"/>
<path d="M467.043 494.943C437.238 547.275 407.374 599.575 377.451 651.841L336.291 723.969L319.249 753.82L310.753 768.696C307.92 773.645 304.716 778.389 301.933 783.396C299.639 787.483 298.013 792.216 299.522 796.832C301.364 802.467 306.842 806.309 311.282 809.856C321.227 817.838 332.115 824.569 343.7 829.897C349.461 832.535 355.375 834.826 361.409 836.757C366.769 838.472 372.336 840.207 377.981 840.599C389.594 841.412 396.395 832.151 401.412 822.959C404.264 817.736 406.655 812.267 409.252 806.907C412.045 801.125 415.083 795.45 417.974 789.708C424.256 777.232 430.469 764.698 437.408 752.566C444.356 740.354 452.246 728.702 461.006 717.717C469.669 706.937 478.95 696.588 488.035 686.131C505.43 666.139 521.227 645.167 533.614 621.657C545.759 598.869 554.737 574.53 560.3 549.314C561.662 542.944 562.75 536.574 563.651 530.076C564.23 525.931 557.977 524.039 557.232 528.312C548.55 578.047 528.371 625.244 496.747 664.738C480.087 685.553 461.241 704.585 445.787 726.38C430.332 748.175 419.033 772.842 406.851 796.705C401.716 806.76 397.757 817.834 391.054 826.997C388.055 831.093 384.478 834.111 379.196 834.043C373.914 833.974 368.259 832.083 363.163 830.417C351.374 826.664 340.098 821.456 329.598 814.913C324.23 811.593 319.084 807.926 314.192 803.937C310.566 800.997 304.569 797.146 305.372 791.717C306.137 786.817 310.116 782.416 312.575 778.3C315.457 773.459 318.161 768.5 320.954 763.6L337.085 735.2C349.806 712.823 362.516 690.44 375.217 668.05C403.898 617.495 432.501 566.892 461.026 516.239C464.541 510.025 468.052 503.819 471.561 497.619C473.217 494.679 468.709 492.042 467.043 494.982V494.943Z" fill="#382C80"/>
<path d="M602.067 498.314C619.854 565.542 626.91 635.122 628.615 704.506C629.468 738.963 629.007 773.449 627.9 807.906C627.4 823.694 625.479 840.511 630.173 855.877C636.23 875.752 657.907 878.623 667.129 895.528C677.037 913.678 653.693 916.676 640.963 916.245C616.326 915.422 590.758 907.905 567.767 899.477C562.553 897.517 557.144 895.332 553.674 890.991C548.618 884.679 548.647 875.997 548.52 868.343C547.726 817.589 547.54 767.491 551.46 716.835C551.832 711.994 552.224 707.103 551.587 702.292C550.774 696.137 548.324 690.336 546.05 684.554C522.873 625.754 535.074 649.44 545.58 587.073" fill="white"/>
<path d="M599.539 499.02C616.395 563.328 623.363 629.664 625.352 696C626.381 730.359 626.058 764.747 625.029 799.096C624.568 814.776 622.706 830.701 624.862 846.263C625.754 852.8 627.302 859.454 630.869 865.089C633.741 869.407 637.327 873.205 641.473 876.32C649.734 882.827 659.848 888.139 664.719 897.939C666.296 901.114 667.159 904.848 664.474 907.641C661.788 910.434 657.349 911.463 653.694 912.149C642.247 914.285 629.909 912.521 618.6 910.493C602.675 907.631 587.142 902.868 571.932 897.4C565.494 895.087 558.153 892.853 554.733 886.375C551.489 880.22 552.028 872.576 551.93 865.795C551.695 848.87 551.529 831.945 551.578 815.021C551.676 780.986 553.175 747.127 555.351 713.17C555.912 705.342 554.799 697.484 552.087 690.12C549.5 683.035 546.58 676.067 543.934 668.991C541.101 661.435 537.74 653.047 536.731 645.256C536.094 640.277 536.858 636.436 538.377 631.349C540.719 623.509 543.277 615.807 545.09 607.829C546.58 601.263 547.746 594.619 548.775 587.965C549.412 583.81 543.14 581.938 542.356 586.201C540.213 597.911 537.396 609.488 533.918 620.873C532.125 626.685 529.92 632.447 529.263 638.513C528.577 644.932 530.184 651.371 532.085 657.457C536.005 669.971 541.621 681.849 545.805 694.246C548.657 702.644 548.255 710.622 547.618 719.334C546.981 728.046 546.472 736.876 546.05 745.657C545.227 763.15 544.796 780.652 544.639 798.165C544.482 815.678 544.58 833.22 544.816 850.742C544.914 858.876 544.816 867.079 545.276 875.242C545.707 882.102 547.177 888.962 551.881 894.176C556.585 899.389 563.641 901.653 570.1 903.976C577.851 906.749 585.691 909.317 593.62 911.561C609.153 915.951 625.303 919.264 641.493 919.626C649.793 919.822 659.819 919.146 666.826 914.197C675.851 907.817 672.823 897.145 667.041 889.56C660.25 880.632 649.96 875.84 641.894 868.323C631.261 858.386 630.134 843.598 630.242 829.79C630.37 812.855 631.438 795.901 631.761 778.967C632.094 761.327 632.183 743.67 632.026 725.998C631.32 657.672 625.813 589.18 610.74 522.471C608.845 514.154 606.804 505.87 604.615 497.619C603.753 494.355 598.735 495.737 599.568 499.01L599.539 499.02Z" fill="#382C80"/>
<path d="M517.914 546.305C513.212 572.654 511.63 599.466 513.2 626.185C514.425 647.078 518.463 666.139 523.177 686.661C524.568 692.717 527.91 698.244 528.724 704.399C529.351 709.21 528.959 714.101 528.596 718.942C527.185 737.379 526.1 755.836 525.343 774.312C524.637 791.227 523.226 808.69 525.774 825.546C526.264 828.819 549.166 833.318 552.44 834.033C562.106 836.122 571.952 837.271 581.84 837.463C593.315 837.679 623.235 839.492 627.841 825.997C630.124 819.323 627.939 809.807 628.105 802.82C628.37 792.04 628.693 781.358 628.86 770.617C629.213 748.577 629.213 726.517 628.664 704.506C626.959 635.122 619.903 565.542 602.116 498.314" fill="#7F72FF"/>
<path d="M556.497 689.14C552.829 687.379 548.805 686.487 544.737 686.533C540.42 686.308 536.116 687.174 532.222 689.052C529.752 690.351 527.548 692.103 525.725 694.216C527.137 697.482 528.16 700.903 528.772 704.408C529.4 709.22 529.008 714.11 528.645 718.952C528.175 725.086 527.747 731.231 527.361 737.385C534.084 746.382 544.443 750.537 555.713 742.285C566.151 734.325 570.922 720.963 567.884 708.191C566.11 701.4 562.984 692.511 556.497 689.14Z" fill="white"/>
<path d="M558.408 685.857C546.912 680.291 531.761 681.81 522.99 691.521C522.023 692.483 521.649 693.891 522.01 695.206C524.32 700.791 525.406 706.806 525.195 712.846C524.941 718.971 524.333 725.086 523.921 731.192C523.735 733.857 522.814 737.287 524.323 739.63C525.734 741.69 527.452 743.521 529.419 745.059C532.826 747.961 537.011 749.798 541.454 750.341C551.254 751.409 560.132 744.892 565.62 737.327C571.126 729.614 573.469 720.086 572.167 710.7C570.883 701.606 566.826 690.571 558.447 685.837C554.194 683.446 550.362 689.993 554.625 692.384C561.965 696.51 565.15 708.377 565.023 716.257C564.866 725.665 559.976 735.249 551.871 740.247C547.647 742.844 542.757 743.824 538.151 741.717C536.297 740.841 534.607 739.654 533.153 738.209C532.385 737.63 531.722 736.924 531.193 736.121C530.772 735.004 531.438 732.417 531.526 731.221C531.967 724.714 532.683 718.187 532.839 711.621C532.939 705.293 531.749 699.011 529.341 693.158L528.361 696.843C534.76 689.757 546.05 688.219 554.595 692.364C558.947 694.52 562.798 687.984 558.408 685.857Z" fill="white"/>
<path d="M621.686 603.253C617.701 605.427 614.262 608.48 611.631 612.18C606.183 620.02 604.477 629.938 605.007 639.454C605.477 647.784 607.878 656.584 614.248 661.994C617.472 664.728 622.196 666.335 627.125 666.698C625.949 645.491 624.195 624.323 621.686 603.253V603.253Z" fill="white"/>
<path d="M619.775 599.96C605.409 608.143 600.126 624.607 601.283 640.395C601.792 647.402 603.488 654.673 607.721 660.416C612.465 666.845 619.315 669.736 627.125 670.451C629.21 670.441 630.897 668.753 630.908 666.669C629.732 645.471 627.968 624.313 625.469 603.233C624.911 598.441 617.325 598.392 617.894 603.233C620.393 624.313 622.157 645.471 623.333 666.669L627.125 662.876C621.177 662.337 616.091 659.818 612.945 654.624C610.005 649.773 608.956 643.972 608.75 638.376C608.27 625.822 612.141 613.023 623.597 606.497C627.831 604.105 624.019 597.559 619.775 599.96Z" fill="white"/>
<path d="M629.017 753.144L628.635 752.84L629.017 752.752V752.575C619.189 751.511 609.903 757.287 606.514 766.573C603.124 775.859 606.506 786.259 614.709 791.775C616.817 793.274 619.286 794.184 621.863 794.412C624.118 794.504 626.354 793.957 628.311 792.834C628.507 785.425 628.693 778.006 628.811 770.598C628.909 764.789 628.978 758.971 629.017 753.144Z" fill="white"/>
<path d="M631.692 750.459L631.31 750.165L629.634 756.495L630.026 756.407C631.66 755.941 632.79 754.451 632.799 752.752V752.575C632.733 750.513 631.079 748.854 629.016 748.783C614.797 747.607 601.508 759.132 601.518 773.557C601.527 787.983 615.326 803.682 630.222 796.097C631.385 795.417 632.1 794.171 632.103 792.824C632.437 779.584 632.701 766.364 632.799 753.114C632.799 748.214 625.263 748.214 625.224 753.114C625.126 766.354 624.861 779.574 624.528 792.824L626.4 789.551C616.139 794.764 608.348 780.26 609.162 771.793C610.142 761.993 619.638 755.555 629.016 756.329L625.224 752.546V752.722L628.007 749.067L627.625 749.155C625.038 749.733 623.705 753.722 625.949 755.486L626.331 755.79C630.114 758.818 635.514 753.487 631.692 750.459Z" fill="white"/>
<path d="M557.693 799.635C552.998 793.755 544.678 791.285 537.338 792.971C532.255 794.219 527.699 797.046 524.324 801.046C524.152 809.238 524.637 817.431 525.774 825.546C526.264 828.819 549.167 833.317 552.44 834.033L553.684 834.288C555.798 832.902 557.641 831.141 559.123 829.094C562.828 823.86 563.445 816.951 562.308 810.64C561.697 806.649 560.111 802.869 557.693 799.635Z" fill="white"/>
<path d="M560.368 796.94C553.057 788.228 540.346 786.552 530.419 791.491C527.961 792.745 525.694 794.342 523.686 796.234C522.662 797.048 521.775 798.021 521.06 799.116C520.188 800.772 520.521 802.918 520.531 804.731C520.531 811.669 520.531 819.108 522.03 825.928C522.716 829.123 525.391 830.456 528.204 831.593C531.738 832.946 535.364 834.05 539.053 834.895C542.404 835.728 545.785 836.473 549.156 837.189C550.136 837.385 551.116 837.61 552.096 837.796C555.193 838.374 557.183 836.659 559.358 834.601C569.05 825.399 568.766 808.024 560.995 797.704C558.055 793.853 551.528 797.626 554.458 801.526C560.946 810.15 561.24 824.4 551.812 830.995L554.752 830.613C548.108 829.27 541.434 827.869 534.946 825.899C533.443 825.485 531.967 824.978 530.527 824.38C530.066 824.184 529.37 823.586 528.9 823.527C528.616 823.527 528.518 823.361 528.949 823.527C529.38 823.694 529.419 825.419 529.39 823.772C529.311 820.097 528.567 816.364 528.41 812.679C528.214 808.759 528.175 804.839 528.204 800.987L527.097 803.673C534.515 795.392 547.334 793 555.095 802.252C558.153 806.054 563.484 800.674 560.368 796.94Z" fill="white"/>
<path d="M515.396 545.609C510.564 572.385 508.899 599.637 510.437 626.802C511.291 639.809 513.014 652.744 515.592 665.522C516.866 672.058 518.267 678.556 519.747 685.053C521.109 691.051 523.873 696.558 525.304 702.527C526.862 709.024 525.774 716.051 525.304 722.626C524.788 729.598 524.311 736.569 523.873 743.54C523.03 757.034 522.452 770.529 521.805 784.033C521.158 797.538 520.649 810.964 522.452 824.341C522.883 827.526 524.059 829.054 526.97 830.417C530.074 831.772 533.291 832.854 536.584 833.651C553.537 838.17 570.98 840.595 588.524 840.873C596.328 841.193 604.145 840.73 611.857 839.491C618.472 838.296 625.94 835.846 629.693 829.829C632.104 825.958 632.339 821.009 632.212 816.559C632.036 810.679 631.418 804.966 631.565 799.106C631.928 785.454 632.29 771.803 632.447 758.142C632.741 730.927 632.447 703.693 631.203 676.498C628.782 623.029 623.274 568.953 610.525 516.866C608.927 510.349 607.173 503.881 605.34 497.422C604.174 493.297 597.902 495.031 598.921 499.196C611.183 549.419 619.157 600.592 622.755 652.164C624.558 678.095 625.44 704.104 625.695 730.074C625.806 743.383 625.757 756.688 625.548 769.99C625.46 776.399 625.313 782.798 625.156 789.198C625.009 795.264 624.578 801.399 624.97 807.465C625.47 815.011 628.018 825.389 620.178 829.897C614.004 833.455 606.066 833.974 599.098 834.268C582.289 834.978 565.458 833.549 549.01 830.015C542.748 828.672 535.888 827.545 530.047 824.831C529.724 824.684 528.979 824.076 528.636 824.076C528.136 824.076 528.704 823.782 528.851 824.497C528.343 821.232 528.016 817.94 527.871 814.639C527.45 808.122 527.479 801.575 527.656 795.039C528.391 769.245 529.929 743.451 531.801 717.717C532.252 711.572 532.536 705.32 530.821 699.332C529.106 693.55 526.715 688.16 525.363 682.25C522.511 669.795 519.796 657.3 518.003 644.638C514.377 619.031 514.73 592.698 517.65 567.042C518.414 560.329 519.404 553.645 520.59 546.991C521.168 543.698 516.131 542.277 515.543 545.599L515.396 545.609Z" fill="#382C80"/>
<path d="M457.86 521.638C467.031 529.999 476.762 537.723 486.986 544.757C489.922 546.93 493.123 548.722 496.512 550.088C504.508 553.028 513.338 551.342 521.845 551.509C531.694 551.685 541.366 554.341 551.245 554.586C571.403 555.076 590.611 545.413 606.36 532.801C602.204 519.622 597.366 506.669 591.866 493.993C553.331 511.271 510.515 516.649 468.905 509.437" fill="#382C80"/>
<path d="M455.821 523.667C464.152 531.624 472.991 539.032 482.281 545.844C486.711 549.088 491.209 552.43 496.511 554.096C501.587 555.693 507.036 555.733 512.299 555.556C518.019 555.236 523.755 555.347 529.458 555.889C535.338 556.585 541.15 557.702 547.049 558.202C557.578 559.038 568.163 557.57 578.066 553.9C589.483 549.706 599.773 543.247 609.279 535.731C610.363 534.683 610.778 533.121 610.357 531.674C606.095 518.145 601.123 504.851 595.461 491.846C594.481 489.661 591.541 489.445 589.719 490.337C571.402 499.226 550.519 504.292 530.389 506.595C520.35 507.763 510.242 508.241 500.137 508.026C489.641 507.781 479.302 506.38 468.875 505.38C464.298 504.939 463.446 512.24 467.797 513.318C478.293 515.964 489.357 516.719 500.137 516.954C510.617 517.191 521.1 516.638 531.497 515.298C552.939 512.495 573.01 506.223 592.943 498.02L588.2 496.08C593.511 508.438 598.196 521.07 602.292 533.879L603.37 529.821C588.396 541.777 569.658 551.479 550.019 550.656C539.239 550.205 528.753 547.383 517.914 547.716C512.936 547.863 507.859 548.392 502.9 547.716C497.608 547.03 493.169 544.472 488.798 541.581C478.699 534.879 469.039 527.537 459.878 519.6C457.115 517.209 453.116 521.07 455.821 523.657V523.667Z" fill="#382C80"/>
<path d="M466.092 386.32C453.714 396.061 448.285 413.76 453.087 428.774C454.92 434.536 458.085 439.808 459.898 445.581C464.935 461.604 459.026 478.714 456.899 495.374C456.38 499.402 456.096 503.557 457.174 507.468C462.407 526.372 493.336 535.603 509.956 537.289C536.17 539.912 562.603 535.32 586.396 524.01C591.394 521.629 596.441 518.816 599.813 514.112C605.693 505.89 605.163 494.238 603.733 483.869C598.323 443.425 592.953 428.803 585.328 398.531" fill="white"/>
<path d="M464.014 384.193C453.805 392.618 448.026 405.261 448.334 418.493C448.51 425.745 450.921 432.164 453.832 438.711C457.387 446.227 459.027 454.506 458.604 462.809C458.144 471.188 456.194 479.371 454.684 487.603C453.371 494.982 451.744 503.018 454.469 510.261C458.261 520.404 467.709 527.166 477.146 531.654C501.225 543.11 529.302 543.777 555.056 538.396C562.858 536.773 570.512 534.504 577.939 531.615C584.985 528.881 592.433 525.931 598.303 521.06C610.063 511.339 609.083 495.247 607.221 481.596C605.144 466.396 602.557 451.274 599.009 436.349C595.912 423.335 592.227 410.467 588.846 397.521C587.67 392.994 580.703 394.905 581.83 399.481C587.21 421.257 593.394 442.768 597.118 464.926C598.343 472.178 599.519 479.479 600.322 486.799C601.038 493.267 601.39 500.059 599.43 506.35C597.372 512.985 592.208 516.885 586.24 519.914C579.483 523.283 572.45 526.066 565.219 528.234C540.719 535.711 513.2 537.269 488.72 528.841C479.606 525.705 469.492 521.001 463.671 512.975C460.055 507.977 459.506 502.499 460.143 496.452C460.966 488.701 462.769 481.076 463.887 473.373C465.043 465.308 465.66 457.164 464.053 449.109C462.377 440.71 457.301 433.585 455.312 425.314C452.038 411.751 457.438 397.1 468.15 388.378C471.09 385.987 466.915 381.871 463.994 384.213L464.014 384.193Z" fill="#382C80"/>
<path d="M489.729 401.5C481.678 389.423 478.739 374.648 481.556 360.409C482.722 354.627 485.006 348.796 489.484 344.944C492.581 342.279 496.472 340.77 500.313 339.388C506.703 337.104 513.289 335.037 520.07 334.85C526.852 334.664 533.937 336.575 538.798 341.309C544.061 346.434 546.021 354.049 546.756 361.369C547.628 370.091 547.04 379.117 543.61 387.173C540.18 395.228 533.614 402.216 525.264 404.813" fill="white"/>
<path d="M492.062 400.138C485.921 390.478 482.982 379.127 483.663 367.7C484.016 362.29 485.133 356.548 487.887 351.814C490.984 346.512 496.149 344.249 501.695 342.298C511.77 338.761 524.872 335.546 534.359 342.298C543.179 348.61 543.904 362.428 543.277 372.228C542.512 384.331 536.515 397.198 524.304 401.343C519.953 402.823 521.795 409.732 526.264 408.272C539.063 404.058 547.354 392.357 549.784 379.431C552.146 367.132 551.509 351.011 543.296 340.828C534.182 329.509 518.502 329.999 505.909 334.047C499.667 336.056 492.777 338.124 487.662 342.377C482.762 346.424 480.135 352.549 478.842 358.606C475.495 373.91 478.608 389.918 487.446 402.853C489.406 405.685 494.002 403.098 492.121 400.118L492.062 400.138Z" fill="#382C80"/>
<path d="M494.237 347.218V374.129C494.237 383.341 496.197 393.533 508.565 395.385C514.158 396.221 519.832 394.518 524.039 390.74C526.612 388.107 528.45 384.847 529.37 381.283C533.222 368.249 529.576 354.45 530.997 341.054" fill="white"/>
<path d="M491.641 347.218C491.582 357.234 490.661 367.337 491.141 377.343C491.425 383.586 492.993 390.211 497.942 394.444C504.126 399.726 513.367 400.491 520.678 397.306C529.498 393.464 533.163 384.566 534.398 375.53C535.027 370.039 535.161 364.503 534.8 358.988C534.545 353.029 534.8 346.983 534.281 341.054C533.977 337.477 528.861 336.409 527.803 340.172C523.755 354.46 535.996 393.092 510.035 391.916C502.264 391.563 498.462 385.967 497.589 378.774C497.041 374.227 497.266 369.533 497.197 364.956C497.119 359.076 496.874 353.137 496.854 347.218C496.854 343.866 491.66 343.866 491.651 347.218H491.641Z" fill="#382C80"/>
<path d="M513.299 352.353C528.979 352.284 541.846 341.328 545.972 329.45C549.892 318.249 551.225 303.578 545.109 292.916C536.975 278.745 517.728 275.727 502.891 278.971C489.847 281.813 480.449 287.124 477.715 301.187C474.334 318.514 479.43 337.065 494.473 347.247" fill="white"/>
<path d="M513.299 355.264C528.92 355.029 543.62 345.092 548.941 330.264C554.263 315.437 554.762 295.582 542.179 284.155C531.321 274.296 514.935 272.787 501.156 275.913C494.581 277.403 488.005 279.833 482.909 284.381C477.538 289.183 474.902 296.003 473.854 303.001C471.119 321.17 477.215 339.702 492.689 350.325C496.452 352.902 499.912 346.826 496.247 344.239C485.055 336.33 479.841 322.885 480.302 309.459C480.498 303.471 481.517 296.983 485.202 292.054C488.358 287.801 493.189 285.302 498.128 283.724C509.379 280.137 522.765 279.667 533.3 285.684C546.197 293.093 547.863 308.783 544.874 322.111C543.267 329.274 540.396 335.507 534.976 340.593C529.096 346.104 521.385 349.246 513.328 349.413C509.584 349.492 509.575 355.293 513.328 355.235L513.299 355.264Z" fill="#382C80"/>
<path d="M499.02 306.715C498.226 308.92 498.187 311.429 497.952 313.751C497.775 315.535 497.246 317.671 497.903 319.406C498.883 321.885 502.205 322.552 503.626 320.151C504.802 318.191 501.813 316.466 500.578 318.357C501.558 316.789 501.333 314.114 501.46 312.311C501.691 310.452 501.691 308.573 501.46 306.715C501.225 305.372 499.402 305.666 499.02 306.715Z" fill="#382C80"/>
<path d="M509.536 302.932C512.374 301.974 515.407 301.748 518.356 302.275C518.856 302.363 520.757 303.187 520.522 301.795C520.522 301.952 515.808 300.433 515.406 300.364C513.671 300.07 511.917 300.433 510.202 300.08C508.242 299.678 507.429 302.569 509.379 303.02C510.996 303.304 512.638 303.426 514.279 303.383C515.867 303.471 517.219 304.363 518.738 304.657C520.531 304.941 523.217 304.853 523.03 302.383C522.854 300.07 520.355 299.551 518.513 299.306C515.26 298.869 511.95 299.233 508.869 300.364C507.292 300.933 507.958 303.441 509.565 302.893L509.536 302.932Z" fill="#382C80"/>
<path d="M494.747 294.337C491.508 293.197 488.041 292.861 484.643 293.357C483.134 293.543 480.723 293.69 480.851 295.778C480.958 297.61 483.065 298.091 484.545 298.247C487.836 298.448 491.138 298.409 494.424 298.13C495.279 298.13 495.972 297.437 495.972 296.581C495.972 295.726 495.279 295.033 494.424 295.033C492.219 295.033 490.014 295.092 487.809 295.16C486.995 295.16 486.182 295.258 485.368 295.229C484.864 295.112 484.348 295.053 483.83 295.053C483.212 294.808 483.134 295.288 483.604 296.483C483.946 296.403 484.293 296.348 484.643 296.317C485.466 296.189 486.299 296.072 487.132 296.003C489.474 295.821 491.828 296.118 494.051 296.875C495.658 297.414 496.325 294.915 494.747 294.347V294.337Z" fill="#382C80"/>
<path d="M507.311 406.263C510.869 406.263 510.878 400.726 507.311 400.726C503.744 400.726 503.744 406.263 507.311 406.263Z" fill="#382C80"/>
<path d="M492.856 538.563C492.542 552.763 492.856 566.983 493.728 581.174C494.14 587.887 494.708 594.59 495.492 601.254C495.894 604.468 496.227 607.418 498.599 609.819C500.48 611.72 503.411 612.759 504.547 615.268C506.155 618.864 512.525 616.248 510.986 612.553C509.922 610.131 508.157 608.083 505.919 606.673C504.878 606.098 503.938 605.357 503.136 604.478C502.235 603.204 502.225 601.44 502.009 599.95C501.029 593.208 500.412 586.426 499.873 579.645C498.795 565.993 498.207 552.283 498.207 538.593C498.207 535.133 492.925 535.143 492.856 538.593V538.563Z" fill="#382C80"/>
<path d="M561.034 564.21C566.443 573.794 577.821 581.683 589.199 579.645C593.217 578.929 591.698 573.52 588.307 573.108C579.291 572.01 571.108 569.453 566.091 561.26C564.131 558.045 559.172 560.917 561.034 564.2V564.21Z" fill="#382C80"/>
<path d="M437.642 555.566C444.204 558.268 451.49 558.655 458.301 556.664C462.573 555.36 460.809 548.99 456.458 549.99C450.806 551.421 444.867 551.248 439.308 549.49C435.388 548.216 433.957 554.106 437.642 555.566Z" fill="#382C80"/>
<path d="M668.805 894.176C663.523 887.864 655.938 882.759 649.734 878.251C641.62 872.371 633.78 866.02 630.752 855.946C629.683 852.318 628.919 848.607 628.468 844.852C617.666 848.328 606.548 850.734 595.276 852.036C595.648 857.024 595.922 862.443 593.12 866.559C588.984 872.655 580.38 873.037 573.088 872.439C569.391 872.113 565.702 871.691 562.024 871.175C559.888 870.861 551.646 868.176 550.039 869.411C546.658 871.998 549.833 890.706 550.382 894.568C550.754 897.165 551.274 899.86 552.92 901.878C554.375 903.445 556.173 904.653 558.173 905.406C570.344 910.836 583.908 912.756 597 914.579C607.957 916.108 618.766 918.215 629.85 918.499C643.119 918.823 657.231 920.822 668.991 914.579C670.801 913.717 672.344 912.383 673.46 910.718C675.195 907.856 674.607 904.103 673.215 901.065C672.066 898.578 670.583 896.26 668.805 894.176Z" fill="#382C80"/>
<path d="M671.5 891.5C664.532 883.396 655.241 878.104 647 871.469C643.18 868.596 639.868 865.105 637.2 861.14C634.171 856.24 632.946 850.478 632.211 844.852C631.908 842.549 630.016 840.364 627.419 841.197C616.934 844.558 606.155 846.92 595.226 848.253C593.266 848.478 591.306 849.801 591.434 852.036C591.737 856.103 592.355 861.13 589.797 864.648C587.69 867.588 583.79 868.5 580.399 868.745C572.735 869.294 564.944 867.892 557.516 866.187C554.762 865.56 551.028 864.501 548.343 865.952C546.314 867.059 545.403 869.333 545.031 871.508C544.051 877.467 545.031 883.788 545.834 889.717C546.677 895.901 547.069 902.712 552.616 906.651C556.379 909.327 561.289 910.855 565.66 912.227C570.404 913.695 575.235 914.867 580.124 915.736C600.291 919.571 620.715 921.893 641.227 922.684C651.468 923.037 662.67 922.733 671.715 917.294C682.368 910.895 677.742 899.242 671.441 891.5C668.354 887.718 663.023 893.108 666.08 896.851C668.246 899.517 671.784 904.191 670.559 907.896C669.334 911.6 663.277 913.041 660.004 913.854C651.939 915.873 643.442 915.207 635.22 914.834C616.628 913.966 598.13 911.673 579.889 907.974C575.763 907.169 571.684 906.142 567.669 904.897C564.121 903.78 558.849 902.565 556.163 899.801C553.478 897.037 553.312 889.295 552.861 885.346C552.557 882.661 552.302 879.956 552.253 877.251C552.199 876.203 552.199 875.153 552.253 874.105C552.253 873.9 552.341 873.184 552.371 872.998C552.4 872.812 552.498 872.41 552.577 872.116C552.733 871.646 552.753 871.597 552.577 871.959C552.645 871.959 550.205 872.253 551.44 872.812C551.823 872.869 552.209 872.895 552.596 872.89C553.918 873.085 555.227 873.36 556.516 873.713C559.505 874.45 562.535 875.006 565.591 875.379C573.578 876.359 582.467 877.594 590.003 873.939C598.588 869.774 599.577 860.513 598.95 852.006L595.167 855.799C606.774 854.444 618.226 851.989 629.369 848.469L624.577 844.823C625.371 850.85 626.459 856.926 629.193 862.463C631.729 867.254 635.174 871.504 639.336 874.978C648.019 882.573 658.436 888.031 666.021 896.861C669.304 900.565 674.645 895.185 671.5 891.5Z" fill="#382C80"/>
<path d="M228.178 834.817C235.92 832.122 244.985 831.642 252.57 830.966C262.497 830.074 272.415 828.682 280.176 821.607C282.961 819.051 285.525 816.265 287.84 813.277C295.198 821.797 303.381 829.567 312.271 836.473C309.38 840.54 306.391 845.048 306.597 850.017C306.96 857.357 314.075 862.11 320.562 865.295C323.868 866.922 327.216 868.454 330.607 869.891C332.567 870.724 340.936 872.655 341.671 874.537C343.2 878.457 330.891 892.872 328.392 895.901C326.736 897.929 324.904 899.977 322.463 900.859C320.43 901.457 318.285 901.568 316.201 901.183C303.069 899.585 290.584 894.264 278.54 889.109C268.465 884.797 258.215 881.044 248.679 875.585C237.262 869.049 224.267 863.521 217.535 852.134C216.427 850.482 215.784 848.563 215.673 846.577C215.673 843.226 218.113 840.325 220.867 838.424C223.131 836.899 225.59 835.685 228.178 834.817Z" fill="#382C80"/>
<path d="M229.187 838.463C240.045 834.847 251.59 835.454 262.752 833.484C268.099 832.659 273.239 830.816 277.893 828.055C282.871 824.949 286.899 820.509 290.515 815.952H285.155C292.537 824.448 300.719 832.216 309.586 839.149L308.998 834.562C304.333 841.177 300.55 848.91 304.657 856.779C308.136 863.443 315.437 867.118 321.973 870.156C325.001 871.681 328.124 873.01 331.322 874.135C332.626 874.546 333.949 874.919 335.242 875.36C335.331 875.36 338.584 876.751 338.604 876.732C338.202 877.045 338.182 875.546 338.016 875.438C337.849 875.33 338.192 875.36 337.839 875.987C337.379 876.781 337.065 877.702 336.605 878.515C335.211 880.899 333.666 883.19 331.979 885.375C330.627 887.188 329.206 888.952 327.765 890.707C326.119 892.667 324.482 895.332 322.277 896.704C318.984 898.762 313.8 897.086 310.311 896.342C305.75 895.325 301.259 894.016 296.866 892.422C288.046 889.286 279.52 885.405 270.886 881.828C262.535 878.332 254.382 874.38 246.464 869.989C239.349 866.069 231.862 862.375 225.982 856.671C223.611 854.358 219.367 850.193 219.465 846.558C219.573 842.187 225.825 839.698 229.187 838.443C233.734 836.797 231.774 829.466 227.227 831.142C219.7 833.876 210.204 839.56 212.233 849.027C213.938 856.975 221.592 863.472 227.913 867.882C243.691 878.839 261.762 886.022 279.324 893.5C288.741 897.508 298.287 901.477 308.332 903.643C312.889 904.623 318.386 905.975 323.032 904.623C326.707 903.554 329.264 900.801 331.626 897.949C335.369 893.59 338.845 889.008 342.034 884.229C344.582 880.24 348.11 873.88 342.916 870.401C340.123 868.539 336.565 867.775 333.4 866.765C328.961 865.223 324.67 863.281 320.582 860.964C316.985 859.004 312.83 856.505 311.125 852.585C308.89 847.459 312.781 842.334 315.603 838.326C316.48 836.842 316.238 834.953 315.015 833.739C306.15 826.8 297.969 819.03 290.584 810.533C289.349 809.112 286.438 809.014 285.223 810.533C281.813 814.835 278.069 819.206 273.257 821.989C268.847 824.537 263.791 825.723 258.793 826.448C248.238 827.957 237.468 827.693 227.246 831.103C222.572 832.691 224.542 840.06 229.187 838.463Z" fill="#382C80"/>
<path d="M266.927 821.254C270.847 825.35 272.003 829.192 272.121 834.768C272.146 835.616 272.781 836.32 273.621 836.434C274.461 836.549 275.261 836.039 275.512 835.229C277.08 829.29 273.875 822.087 268.887 818.725C267.329 817.667 265.702 819.96 266.927 821.254Z" fill="white"/>
<path d="M256.96 826.281C259.868 828.997 261.533 832.788 261.566 836.767C261.566 837.747 262.36 838.541 263.34 838.541C264.319 838.541 265.113 837.747 265.113 836.767C265.427 831.622 262.761 826.967 258.743 823.968C257.411 822.988 255.735 825.164 256.96 826.281Z" fill="white"/>
<path d="M248.611 828.075C250.172 830.928 251.207 834.038 251.668 837.257C252.021 839.59 255.657 838.629 255.236 836.277C254.605 832.784 253.25 829.463 251.257 826.526C250.796 825.874 249.913 825.684 249.224 826.087C248.535 826.49 248.268 827.353 248.611 828.075Z" fill="white"/>
<path d="M217.241 844.107C250.365 872.361 291.133 891.853 334.184 898.889C336.889 899.33 338.104 895.214 335.331 894.734C292.838 887.296 252.628 869.529 219.112 842.226C217.809 841.167 215.927 842.99 217.241 844.107Z" fill="white"/>
<path d="M668.325 904.368C647.905 906.984 627.264 907.415 606.752 905.651C585.956 903.809 565.651 899.311 545.717 893.205C543.679 892.578 542.866 895.675 544.845 896.371C584.114 910.159 627.665 913.531 668.717 907.229C670.315 906.984 669.962 904.162 668.325 904.368Z" fill="white"/>
<path d="M633.976 860.179C630.515 863.212 627.716 866.925 625.754 871.087C624.862 872.968 627.714 874.595 628.537 872.714C630.3 868.752 632.885 865.211 636.122 862.326C637.582 861.022 635.436 858.905 633.976 860.179Z" fill="white"/>
<path d="M640.395 868.705C637.661 871.108 635.711 874.276 634.799 877.8C634.436 879.525 636.965 880.838 637.808 879.074C639.022 876.183 640.737 873.529 642.874 871.234C644.481 869.636 642.031 867.206 640.395 868.754V868.705Z" fill="white"/>
<path d="M648.206 875.271C645.963 877.464 644.262 880.148 643.237 883.111C642.482 885.326 645.863 886.169 646.687 884.091C647.59 881.724 648.918 879.542 650.607 877.653C652.047 876.065 649.774 873.733 648.245 875.291L648.206 875.271Z" fill="white"/>
<path d="M647.48 864.011C647.515 860.42 648.328 856.88 649.862 853.633C650.45 852.447 651.684 850.232 651.822 852.653C651.9 854.613 650.744 856.798 649.803 858.396C649.038 859.699 650.342 861.738 651.91 861.14C652.978 860.738 657.163 859.18 657.702 860.689C658.054 861.738 652.802 863.972 652.145 864.197C649.793 865.001 650.822 868.774 653.125 867.931C656.173 866.853 662.925 863.511 662.053 859.327C661.171 854.819 653.635 856.446 650.871 857.533L652.978 860.277C654.664 857.337 658.201 846.273 651.018 847.537C648.333 848.027 647.098 850.958 646.187 853.212C644.825 856.641 644.139 860.302 644.168 863.992C644.168 866.089 647.363 866.079 647.421 863.992L647.48 864.011Z" fill="#382C80"/>
<path d="M254.392 819.96C252.633 818.499 251.33 816.563 250.638 814.384C250.413 813.639 249.844 812.091 250.197 811.356C251.746 808.102 253.304 812.336 253.676 813.414C253.92 814.112 254.536 814.614 255.269 814.712C256.002 814.809 256.728 814.485 257.145 813.874C257.733 812.796 259.36 809.259 259.938 811.914C260.311 813.649 259.87 815.913 259.635 817.647C259.301 820.225 263.349 820.195 263.692 817.647C264.113 814.462 265.113 808.602 261.252 807.054C257.39 805.505 254.48 809.014 253.676 812.365L257.145 811.914C256.165 809.611 254.842 807.23 252.196 806.583C250.124 806.003 247.94 807.04 247.081 809.014C245.052 813.561 248.561 819.509 252.04 822.273C253.676 823.576 256.028 821.352 254.392 819.921V819.96Z" fill="#382C80"/>
<path d="M777.849 896.606C769.719 894.743 763.101 888.86 760.297 881.005C759.395 878.368 758.837 875.213 760.875 872.929C762.28 871.531 764.133 870.674 766.108 870.509C771.008 869.97 775.565 873.155 779.407 875.742C781.142 876.908 783.405 874.595 782.278 872.871C777.378 865.393 776.477 853.819 785.973 849.478C789.57 847.832 793.813 848.155 796.498 851.203C799.017 854.015 799.713 857.935 797.625 861.15L801.722 861.689C798.135 850.213 802.212 834.611 815.775 832.573C821.165 831.769 827.3 833.406 830.563 838.022C834.885 844.157 833.336 852.545 832.062 859.386C831.849 860.279 832.18 861.215 832.908 861.775C833.635 862.336 834.624 862.417 835.434 861.983C843.372 857.867 853.789 859.121 860.237 865.462C866.686 871.802 868.166 882.2 864.265 890.246C863.04 892.774 866.754 894.999 868.058 892.461C873.124 882.661 871.498 870.019 863.52 862.169C855.543 854.319 842.891 852.888 833.14 858.014L836.521 860.611C838.011 852.34 839.461 842.736 834.277 835.405C830.161 829.613 822.782 827.222 815.892 828.026C799.232 829.986 792.911 848.508 797.429 862.875C797.692 863.723 798.424 864.341 799.305 864.457C800.185 864.573 801.053 864.165 801.526 863.414C804.309 859.111 803.593 853.486 800.653 849.449C797.433 845.05 791.796 843.151 786.571 844.705C773.017 848.42 771.665 864.874 778.731 874.987L781.592 872.116C776.594 868.99 770.979 865.619 764.825 866.795C759.709 867.775 755.613 871.695 755.76 877.134C756.073 888.306 766.824 897.488 777.114 899.527C779.005 899.909 779.838 897.057 777.917 896.587L777.849 896.606Z" fill="#382C80"/>
<path d="M737.905 889.344C736.456 886.437 737.067 882.925 739.413 880.678C741.759 878.431 745.294 877.972 748.136 879.544C750.096 880.603 751.821 877.584 749.871 876.604C745.762 874.165 740.526 874.799 737.118 878.149C733.711 881.499 732.988 886.723 735.357 890.873C736.219 892.568 738.748 891.079 737.905 889.383V889.344Z" fill="#382C80"/>
<path d="M437.741 896.988C433.851 884.956 431.847 872.394 431.802 859.748L430.881 861.336C434.801 858.896 438.907 869.499 439.877 871.851C441.731 876.397 442.942 881.18 443.474 886.061C443.777 888.658 447.648 888.815 447.648 886.061C447.591 879.524 448.727 873.032 451 866.902C452.222 863.688 453.765 860.605 455.606 857.7C456.312 856.573 457.723 853.643 459.261 853.78C460.349 853.858 461.055 855.652 461.339 856.436C462.26 858.974 461.947 861.64 461.711 864.276C461.391 867.941 460.885 871.583 460.192 875.203C458.865 882.047 456.934 888.76 454.42 895.263C453.44 897.841 457.586 898.968 458.556 896.4C461.801 887.902 464.063 879.061 465.298 870.048C466.082 864.286 468.091 854.574 462.201 850.546C455.782 846.146 450.873 856.985 448.834 861.326C445.195 869.065 443.359 877.529 443.464 886.081L447.56 885.522C446.618 878.765 444.533 872.217 441.396 866.157C439.436 862.404 435.31 855.25 429.93 857.641C427.176 858.856 428.117 862.081 428.244 864.56C428.421 868.117 428.764 871.655 429.224 875.183C430.305 882.9 432.106 890.499 434.605 897.88C435.271 899.84 438.387 899.017 437.741 897.018V896.988Z" fill="#382C80"/>
<path d="M430.577 888.58C428.642 887.579 426.773 886.457 424.981 885.218C424.001 884.444 422.737 885.346 422.354 886.287C420.179 891.657 423.805 898.262 429.43 899.458C431.713 899.948 432.674 896.596 430.41 895.94C428.633 895.416 427.142 894.196 426.279 892.557C425.415 890.918 425.251 888.999 425.824 887.237L423.56 888.492C425.436 889.27 427.262 890.164 429.028 891.167C430.733 892.059 432.233 889.54 430.537 888.58H430.577Z" fill="#382C80"/>
<path d="M490.444 306.744C490.568 306.014 490.429 305.265 490.052 304.627C489.486 303.706 488.382 303.268 487.338 303.549C485.652 304.118 484.702 306.597 485.25 308.224C485.532 309.194 486.302 309.946 487.279 310.205C488.256 310.464 489.298 310.192 490.023 309.488C491.473 307.989 491.003 305.715 489.602 304.363C488.873 303.629 487.712 303.553 486.894 304.186C486.076 304.82 485.859 305.963 486.387 306.852C486.475 307.019 486.564 307.185 486.671 307.362L486.818 307.607C486.887 307.734 486.877 307.714 486.818 307.538C486.779 307.334 486.799 307.123 486.877 306.93C486.925 306.811 487.003 306.707 487.103 306.627C487.371 306.335 487.789 306.235 488.161 306.372C488.573 306.431 489.014 306.499 489.141 306.999C489.141 307.175 489.082 307.46 489.141 307.077C489.2 306.881 489.298 306.685 489.347 306.489C489.474 305.999 488.818 307.068 489.229 306.754L488.377 307.244C489.004 306.989 486.799 307.489 487.308 306.715C487.308 306.617 487.308 306.656 487.308 306.832C487.308 307.009 487.308 307.058 487.308 307.166C487.518 307.926 488.263 308.41 489.043 308.293C489.81 308.17 490.382 307.52 490.405 306.744H490.444Z" fill="#382C80"/>
<path d="M504.282 325.903C502.675 326.628 501.538 327.951 501.93 329.823C502.12 330.717 502.661 331.496 503.431 331.987C504.202 332.477 505.137 332.637 506.027 332.43C507.97 331.955 509.174 330.01 508.732 328.059C508.186 326.072 506.154 324.884 504.155 325.384C502.994 325.726 502.313 326.927 502.616 328.098C502.967 329.252 504.161 329.929 505.331 329.637C505.184 329.637 504.939 329.637 505.233 329.686C504.939 329.637 504.87 329.627 505.037 329.686C505.145 329.686 505.204 329.745 505.037 329.686C504.929 329.686 504.655 329.412 504.812 329.559C504.968 329.706 504.665 329.323 504.635 329.225C504.606 329.07 504.606 328.91 504.635 328.755C504.635 329.059 504.635 328.755 504.714 328.657C504.792 328.559 505.027 328.461 504.851 328.53C504.674 328.598 505.135 328.53 505.155 328.53C504.9 328.53 505.027 328.53 505.155 328.53C505.282 328.579 505.401 328.648 505.507 328.735C505.155 328.461 505.586 328.912 505.507 328.735C505.429 328.559 505.507 328.971 505.507 328.735C505.439 329.02 505.507 328.5 505.507 328.735L505.429 328.99C505.429 328.99 505.713 328.657 505.811 328.588C506.526 328.169 506.765 327.25 506.345 326.535C505.926 325.821 505.007 325.582 504.292 326.001L504.282 325.903Z" fill="#382C80"/>
<path d="M514.7 306.372C513.23 306.587 512.612 308.243 512.828 309.527C513.073 311.036 514.396 312.408 516.033 311.889C517.545 311.381 518.376 309.758 517.904 308.234C517.679 307.499 517.186 306.877 516.523 306.489C515.689 306.02 514.671 306.02 513.837 306.489C513.152 306.904 512.777 307.685 512.881 308.479C512.985 309.273 513.549 309.93 514.318 310.154L514.7 310.243C515.092 310.331 514.612 310.243 514.465 310.096C514.197 309.898 514.041 309.585 514.043 309.253V308.988C513.984 309.184 514.043 309.155 514.092 308.871C514.192 308.648 514.385 308.482 514.62 308.415C514.854 308.349 515.106 308.39 515.307 308.528C515.628 308.351 516.031 308.454 516.229 308.763C516.229 308.675 516.131 308.596 516.082 308.498L516.14 308.645C516.082 308.449 516.14 308.449 516.14 308.645V308.861C516.199 308.684 516.199 308.704 516.14 308.92C515.768 309.233 515.69 309.321 515.925 309.204C516.59 308.819 516.86 307.997 516.552 307.293C516.246 306.598 515.486 306.223 514.749 306.401L514.7 306.372Z" fill="#382C80"/>
<path d="M557.339 318.583C564.178 314.758 568.924 308.051 570.256 300.33C571.588 292.608 569.362 284.698 564.199 278.804C560.936 275.08 555.957 272.209 551.146 273.414C551.323 268.476 548.96 263.791 544.883 260.998C538.102 256.46 527.606 258.254 521.461 262.958C513.555 255.868 502.494 253.476 492.365 256.666C487.416 258.283 482.732 261.468 480.605 266.211C475.362 277.913 490.611 285.361 499.47 288.448C507.673 291.309 515.787 290.996 524.205 292.26C525.185 292.397 525.871 292.858 526.842 292.995C527.812 293.132 529.007 292.779 529.615 293.769C529.795 294.142 529.889 294.55 529.889 294.965C530.36 301.962 530.722 309.067 532.908 315.731C533.947 312.271 535.064 308.665 537.573 306.048C540.081 303.432 544.433 302.217 547.373 304.324C549.636 305.941 550.43 309.008 550.185 311.781C549.979 314.153 548.901 316.329 548.745 318.69C548.617 320.65 548.745 322.267 548.157 324.159" fill="#382C80"/>
<path d="M558.594 320.738C568.551 315.015 574.656 303.843 573.294 292.318C571.971 281.078 563.043 267.818 550.225 270.18L554.468 273.404C554.673 265.365 549.521 258.165 541.846 255.764C534.496 253.471 525.745 255.304 519.561 259.753L524.049 260.331C516.812 253.762 507.11 250.606 497.393 251.658C488.367 252.726 478.303 257.832 475.97 267.338C473.922 275.727 479.694 282.43 486.319 286.664C493.983 291.564 502.754 293.984 511.721 294.964C515.092 295.337 518.512 295.503 521.874 295.944C523.206 296.131 524.412 296.601 525.715 296.856C526.322 296.95 526.934 297.012 527.548 297.042L525.754 294.886L525.872 296.63C526.313 303.412 526.852 310.233 528.89 316.75C529.43 318.494 531.043 319.683 532.869 319.683C534.695 319.683 536.308 318.494 536.848 316.75C537.632 314.163 538.377 311.34 540.17 309.243C541.15 308.047 543.512 306.538 545.07 307.704C546.628 308.871 546.05 311.958 545.629 313.584C544.884 316.76 545.178 319.964 544.521 323.081C543.541 327.794 550.401 329.745 551.764 325.041C552.548 322.463 552.391 319.768 553.096 317.201C553.733 314.819 554.478 312.497 554.331 309.998C554.086 305.744 552.038 301.668 548.01 299.894C543.982 298.12 539.288 299.237 535.907 301.922C531.987 305.049 530.311 309.89 528.92 314.535H536.877C535.447 309.652 534.582 304.621 534.3 299.541C533.977 295.278 534.369 289.741 528.89 288.947C524.49 288.31 520.149 287.565 515.68 287.164C510.739 286.887 505.846 286.041 501.098 284.645C495.541 282.822 488.975 280.059 485.28 275.315C480.527 269.22 486.75 262.85 492.523 260.615C501.533 257.32 511.624 259.198 518.845 265.515C519.972 266.495 521.972 267.103 523.334 266.103C531.517 260.086 547.834 259.831 547.834 273.375C547.849 274.414 548.34 275.389 549.166 276.019C549.992 276.65 551.061 276.867 552.067 276.609C561.387 274.698 567.395 287.928 567.747 295.288C568.073 303.922 563.611 312.031 556.144 316.377C553.381 318.024 555.87 322.306 558.663 320.699L558.594 320.738Z" fill="#382C80"/>
<path d="M424.05 658.417C419.412 655.628 413.798 654.969 408.639 656.608C403.481 658.248 399.277 662.027 397.1 666.982C395.421 671.143 394.922 675.688 395.66 680.114C396.052 683.158 396.974 686.11 398.384 688.836C403.049 697.535 413.066 701.906 422.616 699.409C432.166 696.912 438.762 688.197 438.572 678.328C438.382 668.459 431.455 660.005 421.816 657.878" fill="white"/>
<path d="M425.52 655.928C415.752 649.876 402.976 652.311 396.12 661.533C389.084 671.069 390.583 686.22 398.08 695.049C404.538 702.625 415.847 706.074 425.314 702.723C435.293 699.103 442.093 689.809 442.523 679.203C442.797 667.58 433.703 655.438 421.757 654.468C417.572 654.125 417.651 659.799 420.855 661.151C429.048 664.601 436.104 672.108 434.222 681.653C432.458 690.649 423.854 697.333 414.622 695.873C403.96 694.187 398.237 684.338 399.06 673.979C399.433 668.56 402.523 663.697 407.271 661.057C412.019 658.418 417.78 658.361 422.58 660.906C425.863 662.641 428.685 657.858 425.52 655.928Z" fill="white"/>
<path d="M549.607 592.571C545.089 591.199 540.277 593.668 536.759 596.804C531.743 601.148 528.376 607.087 527.224 613.621C526.132 620.209 528.032 626.942 532.408 631.986C535.352 635.022 538.934 637.365 542.894 638.846C548.774 641.247 555.712 642.453 561.318 639.474C565.385 637.318 568.129 633.28 570.138 629.154C572.094 625.461 573.303 621.418 573.695 617.257C574.122 610.885 571.807 604.633 567.334 600.075C562.86 595.517 556.653 593.086 550.273 593.394" fill="white"/>
<path d="M550.333 589.915C539.279 586.975 529.273 597.755 525.451 607.026C521.217 617.316 523.285 630.203 532.095 637.474C540.641 644.53 555.36 649.234 565.239 642.296C574.755 635.652 579.939 621.334 577.597 610.142C574.882 597.304 562.358 587.857 549.265 589.758C544.767 590.415 546.325 596.804 550.245 597.167C560.574 598.147 569.58 605.115 569.247 616.257C569.09 621.481 566.758 626.949 563.779 631.183C561.024 635.366 556.052 637.517 551.117 636.661C541.052 635.367 531.027 628.39 530.537 617.561C530.451 612.555 531.996 607.657 534.937 603.606C537.877 599.352 543.11 593.982 548.794 595.227C552.234 595.981 553.694 590.836 550.255 589.915H550.333Z" fill="white"/>
<path d="M141.428 298.61C139.997 296.582 139.113 294.219 138.86 291.75C138.507 289.359 137.4 287.173 136.9 284.792C135.777 279.255 136.07 273.525 137.753 268.132C140.693 258.332 147.161 251.011 152.845 242.858C148.503 245.484 143.829 248.199 138.762 247.964C134.078 247.738 127.982 246.131 124.934 242.495C120.936 237.781 116.751 233.107 112.586 228.53C96.8083 211.204 69.7799 197.043 45.8385 203.325C49.4057 217.76 51.3461 232.636 48.6903 247.532C47.2249 255.055 45.0999 262.433 42.3399 269.582C40.6837 274.13 37.7241 279.128 38.0083 284.057C39.4587 281.725 41.6245 280.48 43.8883 279.02C46.1598 277.59 48.6031 276.454 51.1599 275.639C56.2824 273.991 61.7325 273.634 67.0261 274.6C69.6496 275.088 72.1969 275.922 74.6015 277.079C77.3259 278.373 78.5215 279.892 80.4815 282.205C84.5749 287.133 89.3038 291.496 94.5445 295.18C101.267 299.938 109.093 302.903 117.281 303.794C121.525 304.074 125.786 304.008 130.021 303.598C133.509 303.343 137.106 303.049 140.164 301.374" fill="#7F72FF"/>
<path d="M144.143 297.022C142.969 295.158 142.254 293.042 142.055 290.848C141.673 288.437 140.781 286.213 140.272 283.841C139.375 278.936 139.712 273.884 141.252 269.141C144.035 259.919 150.562 252.481 156.01 244.759C158.196 241.652 153.972 237.899 150.944 239.692C145.956 242.691 141.291 245.102 135.342 243.838C133.231 243.46 131.212 242.681 129.394 241.544C127.051 239.947 125.336 237.311 123.514 235.184C116.565 227.227 109.598 219.504 100.974 213.34C84.931 201.776 64.5471 194.72 44.8197 199.62C42.7609 200.206 41.5525 202.335 42.1051 204.402C45.4076 217.917 47.3971 232.078 45.0451 245.935C43.8985 252.716 41.7523 259.204 39.7727 265.77C37.9401 271.856 34.4415 277.589 34.5199 284.096C34.5689 287.791 39.1749 288.682 41.1153 285.889C43.6437 282.263 49.1513 279.931 53.2477 278.784C58.155 277.354 63.3557 277.263 68.3102 278.52C73.0632 279.804 75.4838 281.95 78.5905 285.556C81.7077 289.206 85.1665 292.55 88.9197 295.542C96.1031 301.226 104.511 305.617 113.625 307.087C118.47 307.789 123.379 307.933 128.257 307.518C133.059 307.204 137.684 306.812 142.055 304.627C146.426 302.442 142.594 295.885 138.204 298.032C133.813 300.178 127.884 299.992 123.053 300.09C118.26 300.23 113.477 299.568 108.902 298.13C99.4351 295.101 91.4186 288.849 84.8036 281.568C81.8637 278.324 79.4725 275.266 75.376 273.434C70.7794 271.391 65.7938 270.371 60.7642 270.445C51.6012 270.582 40.4097 274.365 34.9805 282.205L41.5857 283.988C41.4877 277.579 45.8095 271.317 47.8969 265.368C50.3598 258.591 52.1104 251.575 53.1203 244.435C54.9627 230.294 52.9929 216.015 49.6217 202.295L46.9071 207.078C66.605 202.178 87.7143 211.243 102.551 223.993C106.373 227.375 109.974 230.998 113.331 234.841C117.193 239.143 120.799 244.788 125.719 247.934C129.678 250.311 134.194 251.599 138.811 251.668C144.691 251.834 149.895 248.983 154.756 246.043L149.699 240.986C143.437 249.914 136.244 258.44 133.696 269.318C132.378 274.698 132.328 280.31 133.549 285.713C134.196 288.369 135.264 290.887 135.93 293.553C136.47 295.926 137.444 298.178 138.802 300.197C141.075 303.49 146.475 300.413 144.221 297.032L144.143 297.022Z" fill="#7F72FF"/>
<path d="M152.1 244.494C152.717 245.004 153.188 245.641 153.844 246.131C154.378 246.538 154.945 246.899 155.54 247.209C157.066 247.979 158.733 248.429 160.44 248.532C162.491 248.532 164.154 246.869 164.154 244.818C164.154 242.766 162.491 241.104 160.44 241.104C159.901 241.104 159.371 241.104 158.832 241.104C158.293 241.104 158.832 241.172 158.176 241.025C157.784 240.927 157.402 240.829 157.019 240.702C156.814 240.633 155.54 239.957 156.167 240.476C155.031 239.394 153.245 239.394 152.11 240.476C150.996 241.599 150.996 243.41 152.11 244.534L152.1 244.494Z" fill="#7F72FF"/>
<path d="M139.781 302.677C142.917 305.323 146.592 306.597 150.669 305.372C152.8 304.741 154.051 302.537 153.501 300.384C152.972 298.424 150.561 296.738 148.513 297.552C147.824 297.973 147.001 298.116 146.21 297.953C146.739 298.022 145.534 297.777 145.544 297.777C145.324 297.724 145.111 297.648 144.907 297.552C143.472 296.184 141.216 296.184 139.781 297.552C138.488 298.845 138.272 301.413 139.781 302.677Z" fill="#7F72FF"/>
<path d="M160.234 223.248C157.145 223.48 154.524 225.605 153.658 228.579C152.6 232.144 154.503 235.916 157.999 237.183C161.635 238.359 165.242 235.87 166.202 232.342C167.025 229.275 165.643 225.404 162.625 224.091C160.743 223.267 158.646 223.375 157.323 225.149C156.206 226.639 156.02 229.255 157.637 230.549C157.805 230.662 157.956 230.797 158.088 230.951C157.735 230.49 157.686 230.461 157.931 230.843C157.735 230.274 157.705 230.216 157.852 230.666C157.999 231.117 157.95 231.068 157.852 230.441C157.852 230.921 157.852 230.853 157.901 230.206C157.754 230.657 157.784 230.598 157.98 230.02C158.754 229.275 160.038 228.589 161.067 229.422C161.214 229.539 161.939 230.539 161.508 229.833C161.508 230.392 161.567 230.441 161.508 229.961C161.41 230.49 161.41 230.529 161.508 230.069C161.606 229.608 161.645 229.657 161.508 230.069C161.606 229.874 161.714 229.684 161.831 229.5C161.919 229.549 160.91 230.108 161.978 229.588C163.314 228.813 163.962 227.237 163.558 225.746C163.154 224.255 161.798 223.222 160.253 223.228L160.234 223.248Z" fill="#382C80"/>
<path d="M55.8544 211.174C85.1527 231.434 108.678 258.965 124.121 291.064C125.033 292.975 127.894 291.299 126.963 289.398C111.153 256.92 87.0413 229.198 57.0696 209.038C55.776 208.166 54.5804 210.243 55.8544 211.125V211.174Z" fill="#382C80"/>
<path d="M59.0002 263.585C85.0878 257.764 111.538 253.03 138.38 254.686C140.615 254.824 140.595 251.394 138.38 251.227C111.293 249.267 84.5782 255.225 58.3338 261.154C56.7462 261.507 57.4224 263.947 59.01 263.585H59.0002Z" fill="#382C80"/>
<path d="M833.513 126.424C851.741 179.844 868.264 233.685 877.947 289.398C881.347 308.998 883.758 328.716 886.326 348.433C886.923 352.99 894.068 353.225 893.666 348.433C888.56 286.899 873.821 226.09 854.025 167.78C849.125 153.452 843.892 139.262 838.737 125.032C837.561 121.798 832.377 123.151 833.513 126.473V126.424Z" fill="#382C80"/>
<path d="M861.12 187.782C862.301 185.589 862.892 183.127 862.835 180.638C862.835 178.217 863.717 175.924 863.953 173.493C864.37 167.861 863.359 162.215 861.013 157.078C856.897 147.69 849.576 141.242 842.932 133.843C847.557 135.91 852.536 138.037 857.524 137.175C862.149 136.381 867.971 134.039 870.587 130.05C873.978 124.885 877.545 119.731 881.112 114.684C894.617 95.554 919.695 78.1884 944.244 81.4812C942.47 96.2498 942.382 111.244 946.841 125.699C949.211 132.984 952.215 140.047 955.818 146.808C958.023 151.11 961.58 155.716 961.894 160.646C960.169 158.499 957.866 157.529 955.416 156.363C952.999 155.224 950.447 154.397 947.821 153.903C942.54 152.902 937.094 153.219 931.965 154.824C929.421 155.63 926.995 156.771 924.752 158.215C922.204 159.832 921.214 161.488 919.558 164.017C916.1 169.41 911.941 174.321 907.19 178.619C901.102 184.168 893.698 188.071 885.679 189.957C881.512 190.753 877.288 191.212 873.047 191.329C869.558 191.506 865.952 191.653 862.708 190.349" fill="#7F72FF"/>
<path d="M863.835 189.34C865.032 186.947 865.786 184.357 866.06 181.696C866.403 178.923 867.197 176.247 867.471 173.464C867.972 167.706 867.057 161.912 864.806 156.588C860.641 146.534 852.801 139.164 845.598 131.226L841.109 137.037C846.685 139.527 852.35 141.82 858.563 140.761C863.111 140.05 867.387 138.138 870.95 135.224C875.076 131.677 877.742 126.081 880.829 121.651C883.754 117.252 886.972 113.054 890.462 109.088C903.966 94.3877 923.704 82.8335 944.293 85.3717L940.373 81.4517C938.717 95.5735 938.59 110.019 942.275 123.847C944.129 130.476 946.616 136.911 949.703 143.064C951.134 146.004 952.79 148.837 954.446 151.649C956.102 154.462 958.023 157.333 958.366 160.616L964.403 158.107C958.219 151.179 946.371 148.974 937.561 149.993C932.365 150.54 927.365 152.277 922.949 155.069C919.333 157.451 917.363 160.9 914.923 164.36C909.337 172.278 902.183 179.168 893.363 183.352C888.789 185.45 883.877 186.714 878.859 187.086C873.959 187.527 868.49 188.291 863.757 186.655C859.024 185.018 857.132 192.388 861.728 194.015C866.138 195.583 870.803 195.298 875.448 194.995C880.327 194.818 885.168 194.074 889.874 192.78C898.856 189.89 906.951 184.756 913.394 177.864C916.543 174.538 919.405 170.952 921.949 167.143C924.625 163.174 926.732 160.704 931.338 158.842C936.103 156.955 941.288 156.379 946.351 157.176C950.85 157.882 956.406 159.626 959.523 163.056C961.483 165.212 965.902 163.625 965.569 160.557C964.883 154.207 961.149 149.493 958.601 143.839C955.661 137.331 952.623 130.863 950.565 124.003C946.41 110.156 946.645 95.5833 948.272 81.3929C948.537 79.1291 946.253 77.7277 944.352 77.4729C924.38 75.0229 905.231 84.8523 890.864 98.0529C883.239 105.04 877.408 113.39 871.617 121.896C868.481 126.502 866.393 130.452 860.925 132.402C855.211 134.431 850.292 132.951 844.902 130.56C841.168 128.913 837.444 133.098 840.423 136.371C846.47 143.035 853.281 149.209 857.289 157.402C859.503 161.85 860.628 166.761 860.572 171.729C860.513 174.023 859.915 176.228 859.69 178.501C859.425 181.177 859.69 183.607 858.475 186.116C856.691 189.703 862.032 192.888 863.894 189.281L863.835 189.34Z" fill="#7F72FF"/>
<path d="M839.58 131.598C839.278 131.822 838.949 132.006 838.6 132.147C838.358 132.286 838.106 132.408 837.845 132.51C837.426 132.657 836.997 132.775 836.562 132.863C836.434 132.863 835.033 133.078 835.66 133.019C833.445 133.235 831.74 134.852 832.014 137.224C832.155 138.279 832.74 139.223 833.622 139.819C834.504 140.414 835.599 140.604 836.63 140.34C838.038 140.051 839.372 139.477 840.55 138.654C841.15 138.248 841.72 137.8 842.255 137.312C842.785 136.832 843.108 136.195 843.588 135.685C846.126 133 842.069 128.933 839.531 131.628L839.58 131.598Z" fill="#7F72FF"/>
<path d="M832.71 121.985C832.386 121.818 832.396 121.838 832.71 121.985C832.396 121.74 832.396 121.759 832.71 122.053C832.435 121.72 832.445 121.71 832.71 122.053C832.984 122.387 832.925 122.436 832.71 121.995C832.798 122.387 832.818 122.416 832.769 122.093C832.72 121.769 832.769 121.799 832.769 122.191C832.553 122.955 832.955 121.671 833.151 121.465C833.618 121.038 834.248 120.836 834.877 120.911C835.506 120.986 836.071 121.332 836.424 121.857C835.934 121.22 836.62 122.602 836.424 121.75C836.493 122.387 836.522 122.465 836.512 121.975C836.404 122.602 836.404 122.681 836.512 122.21C836.267 122.769 836.248 122.828 836.444 122.396C836.061 122.818 836.032 122.867 836.346 122.534C839.589 119.221 835.444 113.714 831.367 116.066C828.548 117.778 827.239 121.176 828.182 124.337C829.27 128.129 833.68 130.628 837.345 128.688C840.314 127.054 841.691 123.533 840.618 120.319C839.632 117.288 836.818 115.228 833.631 115.203C829.711 115.203 829.152 120.681 832.72 121.906L832.71 121.985Z" fill="#382C80"/>
<path d="M933.728 88.6842C906.47 112.399 885.959 142.893 874.272 177.08C873.586 179.04 876.781 179.961 877.457 177.952C888.856 144.22 908.836 114.033 935.434 90.36C936.6 89.3212 934.895 87.6454 933.728 88.6548V88.6842Z" fill="#382C80"/>
<path d="M111.459 340.534C104.335 350.04 101.287 362.016 100.082 373.854C98.1216 393.582 102.669 414.103 123.67 420.983C125.536 421.726 127.57 421.943 129.55 421.61C132.449 420.769 134.585 418.306 135.009 415.318C135.359 412.361 134.528 409.385 132.696 407.037C136.4 407.594 140.1 406.004 142.245 402.933C144.389 399.862 144.608 395.841 142.81 392.555C141.012 389.269 137.507 387.286 133.764 387.437C138.468 387.104 143.025 383.831 144.211 379.264C145.397 374.697 142.565 369.268 137.959 368.19C142.143 368.553 147.455 368.268 149.013 364.378C150.444 360.791 147.288 356.91 143.79 355.293C140.291 353.676 136.244 353.265 133.01 351.167" fill="white"/>
<path d="M112.401 334.38C107.649 339.298 103.933 345.12 101.474 351.5C93.2317 372.453 92.2125 404.175 112.489 418.807C117.467 422.394 125.729 426.706 131.873 424.04C139.429 420.767 139.605 411.349 135.568 405.273L132.628 410.34C139.909 411.173 147.23 405.175 147.504 397.766C147.788 390.152 141.115 383.86 133.696 383.811V390.955C140.184 390.269 146.436 386.173 147.759 379.391C148.954 372.94 145.123 366.618 138.851 364.691L137.871 371.728C144.466 372.227 153.698 370.062 152.777 361.536C152.375 357.802 149.729 354.676 146.612 352.716C142.928 350.462 138.429 350.187 134.725 347.982C130.805 345.611 127.14 351.804 131.109 354.166C133.342 355.413 135.717 356.383 138.184 357.057C140.585 357.792 143.202 358.439 144.829 360.526C148.229 364.887 140.233 364.701 137.871 364.525C133.755 364.211 133.137 370.463 136.891 371.561C139.678 372.475 141.304 375.369 140.634 378.225C139.909 381.322 136.714 383.448 133.647 383.782C129.178 384.272 128.933 390.916 133.647 390.926C137.185 390.926 140.674 393.993 140.37 397.786C140.066 401.578 136.156 403.95 132.53 403.666C130.07 403.44 128.228 406.723 129.59 408.732C131.187 411.016 132.53 414.034 130.893 416.69C129.021 419.748 125.386 418.405 122.671 417.366C118.215 415.686 114.238 412.94 111.087 409.369C105.06 402.255 103.189 392.572 103.1 383.429C103.032 371.933 104.943 359.507 110.215 349.197C112.099 345.471 114.486 342.022 117.31 338.947" fill="#382C80"/>
<path d="M899.086 225.188C905.799 234.988 908.337 247.082 909.042 258.94C910.218 278.726 904.76 299.031 883.484 305C881.595 305.662 879.561 305.791 877.604 305.372C874.745 304.414 872.715 301.866 872.42 298.865C872.194 295.897 873.148 292.96 875.076 290.692C871.324 291.146 867.644 289.417 865.599 286.24C863.554 283.062 863.505 278.996 865.473 275.77C867.441 272.544 871.079 270.727 874.84 271.092C870.146 270.562 865.736 267.103 864.746 262.477C863.757 257.852 866.814 252.56 871.459 251.697C867.265 251.884 861.973 251.364 860.581 247.415C859.298 243.769 862.62 240.035 866.187 238.595C869.754 237.154 873.811 236.88 877.134 234.92" fill="white"/>
<path d="M898.399 219.044C902.945 224.151 906.411 230.125 908.591 236.605C915.941 257.881 915.628 289.623 894.744 303.382C889.619 306.763 881.181 310.713 875.144 307.793C867.735 304.206 867.961 294.798 872.253 288.888L874.938 294.073C867.637 294.602 860.571 288.3 860.611 280.882C860.611 273.267 867.588 267.26 874.997 267.524L874.693 274.669C868.235 273.689 862.149 269.347 861.14 262.517C860.209 256.013 864.308 249.847 870.665 248.189L871.312 255.264C864.717 255.49 855.573 252.932 856.857 244.485C857.416 240.77 860.189 237.752 863.384 235.978C867.167 233.881 871.675 233.793 875.458 231.745C879.534 229.549 882.876 235.9 878.819 238.085C876.534 239.235 874.119 240.103 871.626 240.672C869.195 241.309 866.549 241.848 864.844 243.857C861.257 248.071 869.254 248.218 871.616 248.14C875.752 248.003 876.095 254.285 872.273 255.215C869.451 256.012 867.707 258.833 868.255 261.713C868.852 264.839 871.988 267.103 874.997 267.593C879.436 268.269 879.407 274.914 874.693 274.737C871.165 274.6 867.549 277.501 867.696 281.244C867.843 285.164 871.616 287.595 875.222 287.418C877.692 287.301 879.397 290.652 877.908 292.603C876.222 294.817 874.762 297.777 876.271 300.492C878.015 303.637 881.7 302.452 884.464 301.472C888.985 299.981 893.073 297.407 896.371 293.975C902.849 287.115 905.132 277.56 905.573 268.416C906.132 256.931 904.74 244.445 899.918 233.92C898.187 230.118 895.949 226.567 893.264 223.366" fill="#382C80"/>
<path d="M883.121 146.024C880.145 139.181 880.705 131.316 884.62 124.964C888.658 118.662 895.577 115.585 902.839 115.164C903.737 115.164 904.465 114.435 904.465 113.537C904.465 112.639 903.737 111.91 902.839 111.91C894.616 111.508 886.433 116.095 881.886 122.857C877.138 130.147 876.594 139.404 880.455 147.2C881.161 148.67 883.768 147.612 883.121 146.073V146.024Z" fill="#382C80"/>
<path d="M911.923 121.073C917.607 127.316 919.763 136.861 915.49 144.505C911.335 151.963 902.309 155.648 894.087 153.982C891.725 153.501 890.706 157.069 893.107 157.617C902.907 159.881 913.785 155.236 918.508 146.259C923.124 137.498 921.448 125.738 913.912 119.103C913.359 118.642 912.546 118.679 912.037 119.188C911.528 119.697 911.491 120.51 911.952 121.063L911.923 121.073Z" fill="#382C80"/>
</svg>
