<svg width="1000" height="1000" viewBox="0 0 1000 1000" fill="none" xmlns="http://www.w3.org/2000/svg">
<path d="M788.12 218.289L819.186 215.594C822.685 215.29 826.311 215.006 829.653 216.094C833.573 217.388 836.738 220.494 839.453 223.709C852.692 239.624 858.788 260.321 862.051 280.774C867.356 313.663 865.195 347.323 855.73 379.264C848.361 403.764 834.17 445.6 804.026 447.864C783.519 449.236 763.471 441.376 749.361 426.431C746.676 423.491 744.157 420.248 743.481 416.377C742.501 411.29 744.814 406.234 746.882 401.49C757.86 376.342 764.637 349.562 766.942 322.218" fill="#382C80"/>
<path d="M788.12 221.141L815.305 219.357C819.362 219.093 823.851 218.377 827.839 219.357C832.269 220.524 835.532 224.659 838.169 228.177C847.518 240.604 852.761 255.47 855.985 270.553C862.941 303.52 862.142 337.652 853.653 370.258C848.096 391.445 840.726 415.818 825.291 431.998C817.236 440.455 807.838 443.934 796.215 443.405C781.175 442.669 766.868 436.688 755.78 426.5C752.899 423.815 749.253 420.493 748.097 416.582C746.744 411.957 749.253 407.155 751.037 402.99C754.772 394.44 758.043 385.696 760.837 376.794C766.35 359.053 769.838 340.744 771.235 322.218C771.666 316.485 762.924 316.622 762.356 322.218C760.545 341.081 756.698 359.691 750.88 377.725C748.018 386.545 744.373 394.885 740.962 403.45C737.689 411.663 737.885 419.346 743.383 426.48C752.801 438.721 767.765 447.178 782.671 450.628C795.842 453.685 810.474 453.822 822.185 446.267C842.853 432.929 852.045 406.155 858.896 383.792C869.571 349.038 871.799 312.239 865.393 276.452C862.041 257.832 856.122 239.065 844.392 223.963C838.688 216.613 832.406 211.4 822.685 211.782C811.179 212.233 799.537 214.203 788.091 215.428C784.514 215.82 784.376 221.376 788.091 221.141H788.12Z" fill="#382C80"/>
<path d="M770.48 392.004C796.633 337.304 806.548 276.25 799.047 216.084C798.567 212.272 797.93 208.244 795.539 205.304C792.805 201.855 788.326 200.404 784.122 199.111C746.96 187.713 712.66 169.877 673.891 163.213C637.935 157.039 600.205 158.441 566.013 172.033C490.2 202.08 451.588 279.706 427.392 352.863C424.207 362.477 421.277 372.571 422.668 382.606C423.844 391.093 428.882 399.658 437.035 402.304C444.356 404.685 452.568 401.745 458.438 396.757C458.252 406.88 460.663 417.621 467.827 424.785C471.568 428.486 476.482 430.766 481.723 431.233C486.898 431.625 494.042 426.226 498.246 427.823C502.45 429.421 504.057 437.907 506.429 441.386C510.467 447.266 515.759 452.245 522.824 454.205C533.046 457.037 545.531 451.686 548.657 441.553C552.822 449.393 557.066 457.399 563.357 463.691C588.7 489.083 611.073 459.987 628.39 443.209C647.872 424.334 673.47 419.17 699.469 425.461C722.989 431.135 750.91 440.259 762.307 411.359" fill="white"/>
<path d="M773.175 393.582C797.596 343.329 808.303 287.516 804.212 231.794C803.428 221.249 804.27 205.686 794.108 199.297C789.384 196.357 783.573 195.171 778.34 193.417C771.646 191.231 765.031 188.85 758.436 186.4C732.133 176.6 706.074 165.575 678.38 160.303C626.91 150.503 572.657 157.363 529.047 187.674C492.131 213.34 466.112 251.58 447.168 291.76C441.984 302.775 437.26 314.006 432.899 325.374C428.097 337.879 422.933 350.746 419.924 363.819C416.984 376.432 417.229 391.553 427.353 401.059C437.476 410.565 451.392 407.625 461.368 399.609L454.293 396.669C454.205 409.977 458.213 425.089 470.698 432.027C475.951 434.967 481.841 436.143 487.642 434.399C489.749 433.762 493.963 431.126 496.276 431.635C498.393 432.106 499.441 435.977 500.196 437.721C504.547 448.256 513.573 457.399 525.353 458.85C537.132 460.3 548.794 453.852 552.793 442.582L545.1 443.562C553.341 459.124 565.601 479.116 585.966 477.685C602.488 476.519 615.228 462.427 626.146 451.402C640.111 437.251 656.094 427.686 676.449 427.049C693.864 426.5 709.936 433.576 727.076 435.232C734.847 435.986 742.913 435.418 750.018 431.929C758.112 427.95 763.071 420.453 766.374 412.329C768.334 407.429 760.494 405.381 758.475 410.154C752.458 424.55 739.924 428.44 725.341 426.618C709.838 424.658 695.285 418.709 679.487 418.582C662.122 418.39 645.212 424.132 631.555 434.859C619.295 444.542 610.24 458.193 596.275 465.808C575.117 477.391 561.093 455.792 552.361 439.348C550.548 435.928 545.795 437.133 544.668 440.328C541.17 450.265 528.332 452.98 519.727 448.295C515.247 445.806 511.595 442.058 509.222 437.515C507.37 433.821 506.478 429.548 503.567 426.441C496.1 418.454 486.907 428.832 478.322 426.206C465.945 422.413 462.593 407.998 462.642 396.639C462.642 392.719 458.232 391.553 455.567 393.699C450.863 397.492 444.238 400.295 438.191 398.207C433.066 396.443 429.656 391.661 427.941 386.712C423.854 374.883 428.695 361.8 432.458 350.53C438.866 330.928 446.452 311.731 455.175 293.044C472.462 256.578 495.561 221.611 528.293 197.249C567.336 168.172 615.679 158.97 663.464 165.163C689.493 168.535 714.12 177.188 738.532 186.459C750.018 190.83 761.484 195.279 773.136 199.199C778.516 201.012 785.013 202.139 789.894 205.079C795.852 208.666 795.666 216.839 796.303 222.983C802.073 280.317 792.229 338.143 767.814 390.338C766.129 393.964 771.46 397.198 773.234 393.503L773.175 393.582Z" fill="#382C80"/>
<path d="M965.5 704.82C945.743 682.358 834.807 556.84 811.973 537.534C802.722 529.694 792.981 522.05 781.525 518.12C769.912 514.132 757.338 514.269 745.049 514.435C622.627 516.062 500.196 515.83 377.755 513.74C315.812 512.681 253.876 511.146 191.947 509.134H118.006C109.599 509.13 102.022 514.2 98.8174 521.972L75.8462 577.596L76.444 813.13L741.786 811.846L934.267 763.404L884.552 718.158L965.5 704.82Z" fill="#382C80"/>
<path d="M326.403 512.75L305.068 579.557L138.115 579.341L174.032 509.134L326.403 512.75Z" fill="white"/>
<path d="M660.259 516.66C660.259 516.66 713.238 567.091 734.151 579.557C746.529 577.41 857.327 580.36 857.327 580.36C857.327 580.36 798.635 518.424 781.554 517.836C764.472 517.248 660.259 516.66 660.259 516.66V516.66Z" fill="white"/>
<path d="M448.285 577.303L602.841 578.283L576.381 515.474H471.835C471.835 515.474 440.632 500.52 448.315 533.889C449.337 548.342 449.328 562.85 448.285 577.303Z" fill="white"/>
<path d="M934.356 665.551C909.611 637.798 886.336 608.711 861.228 581.33C848.843 567.687 835.783 554.673 822.097 542.336C809.357 530.997 795.803 518.728 778.977 514.092C760.974 509.114 741.002 511.368 722.548 511.564C702.04 511.786 681.529 511.956 661.014 512.073C619.658 512.309 578.302 512.341 536.946 512.171C454.515 511.858 372.1 510.737 289.702 508.81C238.487 507.663 187.351 505.997 136.126 505.694C130.521 505.694 124.66 505.194 119.084 505.958C106.961 507.624 97.524 515.758 92.8396 526.881C86.5774 541.836 80.4132 556.84 74.1902 571.824C73.269 574.049 72.8476 575.048 72.2302 576.597C70.3682 581.085 77.679 583.045 79.5116 578.606C85.2544 564.699 90.9188 550.774 96.6322 536.848C99.5722 529.635 102.042 522.412 108.716 517.601C115.389 512.789 122.436 512.652 130.011 512.603C147.759 512.495 165.507 512.475 183.254 512.26C210.9 511.917 238.634 513.661 266.28 514.396C346.738 516.519 427.209 517.885 507.693 518.492C587.994 519.012 668.286 518.306 748.587 517.512C757.936 517.414 767.423 517.512 776.527 519.855C785.21 522.109 792.932 526.597 800.106 531.879C814.717 542.659 828.045 555.458 840.815 568.316C866.187 593.796 889.08 621.618 912.619 648.793C918.571 655.66 924.582 662.481 930.651 669.256C932.925 671.774 936.62 668.06 934.375 665.541L934.356 665.551Z" fill="#382C80"/>
<path d="M138.115 579.38L81.7358 707.143C81.7358 707.143 81.1478 720.098 65.2522 721.274C49.3566 722.45 26.9832 629.419 36.989 599.382C46.9948 569.345 138.115 579.38 138.115 579.38Z" fill="white"/>
<path d="M734.151 579.556C734.151 579.556 928.191 726.145 868.843 718.109C816.756 718.54 676.841 718.432 676.841 718.432L591.581 577.479L734.151 579.556Z" fill="white"/>
<path d="M305.068 579.556L259.077 718.442L452.685 718.118L448.285 577.302L305.068 579.556Z" fill="white"/>
<path d="M89.6837 582.467C139.203 583.829 188.791 583.447 238.32 583.447L386.957 583.506C485.715 583.545 584.476 583.545 683.24 583.506C738.963 583.506 794.735 584.241 850.448 583.359C855.701 583.28 855.701 575.293 850.448 575.205C800.928 574.431 751.35 575.058 701.821 575.058H553.184C454.42 575.058 355.659 575.091 256.901 575.156C201.178 575.156 145.387 574.617 89.6837 576.136C85.6755 576.244 85.6657 582.271 89.6837 582.379V582.467Z" fill="#382C80"/>
<path d="M259.077 718.442L220.406 826.34C220.406 826.34 66.7222 862.296 50.2386 818.725C33.755 775.155 35.6562 718.187 91.232 718.109C146.808 718.03 259.077 718.442 259.077 718.442Z" fill="white"/>
<path d="M676.841 718.432C676.841 718.432 758.004 820.489 735.641 824.615C713.277 828.741 452.421 824.615 452.421 824.615L452.705 718.109L676.841 718.432Z" fill="white"/>
<path d="M160.734 605.438C165.667 616.486 173.321 626.102 182.98 633.388C186.047 635.72 190.203 630.389 187.125 628.008C178.214 621.19 170.98 612.424 165.977 602.381C164.223 598.843 159.176 601.94 160.734 605.438Z" fill="#7F72FF"/>
<path d="M441.699 515.357C445.825 527.616 445.894 541.621 446.413 554.419C447.04 570.168 447.187 585.946 447.501 601.704C448.363 644.824 448.814 687.964 448.853 731.123C448.853 755.457 448.51 779.79 448.697 804.114C448.697 809.014 456.145 809.014 456.252 804.114C457.232 760.69 456.507 717.139 455.909 673.705C455.38 635.24 454.929 596.726 453.263 558.281C452.646 543.875 452.793 527.381 447.207 513.838C445.845 510.545 440.504 511.789 441.699 515.357Z" fill="#382C80"/>
<path d="M79.5796 721.157C184.371 721.549 289.162 722.274 393.964 722.333C498.765 722.391 603.556 722.421 708.357 722.45C767.157 722.45 825.889 722.881 884.65 722.342C890.089 722.342 890.098 713.934 884.65 713.885C779.868 712.905 675.047 713.787 570.256 713.816C465.464 713.846 360.663 713.816 255.872 714.101C197.072 714.257 138.34 714.845 79.5796 715.081C75.6596 715.081 75.6596 721.157 79.5796 721.166V721.157Z" fill="#382C80"/>
<path d="M599.509 590.65C633.182 650.012 668.612 708.348 705.8 765.658C716.364 781.946 727.076 798.145 738.14 814.11C740.992 818.226 747.783 814.345 744.921 810.19C706.447 753.673 668.648 696.862 633.672 638.18C623.735 621.5 613.954 604.726 604.331 587.857C602.547 584.731 597.725 587.543 599.509 590.679V590.65Z" fill="#382C80"/>
<path d="M658.231 518.728C693.413 549.245 728.618 579.733 763.845 610.191C781.26 625.175 798.812 640.071 815.619 655.751C834.052 672.96 851.585 691.1 869.44 708.906C889.432 728.859 909.787 748.44 931.994 765.933C935.571 768.745 940.696 763.806 937.09 760.837C898.468 729.143 865.06 691.933 828.947 657.554C794.647 624.92 757.74 594.991 721.539 564.552C701.782 547.892 681.731 531.644 662.18 514.778C659.475 512.436 655.506 516.366 658.26 518.698L658.231 518.728Z" fill="#382C80"/>
<path d="M234.42 793.931C262.34 723.126 286.507 650.645 309.341 578.057C315.377 558.849 321.659 539.631 326.53 520.08C327.451 516.405 322.09 514.974 320.885 518.532C308.978 553.645 298.855 589.405 287.389 624.666C275.308 661.821 262.742 698.806 249.688 735.621C242.936 754.614 235.968 773.537 229.108 792.461C227.873 795.832 233.155 797.185 234.439 793.931H234.42Z" fill="#382C80"/>
<path d="M51.238 773.645C66.4672 741.55 81.4122 709.328 96.5042 677.164C115.399 636.916 134.342 596.687 153.824 556.722C161.312 541.346 168.789 525.941 176.854 510.858C178.726 507.35 173.415 504.234 171.513 507.732C154.569 538.916 139.83 571.373 124.709 603.459C105.729 643.697 86.946 684.018 68.3586 724.42C61.172 739.956 53.9624 755.483 46.73 770.999C45.309 774.028 49.7974 776.683 51.238 773.636V773.645Z" fill="#382C80"/>
<path d="M266.76 570.668C270.278 564.553 282.126 556.193 286.703 557.653C287.591 557.881 288.403 558.341 289.055 558.986C289.737 559.882 290.124 560.968 290.162 562.093C290.613 566.601 286.331 575.107 284.88 579.4C284.086 581.712 283.224 584.006 282.293 586.26C291.25 593.512 303.265 595.766 314.79 596.442C326.315 597.118 338.31 596.442 349.697 599.137C361.085 601.832 372.365 608.633 376.52 619.56C376.924 620.643 377.251 621.753 377.5 622.882L380.352 617.923C385.644 615.101 398.158 619.648 401.598 624.783L398.315 624.254C409.487 609.407 434.154 615.699 439.926 624.019C442.954 628.439 428.166 661.533 411.457 691.031C397.874 714.248 383.792 733.671 377.51 732.495C368.259 731.652 354.254 712.464 353.843 697.637L355.156 695.353C349.786 694.618 343.269 690.228 342.279 684.113L344.66 679.977L343.533 680.202C331.999 682.162 320.444 675.832 312.408 667.335C304.372 658.838 298.982 648.264 292.524 638.513C286.066 628.762 275.247 617.884 264.271 613.866L269.524 610.495C265.898 616.075 262.027 621.481 257.911 626.714C256.825 628.334 255.375 629.676 253.677 630.634C251.614 631.589 249.198 631.371 247.34 630.061C245.481 628.75 244.464 626.548 244.671 624.284L244.563 623.029C244.188 617.905 245.356 612.785 247.915 608.329C248.111 607.976 248.071 607.839 247.64 608.025C234.468 612.122 220.149 610.044 208.685 602.371L205.412 600.185C193.824 588.812 190.613 571.392 197.386 556.634C208.839 540.364 230.807 535.508 248.052 545.433C257.783 551.029 268.397 564.641 270.67 574.833" fill="#7F72FF"/>
<path d="M207.147 541.346C186.567 555.066 184.273 586.426 202.09 603.321C210.773 611.553 223.072 616.247 235.067 615.081C241.211 614.513 247.464 612.69 252.011 608.319C257.411 603.115 261.37 595.422 265.261 589.092C268.289 584.192 260.772 579.929 257.597 584.613C254.304 589.513 251.452 594.648 248.022 599.401C244.592 604.154 239.447 606.065 233.714 606.457C224.05 607.007 214.593 603.506 207.617 596.794C192.799 582.496 196.514 559.182 210.929 546.207C213.546 543.855 210.116 539.347 207.147 541.307V541.346Z" fill="#382C80"/>
<path d="M244.965 605.722C241.907 612.416 238.987 619.521 241.27 626.92C242.858 632.045 247.954 637.876 253.804 635.201C257.019 633.731 259.322 630.066 261.537 627.459C264.143 624.411 266.691 621.324 269.132 618.149C273.796 612.112 279.912 604.742 281.362 597.098C282.273 592.296 276.58 590.121 273.747 593.884C270.719 597.912 268.847 602.88 266.035 607.134C262.903 611.806 259.524 616.307 255.911 620.618C254.451 622.382 251.913 624.489 250.953 626.498C250.188 628.145 250.061 626.636 251.119 627.292C250.139 626.675 249.502 625.175 249.1 624.146C247.062 618.982 249.149 613.112 250.727 608.104C251.786 604.762 246.474 602.39 244.965 605.673V605.722Z" fill="#382C80"/>
<path d="M263.967 618.139C275.903 624.568 286.605 633.192 294.082 644.599C301.559 656.006 306.322 669.422 317.308 678.105C326.745 685.553 339.505 688.611 350.148 681.672C361.506 674.254 366.641 660.377 373.286 649.166C375.726 645.06 369.571 639.915 366.426 643.903C358.899 653.546 356.096 667.894 345.091 674.548C333.537 681.525 320.993 671.765 314.486 662.464C307.547 652.517 302.726 641.434 294.582 632.271C286.86 623.501 277.241 616.607 266.456 612.112C263.006 610.671 260.693 616.375 263.927 618.119L263.967 618.139Z" fill="#382C80"/>
<path d="M389.613 647C384.35 658.564 379.313 670.02 372.433 680.761C369.435 685.436 365.622 692.041 359.644 693.158C352.784 694.442 350.824 687.405 348.864 682.378C347.385 678.595 340.436 678.585 341.024 683.436C341.838 690.061 345.346 697.156 351.559 700.185C358.419 703.575 366.259 700.626 371.404 695.608C377.373 689.816 381.636 681.545 385.262 674.166C389.182 666.179 392.631 657.702 394.346 648.94C394.856 646.285 390.936 644.129 389.642 646.98L389.613 647Z" fill="#382C80"/>
<path d="M353.519 700.067C354.499 712.621 360.693 725.694 371.679 732.544C385.212 740.992 393.954 722.568 399.922 713.464C417.062 687.268 432.742 659.26 443.905 629.938C445.708 625.205 437.789 621.814 435.653 626.459C424.873 649.979 413.789 673.019 400.51 695.275C397.315 700.619 394.01 705.891 390.593 711.092C388.809 713.816 386.999 716.528 385.163 719.226C383.811 721.186 382.145 724.449 379.842 725.508C375.324 727.585 368.131 718.021 365.897 714.826C362.672 710.149 360.447 704.858 359.36 699.283C358.684 696.039 353.255 696.715 353.48 700.067H353.519Z" fill="#382C80"/>
<path d="M554.988 462.074C546.883 460.29 530.233 463.956 527.871 469.101C527.365 470.048 527.122 471.114 527.166 472.188C527.402 473.495 528.043 474.694 528.998 475.618C532.546 479.587 543.336 482.605 548.216 484.741C550.852 485.888 553.528 486.946 556.223 487.926C555.429 501.45 547.863 513.681 539.318 524.235C530.772 534.79 520.698 544.698 514.004 556.703C507.311 568.708 504.322 583.898 510.555 596.148C511.178 597.358 511.878 598.527 512.652 599.646L506.076 598.196C499.442 600.558 493.473 615.032 495.198 622.079L497.344 618.825C475.588 616.757 461.516 643.178 464.171 654.781C465.612 660.916 506.096 674.273 544.953 683.142C575.882 689.738 603.919 692.884 607.869 686.504C614.464 677.801 608.849 650.43 596.334 638.317L593.316 637.651C596.932 632.398 598.284 623.264 593.757 617.551L588.279 616.346C588.641 616.091 589.004 615.816 589.366 615.542C600.146 607.055 603.861 592.022 602.841 578.302C601.822 564.582 596.912 551.519 593.561 538.191C590.209 524.863 589.317 506.831 594.541 494.091L587.446 495.982C595.135 497.276 602.9 498.207 610.74 498.775C613.014 498.942 615.385 499.059 617.483 498.177C619.962 497.15 621.7 494.871 622.034 492.209C622.368 489.546 621.248 486.908 619.1 485.3L618.12 484.212C613.95 479.825 608.559 476.79 602.645 475.5C602.185 475.392 602.097 475.245 602.645 475.02L596.226 473.863C610.221 465.661 626.185 452.735 628.566 436.692L629.252 432.115C628.586 413.319 612.416 437.623 593.972 431.772C571.001 428.832 552.94 402.725 547.854 425.775C545.002 438.672 548.422 458.673 555.439 468.699" fill="#7F72FF"/>
<path d="M549 453.235C549 453.235 538.132 411.594 553.9 375.873C567.204 368.041 581.062 361.192 595.364 355.382C601.762 352.797 609.098 354.755 613.357 360.184L637.906 391.406C637.906 391.406 638.69 450.677 602.508 475.245C576.597 476.706 549 453.235 549 453.235Z" fill="#7F72FF"/>
<path d="M587.083 362.094C587.083 362.094 597.167 334.174 602.479 329.921C607.79 325.668 614.719 328.402 618.286 333.41C621.853 338.418 618.708 369.082 618.708 369.082L587.083 362.094Z" fill="#7F72FF"/>
<ellipse cx="581.653" cy="454.954" rx="7.6538" ry="49.4606" transform="rotate(-77.55 581.653 454.954)" fill="#7F72FF"/>
<path d="M607.996 332.881C620.05 333.38 613.671 358.057 613.543 365.044C613.455 370.003 616.297 372.57 619.56 375.942C623.363 379.862 627.783 383.88 630.674 388.545C633.859 393.68 632.212 399.942 631.262 405.538C630.311 411.134 629.155 416.533 627.753 421.953C624.83 433.276 620.894 444.312 615.993 454.93C613.553 460.212 621.403 464.847 623.833 459.526C629.73 446.876 634.327 433.66 637.553 420.081C640.248 408.595 645.138 393.229 637.553 382.763C633.77 377.529 628.919 372.963 624.392 368.425C621.707 365.72 622.138 365.064 622.432 361.193C622.726 357.322 622.971 353.48 623.206 349.619C623.578 343.68 623.51 337.398 619.668 332.498C616.819 328.647 611.965 326.84 607.291 327.892C604.351 328.51 605.203 332.792 607.967 332.881H607.996Z" fill="#382C80"/>
<path d="M544.521 443.444C556.364 450.739 569.372 455.947 582.977 458.84C589.543 460.276 596.199 461.258 602.9 461.78C605.84 462.015 624.009 461.27 624.264 465.475C624.568 470.688 632.496 470.786 632.447 465.475C632.378 458.095 624.715 455.42 618.492 454.538C610.564 453.401 602.488 453.813 594.531 452.676C578.233 450.363 562.495 445.081 547.491 438.387C544.1 436.868 541.238 441.416 544.551 443.464L544.521 443.444Z" fill="#382C80"/>
<path d="M599.461 478.068C603.731 479.468 607.79 481.446 611.524 483.948C613.112 485.026 615.493 486.398 616.522 488.093C618.345 491.092 614.994 492.101 612.602 492.533C603.165 494.238 592.689 492.258 583.447 490.298C565.856 486.564 548.638 481.664 534.251 470.414C529.841 466.964 523.471 472.972 527.96 476.715C537.162 484.448 547.805 489.759 559.212 493.434C571.791 497.626 584.803 500.387 598 501.666C606.605 502.391 625.303 503.117 625.881 490.475C626.391 479.205 609.888 473.53 601.117 472.139C597.275 471.521 595.639 476.823 599.48 478.068H599.461Z" fill="#382C80"/>
<path d="M588.347 511.446C586.524 538.71 603.263 563.141 599.254 590.591C597.647 601.538 592.502 614.307 579.341 612.916C572.206 612.171 565.043 609.976 558.045 608.437C550.411 606.781 542.797 605.036 535.143 603.537C529.802 602.479 527.479 610.397 532.869 611.769C541.385 613.886 549.97 615.748 558.526 617.698C566.366 619.472 574.862 622.422 582.967 622.088C595.393 621.589 603.008 611.093 606.085 599.999C610.005 585.887 608.711 570.599 605.105 556.615C601.263 541.826 594.472 526.911 594.119 511.456C594.031 507.732 588.631 507.791 588.386 511.456L588.347 511.446Z" fill="#382C80"/>
<path d="M589.122 618.296C590.739 622.03 592.855 626.714 591.601 630.869C590.347 635.025 586.368 635.769 582.438 635.769C573.775 635.828 564.798 634.525 556.272 633.143C547.913 631.791 539.612 630.046 531.409 627.9C527.215 626.793 522.727 626.048 518.669 624.499C514.612 622.951 510.829 620.423 506.449 619.501C502.264 618.619 499.706 624.147 503.509 626.489C508.409 629.497 514.21 629.831 519.414 631.977C524.634 634.042 529.987 635.754 535.437 637.102C546.345 639.922 557.456 641.888 568.669 642.982C576.862 643.805 588.455 646.001 595.129 639.778C602.636 632.839 599.049 622.579 594.276 615.278C592.091 611.955 587.544 614.817 589.063 618.325L589.122 618.296Z" fill="#382C80"/>
<path d="M593.1 638.268C597.313 644.015 600.655 650.352 603.018 657.074C605.164 663.141 607.771 671.304 607.016 677.821C606.517 682.143 603.234 681.976 599.402 682.388C595.078 682.834 590.734 683.049 586.387 683.035C578.367 682.986 570.359 682.368 562.426 681.182C546.648 678.889 531.174 674.773 515.759 670.785C500.738 667.006 485.946 662.373 471.453 656.908C467.758 655.497 465.328 661.435 468.778 663.268C484.781 671.784 503.205 676.116 520.649 680.614C538.867 685.318 557.34 689.855 576.156 691.188C585.525 691.936 594.949 691.607 604.243 690.208C611.289 689.071 615.415 685.2 615.376 677.772C615.288 661.671 607.967 646.628 597.412 634.887C595.364 632.604 591.219 635.691 593.1 638.219V638.268Z" fill="#382C80"/>
<path d="M516.249 563.906C508.967 572.393 509.173 585.466 513.76 595.158C515.504 598.823 521.943 596.197 520.394 592.365C516.67 583.182 517.885 575.646 520.688 566.493C521.443 564.043 517.993 561.867 516.249 563.906Z" fill="#382C80"/>
<path d="M633.065 251.59C643.482 281.774 618.11 295.562 598.333 312.947C591.473 319.023 584.408 325.246 579.88 333.243C575.352 341.24 573.716 351.471 578.018 359.595C582.32 367.72 591.738 372.159 600.96 373.57C620.07 376.51 639.111 369.19 657.065 362.006C663.644 376.184 676.737 386.251 692.129 388.966" fill="white"/>
<path d="M630.232 252.374C634.152 265.692 631.007 277.471 621.569 287.516C612.583 297.081 601.479 304.49 591.709 313.212C580.478 323.237 569.561 336.32 571.432 352.412C573.118 367.014 586.132 375.687 599.754 377.892C619.991 381.224 639.817 373.815 658.3 366.426L653.057 364.29C660.268 379.491 674.38 390.27 690.943 393.229C696.539 394.16 699.038 385.722 693.325 384.585C679.179 381.938 667.174 372.639 661.073 359.605C660.008 357.791 657.857 356.919 655.83 357.479C640.375 363.623 624.176 370.219 607.232 369.552C592.532 368.945 576.636 360.889 580.399 343.661C583.467 329.568 596.707 319.553 607.202 310.752C615.915 303.451 625.078 296.415 631.702 287.036C639.542 276.011 640.464 263.31 635.907 250.776C634.633 247.268 629.145 248.659 630.232 252.344V252.374Z" fill="#382C80"/>
<path d="M567.404 266.191C523.304 286.115 481.782 325.501 468.513 373.1C467.268 377.568 474.206 379.479 475.461 375.011C488.328 329.127 527.861 290.789 570.256 271.062C573.559 269.533 570.687 264.712 567.404 266.162V266.191Z" fill="#382C80"/>
<path d="M523.402 356.685C514.582 366.22 509.143 379.675 507.193 392.366C506.537 396.678 512.995 398.648 513.877 394.209C516.395 381.567 521.58 371.296 528.381 360.516C530.282 357.498 525.852 354.029 523.402 356.685Z" fill="#382C80"/>
<path d="M603.782 336.144C615.228 334.282 623.857 324.738 624.558 313.163C624.784 308.831 618.374 309.008 617.924 313.163C617.024 321.728 610.638 328.703 602.185 330.352C598.343 331.107 600.039 336.722 603.782 336.144Z" fill="#382C80"/>
<path d="M775.968 213.134C776.144 226.871 774.787 240.584 771.921 254.02C771.401 256.421 775.096 257.45 775.605 255C778.524 241.243 779.712 227.176 779.143 213.125C779.065 211.086 775.939 211.067 775.968 213.125V213.134Z" fill="#382C80"/>
<path d="M352.118 317.455L365.024 334.252C366.504 336.212 369.826 334.252 368.327 332.292L355.391 315.495C353.921 313.594 350.628 315.495 352.118 317.455Z" fill="#382C80"/>
<path d="M327.902 371.14C335.654 370.356 343.415 369.631 351.148 368.631C353.509 368.327 353.617 364.603 351.148 364.838C343.376 365.583 335.644 366.612 327.902 367.582C325.677 367.857 325.599 371.365 327.902 371.14Z" fill="#382C80"/>
<path d="M349.883 435.369C355.087 430.655 360.291 425.971 365.348 421.11C367.092 419.424 364.495 416.896 362.702 418.464C357.429 423.089 352.314 427.882 347.179 432.664C345.375 434.35 348.061 437.015 349.883 435.369Z" fill="#382C80"/>
</svg>
