<svg width="1000" height="1000" viewBox="0 0 1000 1000" fill="none" xmlns="http://www.w3.org/2000/svg">
<path d="M901.124 390.965C916.049 389.24 930.916 394.944 943.813 402.657C949.242 405.9 954.593 409.615 958.336 414.681C965.872 424.765 966.176 438.446 964.961 450.941C959.972 500.463 936.637 546.328 899.546 579.517C889.148 588.729 877.447 597.01 864.001 600.509C850.556 604.007 835.082 602.038 824.801 592.718C813.041 582.095 810.405 564.954 808.455 549.245" fill="var(--color-illustration-primary, #382C80)"/>
<path d="M901.124 394.385C914.393 393.739 927.202 398.178 938.629 404.646C949.683 410.918 958.229 418.444 960.316 431.567C962.159 443.101 960.189 455.469 957.984 466.847C955.833 477.895 952.744 488.741 948.752 499.265C940.587 520.786 928.68 540.692 913.58 558.065C898.821 574.999 878.8 594.707 855.143 596.559C843.138 597.539 830.848 593.619 823.783 583.349C816.717 573.079 815.188 559.829 813.493 547.853C812.669 542.032 802.487 543.336 803.134 549.255C804.506 561.769 806.211 574.627 812.434 585.799C818.437 596.599 828.909 604.19 841.04 606.536C868.931 611.994 893.216 593.747 911.738 575.058C930.22 556.315 944.906 534.176 954.985 509.859C960.134 497.54 964.035 484.736 966.627 471.639C969.117 459.007 971.145 445.561 969.567 432.694C967.676 417.18 959.228 406.704 946.047 398.903C932.014 390.632 916.647 385.291 900.252 387.663C896.43 388.211 897.312 394.572 901.163 394.385H901.124Z" fill="var(--color-illustration-primary, #382C80)"/>
<path d="M557.545 84.7642C556.183 101.483 556.565 118.476 557.438 135.205C559.398 173.003 565.131 210.871 576.195 247.101C583.391 271.128 593.387 294.225 605.977 315.917C607.016 317.681 608.829 318.102 610.71 317.877C662.356 310.635 713.052 294.945 762.042 277.403C766.089 275.962 770.127 274.463 774.135 272.963C775.368 272.588 776.367 271.677 776.854 270.483C777.34 269.289 777.263 267.94 776.644 266.809C768.735 249.786 761.768 232.284 755.211 214.702C742.814 181.461 731.691 147.082 726.595 111.9C724.204 95.4168 722.94 77.7768 727.311 61.5186C727.895 59.2843 726.59 56.9918 724.371 56.354C715.071 54.0706 705.143 53.8648 695.618 53.7276C681.741 53.5218 667.854 54.1098 654.017 55.1486C639.317 56.2462 624.675 57.8828 610.142 60.3034C598.382 62.2634 586.397 64.5958 575.234 68.9078C568.022 71.691 558.241 75.9246 557.536 84.8034C557.104 90.1836 565.493 90.1542 565.915 84.8034C565.915 85.215 566.042 84.137 566.532 83.549C567.259 82.7715 568.042 82.0477 568.874 81.3832C572.038 79.2399 575.489 77.554 579.125 76.3754C589.68 72.5534 600.832 70.3386 611.877 68.4766C638.347 64.0597 665.146 61.9057 691.982 62.038C701.939 62.038 712.415 62.038 722.146 64.3998L719.206 59.245C715.188 74.2194 715.639 90.1738 717.374 105.452C719.422 123.572 723.381 141.428 728.154 159.009C736.778 190.487 748.087 221.249 760.748 251.315C763.522 257.911 766.334 264.506 769.353 271.003L771.852 264.839C734.571 279.063 696.412 290.871 657.613 300.188C641.365 304.108 624.979 307.43 608.437 309.753L613.17 311.713C576.479 249.326 563.964 173.533 565.15 101.855C565.248 96.1714 565.395 90.458 565.846 84.7936C566.365 79.384 557.977 79.4134 557.545 84.7642Z" fill="var(--color-illustration-secondary, #7F72FF)"/>
<path d="M593.237 430.616C593.366 429.92 593.549 429.235 593.786 428.568C593.833 428.41 593.891 428.256 593.962 428.107L593.776 428.558C593.776 428.46 593.864 428.352 593.913 428.254C594.05 427.96 594.197 427.666 594.354 427.382C594.511 427.098 594.677 426.814 594.864 426.539L595.138 426.128C595.197 426.039 595.648 425.451 595.275 425.922C594.903 426.392 595.275 425.922 595.393 425.785C595.51 425.647 595.638 425.5 595.765 425.353C595.893 425.206 596.216 424.873 596.451 424.648C596.686 424.422 596.931 424.197 597.186 423.991C597.441 423.785 597.451 423.785 597.568 423.678C596.873 424.295 597.265 423.913 597.461 423.776C598.04 423.362 598.649 422.992 599.283 422.668C599.538 422.541 600.567 422.149 599.568 422.511L600.489 422.168C601.168 421.955 601.863 421.795 602.566 421.688C603.357 421.471 604.032 420.954 604.448 420.248C604.866 419.51 604.979 418.637 604.762 417.817C604.54 417.031 604.024 416.361 603.321 415.945C602.573 415.56 601.714 415.446 600.891 415.622C594.034 416.865 588.612 422.133 587.171 428.95C586.973 429.768 587.085 430.63 587.484 431.371C588.122 432.466 589.355 433.071 590.611 432.906C591.868 432.741 592.903 431.838 593.237 430.616Z" fill="var(--color-illustration-base, #FFFFFF)"/>
<path d="M682.476 381.665C687.964 387.094 691.296 395.199 689.425 402.686C687.553 410.173 679.331 416.004 671.922 413.819C676.685 415.269 679.948 419.914 681.006 424.785C682.065 429.656 681.261 434.712 680.124 439.563C678.899 444.767 677.184 450.049 673.696 454.087C670.207 458.125 664.493 460.663 659.378 459.095C664.787 462.623 666.826 469.816 665.993 476.215C665.16 482.615 661.975 488.436 658.819 494.071C656.859 497.54 654.811 501.107 651.587 503.44C647.324 506.517 641.65 506.929 636.436 506.252C618.012 503.871 602.744 489.357 595.433 472.286C586.946 452.45 588.798 431.067 589.445 410.095C590.16 386.859 596.864 366.299 611.916 348.472C622.785 335.615 651.116 326.52 647.471 305.46C645.619 294.729 633.623 291.74 627.449 284.184C620.335 275.472 620.864 262.242 626.411 252.883C632.692 242.299 644.051 235.704 655.654 231.558C687.171 220.288 723.048 224.277 753.154 238.899C776.958 250.463 797.254 268.299 813.61 288.977C831.172 311.262 842.559 337.545 861.552 358.998C869.392 367.818 878.643 372.659 889.874 375.658C899.439 378.196 912.992 379.803 920.009 387.594C936.179 405.538 932.592 437.927 925.712 458.664C912.659 498.04 891.873 535.554 859.66 562.397C849.655 570.717 838.267 577.959 825.478 580.409C812.689 582.859 798.293 579.772 789.551 570.119C781.525 561.299 778.771 547.824 768.736 541.307C760.808 536.152 750.616 536.858 741.169 536.407C725.042 535.523 709.38 530.691 695.559 522.334C683.104 514.818 678.115 503.146 667.139 494.894" fill="var(--color-illustration-base, #FFFFFF)"/>
<path d="M680.066 384.076C684.436 388.662 687.837 395.258 686.014 401.716C684.436 407.282 678.752 411.516 672.931 410.114C668.031 408.929 666.424 415.71 670.912 417.464C679.732 420.894 677.674 432.939 675.812 440.004C673.95 447.07 669.531 457.096 660.534 454.94C655.634 453.754 653.459 459.947 657.241 462.78C666.336 469.522 660.044 482.752 655.869 490.288C653.508 494.551 651.146 499.461 646.246 501.215C641.561 502.891 636.054 501.94 631.409 500.598C613.7 495.482 601.45 479.038 596.746 461.849C593.933 451.549 593.424 440.877 593.551 430.253C593.669 419.885 593.708 409.262 595.021 398.962C597.265 381.322 604.419 362.516 617.228 349.766C626.567 340.476 639.337 335.262 647.294 324.443C651.176 319.344 653.018 312.981 652.459 306.597C651.675 298.845 647.079 293.602 641.052 289.114C634.398 284.165 628.067 279.99 627.146 270.954C626.166 261.703 630.605 253.403 637.298 247.336C651.548 234.43 673.852 230.245 692.433 229.981C733.436 229.393 770.97 249.649 798.567 278.981C812.542 293.837 823.067 310.968 833.71 328.226C843.569 344.18 854.29 362.986 870.695 373.012C878.163 377.578 886.522 379.979 894.989 381.93C902.918 383.752 911.943 385.448 917.392 392.043C927.731 404.548 927.829 423.462 925.477 438.672C922.743 456.312 915.765 473.511 908.151 489.553C899.909 506.919 889.756 523.51 877.202 538.112C864.648 552.714 849.067 568.071 830.407 574.019C821.793 576.773 812.405 577.204 803.849 573.931C795.294 570.658 790.463 563.847 786.209 556.017C782.289 548.882 778.281 541.572 771.255 537.024C763.307 531.87 753.477 531.85 744.354 531.546C724.754 530.899 702.488 524.814 688.494 510.261C682.457 503.969 677.429 496.884 670.481 491.503C665.758 487.848 659.025 494.443 663.807 498.177C671.481 504.224 676.763 512.407 683.701 519.169C691.394 526.656 701.341 531.517 711.288 535.211C721.895 539.045 733.049 541.15 744.324 541.444C754.918 541.826 765.306 542.022 771.99 551.46C777.34 559.006 780.369 568.022 787.023 574.676C793.677 581.33 802.526 584.79 811.68 585.838C832.75 588.249 851.683 576.038 866.814 562.749C898.057 535.221 919.842 496.227 931.583 456.537C936.483 439.877 938.648 420.953 934.033 403.94C931.828 395.836 927.731 387.28 921.126 381.871C914.09 376.089 904.936 374.119 896.283 372.12C886.542 369.866 877.085 366.7 869.47 359.948C861.081 352.51 854.623 342.632 848.557 333.302C836.366 314.564 825.664 294.994 810.935 278.03C782.74 245.543 743.609 222.278 699.96 220.288C679.184 219.308 656.291 223.121 638.465 234.381C622.52 244.445 611.025 264.633 620.903 282.999C625.058 290.76 632.839 293.896 638.896 299.717C644.472 305.068 643.864 312.791 639.631 318.769C631.32 330.401 616.522 335.36 607.516 346.356C594.404 362.359 587.171 381.636 585.231 402.098C584.237 413.503 583.881 424.954 584.163 436.398C584.359 447.815 585.623 459.457 589.631 470.218C596.217 487.858 609.878 503.587 628.312 509.134C637.132 511.789 647.912 512.387 655.321 506.145C658.947 503.116 661.259 498.863 663.504 494.786C666.355 489.592 669.08 484.163 670.079 478.273C671.589 469.453 668.884 460.741 661.534 455.42L658.241 463.26C672.118 466.415 680.693 454.156 683.721 442.258C686.749 430.361 686.592 415.132 672.941 410.193L670.922 417.543C679.746 419.363 688.606 414.604 691.963 406.243C695.883 396.767 691.6 386.31 684.897 379.303C681.859 376.128 677.057 380.95 680.075 384.125L680.066 384.076Z" fill="var(--color-illustration-primary, #382C80)"/>
<path d="M607.976 376.236C607.984 375.475 608.037 374.716 608.133 373.962L608.025 374.795C608.251 373.169 608.682 371.579 609.309 370.062L608.995 370.816C609.451 369.736 610.006 368.699 610.652 367.72C611.516 366.219 611.014 364.301 609.525 363.417C608.019 362.586 606.126 363.081 605.222 364.544C602.95 368.023 601.723 372.081 601.685 376.236C601.701 377.966 603.1 379.366 604.83 379.382C606.555 379.35 607.945 377.96 607.976 376.236Z" fill="var(--color-illustration-base, #FFFFFF)"/>
<path d="M315.29 413.397C315.29 413.397 320.298 582.065 409.644 700.537C500.696 677.4 612.994 619.403 612.994 619.403C612.994 619.403 505.772 443.16 519.159 358.88C479.685 353.451 313.565 384.86 315.29 413.397Z" fill="var(--color-illustration-primary, #382C80)"/>
<path d="M541.876 366.122C541.876 366.122 433.096 408.801 438.78 416.886C444.464 424.971 559.026 385.222 559.026 385.222L541.876 366.122Z" fill="var(--color-illustration-base, #FFFFFF)"/>
<path d="M577.067 321.081C577.067 321.081 678.154 295.494 689.679 297.316C701.204 299.139 712.66 340.672 707.907 348.1C703.154 355.528 606.301 402.127 606.301 402.127L577.067 321.081Z" fill="var(--color-illustration-secondary, #7F72FF)"/>
<path d="M694.628 363.163L668.756 293.044C667.482 289.594 669.285 285.566 673.029 283.547C679.409 280.117 689.111 275.707 695.314 276.687C705.202 278.255 732.093 348.61 725.302 357.939C720.98 363.819 710.602 366.524 703.575 367.69C699.567 368.357 695.843 366.465 694.628 363.163Z" fill="var(--color-illustration-secondary, #7F72FF)"/>
<path d="M498.922 298.816C503.117 286.703 554.41 304.902 554.41 304.902C567.905 309.067 578.312 318.622 582.889 331.009L604.684 390.064C609.261 402.461 607.546 416.524 600 428.421C600 428.421 571.942 471.443 559.516 467.16C528.744 456.576 481.018 350.53 498.922 298.816Z" fill="var(--color-illustration-secondary, #7F72FF)"/>
<ellipse cx="713.237" cy="315.45" rx="9.56444" ry="43.0056" transform="rotate(-20.4223 713.237 315.45)" fill="var(--color-illustration-primary, #382C80)"/>
<path d="M724.509 353.715C725.322 353.5 723.117 352.138 722.461 351.422C720.457 349.129 718.693 346.637 717.198 343.984C712.674 336.254 708.885 328.117 705.879 319.68C702.65 311.226 700.19 302.498 698.529 293.602C697.912 290.475 697.617 287.293 697.647 284.106C697.847 283.155 697.959 282.187 697.98 281.215C697.627 279.912 697.353 281.636 697.216 281.215C697.014 281.311 696.792 281.354 696.569 281.342C696.481 281.538 696.647 281.656 697.079 281.685C697.157 282.068 698.794 283.273 699.107 283.645C701.108 285.939 702.868 288.431 704.36 291.084C708.889 298.799 712.682 306.923 715.689 315.348C718.913 323.804 721.373 332.531 723.039 341.426C723.655 344.553 723.951 347.735 723.921 350.922C723.922 351.896 723.811 352.866 723.588 353.813C723.196 355.254 724.205 353.813 723.509 354.137C718.609 356.489 722.902 363.721 727.743 361.379C731.839 359.419 732.329 353.921 732.31 349.942C732.31 342.22 730.35 334.38 728.292 326.991C723.744 310.723 717.276 292.936 706.604 279.578C704.154 276.521 700.656 272.718 696.344 273.012C691.444 273.355 689.738 278.177 689.356 282.362C688.739 289.28 690.336 296.591 692.012 303.255C694.417 312.895 697.61 322.322 701.557 331.44C705.017 339.535 708.927 347.679 714.297 354.695C717.188 358.459 721.402 363.241 726.724 361.84C732.045 360.438 729.742 352.334 724.509 353.715Z" fill="var(--color-illustration-primary, #382C80)"/>
<path d="M725.048 354.058C719.991 357.253 714.521 359.739 708.789 361.448C706.604 362.045 703.497 363.3 701.537 362.016C699.391 360.605 697.617 357.194 696.265 355.048C690.258 345.532 687.612 334.733 684.064 324.188C682.035 318.151 673.039 320.562 674.489 326.824C677.782 340.936 682.819 355.764 692.257 367.004C697.382 373.119 702.4 373.56 709.779 371.287C717.182 369.123 723.937 365.168 729.448 359.772C732.388 356.832 728.625 351.932 725.048 354.058Z" fill="var(--color-illustration-primary, #382C80)"/>
<path d="M689.738 354.862C667.198 366.72 644.579 378.382 621.647 389.485C617.022 391.71 612.171 393.67 607.633 396.042C603.517 398.188 602.096 401.059 602.028 405.606C601.871 416.955 596.706 427.705 590.111 436.77C583.378 446.031 574.166 455.528 564.474 461.721C559.408 464.975 554.753 459.663 551.313 456.106C547.05 451.637 543.057 446.918 539.357 441.974C525.888 424.095 515.632 404.009 509.045 382.616C504.751 368.828 501.887 354.634 500.5 340.26C499.294 327.785 497.883 314.329 503.44 302.628C505.909 297.395 498.324 292.779 495.6 298.032C489.72 309.223 489.338 321.464 490.347 333.821C491.345 347.004 493.426 360.082 496.57 372.923C502.507 396.863 512.697 419.542 526.656 439.877C533.261 449.393 540.719 459.644 549.813 466.945C553.733 470.071 558.486 472.962 563.7 471.845C569.139 470.669 573.637 466.092 577.714 462.613C587.289 454.44 596.177 445.061 602.4 434.036C605.145 429.212 607.319 424.085 608.878 418.758C609.836 415.66 610.47 412.471 610.769 409.242C610.956 406.528 609.907 404.666 612.592 403.294C639.728 389.505 666.963 376.265 693.178 360.713C696.902 358.498 693.599 352.873 689.787 354.911L689.738 354.862Z" fill="var(--color-illustration-primary, #382C80)"/>
<path d="M574.843 324.511C573.866 332.183 574.998 339.975 578.116 347.051C579.89 350.971 586.711 348.169 585.153 344.111C582.712 337.722 581.037 331.44 581.037 324.511C581.037 320.435 575.274 320.65 574.843 324.511Z" fill="var(--color-illustration-primary, #382C80)"/>
<path d="M509.849 397.482C498.168 401.187 486.457 404.685 474.491 407.38C468.709 408.674 462.907 409.889 457.086 410.977C454.44 411.477 443.983 414.848 442.219 412.751C438.466 408.301 431.91 413.976 434.448 418.748C436.986 423.521 442.788 423.54 447.541 422.825C454.842 421.718 462.113 420.13 469.307 418.513C483.896 415.356 498.188 410.953 512.025 405.352C516.709 403.392 514.965 395.855 509.849 397.512V397.482Z" fill="var(--color-illustration-primary, #382C80)"/>
<path d="M426.333 409.154C424.147 412.847 423.786 417.341 425.353 421.335C426.96 425.373 430.939 429.852 435.731 429.254C441.366 428.538 441.954 421.698 441.102 417.259C440.167 412.651 437.364 408.638 433.36 406.175C431.081 404.893 428.195 405.652 426.843 407.89C423.168 413.721 426.314 420.306 431.125 424.266C434.33 426.892 439.191 425.246 439.357 420.855C439.504 416.984 438.671 411.79 435.506 409.183C432.027 406.322 426.823 408.958 427.872 413.633C428.45 416.22 429.763 418.111 429.714 420.855L437.946 417.455C436.791 416.712 435.805 415.734 435.055 414.583C434.585 413.603 434.634 413.397 435.055 412.702L428.528 414.407C430.381 415.583 433.428 419.738 431.713 421.982L434.536 419.807C435.575 419.963 435.663 419.826 434.8 419.395C434.594 419.151 434.375 418.919 434.144 418.699C432.718 416.811 432.447 414.291 433.438 412.143C435.143 408.007 428.538 405.459 426.343 409.154H426.333Z" fill="var(--color-illustration-base, #FFFFFF)"/>
<path d="M365.74 547.765C373.988 541.548 379.865 532.7 382.4 522.687C383.114 520.379 383.425 517.966 383.321 515.553C382.998 512.613 381.175 509.771 377.892 509.751C373.668 509.751 369.748 513.573 368.092 517.199C364.887 524.314 366.641 533.79 372.806 538.818C380.753 545.305 392.317 544.061 400.696 539.082C410.937 532.987 416.376 521.707 421.129 511.231C421.745 510.122 421.649 508.754 420.884 507.742C420.117 506.721 418.803 506.274 417.572 506.615C413.357 508.19 409.999 511.466 408.321 515.641C406.677 519.778 407.43 524.482 410.281 527.901C412.985 531.281 417.363 532.851 421.6 531.958C426.098 530.899 429.303 526.823 432.047 523.393C435.456 519.146 438.427 514.566 440.916 509.722L435.036 508.134C434.281 515.7 442.729 520.511 449.402 519.727C457.909 518.747 462.838 510.623 466.523 503.773L460.78 503.018C462.977 509.1 468.204 513.583 474.549 514.827C481.083 515.992 487.718 513.39 491.719 508.095C493.987 505.21 495.324 501.703 495.551 498.04L490.817 500.755C498.24 505.997 508.18 505.922 515.523 500.568C516.974 499.651 517.467 497.766 516.65 496.256C515.876 494.933 513.71 494.091 512.348 495.129C506.984 499.356 499.445 499.437 493.992 495.325C491.934 493.797 489.386 495.904 489.259 498.04C488.953 503.506 484.849 508.005 479.434 508.812C474.019 509.619 468.782 506.511 466.895 501.372C466.543 500.173 465.518 499.294 464.279 499.128C463.026 498.947 461.788 499.539 461.143 500.627C459.713 503.509 458.003 506.244 456.037 508.791C454.185 510.966 452.117 512.818 449.471 513.416C449.402 513.416 448.491 513.573 449.157 513.504C448.814 513.504 448.481 513.504 448.177 513.563C447.874 513.622 447.491 513.563 447.148 513.563C446.266 513.563 447.668 513.71 446.805 513.563C446.143 513.414 445.489 513.231 444.845 513.014C444.228 512.809 445.149 513.21 444.532 512.867C444.277 512.73 444.022 512.613 443.777 512.466C443.679 512.407 442.905 511.887 443.16 512.074C443.415 512.26 442.709 511.682 442.631 511.603C442.552 511.525 442.258 511.211 442.082 511.015C442.513 511.505 442.023 510.917 441.935 510.79C441.847 510.662 441.425 509.663 441.67 510.359C441.582 510.104 441.523 509.849 441.435 509.594C441.219 508.928 441.386 510.084 441.435 509.369C441.435 508.987 441.435 508.624 441.435 508.242C441.749 505.125 436.947 503.979 435.555 506.654C433.796 510.095 431.788 513.403 429.548 516.552C427.565 519.546 425.211 522.276 422.541 524.676C422.015 525.117 421.431 525.483 420.806 525.764C420.595 525.843 420.379 525.908 420.159 525.96L419.669 526.068C420.012 526.068 419.669 526.068 419.522 526.068H418.875C418.875 526.068 418.346 525.999 418.64 526.068C418.412 525.991 418.179 525.925 417.944 525.872L417.484 525.715C417.552 525.715 417.797 525.862 417.484 525.715C417.084 525.524 416.701 525.301 416.337 525.049C416.043 524.853 416.239 524.99 416.337 525.049C416.2 524.941 416.082 524.823 415.955 524.716C415.661 524.451 415.386 524.166 415.132 523.863C415.338 524.108 414.877 523.51 414.818 523.422C414.604 523.09 414.414 522.743 414.25 522.383C414.103 522.05 414.25 522.295 414.25 522.383C414.171 522.168 414.103 521.952 414.044 521.736C414.044 521.619 413.877 520.835 413.917 521.256C413.892 520.904 413.892 520.55 413.917 520.198C413.896 519.898 413.926 519.596 414.005 519.306C414.145 518.607 414.372 517.929 414.681 517.287C415.002 516.694 415.369 516.127 415.779 515.592C416.271 515.043 416.802 514.528 417.366 514.053C418.015 513.594 418.704 513.194 419.424 512.858L415.72 508.056C412.143 516.043 408.35 524.333 401.853 530.4C399.065 533.018 395.712 534.96 392.053 536.074C388.525 537.242 384.725 537.314 381.155 536.28C380.391 536.065 379.654 535.763 378.96 535.378C378.597 535.182 378.225 534.976 377.872 534.751L377.304 534.378C377.098 534.241 376.833 534.006 377.167 534.29C376.604 533.82 376.079 533.305 375.599 532.752L375.246 532.33C375.305 532.409 375.608 532.781 375.246 532.33C375.001 531.948 374.736 531.566 374.511 531.164C374.285 530.762 374.158 530.517 374.001 530.184C373.913 530.027 373.844 529.851 373.766 529.684C373.766 529.812 373.962 530.233 373.766 529.684C373.501 528.942 373.275 528.186 373.09 527.42C373.011 527.058 372.943 526.695 372.894 526.333C372.845 525.97 372.894 526.832 372.894 526.333C372.894 526.146 372.894 525.97 372.894 525.784C372.84 525.007 372.84 524.228 372.894 523.451C372.894 523.275 372.894 523.099 372.943 522.912C372.825 523.549 372.943 523.04 372.943 522.912C373.011 522.56 373.07 522.207 373.158 521.854C373.247 521.501 373.335 521.178 373.443 520.874L373.619 520.374C373.795 519.806 373.492 520.619 373.619 520.286C373.898 519.66 374.226 519.057 374.599 518.483C375.001 517.865 374.393 518.649 374.893 518.101C375.167 517.816 375.422 517.542 375.716 517.277L376.118 516.944C375.638 517.326 376 517.032 376.118 516.944C376.422 516.758 376.716 516.562 377.039 516.395C377.176 516.317 377.833 515.984 377.853 516.052C377.872 516.121 377.333 515.935 377.255 515.886C377.135 515.82 377.037 515.721 376.971 515.602C376.843 515.415 376.863 515.455 377.029 515.729C377.029 515.729 376.843 514.945 377.029 515.798C377.029 515.886 377.127 516.386 377.029 515.866C377.054 516.232 377.054 516.598 377.029 516.964C377.029 517.023 376.971 517.66 377.029 517.346C377.088 517.032 376.971 517.777 376.961 517.836C376.863 518.404 376.765 518.973 376.647 519.531C374.792 528.588 369.754 536.682 362.447 542.346C360.993 543.256 360.499 545.141 361.32 546.648C362.104 547.981 364.26 548.814 365.622 547.775L365.74 547.765Z" fill="var(--color-illustration-secondary, #7F72FF)"/>
<path d="M383.379 591.071C389.17 588.556 393.856 584.031 396.57 578.331C397.981 575.568 398.488 572.431 398.021 569.364C397.542 566.31 395.272 563.843 392.268 563.112C385.653 561.809 380.753 569.717 383.605 575.372C386.604 581.311 394.385 581.967 399.804 579.292C403.058 577.694 405.684 574.97 407.948 572.216C410.212 569.462 412.348 566.473 415.308 564.464L410.604 561.74C409.82 570.815 417.846 578.91 426.94 577.979C431.205 577.554 435.12 575.435 437.809 572.099C438.955 570.717 439.984 569.247 441.19 567.914C441.474 567.6 441.758 567.306 442.062 567.012C442.16 566.914 442.875 566.297 442.464 566.62C442.777 566.375 443.13 566.189 443.444 565.974C443.757 565.758 443.669 565.846 443.502 565.915C443.782 565.8 444.07 565.708 444.365 565.64C445.093 565.534 445.836 565.571 446.55 565.748C447.726 566.003 448.873 566.375 450.039 566.65C452.11 567.13 454.218 567.435 456.34 567.561C460.31 567.74 464.286 567.381 468.159 566.493C476.048 564.788 483.457 561.417 490.866 558.31C495.09 556.546 499.333 554.831 503.694 553.479C507.852 552.109 512.171 551.286 516.542 551.029C518.264 550.992 519.651 549.605 519.688 547.883C519.672 546.152 518.273 544.753 516.542 544.737C500.47 545.472 486.72 554.439 471.687 559.055C468.29 560.152 464.784 560.878 461.231 561.221C457.653 561.547 454.045 561.232 450.578 560.29C448.059 559.623 445.609 558.996 442.993 559.506C441.143 559.946 439.438 560.857 438.044 562.152C435.476 564.376 433.918 567.522 431.341 569.737C428.53 572.061 424.583 572.428 421.392 570.662C418.201 568.895 416.417 565.356 416.895 561.74C417.101 559.417 414.053 557.742 412.162 559.025C407.634 562.103 404.841 566.689 401.059 570.531C399.58 572.185 397.724 573.459 395.649 574.245C395.226 574.382 394.794 574.486 394.355 574.558C394.983 574.46 393.954 574.558 393.924 574.558H393.277H392.64C393.179 574.617 392.503 574.558 392.376 574.49C392.248 574.421 391.866 574.372 391.611 574.284C391.611 574.284 390.71 573.921 391.19 574.147C391.001 574.064 390.818 573.969 390.641 573.863C390.7 573.863 389.867 573.363 390.2 573.598C390.533 573.833 389.779 573.226 389.818 573.265C389.674 573.121 389.537 572.974 389.406 572.824C389.789 573.294 388.936 571.844 389.142 572.363C389.076 572.177 389.02 571.987 388.975 571.795C389.122 572.402 388.975 571.618 388.975 571.471C388.975 572.059 388.975 571.471 388.975 571.295C388.975 571.119 389.103 570.825 389.201 570.599C388.985 571.099 389.475 570.197 389.583 570.041C389.191 570.599 390.445 569.266 389.877 569.707C390.034 569.59 390.2 569.511 390.357 569.404C390.68 569.227 390.68 569.237 390.357 569.404L390.622 569.315L390.886 569.257C390.543 569.257 390.484 569.257 390.72 569.257C391.337 569.07 390.808 569.364 390.837 569.257C390.867 569.149 391.484 569.521 390.886 569.257C390.886 569.257 391.631 569.756 391.308 569.502C390.984 569.247 391.631 569.864 391.611 569.845C391.435 569.609 391.513 569.57 391.611 569.903C391.7 570.099 391.729 570.423 391.611 569.903C391.727 570.222 391.816 570.55 391.876 570.883C391.984 571.403 391.876 570.188 391.876 571.109V571.736V572.373C391.827 573.353 391.945 572.079 391.876 572.647C391.703 573.57 391.427 574.471 391.053 575.333C388.846 580.006 384.974 583.686 380.194 585.652C378.626 586.328 378.234 588.592 379.067 589.954C379.971 591.416 381.861 591.916 383.37 591.091L383.379 591.071Z" fill="var(--color-illustration-secondary, #7F72FF)"/>
<path d="M401.196 613.092C397.276 618.188 400.324 625.371 405.116 628.645C410.81 632.565 417.915 629.625 421.561 624.431C423.618 621.464 424.539 617.857 424.158 614.268C424.158 612.531 422.749 611.122 421.012 611.122C419.274 611.122 417.866 612.531 417.866 614.268C417.729 617.737 420.247 620.148 423.325 621.206C426.402 622.265 429.303 621.951 432.331 621.579C440.778 620.54 449.236 619.531 457.674 618.453C465.808 617.404 473.834 616.052 481.419 612.837C487.799 610.132 493.669 606.448 499.637 602.949C506.272 599.029 512.897 595.491 520.501 594.051C521.314 593.824 522.004 593.284 522.418 592.548C522.831 591.813 522.935 590.943 522.706 590.131C522.209 588.483 520.505 587.517 518.835 587.935C505.635 590.434 494.933 599.058 483.232 605.027C476.871 608.183 470.051 610.313 463.024 611.338C455.322 612.592 447.531 613.366 439.798 614.278L433.056 615.111C431.326 615.398 429.576 615.549 427.823 615.562H426.911H426.843L426.255 615.454C425.971 615.395 425.686 615.326 425.402 615.238C425.219 615.19 425.039 615.131 424.863 615.062C425.187 615.209 425.187 615.209 424.863 615.062C424.54 614.915 424.403 614.807 424.187 614.67C425.069 615.238 423.393 614.121 424.275 614.787C423.971 614.552 424.158 614.062 424.177 614.689C424.099 614.337 424.089 614.376 424.177 614.787C424.167 614.608 424.167 614.428 424.177 614.248H417.886C417.97 615.01 417.997 615.776 417.964 616.542C417.923 617.027 417.831 617.506 417.69 617.972C417.387 619.208 416.83 620.366 416.053 621.373C416.288 621.05 415.592 621.892 415.514 621.981C415.289 622.216 415.053 622.441 414.818 622.657C414.455 622.961 414.061 623.227 413.642 623.451C412.696 623.96 411.628 624.201 410.555 624.146H410.683C410.498 624.118 410.314 624.078 410.134 624.029C409.858 623.959 409.587 623.874 409.32 623.774C409.918 623.999 409.105 623.647 409.036 623.617C408.746 623.453 408.465 623.273 408.193 623.078C408.017 622.951 408.037 622.97 408.262 623.137C408.115 623.01 407.968 622.882 407.831 622.745C407.694 622.608 407.429 622.333 407.223 622.128C406.645 621.549 407.449 622.539 406.998 621.853C406.821 621.569 406.635 621.295 406.469 621.001C406.4 620.883 405.998 620.021 406.243 620.589C406.137 620.33 406.046 620.065 405.969 619.795C405.89 619.521 405.841 619.256 405.783 618.982C405.92 619.697 405.783 618.766 405.783 618.59C405.783 618.413 405.9 617.482 405.783 618.217C405.783 617.943 405.91 617.688 405.969 617.424C406.106 616.796 405.753 617.678 406.077 617.169C406.273 616.845 406.469 616.522 406.694 616.189C407.674 614.836 406.91 612.671 405.567 611.887C404.062 611.055 402.169 611.551 401.265 613.014L401.196 613.092Z" fill="var(--color-illustration-secondary, #7F72FF)"/>
<path d="M533.633 588.533C537.68 588.533 537.68 582.242 533.633 582.242C529.586 582.242 529.576 588.533 533.633 588.533Z" fill="var(--color-illustration-secondary, #7F72FF)"/>
<path d="M424.187 654.909C432.212 651.411 440.623 648.878 449.245 647.363C450.058 647.137 450.747 646.596 451.159 645.86C451.571 645.124 451.672 644.254 451.44 643.443C450.951 641.793 449.247 640.824 447.579 641.247C438.428 642.905 429.509 645.652 421.011 649.43C419.453 650.116 419.051 652.37 419.884 653.733C420.782 655.204 422.683 655.702 424.187 654.86V654.909Z" fill="var(--color-illustration-secondary, #7F72FF)"/>
<path d="M478.792 639.993L480.948 639.013C481.309 638.829 481.614 638.552 481.83 638.209C482.377 637.569 482.604 636.715 482.448 635.887C482.437 635.468 482.308 635.06 482.075 634.711L481.585 634.074C481.203 633.689 480.727 633.412 480.203 633.27L479.361 633.153C478.802 633.152 478.254 633.3 477.773 633.584L475.617 634.564C475.259 634.757 474.956 635.036 474.735 635.377C474.461 635.68 474.268 636.047 474.176 636.445C474.04 636.85 474.02 637.284 474.118 637.7C474.136 638.115 474.265 638.517 474.49 638.866L474.98 639.503C475.365 639.891 475.845 640.171 476.372 640.316L477.205 640.424C477.764 640.43 478.313 640.281 478.792 639.993Z" fill="var(--color-illustration-secondary, #7F72FF)"/>
<path d="M669.98 89.6936C669.98 89.6936 695.411 89.8308 698.018 90.9676C700.625 92.1044 700.792 102.61 699.224 104.08C697.656 105.55 671.931 110.636 671.931 110.636L669.98 89.6936Z" fill="var(--color-illustration-secondary, #7F72FF)"/>
<path d="M694.932 86.6948C696.333 85.6266 701.341 84.7348 702.772 85.3816C705.016 86.3616 706.692 105.315 704.487 107.098C703.105 108.235 698.764 108.588 697.039 108.431C694.77 107.345 693.312 105.067 693.276 102.551C692.962 98.0236 692.384 88.6352 694.932 86.6948Z" fill="var(--color-illustration-secondary, #7F72FF)"/>
<path d="M652.88 79.6682C654.614 77.0614 665.62 84.4898 665.62 84.4898C668.472 86.1779 670.369 89.105 670.745 92.3984L672.284 107.677C672.584 110.995 671.306 114.262 668.834 116.497C668.834 116.497 659.093 125.513 656.908 123.17C645.785 111.195 645.491 90.7814 652.88 79.6682Z" fill="var(--color-illustration-secondary, #7F72FF)"/>
<ellipse cx="701.768" cy="97.0451" rx="2.3226" ry="10.4566" transform="rotate(-5.75 701.768 97.0451)" fill="var(--color-illustration-secondary, #7F72FF)"/>
<path d="M700.615 87.1652C699.382 92.7992 699.786 98.6686 701.782 104.08C701.966 104.677 702.269 105.23 702.673 105.707C702.958 106.02 703.438 106.256 703.781 106.011C703.931 105.885 704.04 105.718 704.094 105.53C705.05 102.694 705.424 99.6943 705.192 96.7104C705.074 93.3 704.643 89.7328 702.693 86.9104C702.587 86.7265 702.416 86.5898 702.213 86.5282C701.909 86.5282 701.684 86.7928 701.556 87.077C701.057 88.4188 700.902 89.8641 701.105 91.2812C701.321 94.0448 701.782 96.779 702.262 99.5034C702.393 100.536 702.666 101.545 703.075 102.502C703.536 102.345 703.644 101.767 703.673 101.277C703.9 97.7456 703.71 94.1996 703.105 90.7128" fill="var(--color-illustration-primary, #382C80)"/>
<path d="M699.077 86.7437C697.969 90.5087 697.635 94.4593 698.097 98.3567C698.352 101.189 698.763 105.031 700.723 107.265C706.251 113.586 707.819 100.229 707.721 97.3669C707.623 94.5053 706.3 80.9323 700.596 84.6269C698.538 85.9597 698.636 89.2035 698.636 91.3497C698.793 95.1619 699.038 99.7287 700.429 103.296C701.106 105.011 703.536 106.236 704.977 104.492C707.917 101.022 706.368 94.1819 705.633 90.0855C705.026 86.6849 700.086 88.1941 700.527 91.4869C700.694 92.7021 702.066 99.7483 701.135 100.65L705.682 101.846C704.985 99.7724 704.476 97.6403 704.163 95.4755C703.881 94.1124 703.672 92.7352 703.536 91.3497C703.467 90.3697 704.242 88.4979 702.85 88.9879L700.449 88.3509C703.575 91.0655 703.742 101.483 701.586 104.805L703.761 103.561C704.8 103.443 703.605 102.032 703.262 100.983C702.734 99.3879 702.354 97.7477 702.125 96.0831C701.816 93.1141 701.836 90.1201 702.184 87.1553C702.35 85.3129 699.577 85.0875 699.057 86.7339L699.077 86.7437Z" fill="var(--color-illustration-primary, #382C80)"/>
<path d="M586.534 162.674C605.968 163.037 625.911 163.654 644.227 156.04C645.962 155.324 647.628 154.423 649.352 153.688C652.939 152.159 655.144 152.541 658.643 153.129C662.739 153.727 666.903 153.697 670.991 153.041C682.182 151.522 693.335 149.121 704.399 146.857C707.29 146.269 706.045 141.957 703.194 142.457C692.61 144.329 682.104 146.69 671.5 148.337C665.767 149.248 661.054 148.601 655.37 147.955C651.655 147.533 648.97 149.18 645.687 150.748C627.498 159.46 606.311 159.754 586.534 159.705C585.723 159.705 585.064 160.363 585.064 161.175C585.064 161.987 585.723 162.645 586.534 162.645V162.674Z" fill="var(--color-illustration-secondary, #7F72FF)"/>
<path d="M594.786 185.714C590.593 187.155 588.015 191.37 588.641 195.759C589.21 201.159 593.914 204.579 599.059 205.098C605.595 205.814 611.289 202.09 615.327 197.258C617.963 194.103 622.285 188.438 619.188 184.313C616.669 180.922 611.642 182.46 610.133 185.949C607.937 191.035 612.347 196.484 616.699 198.581C629.546 204.765 639.611 193.231 645.746 183.519L641.826 182.999C643.1 187.615 647.324 189.859 651.959 189.859C659.348 189.908 664.699 183.578 671.873 182.617C680.065 181.52 688.454 182.039 696.696 180.892C705.282 179.686 713.743 177.719 721.98 175.012C724.744 174.111 723.577 169.76 720.775 170.642C707.258 174.93 693.211 177.318 679.036 177.737C673.548 177.864 668.59 178.031 663.582 180.52C659.358 182.627 648.627 189.899 645.991 181.823C645.452 180.157 642.943 179.56 642.071 181.304C639.444 186.41 635.671 191.672 630.448 194.358C627.463 195.921 624.01 196.342 620.736 195.543C619.393 195.21 618.128 194.617 617.012 193.799C616.202 193.301 615.509 192.632 614.984 191.839C613.677 190.656 613.703 189.637 615.062 188.781C616.405 186.821 616.503 187.272 615.346 190.036L614.748 191.084C613.806 192.645 612.695 194.097 611.436 195.416C609.319 197.954 606.489 199.797 603.312 200.708C599.901 201.521 595.207 200.816 593.277 197.494C592.389 195.958 592.185 194.122 592.714 192.429C593.242 190.736 594.456 189.342 596.06 188.585C597.677 187.86 596.53 185.126 594.845 185.714H594.786Z" fill="var(--color-illustration-secondary, #7F72FF)"/>
<path d="M606.927 236.057C620.72 233.443 634.228 229.505 647.264 224.297C648.901 223.791 649.862 222.1 649.459 220.435C649.048 218.936 647.176 217.603 645.539 218.23C632.504 223.44 618.995 227.378 605.203 229.99C604.391 230.219 603.704 230.76 603.293 231.495C602.881 232.231 602.778 233.099 603.007 233.91C603.505 235.582 605.242 236.555 606.927 236.106V236.057Z" fill="var(--color-illustration-base, #FFFFFF)"/>
<path d="M686.367 216.417C692.521 214.842 698.806 213.828 705.143 213.389C706.881 213.389 708.289 211.981 708.289 210.243C708.289 208.506 706.881 207.098 705.143 207.098C698.243 207.573 691.398 208.662 684.691 210.351C683.607 210.651 682.765 211.505 682.483 212.593C682.2 213.682 682.52 214.838 683.321 215.627C684.122 216.415 685.283 216.717 686.367 216.417Z" fill="var(--color-illustration-base, #FFFFFF)"/>
<path d="M585.475 363.506C589.67 363.506 589.68 356.989 585.475 356.989C581.271 356.989 581.271 363.506 585.475 363.506Z" fill="var(--color-illustration-primary, #382C80)"/>
<path d="M354.96 472.452C378.244 472.364 401.48 472.864 424.422 468.15C446.962 463.534 467.679 452.215 490.739 450.049C495.786 449.569 495.972 441.778 490.739 442.023C468.071 443.082 447.717 454.763 425.941 459.928C402.842 465.396 378.617 466.386 354.96 466.788C351.294 466.837 351.285 472.501 354.96 472.482V472.452Z" fill="var(--color-illustration-base, #FFFFFF)"/>
<path d="M792.04 322.091C773.543 313.726 753.834 308.354 733.651 306.176C724.459 305.196 714.816 304.931 706.319 308.586C697.823 312.242 690.825 320.797 691.619 330.019C693.511 351.256 714.1 370.032 726.566 385.595C727.62 386.731 728.41 388.086 728.879 389.564C729.369 391.622 728.595 393.748 727.899 395.748C717.182 425.63 717.261 458.322 728.124 488.152" fill="var(--color-illustration-base, #FFFFFF)"/>
<path d="M793.775 319.18C774.614 309.833 754 303.825 732.819 301.413C715.463 299.541 692.198 303.049 687.396 323.306C683.397 340.172 696.911 357.851 706.868 369.964C709.544 373.227 712.317 376.412 715.071 379.607C717.589 382.547 722.548 386.555 723.528 390.387C724.126 392.69 722.548 395.434 721.764 397.698C720.98 399.962 720.353 402.137 719.736 404.381C718.2 409.996 717.018 415.701 716.198 421.463C712.974 444.081 714.14 469.62 724.538 490.308C726.743 494.698 733.23 491.552 732.201 487.074C727.801 467.964 723.999 449.559 725.704 429.793C726.56 420.104 728.513 410.543 731.525 401.294C732.809 397.325 734.916 393.19 733.995 388.917C733.132 384.928 730.173 382.057 727.615 379.019C717.286 366.72 704.732 354.862 698.94 339.574C696.147 332.244 695.108 324.747 700.704 318.475C707.231 311.164 717.482 309.988 726.733 310.331C748.646 311.154 771.019 316.965 791.187 325.344C794.696 326.805 797.224 320.827 793.784 319.18H793.775Z" fill="var(--color-illustration-primary, #382C80)"/>
<path d="M663.238 213.164C671.137 224.561 687.915 217.025 685.249 203.599C684.818 201.443 681.653 201.639 681.094 203.599C679.065 210.675 686.21 214.575 692.364 213.771C697.362 213.125 702.301 211.361 707.162 210.057C713.042 208.489 718.922 206.98 724.743 205.157C725.823 204.805 726.436 203.667 726.135 202.571C725.834 201.476 724.724 200.811 723.616 201.061C717.374 202.492 711.209 204.265 704.996 205.961C702.056 206.774 682.75 213.536 685.21 204.746H681.055C681.937 208.568 679.989 212.48 676.408 214.08C672.826 215.679 668.613 214.519 666.355 211.312C664.963 209.479 661.817 211.184 663.189 213.164H663.238Z" fill="var(--color-illustration-secondary, #7F72FF)"/>
<path d="M625.048 229.04H627.321C628.001 229.04 628.628 228.677 628.968 228.089C629.307 227.501 629.307 226.776 628.968 226.188C628.628 225.6 628.001 225.237 627.321 225.237H625.048C624.011 225.268 623.177 226.102 623.146 227.139C623.177 228.176 624.011 229.009 625.048 229.04Z" fill="var(--color-illustration-secondary, #7F72FF)"/>
<path d="M51.1591 183.734C45.1909 203.834 41.3591 224.708 38.0663 245.386C30.7163 292.064 28.0017 339.731 32.3039 386.849C35.1067 417.513 40.9083 447.903 50.7279 477.117C51.2854 478.899 52.9091 480.134 54.7753 480.194C119.828 484.653 185.86 478.44 250.295 469.62C255.675 468.885 261.075 468.14 266.416 467.288C268.719 466.915 269.817 464.132 269.356 462.123C264.113 439.436 260.095 416.406 256.616 393.396C249.962 349.629 245.219 304.794 248.031 260.498C249.354 239.634 252.206 217.554 261.82 198.699C262.8 196.798 262.447 193.995 260.311 192.956C249.639 187.801 237.771 185.018 226.266 182.421C209.664 178.678 192.848 175.875 175.992 173.601C143.593 169.23 109.195 165.154 76.6097 169.926C67.7505 171.171 54.0991 173.66 51.1591 183.734C49.6499 188.928 57.7447 191.153 59.2441 185.969C59.4393 185.08 59.9738 184.303 60.7337 183.803C61.929 182.875 63.2361 182.102 64.6243 181.5C68.5443 179.746 73.6207 178.766 78.0993 178.09C91.6723 176.041 105.686 176.267 119.367 176.806C152.897 178.157 186.251 182.373 219.063 189.409C231.401 192.045 244.729 194.71 256.048 200.189L254.548 194.456C245.924 211.37 242.445 230.441 240.544 249.179C238.241 271.797 238.584 294.651 239.897 317.318C242.328 358.145 248.227 398.825 255.989 438.956C257.626 447.443 259.311 455.929 261.261 464.348L264.201 459.183C215.451 466.881 166.253 471.418 116.917 472.766C96.2195 473.344 75.4729 473.226 54.8047 471.786L58.8521 474.863C41.8393 424.305 36.9491 370.493 39.2521 317.406C40.8128 279.943 45.7989 242.701 54.1481 206.147C55.6965 199.385 57.3037 192.613 59.2735 185.969C60.8121 180.785 52.7271 178.56 51.1591 183.734Z" fill="var(--color-illustration-secondary, #7F72FF)"/>
<path d="M185.762 218.603C185.762 218.603 216.701 225.286 219.592 227.335C222.483 229.383 219.984 242.221 217.701 243.593C215.417 244.965 182.783 244.573 182.783 244.573L185.762 218.603Z" fill="var(--color-illustration-secondary, #7F72FF)"/>
<path d="M216.917 221.347C218.877 220.367 225.218 220.651 226.776 221.749C229.255 223.513 226.404 247.013 223.287 248.63C221.327 249.659 215.937 248.973 213.879 248.346C211.397 246.44 210.209 243.292 210.812 240.222C211.625 234.636 213.321 223.062 216.917 221.347Z" fill="var(--color-illustration-secondary, #7F72FF)"/>
<path d="M167.525 202.011C170.299 199.277 181.794 211.145 181.794 211.145C184.836 213.933 186.395 217.984 186.008 222.092L183.97 241.084C183.472 245.18 181.086 248.807 177.521 250.884C177.521 250.884 163.35 259.371 161.283 255.951C150.797 238.585 155.677 213.654 167.525 202.011Z" fill="var(--color-illustration-secondary, #7F72FF)"/>
<ellipse cx="222.623" cy="235.7" rx="13.0144" ry="2.891" transform="rotate(-83.86 222.623 235.7)" fill="var(--color-illustration-secondary, #7F72FF)"/>
<path d="M223.718 223.375C220.754 229.931 219.734 237.2 220.778 244.318C220.854 245.093 221.081 245.845 221.445 246.533C221.709 246.984 222.238 247.395 222.719 247.18C222.926 247.06 223.099 246.888 223.218 246.68C225.267 243.563 226.158 239.82 226.825 236.194C227.55 232.009 227.942 227.55 226.286 223.65C226.209 223.396 226.032 223.183 225.796 223.062C225.443 222.934 225.09 223.248 224.865 223.552C223.918 225.054 223.362 226.768 223.248 228.54C222.807 231.96 222.66 235.4 222.552 238.85C222.45 240.141 222.526 241.44 222.777 242.711C223.375 242.632 223.659 241.956 223.816 241.378C224.986 237.134 225.644 232.764 225.776 228.364" fill="var(--color-illustration-primary, #382C80)"/>
<path d="M222.346 222.572C220.205 226.698 218.856 231.189 218.367 235.812C217.936 239.232 217.299 244.632 219.298 247.797C224.375 255.745 228.785 239.702 229.245 236.85C229.706 233.999 231.362 217.77 224.345 220.896C221.405 222.209 221.003 226.923 220.651 229.618C220.043 234.126 219.396 238.938 220.141 243.456C220.37 244.268 220.961 244.929 221.742 245.247C222.524 245.565 223.409 245.504 224.139 245.082C228.363 241.839 228.314 233.322 228.461 228.422C228.569 224.992 223.404 225.051 223.169 228.422C223.022 230.657 222.846 232.881 222.483 235.086C222.346 235.959 222.081 239.986 221.395 240.418L225.394 242.044C225.11 240.261 224.708 225.727 226.472 225.482L223.64 224.306C225.933 227.246 224.992 232.146 224.394 235.527C224.159 236.841 223.894 238.144 223.542 239.447C223.352 240.223 223.123 240.988 222.856 241.741C221.278 243.701 221.15 244.426 222.493 243.857C223.806 243.71 223.914 242.779 222.816 241.045L222.709 239.398C222.597 237.767 222.597 236.13 222.709 234.498C223.139 230.862 223.977 227.285 225.208 223.836C225.467 223.044 225.074 222.185 224.304 221.864C223.534 221.544 222.648 221.869 222.268 222.611L222.346 222.572Z" fill="var(--color-illustration-primary, #382C80)"/>
<path d="M65.4489 285.703C89.4197 291.182 114.067 297.003 138.665 292.034C141.448 291.476 144.231 290.368 147.034 290.006C150.777 289.525 153.276 291.485 156.569 292.72C161.871 294.68 167.575 295.307 173.229 295.601C186.42 296.278 199.689 296.327 212.9 296.474C215.84 296.474 215.84 292.005 212.9 291.917C200.258 291.534 187.596 291.495 174.964 291.074C168.672 290.868 162.341 290.309 156.471 287.908C151.267 285.782 148.396 285.272 142.888 286.693C117.585 293.23 91.3111 288.261 66.2623 282.881C64.4297 282.479 63.6359 285.282 65.4881 285.703H65.4489Z" fill="var(--color-illustration-secondary, #7F72FF)"/>
<path d="M69.7211 316.622C60.6953 317.72 57.0399 328.863 62.6945 335.683C70.1817 344.748 83.1863 341.563 91.2223 335.242C94.8483 332.41 100.189 328.069 99.6895 322.845C99.3171 318.827 95.1031 316.867 91.5555 318.377C87.2827 320.199 86.5673 325.354 87.7629 329.362C89.1839 334.096 93.0353 337.643 97.4943 339.535C111.067 345.307 122.876 335.674 131.794 326.354L128.1 324.825C128.364 330.872 133.343 334.625 139.027 335.605C147.592 337.036 155.314 331.126 163.879 331.685C169.064 331.999 174.218 333.498 179.354 334.292C184.254 335.037 189.154 335.605 194.054 335.968C205.052 336.767 216.1 336.56 227.06 335.35C229.922 335.046 230 330.529 227.06 330.813C209.078 332.624 190.93 331.872 173.16 328.578C165.643 327.167 159.44 326.736 152.012 329.019C146.582 330.705 133.264 334.527 132.412 324.884C132.274 323.218 130.03 321.767 128.727 323.355C123.435 329.754 116.046 336.497 107.333 337.124C103.438 337.419 99.5574 336.383 96.3281 334.184C94.9441 333.227 93.7674 332 92.8687 330.578C92.3126 329.685 91.9024 328.709 91.6535 327.687C90.6343 325.073 91.7482 324.309 94.9953 325.393C95.8381 327.079 87.5277 332.91 86.1753 333.772C82.1867 336.34 77.4533 337.928 72.6905 336.948C68.8685 336.164 64.9485 333.665 64.0371 329.627C63.0571 325.237 65.7521 320.582 70.1719 319.749C71.8869 319.425 71.5243 316.456 69.7505 316.662L69.7211 316.622Z" fill="var(--color-illustration-secondary, #7F72FF)"/>
<path d="M71.2398 379.891C88.9887 380.228 106.728 378.84 124.209 375.746C125.874 375.27 126.854 373.55 126.414 371.875C125.916 370.203 124.179 369.231 122.494 369.68C105.559 372.639 88.3783 373.952 71.1908 373.6C67.1434 373.521 67.1434 379.813 71.1908 379.891H71.2398Z" fill="var(--color-illustration-base, #FFFFFF)"/>
<path d="M173.004 376.344C180.971 376.005 188.953 376.369 196.857 377.431C198.522 377.834 200.212 376.873 200.718 375.236C201.13 373.766 200.218 371.6 198.523 371.365C190.085 370.174 181.558 369.738 173.043 370.062C171.879 369.997 170.774 370.581 170.173 371.579C169.571 372.578 169.571 373.827 170.173 374.826C170.774 375.825 171.879 376.409 173.043 376.344H173.004Z" fill="var(--color-illustration-base, #FFFFFF)"/>
<path d="M146.308 366.985C148.846 373.198 154.893 377.51 161.782 376.706C169.446 375.824 174.65 368.817 174.65 361.379C174.62 360.422 173.968 359.597 173.044 359.347C172.119 359.096 171.14 359.48 170.632 360.291C165.732 368.807 175.248 374.746 182.715 374.991C195.847 375.383 209.606 373.913 222.689 372.737C225.365 372.502 225.463 368.425 222.689 368.494C214.212 368.709 205.735 369.317 197.258 369.827C193.26 370.072 189.242 370.415 185.234 370.542C181.226 370.669 170.465 369.337 174.356 362.496L170.338 361.408C170.416 373.678 154.55 376.432 149.66 365.603C148.817 363.731 145.524 365.083 146.308 367.014V366.985Z" fill="var(--color-illustration-secondary, #7F72FF)"/>
<path d="M95.3185 376.275L98.0919 376.863C99.0739 377.057 100.038 376.456 100.296 375.489C100.555 374.522 100.019 373.52 99.0719 373.198L96.2985 372.61C95.3166 372.416 94.3527 373.017 94.0942 373.984C93.8357 374.951 94.371 375.953 95.3185 376.275Z" fill="var(--color-illustration-secondary, #7F72FF)"/>
<path d="M182.205 713.121C180.843 729.849 181.225 746.842 182.098 763.571C184.058 801.36 189.791 839.227 200.855 875.458C208.051 899.484 218.047 922.581 230.637 944.273C231.676 946.047 233.489 946.468 235.37 946.233C287.016 938.981 337.712 923.301 386.702 905.759C390.749 904.309 394.787 902.819 398.795 901.32C400.029 900.942 401.028 900.029 401.514 898.834C402 897.638 401.923 896.288 401.304 895.156C393.395 878.104 386.428 860.64 379.871 843C367.474 809.768 356.351 775.38 351.255 740.208C348.864 723.724 347.6 706.084 351.971 689.816C352.555 687.584 351.249 685.295 349.031 684.661C339.731 682.368 329.803 682.172 320.278 682.025C306.411 681.819 292.514 682.407 278.677 683.446C263.977 684.554 249.335 686.18 234.812 688.611C223.052 690.571 211.057 692.893 199.894 697.205C192.682 699.989 182.901 704.232 182.196 713.101C181.764 718.481 190.153 718.452 190.584 713.101C190.584 713.522 190.712 712.444 191.192 711.856C191.92 711.079 192.702 710.355 193.534 709.691C196.7 707.548 200.151 705.859 203.785 704.673C214.34 700.861 225.492 698.636 236.537 696.833C263.005 692.43 289.8 690.289 316.632 690.434C326.589 690.434 337.065 690.434 346.796 692.795L343.856 687.641C339.829 702.615 340.279 718.569 342.014 733.838C344.062 751.958 348.021 769.823 352.794 787.395C361.418 818.872 372.727 849.635 385.389 879.711C388.162 886.306 390.975 892.902 393.993 899.389L396.492 893.235C359.213 907.46 321.054 919.264 282.254 928.574C266.005 932.494 249.62 935.826 233.077 938.148L237.811 940.108C201.119 877.731 188.605 801.928 189.791 730.251C189.889 724.567 190.036 718.863 190.496 713.189C191.025 707.76 182.637 707.76 182.205 713.121Z" fill="var(--color-illustration-secondary, #7F72FF)"/>
<path d="M294.641 718.06C294.641 718.06 320.072 718.187 322.678 719.324C325.285 720.461 325.452 730.966 323.884 732.427C322.316 733.887 296.591 738.973 296.591 738.973L294.641 718.06Z" fill="var(--color-illustration-secondary, #7F72FF)"/>
<path d="M319.592 715.061C320.993 713.983 326.001 713.101 327.432 713.748C329.666 714.728 331.352 733.671 329.137 735.465C327.755 736.601 323.414 736.944 321.689 736.797C319.42 735.711 317.962 733.433 317.926 730.917C317.632 726.38 317.044 717.001 319.592 715.061Z" fill="var(--color-illustration-secondary, #7F72FF)"/>
<path d="M277.54 708.025C279.275 705.418 290.28 712.856 290.28 712.856C293.132 714.54 295.03 717.464 295.405 720.755L296.944 736.033C297.231 739.336 295.954 742.582 293.494 744.804C293.494 744.804 283.753 753.83 281.568 751.488C270.445 739.561 270.151 719.148 277.54 708.025Z" fill="var(--color-illustration-secondary, #7F72FF)"/>
<ellipse cx="326.414" cy="725.407" rx="2.3226" ry="10.4566" transform="rotate(-5.75 326.414 725.407)" fill="var(--color-illustration-secondary, #7F72FF)"/>
<path d="M325.276 715.531C324.035 721.175 324.439 727.056 326.442 732.476C326.626 733.075 326.93 733.632 327.334 734.112C327.618 734.416 328.098 734.661 328.441 734.416C328.588 734.288 328.696 734.122 328.755 733.936C329.709 731.099 330.082 728.1 329.852 725.116C329.735 721.705 329.304 718.138 327.353 715.316C327.251 715.129 327.078 714.991 326.873 714.934C326.569 714.934 326.344 715.198 326.217 715.473C325.719 716.818 325.564 718.266 325.766 719.687C325.981 722.45 326.442 725.184 326.922 727.909C327.054 728.941 327.328 729.95 327.736 730.908C328.196 730.751 328.304 730.163 328.333 729.683C328.561 726.151 328.37 722.605 327.765 719.118" fill="var(--color-illustration-primary, #382C80)"/>
<path d="M323.737 715.11C322.629 718.875 322.295 722.826 322.757 726.723C323.012 729.545 323.424 733.397 325.384 735.631C330.911 741.952 332.479 728.595 332.381 725.733C332.283 722.872 330.96 709.299 325.256 712.993C323.198 714.316 323.247 717.57 323.296 719.716C323.453 723.528 323.698 728.085 325.09 731.652C325.766 733.367 328.196 734.592 329.637 732.858C332.577 729.379 331.029 722.548 330.294 718.442C329.686 715.041 324.747 716.56 325.188 719.853C325.354 721.068 326.726 728.115 325.795 729.006L330.343 730.212C329.645 728.135 329.137 726 328.824 723.832C328.541 722.472 328.332 721.098 328.196 719.716C328.128 718.736 328.902 716.864 327.51 717.344L325.109 716.707C328.236 719.432 328.402 729.849 326.246 733.171L328.422 731.917C329.461 731.809 328.265 730.398 327.922 729.349C327.404 727.751 327.024 726.112 326.785 724.449C326.477 721.48 326.496 718.486 326.844 715.522C327.011 713.679 324.237 713.454 323.718 715.1L323.737 715.11Z" fill="var(--color-illustration-primary, #382C80)"/>
<path d="M211.194 791.06C230.627 791.432 250.57 792.04 268.886 784.435C270.621 783.71 272.287 782.818 274.012 782.083C277.598 780.554 279.803 780.937 283.302 781.525C287.399 782.123 291.562 782.093 295.65 781.436C306.842 779.917 317.994 777.516 329.058 775.243C331.949 774.665 330.705 770.343 327.853 770.852C317.279 772.714 306.763 775.076 296.16 776.732C290.427 777.644 285.713 776.997 280.029 776.36C276.315 775.939 273.629 777.585 270.346 779.153C252.158 787.855 230.97 788.12 211.194 788.12C210.382 788.12 209.724 788.778 209.724 789.59C209.724 790.402 210.382 791.06 211.194 791.06Z" fill="var(--color-illustration-secondary, #7F72FF)"/>
<path d="M219.446 814.07C215.256 815.515 212.679 819.727 213.301 824.115C213.87 829.525 218.574 832.935 223.719 833.465C230.255 834.18 235.949 830.456 239.987 825.625C242.623 822.469 246.945 816.805 243.848 812.689C241.329 809.298 236.302 810.827 234.793 814.315C232.597 819.411 237.007 824.85 241.359 826.948C254.206 833.141 264.271 821.607 270.406 811.885L266.486 811.366C267.76 815.991 271.984 818.226 276.619 818.226C284.008 818.226 289.359 811.934 296.533 810.983C304.725 809.886 313.114 810.395 321.366 809.259C329.948 808.051 338.406 806.084 346.64 803.379C349.404 802.477 348.237 798.126 345.435 798.998C331.918 803.286 317.871 805.674 303.696 806.093C298.208 806.23 293.25 806.387 288.242 808.886C284.018 810.993 273.287 818.265 270.661 810.18C270.112 808.514 267.603 807.926 266.741 809.66C264.114 814.776 260.341 820.029 255.118 822.714C252.135 824.285 248.681 824.71 245.406 823.91C244.063 823.576 242.798 822.983 241.682 822.165C240.87 821.669 240.177 821 239.653 820.205C238.347 819.029 238.373 818.01 239.732 817.148C241.078 815.227 241.172 815.648 240.016 818.412L239.32 819.48C238.375 821.042 237.264 822.497 236.008 823.821C233.89 826.356 231.06 828.196 227.884 829.104C224.473 829.917 219.779 829.221 217.848 825.889C216.964 824.353 216.761 822.518 217.29 820.826C217.818 819.134 219.03 817.74 220.632 816.981C222.249 816.266 221.102 813.531 219.416 814.11L219.446 814.07Z" fill="var(--color-illustration-secondary, #7F72FF)"/>
<path d="M231.587 864.413C245.38 861.8 258.888 857.862 271.924 852.653C273.562 852.143 274.522 850.449 274.119 848.782C273.708 847.283 271.836 845.95 270.248 846.587C257.216 851.795 243.711 855.734 229.921 858.347C228.822 858.63 227.96 859.485 227.667 860.582C227.374 861.679 227.695 862.849 228.508 863.643C229.32 864.437 230.497 864.731 231.587 864.413Z" fill="var(--color-illustration-base, #FFFFFF)"/>
<path d="M311.027 844.784C317.18 843.204 323.465 842.191 329.803 841.755C331.525 841.719 332.913 840.332 332.949 838.61C332.928 836.881 331.532 835.485 329.803 835.464C322.906 835.938 316.065 837.027 309.361 838.717C307.671 839.193 306.685 840.946 307.156 842.637C307.649 844.288 309.356 845.257 311.027 844.833V844.784Z" fill="var(--color-illustration-base, #FFFFFF)"/>
<path d="M287.899 841.53C295.797 852.927 312.575 845.391 309.909 831.965C309.478 829.799 306.313 830.005 305.754 831.965C303.726 839.031 310.87 842.931 317.024 842.137C322.022 841.481 326.961 839.727 331.822 838.423C337.702 836.845 343.582 835.346 349.403 833.523C350.532 833.212 351.194 832.045 350.883 830.916C350.572 829.788 349.405 829.125 348.276 829.437C342.034 830.858 335.87 832.641 329.656 834.337C326.716 835.15 307.41 841.912 309.87 833.131H305.715C306.597 836.954 304.65 840.865 301.068 842.465C297.486 844.065 293.273 842.905 291.015 839.697C289.623 837.865 286.478 839.57 287.85 841.549L287.899 841.53Z" fill="var(--color-illustration-secondary, #7F72FF)"/>
<path d="M249.708 857.406H251.981C253.031 857.406 253.883 856.555 253.883 855.505C253.883 854.455 253.031 853.604 251.981 853.604H249.708C248.671 853.634 247.837 854.468 247.807 855.505C247.837 856.542 248.671 857.375 249.708 857.406Z" fill="var(--color-illustration-secondary, #7F72FF)"/>
<path d="M619.06 680.565C619.345 696.833 621.373 713.179 623.764 729.251C629.145 765.433 638.308 801.242 652.459 835.023C661.526 857.094 673.139 878.032 687.063 897.41C688.05 899.018 689.96 899.809 691.796 899.37C740.747 887.512 788.003 867.598 833.435 846.116C837.355 844.284 841.168 842.451 844.999 840.54C846.978 839.352 847.644 836.801 846.499 834.797C837.404 819.382 829.133 803.437 821.244 787.375C806.123 756.633 792.148 724.655 783.906 691.335C780.074 675.841 776.978 659.054 779.624 643.109C779.947 641.149 779.114 638.298 776.684 637.945C767.501 636.632 758.064 637.259 748.901 638.023C735.592 639.14 722.333 640.963 709.171 643.276C684.172 647.588 657.594 652.635 634.691 663.925C628.282 667.08 618.943 672.284 619.09 680.585C619.178 685.975 627.567 685.994 627.479 680.585C627.479 679.791 627.381 679.987 627.91 679.066C628.503 678.146 629.233 677.323 630.076 676.625C632.865 674.344 635.95 672.451 639.248 671C648.813 666.345 659.191 663.278 669.432 660.495C694.276 653.783 719.645 649.193 745.265 646.775C754.663 645.883 765.659 644.815 774.488 646.059L771.548 640.904C769.118 655.604 770.892 670.667 773.91 685.171C777.458 702.213 782.946 718.844 789.139 735.092C800.449 764.727 814.257 793.441 829.319 821.332C832.544 827.281 835.797 833.22 839.237 839.051L840.746 833.318C806.773 850.247 771.747 864.977 735.886 877.418C720.657 882.71 705.242 887.472 689.571 891.265L694.305 893.225C653.262 836.865 633.898 765.384 628.38 696.598C627.949 691.267 627.557 685.916 627.469 680.565C627.381 675.214 618.962 675.155 619.06 680.565Z" fill="var(--color-illustration-secondary, #7F72FF)"/>
<path d="M727.36 675.067C727.36 675.067 751.723 672.794 754.33 673.636C756.937 674.479 758.083 684.524 756.721 686.063C755.359 687.601 731.241 694.883 731.241 694.883L727.36 675.067Z" fill="var(--color-illustration-secondary, #7F72FF)"/>
<path d="M750.939 669.844C752.184 668.687 756.898 667.404 758.299 667.884C760.533 668.599 763.895 686.592 761.984 688.464C760.769 689.689 756.643 690.424 754.977 690.424C752.703 689.598 751.093 687.555 750.822 685.151C750.126 680.869 748.685 671.941 750.939 669.844Z" fill="var(--color-illustration-secondary, #7F72FF)"/>
<path d="M710.024 667.08C711.435 664.424 722.666 670.5 722.666 670.5C725.558 671.844 727.652 674.468 728.321 677.586L731.28 692.08C731.865 695.215 730.948 698.443 728.801 700.802C728.801 700.802 720.334 710.357 718.021 708.319C706.202 697.96 703.997 678.419 710.024 667.08Z" fill="var(--color-illustration-secondary, #7F72FF)"/>
<ellipse cx="758.446" cy="679.115" rx="2.2344" ry="10.0646" transform="rotate(-11.38 758.446 679.115)" fill="var(--color-illustration-secondary, #7F72FF)"/>
<path d="M756.418 669.765C755.769 675.286 756.715 680.876 759.142 685.877C759.37 686.428 759.703 686.931 760.122 687.356C760.426 687.621 760.916 687.807 761.22 687.543C761.346 687.401 761.434 687.229 761.474 687.043C762.129 684.232 762.203 681.318 761.69 678.478C761.259 675.224 760.504 671.853 758.368 669.354C758.257 669.184 758.079 669.069 757.878 669.04C757.584 669.04 757.398 669.344 757.3 669.618C756.956 670.956 756.956 672.358 757.3 673.695C757.76 676.312 758.456 678.889 759.171 681.457C759.403 682.431 759.762 683.37 760.24 684.25C760.661 684.054 760.72 683.485 760.7 683.015C760.583 679.614 760.063 676.239 759.152 672.96" fill="var(--color-illustration-primary, #382C80)"/>
<path d="M754.889 669.334C754.193 672.795 754.163 676.358 754.8 679.83C755.261 682.701 756.025 687.062 758.358 689.13C759.1 689.89 760.163 690.244 761.213 690.083C762.262 689.922 763.17 689.264 763.65 688.317C765.139 685.485 764.63 681.163 764.14 678.144C763.748 675.469 761.053 663.131 756.025 667.286C754.065 668.893 754.575 672.186 754.908 674.342C755.477 678.095 756.123 682.182 757.848 685.622C758.828 687.582 761.474 687.2 762.552 685.622C764.718 682.437 762.64 675.636 761.66 672.255C760.68 668.874 755.78 670.344 756.564 673.666C757.348 676.988 758.309 680.418 757.907 683.73L758.701 681.839L758.279 682.319L762.552 682.868C762.023 681.81 758.632 671.402 759.112 671.177H756.623C758.338 672.402 758.809 675.861 759.083 677.713C759.269 678.987 759.406 680.271 759.465 681.555C759.465 682.535 758.681 685.475 759.994 685.22L761.954 685.475C760.112 684.495 759.201 679.987 758.75 678.086C758.198 675.348 757.949 672.558 758.005 669.765C758.005 668.021 755.261 667.531 754.879 669.334H754.889Z" fill="var(--color-illustration-primary, #382C80)"/>
<path d="M654.203 752.84C672.225 751.409 690.629 750.184 707.123 742.06C711.562 739.865 715.257 736.317 720.372 736.719C725.072 737.148 729.811 736.817 734.406 735.739C744.872 733.269 755.231 729.859 765.511 726.733C768.304 725.88 767.138 721.549 764.296 722.342C754.496 725.086 744.794 728.222 734.964 730.868C729.476 732.338 724.694 732.358 719.137 732.221C715.217 732.133 712.571 734.181 709.279 736.141C692.873 745.941 672.862 748.205 654.212 749.988C652.36 750.174 652.321 753.075 654.212 752.928L654.203 752.84Z" fill="var(--color-illustration-secondary, #7F72FF)"/>
<path d="M664.169 774.135C660.093 776.15 658.143 780.876 659.612 785.18C661.014 789.717 665.561 792.226 670.138 792.314C676.174 792.432 681.143 788.806 684.593 784.131C687.003 780.858 691.198 774.547 687.836 770.529C685.19 767.373 680.359 769.088 679.095 772.636C677.419 777.36 681.555 782.122 685.543 783.965C698.528 789.943 707.936 777.428 712.983 767.383L709.063 766.864C710.837 771.47 715.178 773.253 719.941 772.695C726.801 771.891 731.368 765.551 738.032 763.875C745.735 761.974 753.879 761.807 761.65 759.955C769.843 757.941 777.842 755.206 785.552 751.782C788.228 750.596 785.905 746.735 783.259 747.862C770.374 753.324 756.786 756.952 742.893 758.642C737.611 759.279 733.142 760.298 728.673 763.316C724.753 765.992 716.168 772.381 712.993 765.276C712.15 763.316 709.641 764.296 709.073 765.796C706.858 771.372 703.124 777.487 697.45 780.025C695.162 781.06 692.62 781.401 690.139 781.005C687.738 780.623 682.162 778.526 684.7 775.468C683.005 777.507 682.27 780.613 680.467 782.779C678.692 785.08 676.284 786.814 673.538 787.767C670.334 788.698 666.237 788.336 664.169 785.415C663.186 784.091 662.805 782.414 663.118 780.795C663.431 779.175 664.41 777.762 665.816 776.899C667.599 775.919 666.031 773.351 664.228 774.184L664.169 774.135Z" fill="var(--color-illustration-secondary, #7F72FF)"/>
<path d="M680.546 821.332C693.753 817.435 706.553 812.269 718.766 805.907C720.216 805.008 720.685 803.118 719.824 801.645C718.963 800.173 717.085 799.655 715.591 800.478C703.848 806.578 691.545 811.531 678.85 815.266C674.979 816.403 676.626 822.479 680.526 821.332H680.546Z" fill="var(--color-illustration-base, #FFFFFF)"/>
<path d="M754.732 795.039C760.734 792.859 766.92 791.219 773.214 790.139C774.881 789.672 775.861 787.949 775.41 786.278C774.908 784.633 773.207 783.669 771.539 784.082C765.243 785.159 759.058 786.799 753.056 788.982C751.381 789.476 750.406 791.216 750.861 792.902C751.341 794.564 753.059 795.538 754.732 795.098V795.039Z" fill="var(--color-illustration-base, #FFFFFF)"/>
<path d="M672.705 811.64C673.273 816.805 677.889 820.127 683.054 819.617C689.434 818.98 692.913 812.689 694.52 807.171H690.6C692.432 811.571 696.97 812.316 701.243 811.091C702.604 810.618 703.917 810.014 705.163 809.288C708.906 807.328 710.504 806.23 714.58 808.445C717.04 809.778 718.843 810.778 721.793 810.523C725.4 810.209 728.918 808.563 732.269 807.25C736.804 805.538 741.312 803.744 745.793 801.869C753.79 798.518 761.66 794.902 769.402 791.021C771.665 789.884 769.686 786.552 767.442 787.64C754.237 794.066 740.712 799.81 726.919 804.849C725.611 805.395 724.261 805.831 722.881 806.152C718.961 806.858 719.118 806.005 716.021 804.368C714.403 803.311 712.493 802.79 710.562 802.879C706.544 803.212 696.842 811.238 694.265 805.652C693.53 804.045 691.011 804.564 690.6 806.132C689.786 809.249 688.522 812.473 685.808 814.423C682.77 816.589 676.792 816.648 676.145 811.669C675.861 809.494 672.411 809.425 672.656 811.669L672.705 811.64Z" fill="var(--color-illustration-secondary, #7F72FF)"/>
<path d="M695.794 840.717L699.067 841.275C700.013 841.511 700.978 840.964 701.262 840.031C701.508 839.085 700.956 838.117 700.018 837.845L696.735 837.306C695.798 837.082 694.847 837.622 694.559 838.541C694.302 839.483 694.854 840.455 695.794 840.717Z" fill="var(--color-illustration-secondary, #7F72FF)"/>
<path d="M772.254 819.98C774.263 819.96 776.246 819.519 778.075 818.686C778.913 818.189 779.196 817.111 778.712 816.266C778.201 815.444 777.136 815.169 776.291 815.638C775.018 816.192 773.643 816.476 772.254 816.471C770 816.471 769.99 819.999 772.254 819.98Z" fill="var(--color-illustration-secondary, #7F72FF)"/>
<path d="M245.199 883.376C253.147 891.285 265.113 893.411 275.06 887.904C278.412 886.052 285.252 881.436 283.88 876.732C283.027 873.792 278.98 873.233 276.863 875.056C273.874 877.575 275.56 882.092 278.49 883.876C282.851 886.473 290.034 884.856 294.699 884.199C307.439 882.406 322.639 877.849 332.223 868.862C333.899 867.294 331.782 864.942 329.891 865.834C323.413 868.98 317.553 872.89 310.732 875.409C303.752 878.009 296.454 879.657 289.035 880.309C286.32 880.544 279.725 879.515 277.902 880.632C274.472 882.749 272.777 885.228 268.69 886.512C261.075 888.913 253.137 886.512 247.473 881.103C245.954 879.642 243.661 881.926 245.16 883.415L245.199 883.376Z" fill="var(--color-illustration-secondary, #7F72FF)"/>
<path d="M56.7063 442.18C60.2735 453.038 72.9547 448.677 78.4133 442.18C82.3572 437.38 85.3716 431.886 87.3019 425.981C88.6347 422.061 90.9769 415.71 86.9099 412.525C83.9699 410.193 79.4423 411.359 76.6689 413.446C72.9547 416.239 71.7689 421.149 72.1511 425.598C73.2095 436.721 83.4995 443.944 94.1913 443.493C109.607 442.846 119.975 430.459 127.354 418.239C127.727 417.574 127.723 416.762 127.343 416.101C126.963 415.44 126.264 415.028 125.502 415.014C122.366 415.103 119.622 414.358 117.799 417.141C116.399 419.335 115.689 421.899 115.761 424.501C115.958 429.834 118.542 434.796 122.797 438.015C133.793 446.374 148.199 437.476 153.334 426.735H149.659C154.863 438.064 168.632 435.487 178.001 431.988C180.441 431.077 179.451 427.186 176.913 428.068C169.249 430.587 157.715 434.183 153.334 424.628C152.949 423.979 152.251 423.582 151.497 423.582C150.742 423.582 150.044 423.979 149.659 424.628C146.102 432.076 137.576 439.328 128.717 436.447C121.523 434.075 117.505 424.687 122.19 418.425L120.338 419.483L125.502 419.336L123.679 416.073C118.466 424.726 112.086 433.615 102.345 437.437C92.8487 441.161 80.3733 439.044 76.9727 428.146C75.6987 424.05 75.9927 418.15 80.4027 416.102C87.2627 412.937 83.9601 423.795 82.6567 427.206C80.7947 432.106 78.0017 437.339 74.3267 441.092C70.6517 444.846 62.4883 448.227 60.0677 441.249C59.3425 439.162 56.0301 440.034 56.7357 442.16L56.7063 442.18Z" fill="var(--color-illustration-secondary, #7F72FF)"/>
<path d="M200.678 430.42C203.177 430.42 203.187 426.5 200.678 426.5C198.169 426.5 198.179 430.42 200.678 430.42Z" fill="var(--color-illustration-secondary, #7F72FF)"/>
<path d="M495.58 236.605L498.079 246.797C499.186 251.335 506.252 249.414 505.096 244.837L502.499 234.675C501.362 230.196 494.482 232.088 495.58 236.576V236.605Z" fill="var(--color-illustration-primary, #382C80)"/>
<path d="M436.731 263.291C440.318 271.248 446.531 278.481 453.293 283.93C456.929 286.87 462.113 282.048 458.546 278.667C452.45 272.856 447.834 266.495 443.326 259.43C440.631 255.216 434.741 258.871 436.731 263.291Z" fill="var(--color-illustration-primary, #382C80)"/>
<path d="M396.394 315.25C406.488 318.092 416.553 321.042 426.774 323.512C431.488 324.658 433.418 317.632 428.734 316.25C418.709 313.163 408.546 310.566 398.423 307.861C393.65 306.577 391.631 313.918 396.384 315.25H396.394Z" fill="var(--color-illustration-primary, #382C80)"/>
<path d="M914.471 612.318C933.635 604.592 950.044 591.299 961.58 574.157C964 570.54 958.277 567.297 955.807 570.785C944.701 586.39 929.506 598.628 911.894 606.154C908.415 607.633 910.914 613.788 914.491 612.318H914.471Z" fill="var(--color-illustration-primary, #382C80)"/>
</svg>
