<svg width="1000" height="1000" viewBox="0 0 1000 1000" fill="none" xmlns="http://www.w3.org/2000/svg">
<path d="M266.191 130.628L266.515 99.6112C266.515 96.1714 266.515 92.4865 264.623 89.6054C259.39 81.6576 245.072 85.9598 239.222 78.453C236.674 75.1896 236.625 70.6718 236.811 66.5362C237.105 59.7742 237.693 53.0383 238.575 46.3286C238.908 43.8394 239.379 41.1444 241.201 39.4098C243.024 37.6752 245.425 37.3714 247.777 37.0676C275.63 33.4834 303.838 33.6548 331.646 37.5772C337.692 38.4298 344.552 40.037 347.404 45.4172C348.933 48.2984 348.952 51.7088 348.943 54.9624L348.884 76.1892C348.884 78.5902 348.835 81.0892 347.6 83.1766C343.219 90.458 331.087 84.2448 323.717 88.4784C318.425 91.5262 317.563 98.8272 318.435 104.864C319.307 110.901 321.287 117.143 319.415 122.955" fill="var(--color-illustration-primary, #382C80)"/>
<path d="M269.641 130.628C270.102 119.005 271.719 106.736 270.719 95.1325C270.023 86.9985 264.947 82.2161 257.342 80.1385C254.02 79.2369 250.482 79.0311 247.248 77.9727C242.348 76.3851 241.564 73.0041 241.623 68.1041C241.682 62.6749 242.201 57.2163 242.779 51.8263C243.024 49.5527 242.887 44.4567 244.739 42.7613C246.592 41.0659 251.168 41.4873 253.442 41.2325C276.905 38.7402 300.576 38.9079 324.002 41.7323C328.608 42.2811 333.684 42.5947 338.065 44.2999C343.945 46.5833 343.719 51.3657 343.7 56.9223C343.7 62.7109 343.677 68.5027 343.631 74.2977C343.631 75.8951 344.121 79.5407 342.877 80.7755C341.632 82.0103 339.456 81.7555 337.977 81.7555C329.392 81.7555 320.072 81.0597 315.348 89.9091C313.26 94.1326 312.443 98.8717 312.996 103.551C313.555 109.48 316.044 115.742 314.849 121.7C313.653 127.659 322.032 130.001 323.933 124.199C325.785 118.564 325.207 113.341 324.198 107.608C323.473 103.551 321.963 96.4457 325.874 93.3783C328.921 91.0067 334.409 92.2415 337.977 92.2219C342.2 92.2219 346.699 91.5653 349.893 88.5371C353.363 85.2443 353.99 80.6971 354.078 76.1891C354.215 69.1331 354.176 62.0281 354.078 54.9623C354.078 49.8761 353.598 44.8095 350.344 40.6641C347.345 36.8519 342.857 34.7841 338.231 33.5689C326.403 30.5505 313.3 30.1487 301.138 29.6489C287.121 29.1127 273.084 29.5384 259.126 30.9229C253.706 31.4423 247.425 31.4325 242.24 33.2553C236.88 35.1369 234.645 39.7037 233.842 45.0153C232.96 50.8953 232.44 56.8733 232.088 62.8219C231.745 68.3883 231.284 74.5819 234.155 79.5799C239.555 89.0271 250.012 86.2733 258.391 90.0855C264.026 92.6433 262.213 102.414 262.311 107.343C262.428 115.092 262.559 122.844 262.703 130.599C262.781 135.058 269.445 135.048 269.612 130.599L269.641 130.628Z" fill="var(--color-illustration-primary, #382C80)"/>
<path d="M774.057 314.035C762.346 292.691 751.311 269.406 732.838 253.501C720.931 243.24 707.29 234.067 696.069 223.121C688.131 215.388 682.995 205.569 674.411 197.915C654.693 180.334 630.654 168.466 606.791 157.559C564.954 138.409 526.088 120.201 479.753 114.703C450.667 111.254 420.953 109.107 392.229 114.703C360.987 120.75 314.212 139.203 323.306 178.707C327.122 194.918 336.757 209.164 350.383 218.74C384.938 242.868 428.176 231.068 466.827 231.725C523.667 232.705 585.554 247.63 626.704 288.741C646.957 308.995 667.864 328.555 689.424 347.424" fill="var(--color-illustration-base, #FFFFFF)"/>
<path d="M777.546 311.997C769.637 297.414 762.268 282.411 752.468 268.965C741.952 254.539 728.262 244.347 714.434 233.342C707.456 227.785 700.4 222.082 694.628 215.241C689.072 208.666 684.426 201.365 678.086 195.475C665.042 183.362 649.489 173.915 633.76 165.771C617.786 157.47 601.264 150.16 584.829 142.829C568.688 135.626 552.371 128.737 535.594 123.131C500.226 111.303 461.976 106.109 424.697 107.02C382.008 108 298.777 128.227 321.64 188.478C333.508 219.749 363.28 235.596 395.336 238.105C411.653 239.379 428.019 237.86 444.336 236.909C460.407 235.937 476.529 236.186 492.562 237.654C524.255 240.594 555.997 248.052 584.27 263.016C615.846 279.725 638.719 307.479 664.748 331.273C671.873 337.781 679.105 344.18 686.377 350.511C690.571 354.166 696.725 348.09 692.521 344.366C678.54 332.005 664.771 319.396 651.214 306.538C638.964 294.915 627.449 282.342 614.043 272.023C589.945 253.461 561.123 241.711 531.625 234.9C501.941 228.04 471.541 226.208 441.181 228.04C410.291 229.932 375.168 233.381 349.453 212.36C330.039 196.563 317.23 165.82 336.605 145.24C352.569 128.247 378.441 120.995 400.795 117.673C419.503 114.889 438.623 115.301 457.419 116.82C475.735 118.29 493.914 120.603 511.731 125.16C545.413 133.754 577.077 148.611 608.525 163.145C624.107 170.348 639.572 178.001 653.87 187.566C661.112 192.407 668.364 197.68 674.45 203.971C680.222 209.949 684.652 217.035 690.199 223.209C701.753 236.047 716.874 245.278 729.849 256.529C742.139 267.201 751.027 280.901 758.985 294.955C762.905 301.952 766.697 309.057 770.578 316.093C773.097 320.66 780.055 316.583 777.566 312.007L777.546 311.997Z" fill="var(--color-illustration-primary, #382C80)"/>
<path d="M648.215 663.062C652.112 675.178 649.582 688.444 641.5 698.276C633.418 708.108 620.892 713.158 608.251 711.68C603.106 711.082 597.814 709.21 594.531 705.192C591.532 701.478 590.611 696.519 590.17 691.766C588.377 674.587 591.15 655.183 604.39 644.099C613.15 636.928 624.884 634.54 635.75 637.719" fill="var(--color-illustration-primary, #382C80)"/>
<path d="M645.413 663.827C648.756 677.88 643.036 692.534 631.056 700.606C621.638 706.819 600.676 711.239 596.599 696.617C593.296 684.72 594.453 668.658 600.235 657.702C607.006 644.903 620.53 639.395 634.456 642.6C640.816 644.06 643.276 634.877 637.141 632.8C623.421 628.292 607.379 632.731 597.579 643.247C588.2 653.38 584.633 667.374 584.28 680.839C583.869 695.285 585.985 711.406 601.92 716.119C615.336 720.108 631.016 715.737 641.12 706.319C653.213 695.059 656.349 677.537 651.038 662.298C649.813 658.799 644.521 660.171 645.432 663.836L645.413 663.827Z" fill="var(--color-illustration-primary, #382C80)"/>
<path d="M724.165 569.717C697.196 613.023 679.987 622.422 644.207 658.78C635.309 667.815 626.155 676.635 618.178 686.484C602.792 705.506 592.326 727.801 583.173 750.321C574.019 772.842 562.397 794 551.685 815.913C528.685 862.953 506.772 910.561 481.733 956.572C480.018 959.718 478.058 963.06 474.873 964.569C472.197 965.853 469.169 965.549 466.327 965.157C437.829 961.129 411.192 949.301 386.702 934.552C380.656 930.906 374.266 926.476 372.453 919.381C371.806 916.804 371.894 913.785 373.531 911.541C374.813 910.059 376.419 908.891 378.225 908.131C388.75 902.77 404.44 899.076 413.309 891.177C424.991 880.759 431.253 860.219 436.516 845.969C485.957 712.278 548.108 586.465 645.226 480.4" fill="var(--color-illustration-base, #FFFFFF)"/>
<path d="M721.597 568.218C713.242 581.684 703.691 594.371 693.06 606.124C683.916 616.13 673.901 625.273 664.022 634.544C651.155 646.598 638.542 658.907 626.341 671.676C613.186 685.541 602.102 701.233 593.433 718.266C584.701 735.278 578.184 753.281 569.913 770.519C561.162 788.806 551.714 806.779 542.845 824.988C525.088 861.62 507.752 898.399 488.896 934.473C486.564 938.942 484.202 943.401 481.811 947.85C479.773 951.633 477.891 956.876 474.637 959.777C471.384 962.678 466.17 961.07 462.338 960.394C457.546 959.551 452.793 958.483 448.089 957.229C429.871 952.329 412.603 944.587 396.247 935.287C389.701 931.572 379.724 927.29 376.951 919.607C375.069 914.432 378.627 912.531 382.831 910.61C386.751 908.827 390.759 907.386 394.748 905.818C401.755 903.064 408.87 900.193 414.818 895.469C420.59 890.883 424.824 884.523 428.225 878.055C435.467 864.266 439.985 848.998 445.463 834.464C451.911 817.399 458.618 800.435 465.582 783.573C479.508 749.949 494.629 716.815 511.27 684.446C544.286 620.207 583.398 558.829 630.31 503.802C636.19 496.942 642.178 490.082 648.225 483.36C651.821 479.351 645.99 473.422 642.276 477.411C591.081 532.389 548.569 595.354 513.181 661.484C495.59 694.363 479.684 728.124 465.063 762.424C457.647 779.79 450.536 797.273 443.728 814.874C437.476 831.024 431.968 847.498 425.51 863.541C422.57 870.861 419.071 878.447 413.936 884.503C408.478 890.942 400.873 894.372 393.18 897.429C386.32 900.154 377.029 902.329 371.571 907.533C365.779 913.06 367.739 921.998 372.022 927.77C376.814 934.228 384.458 938.168 391.298 942.058C399.753 946.896 408.469 951.264 417.405 955.141C425.857 958.842 434.546 961.975 443.415 964.52C451.931 966.911 461.77 969.91 470.688 969.616C479.606 969.322 483.32 962.246 487.054 955.328C492.15 945.887 497.125 936.384 501.979 926.819C511.593 907.994 520.835 888.982 530.017 869.979C539.2 850.977 548.196 831.848 557.575 812.924C566.953 794 576.9 775.311 585.103 755.809C592.688 737.787 600.185 719.834 610.769 703.301C621.735 686.171 636.249 672.088 650.459 657.721C671.49 636.485 694.5 617.237 712.199 592.973C717.334 585.956 722.097 578.665 726.703 571.285C728.732 568.032 723.597 565.052 721.568 568.286L721.597 568.218Z" fill="var(--color-illustration-primary, #382C80)"/>
<path d="M386.732 934.552C380.685 930.906 374.295 926.476 372.482 919.381C371.836 916.804 371.924 913.785 373.56 911.541C374.842 910.059 376.448 908.891 378.255 908.131C388.78 902.77 404.47 899.076 413.339 891.177C425.02 880.759 431.282 860.219 436.545 845.969C440.759 834.582 445.107 823.237 449.589 811.934C463.044 816.834 474.422 825.948 488.171 830.779C504.782 836.601 522.089 842.539 539.896 840.178C521.011 879.378 502.332 918.666 481.733 956.523C480.018 959.669 478.058 963.011 474.873 964.52C472.197 965.804 469.169 965.5 466.327 965.108C437.858 961.129 411.222 949.301 386.732 934.552Z" fill="var(--color-illustration-secondary, #7F72FF)"/>
<path d="M378.255 908.18C388.78 902.819 404.47 899.125 413.339 891.226C421.649 883.817 427.215 871.293 431.625 859.542C435.881 860.984 439.99 862.828 443.895 865.05C447.266 866.912 450.863 869.048 452.215 872.772C455.361 881.494 444.199 890.471 445.091 899.86C445.718 906.465 452.019 910.463 457.948 912.737C470.267 917.46 483.889 918.94 495.472 925.232C496.214 925.597 496.897 926.069 497.501 926.633C492.346 936.695 487.09 946.674 481.733 956.572C480.018 959.718 478.058 963.06 474.873 964.569C472.197 965.853 469.169 965.549 466.327 965.157C437.829 961.129 411.192 949.301 386.702 934.552C380.656 930.906 374.266 926.476 372.453 919.381C371.806 916.804 371.894 913.785 373.531 911.541C374.826 910.073 376.443 908.922 378.255 908.18Z" fill="var(--color-illustration-primary, #382C80)"/>
<path d="M380.499 912.021C392.033 906.318 405.371 903.603 415.465 895.234C425.873 886.61 431.263 873.017 435.918 860.728L430.42 863.835C435.496 865.478 440.323 867.809 444.767 870.763C449.265 873.929 448.56 877.623 446.502 882.063C443.16 889.295 438.377 896.625 441.817 904.779C445.257 912.933 454.489 916.539 462.397 918.979C467.63 920.616 472.971 921.919 478.234 923.379C483.497 924.84 490.053 926.319 494.286 929.779L493.591 924.389C490.161 931.086 486.682 937.756 483.154 944.4C481.537 947.448 479.92 950.476 478.254 953.505C477.117 955.582 475.872 958.571 473.834 959.982C471.06 961.942 467.121 960.845 464.034 960.345C460.633 959.796 457.262 959.12 453.91 958.385C447.502 956.906 441.178 955.081 434.967 952.917C422.372 948.443 410.185 942.896 398.54 936.335C393.043 933.277 366.396 919.391 380.401 912.051C385.477 909.395 380.979 901.712 375.912 904.367C369.532 907.719 366.259 913.334 368.072 920.596C369.797 927.456 375.109 932.356 380.724 936.129C394.64 945.567 410.467 953.103 426.127 959.13C434.124 962.238 442.327 964.789 450.676 966.764C457.644 968.401 466.729 971.292 473.883 969.557C481.203 967.783 484.408 960.737 487.681 954.72C492.287 946.161 496.798 937.56 501.215 928.916C502.048 927.299 502.087 924.791 500.519 923.517C492.307 916.872 480.459 914.844 470.521 912.119C462.554 909.924 446.198 906.582 450.108 895.008C452.636 887.531 459.016 880.622 456.547 872.194C453.94 862.698 441.2 858.141 432.811 855.26C430.39 854.417 428.146 856.24 427.343 858.366C423.099 869.538 418.052 882.709 407.899 889.873C398.335 896.616 386.408 899.193 376.01 904.338C370.875 906.886 375.383 914.54 380.499 912.021Z" fill="var(--color-illustration-primary, #382C80)"/>
<path d="M518.953 862.531C507.693 860.63 496.737 858.268 485.976 854.358C474.902 850.33 464.73 844.793 454.734 838.619C452.235 837.071 450.069 840.903 452.45 842.539C472.148 855.751 494.895 863.709 518.532 865.658C520.286 865.785 520.717 862.845 518.953 862.551V862.531Z" fill="var(--color-illustration-base, #FFFFFF)"/>
<path d="M721.597 568.218C713.242 581.684 703.691 594.371 693.06 606.124C683.916 616.13 673.901 625.273 664.022 634.544C651.155 646.598 638.542 658.907 626.341 671.676C613.186 685.541 602.102 701.233 593.433 718.266C584.701 735.278 578.184 753.281 569.913 770.519C561.162 788.806 551.714 806.779 542.845 824.988C525.088 861.62 507.752 898.399 488.896 934.473C486.564 938.942 484.202 943.401 481.811 947.85C479.773 951.633 477.891 956.876 474.637 959.777C471.384 962.678 466.17 961.07 462.338 960.394C457.546 959.551 452.793 958.483 448.089 957.229C429.871 952.329 412.603 944.587 396.247 935.287C389.701 931.572 379.724 927.29 376.951 919.607C375.069 914.432 378.627 912.531 382.831 910.61C386.751 908.827 390.759 907.386 394.748 905.818C401.755 903.064 408.87 900.193 414.818 895.469C420.59 890.883 424.824 884.523 428.225 878.055C435.467 864.266 439.985 848.998 445.463 834.464C451.911 817.399 458.618 800.435 465.582 783.573C479.508 749.949 494.629 716.815 511.27 684.446C544.286 620.207 583.398 558.829 630.31 503.802C636.19 496.942 642.178 490.082 648.225 483.36C651.821 479.351 645.99 473.422 642.276 477.411C591.081 532.389 548.569 595.354 513.181 661.484C495.59 694.363 479.684 728.124 465.063 762.424C457.647 779.79 450.536 797.273 443.728 814.874C437.476 831.024 431.968 847.498 425.51 863.541C422.57 870.861 419.071 878.447 413.936 884.503C408.478 890.942 400.873 894.372 393.18 897.429C386.32 900.154 377.029 902.329 371.571 907.533C365.779 913.06 367.739 921.998 372.022 927.77C376.814 934.228 384.458 938.168 391.298 942.058C399.753 946.896 408.469 951.264 417.405 955.141C425.857 958.842 434.546 961.975 443.415 964.52C451.931 966.911 461.77 969.91 470.688 969.616C479.606 969.322 483.32 962.246 487.054 955.328C492.15 945.887 497.125 936.384 501.979 926.819C511.593 907.994 520.835 888.982 530.017 869.979C539.2 850.977 548.196 831.848 557.575 812.924C566.953 794 576.9 775.311 585.103 755.809C592.688 737.787 600.185 719.834 610.769 703.301C621.735 686.171 636.249 672.088 650.459 657.721C671.49 636.485 694.5 617.237 712.199 592.973C717.334 585.956 722.097 578.665 726.703 571.285C728.732 568.032 723.597 565.052 721.568 568.286L721.597 568.218Z" fill="var(--color-illustration-primary, #382C80)"/>
<path d="M426.079 893.597C423.923 888.345 419.689 884.121 413.976 883.062C411.594 882.621 410.585 886.002 412.996 886.737C417.299 887.926 420.844 890.979 422.658 895.058C423.521 897.018 426.921 895.587 426.108 893.597H426.079Z" fill="var(--color-illustration-base, #FFFFFF)"/>
<path d="M412.78 901.388C411.465 897.443 408.822 894.077 405.303 891.863C403.107 890.52 401.206 893.823 403.343 895.283C405.954 897.004 407.962 899.498 409.085 902.417C409.948 904.72 413.662 903.76 412.819 901.437L412.78 901.388Z" fill="var(--color-illustration-base, #FFFFFF)"/>
<path d="M718.54 509.947C708.124 485.862 682.258 472.369 656.545 477.607C645.011 479.91 640.679 485.378 633.094 494.042C618.067 511.211 603.792 528.985 590.268 547.363C578.194 563.71 568.218 581.291 555.792 597.187C554.887 598.484 553.775 599.623 552.499 600.558C549.912 602.253 546.619 602.116 543.551 602.645C537.592 603.699 532.432 607.396 529.518 612.7C526.852 617.669 526.098 624.774 528.969 629.732C537.946 627.772 542.444 632.045 550.97 633.652C561.064 635.524 570.805 637.367 580.262 641.6C589.337 645.667 597.628 651.312 605.429 657.486C616.493 666.237 627.106 676.841 630.732 690.473C631.82 694.54 633.261 699.773 637.445 700.145C640.238 700.39 642.551 698.185 644.433 696.078C672.353 665.297 698.764 633.192 725.165 601.097" fill="var(--color-illustration-secondary, #7F72FF)"/>
<path d="M721.068 508.448C713.699 491.925 699.508 479.165 681.868 474.657C664.934 470.335 647.039 473.03 634.936 486.113C620.403 501.793 606.977 518.698 593.992 535.711C580.399 553.528 568.953 572.785 555.546 590.728C553.645 593.276 551.803 596.716 548.569 597.745C546.178 598.51 543.512 598.314 541.072 598.921C536.806 600.013 532.919 602.25 529.831 605.389C523.03 612.337 521.011 623.108 525.353 631.849C526.225 633.603 528.293 634.093 530.076 633.809C537.769 632.398 545.874 636.975 553.381 638.415C562.651 640.199 571.932 642.276 580.468 646.441C595.628 653.821 612.014 665.64 621.206 680.046C623.497 683.633 625.253 687.536 626.42 691.629C627.292 694.638 628.096 697.744 629.977 700.322C634.231 706.202 641.169 705.222 646.049 700.743C653.203 694.177 659.387 686.043 665.787 678.791C672.186 671.539 678.527 664.091 684.867 656.584C699.469 639.258 714.032 621.824 728.095 604.056C731.388 599.901 725.714 593.933 722.146 598.108C697 627.508 672.696 657.672 646.902 686.572C645.677 687.944 639.689 696.372 637.631 695.628C635.573 694.883 634.642 688.003 634.035 686.298C631.324 679.006 627.19 672.327 621.873 666.649C610.381 654.033 596.355 643.984 580.713 637.161C571.481 633.241 561.809 631.565 552.048 629.566C543.532 627.821 536.77 624.039 527.822 625.714L532.536 627.674C528.538 619.746 534.006 610.034 541.905 607.29C545.403 606.075 549.225 606.467 552.685 605.027C556.605 603.351 559.006 599.656 561.505 596.354C573.108 580.938 582.771 564.18 594.207 548.637C605.882 532.755 618.132 517.326 630.957 502.352C635.759 496.707 640.512 490.004 646.637 485.692C653.262 480.949 662.131 479.988 670.059 480.292C690.011 481.241 707.746 493.294 715.972 511.495C717.56 514.974 722.646 511.956 721.108 508.497L721.068 508.448Z" fill="var(--color-illustration-secondary, #7F72FF)"/>
<path d="M398.893 901.535L393.993 896.969C392.308 895.401 389.75 897.949 391.455 899.497L396.414 904.015C398.07 905.534 400.55 903.035 398.893 901.535Z" fill="var(--color-illustration-base, #FFFFFF)"/>
<path d="M754.447 566.238C773.871 590.101 799.184 578.508 808.043 607.976C818.372 642.365 835.689 674.322 852.937 705.976C885.11 764.914 921.282 822.528 951.917 882.004C953.563 885.189 955.229 888.688 954.7 892.147C954.259 895.087 952.309 897.419 950.388 899.546C931.043 920.861 906.288 936.247 880.328 948.213C873.909 951.153 866.608 953.975 859.748 951.476C857.249 950.575 854.848 948.801 853.868 946.214C853.368 944.318 853.308 942.334 853.692 940.412C855.171 928.652 860.934 913.638 859.376 901.869C857.327 886.345 843.852 869.627 835.023 857.269C795.979 802.555 760.595 745.319 729.104 685.935C700.596 632.3 683.407 607.741 691.541 549" fill="var(--color-illustration-base, #FFFFFF)"/>
<path d="M752.34 568.335C759.759 577.214 769.196 582.359 779.78 586.456C789.58 590.229 798.577 594.08 803.016 604.35C806.289 611.906 808.102 620.197 810.983 627.87C813.865 635.544 817.02 643.188 820.391 650.695C827.251 666.012 835.091 680.928 843.029 695.726C875.761 756.584 912.462 815.227 944.479 876.457C946.439 880.142 948.918 883.974 950.163 887.962C951.731 893.009 947.801 896.273 944.626 899.585C939.504 904.957 934.037 909.988 928.26 914.648C916.188 924.124 903.174 932.334 889.423 939.148C882.376 942.725 874.007 948.027 865.903 948.144C861.434 948.213 857.641 946.655 857.837 941.794C857.984 938.187 859.072 934.483 859.866 931.014C863.119 916.667 866.118 903.388 860.317 889.276C854.76 875.869 845.528 864.491 837.218 852.8C827.418 838.982 817.843 825.007 808.494 810.876C789.809 782.58 772.074 753.689 755.29 724.204C739.914 697.186 724.675 669.814 710.925 641.884C699.94 619.58 693.285 596.628 693.913 571.589C694.109 564.014 694.814 556.458 695.745 548.941C696.323 544.286 688.17 543.14 687.484 547.824C683.564 574.823 684.808 601.489 694.706 627.116C699.606 639.807 705.82 651.949 712.199 663.964C720.108 678.87 728.036 693.775 736.19 708.554C753.477 739.861 771.845 770.535 791.295 800.576C801.017 815.602 810.993 830.43 821.224 845.058C830.378 858.151 840.824 870.744 848.596 884.699C852.281 891.285 855.456 898.497 855.456 906.181C855.456 914.354 853.074 922.38 851.34 930.308C850.066 936.129 847.616 943.94 850.879 949.506C854.593 955.818 862.963 957.248 869.607 956.19C877.506 954.936 885.052 950.653 892.147 947.096C899.242 943.538 906.279 939.618 913.05 935.336C926.499 927.08 938.884 917.207 949.928 905.936C954.828 900.889 960.002 895.626 958.63 888.021C957.18 879.985 951.427 871.988 947.625 864.864C939.04 848.88 930.102 832.955 921.067 817.128C902.937 785.386 884.268 753.957 866.334 722.068C848.694 690.639 830.525 658.907 817.657 625.126C812.943 612.778 810.797 597.686 799.919 589.023C791.717 582.477 781.093 580.801 771.862 576.283C765.963 573.356 760.745 569.222 756.544 564.151C754.075 561.211 749.91 565.444 752.34 568.355V568.335Z" fill="var(--color-illustration-primary, #382C80)"/>
<path d="M880.338 948.164C873.919 951.104 866.618 953.926 859.758 951.427C857.259 950.526 854.858 948.752 853.878 946.165C853.378 944.269 853.318 942.285 853.702 940.363C855.181 928.603 860.944 913.589 859.386 901.82C857.337 886.296 843.862 869.578 835.033 857.22C827.977 847.335 821.035 837.362 814.208 827.3C825.83 818.941 839.746 814.639 851.448 805.976C865.609 795.509 880.22 784.504 888.286 768.471C910.071 806.093 932.111 843.637 951.849 881.955C953.495 885.14 955.161 888.639 954.632 892.098C954.191 895.038 952.241 897.37 950.32 899.497C931.053 920.812 906.298 936.198 880.338 948.164Z" fill="var(--color-illustration-secondary, #7F72FF)"/>
<path d="M745.108 570.56C752.242 579.076 761.846 583.81 772.332 586.955C781.397 589.68 792.089 591.238 798.91 598.431C803.496 603.272 804.79 609.76 806.808 615.905C809.435 623.999 812.414 631.986 815.687 639.836C822.165 655.35 829.633 670.422 837.463 685.289C870.067 747.176 907.288 806.475 940.147 868.235C942.205 872.096 944.244 875.974 946.262 879.868C948.291 883.788 952.044 888.805 950.006 893.264C948.516 896.537 944.861 899.526 942.362 902.025C939.638 904.756 936.822 907.37 933.914 909.865C922.043 920.025 909.072 928.825 895.244 936.1C888.217 939.883 880.955 943.842 873.429 946.537C869.587 947.909 864.609 949.193 860.689 947.262C856.338 945.136 857.945 940.245 858.729 936.374C861.453 922.439 866.569 908.435 862.169 894.234C857.827 880.299 848.488 868.48 840.06 856.72C830.103 842.902 820.46 828.839 811.052 814.668C792.105 786.176 774.138 757.074 757.152 727.36C748.587 712.395 740.188 697.313 732.23 682.015C725.566 669.217 720.108 655.81 717.08 641.669C711.68 616.444 715.6 590.709 719.314 565.533C720.421 558.026 721.499 550.509 722.47 542.993C723.067 538.338 714.914 537.191 714.208 541.875C710.033 569.58 703.84 597.941 705.878 626.028C708.201 657.29 722.617 684.073 737.532 710.994C755.172 742.805 773.933 773.962 793.814 804.466C803.738 819.702 813.926 834.748 824.38 849.605C833.553 862.629 844.303 875.232 851.163 889.697C854.592 896.518 855.954 904.192 855.083 911.776C854.162 919.616 851.82 927.162 850.379 934.895C849.154 941.51 848.125 948.458 854.133 953.054C860.571 957.954 869.362 956.974 876.486 954.308C891.186 948.801 905.514 940.51 918.558 931.768C931.602 923.027 944.743 912.903 954.69 900.693C959.953 894.234 959.375 887.855 955.837 880.661C951.839 872.527 947.438 864.57 943.097 856.612C934.277 840.295 925.114 824.145 915.873 808.063C897.331 775.841 878.378 743.863 860.336 711.357C842.696 679.654 824.831 647.598 813.355 613.072C809.543 601.626 805.613 592.11 794.029 586.818C784.298 582.369 773.39 581.467 763.649 577.106C758.101 574.642 753.193 570.937 749.302 566.277C746.823 563.337 742.658 567.561 745.098 570.482L745.108 570.56Z" fill="var(--color-illustration-primary, #382C80)"/>
<path d="M766.423 470.825C781.593 486.28 797.077 502.568 804.055 523.069C812.365 547.461 807.465 574.137 815.295 598.578C820.323 614.258 828.035 628.958 836.483 643.06C843.01 653.938 855.779 666.649 857.798 679.516C861.718 704.31 819.166 732.133 801.781 742.648C791.119 749.096 763.561 769.108 749.841 758.612C742.893 753.32 745.568 744.128 744.5 736.866C743.206 728.105 737.768 720.441 732.946 713.228C711.974 681.868 695.245 646.98 685.2 610.564C681.756 598.287 679.253 585.765 677.713 573.108C676.874 565.827 676.436 558.505 676.4 551.176" fill="var(--color-illustration-secondary, #7F72FF)"/>
<path d="M763.277 473.971C777.712 488.671 792.971 504.351 799.762 524.245C807.102 545.805 804.104 569.09 808.749 591.15C813.041 611.524 823.586 632.418 835.356 649.47C844.382 662.562 859.268 676.91 850.634 693.707C843.529 707.535 830.054 718.099 817.647 726.948C807.377 734.279 796.509 741.08 785.601 747.43C777.614 752.085 751.546 766.413 749.439 748.479C748.979 744.628 749.439 740.727 748.969 736.866C748.213 731.693 746.494 726.707 743.902 722.166C738.787 712.67 732.083 703.977 726.537 694.726C700.812 651.782 681.359 601.744 680.8 551.146C680.741 545.423 671.843 545.403 671.902 551.146C672.441 599.294 689.542 646.902 712.728 688.611C718.363 698.744 724.488 708.515 730.947 718.168C734.092 722.891 737.346 727.752 739.09 733.201C740.59 737.856 740.178 742.354 740.453 747.146C740.923 755.555 744.872 762.777 753.359 765.198C760.631 767.266 768.549 765.198 775.331 762.444C788.414 757.191 800.438 748.959 812.247 741.315C826.046 732.378 839.942 722.303 850.467 709.563C855.269 703.771 859.689 697.225 861.532 689.826C863.59 681.574 861.532 673.676 857.612 666.306C852.712 657.202 845.646 649.568 840.266 640.826C833.776 630.418 828.148 619.498 823.439 608.172C818.255 595.432 815.746 582.545 814.766 568.835C813.786 555.439 813.502 541.866 810.287 528.763C804.231 504.136 786.767 485.29 769.51 467.689C765.492 463.593 759.2 469.885 763.218 473.981L763.277 473.971Z" fill="var(--color-illustration-secondary, #7F72FF)"/>
<path d="M784.465 717.021C773.447 725.873 760.035 731.231 745.951 732.407C740.257 732.848 740.276 741.844 745.951 741.305C762.346 739.728 777.311 733.318 789.178 721.705C792.324 718.628 787.738 714.375 784.465 716.992V717.021Z" fill="var(--color-illustration-primary, #382C80)"/>
<path d="M853.78 940.363C855.26 928.603 861.022 913.589 859.464 901.819C858.004 890.785 850.771 879.132 843.539 868.882C847.125 866.176 850.957 863.813 854.985 861.826C858.415 860.091 862.208 858.307 866.05 859.287C875.036 861.581 876.183 875.869 884.454 880.406C890.265 883.601 897.116 880.632 902.329 876.996C913.158 869.46 922.037 859.033 933.748 852.976C934.467 852.567 935.244 852.266 936.051 852.084C941.474 862.002 946.772 871.959 951.947 881.955C953.593 885.14 955.259 888.638 954.73 892.098C954.289 895.038 952.339 897.37 950.418 899.497C931.073 920.812 906.318 936.198 880.358 948.164C873.939 951.104 866.638 953.926 859.778 951.427C857.279 950.525 854.878 948.752 853.898 946.164C853.418 944.265 853.377 942.28 853.78 940.363Z" fill="var(--color-illustration-primary, #382C80)"/>
<path d="M858.053 941.549C859.788 929.083 864.913 916.715 864.09 903.975C863.247 890.118 855.093 877.682 847.361 866.637L845.764 872.723C850.193 869.411 855.407 865.775 860.738 864.08C865.795 862.472 868.147 865.265 870.538 869.244C874.37 875.673 877.594 883.376 885.493 885.581C895.44 888.364 904.564 881.23 911.777 875.33C915.883 871.978 919.793 868.382 923.889 865.02C927.741 861.865 932.386 857.847 937.237 856.377L932.18 854.338C935.636 860.656 939.053 867.003 942.431 873.38C945.038 878.28 952.231 887.56 949.663 893.097C947.292 898.291 940.843 903.093 936.737 906.896C932.167 911.099 927.375 915.055 922.38 918.744C912.584 925.879 902.25 932.246 891.471 937.785C885.081 941.117 856.328 957.062 858.239 940.363C858.896 934.689 849.988 934.738 849.341 940.363C848.527 947.527 851.673 953.328 858.631 955.719C866.824 958.532 875.144 955.416 882.612 952.005C897.19 945.457 911.113 937.539 924.193 928.358C930.793 923.697 937.097 918.631 943.068 913.187C948.154 908.523 954.475 903.329 957.699 897.096C961.717 889.256 956.788 881.573 953.211 874.713C948.84 866.376 944.394 858.092 939.873 849.86C938.842 848.133 936.789 847.3 934.846 847.821C925.506 850.644 917.539 858.719 910.346 864.942C903.78 870.606 890.932 883.562 883.2 873.282C878.78 867.402 876.869 859.474 869.764 855.995C860.327 851.369 848.606 859.591 841.344 865.06C839.541 866.412 838.237 868.98 839.747 871.145C846.734 881.122 855.084 892.803 855.319 905.445C855.534 916.902 851.105 927.936 849.547 939.187C848.694 944.783 857.269 947.203 858.053 941.549Z" fill="var(--color-illustration-primary, #382C80)"/>
<path d="M894.94 798.41C886.757 806.936 878.378 814.923 868.696 821.763C859.386 828.339 849.38 833.464 839.002 838.11C836.689 839.09 838.355 843.176 840.736 842.235C862.228 833.729 882.808 818.813 897.174 800.644C898.399 799.096 896.381 796.901 894.94 798.41Z" fill="var(--color-illustration-base, #FFFFFF)"/>
<path d="M868.48 892.578C862.845 891.431 857.102 892.686 852.957 896.812C851.183 898.576 853.79 901.006 855.652 899.497C858.939 896.737 863.262 895.539 867.5 896.214C869.852 896.616 870.911 893.068 868.48 892.578Z" fill="var(--color-illustration-base, #FFFFFF)"/>
<path d="M867.431 907.954C863.401 906.879 859.123 907.225 855.319 908.934C853.29 909.836 854.75 913.384 856.847 912.56C859.867 911.292 863.209 911 866.402 911.727C868.823 912.296 869.862 908.611 867.382 907.994L867.431 907.954Z" fill="var(--color-illustration-base, #FFFFFF)"/>
<path d="M859.719 919.587L853.192 921.076C850.948 921.596 851.898 925.075 854.172 924.536L860.679 922.978C862.884 922.448 861.953 919.058 859.699 919.587H859.719Z" fill="var(--color-illustration-base, #FFFFFF)"/>
<path d="M661.347 295.18C641.943 330.96 639.258 366.906 635.446 406.547C633.878 422.825 632.29 439.152 629.056 455.175C626.381 468.424 619.354 482.938 620.736 496.776C621.412 503.567 626.832 508.712 632.349 512.24C648.402 522.481 667.776 524.784 686.455 525.117C719.883 525.715 754.075 520.482 783.475 503.557C789.59 500.039 795.882 495.472 797.959 488.416C800.341 480.351 796.499 471.884 793.726 463.916C786.621 443.572 785.014 419.385 785.288 397.874C785.621 371.973 781.368 345.572 769.863 322.659" fill="var(--color-illustration-base, #FFFFFF)"/>
<path d="M658.398 293.426C639.033 328.187 634.789 366.75 630.879 405.646C628.743 426.922 626.518 448.011 620.325 468.552C617.532 477.803 614.631 487.652 615.787 497.423C616.767 505.919 622.873 512.123 629.762 516.641C645.942 527.185 665.895 529.841 684.799 530.361C704.262 530.88 723.93 529.38 742.923 525.029C760.474 520.972 780.427 514.347 794.402 502.548C801.311 496.717 804.849 488.613 803.741 479.567C802.556 469.836 797.812 460.771 795.46 451.284C790.031 429.303 791.286 407.312 790.159 384.948C789.032 362.585 784.22 340.446 773.871 320.366C771.107 315.015 763.346 319.719 765.855 325.051C773.773 341.858 778.114 360.419 779.575 378.902C780.976 396.679 779.624 414.476 781.642 432.243C782.579 441.279 784.254 450.224 786.65 458.987C788.973 467.17 794.686 476.686 793.226 485.398C791.913 493.316 783.367 497.629 776.997 501.019C768.858 505.309 760.325 508.807 751.517 511.466C734.256 516.608 716.379 519.39 698.372 519.737C680.947 520.227 662.808 519.737 646.314 513.505C639.248 510.829 629.497 506.429 626.45 498.922C623.294 491.17 627.126 480.43 629.321 472.854C634.721 454.146 637.337 435.281 639.199 415.926C643.119 375.325 645.285 333.861 664.297 296.895C666.306 292.975 660.544 289.565 658.417 293.436L658.398 293.426Z" fill="var(--color-illustration-primary, #382C80)"/>
<path d="M581.066 603.057C571.697 599.049 559.251 594.766 549.059 598.157C544.59 599.637 545.629 605.683 550.137 606.105C554.645 606.526 559.486 605.664 564.17 606.016C569.096 606.324 573.962 607.253 578.655 608.78C581.957 609.887 584.349 604.468 581.066 603.057Z" fill="var(--color-illustration-primary, #382C80)"/>
<path d="M238.575 941.578C225.712 935.548 216.357 923.911 213.232 910.052L209.606 912.169C217.074 918.049 224.453 924.036 231.901 929.946C232.732 930.718 233.971 930.856 234.951 930.285C235.932 929.715 236.425 928.571 236.164 927.466C235.184 922.508 234.155 917.578 233.146 912.629C232.421 909.082 231.343 905.318 231.784 901.673C232.46 895.979 237.791 894.372 241.829 898.302C244.975 901.359 245.69 906.279 246.474 910.375C247.072 913.472 251.58 912.541 251.737 909.67C252.481 895.783 255.892 881.72 262.458 869.392C264.212 866.099 266.887 862.532 270.641 865.834C272.954 867.892 273.983 871.342 274.796 874.194C276.856 881.479 277.321 889.124 276.158 896.606C275.747 899.331 279.765 901.771 281.058 898.694C285.243 889.031 296.915 879.348 307.989 884.337C316.162 888.012 320.435 900.33 313.506 907.053C311.458 909.013 313.594 912.169 316.162 911.62C321.238 910.522 327.265 909.042 332.234 911.326C336.379 913.237 339.358 918.274 336.36 922.41C334.321 925.222 338.986 927.898 341.015 925.124C344.935 919.783 342.73 912.668 338.075 908.562C331.675 902.966 322.267 904.73 314.741 906.357L317.397 910.914C326.53 902.094 322.297 886.208 311.928 880.201C298.345 872.361 281.921 883.219 276.423 895.959L281.323 898.047C282.754 888.511 282.303 878.604 278.892 869.49C276.746 863.688 271.533 856.75 264.486 859.474C257.44 862.198 254.598 872.969 252.344 879.26C248.882 889.041 246.875 899.276 246.386 909.64L251.639 908.925C250.521 903.202 249.051 896.841 244.034 893.245C240.114 890.393 234.606 889.619 230.608 892.794C226.609 895.969 226.178 901.075 226.629 905.681C227.374 913.423 229.569 921.234 231.245 928.819L234.988 925.938C227.413 920.195 219.779 914.53 212.233 908.758C210.635 907.533 208.636 909.552 209.048 911.208C212.768 925.969 222.967 938.254 236.792 944.626C238.84 945.606 240.633 942.539 238.575 941.578Z" fill="var(--color-illustration-primary, #382C80)"/>
<path d="M276.952 939.109C277.187 932.905 286.105 929.955 290.231 934.365C292.074 936.325 294.984 933.385 293.171 931.425C286.605 924.144 273.169 929.465 272.954 939.128C272.895 941.696 276.874 941.686 276.933 939.128L276.952 939.109Z" fill="var(--color-illustration-primary, #382C80)"/>
<path d="M544.609 420.62C510.202 490.416 436.809 538.622 351.912 538.622C233.969 538.573 138.38 445.61 138.38 330.94C138.38 285.243 154.256 235.057 185.537 200.826C191.79 193.966 199.885 190.536 206.627 184.42C215.222 176.58 221.817 166.359 229.912 157.96C245.17 142.153 263.114 128.286 284.645 122.494C296.091 119.417 308.028 118.741 319.856 118.114C332.449 117.437 345.091 116.849 357.704 117.486C386.398 118.937 414.769 130.511 440.729 142.359C464.453 153.216 485.953 168.385 504.135 187.096C541.14 225.149 562.69 276.374 565.483 329.264C568.188 380.46 553.665 432.762 523.343 474.304" fill="var(--color-illustration-primary, #382C80)"/>
<path d="M540.768 418.327C503.185 493.924 421.865 538.936 337.987 533.693C261.184 528.881 190.742 481.302 159.489 410.693C143.133 373.737 138.841 331.95 146.514 292.328C150.737 269.779 158.877 248.144 170.563 228.403C176.247 218.965 182.813 209.224 190.928 201.688C195.25 197.69 200.463 194.828 205.167 191.281C209.801 187.697 214.024 183.611 217.76 179.099C225.718 169.809 233.127 160.391 242.26 152.139C251.032 143.989 260.962 137.182 271.729 131.941C283.646 126.326 296.484 124.101 309.537 123.2C323.002 122.22 336.585 121.514 350.099 121.71C377.657 122.132 403.578 130.844 428.597 141.81C450.99 151.61 471.845 163.586 490.161 179.922C563.044 244.965 581.301 355.813 537.554 442.405C532.31 452.748 526.247 462.655 519.424 472.031C516.062 476.676 523.775 481.115 527.107 476.519C586.328 394.895 583.78 278.461 521.011 199.62C505.349 179.999 486.367 163.279 464.926 150.218C453.705 143.358 441.818 137.861 429.764 132.677C417.146 127.082 404.152 122.376 390.877 118.594C363.437 111.126 334.88 112.155 306.734 114.517C293.534 115.615 280.804 118.104 268.691 123.582C257.597 128.609 247.533 135.715 238.379 143.701C228.707 152.139 220.808 161.743 212.586 171.524C208.607 176.257 204.422 180.883 199.395 184.528C194.662 187.968 189.595 190.967 185.224 194.867C176.659 202.502 169.642 212.87 163.664 222.591C157.633 232.5 152.504 242.93 148.337 253.755C132.099 295.562 129.522 341.439 140.977 384.801C161.93 462.691 228.354 522.609 307.009 538.514C392.357 555.762 482.703 521.217 532.683 449.481C538.578 440.99 543.842 432.077 548.432 422.815C550.97 417.7 543.297 413.192 540.749 418.327H540.768Z" fill="var(--color-illustration-primary, #382C80)"/>
<circle cx="275.169" cy="336.507" r="213.562" fill="var(--color-illustration-secondary, #7F72FF)"/>
<path d="M484.32 336.507C484.348 424.85 428.853 503.679 345.676 533.447C262.5 563.215 169.589 537.498 113.557 469.199C57.6966 401.579 50.8954 302.893 96.3968 228.011C142.185 152.466 230.519 113.86 317.063 131.569C401.628 148.876 468.238 218.622 481.811 303.843C483.484 314.65 484.323 325.57 484.32 336.507C484.32 342.23 493.238 342.24 493.218 336.507C493.241 219.35 400.697 123.107 283.629 118.541C166.561 113.975 66.8016 202.717 57.6992 319.52C48.5969 436.323 133.404 539.449 249.766 553.074C366.128 566.699 472.465 485.955 490.592 370.209C492.273 359.053 493.124 347.788 493.14 336.507C493.199 330.774 484.32 330.774 484.32 336.507Z" fill="var(--color-illustration-secondary, #7F72FF)"/>
<circle cx="275.169" cy="336.507" r="173.891" fill="var(--color-illustration-base, #FFFFFF)"/>
<circle cx="275.169" cy="336.507" r="24.843" fill="var(--color-illustration-primary, #382C80)"/>
<path d="M295.552 336.507C295.258 347.62 286.517 356.9 275.168 356.9C267.882 356.9 261.15 353.013 257.507 346.703C253.864 340.394 253.864 332.62 257.507 326.31C261.15 320 267.882 316.113 275.168 316.113C286.517 316.113 295.258 325.384 295.552 336.507C295.709 342.22 304.608 342.24 304.451 336.507C304.127 324.335 296.934 313.437 285.419 309.067C273.791 304.813 260.744 308.268 252.746 317.72C235.537 338.3 254.02 369.954 280.372 365.309C294.406 362.849 304.078 350.462 304.451 336.507C304.608 330.774 295.709 330.783 295.552 336.507Z" fill="var(--color-illustration-primary, #382C80)"/>
<path d="M197.709 797.45C223.601 828.712 238.869 865.618 246.572 905.171C247.15 908.111 251.472 906.818 251.031 903.946C245.269 863.952 225.845 825.83 199.904 795.254C198.601 793.716 196.445 795.921 197.709 797.45Z" fill="var(--color-illustration-primary, #382C80)"/>
<path d="M238.262 854.525C238.771 851.252 239.065 847.988 240.222 844.852C240.961 842.967 241.845 841.142 242.868 839.394C243.681 837.845 243.936 835.474 243.848 838.659C243.744 842.722 243.265 846.767 242.417 850.742C241.858 853.398 241.251 858.788 239.369 860.767L241.505 860.199L241.143 860.081C239.075 859.425 237.732 862.12 239.104 863.58L239.369 863.874C240.08 864.573 241.17 864.713 242.035 864.217C245.955 861.542 246.65 852.663 247.327 848.321C247.905 844.539 250.022 836.669 247.17 833.465C244.093 829.995 240.614 834.837 239.153 837.228C236.213 842.128 234.146 848.312 234.841 854.054C235.047 855.828 237.968 856.681 238.301 854.525H238.262Z" fill="var(--color-illustration-primary, #382C80)"/>
<path d="M225.482 835.307C221.494 832.485 205.882 825.791 204.618 835.062C204.118 838.717 207.617 840.942 210.782 841.481C215.627 842.232 220.566 840.932 224.414 837.894C225.943 836.571 224.316 833.896 222.454 834.513C220.083 835.278 217.868 836.414 215.388 836.826C214.408 836.993 212.203 837.306 211.125 836.904C209.842 836.414 209.165 835.562 210.537 834.944C212.135 834.141 215.78 835.483 217.397 835.924C219.74 836.581 221.964 837.532 224.257 838.384C226.129 839.08 226.962 836.365 225.531 835.356L225.482 835.307Z" fill="var(--color-illustration-primary, #382C80)"/>
<path d="M215.359 814.129C214.746 811.273 214.689 808.324 215.193 805.446C215.496 803.898 216.525 799.037 218.368 799.204C220.21 799.37 219.72 804.261 219.446 805.78C218.956 808.147 217.952 810.378 216.506 812.316C214.869 814.668 218.642 816.756 220.298 814.531C222.99 810.91 224.275 806.435 223.915 801.938C223.679 799.086 222.935 794.167 219.279 793.863C215.496 793.539 213.605 798.106 212.664 801.007C211.163 805.521 211.02 810.377 212.253 814.972C212.801 816.932 215.702 816.119 215.32 814.129H215.359Z" fill="var(--color-illustration-primary, #382C80)"/>
<path d="M728.144 244.034C763.14 268.818 784.318 311.938 782.544 354.774C779.516 428.225 715.09 481.792 658.76 519.972C626.42 541.885 592.022 561.72 554.243 571.609C489.945 588.445 419.189 575.754 361.291 544.649C360.095 544.012 358.821 543.208 358.478 541.905C358.302 540.842 358.51 539.751 359.066 538.828C361.624 533.634 366.514 530.008 371.414 526.921C383.174 519.482 396.169 513.798 406.949 504.959C423.854 491.092 432.341 467.601 415.014 450.481C410.34 445.812 407.759 439.447 407.86 432.841C407.949 428.323 410.8 421.424 415.896 420.757C418.924 420.355 421.904 421.531 424.716 422.649C475.892 442.876 527.508 448.354 581.595 436.643C587.582 435.34 593.561 433.781 599.019 431.018C606.114 427.411 612.043 421.914 617.865 416.494C647.519 388.888 698.93 352.579 728.604 324.972" fill="var(--color-illustration-base, #FFFFFF)"/>
<path d="M726.38 247.082C756.232 269.313 775.062 303.326 778.055 340.427C780.643 375.383 767.373 408.409 746.695 436.035C726.017 463.662 698.675 486.221 670.677 506.154C637.964 529.4 603.184 551.352 564.729 563.7C526.274 576.048 485.251 577.273 445.855 569.747C425.898 565.941 406.401 560.028 387.692 552.107C383.341 550.264 379.039 548.304 374.785 546.227C372.538 545.136 370.307 544.022 368.092 542.885C367.085 542.425 366.104 541.911 365.152 541.346C363.368 540.131 363.457 540.513 364.789 538.583C367.445 534.741 372.061 532.124 375.961 529.763C380.489 527.009 385.154 524.471 389.779 521.874C405.322 513.112 420.493 502.842 426.931 485.408C429.689 478.15 430.053 470.2 427.97 462.721C426.752 458.709 424.824 454.948 422.276 451.617C419.454 447.864 415.759 444.973 414.005 440.485C412.594 436.849 411.996 432.576 413.613 428.911C415.985 423.511 420.934 426.402 425.187 428.048C435.377 432.002 445.77 435.41 456.321 438.26C476.441 443.701 497.123 446.793 517.954 447.472C539.151 448.068 560.344 446.14 581.085 441.729C590.973 439.652 600.44 436.77 608.692 430.734C615.973 425.402 622.294 418.895 629.066 412.956C656.506 388.888 686.131 367.533 714.042 344.062C720.128 338.947 726.076 333.714 731.809 328.216C736.033 324.168 729.722 317.955 725.42 321.826C697.313 347.051 666.62 369.229 637.504 393.209C630.644 398.844 623.862 404.577 617.296 410.546C609.407 417.68 601.92 425.344 591.63 428.989C581.34 432.635 570.07 434.311 559.29 435.741C548.244 437.206 537.113 437.942 525.97 437.946C503.296 437.916 480.724 434.895 458.84 428.96C447.992 426.018 437.31 422.491 426.843 418.395C418.288 415.083 409.869 414.867 405.283 424.021C401.461 431.645 402.872 441.033 407.145 448.187C409.517 452.107 413.192 454.979 415.681 458.82C418.219 462.662 419.615 467.144 419.709 471.747C420.032 491.572 401.637 504.087 386.389 512.75C377.569 517.748 367.769 522.207 360.379 529.253C357.39 532.105 354.107 536.113 353.686 540.337C353.147 545.717 357.665 548.177 361.781 550.313C379.948 559.81 399.04 567.422 418.758 573.03C459.056 584.456 502.058 587.328 543.218 578.988C585.956 570.335 624.558 548.608 660.308 524.431C689.865 504.4 718.756 482.399 742.334 455.4C765.57 428.813 783.142 396.992 786.346 361.32C789.698 324.08 776.027 286.027 750.557 258.812C744.297 252.17 737.368 246.193 729.879 240.976C726.135 238.34 722.715 244.426 726.321 247.072L726.38 247.082Z" fill="var(--color-illustration-primary, #382C80)"/>
<path d="M676.704 188.801C665.532 199.454 662.896 220.161 661.759 234.724C661.455 238.644 661.338 242.73 662.533 246.484C665.473 255.715 674.234 259.136 682.927 260.459C687.043 261.086 688.239 263.84 687.984 267.828L687.082 282.44C686.651 289.398 686.651 297.454 691.982 301.962C695.285 304.755 699.93 305.431 704.232 305.019C707.13 304.793 709.956 304.004 712.552 302.697C721.686 297.944 726.939 285.674 727.831 275.923C728.988 261.97 729.26 247.957 728.644 233.969C728.36 225.531 727.664 217.113 727.429 208.685C727.262 202.472 725.655 197.582 720.98 193.113C712.981 185.559 702.142 181.77 691.179 182.696" fill="var(--color-illustration-base, #FFFFFF)"/>
<path d="M674.107 186.204C667.247 192.937 663.435 202.051 661.122 211.263C658.74 220.72 656.682 231.745 657.349 241.525C658.035 251.688 664.062 259.077 673.46 262.644C675.729 263.483 678.063 264.139 680.438 264.604C683.015 265.133 683.466 265.065 683.466 267.887C683.466 274.188 682.349 280.47 682.29 286.772C682.182 297.071 686.033 307.214 697.156 309.488C707.584 311.615 717.893 307.126 724.214 298.835C730.535 290.545 732.544 280.568 733.299 270.278C734.23 256.249 734.312 242.177 733.544 228.138C732.936 215.624 734.828 200.541 725.772 190.555C717.217 181.118 703.673 176.59 691.169 177.649C684.769 178.188 684.612 188.115 691.169 187.762C700.626 187.253 710.367 190.104 717.276 196.827C724.43 203.785 722.538 216.065 723.058 225.247C723.695 236.419 723.989 247.63 723.744 258.812C723.538 268.132 723.744 278.138 719.941 286.83C716.384 294.945 709.416 301.609 699.861 300.296C689.032 298.816 691.561 284.743 692.021 277.001C692.423 269.876 694.53 259.792 685.935 256.686C678.546 254.02 669.756 254.392 666.718 245.376C665.071 240.476 665.973 234.871 666.414 229.824C666.778 225.221 667.39 220.641 668.246 216.104C669.991 207.186 672.823 198.013 679.32 191.378C682.633 187.997 677.527 182.892 674.136 186.184L674.107 186.204Z" fill="var(--color-illustration-primary, #382C80)"/>
<path d="M704.977 253.804C696.741 255.416 688.329 255.937 679.957 255.353C675.057 255.078 673.773 263.33 678.781 264.094C688.579 265.619 698.609 264.204 707.603 260.027C711.298 258.401 708.583 253.04 704.977 253.804Z" fill="var(--color-illustration-primary, #382C80)"/>
<path d="M738.983 233.44C739.815 232.595 740.53 231.642 741.109 230.608C746.274 219.612 750.988 207.637 753.261 195.671C754.163 190.928 754.447 186.116 755.319 181.294C756.378 175.414 756.662 169.319 754.839 163.556C753.947 160.724 752.438 157.921 749.939 156.343C747.44 154.766 743.706 154.815 741.776 157.078C743.432 154.795 742.178 151.247 739.708 149.885C737.238 148.523 734.083 149.003 731.623 150.385C729.247 151.901 727.144 153.806 725.4 156.02C725.665 152.1 724.077 147.935 720.676 146.083C717.276 144.231 712.16 145.789 711.2 149.552C710.475 145.769 709.553 141.643 706.515 139.282C703.992 137.436 700.705 136.994 697.784 138.106C694.9 139.245 692.545 141.419 691.178 144.201C690.71 141.799 689.87 139.485 688.689 137.341C687.465 135.157 685.289 133.674 682.809 133.333C680.536 133.157 678.36 134.313 676.527 135.656C670.324 140.242 666.512 147.514 664.699 155.02C662.886 162.527 662.876 170.328 662.994 178.05C663.062 182.735 663.229 187.645 665.571 191.712C668.511 196.866 674.391 199.62 680.271 200.982C686.151 202.345 692.109 202.609 697.784 204.403C707.966 207.607 711.504 214.497 712.003 224.483C711.659 221.213 712.054 217.907 713.16 214.81C714.306 211.576 717.021 208.234 720.422 208.685C722.587 209.15 724.349 210.716 725.067 212.811C725.742 214.876 726.073 217.038 726.047 219.21C726.321 224.973 726.863 230.712 727.674 236.429C728.477 242.319 735.318 237.36 738.983 233.44Z" fill="var(--color-illustration-primary, #382C80)"/>
<path d="M741.403 235.821C747.166 229.53 750.223 219.798 753.075 211.89C756.593 202.276 758.21 192.564 759.867 182.49C761.248 174.111 761.827 164.526 757.172 157.01C752.977 150.258 744.363 148.072 738.277 153.57L746.019 159.548C747.522 156.772 747.682 153.463 746.455 150.555C745.228 147.646 742.745 145.453 739.708 144.593C732.466 142.535 726.38 147.533 721.921 152.57L730.3 156.02C730.388 149.768 727.36 142.937 720.872 141.085C715.014 139.404 708.863 142.591 706.858 148.347H715.571C714.14 141.418 711.18 134.627 703.556 133.157C696.608 131.775 690.443 136.008 687.043 141.781L695.863 142.927C694.344 136.606 691.384 129.736 684.191 128.531C678.056 127.551 672.431 132.02 668.736 136.42C659.113 147.798 658.113 162.88 658.348 177.129C658.456 183.803 658.878 190.732 663.18 196.18C667.1 201.139 673.078 203.864 679.115 205.265C686.112 206.902 694.109 206.627 700.439 210.4C705.516 213.438 706.937 218.877 707.299 224.453C707.711 230.48 717.099 230.52 716.737 224.453C716.531 221.435 716.57 218.132 718.06 215.408C720.539 210.871 721.157 217.113 721.294 219.181C721.725 225.345 721.549 232.235 723.254 238.213C726.262 248.895 737.689 241.662 742.344 236.713C746.46 232.333 739.992 225.816 735.729 230.098C734.875 231.001 733.962 231.846 732.995 232.627C731.799 233.548 729.212 234.018 731.192 234.763C733.524 235.645 731.799 231.294 731.633 229.726C731.437 227.815 731.26 225.894 731.123 223.983C730.663 217.878 731.251 210.704 726.135 206.343C722.151 202.992 716.254 203.291 712.631 207.029C708.083 211.429 706.898 218.456 707.319 224.493H716.756C716.159 216.006 713.542 208.038 706.065 203.227C696.265 196.906 683.191 199.895 673.587 193.427C668.188 189.81 667.845 183.999 667.707 178.041C667.609 171.661 667.56 165.163 668.756 158.882C669.814 153.286 671.804 147.67 675.489 143.202C676.733 141.712 679.409 138.586 681.476 138.38C685.034 138.027 685.847 142.888 686.533 145.465C687.592 149.385 693.315 150.238 695.353 146.612C696.774 144.064 699.322 141.271 702.615 142.29C705.908 143.309 706.319 147.915 706.868 150.728C707.848 155.559 714.13 154.442 715.58 150.728C716.247 149.013 718.618 150.267 719.334 151.032C720.51 152.296 720.559 154.403 720.529 156C720.451 160.077 726.037 162.664 728.879 159.46C730.033 157.971 731.348 156.613 732.799 155.412C733.034 155.246 738.238 153.149 737.523 154.54C736.344 156.678 736.9 159.355 738.832 160.847C740.764 162.338 743.495 162.199 745.265 160.518C749.871 156.373 751.429 173.484 751.35 175.012C750.904 181.525 750.129 188.011 749.028 194.446C747.998 200.545 746.47 206.549 744.461 212.399C742.501 218.279 740.541 226.119 736.621 231.019C733.789 234.312 738.375 239.114 741.403 235.821Z" fill="var(--color-illustration-primary, #382C80)"/>
<path d="M676.322 222.601C675.626 224.561 674.989 226.59 674.362 228.609C673.823 230.382 672.892 232.421 672.764 234.283C672.509 237.693 677.086 237.919 679.487 237.86C682.153 237.801 682.123 233.94 679.487 233.744C678.654 233.695 676.929 233.861 676.273 233.313L676.88 234.783C676.988 232.96 677.86 230.97 678.311 229.197C678.762 227.423 679.232 225.424 679.644 223.513C679.836 222.612 679.292 221.718 678.404 221.476C677.516 221.234 676.593 221.728 676.302 222.601H676.322Z" fill="var(--color-illustration-primary, #382C80)"/>
<path d="M683.417 216.28C684.568 216.104 685.731 216.006 686.896 215.986C688.07 216.06 689.248 216.02 690.414 215.869C692.501 215.428 692.031 212.723 690.414 212.076C687.905 211.096 684.465 212.203 682.202 213.409C680.496 214.31 681.78 216.515 683.417 216.28Z" fill="var(--color-illustration-primary, #382C80)"/>
<path d="M672.94 212.909C671.65 211.915 670.269 211.046 668.815 210.312C667.746 209.729 666.409 210.081 665.767 211.116C665.161 212.176 665.514 213.525 666.561 214.154C668.12 215.032 669.761 215.758 671.461 216.319C672.362 216.568 673.308 216.106 673.666 215.241C673.989 214.381 673.672 213.411 672.901 212.909H672.94Z" fill="var(--color-illustration-primary, #382C80)"/>
<path d="M665.032 221.876C664.913 222.799 665.185 223.731 665.782 224.445C666.379 225.159 667.248 225.592 668.177 225.639C669.996 225.534 671.407 224.011 671.372 222.19C671.462 220.289 670.008 218.67 668.109 218.554C666.636 218.477 665.301 219.416 664.875 220.827C664.646 221.534 664.721 222.304 665.081 222.954C665.46 223.619 666.168 224.027 666.933 224.022C667.694 224.011 668.394 223.607 668.785 222.954C668.934 222.704 669.046 222.433 669.118 222.15C669.187 221.935 669.118 222.013 669.001 222.405C669.118 222.219 669.059 222.297 668.814 222.64C668.971 222.484 668.883 222.542 668.56 222.817C668.756 222.709 668.658 222.748 668.266 222.925C668.589 222.836 667.599 222.925 668.109 222.925C667.671 222.846 667.563 222.846 667.785 222.925C667.413 222.748 667.315 222.709 667.511 222.817C667.207 222.562 667.139 222.503 667.305 222.66C667.472 222.817 667.403 222.758 667.148 222.444C667.325 222.719 666.972 221.837 667.09 222.327C667.168 222.67 667.031 221.67 667.09 222.19C667.09 222.533 667.237 221.572 667.09 222.072C666.943 222.572 667.305 221.68 667.09 221.964C666.874 222.248 667.531 221.553 667.168 221.856C667.501 221.621 667.58 221.562 667.403 221.67C667.795 221.533 667.883 221.484 667.687 221.553C668.099 221.553 668.197 221.494 667.972 221.494C668.364 221.559 668.452 221.559 668.236 221.494C668.434 221.546 668.613 221.651 668.756 221.798C668.609 221.651 668.638 221.709 668.854 221.954C668.812 221.892 668.776 221.827 668.746 221.758C668.863 222.052 668.883 222.101 668.814 221.905C668.81 221.83 668.81 221.755 668.814 221.68C668.814 221.994 668.814 222.052 668.814 221.847C668.743 220.852 667.915 220.082 666.918 220.082C665.921 220.082 665.093 220.852 665.022 221.847L665.032 221.876Z" fill="var(--color-illustration-primary, #382C80)"/>
<path d="M683.574 222.66C683.357 223.879 683.864 225.114 684.875 225.828C685.886 226.543 687.219 226.609 688.296 225.998C689.373 225.386 690 224.208 689.904 222.974C689.999 221.073 688.55 219.449 686.651 219.328C685.738 219.31 684.857 219.663 684.211 220.308C683.842 220.678 683.57 221.132 683.417 221.631C683.191 222.34 683.261 223.111 683.613 223.767C683.992 224.432 684.7 224.84 685.465 224.836C686.227 224.83 686.931 224.425 687.317 223.767C687.472 223.515 687.587 223.241 687.66 222.954C687.725 222.738 687.686 222.827 687.543 223.219C687.66 223.032 687.601 223.111 687.356 223.454C687.513 223.297 687.425 223.356 687.102 223.63C687.298 223.522 687.2 223.552 686.808 223.738C687.131 223.64 686.141 223.738 686.651 223.738C686.206 223.666 686.099 223.666 686.327 223.738C685.945 223.562 685.857 223.532 686.053 223.63C685.749 223.375 685.681 223.326 685.847 223.473C686.014 223.62 685.945 223.571 685.69 223.268C685.857 223.542 685.514 222.66 685.632 223.14C685.749 223.62 685.563 222.484 685.632 223.013C685.632 223.356 685.779 222.395 685.632 222.885C685.485 223.375 685.847 222.503 685.681 222.787C685.514 223.072 686.122 222.376 685.759 222.68C686.092 222.444 686.171 222.376 685.994 222.493C686.376 222.346 686.474 222.307 686.269 222.366C686.68 222.366 686.778 222.317 686.563 222.317C686.955 222.386 687.033 222.395 686.817 222.317C687.018 222.368 687.198 222.477 687.337 222.631C687.2 222.484 687.229 222.533 687.435 222.787L687.327 222.591C687.445 222.885 687.474 222.934 687.405 222.738C687.337 222.542 687.405 222.582 687.356 222.513C687.356 222.827 687.356 222.885 687.356 222.68C687.407 221.97 687.058 221.29 686.45 220.92C685.842 220.549 685.078 220.549 684.47 220.92C683.863 221.29 683.513 221.97 683.564 222.68L683.574 222.66Z" fill="var(--color-illustration-primary, #382C80)"/>
<path d="M685.328 243.544C688.309 243.633 691.191 242.463 693.266 240.32C694.687 238.712 692.854 235.968 690.874 237.213C689.056 238.504 687.017 239.451 684.857 240.006C682.897 240.427 683.319 243.573 685.328 243.544Z" fill="var(--color-illustration-primary, #382C80)"/>
<path d="M660.367 535.731C660.279 550.852 660.886 566.356 663.689 581.262C665.933 593.208 670.686 605.134 681.074 612.151C683.671 613.905 686.072 609.721 683.524 607.967C672.999 600.685 668.824 588.935 666.933 576.773C664.967 563.178 663.91 549.467 663.768 535.731C663.7 534.842 662.959 534.155 662.067 534.155C661.176 534.155 660.434 534.842 660.367 535.731Z" fill="var(--color-illustration-primary, #382C80)"/>
<path d="M441.592 122.308C429.509 129.501 420.12 138.037 418.817 153.188C418.366 158.519 419.924 165.036 425.02 166.643C428.94 167.868 433.007 165.585 436.251 163.086C440.422 159.872 444.187 156.163 447.462 152.041C446.149 153.688 470.424 166.81 472.707 167.721C482.507 171.729 491.131 173.885 501.372 171.916" fill="var(--color-illustration-base, #FFFFFF)"/>
<path d="M439.955 119.515C426.235 127.561 413.495 138.919 414.191 156.353C414.485 163.84 418.885 171.7 427.225 171.759C436.76 171.818 445.384 162.253 450.931 155.52L442.719 150.738C441.141 154.864 446.051 157.97 448.814 159.852C453.234 162.86 457.928 165.497 462.603 168.094C475.049 175.003 488.298 179.452 502.685 176.727C509.045 175.522 506.252 166.192 500.049 167.143C488.965 168.829 478.489 165.291 468.836 160.097C465.141 158.137 461.466 156.049 457.869 153.884C456.282 152.904 454.694 151.924 453.165 150.944C453.312 151.042 451.656 150.052 452.127 150.218C450.314 149.572 453.606 149.611 452.195 153.394C453.871 148.895 447.04 144.838 443.983 148.611C441.792 151.349 439.401 153.92 436.829 156.304C434.663 158.264 431.262 161.851 428.146 162.106C422.168 162.606 423.119 153.021 423.844 149.366C425.961 138.586 434.202 130.746 443.218 125.14C446.746 122.945 443.561 117.437 439.955 119.554V119.515Z" fill="var(--color-illustration-primary, #382C80)"/>
<path d="M655.232 387.966C663.787 391.534 671.157 399.364 677.233 406.165C683.332 413.032 688.596 420.598 692.913 428.705C701.517 444.728 705.81 462.201 706.986 480.273C707.388 486.456 716.845 486.594 716.717 480.273C716.335 460.183 709.857 440.171 699.753 422.923C694.729 414.41 688.723 406.516 681.859 399.403C674.852 392.171 666.776 384.654 657.035 381.498C652.802 380.117 651.371 386.398 655.242 387.996L655.232 387.966Z" fill="var(--color-illustration-primary, #382C80)"/>
<path d="M716.982 425.814C718.684 429.698 719.905 433.776 720.618 437.956C721.451 442.601 728.742 440.681 727.762 435.996C726.748 431.246 725.155 426.638 723.019 422.276C721.059 418.19 715.179 421.757 716.982 425.804V425.814Z" fill="var(--color-illustration-primary, #382C80)"/>
<path d="M618.109 278.461C618.492 257.803 629.252 240.751 638.905 223.258C641.502 218.544 634.554 214.497 631.702 219.044C620.599 236.743 610.142 257.068 610.671 278.461C610.779 283.244 618.021 283.253 618.109 278.461Z" fill="var(--color-illustration-primary, #382C80)"/>
<path d="M674.175 557.065C675.506 588.691 682.062 619.878 693.579 649.362C699.341 664.155 706.221 678.488 714.159 692.237C721.813 705.418 733.524 718.373 736.601 733.632C738.248 741.776 736.503 750.713 740.796 758.25C744.48 764.698 751.242 768.687 758.661 766.952C764.296 765.629 761.905 756.956 756.26 758.269C748.028 760.229 746.725 747.744 746.46 742.481C746.107 735.621 745.264 729.124 742.609 722.676C737.336 709.936 728.35 698.881 721.431 686.994C706.835 661.689 695.903 634.441 688.963 606.065C684.877 589.969 681.997 573.59 680.349 557.065C679.977 553.145 673.979 553.028 674.165 557.065H674.175Z" fill="var(--color-illustration-primary, #382C80)"/>
<path d="M689.885 638.768C685.876 643.54 682.838 649.313 679.281 654.448C675.292 660.21 671.108 665.806 666.619 671.186C657.967 681.422 648.459 690.903 638.199 699.528C633.78 703.311 640.091 709.269 644.491 705.829C655.46 697.19 665.406 687.326 674.136 676.429C678.341 671.242 682.266 665.835 685.896 660.23C689.463 654.683 693.589 648.401 695.51 642.051C696.49 638.964 692.08 636.171 689.875 638.778L689.885 638.768Z" fill="var(--color-illustration-primary, #382C80)"/>
<path d="M647.402 650.92C651.057 661.082 652.997 671.745 654.438 682.437C655.232 688.317 663.434 687.337 662.592 681.329C661.024 670.196 657.545 659.691 653.566 649.215C652.125 645.422 645.99 647.01 647.402 650.92Z" fill="var(--color-illustration-primary, #382C80)"/>
<path d="M579.223 941C575.005 937.149 572.829 931.547 573.343 925.859C573.676 922.556 575.127 918.529 579.36 919.607C582.486 920.4 584.26 923.899 585.72 926.467C586.985 928.721 590.807 927.78 590.689 925.124C590.111 912.021 589.003 897.429 596.108 885.728C597.314 883.768 598.539 881.641 600.43 883.856C601.41 884.993 601.567 887.57 601.89 889.001C602.77 892.794 603.344 896.651 603.605 900.536C604.121 908.258 603.501 916.014 601.763 923.556C601.492 924.677 601.991 925.843 602.988 926.422C603.986 927.001 605.245 926.856 606.085 926.065C608.809 923.811 613.866 919.616 617.59 922.458C620.03 924.32 619.295 927.858 622.127 929.671C624.96 931.484 628.076 932.023 630.497 934.875C632.92 937.834 634.2 941.566 634.103 945.39C634.103 948.575 638.768 948.497 639.003 945.39C639.402 940.754 638.06 936.136 635.24 932.435C631.957 928.035 626.42 926.741 623.715 922.223C618.305 913.07 609.24 916.735 602.439 922.351L606.751 924.869C609.007 915.212 609.532 905.231 608.3 895.391C607.604 890.099 606.614 875.056 597.99 876.908C590.895 878.427 587.553 890.559 586.299 896.567C584.339 905.896 584.691 915.618 585.319 925.065L590.287 923.723C587.739 920.195 585.015 916.206 580.575 914.991C576.884 913.794 572.851 915.25 570.775 918.529C565.807 926.565 570.001 937.893 576.44 943.656C578.263 945.292 580.938 942.676 579.145 940.961L579.223 941Z" fill="var(--color-illustration-primary, #382C80)"/>
<path d="M652.713 931.278C654.318 930.332 656.277 930.202 657.993 930.929C659.709 931.655 660.978 933.152 661.416 934.963C661.984 937.668 666.169 936.521 665.571 933.817C664.17 927.427 656.094 924.115 650.616 927.692C648.392 929.152 650.45 932.729 652.713 931.278Z" fill="var(--color-illustration-primary, #382C80)"/>
<path d="M699.175 544.267C701.778 575.032 708.921 605.243 720.372 633.917C725.942 647.801 732.512 661.262 740.031 674.195C747.214 686.553 755.192 701.547 767.197 709.867C769.157 711.219 771.332 708.25 769.696 706.633C748.753 685.935 734.494 657.476 723.636 630.389C712.549 602.825 705.422 573.829 702.468 544.267C702.272 542.199 699.028 542.16 699.204 544.267H699.175Z" fill="var(--color-illustration-primary, #382C80)"/>
<path d="M729.192 550.96C739.668 601.352 760.052 649.577 790.481 691.227C792.049 693.364 795.646 691.325 794.088 689.12C764.492 647.402 742.834 600.283 732.211 550.137C731.789 548.177 728.79 549 729.192 550.96Z" fill="var(--color-illustration-primary, #382C80)"/>
<path d="M797.763 703.526C798.689 703.526 799.439 702.776 799.439 701.851C799.439 700.925 798.689 700.175 797.763 700.175C796.838 700.175 796.087 700.925 796.087 701.851C796.087 702.776 796.838 703.526 797.763 703.526Z" fill="var(--color-illustration-primary, #382C80)"/>
<path d="M754.575 541.581C767.775 585.956 787.346 629.223 813.237 667.678C814.747 669.922 818.373 667.854 816.893 665.532C791.922 626.332 771.813 585.054 757.809 540.69C757.162 538.641 753.957 539.504 754.575 541.581Z" fill="var(--color-illustration-primary, #382C80)"/>
<path d="M785.356 528.038C788.024 551.187 792.991 574.013 800.184 596.177C807.318 618.139 816.265 640.277 828.378 660.014C828.711 660.583 829.322 660.932 829.981 660.928C830.64 660.924 831.247 660.569 831.573 659.997C831.9 659.424 831.896 658.721 831.563 658.152C821.126 637.269 811.189 616.483 803.888 594.247C796.806 572.535 791.683 550.232 788.58 527.607C788.326 525.794 785.141 526.205 785.356 528.048V528.038Z" fill="var(--color-illustration-primary, #382C80)"/>
<path d="M837.365 676.263C839.795 676.263 839.805 672.48 837.365 672.48C836.32 672.48 835.474 673.327 835.474 674.371C835.474 675.416 836.32 676.263 837.365 676.263Z" fill="var(--color-illustration-primary, #382C80)"/>
<path d="M820.391 689.052C821.307 688.983 822.014 688.221 822.014 687.303C822.014 686.385 821.307 685.622 820.391 685.553C819.476 685.622 818.768 686.385 818.768 687.303C818.768 688.221 819.476 688.983 820.391 689.052Z" fill="var(--color-illustration-primary, #382C80)"/>
<path d="M669.167 645.363L679.849 628.498C681.123 626.538 677.889 624.578 676.674 626.636L666.168 643.609C664.992 645.51 667.981 647.245 669.167 645.363Z" fill="var(--color-illustration-primary, #382C80)"/>
<path d="M657.074 630.82C660.073 625.734 663.072 620.638 666.022 615.513C666.48 614.641 666.172 613.564 665.323 613.065C664.474 612.567 663.383 612.825 662.846 613.651C659.906 618.756 656.966 623.892 654.026 629.037C653.534 629.884 653.821 630.97 654.668 631.462C655.515 631.955 656.601 631.667 657.094 630.82H657.074Z" fill="var(--color-illustration-primary, #382C80)"/>
<path d="M633.995 619.717C641.022 610.72 647.853 601.42 652.968 591.189C653.436 590.377 653.158 589.339 652.346 588.871C651.534 588.403 650.496 588.682 650.028 589.494C644.148 599.137 638.376 608.8 631.467 617.786C630.369 619.207 632.849 621.138 633.956 619.746L633.995 619.717Z" fill="var(--color-illustration-primary, #382C80)"/>
<path d="M612.259 609.584C622.91 594.013 634.891 579.395 648.068 565.895C649.881 564.033 647.039 561.181 645.226 563.043C631.837 576.779 619.866 591.83 609.495 607.967C608.368 609.711 611.103 611.269 612.259 609.584Z" fill="var(--color-illustration-primary, #382C80)"/>
<path d="M593.492 595.413C597.772 585.002 603.688 575.342 611.014 566.797C612.523 565.013 610.034 562.446 608.427 564.21C600.468 573.007 594.403 583.348 590.61 594.59C589.973 596.442 592.796 597.128 593.492 595.383V595.413Z" fill="var(--color-illustration-primary, #382C80)"/>
<path d="M582.32 624.46L585.554 625.244C586.543 625.471 587.543 624.906 587.857 623.94C588.121 622.949 587.541 621.928 586.553 621.647L583.319 620.814C582.341 620.618 581.379 621.214 581.12 622.178C580.861 623.141 581.395 624.14 582.339 624.46H582.32Z" fill="var(--color-illustration-primary, #382C80)"/>
<path d="M604.458 629.928V630.732C604.455 631.206 604.642 631.661 604.978 631.996C605.313 632.331 605.768 632.518 606.242 632.516C606.711 632.511 607.161 632.325 607.496 631.996C607.824 631.656 608.01 631.204 608.015 630.732V629.928C608.011 629.456 607.825 629.003 607.496 628.664C607.161 628.335 606.711 628.149 606.242 628.145C605.768 628.144 605.314 628.331 604.977 628.664C604.649 629.003 604.463 629.456 604.458 629.928Z" fill="var(--color-illustration-primary, #382C80)"/>
<path d="M627.253 649.097C628.021 649.097 628.645 648.474 628.645 647.706C628.645 646.937 628.021 646.314 627.253 646.314C626.484 646.314 625.861 646.937 625.861 647.706C625.861 648.474 626.484 649.097 627.253 649.097Z" fill="var(--color-illustration-primary, #382C80)"/>
<path d="M372.365 117.8L379.048 100.464C381.498 94.1232 374.629 94.7798 373.061 90.507C370.895 84.627 374.227 79.5016 378.127 74.974C378.905 73.8635 380.002 73.0159 381.273 72.5436C382.694 72.1908 384.154 72.7984 385.497 73.3962L414.387 86.3028C418.689 88.2628 423.207 90.36 425.755 94.3584C435.212 109.45 412.525 107.706 407.821 116.791C405.557 121.171 404.176 126.159 400.775 129.736" fill="var(--color-illustration-primary, #382C80)"/>
<path d="M375.128 119.397C376.872 115.477 378.656 111.557 380.332 107.569C381.527 104.746 383.478 101.414 383.566 98.2587C383.703 93.2999 379.901 92.7707 377.686 89.4387C375.54 86.2439 378.48 82.0201 380.44 79.5211C382.017 77.5611 381.821 77.4925 383.879 77.7767C385.937 78.0609 388.172 79.7367 389.946 80.4913C397.521 83.8919 405.116 87.2435 412.652 90.7127C415.435 91.9867 418.532 93.2803 420.649 95.6127C421.443 96.4555 423.648 99.2779 423.246 100.748C422.648 102.963 417.983 104.266 416.141 105.079C412.593 106.647 408.899 108.166 406.076 110.959C401.755 115.154 401.069 121.739 397.335 126.336C393.415 131.157 399.902 138.037 404.293 133.294C406.42 130.999 408.161 128.374 409.448 125.522C410.428 123.356 411.182 120.514 412.711 118.662C414.877 116.036 419.042 114.879 422.031 113.517C429.008 110.352 434.928 104.903 432.184 96.5829C430.39 91.1341 426.304 87.0867 421.404 84.4015C414.544 80.6677 407.007 77.8747 399.844 74.6995L389.632 70.1621C386.604 68.8293 383.487 67.2221 380.077 68.0943C374.746 69.4369 370.169 76.8653 368.601 81.7555C366.641 87.8119 368.278 94.0545 373.736 97.3865C374.07 97.5923 375.51 98.1313 375.618 98.3665C375.941 99.1505 374.373 102.081 374.06 102.972C372.394 107.618 370.894 112.322 369.346 117.006C368.229 120.387 373.707 122.817 375.226 119.476L375.128 119.397Z" fill="var(--color-illustration-primary, #382C80)"/>
<path d="M266.995 206.804C266.701 227.276 267.691 247.777 267.906 268.259C268.011 278.347 268.037 288.434 267.985 298.522C267.985 303.748 267.939 308.952 267.848 314.133C267.779 319.033 266.975 324.325 268.514 328.99C269.098 330.879 270.844 332.167 272.821 332.167C274.798 332.167 276.545 330.879 277.128 328.99C278.755 324.374 278.02 318.974 277.991 314.133C277.991 308.906 277.942 303.703 277.844 298.522C277.706 288.428 277.494 278.34 277.207 268.259C276.609 247.777 276.119 227.168 273.767 206.804C273.287 202.58 267.054 202.325 266.995 206.804Z" fill="var(--color-illustration-primary, #382C80)"/>
<path d="M272.355 206.451C269.139 207.842 265.624 208.402 262.134 208.078L266.583 212.527C266.803 210.377 267.314 208.267 268.102 206.255C268.406 205.49 270.062 201.355 270.974 201.159H268.573C267.475 200.14 267.132 199.983 267.544 200.688C267.779 201.149 267.994 201.668 268.19 202.109C268.602 203.089 268.984 203.991 269.347 204.942C270.131 207.019 270.67 209.156 271.307 211.292L276.03 205.089C274.816 205.125 273.613 205.326 272.453 205.686C268.455 207 267.71 213.654 272.453 214.575C273.627 214.836 274.829 214.941 276.03 214.889C278.97 214.702 281.91 211.86 280.754 208.685C279.297 204.491 277.569 200.395 275.58 196.425C273.914 193.309 270.68 191.349 267.201 192.819C263.947 194.191 261.928 198.258 260.556 201.306C258.992 204.862 258.035 208.654 257.724 212.527C257.499 214.898 259.939 217.025 262.173 216.976C267.115 216.946 271.931 215.422 275.991 212.605C277.601 211.573 278.11 209.454 277.145 207.803C276.18 206.151 274.084 205.555 272.395 206.451H272.355Z" fill="var(--color-illustration-primary, #382C80)"/>
<path d="M284.723 325.119C290.388 322.316 296.385 322.257 302.226 320.121C311.115 316.858 319.719 312.212 328.343 308.302L380.763 284.537C382.932 289.958 384.436 295.621 385.242 301.403C385.458 302.342 385.41 303.322 385.105 304.235C384.497 305.627 382.9 306.254 381.459 306.744C352.156 316.743 323.924 329.639 297.179 345.238" fill="var(--color-illustration-primary, #382C80)"/>
<path d="M285.576 328.196C289.496 326.658 293.504 326.07 297.63 325.344C301.864 324.507 305.999 323.229 309.968 321.532C317.563 318.465 324.854 314.672 332.342 311.35C349.286 303.804 366.161 296.111 383.076 288.496L376.334 285.752C377.934 290.139 379.115 294.667 379.862 299.276C379.382 301.05 379.744 301.726 380.95 301.315C380.103 301.707 379.229 302.034 378.333 302.295C376.05 303.118 373.747 303.873 371.473 304.686C362.751 307.802 354.147 311.232 345.64 314.878C328.265 322.326 310.36 330.401 294.543 340.799C288.957 344.454 293.808 352.775 299.766 349.737C319.435 339.721 338.476 329.098 359.007 320.817C363.79 318.857 368.598 316.991 373.433 315.221C377.706 313.633 383.037 312.624 386.771 309.968C394.66 304.363 388.084 290.202 385.193 283.342C383.968 280.402 381.41 279.255 378.451 280.598C361.879 288.163 345.258 295.641 328.725 303.294C321.072 306.832 313.565 310.664 305.901 314.192C298.522 317.593 290.349 318.71 283.116 322.385C279.951 324.002 282.136 329.568 285.586 328.265L285.576 328.196Z" fill="var(--color-illustration-primary, #382C80)"/>
<path d="M262.046 164.683C261.429 169.338 260.468 173.856 260.919 178.57C261.439 183.911 269.337 184.136 269.406 178.57C269.465 173.944 268.847 169.299 269.308 164.683C269.504 162.723 267.505 161.067 265.682 161.057C263.506 161.057 262.301 162.753 262.046 164.683Z" fill="var(--color-illustration-primary, #382C80)"/>
<path d="M99.5916 352.118C104.207 352.118 108.911 351.324 113.498 350.775C119.838 350.021 118.702 340.917 112.322 342.073C107.775 342.886 103.022 343.474 98.6018 344.876C94.6818 346.12 95.3286 352.069 99.5818 352.118H99.5916Z" fill="var(--color-illustration-primary, #382C80)"/>
<path d="M430.136 339.839C434.056 339.946 437.907 340.819 441.817 341.24C445.727 341.661 447.178 335.595 443.777 334.017C439.436 332.057 434.889 331.577 430.136 331.734C424.922 331.91 424.912 339.701 430.136 339.839Z" fill="var(--color-illustration-primary, #382C80)"/>
<path d="M272.924 495.806C272.166 500.386 272.114 505.056 272.767 509.653C273.463 514.279 281.509 513.24 280.999 508.546C280.529 504.672 280.48 500.758 280.852 496.874C281.322 492.405 273.61 491.307 272.924 495.806Z" fill="var(--color-illustration-primary, #382C80)"/>
<path d="M171.259 457.713C172.954 455.312 174.62 452.94 176.159 450.422C177.071 448.81 176.653 446.771 175.179 445.649C173.836 444.669 171.474 444.473 170.279 445.933C168.25 448.491 166.408 451.137 164.575 453.832C163.545 455.672 164.156 457.998 165.957 459.095C167.795 460.118 170.113 459.508 171.21 457.713H171.259Z" fill="var(--color-illustration-primary, #382C80)"/>
<path d="M364.897 443.229C367.102 445.081 369.199 447.07 371.365 448.971C372.882 450.427 375.277 450.427 376.794 448.971C378.117 447.648 378.451 444.816 376.794 443.542C374.501 441.768 372.139 440.073 369.934 438.24C368.534 436.92 366.347 436.92 364.946 438.24C363.58 439.622 363.58 441.846 364.946 443.229H364.897Z" fill="var(--color-illustration-primary, #382C80)"/>
<path d="M367.426 221.102L362.918 229.402C360.546 233.773 367.279 237.693 369.582 233.322L373.962 224.953C376.226 220.651 369.758 216.829 367.426 221.131V221.102Z" fill="var(--color-illustration-primary, #382C80)"/>
<path d="M136.047 254.02L139.918 256.842C141.516 258.009 144.211 257.166 145.103 255.48C146.085 253.663 145.49 251.395 143.74 250.296L139.82 247.562C138.038 246.535 135.761 247.133 134.715 248.904C133.734 250.693 134.318 252.937 136.047 254.02Z" fill="var(--color-illustration-primary, #382C80)"/>
<path d="M82.5786 118.172C85.347 122.709 88.5752 126.949 92.212 130.824C94.172 132.911 97.2394 129.844 95.3578 127.678C92.0629 124.009 89.0738 120.075 86.4202 115.918C84.8914 113.517 81.0694 115.722 82.5786 118.172Z" fill="var(--color-illustration-primary, #382C80)"/>
<path d="M45.1915 172.21C48.6117 172.611 52.0515 173.013 55.4619 173.268C58.0589 173.454 57.9217 169.613 55.4619 169.348C52.0417 168.917 48.6019 168.633 45.1915 168.368C42.6533 168.162 42.7415 171.984 45.1915 172.288V172.21Z" fill="var(--color-illustration-primary, #382C80)"/>
<path d="M147.984 87.1553C147.727 93.2682 148.055 99.3916 148.964 105.442C149.326 107.941 153.139 106.883 152.766 104.394C151.911 98.6899 151.603 92.9176 151.845 87.1553C151.943 84.6759 148.121 84.6857 148.003 87.1553H147.984Z" fill="var(--color-illustration-primary, #382C80)"/>
<path d="M440.425 613.014C451.205 619.874 464.612 621.755 476.685 617.277C478.871 616.463 478.018 613.023 475.705 613.729C464.308 617.188 452.519 616.13 442.307 609.809C440.278 608.555 438.446 611.72 440.445 612.994L440.425 613.014Z" fill="var(--color-illustration-primary, #382C80)"/>
</svg>
