<svg width="1000" height="1000" viewBox="0 0 1000 1000" fill="none" xmlns="http://www.w3.org/2000/svg">
<path d="M282.764 223.826C263.143 269.736 250.349 318.27 244.789 367.886C244.024 374.746 243.495 382.096 246.945 388.064C250.541 394.307 257.725 397.561 264.585 399.589C288.928 406.733 316.946 402.529 341.436 398.08C346.209 397.208 351.04 396.296 355.382 394.16C367.622 388.064 373.09 373.707 376.089 360.37C382.919 329.874 382.499 298.201 374.864 267.897C373.404 262.125 371.65 256.343 368.582 251.237C361.095 238.82 347.022 232.195 333.851 226.266" fill="white"/>
<path d="M279.96 222.19C265.895 254.374 255.177 287.92 247.973 322.297C244.553 338.957 241.26 356.116 240.221 373.1C239.761 380.744 241.044 388.486 246.415 394.268C251.178 399.393 258.047 402.108 264.633 403.999C280.891 408.566 298.159 408.37 314.809 406.547C322.943 405.655 331.038 404.391 339.093 402.99C347.149 401.588 355.165 400.295 361.839 395.444C373.246 387.133 378.107 372.904 381.018 359.703C384.794 342.599 386.336 325.078 385.604 307.577C385.163 297.636 384.017 287.74 382.174 277.961C380.44 268.749 378.431 259.145 374.079 250.766C366.298 235.802 350.197 227.56 335.115 221.68C330.126 219.72 326.765 227.874 331.479 230.304C342.808 236.184 356.057 241.368 363.397 252.403C367.504 258.567 369.336 265.839 371.002 272.983C372.889 280.964 374.251 289.06 375.079 297.218C376.712 313.151 376.406 329.223 374.168 345.082C372.335 357.822 370.022 372.522 361.937 382.959C357.606 388.554 351.843 391.367 345.042 392.886C337.741 394.503 330.293 395.679 322.904 396.806C307.626 399.07 291.701 400.393 276.354 397.943C269.827 396.894 262.879 395.414 257.077 392.063C250.433 388.26 248.179 382.263 248.345 374.825C248.512 367.122 249.806 359.321 250.903 351.697C252.033 343.857 253.34 336.017 254.823 328.177C261.555 292.694 271.96 258.008 285.87 224.679C287.281 221.317 281.401 218.799 279.99 222.18L279.96 222.19Z" fill="#382C80"/>
<path d="M384.536 187.145C363.359 182.539 341.416 183.097 319.768 183.676C311.007 183.911 301.913 184.224 294.122 188.223C285.586 192.613 279.755 200.835 274.747 209.018C270.034 216.71 265.733 224.646 261.86 232.793C261.295 233.703 261.06 234.779 261.194 235.841C261.654 237.742 264.055 238.271 266.005 238.438L344.513 245.2" fill="white"/>
<path d="M385.448 183.852C368.974 178.766 351.501 178.266 334.39 178.374C319.494 178.472 301.746 176.933 288.702 185.498C282.469 189.585 278.02 195.298 273.943 201.453C269.55 208.203 265.517 215.18 261.86 222.356C258.92 227.903 252.589 237.135 260.331 241.662C263.203 243.348 266.966 243.211 270.131 243.495C274.727 243.916 279.314 244.357 283.91 244.788C294.004 245.768 304.108 246.611 314.212 247.493C324.315 248.375 334.429 249.757 344.513 250.002C349.795 250.12 351.256 241.349 345.797 240.545C330.391 238.252 314.574 237.693 299.061 236.39C291.221 235.733 283.449 235.135 275.639 234.518L270.131 234.087C269.288 234.018 266.103 233.195 265.28 233.607H265.035C265.457 235.41 265.839 235.743 266.182 234.587C266.731 234.175 266.995 232.901 267.309 232.264C268.152 230.533 269.021 228.808 269.916 227.09C275.796 215.771 282.322 202.59 292.936 194.916C298.512 190.898 305.225 189.556 311.958 189.095C319.19 188.605 326.471 188.507 333.723 188.34C350.693 187.869 367.674 188.616 384.536 190.575C388.456 191.055 388.976 184.95 385.448 183.862V183.852Z" fill="#382C80"/>
<path d="M742.883 361.761C712.689 357.165 682.123 366.21 653.703 377.353C625.283 388.496 597.294 402 567.14 406.822C535.996 411.763 504.087 407.292 475.5 393.984C452.96 383.429 433.36 367.7 414.436 351.481C398.295 337.604 382.008 322.493 374.442 302.599C363.427 273.649 373.1 241.329 383.605 212.194C390.465 193.035 397.766 182.166 418.973 188.674C438.26 194.622 453.734 209.675 466.905 224.316C486.182 245.749 501.558 269.563 519.423 291.936C524.078 297.816 534.623 309.263 541.758 310.899C552.763 313.428 571.991 305.49 582.986 303.157C639.16 291.26 696.588 277.256 754.437 284.047C772.508 286.164 791.354 290.848 804.329 303.647C817.304 316.446 821.675 339.319 809.425 352.784" fill="white"/>
<path d="M743.658 358.949C706.202 353.186 670.315 366.789 636.181 380.587C618.904 387.594 601.577 394.728 583.496 399.462C566.138 404.102 548.117 405.759 530.204 404.362C511.995 402.865 494.203 398.108 477.676 390.318C461.604 382.704 446.973 372.414 433.223 361.212C420.072 350.511 406.695 339.437 395.385 326.765C384.076 314.094 376.011 299.1 374.56 281.872C373.061 263.81 377.304 245.906 382.753 228.824C385.213 221.141 387.653 213.272 390.985 205.922C393.004 201.492 395.454 196.651 399.55 193.799C403.647 190.947 409.007 191.006 413.819 192.064C421.659 193.789 428.999 197.445 435.673 201.864C449.579 211.096 461.075 224.022 471.678 236.772C483.556 251.051 494.218 266.25 505.381 281.078C513.887 292.387 523.021 306.342 535.761 313.3C547.521 319.719 563.25 313.349 575.029 309.9C592.032 304.921 609.76 301.864 627.116 298.336C664.993 290.643 703.605 284.616 742.364 287.301C769.804 289.202 812.052 297.101 812.356 332.547C812.562 338.824 810.444 344.956 806.407 349.766C802.869 353.794 808.759 359.733 812.287 355.646C822.42 344.278 822.881 328.343 817.011 314.78C810.641 300.08 797.127 290.848 782.446 285.635C765.169 279.49 745.961 278.187 727.772 277.893C707.839 277.569 687.955 279.343 668.237 282.146C647.951 285.037 627.861 289.104 607.83 293.367C598.539 295.327 589.21 297.13 579.939 299.374C572.981 301.07 566.219 303.432 559.232 305.127C553.616 306.489 546.158 308.557 540.67 305.803C534.506 302.716 529.42 296.866 524.99 291.73C513.044 277.873 502.882 262.438 491.847 247.866C480.675 233.097 468.954 218.466 455.293 205.922C443.474 195.053 428.941 184.852 412.653 182.598C406.665 181.765 400.413 182.353 395.209 185.685C390.378 188.781 386.928 193.525 384.341 198.621C380.803 205.481 378.353 213.036 375.854 220.377C372.666 229.498 370.026 238.802 367.945 248.238C364.153 266.143 363.173 285.204 369.425 302.687C375.413 319.396 387.065 333.018 399.884 344.944C413.101 357.23 427.123 368.62 441.857 379.039C457.204 389.887 473.707 399.001 491.631 404.813C509.26 410.502 527.731 413.137 546.247 412.604C565.523 412.055 584.3 407.704 602.469 401.451C639.229 388.711 674.254 368.562 713.513 364.329C723.019 363.237 732.622 363.313 742.109 364.554C745.765 365.064 747.392 359.507 743.658 358.929V358.949Z" fill="#382C80"/>
<path d="M406.626 375.383C404.607 414.181 414.584 452.441 418.66 491.023C424.129 542.797 411.8 607.163 373.757 643.697C343.151 673.097 310.919 700.616 280.657 730.378C261.292 749.41 242.437 767.873 224.101 788.198C222.413 789.826 221.079 791.785 220.181 793.951C219.015 797.41 220.181 801.164 221.769 804.349C226.933 814.678 237.762 823.361 245.044 832.367C254.128 843.617 263.752 854.417 273.66 864.883C279.765 871.332 303.393 904.877 312.085 887.041C314.33 882.425 313.81 877.006 312.732 872.067C310.821 863.247 307.372 855.025 304.892 846.44C302.413 837.855 300.825 828.633 302.795 819.745C308.675 793.285 344.935 780.652 366.015 769.206C389.868 756.29 414.329 744.216 436.251 728.242C471.865 702.282 506.37 663.376 515.308 619.099C522.246 584.799 516.239 548.775 504.116 516.043C491.994 483.311 473.972 453.323 456.096 423.511" fill="white"/>
<path d="M403.803 375.383C401.5 421.061 416.043 465.181 416.788 510.623C417.376 546.775 410.192 584.652 391.455 615.963C381.077 633.309 366.308 646.343 351.569 659.965C334.184 675.969 316.534 691.678 299.247 707.789C281.959 723.901 264.8 740.757 248.071 757.74C239.829 766.09 231.695 774.557 223.777 783.22C220.278 787.052 216.358 790.864 216.074 796.372C215.809 801.399 218.318 806.328 220.974 810.415C226.384 818.676 233.861 825.233 240.309 832.641C247.914 841.373 255.098 850.438 262.849 859.013C267.377 863.992 271.944 868.862 276.246 874.037C280.186 878.956 284.473 883.587 289.074 887.894C293.171 891.588 298.1 895.508 303.774 896.106C309.84 896.743 314.241 892.47 316.25 887.09C319.974 877.124 315.132 865.246 311.947 855.789C308.282 844.901 304.107 833.161 306.42 821.489C309.488 806.24 323.404 796.391 336.055 789.149C342.994 785.17 350.197 781.711 357.37 778.202C365.318 774.282 373.05 770.088 380.89 765.933C400.912 755.329 420.953 744.696 439.24 731.28C455.292 719.653 469.911 706.166 482.791 691.1C495.668 675.861 506.536 658.927 513.69 640.248C521.364 620.226 523.696 598.392 522.246 577.087C519.139 531.233 499.5 488.995 476.676 449.834C471.119 440.308 465.386 430.881 459.643 421.414C456.86 416.837 449.696 420.983 452.45 425.618C474.99 463.554 498.147 502.342 508.477 545.707C513.543 566.983 515.542 589.366 512.269 611.093C509.329 630.467 501.891 648.529 491.395 664.993C469.502 699.381 437.035 725.096 401.951 745.01C385.291 754.486 368.288 763.689 351.049 772.156C337.192 779.016 322.727 785.974 311.644 796.989C306.371 802.035 302.345 808.239 299.884 815.109C296.542 824.988 297.796 835.768 300.491 845.636C303.343 856.083 308.635 866.422 309.605 877.31C309.899 880.632 309.723 885.414 306.802 887.717C305.822 888.472 304.597 888.423 302.971 887.864C298.002 886.149 293.817 881.749 290.231 878.064C286.311 873.988 282.675 869.597 279.019 865.246C273.659 858.856 267.671 852.967 262.124 846.724C255 838.766 248.492 830.26 241.103 822.42C234.831 815.844 225.649 808.181 223.581 798.9C222.326 793.285 228.667 788.551 232.087 784.837C236.007 780.603 239.957 776.406 243.935 772.244C259.958 755.584 276.422 739.208 293.131 723.195C309.84 707.182 326.765 691.933 343.69 676.4C352.183 668.638 360.598 660.821 368.934 652.949C375.794 646.422 382.517 639.885 388.289 632.32C409.673 604.341 419.522 568.62 422.246 533.898C423.697 515.386 422.658 497.04 420.188 478.665C417.082 455.547 412.515 432.605 410.388 409.36C409.294 398.063 408.983 386.704 409.457 375.364C409.624 371.728 403.999 371.747 403.813 375.364L403.803 375.383Z" fill="#382C80"/>
<path d="M326.814 361.036C324.776 400.697 322.757 440.661 327.941 479.969C334.38 528.959 351.863 575.46 370.816 620.54C374.266 628.743 377.784 636.994 379.528 645.795C381.626 656.369 381.057 667.355 380.342 678.135C377.402 721.451 372.12 764.561 369.719 807.926C368.19 835.63 366.72 862.6 366.72 890.54C366.576 892.921 366.91 895.306 367.7 897.557C369.14 900.928 372.492 902.858 375.765 904.074C386.418 907.994 400.118 906.71 411.437 908.17C425.559 909.993 439.798 911.11 454.008 911.786C462.77 912.198 502.362 920.106 496.874 900.83C495.462 895.842 491.474 892.216 487.407 889.354C480.174 884.258 472.148 880.622 464.602 876.085C457.056 871.547 449.794 865.883 445.335 857.945C433.272 836.463 451.754 793.51 456.537 771.107C463.505 738.424 469.669 705.447 472.001 671.99C478.254 582.124 456.419 489.955 411.486 415.044" fill="white"/>
<path d="M324.002 361.036C321.552 406.988 319.425 453.215 327.834 498.726C335.87 542.258 351.912 583.614 368.847 624.342C373.198 634.819 376.863 645.265 377.451 656.682C378.039 667.913 376.883 679.222 376.001 690.424C374.168 713.885 371.797 737.297 369.699 760.739C367.602 784.18 366.083 807.504 364.799 830.936C364.202 842.392 363.672 853.858 363.329 865.324C363.166 871.204 363.049 877.084 362.977 882.964C362.928 887.962 362.183 893.744 364.015 898.517C367.377 907.337 378.598 909.297 386.781 910.277C396.934 911.463 407.165 911.531 417.337 912.727C433.223 914.589 449.197 915.206 465.102 916.863C474.657 917.843 487.819 919.626 496.217 913.746C500.5 910.757 501.98 905.906 500.941 900.898C499.03 891.588 490.083 885.904 482.468 881.455C467.601 872.772 448.06 864.981 445.679 845.568C443.719 829.888 448.844 813.404 453.176 798.528C455.244 791.393 457.488 784.298 459.35 777.105C461.888 767.305 463.701 757.27 465.641 747.332C470.196 724.861 473.562 702.166 475.726 679.34C479.272 637.796 477.049 595.961 469.12 555.027C461.465 514.563 448.105 475.391 429.44 438.681C424.952 429.93 420.111 421.384 415.073 412.947C412.32 408.35 405.117 412.535 407.87 417.151C428.225 451.186 443.327 488.544 453.529 526.823C463.953 565.869 469.036 606.147 468.64 646.559C468.356 668.062 466.611 689.522 463.417 710.788C460.34 731.721 456.733 752.869 451.657 773.43C448.021 788.238 442.837 802.624 439.76 817.589C436.976 831.152 434.683 847.322 441.769 860.003C446.306 868.127 453.774 874.203 461.584 879.005C470.218 884.317 480.253 888.119 487.936 894.842C490.602 897.174 493.13 900.203 493.356 903.878C493.613 905.148 493.049 906.444 491.945 907.121C489.181 909.228 483.948 909.63 480.096 909.748C469.797 910.042 459.575 908.17 449.305 907.621C438.192 907.033 427.088 906.171 415.985 904.887C406.057 903.731 396.003 903.907 386.105 902.633C381.861 902.084 376.785 901.271 373.257 898.654C369.092 895.577 370.376 888.903 370.385 884.366C370.434 873.066 370.719 861.767 371.15 850.477C372.022 827.839 373.198 805.182 374.913 782.593C376.638 759.818 378.892 737.082 380.871 714.326C381.851 702.948 382.831 691.561 383.557 680.163C384.272 669.462 384.87 658.731 383.263 648.078C381.655 637.425 377.324 627.665 373.198 617.865C369.072 608.065 364.937 598 361.026 587.975C353.079 567.939 346.228 547.486 340.505 526.705C334.702 505.474 330.845 483.759 328.98 461.829C327.148 439.348 327.295 416.749 328.089 394.209C328.481 383.155 329.069 372.09 329.568 361.036C329.755 357.41 324.12 357.42 323.933 361.036H324.002Z" fill="#382C80"/>
<path d="M701.547 428.127C701.971 428.696 702.426 429.243 702.909 429.763C709.672 436.693 719.991 438.77 728.908 434.997C737.659 430.91 743.193 422.064 743.04 412.408C742.54 394.091 723.783 380.969 707.26 390.573C699.42 395.111 696.362 404.969 696.745 413.535C696.97 418.484 698.793 422.09 700.478 426.578C702.674 432.4 702.958 439.171 703.84 445.404C703.903 446.351 704.185 447.27 704.663 448.089C705.607 449.208 707.012 449.833 708.475 449.785C713.287 450.01 717.589 447.002 721.401 444.052C744.725 426.01 766.05 404.754 780.505 379.058C781.701 376.922 782.887 374.433 782.073 372.12C781.504 370.804 780.594 369.664 779.437 368.817C775.652 365.608 771.342 363.075 766.697 361.33" fill="white"/>
<path d="M699.469 430.195C705.878 438.466 717.501 441.955 727.497 439.015C737.806 435.996 745.294 426.441 746.636 415.916C749.243 395.473 728.624 376.824 708.73 384.958C698.263 389.24 692.922 399.305 692.236 410.261C691.854 416.367 693.726 421.629 695.833 427.245C698.205 433.527 698.293 440.093 699.4 446.629C700.468 452.931 706.094 455.155 711.925 454.136C717.961 453.087 722.822 448.854 727.477 445.179C737.28 437.511 746.55 429.185 755.221 420.257C765.095 410.113 773.856 398.943 781.358 386.937C784.729 381.469 789.531 374.687 785.385 368.317C781.72 362.722 773.91 359.282 767.863 357.057C762.493 355.097 760.454 363.398 765.54 365.505C767.648 366.39 769.678 367.453 771.607 368.68C773.214 369.709 775.919 371.14 776.957 372.796C777.996 374.452 776.957 375.834 775.889 377.637C774.547 379.999 773.135 382.312 771.675 384.605C766.449 392.732 760.583 400.43 754.133 407.625C747.644 414.855 740.729 421.691 733.426 428.097C729.924 431.181 726.354 434.183 722.714 437.104C719.206 439.926 715.09 444.032 710.523 444.944C709.965 445.061 708.495 445.453 708.005 444.944C708.985 445.855 708.201 442.984 708.201 442.984C707.877 440.573 707.642 438.152 707.309 435.741C706.545 430.702 705.196 425.769 703.291 421.041C700.537 413.75 700.478 405.273 705.065 398.619C709.22 392.592 717.452 390.416 724.292 392.445C731.133 394.474 736.327 400.285 738.306 406.939C741.021 416.073 737.395 426.314 729.006 431.165C720.617 436.016 709.573 433.536 703.614 426.02C701.262 423.08 697.195 427.225 699.469 430.165V430.195Z" fill="#382C80"/>
<path d="M708.172 404.362C690.434 399.746 672.627 414.162 677.263 432.664C680.722 446.512 701.214 454.067 713.699 447.756C722.234 443.185 727.096 433.85 725.949 424.236C724.463 414.684 717.499 406.899 708.172 404.362Z" fill="#382C80"/>
<path d="M708.946 401.53C697.97 398.756 685.759 401.628 678.36 410.575C671.108 419.346 669.922 432.605 676.9 441.935C683.299 450.49 694.687 455.292 705.32 454.597C717.775 453.741 728.061 444.544 730.3 432.262C732.815 417.711 723.661 403.69 709.328 400.138C703.821 398.815 701.655 406.822 706.996 408.576C715.267 411.29 721.833 419.199 721.412 428.117C721.02 436.398 714.767 444.003 706.457 445.189C699.105 446.073 691.727 443.757 686.2 438.828C680.542 433.339 679.189 424.774 682.878 417.807C687.474 408.987 697.99 405.018 707.437 407.184C711.063 408.027 712.66 402.461 708.946 401.53Z" fill="#382C80"/>
<path d="M354.96 434.546C358.184 462.76 389.515 499.922 392.259 528.185C395.003 556.448 392.023 586.71 375.599 609.878C362.555 628.272 342.533 640.463 327.931 657.192C310.948 676.645 290.407 693.628 271.091 710.68C268.485 712.983 265.662 715.718 265.633 719.187C265.769 721.188 266.391 723.125 267.446 724.832C284.106 757.573 301.746 791.472 330.969 813.708C332.675 814.992 334.566 816.295 336.702 816.275C338.662 816.275 340.387 815.119 342.004 814.031C370.032 795.117 398.06 776.193 425.52 756.476C448.873 739.698 476.343 721.549 494.58 699.332C513.455 676.351 524.48 647.392 527.832 617.992C531.997 581.399 524.892 544.149 511.603 509.771C493.796 463.524 464.073 420.836 422.639 393.65" fill="#7F72FF"/>
<path d="M351.51 434.546C353.166 448.158 359.135 461.006 365.103 473.177C371.473 486.211 378.823 498.853 383.821 512.524C388.956 526.646 389.23 541.924 388.113 556.781C386.898 572.804 382.9 588.857 374.393 602.645C365.573 616.973 352.079 627.459 339.662 638.464C326.726 649.92 315.779 663.317 303.196 675.165C296.444 681.525 289.476 687.68 282.508 693.785C279.353 696.549 276.178 699.303 273.022 702.056C269.553 705.094 265.496 708.025 262.869 711.856C257.538 719.647 262.801 727.272 266.495 734.475C270.288 741.874 274.149 749.234 278.255 756.486C286.281 770.774 295.16 784.621 305.842 797.087C311.024 803.172 316.701 808.816 322.816 813.963C325.932 816.569 329.294 819.745 333.223 821.038C337.898 822.587 342.043 820.421 345.836 817.883C377.696 796.568 409.085 774.625 440.269 752.34C468.003 732.534 495.835 711.866 512.857 681.594C530.213 650.724 536.377 614.66 533.379 579.576C530.37 544.178 519.237 509.437 502.832 477.999C488.083 449.736 468.346 423.638 443.571 403.401C437.601 398.514 431.365 393.96 424.893 389.76C419.993 386.604 415.622 394.297 420.375 397.482C473.138 432.929 507.467 494.002 519.737 555.517C526.509 589.425 525.46 625.028 512.946 657.506C507.158 672.735 498.725 686.822 488.034 699.116C477.352 711.268 464.73 721.607 451.774 731.231C423.089 752.526 393.454 772.567 363.937 792.677C356.097 798.002 348.257 803.317 340.417 808.622C339.368 809.327 337.702 810.964 336.369 810.846C335.036 810.729 333.155 808.69 332.087 807.838C328.892 805.28 325.824 802.565 322.875 799.723C311.614 788.855 302.353 776.203 294.161 762.934C289.996 756.182 286.105 749.214 282.401 742.266C280.617 738.934 278.856 735.589 277.118 732.231C275.237 728.595 272.914 724.93 271.434 721.108C270.072 717.589 273.316 715.659 275.746 713.513C279.186 710.465 282.665 707.446 286.125 704.428C292.789 698.548 299.453 692.766 305.97 686.788C312.487 680.81 318.827 674.685 324.884 668.256C330.558 662.239 335.86 655.957 341.916 650.303C353.598 639.405 366.494 629.723 376.441 617.071C396.296 591.855 400.677 557.683 396.62 526.578C394.924 513.563 388.936 501.372 382.968 489.847C376.481 477.342 369.052 465.171 363.594 452.156C361.085 446.538 359.357 440.603 358.458 434.516C357.919 430.175 351.02 430.106 351.598 434.516L351.51 434.546Z" fill="#382C80"/>
<path d="M447.08 486.456C460.075 511.231 465.171 539.906 468.826 568.179C479.114 647.948 479.532 728.681 470.071 808.553C469.542 813.012 468.866 817.745 466.102 821.097C462.78 825.135 457.38 826.056 452.431 826.605C416.7 830.601 380.551 828.523 345.513 820.46C343.847 820.078 342.024 819.578 341.034 818.069C340.045 816.56 340.221 814.404 340.476 812.502C346.656 766.24 355.012 720.396 365.544 674.969C366.269 671.843 367.004 668.599 366.465 665.434C365.858 661.925 363.761 658.995 361.908 656.045C356.607 647.559 353.01 637.974 349.6 628.4C336.771 592.414 325.952 555.262 321.64 516.895C317.328 478.528 319.68 438.74 332.42 402.608" fill="#7F72FF"/>
<path d="M444.444 487.966C456.822 512.466 461.437 539.906 464.72 566.944C468.294 596.442 470.542 626.061 471.463 655.8C472.384 685.54 472.028 715.326 470.395 745.157C469.558 759.811 468.395 774.439 466.906 789.041C466.181 796.176 465.622 803.428 464.436 810.503C464.005 813.09 463.456 816.128 461.565 818.059C459.673 819.99 456.929 820.48 454.45 820.901C440.603 823.204 426.03 823.322 411.977 823.106C397.417 822.896 382.89 821.661 368.504 819.411C361.301 818.275 354.039 817.01 346.944 815.237C345.768 814.943 345.288 814.188 345.709 815.442C345.347 814.355 345.944 812.287 346.082 811.189C346.591 807.397 347.12 803.624 347.659 799.841C349.737 785.265 352.024 770.725 354.519 756.221C357.067 741.521 359.89 726.821 362.82 712.19C364.316 704.644 365.881 697.13 367.514 689.65C368.965 682.937 371.268 675.93 371.65 669.07C372.042 661.935 367.965 656.722 364.623 650.861C361.278 644.786 358.442 638.443 356.146 631.898C351.22 618.446 346.699 604.86 342.583 591.14C326.344 536.995 317.828 479.018 331.352 423.315C332.94 416.778 334.772 410.261 336.703 403.813C338.379 398.207 330.215 396.296 328.138 401.451C317.23 428.411 314.124 458.762 314.653 487.642C315.202 517.562 320.308 547.285 327.912 576.175C331.695 590.513 336.095 604.684 340.888 618.707C345.582 632.427 350.1 646.735 357.871 659.132C359.586 661.876 361.546 664.522 361.575 667.884C361.575 671.559 360.194 675.391 359.361 678.938C357.616 686.425 355.924 693.939 354.284 701.478C351.017 716.505 348.038 731.594 345.347 746.744C342.544 762.346 339.989 777.987 337.683 793.667C337.16 797.254 336.647 800.847 336.144 804.447C335.645 808.043 334.714 811.885 334.831 815.54C335.106 823.38 341.534 825.34 347.963 826.712C377.898 833.213 408.601 835.45 439.162 833.357C451.628 832.485 468.209 832.847 473.364 818.872C475.834 812.169 475.873 804.251 476.588 797.214C477.372 789.59 478.065 781.953 478.666 774.302C481.116 743.249 482.076 712.128 481.547 680.937C481.019 650.011 478.929 619.131 475.285 588.416C471.923 559.829 468.268 530.596 457.978 503.508C455.583 497.182 452.795 491.013 449.628 485.035C447.806 481.615 442.719 484.634 444.444 488.064V487.966Z" fill="#382C80"/>
<path d="M515.425 286.919C499.226 266.015 484.722 244.161 466.905 224.346C453.734 209.704 438.26 194.652 418.973 188.703C397.766 182.166 390.553 193.035 383.605 212.223C373.1 241.358 363.427 273.679 374.442 302.628C382.008 322.522 398.295 337.634 414.436 351.51C430.753 365.524 447.668 379.166 466.503 389.427C468.895 377.99 475.098 365.299 478.714 356.058C488.249 331.675 500.567 308.475 515.425 286.919Z" fill="white"/>
<path d="M518.356 283.979C499.736 259.89 482.919 234.293 461.516 212.497C452.118 202.962 441.612 193.995 429.44 188.36C419.689 183.842 407.449 179.991 397.179 185.136C388.584 189.438 384.282 199.032 380.989 207.519C375.546 221.176 371.284 235.274 368.249 249.659C365.309 264.359 364.329 279.647 367.691 294.376C370.827 307.959 377.941 319.994 386.889 330.548C397.287 342.818 409.87 353.235 422.247 363.437C435.526 374.393 449.383 384.723 464.505 393.023C466.739 394.248 470.012 393.239 470.6 390.544C472.56 381.655 476.088 373.247 479.616 364.897C483.144 356.548 486.476 347.884 490.318 339.545C498.465 321.929 508.091 305.035 519.091 289.045C522.129 284.635 514.936 280.48 511.927 284.861C500.687 301.198 490.883 318.478 482.625 336.507C478.823 344.807 475.559 353.323 472.012 361.742C468.356 370.405 464.613 379.107 462.594 388.339L468.689 385.859C456.127 378.809 444.198 370.684 433.037 361.575C422.298 353.14 411.989 344.171 402.147 334.703C393.092 325.825 384.811 315.907 379.607 304.216C373.972 291.476 372.953 277.354 374.374 263.644C375.825 249.669 379.852 236.017 384.36 222.758C387.457 213.634 390.289 202.109 397.424 195.122C404.186 188.497 414.319 191.202 422.159 194.211C434.066 198.836 444.268 207.156 453.294 216.016C475.902 238.222 493.248 264.937 512.544 289.888C513.926 291.672 516.954 291.309 518.424 289.888C520.13 288.114 519.718 285.743 518.356 283.979Z" fill="#382C80"/>
<path d="M442.954 245.2C457.801 249.12 463.162 267.191 460.222 281.587C457.282 295.984 448.834 309.027 446.031 323.414C441.572 346.434 451.911 369.376 456.008 392.445C457.733 402.245 458.615 418.983 448.413 425.334C440.387 430.312 423.913 430.832 414.632 431.743C387.026 434.438 355.244 438.436 328.676 429.528C326.019 428.788 323.528 427.547 321.336 425.873C314.427 419.993 316.515 409.046 318.573 400.187C325.237 371.6 325.207 342.083 324.56 312.898C324.227 297.885 323.688 282.861 323.806 267.818C323.894 255.078 323.375 230.392 339.545 209.018" fill="white"/>
<path d="M442.063 248.405C456.331 252.609 459.252 270.278 456.037 282.871C453.764 291.799 449.589 300.06 446.237 308.616C442.688 317.29 440.813 326.557 440.71 335.928C440.789 355.94 448.55 374.756 451.716 394.307C452.696 400.285 452.97 406.812 451.412 412.711C449.707 419.179 445.532 422.159 439.299 423.776C432.263 425.579 424.962 425.961 417.739 426.529C409.164 427.196 400.618 428.156 392.043 428.852C373.316 430.381 353.912 431.165 335.586 426.314C331.881 425.334 326.971 424.413 324.178 421.639C321.817 419.297 321.523 415.818 321.601 412.662C321.836 404.087 324.864 395.571 326.217 387.124C329.5 366.544 330.039 345.64 329.774 324.815C329.51 303.539 328.422 282.273 328.853 260.998C329.216 243.191 333.038 226.07 343.827 211.547C345.454 209.352 344.17 205.971 342.034 204.687C339.496 203.168 336.781 204.324 335.174 206.49C324.394 220.955 319.847 238.428 318.965 256.225C317.985 275.727 319.122 295.347 319.523 314.849C319.984 336.938 320.121 359.243 316.956 381.155C315.554 390.897 312.595 400.452 311.674 410.242C310.88 418.709 313.291 427.48 321.189 431.802C329.706 436.467 340.476 437.986 349.992 439.044C360.105 440.068 370.285 440.264 380.43 439.632C390.691 439.103 400.903 438.035 411.124 436.966C419.15 436.124 427.235 435.673 435.203 434.369C442.396 433.203 450.481 431.253 455.361 425.402C460.242 419.552 461.623 411.81 461.643 404.43C461.702 385.369 453.48 367.19 450.314 348.57C448.55 338.153 448.629 327.696 451.686 317.534C454.626 307.783 459.33 298.659 462.231 288.898C466.425 274.816 465.573 256.813 453.323 246.758C450.531 244.473 447.289 242.803 443.807 241.858C439.632 240.712 437.878 247.111 442.023 248.336L442.063 248.405Z" fill="#382C80"/>
<path d="M397.492 253.53C433.36 284.39 469.326 315.339 508.614 341.73C516.699 347.159 525.892 353.157 535.015 356.685C544.6 360.399 556.223 357.665 566.101 356.214C590.954 352.51 615.101 345.434 639.356 338.976C673.656 329.872 709.269 322.012 744.383 327.118C772.636 331.224 794.98 354.901 798.087 383.723C798.557 388.104 798.43 392.955 795.597 396.326C792.765 399.697 786.376 400.06 784.494 396.081C785.817 400.452 787.15 404.901 786.944 409.477C786.738 414.054 784.7 418.787 780.721 421.022C776.742 423.256 770.803 421.953 769.059 417.739C769.353 421.306 769.627 425.01 768.402 428.382C767.177 431.753 764.002 434.683 760.435 434.438C758.323 434.125 756.35 433.198 754.761 431.772C747.029 425.706 744.079 418.542 741.335 409.556C736.435 393.562 715.306 392.435 702.321 398.55C694.706 402.127 688.601 408.174 682.006 413.407C655.918 434.144 621.598 442.337 588.269 442.376C541.229 442.425 494.189 430.273 451.627 411.143C406.714 390.975 364.907 355.47 342.847 310.938C326.187 277.403 315.995 218.515 354.607 195.749C369.176 187.319 386.907 186.393 402.274 193.26" fill="white"/>
<path d="M395.003 255.98C420.219 279.039 446.483 301.178 473.599 321.973C486.917 332.234 500.5 342.22 514.7 351.236C521.404 355.499 528.734 360.056 536.486 362.134C544.012 364.143 551.882 363.29 559.477 362.212C576.102 359.855 592.584 356.583 608.849 352.412C625.509 348.139 642.11 343.327 658.888 339.319C675.93 335.242 693.188 331.92 710.74 330.93C725.861 330.078 742.648 329.95 756.907 335.752C775.96 343.826 789.501 361.156 792.726 381.596C793.216 384.693 793.912 388.77 792.481 391.73C792.089 392.533 789.855 395.062 788.924 393.435C786.092 388.486 777.928 391.769 779.614 397.355C781.133 402.382 783.269 408.37 780.898 413.486C779.585 416.298 775.322 418.856 773.46 415.103C771.274 410.693 763.66 412.692 764.022 417.66C764.257 420.6 764.943 432.008 759.122 428.578C754.791 426.039 751.606 421.394 749.479 416.974C747.274 412.398 746.539 407.174 743.922 402.794C741.708 399.087 738.541 396.041 734.75 393.974C726.91 389.672 717.374 389.26 708.77 391.112C697.853 393.454 689.581 400.716 681.222 407.655C642.022 440.181 586.907 441.465 538.995 433.135C512.647 428.464 486.909 420.837 462.27 410.399C440.808 401.383 420.415 389.819 402.245 375.236C370.121 349.413 343.749 314.672 335.4 273.698C331.979 256.931 331.225 238.33 337.859 222.229C345.41 204.022 363.597 192.532 383.282 193.534C389.029 193.769 394.681 195.082 399.942 197.405C405.577 199.914 410.497 191.584 404.842 189.066C382.92 179.266 356.058 183.676 339.643 201.688C326.668 215.8 322.62 235.4 323.238 254.02C324.757 297.14 347.483 336.644 377.628 366.446C414.77 403.166 463.613 425.54 513.848 437.917C564.808 450.441 624.382 454.361 671.275 426.765C676.729 423.529 681.928 419.883 686.828 415.857C691.728 411.937 696.304 407.606 701.763 404.47C709.201 400.187 718.678 398.717 726.9 401.53C736.837 404.92 737.053 415.318 741.335 423.462C746.235 432.841 759.191 446.002 769.559 435.692C774.371 430.91 774.587 424.099 774.087 417.758L764.649 420.306C768.746 428.607 780.447 429.126 786.562 422.874C794.157 415.152 792.168 404.068 789.365 394.748L780.065 398.668C783.485 404.666 791.521 405.528 796.999 401.814C803.506 397.423 803.859 388.79 802.879 381.783C801.09 368.007 795.274 355.066 786.16 344.582C777.356 334.466 765.767 327.168 752.84 323.6C736.259 319.102 717.737 319.68 700.802 321.385C663.562 325.148 628.194 337.536 591.944 345.885C583.124 347.924 574.304 349.805 565.415 351.226C557.683 352.49 549.549 354.539 541.67 353.441C533.301 352.275 525.294 346.885 518.297 342.475C510.692 337.692 503.264 332.587 495.924 327.402C462.457 303.765 431.783 276.756 399.982 251.021C396.532 248.228 391.603 252.883 395.003 256V255.98Z" fill="#382C80"/>
<path d="M798.087 383.694C794.98 354.872 772.607 331.195 744.383 327.089C709.269 321.983 673.656 329.843 639.356 338.947C615.121 345.376 590.954 352.481 566.101 356.185C556.223 357.665 544.6 360.37 535.015 356.655C525.892 353.127 516.699 347.13 508.614 341.701C506.899 340.554 505.204 339.378 503.499 338.212C490.435 329.245 477.715 319.807 465.279 310.037C454.695 331.499 441.406 359.439 434.585 376.765C431.712 383.819 429.2 391.015 427.059 398.325C435.011 403.055 443.227 407.328 451.666 411.124C454.717 412.483 457.782 413.809 460.859 415.103C500.98 431.919 544.61 442.396 588.308 442.356C621.628 442.356 655.928 434.124 682.045 413.388C688.63 408.154 694.785 402.108 702.36 398.531C715.345 392.416 736.464 393.543 741.374 409.536C744.118 418.523 747.068 425.687 754.8 431.753C756.389 433.178 758.362 434.105 760.474 434.418C764.041 434.663 767.217 431.723 768.442 428.362C769.667 425.001 769.422 421.286 769.098 417.719C770.843 421.933 776.781 423.237 780.76 421.002C784.739 418.768 786.777 414.025 786.983 409.458C787.189 404.891 785.856 400.432 784.533 396.061C786.415 400.04 792.804 399.677 795.637 396.306C798.469 392.935 798.557 388.074 798.087 383.694Z" fill="white"/>
<path d="M802.242 383.694C800.017 363.491 789.123 345.252 772.391 333.714C752.556 320.131 726.498 320.111 703.438 322.179C675.998 324.649 649.43 331.979 622.951 339.074C609.554 342.681 596.138 346.238 582.545 349.051C575.989 350.413 569.394 351.501 562.769 352.549C556.742 353.529 550.695 354.617 544.561 354.362C537.299 354.058 530.841 350.54 524.637 346.973C518.267 343.308 512.162 339.133 506.105 334.997C493.163 326.092 480.518 316.792 468.17 307.097C466.21 305.588 462.956 305.294 461.653 307.94C454.45 322.561 447.384 337.251 440.651 352.108C433.997 366.808 427.46 381.694 423.011 397.188C422.543 399 423.32 400.905 424.922 401.873C450.716 417.092 479.42 428.029 508.33 435.673C536.848 443.219 566.787 447.501 596.334 446.296C622.794 445.218 649.597 438.985 672.372 425.108C678.033 421.594 683.425 417.663 688.503 413.348C693.57 409.115 698.646 404.587 704.751 401.902C712.346 398.55 722.578 397.766 730.055 401.902C735.318 404.793 736.768 409.272 738.63 414.642C740.766 420.816 743.657 426.657 748.224 431.41C752.791 436.163 759.494 440.886 766.197 437.123C773.224 433.203 773.783 424.863 773.204 417.7L765.472 419.787C769.324 427.558 780.221 427.98 785.944 422.159C793.294 414.711 791.197 403.901 788.502 394.934L780.917 398.129C783.935 403.411 790.874 404.323 795.901 401.363C801.977 397.796 802.84 390.024 802.242 383.723C801.732 378.451 793.422 378.402 793.941 383.723C794.225 386.732 794.696 390.887 792.618 393.425C791.638 394.621 789.031 395.65 788.081 393.984C785.768 389.936 779.124 392.621 780.496 397.178C782.083 402.47 784.22 408.684 781.672 414.025C780.035 417.445 774.812 420.071 772.646 415.642C770.852 412.025 764.58 413.682 764.904 417.739C765.149 420.747 765.698 424.413 764.404 427.274C762.914 430.547 760.425 430.763 757.711 428.832C753.28 425.455 749.871 420.916 747.862 415.72C745.902 411.026 745.059 405.832 741.982 401.647C739.226 397.907 735.468 395.023 731.143 393.327C722.911 389.966 713.042 390.279 704.683 393.102C692.923 397.071 684.671 406.606 674.812 413.584C630.34 445.12 569.894 441.857 519.286 429.891C487.975 422.492 456.86 411.114 429.126 394.728L431.037 399.423C435.389 384.223 441.768 369.65 448.295 355.323C454.822 340.995 461.8 326.462 468.875 312.203L462.358 313.045C473.03 321.395 483.859 329.549 494.943 337.349C505.488 344.778 516.17 352.52 527.842 358.086C533.242 360.673 538.622 362.467 544.61 362.722C550.597 362.976 556.771 361.938 562.759 360.977C575.803 358.88 588.71 356.45 601.548 353.304C628.008 346.806 654.036 338.604 680.869 333.704C694.21 331.165 707.753 329.834 721.333 329.725C733.034 329.725 745.274 330.342 756.309 334.625C776.752 342.465 791.491 362.202 793.99 383.841C794.539 388.937 802.82 388.995 802.242 383.694Z" fill="#382C80"/>
<path d="M741.805 381.694C755.035 392.474 762.689 407.174 766.168 423.717C767.256 428.881 774.822 426.657 774.008 421.561C771.068 403.705 759.72 387.77 745.363 377.118C742.727 375.158 739.257 379.607 741.825 381.694H741.805Z" fill="#382C80"/>
<path d="M758.857 361.173C765.07 366.23 769.372 372.678 772.91 379.793C774.645 383.282 776.066 386.908 777.487 390.573C778.908 394.238 779.937 398.501 782.122 401.892C784.082 404.911 790.05 404.097 789.551 399.883C789.031 395.473 787.12 391.357 785.435 387.28C783.736 383.175 781.772 379.184 779.555 375.334C775.33 367.873 769.462 361.472 762.395 356.616C759.68 354.803 756.27 359.096 758.857 361.203V361.173Z" fill="#382C80"/>
<path d="M36.4599 917.48C56.5499 926.045 69.7799 903.603 77.8943 888.962C82.7943 880.211 87.4689 871.322 94.4367 863.972C100.532 857.621 107.8 852.513 115.84 848.929C132.42 841.535 151.315 841.301 168.074 848.282C176.557 851.823 184.227 857.058 190.614 863.668C197.121 870.42 201.659 878.603 206.48 886.561C211.204 894.352 216.378 902.329 223.669 907.954C232.577 914.814 242.897 914.128 253.569 913.981C276.374 913.668 299.159 914.05 321.963 914.55L458.84 917.578C504.469 918.584 550.101 919.584 595.736 920.577C606.938 920.822 618.168 920.812 629.36 921.341C638.053 921.763 646.686 922.929 655.34 923.732C664.454 924.575 673.705 925.202 682.78 924.075C689.924 923.203 697.48 921.449 702.272 915.608C711.278 904.573 706.28 888.629 707.485 875.732C708.22 867.814 711.249 859.66 718.834 856.132C722.568 854.397 726.272 853.065 728.791 849.586C731.584 845.734 731.917 840.932 732.319 836.346C735.906 794.99 738.199 753.526 740.041 712.062C743.755 626.185 744.941 540.239 746.627 454.322C746.823 443.993 746.97 433.661 747.068 423.325C747.126 417.7 738.532 417.719 738.346 423.325C735.543 508.183 735.406 593.11 732.358 677.968C730.878 719.255 728.938 760.523 726.057 801.732C725.357 811.65 724.603 821.561 723.793 831.465C723.479 835.278 723.969 840.991 721.676 844.284C719.549 847.322 714.718 847.949 711.729 849.85C697.48 858.935 698.313 877.388 698.763 892.147C698.94 897.802 699.381 904.887 695.765 909.699C691.659 915.148 682.78 915.579 676.557 915.804C658.868 916.569 641.277 912.864 623.637 912.462C578.282 911.528 532.934 910.623 487.593 909.748L352.775 907.121C330.342 906.69 307.91 906.063 285.488 905.945C274.381 905.887 263.255 905.952 252.109 906.141C246.974 906.23 241.574 906.788 236.517 905.671C231.46 904.554 227.638 901.604 224.189 897.978C217.652 891.118 213.193 882.602 208.254 874.585C203.589 866.873 198.238 859.66 191.3 853.78C163.973 829.902 123.325 829.486 95.5147 852.8C80.3933 865.109 74.0723 883.18 63.3217 898.86C58.4707 905.926 49.7291 915.206 40.1251 911.159C35.8327 909.346 32.0891 915.638 36.4305 917.48H36.4599Z" fill="#382C80"/>
<path d="M100.807 888.825C106.324 873.145 123.2 866.99 138.537 866.804C146.602 866.706 155.02 867.784 162.39 871.204C168.617 874.282 174.106 878.667 178.482 884.062C187.752 894.95 193.623 908.278 202.795 919.254C207.745 925.321 214.485 929.67 222.052 931.68C230.209 933.707 238.57 934.799 246.974 934.934C255.735 935.208 264.486 934.689 273.248 934.591C282.322 934.483 291.407 934.738 300.472 934.845L355.96 935.473C393.076 935.904 430.185 936.293 467.288 936.639C541.768 937.397 616.28 938.122 690.826 938.814C706.937 938.962 725.567 941.108 739.982 932.327C746.092 928.762 750.816 923.236 753.389 916.647C756.045 909.405 754.565 901.643 753.389 894.283C752.409 888.178 751.252 881.043 755.996 876.163C759.769 872.292 765.796 871.351 770.98 871.116C773.951 871.007 776.926 871.079 779.888 871.332C781.485 871.459 783.083 871.616 784.68 871.831C783.063 871.616 785.082 871.92 785.503 871.988C788.943 872.576 792.363 873.331 795.774 874.007C804.074 875.673 812.591 877.437 821.077 877.555C827.212 877.643 835.621 876.575 837.13 869.313C837.963 865.393 836.032 861.385 833.827 858.219C830.004 852.871 825.306 848.206 819.931 844.421C808.857 836.424 795.186 832.22 781.632 831.348C774.895 830.942 768.133 831.43 761.523 832.798C755.496 834.003 758.063 843.147 764.051 841.99C777.153 839.497 790.699 840.947 802.977 846.155C809.105 848.733 814.723 852.384 819.568 856.935C821.55 858.781 823.355 860.809 824.958 862.992C825.461 863.688 825.925 864.411 826.35 865.158C826.575 865.559 826.801 865.961 826.987 866.383C827.173 866.804 826.869 866.059 827.153 866.941C827.31 867.412 827.732 867.813 827.232 866.941C827.261 867.169 827.261 867.4 827.232 867.627C827.398 867.372 827.79 866.52 827.34 866.961C827.575 866.735 827.673 866.432 827.712 866.52C827.751 866.608 827.349 866.755 826.918 866.853C825.901 867.192 824.834 867.354 823.763 867.333C821.883 867.404 820.002 867.361 818.128 867.206C810.288 866.647 802.448 864.922 794.608 863.286C775.507 859.366 743.736 857.318 742.187 884.258C741.776 891.588 744.324 898.683 744.598 905.965C744.964 912.298 742.051 918.375 736.886 922.056C730.957 926.535 723.42 928.044 716.159 928.495C707.26 929.054 698.264 928.652 689.356 928.583C616.306 928.015 543.251 927.489 470.188 927.006C433.791 926.751 397.394 926.506 360.997 926.271L306.94 926.006C289.222 925.908 271.562 926.231 253.853 926.496C245.156 926.736 236.456 926.079 227.893 924.536C219.896 923.007 213.771 919.793 208.47 913.55C199.463 902.976 193.554 890.099 184.597 879.446C175.338 868.138 161.915 861.034 147.357 859.738C132.52 858.229 116.291 860.797 104.727 870.832C99.7635 875.118 96.1825 880.779 94.4369 887.1C93.2707 891.245 99.4153 892.833 100.807 888.864V888.825Z" fill="#382C80"/>
<path d="M402.275 193.26C386.91 186.402 369.192 187.309 354.608 195.7C302.521 226.168 309.145 296.376 325.756 329.96C343.72 366.22 471.159 494.649 427.02 398.345C429.161 391.035 431.673 383.839 434.546 376.785C441.406 359.458 454.656 331.518 465.24 310.056C442.102 291.926 419.778 272.728 397.492 253.55" fill="white"/>
<path d="M404.372 189.703C393.359 184.753 381.071 183.382 369.239 185.783C358.547 187.939 349.06 193.534 340.75 200.483C326.912 211.988 317.632 228.099 313.163 245.425C308.9 261.958 308.704 279.304 311.203 296.131C313.212 309.41 316.946 323.12 323.629 334.87C328.765 343.906 335.389 352.167 341.955 360.183C350.413 370.522 359.38 380.46 368.66 390.073C377.941 399.687 387.457 408.938 397.57 417.572C405.018 423.932 412.917 430.577 421.786 434.869C427.186 437.476 435.428 439.936 439.044 433.252C443.111 425.736 438.064 414.397 435.3 407.331C433.83 403.607 432.223 399.922 430.557 396.277L430.979 399.481C435.33 384.282 441.71 369.709 448.236 355.381C454.763 341.054 461.741 326.52 468.816 312.261C469.551 310.772 469.649 308.4 468.16 307.234C445.022 289.084 422.707 269.916 400.412 250.727C396.385 247.268 390.485 253.109 394.532 256.607C416.827 275.796 439.142 294.964 462.29 313.114L461.633 308.087C450.794 330.097 439.906 352.187 430.822 375.03C427.919 381.889 425.429 388.915 423.364 396.071C422.208 400.452 425.451 404.95 427.068 409.017C429.028 413.917 431.292 420.199 431.968 424.814C431.968 424.814 432.125 426.461 432.125 427.147V428.244C432.125 429.371 432.272 427.666 432.125 428.48C432.066 428.764 431.998 429.038 431.91 429.322C431.684 430.018 431.861 428.597 431.91 429.234C432.076 430.479 430.753 428.725 432.008 429.234C432.008 429.234 431.028 430.155 431.812 429.489C432.596 428.823 431.665 429.626 431.596 429.558C431.145 429.146 432.801 429.46 431.772 429.43C430.743 429.401 432.057 429.43 431.959 429.43C431.632 429.449 431.305 429.449 430.979 429.43C429.999 429.342 431.037 429.43 430.979 429.43C430.665 429.362 430.342 429.322 429.999 429.234C429.254 429.019 428.529 428.803 427.803 428.548C427.078 428.293 426.961 428.205 427.245 428.333L426.059 427.784C425.148 427.343 424.266 426.872 423.384 426.373C421.345 425.226 419.385 423.962 417.504 422.639C412.899 419.438 408.463 416 404.215 412.339C382.602 393.801 362.826 373.224 345.16 350.893C338.888 343.053 332.567 334.841 328.324 325.668C321.591 311.085 318.396 294.563 317.936 278.569C317.426 260.508 320.66 241.986 329.803 226.208C340.397 207.921 359.644 192.594 381.557 192.888C387.971 192.948 394.306 194.311 400.177 196.896C405.018 199.052 409.242 191.898 404.372 189.732V189.703Z" fill="#382C80"/>
<path d="M427.019 398.315C425.19 404.592 423.998 411.037 423.462 417.553C423.099 422.551 423.462 428.186 427.137 431.596C430.165 434.409 434.81 434.938 438.789 433.811C442.768 432.684 446.178 430.155 449.285 427.431C453.493 423.679 457.347 419.549 460.8 415.093C457.716 413.786 454.652 412.46 451.608 411.114C443.175 407.318 434.966 403.045 427.019 398.315V398.315Z" fill="#382C80"/>
<path d="M423.011 397.218C419.895 408.527 413.75 430.636 428.078 437.084C442.406 443.532 455.9 427.892 463.74 418.033C465.828 415.406 464.946 412.368 461.908 411.094C450.615 406.385 439.653 400.917 429.097 394.728C424.491 392.014 420.277 399.187 424.913 401.902C436.106 408.415 447.729 414.158 459.703 419.091L457.86 412.163C454.407 416.63 450.552 420.773 446.345 424.54C442.66 427.774 437.427 431.616 432.214 429.871C427.314 428.235 427.314 422.345 427.578 418.111C428.066 411.801 429.219 405.56 431.018 399.491C432.439 394.258 424.432 392.063 423.011 397.218Z" fill="#382C80"/>
<path d="M406.694 99.6504C413.143 86.7507 425.761 78.0628 440.112 76.64C454.009 75.4248 464.387 83.255 466.239 97.4258C467.214 105.216 464.922 113.062 459.908 119.103C465.112 120.23 470.453 121.583 474.608 124.866C478.764 128.149 481.547 133.843 479.832 138.89C478.176 143.79 473.05 146.543 468.17 148.229C453.418 153.25 437.339 152.703 422.962 146.69" fill="#382C80"/>
<path d="M409.281 101.14C416.308 88.2726 432.664 77.7278 447.776 81.54C462.603 85.2836 465.151 104.746 456.39 115.575C454.205 118.27 454.597 123.004 458.585 123.886C464.338 125.17 472.109 126.747 474.687 132.853C477.078 138.507 471.384 141.673 466.847 143.231C452.96 148.023 437.937 147.102 424.422 141.565C421.757 140.477 418.621 142.751 417.905 145.269C417.033 148.307 418.974 150.699 421.61 151.786C430.707 155.535 440.514 157.251 450.343 156.814C459.222 156.402 469.463 154.687 477.048 149.738C484.634 144.789 487.681 136.018 483.448 127.737C479.136 119.28 469.904 116.183 461.241 114.292L463.436 122.612C470.473 113.792 473.285 102.473 470.041 91.5262C467.646 82.9455 461.094 76.1462 452.607 73.4354C433.507 67.3496 412.016 81.001 404.107 98.1118C402.519 101.561 407.41 104.59 409.291 101.14H409.281Z" fill="#382C80"/>
<path d="M383.135 129.56C383.521 138.448 384.586 147.294 386.32 156.02C387.79 163.301 389.064 170.024 387.613 177.443C387.113 179.93 386.485 182.39 385.732 184.812C384.938 187.458 383.056 190.692 384.252 193.368C387.613 200.953 399.021 211.772 406.429 215.075C411.035 217.113 416.71 217.466 420.904 214.673C427.323 210.39 427.646 201.316 427.999 193.613C428.264 187.801 429.205 181.431 433.595 177.619C435.918 175.591 438.916 174.571 441.572 173.013C452.352 166.653 455.88 152.433 455.175 139.948C454.538 128.698 451.147 117.261 443.64 108.862C432.272 96.1224 416.661 96.73 401.676 101.463C391.416 104.688 382.4 112.371 383.135 129.56Z" fill="white"/>
<path d="M379.832 129.56C379.89 136.776 380.44 143.979 381.479 151.12C382.508 157.98 384.34 164.693 384.086 171.651C383.878 174.898 383.272 178.107 382.282 181.206C381.391 184.283 379.764 187.292 379.499 190.506C379.088 195.406 382.674 199.924 385.605 203.579C391.641 211.125 400.452 219.514 410.389 221.053C416.269 221.964 422.472 220.475 426.578 215.918C430.136 211.998 431.478 206.833 432.145 201.678C432.821 196.367 432.292 190.741 434.007 185.626C435.967 179.844 441.906 178.844 446.355 175.532C455.116 168.995 458.899 158.303 459.84 147.759C461.898 124.797 450.187 97.2298 424.971 93.9272C414.289 92.5258 401.118 94.7994 391.916 100.64C381.89 107.02 378.039 118.084 378.48 129.56C378.705 135.548 387.986 135.587 387.819 129.56C387.594 121.779 389.387 113.958 396.14 109.303C402.617 104.854 411.82 103.11 419.532 103.12C441.376 103.12 451.049 125.66 450.422 144.799C450.147 152.962 447.805 162.37 441.004 167.584C436.878 170.749 431.772 171.916 428.391 176.12C425.314 179.952 424.099 184.636 423.54 189.428C422.766 196.033 424.628 209.822 415.7 211.753C407.566 213.526 399.187 205.049 394.219 199.718C392.658 198.099 391.235 196.352 389.966 194.495C388.505 192.29 388.006 191.329 388.888 188.742C390.848 182.803 392.425 176.698 392.318 170.397C392.21 163.821 390.514 157.441 389.309 151.012C387.988 143.915 387.033 136.755 386.447 129.56C386.104 125.405 379.764 125.268 379.832 129.56Z" fill="#382C80"/>
<path d="M404.734 146.573C404.567 151.708 404.322 157.118 401.578 161.459C401.248 155.796 399.841 150.248 397.433 145.113C395.806 141.643 393.425 138.145 389.759 137.037C386.094 135.93 381.292 138.703 381.802 142.496C382.164 145.22 384.84 146.965 386.143 149.356C390.71 157.862 380.087 162.802 374.001 164.938C365.798 167.809 356.508 167.084 349.638 161.341C345.258 171.165 335.326 177.321 324.58 176.874C312.751 176.149 302.951 167.486 291.505 164.409C290.613 164.061 289.623 164.061 288.731 164.409C287.92 164.998 287.344 165.856 287.104 166.829C283.53 175.957 276.031 182.988 266.691 185.967C257.352 188.946 247.167 187.557 238.967 182.186C232.185 177.737 227.138 170.818 219.896 167.182C213.379 178.727 198.434 183.019 185.253 181.637C176.119 180.657 166.731 177.159 161.272 169.779C155.814 162.4 155.804 150.65 162.987 144.936C153.374 145.211 143.387 142.437 136.351 135.881C129.315 129.325 125.796 118.682 129.05 109.627C132.304 100.572 142.986 94.4564 152.1 97.5728C146.22 91.879 142.153 84.0782 141.8 75.8952C141.447 67.7122 145.053 59.2352 151.747 54.5214C159.293 49.1804 169.74 49.1608 178.207 52.826C186.674 56.4912 193.426 63.3708 198.787 70.9266C199.375 60.3622 210.919 52.6986 221.444 53.8746C231.97 55.0506 240.721 63.067 245.65 72.426C246.111 58.4022 258.88 45.7112 272.904 46.0346C286.928 46.358 299.237 60.3622 297.14 74.239C300.011 63.5864 310.987 55.7366 321.992 56.4716C332.998 57.2066 342.847 66.4382 344.278 77.375C344.972 67.17 352.23 58.6058 362.182 56.2462C376.255 53.2474 395.875 64.6056 405.704 73.9548C413.002 66.5591 423.169 62.7248 433.534 63.4598C443.898 64.1947 453.423 69.4253 459.604 77.7768C465.033 85.0974 467.444 95.3384 463.299 103.472C455.949 118.114 435.094 122.553 420.502 121.259C402.823 119.701 405.185 132.275 404.734 146.573Z" fill="#382C80"/>
<path d="M402.107 146.573C401.921 151.267 401.686 155.951 399.255 160.097L404.273 161.459C403.704 153.011 401.333 141.242 393.904 135.979C388.113 131.912 377.097 135.195 379.116 143.682C379.979 147.288 384.624 149.777 384.271 153.648C383.977 156.882 380.126 158.911 377.578 160.175C369.434 164.232 359.379 165.075 351.931 159.058C350.481 157.882 347.795 157.627 346.845 159.715C342.925 168.27 334.105 174.091 324.54 173.435C314.485 172.749 305.793 165.908 296.63 162.351C292.612 160.783 287.32 159.019 284.595 163.635C282.145 167.79 280.675 171.837 277.137 175.395C270.032 182.408 259.807 185.255 250.099 182.921C238.339 180.079 232.057 169.338 221.787 163.88C219.951 162.854 217.634 163.46 216.534 165.252C209.321 177.423 192.691 179.952 179.941 176.767C173.228 175.11 166.152 171.533 162.987 165.007C160.184 159.244 160.772 152.031 165.8 147.768C168.524 145.465 166.27 140.83 162.948 140.908C149.992 141.104 135.9 135.303 132.509 121.612C131.147 116.114 132.137 110.107 136.135 105.932C140.006 101.904 145.543 99.9542 150.962 101.64C155.039 102.904 157.979 97.5042 155.039 94.5936C149.532 89.086 145.719 81.7948 146.023 73.847C146.298 66.7616 150.159 59.8036 156.607 56.6088C171.533 49.2294 186.703 61.6656 194.896 73.161C195.941 74.826 197.951 75.6126 199.849 75.0988C201.746 74.585 203.085 72.8914 203.147 70.9266C203.863 62.7044 213.202 57.5104 220.787 58.2944C230.186 59.2744 237.398 66.8204 241.661 74.6996C243.896 78.8254 249.825 76.6596 250.06 72.426C250.668 61.0972 260.732 50.5426 272.335 50.5916C284.458 50.5916 293.984 62.5378 292.484 74.239C291.808 79.5212 300.109 80.2562 301.53 75.464C304.078 66.8204 312.809 60.3426 321.943 61.107C331.077 61.8714 338.407 69.7016 339.779 78.6C340.612 84.0978 348.599 82.2848 348.971 77.3554C349.795 65.6934 360.927 58.8726 371.815 60.862C383.134 62.9298 394.061 69.4762 402.372 77.277C404.238 79.0716 407.189 79.0716 409.055 77.277C418.052 68.457 431.723 65.517 443.355 70.7012C453.675 75.3072 463.72 87.3122 459.868 99.2976C456.732 109.098 445.57 113.753 436.348 115.654C431.388 116.656 426.315 116.985 421.266 116.634C416.572 116.33 411.613 116.379 407.497 118.986C398.422 124.729 400.637 137.518 400.421 146.583C400.265 152.11 408.859 152.11 409.016 146.583C409.153 141.781 408.898 136.665 409.849 131.941C410.574 128.325 411.927 126.346 415.729 125.895C418.355 125.591 421.041 126.081 423.667 126.159C432.507 126.412 441.304 124.827 449.5 121.504C460.878 116.604 470.589 106.569 470.08 93.447C469.511 79.531 459.604 67.5554 447.158 62.087C431.884 55.5277 414.159 58.893 402.352 70.5934H409.036C398.452 60.6954 384.036 52.2478 369.306 51.16C353.822 49.9938 340.651 62.1066 339.603 77.4044L348.805 76.1598C346.776 63.1062 335.085 52.7182 322.002 51.8558C308.919 50.9934 296.365 60.5582 292.71 73.0434L301.745 74.2684C303.842 57.6084 289.005 41.5462 272.394 41.5168C255.783 41.4874 241.946 56.2168 241.113 72.4554L249.501 70.1818C243.474 59.1176 232.342 49.2098 219.121 49.3274C206.813 49.445 195.435 58.4414 194.367 70.956L202.618 68.7216C196.581 60.2838 189.173 52.6496 179.422 48.6414C170.543 44.986 159.822 44.8292 151.394 49.6802C143.103 54.4234 138.32 63.4982 137.615 72.8474C136.831 83.2844 141.897 93.4274 149.149 100.581L153.256 93.5352C145.602 91.2028 137.576 93.5842 131.637 98.7684C125.345 104.286 122.817 112.675 124.022 120.818C126.747 139.693 145.386 149.346 162.997 149.013L160.145 142.153C153.373 147.945 151.864 157.902 154.824 166.045C158.058 174.934 166.074 180.687 174.816 183.538C191.525 188.987 213.731 185.332 223.218 169.191L217.965 170.563C227.696 175.689 233.812 185.263 244.425 189.124C254.581 192.793 265.844 191.744 275.148 186.263C279.528 183.62 283.32 180.108 286.291 175.943C287.693 173.983 288.885 171.881 289.848 169.671C290.446 168.28 290.122 168.172 291.102 168.064C292.308 167.937 294.709 169.24 295.836 169.691C305.763 173.719 314.965 180.471 326.118 180.383C337.509 180.16 347.764 173.428 352.499 163.066L347.403 163.723C354.27 169.158 363.28 171.078 371.766 168.917C377.646 167.515 384.967 164.458 388.426 159.205C390.204 156.6 390.688 153.324 389.739 150.316C389.184 148.684 388.33 147.168 387.221 145.848C386.182 144.554 383.957 142.819 385.055 141.026C386.153 139.233 388.759 139.536 390.259 140.35C392.219 141.438 393.591 143.672 394.61 145.622C397.102 150.577 398.569 155.983 398.922 161.518C399.118 164.076 402.528 165.33 403.94 162.88C406.831 157.872 407.232 152.286 407.399 146.632C407.458 143.182 402.234 143.202 402.107 146.573Z" fill="#382C80"/>
<path d="M451.264 128.825C447.903 128.766 443.591 129.168 442.189 132.804C441.376 134.911 441.856 137.478 442.366 139.605C442.633 140.833 443.041 142.027 443.581 143.162C443.904 143.799 445.972 146.318 444.669 146.406C442.709 146.543 442.709 149.493 444.669 149.454C448.589 149.376 449.236 146.357 447.472 143.309C446.07 140.899 444.61 137.959 444.914 135.019C445.247 131.804 448.746 131.853 451.264 131.873C452.058 131.809 452.671 131.146 452.671 130.349C452.671 129.552 452.058 128.889 451.264 128.825Z" fill="#382C80"/>
<path d="M408.86 174.366C415.2 178.555 422.756 180.51 430.332 179.922C436.035 179.383 443.219 178.246 447.413 173.944C451.255 170.024 445.453 164.311 441.406 167.937C438.534 170.514 432.743 171.475 429.028 171.935C423.197 172.651 416.514 171.141 411.134 168.995C407.87 167.682 406.234 172.621 408.86 174.385V174.366Z" fill="#382C80"/>
<path d="M436.123 129.923C434.677 129.485 433.157 129.342 431.654 129.501C430.871 129.624 430.096 129.79 429.332 130.001C429.137 130.022 428.944 130.054 428.754 130.099C428.548 130.285 429.165 132.294 429.097 132.304C429.616 132.245 430.204 131.687 430.763 131.569C432.044 131.351 433.36 131.544 434.526 132.118C436.535 133.098 438.289 130.158 436.29 129.09C433.526 127.561 428.695 127.13 426.49 130.07C425.343 131.54 426.382 133.147 428.019 133.48C429.075 133.585 430.141 133.42 431.115 133C432.491 132.622 433.944 132.622 435.32 133C436.071 133.079 436.769 132.605 436.973 131.877C437.176 131.15 436.826 130.382 436.143 130.06L436.123 129.923Z" fill="#382C80"/>
<path d="M430.419 139.83C430.537 139.928 430.645 140.046 430.762 140.154C430.88 140.262 430.811 140.213 430.703 140.075C430.624 140.002 430.569 139.907 430.547 139.801C430.419 139.487 430.547 139.742 430.547 139.801L430.468 139.262C430.478 139.32 430.478 139.38 430.468 139.438L430.547 138.899C430.547 139.095 430.547 139.017 430.674 138.664C430.875 138.336 431.189 138.092 431.556 137.978L432.095 137.91C432.04 137.92 431.984 137.92 431.928 137.91L432.458 137.978C432.73 138.064 432.967 138.236 433.134 138.468C433.216 138.55 433.277 138.651 433.31 138.762C433.369 138.948 433.389 138.968 433.31 138.821L433.379 139.35C433.374 139.285 433.374 139.219 433.379 139.154L433.31 139.683C433.389 139.38 433.114 140.046 433.232 139.84C433.349 139.634 432.889 140.222 433.144 139.977C433.518 139.609 433.728 139.106 433.728 138.581C433.728 138.056 433.518 137.553 433.144 137.184C432.361 136.442 431.133 136.442 430.351 137.184C429.537 137.902 429.202 139.019 429.488 140.066C429.848 141.286 431.039 142.066 432.301 141.908C433.564 141.718 434.496 140.628 434.486 139.35C434.458 138.417 434.051 137.536 433.359 136.91C432.547 136.098 431.231 136.098 430.419 136.91C429.607 137.722 429.607 139.038 430.419 139.85V139.83Z" fill="#382C80"/>
<path d="M326.158 200.943C346.63 199.826 367.817 205.843 383.782 218.936C398.865 231.454 408.834 249.07 411.8 268.446C412.251 271.307 415.828 272.895 418.395 272.189C421.433 271.356 422.619 268.455 422.149 265.584C418.404 243.935 406.666 224.482 389.26 211.076C371.083 197.157 347.971 191.35 325.374 195.024C322.032 195.573 322.806 201.129 326.177 200.904L326.158 200.943Z" fill="#382C80"/>
<path d="M356.636 365.74C354.127 365.505 352.48 367.171 350.667 368.68C348.855 370.152 346.939 371.492 344.934 372.688C332.557 380.102 317.687 382.134 303.774 378.313C297.032 376.353 294.21 386.751 300.893 388.79C317.528 393.752 335.521 390.808 349.707 380.803C353.696 377.921 360.487 373.629 359.644 368.063C359.429 366.651 357.91 365.916 356.704 365.799L356.636 365.74Z" fill="#382C80"/>
<path d="M446.609 196.592C448.07 200.159 449.549 203.452 450.118 207.313C450.748 211.657 451.095 216.037 451.157 220.426C451.3 224.86 451.209 229.299 450.882 233.724C450.49 238.624 449.461 243.377 449.197 248.228C448.912 253.442 456.38 253.961 457.919 249.414C459.585 244.514 459.947 238.889 460.231 233.734C460.555 228.413 460.447 223.074 459.908 217.77C459.026 209.528 457.948 198.787 450.755 193.417C448.863 192.006 445.698 194.397 446.609 196.602V196.592Z" fill="#382C80"/>
<path d="M756.956 528.861C757.328 535.309 761.944 538.994 764.904 544.286C766.649 547.108 766.588 550.689 764.747 553.449C762.581 556.536 759.092 556.879 755.672 557.369C751.615 557.947 751.879 564.504 755.672 565.307C765.06 567.267 773.234 559.104 773.704 550.078C773.828 545.949 772.469 541.913 769.872 538.7C767.667 535.76 763.884 532.732 763.473 528.9C763.022 524.823 756.711 524.647 756.956 528.9V528.861Z" fill="#382C80"/>
<path d="M496.854 900.82C495.443 895.832 491.454 892.206 487.387 889.344C480.155 884.248 472.129 880.612 464.583 876.075C462.289 874.693 460.016 873.204 457.84 871.587C455.478 879.299 453.558 887.169 451.96 895.107C442.395 894.956 432.837 894.728 423.285 894.421C411.888 894.058 400.481 893.578 389.123 892.461C383.39 891.922 377.196 891.686 371.6 890.295C370.006 889.829 368.386 889.456 366.749 889.178V890.52C366.606 892.901 366.939 895.287 367.729 897.537C369.17 900.908 372.521 902.839 375.795 904.054C386.447 907.974 400.148 906.69 411.467 908.15C425.588 909.973 439.828 911.09 454.038 911.767C462.76 912.198 502.342 920.106 496.854 900.82Z" fill="#382C80"/>
<path d="M500.862 899.722C498.128 891.363 490.905 886.335 483.663 882.023C475.754 877.319 467.385 873.468 459.937 868.009C457.693 866.363 454.547 868.156 453.841 870.489C451.499 878.221 449.578 886.061 447.961 894.009L451.979 890.922C437.407 890.696 422.815 890.363 408.262 889.648C401.039 889.295 393.856 888.668 386.702 888.109C383.272 887.825 379.842 887.619 376.431 887.061C373.56 886.59 370.786 885.649 367.905 885.199C365.289 884.787 362.672 886.257 362.652 889.197C362.652 896.567 364.122 902.809 371.071 906.484C376.951 909.61 383.889 910.483 390.435 911.002C397.903 911.59 405.38 911.57 412.819 912.492C420.776 913.472 428.75 914.265 436.74 914.873C446.266 915.598 455.733 916.137 465.229 917.107C473.118 917.911 481.37 918.558 489.2 916.872C497.785 915.02 503.312 908.709 500.96 899.722C499.598 894.567 491.591 896.782 492.953 901.927C493.181 902.891 493.293 903.878 493.286 904.867C493.254 905.59 492.893 906.258 492.306 906.68C490.993 907.895 488.269 908.64 485.927 909.062C479.39 910.169 472.452 909.493 465.905 908.836C458.849 908.131 451.881 907.533 444.796 907.102C431.076 906.249 417.356 904.044 403.636 903.329C396.776 902.976 389.749 903.054 382.968 901.682C379.959 901.075 376.686 900.31 374.148 898.556C370.835 896.292 371.09 892.823 371.1 889.168L365.847 893.166C368.728 893.617 371.502 894.558 374.373 895.038C377.882 895.616 381.419 895.939 384.957 896.233C392.327 896.831 399.657 897.478 407.076 897.85C422.089 898.625 437.132 898.958 452.156 899.193C454.018 899.18 455.648 897.938 456.154 896.145C457.801 888.237 459.721 880.397 462.034 872.625L455.939 875.105C462.358 879.818 469.472 883.346 476.391 887.237C482.487 890.667 490.709 894.734 493.051 901.859C494.511 906.984 502.528 904.818 500.862 899.722Z" fill="#382C80"/>
<path d="M306.616 886.247C309.39 881.867 309.429 876.447 308.86 871.547C307.88 862.727 305.205 854.348 303.559 845.705C303.038 843.054 302.655 840.379 302.412 837.688C295.082 841.04 287.937 844.872 280.97 848.88C274.711 841.654 268.504 834.379 262.35 827.055C255.029 818.314 247.787 809.484 241.015 800.311C237.595 795.676 233.645 790.903 230.95 785.807C230.236 784.308 229.434 782.852 228.549 781.446L227.569 782.328C225.696 783.8 224.136 785.633 222.983 787.718C221.435 791.05 222.219 794.833 223.502 798.077C227.667 808.641 237.761 817.99 244.22 827.408C252.275 839.168 260.88 850.507 269.896 861.551C275.413 868.392 295.905 903.182 306.616 886.247Z" fill="#382C80"/>
<path d="M310.203 888.335C314.348 881.191 313.476 873.008 312.075 865.197C310.428 855.985 307.478 847.018 306.557 837.679C306.515 836.211 305.713 834.87 304.439 834.139C303.166 833.407 301.604 833.389 300.315 834.092C292.984 837.502 285.86 841.295 278.872 845.342L283.9 845.989C274.482 835.121 265.133 824.174 256.077 812.992C251.628 807.514 247.355 801.899 243.112 796.264C241.074 793.549 238.986 790.874 237.114 788.042C235.243 785.209 233.929 782.162 232.136 779.388C231.471 778.298 230.346 777.568 229.08 777.404C227.813 777.241 226.54 777.66 225.619 778.545C220.258 783.298 216.799 788.345 218.426 795.833C219.837 802.379 223.973 808.269 227.971 813.473C231.969 818.676 236.497 823.645 240.309 829.074C244.749 835.415 249.217 841.716 253.892 847.89C258.214 853.584 262.712 859.111 267.142 864.746C266.563 864.011 267.641 865.432 267.759 865.599L269.023 867.373C270.003 868.813 271.062 870.313 272.091 871.704C276.991 878.466 282.067 885.424 288.751 890.55C296.101 896.175 304.734 896.606 310.222 888.315C313.162 883.856 305.989 879.691 303.059 884.131C302.487 885.064 301.701 885.847 300.765 886.414C300.206 886.676 299.579 886.754 298.972 886.639C296.523 885.974 294.283 884.696 292.465 882.925C287.192 878.349 282.949 872.645 278.911 866.99C274.139 860.317 269.004 853.976 263.976 847.488C256.352 837.639 249.619 827.095 241.779 817.422C237.555 812.218 233.087 807.161 229.706 801.35C228.167 798.684 226.403 795.47 226.285 792.354C226.148 788.688 229.01 786.611 231.509 784.396L224.992 783.553C226.785 786.366 228.128 789.433 229.97 792.216C231.93 795.215 234.184 798.047 236.34 800.929C240.623 806.622 244.925 812.287 249.394 817.824C258.714 829.358 268.347 840.638 278.049 851.84C279.39 853.158 281.445 853.422 283.076 852.486C290.074 848.439 297.198 844.646 304.529 841.236L298.276 837.659C299.099 846.009 301.216 854.045 303.039 862.218C304.548 869.078 306.812 877.643 303.039 884.131C300.354 888.776 307.518 892.98 310.203 888.335Z" fill="#382C80"/>
<path d="M233.352 338.114C228.854 350.131 225.759 362.627 224.13 375.354C223.307 381.998 225.551 385.81 231.196 389.172C236.333 392.362 242.258 394.059 248.306 394.072C253.05 393.993 254.49 386.398 249.473 385.477C244.974 384.644 240.466 383.654 236.439 381.41C234.351 380.244 233.028 379.725 232.842 377.343C232.755 374.726 232.85 372.107 233.126 369.503C233.784 359.342 235.623 349.291 238.604 339.554C239.653 336.164 234.547 334.87 233.352 338.114Z" fill="#382C80"/>
<path d="M267.142 359.968C269.327 352.128 270.866 344.288 273.727 336.634L271.169 339.192C278.259 337.592 285.607 337.512 292.729 338.957L290.132 334.38C289.27 340.567 288.401 346.748 287.526 352.922C286.722 358.684 294.827 359.86 295.454 354C296.107 347.786 296.777 341.58 297.463 335.38C297.46 333.703 296.337 332.234 294.719 331.793C290.316 330.865 285.821 330.437 281.322 330.519C278.913 330.599 276.511 330.821 274.129 331.185C272.228 331.469 269.533 331.616 267.984 332.812C266.436 334.008 266.024 336.546 265.436 338.339C264.711 340.564 264.045 342.818 263.476 345.082C262.163 349.674 261.325 354.39 260.977 359.154C260.811 362.741 266.211 363.368 267.151 359.987L267.142 359.968Z" fill="#382C80"/>
<path d="M392.905 460.692C388.997 470.529 381.829 478.726 372.599 483.908C368.101 486.466 372.198 493.503 376.657 490.847C387.408 484.449 395.478 474.374 399.373 462.486C400.765 458.311 394.414 456.723 392.866 460.692H392.905Z" fill="#382C80"/>
<path d="M392.2 502.254C416.484 531.713 419.522 573.069 417.278 609.525C416.004 630.301 413.427 650.998 411.241 671.686C409.056 692.531 406.91 713.375 404.656 734.21C402.098 757.73 399.119 781.348 397.149 804.976C396.737 809.876 404.117 809.69 404.705 804.976C407.39 783.514 409.174 761.915 411.33 740.394C413.486 718.873 415.74 697.333 417.954 675.812C420.14 654.644 422.707 633.486 424.109 612.249C425.432 592.306 425.295 572.128 421.335 552.469C417.308 532.458 409.056 514.249 395.855 498.569C393.68 495.982 390.044 499.696 392.161 502.254H392.2Z" fill="white"/>
<path d="M747.303 948.399C756.476 955.357 768.01 957.866 779.32 958.444C790.46 959.157 801.5 955.958 810.533 949.399C828.447 936.041 835.033 910.444 823.635 890.716C820.695 885.718 813.953 890.109 816.099 895.116C823.273 911.874 819.215 931.621 804.065 942.411C796.509 947.791 787.875 949.712 778.692 949.604C769.51 949.497 758.181 948.673 750.272 943.391C747.097 941.274 744.451 946.204 747.332 948.399H747.303Z" fill="#382C80"/>
<path d="M780.407 901.692C783.044 902.311 785.206 904.191 786.186 906.717C787.166 909.242 786.837 912.089 785.307 914.324C784.17 915.912 781.387 918.087 779.368 916.804C776.86 915.216 777.026 910.551 776.909 907.984C776.664 902.682 769.167 902.77 768.745 907.984C768.245 914.079 768.912 920.929 774.625 924.467C779.937 927.731 786.895 925.447 790.805 921.067C798.988 911.815 793.745 898.35 781.907 896.126C778.32 895.459 776.752 900.859 780.388 901.663L780.407 901.692Z" fill="#382C80"/>
<path d="M183.245 943.391C175.405 948.575 164.566 949.399 155.432 949.595C146.024 949.791 137.165 947.929 129.413 942.411C114.272 931.631 110.205 911.874 117.379 895.116C119.525 890.109 112.743 885.718 109.852 890.716C98.4353 910.444 105.031 936.041 122.945 949.399C131.797 955.837 142.59 959.04 153.521 958.473C165.026 957.993 176.855 955.475 186.175 948.399C189.066 946.204 186.43 941.274 183.235 943.391H183.245Z" fill="#382C80"/>
<path d="M151.551 896.155C139.732 898.38 134.47 911.835 142.662 921.096C146.445 925.379 153.158 927.682 158.401 924.722C164.497 921.302 165.261 914.305 164.761 908.062C164.33 902.858 156.833 902.751 156.588 908.062C156.471 910.64 156.588 914.648 154.471 916.51C152.355 918.372 149.503 916.196 148.19 914.373C146.665 912.137 146.339 909.293 147.318 906.769C148.297 904.245 150.455 902.365 153.09 901.741C156.716 900.938 155.157 895.538 151.561 896.204L151.551 896.155Z" fill="#382C80"/>
<path d="M74.8466 361.497C102.012 360.644 129.188 360.027 156.343 358.909C158.744 358.811 158.764 355.097 156.343 355.166C129.168 355.93 102.012 357.194 74.8466 358.233C72.7592 358.312 72.7494 361.565 74.8466 361.497Z" fill="#382C80"/>
<path d="M67.5943 405.802C114.634 405.214 161.674 404.215 208.714 403.323C211.311 403.274 211.321 399.227 208.714 399.285C161.674 400.412 114.634 401.432 67.5943 402.853C65.7029 402.911 65.6343 405.793 67.5943 405.793V405.802Z" fill="#382C80"/>
<path d="M192.731 447.413C197.582 447.492 202.433 447.59 207.284 447.639C209.567 447.639 209.567 444.062 207.284 444.091C202.433 444.14 197.582 444.228 192.731 444.316C191.876 444.316 191.183 445.01 191.183 445.865C191.183 446.72 191.876 447.413 192.731 447.413Z" fill="#382C80"/>
<path d="M229.089 950.722C256.01 951.996 282.921 952.956 309.861 953.809L349.904 955.063C354.804 955.22 359.792 956.386 362.928 951.868C366.524 946.684 369.719 941 372.777 935.492C374.08 933.16 370.689 931.22 369.229 933.415C367.544 935.933 365.956 938.501 364.388 941.088C362.82 943.675 361.507 946.625 359.664 948.84C357.273 951.702 354.049 950.8 350.59 950.722L342.309 950.477L304.334 949.35C279.259 948.605 254.177 948.046 229.089 947.674C227.129 947.674 227.129 950.614 229.089 950.722Z" fill="#382C80"/>
<path d="M911.306 936.707C905.554 933.767 895.479 927.662 899.801 919.685C902.173 915.294 907.837 917.343 910.816 919.861C914.07 922.615 916.383 926.329 919.48 929.24C921.44 931.043 923.86 929.181 923.537 926.888C922.821 921.684 923.066 915.236 927.79 911.894C931.759 909.091 939.138 911.159 937.129 917.049L941.667 916.451C937.864 910.512 937.884 902.329 942.519 896.792C947.322 891.368 955.045 889.603 961.727 892.402C964.589 893.636 967.117 889.462 964.207 888.148C955.72 884.346 945.205 886.051 938.982 893.254C932.917 900.563 932.268 910.952 937.374 918.96C937.899 919.792 938.859 920.243 939.835 920.115C940.81 919.986 941.621 919.302 941.912 918.362C944.626 910.365 936.091 903.662 928.613 905.994C919.156 909.013 917.49 919.714 918.813 928.172L922.87 925.81C918.284 921.89 915.128 916.147 909.346 913.726C904.799 911.835 899.252 912.394 896.381 916.784C894.039 920.371 894.235 925.271 896.097 929.014C898.733 934.316 904.456 937.178 909.484 939.736C911.493 940.716 913.266 937.776 911.257 936.707H911.306Z" fill="#382C80"/>
<path d="M181.657 241.28C192.362 242.695 203.235 242.187 213.762 239.781C216.702 239.134 215.437 234.665 212.537 235.322C202.569 237.519 192.324 238.18 182.157 237.282C179.893 237.105 179.324 240.976 181.618 241.29L181.657 241.28Z" fill="#382C80"/>
<path d="M565.846 549.911C571.618 570.56 572.255 591.983 568.786 613.082C568.423 615.297 571.726 616.297 572.216 614.062C576.998 592.502 575.695 570.021 569.54 548.922C568.854 546.56 565.17 547.559 565.836 549.902L565.846 549.911Z" fill="#382C80"/>
<path d="M435.094 153.972C433.565 153.684 432.149 152.963 431.018 151.894C429.283 150.287 426.745 152.796 428.421 154.491C430.169 156.28 432.595 157.241 435.094 157.137C437.192 157.137 437.054 154.197 435.094 153.972Z" fill="#382C80"/>
</svg>
