<svg width="1000" height="1000" viewBox="0 0 1000 1000" fill="none" xmlns="http://www.w3.org/2000/svg">
<path d="M353.735 434.232C353.735 434.232 370.179 427.715 389.603 446.365C409.027 465.014 401.265 475.892 411.359 465.788C419.199 457.948 422.237 431.596 442.445 442.484C462.652 453.372 440.886 528.724 403.588 517.856C366.289 506.987 334.968 445.404 353.735 434.232Z" fill="#382C80"/>
<path d="M333.655 437.045C333.655 437.045 302.569 447.139 294.808 488.328C287.046 529.518 342.22 515.523 338.3 486.77C334.38 458.017 333.655 437.045 333.655 437.045Z" fill="#382C80"/>
<path d="M344.641 433.203C344.641 433.203 313.428 433.35 320.748 502.244C325.178 538.73 325.442 547.158 325.442 547.158L415.602 536.25C415.602 536.25 397.815 425.412 344.641 433.203Z" fill="#382C80"/>
<path d="M812.032 419.856C741.374 395.904 434.967 439.24 434.967 439.24C434.556 472.442 406.361 498.52 352.775 498.118C299.188 497.717 272.816 454.401 272.816 454.401L101.963 470.081L112.655 574.843C361.575 670.549 601.018 621.206 826.418 561.524L812.032 419.856Z" fill="#7F72FF"/>
<path d="M813.267 415.357C792.775 408.497 769.578 408.341 748.214 408.037C716.717 407.586 685.2 409.164 653.801 411.3C593.306 415.416 532.957 421.923 472.805 429.528C459.771 431.175 446.737 432.85 433.723 434.693C431.704 434.977 430.342 437.329 430.302 439.191C429.665 469.13 404.607 486.388 377.382 491.454C345.336 497.403 313.183 489.818 289.525 466.954C284.625 462.231 280.255 457.488 276.874 451.97C276.045 450.531 274.507 449.648 272.846 449.657L215.222 454.94L123.259 463.377L101.993 465.337C99.6798 465.543 97.0926 467.297 97.3278 470.002L106.677 561.544L108 574.784C108.092 576.852 109.46 578.646 111.43 579.282C203.334 614.493 300.952 631.977 399.276 633.182C492.66 634.378 585.652 621.549 676.87 602.381C727.487 591.748 777.673 579.155 827.663 565.915C829.476 565.444 831.289 563.416 831.083 561.426L818.5 437.427L816.707 419.856C816.109 413.976 806.779 413.878 807.387 419.856L819.97 543.894L821.754 561.466L825.174 556.967C736.415 580.487 646.814 602.047 555.674 614.033C462.633 626.263 367.847 628.341 274.953 613.553C219.907 604.754 165.925 590.254 113.88 570.286L117.3 574.784L108 483.242L106.628 470.022L101.963 474.677L159.587 469.395L251.55 460.967L272.816 459.007L268.789 456.694C279.569 474.334 298.12 488.181 317.005 495.786C335.625 503.273 355.969 504.067 375.618 501.137C392.014 498.687 408.341 492.719 420.777 481.458C432.622 470.593 439.446 455.313 439.632 439.24L436.202 443.728C446.57 442.268 455.194 441.151 466.259 439.73C491.739 436.463 517.238 433.448 542.757 430.685C606.957 423.736 671.637 417.523 736.268 417.347C750.968 417.347 765.668 417.602 780.241 418.895C790.521 419.807 800.968 421.11 810.787 424.393C816.54 426.255 818.941 417.259 813.267 415.357Z" fill="#7F72FF"/>
<path d="M114.233 574.696C114.233 574.696 55.6484 569.58 55.2172 430.165C60.862 308.096 153.413 452.107 160.371 506.919C167.329 561.73 114.233 574.696 114.233 574.696Z" fill="#7F72FF"/>
<path d="M109.098 502.509L71.9262 505.978C71.9262 505.978 32.54 509.457 34.5784 529.077C36.6168 548.696 122.876 542.473 148.258 523.079C173.64 503.685 109.098 502.509 109.098 502.509V502.509Z" fill="#7F72FF"/>
<path d="M825.83 569.58C836.473 585.064 854.897 605.154 878.897 599.588C905.612 593.384 921.155 570.932 928.809 550.147C947.772 498.589 948.536 439.701 914.814 395.63C905.524 383.488 893.333 372.443 877.516 367.053C822.214 348.208 804.996 413.878 799.312 447.864C792.324 489.935 801.105 533.634 825.83 569.58Z" fill="white"/>
<path d="M822.577 571.54C833.563 587.671 849.252 604.311 870.166 604.86C891.579 605.399 910.953 590.111 922.341 573.196C934.659 554.919 940.706 531.723 944.087 510.202C947.733 486.966 947.527 463.015 941.5 440.181C935.62 418.043 924.252 396.571 907.621 380.636C893.362 366.965 873.115 356.979 852.918 359.586C820.578 363.741 806.015 398.982 799.018 426.676C786.464 476.323 792.403 529.204 821.979 571.903C825.223 576.577 832.896 572.216 829.692 567.404C804.937 530.262 796.538 485.947 804.986 442.229C807.544 428.999 810.993 415.691 816.56 403.382C821.901 391.563 829.3 379.627 840.913 373.08C854.789 365.24 871.9 368.288 885.346 375.589C904.044 385.703 917.48 404.411 925.928 423.56C943.411 463.015 939.04 509.408 924.369 549C917.098 568.6 903.339 587.22 882.788 594.08C871.626 597.775 861.042 596.53 851.105 590.229C842.206 584.584 835.121 576.332 829.094 567.796C826.34 563.808 819.823 567.483 822.577 571.54Z" fill="#382C80"/>
<path d="M891.794 472.815C892.519 476.47 893.45 480.263 892.392 483.83C891.334 487.397 887.668 490.484 884.072 489.524C882.61 489.04 881.296 488.194 880.25 487.064C876.487 483.467 873.674 478.636 873.39 473.432C873.106 468.228 875.771 462.75 880.475 460.516C880.485 460.516 889.207 459.82 891.794 472.815Z" fill="#382C80"/>
<path d="M889.55 473.442C890.216 476.774 891.412 480.88 889.785 484.124C888.55 486.574 885.865 488.289 883.356 486.633C880.662 484.668 878.533 482.028 877.182 478.979C875.813 476.222 875.399 473.088 876.006 470.071C876.636 466.824 878.72 464.046 881.661 462.535L880.485 462.848C880.602 462.834 880.721 462.834 880.838 462.848H881.22H881.485C881.847 462.848 880.897 462.701 881.269 462.848C881.641 462.995 882.18 463.025 882.621 463.172C882.817 463.23 883.601 463.583 883.072 463.319C883.356 463.456 883.641 463.583 883.915 463.74C885.128 464.433 886.159 465.403 886.924 466.572C888.24 468.665 889.132 470.996 889.55 473.432C890.148 476.372 894.646 475.118 894.038 472.188C893.058 467.239 890.657 461.996 885.953 459.546C884.592 458.834 883.11 458.385 881.583 458.223C880.342 458.107 879.102 458.456 878.104 459.203C872.224 462.966 870.038 470.394 871.567 476.97C872.457 480.461 874.133 483.702 876.467 486.447C878.672 489.142 881.573 491.935 885.287 492.052C889.207 492.189 892.706 489.191 894.195 485.751C896.077 481.409 894.969 476.656 894.078 472.227C893.893 471.383 893.257 470.71 892.424 470.479C891.592 470.247 890.7 470.494 890.106 471.122C889.512 471.749 889.313 472.653 889.589 473.471L889.55 473.442Z" fill="#382C80"/>
<path d="M762.738 333.508C744.216 337.349 460.898 369.131 447.247 366.014C433.595 362.898 434.84 354.372 444.307 337.242C453.773 320.111 744.02 294.729 759.778 304.735C778.467 309.272 781.26 329.656 762.738 333.508Z" fill="#382C80"/>
<path d="M580.674 578.733L627.096 641.453L655.261 630.487C655.261 630.487 647.255 572.569 629.919 568.904C612.582 565.239 580.272 571.765 580.272 571.765" fill="#7F72FF"/>
<path d="M615.405 666.218C616.738 653.154 633.319 641.639 644.57 637.484C657.692 632.643 671.784 635.103 683.24 642.766C689.12 646.686 694.197 637.465 688.679 633.456C674.616 623.245 655.056 621.804 639.317 628.86C631.575 632.339 624.058 638.062 618.041 644.031C612.024 649.999 608.388 657.584 608.515 666.218C608.584 670.736 614.954 670.54 615.375 666.218H615.405Z" fill="#382C80"/>
<ellipse cx="655.459" cy="670.449" rx="21.119" ry="28.5964" transform="rotate(-19.68 655.459 670.449)" fill="#382C80"/>
<path d="M670.853 664.571C673.901 673.666 674.626 689.855 662.788 693.217C652.292 696.206 643.188 684.897 640.081 676.322C636.769 667.306 636.504 650.979 648.147 647.676C658.711 644.668 667.619 656.045 670.853 664.571C672.97 670.128 681.986 667.717 679.85 662.092C675.645 651.018 667.11 640.179 654.742 638.239C642.786 636.367 633.015 644.658 629.919 655.879C626.342 668.736 630.712 683.446 639.562 693.187C647.029 701.41 659.24 706.123 669.628 700.469C683.044 693.178 684.171 675.048 679.85 662.131C677.958 656.428 668.942 658.858 670.853 664.571Z" fill="#382C80"/>
<path d="M774.782 552.812C756.378 557.203 474.099 597.275 460.379 594.55C446.659 591.826 447.639 583.28 456.576 565.885C465.514 548.49 754.947 514.602 770.98 524.137C789.786 528.126 793.187 548.422 774.782 552.812Z" fill="#382C80"/>
<path d="M493.365 554.243C499.383 507.879 506.537 461.692 515.415 415.789C517.581 404.577 519.874 393.396 522.177 382.204C523.422 376.167 524.863 362.555 532.095 360.321C536.995 358.821 541.895 363.947 545.158 366.828C548.422 369.709 551.558 372.708 554.615 375.824C560.854 382.174 566.671 388.924 572.03 396.032C594.668 425.873 610.74 460.016 629.409 492.327C634.025 500.323 638.797 508.222 643.864 515.945C648 522.256 652.909 532.536 660.906 534.457C669.824 536.593 676.714 527.901 679.928 520.805C684.083 511.613 685.494 501.627 686.847 491.709C693.795 440.485 699.587 389.113 706.339 337.849C707.084 332.116 698.097 332.185 697.343 337.849C691.247 383.605 685.739 429.43 679.703 475.196C678.272 486.035 677.321 497.138 674.548 507.742C673.342 512.358 671.794 517.189 668.952 521.08C667.845 522.599 665.698 525.372 663.464 525.215C661.23 525.059 659.309 521.589 658.113 519.894C647.49 504.782 638.18 488.808 629.164 472.678C611.191 440.504 594.394 406.929 570.08 378.911C564.379 372.279 558.152 366.117 551.46 360.487C545.217 355.293 537.318 349.119 528.753 352.49C521.776 355.244 518.336 362.829 516.268 369.523C513.171 379.529 511.574 390.103 509.526 400.393C499.353 451.353 490.964 502.656 484.879 554.253C484.242 559.662 492.64 559.555 493.326 554.253L493.365 554.243Z" fill="#382C80"/>
<path d="M267.515 447.364C286.968 482.154 327.295 498.697 366.044 494.149C385.859 491.817 407.312 485.261 421.678 470.718C436.045 456.174 439.573 436.476 432.223 417.798C430.263 412.731 427.911 407.782 426.549 402.49C426.226 401.245 426.069 399.952 425.736 398.707C425.324 397.188 425.334 397.345 426 396.747C428.048 395.032 432.449 396.326 434.516 397.257C444.767 401.873 450.814 414.338 456.361 423.413C459.84 429.107 468.415 424.079 465.298 418.199C457.644 403.774 442.562 378.696 422.423 386.447C411.996 390.465 414.407 401.265 417.455 409.791C420.689 418.856 425.853 427.49 425.667 437.398C425.255 458.909 406.322 472.482 387.859 478.989C367.279 486.231 344.621 487.534 323.61 481.321C302.973 475.264 285.277 461.846 273.875 443.611C271.395 439.573 265.202 443.18 267.515 447.325V447.364Z" fill="#382C80"/>
<ellipse cx="163.674" cy="635.437" rx="15.8172" ry="11.6816" transform="rotate(-76.91 163.674 635.437)" fill="#382C80"/>
<path d="M147.798 631.487C146.004 640.63 148.425 652.625 158.852 655.271C169.025 657.858 177.413 648.235 179.54 639.258C181.667 630.281 178.668 618.061 168.486 615.473C158.107 612.837 150.199 622.588 147.798 631.487C146.23 637.288 155.226 639.768 156.794 633.966C157.823 630.134 160.92 623.539 166.006 624.47C171.092 625.401 171.377 632.957 170.544 636.779C169.711 640.601 166.281 647.186 161.332 646.285C156.216 645.354 156.04 637.778 156.794 633.966C157.98 628.106 148.954 625.597 147.798 631.487Z" fill="#382C80"/>
<path d="M349.247 391.543C349.247 391.543 361.007 394.915 365.142 411.526C369.278 428.137 356.744 431.194 356.744 431.194C356.744 431.194 356.842 433.291 359.889 441.063C362.937 448.834 351.902 455.077 344.984 450.863C335.889 445.267 333.851 440.71 333.508 437.388C333.889 429.666 332.911 421.937 330.617 414.554C328.059 405.45 328.5 386.869 349.247 391.543Z" fill="#382C80"/>
<path d="M324.266 400.765C323.531 394.719 328.186 388.496 335.262 386.134C342.338 383.772 351.197 385.448 356.156 390.054C358.958 392.68 361.056 396.345 365.23 397.149C366.74 397.433 368.327 397.296 369.827 397.551C371.326 397.806 372.894 398.688 372.914 399.913C372.933 401.138 371.316 402.098 369.856 402.696C362.354 405.728 354.469 407.707 346.424 408.576C341.783 409.179 337.082 409.149 332.449 408.488C330.253 408.256 328.158 407.44 326.383 406.126C324.355 404.362 324.041 401.775 323.825 399.393" fill="#382C80"/>
<path d="M402.892 226.345C353.224 232.348 303.036 232.719 253.285 227.452C228.164 224.815 203.215 220.741 178.56 215.251C166.8 212.635 155.04 209.842 143.496 206.353C132.235 202.952 120.554 197.993 113.743 187.88C106.305 176.816 107.863 162.664 119.339 155.06C130.579 147.602 144.593 151.306 153.903 159.96C155.432 161.381 158.235 160.43 158.176 158.196C157.753 145.967 163.727 134.401 173.944 127.669C185.165 120.485 199.581 121.132 210.694 128.07C211.367 128.456 212.18 128.51 212.897 128.217C213.615 127.924 214.158 127.317 214.369 126.571C217.192 109.784 231.931 99.7288 246.837 94.0938C254.452 91.1406 262.27 88.7367 270.229 86.9006C279.882 84.7936 287.732 86.8124 294.827 93.692C300.433 99.1212 304.921 105.844 309.125 112.371C313.575 119.29 317.553 126.591 319.905 134.509C324.159 148.944 322.101 166.428 309.312 175.943L312.889 179.53C319.131 168.584 333.096 165.183 344.778 168.045C358.743 171.465 369.523 182.137 378.901 192.417C379.727 193.214 380.976 193.377 381.979 192.819C398.011 185.312 413.221 201.286 406.988 217.143C406.067 219.495 410.046 221.19 411.104 218.877C415.227 210.115 413.558 199.723 406.9 192.692C399.736 185.332 388.388 184.028 379.372 188.478L382.449 188.87C371.62 177.413 358.88 165.114 342.504 162.664C329.47 160.704 315.231 165.095 308.351 176.933C307.116 179.05 309.733 182.137 311.928 180.52C321.924 173.16 326.785 161.155 326.952 148.935C327.157 133.95 320.023 119.995 311.869 107.863C304.951 97.5728 296.66 84.9504 283.743 81.9614C275.756 80.119 267.74 82.5298 260.096 84.7642C252.791 86.7439 245.635 89.2394 238.683 92.2318C224.796 98.5234 212.164 109.607 209.548 125.297L213.223 123.798C200.757 116.056 183.989 115.517 171.435 123.415C159.66 131.018 152.728 144.235 153.168 158.245L157.441 156.471C142.437 142.486 115.487 142.957 106.579 163.723C102.355 173.523 105.334 184.479 111.695 192.662C118.721 201.708 129.266 206.657 139.938 210.077C166.535 218.613 194.622 223.865 222.199 228.011C250.033 232.198 278.112 234.555 306.254 235.067C338.553 235.63 370.851 233.848 402.892 229.736C405.018 229.461 405.067 226.08 402.892 226.345Z" fill="#382C80"/>
<path d="M767.364 914.364C738.16 909.464 699.567 914.687 678.781 888.609C658.584 863.276 678.321 821.969 706.221 811.787C721.284 806.279 739.228 809.719 749.929 821.989C751.174 823.42 754.045 822.753 754.379 820.813C756.858 806.113 766.491 793 780.525 787.346C795.117 781.466 812.395 784.778 824.194 794.99C824.756 795.533 825.535 795.791 826.31 795.692C827.086 795.593 827.774 795.147 828.182 794.48C838.276 779.251 861.228 770.754 877.447 781.672C891.294 791.001 895.352 813.698 882.808 825.703C880.926 827.506 882.876 830.672 885.316 830.015C904.397 824.88 925.438 832.749 936.678 849.027C942.862 857.994 945.655 869.607 943.048 880.387C940.206 892 930.22 901.457 917.892 901.222C915.334 901.222 915.383 904.985 917.892 905.142C930.289 905.994 941.549 898.203 946.233 886.875C951.133 874.948 949.31 860.846 943.038 849.782C931.729 829.839 906.132 818.422 883.925 825.027L886.443 829.339C900.761 815.041 896.959 789.512 880.946 777.977C862.326 764.571 835.542 774.057 823.782 791.913L827.771 791.393C814.658 780.113 795.862 776.046 779.496 782.26C763.554 788.42 752.046 802.536 749.224 819.392L753.673 818.216C743.706 807.005 728.262 802.379 713.601 804.613C697.921 807.005 684.701 817.471 676.233 830.525C667.061 844.676 662.298 863.698 668.305 879.985C673.529 894.166 686.239 903.505 699.92 908.827C721.029 916.99 744.265 914.854 766.256 918.372C768.883 918.793 770.019 914.795 767.364 914.354V914.364Z" fill="#382C80"/>
<path d="M128.756 829.192C110.94 830.044 91.144 818.5 87.42 800.027C85.3228 789.659 90.6246 780.064 101.473 778.467C111.567 776.968 120.858 783.083 127.218 790.394C127.771 790.928 128.538 791.182 129.3 791.082C130.063 790.983 130.74 790.542 131.138 789.884C135.861 781.407 146.151 765.247 158.029 773.645C161.273 775.939 161.469 780.505 166.251 780.153C168.78 779.986 170.926 778.104 173.239 777.213C175.528 776.388 177.95 775.989 180.383 776.037C190.781 776.144 201.139 783.504 202.149 794.323C202.927 805.084 196.096 814.931 185.743 817.971C182.666 818.804 183.96 823.527 187.057 822.743C198.738 819.803 207.009 808.729 207.333 796.773C207.656 784.651 198.63 774.704 187.164 771.813C181.508 770.32 175.517 770.737 170.122 772.999C168.75 773.596 166.81 775.39 165.222 774.518C164.624 774.194 164.085 772.607 163.644 772.048C161.864 769.839 159.455 768.222 156.735 767.413C142.369 762.973 132.598 776.301 126.757 787.297L130.677 786.787C122.622 778.643 112.43 771.793 100.415 773.734C89.772 775.458 82.2652 783.847 82.2064 794.706C82.0986 818.226 107.245 834.102 128.688 832.926C131.128 832.798 131.148 829.006 128.688 829.123L128.756 829.192Z" fill="#382C80"/>
<path d="M83.7646 509.31C106.305 507.869 128.531 512.328 149.532 520.541C156.971 523.481 160.058 511.584 152.815 508.634C130.942 499.726 107.226 497.031 83.7646 498.834C77.0908 499.343 76.9928 509.761 83.7646 509.32V509.31Z" fill="#382C80"/>
<path d="M147.759 598.451C164.86 593.551 183.254 601.499 192.447 616.522C195.318 621.216 202.364 617.071 199.806 612.22C189.82 593.306 165.82 584.564 145.759 591.14C141.173 592.639 143.055 599.764 147.719 598.412L147.759 598.451Z" fill="#382C80"/>
<path d="M235.929 638.111C272.346 649.871 310.723 656.937 349.08 656.467C351.932 656.467 351.932 652.086 349.08 652.037C310.938 651.381 273.287 646.324 236.899 634.583C234.655 633.858 233.695 637.386 235.919 638.111H235.929Z" fill="#382C80"/>
<path d="M270.611 670.069H275.776C278.461 670.069 278.461 665.894 275.776 665.894H270.611C267.926 665.894 267.926 670.069 270.611 670.069Z" fill="#382C80"/>
<path d="M805.584 342.338C835.101 323.806 873.752 327.314 902.359 345.846C931.298 364.593 949.614 396.12 957.66 429.077C962.893 450.51 964.079 472.658 963.079 494.63C962.952 497.285 967.088 497.285 967.215 494.63C969.048 455.43 963.54 414.524 942.205 380.773C923.958 351.922 894.822 330.107 860.287 326.53C840.619 324.502 820.578 328.696 803.81 339.27C801.909 340.476 803.663 343.514 805.584 342.308V342.338Z" fill="#382C80"/>
<path d="M816.177 603.615C838.982 622.97 871.263 630.703 900.114 621.981C902.947 621.128 901.771 616.787 898.889 617.541C871.165 624.823 841.207 619.217 818.931 600.881C816.971 599.303 814.247 601.998 816.177 603.635V603.615Z" fill="#382C80"/>
<path d="M860.366 429.793C845.793 448.137 840.852 472.335 847.067 494.924C852.731 514.808 873.037 539.494 895.959 526.578C898.341 525.235 896.253 521.883 893.852 522.981C870.979 533.447 854.192 507.693 850.164 488.681C846.083 468.786 850.843 448.099 863.208 431.988C864.452 430.371 861.649 428.186 860.366 429.793Z" fill="#382C80"/>
<path d="M893.96 440.034C899.294 444.995 902.717 451.672 903.633 458.899C903.976 461.368 907.709 460.32 907.376 457.87C906.288 450.003 902.473 442.768 896.596 437.427C894.852 435.82 892.235 438.407 893.98 440.034H893.96Z" fill="#382C80"/>
<path d="M834.072 412.153C824.221 435.354 821.139 460.871 825.184 485.751C825.576 488.201 829.309 487.162 828.908 484.771C824.974 460.712 827.867 436.032 837.257 413.535C838.002 411.722 834.837 410.379 834.072 412.192V412.153Z" fill="#382C80"/>
<path d="M866.363 565.66H871.528C874.105 565.66 874.115 561.642 871.528 561.652H866.363C863.825 561.652 863.825 565.572 866.363 565.572V565.66Z" fill="#382C80"/>
<path d="M866.853 401.285C870.123 399.905 873.746 399.597 877.202 400.403C879.691 400.971 880.73 397.061 878.251 396.59C874.102 395.752 869.798 396.175 865.893 397.806C863.796 398.688 864.687 402.157 866.873 401.285H866.853Z" fill="#382C80"/>
<path d="M82.8924 465.906C84.1076 455.665 85.2444 444.346 89.1644 434.693L81.2166 435.732C85.9108 445.953 90.8304 455.969 94.8092 466.513L102.365 460.702C93.3686 456.674 84.2448 452.862 75.1798 449.03L76.248 457.262C77.6298 456.027 81.4714 455.929 83.2354 455.537L89.6936 454.126L103.531 451.078L98.3666 442.258C93.5257 446.607 89.0089 451.304 84.8524 456.312C81.197 460.741 75.807 466.18 74.5918 471.864C73.8176 475.451 77.9434 479.841 81.5204 477.195C86.2538 473.667 89.1252 467.719 92.908 463.181C96.9172 458.415 101.246 453.926 105.864 449.746C109.989 446.002 105.599 439.799 100.709 440.926L83.206 444.846C78.1982 445.963 72.769 446.384 68.8294 449.912C66.546 451.96 66.8694 456.851 69.8878 458.144C79.384 462.172 88.841 466.308 98.4058 470.169C101.836 471.56 106.187 467.307 104.727 463.848C100.082 452.784 95.1424 441.582 88.7234 431.41C86.9496 428.597 81.3342 428.47 80.7854 432.449C79.2174 443.719 76.2676 454.518 75.611 465.974C75.3366 470.737 82.3534 470.512 82.8924 465.974V465.906Z" fill="#382C80"/>
</svg>
