<svg width="1000" height="1000" viewBox="0 0 1000 1000" fill="none" xmlns="http://www.w3.org/2000/svg">
<path d="M741.492 795.215C737.743 805.877 735.147 816.909 733.75 828.124C732.456 838.443 732.289 849.39 736.935 858.7C744.03 872.91 760.337 879.74 775.694 883.768C823.782 896.371 885.14 897.655 932.013 880.024C938.374 877.633 944.753 874.772 949.487 869.881C952.846 866.179 955.44 861.849 957.121 857.141C965.774 834.876 961.619 808.141 946.606 789.521" fill="var(--color-illustration-primary, #382C80)"/>
<path d="M738.846 794.49C733.946 807.867 730.427 822.097 729.604 836.365C728.889 848.87 731.692 861.11 740.57 870.332C748.567 878.633 759.631 883.445 770.47 886.796C782.939 890.476 795.684 893.144 808.582 894.773C835.082 898.604 861.98 898.792 888.531 895.332C901.744 893.62 914.767 890.667 927.427 886.512C939.716 882.406 951.76 877.359 958.346 865.501C972.184 840.609 967.166 808.034 949.791 786.346C946.145 781.809 939.991 788.208 943.43 792.697C957.395 810.719 961.296 836.865 951.809 857.827C946.468 869.587 935.855 873.997 924.232 877.849C913.362 881.381 902.217 884.003 890.912 885.689C867.088 889.393 842.618 889.423 818.667 886.953C807.106 885.759 795.629 883.864 784.298 881.279C773.89 878.907 763.277 876.271 754.026 870.754C742.432 863.835 736.709 853.045 736.386 839.599C736.053 824.85 739.522 809.798 744.098 795.872C745.206 792.481 739.992 791.119 738.797 794.412L738.846 794.49Z" fill="var(--color-illustration-primary, #382C80)"/>
<path d="M72.5925 414.524C63.705 421.508 55.5902 429.423 48.3865 438.133C41.7617 446.149 35.7543 455.302 34.6665 465.641C33.0201 481.439 43.1239 495.953 53.9235 507.595C87.7335 544.031 138.821 578.047 187.831 588.318C194.475 589.709 201.423 590.738 208.019 589.141C212.841 587.817 217.354 585.552 221.298 582.477C240.545 568.345 251.394 543.541 248.738 519.816" fill="var(--color-illustration-primary, #382C80)"/>
<path d="M71.201 412.153C60.4321 420.264 50.7547 429.73 42.4086 440.318C34.7646 450.216 29.3648 461.692 31.0406 474.451C32.7458 487.407 40.3702 498.628 48.6806 508.301C57.1427 517.875 66.3331 526.781 76.1696 534.937C96.8378 552.44 119.76 567.532 144.485 578.655C156.088 583.964 168.14 588.228 180.5 591.395C194.514 594.884 208.156 596.589 220.876 588.455C243.318 574.01 256.068 546.266 253.158 519.855C252.54 514.19 243.632 514.053 244.181 519.855C246.252 541.289 237.776 562.393 221.455 576.44C216.976 580.233 211.713 583.672 205.892 584.819C199.032 586.171 191.927 584.535 185.312 582.986C173.978 580.313 162.903 576.64 152.218 572.01C130.06 562.313 109.246 549.796 90.2914 534.77C81.3279 527.754 72.7747 520.228 64.6742 512.23C56.4716 504.126 48.171 495.659 42.83 485.329C36.0288 472.197 37.93 459.154 45.9072 447.031C53.561 435.359 63.8216 425.187 74.5722 416.377C76.9536 414.417 73.7196 410.154 71.2402 412.065L71.201 412.153Z" fill="var(--color-illustration-primary, #382C80)"/>
<path d="M927.005 590.944L712.385 589.964C721.823 589.964 734.573 629.478 738.601 636.749C753.134 663.023 775.517 690.404 783.906 719.334C772.332 722.274 752.399 710.416 741.678 705.457C727.135 698.744 713.003 691.139 698.244 684.877L625.548 654.144C614.454 687.415 611.348 725.861 604.527 760.308C597.667 794.97 595.471 837.169 582.261 869.725C566.121 838.139 559.016 797.391 548.334 763.395L515.288 658.25C515.072 657.574 514.867 656.888 514.641 656.212C486.113 678.154 457.87 700.488 429.381 722.489C402.637 743.148 374.335 770.372 344.033 785.258C352.647 751.781 369.738 721.558 383.351 690.002C387.79 679.712 415.308 595.325 421.933 595.354L224.395 594.482L382.733 494.728C377.333 498.128 313.751 449.648 307.45 445.541C287.85 432.743 267.985 420.355 248.258 407.753C229.638 395.816 204.393 383.919 189.458 367.622C220.818 361.928 258.949 374.952 290.398 378.607L406.469 392.131L412.182 392.798C406.978 392.2 391.22 329.48 389.309 323.659C389.309 307.744 380.185 291.907 374.384 277.452C366.909 258.793 360.258 239.846 354.431 220.612C353.951 219.034 353.941 217.838 355.264 216.751C384.811 228.658 408.615 257.803 433.429 277.236C438.505 281.215 500.48 324.11 499.02 328.627L567.218 117.114C568.659 112.655 569.972 107.833 572.05 103.913C579.694 123.758 580.331 149.513 583.868 170.681C593.904 200.786 594.982 237.174 600.225 268.593C603.165 286.34 602.381 310.066 610.475 326.079C638.592 310.997 665.257 293.053 692.55 276.531L753.82 239.457C757.466 237.252 787.855 214.898 791.354 216.8L792.05 216.947C781.378 253.785 754.036 290.211 736.082 324.178L712.562 368.631C709.201 375.011 707.309 382.175 702.556 387.712C736.121 382.998 769.863 379.568 803.643 376.824C835.405 374.246 872.341 366.975 903.897 370.826C895.528 386.398 871.939 399.031 857.279 408.644C840.619 419.581 823.429 429.705 807.22 441.298C801.624 445.296 746.989 490.915 741.835 488.054L927.005 590.944Z" fill="var(--color-illustration-primary, #382C80)"/>
<path d="M59.0001 422.639C66.6049 467.974 114.605 489.739 151.12 508.163C181.069 523.265 221.396 537.338 254.726 527.518C276.825 521.021 293.377 492.238 302.403 472.354C309.047 457.654 313.428 441.974 321.023 427.794C330.921 409.34 344.298 391.73 364.074 383.919C374.433 379.832 385.418 376.51 393.964 369.376C402.51 362.241 408.007 349.874 403.333 339.77C399.295 331.028 389.427 326.883 380.42 323.502C394.699 326.442 407.782 310.203 405.116 295.876C402.451 281.548 388.407 271.435 374.011 269.21C384.566 265.868 397.002 260.39 398.149 249.355C399.011 241.123 392.67 233.783 385.624 229.451C379.46 225.649 371.679 223.63 366.759 218.524C374.599 215.388 382.037 208.176 380.342 198.924C378.568 189.183 368.582 183.382 359.39 179.775C330.725 168.584 308.479 170.759 279.196 170.632C249.218 170.514 219.201 173.64 194.475 192.378C166.565 213.526 147.749 244.377 131.755 275.56C111.93 314.329 97.7297 356.44 69.6233 390.367C66.0855 394.63 62.3223 398.864 60.2349 403.989C57.9025 409.84 57.9221 416.406 59.0001 422.639Z" fill="var(--color-illustration-base, #FFFFFF)"/>
<path d="M56.3931 423.344C61.6557 455.194 86.7731 476.666 113.145 492.297C127.041 500.519 141.565 507.889 156.187 514.837C174.14 523.373 193.162 530.419 212.909 533.33C230.128 535.878 250.414 536.172 265.888 526.979C280.068 518.561 290.211 504.067 298.149 489.965C316.436 457.448 322.208 413.985 356.263 392.71C373.492 381.93 397.237 380.636 406.626 359.86C410.408 351.481 410.546 341.769 405.077 334.086C399.609 326.403 390.24 322.522 381.606 319.239L379.254 327.775C396.022 330.548 410.82 315.035 409.909 298.375C408.929 280.323 391.828 267.691 375.217 264.82V273.512C387.653 269.524 403.793 262.036 402.715 246.445C402.186 238.81 397.169 232.352 391.308 227.825C384.742 222.778 376.001 220.965 370.003 215.241L369.023 222.425C382.743 216.545 390.299 201.257 380.362 188.38C370.905 176.12 352.02 171.377 337.604 168.662C320.67 165.467 303.481 165.879 286.34 165.957C268.906 166.045 251.531 166.153 234.4 169.75C163.948 184.548 132.961 261.086 106.02 319.494C97.7099 337.477 88.9291 355.342 77.9237 371.865C72.3377 380.254 65.3895 387.623 59.8035 395.983C54.2175 404.342 53.5217 413.809 55.2563 423.619C56.0011 427.843 63.3805 426.921 62.8415 422.59C61.6753 413.358 63.0081 405.479 68.8293 398.09C73.6215 391.975 78.6293 386.153 83.1667 379.803C92.3199 366.808 99.9933 352.814 107.02 338.555C120.995 310.203 132.921 280.921 148.993 253.628C164.37 227.511 184.273 200.473 212.223 186.851C240.643 172.974 274.208 174.856 305 175.091C322.943 175.238 340.427 177.335 357.283 183.803C363.858 186.322 371.924 190.065 374.923 196.896C378.627 205.226 371.404 211.596 364.417 214.536C361.683 215.712 361.565 219.877 363.486 221.719C372.12 230.01 387.986 231.392 392.788 243.544C397.59 255.696 381.626 261.968 372.776 264.82C368.856 266.074 368.092 272.718 372.776 273.512C384.752 275.56 397.6 282.989 400.491 295.69C402.96 306.538 393.807 321.17 381.557 319.21C379.236 318.655 376.892 320.04 376.258 322.341C375.624 324.643 376.927 327.032 379.205 327.745C386.34 330.431 395.022 333.625 398.874 340.74C402.843 348.051 399.432 356.989 394.356 362.82C382.753 376.138 362.78 377.353 348.796 387.32C335.36 396.914 325.501 410.585 317.72 425.001C308.782 441.612 304 460.036 295.641 476.941C288.928 490.553 280.794 504.185 269.347 514.357C256.176 526.058 238.281 527.793 221.327 526.411C187.419 523.647 156.059 507.193 126.493 491.523C97.8373 476.323 67.9865 456.008 61.5381 421.943C60.9011 418.533 55.8443 420.003 56.3931 423.344Z" fill="var(--color-illustration-primary, #382C80)"/>
<path d="M952.76 802.967C923.213 838.188 870.803 832.602 829.976 829.946C796.499 827.771 754.614 819.441 730.868 794.078C715.12 777.271 715.424 744.098 717.756 722.352C719.481 706.339 723.636 690.59 724.293 674.489C725.116 653.566 722.529 631.604 709.436 614.846C702.576 606.026 694.804 597.637 691.051 587.151C687.298 576.665 688.846 563.23 697.999 556.889C705.908 551.401 716.511 552.842 725.998 554.498C712.219 549.755 709.161 529.145 718.716 518.15C728.271 507.154 745.519 505.566 759.053 510.947C751.654 502.724 743.736 491.66 748.273 481.596C751.703 474.059 760.886 470.953 769.157 470.816C776.399 470.678 784.131 472.874 790.962 470.972C785.827 464.318 783.044 454.312 789.208 447.168C795.676 439.671 807.201 439.72 816.981 441.288C847.361 446.188 865.432 459.34 890.736 474.089C916.637 489.181 940.912 507.105 952.721 535.829C966.049 568.169 966.617 604.35 964.549 639.307C961.972 682.78 952.858 726.272 959.875 769.774C960.757 775.243 961.835 780.79 961.051 786.268C960.179 792.461 956.827 798.126 952.76 802.967Z" fill="var(--color-illustration-base, #FFFFFF)"/>
<path d="M950.878 801.076C929.553 825.409 896.547 829.113 866.02 828.3C834.915 827.467 802.477 825.732 772.92 815.305C758.22 810.121 743.206 802.291 732.916 790.315C722.96 778.732 721.049 761.552 720.735 746.882C719.99 711.288 733.926 676.802 726.027 641.208C724.054 631.656 720.174 622.6 714.62 614.582C708.661 606.252 701.253 598.902 696.794 589.543C693.07 581.703 691.678 571.079 697.235 563.68C703.585 555.223 715.855 557.203 724.861 558.78C727.182 559.335 729.526 557.95 730.16 555.649C730.794 553.347 729.491 550.958 727.213 550.245C716.57 546.168 715.169 530.645 721.205 522.236C729.408 510.878 746.048 510.819 757.897 515.317C762.434 517.032 764.992 510.839 762.277 507.781C755.417 500.039 744.637 485.114 758.122 477.96C768.726 472.325 781.054 477.96 792.265 475.373C794.931 474.755 796.714 471.012 794.999 468.66C790.991 463.172 787.747 455.008 793.441 449.422C798.106 444.836 805.495 444.699 811.601 445.189C825.86 446.325 840.128 451.304 852.878 457.615C865.628 463.926 877.584 471.609 889.795 478.803C901.819 485.878 913.57 493.591 923.85 503.087C973.085 548.549 961.786 625.793 955.847 685.573C953.887 705.036 952.299 724.616 953.093 744.196C953.494 753.749 954.495 763.268 956.092 772.695C957.866 783.298 956.778 791.609 950.075 800.262C947.135 804.084 952.24 809.562 955.533 805.721C960.61 799.782 964.628 793.226 965.461 785.307C966.441 775.792 963.501 765.943 962.687 756.486C960.992 736.964 962.04 717.286 963.824 697.862C967.283 659.995 972.703 621.971 968.861 583.898C967.058 566.121 963.344 548.461 956.18 532.026C950.084 518.042 940.559 505.782 929.269 495.59C917.98 485.398 904.897 476.97 891.686 469.267C878.025 461.241 864.668 452.548 850.085 446.257C835.013 439.75 815.991 433.34 799.4 436.633C792.108 438.074 785.258 442.601 782.514 449.726C779.427 457.742 782.23 466.611 787.101 473.246L789.835 466.533C781.789 468.395 773.449 465.553 765.286 466.533C758.749 467.337 752.154 469.718 747.646 474.667C735.886 487.407 746.764 503.793 755.956 514.132L760.337 506.605C744.196 500.51 721.401 503.018 712.317 519.659C704.771 533.536 709.514 552.92 724.871 558.761L727.223 550.225C718.403 548.716 708.857 547.285 700.282 550.754C692.743 553.931 687.262 560.63 685.641 568.649C681.437 587.73 694.461 602.675 705.398 616.591C732.309 650.812 714.62 695.412 712.66 734.053C711.856 750.243 712.66 767.501 718.971 782.632C725.282 797.763 738.885 808.112 753.095 815.384C783.886 831.152 819.058 833.406 852.966 835.091C888.883 836.875 929.789 834.562 954.622 804.858C956.827 802.252 953.162 798.469 950.878 801.076Z" fill="var(--color-illustration-primary, #382C80)"/>
<path d="M723.058 530.38L626.949 529.949C631.183 529.949 636.886 547.638 638.709 550.901C645.216 562.661 655.242 574.921 658.995 587.877C653.811 589.18 644.883 583.878 640.091 581.663C633.574 578.655 627.253 575.254 620.638 572.461L588.082 558.741C583.124 573.647 581.732 590.856 578.674 606.281C575.617 621.706 574.627 640.699 568.708 655.281C561.485 641.14 558.3 622.892 553.518 607.673L538.71 560.486C538.612 560.182 538.524 559.878 538.416 559.574C525.676 569.374 513.005 579.4 500.196 589.249C488.22 598.5 475.549 610.691 461.976 617.355C465.837 602.361 473.491 588.827 479.616 574.705C481.576 570.099 493.924 532.311 496.884 532.32L408.439 531.928L479.351 487.26C476.941 488.779 448.472 467.082 445.649 465.239C436.829 459.506 428.009 453.96 419.14 448.315C410.791 442.964 399.54 437.643 392.837 430.342C406.861 427.794 423.952 433.625 438.015 435.242L489.955 441.298L492.513 441.602C490.18 441.327 483.134 413.26 482.272 410.644C482.272 403.519 478.185 396.424 475.588 389.946C472.237 381.596 469.257 373.103 466.651 364.466C466.354 363.872 466.509 363.152 467.023 362.731C480.253 368.063 490.915 381.116 502.029 389.819C504.302 391.602 532.046 410.8 531.429 412.829L561.965 318.141C562.515 316.124 563.236 314.156 564.121 312.261C567.551 321.14 567.826 332.675 569.413 342.151C573.912 355.636 574.392 371.924 576.744 385.997C578.067 393.944 577.724 404.568 581.33 411.731C593.923 404.979 605.83 396.943 618.08 389.544L645.52 372.953C647.157 371.973 660.759 361.947 662.327 362.8L662.641 362.869C657.858 379.362 645.618 395.669 637.582 410.889L627.057 430.792C625.558 433.654 624.705 436.859 622.578 439.338C637.612 437.231 652.713 435.692 667.845 434.438C682.064 433.282 698.607 430.028 712.738 431.753C708.985 438.721 698.421 444.375 691.855 448.687C684.397 453.587 676.704 458.115 669.442 463.299C666.943 465.092 642.472 485.525 640.169 484.242L723.058 530.38Z" fill="var(--color-illustration-base, #FFFFFF)"/>
<path d="M844.029 577.665C840.428 575.195 836.459 573.31 832.269 572.079C828.408 570.923 823.008 571.324 819.637 569.678C825.291 557.232 834.631 546.109 842.49 534.986C846.548 529.243 850.644 523.53 854.711 517.787C857.132 514.377 864.952 506.576 862.551 503.018C860.454 499.843 853.731 496.972 850.615 494.835L832.279 482.282L806.946 464.926C805.554 463.946 796.852 456.351 795.186 456.86C816.705 450.381 829.563 428.378 824.646 406.449C819.729 384.52 798.708 370.114 776.482 373.442C754.256 376.771 738.377 396.703 740.1 419.111L683.77 380.518C681.672 379.078 678.948 376.344 676.498 375.54C671.373 373.864 666.698 383.213 664.738 386.516C653.958 405.136 641.59 422.413 629.458 440.102C630.379 438.77 640.238 441.7 641.679 442.131C646.12 443.464 650.355 445.406 654.262 447.903C660.733 452.09 665.841 458.074 668.962 465.122C675.238 478.971 673.799 495.096 665.169 507.615C646.04 534.927 601.92 529.175 589.856 498.158C581.781 509.918 573.689 521.678 565.582 533.438L553.439 551.078C551.342 554.116 549 557.095 547.118 560.27C545.364 563.21 544.923 562.847 547.305 565.17C549.265 567.13 552.371 568.59 554.664 570.207C558.81 573.147 562.857 576.205 567.042 579.027L602.43 603.302C604.625 604.811 608.31 606.526 609.584 608.682C600.362 612.974 592.532 617.355 586.759 626.165C574.103 645.81 579.519 671.973 598.934 684.979C618.348 697.986 644.604 693.04 657.956 673.862C663.836 665.277 664.356 656.898 665.561 647.059C679.369 653.605 691.198 664.081 703.781 672.676L722.979 685.837C726.488 688.238 733.171 695.549 736.827 690.228C749.188 672.176 761.549 654.131 773.91 636.093C774.557 635.113 779.957 628.929 779.594 627.792C786.047 645.093 802.857 656.316 821.31 655.643C839.763 654.97 855.71 642.552 860.885 624.826C866.061 607.101 859.3 588.053 844.107 577.557L844.029 577.665Z" fill="var(--color-illustration-secondary, #7F72FF)"/>
<path d="M844.029 577.665C840.428 575.195 836.459 573.31 832.269 572.079C828.408 570.923 823.008 571.324 819.637 569.678C825.291 557.232 834.631 546.109 842.49 534.986C846.548 529.243 850.644 523.53 854.711 517.787C857.132 514.377 864.952 506.576 862.551 503.018C860.454 499.843 853.731 496.972 850.615 494.835L832.279 482.282L806.946 464.926C805.554 463.946 796.852 456.351 795.186 456.86C816.705 450.381 829.563 428.378 824.646 406.449C819.729 384.52 798.708 370.114 776.482 373.442C754.256 376.771 738.377 396.703 740.1 419.111L683.77 380.518C681.672 379.078 678.948 376.344 676.498 375.54C671.373 373.864 666.698 383.213 664.738 386.516C653.958 405.136 641.59 422.413 629.458 440.102C630.379 438.77 640.238 441.7 641.679 442.131C646.12 443.464 650.355 445.406 654.262 447.903C660.733 452.09 665.841 458.074 668.962 465.122C675.238 478.971 673.799 495.096 665.169 507.615C646.04 534.927 601.92 529.175 589.856 498.158C581.781 509.918 573.689 521.678 565.582 533.438L553.439 551.078C551.342 554.116 549 557.095 547.118 560.27C545.364 563.21 544.923 562.847 547.305 565.17C549.265 567.13 552.371 568.59 554.664 570.207C558.81 573.147 562.857 576.205 567.042 579.027L602.43 603.302C604.625 604.811 608.31 606.526 609.584 608.682C600.362 612.974 592.532 617.355 586.759 626.165C574.103 645.81 579.519 671.973 598.934 684.979C618.348 697.986 644.604 693.04 657.956 673.862C663.836 665.277 664.356 656.898 665.561 647.059C679.369 653.605 691.198 664.081 703.781 672.676L722.979 685.837C726.488 688.238 733.171 695.549 736.827 690.228C749.188 672.176 761.549 654.131 773.91 636.093C774.557 635.113 779.957 628.929 779.594 627.792C786.047 645.093 802.857 656.316 821.31 655.643C839.763 654.97 855.71 642.552 860.885 624.826C866.061 607.101 859.3 588.053 844.107 577.557L844.029 577.665Z" fill="var(--color-illustration-secondary, #7F72FF)"/>
<path d="M444.532 470.463C445.483 466.407 445.787 462.226 445.434 458.076C445.12 454.234 442.895 449.569 443.189 445.992C456.223 446.717 469.365 451.176 481.997 454.322C488.514 455.939 495.022 457.605 501.548 459.222C505.419 460.202 515.072 464.446 517.424 461.114C519.522 458.174 519.747 451.157 520.57 447.648L525.392 426.98L532.066 398.403C532.438 396.835 536.201 386.447 535.162 385.134C548.394 402.041 572.438 405.856 590.253 393.876C608.069 381.896 613.606 358.19 602.94 339.558C592.274 320.926 569.028 313.696 549.676 322.992L564.504 259.469C565.062 257.087 566.552 253.716 566.415 251.266C566.13 246.121 556.174 245.151 552.567 244.592C532.271 241.437 512.583 236.419 492.611 231.705C494.12 232.058 494.933 241.848 495.041 243.289C495.397 247.704 495.137 252.147 494.267 256.49C492.793 263.715 489.236 270.352 484.036 275.58C473.885 285.972 459.031 290.282 444.895 286.938C413.946 279.373 403.784 238.095 427.255 216.613C413.966 213.504 400.677 210.377 387.388 207.235L367.455 202.55C364.025 201.747 360.595 200.688 357.087 200.11C353.843 199.571 354.029 199.052 352.765 201.982C351.716 204.442 351.481 207.676 350.805 210.283C349.648 214.987 348.316 219.651 347.208 224.365C344.092 237.674 340.979 250.982 337.869 264.29C337.281 266.77 337.016 270.602 335.556 272.522C328.529 265.8 321.924 260.351 312.036 258.263C289.967 253.352 268.095 267.26 263.183 289.329C258.271 311.398 272.18 333.271 294.249 338.182C303.931 340.446 311.575 337.996 320.709 335.664C319.67 350.227 314.437 364.388 311.134 378.529L306.078 400.187C305.156 404.107 300.962 412.633 306.969 414.034L368.023 428.293C369.082 428.538 376.491 431.233 377.373 430.479C364.206 442.222 360.042 461.08 367.04 477.276C374.038 493.471 390.624 503.363 408.2 501.823C425.775 500.283 440.388 487.658 444.463 470.492L444.532 470.463Z" fill="var(--color-illustration-secondary, #7F72FF)"/>
<path d="M789.629 698.156C784.151 685.132 784.915 670.108 789.247 656.663C793.579 643.217 801.232 631.104 809.386 619.56C811.121 617.11 812.934 614.523 813.228 611.524C813.512 608.721 812.385 605.958 811.062 603.468C805.025 592.12 794 581.938 794.98 569.09C795.784 559.153 804.447 550.989 814.168 548.775C849.448 540.729 876.046 588.533 878.309 617.531" fill="var(--color-illustration-base, #FFFFFF)"/>
<path d="M792.422 697.382C784.523 676.498 791.815 654.605 802.938 636.426C805.456 632.31 808.161 628.321 810.944 624.391C813.727 620.462 817.099 616.551 817.422 611.524C818 602.508 810.337 594.266 805.731 587.2C800.909 579.801 796.489 570.903 801.683 562.475C806.132 555.243 814.531 552.067 822.734 552.244C836.953 552.538 848.782 562.955 856.7 573.921C865.785 586.475 872.537 601.998 873.978 617.531C874.487 623.049 883.141 623.147 882.68 617.531C881.387 601.567 875.203 585.809 866.373 572.52C857.7 559.398 844.96 546.864 828.829 544.1C812.169 541.287 792.001 550.284 790.658 569.051C789.913 579.507 796.107 588.386 801.693 596.608C804.398 600.597 809.876 606.693 808.945 611.838C808.494 614.327 806.26 616.836 804.888 618.854C802.928 621.657 801.095 624.489 799.302 627.371C785.856 648.931 776.703 674.861 787.14 699.567C788.404 702.507 793.579 700.41 792.422 697.343V697.382Z" fill="var(--color-illustration-primary, #382C80)"/>
<path d="M252.717 415.044C264.055 406.606 271.013 393.268 274.1 379.48C277.187 365.691 276.727 351.373 275.56 337.34C275.306 334.351 275.051 331.195 276.315 328.461C277.501 325.903 279.863 324.09 282.273 322.581C293.22 315.819 307.92 312.693 313.555 301.06C317.906 292.093 314.535 280.656 307.322 273.826C280.95 248.963 233.822 276.707 217.162 300.541" fill="var(--color-illustration-base, #FFFFFF)"/>
<path d="M254.177 417.533C271.523 404.695 278.677 383.988 280.049 363.094C280.408 356.955 280.424 350.801 280.098 344.66C279.823 338.633 277.52 331.019 283.224 327.02C290.819 321.679 300.158 319.347 307.724 313.937C315.084 308.675 320.121 300.864 319.798 291.574C319.474 282.107 314.457 273.649 307.058 267.985C293.249 257.43 274.894 258.293 259.292 264.065C241.358 270.67 224.473 282.685 213.419 298.414C210.175 303.02 217.691 307.303 220.935 302.814C229.667 290.701 242.544 281.176 255.96 274.884C269.151 268.691 285.958 265.084 299.188 273.101C306.46 277.511 312.144 285.537 311.076 294.396C310.096 302.981 302.373 307.675 295.337 311.193C288.3 314.711 279.657 317.406 274.551 323.571C268.514 330.891 272.111 342.563 272.454 351.158C273.365 373.698 269.279 398.139 250.688 413.035C248.16 415.063 251.55 419.522 254.187 417.572L254.177 417.533Z" fill="var(--color-illustration-primary, #382C80)"/>
<path d="M873.439 526.95C881.132 532.497 888.746 538.181 896.557 543.61C898.517 544.923 900.183 541.865 898.36 540.533C890.726 534.917 882.857 529.596 875.105 524.147C873.351 522.922 871.734 525.774 873.439 526.999V526.95Z" fill="var(--color-illustration-primary, #382C80)"/>
<path d="M248.904 253.844L264.496 239.379C267.603 236.498 271.278 231.647 275.835 231.49C279.186 231.362 283.057 232.872 286.321 233.45C299.685 235.921 313.286 236.868 326.863 236.272C329.558 236.155 329.578 231.98 326.863 232.058C318.77 232.339 310.667 232.13 302.599 231.431C294.514 230.706 286.693 228.952 278.696 227.746C272.268 226.766 269.21 229.99 264.81 234.195L246.65 251.55C245.151 252.981 247.405 255.206 248.904 253.814V253.844Z" fill="var(--color-illustration-primary, #382C80)"/>
<path d="M797.45 380.685C812.022 388.035 822.097 404.205 820.088 420.718C819.06 428.609 815.726 436.02 810.503 442.023C807.767 445.133 804.548 447.78 800.968 449.863C797.822 451.706 795.088 453.538 794.206 457.292C793.696 459.305 794.559 461.415 796.332 462.495C814.894 473.53 832.445 486.015 849.86 498.755C852.477 500.715 859.748 504.322 860.013 507.948C860.17 510.055 856.975 512.956 855.73 514.553L851.056 520.59C844.196 529.469 837.257 538.318 830.476 547.265C827.271 551.499 834.562 557.193 837.894 552.989C846.195 542.512 854.329 531.899 862.512 521.335C865.452 517.591 869.607 513.602 869.754 508.595C869.881 503.832 866.736 499.833 863.276 496.923C854.015 489.151 843.51 482.468 833.572 475.588C822.939 468.228 812.12 461.114 800.987 454.538L803.104 459.742C803.428 458.301 807.455 456.704 808.622 455.88C810.307 454.698 811.918 453.412 813.443 452.029C816.724 449.022 819.573 445.575 821.91 441.788C829.133 430.298 830.828 416.176 826.529 403.303C822.231 390.43 812.391 380.16 799.713 375.315C796.626 374.08 794.5 379.235 797.45 380.675V380.685Z" fill="var(--color-illustration-primary, #382C80)"/>
<path d="M794.686 641.404C789.384 638.327 786.219 633.192 783.142 628.076C781.897 626.008 778.496 625.205 776.791 627.253C759.7 647.755 743.814 669.716 731.133 693.246L737.013 691.708C713.199 679.232 689.973 663.572 668.903 646.882C666.326 644.844 661.132 645.785 661.524 649.94C663.631 672.313 644.021 690.414 621.775 685.612C616.522 684.475 614.258 692.472 619.54 693.707C646.775 700.028 672.764 678.027 670.167 649.94L662.788 652.998C673.638 661.593 684.919 669.63 696.588 677.076C708.466 684.661 720.921 691.374 732.701 699.087C734.749 700.273 737.37 699.592 738.581 697.558C751.899 675.018 766.021 653.292 782.573 632.976L776.223 632.153C780.3 638.739 784.67 644.785 792.158 647.559C795.793 648.901 797.979 643.286 794.755 641.404H794.686Z" fill="var(--color-illustration-primary, #382C80)"/>
<path d="M547.04 567.492C557.144 575.127 567.453 582.477 577.42 590.268C582.163 593.972 586.857 597.742 591.503 601.577C596.079 605.379 600.489 610.113 605.664 613.072C609.878 615.483 613.278 610.132 610.564 606.741C606.742 601.959 600.891 598.235 596.089 594.472C591.287 590.709 586.465 587.034 581.556 583.447C571.426 575.881 560.859 568.917 549.911 562.592C546.638 560.74 544.198 565.346 547.04 567.492Z" fill="var(--color-illustration-primary, #382C80)"/>
<path d="M631.722 439.897C646.265 437.584 659.044 454.43 664.385 465.984C670.059 478.283 670.393 493.277 663.405 505.184C656.545 516.768 643.394 522.824 630.193 522.256C616.267 521.707 603.988 513.798 594.786 503.802C590.866 499.579 585.191 505.694 588.612 509.986C604.978 530.566 635.867 539.455 658.633 523.647C681.702 507.624 681.78 475.51 666.473 454.136C658.446 442.954 645.128 430.224 630.154 434.193C626.371 435.173 628.037 440.524 631.741 439.936L631.722 439.897Z" fill="var(--color-illustration-primary, #382C80)"/>
<path d="M902.78 785.249C910.022 783.788 916.951 780.28 923.017 776.164C925.104 774.753 923.125 771.323 921.057 772.763C915.05 776.899 908.748 779.516 901.888 781.897C900.963 782.151 900.419 783.108 900.673 784.033C900.927 784.959 901.884 785.503 902.809 785.249H902.78Z" fill="var(--color-illustration-primary, #382C80)"/>
<path d="M909.346 761.18C910.214 761.113 910.884 760.389 910.884 759.519C910.884 758.648 910.214 757.924 909.346 757.858C908.478 757.924 907.808 758.648 907.808 759.519C907.808 760.389 908.478 761.113 909.346 761.18Z" fill="var(--color-illustration-primary, #382C80)"/>
<path d="M79.4133 393.621C83.4633 407.202 92.0311 418.993 103.698 427.039C105.658 428.382 107.432 425.236 105.53 423.913C94.667 416.334 86.6284 405.362 82.6767 392.719C82.0201 390.652 78.7567 391.524 79.4133 393.621Z" fill="var(--color-illustration-primary, #382C80)"/>
<path d="M115.007 447.001C115.97 447.001 116.751 446.221 116.751 445.257C116.751 444.294 115.97 443.513 115.007 443.513C114.044 443.513 113.263 444.294 113.263 445.257C113.263 446.221 114.044 447.001 115.007 447.001Z" fill="var(--color-illustration-primary, #382C80)"/>
<path d="M256.48 497.883H258.793C259.675 497.883 260.39 497.168 260.39 496.286C260.39 495.404 259.675 494.688 258.793 494.688H256.48C255.598 494.688 254.882 495.404 254.882 496.286C254.882 497.168 255.598 497.883 256.48 497.883Z" fill="var(--color-illustration-primary, #382C80)"/>
<path d="M419.807 215.633C412.143 228.55 407.566 244.612 413.358 259.165C418.66 272.464 431.253 282.744 444.414 287.703C457.762 292.74 472.746 291.182 483.379 281.205C494.953 270.357 498.216 254.245 499.147 239.065C499.51 233.185 490.494 233.264 490.004 239.065C488.975 251.256 486.829 264.477 477.911 273.6C469.522 282.175 457.664 282.979 446.835 278.941C436.006 274.904 425.324 266.123 420.934 255.421C416.034 243.436 419.326 229.755 424.854 218.622C426.529 215.271 421.737 212.38 419.797 215.682L419.807 215.633Z" fill="var(--color-illustration-primary, #382C80)"/>
<path d="M293.308 267.132C307.43 258.312 325.883 264.761 330.548 280.97C331.626 284.753 337.986 285.292 338.751 280.97C343.386 254.676 352.471 229.334 356.704 202.952C357.567 197.601 349.443 195.23 348.453 200.678C343.7 226.952 334.89 252.354 330.548 278.716H338.751C332.528 257.94 307.92 248.708 290.113 261.664C286.889 264.006 289.79 269.327 293.308 267.132Z" fill="var(--color-illustration-primary, #382C80)"/>
<path d="M318.7 332.42C316.279 338.437 316.279 345.915 315.241 352.314C314.149 358.984 312.921 365.635 311.556 372.267C308.765 385.517 305.301 398.617 301.178 411.516C299.57 416.582 307.548 418.768 309.125 413.711C313.351 400.186 316.858 386.447 319.631 372.551C320.938 365.907 322.065 359.229 323.012 352.52C323.904 346.062 325.55 338.859 324.384 332.391C323.806 329.196 319.651 330.009 318.7 332.391V332.42Z" fill="var(--color-illustration-primary, #382C80)"/>
<path d="M401.343 508.418C416.237 509.272 430.498 502.296 438.966 490.014C447.854 477.205 448.57 460.398 442.366 446.365L438.74 452.686C464.606 454.714 490.353 458.037 515.886 462.642C519.022 463.211 521.237 461.368 521.599 458.291C524.539 433.458 532.908 410.114 539.308 386.075C540.778 380.558 532.399 378.235 530.762 383.723C523.402 408.311 515.562 432.723 512.573 458.291L518.287 453.94C491.982 449.177 465.421 445.954 438.74 444.287C435.281 444.071 433.84 447.942 435.114 450.608C440.45 462.135 439.415 475.606 432.38 486.182C425.52 496.237 413.348 502.117 401.324 502.401C397.404 502.489 397.472 508.193 401.324 508.418H401.343Z" fill="var(--color-illustration-primary, #382C80)"/>
<path d="M536.152 257.45C539.308 258.43 539.719 264.79 539.631 267.368C539.504 270.925 538.269 274.13 537.132 277.462C535.995 280.794 540.856 283.704 543.012 280.901C548.833 273.414 549.764 254.294 537.622 252.031C534.104 251.374 532.624 256.362 536.123 257.45H536.152Z" fill="var(--color-illustration-base, #FFFFFF)"/>
<path d="M762.444 421.923C760.66 412.78 767.344 404.195 776.242 402.578C780.77 401.745 778.849 394.846 774.341 395.718C761.719 398.011 753.653 411.32 756.554 423.599C757.466 427.46 763.199 425.804 762.434 421.972L762.444 421.923Z" fill="var(--color-illustration-base, #FFFFFF)"/>
<path d="M678.644 405.861L682.78 399.334C685.132 395.62 679.066 392.063 676.9 395.885L673.078 402.608C671.02 406.234 676.439 409.37 678.654 405.861H678.644Z" fill="var(--color-illustration-base, #FFFFFF)"/>
<path d="M505.047 438.182L506.595 427.627C506.852 426.426 506.415 425.182 505.464 424.406C504.512 423.629 503.205 423.451 502.08 423.944C500.956 424.437 500.201 425.519 500.127 426.745L498.824 437.339C498.393 440.847 504.528 441.71 505.047 438.182Z" fill="var(--color-illustration-base, #FFFFFF)"/>
<path d="M801.693 299.982L794.98 313.212C794 315.172 796.94 316.867 797.92 314.917L804.506 301.628C805.437 299.757 802.634 298.091 801.683 299.982H801.693Z" fill="var(--color-illustration-primary, #382C80)"/>
<path d="M829.731 312.82C824.605 317.197 820.069 322.22 816.236 327.765C814.992 329.598 817.853 331.136 819.176 329.47C823.057 324.331 827.414 319.57 832.191 315.25C833.847 313.771 831.426 311.389 829.77 312.82H829.731Z" fill="var(--color-illustration-primary, #382C80)"/>
<path d="M836.248 346.326C841.148 346.326 845.969 346.385 850.83 346.375C851.782 346.305 852.519 345.512 852.519 344.557C852.519 343.602 851.782 342.809 850.83 342.739C845.93 342.739 841.109 342.739 836.248 342.788C835.322 342.857 834.606 343.629 834.606 344.557C834.606 345.486 835.322 346.257 836.248 346.326Z" fill="var(--color-illustration-primary, #382C80)"/>
<path d="M425.01 167.339L427.656 173.964C428.421 175.924 431.576 175.052 430.812 173.092L428.146 166.467C427.382 164.507 424.226 165.379 425.01 167.339Z" fill="var(--color-illustration-primary, #382C80)"/>
<path d="M460.535 164.517L452.695 179.138C451.549 181.265 454.802 183.156 455.92 181.03L463.642 166.33C464.7 164.301 461.682 162.498 460.565 164.526L460.535 164.517Z" fill="var(--color-illustration-primary, #382C80)"/>
<path d="M478.283 193.681C479.16 193.681 479.871 192.971 479.871 192.094C479.871 191.217 479.16 190.506 478.283 190.506C477.406 190.506 476.696 191.217 476.696 192.094C476.696 192.971 477.406 193.681 478.283 193.681Z" fill="var(--color-illustration-primary, #382C80)"/>
<path d="M627.4 288.947C632.763 274.915 638.981 261.225 646.02 247.954L642.296 246.974C642.904 252.491 643.629 257.999 644.178 263.526C644.208 264.458 644.782 265.286 645.645 265.641C646.507 265.996 647.498 265.813 648.176 265.172C681.447 237.262 714.894 209.107 746.068 178.864C748.028 176.982 745.088 174.209 743.128 175.924C710.239 204.442 678.154 233.822 644.844 261.86L648.764 262.84C647.843 257.372 647.078 251.864 646.216 246.386C645.951 244.71 643.276 244.426 642.561 245.906C635.762 259.635 629.662 273.7 624.284 288.046C623.568 290.006 626.626 290.78 627.351 288.888L627.4 288.947Z" fill="var(--color-illustration-primary, #382C80)"/>
<path d="M622.667 222.19L621.344 227.491C620.873 229.363 623.774 230.167 624.284 228.285L625.607 222.983C626.077 221.102 623.176 220.308 622.667 222.19Z" fill="var(--color-illustration-primary, #382C80)"/>
<path d="M366.72 630.536L356.685 659.858C356.244 661.141 355.264 666.502 354.176 667.188C352.216 668.433 349.394 666.002 347.639 665.101L334.576 658.348C333.466 657.725 332.062 658.093 331.401 659.181C306.313 705.486 281.156 751.772 256.539 798.341C255.235 800.831 258.959 803.026 260.312 800.546C285.674 754.398 310.517 707.946 335.409 661.543L332.234 662.376C338.212 665.424 344.121 668.844 350.256 671.569C353.529 673.029 356.018 672.676 357.733 669.511C360.536 664.307 361.653 657.359 363.476 651.714L369.954 631.447C370.611 629.38 367.416 628.507 366.72 630.556V630.536Z" fill="var(--color-illustration-primary, #382C80)"/>
<path d="M496.638 699.92C497.021 711.631 496.266 723.636 493.248 735.004C492.709 736.964 494.796 738.238 496.482 737.483C503.087 734.543 508.016 741.452 509.692 746.823C511.191 751.664 511.75 756.887 512.632 761.866L518.581 796.166C522.501 819.01 526.274 841.922 530.821 864.658C531.311 867.079 534.8 866.001 534.457 863.678C530.429 836.238 525.352 808.965 520.619 781.642L517.15 761.64C516.17 755.868 515.572 749.753 513.583 744.216C510.643 736.19 502.901 729.81 494.277 733.701L497.511 736.19C499.392 724.067 500.519 712.219 499.637 699.93C499.5 698.038 496.599 697.97 496.697 699.93L496.638 699.92Z" fill="var(--color-illustration-primary, #382C80)"/>
<path d="M532.193 888.129C532.026 890.765 532.095 893.441 532.066 896.087C532.066 898.527 535.897 898.527 535.868 896.087C535.868 893.441 535.868 890.765 535.741 888.129C535.741 887.149 534.946 886.355 533.967 886.355C532.987 886.355 532.193 887.149 532.193 888.129Z" fill="var(--color-illustration-primary, #382C80)"/>
<path d="M464.72 760.856L463.24 779.418C463.064 781.672 466.631 781.681 466.778 779.418L467.944 760.856C468.081 758.769 464.887 758.798 464.72 760.856Z" fill="var(--color-illustration-primary, #382C80)"/>
<path d="M653.282 723.901C662.389 723.42 670.778 718.803 676.057 711.366C677.498 709.348 674.146 707.446 672.715 709.406C668.241 715.892 661.126 720.065 653.282 720.804C651.322 720.99 651.322 724.008 653.282 723.881V723.901Z" fill="var(--color-illustration-primary, #382C80)"/>
<path d="M671.422 738.532L678.095 734.612C680.055 733.475 678.262 730.437 676.331 731.603L669.707 735.582C668.959 736.084 668.73 737.08 669.184 737.857C669.637 738.635 670.617 738.926 671.422 738.522V738.532Z" fill="var(--color-illustration-primary, #382C80)"/>
<path d="M132.5 219.034C136.406 206.376 144.579 195.463 155.628 188.154C157.157 187.174 155.775 184.665 154.158 185.655C142.205 193.086 133.439 204.692 129.56 218.221C128.992 220.112 131.932 220.916 132.5 219.034Z" fill="var(--color-illustration-primary, #382C80)"/>
</svg>
