<svg width="24" height="24" viewBox="0 0 24 24" fill="none" xmlns="http://www.w3.org/2000/svg">
<path d="M19.875 15H16.875V20.25M19.125 18H16.875M4.125 18.75H5.625C6.12228 18.75 6.59919 18.5525 6.95083 18.2008C7.30246 17.8492 7.5 17.3723 7.5 16.875C7.5 16.3777 7.30246 15.9008 6.95083 15.5492C6.59919 15.1975 6.12228 15 5.625 15H4.125V20.25M4.49997 11.25V4.5C4.49997 4.30109 4.57899 4.11032 4.71964 3.96967C4.86029 3.82902 5.05106 3.75 5.24997 3.75H14.25M14.25 3.75L19.5 9M14.25 3.75V9H19.5M19.5 9V11.25M10.125 15V20.25H11.625C12.3212 20.25 12.9889 19.9734 13.4812 19.4812C13.9734 18.9889 14.25 18.3212 14.25 17.625C14.25 16.9288 13.9734 16.2611 13.4812 15.7688C12.9889 15.2766 12.3212 15 11.625 15H10.125Z" stroke="#1B1B1F" stroke-linecap="round" stroke-linejoin="round"/>
</svg>
