<svg width="24" height="24" viewBox="0 0 24 24" fill="none" xmlns="http://www.w3.org/2000/svg">
<path d="M20.4375 19.5816C20.2462 19.7892 20.0144 19.9556 19.7565 20.0706C19.4986 20.1855 19.2199 20.2466 18.9375 20.25C17.6944 20.25 16.6875 19.0744 16.6875 17.625C16.6875 16.1756 17.6944 15 18.9375 15C19.2199 15.0034 19.4986 15.0645 19.7565 15.1794C20.0144 15.2944 20.2462 15.4608 20.4375 15.6684M4.5 11.25V4.5C4.5 4.30109 4.57902 4.11032 4.71967 3.96967C4.86032 3.82902 5.05109 3.75 5.25 3.75H14.25M14.25 3.75L19.5 9M14.25 3.75V9H19.5M19.5 9V11.25M3.5625 15V20.25H5.0625C5.75869 20.25 6.42637 19.9734 6.91866 19.4812C7.41094 18.9889 7.6875 18.3212 7.6875 17.625C7.6875 16.9288 7.41094 16.2611 6.91866 15.7688C6.42637 15.2766 5.75869 15 5.0625 15H3.5625ZM14.4375 17.625C14.4375 19.0747 13.4301 20.25 12.1875 20.25C10.9449 20.25 9.9375 19.0747 9.9375 17.625C9.9375 16.1753 10.9449 15 12.1875 15C13.4301 15 14.4375 16.1753 14.4375 17.625Z" stroke="#1B1B1F" stroke-linecap="round" stroke-linejoin="round"/>
</svg>
