<svg width="24" height="24" viewBox="0 0 24 24" fill="none" xmlns="http://www.w3.org/2000/svg">
<path fill-rule="evenodd" clip-rule="evenodd" d="M0 3V21H24V3H0Z" fill="#2E42A5"/>
<mask id="mask0_2196_97" style="mask-type:luminance" maskUnits="userSpaceOnUse" x="0" y="3" width="24" height="18">
<path fill-rule="evenodd" clip-rule="evenodd" d="M0 3V21H24V3H0Z" fill="white"/>
</mask>
<g mask="url(#mask0_2196_97)">
<path d="M-2.67236 19.714L2.6089 21.9475L24.1198 5.4283L26.9056 2.10918L21.258 1.36267L12.4842 8.48127L5.42223 13.2775L-2.67236 19.714Z" fill="white"/>
<path d="M-1.94922 21.2788L0.741343 22.575L25.9054 1.80081H22.1275L-1.94922 21.2788Z" fill="#F50100"/>
<path d="M26.6724 19.714L21.3911 21.9475L-0.119831 5.4283L-2.90558 2.10918L2.74197 1.36267L11.5158 8.48127L18.5778 13.2775L26.6724 19.714Z" fill="white"/>
<path d="M26.4922 20.8371L23.8016 22.1333L13.0865 13.2388L9.90973 12.245L-3.1736 2.12059H0.604259L13.6802 12.0047L17.1535 13.1963L26.4922 20.8371Z" fill="#F50100"/>
<mask id="path-7-inside-1_2196_97" fill="white">
<path d="M14.8335 8.99997H25.521V15H14.8335V22.5H9.16748V15H-1.479V8.99997H9.16748V1.49997H14.8335V8.99997Z"/>
</mask>
<path d="M14.8335 8.99997H25.521V15H14.8335V22.5H9.16748V15H-1.479V8.99997H9.16748V1.49997H14.8335V8.99997Z" fill="#F50100"/>
<path d="M14.8335 8.99997H13.8335V9.99997H14.8335V8.99997ZM25.521 8.99997H26.521V7.99997H25.521V8.99997ZM25.521 15V16H26.521V15H25.521ZM14.8335 15V14H13.8335V15H14.8335ZM14.8335 22.5V23.5H15.8335V22.5H14.8335ZM9.16748 22.5H8.16748V23.5H9.16748V22.5ZM9.16748 15H10.1675V14H9.16748V15ZM-1.479 15H-2.479V16H-1.479V15ZM-1.479 8.99997V7.99997H-2.479V8.99997H-1.479ZM9.16748 8.99997V9.99997H10.1675V8.99997H9.16748ZM9.16748 1.49997V0.499969H8.16748V1.49997H9.16748ZM14.8335 1.49997H15.8335V0.499969H14.8335V1.49997ZM14.8335 8.99997V9.99997H25.521V8.99997V7.99997H14.8335V8.99997ZM25.521 8.99997H24.521V15H25.521H26.521V8.99997H25.521ZM25.521 15V14H14.8335V15V16H25.521V15ZM14.8335 15H13.8335V22.5H14.8335H15.8335V15H14.8335ZM14.8335 22.5V21.5H9.16748V22.5V23.5H14.8335V22.5ZM9.16748 22.5H10.1675V15H9.16748H8.16748V22.5H9.16748ZM9.16748 15V14H-1.479V15V16H9.16748V15ZM-1.479 15H-0.479004V8.99997H-1.479H-2.479V15H-1.479ZM-1.479 8.99997V9.99997H9.16748V8.99997V7.99997H-1.479V8.99997ZM9.16748 8.99997H10.1675V1.49997H9.16748H8.16748V8.99997H9.16748ZM9.16748 1.49997V2.49997H14.8335V1.49997V0.499969H9.16748V1.49997ZM14.8335 1.49997H13.8335V8.99997H14.8335H15.8335V1.49997H14.8335Z" fill="white" mask="url(#path-7-inside-1_2196_97)"/>
</g>
</svg>
