<svg width="24" height="24" viewBox="0 0 24 24" fill="none" xmlns="http://www.w3.org/2000/svg">
<path fill-rule="evenodd" clip-rule="evenodd" d="M0 3H24V21H0V3Z" fill="#E31D1C"/>
<path d="M24 19.5V21H0V19.5H24ZM24 18H0V16.5H24V18ZM24 15H0V13.5H24V15ZM24 12H0V10.5H24V12ZM24 9H0V7.5H24V9ZM24 6H0V4.5H24V6Z" fill="#F7FCFF"/>
<rect y="3" width="13.5" height="10.5" fill="#2E42A5"/>
<path d="M2.25049 10.5C2.66448 10.5003 3.00049 10.8359 3.00049 11.25C3.00049 11.6641 2.66448 11.9997 2.25049 12C1.83627 12 1.49951 11.6642 1.49951 11.25C1.49951 10.8358 1.83627 10.5 2.25049 10.5ZM5.25049 10.5C5.66448 10.5003 6.00049 10.8359 6.00049 11.25C6.00049 11.6641 5.66448 11.9997 5.25049 12C4.83627 12 4.50049 11.6642 4.50049 11.25C4.50049 10.8358 4.83627 10.5 5.25049 10.5ZM8.25049 10.5C8.66448 10.5003 9.00049 10.8359 9.00049 11.25C9.00049 11.6641 8.66448 11.9997 8.25049 12C7.83627 12 7.50049 11.6642 7.50049 11.25C7.50049 10.8358 7.83627 10.5 8.25049 10.5ZM11.2505 10.5C11.6645 10.5003 12.0005 10.8359 12.0005 11.25C12.0005 11.6641 11.6645 11.9997 11.2505 12C10.8363 12 10.5005 11.6642 10.5005 11.25C10.5005 10.8358 10.8363 10.5 11.2505 10.5ZM3.75049 9C4.16448 9.00026 4.50049 9.33595 4.50049 9.75C4.50049 10.1641 4.16448 10.4997 3.75049 10.5C3.33627 10.5 3.00049 10.1642 3.00049 9.75C3.00049 9.33579 3.33627 9 3.75049 9ZM6.75049 9C7.16448 9.00026 7.50049 9.33595 7.50049 9.75C7.50049 10.1641 7.16448 10.4997 6.75049 10.5C6.33627 10.5 6.00049 10.1642 6.00049 9.75C6.00049 9.33579 6.33627 9 6.75049 9ZM9.75049 9C10.1645 9.00026 10.5005 9.33595 10.5005 9.75C10.5005 10.1641 10.1645 10.4997 9.75049 10.5C9.33627 10.5 9.00049 10.1642 9.00049 9.75C9.00049 9.33579 9.33627 9 9.75049 9ZM2.25049 7.5C2.66448 7.50026 3.00049 7.83595 3.00049 8.25C3.00049 8.66405 2.66448 8.99974 2.25049 9C1.83627 9 1.49951 8.66421 1.49951 8.25C1.49951 7.83579 1.83627 7.5 2.25049 7.5ZM5.25049 7.5C5.66448 7.50026 6.00049 7.83595 6.00049 8.25C6.00049 8.66405 5.66448 8.99974 5.25049 9C4.83627 9 4.50049 8.66421 4.50049 8.25C4.50049 7.83579 4.83627 7.5 5.25049 7.5ZM8.25049 7.5C8.66448 7.50026 9.00049 7.83595 9.00049 8.25C9.00049 8.66405 8.66448 8.99974 8.25049 9C7.83627 9 7.50049 8.66421 7.50049 8.25C7.50049 7.83579 7.83627 7.5 8.25049 7.5ZM11.2505 7.5C11.6645 7.50026 12.0005 7.83595 12.0005 8.25C12.0005 8.66405 11.6645 8.99974 11.2505 9C10.8363 9 10.5005 8.66421 10.5005 8.25C10.5005 7.83579 10.8363 7.5 11.2505 7.5ZM3.75049 6C4.16448 6.00026 4.50049 6.33595 4.50049 6.75C4.50049 7.16405 4.16448 7.49974 3.75049 7.5C3.33627 7.5 3.00049 7.16421 3.00049 6.75C3.00049 6.33579 3.33627 6 3.75049 6ZM6.75049 6C7.16448 6.00026 7.50049 6.33595 7.50049 6.75C7.50049 7.16405 7.16448 7.49974 6.75049 7.5C6.33627 7.5 6.00049 7.16421 6.00049 6.75C6.00049 6.33579 6.33627 6 6.75049 6ZM9.75049 6C10.1645 6.00026 10.5005 6.33595 10.5005 6.75C10.5005 7.16405 10.1645 7.49974 9.75049 7.5C9.33627 7.5 9.00049 7.16421 9.00049 6.75C9.00049 6.33579 9.33627 6 9.75049 6ZM2.25049 4.5C2.66448 4.50026 3.00049 4.83595 3.00049 5.25C3.00049 5.66405 2.66448 5.99974 2.25049 6C1.83627 6 1.49951 5.66421 1.49951 5.25C1.49951 4.83579 1.83627 4.5 2.25049 4.5ZM5.25049 4.5C5.66448 4.50026 6.00049 4.83595 6.00049 5.25C6.00049 5.66405 5.66448 5.99974 5.25049 6C4.83627 6 4.50049 5.66421 4.50049 5.25C4.50049 4.83579 4.83627 4.5 5.25049 4.5ZM8.25049 4.5C8.66448 4.50026 9.00049 4.83595 9.00049 5.25C9.00049 5.66405 8.66448 5.99974 8.25049 6C7.83627 6 7.50049 5.66421 7.50049 5.25C7.50049 4.83579 7.83627 4.5 8.25049 4.5ZM11.2505 4.5C11.6645 4.50026 12.0005 4.83595 12.0005 5.25C12.0005 5.66405 11.6645 5.99974 11.2505 6C10.8363 6 10.5005 5.66421 10.5005 5.25C10.5005 4.83579 10.8363 4.5 11.2505 4.5Z" fill="#F7FCFF"/>
</svg>
