<svg width="20" height="32" viewBox="0 0 20 32" fill="none" xmlns="http://www.w3.org/2000/svg">
<g clip-path="url(#clip0_9786_1815)">
<path d="M15.325 8.82828L13.5551 10.6061H18.9439V14.6058H16.2694L20.0308 18.3841L17.2151 21.2123L15.4447 19.4339V24.8471H11.4629V22.1014L7.58169 26L4.76616 23.1717L6.5971 21.3325H1.20666V17.3328H3.7607L0 13.5552L2.81562 10.7269L6.6977 14.6266L4.00346 17.3328H6.69672V21.2325L8.64824 19.2722L11.4629 22.0995V19.3324H15.3436L13.3331 17.3128L16.0279 14.6058H13.4538V10.7078L11.4428 12.7278L8.68757 9.9601V12.6055H4.70578V7.09079H8.68757V9.83898L12.5094 6L15.325 8.82828Z" fill="#F7F6FF"/>
</g>
<defs>
<clipPath id="clip0_9786_1815">
<rect width="20" height="20" fill="white" transform="translate(0 6)"/>
</clipPath>
</defs>
</svg>
