<svg width="106" height="32" viewBox="0 0 106 32" fill="none" xmlns="http://www.w3.org/2000/svg">
<rect x="90" y="4" width="16" height="16" rx="1" fill="#F7F6FF"/>
<path d="M97.6309 13.9648C98.0918 13.9648 98.4258 13.8262 98.6328 13.5488C98.8438 13.2676 98.957 12.7773 98.9727 12.0781V12.0078C98.9727 11.3047 98.8633 10.8008 98.6445 10.4961C98.4297 10.1914 98.082 10.0391 97.6016 10.0391C96.7617 10.0391 96.3418 10.7031 96.3418 12.0312C96.3418 12.6758 96.4453 13.1602 96.6523 13.4844C96.8633 13.8047 97.1895 13.9648 97.6309 13.9648ZM97.0859 15.3887C96.2852 15.3887 95.6562 15.0918 95.1992 14.498C94.7461 13.9043 94.5195 13.0781 94.5195 12.0195C94.5195 10.9336 94.7559 10.0938 95.2285 9.5C95.7051 8.90625 96.3691 8.60938 97.2207 8.60938C97.6816 8.60938 98.0605 8.69141 98.3574 8.85547C98.6582 9.01953 98.9062 9.26562 99.1016 9.59375H99.1895C99.2832 9.22656 99.4141 8.93555 99.582 8.7207H101.059C100.934 9.09961 100.832 9.53516 100.754 10.0273C100.68 10.5156 100.643 10.9629 100.643 11.3691V13.1973C100.643 13.6582 100.807 13.8887 101.135 13.8887C101.26 13.8887 101.375 13.8691 101.48 13.8301V15.2363C101.418 15.2754 101.297 15.3105 101.117 15.3418C100.941 15.373 100.795 15.3887 100.678 15.3887C100.24 15.3887 99.9062 15.3145 99.6758 15.166C99.4453 15.0137 99.2637 14.7617 99.1309 14.4102H99.0078C98.5781 15.0625 97.9375 15.3887 97.0859 15.3887Z" fill="#5E49D6"/>
<g clip-path="url(#clip0_9786_6102)">
<path d="M15.4019 8.82827L13.6231 10.6061H19.0389V14.6058H16.3511L20.1312 18.3842L17.3015 21.2123L15.5221 19.4339V24.8471H11.5204V22.1014L7.61972 26L4.79007 23.1717L6.63019 21.3326H1.21271V17.3329H3.77957L0 13.5552L2.82974 10.7269L6.7313 14.6265L4.02354 17.3329H6.73031V21.2325L8.69162 19.2722L11.5204 22.0995V19.3324H15.4206L13.3999 17.3128L16.1083 14.6058H13.5213V10.7077L11.5002 12.7278L8.73115 9.9601V12.6055H4.72939V7.09079H8.73115V9.83897L12.5721 6L15.4019 8.82827Z" fill="#F7F6FF"/>
<path d="M75.5054 14.4485L77.0935 17.8724H77.3427L78.199 15.7714L77.5451 14.433L76.5798 13.577H82.2474L81.0485 14.4797L82.6523 17.8724H82.9015L84.3183 14.4174L83.0571 13.577H86L84.7076 14.4174L81.3911 22.3232L78.4015 16.1761L75.8012 22.3232L72.0331 14.4797L71.0054 13.577H76.3773L75.5054 14.4485Z" fill="#F7F6FF"/>
<path d="M31.3725 9.68621C32.914 9.68621 34.7669 9.9819 35.5455 10.371V10.6511L35.9659 14.6351C34.222 11.6471 33.2254 10.0442 31.3725 10.0442C29.3483 10.0442 28.0249 12.2696 28.0249 15.7245C28.0249 19.2572 29.2705 21.4982 31.1545 21.4982C32.2445 21.4982 33.1165 20.5955 33.4123 19.2571V16.0513H31.2012V15.6778H37.5074L36.6977 16.7672V21.8562L34.7825 20.938C33.786 21.4983 32.4158 21.8562 31.0611 21.8562C27.4332 21.8562 24.5059 19.1016 24.5059 15.7245C24.5059 12.4097 27.5733 9.68622 31.3725 9.68621Z" fill="#F7F6FF"/>
<path d="M48.1648 13.7323H50.4069V14.5416H48.1648V19.3504C48.1648 20.0507 48.6786 20.502 49.4416 20.502C49.971 20.502 50.5782 20.1908 51.0142 19.6928C50.3914 20.8445 48.9277 21.8561 47.5264 21.8561C45.907 21.8561 44.8949 20.9222 44.9728 19.4594L45.2064 15.0707L43.8206 14.3081L44.9728 13.2965V12.2228L48.1648 10.9311V13.7323Z" fill="#F7F6FF"/>
<path fill-rule="evenodd" clip-rule="evenodd" d="M67.7993 13.2653C69.481 13.2653 70.6644 14.2925 70.6644 15.7865V19.895L71.5052 20.4708L67.519 21.8559V20.3307C66.6471 21.2489 65.4948 21.8559 64.5139 21.8559C63.424 21.8559 62.6144 21.14 62.6143 20.1751C62.6144 18.6656 65.5104 17.6073 67.519 16.6113V15.8487C67.519 14.6504 66.9585 13.9345 66.2112 13.9345C65.9309 13.9345 65.6973 14.0278 65.5105 14.1834C64.7164 14.8526 65.4793 17.5294 63.751 17.5294C63.0659 17.5294 62.5988 17.0314 62.5987 16.3311C62.5988 14.5259 66.6004 13.2653 67.7993 13.2653ZM67.519 16.9069C66.3513 17.4672 65.6817 18.0898 65.6817 19.148C65.6817 19.8794 66.1022 20.393 66.7094 20.393C67.052 20.393 67.3166 20.2062 67.519 19.9572V16.9069Z" fill="#F7F6FF"/>
<path d="M42.4724 20.8914L43.0953 21.6695H38.6887L39.3116 20.8914V18.1948L38.5587 17.8024L42.4724 13.9118V20.8914Z" fill="#F7F6FF"/>
<path d="M55.3278 11.0089V21.2957H58.364L61.525 16.7514L61.0889 21.3579V21.6693H51.2327L52.0423 20.6577V11.0089L51.2327 9.99728H56.262L55.3278 11.0089Z" fill="#F7F6FF"/>
<path d="M42.9249 11.8746L39.8833 14.9147L37.6773 12.7098L40.7189 9.66972L42.9249 11.8746Z" fill="#F7F6FF"/>
</g>
<defs>
<clipPath id="clip0_9786_6102">
<rect width="86" height="20" fill="white" transform="translate(0 6)"/>
</clipPath>
</defs>
</svg>
