<svg width="1000" height="1000" viewBox="0 0 1000 1000" fill="none" xmlns="http://www.w3.org/2000/svg">
<path d="M438.564 471.482C441.118 449.943 439.352 428.111 433.37 407.263C427.921 388.3 414.436 367.455 394.738 368.592C386.487 369.062 378.921 373.492 370.709 374.472C355.558 376.187 341.593 365.652 332.303 353.588C323.012 341.524 316.476 327.285 305.843 316.348C288.32 298.12 259.9 291.26 235.978 299.473C214.418 306.862 192.721 325.335 171.955 316.005C156.775 309.145 151.375 290.868 146.367 274.992C141.359 259.116 131.991 241.28 115.429 239.604C78.1101 235.939 80.3347 286.978 81.3833 311.487C82.9317 347.502 82.1379 383.615 85.3033 419.552C86.4205 432.018 85.3817 454.068 92.8787 464.779C98.9351 473.442 111.92 471.247 121.299 471.482C175.532 472.874 229.804 471.972 284.038 472.158C336.252 472.345 389.26 471.825 441.122 478.675" fill="#7F72FF"/>
<path d="M441.739 471.482C444.29 450.268 442.753 428.761 437.211 408.125C433.203 393.425 425.451 377.373 411.731 369.347C405.338 365.573 397.802 364.22 390.495 365.534C380.812 367.21 372.1 372.571 361.996 370.434C342.288 366.338 331.783 346.699 321.816 331.234C312.202 316.378 300.717 304.177 283.988 297.503C268.353 291.221 251.004 290.648 234.988 295.886C218.191 301.589 201.756 315.398 183.362 314.829C164.595 314.261 156.97 295.758 152.002 280.529C147.386 266.329 142.525 250.708 129.932 241.427C120.034 234.146 104.991 233.479 94.7502 240.555C76.1302 253.452 76.4536 283.018 76.924 303.138C77.365 322.003 77.904 340.868 78.2568 359.733C78.6194 381.234 79.962 402.569 81.1184 424.011C81.873 438.045 80.5794 456.351 89.762 468.111C94.4562 474.109 101.865 475.794 109.137 476.078C118.329 476.451 127.61 476.235 136.822 476.402C182.352 477.264 227.883 476.725 273.414 476.784C318.2 476.843 363.123 476.402 407.811 479.9C418.918 480.769 430.025 481.847 441.131 483.134C446.031 483.693 447.256 475.138 442.307 474.422C400.108 468.258 357.263 467.797 314.692 467.631C271.572 467.454 228.393 467.748 185.234 467.69C163.919 467.69 142.623 467.239 121.308 466.945C114.527 466.857 105.952 468.454 99.7482 464.985C93.7506 461.643 92.457 452.539 91.6142 446.365C90.5656 438.77 90.5166 431.077 90.0658 423.423C89.5072 413.77 88.5664 404.146 88.1058 394.484C87.0376 372.924 86.8612 351.364 86.234 329.804C85.842 316.427 84.7444 303.03 85.0188 289.624C85.2344 278.893 86.0772 267.407 90.6244 257.519C95.2598 247.435 104.188 241.898 115.399 243.299C130.942 245.259 138.566 262.899 142.76 275.953C147.19 289.673 151.453 305.353 163.164 314.819C176.276 325.433 192.564 322.708 206.96 316.544C223.356 309.527 238.252 299.747 256.676 299.659C273.434 299.58 290.26 305.98 302.255 317.789C314.995 330.352 321.63 347.649 333.674 360.811C344.925 373.09 360.477 381.254 377.294 376.736C385.977 374.413 394.179 370.278 403.284 373.208C410.545 375.54 416.318 381.381 420.502 387.565C430.9 402.912 434.614 422.766 435.957 440.936C436.676 451.105 436.473 461.32 435.349 471.453C434.898 475.539 441.229 475.471 441.709 471.453L441.739 471.482Z" fill="#7F72FF"/>
<path d="M80.1289 201.482C80.5405 271.249 76.4049 341.074 80.0505 410.801C81.0893 430.655 82.8141 450.471 85.3915 470.189C85.4623 472.21 87.0845 473.832 89.1057 473.903C133.147 476.559 177.306 476.686 221.406 476.676C271.846 476.676 322.346 476.392 372.747 478.283C395.614 479.146 418.415 480.756 441.151 483.115C446.051 483.624 447.276 475.177 442.327 474.403C422.502 471.267 402.323 470.267 382.283 469.385C358.194 468.336 334.076 467.905 309.968 467.699C259.459 467.288 208.95 467.935 158.451 467.817C135.323 467.758 112.185 467.817 89.0861 466.465L92.8101 470.189C83.6471 400.893 85.9501 331.029 86.7145 261.311C86.9203 241.368 86.9007 221.425 86.4793 201.482C86.3911 197.396 80.0897 197.376 80.1093 201.482H80.1289Z" fill="#382C80"/>
<path d="M491.249 538.622C481.85 548.177 466.896 546.06 454.695 545.737C437.594 545.286 420.444 545.639 403.343 545.639C367.919 545.639 332.492 545.639 297.062 545.639H191.957C157.245 545.639 122.455 544.923 87.7434 545.639C75.7874 545.893 60.7934 547.706 51.0424 539.171C42.0656 531.331 40.5466 517.228 39.7528 506.076C37.5478 475.098 38.7238 443.924 40.0272 412.976C42.8986 344.229 37.9888 275.58 38.42 206.843C38.518 189.948 38.959 173.043 39.9782 156.167C40.4192 148.886 40.5956 142.163 45.7994 136.567C55.2858 126.404 71.7988 123.905 84.8916 122.504C120.818 118.682 157.108 123.641 192.927 126.424C217.652 128.306 242.632 127.218 267.407 127.218H372.972C386.781 127.218 400.697 127.737 414.485 127.002C423.952 126.493 433.399 125.669 442.905 125.248C453.195 124.787 463.632 124.542 473.873 125.787C480.635 126.61 489.445 127.904 493.473 134.117C499.128 142.937 500.333 154.54 500.862 164.762C501.519 177.149 500.813 189.575 499.98 201.943C498.02 230.314 498.403 258.636 498.403 287.066V445.12C498.403 461.692 499.706 477.96 500.598 494.492C501.362 508.869 501.49 527.126 491.317 538.592C488.034 542.297 493.473 547.785 496.786 544.051C506.84 532.712 508.742 516.248 508.546 501.666C508.35 484.712 506.105 467.915 506.105 450.931V341.24C506.105 304.451 505.9 267.662 506.105 230.882C506.243 207.068 510.339 183.372 508.203 159.528C507.281 149.248 505.459 138.086 499.588 129.344C495.1 122.7 486.976 120.152 479.42 118.829C459.046 115.252 437.937 117.849 417.455 119.074C403.97 119.907 390.387 119.456 376.883 119.456H211.625C196.337 119.456 181.108 117.653 165.898 116.359C146.171 114.693 126.365 113.282 106.559 113.576C89.4486 113.831 71.1618 114.85 55.1584 121.475C49.004 124.023 43.1044 127.541 38.8708 132.784C33.6768 139.193 32.834 146.318 32.3244 154.344C27.8556 225.404 33.5984 296.542 33.5298 367.641C33.5298 404.029 30.0704 440.347 30.9916 476.745C31.315 489.592 31.2268 502.626 32.9516 515.376C34.5098 526.724 37.8516 538.896 47.3772 546.197C57.8534 554.214 71.7792 553.87 84.3036 553.527C101.346 553.067 118.437 553.41 135.489 553.41C172.141 553.41 208.796 553.41 245.455 553.41C317.975 553.41 390.691 552.204 463.23 553.743C475.284 554.008 487.73 553.204 496.688 544.12C500.206 540.543 494.747 535.074 491.249 538.622Z" fill="#382C80"/>
<path d="M662.974 368.396C654.282 358.841 647.294 361.006 636.015 361.692C621.844 362.555 608.359 361.741 594.276 364.632C565.915 370.512 539.396 383.821 515.827 400.442C493.062 416.533 470.747 428.303 443.719 413.838C406.9 394.16 375.54 369.287 342.534 344.317C338.222 341.063 333.9 337.624 328.814 335.879C323.728 334.135 317.515 334.429 313.536 338.074C311.935 339.754 310.5 341.586 309.253 343.543C304.866 349.264 298.529 353.174 291.447 354.529C284.391 355.91 278.707 353.705 271.847 356.371C255.588 362.682 243.789 377.931 246.259 395.62C249.199 416.817 260.479 436.261 275.296 451.705C290.114 467.15 308.352 478.891 327.236 488.945C349.551 500.852 373.296 510.711 398.306 514.494C419.866 517.748 441.867 516.454 463.495 513.69C511.819 507.565 575.039 480.958 612.455 442.435" fill="white"/>
<path d="M665.179 366.191C661.083 361.839 656.359 358.713 650.332 357.998C643.825 357.214 637.024 358.458 630.497 358.674C613.259 359.242 596.844 359.772 580.145 364.613C564.588 369.218 549.618 375.611 535.535 383.664C521.658 391.504 509.251 401.735 495.139 409.144C480.871 416.631 465.259 419.326 450.059 412.79C434.262 405.998 419.376 395.561 405.215 385.908C391.308 376.412 377.775 366.308 364.407 356.155C357.547 350.929 350.687 345.702 343.827 340.475C338.036 336.085 331.901 331.655 324.414 331.028C317.898 330.367 311.542 333.318 307.842 338.721C302.883 345.444 296.621 350.354 287.967 351.01C280.216 351.598 273.816 350.863 266.545 354.352C260.625 357.165 255.378 361.215 251.159 366.23C231.902 389.368 246.964 422.668 262.801 443.385C282.401 469.061 311.272 486.427 340.113 500.019C355.048 507.056 370.611 512.965 386.761 516.503C403.99 520.266 421.649 521.07 439.211 520.07C496.747 516.787 555.027 496.227 599.735 459.31C605.118 454.864 610.255 450.127 615.121 445.12C618.512 441.611 613.161 436.3 609.77 439.759C590.435 459.242 566.807 474.059 542.062 485.731C518.326 496.903 492.846 505.272 466.866 509.153C433.811 514.053 400.471 513.808 368.602 502.93C353.437 497.591 338.772 490.927 324.776 483.016C311.291 475.578 298.189 467.219 286.635 456.978C275.492 447.119 265.878 435.594 259.038 422.335C252.991 410.575 247.052 394.895 251.394 381.704C255.647 368.837 268.779 358.752 282.332 358.919C289.31 359.007 295.778 358.204 302.001 354.813C304.756 353.306 307.281 351.411 309.498 349.188C311.87 346.796 313.418 343.631 315.79 341.348C322.003 335.36 331.087 340.73 336.664 344.758C343.063 349.374 349.266 354.274 355.558 359.046C368.504 368.846 381.489 378.646 394.817 387.947C407.929 397.189 421.496 405.768 435.467 413.652C448.207 420.757 461.006 425.726 475.804 423.56C489.651 421.531 502.117 414.328 513.505 406.547C526.245 397.874 538.847 389.456 552.705 382.723C566.983 375.795 582.252 370.287 597.902 367.465C606.242 365.955 614.748 365.74 623.196 365.505C630.37 365.289 637.494 364.652 644.648 364.299C651.371 363.966 656.006 365.71 660.73 370.63C663.523 373.57 667.904 369.131 665.15 366.21L665.179 366.191Z" fill="#382C80"/>
<path d="M662.974 368.396C654.281 358.841 647.294 361.007 636.014 361.693C605.742 363.526 572.216 364.888 545.648 381.616C536.074 387.634 526.95 395.915 515.65 396.454C513.475 396.561 511.103 396.454 509.329 397.688C507.556 398.923 506.948 401.207 506.536 403.314C501.215 430.754 515.425 458.252 532.683 480.234C535.623 483.997 539.092 487.917 543.786 488.799C546.318 489.136 548.891 488.939 551.342 488.221C563.955 485.183 569.825 479.714 578.39 471.081C588.788 460.604 602.018 453.176 612.445 442.455" fill="#7F72FF"/>
<path d="M665.179 366.191C657.339 357.783 648.979 357.371 638.16 358.096C625.42 358.929 612.621 359.361 599.94 360.85C587.043 362.369 574.147 364.77 561.965 369.406C549.95 373.943 540.317 381.342 529.361 387.732C524.38 390.634 518.781 392.314 513.024 392.632C507.144 393.141 503.979 396.63 502.734 402.265C500 414.74 501.597 428.157 505.537 440.22C509.702 452.96 516.317 464.72 524.157 475.579C530.948 485.065 537.877 495.061 550.979 492.513C563.484 490.073 572.481 482.713 581.31 474.001C591.885 463.564 604.83 455.92 615.169 445.189C618.55 441.671 613.307 436.418 609.819 439.828C601.508 447.943 591.757 454.254 582.859 461.663C575.558 467.729 569.56 475.598 561.181 480.283C557.016 482.605 551.685 484.712 546.863 484.957C540.542 485.291 536.495 478.685 533.143 474.177C526.097 464.72 519.757 454.519 515.386 443.533C511.142 432.87 508.673 421.414 509.643 409.909C509.79 408.076 509.81 403.206 511.152 401.618C512.642 399.844 516.248 400.413 518.247 400.138C523.334 399.327 528.214 397.533 532.614 394.856C542.052 389.407 550.333 382.538 560.417 378.196C570.736 373.737 581.791 371.072 592.855 369.278C605.32 367.259 617.933 366.387 630.516 365.554C635.828 365.201 641.179 364.476 646.5 364.368C652.449 364.261 656.623 366.377 660.779 370.64C663.601 373.522 667.923 369.161 665.198 366.221L665.179 366.191Z" fill="#7F72FF"/>
<path d="M600.675 690.688C620.177 667.413 646.431 647.255 655.8 617.188C660.3 602.751 662.57 587.711 662.533 572.588C662.346 558.476 658.426 544.825 649.714 533.575C641.002 522.324 627.302 510.829 612.631 508.604C597.343 506.282 586.289 517.12 577.224 527.969C555.664 553.772 535.142 581.036 521.07 611.73C505.88 644.785 498.04 681.3 501.087 717.746C502.577 735.41 506.754 752.744 513.475 769.147C519.952 784.974 528.175 799.958 536.367 814.952C544.207 829.407 553.38 844.274 558.731 859.905C561.455 867.882 562.181 875.271 559.456 883.356C556.84 891.137 552.537 898.272 550.097 906.112C547.775 913.55 551.077 919.597 558.574 921.919C566.414 924.34 574.744 921.557 582.241 919.312C598.901 914.344 615.238 907.974 630.379 899.418C637.758 895.244 645.951 890.598 652.056 884.669C658.162 878.74 656.074 871.165 653.419 863.933C647.421 847.606 637.739 833.17 629.712 817.873C620.735 800.709 612.799 783.021 605.947 764.904C600.009 749.331 592.551 732.397 592.09 715.512C591.835 706.015 594.736 698.087 600.675 690.698C603.772 686.866 598.333 681.368 595.216 685.239C590.395 691.217 586.543 697.538 585.162 705.192C584.006 712.388 584.172 719.734 585.652 726.87C588.503 742.354 594.756 757.534 600.508 772.136C606.82 788.218 613.915 804.045 621.823 819.48C629.418 834.239 638.934 848.076 645.04 863.58C646.343 866.902 648.715 871.596 648.568 875.252C648.391 879.73 642.041 882.896 638.768 885.159C631.972 889.798 624.856 893.947 617.472 897.576C602.804 904.969 587.314 910.604 571.324 914.363C567.914 915.128 561.524 916.323 558.584 913.521C555.272 910.296 559.015 904.22 560.544 900.673C563.484 894.058 566.875 887.413 568.384 880.289C571.324 866.079 564.395 852.026 558.094 839.697C543.659 811.454 525.842 784.092 516.032 753.771C505.252 720.588 506.066 684.328 515.052 650.871C523.696 618.599 540.042 588.856 560.074 562.289C568.688 550.862 577.449 538.945 587.18 528.449C591.679 523.549 597.049 518.14 603.703 516.532C611.377 514.68 619.295 518.061 625.694 522.089C637.748 529.655 648.136 541.248 652.292 555.017C656.212 567.953 655.085 581.8 652.821 594.942C650.302 609.525 646.725 622.931 638.532 635.446C630.604 647.578 620.393 657.986 610.475 668.491C605.271 673.989 600.116 679.526 595.256 685.328C592.041 689.012 597.48 694.51 600.675 690.688Z" fill="#382C80"/>
<path d="M554.057 906.357C557.173 896.478 564.621 884.228 565.033 874.017C565.405 864.413 560.711 853.652 555.801 844.088C559.426 842.16 563.214 840.557 567.12 839.295C570.462 838.188 574.127 837.081 577.42 838.315C585.113 841.255 583.966 853.613 590.669 858.396C595.393 861.767 601.979 859.973 607.192 857.416C618.041 852.143 627.586 844.186 639.003 840.285C639.708 840.014 640.446 839.843 641.198 839.776C644.537 848.85 647.761 857.951 650.871 867.078C651.851 870.018 652.831 873.164 651.851 876.065C651.008 878.525 648.911 880.308 646.853 881.945C626.273 898.076 601.773 908.542 576.695 915.951C570.501 917.784 563.572 919.381 557.79 916.5C555.693 915.451 553.772 913.668 553.361 911.355C553.185 909.657 553.424 907.942 554.057 906.357Z" fill="#382C80"/>
<path d="M557.82 907.386C561.348 896.734 567.786 886.757 568.835 875.389C569.903 863.747 564.307 852.202 559.172 842.069L557.79 847.351C562.21 845.039 568.884 841.471 574.068 841.569C578.145 841.677 579.478 845.391 580.732 848.645C583.162 854.946 585.632 861.552 592.855 863.521C601.077 865.766 609.593 860.797 616.375 856.789C624.273 852.144 632.976 844.941 642.217 843.471L637.474 840.776C639.689 846.822 641.884 852.879 644.011 858.955C645.618 863.561 650.273 871.802 647.156 876.301C644.216 880.515 638.033 883.709 633.789 886.473C629.046 889.57 624.136 892.422 619.089 895.048C609.269 900.119 599.085 904.453 588.621 908.013C583.623 909.738 553.831 920.753 557.761 907.347C559.162 902.565 551.714 900.487 550.313 905.289C548.421 911.718 550.205 917.167 556.516 920.087C562.827 923.007 569.727 921.812 576.116 920.087C590.146 916.219 603.8 911.099 616.914 904.789C623.557 901.614 630.004 898.044 636.22 894.097C641.864 890.511 648.587 886.61 652.968 881.465C657.348 876.32 655.908 870.185 653.948 864.237C651.008 855.701 647.999 847.214 644.893 838.757C644.257 836.754 642.185 835.579 640.14 836.062C631.261 837.473 622.784 843.902 615.277 848.459C608.77 852.379 595.677 861.816 590.287 851.928C587.269 846.352 586.622 839.257 580.722 835.67C572.706 830.77 561.122 836.905 553.821 840.727C552.005 841.821 551.388 844.161 552.43 846.009C557.183 855.358 562.749 866.442 560.74 877.251C558.917 887.051 553.419 895.871 550.303 905.328C548.764 910.062 556.222 912.09 557.82 907.386Z" fill="#382C80"/>
<path d="M625.146 558.731C619.776 584.584 630.252 610.671 635.818 636.514C642.316 666.639 642.13 697.754 641.836 728.575C641.306 786.042 636.936 844.137 637.916 901.398C637.916 904.465 638.131 907.778 640.052 910.218C641.669 912.256 644.246 913.236 646.716 914.06C671.52 922.341 698.117 923.967 724.224 922.527C730.673 922.174 737.738 921.361 742.207 916.647C743.834 914.951 745.039 912.629 744.657 910.316C744.243 908.663 743.432 907.136 742.295 905.867C736.053 897.615 724.91 888.58 721.088 879.064C716.051 866.52 719.706 848.458 721.5 835.571C729.428 778.561 733.318 721.062 733.142 663.503C732.985 611.475 728.242 555.909 696.324 514.808" fill="white"/>
<path d="M622.657 558.046C616.777 588.044 629.429 616.542 634.417 645.677C639.777 677.037 638.925 709.309 638.337 741.031C637.71 773.371 636.122 805.77 635.132 838.149C634.642 854.133 634.299 870.117 634.309 886.111C634.309 893.167 633.123 901.644 635.289 908.455C636.994 913.845 641.688 916.069 646.677 917.716C660.88 922.254 675.59 925.016 690.473 925.938C704.32 926.918 719.873 927.898 733.495 925.026C738.953 923.86 744.716 920.999 747.215 915.765C749.714 910.532 747.323 906.308 744.04 902.212C736.2 892.412 724.9 884.327 722.774 871.166C720.647 858.004 724.126 843.922 725.9 830.809C728.069 814.776 729.931 798.711 731.486 782.613C734.569 750.43 736.376 718.165 736.905 685.818C737.768 632.8 737.336 574.912 709.622 527.803C706.4 522.382 702.819 517.182 698.901 512.241C696.372 509.007 690.679 513.338 693.168 516.66C724.106 557.82 728.801 610.486 729.193 660.358C729.7 721.017 725.579 781.626 716.864 841.658C715.228 852.889 713.424 864.796 716.237 875.958C719.177 887.492 728.487 895.499 736.072 904.045C737.758 905.946 740.502 908.298 740.766 910.905C741.129 914.501 736.611 916.51 733.71 917.431C727.321 919.45 719.902 919.107 713.277 919.244C698.377 919.694 683.47 918.6 668.795 915.981C662.232 914.75 655.752 913.114 649.391 911.081C645.902 909.964 642.531 909.121 641.688 905.015C640.846 900.909 641.355 895.989 641.326 891.755C641.218 877.055 641.424 862.355 641.786 847.655C642.541 816.874 643.991 786.121 644.726 755.339C645.559 722.019 646.608 688.111 642.208 654.968C640.13 639.376 635.975 624.353 632.084 609.143C627.939 592.885 624.411 576.058 627.625 559.32C628.253 556.076 623.294 554.684 622.647 557.948L622.657 558.046Z" fill="#382C80"/>
<path d="M622.657 558.046C616.777 588.044 629.429 616.542 634.417 645.677C639.777 677.037 638.925 709.309 638.337 741.031C637.71 773.371 636.122 805.77 635.132 838.149C634.642 854.133 634.299 870.117 634.309 886.111C634.309 893.167 633.123 901.644 635.289 908.455C636.994 913.845 641.688 916.069 646.677 917.716C660.88 922.254 675.59 925.016 690.473 925.938C704.32 926.918 719.873 927.898 733.495 925.026C738.953 923.86 744.716 920.999 747.215 915.765C749.714 910.532 747.323 906.308 744.04 902.212C736.2 892.412 724.9 884.327 722.774 871.166C720.647 858.004 724.126 843.922 725.9 830.809C728.069 814.776 729.931 798.711 731.486 782.613C734.569 750.43 736.376 718.165 736.905 685.818C737.768 632.8 737.336 574.912 709.622 527.803C706.4 522.382 702.819 517.182 698.901 512.241C696.372 509.007 690.679 513.338 693.168 516.66C724.106 557.82 728.801 610.486 729.193 660.358C729.7 721.017 725.579 781.626 716.864 841.658C715.228 852.889 713.424 864.796 716.237 875.958C719.177 887.492 728.487 895.499 736.072 904.045C737.758 905.946 740.502 908.298 740.766 910.905C741.129 914.501 736.611 916.51 733.71 917.431C727.321 919.45 719.902 919.107 713.277 919.244C698.377 919.694 683.47 918.6 668.795 915.981C662.232 914.75 655.752 913.114 649.391 911.081C645.902 909.964 642.531 909.121 641.688 905.015C640.846 900.909 641.355 895.989 641.326 891.755C641.218 877.055 641.424 862.355 641.786 847.655C642.541 816.874 643.991 786.121 644.726 755.339C645.559 722.019 646.608 688.111 642.208 654.968C640.13 639.376 635.975 624.353 632.084 609.143C627.939 592.885 624.411 576.058 627.625 559.32C628.253 556.076 623.294 554.684 622.647 557.948L622.657 558.046Z" fill="#382C80"/>
<path d="M590.414 399.883C590.581 405.155 587.063 409.8 582.937 413.201C578.811 416.602 573.96 419.218 570.138 422.923C563.22 429.677 560.326 439.551 562.504 448.971C564.043 455.478 567.845 461.348 570.922 467.405C586.72 498.579 558.966 550.989 541.63 576.587C523.686 603.047 499.941 627.429 495.57 660.406C494.982 664.826 495.452 670.549 499.666 672.029C501.95 672.832 504.439 671.97 506.781 671.382C527.263 666.217 542.483 683.25 558.447 692.854C582.947 707.554 608.887 720.745 637.004 726.958C652.056 730.28 667.472 731.574 682.858 732.505C703.722 733.769 725.654 734.18 744.353 724.831C746.072 724.132 747.557 722.96 748.635 721.45C749.615 719.735 749.615 717.618 749.537 715.57C747.224 656.898 737.297 596.01 719.549 540.15C704.908 494.09 686.503 447.138 679.438 399.03" fill="#7F72FF"/>
<path d="M587.544 399.883C587.093 408.37 578.126 412.564 572.128 416.954C566.797 420.874 562.583 425.667 560.211 431.89C557.843 438.188 557.571 445.083 559.437 451.548C561.515 458.702 565.974 464.72 568.757 471.55C577.979 494.218 566.552 522.451 556.576 542.914C545.139 566.434 529.136 586.318 514.347 607.672C506.341 619.226 499.148 631.506 494.875 644.971C492.199 653.409 486.212 673.842 499.932 676.331C503.146 676.899 506.213 675.645 509.33 675.057C512.784 674.416 516.331 674.463 519.767 675.194C526.274 676.576 532.115 679.986 537.593 683.632C549.823 691.786 561.603 699.959 574.578 706.966C588.735 714.772 603.575 721.27 618.913 726.38C634.868 731.544 651.371 734.22 668.051 735.641C684.191 737.042 700.743 738.355 716.913 736.621C724.54 735.905 732.043 734.212 739.238 731.583C744.873 729.437 751.743 727.036 753.291 720.519C754.134 716.981 753.507 712.963 753.291 709.386C753.075 705.172 752.827 700.962 752.546 696.754C751.978 688.261 751.256 679.797 750.38 671.362C748.656 654.604 746.336 637.915 743.422 621.294C737.542 587.661 728.722 554.85 718.011 522.451C707.231 489.719 695.598 457.134 687.876 423.471C685.916 415.043 684.368 406.547 683.084 397.991C682.349 393.091 674.911 395.169 675.636 400.049C685.436 465.229 713.856 525.382 728.624 589.336C735.976 621.408 740.99 653.971 743.628 686.768C744.282 694.608 744.778 702.448 745.118 710.288C745.294 714.051 746.529 718.853 742.805 720.999C739.213 722.903 735.411 724.38 731.476 725.4C716.776 729.633 701.312 729.32 686.21 728.545C669.55 727.634 652.704 726.34 636.357 722.558C621.065 718.863 606.229 713.486 592.12 706.525C578.89 700.135 565.611 693.079 553.567 684.641C543.62 677.683 533.604 669.304 521.345 667.001C518.474 666.431 515.546 666.21 512.623 666.345C509.281 666.551 506.096 667.883 502.823 668.148C496.149 668.687 500.863 653.517 501.843 650.067C505.508 636.866 512.348 624.891 519.973 613.611C533.771 593.217 549.235 574.411 560.574 552.39C571.197 531.81 581.419 507.418 579.194 483.741C578.738 478.5 577.479 473.36 575.46 468.502C572.736 462.074 568.434 456.36 566.415 449.618C564.3 442.493 565.514 434.794 569.717 428.665C573.784 422.785 580.497 419.659 585.711 414.945C590.141 410.967 593.218 405.939 593.257 399.863C593.257 396.159 587.72 396.198 587.524 399.863L587.544 399.883Z" fill="#7F72FF"/>
<path d="M742.276 905.876C736.033 897.625 724.891 888.589 721.069 879.073C717.492 870.155 718.305 858.493 719.716 847.782C715.655 847.185 711.549 846.949 707.447 847.076C703.919 847.145 700.097 847.331 697.421 849.624C691.159 854.985 696.392 866.226 691.678 872.988C688.366 877.75 681.555 878.27 675.793 877.633C663.807 876.31 652.145 872.017 640.081 872.174C639.328 872.158 638.576 872.247 637.847 872.439C637.749 882.111 637.739 891.764 637.896 901.398C637.896 904.465 638.112 907.778 640.032 910.218C641.649 912.256 644.227 913.236 646.696 914.059C671.5 922.34 698.097 923.967 724.205 922.527C730.653 922.174 737.719 921.36 742.188 916.647C743.814 914.951 745.02 912.629 744.638 910.316C744.222 908.666 743.411 907.143 742.276 905.876Z" fill="#382C80"/>
<path d="M745 903.143C738.914 895.303 730.751 888.933 725.89 880.211C720.549 870.617 722.235 858.19 723.568 847.783C723.579 846.042 722.416 844.513 720.735 844.059C713.131 842.99 701.518 841.119 695.069 846.597C688.905 851.781 690.836 859.68 689.846 866.716C688.307 877.633 673.333 873.576 666.091 872.116C656.83 870.234 646.304 866.942 636.808 868.715C635.146 869.195 633.995 870.709 633.976 872.439C633.888 881.132 633.868 889.815 633.976 898.507C634.054 904.74 634.152 911.463 639.964 915.236C645.56 918.872 653.262 920.205 659.662 921.704C667.094 923.409 674.62 924.673 682.202 925.487C697.441 927.163 713.415 927.692 728.693 925.987C734.573 925.34 740.639 923.782 744.883 919.391C749.41 914.707 749.312 908.984 745.578 903.927C742.638 900.007 735.945 903.819 738.905 907.847C747.068 918.891 719.501 918.921 714.13 919.038C702.253 919.381 690.367 918.814 678.576 917.343C672.604 916.558 666.676 915.463 660.818 914.06C655.918 912.874 649.352 911.924 644.952 909.238C639.905 906.151 641.649 896.91 641.62 891.775C641.62 885.336 641.62 878.898 641.669 872.459L638.827 876.183C643.678 875.281 649.509 876.663 654.233 877.565C658.956 878.466 663.69 879.603 668.462 880.446C675.871 881.769 684.662 883.161 691.316 878.623C697.372 874.488 697.637 867.461 697.794 860.797C697.882 856.877 697.921 852.771 702.37 851.428C707.133 849.988 713.817 850.85 718.648 851.526L715.816 847.802C714.326 859.347 713.189 872.116 718.54 882.896C723.489 892.853 732.77 899.977 739.512 908.631C742.599 912.58 748.028 907.024 745 903.143Z" fill="#382C80"/>
<path d="M711.827 878.28C715.116 875.913 719.237 875.009 723.215 875.781C725.273 876.134 726.155 873.174 724.087 872.586C719.255 871.279 714.09 872.345 710.171 875.458C708.544 876.712 710.093 879.534 711.827 878.28Z" fill="white"/>
<path d="M719.687 889.314C721.886 887.526 724.567 886.432 727.39 886.169C729.546 885.933 729.624 882.582 727.39 882.719C723.654 882.976 720.109 884.461 717.305 886.943C715.649 888.364 718.04 890.686 719.687 889.314Z" fill="white"/>
<path d="M729.32 895.528L735.2 894.078C737.16 893.607 736.317 890.589 734.377 891.079L728.497 892.588C726.595 893.078 727.409 895.999 729.31 895.528H729.32Z" fill="white"/>
<path d="M560.172 870.322C564.297 870.196 568.236 872.036 570.786 875.281C571.903 876.633 574.304 874.81 573.236 873.389C570.202 869.268 565.279 866.975 560.172 867.304C558.212 867.411 558.212 870.381 560.172 870.322Z" fill="white"/>
<path d="M556.526 883.395C559.672 885.198 562.769 887.198 566.071 888.697C566.824 889.138 567.791 888.886 568.232 888.134C568.673 887.381 568.421 886.414 567.669 885.973C564.631 884.013 561.289 882.425 558.074 880.739C556.33 879.759 554.801 882.405 556.526 883.395Z" fill="white"/>
<path d="M551.999 894.656C554.536 895.727 556.908 897.152 559.045 898.89C560.633 900.183 562.896 897.91 561.299 896.636C558.831 894.665 556.1 893.048 553.185 891.834C551.587 891.177 550.401 893.96 551.999 894.656Z" fill="white"/>
<path d="M634.485 362.378C708.72 363.153 765.492 426.392 812.845 476C812.395 475.519 857.269 403.48 860.718 397.374C868.235 384.095 877.378 371.149 884.238 357.782C891.931 342.759 898.017 328.167 908.591 314.662C911.531 310.928 915.804 306.92 920.351 308.312C926.516 310.184 925.947 319.013 924.085 325.178L912.874 362.29C913.619 354.989 922.223 349.658 929.093 352.255C935.963 354.852 938.893 364.534 934.62 370.503C935.688 364.701 944.969 364.476 948.575 369.15C952.084 373.678 951.878 380.293 951.172 385.673C957.484 375.314 964.206 384.948 965.255 392.21C967.058 404.646 958.493 416.004 955.141 427.382C952.897 434.996 952.858 443.062 952.103 450.902C947.978 494.022 922.978 529.968 885.199 549.735C871.116 557.104 856.044 562.847 840.305 565.121C803.663 570.413 765.982 556.134 737.523 532.448C722.823 520.237 711.954 505.752 700.283 490.856C688.944 476.343 681.427 464.896 662.709 455.802" fill="white"/>
<path d="M634.486 365.671C692.453 366.73 739.238 406.106 778.085 445.198C788.983 456.174 799.557 467.454 810.219 478.665C812.307 480.87 817.001 479.322 816.648 476C816.756 477.048 815.668 477.872 816.491 477.127C816.778 476.752 817.012 476.34 817.187 475.902C818.04 474.402 818.941 472.962 819.833 471.443C822.656 466.749 825.527 462.074 828.398 457.409C835.65 445.61 842.932 433.83 850.243 422.07C854.917 414.524 859.68 407.027 864.178 399.383C870.725 388.231 877.898 377.461 884.298 366.21C890.246 355.695 895.078 344.572 900.889 334.017C904.25 327.971 907.867 321.718 912.433 316.485C914.001 314.692 917.559 310.527 920.087 312.859C921.606 314.261 921.283 317.544 921.067 319.317C920.391 325.913 917.451 332.626 915.54 338.917L908.788 361.163L916.912 363.398C917.696 358.566 922.88 354.009 927.976 356.371C932.474 358.449 933.347 364.495 930.916 368.347L938.707 371.63C939.609 368.435 944.47 370.718 945.655 372.473C948.105 376.118 947.341 381.587 946.841 385.663C946.273 390.289 952.721 390.995 954.887 387.839C955.975 386.232 956.347 385.32 957.915 386.095C959.013 386.624 959.797 388.77 960.199 389.809C961.58 393.327 961.384 397.325 960.6 400.951C959.062 408.076 955.446 414.534 952.76 421.267C947.037 435.771 948.742 451.97 945.205 467.033C938.973 493.425 923.967 516.92 902.643 533.673C878.28 552.92 845.989 564.494 814.776 561.74C783.563 558.986 753.595 543.385 731.476 521.56C719.168 509.428 708.838 495.404 698.284 481.762C688.827 469.561 678.684 459.34 664.689 452.47C660.27 450.304 656.359 456.88 660.769 459.114C674.93 466.259 684.632 477.019 694.168 489.377C704.879 503.254 715.473 517.493 728.262 529.557C752.762 552.685 785.602 568.531 819.539 570.139C853.045 571.736 887.639 557.575 912.845 535.839C935.566 516.123 950.577 489.003 955.22 459.281C956.798 449.079 956.279 438.407 959.199 428.46C961.816 419.552 967.157 411.614 968.999 402.441C970.479 395.091 969.881 386.692 964.746 380.803C958.964 374.178 951.81 376.99 947.429 383.439L955.475 385.624C956.455 377.539 955.828 366.926 947.41 362.927C941 359.88 932.523 362.026 930.485 369.327C929.162 374.06 935.728 376.657 938.325 372.61C943.49 364.427 940.285 352.481 931.259 348.551C921.9 344.474 910.444 351.207 908.847 361.124C908.004 366.367 915.373 368.67 916.971 363.359L923.664 341.103C925.624 334.723 928.162 328.206 929.152 321.601C930.465 312.918 926.467 301.089 915.295 304.353C910.395 305.793 906.936 310.037 903.986 313.957C899.58 319.919 895.648 326.217 892.226 332.792C885.934 344.641 880.525 356.891 873.606 368.425C857.7 395.14 841.393 421.473 825.223 447.942C821.382 454.234 817.54 460.526 813.757 466.847C812.503 468.963 808.857 473.295 809.112 476L815.541 473.334C776.596 432.713 736.161 387.663 681.937 367.876C666.727 362.297 650.686 359.315 634.486 359.056C630.252 358.998 630.252 365.564 634.486 365.642V365.671Z" fill="#382C80"/>
<path d="M634.485 362.379C672.117 362.771 707.407 372.061 734.014 399.913C740.58 406.773 747.44 414.946 756.917 415.701C760.033 415.956 763.169 415.348 766.286 415.524C775.615 416.073 783.73 424.736 783.671 434.076C783.804 435.506 783.336 436.926 782.377 437.996C781.064 439.182 779.065 438.976 777.301 439.133C768.118 439.995 758.779 458.919 754.339 465.955C746.764 477.999 740.561 490.837 734.602 503.734C732.926 507.36 730.927 521.913 727.742 523.334C726.097 523.873 724.312 523.789 722.725 523.099C711.847 519.434 704.595 509.487 697.166 500.726C685.604 487.106 672.082 475.279 657.045 465.632" fill="#7F72FF"/>
<path d="M634.485 365.671C659.524 366.161 684.886 370.571 706.78 383.311C717.716 389.661 726.507 397.873 735.2 406.958C739.022 410.956 743.177 414.974 748.204 417.424C754.437 420.453 759.749 418.973 766.285 419.678C772.108 420.411 776.987 424.432 778.819 430.008C779.995 433.653 779.682 434.437 776.173 435.035C774.013 435.43 771.961 436.282 770.156 437.534C762.385 442.777 757.573 451.989 752.996 459.888C746.313 471.413 739.835 482.859 734.161 494.923C731.977 499.194 730.243 503.68 728.986 508.31C728.457 510.524 727.565 518.943 725.419 520.07C723.817 519.396 722.25 518.64 720.725 517.806C718.851 516.847 717.076 515.709 715.423 514.405C712.709 512.189 710.191 509.743 707.897 507.094C703.32 502.018 699.136 496.608 694.461 491.62C683.967 480.342 672.052 470.475 659.014 462.269C654.781 459.623 651.057 466.189 655.094 468.914C667.851 477.332 679.542 487.263 689.914 498.49C698.881 508.349 706.515 520.687 719.265 526.057C723.93 528.017 729.672 528.85 732.632 523.882C734.994 519.903 735.797 514.934 736.885 510.495C738.326 504.674 741.06 499.47 743.686 494.09C747.352 486.593 751.223 479.194 755.535 472.04C760.846 463.22 765.844 451.685 774.037 445.207C778.035 442.052 784.043 444.227 786.777 439.014C789.364 434.114 787.218 426.989 784.484 422.589C781.46 417.67 776.762 414.009 771.254 412.279C764.247 410.182 757.083 413.259 750.439 409.437C744.617 406.115 740.305 400.696 735.641 396.011C731.013 391.358 726.008 387.097 720.676 383.271C695.666 365.318 664.718 359.31 634.436 359.075C630.202 359.075 630.202 365.573 634.436 365.661L634.485 365.671Z" fill="#382C80"/>
<path d="M888.384 382.831C891.147 380.871 899.164 376.706 902.701 379.362C905.053 381.126 902.946 384.81 901.79 386.555C900.36 388.654 898.503 390.427 896.341 391.759C893.823 393.385 893.186 397.854 896.341 399.314C908.454 404.94 911.041 418.914 902.966 429.293C899.83 433.271 904.759 438.612 908.66 434.986C922.38 422.246 917.196 399.354 900.761 391.759V399.314C907.239 394.885 916.176 383.772 910.061 375.794C903.946 367.817 890.873 373.501 884.963 378.44C882.523 380.479 885.747 384.712 888.384 382.87V382.831Z" fill="#382C80"/>
<path d="M611.827 282.694C608.512 281.08 604.814 280.418 601.145 280.783C597.991 280.993 595.005 282.28 592.688 284.429C590.377 286.648 589.486 289.965 590.375 293.043C590.957 294.546 591.887 295.89 593.09 296.963C596.83 300.498 601.791 302.453 606.937 302.422C612.075 302.351 617.033 300.517 620.98 297.228" fill="#382C80"/>
<path d="M613.552 279.754C607.271 276.873 599.607 275.883 593.325 279.411C587.925 282.459 584.593 288.995 587.034 295.003C589.66 301.451 597.333 305.42 603.899 306.273C611.101 307.15 618.33 304.862 623.715 300.001C626.988 297.139 622.666 291.455 619.031 293.934C612.739 298.217 604.977 300.324 598.068 295.953C593.933 293.327 592.022 288.642 597.02 285.722C600.94 283.448 606.134 283.958 610.103 285.644C614.072 287.329 617.58 281.596 613.552 279.764V279.754Z" fill="#382C80"/>
<path d="M653.86 317.377C652.387 325.058 650.323 332.614 647.686 339.976C645.471 346.131 643.491 351.834 643.766 358.479C643.882 360.707 644.111 362.928 644.452 365.133C644.805 367.544 646.03 370.582 644.638 372.787C643.021 375.325 639.454 377.569 637.102 379.402C634.32 381.559 631.407 383.543 628.38 385.34C626.117 386.795 623.645 387.895 621.049 388.604C618.432 389.306 615.648 389.041 613.209 387.859C609.054 385.634 607.408 380.391 607.623 375.687C607.839 370.983 609.466 366.466 610.162 361.811C610.576 359.709 610.485 357.539 609.897 355.48C608.427 351.178 602.91 349.894 599.627 347.287C595.964 344.4 593.164 340.562 591.532 336.193C587.974 326.54 590.121 315.408 595.452 306.627C597.65 303.048 600.283 299.756 603.292 296.827C613.334 286.898 628.528 284.342 641.267 290.437C649.871 294.622 656.8 302.481 653.86 317.377Z" fill="white"/>
<path d="M650.92 316.554C648.764 325.629 645.686 334.322 642.658 343.122C639.836 351.344 639.659 358.9 640.992 367.416C641.365 369.758 641.855 370.356 640.12 372.091C638.729 373.349 637.241 374.496 635.671 375.521C632.075 378.311 628.257 380.802 624.254 382.969C620.177 385.046 614.826 386.105 612.631 381.009C610.887 376.942 612.327 372.189 613.239 368.151C614.836 361.017 616.179 353.451 609.622 348.453C607.074 346.493 603.968 345.405 601.508 343.308C598.118 340.342 595.752 336.38 594.746 331.989C590.826 315.525 603.782 296.552 619.736 292.358C627.659 290.255 636.104 291.666 642.913 296.229C649.675 300.933 651.233 308.508 649.92 316.29C649.048 321.464 656.927 323.708 657.868 318.475C659.367 310.096 658.848 301.56 653.419 294.641C648.44 288.311 640.492 284.596 632.652 283.411C612.317 280.343 593.972 294.857 587.67 313.644C584.456 323.228 584.73 334.508 590.346 343.181C592.669 346.875 595.803 349.992 599.509 352.295C601.136 353.275 603.693 354.108 604.967 355.568C607.212 358.155 605.947 362.026 605.291 365.035C603.429 373.522 601.459 384.458 609.671 390.515C618.932 397.296 630.251 389.731 637.807 384.008C641.472 381.254 646.627 378.284 648.47 373.884C650.43 369.2 647.882 363.398 647.695 358.537C647.431 351.766 649.763 345.621 651.86 339.31C654.083 332.434 655.755 325.391 656.858 318.25C657.456 314.369 651.831 312.624 650.92 316.554Z" fill="#382C80"/>
<path d="M653.86 317.377C652.387 325.058 650.323 332.614 647.686 339.976C645.471 346.131 643.491 351.834 643.766 358.479C643.882 360.707 644.111 362.928 644.452 365.133C644.805 367.544 646.03 370.582 644.638 372.787C643.021 375.325 639.454 377.569 637.102 379.402C634.32 381.559 631.407 383.543 628.38 385.34C626.117 386.795 623.645 387.895 621.049 388.604C618.432 389.306 615.648 389.041 613.209 387.859C609.054 385.634 607.408 380.391 607.623 375.687C607.839 370.983 609.466 366.466 610.162 361.811C610.576 359.709 610.485 357.539 609.897 355.48C608.427 351.178 602.91 349.894 599.627 347.287C595.964 344.4 593.164 340.562 591.532 336.193C587.974 326.54 590.121 315.408 595.452 306.627C597.65 303.048 600.283 299.756 603.292 296.827C613.334 286.898 628.528 284.342 641.267 290.437C649.871 294.622 656.8 302.481 653.86 317.377Z" fill="white"/>
<path d="M650.92 316.554C648.764 325.629 645.686 334.322 642.658 343.122C639.836 351.344 639.659 358.9 640.992 367.416C641.365 369.758 641.855 370.356 640.12 372.091C638.729 373.349 637.241 374.496 635.671 375.521C632.075 378.311 628.257 380.802 624.254 382.969C620.177 385.046 614.826 386.105 612.631 381.009C610.887 376.942 612.327 372.189 613.239 368.151C614.836 361.017 616.179 353.451 609.622 348.453C607.074 346.493 603.968 345.405 601.508 343.308C598.118 340.342 595.752 336.38 594.746 331.989C590.826 315.525 603.782 296.552 619.736 292.358C627.659 290.255 636.104 291.666 642.913 296.229C649.675 300.933 651.233 308.508 649.92 316.29C649.048 321.464 656.927 323.708 657.868 318.475C659.367 310.096 658.848 301.56 653.419 294.641C648.44 288.311 640.492 284.596 632.652 283.411C612.317 280.343 593.972 294.857 587.67 313.644C584.456 323.228 584.73 334.508 590.346 343.181C592.669 346.875 595.803 349.992 599.509 352.295C601.136 353.275 603.693 354.108 604.967 355.568C607.212 358.155 605.947 362.026 605.291 365.035C603.429 373.522 601.459 384.458 609.671 390.515C618.932 397.296 630.251 389.731 637.807 384.008C641.472 381.254 646.627 378.284 648.47 373.884C650.43 369.2 647.882 363.398 647.695 358.537C647.431 351.766 649.763 345.621 651.86 339.31C654.083 332.434 655.755 325.391 656.858 318.25C657.456 314.369 651.831 312.624 650.92 316.554Z" fill="#382C80"/>
<path d="M599.646 310.645C603.214 311.4 605.526 313.673 602.459 317.074C601.195 318.485 599.254 319.396 598.206 320.994C596.04 324.287 599.362 326.59 602.067 327.913C604.399 329.059 606.369 325.796 604.115 324.404C603.498 324.042 602.9 323.659 602.312 323.238C601.724 322.817 601.881 322.542 602.704 322.258C603.38 321.278 604.664 320.425 605.468 319.416C606.594 318.056 607.278 316.384 607.428 314.624C607.643 310.361 604.096 308.46 600.372 307.872C598.559 307.587 597.735 310.282 599.597 310.684L599.646 310.645Z" fill="#382C80"/>
<path d="M614.847 316.985C614.218 316.979 613.621 317.26 613.226 317.749C612.831 318.238 612.68 318.881 612.818 319.494C612.985 320.064 613.402 320.526 613.95 320.753C614.499 320.98 615.12 320.946 615.641 320.66C616.514 320.193 617.066 319.289 617.081 318.298C617.095 317.308 616.571 316.387 615.712 315.894C614.852 315.401 613.793 315.414 612.946 315.927C611.926 316.645 611.403 317.88 611.596 319.111C611.79 320.343 612.666 321.358 613.857 321.729C615.157 321.957 616.456 321.314 617.062 320.141C617.391 319.546 617.336 318.812 616.921 318.273C616.505 317.735 615.81 317.494 615.151 317.662C614.925 317.711 614.69 317.76 614.465 317.828C614.357 317.862 614.252 317.905 614.151 317.956C613.896 318.063 613.847 318.083 614.014 317.956C614.186 317.854 614.4 317.854 614.572 317.956C615.043 318.083 615.18 318.093 614.964 317.956C614.465 317.505 615.2 318.387 615.239 318.455C615.239 318.7 615.278 318.524 615.239 318.455C615.229 318.335 615.229 318.214 615.239 318.093L615.111 318.553C615.066 318.627 615.006 318.69 614.935 318.74C614.729 318.892 614.455 318.915 614.226 318.798C613.998 318.682 613.855 318.447 613.857 318.191C613.876 318.04 613.922 317.894 613.994 317.76C613.971 317.815 613.941 317.868 613.906 317.916C613.984 317.838 614.171 317.583 613.906 317.916C613.828 317.995 613.857 317.965 613.906 317.916C614.425 317.475 615.053 317.671 615.778 318.504V319.328C615.707 319.496 615.6 319.646 615.464 319.769C615.608 319.674 615.743 319.566 615.866 319.445C616.269 319.021 616.385 318.398 616.16 317.858C615.935 317.317 615.413 316.96 614.827 316.946L614.847 316.985Z" fill="#382C80"/>
<path d="M596.402 312.82C595.772 312.813 595.172 313.096 594.777 313.587C594.381 314.079 594.233 314.724 594.374 315.339C594.548 315.894 594.959 316.342 595.497 316.564C596.035 316.785 596.643 316.757 597.157 316.486C598.031 316.019 598.582 315.114 598.597 314.124C598.612 313.133 598.088 312.212 597.228 311.719C596.369 311.227 595.309 311.239 594.462 311.752C593.495 312.403 592.964 313.533 593.08 314.692C593.154 316.03 594.079 317.169 595.373 317.515C596.675 317.75 597.978 317.11 598.588 315.937C598.92 315.332 598.858 314.588 598.43 314.047C598.003 313.506 597.292 313.274 596.628 313.457C596.392 313.498 596.16 313.554 595.932 313.624C595.827 313.653 595.725 313.692 595.628 313.742L595.491 313.8C595.662 313.694 595.879 313.694 596.05 313.8C596.52 313.928 596.647 313.938 596.442 313.8C595.932 313.35 596.677 314.232 596.716 314.3C596.716 314.545 596.755 314.369 596.716 314.3V313.938L596.589 314.398C596.546 314.474 596.485 314.537 596.412 314.584C596.203 314.73 595.931 314.748 595.705 314.631C595.478 314.513 595.336 314.281 595.334 314.026C595.355 313.874 595.405 313.728 595.481 313.595C595.454 313.653 595.421 313.709 595.383 313.761C595.471 313.673 595.648 313.428 595.383 313.761C595.295 313.849 595.383 313.761 595.383 313.761C595.912 313.317 596.54 313.513 597.265 314.349V315.172C597.189 315.335 597.082 315.481 596.951 315.604C597.097 315.515 597.229 315.406 597.343 315.28C597.741 314.864 597.861 314.254 597.651 313.718C597.44 313.182 596.938 312.816 596.363 312.781L596.402 312.82Z" fill="#382C80"/>
<path d="M624.588 348.6C621.562 348.979 618.505 349.055 615.464 348.826C612.23 348.6 609.388 347.287 606.311 346.415C601.999 345.18 599.725 351.129 603.371 353.471C610.103 357.842 619.129 357.283 626.117 354.147C628.723 352.971 627.508 348.218 624.617 348.6H624.588Z" fill="#382C80"/>
<path d="M620.805 313.349C618.757 310.723 615.444 310.282 612.308 310.635C609.966 310.89 609.829 314.369 612.308 314.388C614.337 314.388 617.032 314.006 618.737 315.368C619.313 315.896 620.201 315.878 620.754 315.327C621.308 314.777 621.33 313.888 620.805 313.31V313.349Z" fill="#382C80"/>
<path d="M608.888 334.017C608.888 333.958 608.721 333.645 608.79 333.89C608.859 334.135 608.682 333.635 608.79 333.978C608.898 334.321 608.731 333.86 608.79 333.831C608.672 333.88 608.849 334.223 608.79 333.949L608.839 333.821C608.721 334.056 608.702 334.115 608.78 333.988C608.859 333.86 608.555 334.252 608.712 334.076C608.868 333.9 608.369 334.301 608.712 334.135C608.623 334.184 608.339 334.262 608.594 334.213C607.957 334.341 608.398 334.213 608.496 334.213C608.594 334.213 608.084 334.135 608.329 334.213C608.574 334.292 607.947 333.978 608.241 334.213C608.163 334.164 607.928 333.939 608.114 334.135C607.937 333.89 607.879 333.831 607.967 333.968C608.055 334.105 607.967 334.037 607.967 333.88C607.967 333.723 607.888 333.704 607.967 333.811C608.045 333.919 607.967 333.88 607.967 333.547C607.956 333.628 607.956 333.71 607.967 333.792V333.459C607.967 333.615 607.967 333.625 607.967 333.459C608.163 333.037 607.771 333.655 608.075 333.292C608.182 333.155 608.212 333.125 608.133 333.204C608.055 333.282 608.084 333.263 608.369 333.027C608.114 333.184 608.555 332.949 608.604 332.929C608.241 333.047 609.113 332.929 608.829 332.929C608.457 332.929 608.731 332.929 608.829 332.929C608.829 332.929 609.388 333.008 608.829 332.929C608.829 332.929 609.368 333.253 609.094 333.037L609.398 333.282C609.28 333.155 609.29 333.184 609.398 333.361C609.494 333.45 609.562 333.566 609.594 333.694C609.662 333.89 609.682 333.939 609.652 333.821C609.623 333.704 609.652 333.753 609.701 334.184L609.633 334.595C609.633 334.595 609.692 334.399 609.692 334.37C609.525 334.742 609.486 334.85 609.584 334.693C609.682 334.537 609.584 334.625 609.496 334.801C609.182 335.213 609.711 334.674 609.3 334.997C609.113 335.134 609.094 335.154 609.241 335.066L608.868 335.213H609.084C609.494 335.085 609.868 334.86 610.172 334.556C610.9 333.828 611.045 332.701 610.525 331.812C610.232 331.385 609.829 331.047 609.358 330.832C609.02 330.691 608.657 330.618 608.29 330.617C607.604 330.635 606.941 330.872 606.399 331.293C605.51 331.974 604.972 333.016 604.929 334.135C604.931 335.25 605.454 336.3 606.342 336.974C607.23 337.649 608.381 337.871 609.456 337.575C610.807 337.222 611.84 336.132 612.117 334.763C612.394 333.395 611.868 331.988 610.761 331.138C609.654 330.288 608.159 330.142 606.908 330.764C605.925 331.276 605.245 332.228 605.081 333.325C604.916 334.422 605.286 335.531 606.075 336.31C606.709 336.924 607.696 336.983 608.398 336.448C609.104 335.91 609.298 334.93 608.849 334.164L608.888 334.017Z" fill="#382C80"/>
<path d="M643.884 336.869C645.089 333.929 646.569 331.126 647.333 327.941C647.941 325.374 647.618 322.336 645.609 320.64C643.641 319.186 641.013 318.995 638.856 320.15C636.661 321.218 632.751 324.492 632.173 327.01C631.827 323.958 632.361 320.871 633.711 318.112C635.093 315.319 638.611 312.095 637.377 308.733C636.034 305.048 630.791 304.715 627.577 304.754C619.521 304.843 612.142 304.872 604.419 302.726C596.697 300.58 589.719 300.452 584.094 293.906C582.549 292.326 581.638 290.233 581.536 288.026C581.693 282.283 588.053 282.391 591.032 279.529C594.707 275.991 596.775 271.562 601.166 268.426C609.377 262.568 619.535 260.11 629.517 261.566C639.513 263.134 647.588 268.553 654.478 275.688C660.759 282.175 663.239 291.368 671.598 295.836C675.773 298.061 680.516 299.002 684.72 301.177C688.925 303.353 692.737 307.391 692.462 312.104C692.247 315.75 689.65 319.435 691.139 322.767C692.325 325.423 695.5 326.393 698.264 327.285C705.359 329.578 712.2 333.351 716.737 339.26C721.274 345.17 723.136 353.46 720.157 360.291C716.962 367.602 709.152 371.786 701.478 374.011C685.691 378.548 670.755 375.971 655.712 370.395C641.649 365.171 639.562 357.518 642.296 342.034C642.636 340.259 643.168 338.528 643.884 336.869Z" fill="#382C80"/>
<path d="M646.658 338.486C649.647 332.077 655.291 321.229 646.315 316.642C639.239 313.026 630.84 319.504 628.351 325.962L636.191 327.02C635.946 323.832 636.812 320.657 638.641 318.034C640.023 315.878 641.434 313.849 641.718 311.233C642.306 305.803 638.151 302.128 633.192 301.05C627.312 299.767 621.021 300.786 615.072 300.296C608.124 299.663 601.277 298.199 594.678 295.935C591.738 294.955 588.514 293.191 586.76 290.457C584.633 287.134 586.613 286.664 589.141 285.4C594.384 282.773 596.834 278.628 600.715 274.414C610.241 264.055 627.175 262.527 639.278 268.769C644.784 271.645 649.654 275.601 653.596 280.402C657.232 284.861 659.623 290.202 663.631 294.406C667.639 298.61 672.637 300.502 677.939 302.481C681.007 303.628 684.339 304.863 686.553 307.381C689.836 311.174 687.416 314.427 686.887 318.671C686.23 323.943 688.954 327.726 693.668 329.794C699.803 332.479 705.928 334.008 710.975 338.741C715.65 343.132 718.815 349.835 717.286 356.332C715.679 363.035 709.25 366.955 703.184 369.072C687.661 374.57 669.1 371.944 654.351 365.152C650.117 363.192 646.726 360.546 645.834 355.774C644.756 350.031 645.952 343.288 647.99 337.928C649.95 332.842 641.758 330.627 639.847 335.674C636.083 345.621 635.054 359.478 643.208 367.583C647.696 372.051 653.988 374.237 659.868 376.128C668.099 378.934 676.73 380.387 685.426 380.43C698.813 380.254 716.914 376.04 723.421 362.839C730.134 349.217 721.334 334.419 709.299 327.559C706.378 325.923 703.306 324.571 700.126 323.522C698.96 323.12 696.598 322.757 695.697 321.787C693.913 319.827 696.01 315.956 696.334 313.869C697.314 307.371 693.58 301.56 688.063 298.326C681.428 294.406 673.49 294.063 668.218 287.918C663.808 282.793 661.024 276.57 656.242 271.699C645.638 260.919 631.105 255.206 616.062 257.872C608.898 259.136 601.284 262.35 595.992 267.466C593.493 269.896 591.748 272.993 589.298 275.463C587.407 277.364 585.104 277.952 582.85 279.294C576.294 283.214 576.392 290.809 580.949 296.337C586.015 302.501 593.159 304.177 600.549 306.019C605.03 307.233 609.597 308.107 614.21 308.636C619.041 309.077 623.853 308.743 628.684 308.91C629.753 308.91 632.604 308.822 633.232 309.812C634.035 311.086 631.448 313.849 630.831 314.937C628.773 318.595 627.878 322.792 628.263 326.971C628.257 328.974 629.738 330.671 631.723 330.936C633.708 331.202 635.582 329.954 636.103 328.02C637.083 325.227 642.826 320.709 644.012 325.737C644.668 328.549 641.856 333.41 640.885 335.968C639.504 339.388 645.119 341.789 646.658 338.486Z" fill="#382C80"/>
<path d="M203.325 255C224.13 285.684 244.926 316.172 267.358 345.709C289.61 375.017 312.804 403.584 336.938 431.41C350.805 447.423 364.545 463.917 379.921 478.499C383.615 482.007 388.506 476.823 385.399 473.021C373.884 458.899 361.183 445.738 349.139 432.037C336.915 418.115 324.89 404.022 313.065 389.76C289.369 361.34 266.643 332.087 244.387 302.481C231.97 285.968 219.456 269.426 207.764 252.384C205.892 249.649 201.404 252.227 203.286 255H203.325Z" fill="#382C80"/>
<path d="M280.02 373.06C280.853 369.14 285.439 366.876 289.3 367.749C293.161 368.621 296.16 371.992 297.405 375.745C298.649 379.499 298.561 383.585 298.071 387.505C301.06 386.251 304.108 384.977 307.332 384.693C310.556 384.409 314.055 385.261 316.211 387.692C318.367 390.122 318.828 393.983 318.004 397.256C317.181 400.53 315.339 403.44 313.516 406.292C317.367 403.489 323.189 404.254 326.589 407.586C329.99 410.918 330.989 416.278 329.529 420.825C328.049 425.549 325.031 427.627 321.219 430.175C317.152 432.879 315.613 437.593 314.898 442.385C314.463 444.291 314.673 446.287 315.496 448.06" fill="white"/>
<path d="M283.254 373.952C285.028 369.16 290.633 371.668 292.544 374.755C294.857 378.519 294.338 383.33 293.838 387.495C293.534 390.053 296.778 392.542 299.198 391.582C302.893 390.083 309.116 387.045 312.595 390.367C316.515 394.13 311.948 400.608 309.743 404.087C307.381 407.791 312.046 412.329 315.731 410.075C320.631 407.037 325.747 411.231 325.776 416.601C325.776 421.776 322.101 424.03 318.436 426.774C311.733 431.801 308.254 442.375 312.066 450.088C314.085 454.165 320.758 451.323 319.406 447.001C318.426 444.061 319.72 439.161 321.366 436.525C322.865 434.065 325.453 432.84 327.618 431.076C332.046 427.575 334.633 422.245 334.645 416.601C334.547 404.704 322.052 395.884 311.341 402.519L317.328 408.507C321.709 401.568 325.972 391.729 319.288 384.634C312.86 377.774 303.354 380.714 295.945 383.86L302.315 387.515C303.148 379.067 301.58 369.189 293.064 365.142C286.625 362.084 278.716 365.142 276.805 372.168C275.649 376.392 281.784 377.931 283.264 373.952H283.254Z" fill="#382C80"/>
<path d="M585.26 397.757C585.26 407.233 577.89 414.593 572.098 421.326C566.307 428.058 560.534 435.261 559.358 444.277C557.585 457.37 565.15 469.983 568.267 482.34C571.981 497.04 571.04 510.574 563.435 523.834C549.833 547.599 532.144 569.11 515.797 590.993C504.037 606.761 492.875 623.833 487.328 642.933C485.104 650.597 483.408 659.75 486.868 667.325C491.611 677.752 503.322 678.301 513.328 677.243C517.777 676.772 517.973 669.922 513.328 670.157C504.87 670.579 494.218 670.677 492.885 660.23C491.964 653.037 494.531 645.383 497.021 638.758C504.057 620.04 515.876 603.762 527.92 587.994C536.113 577.214 544.198 566.434 551.91 555.35C559.113 544.962 567.002 534.457 572.49 523.01C577.978 511.564 579.174 499.726 577.018 487.338C575.918 481.409 574.352 475.577 572.334 469.894C570.089 463.348 566.944 456.684 566.454 449.687C565.101 428.803 592.414 419.199 590.885 397.747C590.63 394.14 585.221 394.052 585.211 397.747L585.26 397.757Z" fill="#382C80"/>
<path d="M526.686 654.643C528.528 651.458 530.4 648.283 532.154 645.049C532.576 644.329 532.335 643.403 531.615 642.981C530.895 642.559 529.97 642.8 529.547 643.52C527.646 646.676 525.863 649.9 524.05 653.105C523.683 653.827 523.943 654.709 524.642 655.117C525.341 655.525 526.237 655.317 526.686 654.643Z" fill="#382C80"/>
<path d="M569.58 675.802C572.889 671.931 575.841 667.768 578.4 663.366C579.469 661.504 576.754 659.985 575.558 661.7C572.736 665.747 569.884 669.775 566.964 673.754C565.827 675.293 568.375 677.272 569.61 675.802H569.58Z" fill="#382C80"/>
<path d="M623.196 701.88C622.51 696.755 622.441 691.566 622.991 686.425C623.187 684.593 620.051 684.152 619.747 685.984C618.769 691.541 618.872 697.234 620.051 702.752C620.541 704.82 623.481 703.84 623.196 701.88Z" fill="#382C80"/>
<path d="M679.409 699.92C679.012 703.836 679.929 707.774 682.016 711.112C682.517 711.859 683.513 712.088 684.291 711.634C685.068 711.181 685.359 710.201 684.956 709.397C683.314 706.519 682.545 703.227 682.741 699.92C682.868 697.764 679.585 697.813 679.399 699.92H679.409Z" fill="#382C80"/>
<path d="M727.194 694.039C728.233 697.754 729.154 701.507 730.457 705.143C730.721 705.948 731.571 706.405 732.388 706.179C733.205 705.954 733.701 705.127 733.515 704.3C732.672 700.537 731.496 696.852 730.418 693.148C730.13 692.31 729.24 691.842 728.387 692.078C727.533 692.314 727.011 693.173 727.194 694.039Z" fill="#382C80"/>
<path d="M729.633 457.576C729.437 452.029 733.945 446.521 736.944 442.111C740.208 437.29 743.853 432.782 747.528 428.274C749.008 426.461 746.548 423.864 744.912 425.657C740.444 430.686 736.411 436.086 732.858 441.798C729.859 446.531 726.115 451.715 726.537 457.576C726.684 459.536 729.702 459.585 729.633 457.576Z" fill="#382C80"/>
<path d="M518.454 397.541C519.27 406.944 522.586 415.958 528.058 423.648C529.44 425.608 532.674 423.727 531.272 421.767C526.039 414.653 522.73 406.309 521.668 397.541C521.433 395.522 518.258 395.464 518.454 397.541Z" fill="#382C80"/>
<path d="M499.677 401.932C498.589 437.212 512.466 472.815 540.023 495.561C544.11 498.942 549.99 493.346 545.903 489.632C521.472 467.092 505.282 435.565 504.939 401.932C504.939 398.511 499.735 398.521 499.628 401.932H499.677Z" fill="#382C80"/>
<path d="M803.937 503.401C808.573 493.395 813.6 483.467 817.991 473.373C819.755 469.306 814.316 465.818 811.885 469.806C806.123 479.302 801.84 490.582 798.89 501.274C798.087 504.214 802.585 506.311 803.937 503.401Z" fill="#382C80"/>
<path d="M202.384 255.98C206.236 256.813 208.166 250.325 206.794 247.552C205.797 245.628 203.552 244.71 201.492 245.386C199.575 246.06 198.18 247.73 197.857 249.737C197.364 251.785 197.944 253.943 199.395 255.47C200.974 256.812 203.226 257.016 205.02 255.98C206.713 254.98 207.546 252.986 207.069 251.08C206.579 249.178 204.815 247.375 202.737 247.532C201.673 247.552 200.783 248.346 200.641 249.4C200.499 250.455 201.148 251.455 202.169 251.756C202.502 251.864 202.678 251.834 202.796 252.226C202.796 252.363 202.923 252.226 202.747 252.226C201.826 252.461 201.894 251.099 202.022 250.472C202.149 249.845 203.149 248.512 203.609 249.59C203.795 250.011 203.296 253 202.786 252.932C201.061 252.716 200.689 255.588 202.374 255.96L202.384 255.98Z" fill="#382C80"/>
<path d="M271.66 549.715C269.769 601.655 270.122 653.674 269.7 705.614C269.279 757.554 268.671 809.552 268.152 861.512C268.044 872.361 265.731 885.914 276.178 892.872C280.657 895.812 285.498 897.233 288.634 901.917C291.633 906.585 292.559 912.289 291.192 917.666C289.976 922.889 297.434 924.879 299.159 919.871C302.099 911.365 299.914 901.947 294.318 895.028C291.564 891.627 288.124 889.442 284.292 887.453C282.068 886.286 279.49 885.189 278.138 882.945C276.56 880.338 276.658 876.947 276.639 874.027C276.482 847.792 276.874 821.538 276.972 795.303C277.178 743.363 277.579 691.423 277.873 639.415C278.04 609.525 278.442 579.635 277.805 549.764C277.717 545.844 271.817 545.844 271.68 549.764L271.66 549.715Z" fill="#382C80"/>
<path d="M52.336 98.8658C109.176 98.9932 166.016 100.659 222.768 101.865C278.954 103.054 335.112 104.161 391.24 105.187C423.237 105.804 455.234 106.706 487.28 106.98C492.062 106.98 492.052 99.6988 487.28 99.5518C374.315 96.2394 261.272 95.3672 148.327 93.3778C116.32 92.8094 84.3232 92.3194 52.336 91.1728C47.436 90.9964 47.3674 98.856 52.336 98.8658Z" fill="#382C80"/>
<path d="M270.455 77.0412C270.308 80.4124 270.259 83.7738 270.21 87.1548C270.161 90.5358 269.808 93.711 270.612 96.8764C271.592 100.689 277.364 100.689 278.324 96.8764C279.118 93.7208 278.775 90.3888 278.726 87.1548C278.726 83.7738 278.628 80.4124 278.481 77.0412C278.256 71.8766 270.69 71.8668 270.455 77.0412Z" fill="#382C80"/>
<path d="M103.1 264.564C103.972 326.167 106.118 387.858 111.273 449.255C111.469 451.568 115.066 451.607 114.909 449.255C110.744 387.74 107.069 326.226 105.726 264.564C105.726 263.839 105.139 263.251 104.413 263.251C103.688 263.251 103.1 263.839 103.1 264.564H103.1Z" fill="white"/>
<path d="M136.596 320.052C137.507 342.19 138.36 364.338 139.32 386.476C140.281 408.615 140.496 430.851 142.339 452.891C142.525 455.155 145.935 455.223 145.916 452.891C145.7 430.772 143.848 408.566 142.75 386.476C141.653 364.387 140.457 342.19 139.301 320.052C139.213 318.327 136.527 318.308 136.596 320.052Z" fill="white"/>
<path d="M173.66 340.995C174.023 359.615 174.493 378.294 174.973 396.953C175.195 405.956 175.424 414.959 175.659 423.962C175.895 433.517 175.463 443.415 176.639 452.911C176.709 453.858 177.498 454.591 178.447 454.591C179.397 454.591 180.186 453.858 180.256 452.911C180.834 443.375 179.815 433.507 179.481 423.962C179.168 414.952 178.861 405.949 178.56 396.953C177.907 378.294 177.231 359.641 176.532 340.995C176.463 339.172 173.66 339.162 173.699 340.995H173.66Z" fill="white"/>
<path d="M207.764 341.867C208.656 359.908 209.724 377.95 210.567 396.002C210.978 405.024 211.351 414.053 211.684 423.089C212.017 432.056 211.684 441.268 212.752 450.186C212.822 451.138 213.615 451.875 214.57 451.875C215.525 451.875 216.318 451.138 216.388 450.186C216.829 441.229 215.849 432.046 215.408 423.089C214.967 414.132 214.536 405.028 214.046 396.002C213.066 377.94 212.027 359.879 210.528 341.867C210.381 340.093 207.646 340.054 207.735 341.867H207.764Z" fill="white"/>
<path d="M236.204 336.438C236.988 343.416 237.753 350.393 238.644 357.361C238.929 359.576 242.447 359.605 242.163 357.361C241.241 350.246 240.203 343.141 239.164 336.036C238.929 334.37 236.008 334.743 236.224 336.438H236.204Z" fill="white"/>
<path d="M244.024 440.22C244.338 444.767 244.554 449.334 245.063 453.862C245.289 455.871 248.366 455.988 248.287 453.862C248.131 449.315 247.67 444.767 247.307 440.22C247.141 438.133 243.877 438.103 244.024 440.22Z" fill="white"/>
<path d="M277.687 322.806L277.628 330.989C277.628 333.302 281.234 333.311 281.215 330.989L281.156 322.806C281.156 321.848 280.379 321.071 279.421 321.071C278.463 321.071 277.687 321.848 277.687 322.806Z" fill="white"/>
<path d="M73.0632 208.627C75.1996 207.147 77.1988 205.52 79.2372 203.913C82.236 201.551 82.3046 200.238 84.8134 203.109C88.4394 207.245 90.8698 212.341 94.6134 216.32C97.0634 218.936 101.699 216.231 100.64 212.811C99.4644 208.999 96.9752 205.814 94.5154 202.707C92.3888 200.003 90.0564 196.7 87.0968 194.867C80.521 190.722 73.3768 199.483 69.2216 203.687C66.7422 206.167 70.0252 210.802 73.073 208.685L73.0632 208.627Z" fill="#382C80"/>
<path d="M58.3434 262.046C60.764 262.046 63.2434 262.33 65.615 262.33C69.7506 262.33 69.7604 255.901 65.615 255.901C63.1944 255.901 60.715 256.156 58.3434 256.195C54.5704 256.254 54.5704 261.987 58.3434 262.075V262.046Z" fill="#382C80"/>
<path d="M53.8453 295.826C57.4326 296.694 61.0683 297.348 64.7331 297.786C68.5159 298.1 69.0255 292.386 65.6053 291.348C62.326 290.492 58.9976 289.838 55.6387 289.388C53.8486 288.942 52.0229 289.975 51.4835 291.74C51.0056 293.539 52.0555 295.391 53.8453 295.905V295.826Z" fill="#382C80"/>
<path d="M57.4224 349.815C59.8528 349.492 62.3224 349.168 64.694 348.757C68.3984 348.13 67.585 341.671 63.7924 342.122C61.362 342.406 58.8924 342.769 56.5208 343.102C54.8744 343.357 53.865 345.327 54.0904 346.826C54.3158 348.326 55.727 350.001 57.4224 349.766V349.815Z" fill="#382C80"/>
<path d="M59.2355 398.727C62.2854 400.523 65.7257 401.552 69.2609 401.726C73.1809 401.863 73.8473 396.042 70.1625 395.032C67.6643 394.427 65.2368 393.559 62.9203 392.445C58.7847 390.299 55.1391 396.453 59.2551 398.727H59.2355Z" fill="#382C80"/>
<path d="M59.3042 437.808L64.753 438.788C66.5037 439.247 68.3006 438.225 68.8004 436.485C69.1532 434.927 68.3202 432.761 66.5268 432.477L61.0486 431.605C59.3533 431.214 57.6435 432.197 57.1286 433.859C56.6945 435.558 57.6884 437.293 59.3728 437.779L59.3042 437.808Z" fill="#382C80"/>
<path d="M126.14 494.756C125.653 498.698 126.083 502.699 127.394 506.448C127.802 507.81 129.127 508.685 130.54 508.525C131.976 508.351 133.054 507.13 133.049 505.683C132.48 502.071 132.286 498.409 132.471 494.756C132.823 490.67 126.473 490.709 126.11 494.756H126.14Z" fill="#382C80"/>
<path d="M165.291 498.343L167.153 506.526C168.055 510.446 174.092 508.8 173.239 504.85L171.465 496.648C170.593 492.63 164.38 494.325 165.291 498.343Z" fill="#382C80"/>
<path d="M225.355 499.255L227.148 506.537C228.128 510.604 234.469 508.879 233.43 504.812L231.588 497.54C230.559 493.513 224.365 495.218 225.355 499.255Z" fill="#382C80"/>
<path d="M272.473 498.403L274.237 504.782C275.355 508.82 281.695 507.095 280.519 503.048L278.677 496.688C277.52 492.768 271.376 494.394 272.473 498.403Z" fill="#382C80"/>
<path d="M135.038 222.17C130.804 220.455 125.679 223.973 125.454 228.422C125.199 233.498 130.216 237.066 134.969 235.978C136.713 235.471 137.912 233.873 137.909 232.058L138.007 225.57C137.956 223.328 136.153 221.521 133.911 221.464C132.495 221.282 131.059 221.352 129.668 221.67C128.001 222.146 126.846 223.661 126.826 225.394C126.874 227.117 128.018 228.617 129.668 229.118C131.04 229.545 132.475 229.73 133.911 229.667L129.824 225.6L129.883 232.087L132.823 228.216C133.323 228.216 133.333 228.216 132.823 228.216H133.205C132.755 228.079 132.764 228.079 133.205 228.216L132.902 228.03C133.245 228.295 133.254 228.265 132.902 227.952L133.117 228.187C132.735 227.589 133.117 228.344 133.117 228.706C133.117 229.069 133.117 228.961 133.166 228.579C133.009 228.941 133 229 133.117 228.745C133.333 228.148 133.519 228.51 133.117 228.628H133.225C133.47 228.569 133.441 228.569 133.117 228.628C133.529 228.628 133.548 228.628 133.186 228.628C134.975 229.083 136.804 228.045 137.331 226.276C137.86 224.316 136.665 222.826 134.979 222.14L135.038 222.17Z" fill="#382C80"/>
<path d="M282.323 267.984C278.011 268.435 273.816 272.091 273.346 276.52C273.013 280.886 276.072 284.783 280.392 285.497C282.527 285.951 284.751 285.386 286.41 283.969C288.069 282.552 288.974 280.444 288.859 278.265C288.624 273.933 284.371 269.552 279.843 271.346C277.883 272.13 276.453 274.002 277.07 276.246C277.67 278.355 279.853 279.591 281.97 279.019C281.529 279.147 281.117 278.617 280.853 278.627C281.098 278.627 280.853 279.166 281.01 278.902C281.166 278.637 281.754 278.088 281.813 277.971C281.754 278.088 281.382 277.971 281.147 277.804C278.844 276.177 282.244 273.884 283.724 273.09C286.027 271.885 285.067 267.72 282.342 268.004L282.323 267.984Z" fill="#382C80"/>
<path d="M411.075 340.26H410.821L412.212 341.083C409.537 338.447 405.352 340.956 404.568 344.092C404.231 345.49 404.622 346.964 405.607 348.012C405.999 348.482 406.391 348.992 406.812 349.394C407.32 349.982 407.892 350.511 408.518 350.972C409.41 351.473 410.452 351.643 411.458 351.452C413.996 351.02 415.929 348.939 416.171 346.375C416.612 343.043 413.917 339.231 410.164 340.437C408.827 340.821 407.78 341.864 407.391 343.2C407.041 344.57 407.41 346.024 408.371 347.061C407.675 346.179 407.724 346.258 408.537 347.297L409.38 347.943C409.596 348.11 409.537 348.051 409.184 347.787C408.853 347.574 408.586 347.276 408.41 346.924C408.704 347.463 408.047 345.866 408.214 346.473C407.841 345.092 408.214 345.621 408.126 345.993L408.233 345.229C408.233 345.327 408.233 345.435 408.165 345.533C408.253 345.327 408.684 344.553 408.302 345.111C408.589 344.747 408.918 344.418 409.282 344.131C409.008 344.288 409.204 344.2 409.89 343.867C410.683 343.808 410.87 343.769 410.478 343.739L413.222 344.876C412.389 344.131 411.546 343.416 410.664 342.72L411.644 344.337C411.903 345.135 411.593 346.007 410.889 346.464C410.752 346.542 410.262 346.718 410.683 346.552C411.268 346.337 411.802 346.003 412.251 345.572L410.017 346.493H410.233C411.807 346.488 413.136 345.323 413.349 343.763C413.561 342.203 412.591 340.725 411.075 340.299V340.26Z" fill="#382C80"/>
<path d="M156.02 217.965C197.64 207.077 242.142 223.767 265.554 259.978C267.083 262.339 270.876 260.144 269.337 257.773C244.837 220.131 198.493 202.471 155.275 215.26C154.528 215.466 154.089 216.238 154.295 216.985C154.501 217.732 155.273 218.171 156.02 217.965Z" fill="#7F72FF"/>
<path d="M302.676 280.568C338.25 284.116 379.665 289.388 397.736 324.923C398.981 327.373 402.391 325.227 401.352 322.816C385.045 285.38 338.299 279.549 302.676 277.54C300.716 277.432 300.795 280.343 302.676 280.48V280.568Z" fill="#7F72FF"/>
<path d="M449.853 162.958C429.079 162.438 408.297 163.529 387.692 166.222C385.046 166.555 380.058 166.222 378 168.319C376.167 170.171 377.225 173.033 377.676 175.247C379.721 185.472 381.776 195.694 383.84 205.912C384.102 206.834 384.94 207.472 385.898 207.48C408.962 206.393 431.948 204.038 454.753 200.424C455.684 200.152 456.328 199.305 456.341 198.336C456.911 191.732 456.598 185.081 455.41 178.56C454.949 175.992 451.108 177.109 451.49 179.638C452.464 185.833 452.632 192.128 451.99 198.366L453.577 196.278C431.151 199.804 408.553 202.13 385.879 203.246L387.927 204.814C386.287 196.758 384.654 188.709 383.027 180.667C382.537 178.276 381.655 175.669 381.508 173.238C381.312 170.093 384.007 170.857 386.741 170.504C390.857 169.962 394.983 169.475 399.119 169.044C415.975 167.28 432.919 166.427 449.853 165.957C450.573 165.839 451.102 165.217 451.102 164.487C451.102 163.757 450.573 163.135 449.853 163.017V162.958Z" fill="#7F72FF"/>
<path d="M396.668 180.569C408.712 180.942 420.835 181.069 432.928 180.795C433.859 180.795 434.614 180.04 434.614 179.109C434.614 178.178 433.859 177.423 432.928 177.423C420.874 177.149 408.752 177.286 396.668 177.649C395.856 177.649 395.198 178.307 395.198 179.119C395.198 179.931 395.856 180.589 396.668 180.589V180.569Z" fill="#7F72FF"/>
<path d="M403.46 191.868C405.352 191.868 407.233 191.868 409.125 191.819C409.893 191.819 410.516 191.196 410.516 190.427C410.516 189.658 409.893 189.035 409.125 189.035C407.233 189.035 405.352 188.977 403.46 188.986C402.665 188.986 402.02 189.631 402.02 190.427C402.02 191.223 402.665 191.868 403.46 191.868Z" fill="#7F72FF"/>
<path d="M430.636 215.653C435.163 216.133 439.681 216.633 444.209 217.074C446.423 217.28 446.414 213.811 444.209 213.595C439.691 213.164 435.163 212.811 430.636 212.429C428.558 212.253 428.607 215.438 430.636 215.653Z" fill="#7F72FF"/>
<path d="M437.417 229.52H440.808C441.761 229.52 442.533 228.748 442.533 227.795C442.533 226.843 441.761 226.07 440.808 226.07H437.417C436.459 226.07 435.683 226.847 435.683 227.805C435.683 228.763 436.459 229.54 437.417 229.54V229.52Z" fill="#7F72FF"/>
<path d="M172.249 148.405C167.751 149.503 160.391 154.285 165.771 159.185C168.476 161.645 173.013 162.125 176.463 161.596C181.676 160.841 184.43 156.569 189.105 155.324C194.73 153.825 202.041 155.451 207.842 155.765L225.943 156.745C238.32 157.402 250.698 158.127 263.085 158.578C265.417 158.666 265.388 155.138 263.085 154.971C245.327 153.756 227.531 153.011 209.753 152.031L196.416 151.335C193.27 151.169 189.752 150.571 186.753 151.835C183.117 153.374 180.981 156.853 176.953 157.862C174.876 158.391 172.699 158.391 170.622 157.862C167.519 157.509 167.192 155.7 169.642 152.433C170.699 151.829 171.842 151.392 173.033 151.139C173.745 150.893 174.143 150.136 173.944 149.409C173.745 148.683 173.016 148.235 172.278 148.386L172.249 148.405Z" fill="#7F72FF"/>
<path d="M177.698 174.199C181.353 181.911 191.055 181.323 197.729 178.373C204.04 175.58 209.332 172.346 216.427 171.905C223.101 171.494 229.765 172.778 236.302 173.934C238.81 174.385 239.918 170.573 237.37 170.063C227.687 168.103 217.28 166.31 207.637 169.406C200.287 171.768 185.998 183.607 180.334 172.66C179.422 170.906 176.865 172.444 177.698 174.199Z" fill="#7F72FF"/>
<path d="M271.043 177.403H274.433C275.337 177.403 276.07 176.671 276.07 175.767C276.07 174.863 275.337 174.13 274.433 174.13L271.043 174.071C268.867 174.071 268.857 177.482 271.043 177.452V177.403Z" fill="#7F72FF"/>
<path d="M458.016 269.053C453.39 268.886 449.519 272.738 448.912 277.216C448.236 282.116 451.793 286.213 456.546 287.016C461.377 287.986 466.212 285.374 468.051 280.803C469.698 276.452 468.463 269.474 463.906 267.269C463.074 266.876 462.081 267.114 461.518 267.842C460.955 268.57 460.974 269.591 461.564 270.297C463.524 272.787 465.219 275.001 464.504 278.402C463.882 281.428 461.082 283.502 458.006 283.214C455.145 283.067 452.469 281.254 452.508 278.128C452.548 275.001 454.88 272.248 457.996 272.248C460.084 272.248 460.074 269.092 457.996 269.023L458.016 269.053Z" fill="#7F72FF"/>
<path d="M459.33 310.781C455.9 309.125 452.088 311.095 450.814 314.633C449.138 319.327 453.117 323.776 456.508 326.393C460.496 329.499 465.328 330.46 469.248 326.559C472.697 323.11 473.266 317.014 470.865 312.839C470.472 312.276 469.768 312.022 469.107 312.205C468.445 312.388 467.972 312.968 467.925 313.653C468.052 315.858 468.689 317.974 468.297 320.189C467.748 323.198 465.269 326.197 461.868 325.266C459.8 324.707 457.733 322.776 456.312 321.248C455.217 320.21 454.436 318.885 454.058 317.426C453.764 315.573 455.204 312.104 457.88 313.29C459.565 314.035 461.074 311.595 459.359 310.762L459.33 310.781Z" fill="#7F72FF"/>
</svg>
