<svg width="1000" height="1000" viewBox="0 0 1000 1000" fill="none" xmlns="http://www.w3.org/2000/svg">
<path d="M755.78 397.384C773.864 459.509 792.51 521.481 811.718 583.3C831.779 648.205 851.898 713.111 871.165 778.261C881.22 812.12 890.452 846.263 900.408 880.24C902.045 885.826 910.571 883.493 909.14 877.829C901.486 847.576 892.323 817.647 883.435 787.738C873.896 755.652 864.155 723.639 854.211 691.698C834.053 626.724 813.384 561.985 793.02 497.158C782.407 463.407 771.705 429.685 761.513 395.806C760.415 392.17 754.731 393.709 755.8 397.384H755.78Z" fill="#382C80"/>
<path d="M512.544 568.953C600.323 594.051 685.279 580.145 774.008 583.026C778.79 583.183 783.926 583.251 787.914 580.831C792.599 577.969 794.363 572.511 795.519 567.454C803.81 531.253 804.751 491.739 809.337 454.754L824.38 333.489L854.427 90.9386C855.309 83.8238 855.877 75.7388 850.644 70.4272C847.577 67.3108 843.049 65.8016 838.659 64.606C816.726 58.6672 793.579 57.8342 770.764 57.0404L559.956 49.71L527.489 254.383C517.464 317.593 512.534 380.607 501.431 443.797C495.796 475.853 489.338 508.017 489.808 540.474C489.906 547.334 490.523 554.753 495.227 560.074C499.441 564.896 506.145 567.121 512.544 568.953Z" fill="white"/>
<path d="M511.672 572.099C580.87 591.855 652.674 587.553 723.734 586.416C741.619 586.132 759.484 586.848 777.36 586.74C784.857 586.74 791.834 584.535 795.735 577.685C799.449 571.177 800.36 562.877 801.683 555.635C808.034 521.001 809.259 485.663 813.61 450.775C822.9 376.393 832.187 302.011 841.471 227.629L855.348 116.399C856.495 107.265 857.778 98.1314 858.768 88.9586C859.513 82.0986 859.307 74.6506 854.848 68.9862C850.076 62.9004 842.01 61.009 834.846 59.3038C826.267 57.3535 817.574 55.9428 808.818 55.08C791.276 53.1984 773.538 52.8946 755.976 52.2576C737.18 51.5259 718.383 50.8334 699.587 50.18L587.485 46.26L559.956 45.28C558.212 45.2212 556.036 46.6814 555.703 48.5238C544.247 120.485 532.183 192.368 521.344 264.428C515.974 300.08 511.966 335.87 507.389 371.62C505.086 389.554 502.626 407.478 499.765 425.334C496.903 443.189 493.395 461.074 490.514 478.989C487.397 498.461 484.957 518.12 485.006 537.867C485.006 546.05 485.378 554.87 490.465 561.691C495.551 568.512 503.548 571.099 511.339 573.353C516.964 574.98 519.365 566.219 513.749 564.592C507.497 562.779 500.167 560.486 496.962 554.292C493.689 547.942 494.473 539.504 494.6 532.605C494.914 515.474 496.991 498.432 499.686 481.527C502.45 464.259 505.792 447.09 508.555 429.832C511.319 412.574 513.74 395.032 515.974 377.578C520.433 342.896 524.206 308.126 529.194 273.512C534.222 238.683 540.043 203.932 545.531 169.211C551.764 129.756 557.993 90.311 564.219 50.8758L559.956 54.1C632.359 56.5958 704.738 59.0784 777.095 61.548C794.235 62.1556 811.473 62.9886 828.32 66.448C834.739 67.771 844.901 68.8294 848.9 74.827C852.584 80.413 850.575 88.792 849.821 94.9366C845.404 131.118 840.958 167.3 836.483 203.481L809.896 419.444C807.74 437.015 805.388 454.567 803.663 472.178C801.987 489.259 800.723 506.37 798.861 523.432C797.881 532.105 796.783 540.758 795.343 549.363C794.088 556.801 793.255 565.18 790.305 572.177C786.895 580.262 778.888 579.517 771.411 579.311C762.807 579.066 754.183 578.988 745.568 578.998C676.704 579.125 607.094 585.975 539.033 572.05C530.416 570.286 521.874 568.205 513.406 565.807C509.359 564.68 507.644 570.942 511.672 572.099Z" fill="#382C80"/>
<path d="M188.977 331.734C189.35 351.511 199.277 369.768 211.821 383.9C224.365 398.031 239.526 408.9 253.638 421.14C305.029 465.563 346.013 526.98 347.218 601.225C347.835 639.2 337.173 676.802 322.248 712.327C314.829 729.967 306.293 747.235 297.385 764.267C290.584 777.282 275.11 796.803 276.188 811.552C276.883 821.039 284.028 828.398 291.378 834.298C298.728 840.198 306.822 845.813 310.664 854.378C311.19 855.406 311.462 856.546 311.458 857.7C311.251 859.155 310.624 860.517 309.655 861.62C305.946 866.434 300.542 869.651 294.543 870.617C288.251 871.597 282.028 869.882 276.07 868.118C238.399 856.965 200.777 839.766 174.013 811.072C172.406 809.347 170.779 807.485 170.25 805.192C169.573 802.252 170.769 799.126 171.965 796.245C185.302 763.993 200.688 732.545 214.046 700.116C219.367 687.18 224.62 674.078 226.58 660.26C227.158 656.105 227.325 651.528 224.904 648.108C223.287 645.815 220.739 644.384 218.319 642.943C211.459 638.876 205.716 632.879 198.924 628.919C192.897 625.401 185.498 623.235 179.138 620.099C164.35 612.808 149.856 604.478 137.91 592.973C116.457 572.295 105.197 542.013 106.158 512.358C106.599 498.844 111.45 491.7 118.045 480.645C126.738 466.073 132.627 451.245 144.103 438.28" fill="white"/>
<path d="M185.959 331.734C186.469 350.756 194.936 368.278 206.843 382.811C219.857 398.697 236.792 410.594 252.168 423.971C279.02 447.364 302.501 474.98 319.112 506.595C336.595 539.915 345.572 577.273 343.533 614.905C341.122 659.367 324.482 701.85 304.98 741.325C300.501 750.4 296.082 759.592 290.878 768.275C286.429 775.674 281.617 782.896 277.873 790.687C274.492 797.734 271.562 805.554 272.709 813.492C274.022 822.547 280.353 829.799 287.105 835.513C293.857 841.226 302.138 846.293 306.47 854.329C307.881 856.955 307.587 858.307 305.597 860.483C303.9 862.336 301.873 863.858 299.619 864.971C294.837 867.363 289.496 867.343 284.361 866.255C274.688 864.207 265.123 860.699 255.862 857.298C246.845 854.018 238.013 850.253 229.402 846.018C212.096 837.463 195.73 826.82 181.882 813.306C179.089 810.581 173.591 806.622 174.189 802.271C174.914 797.038 178.227 791.56 180.295 786.748C184.793 776.311 189.448 765.952 194.122 755.603C203.413 735.023 212.821 714.443 221.19 693.491C225.257 683.299 228.912 672.852 230.52 661.955C231.196 657.358 231.607 652.596 229.736 648.235C227.864 643.874 223.856 641.375 219.936 638.934C211.478 633.721 204.716 626.479 195.524 622.402C186.331 618.325 177.061 614.503 168.182 609.525C150.885 599.803 135.577 587.396 125.277 570.207C115.691 554.147 110.509 535.842 110.254 517.14C110.127 508.095 111.695 500.088 116.016 492.101C120.671 483.497 125.748 475.127 130.344 466.474C135.107 457.507 140.036 448.609 146.671 440.857C149.748 437.27 144.632 432.037 141.428 435.614C134.333 443.571 128.805 452.597 123.739 461.937C118.966 470.757 113.743 479.214 108.921 487.956C104.515 495.74 102.104 504.493 101.904 513.436C101.688 523.128 102.699 532.809 104.913 542.248C109.205 561.047 118.352 578.392 131.442 592.551C145.426 607.477 164.34 618.766 183.146 626.547C187.723 628.439 192.417 630.124 196.71 632.623C201.159 635.21 205.049 638.601 209.116 641.737C211.076 643.246 213.036 644.677 215.143 646.039C217.25 647.402 219.71 648.362 221.2 650.293C224.003 653.938 222.405 660.093 221.611 664.13C219.436 675.351 215.261 686.063 210.959 696.617C206.549 707.397 201.913 718.079 197.18 728.732C187.733 750.027 177.972 771.185 169.034 792.706C167.074 797.469 164.82 802.506 166.829 807.681C168.525 812.032 172.533 815.521 175.796 818.666C182.81 825.465 190.386 831.658 198.444 837.179C214.859 848.517 233.009 857.151 251.668 864.089C261.082 867.728 270.703 870.807 280.48 873.311C290.701 875.791 300.893 874.86 309.076 867.774C312.536 864.776 316.083 860.385 315.045 855.505C314.133 851.193 311.125 847.194 308.253 843.96C301.971 836.826 293.485 832.122 286.987 825.203C280.647 818.461 278.491 810.895 281.215 802.026C283.851 793.48 288.79 785.709 293.426 778.134C304.5 760.043 313.722 740.698 322.218 721.294C331.185 700.821 338.878 679.751 344.062 657.976C353.5 617.933 352.735 576.479 339.496 537.377C327.736 502.548 307.293 471.178 282.342 444.326C269.23 430.214 254.716 417.797 239.839 405.587C223.973 392.553 208.372 378.637 199.189 359.899C194.813 351.138 192.363 341.541 192.006 331.753C191.888 327.833 185.851 327.833 185.959 331.753V331.734Z" fill="#382C80"/>
<path d="M111.557 476.559C98.222 509.094 99.6085 545.807 115.36 577.244C117.986 582.389 121.024 587.397 125.16 591.444C132.657 598.814 141.594 601.048 150.953 604.576C160.685 608.232 169.711 615.454 179.128 620.099C190.732 625.823 210.596 630.399 214.849 644.678C219.553 660.485 210.273 680.536 205.432 695.167C204.207 698.862 203.05 702.684 203.197 706.575C203.658 718.521 214.497 722.892 222.082 729.899C231.274 738.376 241.26 744.275 252.815 749.263C263.987 754.105 275.482 758.152 286.968 762.199C297.424 765.874 310.096 769.236 318.729 762.278C319.469 761.735 320.084 761.04 320.533 760.239C321.04 758.958 321.229 757.572 321.081 756.202C320.64 730.408 335.144 707.623 342.759 683.682C350.717 658.584 355.773 632.359 355.342 605.948C354.137 531.752 313.202 470.287 261.772 425.873C247.66 413.672 232.489 402.814 219.955 388.633C207.421 374.453 197.484 356.293 197.111 336.468" fill="#7F72FF"/>
<path d="M108.647 475.755C96.5603 505.331 96.2727 538.416 107.843 568.198C110.666 575.352 113.978 582.536 118.623 588.719C123.195 594.763 129.28 599.496 136.263 602.439C143.437 605.585 150.963 607.584 157.823 611.416C164.879 615.336 171.455 620.138 178.785 623.558C188.634 628.164 200.875 631.016 208.264 639.552C217.535 650.332 211.204 668.237 207.196 679.859C202.805 692.599 194.848 707.299 204.667 719.491C208.293 723.989 213.262 727.017 217.652 730.672C223.532 735.572 229.157 740.521 235.743 744.539C250.512 753.536 267.348 759.092 283.557 764.845C290.505 767.315 297.62 769.745 305.068 770.01C311.321 770.215 318.974 768.471 323.012 763.248C325.286 760.308 324.796 756.75 324.894 753.271C325.012 749.198 325.48 745.142 326.295 741.149C327.984 733.272 330.361 725.559 333.4 718.099C339.505 702.517 346.081 687.415 350.472 671.216C359.223 638.954 362.006 605.477 356.205 572.442C351.207 544.022 340.162 516.827 325.011 492.327C310.066 468.16 291.182 446.482 270.131 427.5C246.915 406.586 217.603 388.937 205.677 358.547C202.837 351.506 201.198 344.04 200.826 336.458C200.63 331.714 193.348 331.665 193.417 336.458C193.868 368.298 215.594 392.719 238.654 412.084C250.022 421.639 261.586 430.881 272.287 441.19C282.407 450.897 291.856 461.28 300.57 472.266C317.602 493.826 331.567 518.032 340.397 544.09C350.187 572.954 353.414 603.638 349.844 633.907C347.746 650.825 343.994 667.496 338.643 683.681C333.743 698.744 326.501 712.915 321.816 728.046C319.489 735.296 318.031 742.796 317.475 750.39C317.279 753.487 318.455 757.975 315.642 759.925C312.797 761.788 309.447 762.725 306.048 762.611C298.963 762.611 292.083 760.102 285.468 757.789C277.06 754.849 268.661 751.909 260.38 748.538C252.916 745.663 245.705 742.172 238.82 738.101C232.411 734.181 227.06 729.222 221.239 724.606C216.898 721.186 211.635 718.07 208.695 713.228C204.863 706.907 207.45 699.812 209.675 693.403C214.252 680.163 220.288 666.355 219.475 652.047C219.132 645.922 217.515 640.169 213.507 635.387C209.989 631.163 205.157 628.115 200.287 625.685C195.259 623.166 189.967 621.226 184.793 619.031C178.276 616.257 172.337 612.455 166.3 608.8C159.764 604.898 152.845 601.676 145.652 599.186C138.458 596.608 131.53 593.619 126.238 587.906C120.946 582.193 117.173 574.353 114.203 567.022C102.543 538.245 102.652 506.04 114.507 477.342C115.987 473.736 110.146 472.188 108.627 475.735L108.647 475.755Z" fill="#7F72FF"/>
<path d="M276.188 811.513C276.883 820.999 284.028 828.359 291.378 834.258C298.728 840.158 306.822 845.773 310.664 854.339C311.19 855.367 311.462 856.506 311.458 857.661C311.251 859.115 310.624 860.478 309.655 861.581C305.946 866.394 300.542 869.612 294.543 870.577C288.251 871.557 282.028 869.842 276.07 868.078C238.399 856.926 200.777 839.727 174.013 811.032C172.406 809.308 170.779 807.446 170.25 805.152C169.573 802.212 170.769 799.086 171.965 796.205" fill="white"/>
<path d="M273.159 811.512C274.492 825.889 286.34 833.925 296.474 842.48C299.17 844.672 301.657 847.11 303.902 849.762C304.909 851.005 305.808 852.333 306.587 853.731C307.989 856.23 308.479 857.651 306.587 860.022C301.599 866.157 293.73 868.205 286.154 866.882C278.745 865.608 271.454 862.855 264.32 860.414C257.381 858.023 250.502 855.436 243.74 852.574C230.153 846.854 217.147 839.841 204.902 831.632C198.315 827.181 192.038 822.286 186.116 816.981C183.097 814.256 180.157 811.454 177.296 808.504C176.1 807.24 174.532 805.848 174.111 804.074C173.582 801.869 174.787 799.174 175.483 797.214C176.845 793.294 170.514 790.55 168.721 794.362C166.927 798.175 165.281 802.085 166.29 806.26C167.3 810.434 170.436 813.502 173.288 816.471C178.944 822.302 185.042 827.688 191.525 832.582C204.658 842.391 218.917 850.593 233.999 857.014C249.228 863.678 265.427 869.911 281.715 873.399C290.113 875.203 298.728 874.742 305.98 869.724C308.855 867.815 311.312 865.341 313.202 862.453C315.672 858.474 314.721 854.681 312.585 850.81C308.361 843.166 301.109 837.982 294.406 832.671C287.703 827.359 280.127 820.705 279.157 811.542C278.755 807.73 272.748 807.622 273.11 811.542L273.159 811.512Z" fill="#382C80"/>
<path d="M283.087 788.6C280.671 787.152 278.129 785.925 275.492 784.935C267.485 781.995 258.185 781.926 251.06 786.895C246.249 790.256 242.544 795.764 237.076 797.479C229.873 799.723 222.65 794.657 216.574 789.835L185.361 765.041C180.794 775.37 176.286 785.719 171.965 796.166C170.769 799.047 169.573 802.163 170.25 805.113C170.779 807.436 172.406 809.298 174.013 810.993C200.777 839.688 238.399 856.887 276.07 868.039C282.028 869.803 288.251 871.508 294.543 870.538C300.53 869.592 305.933 866.404 309.655 861.62C310.624 860.517 311.251 859.154 311.458 857.7C311.462 856.545 311.19 855.406 310.664 854.378C306.822 845.813 298.688 840.187 291.378 834.298C284.067 828.408 276.883 821.038 276.188 811.552C275.678 804.545 278.863 796.509 283.087 788.6Z" fill="#382C80"/>
<path d="M285.125 785.102C277.226 780.545 268.416 777.801 259.253 779.329C254.918 780.077 250.84 781.904 247.395 784.641C244.318 787.071 241.76 790.266 238.448 792.383C230.02 797.763 220.377 787.748 214.242 782.877L188.223 762.219C186.42 760.788 183.029 760.406 181.863 763.042C177.237 773.489 172.66 783.965 168.309 794.529C166.349 799.272 164.909 804.231 167.447 809.082C169.524 813.071 173.395 816.373 176.59 819.46C190.849 833.239 207.646 844.245 225.384 852.976C234.281 857.33 243.397 861.219 252.697 864.629C262.115 868.117 271.827 871.616 281.646 873.792C291.877 876.075 302.226 874.634 310.066 867.226C313.457 864.021 316.475 859.738 315.182 854.878C314.006 850.438 310.86 846.322 307.793 843C300.766 835.405 291.133 830.476 284.851 822.185C281.685 818.03 279.804 813.218 280.323 807.945C280.921 801.83 283.802 795.999 286.625 790.648C289.055 786.033 282.058 781.936 279.627 786.552C275.296 794.764 271.023 804.123 272.424 813.639C273.649 822.018 279.177 828.917 285.331 834.405C291.485 839.893 298.982 844.382 304.059 851.065C305.127 852.467 306.94 854.691 307.224 856.465C307.577 858.7 305.529 860.454 303.951 861.855C300.652 864.772 296.469 866.497 292.073 866.755C286.987 867.059 282.009 865.569 277.187 864.148C272.542 862.776 267.93 861.316 263.35 859.768C254.814 856.828 246.386 853.662 238.154 849.968C221.876 842.696 206.127 833.778 192.29 822.528C188.291 819.264 184.45 815.805 180.775 812.159C177.374 808.778 173.16 805.799 174.66 800.586C176.316 794.853 179.236 789.286 181.588 783.818C183.94 778.349 186.439 772.665 188.899 767.158L182.539 767.981L208.548 788.63C215.741 794.343 223.983 802.457 233.871 802.144C243.387 801.84 247.474 793.471 254.961 789.316C263.389 784.631 273.306 787.65 281.078 792.128C285.566 794.715 289.653 787.708 285.125 785.102Z" fill="#382C80"/>
<path d="M270.102 809.474C274.069 807.989 278.471 808.195 282.283 810.042C284.361 811.022 286.203 807.886 284.086 806.955C279.429 804.748 274.062 804.585 269.279 806.505C267.475 807.22 268.201 810.15 270.102 809.445V809.474Z" fill="white"/>
<path d="M276.246 822.832C278.173 819.631 281.863 817.936 285.547 818.559C287.84 819 288.79 815.463 286.527 815.071C281.327 814.192 276.129 816.639 273.493 821.205C272.405 822.979 275.149 824.557 276.266 822.832H276.246Z" fill="white"/>
<path d="M287.183 830.583C287.911 828.888 289.282 827.552 290.995 826.869C291.728 826.601 292.132 825.815 291.925 825.063C291.717 824.311 290.968 823.844 290.202 823.988C287.262 824.527 285.155 827.036 284.165 829.75C284.047 830.156 284.098 830.592 284.304 830.96C284.51 831.328 284.855 831.599 285.262 831.71C286.106 831.943 286.98 831.454 287.222 830.613L287.183 830.583Z" fill="white"/>
<path d="M293.494 803.006C294.21 801.86 295.886 800.331 297.414 801.566C298.184 802.42 298.245 803.698 297.561 804.623C297 805.224 296.841 806.097 297.156 806.857C297.47 807.617 298.2 808.123 299.022 808.151C300.639 808.328 303.216 808.514 303.922 810.229C304.902 812.532 303.04 813.247 301.08 813.169C298.316 813.071 298.365 817.236 301.08 817.422C305 817.706 309.116 815.295 308.596 810.856C308.028 805.868 303.245 804.427 298.982 803.996L300.776 807.103C301.716 805.786 302.072 804.141 301.76 802.553C301.449 800.966 300.497 799.577 299.129 798.714C296.121 797.009 292.75 798.91 291.289 801.654C290.927 802.271 291.133 803.065 291.75 803.428C292.367 803.79 293.161 803.584 293.524 802.967L293.494 803.006Z" fill="#382C80"/>
<path d="M511.584 159.097C513.455 152.286 519.963 147.68 526.656 145.426C535.309 142.531 544.679 142.593 553.292 145.602C560.052 148.103 566.081 152.249 570.834 157.666C572.363 159.535 574.305 161.021 576.509 162.007C578.018 162.674 584.26 165.79 585.662 164.693L577.822 170.837C571.628 175.669 565.376 180.529 558.32 183.999C548.471 188.84 535.839 190.261 525.402 186.233C518.052 183.401 513.475 176.07 506.88 171.749" fill="white"/>
<path d="M514.151 159.803C516.552 152.423 524.353 148.739 531.429 147.22C539.95 145.403 548.839 146.624 556.556 150.669C559.92 152.465 563.017 154.721 565.758 157.372C568.169 159.666 570.207 162.37 573.098 164.105C576.803 166.33 583.163 169.779 587.416 167.692L583.212 162.243C571.364 171.475 559.231 182.823 543.679 184.665C537.083 185.449 529.508 184.881 523.775 181.235C518.228 177.707 514.249 172.18 508.693 168.564C504.665 165.938 501.176 172.21 504.978 174.934C510.858 179.128 515.112 185.371 521.638 188.654C528.626 192.162 536.966 192.78 544.6 191.751C561.75 189.438 574.921 177.374 588.073 167.133C591.336 164.605 587.191 160.038 583.878 161.694C585.103 161.087 584.456 161.577 583.427 161.165C582.722 160.881 581.987 160.675 581.281 160.401C580.301 159.999 579.321 159.558 578.341 159.107C574.931 157.461 572.853 154.697 570.119 152.169C564.105 146.422 556.561 142.529 548.392 140.957C534.163 138.39 513.612 142.467 508.957 158.382C507.977 161.684 513.034 163.037 514.083 159.793L514.151 159.803Z" fill="#382C80"/>
<path d="M231.176 310.321C257.271 321.055 281.351 336.15 302.383 354.96C298.336 351.334 308.439 317.21 310.066 311.918C314.172 298.482 318.386 284.772 323.139 271.454C337.888 230.078 354.499 189.32 386.634 158.372C402.516 143.207 421.652 131.871 442.582 125.228C448.276 123.415 458.752 120.054 462.917 126.394C464.936 129.471 464.877 133.568 463.573 137.017C462.27 140.467 459.938 143.397 457.546 146.2C454.574 149.689 451.483 153.076 448.276 156.363C445.845 158.852 442.611 161.263 442.778 165.183C443.091 172.395 454.107 170.504 458.203 175.237C460.955 178.354 461.713 182.757 460.163 186.615C464.504 185.782 469.267 185.714 473.05 187.997C478.174 191.311 480.006 197.936 477.313 203.412C483.36 202.432 489.2 207.568 490.602 213.536C492.003 219.504 489.916 225.796 486.79 231.068C479.087 244.014 468.052 254.343 458.958 266.25C449.743 278.128 441.585 290.789 434.575 304.088C418.317 335.526 410.428 370.728 394.748 402.441C386.222 419.698 374.119 436.897 355.891 443.111" fill="white"/>
<path d="M230.402 313.154C255.977 323.801 279.586 338.661 300.247 357.116C303.138 359.694 307.254 355.656 304.519 352.834C304.853 353.177 304.568 353.187 304.519 352.559C304.519 352.197 304.461 351.962 304.441 351.481C304.407 349.746 304.525 348.012 304.794 346.297C305.422 341.97 306.272 337.679 307.342 333.44C308.988 326.521 310.889 319.651 312.957 312.86C321.699 284.175 331.117 255.5 343.523 228.158C355.097 202.678 369.895 178.315 390.563 159.137C401.042 149.458 412.939 141.441 425.843 135.362C432.08 132.415 438.522 129.926 445.12 127.914C448.962 126.738 455.439 124.386 459.114 127.12C462.27 129.453 461.28 134.372 459.82 137.351C458.105 140.84 455.302 143.79 452.744 146.681C449.932 149.846 446.992 152.865 444.013 155.873C441.935 157.98 440.093 160.323 439.583 163.321C438.603 169.201 442.837 172.592 447.874 174.248C450.049 174.964 452.597 175.297 454.557 176.542C457.644 178.502 458.154 182.51 456.929 185.695C455.949 188.331 458.83 190.242 461.084 189.84C465.083 189.144 470.11 188.968 473.04 192.3C475.293 194.884 475.83 198.547 474.412 201.669C473.432 203.717 474.549 207.098 477.352 206.775C481.401 206.369 485.228 208.696 486.731 212.478C488.691 216.859 487.456 222.102 485.516 226.257C481.674 234.469 475.343 241.584 469.473 248.385C456.958 262.889 445.345 277.942 435.82 294.612C416.71 328.059 408.782 366.26 391.72 400.638C383.733 416.749 372.61 433.478 355.097 440.152C351.51 441.514 352.931 447.247 356.714 446.032C373.786 440.446 385.673 426.353 394.18 411.114C403.98 393.474 410.653 374.168 417.415 355.254C424.52 335.341 431.782 315.437 442.386 297.072C447.735 287.874 453.625 279.003 460.026 270.504C466.141 262.321 473.138 254.883 479.626 246.984C486.27 238.821 494.179 229.138 494.473 218.094C494.718 208.774 487.436 198.895 477.333 200.062L480.273 205.167C483.026 199.65 482.29 193.03 478.391 188.253C473.658 182.529 466.082 182.206 459.291 183.402L463.446 187.557C465.7 181.677 463.554 174.072 457.958 170.789C455.963 169.752 453.851 168.959 451.666 168.427C450.167 167.986 447.168 167.545 446.355 165.958C445.1 163.517 448.599 160.871 450.04 159.431C453.058 156.432 455.92 153.276 458.713 150.072C463.319 144.75 468.366 138.655 467.807 131.138C467.356 125.16 463.426 120.554 457.448 119.682C451.941 118.869 446.365 120.662 441.19 122.299C426.719 126.974 413.05 133.838 400.657 142.653C375.775 160.45 357.479 185.852 343.866 212.949C329.715 241.114 319.366 271.298 310.125 301.364C307.009 311.468 303.941 321.591 301.511 331.891C300.217 337.051 299.255 342.288 298.63 347.571C298.316 350.668 297.895 354.774 300.266 357.224L304.539 352.942C283.079 333.865 258.564 318.533 232.019 307.587C228.52 306.147 227.001 311.831 230.461 313.261L230.402 313.154Z" fill="#382C80"/>
<path d="M334.674 629.948C340.123 627.311 342.259 623.293 340.338 619.285C338.996 616.463 337.104 610.671 333.224 609.211C326.599 606.741 313.486 607.8 305.94 607.633C287.124 607.202 268.21 607.584 249.404 607.035C222.043 606.232 194.524 607.035 167.084 608.113C157.451 608.486 147.386 608.976 138.821 612.425C130.256 615.875 123.856 623.264 126.973 629.526C130.961 637.543 146.161 638.581 158.48 638.346C210.724 637.366 262.977 636.308 315.28 633.534C321.905 633.172 329 632.692 334.674 629.948Z" fill="white"/>
<path d="M336.34 632.79C341.759 630.115 346.062 625.019 343.945 618.708C342.23 613.602 339.584 607.575 334.243 605.497C328.588 603.302 321.856 603.478 315.897 603.439C308.635 603.439 301.374 603.263 294.112 603.155C258.401 602.645 222.699 601.891 186.998 603.155C178.325 603.459 169.642 603.733 160.989 604.253C153.149 604.733 145.054 605.438 137.655 608.349C131.775 610.672 125.758 614.68 123.063 620.668C120.577 626.043 122.072 632.421 126.689 636.132C131.265 639.993 137.361 641.395 143.153 642.169C150.463 643.149 157.784 642.923 165.144 642.786C182.999 642.453 200.862 642.084 218.73 641.679C238.827 641.208 258.923 640.591 279.02 639.826C289.29 639.415 299.561 638.951 309.831 638.435C318.965 637.965 328.549 638.023 336.84 633.692C341.064 631.477 338.124 624.068 333.537 625.852C326.805 628.468 319.641 628.792 312.516 629.115C304.48 629.527 296.441 629.902 288.398 630.242C272.326 630.928 256.245 631.457 240.163 631.938C224.306 632.395 208.453 632.793 192.603 633.133C178.021 633.457 163.203 634.535 148.631 633.711C142.369 633.358 123.719 630.566 133.333 620.971C138.017 616.306 144.917 614.572 151.247 613.563C158.646 612.387 166.222 612.396 173.699 612.151C189.428 611.652 205.157 611.171 220.896 611.171C236.635 611.171 252.599 611.681 268.465 611.769C284.331 611.857 300.433 612.053 316.397 611.71C319.7 611.642 323.012 611.612 326.305 611.867C328.696 612.053 331.665 612.181 333.38 614.033C335.034 616.072 336.299 618.397 337.114 620.893C338.251 624.019 335.527 625.793 333.008 627.184C329.264 629.154 332.567 634.642 336.34 632.79Z" fill="#382C80"/>
<path d="M198.562 415.112C206.196 433.007 222.003 445.208 238.673 452.46C255.343 459.712 273.199 462.809 290.613 467.591C353.941 485.006 414.093 522.667 442.513 589.876C457.096 624.274 461.251 663.376 460.731 702.576C460.477 722.048 459.056 741.639 457.213 761.209C455.802 776.164 448.873 800.958 455.302 813.943C459.438 822.283 468.718 825.772 477.568 827.859C486.417 829.946 495.923 831.416 502.597 837.512C503.47 838.22 504.145 839.141 504.557 840.187C504.91 841.649 504.845 843.18 504.371 844.607C502.75 850.7 499.038 856.028 493.885 859.66C488.495 863.374 482.184 864.619 476.088 865.687C437.574 872.4 396.875 873.674 361.82 859.523C359.713 858.67 357.547 857.71 356.205 855.828C354.499 853.447 354.45 850.056 354.47 846.881C354.774 806.965 357.596 767.089 357.096 727.154C356.989 719.393 350.785 634.917 350.962 634.965L260.586 610.074C210.763 596.354 196.7 576.754 188.242 520.404" fill="white"/>
<path d="M195.945 416.641C202.511 431.684 214.8 443.317 229.04 451.157C245.602 460.291 264.32 464.083 282.45 468.709C312.634 476.382 341.799 488.201 367.71 505.606C393.621 523.011 415.779 546.197 430.91 573.735C449.177 606.987 455.841 644.815 457.017 682.388C457.517 703.342 456.84 724.308 454.989 745.186C454.303 753.683 453.617 762.16 452.264 770.578C451 778.418 449.599 786.258 449.089 794.265C448.638 801.213 448.805 808.681 451.764 815.119C454.92 821.979 461.261 826.223 468.081 828.888C475.774 831.897 484.134 832.573 491.846 835.493C494.463 836.473 500.441 838.776 500.921 841.883C501.499 845.676 497.491 851.056 495.041 853.574C488.75 860.131 479.361 861.248 470.796 862.639C461.241 864.198 451.637 865.364 441.984 866.02C422.707 867.324 403.147 866.677 384.262 862.336C380.038 861.356 375.854 860.219 371.738 858.866C369.493 858.141 367.269 857.347 365.064 856.505C363.329 855.838 360.879 855.191 359.664 853.721C358.449 852.251 358.517 849.801 358.498 847.949C358.498 845.352 358.498 842.755 358.586 840.158C358.671 834.775 358.792 829.391 358.949 824.008C359.537 802.938 360.507 781.868 361.007 760.798C361.32 747.617 361.742 734.338 361.007 721.206C360.507 712.513 359.919 703.83 359.331 695.148C358.067 676.332 356.695 657.525 355.411 638.7C355.352 637.837 355.332 636.965 355.244 636.103C355.146 635.123 355.577 634.535 355.038 636.103C355.646 633.839 354.343 631.503 352.098 630.83L292.701 614.484C276.55 610.035 259.949 606.36 244.269 600.391C234.832 596.795 225.649 592.012 218.152 585.103C211.245 578.537 205.857 570.539 202.364 561.672C196.886 548.295 193.966 533.663 191.81 519.414C191.104 514.72 183.97 516.719 184.675 521.374C188.233 544.894 192.643 570.374 209.616 588.367C228.06 607.908 256.656 613.396 281.391 620.227L349.815 639.082L346.875 633.819C346.385 635.23 346.875 637.259 346.934 638.719C347.163 642.045 347.391 645.357 347.62 648.656C348.345 659.077 349.083 669.494 349.835 679.909C351.138 698.313 352.941 716.786 353 735.249C353.069 757.231 352.245 779.202 351.51 801.164C351.158 811.944 350.824 822.724 350.628 833.445C350.53 838.629 350.285 843.863 350.472 849.037C350.628 853.173 351.51 857.259 354.725 860.111C357.939 862.963 362.457 864.158 366.318 865.511C371.137 867.207 376.044 868.64 381.018 869.803C390.29 871.946 399.718 873.345 409.213 873.988C429.068 875.399 449.02 873.821 468.65 870.793C477.803 869.382 487.985 868.343 495.806 862.953C502.195 858.553 508.301 850.438 508.546 842.373C508.81 834.053 498.51 829.702 491.886 827.575C483.82 824.978 475 824.41 467.386 820.499C460.526 816.962 457.086 811.307 456.449 803.692C455.773 795.558 456.968 787.326 458.213 779.3C460.959 760.933 462.749 742.435 463.573 723.881C465.602 683.299 464.063 641.355 450.922 602.538C440.076 570.599 421.205 541.983 396.12 519.434C372.914 498.569 345.297 483.174 316.083 472.394C299.247 466.2 281.881 462.29 264.565 457.752C246.788 453.107 229.069 446.727 215.496 433.86C209.401 428.122 204.522 421.216 201.149 413.554C199.581 409.997 194.387 413.074 195.926 416.612L195.945 416.641Z" fill="#382C80"/>
<path d="M161.694 526.529C170.152 582.869 210.782 596.354 260.606 610.074L350.971 634.966C350.04 634.711 351.951 673.558 352.069 676.184C353.176 693.196 353.176 710.261 352.069 727.272C351.089 740.668 351.755 749.234 365.985 751.38C400.461 756.564 434.281 757.358 469.101 756.427C472.335 756.339 476.343 755.711 477.323 752.624C477.96 750.664 476.96 748.538 476.215 746.578C473.599 739.639 475.471 734.563 476.921 727.85C478.538 720.343 478.411 712.288 478.499 704.477C478.969 665.277 474.765 626.185 460.143 591.777C431.567 524.608 371.414 487.005 308.067 469.669C290.672 464.916 272.787 461.829 256.127 454.606C239.467 447.384 223.64 435.193 215.947 417.308" fill="#7F72FF"/>
<path d="M158.774 527.332C160.861 540.974 165.144 554.439 172.964 565.935C179.844 575.841 188.771 584.156 199.14 590.317C224.003 605.458 253.942 611.593 281.646 619.276L350.06 638.18V631.663C345.65 632.584 347.336 642.59 347.414 645.52C347.6 653.155 347.914 660.789 348.247 668.423C348.619 676.89 349.1 685.357 349.286 693.834C349.443 701.478 349.413 709.122 349.109 716.766C348.855 722.901 348.031 729.075 348.188 735.22C348.404 744.138 352.108 751.213 361.036 753.918C367.553 755.878 374.874 756.231 381.616 757.015C389.195 757.89 396.783 758.586 404.381 759.102C419.777 760.151 435.202 760.523 450.637 760.445C457.497 760.445 464.72 760.798 471.57 759.975C477.166 759.298 482.115 755.819 481.106 749.557C480.625 746.549 478.959 743.903 478.724 740.816C478.479 737.523 479.332 734.318 480.067 731.143C481.581 723.994 482.327 716.704 482.291 709.397C482.497 694.697 482.34 680.085 481.125 665.454C478.793 637.377 472.942 609.594 461.084 583.888C441.484 541.484 406.577 508.34 365.319 487.152C344.575 476.674 322.681 468.649 300.08 463.24C274.355 456.9 246.944 451.147 228.677 430.293C224.804 425.843 221.608 420.847 219.191 415.465C217.231 411.095 210.969 414.907 212.791 419.209C222.258 441.553 243.426 455.195 265.653 462.721C278.775 467.17 292.387 469.865 305.735 473.501C316.186 476.322 326.481 479.694 336.575 483.605C376.706 499.216 413.652 524.765 438.27 560.545C452.195 581.007 462.112 603.927 467.493 628.086C473.707 655.193 474.932 682.966 474.579 710.7C474.544 717.467 473.791 724.211 472.335 730.82C470.943 737.052 470.767 742.579 472.952 748.607C473.217 749.322 474.099 750.988 473.579 751.713C473.06 752.438 471.482 752.478 470.786 752.566C467.229 753.046 463.466 752.821 459.889 752.889C452.702 753.033 445.496 753.082 438.27 753.036C423.727 752.918 409.183 752.35 394.689 751.135C387.457 750.527 380.234 749.75 373.021 748.803C368.396 748.185 362.447 748.087 358.664 744.941C355.979 742.697 355.46 738.953 355.332 735.661C355.127 730.045 355.862 724.391 356.107 718.785C356.734 704.556 356.322 690.316 355.558 676.106C354.921 664.042 354.264 651.939 354.156 639.846C354.156 638.817 354.156 637.778 354.156 636.749C354.204 636.425 354.221 636.097 354.205 635.769C354.117 635.299 354.147 635.769 354.205 635.769C354.705 636.436 349.305 638.788 351.912 638.229C355.254 637.524 355.009 632.565 351.912 631.712C315.574 621.765 278.922 612.583 242.868 601.646C220.151 594.786 196.278 585.711 181.049 566.532C171.729 554.772 166.927 540.386 164.644 525.735C164.046 521.893 158.235 523.53 158.813 527.342L158.774 527.332Z" fill="#7F72FF"/>
<path d="M455.302 813.934C459.438 822.273 468.718 825.762 477.568 827.85C486.417 829.937 495.923 831.407 502.597 837.503C503.47 838.21 504.145 839.132 504.557 840.178C504.91 841.64 504.845 843.171 504.371 844.598C502.752 850.694 499.04 856.026 493.885 859.66C488.495 863.375 482.184 864.619 476.088 865.687C437.574 872.4 396.875 873.674 361.82 859.523C359.713 858.671 357.547 857.71 356.205 855.829C354.499 853.447 354.45 850.056 354.47 846.881" fill="white"/>
<path d="M452.695 815.453C458.811 827.213 472.207 829.741 483.928 832.632C487.006 833.324 490.027 834.251 492.964 835.406C495.335 836.386 500.304 838.493 501.284 841.109C502.264 843.726 499.324 848.381 498.011 850.439C496.022 853.474 493.333 855.988 490.171 857.769C483.879 861.307 476.088 862.013 469.081 863.081C461.319 864.257 453.528 865.142 445.708 865.737C430.364 867.018 414.929 866.712 399.648 864.825C391.391 863.727 383.23 862.001 375.236 859.661C371.067 858.498 366.968 857.101 362.957 855.476C361.555 854.888 360.017 854.3 359.203 852.938C358.223 851.282 358.292 848.704 358.223 846.862C358.223 844.816 356.565 843.157 354.519 843.157C352.473 843.157 350.815 844.816 350.815 846.862C350.599 850.625 350.619 854.584 352.775 857.857C354.931 861.131 358.439 862.591 361.889 863.982C369.945 867.204 378.29 869.652 386.81 871.293C403.764 874.645 421.208 875.213 438.417 874.116C447.335 873.547 456.223 872.518 465.053 871.176C473.148 869.96 481.762 869.01 489.406 865.923C496.452 863.194 502.221 857.925 505.576 851.154C507.134 847.959 508.751 843.892 508.095 840.286C507.458 836.827 504.684 834.553 501.921 832.642C488.897 823.655 466.288 827.869 457.978 812.366C456.135 808.926 450.961 811.974 452.754 815.414L452.695 815.453Z" fill="#382C80"/>
<path d="M128.492 889.285C137.9 824.298 147.138 759.292 156.206 694.265C158.499 677.733 161.106 661.2 162.89 644.599C163.36 640.14 155.726 639.062 154.991 643.531C149.895 674.606 146.426 706.025 142.182 737.219C137.557 771.087 132.863 804.956 128.56 838.864C126.45 855.387 124.366 871.916 122.308 888.452C121.877 891.941 127.982 892.794 128.492 889.285Z" fill="#382C80"/>
<path d="M157.637 290.28C143.368 292.632 132.931 304.892 125.454 317.269C110.656 341.769 111.479 366.554 113.694 394.199C114.517 404.209 115.337 414.214 116.154 424.217C116.761 431.675 117.359 439.26 115.713 446.561C113.341 457.243 104.08 465.406 102.639 476.098C99.082 502.225 164.713 504.587 180.246 504.244C201.982 503.754 225.267 499.824 240.8 484.644C245.612 479.93 249.62 473.952 250.188 467.239C250.747 460.859 248.179 454.675 245.847 448.717C233.099 416.084 225.814 381.573 224.287 346.571" fill="white"/>
<path d="M156.765 287.076C138.468 290.28 125.532 307.47 117.908 323.208C109.274 341.015 107.784 360.693 108.715 380.205C109.235 391.181 110.264 402.147 111.136 413.104C111.979 423.835 114.282 435.83 111.41 446.424C107.843 459.556 92.4768 472.021 100.287 486.604C105.187 495.777 116.673 500.04 126.081 502.695C137.782 506.008 150.062 507.478 162.165 508.311C190.585 510.271 225.522 508.683 246.043 486.094C253.001 478.44 256.49 469.17 254.363 458.84C253.305 453.666 251.07 448.786 249.218 443.866C247.219 438.541 245.357 433.168 243.632 427.745C236.932 406.674 232.475 384.954 230.333 362.947C229.804 357.486 229.396 352.024 229.108 346.562C228.795 340.368 219.171 340.309 219.426 346.562C220.296 367.637 223.25 388.574 228.246 409.066C230.631 418.866 233.479 428.562 236.792 438.153C238.428 442.896 240.231 447.57 242.054 452.255C243.877 456.939 245.974 462.055 245.386 467.229C244.406 475.677 237.046 482.576 230.353 487.035C223.375 491.522 215.653 494.728 207.548 496.502C195.485 499.354 182.97 499.961 170.612 499.599C159.88 499.362 149.183 498.298 138.615 496.414C129.452 494.699 118.241 492.317 111.224 486.202C108.568 483.879 106.981 481.351 106.902 478.538C106.697 471.09 112.312 464.387 115.722 458.164C120.456 449.423 121.534 440.289 120.946 430.45C120.328 420.101 119.241 409.752 118.368 399.423C116.614 378.765 114.576 357.469 120.769 337.32C123.874 327.24 128.782 317.807 135.254 309.479C141.232 301.795 148.807 295.318 158.597 293.475C162.792 292.681 160.998 286.36 156.843 287.095L156.765 287.076Z" fill="#382C80"/>
<path d="M111.028 568.737C100.052 548.343 95.1817 525.049 94.4565 501.901C94.1271 488.357 94.894 474.808 96.7497 461.388C98.1217 450.843 102.688 438.603 101.375 428.068C100.066 417.606 99.7641 407.042 100.474 396.522C100.866 390.828 100.14 377 105.442 373.119C110.891 369.141 122.602 375.246 128.325 376.736C137.449 379.107 146.847 381.087 156.265 379.323C158.891 378.833 161.802 378.166 164.105 379.538C166.624 381.048 167.29 384.36 167.486 387.3C168.27 398.57 166.016 410.761 171.641 420.571C179.001 433.419 202.933 441.817 216.094 434.487C223.836 430.175 228.354 422.413 231.343 414.348C234.185 406.684 233.577 394.14 245.151 395.875C249.071 396.463 252.491 398.737 255.49 401.304C265.839 410.124 272.209 422.707 277.599 435.202C281.989 445.375 285.948 455.9 286.977 466.925C289.525 494.365 271.297 522.373 245.239 531.203" fill="#7F72FF"/>
<path d="M113.282 567.415C103.717 548.275 99.1016 526.784 98.2 505.488C97.7637 494.043 98.1403 482.581 99.327 471.188C100.405 460.644 103.247 450.559 104.707 440.103C106.167 429.646 103.943 419.043 103.904 408.459C103.904 400.325 103.904 391.554 105.04 383.478C105.374 381.244 105.854 377.099 108.265 376.021C111.136 374.737 115.575 376.589 118.319 377.491C127.218 380.431 135.959 383.214 145.358 383.841C148.13 384.036 150.915 383.98 153.678 383.674C155.902 383.42 159.068 382.165 161.283 382.694C164.791 383.527 163.625 391.652 163.586 394.229C163.448 404.029 162.821 414.407 168.005 423.178C175.512 435.918 193.319 443.121 207.656 441.612C225.169 439.77 233.861 423.707 237.674 408.223C238.213 406.018 238.752 402.471 240.741 400.991C243.162 399.207 247.052 401.05 249.257 402.422C257.352 407.439 263.046 416.348 267.436 424.57C276.364 441.298 285.223 461.663 281.823 481.018C278.881 497.645 269.166 512.303 255 521.492C251.566 523.675 247.901 525.472 244.073 526.852C238.595 528.812 240.898 537.544 246.494 535.672C273.215 526.153 291.279 501.117 291.887 472.756C291.985 461.771 288.947 451.03 284.919 440.897C280.892 430.763 276.56 420.787 270.562 411.8C265.172 403.745 257.332 394.004 247.405 391.691C239.104 389.731 232.842 393.886 230.088 401.657C228.981 404.784 228.501 408.076 227.58 411.261C226.279 415.666 224.252 419.823 221.582 423.56C216.555 430.567 209.469 433.36 201.002 432.586C193.065 431.826 185.566 428.598 179.56 423.355C172.033 416.495 171.818 406.567 171.72 397.051C171.631 388.79 172.347 375.06 160.753 374.874C158.196 374.874 155.667 375.619 153.139 375.854C149.904 376.202 146.642 376.202 143.407 375.854C137.973 375.285 132.615 374.138 127.424 372.434C120.622 370.199 111.744 365.574 104.619 369.121C97.6904 372.679 97.22 382.449 96.8966 389.26C96.436 399.609 95.9166 409.938 96.7692 420.277C97.2004 425.834 98.1412 431.244 97.5434 436.83C96.975 442.22 95.5834 447.492 94.476 452.784C92.0554 464.358 91.1538 476.363 90.801 488.162C90.115 510.878 92.8688 534.32 101.64 555.439C103.722 560.455 106.105 565.341 108.774 570.07C110.44 573.01 114.772 570.423 113.282 567.434V567.415Z" fill="#7F72FF"/>
<path d="M192.496 307.979C207.548 312.398 220.974 321.365 232.333 332.185C263.898 362.241 283.655 404.95 306.029 441.837C307.009 443.464 308.234 445.257 310.115 445.561C311.634 445.806 313.104 444.973 314.437 444.179C329.549 435.161 343.625 424.51 356.41 412.417C366.348 402.852 378.264 393.317 381.577 379.244C382.851 373.874 383.458 367.484 388.133 364.544C391.151 362.653 395.169 362.878 398.394 364.417C401.554 366.101 404.27 368.509 406.322 371.443C410.399 376.745 409.585 385.32 414.809 389.789C420.571 394.689 432.752 394.601 439.897 395.012C465.377 396.463 491.278 393.915 516.631 395.728C532.928 396.904 547.04 418.542 535.897 433.36C528.057 443.738 512.946 444.14 500.941 449.108C488.083 454.43 478.518 465.298 469.091 475.568C448.677 497.746 426.226 518.894 398.923 531.664C372.551 544.012 342.308 547.569 313.663 542.444C285.674 537.426 265.77 521.687 246.562 501.186C227.354 480.684 214.114 455.518 202.462 430.145C196.445 417.053 190.81 403.783 184.822 390.681" fill="white"/>
<path d="M191.614 311.173C222.395 320.503 244.308 347.433 261.419 373.286C270.19 386.535 278.079 400.344 285.919 414.162C289.839 421.022 293.651 427.833 297.61 434.614C300.55 439.72 304.304 450.039 311.713 449.059C315.505 448.55 319.278 445.424 322.424 443.405C326.05 441.092 329.614 438.688 333.116 436.192C340.24 431.151 347.081 425.72 353.608 419.924C359.262 414.897 364.858 409.673 370.17 404.244C375.177 399.168 379.862 393.533 382.792 386.976C384.096 383.91 385.081 380.718 385.732 377.451C386.379 374.442 386.888 370.444 389.329 368.268C395.444 362.829 403.578 372.717 405.273 377.97C407.233 384.027 408.331 390.279 414.093 394.013C419.385 397.462 426.284 398.09 432.419 398.511C449.481 399.677 466.533 399.373 483.624 399.119C492.875 398.981 502.136 398.932 511.378 399.403C517.914 399.726 523.363 400.687 528.302 405.332C536.868 413.397 539.21 427.392 528.508 434.82C523.04 438.613 516.307 440.063 509.996 441.817C503.028 443.777 496.325 446.129 490.259 450.137C477.254 458.742 467.523 471.492 456.743 482.556C445.541 494.061 433.654 505.027 420.483 514.229C392.906 533.447 360.35 542.777 326.736 539.856C311.683 538.553 297.209 534.613 284.086 527.009C271.66 519.835 260.88 510.064 251.08 499.676C227.766 475.127 213.291 444.189 199.728 413.564C196.024 405.185 192.3 396.816 188.321 388.564C186.057 383.85 179.413 387.976 181.412 392.602C195.436 425.177 208.911 459.026 230.128 487.74C247.964 511.858 271.974 534.682 301.227 543.6C333.694 553.537 371.13 549.274 401.559 534.868C431.988 520.462 455.038 496.354 477.627 472.236C483.007 466.494 488.632 460.819 495.267 456.556C501.666 452.48 508.693 450.598 515.925 448.579C528.861 444.973 542.316 438.583 543.796 423.55C545.002 411.32 536.623 398.903 525.647 393.974C518.404 390.72 509.967 391.19 502.127 391.034C492.63 390.867 483.134 391.034 473.638 391.249C464.142 391.465 454.636 391.592 445.14 391.249C438.28 391.014 430.949 391.132 424.168 389.632C421.492 389.044 418.493 388.231 416.602 386.104C414.387 383.625 413.858 379.832 412.917 376.765C410.859 370.052 406.312 363.819 399.775 360.869C392.964 357.782 384.997 359.713 381.381 366.504C377.97 372.904 378.176 380.44 374.521 386.849C370.767 393.513 365.24 398.923 359.742 404.136C353.617 409.948 347.522 415.769 340.975 421.11C334.194 426.619 327.117 431.755 319.778 436.496C317.906 437.711 316.015 438.897 314.114 440.073C313.334 440.701 312.47 441.216 311.546 441.602C309.929 441.964 309.753 441.082 309.027 439.955C306.832 436.564 304.853 433.007 302.814 429.508C294.465 415.2 286.497 400.667 277.932 386.486C261.527 359.311 242.172 330.871 214.467 314.113C207.841 310.094 200.732 306.933 193.309 304.705C189.213 303.48 187.429 309.85 191.545 311.085L191.614 311.173Z" fill="#382C80"/>
<path d="M185.469 204.442C195.2 201.002 207.872 206.657 208.773 217.182C209.891 230.196 212.693 243.015 210.567 256.147C210.218 258.884 209.388 261.538 208.117 263.987C203.726 271.709 193.701 273.699 184.901 274.894C184.646 274.894 186.282 290.378 186.469 291.77C187.204 297.277 187.88 297.072 183.774 301.482C178.599 307.048 167.584 309.733 161.41 306.666C155.069 303.53 154.011 297.356 153.57 290.809C152.188 269.406 153.521 247.493 156.049 226.227" fill="white"/>
<path d="M186.312 207.499C192.192 205.676 199.424 207.058 203.256 212.174C205.51 215.173 205.324 218.808 205.677 222.376C206.196 227.56 206.882 232.724 207.245 237.918C207.638 242.677 207.615 247.462 207.176 252.217C206.745 256.313 206.029 260.88 203.138 263.977C200.837 266.224 197.984 267.826 194.867 268.622C191.271 269.71 187.272 269.602 183.764 270.758C178.923 272.336 180.883 279.431 181.216 283.145C181.588 287.261 182.294 291.417 182.558 295.542C182.617 296.356 182.647 296.052 182.784 295.65C182.567 296.087 182.282 296.487 181.941 296.836C181.091 297.938 180.103 298.926 179.001 299.776C176.183 301.774 172.879 302.976 169.436 303.255C162.312 303.872 159.146 299.286 158.597 292.651C156.775 270.621 158.842 248.13 161.185 226.217C161.479 223.493 158.646 221.151 156.118 221.151C153.09 221.151 151.404 223.493 151.051 226.217C149.303 239.766 148.321 253.404 148.111 267.064C148.013 274.1 148.239 281.156 148.68 288.173C149.003 293.269 149.317 298.522 151.62 303.177C156.255 312.526 167.417 314.172 176.492 311.075C181.102 309.589 185.21 306.855 188.36 303.177C191.202 299.815 191.8 297.081 191.153 292.779L190.888 291.074C190.634 289.515 191.016 292.132 190.888 291.074C190.81 290.437 190.741 289.809 190.663 289.172C190.46 287.389 190.261 285.602 190.065 283.812C189.85 281.852 189.634 279.892 189.448 277.932C189.389 277.314 189.379 276.668 189.291 276.05C189.095 274.708 189.83 274.237 188.674 276.971L186.126 278.931C194.838 277.638 204.51 275.55 210.165 268.151C217.025 259.224 215.692 245.072 214.546 234.596C213.879 228.481 213.164 222.336 212.321 216.251C211.805 212.393 210.006 208.82 207.215 206.108C201.16 200.515 192.535 198.673 184.724 201.306C180.902 202.599 182.49 208.626 186.41 207.411L186.312 207.499Z" fill="#382C80"/>
<path d="M141.193 257.126C142.103 259.893 143.471 262.487 145.24 264.8C155.04 277.207 165.271 268.612 164.938 255.451C164.752 247.777 163.821 239.516 167.809 232.911C168.174 232.239 168.691 231.661 169.319 231.225C171.279 230.02 173.934 231.764 174.895 233.891C175.855 236.017 175.875 238.457 176.747 240.613C176.345 234.547 177.257 227.805 181.784 223.738C185.704 220.239 191.584 219.406 196.621 219.818C205.383 220.445 210.018 224.718 214.065 214.261C216.025 209.185 217.593 202.158 216.623 196.709C214.918 187.135 195.151 174.169 191.712 188.869C189.183 186.574 185.664 185.715 182.362 186.586C179.002 187.661 176.52 190.518 175.924 193.995C172.582 191.976 168.985 189.889 165.085 190.075C161.185 190.261 157.245 193.897 158.225 197.66C157.108 193.505 144.946 209.988 144.505 210.88C138.796 223.228 137.014 237.03 139.399 250.423C139.824 252.7 140.424 254.941 141.193 257.126Z" fill="#382C80"/>
<path d="M138.076 257.988C140.389 264.446 144.466 271.561 151.394 273.864C156.902 275.707 162.243 273.139 165.418 268.533C169.485 262.653 168.907 255.597 168.927 248.806C168.927 245.209 169.034 241.475 170.308 238.026C170.367 237.869 171.7 235.164 171.729 235.203L170.191 235.321C170.428 235.409 170.597 235.619 170.632 235.87C170.916 237.931 171.445 239.951 172.21 241.887C173.827 246.728 181.765 246.228 181.51 240.632C181.324 236.477 181.412 231.558 184.264 228.216C187.115 224.874 192.427 224.374 196.651 224.678C203.854 225.197 210.684 228.216 215.878 221.238C218.662 217.495 220.112 212.506 220.994 207.979C221.876 203.451 222.454 198.277 220.945 193.779C218.72 187.183 212.654 181.744 206.402 179.079C198.062 175.443 189.477 178.295 187.076 187.565L194.181 184.625C185.881 178.216 173.601 182.175 171.328 192.652L178.384 189.78C173.248 186.703 167.221 183.773 161.185 186.027C155.808 187.828 152.586 193.322 153.639 198.894L162.939 196.336C158.284 183.596 144.211 202.687 141.124 207.322C137.067 213.408 135.313 221.787 134.323 228.882C132.98 238.633 133.411 248.933 136.489 258.341C138.449 264.28 147.857 261.732 145.887 255.754C143.727 248.862 142.905 241.62 143.466 234.419C143.907 227.559 145.358 219.415 148.768 213.33C149.982 211.356 151.373 209.496 152.923 207.773C154.187 206.234 155.481 204.725 156.843 203.314C157.402 202.746 158 202.226 158.578 201.687C158.166 202.069 158.519 201.883 158.578 201.687C158.989 201.472 158.989 201.452 158.578 201.628C156.775 202.432 155.099 201.543 153.55 198.963C154.007 200.624 155.316 201.915 156.983 202.35C158.65 202.785 160.423 202.298 161.633 201.071C162.843 199.845 163.307 198.066 162.851 196.405C162.645 195.219 165.653 194.876 166.183 194.915C168.799 195.111 171.269 196.875 173.444 198.149C175.983 199.668 179.854 198.326 180.5 195.278C181.314 191.466 184.969 189.731 188.233 192.338C190.977 194.494 195.289 194.043 196.318 190.202C197.092 187.32 197.944 186.909 200.12 187.311C203.276 187.899 206.157 190.055 208.372 192.289C210.949 194.915 212.007 197.189 211.958 200.854C211.892 206.011 210.524 211.068 207.98 215.554C207.901 215.682 207 216.534 207.323 216.26C207.372 216.26 207.323 216.387 206.784 216.407C205.343 216.377 203.91 216.186 202.511 215.838C197.484 214.927 192.447 214.555 187.409 215.74C175.62 218.435 171.337 229.519 172.033 240.672L181.343 239.407C180.03 235.693 179.903 231.754 176.884 228.872C174.287 226.403 170.259 225.462 167.084 227.353C161.057 230.911 160.45 241.073 160.567 247.13C160.675 252.873 162.753 261.565 157.735 265.985C152.237 270.885 145.867 260.409 144.329 256.273C142.878 252.412 136.665 254.019 138.076 257.988Z" fill="#382C80"/>
<path d="M453.146 789.894C450.386 789.662 447.611 789.685 444.855 789.962C436.457 790.874 427.95 795.019 423.295 802.79C420.15 808.033 418.797 814.737 414.475 818.764C408.733 824.056 400.256 822.684 392.915 821.009L355.264 812.434C354.901 823.919 354.607 835.405 354.519 846.881C354.519 850.056 354.519 853.437 356.254 855.828C357.596 857.71 359.762 858.67 361.869 859.523C396.875 873.674 437.574 872.4 476.088 865.648C482.184 864.579 488.495 863.335 493.885 859.621C499.029 855.995 502.737 850.678 504.361 844.597C504.835 843.17 504.9 841.639 504.547 840.177C504.136 839.132 503.46 838.21 502.587 837.502C495.913 831.406 486.407 829.946 477.558 827.849C468.709 825.752 459.428 822.273 455.292 813.933C452.264 807.788 452.215 799.017 453.146 789.894Z" fill="#382C80"/>
<path d="M453.146 785.846C444.228 785.238 435.036 786.826 427.666 792.216C424.207 794.707 421.332 797.92 419.238 801.634C417.082 805.554 415.916 809.983 413.407 813.678C408.145 821.41 397.472 817.911 390.024 816.216L356.273 808.523C355.053 808.211 353.757 808.475 352.756 809.239C351.755 810.003 351.159 811.184 351.138 812.443C350.785 823.919 350.423 835.404 350.403 846.89C350.403 851.506 350.756 856.406 354.323 859.787C357.616 862.913 362.653 864.265 366.828 865.726C386.575 872.586 407.762 874.928 428.568 874.546C439.186 874.336 449.784 873.521 460.31 872.105C470.267 870.812 481.125 869.93 490.455 866C499.037 862.399 505.524 855.101 508.095 846.155C509.388 841.529 508.663 837.502 505.037 834.277C501.489 831.265 497.379 828.986 492.944 827.574C483.752 824.399 473.393 824.095 465.034 818.754C455.302 812.502 456.214 800.036 457.194 789.893C457.703 784.709 449.599 784.748 449.099 789.893C448.256 798.498 447.825 808.013 451.804 815.971C455.4 823.145 462.584 827.339 469.865 829.877C477.646 832.562 486.153 833.111 493.689 836.541C495.566 837.359 497.331 838.413 498.942 839.677C500.568 841 500.902 841.51 500.451 843.519C499.343 847.931 496.891 851.89 493.434 854.848C486.574 860.835 476.353 861.61 467.768 862.952C458.428 864.403 449.02 865.471 439.583 866.039C420.326 867.196 400.814 866.343 382.018 861.747C377.043 860.528 372.136 859.046 367.318 857.307C365.123 856.514 362.212 855.818 360.37 854.309C358.527 852.799 358.557 850.212 358.527 847.948C358.38 836.12 358.909 824.252 359.272 812.433L354.147 816.353L387.908 824.036C396.287 825.996 406.077 828.652 414.083 824.036C422.423 819.205 422.815 809.189 428.548 802.359C434.624 795.117 444.169 793.372 453.136 793.98C458.35 794.303 458.33 786.159 453.146 785.846Z" fill="#382C80"/>
<path d="M449.167 814.727C452.163 811.63 456.276 809.865 460.584 809.827C462.887 809.827 462.887 806.181 460.584 806.25C455.381 806.416 450.469 808.695 446.982 812.561C445.639 814.012 447.756 816.148 449.167 814.747V814.727Z" fill="white"/>
<path d="M459.516 824.537C460.232 820.617 462.75 817.167 466.729 816.079C468.973 815.462 468.013 811.924 465.749 812.581C460.761 814.183 457.13 818.497 456.4 823.684C456.086 825.693 459.134 826.624 459.497 824.537H459.516Z" fill="white"/>
<path d="M472.423 826.683C472.447 824.635 473.249 822.673 474.667 821.195C475.725 820.009 474.295 817.784 472.854 818.853C470.436 820.71 469.099 823.649 469.287 826.693C469.287 827.558 469.989 828.261 470.855 828.261C471.721 828.261 472.423 827.558 472.423 826.693V826.683Z" fill="white"/>
<path d="M467.964 798.606C468.248 796.999 468.552 795.931 470.375 795.853C471.933 795.784 472.717 796.333 472.129 798.146C471.934 798.861 472.138 799.626 472.662 800.151C473.186 800.675 473.951 800.879 474.667 800.684C476.215 800.125 478.45 799.038 480.057 799.988C482.693 801.546 479.93 803.614 478.362 804.339C476.196 805.319 477.774 809.161 479.998 808.259C483.644 806.731 486.858 803.281 484.8 799.136C482.625 794.628 477.47 795.216 473.569 796.735L476.117 799.273C476.892 796.137 475.137 792.413 471.698 792.001C468.013 791.531 465.818 795.088 465.406 798.293C465.239 799.733 467.699 800.076 467.964 798.636V798.606Z" fill="#382C80"/>
<path d="M665.238 962.942C657.825 953.121 653.453 941.343 652.664 929.064L649.029 930.044C655.457 940.206 661.886 950.379 668.197 960.629L672.117 958.346C668.521 952.789 672.764 943.136 679.957 943.832C686.739 944.479 689.757 953.632 685.975 958.709C684.132 961.178 688.287 963.609 690.11 961.129C696.127 953.054 690.11 939.638 679.899 939.079C669.383 938.501 662.259 952.162 668.139 960.639C669.785 962.991 673.666 960.806 672.059 958.356C665.414 948.311 658.887 938.197 652.361 928.074C651.381 926.565 648.568 927.015 648.715 929.054C649.604 942 654.26 954.403 662.112 964.736C663.484 966.539 666.59 964.736 665.199 962.932L665.238 962.942Z" fill="#382C80"/>
<path d="M155.599 317.288C150.59 315.432 145.912 312.785 141.741 309.448C136.234 305.038 136.92 295.268 139.429 289.309C140.003 287.774 140.977 286.421 142.251 285.389C144.485 283.772 147.533 283.988 150.248 284.498C162.576 286.781 174.091 293.406 186.625 293.533C189.683 293.533 192.76 293.2 195.798 293.533C198.836 293.866 201.953 295.131 203.707 297.63C206.196 301.187 205.167 306.244 202.727 309.821" fill="white"/>
<path d="M157.333 314.329C153.108 312.597 149.115 310.345 145.446 307.626C142.408 305.313 141.33 302.403 141.369 298.63C141.369 295.69 141.908 291.417 143.937 289.114C146.524 286.174 153.56 289.114 156.677 290.094C165.497 292.73 173.954 296.356 183.137 297.277C187.831 297.757 193.289 296.297 197.758 298.061C202.413 299.855 201.169 304.323 199.071 307.734C196.19 312.389 203.403 316.554 206.363 311.997C211.439 304.245 209.528 293.945 200.345 290.603C195.357 288.79 190.046 289.829 184.881 289.545C179.716 289.261 174.807 287.801 169.965 286.242C165.281 284.743 160.646 283.048 155.883 281.803C151.522 280.666 146.455 279.373 142.104 281.156C134.823 284.145 133.068 294.935 133.96 301.864C135.313 312.359 145.563 317.544 154.697 320.64C158.323 321.865 160.94 315.907 157.343 314.368L157.333 314.329Z" fill="#382C80"/>
<path d="M415.377 392.807C413.966 391.376 411.663 385.536 411.349 383.546C409.605 372.56 436.026 380.224 441.553 381.077C456.243 383.341 471.083 384.497 485.947 384.536C506.154 384.585 526.284 382.576 546.374 380.567C557.761 379.44 575.842 372.59 586.358 379.587C593.766 384.487 589.298 393.532 583.163 397.315C572.226 404.018 556.889 405.488 544.443 406.821C523.549 409.056 502.401 409.301 481.351 408.683C470.786 408.379 460.241 407.85 449.697 407.243C436.614 406.498 425.353 405.077 415.455 395.287" fill="white"/>
<path d="M417.357 390.828C416.23 389.436 413.182 383.547 414.554 381.792C415.769 380.224 420.434 380.754 422.09 380.812C428.636 381.214 434.908 383.164 441.357 384.223C470.963 389.123 500.882 388.143 530.645 385.379C537.26 384.772 543.953 384.35 550.519 383.302C555.899 382.449 561.191 381.106 566.591 380.362C571.805 379.617 577.881 379.068 582.81 381.342C588.112 383.811 587.24 388.584 583.545 392.229C579.625 396.149 573.373 397.923 568.13 399.266C562.003 400.735 555.781 401.773 549.51 402.372C535.175 403.966 520.802 404.852 506.39 405.028C489.73 405.224 472.981 404.597 456.312 403.695C442.592 402.96 428.695 402.578 418.16 392.504C414.632 389.133 409.272 394.464 412.79 397.884C422.737 407.547 435.261 410.095 448.668 410.928C465.7 412.025 482.732 412.78 499.784 412.78C516.39 412.805 532.985 411.902 549.49 410.075C556.446 409.427 563.345 408.264 570.129 406.596C576.244 404.969 582.986 402.676 587.769 398.394C591.689 394.954 594.56 389.358 593.423 384.066C592.159 378.186 586.279 374.903 580.811 373.796C568.463 371.287 555.929 376.304 543.708 377.529C510.025 380.91 475.863 383.596 442.229 378C433.919 376.608 425.471 373.796 416.955 374.805C413.201 375.246 409.291 376.863 408.37 380.91C407.39 385.291 410.565 391.69 413.358 394.807C415.769 397.551 419.542 393.601 417.278 390.887L417.357 390.828Z" fill="#382C80"/>
<path d="M415.22 378.48C413.084 379.156 410.781 377.089 410.683 374.854C410.585 372.62 412.182 370.591 414.142 369.513C416.165 368.547 418.354 367.978 420.591 367.837C450.677 364.123 481.125 363.094 511.417 363.692C522.305 363.908 533.183 364.29 544.061 364.672C553.547 365.035 562.916 366.946 572.54 367.191C578.067 367.328 584.064 367.318 588.465 370.67C589.445 371.434 590.425 372.786 589.768 373.864C589.48 374.265 589.091 374.583 588.641 374.786C581.673 378.637 574.196 379.627 566.503 381.048C554.158 383.167 541.676 384.388 529.155 384.703C490.652 386.119 452.113 383.131 414.289 375.795" fill="#382C80"/>
<path d="M415.22 375.256C412.849 375.462 416.896 372.61 417.788 372.316C420.648 371.681 423.555 371.285 426.48 371.13C432.164 370.516 437.852 369.994 443.542 369.562C455.165 368.667 466.801 368.092 478.45 367.838C490.308 367.573 502.176 367.612 514.034 367.887C525.519 368.161 537.122 368.23 548.579 369.161C554.41 369.641 560.192 370.513 566.013 371.023C570.913 371.444 576.009 371.023 580.821 372.003C581.977 372.191 583.106 372.52 584.182 372.983C584.59 373.261 585.023 373.501 585.476 373.698L585.985 372.385C586.818 371.091 586.808 370.748 585.985 371.336C585.172 371.336 583.565 372.493 582.741 372.806C581.314 373.345 579.858 373.806 578.38 374.188C573.48 375.501 568.433 376.275 563.455 377.128C540.611 381.048 516.856 381.126 493.757 380.352C467.366 379.47 441.435 376.06 415.436 371.62C410.114 370.709 407.723 378.696 413.172 379.862C439.955 385.615 467.709 388.261 495.061 389.104C521.785 389.927 548.843 389.192 575.097 383.812C580.556 382.694 587.426 381.254 591.865 377.677C597.128 373.443 592.59 367.573 588.004 365.388C582.771 362.889 576.901 363.065 571.256 362.84C564.533 362.575 557.869 361.546 551.176 360.88C537.603 359.557 523.736 359.596 510.123 359.361C496.511 359.125 482.86 359.233 469.238 359.753C453.646 360.36 438.064 361.566 422.57 363.477C416.622 364.212 409.34 365.143 407.312 371.885C406.494 374.45 407.114 377.258 408.938 379.239C410.761 381.22 413.507 382.072 416.132 381.469C419.581 380.636 418.944 374.845 415.279 375.158L415.22 375.256Z" fill="#382C80"/>
<path d="M416.7 163.938C401.941 160.322 387.084 156.48 372.6 151.806C360.134 147.778 347.816 145.318 336.507 138.086C335.893 137.754 335.372 137.276 334.988 136.694C334.204 135.234 335.458 133.362 337.036 132.852C338.614 132.343 340.329 132.764 341.936 133.117C349.952 134.901 358.233 135.008 366.436 135.234C391.347 135.887 416.194 137.671 440.975 140.585C453.205 142.002 465.409 143.688 477.587 145.641C488.25 147.347 498.167 150.336 508.889 151.806C510.094 151.972 511.437 152.217 512.123 153.227C512.53 153.989 512.707 154.854 512.632 155.716C512.632 162.654 511.652 169.005 510.672 175.865C479.018 176.668 447.472 171.465 416.7 163.938Z" fill="white"/>
<path d="M417.474 161.224C399.942 156.696 382.684 151.482 365.338 146.288C357.351 143.897 349.305 141.535 341.946 137.468C341.054 136.978 340.123 136.488 339.27 135.92C336.81 134.244 339.525 135.861 340.515 136.145C342.599 136.678 344.717 137.064 346.855 137.302C351.221 137.886 355.614 138.246 360.017 138.38C378.637 139.105 397.257 139.869 415.808 141.506C433.997 143.094 452.068 145.632 470.09 148.366C479.841 149.856 489.387 152.08 499.049 154.03C501.568 154.54 504.087 155.01 506.625 155.383L508.791 155.696C509.094 156.02 508.702 158.96 508.673 159.528C508.428 164.644 507.693 169.71 506.968 174.777L510.77 171.886C479.106 172.533 448.56 166.77 417.778 160.067C412.829 158.989 410.722 166.359 415.671 167.692C446.394 175.982 478.94 180.52 510.731 179.775C512.279 179.775 514.298 178.589 514.533 176.835C515.219 171.935 515.984 166.976 516.356 162.008C516.67 157.774 517.699 151.835 513.514 149.121C510.172 146.965 504.91 147.161 501.107 146.406C495.708 145.318 490.327 144.015 484.977 142.927C464.397 138.782 443.297 136.969 422.413 135.087C401.187 133.127 379.97 132.431 358.713 131.618C353.396 131.444 348.099 130.871 342.867 129.903C339.035 129.178 334.615 128.795 332.351 132.725C330.088 136.655 332.812 139.585 335.987 141.545C340.057 143.968 344.35 145.996 348.806 147.602C359.125 151.522 369.974 154.334 380.548 157.46C392.249 160.92 404.068 163.87 415.965 166.623C419.503 167.476 421.002 162.135 417.474 161.224Z" fill="#382C80"/>
<path d="M405.116 162.88C410.359 159.051 416.201 156.12 422.404 154.207C425.412 153.227 428.852 152.649 431.567 154.207C434.595 156.01 435.585 160.165 434.605 163.556C433.625 166.947 431.135 169.681 428.48 172.004C425.824 174.326 422.903 176.404 420.64 179.138C423.717 178.854 426.716 180.716 428.431 183.274C430.043 185.932 430.885 188.985 430.861 192.094C431.018 196.994 429.754 202.413 425.902 205.51" fill="white"/>
<path d="M406.508 165.271C410.266 162.829 414.274 160.795 418.464 159.205C421.208 158.176 427.794 155.177 430.224 157.98C432.654 160.783 429.842 164.909 427.852 166.947C424.638 170.24 420.659 172.651 417.533 176.071C416.335 177.348 415.996 179.208 416.665 180.826C417.335 182.444 418.889 183.52 420.64 183.578C429.46 183.656 426.608 198.493 423.168 202.815C420.62 206.02 423.805 211.331 427.852 208.881C440.112 201.463 437.28 174.023 420.64 174.787L423.746 182.284C427.754 177.384 433.634 174.16 436.77 168.495C439.416 163.703 439.71 157.255 435.79 153.002C431.537 148.327 425.099 149.395 419.797 151.375C413.773 153.653 408.149 156.875 403.137 160.92C400.667 162.88 403.872 166.947 406.488 165.271H406.508Z" fill="#382C80"/>
<path d="M558.271 183.999C565.327 180.53 571.579 175.669 577.773 170.838L585.613 164.693C584.211 165.791 577.969 162.674 576.46 162.008C574.256 161.022 572.313 159.535 570.785 157.667C567.21 153.661 562.961 150.311 558.232 147.769C555.066 147.935 552.097 150.963 552.43 154.197C552.714 156.981 554.949 159.382 554.782 162.165C554.537 166.496 548.686 169.73 550.078 173.827C550.999 176.512 554.527 177.384 555.958 179.864C556.83 181.422 556.664 183.137 556.272 184.92C556.948 184.626 557.614 184.323 558.271 183.999Z" fill="#7F72FF"/>
<path d="M560.319 187.497C570.619 182.303 579.478 174.61 588.523 167.564C592.345 164.624 587.494 159.273 583.623 161.194C585.28 160.381 584.995 161.145 583.623 160.596C582.918 160.312 582.183 160.116 581.487 159.822C580.507 159.45 579.625 159.019 578.723 158.578C575.274 156.921 573.196 154.07 570.423 151.522C567.483 148.778 563.7 145.436 559.839 144.064C556.37 142.839 552.273 145.338 550.284 148.121C548.03 151.267 548.098 154.795 549.48 158.284C550.156 159.959 551.097 161.282 550.392 163.017C549.813 164.467 548.52 165.712 547.697 167.025C546.021 169.72 545.247 172.905 546.628 175.845C548.01 178.785 553.028 180.373 552.361 183.813C551.656 187.478 555.037 189.84 558.31 188.389C558.986 188.095 559.653 187.791 560.27 187.468C564.974 185.234 560.868 178.246 556.174 180.471C555.517 180.794 554.851 181.098 554.214 181.392L560.162 185.969C560.897 182.147 560.662 178.53 557.771 175.649C556.918 174.806 554.625 173.866 554.174 172.709C553.861 171.915 554.615 171.161 555.154 170.406C556.82 167.927 558.643 165.604 558.859 162.498C558.919 160.62 558.54 158.754 557.751 157.049C557.065 155.373 556.262 154.275 557.026 152.609C557.232 152.168 558.428 151.776 557.261 151.767C557.849 151.767 559.692 153.237 560.201 153.56C561.804 154.658 563.324 155.874 564.749 157.196C567.434 159.675 569.649 162.684 572.834 164.595C576.754 166.947 583.29 170.367 587.759 168.142L582.859 161.782C574.333 168.427 565.983 175.561 556.281 180.402C551.568 182.852 555.664 189.84 560.319 187.497Z" fill="#7F72FF"/>
<path d="M550.45 141.918C546.53 145.211 544.316 148.533 545.335 153.835C545.766 156.06 546.864 158.137 547.207 160.372C547.589 162.861 546.138 163.958 544.688 165.791C541.905 169.319 540.895 174.219 544.541 177.551C545.962 178.864 548.461 179.286 549.441 180.922C550.666 182.882 550.196 185.999 551.146 188.194C552.724 191.82 557.84 189.615 558.006 186.332C558.212 182.696 557.271 177.884 554.635 175.199C553.874 174.46 553.017 173.827 552.087 173.317C551.528 173.004 549.99 172.661 549.725 172.132C549.255 171.21 551.764 168.927 552.342 168.163C554.831 164.909 555.184 161.352 554.047 157.461C552.822 153.237 550.313 149.366 554.263 145.77C556.889 143.369 553.038 139.635 550.392 141.899L550.45 141.918Z" fill="#382C80"/>
<path d="M236.38 483.771C241.927 470.765 249.653 458.801 259.224 448.393C268.965 437.917 280.431 430.077 292.72 422.913C297.042 420.384 293.249 414.514 288.898 416.376C275.276 422.256 263.163 432.262 253.314 443.238C243.321 454.333 235.541 467.236 230.392 481.252C229.128 484.702 234.91 487.191 236.38 483.781V483.771Z" fill="#382C80"/>
<path d="M606.673 182.744C615.611 179.589 620.893 190.8 622.774 197.699C625.714 208.479 626.302 220.504 626.469 231.666C626.554 242.896 625.728 254.115 623.999 265.211C622.549 275.011 620.854 284.811 620.373 294.709C619.521 312.349 623.774 330.323 638.258 341.749C650.998 351.775 668.011 354.774 683.887 354.421C715.522 353.715 757.26 340.397 764.629 305.235C766.489 295.671 766.82 285.874 765.609 276.207C764.718 268.416 762.865 260.458 758.749 253.716C754.751 247.258 748.518 242.377 740.913 241.103C731.388 239.516 721.901 243.122 713.679 247.65C698.636 255.921 684.083 269.21 680.634 286.732C678.615 296.963 680.722 307.253 683.191 317.21C685.935 328.314 688.336 339.054 687.748 350.579C686.661 372.394 678.331 393.268 677.86 415.142C677.703 422.207 678.899 430.537 684.23 435.722C690.238 441.533 699.097 440.622 705.388 435.8C712.67 430.224 714.816 421.1 715.767 412.388C717.031 400.902 717.727 389.328 718.707 377.813C720.667 353.829 722.627 329.846 724.587 305.862C726.547 281.878 728.529 257.894 730.535 233.91L733.475 198.268C734.338 187.831 736.013 177.07 735.2 166.584C734.553 158.205 731.78 150.042 724.91 144.76C718.295 139.683 709.749 138.488 701.684 137.743C692.864 136.939 684.279 136.665 676.478 132.029C669.618 127.972 664.032 120.083 669.315 112.429C675.812 102.982 688.915 104.442 698.715 106.069C710.259 108.029 721.794 109.989 733.328 111.949L750.978 114.86C755.76 115.673 760.935 116.33 765.149 118.917C773.351 123.984 772.509 134.087 771.205 142.359C769.902 150.63 768.157 158.578 769.245 166.859C769.657 169.848 774.204 168.574 773.792 165.604C771.774 150.953 782.779 132.412 772.528 119.358C766.648 111.822 756.348 111.048 747.587 109.558L713.532 103.776C703.37 102.051 692.501 99.0524 682.172 100.336C674.518 101.316 666.649 105.511 663.65 112.978C657.447 128.394 675.528 139.085 688.238 141.094C696.696 142.427 705.408 141.996 713.718 144.397C722.695 146.994 728.36 153.491 730.026 162.654C731.77 172.288 730.084 182.519 729.291 192.172L726.351 227.138C722.529 273.316 718.693 319.49 714.845 365.661C713.872 377.317 712.892 388.972 711.905 400.628C711.121 410.075 711.533 422.1 704.879 429.685C698.685 436.751 688.219 436.956 684.348 427.627C680.859 419.238 682.545 409.007 683.917 400.353C687.16 379.852 694.001 359.389 692.021 338.388C690.13 318.347 678.487 297.855 688.258 278.177C692.286 270.053 698.734 263.31 705.976 257.95C713.591 252.305 722.636 246.983 732.152 245.611C751.635 242.779 759.406 261.977 760.856 277.951C761.738 287.653 761.64 298.012 758.896 307.43C756.439 315.699 751.681 323.098 745.176 328.764C732.74 339.848 715.776 345.346 699.646 348.051C683.662 350.716 665.885 350.618 650.851 343.925C634.064 336.448 625.371 320.885 624.597 302.863C623.745 283.077 629.34 263.614 630.203 243.906C630.682 232.711 630.174 221.496 628.684 210.39C627.567 202.021 626.312 193.475 621.236 186.478C617.62 181.48 612.151 177.658 605.85 179.991C604.164 180.618 604.87 183.323 606.595 182.715L606.673 182.744Z" fill="#7F72FF"/>
<path d="M539.318 879.897C547.308 844.526 555.651 809.246 564.347 774.057C573.627 736.288 583.035 698.597 592.914 660.936C597.866 642.074 602.893 623.229 607.996 604.4C609.388 599.235 601.44 597.05 599.999 602.195C590.199 637.102 581.232 672.265 572.451 707.447C563.024 745.183 553.975 783.011 545.305 820.931C540.961 839.962 536.786 859.023 532.781 878.114C531.899 882.357 538.347 884.18 539.318 879.917V879.897Z" fill="#382C80"/>
<path d="M616.62 563.915L579.831 560.093C577.587 559.858 575.088 559.701 573.333 561.073C571.579 562.445 571.158 565.258 571.001 567.649L569.286 593.296C614.274 599.654 659.608 603.254 705.036 604.076C706.994 604.244 708.966 604.004 710.827 603.37C716.041 601.195 716.766 594.217 716.57 588.572C716.413 583.898 716.178 579.213 715.865 574.548C715.757 572.912 715.561 571.109 714.346 570.001C713.248 569.195 711.925 568.753 710.563 568.737L676.469 564.817" fill="white"/>
<path d="M617.522 560.583C609.995 559.495 602.479 558.408 594.923 557.496C591.209 557.045 587.485 556.663 583.761 556.261C580.536 555.909 577.048 555.183 573.843 556.114C567.404 557.996 566.865 564.601 566.483 570.236C565.941 577.919 565.418 585.606 564.915 593.296C564.798 594.991 566.336 597.216 568.12 597.5C600.058 602.047 632.104 605.555 664.317 607.368C672.549 607.832 680.781 608.201 689.013 608.476C692.795 608.603 696.578 608.711 700.361 608.78C704.144 608.848 708.377 609.309 712.121 607.986C724.724 603.468 721.215 584.574 720.186 574.587C719.834 571.118 718.961 567.727 715.649 565.895C712.337 564.062 707.672 564.248 704.036 563.807C694.853 562.69 685.681 561.553 676.498 560.495C670.912 559.838 670.941 568.629 676.498 569.256C683.485 570.05 690.483 570.785 697.48 571.54L706.653 572.52C707.633 572.627 710.827 572.461 711.504 573.127C711.504 573.127 711.651 575.695 711.69 576.498C711.915 582.035 712.67 588.013 711.827 593.531C711.592 595.167 711.18 597.363 709.867 598.499C707.848 600.224 703.507 599.332 701.047 599.274C673.215 598.62 645.448 597.02 617.747 594.472C601.959 593.031 586.191 591.277 570.491 589.082L573.696 593.296L574.872 575.362C575.058 572.52 575.058 569.589 575.431 566.767C575.803 563.945 576.754 564.101 579.351 564.307C591.787 565.287 604.174 566.571 616.591 567.365C620.403 567.61 621.383 561.142 617.502 560.583H617.522Z" fill="#382C80"/>
<path d="M723.371 878.995C719.677 844.009 716.257 809.033 712.003 774.135C707.603 738.012 702.684 701.948 697.607 665.914C694.902 646.804 692.707 627.508 689.081 608.535C688.258 604.125 680.624 605.075 681.153 609.613C683.113 626.655 686.141 643.619 688.591 660.573C691.139 678.174 693.612 695.788 696.01 713.414C700.91 749.557 705.447 785.748 710.171 821.92C712.65 840.932 715.326 859.934 717.452 878.985C717.864 882.719 723.773 882.778 723.332 878.985L723.371 878.995Z" fill="#382C80"/>
<path d="M724.195 67.0559C715.835 66.3111 645.863 61.7835 645.795 62.6557C646.843 54.6001 648.94 46.5739 650.695 38.5869C675.6 38.6653 700.482 39.5081 725.341 41.1153C727.576 41.2623 730.153 41.6053 731.349 43.5065C732.231 44.9079 732.025 46.7111 731.799 48.4065L729.839 62.5577C729.643 63.9983 729.359 65.5859 728.203 66.4777C727.046 67.3695 725.567 67.1833 724.195 67.0559Z" fill="white"/>
<path d="M724.195 64.2822C700.675 61.3422 676.91 60.2348 653.282 58.9118C649.999 58.7256 644.56 57.5006 642.365 60.6758L649.538 63.704C650.773 55.5994 652.782 47.6614 654.624 39.6744L650.704 42.6732C667.825 42.8104 684.946 43.2318 702.047 44.0452C706.27 44.2412 710.475 44.6234 714.698 44.8978C718.422 45.133 722.872 44.7312 726.458 45.6916C727.772 46.0346 727.674 45.966 727.438 47.3478C727.086 49.4156 726.841 51.5128 726.556 53.5904C726.272 55.668 725.968 57.8828 725.665 60.029C725.459 61.5382 725.861 63.1258 724.204 63.214C720.108 63.4296 718.697 69.9172 723.224 70.7698C727.919 71.6518 732.407 70.515 733.887 65.4484C735.278 60.6464 735.425 55.1486 736.092 50.1898C736.69 45.8092 736.758 41.1346 732.525 38.4886C728.605 36.0484 723.136 36.5286 718.736 36.2738C696.069 34.9998 673.333 34.5 650.685 34.5C648.861 34.5281 647.269 35.7455 646.765 37.4988C644.922 45.8582 642.845 54.1588 641.865 62.6554C641.365 66.8106 647.274 67.5554 649.176 64.6154C648.774 65.2524 646.853 66.791 646.157 66.4774C646.265 66.5264 646.52 66.4774 646.637 66.4774H648.421C650.273 66.4774 652.135 66.4774 653.997 66.5754C659.701 66.7322 665.404 66.938 671.108 67.1928C684.524 67.82 697.931 68.9862 711.347 69.4076C715.639 69.5448 719.941 69.6526 724.234 69.8682C727.83 70.0152 727.625 64.7134 724.195 64.2822Z" fill="#382C80"/>
<path d="M564.464 764.943C643.394 768.321 722.336 771.379 801.291 774.116L868.088 776.429C874.448 776.654 874.438 766.747 868.088 766.551C789.146 764.14 710.203 761.876 631.261 759.759C608.996 759.171 586.73 758.779 564.464 758.23C560.133 758.142 560.162 764.757 564.464 764.943Z" fill="#382C80"/>
<path d="M310.654 633.888C316.662 665.875 323.522 697.696 329.529 729.683C335.494 761.441 340.861 793.305 345.63 825.272C346.963 834.259 348.237 843.245 349.55 852.222C350.873 861.366 351.648 870.754 353.696 879.76C354.725 884.288 362.065 883.347 361.84 878.653C361.467 870.568 359.88 862.473 358.743 854.476C357.606 846.479 356.322 838.287 355.038 830.211C352.464 814.048 349.75 797.914 346.895 781.809C341.318 749.998 335.399 718.256 328.755 686.641C324.933 668.462 320.915 650.381 316.191 632.369C315.211 628.763 309.998 630.311 310.674 633.888H310.654Z" fill="#382C80"/>
<path d="M221.308 642.599C221.396 674.322 220.328 706.123 219.73 737.846C219.076 770.512 218.23 803.179 217.192 835.846C216.613 853.368 215.78 870.881 215.232 888.413C215.075 893.685 223.072 893.626 223.405 888.413C225.188 856.729 225.816 824.938 226.551 793.216C227.315 760.552 227.736 727.84 227.589 695.157C227.511 677.625 226.933 660.092 226.776 642.56C226.776 639.042 221.298 639.032 221.298 642.56L221.308 642.599Z" fill="#382C80"/>
<path d="M164.105 545.08C179.364 583.398 216.133 607.114 254.04 619.266C276.776 626.557 300.364 630.594 323.806 634.857C328.255 635.661 335.615 635.73 338.927 639.238C342.387 642.884 342.298 650.371 342.896 655.036C344.487 667.544 345.393 680.129 345.611 692.736C345.748 699.822 345.611 706.897 345.385 713.973C345.16 720.372 344.405 726.85 345.248 733.23C346.65 744.245 355.528 756.181 367.974 752.575C373.433 750.997 371.032 743.471 365.691 744.274C361.595 744.882 357.586 741.158 355.989 737.728C353.862 733.161 354.127 727.722 354.333 722.822C354.833 710.788 354.98 698.802 354.382 686.768C353.784 674.734 352.588 662.591 350.883 650.606C350.187 645.706 349.727 640.424 347.14 636.092C344.552 631.761 339.897 629.418 334.968 628.36C312.546 623.538 289.81 620.745 267.603 614.767C247.513 609.348 227.913 601.851 210.42 590.434C192.535 578.752 177.276 562.867 168.554 543.208C167.447 540.709 163.076 542.512 164.105 545.08Z" fill="#382C80"/>
<path d="M453.225 736.807C459.593 739.207 466.413 740.17 473.197 739.629C478.401 739.296 478.371 731.074 473.197 731.534C467.104 732 460.976 731.617 454.989 730.398C453.844 730.082 452.618 730.402 451.772 731.236C450.927 732.07 450.591 733.292 450.89 734.441C451.19 735.59 452.08 736.492 453.225 736.807Z" fill="#382C80"/>
<path d="M153.207 384.438C153.893 370.375 158.362 356.381 166.771 345.091C175.179 333.801 187.605 325.364 201.423 322.669C216.898 319.66 231.382 323.364 244.543 332.037C246.729 333.478 249.071 335.565 248.738 338.153C248.405 340.74 245.651 342.131 243.171 341.965C240.075 341.759 236.752 339.789 233.705 338.966C229.295 337.77 225.032 336.114 220.553 335.046C211.782 333.027 202.511 332.253 193.779 334.879C186.212 337.17 179.574 341.819 174.836 348.149C166.016 360.026 165.105 375.853 164.615 390.661" fill="#7F72FF"/>
<path d="M156.265 384.439C157.539 367.612 164.262 351.04 176.923 339.594C188.987 328.687 205.579 323.502 221.641 326.854C229.481 328.481 237.654 331.832 243.906 336.958C244.886 337.761 244.534 337.379 244.475 337.428C244.088 337.676 243.627 337.78 243.171 337.722C241.486 337.722 239.516 336.566 237.968 335.968C233.489 334.243 228.736 332.861 224.12 331.597C207.46 327.03 189.173 328.069 176.1 340.417C162.537 353.157 160.548 373.198 160.42 390.76C160.361 396.297 168.642 396.218 168.966 390.76C169.946 373.727 170.514 353.677 186.38 343.21C194.818 337.654 204.873 336.713 214.663 338.31C219.142 339.128 223.557 340.265 227.874 341.711C230.147 342.426 232.47 343.024 234.734 343.837C237.233 344.739 239.565 345.856 242.231 346.16C245.945 346.591 249.963 345.18 251.972 341.858C254.432 337.781 252.56 333.195 249.277 330.284C242.838 324.571 233.371 320.807 225.081 318.936C207.451 315.077 189.025 319.528 175.101 331.009C158.96 343.965 150.895 364.143 150.14 384.439C150.003 388.359 155.961 388.359 156.255 384.439H156.265Z" fill="#7F72FF"/>
<path d="M173.366 375.09C171.7 359.861 185.851 347.317 199.463 344.181C207.266 342.536 215.342 342.7 223.072 344.661C231.48 346.621 239.477 349.649 248.14 350.541C252.178 350.943 253.177 343.936 249.12 343.387C239.32 342.074 230.235 338.007 220.524 336.409C211.625 334.949 202.247 335.027 193.632 337.928C177.453 343.387 166.545 357.861 168.721 375.168C169.093 378.108 173.709 378.167 173.376 375.168L173.366 375.09Z" fill="#382C80"/>
<path d="M158.715 394.366C163.782 394.366 163.791 386.526 158.715 386.526C153.639 386.526 153.629 394.366 158.715 394.366Z" fill="#382C80"/>
<path d="M97.0926 502.411C106.501 506.116 117.673 508.448 127.688 506.38C131.059 505.684 130.197 500.5 126.894 500.5C122.171 500.451 117.467 500.755 112.753 500.275C107.92 499.76 103.164 498.682 98.5822 497.06C95.1326 495.855 93.7998 501.167 97.0926 502.46V502.411Z" fill="#382C80"/>
<path d="M172.533 206.411C188.389 204.353 228.589 206.823 233.371 185.517C234.93 178.657 232.225 171.229 227.55 165.917C220.573 157.989 209.557 154.304 199.013 154.814C188.468 155.324 178.384 159.665 169.613 165.594C163.733 169.583 158.039 175.09 157.588 182.136C150.062 182.244 141.124 183.116 137.498 189.751C134.725 194.808 136.636 201.56 140.938 205.431C150.022 213.457 162.125 207.763 172.533 206.411Z" fill="#7F72FF"/>
<path d="M172.533 209.155C182.068 208.695 191.555 209.155 201.09 208.175C211.174 207.195 222.239 205.039 230.226 198.375C240.261 189.996 240.026 175.482 232.646 165.359C223.444 152.746 206.862 148.601 192.045 151.267C182.848 153.086 174.155 156.877 166.565 162.38C159.646 167.28 154.021 173.424 153.119 182.146L157.598 177.668C150.904 177.766 143.525 178.373 137.998 182.568C131.716 187.35 130.275 195.504 133.47 202.55C136.665 209.596 143.79 213.506 151.296 213.977C158.803 214.447 166.251 211.684 173.66 210.635C176.032 210.292 177.296 207.293 176.737 205.196C176.071 202.648 173.66 201.786 171.308 202.119C162.753 203.314 148.944 209.43 142.525 200.521C139.889 196.866 139.958 191.917 143.907 189.3C147.857 186.684 153.119 186.713 157.627 186.605C160.076 186.544 162.049 184.576 162.116 182.127C162.684 176.178 168.241 171.798 172.896 168.73C178.728 164.722 185.239 161.807 192.113 160.126C203.942 157.411 218.426 160.126 225.796 170.602C231.235 178.334 230.696 188.183 222.474 193.367C215.359 197.846 206.51 199.247 198.307 200.355C189.487 201.55 180.579 201.952 171.847 203.736C168.76 204.392 169.456 209.302 172.533 209.155Z" fill="#7F72FF"/>
<path d="M158.725 184.087C157.51 174.336 151.728 166.761 142.966 162.449L143.858 169.309C145.603 167.407 148.032 166.276 150.61 166.163L146.053 161.606C146.787 167.962 148.379 174.19 150.787 180.118C151.767 182.431 153.835 184.038 156.471 183.342C158.676 182.764 160.636 179.961 159.705 177.658C157.432 172.118 155.852 166.318 155.001 160.391C154.736 158.568 152.404 156.912 150.61 157.049C145.669 157.308 141.022 159.48 137.655 163.105C136.583 164.226 136.173 165.824 136.573 167.322C136.974 168.82 138.127 170 139.615 170.436C146.171 172.347 150.718 178.501 152.169 184.95C152.982 188.556 159.234 187.89 158.754 184.058L158.725 184.087Z" fill="#7F72FF"/>
</svg>
