<svg width="1000" height="1000" viewBox="0 0 1000 1000" fill="none" xmlns="http://www.w3.org/2000/svg">
<path d="M233.264 386.124L232.911 494.12C195.224 511.14 155.974 524.461 115.713 533.898C112.773 534.594 109.46 535.231 106.765 533.8C105.138 532.776 103.762 531.399 102.737 529.772L72.9847 489.553C71.0737 486.966 69.1137 484.281 68.4375 481.135C67.7123 477.813 68.5061 474.373 69.2607 471.061C75.5229 443.572 82.5005 416.18 86.0285 388.143C86.8909 381.332 87.5475 374.501 87.9885 367.641C88.2531 363.094 86.1461 350.334 88.7137 346.777C91.1833 343.376 101.689 341.955 105.668 340.446C112.263 337.927 118.751 335.125 125.434 332.851C149.866 324.541 176.816 322.708 198.934 309.458" fill="white"/>
<path d="M230.314 386.124C229.657 422.129 229.402 458.144 229.069 494.149L230.97 490.837C202.543 503.413 173.235 513.894 143.28 522.197C135.819 524.274 128.305 526.234 120.74 528.077C117.574 528.841 113.811 530.311 110.518 530.145C107.226 529.978 105.168 525.539 103.404 523.157L88.9683 503.557C84.3329 497.266 79.3349 491.121 75.0621 484.584C70.7893 478.048 74.0135 470.864 75.6011 463.926C77.3847 456.194 79.1879 448.462 80.9225 440.72C84.3917 425.255 87.2827 409.575 89.4583 393.876C90.4971 386.447 91.3497 378.989 91.8789 371.502C92.2415 366.416 91.7809 361.496 91.6045 356.41C91.5359 354.45 91.1635 351.755 91.8789 349.864C92.2611 348.835 93.4273 348.394 94.8189 347.904C99.5033 346.159 104.462 345.434 109.127 343.602C117.075 340.495 124.944 337.251 133.147 334.84C140.702 332.626 148.376 330.871 156.02 329.049C171.533 325.374 187.096 321.277 200.943 313.114C205.578 310.38 201.374 303.157 196.719 305.891C183.656 313.574 168.995 317.347 154.364 320.817C147.092 322.541 139.801 324.198 132.608 326.236C124.721 328.595 116.96 331.353 109.352 334.497C104.07 336.585 98.7095 337.722 93.3489 339.495C88.7429 341.014 84.6367 343.18 83.5489 348.315C82.4611 353.451 83.2451 358.85 83.5489 363.995C83.9311 370.757 82.9413 377.715 82.1769 384.389C80.2169 401.049 76.8065 417.474 73.0433 433.83C71.0833 442.209 69.2017 450.588 67.2417 458.957C65.5071 466.405 61.9987 475.304 64.0175 482.967C65.9089 490.161 72.2299 496.442 76.5615 502.283L92.2415 523.481C96.2791 528.929 100.385 537.367 107.559 539.004C111.028 539.788 114.674 538.867 118.055 538.024C122.239 537.044 126.414 535.995 130.579 534.898C166.308 525.456 201.153 512.94 234.724 497.491C235.915 496.818 236.644 495.547 236.625 494.179C236.537 458.173 236.507 422.168 236.096 386.153C236.047 382.361 230.216 382.361 230.216 386.153L230.314 386.124Z" fill="#382C80"/>
<path d="M190.173 346.493C178.187 352.314 129.236 373.022 117.251 378.833C109.267 366.083 99.5098 354.534 88.2725 344.533C110.881 333.479 154.687 318.151 178.276 309.38" fill="#382C80"/>
<path d="M188.458 343.572C164.605 353.666 138.84 363.466 114.958 374.932L121.122 376.549C112.937 363.465 102.962 351.59 91.4868 341.269L90.5656 348.462C119.182 334.586 149.836 325.138 179.452 313.692C184.773 311.644 182.578 303.039 177.06 305.009C161.714 310.487 146.406 316.034 131.167 321.797C115.928 327.559 100.601 333.4 85.94 340.554C83.3626 341.808 82.9216 345.875 84.96 347.747C95.9031 357.486 105.438 368.7 113.292 381.067C114.588 383.161 117.298 383.872 119.456 382.684C131.392 376.882 143.682 371.747 155.775 366.269C167.868 360.791 180.206 355.724 191.809 349.364C195.729 347.218 192.28 341.877 188.389 343.484L188.458 343.572Z" fill="#382C80"/>
<path d="M118.535 394.248C115.392 415.083 112.858 435.99 110.93 456.968C109.891 468.127 108.967 479.293 108.157 490.465C107.441 500.461 106.275 510.692 106.481 520.717C106.481 523.079 109.823 522.971 110.068 520.717C111.136 510.711 111.185 500.519 111.891 490.465C112.635 479.678 113.498 468.898 114.478 458.125C116.438 437.064 118.398 415.985 121.338 395.022C121.593 393.209 118.829 392.416 118.555 394.258L118.535 394.248Z" fill="#382C80"/>
<path d="M99.1209 397.316C95.6811 415.72 93.2997 434.389 90.5753 452.96C89.3013 461.535 87.5667 470.218 87.6353 478.91C87.7039 487.603 90.3597 496.139 90.6733 504.9C90.7713 507.458 94.7207 507.477 94.6619 504.9C94.4757 496.345 91.9179 488.064 91.6631 479.518C91.3887 470.277 93.1919 461.035 94.4953 451.911C97.0825 433.87 100.062 415.838 101.982 397.717C102.159 396.091 99.4247 395.757 99.1209 397.325V397.316Z" fill="#7F72FF"/>
<path d="M87.4786 471.031C82.8567 474.375 77.5467 476.645 71.9358 477.676C69.4074 478.176 70.505 481.9 72.9844 481.498C79.0959 480.409 84.8294 477.782 89.6444 473.864C91.232 472.609 89.1054 469.816 87.459 471.031H87.4786Z" fill="#7F72FF"/>
<path d="M281.832 420.218L305.215 525.676C272.188 550.562 236.82 572.178 199.61 590.219C196.866 591.552 193.808 592.894 190.868 592.1C189.055 591.45 187.408 590.406 186.047 589.043L148.18 556.311C145.749 554.214 143.28 552.018 141.898 549.108C140.467 546.021 140.477 542.493 140.487 539.092C140.565 510.907 141.349 482.625 138.634 454.518C137.978 447.658 137.125 440.877 135.998 434.105C135.253 429.607 130.402 417.611 132.127 413.584C133.783 409.722 143.721 406.028 147.268 403.686C153.148 399.766 158.862 395.62 164.908 391.926C186.899 378.48 212.791 370.758 231.48 353" fill="#7F72FF"/>
<path d="M278.99 421.002C286.262 456.282 293.926 491.484 301.53 526.705L303.294 522.364C278.83 540.531 253.11 556.941 226.325 571.472C219.72 575.058 213.056 578.531 206.333 581.889C203.021 583.555 199.718 585.378 196.298 586.789C194.779 587.426 193.211 588.092 191.594 587.465C189.81 586.76 188.164 584.839 186.694 583.594C174.415 572.942 161.802 562.573 149.817 551.597C147.308 549.294 145.622 547.109 145.22 543.63C144.975 539.878 144.946 536.115 145.132 532.36C145.132 524.079 145.24 515.788 145.23 507.507C145.23 491.18 144.613 474.785 143.27 458.507C142.614 450.804 141.712 443.121 140.516 435.487C139.732 430.479 137.998 425.765 136.812 420.846C136.469 419.425 135.401 416.504 136.048 415.044C136.342 414.378 138.988 412.908 139.968 412.329C144.868 409.468 149.826 407.047 154.56 403.803C167.809 394.738 181.618 387.486 196.004 380.421C209.724 373.698 223.238 366.426 234.449 355.921C238.369 352.226 232.489 346.317 228.569 350.041C217.887 360.066 204.853 366.848 191.8 373.237C178.393 379.803 165.271 386.389 152.913 394.797C147.746 398.278 142.405 401.494 136.91 404.431C132.608 406.773 127.963 409.732 127.61 415.083C127.277 420.12 129.237 425.363 130.638 430.126C132.598 436.81 133.313 443.787 134.058 450.706C135.871 467.611 136.204 484.526 136.106 501.509C136.106 510.241 136.038 518.973 135.969 527.705C135.91 535.221 134.48 544.512 137.929 551.48C141.232 558.134 148.709 562.838 154.178 567.561L174.17 584.79C179.736 589.592 186.135 597.647 194.25 596.775C197.817 596.383 201.022 594.619 204.187 593.061C207.94 591.219 211.664 589.347 215.369 587.416C247.582 570.601 278.303 551.067 307.195 529.028C308.644 528.101 309.35 526.361 308.959 524.686C300.962 489.593 293.034 454.489 284.723 419.464C283.841 415.75 278.275 417.337 279.039 421.032L278.99 421.002Z" fill="#7F72FF"/>
<path d="M231.088 391.014C220.671 399.325 177.462 430.283 167.055 438.593C156.47 427.911 144.415 418.793 131.255 411.516C150.855 395.757 190.251 371.189 211.341 357.449" fill="#382C80"/>
<path d="M229.373 388.094C207.5 403.774 184.969 418.689 163.87 435.408H170.24C159.37 424.465 147.027 415.091 133.568 407.556L134.46 414.74C159.333 394.914 187.204 378.999 213.585 361.33C218.358 358.135 213.977 350.422 209.038 353.549C181.598 370.914 153.364 387.927 127.982 408.262C125.67 410.114 126.552 414.142 128.962 415.455C141.758 422.571 153.503 431.43 163.86 441.778C165.722 443.64 168.319 443.297 170.23 441.778C179.805 434.134 191.467 425.794 201.874 417.935C212.468 409.928 223.493 402.196 233.47 393.435C236.312 390.936 232.49 385.869 229.363 388.123L229.373 388.094Z" fill="#382C80"/>
<path d="M171.7 453.401C173.219 474.638 175.414 495.825 178.158 516.935C179.569 527.832 181.095 538.714 182.735 549.578C184.234 559.486 185.332 569.727 187.733 579.459C188.203 581.419 191.496 581.036 191.261 578.988C190.124 569.188 187.997 559.388 186.488 549.657C184.783 538.583 183.202 527.476 181.745 516.337C178.981 495.394 176.316 474.412 174.581 453.362C174.434 451.529 171.563 451.5 171.7 453.362V453.401Z" fill="#382C80"/>
<path d="M153.423 460.663C154.119 476.039 156.294 491.307 157.157 506.723C157.725 516.826 157.392 527.067 158.989 537.103C160.704 547.883 166.055 557.153 168.789 567.551C169.456 570.031 173.258 568.982 172.641 566.483C170.103 556.271 164.801 547.128 162.841 536.691C160.989 526.509 161.39 515.964 160.734 505.664C159.754 490.641 158.137 475.657 156.275 460.721C156.049 458.918 153.266 458.761 153.335 460.721L153.423 460.663Z" fill="white"/>
<path d="M158.205 535.113C154.43 539.395 149.741 542.774 144.485 545.002C142.457 545.893 143.917 549.461 146.004 548.618C151.78 546.293 156.859 542.519 160.753 537.661C162.194 535.888 159.773 533.34 158.205 535.113Z" fill="white"/>
<path d="M742.06 361.173L742.413 469.199C780.102 486.211 819.352 499.529 859.611 508.967C862.551 509.663 865.863 510.3 868.558 508.869C870.186 507.845 871.562 506.468 872.586 504.841L902.339 464.593C904.299 462.005 906.259 459.32 906.886 456.174C907.611 452.852 906.818 449.412 906.063 446.1C899.801 418.66 892.823 391.22 889.295 363.192C888.433 356.381 887.776 349.541 887.335 342.681C887.08 338.133 889.178 325.374 886.61 321.826C884.042 318.279 873.635 316.995 869.666 315.486C863.061 312.967 856.573 310.174 849.889 307.891C825.458 299.58 798.508 297.757 776.389 284.498" fill="#7F72FF"/>
<path d="M739.12 361.173C738.709 397.178 738.679 433.184 738.591 469.199C738.578 470.566 739.305 471.833 740.492 472.511C770.55 486.298 801.618 497.764 833.426 506.811C841.266 509.032 849.181 511.094 857.171 512.995C860.562 513.799 864.168 514.68 867.657 513.975C871.146 513.269 873.772 510.78 875.948 507.919C886.248 494.395 896.273 480.635 906.328 466.935C908.393 464.402 910.005 461.531 911.091 458.448C912.306 454.381 911.679 450.197 910.806 446.13C909.062 437.956 907.024 429.832 905.142 421.698C901.32 405.175 897.302 388.662 894.754 371.895C893.49 363.702 892.52 355.46 891.902 347.189C891.491 341.583 892.02 336.193 892.147 330.588C892.255 325.874 892.147 320.474 888.041 317.407C883.935 314.339 878.604 313.585 873.87 312.34C866.03 310.292 858.7 306.46 851.046 303.843C842.863 301.06 834.445 299.022 826.046 297.042C809.719 293.181 793.128 289.496 778.516 280.892C773.861 278.158 769.696 285.38 774.292 288.124C799.037 302.707 828.575 304.108 855.025 314.231C861.032 316.525 866.883 319.278 873.135 320.856C875.869 321.552 882.445 322.395 883.386 324.904C884.052 326.677 883.729 329.186 883.68 331.019C883.602 333.675 883.376 336.321 883.219 338.967C882.867 345.317 883.749 351.785 884.444 358.086C886.14 373.531 888.854 388.878 891.892 404.146C893.451 411.937 895.205 419.669 896.988 427.411C898.772 435.154 900.967 442.768 902.241 450.52C903.447 457.85 897.557 463.348 893.519 468.836L879.084 488.436L871.861 498.236C870.274 500.392 868.206 504.665 865.315 505.224C862.1 505.851 857.612 503.91 854.535 503.156C850.772 502.241 847.015 501.297 843.265 500.324C809.411 491.581 776.33 480.079 744.353 465.935L746.255 469.248C745.921 433.233 745.667 397.228 745.01 361.222C744.941 357.43 739.13 357.42 739.13 361.222L739.12 361.173Z" fill="#7F72FF"/>
<path d="M785.18 321.532C797.155 327.353 846.106 348.061 858.092 353.872C866.072 341.12 875.83 329.571 887.07 319.572C864.465 308.505 841.35 298.581 817.725 289.8" fill="#382C80"/>
<path d="M783.416 324.452C794.98 330.871 807.396 335.938 819.421 341.416C831.446 346.894 843.823 352.02 855.74 357.792C857.909 358.981 860.629 358.267 861.933 356.165C869.786 343.801 879.318 332.587 890.255 322.845C892.362 320.973 891.902 316.887 889.275 315.623C866.369 304.26 842.841 294.196 818.804 285.478C813.286 283.518 811.091 292.103 816.403 294.17C839.511 303.167 862.335 312.722 884.63 323.57L883.699 316.348C872.23 326.671 862.258 338.546 854.074 351.628L860.258 350.011C836.012 338.349 810.777 328.647 785.954 318.298C782.387 316.818 780.074 322.659 783.347 324.482L783.416 324.452Z" fill="#382C80"/>
<path d="M628.066 595.413C627.948 608.898 626.459 622.657 620.863 634.926C612.964 652.223 597.5 665.081 580.683 673.93C538.122 696.323 497.442 688.915 453.067 679.81C426.833 674.46 383.242 668.727 361.829 693.168C356.39 699.371 349.462 705.398 341.445 705.79C332.674 706.221 325.354 699.401 322.669 691.355C319.983 683.309 321.022 674.283 322.59 665.649C327.245 640.431 335.984 616.141 348.462 593.737C350.942 589.268 353.872 584.594 358.507 582.398C361.256 581.286 364.186 580.691 367.151 580.644C399.736 578.351 431.831 582.477 463.308 587.857C492.953 592.924 520.952 594.443 551.665 591.65" fill="#382C80"/>
<path d="M625.332 595.412C625.156 607.172 623.372 619.05 619.07 630.026C615.238 639.826 608.721 648.225 600.979 655.212C584.535 670.069 562.759 679.232 540.974 682.652C519.188 686.072 496.874 683.152 475.314 679.183C457.046 675.821 438.985 671.343 420.385 670.363C403.342 669.442 384.82 671.019 369.895 680.016C366.306 682.17 362.994 684.757 360.036 687.719C356.498 691.286 353.431 695.216 349.139 697.93C345.287 700.361 340.74 701.703 336.399 699.802C332.797 698.051 329.952 695.053 328.392 691.364C323.894 681.28 327.412 668.383 329.725 658.181C332.298 646.732 335.728 635.493 339.985 624.558C344.18 613.778 349.031 602.753 355.303 593.011C357.988 588.827 361.085 586.7 366.083 586.259C372.433 585.701 378.823 585.544 385.203 585.524C410.3 585.446 435.242 588.68 459.947 592.855C484.202 596.951 508.683 599.313 533.3 598.274C539.445 598.019 545.57 597.578 551.695 597C558.349 596.363 558.477 585.916 551.695 586.485C525.711 588.696 499.559 587.91 473.755 584.142C447.364 580.222 421.257 575.518 394.503 574.764C387.845 574.568 381.191 574.604 374.54 574.872C368.337 575.126 361.487 574.989 355.793 577.812C350.893 580.203 347.492 584.75 344.807 589.307C341.71 594.55 338.927 600.087 336.389 605.536C330.98 616.992 326.465 628.85 322.884 641.002C319.376 652.978 316.113 665.698 315.672 678.242C315.28 689.394 318.612 700.782 328.245 707.319C337.878 713.855 349.403 710.915 357.988 704.124C362.006 700.939 365.073 696.901 368.837 693.471C372.055 690.591 375.689 688.213 379.617 686.415C387.398 682.721 396.218 681.143 404.754 680.594C423.119 679.389 441.082 682.691 458.997 686.239C482.174 690.825 505.919 694.765 529.615 692.952C553.312 691.139 576.381 683.436 595.667 669.628C604.613 663.405 612.368 655.624 618.56 646.657C624.981 636.83 628.916 625.59 630.026 613.905C630.683 607.809 630.791 601.635 630.849 595.51C630.849 591.982 625.42 591.982 625.371 595.51L625.332 595.412Z" fill="#382C80"/>
<path d="M448.795 482.673C442.915 474.451 437.682 465.171 437.476 455.077C437.192 441.415 446.463 428.96 458.056 421.757C509.633 389.867 561.093 421.933 595.893 462.299C629.899 501.744 647.069 554.145 645.05 606.006C644.501 620.05 642.561 634.426 636.445 647.353C627.821 665.6 611.593 679.457 594.1 689.199C549.843 713.816 508.448 707.358 463.299 699.312C449.795 696.911 438.456 697.078 425.344 698.087C410.526 699.234 410.369 687.591 408.733 674.107C405.793 649.901 406.861 623.666 414.005 600.205C421.433 575.813 442.817 584.397 463.279 587.886C492.924 592.953 520.923 594.472 551.636 591.679" fill="#7F72FF"/>
<path d="M451.167 481.292C442.503 468.973 436.927 454.587 444.806 440.416C451.862 427.676 466.014 420.199 479.479 416.122C506.811 407.831 534.437 416.925 557.144 432.713C604.919 465.945 634.652 522.638 639.464 580.115C640.699 594.982 640.826 610.495 638.111 625.195C635.436 639.738 629.291 652.811 619.246 663.68C599.205 685.24 568.943 697.882 539.955 700.498C525.029 701.841 510.006 700.9 495.178 698.999C479.587 697.039 464.142 693.021 448.432 692.139C440.755 691.892 433.071 692.062 425.412 692.648C423.217 692.776 420.718 692.844 418.983 691.668C417.854 690.79 417.034 689.575 416.641 688.199C414.887 683.378 414.681 677.929 414.103 672.882C413.169 664.873 412.704 656.817 412.711 648.754C412.711 632.898 414.534 616.806 419.317 601.636C420.767 597.02 423.119 592.453 427.725 590.356C431.4 588.68 435.869 588.788 439.936 589.151C445.326 589.631 450.628 590.915 455.92 591.973C463.044 593.404 470.218 594.492 477.411 595.442C493.796 597.68 510.327 598.663 526.862 598.382C535.153 598.206 543.443 597.696 551.705 596.932C558.369 596.305 558.477 585.838 551.705 586.416C533.723 587.956 515.647 588.061 497.648 586.73C481.968 585.554 466.602 582.947 451.176 579.978C440.161 577.861 427.656 576.107 418.19 583.653C413.074 587.739 410.35 593.786 408.488 599.931C406.056 608.347 404.312 616.947 403.274 625.646C401.118 642.717 401.706 659.769 403.676 676.831C404.94 688.376 406.9 701.88 420.855 703.468C424.422 703.869 428.019 703.34 431.586 703.144C435.986 702.899 440.406 702.791 444.797 702.909C453.411 703.134 461.751 704.595 470.218 706.065C486.456 708.877 502.832 711.406 519.326 711.945C552.528 713.003 585.583 704.105 612.151 683.701C624.235 674.42 635.054 662.856 641.365 648.842C648.362 633.309 650.185 616.15 650.293 599.274C650.695 535.848 622.765 473.707 573.157 433.742C549.96 415.054 521.119 401.334 490.67 405.616C463.965 409.37 426.725 430.42 435.32 462.76C437.388 470.522 441.817 477.548 446.423 484.046C448.442 486.897 453.195 484.173 451.157 481.282L451.167 481.292Z" fill="#7F72FF"/>
<path d="M519.443 493.934C560.446 580.526 579.105 681.77 595.726 774.733C600.215 799.811 607.663 834.719 634.181 841.873C641.62 843.833 649.489 847.38 652.968 854.711C656.77 862.737 653.811 873.037 647.97 879.583C642.129 886.13 634.005 889.658 626.008 892.5C603.014 900.676 578.731 904.627 554.331 904.162C549.539 904.064 544.384 903.642 540.699 900.389C538.526 898.388 536.848 895.908 535.799 893.146C505.596 816.432 508.888 754.3 487.054 689.493C479.126 665.973 462.75 648.058 452.45 625.557C441.778 602.214 425.579 581.947 414.152 559.006C396.236 522.736 390.779 481.57 398.629 441.886" fill="#382C80"/>
<path d="M517.071 495.316C531.869 526.783 542.934 560.417 552.44 593.815C562.073 627.684 569.795 662.082 576.597 696.617C579.948 713.669 583.074 730.761 586.103 747.871C588.68 762.454 590.787 777.183 594.031 791.638C596.765 803.82 600.567 816.315 607.378 826.918C610.712 832.225 614.99 836.875 620.001 840.638C625.097 844.372 630.712 845.911 636.573 847.939C642.923 850.134 649.087 854.358 649.577 861.659C650.067 868.96 645.912 875.556 640.414 879.838C633.77 885.013 625.254 887.678 617.325 890.138C608.744 892.788 599.996 894.867 591.14 896.361C581.927 897.957 572.607 898.851 563.259 899.036C556.703 899.164 546.746 900.595 542.434 894.401C540.101 891.04 538.984 886.679 537.602 882.886C535.806 877.953 534.114 872.994 532.526 868.01C529.847 859.68 527.437 851.271 525.294 842.784C517.248 811.179 512.818 778.898 506.889 746.862C504.028 731.407 500.715 716.012 496.325 700.91C494.127 692.929 491.38 685.109 488.103 677.507C484.636 670.023 480.675 662.778 476.245 655.82C471.903 648.803 467.425 641.875 463.309 634.701C459.085 627.263 455.753 619.384 451.686 611.867C443.366 596.481 433.262 582.163 424.599 566.973C407.405 536.947 399.121 502.645 400.716 468.081C401.097 459.74 402.08 451.438 403.656 443.238C404.94 436.643 394.836 433.791 393.523 440.445C386.353 475.81 389.482 512.49 402.539 546.129C409.262 563.259 418.777 578.792 428.528 594.315C433.281 601.891 438.015 609.486 442.248 617.355C446.404 625.048 449.814 633.094 454.155 640.689C462.652 655.565 473.197 669.462 479.714 685.406C485.849 700.439 489.573 716.766 492.944 732.593C499.863 765.07 503.832 798.087 511.093 830.485C515.053 848.356 520.136 865.959 526.313 883.19C529.351 891.608 531.958 902.133 540.552 906.622C547.981 910.542 557.692 909.434 565.768 909.121C584.6 908.401 603.249 905.137 621.206 899.419C636.886 894.391 654.889 886.943 658.926 869.039C660.69 861.199 659.191 853.114 653.801 847.018C648.803 841.354 641.669 838.874 634.662 836.767C623.009 833.278 615.738 823.116 610.955 812.493C605.752 800.929 603.115 788.179 600.822 775.772C597.647 758.926 594.589 742.07 591.326 725.243C584.407 689.591 576.9 654.036 567.571 618.933C558.329 584.153 547.52 549.353 532.849 516.493C529.272 508.457 525.529 500.49 521.756 492.542C520.247 489.357 515.533 492.131 517.022 495.306L517.071 495.316Z" fill="#382C80"/>
<path d="M524.843 456.311C575.46 550.44 601.205 678.203 617.835 771.166C618.815 776.634 619.237 782.073 622.422 786.63C625.607 791.187 629.978 791.687 630.389 797.557C630.84 803.976 623.823 809.964 619.217 813.139C593.906 830.525 564.033 840.069 533.33 840.579C517.915 840.805 508.036 831.671 506.145 816.706C503.826 799.57 500.643 782.562 496.609 765.746C491.239 742.452 485.663 719.167 477.989 696.5C470.061 672.98 462.721 648.019 452.421 625.518C441.749 602.175 425.55 581.908 414.123 558.966C396.225 522.705 390.78 481.555 398.629 441.886" fill="#7F72FF"/>
<path d="M522.481 457.693C535.584 482.193 545.952 508.575 555.282 534.751C565.082 562.102 573.314 589.983 580.615 618.051C594.237 670.5 604.321 723.802 613.739 777.134C614.983 784.17 617.6 789.619 622.98 794.353C624.48 795.666 625.646 796.744 625.264 798.9C624.744 801.84 622.049 804.3 619.942 806.171C614.827 810.709 608.466 814.178 602.479 817.412C582.627 828.117 560.614 834.201 538.083 835.209C527.724 835.601 517.503 833.709 513.23 823.037C510.623 816.55 510.574 808.935 509.477 802.095C508.144 793.814 506.537 785.582 504.792 777.379C501.251 760.895 497.351 744.49 493.091 728.163C488.877 712.17 483.703 696.519 478.558 680.81C473.54 665.62 468.64 650.381 462.623 635.544C456.683 621.134 449.515 607.262 441.2 594.08C433.056 580.977 424.54 568.071 417.798 554.145C404.617 526.744 399.06 495.972 400.853 465.7C401.309 458.165 402.259 450.668 403.695 443.258C404.969 436.662 394.875 433.811 393.562 440.465C387.205 471.828 388.924 504.293 398.56 534.809C403.608 550.212 410.443 564.97 418.925 578.782C427.078 592.375 436.065 605.477 443.425 619.53C451.157 634.23 456.772 649.979 462.045 665.698C467.317 681.417 472.776 697.225 477.509 713.169C482.556 730.143 486.701 747.381 490.69 764.629C494.61 781.456 498.167 798.371 500.49 815.491C502.195 827.908 507.615 838.756 519.816 843.627C525.99 846.087 532.663 845.979 539.19 845.587C546.962 845.098 554.692 844.086 562.328 842.559C577.734 839.471 592.607 834.152 606.477 826.771C613.212 823.345 619.602 819.279 625.558 814.629C630.458 810.601 635.534 804.829 635.358 798.018C635.332 794.833 634.199 791.756 632.153 789.315C630.516 787.355 628.233 786.062 626.685 784.072C624.333 781.132 623.745 776.938 623.176 773.292C622.608 769.951 622.01 766.609 621.412 763.277C619.06 750.38 616.636 737.503 614.141 724.645C608.659 696.552 602.452 668.645 595.521 640.924C588.239 611.857 580.086 582.967 570.403 554.605C560.966 526.93 550.421 499.343 536.936 473.354C533.732 467.18 530.439 461.035 527.136 454.9C525.46 451.794 520.737 454.547 522.403 457.664L522.481 457.693Z" fill="#7F72FF"/>
<path d="M514.857 325.1C560.496 372.14 641.483 396.894 678.096 398.531C715.502 400.207 752.576 386.673 783.299 365.28C822.881 337.712 851.781 299.855 872.9 257.215C878.359 246.19 889.776 228.481 885.914 215.79C884.689 211.743 881.455 208.078 877.29 207.431C873.125 206.784 868.47 210.087 868.578 214.291C867.549 211.077 867.912 207.598 867.598 204.246C867.285 200.894 865.864 197.239 862.767 195.887C858.269 193.927 853.369 197.984 851.056 202.315C851.879 196.729 852.3 190.036 847.92 186.469C845.115 184.344 841.343 184.01 838.208 185.606C835.132 187.264 832.997 190.253 832.426 193.701C832.308 190.232 832.191 186.704 831.064 183.431C829.937 180.158 827.673 177.08 824.419 175.875C818.539 173.699 811.875 178.717 810.484 184.803C808.573 193.143 806.77 199.503 798.998 204.53C787.709 211.861 773.881 214.33 762.248 221.131C747.989 229.452 738.405 243.583 728.536 256.411C715.845 272.905 701.763 287.095 687.063 301.746C684.887 303.922 682.319 306.195 679.223 306.097C677.381 305.885 675.618 305.237 674.078 304.206L611.358 268.838C594.58 259.381 577.636 249.865 559.231 244.22C540.827 238.575 520.561 237.037 502.47 243.622" fill="white"/>
<path d="M512.485 327.52C535.75 351.54 565.542 368.68 596.197 381.42C621.255 391.867 648.392 400.501 675.636 402.402C714.777 405.126 754.036 390.701 785.827 368.523C816.942 346.807 842.373 317.975 862.032 285.625C866.932 277.563 871.505 269.298 875.752 260.831C879.436 253.481 883.592 246.337 886.728 238.732C889.756 231.451 892.245 223.003 890.05 215.134C887.796 207.019 879.172 200.434 870.822 204.579C867.044 206.405 864.598 210.184 864.482 214.379L872.606 213.272C870.705 206.108 873.155 196.965 865.275 192.613C858.239 188.693 850.938 194.319 847.488 200.316L855.064 203.501C856.181 195.602 856.406 185.518 847.792 181.696C839.178 177.874 830.26 184.029 828.398 192.613L836.552 193.721C836.326 187.292 835.709 180.559 831.142 175.601C827.23 171.332 821 170.098 815.756 172.553C810.199 175.052 807.367 179.991 805.956 185.685C804.702 190.859 803.094 195.828 798.92 199.405C793.961 203.668 787.238 206.118 781.211 208.421C774.763 210.881 768.206 213.174 762.101 216.427C750.723 222.494 741.972 232.107 734.132 242.201C725.537 253.217 717.139 264.242 707.672 274.541C702.595 280.059 697.372 285.439 692.1 290.76C689.728 293.152 687.35 295.536 684.965 297.914C682.545 300.325 680.643 302.765 677.125 301.148C669.873 297.797 662.974 293.181 656.016 289.261L635.318 277.54C621.814 269.935 608.408 262.076 594.668 254.892C566.395 240.094 532.928 228.285 501.382 239.869C496.776 241.564 498.677 248.934 503.43 247.317C530.978 237.958 559.888 246.7 584.868 259.224C597.765 265.692 610.24 273.013 622.814 280.088L663.082 302.775C668.423 305.784 675.283 311.497 681.819 309.939C687.699 308.528 692.158 302.511 696.245 298.414C706.241 288.359 716.08 278.148 725.135 267.231C733.328 257.352 740.443 246.553 749.234 237.164C753.388 232.578 758.145 228.576 763.375 225.267C768.99 221.837 775.135 219.544 781.28 217.231C793.559 212.596 806.877 207.715 811.993 194.564C813.953 189.664 813.767 181.824 819.735 179.815C827.3 177.257 828.094 189.115 828.251 193.682C828.408 198.248 835.366 199.562 836.405 194.779C837.218 191.026 841.226 186.439 845.303 189.722C848.37 192.192 847.508 197.817 847.028 201.198C846.42 205.52 852.065 208.803 854.603 204.383C856.093 201.796 860.189 196.984 862.571 201.326C863.551 203.129 863.551 205.402 863.609 207.392C863.636 210.079 863.965 212.755 864.589 215.369C865.824 219.985 872.508 218.858 872.714 214.271C872.91 210.067 878.349 211.557 880.122 213.576C882.484 216.271 882.788 220.093 882.474 223.513C881.788 230.961 878.162 238.105 874.781 244.661C867.226 259.361 859.729 274.061 850.811 287.958C832.053 317.25 808.112 343.416 779.271 363.055C749.302 383.478 713.072 396.62 676.449 394.415C652.214 392.974 627.841 385.477 605.291 376.893C573.098 364.633 541.532 347.404 517.219 322.659C514.181 319.563 509.447 324.306 512.466 327.422L512.485 327.52Z" fill="#382C80"/>
<path d="M467.425 238.673C459.771 235.302 449.461 239.594 441.749 242.848C411.623 255.588 398.364 289.731 392.239 319.553C388.172 339.388 381.822 360.713 381.792 381.067C381.792 387.28 383.37 393.317 383.399 399.53C383.458 410.212 381.439 420.571 382.243 431.341C382.978 440.69 384.84 450.245 382.459 459.31C381.41 463.338 379.519 467.15 379.225 471.345C378.931 475.539 380.812 480.273 384.801 481.439C389.701 482.899 394.179 478.362 397.649 474.579C409.918 461.123 425.089 454.704 440.955 446.757C458.32 438.076 477.17 432.756 496.511 431.077C509.516 429.95 521.991 431.077 534.888 432.605C542.728 433.507 557.506 437.809 564.572 433.585C567.035 431.938 568.785 429.421 569.472 426.539C571.599 418.983 568.492 410.859 564.092 404.391C554.988 391.014 542.355 381.273 545.099 363.378C546.912 351.501 550.323 339.858 551.195 327.873C552.067 315.887 550.039 303.059 542.267 293.896" fill="white"/>
<path d="M468.287 235.547C458.781 231.725 447.884 236.478 439.142 240.31C430.771 244.041 423.246 249.436 417.024 256.166C404.401 269.7 396.806 287.34 391.838 304.921C388.966 315.093 387.026 325.501 384.664 335.83C381.949 347.659 379.343 359.556 378.284 371.659C377.226 383.762 379.931 395.659 379.107 407.811C378.686 413.936 377.99 420.051 378.01 426.196C378.029 432.341 379.049 438.583 379.421 444.816C379.824 450.987 379.011 457.176 377.03 463.034C375.383 468.042 374.247 473.226 376.314 478.293C378.059 482.585 381.94 485.868 386.751 485.829C391.906 485.78 396.101 482.164 399.491 478.626C406.856 470.889 415.432 464.405 424.883 459.428C434.82 454.077 445.081 448.765 455.626 444.728C466.823 440.401 478.495 437.421 490.396 435.849C503.019 434.203 515.651 434.683 528.273 435.986C537.691 436.966 547.246 439.769 556.693 439.514C560.976 439.406 565.337 438.534 568.63 435.594C572.403 432.262 574.078 427.058 574.245 422.149C574.627 411.369 568.032 402.411 561.73 394.385C556.409 387.584 550.176 380.401 548.99 371.512C548.285 366.171 549.598 360.732 550.637 355.567C551.852 349.462 553.224 343.386 554.165 337.232C555.831 326.393 556.291 315.064 552.705 304.529C551.026 299.59 548.459 295.001 545.129 290.985C541.797 286.928 536.094 292.72 539.377 296.738C553.42 313.966 545.384 338.447 541.876 357.812C540.161 367.249 540.288 375.785 544.816 384.458C548.667 391.906 554.616 398.031 559.427 404.812C562.367 408.879 564.915 413.309 565.797 418.297C566.503 422.276 566.082 428.372 561.877 430.371C558.555 431.949 554.037 431.351 550.529 430.969C546.531 430.518 542.591 429.655 538.622 429.009C516.347 425.441 493.64 425.637 471.698 431.067C461.156 433.692 450.914 437.396 441.132 442.121C431.988 446.521 422.698 450.941 414.025 456.194C409.908 458.681 405.978 461.465 402.265 464.524C398.345 467.777 395.16 471.727 391.377 475.108C390.034 476.303 387.849 478.195 385.869 477.509C384.174 476.931 383.468 474.755 383.282 473.148C382.675 467.924 386.222 462.368 387.016 457.282C388.868 446.051 385.84 434.908 386.036 423.648C386.281 412.172 387.888 401.157 386.408 389.681C383.468 367.033 390.926 344.346 395.513 322.404C399.021 305.636 403.666 288.976 412.545 274.169C421.757 258.783 435.085 247.826 452.206 242.377C456.91 240.888 461.77 239.957 466.514 241.799C470.434 243.308 472.041 237.085 468.229 235.547H468.287Z" fill="#382C80"/>
<path d="M490.798 486.212C494.208 495.032 487.799 503.852 485.898 512.26C483.644 522.158 488.573 531.507 491.778 540.68C499.363 562.24 506.533 583.941 513.289 605.781C526.813 649.46 538.71 693.638 549.284 738.081C555.282 763.316 560.427 788.747 566.346 814.002C566.934 816.481 570.55 815.403 570.119 812.963C566.199 790.423 560.946 768.118 555.752 745.872C550.558 723.626 545.08 701.42 539.2 679.34C527.44 635.172 514.249 591.366 499.245 548.177C497.083 541.944 494.884 535.738 492.65 529.557C490.69 524.02 488.946 518.895 490.229 512.956C492.189 503.881 498.197 494.708 494.247 485.33C493.385 483.281 490.014 484.124 490.847 486.261L490.798 486.212Z" fill="white"/>
<path d="M473.148 490.533C472.634 494.142 471.123 497.535 468.787 500.333C468.354 500.893 468.254 501.642 468.523 502.296C468.792 502.951 469.389 503.412 470.091 503.506C470.792 503.601 471.49 503.314 471.923 502.754C474.56 499.213 476.042 494.946 476.166 490.533C476.254 488.573 473.393 488.671 473.148 490.533Z" fill="white"/>
<path d="M604.801 798.038C607.379 796.372 609.946 794.696 612.475 792.961C614.582 791.521 612.651 788.061 610.456 789.502C607.869 791.158 605.321 792.863 602.783 794.578C600.656 795.999 602.616 799.478 604.801 798.038Z" fill="#7F72FF"/>
<path d="M433.909 684.133C433.004 680.376 432.518 676.53 432.458 672.667C432.458 671.725 431.695 670.961 430.753 670.961C429.811 670.961 429.048 671.725 429.048 672.667C428.976 676.849 429.484 681.021 430.557 685.064C431.116 687.229 434.477 686.308 433.909 684.084V684.133Z" fill="white"/>
<path d="M422.403 537.73C427.617 535.839 432.38 533.477 437.848 532.272L435.369 529.048C433.115 534.144 434.908 538.759 437.633 543.307C440.977 548.59 443.959 554.094 446.56 559.78C449.116 565.783 451.085 572.019 452.44 578.4C453.171 581.392 453.611 584.448 453.754 587.524C453.803 590.719 452.891 592.924 451.46 595.688C450.946 596.619 451.187 597.786 452.028 598.436C452.87 599.087 454.06 599.027 454.832 598.294C458.82 595.06 458.801 588.759 458.232 584.124C457.4 577.862 455.929 571.701 453.842 565.739C451.863 559.939 449.391 554.319 446.453 548.942C443.689 543.904 436.898 536.868 439.397 530.743C440.063 529.116 438.152 527.676 436.692 528.048C431.214 529.42 425.245 531.351 420.747 534.908C419.414 535.957 420.855 538.318 422.413 537.76L422.403 537.73Z" fill="white"/>
<path d="M432.037 255.226C429.907 250.896 426.426 247.377 422.119 245.2C415.318 241.966 407.057 243.162 400.373 246.621C393.689 250.081 388.28 255.578 383.184 261.115C362.427 283.655 344.611 308.665 324.59 331.832C315.466 342.387 305.176 351.432 295.523 361.301C286.811 370.248 288.3 387.839 291.858 398.717C292.24 399.893 292.671 401.05 293.132 402.186C298.466 414.935 308.668 425.028 321.473 430.224C334.703 435.506 349.795 435.016 363.358 430.665C376.922 426.314 389.093 418.337 399.893 409.046C404.398 405.375 408.401 401.128 411.8 396.414C418.513 386.546 420.62 374.325 425.52 363.427" fill="white"/>
<path d="M434.83 253.599C431.89 247.826 427.186 243.005 421.012 240.859C414.358 238.526 406.812 239.614 400.432 242.358C387.104 248.12 377.187 261.37 368.092 272.15C347.414 296.552 329.01 322.894 306.039 345.258C300.894 350.266 294.896 355.058 290.623 360.879C287.262 365.426 285.792 370.954 285.214 376.559C284.081 388.804 286.93 401.088 293.338 411.584C300.228 422.699 310.777 431.064 323.169 435.242C337.173 439.916 352.843 438.799 366.632 433.928C381.753 428.597 395.542 419.15 407.086 408.096C413.036 402.427 417.699 395.545 420.757 387.917C423.884 380.234 425.873 372.139 428.98 364.446C430.499 360.703 424.158 358.018 422.423 361.683C416.867 373.443 414.583 387.114 406.126 397.306C398.002 407.106 386.751 415.181 375.599 421.12C353 433.115 323.6 434.271 305.274 413.927C298.161 405.863 293.937 395.66 293.269 384.928C292.907 379.823 293.112 374.462 294.994 369.64C297.14 364.143 302.285 360.232 306.411 356.224C316.581 346.494 326.219 336.222 335.282 325.452C344.366 314.476 353.118 303.226 362.065 292.132C371.865 280 381.665 267.23 393.141 256.637C398.433 251.737 404.901 247.523 412.329 247.091C419.758 246.66 425.638 250.57 429.234 256.891C431.322 260.537 436.702 257.323 434.83 253.628V253.599Z" fill="#382C80"/>
<path d="M730.025 256.176C742.834 238.958 752.889 219.191 763.963 200.816C766.158 197.18 769.235 193.064 773.469 193.388C778.114 193.75 780.446 199.268 780.897 203.864C781.356 208.862 780.905 213.903 779.564 218.74C779.074 220.543 778.467 222.415 778.829 224.248C779.662 228.511 784.768 230.03 788.629 231.99C794.726 235.083 798.994 240.885 800.132 247.626C801.27 254.367 799.144 261.248 794.402 266.172" fill="white"/>
<path d="M732.26 258.361C739.168 249.403 745.53 240.037 751.311 230.314C757.005 220.857 761.954 210.616 768.373 201.629C770.597 198.503 773.655 196.033 775.478 200.649C777.301 205.265 776.458 211.429 775.311 216.192C774.086 221.151 772.949 225.943 776.673 230.167C779.506 233.391 783.533 234.518 787.12 236.595C796.558 242.015 798.135 254.706 791.119 262.771C787.199 267.309 793.539 273.865 797.783 269.435C806.071 260.897 807.62 247.868 801.565 237.624C798.694 232.963 794.506 229.257 789.531 226.972C787.983 226.247 784.631 225.296 783.769 223.64C782.857 221.797 784.817 217.642 785.141 215.663C786.601 206.647 786.228 188.742 773.038 188.889C767.158 188.958 763.492 193.701 760.739 198.287C757.338 203.952 754.124 209.734 750.88 215.486C743.442 228.716 736.111 242.123 727.36 254.578C725.4 257.42 730.055 261.105 732.26 258.322V258.361Z" fill="#382C80"/>
<path d="M438.769 330.852C429.067 368.19 417.062 406.969 389.397 433.86C334.791 486.917 253.402 465.671 205.333 416.22C171.69 381.646 150.502 338.996 137.86 293.122C134.587 281.254 126.737 261.703 132.96 250.002C134.92 246.268 138.84 243.279 143.025 243.436C147.21 243.593 151.208 247.719 150.267 251.835C151.884 248.895 152.227 245.396 153.207 242.172C154.187 238.948 156.235 235.616 159.528 234.881C164.32 233.803 168.348 238.722 169.808 243.417C170.063 237.772 170.916 231.118 175.894 228.452C179.05 226.897 182.815 227.278 185.596 229.432C188.306 231.64 189.835 234.983 189.732 238.477C190.506 235.096 191.3 231.617 193.025 228.677C194.749 225.737 197.562 223.101 200.982 222.533C207.137 221.553 212.742 227.697 212.968 233.94C213.271 242.486 213.83 249.061 220.504 255.5C230.206 264.839 243.308 269.906 253.442 278.775C265.858 289.643 272.591 305.343 279.843 319.798C289.182 338.418 315.73 377.138 327.383 394.278" fill="white"/>
<path d="M435.526 329.96C426.5 364.025 415.808 399.971 391.249 426.392C369.934 449.599 339.426 462.161 307.949 460.692C277.491 459.369 247.738 446.492 224.032 427.646C196.592 405.851 175.796 375.706 160.93 344.268C152.345 326.089 146.445 307.214 140.653 288.026C138.125 279.627 135.058 271.023 134.773 262.164C134.656 258.498 134.911 254.422 136.988 251.266C138.096 249.58 139.928 247.856 142.006 247.62C143.613 247.434 146.494 248.689 146.21 250.747C145.632 254.951 151.522 258.587 153.805 253.941C154.918 251.589 155.757 249.116 156.304 246.572C156.784 244.524 157.127 242.23 158.421 240.515C161.449 236.537 164.683 241.495 165.712 244.533C166.324 246.476 168.246 247.696 170.265 247.423C172.284 247.149 173.812 245.462 173.885 243.426C174.052 240.084 174.13 235.116 176.923 232.724C181.137 229.138 185.371 234.42 185.488 238.497C185.606 243.044 192.574 244.328 193.662 239.604C194.642 235.517 195.494 230.245 199.208 227.658C202.521 225.355 206.068 227.344 207.764 230.598C209.342 233.665 208.744 237.575 209.185 240.927C209.552 244.739 210.639 248.447 212.389 251.854C216.309 259.135 223.993 264.153 230.794 268.514C238.056 273.149 245.758 277.256 252.06 283.214C264.084 294.611 269.964 310.38 277.608 324.697C284.037 336.751 291.613 348.217 299.1 359.634C307.195 371.973 315.681 384.027 323.962 396.228C326.736 400.324 333.429 396.463 330.626 392.308C322.728 380.665 314.946 368.876 307.283 357.096C299.335 344.944 291.299 332.724 284.517 319.856C276.197 304.078 269.465 286.84 255.451 275.031C248.277 268.984 239.947 264.633 232.185 259.429C224.855 254.529 218.465 249.179 217.417 239.967C216.878 235.253 217.319 230.696 214.957 226.384C212.85 222.389 209.114 219.504 204.716 218.475C193.123 216.133 187.723 228.275 185.635 237.36L193.809 238.467C193.564 229.363 185.733 220.994 176.169 223.846C167.682 226.364 165.986 235.753 165.604 243.446L173.777 242.338C171.553 235.831 165.673 228.716 157.941 231.029C154.584 232.168 151.853 234.653 150.404 237.889C148.582 241.672 148.503 246.003 146.671 249.737L154.266 252.942C155.638 243.044 145.563 236.458 136.733 240.731C128.746 244.592 126.228 253.961 126.512 262.154C126.816 270.856 129.374 279.333 131.902 287.634C134.626 296.562 137.057 305.568 140.075 314.417C152.933 352.147 172.552 387.623 200.041 416.69C223.414 441.406 254.216 459.947 287.82 466.396C321.424 472.844 356.057 466.033 383.174 444.591C413.887 420.296 428.303 382.292 438.358 345.699C439.632 341.073 440.847 336.428 442.033 331.773C443.111 327.579 436.653 325.795 435.545 329.989L435.526 329.96Z" fill="#382C80"/>
<path d="M278.334 319.229C269.024 299.894 262.899 278.588 255.509 258.469C254.049 254.48 251.815 249.855 247.591 249.375C242.965 248.845 239.633 253.775 238.31 258.244C236.914 263.057 236.403 268.085 236.801 273.081C236.938 274.943 237.183 276.893 236.478 278.628C234.851 282.646 229.549 283.175 225.384 284.37C218.812 286.251 213.52 291.138 211.124 297.541C208.727 303.944 209.51 311.104 213.232 316.838" fill="white"/>
<path d="M281.009 317.72C275.531 305.44 271.337 292.583 267.084 279.843C264.977 273.532 262.889 267.201 260.694 260.909C258.969 256.009 257.46 250.129 252.972 246.905C248.483 243.681 242.682 244.631 238.781 248.375C234.489 252.491 233.009 258.685 232.294 264.369C231.928 267.451 231.846 270.561 232.049 273.659C232.215 276.599 232.137 277.442 229.334 278.343C224.071 280.019 219.269 281.038 214.83 284.586C204.392 293.009 201.953 307.931 209.166 319.239C212.439 324.305 220.367 319.768 217.3 314.476C212.586 306.322 214.487 295.797 222.788 290.799C226.472 288.575 230.863 288.379 234.734 286.595C239.017 284.786 241.788 280.573 241.751 275.923C241.878 270.258 241.143 265.084 242.829 259.508C243.76 256.431 246.337 251.56 249.404 255.588C252.472 259.616 253.579 265.035 255.186 269.553C257.078 274.864 258.92 280.196 260.812 285.517C264.995 297.615 269.958 309.429 275.668 320.885C277.501 324.482 282.597 321.326 281.009 317.759V317.72Z" fill="#382C80"/>
<path d="M516.043 398.727C529.38 395.199 543.257 392.445 555.733 400.109C558.8 401.99 562.475 397.463 559.653 395.023C546.815 383.949 529.067 388.721 514.475 393.004C510.819 394.082 512.348 399.707 516.043 398.727Z" fill="#382C80"/>
<path d="M463.074 219.524C468.871 222.424 475.349 223.688 481.811 223.179C487.515 222.631 495.708 220.7 498.834 215.339C500.284 212.84 497.795 208.744 494.718 209.998C492.356 210.978 490.484 212.644 488.181 213.762C485.86 214.863 483.379 215.59 480.831 215.918C475.598 216.594 470.279 215.996 465.328 214.173C462.231 213.056 460.075 218.093 463.074 219.534V219.524Z" fill="#382C80"/>
<path d="M467.209 113.703C476.352 110.273 489.377 107.951 497.746 114.546C502.891 118.594 505.899 124.679 509.29 130.226C512.681 135.773 517.042 141.437 523.314 143.319C527.724 144.642 532.634 143.966 536.838 145.828C544.805 149.356 546.491 160.048 545.031 168.632C541.983 186.606 528.822 192.535 512.181 190.614C504.665 189.742 496.638 192.241 489.004 192.25C470.188 192.25 451.088 187.811 435.026 177.256" fill="#382C80"/>
<path d="M467.915 116.251C474.108 114.076 482.125 112.9 488.593 114.409C496.433 116.242 500.353 122.974 504.086 129.511C507.663 135.783 511.73 142.437 518.296 145.965C521.658 147.768 525.254 148.327 528.998 148.778C532.281 149.17 535.78 149.591 537.975 152.355C541.591 156.912 541.395 164.056 540.199 169.407C538.955 174.914 536.328 180.108 531.379 183.127C526.724 185.949 521.187 186.547 515.837 186.302C512.181 186.135 508.634 185.694 504.959 185.998C500.441 186.37 495.982 187.292 491.444 187.546C481.997 187.982 472.539 186.991 463.387 184.606C453.979 182.225 445.747 178.178 437.299 173.503C432.135 170.641 428.274 177.854 432.782 181.225C447.991 192.593 469.208 196.905 487.848 197.043C492.345 196.925 496.83 196.513 501.274 195.808C506.115 195.336 510.988 195.29 515.837 195.671C522.54 195.974 529.557 194.906 535.437 191.574C547.834 184.587 552.89 167.476 548.921 154.226C546.54 146.269 540.68 141.241 532.467 140.222C528.047 139.673 523.833 139.762 520.119 136.929C516.807 134.421 514.455 130.814 512.279 127.325C507.379 119.348 502.479 110.734 492.856 107.951C483.771 105.324 474.961 107.951 466.503 111.214C463.377 112.41 464.661 117.457 467.915 116.31V116.251Z" fill="#382C80"/>
<path d="M431.723 179.844C430.699 189.731 432.855 199.686 437.878 208.264C439.926 211.713 443.66 215.173 444.738 219.044C445.669 222.248 445.541 226.805 445.365 230.108C445.071 235.763 444.757 237.36 438.926 238.928C429.642 241.408 420.11 242.845 410.506 243.211C420.248 261.831 429.283 279.059 451.088 285.488C466.768 290.113 483.379 289.927 497.001 280.519C503.342 276.129 509.173 270.817 513.22 264.251C517.268 257.685 519.453 249.786 518.287 242.162C518.259 241.726 518.113 241.306 517.865 240.947C517.307 240.261 516.248 240.349 515.366 240.486C505.566 242.035 484.32 240.251 487.926 225.502C489.063 220.876 495.708 219.622 499.118 216.907C503.585 213.417 507.017 208.775 509.045 203.481C513.446 191.78 510.927 178.246 504.488 167.535C501.835 163.174 498.649 159.161 495.002 155.589C484.963 145.66 470.544 141.557 456.782 144.711C444.042 147.759 434.977 163.252 432.429 175.297C432.135 176.767 431.89 178.295 431.723 179.844Z" fill="white"/>
<path d="M428.46 179.844C427.492 187.827 428.477 195.925 431.332 203.442C432.655 206.934 434.445 210.231 436.653 213.242C438.946 216.32 441.122 218.975 441.445 222.915C441.784 226.137 441.695 229.389 441.181 232.588C440.808 234.41 439.681 234.43 437.868 234.93C428.937 237.32 419.758 238.665 410.516 238.938C409.014 238.971 407.639 239.788 406.893 241.092C406.146 242.396 406.138 243.996 406.871 245.308C412.516 256.284 418.268 267.681 427.176 276.433C437.055 286.135 449.961 290.996 463.564 292.534C477.968 294.297 492.475 290.178 503.803 281.107C515.249 272.121 524.608 258.469 523.05 243.27C522.717 240.075 521.815 237.086 518.395 236.027C515.857 235.234 513.563 236.165 511.006 236.272C506.675 236.547 502.331 236.029 498.187 234.744C495.375 233.813 492.386 232.156 492.131 229.05C491.709 224.032 498.658 222.925 501.931 220.465C527.715 200.943 514.063 161.302 490.69 146.269C478.724 138.566 460.585 135.666 447.962 143.525C435.761 151.12 428.891 165.997 427.304 179.854C427.029 182.265 429.548 184.283 431.753 184.313C434.409 184.313 435.928 182.235 436.212 179.854C437.466 169.525 442.994 157.853 451.814 151.914C461.369 145.466 475.334 147.778 484.722 153.335C495.698 159.823 503.94 172.141 506.174 184.636C508.291 196.396 504.214 209.45 493.062 215.104C488.377 217.476 484.163 220.171 483.262 225.747C482.435 230.04 483.583 234.477 486.388 237.831C491.817 244.132 501.568 245.553 509.408 245.494C511.046 245.485 512.682 245.383 514.308 245.19C514.904 245.188 515.497 245.109 516.072 244.955C515.955 245.161 514.426 242.995 513.857 243.27C513.759 243.27 513.936 248.542 513.857 249.012C512.984 255.594 510.145 261.758 505.714 266.701C497.246 276.501 485.702 283.283 472.58 283.832C459.213 284.39 444.826 280.519 434.791 271.396C425.628 263.056 419.885 251.796 414.142 241.016L410.487 247.386C420.532 246.886 430.832 245.612 440.475 242.701C443.268 241.858 446.159 240.663 447.737 238.056C449.315 235.449 449.324 232.107 449.432 229.128C449.569 225.306 449.628 221.141 448.374 217.476C447.002 213.478 444.023 210.616 441.72 207.157C436.398 199.17 434.311 189.321 434.967 179.834C435.32 175.62 428.931 175.748 428.46 179.844Z" fill="#382C80"/>
<path d="M455.557 204.51C454.947 204.178 454.429 203.7 454.048 203.119C452.362 200.63 452.696 197.111 450.657 194.74C448.354 192.064 445.669 188.664 442.288 187.4C438.584 186.028 433.644 187.625 432.488 191.408C432.096 193.176 432.218 195.019 432.841 196.719C434.288 201.158 436.207 205.429 438.564 209.459C441.092 213.958 443.464 221.406 435.457 220.181C424.217 218.446 412.712 201.071 408.066 192.015C400.807 177.99 398.658 161.873 401.99 146.436C403.056 141.471 404.839 136.687 407.282 132.235C413.976 120.338 429.489 110.087 442.758 107.128C453.372 104.766 465.093 107 473.56 113.811C485.036 123.023 484.82 136.636 486.809 149.474C487.427 153.452 484.32 157.255 480.596 158.793C476.872 160.332 472.707 160.146 468.679 159.94C469.915 163.397 468.881 167.257 466.082 169.633C463.284 172.008 459.306 172.402 456.096 170.622C459.251 179.32 461.094 188.439 461.565 197.68C461.768 199.279 461.566 200.903 460.977 202.403C459.82 204.863 457.409 205.5 455.557 204.51Z" fill="#382C80"/>
<path d="M457.037 201.982C455.312 200.679 455.351 196.778 454.459 194.867C453.358 192.826 451.972 190.952 450.343 189.301C447.403 185.939 443.611 183.166 438.926 183.254C434.771 183.333 430.645 185.655 429.067 189.595C427.058 194.583 429.577 200.12 431.606 204.697C432.733 207.235 434.124 209.597 435.418 212.047C436.084 213.311 436.27 214.987 436.966 216.172C436.966 216.114 437.084 217.515 437.094 216.682C437.094 215.702 437.907 216.604 436.437 216.192C434.79 215.81 433.202 215.211 431.713 214.408C424.285 210.077 418.826 202.08 414.465 194.877C403.793 177.237 400.304 153.443 410.545 134.744C415.22 126.199 423.521 119.78 432.056 115.379C440.876 110.822 450.843 108.725 460.574 111.548C471.678 114.762 478.214 123.121 480.498 134.088C481.612 139.171 482.372 144.325 482.771 149.513C483.242 156.52 473.354 156.108 468.738 155.932C467.514 155.933 466.36 156.506 465.62 157.481C464.88 158.456 464.637 159.721 464.965 160.9C466.317 165.261 462.515 169.534 458.017 167.349C455.39 166.065 451.421 168.231 452.597 171.514C454.457 176.672 455.87 181.98 456.821 187.38C457.282 189.957 457.605 192.554 457.801 195.161C457.899 196.425 458.879 202.021 456.498 201.041C452.215 199.287 450.382 206.216 454.587 207.96C457.432 209.115 460.696 208.371 462.76 206.098C465.602 203.158 465.367 198.915 465.082 195.132C464.415 186.439 462.607 177.872 459.702 169.652L454.283 173.817C464.426 178.805 475.725 170.083 472.511 158.911L468.718 163.86C474.961 164.232 481.576 164.154 486.544 159.803C491.248 155.667 491.092 150.797 490.347 145.103C488.965 134.587 487.828 123.866 480.919 115.311C473.716 106.383 461.623 101.924 450.353 102.159C439.083 102.394 427.813 107.343 418.777 114.037C409.164 121.171 402.323 130.373 399.011 141.937C395.671 154.008 395.579 166.747 398.746 178.864C401.566 189.25 406.401 198.98 412.976 207.499C418.483 214.8 426.529 223.924 436.437 224.326C441.337 224.512 445.13 221.386 445.002 216.359C444.865 211.067 441.406 206.343 439.21 201.757C438.172 199.591 435.055 194.309 436.574 191.898C438.093 189.487 441.915 190.918 443.62 192.241C446.11 194.201 448.52 196.7 449.5 199.738C450.48 202.776 451.372 205.236 454.097 207.058C457.272 209.185 459.986 204.187 457.037 201.982Z" fill="#382C80"/>
<path d="M482.36 178.433L482.115 178.501L482.713 178.413C482.658 178.423 482.601 178.423 482.546 178.413L483.134 178.501L482.889 178.433L483.418 178.658C483.342 178.624 483.27 178.581 483.203 178.531L483.644 178.874L483.536 178.756L483.869 179.197C483.837 179.155 483.811 179.109 483.791 179.06L484.006 179.579C484.002 179.527 484.002 179.475 484.006 179.423L484.085 180.001C484.075 179.946 484.075 179.889 484.085 179.834L484.006 180.412C484.017 180.329 484.036 180.247 484.065 180.167L483.85 180.687C483.872 180.634 483.901 180.584 483.938 180.54L483.595 180.981C483.626 180.935 483.666 180.895 483.712 180.863L483.271 181.196C483.311 181.158 483.357 181.128 483.409 181.108L482.899 181.324H483.056L482.487 181.402H482.664L482.095 181.324H482.262L481.752 181.108L481.899 181.206L481.468 180.873C481.515 180.911 481.555 180.958 481.586 181.01L481.262 180.579C481.292 180.626 481.318 180.675 481.341 180.726L481.135 180.226C481.144 180.281 481.144 180.338 481.135 180.393L481.066 179.834V179.922L481.135 179.364V179.452C481.003 179.999 481.08 180.575 481.351 181.069C481.78 181.795 482.6 182.195 483.436 182.086C484.272 181.977 484.963 181.381 485.192 180.569C485.563 179.232 484.884 177.827 483.606 177.286C482.328 176.745 480.847 177.236 480.145 178.433C479.483 179.548 479.63 180.966 480.508 181.922C481.305 182.732 482.483 183.041 483.575 182.725C484.438 182.487 485.075 181.755 485.191 180.867C485.306 179.979 484.878 179.109 484.104 178.658C483.589 178.347 482.967 178.265 482.389 178.433H482.36Z" fill="#382C80"/>
<path d="M502.45 177.071C502.371 177.099 502.289 177.119 502.205 177.129L502.793 177.051H502.627L503.215 177.129C503.134 177.119 503.055 177.099 502.979 177.071L503.499 177.296L503.293 177.169L503.734 177.512L503.616 177.394L503.959 177.835C503.926 177.791 503.899 177.741 503.881 177.688L504.097 178.217C504.092 178.162 504.092 178.106 504.097 178.051L504.175 178.639C504.17 178.583 504.17 178.527 504.175 178.472L504.106 179.05C504.115 178.966 504.135 178.884 504.165 178.805L503.95 179.325C503.972 179.274 503.998 179.225 504.028 179.178L503.695 179.619C503.725 179.572 503.762 179.529 503.803 179.491L503.371 179.834C503.411 179.796 503.458 179.766 503.509 179.746L502.999 179.962C503.048 179.935 503.101 179.919 503.156 179.913L502.578 179.981H502.754L502.186 179.913C502.247 179.92 502.306 179.936 502.362 179.962L501.852 179.746L501.999 179.844L501.568 179.511C501.615 179.546 501.655 179.589 501.686 179.638L501.362 179.217C501.394 179.263 501.421 179.312 501.441 179.364L501.225 178.864C501.24 178.919 501.24 178.976 501.225 179.031L501.157 178.472V178.56L501.235 178.002V178.09C501.103 178.637 501.18 179.213 501.451 179.707C501.729 180.181 502.178 180.531 502.705 180.687C503.822 180.971 504.965 180.322 505.292 179.217C505.652 177.882 504.971 176.487 503.697 175.95C502.423 175.413 500.949 175.9 500.245 177.09C499.583 178.206 499.731 179.623 500.608 180.579C501.405 181.39 502.583 181.698 503.675 181.383C504.851 181.04 505.539 179.822 505.224 178.639C504.895 177.457 503.672 176.764 502.489 177.09L502.45 177.071Z" fill="#382C80"/>
<path d="M499.471 168.398C494.983 170.054 491.19 173.151 491.709 178.413C491.964 180.961 493.326 183.372 494.404 185.655C494.728 186.341 496.854 190.056 496.482 190.467C496.11 190.879 494.522 190.781 494.091 190.849C491.729 191.232 492.748 194.769 495.071 194.426C498.863 193.868 501.206 192.535 499.608 188.439C498.716 186.165 497.433 184.068 496.394 181.873C494.032 176.973 494.816 173.141 500.226 171.093C501.901 170.456 501.206 167.741 499.471 168.368V168.398Z" fill="#382C80"/>
<path d="M486.594 171.073C482.258 168.464 476.648 169.585 473.648 173.66C472.501 175.189 474.677 176.973 476.137 176.15C477.597 175.326 478.567 174.19 480.057 173.66C481.651 173.061 483.422 173.139 484.957 173.876C486.839 174.768 488.485 172.102 486.613 171.044L486.594 171.073Z" fill="#382C80"/>
<path d="M470.6 220.7C474.542 223.343 479.051 225.022 483.761 225.6C488.534 226.168 492.856 224.493 497.05 222.395C501.95 219.955 497.648 212.752 492.787 215.114C489.896 216.515 486.995 218.162 483.693 218.054C480.198 217.938 476.755 217.174 473.54 215.8C472.173 214.988 470.407 215.438 469.596 216.805C468.784 218.171 469.233 219.937 470.6 220.749V220.7Z" fill="#382C80"/>
<path d="M440.22 252.697C446.1 247.797 448.197 240.241 449.471 232.93C450.255 228.471 443.484 226.521 442.611 231.039C441.435 237.144 440.485 243.838 436.114 248.601C433.556 251.394 437.378 255.069 440.22 252.697Z" fill="#382C80"/>
<path d="M526.921 439.142C532.007 448.785 537.074 458.428 542.209 468.052C544.718 472.766 546.54 477.156 546.315 482.595C546.099 487.75 544.982 492.787 545.639 497.962C546.139 501.882 552.322 501.96 551.862 497.962C551.244 492.581 552.43 487.348 552.518 481.978C552.607 476.607 551.029 471.845 548.598 467.121C543.248 456.733 537.309 446.61 531.644 436.388C529.939 433.311 525.304 436.045 526.931 439.142H526.921Z" fill="#382C80"/>
<path d="M580.36 501.558C591.407 518.648 598.254 538.108 600.342 558.349C602.43 578.508 599.568 598.324 592.983 617.424C592.13 619.903 595.923 620.805 596.834 618.492C612.514 580.272 605.84 533.889 582.938 500.059C581.869 498.481 579.312 499.941 580.36 501.558Z" fill="white"/>
<path d="M428.46 136.42C433.723 124.366 432.174 108.333 421.6 100.572C417.932 98.0272 413.733 96.3515 409.321 95.6716C403.744 94.6916 397.786 94.8092 392.661 97.2592C387.535 99.7092 383.468 104.766 383.272 110.43C372.394 108.97 361.653 117.143 358.204 127.571C354.754 137.998 357.645 149.777 363.79 158.931C366.12 162.59 369.22 165.697 372.874 168.035C376.937 170.372 381.567 171.538 386.251 171.406C397.855 171.109 408.365 164.486 413.642 154.148" fill="#382C80"/>
<path d="M431.106 137.978C437.78 123.787 436.574 105.079 422.452 95.8378C407.468 86.0378 379.969 88.9778 378.176 110.459L383.262 105.363C374.217 104.315 365.093 108.666 359.301 115.526C352.784 123.229 350.609 133.078 352.059 142.966C353.451 152.462 358.253 162.223 365.358 168.75C373.119 175.874 383.929 177.952 394.042 175.551C404.156 173.15 413.446 166.104 417.964 156.676C420.718 150.924 412.476 145.896 409.301 151.61C405.106 159.165 397.923 164.81 389.23 166.055C379.048 167.515 371.336 162.056 366.485 153.511C362.133 145.837 360.036 135.871 363.721 127.511C367.102 119.858 374.883 114.771 383.262 115.555C386.124 115.84 388.162 112.988 388.358 110.469C388.77 104.187 395.169 100.61 400.804 100.003C407.155 99.307 414.838 100.797 419.914 104.844C428.813 111.959 429.224 125.787 425.539 135.655C424.354 138.86 429.646 141.124 431.106 137.997V137.978Z" fill="#382C80"/>
<path d="M630.34 283.42C622.732 297.642 616.655 312.632 612.21 328.137C610.05 335.723 608.29 343.417 606.937 351.187C605.536 359.164 603.752 367.758 603.997 375.883C604.154 380.704 611.837 382.223 612.817 377.068C614.248 369.562 614.523 361.82 615.757 354.254C617.061 346.483 618.697 338.76 620.716 331.126C624.637 315.944 629.823 301.117 636.22 286.801C637.974 282.881 632.457 279.441 630.34 283.371V283.42Z" fill="#382C80"/>
<path d="M332.812 321.738C336.477 324.903 340.554 327.559 344.2 330.754C347.756 333.863 351.117 337.188 354.264 340.711C360.547 347.875 365.985 355.737 370.474 364.142C375.036 372.621 378.932 381.441 382.126 390.524C386.046 401.549 389.378 412.701 388.564 424.55C388.192 430.028 396.336 429.783 396.963 424.55C398.453 412.221 394.807 400.187 390.632 388.721C387.156 378.938 382.933 369.436 378 360.301C373.177 351.468 367.342 343.227 360.615 335.742C354.059 328.49 345.836 320.601 336.83 316.505C333.684 315.064 329.725 319.053 332.812 321.708V321.738Z" fill="#382C80"/>
<path d="M526.46 466.778C540.013 493.64 551.754 521.56 562.504 549.647C573.745 579.047 583.731 608.868 592.081 639.199C596.432 655.003 600.385 670.909 603.939 686.915C604.978 691.6 612.073 689.61 611.112 684.955C604.948 655.173 596.148 626.018 586.612 597.177C576.734 567.424 565.552 538.083 552.989 509.359C546.266 494.002 538.818 478.979 531.007 464.152C529.439 461.163 524.99 463.799 526.499 466.788L526.46 466.778Z" fill="#382C80"/>
<path d="M388.535 499.559C390.759 527.166 400.667 552.587 414.093 576.607C427.941 601.391 446.864 623.823 456.125 650.94C461.447 666.531 464.279 682.809 467.317 698.96C468.219 703.791 475.422 701.694 474.638 696.941C472.325 682.79 469.845 668.589 465.641 654.86C461.408 641.351 455.429 628.452 447.854 616.493C433.056 592.757 416.631 570.217 405.881 544.188C400.001 530.017 395.493 514.876 394.121 499.559C393.807 496.002 388.241 495.953 388.515 499.559H388.535Z" fill="#382C80"/>
<path d="M794.529 194.24C807.749 191.555 819.764 201.296 827.771 210.723C834.964 219.2 840.599 229.089 845.362 239.094C856.053 261.634 862.325 286.389 865.942 310.987C868.029 325.158 868.735 339.407 869.234 353.676C869.421 359.213 877.682 359.233 877.858 353.676C878.682 326.55 874.076 298.433 866.726 272.385C859.944 248.375 849.909 223.444 833.121 204.579C823.135 193.368 808.386 183.607 792.814 188.066C788.816 189.203 790.501 195.063 794.519 194.24H794.529Z" fill="#382C80"/>
<path d="M853.976 370.052C856.916 391.004 858.876 412.094 860.836 433.154C861.81 443.934 862.672 454.714 863.423 465.494C864.129 475.549 864.188 485.741 865.246 495.756C865.491 498 868.794 498.118 868.843 495.756C869.039 485.721 867.863 475.5 867.157 465.494C866.353 454.322 865.429 443.16 864.384 432.007C862.424 411.029 859.889 390.122 856.779 369.287C856.504 367.445 853.741 368.239 853.996 370.052H853.976Z" fill="#382C80"/>
<path d="M873.312 372.747C875.272 390.867 878.212 408.909 880.799 426.941C882.073 435.849 883.827 444.875 883.651 453.911C883.474 462.672 880.828 471.159 880.632 479.93C880.574 482.507 884.552 482.497 884.621 479.93C884.974 471.178 887.561 462.682 887.659 453.911C887.757 445.14 885.993 436.516 884.719 427.96C881.965 409.429 879.613 390.779 876.173 372.365C875.879 370.768 873.135 371.111 873.312 372.747Z" fill="white"/>
<path d="M885.63 448.903C890.444 452.823 896.178 455.451 902.29 456.537C904.76 456.939 905.867 453.215 903.349 452.725C897.744 451.694 892.439 449.432 887.816 446.1C886.189 444.904 884.023 447.668 885.63 448.932V448.903Z" fill="white"/>
<path d="M767.432 395.659C744.5 422.58 769.314 463.671 801.732 466.219C817.001 467.435 830.152 458.595 837.728 445.826C845.783 432.282 847.89 415.387 845.078 400.04C842.216 384.448 828.614 360.517 809.298 369.797C807.005 370.895 809.004 374.276 811.258 373.208C818.804 369.64 826.938 373.58 831.946 379.47C836.846 385.213 839.727 392.582 841.158 399.922C843.723 413.563 841.776 427.667 835.611 440.102C829.878 451.363 819.931 460.78 806.848 461.76C792.707 462.809 778.869 454.959 770.588 443.846C760.651 430.557 758.26 410.987 769.49 397.61C770.666 396.208 768.667 394.17 767.462 395.581L767.432 395.659Z" fill="white"/>
<path d="M784.2 412.829C788.933 417.817 794.068 422.629 798.4 427.97C799.448 429.264 801.34 428.597 802.104 427.49C807.504 420.071 812.59 412.398 817.784 404.813C819.548 402.226 815.364 399.825 813.609 402.373C808.386 409.919 803.045 417.406 798.047 425.109L801.761 424.628C796.42 420.307 791.589 415.171 786.591 410.458C785.936 409.803 784.874 409.803 784.219 410.458C783.564 411.113 783.564 412.174 784.219 412.829H784.2Z" fill="#382C80"/>
<path d="M899.301 311.84C904.142 305.284 910.267 299.237 916.186 293.651C916.627 293.24 919.126 290.643 919.41 290.711C919.694 290.78 921.213 298.11 921.537 299.384C923.262 306.368 925.15 313.31 927.201 320.209C931.18 333.589 935.753 346.777 940.921 359.772C943.463 366.161 946.125 372.499 948.908 378.784C950.28 381.881 951.685 384.964 953.122 388.035C953.847 389.564 954.576 391.093 955.308 392.621C955.847 393.739 957.758 396.355 957.689 397.58C957.542 400.011 952.985 403.382 951.27 404.95C948.684 407.315 945.904 409.458 942.96 411.359C937.08 415.161 930.572 417.768 923.987 420.179C922.039 420.813 920.934 422.868 921.48 424.843C922.025 426.818 924.028 428.014 926.025 427.558C939.843 425.157 953.044 416.171 961.981 405.548C964.069 403.078 965.901 400.442 965.411 397.041C964.833 393.209 962.138 389.387 960.511 385.948C956.944 378.627 953.553 371.248 950.417 363.711C944.06 348.474 938.518 332.909 933.816 317.083C931.464 309.178 929.325 301.21 927.397 293.181C926.721 290.388 926.319 287.056 924.016 285.047C921.253 282.646 917.715 283.528 914.99 285.439C910.757 288.428 907.15 292.632 903.662 296.415C900.016 300.207 896.615 304.226 893.479 308.449C890.922 312.036 896.782 315.309 899.359 311.879L899.301 311.84Z" fill="#382C80"/>
<path d="M875.575 279.255C880.181 282.137 886.482 283.254 891.696 284.704C896.086 285.919 900.516 287.027 904.916 288.183C908.362 289.017 911.758 290.044 915.089 291.26C917.597 292.24 920.469 294.2 922.429 294.632C923.952 295.028 925.565 294.475 926.525 293.227C927.484 291.979 927.604 290.279 926.829 288.908C925.369 285.821 921.674 284.449 918.656 283.303C915.321 282.108 911.913 281.126 908.454 280.363C903.956 279.285 899.418 278.324 894.901 277.344C889.187 276.09 882.945 273.718 877.114 273.581C873.987 273.503 873.076 277.727 875.575 279.285V279.255Z" fill="#382C80"/>
<path d="M797.018 204.775C836.493 220.455 876.555 242.378 896.527 281.754C901.688 291.912 905.006 302.904 906.327 314.221C906.945 319.631 915.461 319.798 914.951 314.221C910.747 268.406 874.918 233.646 835.65 214.075C823.653 208.186 811.266 203.127 798.576 198.934C794.823 197.66 793.422 203.364 796.969 204.814L797.018 204.775Z" fill="#382C80"/>
<path d="M910.62 340.907C914.54 351.364 918.676 361.82 922.184 372.443C925.879 383.655 924.379 394.621 922.184 405.979C921.665 408.664 925.791 409.801 926.29 407.116C928.358 395.983 930.21 384.674 926.457 373.688C922.537 362.369 917.637 351.334 913.325 340.152C912.678 338.486 909.954 339.172 910.601 340.907H910.62Z" fill="#7F72FF"/>
<path d="M926.124 384.772C932.053 389.534 938.737 393.27 945.9 395.826C948.497 396.728 949.614 392.612 947.037 391.71C940.327 389.404 933.928 386.277 927.986 382.4C926.555 381.42 924.742 383.733 926.124 384.821V384.772Z" fill="#7F72FF"/>
<path d="M862.012 551.029C862.997 561.786 864.966 572.431 867.892 582.83C868.146 583.67 868.869 584.283 869.74 584.397C870.61 584.511 871.467 584.105 871.929 583.359C874.728 578.855 876.776 573.927 877.995 568.767C878.56 566.275 878.95 563.747 879.162 561.201C879.387 558.682 879.309 555.635 881.798 554.174C885.796 551.822 891.069 554.782 894.538 556.781C898.624 559.172 902.662 561.436 907.542 561.27C908.679 561.27 910.041 560.231 909.885 558.937C908.748 550.117 907.64 541.346 906.494 532.546L904.083 534.957C911.406 535.861 918.788 536.188 926.162 535.937C927.005 535.903 927.772 535.441 928.197 534.713C928.621 533.985 928.645 533.09 928.26 532.34C923.732 523.696 919.146 515.121 914.226 506.703C912.815 504.283 909.326 506.409 910.512 508.879C914.785 517.699 919.381 526.235 924.055 534.79L926.153 531.125C918.779 531.381 911.396 531.054 904.073 530.145C902.744 530.15 901.668 531.226 901.662 532.556C902.829 541.376 904.024 550.147 905.19 558.947L907.533 556.605C897.85 556.967 889.765 544.384 879.534 550.235C875.026 552.812 875.036 557.83 874.565 562.377C873.788 569.019 871.599 575.417 868.146 581.144L872.194 581.663C869.024 571.7 866.883 561.438 865.804 551.038C865.549 548.647 861.786 548.588 862.012 551.038V551.029Z" fill="#382C80"/>
<path d="M483.742 200.698C485.859 202.714 488.736 203.731 491.65 203.491C492.409 203.45 493.079 202.986 493.386 202.291C493.693 201.596 493.584 200.788 493.104 200.199C492.623 199.611 491.853 199.341 491.111 199.503C489.373 199.863 487.566 199.404 486.211 198.258C484.555 196.798 482.125 199.238 483.781 200.698H483.742Z" fill="#382C80"/>
<path d="M232.675 258.293C223.757 248.904 210.586 249.208 198.718 251.256C184.626 253.697 170.191 257.773 157.686 264.869C133.98 278.304 119.946 303.177 110.763 327.971C107.806 335.963 105.329 344.125 103.345 352.412C101.306 360.869 99.1309 369.954 99.1211 378.696C99.1211 382.988 105.667 384.017 106.716 379.676C108.421 372.678 109.176 365.426 110.734 358.38C112.204 351.729 113.994 345.157 116.104 338.663C119.892 326.515 125.034 314.832 131.432 303.833C137.537 293.583 145.201 283.939 154.893 276.864C165.673 269.024 178.344 264.712 191.212 261.586C202.423 258.851 217.76 255.127 227.756 263.173C231.176 265.917 235.831 261.576 232.656 258.273L232.675 258.293Z" fill="#382C80"/>
<path d="M100.758 375.011C98.1261 374.894 95.6411 376.225 94.2799 378.48C92.7389 381.391 93.6389 384.995 96.3673 386.839C98.8932 388.509 102.285 387.906 104.08 385.467C104.927 384.38 105.37 383.033 105.334 381.655C105.248 379.801 104.265 378.104 102.698 377.108C100.983 375.873 98.4057 376.667 97.2199 378.206C95.9106 379.883 96.0533 382.272 97.5531 383.782C98.0921 384.272 97.8765 383.85 96.9063 382.508C96.7692 382.017 96.7692 381.499 96.9063 381.008C96.7887 381.43 96.9063 381.273 97.1219 380.558C97.6185 379.989 97.7165 379.862 97.4159 380.175C98.1325 379.442 99.1914 379.157 100.18 379.431C100.576 379.542 100.935 379.758 101.218 380.058C101.601 380.607 101.669 380.695 101.434 380.322C101.659 380.95 101.718 381.048 101.591 380.626C101.713 381.022 101.713 381.446 101.591 381.841C101.13 382.537 101.757 381.097 101.591 381.841C101.218 382.302 101.189 382.371 101.483 382.067C101.032 382.387 100.983 382.436 101.336 382.214L101.169 382.292C101.334 382.234 101.505 382.195 101.679 382.175C103.436 381.682 104.555 379.963 104.296 378.157C104.044 376.361 102.521 375.017 100.709 374.991L100.758 375.011Z" fill="#382C80"/>
<path d="M153.785 442.053C153.032 428.543 153.107 415 154.011 401.5C155.069 387.682 157.009 373.894 159.244 360.213C163.497 334.262 170.269 307.499 187.723 287.046C197.131 276.011 208.538 267.926 221.239 261.105C224.865 259.145 222.326 252.677 218.377 254.314C193.661 264.555 174.757 286.115 164.477 310.419C158.96 323.453 155.539 337.222 153.031 351.118C150.473 365.338 148.444 379.744 147.151 394.131C145.73 410.073 145.73 426.11 147.151 442.053C147.513 446.237 154.011 446.365 153.785 442.053Z" fill="#382C80"/>
<path d="M202.599 453.401C188.468 473.373 188.095 503.538 203.501 522.981C210.572 532.086 221.185 537.753 232.685 538.563C244.239 539.249 254.755 533.771 261.801 524.774C270.974 513.063 273.414 497.472 273.208 482.958C273.208 480.42 269.465 480.469 269.288 482.958C268.494 494.924 267.436 507.193 261.144 517.728C255.764 526.744 247.032 533.614 236.262 534.192C212.742 535.447 197.68 513.671 195.994 492.317C194.835 479.182 198.132 466.04 205.353 455.008C206.519 453.283 203.765 451.725 202.589 453.391L202.599 453.401Z" fill="white"/>
<path d="M212.86 477.46C211.45 478.219 210.869 479.94 211.528 481.398C212.187 482.857 213.862 483.558 215.364 483.002C216.865 482.446 217.68 480.823 217.23 479.286C216.78 477.75 215.218 476.824 213.654 477.166" fill="#382C80"/>
<path d="M212.438 476C210.008 476.343 209.146 479.577 209.724 481.596C210.444 484.049 213.006 485.465 215.467 484.771C217.985 484.181 219.611 481.735 219.181 479.185C218.911 477.844 218.112 476.668 216.966 475.921C215.819 475.175 214.421 474.921 213.085 475.216C210.978 475.735 211.36 479.273 213.614 479.136C215.084 479.008 216.074 480.802 214.33 481.096C214.087 481.167 213.825 481.128 213.613 480.991C213.4 480.854 213.258 480.631 213.222 480.38C213.017 479.489 213.614 478.842 214.085 478.156C214.898 476.98 213.556 475.863 212.438 476.01V476Z" fill="#382C80"/>
<path d="M240.761 466.131C242.552 465.758 244.353 466.724 245.033 468.423C245.713 470.121 245.076 472.063 243.522 473.029C241.968 473.995 239.944 473.706 238.722 472.344C237.935 471.304 237.709 469.944 238.115 468.704C238.522 467.465 239.51 466.503 240.761 466.131Z" fill="#382C80"/>
<path d="M240.76 467.807C243.318 467.513 244.494 471.325 241.554 471.502C239.271 471.639 239.496 468.62 241.27 467.983C242.08 467.559 242.489 466.629 242.254 465.745C242.02 464.861 241.204 464.256 240.29 464.289C237.477 464.74 235.733 467.866 235.998 470.551C236.139 472.014 236.878 473.354 238.038 474.255C239.199 475.156 240.68 475.539 242.132 475.314C243.578 475.201 244.92 474.518 245.861 473.415C246.803 472.312 247.266 470.879 247.15 469.434C246.928 467.868 246.077 466.46 244.793 465.535C243.51 464.61 241.905 464.249 240.349 464.534C238.526 464.887 238.908 468.042 240.8 467.827L240.76 467.807Z" fill="#382C80"/>
<path d="M222.405 509.232C236.056 516.405 251.707 506.056 253.5 491.641C253.765 489.485 249.982 488.955 249.669 491.131C249.008 496.69 246.001 501.701 241.407 504.9C235.939 508.546 229.559 508.506 223.483 506.635C222.811 506.474 222.122 506.824 221.855 507.461C221.587 508.098 221.82 508.835 222.405 509.202V509.232Z" fill="#382C80"/>
<path d="M170.838 613.768C169.439 621.889 168.894 630.133 169.211 638.366C169.27 639.836 171.24 640.934 172.337 639.66C174.297 637.406 176.211 635.142 178.08 632.869C179.511 631.163 181.598 627.498 183.529 626.391C186.096 624.901 189.958 628.723 191.927 630.027C194.397 631.653 196.853 633.287 199.297 634.927C200.885 636.005 202.462 634.231 202.237 632.682C201.816 630.056 201.257 627.459 200.738 624.842C200.061 621.51 200.365 621.491 203.746 622.206C208.829 623.291 213.919 624.369 219.015 625.44C219.793 625.633 220.615 625.403 221.181 624.836C221.747 624.268 221.974 623.444 221.778 622.667C220.827 615.676 219.236 608.787 217.025 602.087C216.133 599.392 211.929 600.499 212.752 603.263C214.792 610.005 216.357 616.882 217.437 623.843L220.21 621.079L208.235 618.649C205.432 618.08 201.816 616.689 198.944 617.541C196.967 618.089 195.669 619.978 195.867 622.02C195.955 625.764 197.455 630.095 198.405 633.711L201.345 631.467C197.961 629.298 194.593 627.113 191.241 624.911C189.115 623.529 186.557 621.236 183.784 621.853C181.167 622.422 179.472 625.332 177.904 627.214C175.179 630.481 172.471 633.747 169.779 637.014L172.915 638.308C172.126 630.358 172.343 622.34 173.562 614.445C173.846 612.7 171.181 611.936 170.877 613.71L170.838 613.768Z" fill="#382C80"/>
<path d="M241.995 593.659C242.975 595.57 243.955 597.432 245.043 599.274C246.023 600.901 248.963 599.813 248.218 597.932C247.336 595.815 246.396 593.747 245.367 591.689C244.249 589.435 240.868 591.415 241.995 593.649V593.659Z" fill="#382C80"/>
<path d="M62.2831 323.257C55.2957 317.299 49.2785 310.429 46.2209 301.619L43.3201 303.814C53.0221 308.038 62.7143 312.301 72.4163 316.554C73.1124 316.938 73.959 316.926 74.6445 316.524C75.33 316.122 75.7532 315.389 75.7581 314.594C76.0844 302.783 77.8718 291.058 81.0795 279.686H76.7283C80.5488 289.034 83.4439 298.733 85.3719 308.645C85.9501 311.507 90.2719 310.282 89.7329 307.44C87.9025 297.519 85.0112 287.823 81.1089 278.52C80.2955 276.56 77.3849 276.168 76.7283 278.52C73.4184 290.283 71.6107 302.417 71.3481 314.633L74.1607 312.487C64.3607 308.4 54.6195 304.363 44.8587 300.296C43.1143 299.561 42.0265 301.815 42.6537 303.157C46.7501 311.919 52.4537 320.082 60.4603 325.648C61.8519 326.628 63.5767 324.404 62.2831 323.296V323.257Z" fill="#382C80"/>
<path d="M35.3721 336.712C40.9489 339.195 46.1535 342.44 50.8365 346.356C52.4829 347.688 54.7565 345.562 53.2179 343.974C48.5048 339.38 42.8882 335.816 36.7245 333.508C34.8919 332.773 33.5395 335.938 35.3721 336.712Z" fill="#382C80"/>
<path d="M835.66 539.494C839.129 535.388 841.187 529.763 841.961 524.49C842.284 522.227 838.864 521.198 838.453 523.51C837.473 528.724 835.513 532.85 833.033 537.446C832.151 539.043 834.386 540.984 835.66 539.475V539.494Z" fill="#382C80"/>
<path d="M621.118 842.343C624.137 837.09 627.567 833.014 633.319 830.583C635.279 829.77 634.574 826.663 632.418 827.31C626.038 829.27 619.864 834.415 617.884 840.961C617.665 841.813 618.103 842.696 618.914 843.037C619.724 843.379 620.662 843.075 621.118 842.324V842.343Z" fill="white"/>
<path d="M633.819 846.92L639.591 839.815C641.022 838.061 638.513 835.532 637.092 837.306L631.359 844.46C629.968 846.185 632.398 848.654 633.819 846.92Z" fill="white"/>
<path d="M369.444 677.978C372.257 682.299 373.805 686.876 375.187 691.805C375.667 693.501 378.549 693.246 378.372 691.374C377.687 685.906 375.668 680.689 372.492 676.184C371.228 674.293 368.161 676.047 369.415 677.978H369.444Z" fill="white"/>
<path d="M359.458 683.681C361.737 687.992 363.202 692.687 363.78 697.529C364.035 699.381 367.004 698.901 366.985 697.097C366.853 691.734 365.315 686.5 362.526 681.917C361.399 679.957 358.429 681.711 359.507 683.681H359.458Z" fill="white"/>
<path d="M365.152 610.985C359.635 614.415 362.545 622.941 368.856 622.902C376.118 622.843 379.636 612.582 373.443 608.417C371.885 607.369 370.17 609.397 370.983 610.877C371.796 612.357 372.943 613.915 372.669 615.836C372.445 617.58 371.138 618.99 369.415 619.344C367.922 619.775 366.334 619.084 365.632 617.698C364.92 616.248 365.33 614.497 366.612 613.513C368.161 612.474 366.749 609.975 365.132 610.985H365.152Z" fill="white"/>
<path d="M556.84 864.04C548.539 868.862 553.684 881.837 563.014 880.24C574.147 878.28 574.088 863.58 564.778 859.16C562.426 858.033 560.378 861.394 562.71 862.698C567.61 865.442 570.021 873.243 563.563 875.83C561.142 876.81 558.261 876.359 557.007 873.87C555.727 871.53 556.416 868.603 558.604 867.078C560.505 865.893 558.8 862.923 556.84 864.06V864.04Z" fill="white"/>
</svg>
