<svg width="1000" height="1000" viewBox="0 0 1000 1000" fill="none" xmlns="http://www.w3.org/2000/svg">
<path d="M801.184 447.305C793.687 463.456 801.782 484.996 818.059 492.219C826.811 496.139 836.807 496.08 846.303 494.806C886.483 489.406 920.724 463.613 951.163 436.859C958.317 430.577 965.971 422.825 965.451 413.339C964.873 402.559 954.289 395.542 944.871 390.279" fill="#382C80"/>
<path d="M798.9 445.962C792.576 460.262 795.523 476.967 806.358 488.24C820.186 502.636 842.461 500.333 860.121 495.991C879.721 491.16 898.037 481.703 914.707 470.413C922.988 464.798 930.955 458.702 938.707 452.372C946.459 446.041 954.965 439.632 961.502 431.958C967.725 424.657 971.449 415.416 967.48 406.086C963.697 397.207 954.847 391.602 946.733 387.113C942.617 384.83 938.893 391.082 943.038 393.434C949.212 396.972 956.141 400.892 959.816 407.233C964.402 415.151 959.757 423.07 954.132 428.95C942.617 440.964 928.583 451.548 915.01 461.113C901.026 470.972 886.012 479.684 869.793 485.3C854.535 490.572 834.131 495.893 818.725 488.573C804.613 481.87 797.224 463.093 803.477 448.648C804.819 445.561 800.282 442.836 798.89 445.972L798.9 445.962Z" fill="#382C80"/>
<path d="M913.011 433.007C895.92 447.08 790.315 491.513 787.767 450.784C786.042 423.344 771.656 399.903 740.414 406.145C738.512 406.518 736.494 407.027 734.671 406.4C731.437 405.302 730.271 401.333 730.153 397.913C729.895 387.845 734.498 378.267 742.521 372.178C734.171 376.873 722.303 373.56 717.58 365.22C712.856 356.881 716.129 345.003 724.44 340.26C712.866 341.24 697.98 340.26 694.109 329.333C690.326 318.553 700.763 308.616 704.84 297.973C700.763 300.501 696.519 303.098 691.747 303.637C686.974 304.176 681.555 302.05 679.869 297.561C678.37 293.573 680.163 289.163 682.064 285.35C702.517 244.386 742.824 205.912 790.149 201.07C835.229 196.415 878.692 224.767 904.279 262.164C922.674 289.016 933.199 317.416 938.227 348.845C939.314 355.646 941.069 362.868 946.223 367.416C952.348 372.815 962.981 374.413 964.687 382.4C965.667 387.123 962.727 391.729 959.787 395.522C947.22 411.405 931.173 424.19 912.884 432.889" fill="white"/>
<path d="M911.237 431.223C901.869 438.691 889.354 443.385 878.378 447.834C862.522 454.263 845.989 459.732 829.113 462.701C819.166 464.445 801.536 467.425 793.941 458.369C789.521 453.087 790.756 444.375 789.374 438.015C787.414 428.911 783.592 419.914 777.164 413.054C769.823 405.214 759.416 401.441 748.744 401.784C745.608 401.892 742.599 402.539 739.502 402.901C736.405 403.264 734.426 403.088 733.681 399.638C733.382 397.745 733.382 395.817 733.681 393.925C734.655 386.22 738.702 379.236 744.902 374.56C748.038 372.1 744.04 367.631 740.825 369.278C733.897 372.815 724.41 370.463 720.49 363.535C716.57 356.606 719.589 347.267 726.155 343.18C728.801 341.524 727.958 336.614 724.449 336.898C716.306 337.555 703.281 338.319 698.274 330.244C692.276 320.572 704.555 307.567 708.074 298.884C709.22 296.081 705.447 293.631 703.115 295.072C699.312 297.414 695.049 300.305 690.375 300.354C684.603 300.423 681.555 296.258 683.338 290.75C685.71 283.263 690.826 275.913 695.098 269.406C703.993 255.798 714.806 243.545 727.203 233.028C751.909 212.174 784.112 199.542 816.628 205.441C849.145 211.341 877.692 232.332 897.233 258.361C907.843 272.559 916.447 288.15 922.801 304.696C925.971 312.943 928.619 321.381 930.73 329.96C932.827 338.437 933.748 347.179 935.884 355.626C937.913 363.672 942.058 369.738 949.32 373.825C952.437 375.579 956.092 376.941 958.748 379.391C963.06 383.36 960.512 388.388 957.582 392.376C945.743 408.468 928.838 421.129 910.983 429.763C906.808 431.772 910.453 437.966 914.609 435.967C932.67 427.351 948.592 414.832 961.227 399.315C966.127 393.199 971.184 385.252 966.49 377.5C962.776 371.355 955.288 369.738 949.83 365.74C941.735 359.801 941.735 347.659 939.951 338.692C937.96 328.625 935.268 318.709 931.896 309.017C925.33 290.083 915.983 272.231 904.162 256.048C882.994 227.315 851.438 203.775 815.511 198.375C779.584 192.976 744.892 207.832 718.491 231.695C703.521 245.286 690.991 261.342 681.447 279.167C677.38 286.742 672.127 297.208 680.575 303.892C688.768 310.36 698.862 305.607 706.525 300.883L701.557 297.061C696.794 308.723 684.034 321.561 693.031 334.556C699.744 344.229 713.924 344.454 724.391 343.611L722.754 337.32C713.032 343.376 708.916 356.675 714.669 366.896C720.422 377.118 734.102 380.224 744.216 375.05L740.1 369.797C730.859 377.069 723.117 392.102 727.968 403.921C730.251 409.487 735.112 410.496 740.551 409.526C746.813 408.409 753.075 407.929 759.269 409.703C769.657 412.643 776.674 421.296 780.358 431.116C782.387 436.624 783.672 442.378 784.18 448.226C784.514 451.823 784.7 455.282 786.229 458.614C791.883 470.884 807.926 471.58 819.549 470.541C837.786 468.904 855.593 463.142 872.537 456.449C886.855 450.804 902.721 444.689 914.765 434.781C917.284 432.723 913.707 429.244 911.218 431.223H911.237Z" fill="#382C80"/>
<path d="M391.749 729.78L404.587 789.795C406.563 799.046 414.727 805.664 424.187 805.681C433.645 805.66 441.808 799.044 443.787 789.795L456.625 729.78L391.749 729.78Z" fill="#7F72FF"/>
<path d="M148.435 729.78L161.282 789.795C163.255 799.048 171.421 805.667 180.882 805.681C190.343 805.667 198.51 799.048 200.482 789.795L213.32 729.78H148.435Z" fill="#382C80"/>
<path d="M243.309 729.78L256.147 789.795C258.119 799.048 266.286 805.667 275.747 805.681C285.207 805.667 293.374 799.048 295.347 789.795L308.194 729.78H243.309Z" fill="#382C80"/>
<path d="M501.686 729.222L514.524 789.247C516.507 798.492 524.668 805.102 534.124 805.123C543.579 805.102 551.74 798.492 553.724 789.247L566.64 729.222L501.686 729.222Z" fill="#7F72FF"/>
<path d="M448.061 257.117C483.364 257.117 517.222 271.144 542.183 296.11C567.143 321.076 581.162 354.937 581.155 390.24V720.677C581.155 736.183 568.584 748.754 553.077 748.754H314.938V390.24C314.93 354.932 328.953 321.067 353.92 296.099C378.887 271.132 412.752 257.109 448.061 257.117Z" fill="#7F72FF"/>
<path d="M261.938 257.117H448.325V748.764H261.938V257.117Z" fill="#7F72FF"/>
<path d="M262.223 257.117C297.527 257.117 331.384 271.144 356.345 296.11C381.305 321.076 395.324 354.937 395.317 390.24V748.754H160.42C143.133 748.754 129.119 734.74 129.119 717.453V390.24C129.111 354.935 143.132 321.073 168.094 296.106C193.057 271.14 226.917 257.115 262.223 257.117Z" fill="#382C80"/>
<path d="M556.84 422.58H423.501C415.132 422.58 416.798 405.832 423.501 400.814C430.205 395.797 547.383 396.345 556.87 400.814C566.356 405.283 565.807 422.58 556.84 422.58Z" fill="#382C80"/>
<path d="M556.84 419.229H432.233C429.675 419.229 427 419.454 424.452 419.229C419.454 418.788 421.08 411.291 422.443 407.939C423.011 406.337 423.955 404.896 425.196 403.735C425.696 403.333 425.392 403.558 425.304 403.598C426.313 403.216 427.367 402.969 428.44 402.863C431.951 402.329 435.487 401.975 439.034 401.804C463.358 400.148 487.907 400.344 512.269 400.873C524.029 401.128 535.848 401.412 547.549 402.559C550.166 402.814 553.135 402.921 555.615 403.892C554.429 403.431 555.909 404.068 556.066 404.176C556.953 404.751 557.732 405.478 558.369 406.322C559.497 407.993 560.172 409.927 560.329 411.937C560.574 414.476 560.123 419.023 556.81 419.229C552.538 419.493 552.508 426.196 556.81 425.922C571.628 424.942 569.011 401.706 557.447 397.502C550.411 394.934 541.503 395.336 534.143 394.964C506.144 393.543 477.94 393.435 449.922 394.562C441.621 394.895 432.125 394.562 424.079 396.973C414.622 399.815 409.742 419.836 419.473 424.991C422.041 426.353 425.353 425.971 428.156 425.971H556.84C561.181 425.922 561.191 419.229 556.84 419.229Z" fill="#382C80"/>
<path d="M563.573 694.442C517.866 695.873 472.139 692.021 426.432 693.785L429.979 697.333C427.637 622.98 427.294 548.598 429.431 474.236L425.609 478.048C464.41 478.153 503.205 478.225 541.993 478.264H558.546L554.724 474.442C555.292 499.51 555.837 524.575 556.36 549.637L558.928 669.54C559.124 678.733 559.349 687.925 559.555 697.117C559.673 702.282 567.699 702.302 567.591 697.117C567.023 672.049 566.438 646.984 565.837 621.922L562.995 502.029C562.779 492.836 562.57 483.644 562.368 474.452C562.316 472.363 560.635 470.681 558.546 470.63C519.757 470.564 480.962 470.492 442.161 470.414H425.609C423.527 470.471 421.853 472.145 421.796 474.226C419.836 548.569 420.003 623 422.884 697.323C422.91 699.272 424.483 700.844 426.432 700.871C472.119 698.774 517.895 702.253 563.573 699.822C567.013 699.646 567.062 694.334 563.573 694.442Z" fill="#382C80"/>
<path d="M151.629 667.119C150.469 679.26 150.545 691.488 151.855 703.614C151.845 704.113 152.032 704.595 152.374 704.957C152.716 705.174 153.116 705.28 153.521 705.261L157.892 705.457C176.374 706.26 194.873 706.339 213.389 705.692C213.828 705.713 214.263 705.607 214.643 705.388C215.093 704.948 215.338 704.341 215.32 703.712L218.74 671.617C198.678 672.899 178.536 671.913 158.695 668.677" fill="white"/>
<path d="M213.438 605.194C220.945 606.801 239.79 594.678 246.758 591.474L286.429 573.344C295.484 569.208 353.539 547.393 350.697 539.622C340.333 511.278 327.926 483.723 313.575 457.174C312.771 455.695 311.791 454.068 310.154 453.627C308.763 453.264 307.322 453.872 306.019 454.47C263.84 473.717 221.638 492.912 179.413 512.054C177.677 512.677 176.117 513.709 174.865 515.063C172.268 518.375 173.964 523.177 175.757 526.99L193.534 564.916L202.893 584.868C204.726 588.788 208.626 602.763 212.203 604.743C212.589 604.956 213.006 605.108 213.438 605.194Z" fill="white"/>
<path d="M179.991 524.912C195.73 530.792 211.351 536.995 227.031 542.807C234.871 545.707 242.75 548.582 250.669 551.431C255.716 553.253 264.301 558.663 269.289 554.469C271.298 552.783 272.297 550.068 273.454 547.795C275.414 543.953 277.331 540.089 279.206 536.201C282.695 529.015 286.044 521.74 289.251 514.377C295.494 500.01 301.844 485.369 306.264 470.326C307.666 465.553 300.727 463.907 298.973 468.317C293.73 481.498 289.242 494.953 283.812 508.066C280.866 515.18 277.799 522.24 274.61 529.243C273.199 532.34 271.768 535.408 270.308 538.475C269.171 540.866 267.584 546.384 265.594 548.138C263.605 549.892 258.509 547.011 256.137 546.178C252.492 544.871 248.853 543.564 245.22 542.258C238.242 539.749 231.265 537.24 224.268 534.79C209.979 529.782 195.593 525.069 181.314 520.09C178.188 518.993 176.914 523.873 179.952 524.99L179.991 524.912Z" fill="#382C80"/>
<path d="M232.911 583.575C234.354 577.993 236.185 572.517 238.389 567.189C240.614 561.858 243.642 556.919 245.896 551.627C246.631 550.196 246.118 548.44 244.728 547.629C243.338 546.818 241.557 547.235 240.673 548.579C233.734 557.938 230.059 570.884 227.541 582.095C226.757 585.584 232 587.064 232.911 583.575Z" fill="#382C80"/>
<path d="M323.933 542.718C313.81 539.474 303.5 536.779 293.25 534.006C289.663 533.026 288.144 538.592 291.721 539.562C301.972 542.326 312.242 545.178 322.62 547.461C323.93 547.824 325.286 547.056 325.648 545.746C326.011 544.436 325.243 543.081 323.933 542.718Z" fill="#382C80"/>
<path d="M251.845 533.418C250.972 535.456 251.394 537.71 253.511 538.788C255.235 539.67 257.431 538.877 258.891 537.808C261.983 535.521 263.382 531.588 262.429 527.861C261.298 524.202 257.825 521.779 254.001 521.981C250.394 522.079 245.455 524.657 245.739 528.841C245.773 530.083 246.534 531.189 247.682 531.664C248.83 532.138 250.15 531.892 251.051 531.037C252.325 529.841 253.942 527.489 255.774 529.077C256.754 529.89 256.255 533.134 254.657 533.183L256.137 533.575L256.774 534.427V535.897L256.843 535.525C257.411 532.703 253.148 530.4 251.845 533.418Z" fill="#382C80"/>
<path d="M709.436 477.293C719.128 476.196 736.934 453.999 744.039 447.354L784.494 409.526C793.725 400.883 854.838 351.187 848.282 342.974C824.359 313.034 798.298 284.867 770.303 258.694C768.735 257.224 766.903 255.666 764.757 255.803C762.934 255.911 761.444 257.224 760.111 258.469C717.089 298.669 674.015 338.803 630.889 378.872C629.174 380.459 627.4 382.125 626.626 384.33C624.832 389.368 628.811 394.464 632.506 398.335L669.216 436.819L688.542 457.086C692.325 461.055 702.664 476.313 707.77 477.264C708.32 477.358 708.882 477.368 709.436 477.293Z" fill="#7F72FF"/>
<path d="M152.101 386.654C188.586 392.034 225.601 388.966 262.223 387.193C298.209 385.458 334.498 384.155 370.151 378.637C373.992 378.039 373.091 371.424 369.229 371.777C351.07 373.551 332.969 375.697 314.771 376.922C297.268 378.147 279.736 378.931 262.223 379.862C225.846 381.822 189.145 385.095 152.757 381.714C150.003 381.46 149.317 386.183 152.101 386.614V386.654Z" fill="white"/>
<path d="M153.972 655.232C164.203 655.281 174.473 655.8 184.705 655.447C188.527 655.31 188.527 649.636 184.705 649.509C174.473 649.146 164.203 649.665 153.972 649.714C150.414 649.714 150.414 655.222 153.972 655.232Z" fill="white"/>
<path d="M151.836 637.2C158.552 638.023 165.269 638.826 171.985 639.61C175.758 640.042 175.797 633.995 171.985 633.642C165.272 633.015 158.559 632.437 151.836 631.868C148.377 631.574 148.504 636.768 151.836 637.2Z" fill="white"/>
<path d="M151.522 625.44C153.286 625.094 155.047 624.719 156.804 624.313C158.227 623.904 159.063 622.433 158.686 621.001C158.263 619.588 156.803 618.759 155.373 619.119C153.59 619.423 151.826 619.756 150.052 620.099C148.576 620.496 147.699 622.013 148.092 623.49C148.507 624.952 150.008 625.82 151.483 625.45L151.522 625.44Z" fill="white"/>
<path d="M336.282 664.826C344.308 665.551 352.609 666.688 360.664 666.119C363.967 665.884 365.251 660.514 361.497 659.896C353.236 658.554 344.641 658.858 336.282 658.858C332.362 658.858 332.519 664.483 336.282 664.826Z" fill="white"/>
<path d="M339.771 681.673C344.798 682.947 350.453 681.947 355.166 679.997C356.405 679.687 357.345 678.677 357.566 677.419C357.787 676.162 357.247 674.892 356.188 674.178C355.13 673.465 353.75 673.441 352.667 674.117C348.679 675.901 344.827 676.077 340.515 676.204C337.428 676.312 336.595 680.918 339.771 681.722V681.673Z" fill="white"/>
<path d="M183.979 489.554C195.22 486.918 206.421 481.155 216.868 476.314C227.947 471.219 238.743 465.53 249.208 459.272C252.295 457.41 249.541 452.686 246.386 454.44C235.988 460.203 225.492 465.789 214.732 470.846C203.971 475.902 192.496 479.47 182 484.84C179.324 486.212 181.226 490.201 183.96 489.554H183.979Z" fill="white"/>
<path d="M256.901 450.422C259.841 450.422 259.841 445.924 256.901 445.924C253.961 445.924 253.961 450.422 256.901 450.422Z" fill="white"/>
<path d="M172.68 579.782C186.459 573.167 200.277 566.591 213.84 559.496C217.309 557.673 214.261 552.636 210.792 554.272C197.072 560.868 183.489 567.992 169.965 575.078C166.839 576.714 169.583 581.281 172.709 579.782H172.68Z" fill="#382C80"/>
<path d="M191.937 585.113C197.832 584.198 203.476 582.079 208.518 578.89C211.537 576.999 208.724 572.158 205.716 574.108C201.113 577.096 195.941 579.098 190.526 579.988C187.145 580.556 188.566 585.623 191.937 585.113Z" fill="#382C80"/>
<path d="M255.628 613.837C277.335 604.792 299.414 596.658 321.239 587.906C324.326 586.662 323.071 581.624 319.827 582.81C297.699 590.895 276.119 600.284 254.412 609.417C251.737 610.544 252.903 614.974 255.628 613.837Z" fill="white"/>
<path d="M240.986 622.686C244.014 622.686 244.014 617.973 240.986 617.973C237.958 617.973 237.948 622.686 240.986 622.686Z" fill="white"/>
<path d="M446.914 664.542C446.796 654.742 446.649 644.824 446.718 634.975C446.776 625.724 448.129 616.649 447.443 607.388C446.002 588.004 444.17 568.865 445.6 549.421L442.504 552.508C448.172 551.894 453.892 551.917 459.556 552.577C464.544 553.194 464.563 552.577 464.456 557.242C464.397 560.182 464.338 563.122 464.269 565.983C464.005 577.979 463.642 589.964 463.289 601.959C462.986 613.621 462.692 625.293 462.603 636.965C462.551 643.126 462.551 649.287 462.603 655.448C462.603 657.006 463.583 663.288 462.741 664.209C463.358 663.582 461.761 664.209 461.222 664.209C459.34 664.287 457.458 664.454 455.577 664.63C450.99 665.042 450.824 672.049 455.577 671.902C460.114 671.755 467.474 672.735 469.552 667.521C470.649 664.777 470.042 661.288 469.993 658.397C469.927 654.83 469.882 651.263 469.855 647.696C469.757 632.457 469.983 617.218 470.267 601.989C470.551 587.083 470.924 572.177 471.041 557.271C471.041 551.234 470.679 547.873 464.113 546.756C456.942 545.598 449.644 545.463 442.435 546.354C440.758 546.429 439.418 547.774 439.348 549.451C437.074 568.747 439.652 588.18 441.249 607.418C442.023 616.649 440.808 625.773 440.906 635.005C441.004 644.873 441.739 654.742 442.582 664.571C442.817 667.266 446.884 667.364 446.845 664.571L446.914 664.542Z" fill="#382C80"/>
<path d="M451.461 529.557C443.092 527.685 443.023 516.934 449.991 513.161C452.804 511.652 456.42 512.397 458.948 514.318C463.77 517.954 459.566 521.589 456.841 524.921C454.607 527.636 457.341 531.595 460.653 529.87C466.896 526.636 470.914 518.297 466.631 511.927C463.182 506.801 454.871 503.949 449.08 505.968C435.418 510.731 434.174 532.301 450.06 534.476C453.205 534.898 454.715 530.292 451.422 529.576L451.461 529.557Z" fill="#382C80"/>
<path d="M451.186 521.619C450.707 525.301 450.753 529.033 451.323 532.702C451.794 536.103 457.644 535.329 457.36 531.879C457.095 528.724 456.948 525.49 456.556 522.344C456.524 520.991 455.523 519.858 454.185 519.659C452.833 519.457 451.544 520.299 451.186 521.619Z" fill="#382C80"/>
<path d="M409.997 189.399C409.997 194.015 409.899 198.63 409.997 203.246C410.105 207.078 415.877 207.088 415.965 203.246C416.083 198.63 416.014 194.015 415.965 189.399C415.965 185.528 409.968 185.479 409.948 189.399H409.997Z" fill="#382C80"/>
<path d="M474.697 197.816L469.973 210.478C468.562 214.271 474.697 215.976 476.059 212.154L480.567 199.414C481.89 195.7 476.049 194.161 474.687 197.797L474.697 197.816Z" fill="#382C80"/>
<path d="M518.787 212.046L512.995 224.727C511.319 228.402 516.768 231.587 518.434 227.912L524.177 215.172C525.823 211.546 520.453 208.361 518.787 212.017V212.046Z" fill="#382C80"/>
<path d="M374.247 211.331C374.642 215.17 375.971 218.854 378.118 222.062C380.303 225.227 385.517 222.219 383.312 219.024C381.554 216.5 380.422 213.594 380.009 210.547C379.539 207.313 373.855 208.048 374.247 211.331Z" fill="#382C80"/>
<path d="M828.967 255.862C813.287 255.353 800.076 266.593 788.542 277.158C783.22 282.058 777.762 287.164 775.165 293.906C772.568 300.648 774.038 309.498 780.261 313.143C785.474 316.191 792.021 314.77 797.901 313.261L824.361 306.401C827.114 318.955 829.986 331.803 836.963 342.602C843.941 353.402 855.975 361.869 868.794 360.899" fill="white"/>
<path d="M828.966 253.324C816.226 253.069 805.544 258.665 795.763 266.417C786.639 273.649 774.879 282.547 771.381 294.19C768.441 303.99 772.704 315.75 783.445 318.082C789.207 319.337 795.205 317.7 800.742 316.318C808.944 314.27 817.127 312.163 825.32 310.076L820.665 307.43C823.752 321.649 827.094 336.477 836.178 348.217C844.018 358.282 855.72 365.436 868.744 364.779C873.644 364.534 873.703 356.861 868.744 357.086C841.304 358.321 832.641 326.471 827.956 305.421C827.376 303.43 825.318 302.261 823.311 302.784C817.647 304.261 811.986 305.741 806.328 307.224C800.928 308.645 795.44 310.605 789.873 311.212C777.702 312.526 774.948 300.432 780.181 291.534C784.875 283.576 793.431 276.932 800.526 271.179C808.631 264.604 818.166 258.439 828.946 258.439C832.209 258.439 832.209 253.432 828.946 253.373L828.966 253.324Z" fill="#382C80"/>
<path d="M644.491 391.151C674.77 388.81 704.791 383.862 734.22 376.363C745.676 373.423 756.074 369.15 758.377 356.283C761.092 341.132 761.68 325.217 763.012 309.88C763.365 305.803 757.221 305.96 756.731 309.88C755.006 323.688 753.702 337.545 751.948 351.344C751.105 357.949 749.224 362.918 742.971 365.985C737.434 368.709 730.976 369.846 725.037 371.316C698.533 377.883 671.636 382.751 644.511 385.889C641.218 386.271 641.091 391.416 644.511 391.151H644.491Z" fill="#382C80"/>
<path d="M712.18 451.607C715.737 428.274 719.765 405.273 724.92 382.233C725.762 378.411 720.02 376.775 719.04 380.606C712.957 403.634 708.923 427.154 706.986 450.892C706.75 453.832 711.788 454.606 712.248 451.607H712.18Z" fill="#382C80"/>
<path d="M758.033 346.14L784.876 346.708C793.235 346.885 801.536 346.963 809.66 344.934C813.727 343.954 812.002 337.614 807.925 338.653C799.752 340.72 791.412 340.671 783.023 340.73L758.033 340.877C754.643 340.877 754.643 346.061 758.033 346.14Z" fill="#382C80"/>
<path d="M728.339 344.18C727.815 343.322 726.953 342.726 725.965 342.539C724.977 342.352 723.956 342.592 723.155 343.2C721.244 344.562 721.332 346.914 721.969 348.923C723.243 352.902 726.311 357.008 731.074 355.969C735.239 355.067 736.885 350.148 736.532 346.316C736.072 341.416 732.024 337.957 727.085 338.848C723.165 339.564 723.988 346.443 728.065 345.944C728.653 345.875 728.927 345.855 729.261 346.385C729.594 346.914 729.084 349.325 729.114 349.393C729.143 349.462 729.594 349.472 729.574 349.217C729.574 349.217 729.094 348.795 729.045 348.737C728.387 347.916 727.97 346.929 727.84 345.885L727.418 347.443L726.497 348.06H724.998L725.35 348.129C727.457 348.531 729.751 346.296 728.359 344.209L728.339 344.18Z" fill="#382C80"/>
<path d="M782.69 239.81C791.138 239.69 799.432 242.077 806.524 246.67C808.248 247.758 809.66 245.151 808.082 243.995C800.668 238.602 791.465 236.265 782.376 237.468C781.014 237.664 781.396 239.81 782.69 239.82V239.81Z" fill="#382C80"/>
<path d="M875.878 412.016C885.61 410.781 894.498 405.636 902.779 400.628C911.493 395.324 919.695 389.222 927.279 382.4C928.661 381.165 926.623 379.147 925.251 380.372C918.052 386.85 910.311 392.699 902.113 397.855C894.038 402.882 885.139 408.37 875.584 409.84C874.34 410.026 874.604 412.202 875.878 412.045V412.016Z" fill="#382C80"/>
<path d="M853.779 423.462L856.014 421.952C856.523 421.701 856.85 421.186 856.86 420.618C856.871 420.05 856.563 419.524 856.063 419.254C855.563 418.984 854.954 419.015 854.485 419.336L852.26 420.845C851.538 421.265 851.292 422.19 851.712 422.913C852.131 423.635 853.057 423.881 853.779 423.462Z" fill="#382C80"/>
<path d="M922.694 396.385L924.301 395.082C924.794 394.582 924.794 393.778 924.301 393.278C923.791 392.799 922.997 392.799 922.488 393.278L920.89 394.582C920.397 395.082 920.397 395.885 920.89 396.385C921.398 396.858 922.186 396.858 922.694 396.385Z" fill="#382C80"/>
<path d="M392.024 748.489L444.375 752.409C461.231 753.673 478.087 755.104 494.992 754.133C511.329 753.202 527.528 751.193 543.924 751.193C555.194 751.193 569.894 751.958 577.048 741.393C579.125 738.336 574.725 735.513 572.226 737.66C561.799 746.48 547.412 744.098 534.692 744.52C519.179 745.019 503.783 747.283 488.269 747.773C472.335 748.273 456.4 746.97 440.504 745.96L392.024 742.893C388.447 742.667 388.486 748.175 392.024 748.44V748.489Z" fill="#382C80"/>
<path d="M552.684 785.092C550.372 794.539 542.522 797.832 534.064 800.262C531.663 800.948 531.242 805.162 534.064 805.554C545.521 807.269 555.193 796.734 557.584 786.454C558.339 783.249 553.429 781.877 552.684 785.092Z" fill="#382C80"/>
<path d="M444.58 772.685C442.258 784.317 439.318 796.205 427.616 801.536C424.461 802.986 426.695 808.249 429.988 807.151C444.012 802.487 447.354 786.846 449.216 773.959C449.647 771.019 445.198 769.588 444.58 772.685Z" fill="#382C80"/>
<path d="M34.5001 813.433C127.424 814.197 220.377 813.874 313.31 813.923C406.243 813.972 499.187 814.031 592.12 814.109C644.295 814.109 696.47 814.433 748.646 814.109C753.212 814.109 753.212 807.043 748.646 807.024C655.712 806.514 562.769 807.092 469.836 807.151C376.902 807.21 283.959 807.269 191.026 807.396C138.85 807.465 86.6753 807.308 34.5001 807.739C30.8643 807.739 30.8545 813.364 34.5001 813.394V813.433Z" fill="#382C80"/>
<path d="M604.644 691.158C601.008 681.456 595.971 663.718 610.113 659.632C624.685 655.457 625.018 680.8 622.255 688.934L626.175 689.453C625.9 683.201 630.32 677.781 636.308 676.106C642.707 674.312 649.048 677.664 652.645 682.966C660.289 694.118 654.105 707.877 644.393 715.355C643.487 715.949 643.204 717.148 643.75 718.084C644.295 719.021 645.477 719.367 646.441 718.873C652.752 715.707 661.141 719.373 663.425 726.037C665.924 733.289 661.68 740.952 655.585 744.794C654.719 745.342 654.376 746.436 654.774 747.38C655.172 748.325 656.195 748.843 657.192 748.606C667.051 746.47 678.193 753.036 680.114 763.228C682.035 773.42 674.058 783.455 664.13 785.238C661.504 785.719 662.621 789.707 665.238 789.247C677.458 787.11 686.739 774.488 684.181 762.101C681.623 749.713 668.197 741.913 656.084 744.578L657.692 748.39C665.816 743.265 671.059 732.622 666.737 723.312C662.886 715.031 652.527 711.288 644.413 715.355L646.461 718.873C659.122 709.073 666.061 690.1 653.193 677.35C648.058 672.274 640.63 670.147 633.78 672.783C626.929 675.42 621.833 681.937 622.225 689.443C622.079 690.526 622.838 691.522 623.921 691.668C625.003 691.814 625.999 691.055 626.145 689.973C629.438 679.487 627.988 653.987 611.573 655.78C605.84 656.417 600.793 660.945 598.686 666.208C595.354 674.675 598.95 683.946 602.018 691.893C602.655 693.55 605.35 692.873 604.713 691.149L604.644 691.158Z" fill="#382C80"/>
<path d="M603.076 767.079C604.899 763.6 610.289 759.955 613.993 763.159C616.277 765.119 616.306 770.186 613.102 771.234C610.995 771.94 611.847 775.154 614.082 774.596C619.873 773.018 620.795 765.06 616.914 761.042C611.779 755.731 603.194 759.847 600.371 765.501C599.46 767.324 602.165 768.941 603.125 767.109L603.076 767.079Z" fill="#382C80"/>
<path d="M105.638 725.233C103.422 717.389 99.5789 710.1 94.3583 703.84C90.4383 699.224 83.4019 691.512 76.4929 694.148C59.8917 700.488 89.5073 725.998 93.9663 730.408L95.9263 727.066C89.2721 724.626 80.6873 726.331 77.3063 733.162C74.4801 738.956 76.696 745.948 82.3435 749.057L82.8433 745.255C75.0033 746.352 62.5769 750.615 65.4973 760.994C69.0449 773.577 84.7739 769.676 93.0745 765.629C95.0345 764.649 93.6429 761.258 91.5751 762.062C85.6951 764.355 70.7795 769.814 69.4859 758.916C68.6431 751.86 78.8645 749.998 83.9409 749.263C85.7245 749.008 85.9009 746.235 84.4407 745.47C82.4344 744.409 80.979 742.539 80.4432 740.334C79.9073 738.129 80.3422 735.799 81.6379 733.936C84.6661 729.712 90.2815 729.291 94.8385 730.917C96.7985 731.613 98.1509 728.957 96.7985 727.585C91.9508 722.862 87.2141 718.014 82.5885 713.042C80.5316 711.054 78.7368 708.811 77.2475 706.368C75.1209 702.448 74.2487 695.765 81.7065 697.784C87.0475 699.224 92.0455 705.624 95.1325 709.965C98.6024 714.832 101.22 720.254 102.875 725.998C103.086 726.761 103.875 727.209 104.639 726.997C105.402 726.786 105.849 725.997 105.638 725.233Z" fill="#382C80"/>
<path d="M613.121 345.601C625.019 334.396 637.347 323.691 650.107 313.486C651.596 312.3 649.489 310.213 648.019 311.399C635.286 321.643 622.99 332.384 611.132 343.621C609.819 344.866 611.808 346.845 613.092 345.581L613.121 345.601Z" fill="#382C80"/>
<path d="M678.183 497.06C690.053 502.574 703.297 504.43 716.226 502.391C718.186 502.067 717.344 499.127 715.403 499.402C703.26 501.209 690.854 499.548 679.614 494.61C677.957 493.884 676.507 496.305 678.183 497.06Z" fill="#382C80"/>
<path d="M673.302 522.285C676.748 524.157 680.919 524.105 684.318 522.148C686.033 521.168 684.494 518.561 682.789 519.531C680.309 520.941 677.301 521.066 674.714 519.864C673.106 519.159 671.695 521.383 673.302 522.285Z" fill="#382C80"/>
</svg>
