<svg width="1000" height="1000" viewBox="0 0 1000 1000" fill="none" xmlns="http://www.w3.org/2000/svg">
<path d="M842.422 466.847L645.442 497.864C654.105 496.511 671.667 530.801 676.439 536.877C693.677 558.82 718.275 580.605 730.261 605.899C720.088 610.289 700.037 602.4 689.473 599.441C675.136 595.442 661.053 590.572 646.578 587.044L575.333 569.658C570.099 601.822 572.961 637.543 571.824 670.148C570.677 702.958 574.95 741.991 567.659 773.812C548.177 747.244 535.594 710.925 520.747 681.329L474.824 589.758C474.53 589.17 474.236 588.573 473.932 587.984C451.02 612.357 428.44 637.034 405.577 661.484C384.115 684.397 362.212 713.581 336.634 731.731C339.574 699.744 350.736 669.462 358.527 638.523C361.075 628.419 373.776 546.932 379.852 545.982L198.513 574.48L328.912 459.477C324.472 463.397 258.949 428.392 252.56 425.559C232.676 416.739 212.615 408.321 192.652 399.687C173.758 391.514 148.876 384.36 132.804 371.62C160.675 361.742 197.631 368.023 226.982 366.72L335.448 361.82L340.789 361.585C335.889 361.8 312.163 306.636 309.527 301.57C307.165 286.977 296.444 273.806 288.947 261.39C279.31 245.396 270.392 228.997 262.193 212.194C261.517 210.822 261.331 209.714 262.379 208.528C291.25 215.055 317.416 238.252 343.063 252.393C348.306 255.333 411.526 285.419 410.859 289.78L442.013 85.7149C442.67 81.4127 443.16 76.7969 444.483 72.8965C454.45 89.9583 458.85 113.488 465.249 132.373C478.969 158.49 485.32 191.712 494.796 219.749C500.157 235.586 502.94 257.47 512.74 270.954C536.26 252.942 558.075 232.519 580.654 213.311L631.3 170.191C634.319 167.623 658.868 142.604 662.357 143.829H663.013C658.76 179.256 639.042 216.78 627.625 250.551L612.7 294.817C610.564 301.158 609.897 308.018 606.359 313.8C636.445 304.49 666.874 296.336 697.499 288.8C726.253 281.715 759.043 269.553 788.561 268.387C783.19 283.92 763.434 299.012 751.419 310.007C737.709 322.512 723.44 334.38 710.298 347.394C705.761 351.893 662.435 401.863 657.28 400.001L842.422 466.847Z" fill="#382C80"/>
<path d="M841.922 465.024L775.282 475.52L669.442 492.18L644.903 496.08C642.815 496.404 643.286 500 645.413 499.785C648.558 499.52 651.43 503.313 653.253 505.42C656.317 509.074 659.124 512.938 661.651 516.984C666.081 523.785 669.815 531.174 674.646 537.711C692.09 561.309 715.581 580.037 728.546 606.889L729.673 604.115C720.108 607.79 708.211 603.282 698.97 600.431C686.759 596.667 674.518 592.996 662.249 589.415C633.829 581.046 604.556 574.902 575.744 567.855C574.738 567.586 573.703 568.176 573.422 569.178C568.032 603.322 570.707 638.18 569.776 672.598C568.875 706.094 573.089 740.306 565.758 773.332L569.208 772.871C550.186 746.656 539.269 715.737 525.392 686.729C509.369 653.233 492.209 620.207 475.481 587.054C475.181 586.561 474.674 586.232 474.102 586.158C473.531 586.083 472.956 586.272 472.541 586.671C448.374 612.387 424.207 638.141 400.422 664.209C379.715 686.896 360.772 712.013 335.615 730.094L338.457 731.721C341.779 697.196 355.47 665.316 361.82 631.487C365.74 610.574 369.18 589.543 373.923 568.767C375.031 563.867 376.177 559.045 377.667 554.282C378.127 552.668 378.696 551.086 379.372 549.549C379.666 548.932 380.607 547.677 380.303 547.756C382.704 547.138 381.636 543.747 379.323 544.12L318.181 553.743L220.602 569.12L198.013 572.677L199.856 575.833L243.789 537.074L313.967 475.177L330.254 460.8C331.842 459.399 329.715 456.576 327.961 457.86C327.099 458.487 322.855 456.792 321.493 456.322C316.691 454.656 312.026 452.588 307.391 450.442C296.366 445.463 285.537 440.063 274.737 434.605C247.787 420.993 220.083 409.262 192.28 397.453C172.68 389.152 151.179 383.439 134.137 370.238L133.304 373.404C163.596 363.016 196.68 369.866 227.942 368.504C265.561 366.877 303.177 365.198 340.789 363.467C341.834 363.467 342.681 362.62 342.681 361.575C342.681 360.531 341.834 359.684 340.789 359.684C341.436 359.733 340.368 359.057 339.917 358.478C339.118 357.418 338.375 356.315 337.693 355.176C335.605 351.814 333.773 348.316 331.95 344.768C327.52 336.252 323.502 327.52 319.484 318.798C316.848 313.046 313.604 307.254 311.478 301.295C309.282 295.151 307.969 289.222 304.814 283.342C301.188 276.58 296.778 270.288 292.681 263.82C287.487 255.618 282.705 247.16 278.03 238.634C275.632 234.263 273.284 229.87 270.984 225.453C269.834 223.251 268.701 221.037 267.583 218.809C266.682 217.015 262.948 211.459 264.036 209.518L261.909 210.391C292.867 217.711 316.074 240.633 343.69 254.873C359.419 262.977 375.432 270.484 390.995 278.912C395.189 281.186 399.374 283.489 403.421 286.017C404.873 286.876 406.273 287.818 407.616 288.84C408.135 289.261 408.988 290.555 409.007 289.82C409.007 291.887 412.388 292.466 412.712 290.319L429.45 180.559L437.672 126.659L441.778 99.6995C443.101 91.0363 443.738 81.7949 446.306 73.3963L442.856 73.8471C449.716 85.9011 453.558 99.3271 457.341 112.596C459.193 119.104 460.79 125.826 463.221 132.196C465.72 138.802 469.258 145.044 471.776 151.679C476.931 165.242 480.831 179.227 484.8 193.172C488.495 206.157 492.983 218.936 496.404 231.99C499.99 245.622 502.901 260.194 511.104 271.944C511.654 272.814 512.785 273.11 513.691 272.621C539.171 253.021 562.691 231.069 587.191 210.244C606.399 193.907 625.852 177.904 644.158 160.558C647.843 157.079 651.557 153.6 655.458 150.356C657.692 148.484 660.681 145.691 663.004 145.818L661.122 143.927C657.398 172.915 645.06 200.032 634.407 226.972C628.978 240.692 624.274 254.579 619.57 268.534L612.093 290.662C609.623 297.993 608.525 306.107 604.694 312.889C604.373 313.556 604.456 314.347 604.908 314.933C605.359 315.52 606.103 315.802 606.83 315.662C638.004 306.039 669.55 297.944 701.145 289.849C729.967 282.47 758.505 271.699 788.492 270.318L786.67 267.926C781.094 283.028 766.668 293.994 754.977 304.284C740.59 316.946 726.047 329.559 712.258 342.857C699.283 355.391 687.896 369.572 675.312 382.498C671.667 386.232 667.992 389.946 664.091 393.406C662.955 394.386 658.682 398.443 657.77 398.217C656.792 398.021 655.83 398.617 655.571 399.581C655.312 400.544 655.846 401.543 656.79 401.863L719.51 424.501L818.961 460.408L841.922 468.64C844.215 469.463 845.195 465.818 842.902 464.995L780.182 442.357L680.761 406.479L657.78 398.178L656.8 401.824C661.7 403.019 668.56 394.503 671.451 391.7C679.654 383.762 687.396 375.354 695.089 366.926C700.489 361.046 705.702 354.901 711.259 349.149C724.773 335.115 740.1 322.62 754.604 309.625C767.746 297.865 784.004 286.047 790.325 268.897C790.477 268.328 790.357 267.722 790 267.254C789.644 266.786 789.091 266.51 788.502 266.505C758.71 267.877 730.369 278.314 701.763 285.753C669.658 294.102 637.553 302.187 605.84 311.977L607.967 314.751C611.387 308.685 612.406 301.874 614.503 295.317C617.071 287.281 619.903 279.324 622.598 271.337C627.498 256.774 632.398 242.231 638.053 227.933C648.833 200.62 661.132 173.278 664.905 143.888C665.042 142.839 663.925 142.045 663.013 141.996C657.594 141.712 652.047 148.19 648.392 151.473C642.433 156.814 636.847 162.537 630.967 167.957C619.639 178.403 607.447 188.047 595.687 198.033C582.683 209.097 569.717 220.191 556.889 231.451C542.14 244.416 527.371 257.352 511.76 269.318L514.338 269.994C506.86 259.342 503.949 246.278 500.745 233.862C497.335 220.632 492.836 207.715 489.083 194.583C485.094 180.638 481.243 166.614 476.245 152.992C473.903 146.622 471.237 140.419 468.317 134.294C465.396 128.169 463.721 121.289 461.839 114.694C457.674 100.101 453.656 85.2151 446.081 71.9459C445.662 71.3458 444.944 71.0287 444.219 71.1235C443.493 71.2183 442.881 71.7092 442.631 72.3967C440.22 80.4915 439.564 89.3801 438.26 97.7297L434.027 125.64L425.804 179.54L409.066 289.3L412.78 289.81C412.849 285.615 403.715 281.735 400.922 280.118C391.769 274.816 382.302 269.994 372.884 265.212C364.623 261.027 356.303 256.941 348.012 252.805C336.82 247.229 326.452 240.065 316.074 233.205C299.531 222.317 282.421 211.341 262.909 206.745C262.083 206.541 261.22 206.894 260.772 207.617C259.43 209.999 259.89 211.537 260.998 214.026C263.183 218.828 265.712 223.513 268.152 228.187C272.607 236.753 277.262 245.203 282.117 253.54C290.937 268.72 303.285 283.195 307.42 300.58C308.92 306.891 312.742 313.124 315.437 319.014C319.827 328.608 324.257 338.202 329.157 347.581C331.123 351.601 333.343 355.493 335.801 359.233C337.007 360.977 338.486 363.369 340.829 363.545V359.762C302.609 361.467 264.457 363.408 226.267 364.878C195.171 366.073 162.478 359.498 132.343 369.827C131.158 370.229 130.295 372.042 131.51 372.982C146.779 384.821 165.497 390.887 183.264 397.884C205.412 406.616 227.237 416.436 249.012 426.059C268.612 434.722 287.232 445.591 306.832 454.352C311.661 456.604 316.603 458.603 321.64 460.34C323.796 461.045 327.706 462.652 329.853 461.104L327.559 458.164L283.616 496.933L213.468 558.8L197.18 573.167C195.622 574.539 197.347 576.587 199.023 576.323L260.155 566.689L357.743 551.323L380.332 547.765L379.352 544.13C374.815 545.306 373.374 555.537 372.443 559.075C369.503 570.237 367.318 581.615 365.152 592.924C363.035 603.939 361.075 614.984 359.057 626.009C356.94 637.612 353.892 648.872 350.658 660.22C343.974 683.74 337.095 707.26 334.743 731.702C334.748 732.376 335.111 732.997 335.695 733.334C336.28 733.67 336.999 733.672 337.585 733.338C362.594 715.365 381.557 690.669 402.079 668.041C426.138 641.512 450.745 615.424 475.265 589.317L472.325 588.935C489.054 622.089 506.213 655.124 522.236 688.621C536.123 717.629 547.03 748.538 566.052 774.763C566.934 775.978 569.12 776.037 569.502 774.312C576.675 742.021 573.02 708.652 573.588 675.851C574.196 640.807 571.687 604.899 577.175 570.158L574.853 571.481C604.87 578.802 635.318 585.201 664.914 594.08C677.057 597.726 689.179 601.42 701.331 605.027C710.318 607.692 721.559 611.26 730.78 607.722C731.331 607.543 731.775 607.13 731.993 606.593C732.21 606.056 732.179 605.45 731.907 604.939C725.224 591.13 715.6 579.067 705.585 567.532C696.03 556.546 684.956 546.158 676.782 534.065C671.461 526.225 666.982 517.758 661.563 509.977C658.29 505.322 652.321 495.384 645.461 495.972L645.961 499.677L712.601 489.22L818.441 472.56L842.941 468.699C845.323 468.287 844.304 464.652 841.922 465.024Z" fill="#382C80"/>
<path d="M729.154 428.734C736.229 414.946 751.625 406.283 761.17 393.631C765.992 387.241 770.686 380.166 777.997 376.912C797.146 368.406 802.33 392.847 799.39 405.94C804.594 398.766 815.844 396.953 823.038 402.137C830.231 407.321 832.063 418.572 826.889 425.765C836.914 418.601 852.369 424.266 858.151 435.173C863.933 446.08 861.493 459.83 855.211 470.453C863.257 471.815 869.401 479.185 871.009 487.172C877.261 518.061 844.647 538.377 818.255 541.072C798.547 543.091 778.526 537.514 761.307 527.705C732.339 511.192 710.632 482.242 703.419 449.677C696.405 418.53 708.138 386.146 733.475 366.72C744.001 358.576 755.829 351.726 768.844 348.962C776.584 347.389 784.563 347.409 792.295 349.021C798.175 350.148 803.075 351.706 807.142 346.199C810.778 341.299 808.877 334.439 812.375 329.451C816.001 324.296 823.322 322.179 829.28 323.825C852.565 330.244 860.513 373.413 874.36 390.955C890.04 410.742 905.897 428.431 926.731 442.533C937.257 449.657 943.166 462.397 943.96 475.088C944.754 487.779 940.922 500.412 935.14 511.76C922.847 535.773 902.369 554.596 877.408 564.827" fill="white"/>
<path d="M731.819 430.282C736.964 420.806 745.441 414.103 753.212 406.87C757.127 403.317 760.733 399.439 763.992 395.277C767.383 390.867 770.568 386.114 775.007 382.654C781.446 377.637 789.708 376.657 793.784 384.614C796.881 390.641 797.371 398.413 795.979 404.959C795.323 408.066 799.507 411.398 801.859 408.409C806.289 402.852 814.648 400.628 820.754 404.998C826.859 409.369 827.565 417.934 823.694 423.863C821.734 426.921 825.654 430.929 828.76 428.92C837.149 423.413 848.605 427.333 853.917 435.388C860.542 445.453 857.416 458.712 851.771 468.395C851.172 469.457 851.091 470.736 851.551 471.866C852.011 472.996 852.962 473.854 854.133 474.196C866.569 476.94 869.382 491.523 866.559 502.254C863.893 512.377 856.269 520.462 847.665 526.019C826.359 539.739 800.115 539.474 777.046 530.311C730.878 511.995 692.952 456.262 710.288 406.184C718.775 381.684 741.129 361.359 766.05 354.391C773.896 352.223 782.13 351.855 790.139 353.313C795.215 354.195 800.576 355.842 805.505 353.49C810.934 350.893 813.345 345.424 814.247 339.77C814.707 336.83 814.854 333.488 817.01 331.175C819.215 329.001 822.216 327.828 825.311 327.931C833.886 328.078 840.432 336.585 844.558 343.141C849.968 351.726 853.888 361.163 858.004 370.414C861.6 378.499 865.197 386.721 870.646 393.768C879.091 404.844 888.292 415.322 898.184 425.128C903.333 430.18 908.761 434.94 914.442 439.387C919.597 443.405 925.565 446.707 929.906 451.627C938.863 461.78 940.814 476.333 938.187 489.229C932.876 515.219 913.932 538.171 891.882 552.136C886.56 555.5 880.968 558.418 875.163 560.858C870.479 562.818 873.88 571.099 878.672 569.158C905.132 558.457 927.584 538.435 940.118 512.583C946.919 498.549 950.898 482.752 947.732 467.199C946.401 460.52 943.665 454.2 939.706 448.657C935.286 442.581 929.553 438.857 923.595 434.418C910.963 425.098 899.83 413.838 889.599 401.96C881.455 392.513 874.37 383.34 869.097 372.041C860.865 354.401 853.496 328.627 833.817 320.385C821.538 315.25 807.769 321.679 805.505 335.085C804.986 338.172 804.995 343.082 801.83 344.885C799.459 346.228 796.038 344.885 793.569 344.464C785.314 342.815 776.822 342.742 768.539 344.248C740.355 349.736 714.463 372.257 703.507 398.472C680.967 452.46 719.667 514.905 769.686 536.906C795.225 548.137 824.84 549.695 849.478 535.329C859.346 529.566 868.156 521.334 872.714 510.701C877.271 500.068 877.613 486.152 870.753 476.401C867.364 471.394 862.177 467.885 856.269 466.601L858.631 472.403C865.824 459.663 868.745 442.023 859.062 429.675C851.222 419.64 836.12 415.239 825.066 422.56L830.123 427.627C836.003 418.679 834.102 405.655 825.281 399.265C816.461 392.876 803.525 395.032 796.93 403.43L802.81 406.87C805.75 392.347 799.968 366.788 779.986 372.57C767.246 376.275 761.591 389.23 753.007 398.05C743.843 407.497 732.809 415.288 726.546 427.127C724.684 430.625 729.976 433.732 731.878 430.233L731.819 430.282Z" fill="#382C80"/>
<path d="M454.41 347.786C453.618 321.264 454.929 294.721 458.33 268.406C472.257 293.63 484.257 319.871 494.228 346.904C515.67 321.708 537.622 296.072 565.905 278.912L550.068 346.277C584.732 339.991 619.843 336.481 655.065 335.781L575.46 424.118C573.137 426.686 570.658 430.087 571.961 433.291C573.157 436.231 576.773 437.103 579.87 437.642C606.419 442.257 632.55 449.019 658.005 457.86C637.024 477.274 608.3 485.466 580.732 493.032C598.137 506.75 613.32 523.073 625.744 541.424C619.433 546.128 610.534 543.384 603.263 540.444C580.255 530.94 557.742 520.281 535.809 508.506C526.746 531.943 521.077 556.555 518.973 581.595L476.411 512.995C471.139 523.451 461.966 531.301 453.029 538.857L418.523 568.051C420.84 546.72 424.281 525.525 428.832 504.557L372.874 505.674C369.092 505.743 364.054 504.821 363.692 501.058C363.447 498.755 365.24 496.805 366.887 495.178C382.454 479.812 396.461 462.943 408.703 444.816C409.339 444.008 409.776 443.061 409.977 442.052C410.389 438.564 405.724 437.074 402.225 436.751C377.5 434.471 353.528 427.026 331.861 414.897C361.061 408.32 389.297 398.024 415.877 384.262L381.724 349.54C374.188 341.877 366.446 333.909 362.653 323.855C392.484 332.348 422.289 340.936 452.068 349.619" fill="white"/>
<path d="M456.008 347.786C455.405 321.259 456.798 294.724 460.173 268.406L456.802 269.327C470.616 294.416 482.461 320.539 492.229 347.463C492.719 348.835 494.63 349.687 495.747 348.443C517.219 323.609 538.671 298.071 566.856 280.538L564.171 278.471C559.016 300.952 553.459 323.345 548.069 345.767C547.889 346.494 548.103 347.262 548.632 347.791C549.162 348.321 549.93 348.534 550.656 348.354C585.156 342.261 620.07 338.808 655.095 338.025L653.547 334.282C639.624 349.72 625.705 365.168 611.789 380.626C604.831 388.342 597.879 396.054 590.934 403.764C584.741 410.624 577.704 417.337 572.207 424.814C568.786 429.479 568.483 435.29 574.167 438.162C577.391 439.788 581.389 439.994 584.888 440.641C589.807 441.556 594.707 442.536 599.588 443.581C619.168 447.875 638.476 453.33 657.408 459.918L656.428 456.331C635.221 475.568 607.095 483.545 580.115 490.984C578.714 491.376 577.891 493.502 579.184 494.521C596.418 508.154 611.459 524.349 623.784 542.541L624.578 539.533C618.08 543.766 610.348 540.934 603.782 538.288C595.883 535.093 588.102 531.644 580.321 528.126C565.595 521.429 551.094 514.265 536.819 506.634C536.248 506.315 535.563 506.273 534.957 506.519C534.351 506.765 533.89 507.272 533.702 507.898C524.709 531.555 519.03 556.342 516.827 581.555L520.747 580.507C506.563 557.64 492.376 534.773 478.185 511.907C477.807 511.27 477.122 510.88 476.382 510.88C475.642 510.88 474.957 511.27 474.579 511.907C468.699 523.118 458.899 531.124 449.373 539.17C438.593 548.317 427.813 557.431 417.033 566.512L420.65 568.012C423.039 546.882 426.493 525.887 430.998 505.105C431.169 504.434 431.023 503.721 430.604 503.169C430.184 502.618 429.535 502.288 428.842 502.273L378.676 503.253C375.736 503.312 371.503 504.125 368.729 502.94C363.182 500.578 371.307 493.953 373.482 491.709C378.833 486.195 383.984 480.501 388.937 474.627C393.432 469.29 397.763 463.811 401.932 458.193C404.225 455.116 406.462 451.996 408.645 448.834C410.134 446.668 412.29 444.267 412.202 441.474C412.045 437.093 407.429 435.29 403.735 434.673C396.326 433.438 388.878 432.889 381.518 431.292C364.531 427.579 348.175 421.409 332.969 412.976L332.42 416.994C361.784 410.284 390.199 399.951 417.014 386.231C417.622 385.867 418.03 385.244 418.12 384.54C418.21 383.836 417.972 383.131 417.474 382.625C407.674 372.662 397.874 362.708 388.074 352.764C379.313 343.866 369.454 335.075 364.721 323.257L362.016 325.971C391.867 334.389 421.639 343.102 451.402 351.824C454.244 352.657 455.459 348.217 452.617 347.394C422.815 338.819 392.974 330.352 363.182 321.718C361.693 321.287 359.841 322.835 360.478 324.433C365.025 335.918 373.57 344.572 382.087 353.235C392.788 364.113 403.49 374.991 414.191 385.869L414.662 382.262C388.277 395.934 360.259 406.188 331.283 412.78C330.451 413.028 329.842 413.742 329.728 414.603C329.613 415.464 330.015 416.311 330.754 416.768C350.633 427.934 372.465 435.196 395.072 438.162C398.345 438.593 402.186 438.446 405.293 439.632C408.4 440.817 407.077 442.885 405.773 445.149C404.617 447.158 403.068 449.069 401.716 450.951C392.367 464.012 382.066 476.364 370.895 487.906C367.592 491.317 360.566 496.031 361.507 501.626C362.261 506.154 367.151 507.585 371.111 507.849C380.254 508.486 389.731 507.555 398.923 507.369L428.833 506.762L426.677 503.929C422.147 525.101 418.719 546.494 416.406 568.021C416.191 569.981 418.778 570.569 420.022 569.511C431.266 559.966 442.52 550.43 453.783 540.905C463.103 533.065 472.403 524.98 478.215 514.023H474.608C488.792 536.89 502.979 559.757 517.17 582.623C517.652 583.438 518.618 583.831 519.532 583.584C520.446 583.337 521.083 582.512 521.09 581.565C523.248 556.723 528.9 532.309 537.877 509.045L534.761 510.319C551.205 519.159 567.96 527.374 585.025 534.966C592.649 538.347 600.411 542.189 608.398 544.629C614.631 546.589 621.216 547.079 626.881 543.345C627.916 542.721 628.264 541.386 627.665 540.336C615.038 521.912 599.735 505.474 582.261 491.562L581.34 495.1C609.123 487.495 637.788 479.253 659.554 459.398C660.077 458.848 660.274 458.065 660.074 457.333C659.873 456.601 659.304 456.028 658.574 455.821C642 450.105 625.141 445.251 608.065 441.278C599.529 439.318 590.934 437.564 582.31 435.976C578.136 435.212 572.011 434.839 574.97 428.234C576.675 424.422 581.389 420.767 584.182 417.68C608.355 390.893 632.509 364.106 656.643 337.32C657.242 336.685 657.413 335.757 657.078 334.951C656.744 334.145 655.967 333.61 655.095 333.586C619.681 334.299 584.382 337.861 549.539 344.238L552.126 346.826C557.291 324.344 562.299 301.814 567.699 279.392C567.879 278.678 567.618 277.925 567.036 277.474C566.454 277.023 565.659 276.961 565.013 277.314C536.378 294.68 514.053 319.983 492.768 345.405L496.286 346.336C486.029 319.233 473.88 292.884 459.928 267.485C458.948 265.75 456.763 266.76 456.547 268.396C453.209 294.716 451.957 321.259 452.803 347.776C452.872 349.824 456.057 349.834 456.008 347.776V347.786Z" fill="#382C80"/>
<path d="M646.598 841.344C635.71 799.557 641.032 770.911 642.502 764.502C644.403 748.224 653.517 732.77 670.344 717.276C684.338 704.399 702.272 692.492 721.304 679.889C750.018 660.828 779.702 641.12 800.468 615.473C823.38 587.181 830.897 557.105 824.135 520.815C816.168 478.068 798.361 447.021 771.215 428.529C731.035 401.167 682.731 410.105 682.251 410.203L676.694 382.4C679.115 381.92 736.631 370.944 786.787 404.881C820.597 427.754 842.52 465.014 851.947 515.621C860.228 560.064 850.575 598.559 822.449 633.3C798.929 662.327 766.001 684.201 736.935 703.497C703.928 725.4 672.745 746.098 670.589 768.304L670.461 769.608L670.157 770.647C669.854 771.891 664.14 796.303 674.009 834.2L646.598 841.344Z" fill="#7F72FF"/>
<path d="M668.452 379.117C682.711 380.401 684.397 393.474 681.839 401.549C681.261 403.392 676.263 411.428 674.332 411.418" fill="#382C80"/>
<path d="M667.678 381.93C674.479 383.36 678.997 387.643 678.948 394.817C678.97 397.041 678.491 399.241 677.546 401.255C676.908 402.445 676.191 403.591 675.4 404.685C674.998 405.283 673.225 407.802 673.323 407.772C668.599 409.203 670.608 415.896 675.283 415.063C679.261 414.358 682.211 409.301 684.005 406.116C685.991 402.529 686.91 398.448 686.651 394.356C686.141 383.733 679.046 376.559 668.403 376.226C665.179 376.128 664.385 381.253 667.629 381.939L667.678 381.93Z" fill="#382C80"/>
<path d="M562.209 353.334L614.331 347.653C645.538 344.252 673.593 366.793 676.995 398C680.396 429.207 657.855 457.263 626.648 460.664L574.526 466.345L562.209 353.334Z" fill="#7F72FF"/>
<path d="M267.564 546.06C258.058 533.82 241.329 528.166 229.598 517.493C223.718 512.103 217.76 506.018 209.998 504.175C189.605 499.354 189.036 524.334 194.318 536.652C187.88 530.567 176.492 530.861 170.377 537.289C164.262 543.718 164.556 555.106 170.965 561.231C159.783 556.037 145.622 564.475 141.986 576.254C138.351 588.034 143.26 601.107 151.424 610.348C143.77 613.171 139.095 621.55 138.988 629.703C138.556 661.21 174.366 675.146 200.806 672.921C220.553 671.265 239.193 662.083 254.294 649.254C279.706 627.694 295.69 595.198 296.748 561.868C297.879 529.949 280.345 500.286 251.835 485.888C239.996 479.832 227.099 475.295 213.801 474.981C205.899 474.88 198.06 476.391 190.761 479.42C185.195 481.616 180.696 484.056 175.649 479.42C171.171 475.275 171.729 468.17 167.408 463.927C162.89 459.526 155.305 458.811 149.768 461.526C128.07 472.139 128.208 516.033 117.859 535.839C109.754 551.278 100.817 566.264 91.0852 580.733C87.4984 586.074 83.794 594.237 79.1292 598.608C74.1018 603.312 66.8498 604.38 61.548 609.025C51.748 617.581 49.788 632.702 54.1392 644.952C58.4904 657.202 67.918 666.943 78.1688 674.921C106.485 696.799 141.67 707.876 177.413 706.163" fill="white"/>
<path d="M269.749 543.884C261.37 533.447 249.003 527.822 238.272 520.266C228.001 513.024 220.083 501.244 206.52 500.264C186.743 498.833 185.508 524.333 190.928 537.602L196.808 534.182C188.693 527.077 175.571 526.695 167.819 534.741C160.068 542.786 160.852 556.007 168.358 563.837L171.945 557.682C159.715 552.528 145.534 560.054 139.919 571.402C132.931 585.524 139.252 601.861 148.739 613.092L150.444 606.633C137.41 611.955 133.304 625.675 135.744 638.699C137.871 649.9 145.103 659.142 154.286 665.571C175.738 680.614 204.814 680.32 228.266 670.52C282.852 647.715 320.239 574.587 291.633 519.11C277.805 492.297 248.836 473.755 218.985 470.668C210.682 469.826 202.294 470.676 194.328 473.167C190.761 474.284 187.282 476.274 183.627 477.038C179.021 478.018 177.296 474.098 176.002 470.384C173.709 463.779 170.465 458.565 163.517 456.223C157.38 454.238 150.678 455.097 145.24 458.565C135.862 464.445 130.952 475.117 127.6 485.251C123.768 496.677 121.72 508.594 118.516 520.207C114.537 534.652 106.315 547.49 98.5628 560.191C93.996 567.678 88.8804 574.891 84.4312 582.388C80.276 589.444 76.9832 595.383 69.3588 599.048C62.7242 602.214 57.0402 605.428 52.9144 611.72C49.2709 617.53 47.307 624.236 47.2402 631.094C46.7992 646.47 55.2174 660.181 65.919 670.578C89.0764 693.118 121.152 706.437 152.972 710.033C161.108 710.921 169.303 711.127 177.472 710.651C183.274 710.337 183.352 701.341 177.472 701.566C147.609 702.73 118.081 694.917 92.7024 679.134C80.6876 671.607 68.4376 662.18 61.509 649.528C55.5016 638.562 54.208 622.656 63.9688 613.268C68.6336 608.789 75.3662 607.466 80.4916 603.605C85.617 599.744 88.802 593.923 91.9772 588.464C100.082 574.529 109.343 561.348 117.144 547.206C122.571 537.592 126.659 527.282 129.296 516.562C131.883 505.987 133.97 495.227 137.733 484.986C140.673 477.058 145.995 465.729 155.599 464.651C163.86 463.72 165.654 469.865 168.221 476.097C170.475 481.576 175.003 486.329 181.245 486.632C187.723 486.936 193.985 482.82 200.101 481.233C207.579 479.358 215.371 479.108 222.954 480.498C237.57 483.131 251.324 489.287 263.026 498.432C283.724 514.866 293.926 540.346 292.034 566.473C290.016 594.432 276.962 621.441 256.892 640.953C238.036 659.24 211.38 672.205 184.617 667.962C164.84 664.816 141.996 652.007 143.123 629.066C143.242 622.375 147.245 616.366 153.374 613.68C155.834 612.631 155.589 609.27 154.148 607.613C146.828 599.156 141.408 586.289 146.308 575.273C150.277 566.395 160.685 560.867 169.946 564.729C173.533 566.228 175.826 560.995 173.533 558.574C168.741 553.615 168.055 545.031 172.896 539.797C177.737 534.564 186.547 534.574 191.79 539.092C194.142 541.12 199.16 539.229 197.67 535.672C192.907 524.245 193.466 501.029 211.89 508.232C217.437 510.397 221.808 514.817 226.149 518.747C230.079 522.272 234.294 525.464 238.752 528.292C248.111 534.309 258.195 539.425 265.349 548.196C267.858 551.283 272.16 546.902 269.71 543.835L269.749 543.884Z" fill="#382C80"/>
<path d="M560.553 342.494C575.118 340.907 589.717 345.17 601.139 354.347C612.56 363.523 619.869 376.861 621.456 391.426L624.245 417.019C627.551 447.349 605.643 474.616 575.313 477.922L560.554 342.504L560.553 342.494Z" fill="#7F72FF"/>
<ellipse cx="568.173" cy="410.181" rx="28.7924" ry="68.1198" transform="rotate(-6.22 568.173 410.181)" fill="#7F72FF"/>
<path d="M547.659 388.402C547.309 385.19 549.629 382.302 552.842 381.952L569.131 380.177C572.343 379.827 575.231 382.147 575.581 385.359C575.931 388.571 573.611 391.459 570.398 391.809L554.109 393.584C550.897 393.934 548.009 391.614 547.659 388.402Z" fill="#382C80"/>
<path d="M570.384 389.955L560.378 391.043C558.642 391.328 556.891 391.521 555.135 391.621C554.792 391.621 554.439 391.749 554.096 391.729C549.794 391.465 547.51 386.829 551.783 384.428C554.723 382.801 559.535 383.144 562.838 382.782C564.574 382.499 566.324 382.31 568.081 382.213C568.414 382.213 568.776 382.076 569.119 382.096C574.676 382.439 575.156 388.828 569.884 390.024C567.512 390.563 568.512 394.209 570.864 393.67C574.867 392.93 577.613 389.216 577.148 385.173C576.683 381.129 573.166 378.135 569.1 378.323C563.545 378.462 558.012 379.066 552.557 380.126C543.414 381.851 543.786 395.189 553.4 395.502C558.947 395.688 564.847 394.336 570.364 393.738C572.775 393.474 572.804 389.691 570.384 389.955Z" fill="#382C80"/>
<path d="M551.818 426.565C551.468 423.353 553.789 420.465 557.001 420.115L573.29 418.34C576.502 417.99 579.39 420.31 579.74 423.522C580.09 426.734 577.77 429.622 574.558 429.972L558.269 431.747C555.056 432.098 552.169 429.777 551.818 426.565Z" fill="#382C80"/>
<path d="M574.539 428.117L564.533 429.204C562.797 429.489 561.047 429.682 559.29 429.783C558.947 429.783 558.594 429.91 558.251 429.89C553.949 429.636 551.666 424.99 555.938 422.589C558.878 420.963 563.69 421.306 566.993 420.943C568.729 420.661 570.479 420.471 572.236 420.375C572.579 420.375 572.932 420.237 573.275 420.257C578.831 420.6 579.311 426.99 574.039 428.185C571.667 428.724 572.667 432.37 575.019 431.831C579.022 431.091 581.768 427.378 581.303 423.334C580.838 419.29 577.321 416.296 573.255 416.484C567.701 416.629 562.168 417.232 556.713 418.287C547.569 420.022 547.951 433.35 557.555 433.663C563.102 433.85 569.002 432.497 574.519 431.899C576.93 431.635 576.959 427.852 574.539 428.117Z" fill="#382C80"/>
<path fill-rule="evenodd" clip-rule="evenodd" d="M170.034 927.103L198.366 926.917C198.062 880.485 227.942 826.722 255.578 788.865C269.752 797.802 285.551 803.85 302.07 806.661C320.533 809.66 338.545 807.769 354.166 801.173C372.679 793.373 388.28 777.212 395.914 757.946C402.627 740.972 402.608 723.224 395.846 707.966C391.005 697.009 383.547 689.355 374.286 685.847C368.004 683.475 361.889 683.377 357.224 683.554C325.237 684.779 293.338 702.311 262.438 735.631C258.881 739.463 254.883 744.03 250.59 749.204C241.386 740.374 233.595 730.181 227.492 718.981C207.666 682.554 208.47 640.385 212.635 611.416C216.555 583.839 224.483 560.142 236.155 540.974C246.954 523.255 258.646 505.076 271.925 490.837C285.204 476.597 307.714 459.771 323.296 456.537L317.534 428.793C291.662 434.193 263.683 458.134 251.237 471.433C236.321 487.377 223.542 507.173 211.959 526.185C198.239 548.637 189.036 575.979 184.519 607.339C177.668 654.967 183.911 698.244 202.531 732.475C210.508 747.1 220.819 760.324 233.058 771.626C223.922 784.122 215.418 797.068 207.578 810.415C182.441 853.447 169.809 892.705 170.034 927.103ZM329.931 778.741C312.291 781.613 291.711 777.232 273.091 766.305C276.678 762.032 280.059 758.191 283.205 754.849C308.812 727.223 334.076 712.738 358.302 711.817C359.282 711.778 362.516 711.65 364.182 712.287C366.093 713.013 368.288 715.737 369.915 719.392C373.57 727.644 373.463 737.65 369.543 747.45C364.692 759.788 354.774 770.107 343.132 775.007C338.895 776.772 334.464 778.025 329.931 778.741Z" fill="#7F72FF"/>
<path d="M476.255 436.388L426.745 447.355L423.707 433.635L471.08 423.139C472.41 422.862 473.792 423.225 474.814 424.119L477.568 426.432C481.037 429.44 480.214 435.506 476.255 436.388Z" fill="#382C80"/>
<path d="M475.745 434.566L426.245 445.532L428.568 446.845L425.53 433.125L424.216 435.448L452.137 429.264L468.062 425.736C469.169 425.356 470.317 425.103 471.482 424.981C475.02 425.118 481.448 432.566 475.745 434.556C473.471 435.35 474.451 439.005 476.725 438.201C484.937 435.32 481.213 426.089 475.745 422.521C471.629 419.846 465.866 422.345 461.486 423.315L423.178 431.802C422.199 432.113 421.626 433.126 421.864 434.125L424.893 447.845C425.2 448.832 426.22 449.411 427.225 449.168L476.754 438.26C479.126 437.682 478.126 434.036 475.745 434.566Z" fill="#382C80"/>
<path d="M460.8 399.059L411.3 410.026L408.262 396.306L455.626 385.82C456.958 385.544 458.343 385.907 459.369 386.8L462.123 389.112C465.573 392.062 464.72 398.177 460.8 399.059Z" fill="#382C80"/>
<path d="M460.29 397.237L410.82 408.194L413.143 409.517L410.114 395.797L408.791 398.119L436.721 391.936L452.646 388.408C453.751 388.027 454.895 387.773 456.057 387.653C459.604 387.79 466.023 395.228 460.33 397.228C458.046 398.021 459.026 401.677 461.31 400.863C469.522 397.992 465.808 388.76 460.33 385.183C456.214 382.508 450.451 385.007 446.071 385.977L407.772 394.464C406.79 394.771 406.212 395.785 406.449 396.787L409.487 410.507C409.806 411.473 410.81 412.034 411.8 411.8L461.3 400.834C463.662 400.354 462.662 396.708 460.29 397.237Z" fill="#382C80"/>
<path d="M417.858 484.09L366.669 495.429C336.02 502.218 305.67 482.876 298.881 452.227C292.092 421.578 311.434 391.228 342.083 384.439L393.272 373.1L417.858 484.09Z" fill="#7F72FF"/>
<path d="M433.948 422.502C425.853 385.957 406.821 359.056 391.337 362.183L381.322 364.397C357.07 369.769 341.76 393.778 347.12 418.033L357.126 463.211C359.704 474.869 366.813 485.024 376.885 491.438C386.956 497.851 399.165 499.997 410.82 497.403L420.835 495.178C436.153 491.464 442.043 459.046 433.948 422.502Z" fill="#7F72FF"/>
<path d="M287.164 442.896C289.124 443.699 290.574 445.532 291.74 447.414C293.511 450.269 294.861 453.365 295.748 456.606C296.934 460.928 297.767 466.141 301.56 468.141C302.867 468.789 304.336 469.038 305.784 468.856C310.566 468.386 314.604 464.436 316.211 459.624C317.818 454.813 317.191 449.325 315.231 444.591C312.399 437.731 305.98 431.851 299.051 432.498C296.204 432.888 293.505 434.001 291.211 435.732C289.535 436.908 287.83 438.584 287.889 440.74" fill="#7F72FF"/>
<path d="M551.94 123.68C546.001 148.507 540.013 173.333 533.977 198.16C533.477 200.199 536.642 201.1 537.113 199.032C542.94 174.166 548.788 149.314 554.655 124.474C555.076 122.71 552.361 121.955 551.94 123.719V123.68Z" fill="#382C80"/>
<path d="M574.059 185.146L576.626 181.294C577.704 179.677 575.097 178.178 574.029 179.775L571.462 183.627C570.384 185.244 572.99 186.753 574.059 185.146Z" fill="#382C80"/>
<path d="M657.78 274.776C669.236 268.896 680.026 261.164 690.943 254.314C701.861 247.464 712.964 240.515 723.93 233.538C725.812 232.332 724.077 229.334 722.166 230.529C711.161 237.389 700.204 244.426 689.238 251.393C678.272 258.361 666.747 264.8 656.477 272.581C655.918 272.956 655.748 273.701 656.087 274.282C656.427 274.862 657.16 275.079 657.761 274.776H657.78Z" fill="#382C80"/>
<path d="M745.176 202.6L749.028 201.316C750.939 200.679 750.116 197.621 748.185 198.268L744.334 199.552C742.374 200.189 743.236 203.246 745.176 202.6Z" fill="#382C80"/>
<path d="M288.163 158.372C316.181 187.253 343.905 216.418 372.11 245.122C373.805 246.837 376.441 244.201 374.765 242.466C346.796 213.546 318.347 185.077 290.191 156.334C288.898 155.011 286.869 157.04 288.163 158.372Z" fill="#382C80"/>
<path d="M328.882 153.982C329.76 153.915 330.439 153.182 330.439 152.301C330.439 151.42 329.76 150.688 328.882 150.621C328.003 150.688 327.325 151.42 327.325 152.301C327.325 153.182 328.003 153.915 328.882 153.982Z" fill="#382C80"/>
<path d="M163.046 331.44C189.405 336.084 216.123 338.379 242.887 338.3C245.229 338.3 245.229 334.654 242.887 334.664C216.399 334.982 189.932 333.014 163.781 328.784C162.027 328.49 161.273 331.175 163.046 331.469V331.44Z" fill="#382C80"/>
<path d="M241.613 290.937C246.297 294.857 250.943 298.777 255.745 302.471C257.381 303.755 259.743 301.54 258.087 300.129C253.461 296.209 248.689 292.416 243.945 288.604C242.309 287.291 239.957 289.584 241.613 290.937Z" fill="#382C80"/>
<path d="M303.098 673.735C307.487 660.56 313.29 647.9 320.405 635.975C321.532 634.094 318.602 632.388 317.465 634.26C310.13 646.395 304.293 659.373 300.08 672.911C299.492 674.822 302.432 675.606 303.02 673.735H303.098Z" fill="#382C80"/>
<path d="M468.64 656.732C469.473 677.694 470.129 698.666 471.08 719.628C471.178 721.735 474.451 721.755 474.373 719.628C473.618 698.656 472.56 677.694 471.678 656.732C471.599 654.772 468.561 654.772 468.64 656.732Z" fill="#382C80"/>
<path d="M608.584 620.334C614.722 628.414 621.685 635.834 629.36 642.472C630.977 643.854 633.339 641.492 631.712 640.12C624.105 633.61 617.18 626.344 611.044 618.433C609.956 617.041 607.486 618.923 608.574 620.334H608.584Z" fill="#382C80"/>
<path d="M619.462 403.765C623.088 420.983 619.619 437.379 613.072 453.402C611.553 457.126 617.786 459.732 619.57 456.146C627.811 439.613 628.39 420.15 624.528 402.363C623.803 399.061 618.766 400.462 619.462 403.765Z" fill="#382C80"/>
<path d="M617.894 391.025C621.863 391.025 621.863 384.86 617.894 384.86C613.925 384.86 613.915 391.025 617.894 391.025Z" fill="#382C80"/>
<path d="M679.967 414.612C700.547 414.005 721.696 413.378 741.403 420.189C757.671 425.824 771.911 436.241 783.396 448.942C795.441 462.25 804.3 478.342 811.023 494.855C818.128 512.358 823.645 531.703 821.538 550.715C817.373 588.406 791.442 621.588 763.306 645.197C733.465 670.255 696.99 686.435 668.972 713.797C654.664 727.762 643.178 744.48 637.455 763.777C631.395 783.837 631.813 805.296 638.65 825.105C640.297 829.731 647.686 827.78 646.079 823.057C639.752 804.02 639.714 783.454 645.971 764.394C651.743 746.401 663.17 731.074 676.763 718.226C705.967 690.551 743.667 674.048 773.783 647.46C801.791 622.764 825.948 588.758 830.025 550.725C832.053 531.82 826.899 512.446 820.039 494.982C813.473 478.263 805.015 462.26 793.51 448.393C781.26 433.615 765.58 421.414 747.577 414.534C726.017 406.302 702.546 407.321 679.957 408.654C676.155 408.87 676.096 414.72 679.957 414.612H679.967Z" fill="#382C80"/>
<path d="M585.338 373.492C590.238 391.132 594.962 409.918 594.452 428.372C594.07 442.709 590.238 464.759 575.029 470.953C570.178 472.913 572.167 480.88 577.243 478.969C594.433 472.501 600.763 451.95 602.224 435.261C604.184 413.191 597.471 392.611 590.091 372.159C589.033 369.219 584.476 370.375 585.338 373.472V373.492Z" fill="#382C80"/>
<path d="M729.153 428.734C736.229 414.946 751.625 406.282 761.17 393.631C765.991 387.241 770.686 380.165 777.996 376.912C797.146 368.405 802.33 392.847 799.39 405.939C804.594 398.766 815.844 396.953 823.037 402.137C830.23 407.321 832.063 418.572 826.889 425.765C836.914 418.601 852.369 424.265 858.151 435.173C863.933 446.08 861.492 459.83 855.211 470.453C863.256 471.815 869.401 479.185 871.008 487.172C877.261 518.061 844.646 538.377 818.255 541.072C798.547 543.09 778.526 537.514 761.307 527.704C732.338 511.191 710.631 482.242 703.418 449.677" fill="white"/>
<path d="M697.401 443.013C701.872 470.573 715.449 495.84 735.964 514.779C762.209 539.043 801.624 554.263 836.708 541.386C850.311 536.397 863.502 527.744 870.822 514.926C878.231 501.921 879.123 482.331 867.098 471.629C864.065 468.864 860.34 466.971 856.318 466.151L858.984 472.697C866.54 459.634 869.274 441.69 859.16 429.136C851.232 419.336 835.777 414.838 824.86 422.423L830.201 427.755C836.267 418.562 833.925 405.264 824.88 398.894C815.678 392.406 802.712 395.503 796.146 404.097L802.889 406.939C805.309 395.415 803.212 376.922 790.149 372.443C782.309 369.739 773.655 374.266 768.128 379.637C764.561 383.106 761.719 387.222 758.759 391.191C755.704 395.159 752.31 398.854 748.616 402.235C740.521 409.899 731.633 417.141 726.38 427.196C724.547 430.704 729.83 433.811 731.711 430.303C735.798 422.668 742.197 416.837 748.557 411.095C755.089 405.38 761.058 399.053 766.384 392.2C770.872 386.32 776.615 379.098 784.69 378.647C789.796 378.372 792.971 382.4 794.598 386.8C796.68 392.613 797.111 398.888 795.842 404.93C795.137 408.155 799.557 411.673 801.997 408.517C806.299 402.961 814.805 400.795 820.783 405.126C826.761 409.458 827.496 418.033 823.527 423.746C821.313 426.941 825.674 431.194 828.859 429.078C836.777 423.815 847.704 427.48 852.986 434.879C860.003 444.679 856.906 458.468 851.34 468.121C849.978 470.453 851.134 474.099 853.996 474.657C868.696 477.597 869.627 496.933 864.266 507.977C858.68 519.6 847.194 527.666 835.405 532.183C803.457 544.424 767.452 531.007 743.285 508.85C723.455 490.819 710.489 466.472 706.594 439.956" fill="#382C80"/>
<path d="M773.42 432.194L778.859 430.361C780.274 429.935 781.106 428.474 780.75 427.039C780.341 425.611 778.866 424.771 777.428 425.148L771.97 426.961C770.545 427.388 769.711 428.862 770.078 430.303C770.492 431.737 771.977 432.578 773.42 432.194Z" fill="#382C80"/>
<path d="M800.291 466.827C801.516 466.033 802.751 465.259 803.908 464.377C804.594 463.949 805.102 463.288 805.338 462.515C805.676 461.296 805.241 459.993 804.237 459.222C803.234 458.451 801.863 458.366 800.772 459.007C799.507 459.742 798.322 460.575 797.116 461.398C796.115 461.95 795.492 463.001 795.488 464.144C795.485 465.287 796.102 466.342 797.1 466.9C798.098 467.457 799.32 467.429 800.291 466.827Z" fill="#382C80"/>
<path d="M824.507 501.323C826.777 500.164 829.166 499.254 831.632 498.608C834.846 497.687 834.395 492.238 830.809 492.552C827.42 492.872 824.154 493.983 821.273 495.796C817.745 497.942 820.881 503.303 824.507 501.323Z" fill="#382C80"/>
<path d="M808.19 382.341C806.814 373.344 808.01 364.14 811.64 355.793C813.6 351.354 807.445 347.414 804.966 351.873C799.734 361.452 798.87 372.817 802.594 383.076C803.623 385.801 808.612 385.742 808.161 382.322L808.19 382.341Z" fill="#382C80"/>
<path d="M267.564 546.06C258.058 533.82 241.329 528.166 229.599 517.493C223.719 512.103 217.76 506.018 209.999 504.175C189.605 499.354 189.036 524.334 194.319 536.652C187.88 530.567 176.492 530.861 170.377 537.289C164.262 543.718 164.556 555.106 170.965 561.231C159.783 556.037 145.622 564.475 141.987 576.254C138.351 588.034 143.261 601.107 151.424 610.348C143.77 613.171 139.096 621.55 138.988 629.703C138.557 661.21 174.366 675.146 200.806 672.921C220.553 671.265 239.193 662.083 254.295 649.254C279.706 627.694 295.69 595.198 296.748 561.868" fill="white"/>
<path d="M301.413 554.223C302.116 582.14 293.446 609.487 276.785 631.898C255.48 660.592 219.543 682.858 182.705 676.674C168.417 674.283 153.844 668.217 144.279 656.957C134.715 645.696 130.089 626.459 139.928 613.729C142.383 610.454 145.678 607.905 149.464 606.349L148.052 613.278C138.203 601.841 132.206 584.711 139.83 570.511C145.798 559.388 160.155 552.126 172.278 557.565L168.015 563.798C160.351 555.879 160.175 542.375 167.907 534.398C175.639 526.421 189.065 526.96 197.101 534.202L191.006 538.239C186.498 527.361 185.126 508.839 197.101 501.979C204.324 497.873 213.644 500.715 220.073 504.978C224.218 507.722 227.775 511.25 231.421 514.602C235.158 517.932 239.175 520.936 243.426 523.579C252.805 529.606 262.869 535.074 269.886 543.992C272.336 547.099 267.72 551.136 265.221 548.03C259.792 541.287 252.422 536.73 245.112 532.261C237.674 527.859 230.675 522.756 224.208 517.022C218.71 512.034 211.733 506.037 203.716 507.095C198.65 507.761 196.268 512.318 195.494 516.944C194.518 523.039 195.255 529.285 197.621 534.986C198.905 538.024 195.21 542.297 192.231 539.651C186.978 534.986 178.217 534.427 173.14 539.798C168.064 545.168 168.936 553.714 173.895 558.623C176.668 561.358 173.16 566.336 169.642 564.856C160.881 561.152 150.826 566.816 147.004 575.009C141.927 585.956 147.464 598.931 154.775 607.349C156.539 609.387 156.079 613.229 153.364 614.268C139.487 619.844 142.133 639.042 149.444 648.891C157.127 659.23 169.857 665.042 182.274 667.305C215.937 673.421 248.845 653.585 268.514 627.331C284.662 605.946 292.9 579.626 291.828 552.851" fill="#382C80"/>
<path d="M186.831 515.337C188.737 504.316 185.742 493.011 178.629 484.379C175.846 481.018 170.122 485.428 172.563 489.073C177.816 496.572 180.834 505.407 181.265 514.553C181.422 517.552 186.243 518.62 186.831 515.308V515.337Z" fill="#382C80"/>
<path d="M388.78 412.917C392.641 426.137 393.317 440.975 391.72 454.616C390.289 466.543 387.545 483.085 378 491.415C374.932 494.1 379.097 499.667 382.419 497.148C393.356 488.799 396.639 471.825 398.325 458.928C400.461 442.572 398.384 427.225 393.611 411.565C392.631 408.478 387.858 409.781 388.77 412.898L388.78 412.917Z" fill="#382C80"/>
<path d="M378.127 396.728L381.518 401.02C382.606 402.402 385.124 402.245 386.251 401.02C387.505 399.691 387.505 397.616 386.251 396.287L382.841 391.975C381.753 390.603 379.244 390.76 378.127 391.975C376.88 393.303 376.88 395.371 378.127 396.699V396.728Z" fill="#382C80"/>
<path d="M951.241 487.083C960.296 491.19 962.913 501.783 960.943 510.839C958.787 520.795 952.917 530.047 947.223 538.377C935.885 555.037 921.077 568.688 904.299 579.703C899.928 582.575 903.858 589.503 908.425 586.769C928.954 574.418 946.102 557.172 958.336 536.573C964.295 526.617 970.292 515.111 969.254 503.136C968.421 493.591 962.658 484.947 953.387 481.938C950.447 480.958 948.282 485.76 951.222 487.083H951.241Z" fill="#382C80"/>
<path d="M217.447 548.608C220.279 550.421 223.787 551.548 226.904 552.812C230.02 554.077 232.215 548.892 229.207 547.364C226.198 545.835 222.964 544.09 219.72 543.208C216.476 542.326 214.654 546.815 217.447 548.608Z" fill="#382C80"/>
<path d="M202.923 588.269C205.02 588.7 207.107 589.151 209.224 589.484C210.86 589.885 212.525 588.939 213.017 587.328C213.457 585.69 212.501 584.002 210.871 583.536C208.783 583.026 206.686 582.634 204.589 582.232C202.928 581.819 201.235 582.78 200.737 584.418C200.292 586.083 201.265 587.798 202.923 588.269Z" fill="#382C80"/>
<path d="M183.617 639.925H187.38C188.523 639.989 189.607 639.416 190.198 638.436C190.789 637.456 190.789 636.23 190.198 635.249C189.607 634.269 188.523 633.696 187.38 633.761H183.607C181.978 633.853 180.704 635.201 180.704 636.833C180.704 638.465 181.978 639.813 183.607 639.905L183.617 639.925Z" fill="#382C80"/>
<path d="M39.802 654.369C30.59 662.033 28.9632 675.39 32.844 686.259C37.744 699.979 50.1312 708.799 61.9892 716.139C89.4292 733.21 120.515 750.527 153.992 743.089C159.548 741.854 157.177 733.436 151.64 734.582C123.014 740.462 95.9854 726.546 72.2008 712.248C61.558 705.859 49.602 699.351 42.7028 688.64C36.8914 679.624 35.8428 666.551 44.1826 658.75C47.1226 655.996 42.8204 651.89 39.802 654.369Z" fill="#382C80"/>
<path d="M248.905 527.441C248.64 520.747 254.256 514.701 257.95 509.595C261.645 504.489 265.673 499.021 269.975 494.121C278.197 484.752 287.86 476.735 299.914 472.972C304.814 471.443 302.736 463.75 297.787 465.26C283.881 469.503 272.738 478.793 263.487 489.76C258.925 495.3 254.672 501.087 250.747 507.096C246.68 513.211 241.584 519.65 242.486 527.411C242.956 531.41 249.091 531.635 248.924 527.411L248.905 527.441Z" fill="#382C80"/>
<path d="M295.974 451.304C297.463 455.761 298.308 460.407 298.483 465.103C298.649 469.023 304.735 469.023 304.627 465.103C304.462 459.856 303.45 454.67 301.628 449.746C300.354 446.238 294.768 447.698 295.974 451.304Z" fill="#382C80"/>
<path d="M209.92 678.645C210.537 686.573 214.908 694.922 217.858 702.233C220.808 709.544 223.855 716.561 227.187 723.568C232.352 734.407 239.173 746.108 251.56 749.381C255.735 750.498 257.068 744.638 253.295 743.089C242.132 738.513 236.497 726.949 231.568 716.698C228.461 710.22 225.521 703.664 222.748 697.029C220.141 690.699 218.436 683.055 214.653 677.351C213.36 675.391 209.655 675.93 209.871 678.645H209.92Z" fill="#382C80"/>
<path d="M272.748 769.138C286.105 777.585 302.726 779.918 318.278 779.477C333.272 779.065 348.384 774.655 359.703 764.502C370.267 755.036 376.01 740.532 373.109 726.439C371.737 719.785 368.298 712.474 361.349 710.308C354.254 708.084 346.257 710.063 339.437 712.268C287.261 729.624 253.804 776.36 228.883 822.812C212.35 853.633 199.14 886.777 195.024 921.694C194.573 925.546 201.217 926.477 201.835 922.616C209.861 872.528 233.136 825.115 262.154 783.906C275.472 764.983 291.103 747.793 310.585 735.044C321.757 727.733 334.282 721.324 347.335 718.158C350.991 717.286 355.656 716.433 359.291 717.835C362.927 719.236 364.593 724.166 365.416 727.762C366.89 734.65 365.967 741.835 362.8 748.127C355.94 761.847 340.858 769.206 326.246 771.304C309.948 773.636 290.378 772.156 275.815 763.963C272.434 762.062 269.533 767.08 272.787 769.138H272.748Z" fill="#382C80"/>
<path d="M768.569 708.74C792.352 702.241 813.73 688.961 830.094 670.52C831.75 668.668 829.016 665.914 827.35 667.776C811.398 685.702 790.711 698.763 767.668 705.457C766.816 705.741 766.337 706.642 766.578 707.507C766.818 708.372 767.693 708.896 768.569 708.701V708.74Z" fill="#382C80"/>
<path d="M806.182 719.687L815.56 712.661C817.305 711.347 815.56 708.349 813.816 709.721L804.467 716.757C802.712 718.07 804.467 721.069 806.211 719.697L806.182 719.687Z" fill="#382C80"/>
<path d="M288.154 839.081C303.493 842.787 319.635 841.187 333.949 834.543C336.085 833.563 334.223 830.408 332.097 831.388C318.626 837.636 303.475 839.282 288.977 836.072C287.017 835.641 286.194 838.61 288.154 839.081Z" fill="#382C80"/>
<path d="M304.98 871.989C312.316 872.157 319.427 869.453 324.796 864.453C326.227 863.13 324.149 861.14 322.689 862.346C317.725 866.487 311.445 868.719 304.98 868.637C302.824 868.637 302.824 871.959 304.98 871.989Z" fill="#382C80"/>
</svg>
