<svg width="1000" height="1000" viewBox="0 0 1000 1000" fill="none" xmlns="http://www.w3.org/2000/svg">
<path d="M456.88 175.395C498.618 171.749 556.301 174.767 590.983 200.953C604.017 210.802 613.905 224.238 622.48 238.193C650.45 283.538 672.872 397.227 749.9 366.72C754.055 365.074 758.21 362.957 762.64 363.006C771.107 363.114 777.997 372.727 775.38 380.783C774.498 383.488 772.754 385.977 772.656 388.819C772.538 392.131 774.616 395.042 776.576 397.776C800.948 433.144 809.984 481.586 782.456 518.316C757.289 551.793 709.201 560.887 668.442 551.254C593.659 533.614 539.553 483.967 509.388 414.573C492.944 376.745 483.095 336.409 474.706 295.993" fill="white"/>
<path d="M456.88 178.403C492.483 175.571 530.468 177.041 564.014 190.369C581.434 197.212 596.62 208.744 607.888 223.689C616.201 234.784 623.279 246.752 628.997 259.381C639.65 282.362 648.46 306.235 661.122 328.236C672.48 347.983 688.219 368.543 711.396 374.56C723.371 377.677 736.023 376.363 747.656 372.355C754.829 369.866 764.884 363.329 770.078 372.463C772.518 376.755 770.617 379.862 769.098 384.047C767.275 389.015 768.432 393.611 771.186 397.982C776.193 405.91 781.201 413.613 784.994 422.237C788.715 430.712 791.435 439.592 793.098 448.697C796.43 466.945 794.657 486.398 786.238 503.077C769.941 535.417 734.387 550.01 699.587 550C681.692 550 664.307 545.894 647.441 540.131C630.982 534.522 615.258 526.955 600.607 517.591C572.069 499.344 548.432 474.216 530.811 445.355C508.869 409.429 496.364 368.474 486.574 327.755C483.938 316.77 481.517 305.725 479.185 294.661C477.94 288.781 468.924 291.26 470.139 297.15C479.449 342.299 490.445 387.898 510.956 429.45C526.734 461.408 549.02 490.416 577.057 512.554C604.929 534.565 638.631 550.725 673.676 557.164C708.72 563.602 748.342 557.477 775.429 532.918C804.956 506.145 810.072 463.868 797.097 427.627C793.685 418.115 789.26 408.997 783.896 400.432C781.936 397.267 777.183 392.671 777.291 388.77C777.36 386.438 779.182 384.145 779.839 381.91C780.552 379.522 780.723 377.004 780.339 374.541C779.133 366.299 772.156 359.027 763.679 358.41C755.202 357.792 746.725 363.506 738.512 365.544C727.527 368.269 715.845 367.798 705.535 362.849C695.079 357.832 686.641 349.492 679.644 340.368C663.66 319.582 653.586 294.543 643.08 270.68C630.556 242.378 615.826 213.076 589.445 195.22C559.065 174.64 518.885 170.505 483.105 171.024C474.35 171.161 465.618 171.638 456.909 172.455C453.107 172.798 452.989 178.766 456.909 178.462L456.88 178.403Z" fill="#382C80"/>
<path d="M449.657 174.699C426.412 176.492 404.205 184.959 383.017 194.632C370.356 200.404 357.841 206.666 346.493 214.712C330.323 226.168 316.848 240.986 304.245 256.264C281.46 283.851 262.144 313.8 237.87 339.868C217.094 362.173 190.104 374.119 160.822 360.154C156.794 358.194 152.786 355.832 148.327 355.587C139.87 355.117 132.353 364.241 134.421 372.453C135.117 375.217 136.694 377.814 136.596 380.656C136.489 383.978 134.166 386.732 132.108 389.338C105.403 422.972 93.104 470.678 118.133 509.153C140.967 544.257 188.34 556.585 229.647 549.735C305.46 537.162 362.8 491.317 397.58 424.128C416.553 387.496 429.117 347.914 440.22 308.185" fill="white"/>
<path d="M449.657 171.7C430.312 173.19 411.751 178.854 393.876 186.214C376.442 193.387 358.821 201.267 343.435 212.301C312.477 234.489 290.358 267.181 267.583 297.13C255.99 312.379 244.2 328.088 230.343 341.338C218.838 352.304 204.158 361.124 187.89 361.634C179.338 361.828 170.862 359.984 163.164 356.254C155.657 352.686 148.209 348.855 140.046 352.951C133.512 356.288 129.445 363.05 129.56 370.385C129.736 374.109 132.882 378.225 131.745 381.832C131.157 383.703 129.315 385.526 128.129 387.045C126.62 389.005 125.189 390.916 123.729 392.925C104.795 419.503 94.329 454.175 102.875 486.437C111.038 517.121 135.215 539.357 164.683 549.451C194.152 559.545 225.247 557.291 254.843 549.186C283.834 541.283 310.962 527.688 334.645 509.192C358.292 490.71 378.049 467.454 393.445 441.729C412.8 409.389 425.834 373.404 436.731 337.457C439.554 328.157 442.219 318.837 444.816 309.459C446.433 303.628 437.417 301.148 435.771 306.96C417.474 371.522 395.14 438.681 345.817 486.554C325.545 506.297 301.564 521.829 275.257 532.252C248.444 542.787 218.691 549.578 189.83 545.609C161.547 541.689 133.97 527.763 119.535 502.323C103.286 473.765 107.961 439.093 123.161 411.183C126.945 404.307 131.285 397.752 136.136 391.583C138.547 388.496 140.85 385.291 141.124 381.253C141.408 376.971 138.537 373.413 138.654 369.337C138.86 366.348 140.378 363.603 142.8 361.84C146.23 359.282 150.013 360.105 153.678 361.683C161.518 365.054 168.682 368.66 177.198 369.915C192.447 372.159 207.646 368.21 220.612 360.046C235.096 350.922 246.219 337.506 256.872 324.364C280.196 295.543 300.207 263.879 326.168 237.252C339.066 224.036 354.014 212.99 370.434 204.54C387.094 195.916 404.479 188.125 422.502 182.921C431.345 180.309 440.419 178.556 449.599 177.688C453.411 177.345 453.519 171.377 449.599 171.671L449.657 171.7Z" fill="#382C80"/>
<path d="M397.874 374.884C348.09 462.646 298.244 550.376 248.336 638.073C223.379 681.918 198.408 725.753 173.425 769.579C161.929 789.747 151.982 811.964 135.607 828.8C115.634 849.321 93.9762 850.252 67.0066 852.32C57.2066 853.075 45.9366 857.455 43.8198 867.02C41.4384 877.986 52.287 886.953 61.94 892.608C90.1346 909.092 162.223 955.936 194.612 934.532C212.86 922.527 224.679 893.235 235.704 875.34C251.982 848.959 267.916 822.322 282.166 794.775C300.364 759.593 316.466 723.509 339.603 690.983C363.555 657.261 393.503 628.204 418.533 595.276C459.791 540.88 486.92 477.104 497.491 409.654" fill="white"/>
<path d="M395.071 373.247C367.566 421.593 340.025 469.94 312.448 518.287C284.87 566.633 257.274 614.97 229.657 663.297L188.291 735.817C181.431 747.763 174.571 759.651 167.839 771.675C162.116 781.965 156.755 792.461 150.591 802.506C144.427 812.551 137.263 822.577 128.198 830.456C120.445 837.072 111.232 841.751 101.316 844.107C91.5164 846.557 81.393 847.282 71.3382 848.027C61.9988 848.723 51.895 849.987 44.9958 857.102C38.0966 864.217 38.1358 874.291 43.5552 882.072C48.7884 889.54 56.6676 894.126 64.3312 898.732C77.8748 906.798 91.389 914.902 105.403 922.145C121.024 930.21 137.41 937.727 154.599 941.745C168.192 944.91 184.107 946.223 196.425 938.354C212.831 927.868 222.219 908.444 231.196 891.892C242.76 870.587 256.186 850.311 268.22 829.26C293.779 784.562 313.114 736.013 342.965 693.863C372.09 652.703 409.605 618.403 437.574 576.332C464.034 536.495 483.987 491.699 495.002 445.1C497.677 433.762 499.657 422.325 501.46 410.8C502.274 405.606 494.336 403.372 493.512 408.605C486.29 454.587 470.541 499.843 448.432 540.709C437.119 561.587 424.003 581.435 409.232 600.028C393.846 619.413 377.049 637.602 361.114 656.516C345.023 675.626 330.264 695.598 317.72 717.217C305.274 738.649 294.553 761.013 283.371 783.112C271.611 806.397 258.802 829.113 245.367 851.487C239.487 861.287 233.175 870.989 227.599 881.034C222.876 889.55 218.446 898.233 213.379 906.514C205.196 919.959 194.818 934.404 177.864 935.747C162.351 936.982 146.622 931.572 132.471 925.79C116.477 919.273 101.228 910.953 86.293 902.27C80.3052 898.791 74.3566 895.224 68.3982 891.686C61.2148 887.423 52.63 883.062 48.7982 875.212C43.8982 865.207 53.9628 858.788 62.4496 856.916C72.0634 854.799 82.3632 855.201 92.124 853.809C101.468 852.649 110.565 849.992 119.064 845.94C128.688 841.118 136.822 833.876 143.692 825.654C158.617 807.779 168.397 786.219 179.844 766.109L220.337 694.902C247.202 647.647 274.015 600.368 300.776 553.067L381.077 411.153C387.61 399.622 394.144 388.081 400.677 376.53C402.735 372.894 397.139 369.621 395.071 373.256V373.247Z" fill="#382C80"/>
<path d="M397.874 374.884L369.885 424.207C341.642 474.03 313.346 523.837 284.998 573.628C258.058 621.001 232.323 667.776 201.257 712.66C192.76 724.95 184.048 737.072 175.257 749.156C168.848 757.976 158.666 767.991 155.324 778.36C148.16 800.566 177.502 815.903 192.682 825.988C212.29 839.021 233.906 848.745 256.666 854.77C269.612 858.19 278.912 859.072 287.634 849.38C297.708 838.198 304.49 819.804 311.389 806.466C329.588 771.274 345.689 735.191 368.827 702.674C392.778 668.952 422.727 639.895 447.756 606.967C489.013 552.571 516.142 488.795 526.715 421.346" fill="#7F72FF"/>
<path d="M395.071 373.247C352.931 447.256 310.556 521.119 268.485 595.158C248.405 630.497 228.148 665.786 205.51 699.577C194.034 716.717 182.353 734.092 169.534 750.262C160.381 761.817 147.259 774.821 150.914 790.972C153.854 803.819 165.722 812.904 175.983 819.95C188.919 828.829 202.286 837.384 216.427 844.205C224.836 848.259 233.49 851.784 242.338 854.76C250.561 857.523 259.145 860.287 267.818 861.1C284.273 862.649 293.926 849.977 301.138 836.914C305.058 829.691 308.42 822.145 311.977 814.717C316.044 806.211 320.513 797.881 324.717 789.453C333.537 772.009 342.181 754.516 351.853 737.513C361.537 720.396 372.533 704.057 384.742 688.64C396.875 673.381 409.909 658.868 422.717 644.158C447.57 615.61 470.257 585.75 487.975 552.195C505.125 519.717 518.355 484.8 526.039 448.854C527.91 440.102 529.41 431.282 530.674 422.394C531.409 417.249 523.638 414.916 522.726 420.198C510.496 491.474 481.253 558.8 435.81 615.091C412.143 644.413 385.497 671.353 363.878 702.311C342.122 733.455 326.364 768.147 309.086 801.85C301.795 816.089 296.405 832.308 286.174 844.813C281.538 850.458 276.237 853.476 268.847 853.006C260.635 852.476 252.256 849.507 244.514 846.92C226.932 840.975 210.192 832.783 194.71 822.547C184.46 815.834 173.366 809.807 165.105 800.517C161.312 796.283 158.186 791.05 158.186 785.209C158.186 777.585 163.272 770.715 167.731 764.943C179.491 749.704 190.957 734.298 201.962 718.461C224.669 685.808 244.975 651.606 264.682 617.061C305.225 545.913 345.297 474.49 385.605 403.205L400.677 376.52C402.735 372.874 397.139 369.611 395.071 373.247Z" fill="#7F72FF"/>
<path d="M572.589 367.965C608.074 459.693 628.821 556.389 642.031 653.654C648.588 701.959 653.311 750.498 657.123 799.096C658.878 821.372 658.799 845.303 667.786 866.177C679.399 893.176 710.318 893.823 725.91 916.157C742.658 940.138 710.328 947.988 692.364 949.36C657.594 952.035 620.491 945.44 586.857 937.188C579.233 935.306 571.275 933.023 565.729 927.466C557.653 919.372 556.321 907.161 554.949 896.42C545.923 825.203 537.916 754.82 535.447 683.015C535.211 676.155 535.006 669.227 533.359 662.553C531.262 654.027 526.911 646.255 522.814 638.484C481.076 559.388 501.911 590.827 506.978 501.539" fill="white"/>
<path d="M569.462 368.827C603.165 456.507 623.362 548.617 636.573 641.453C643.433 689.718 648.333 738.238 652.253 786.826C653.997 808.386 653.909 830.612 658.927 851.731C661.141 861.032 664.356 870.44 670.246 878.074C674.842 884.013 680.761 888.668 687.082 892.656C700.106 900.839 716.139 906.847 724.146 920.88C726.792 925.525 727.683 930.68 723.734 934.826C719.618 939.167 713.307 941.235 707.672 942.666C690.14 947.272 670.981 946.311 653.115 944.724C629.867 942.587 606.854 938.389 584.349 932.18C574.627 929.514 566.571 925.026 562.955 915.088C559.574 905.769 559.035 895.4 557.869 885.639C554.821 861.139 551.911 836.639 549.343 812.139C546.824 788.169 544.639 764.119 542.944 740.109C542.068 727.788 541.34 715.462 540.758 703.134C540.209 691.58 540.464 679.82 538.965 668.334C537.505 657.113 532.614 647.323 527.391 637.435C522.922 628.968 518.483 620.491 514.23 611.955C509.624 602.694 504.694 593.09 502.597 582.878C501.382 576.998 502.117 570.207 503.312 563.896C505.498 552.322 507.762 540.836 509.085 529.115C510.114 519.972 510.711 510.78 511.113 501.587C511.358 496.256 503.273 496.334 502.871 501.587C501.774 517.83 499.725 533.996 496.737 549.999C495.159 558.27 492.895 566.659 492.728 575.126C492.562 583.594 495.08 591.453 498.246 599.078C504.724 614.699 512.946 629.575 520.874 644.501C526.47 655.094 530.125 665.13 530.752 677.174C531.419 689.914 531.732 702.742 532.507 715.521C533.928 740.119 535.927 764.688 538.328 789.217C540.778 814.266 543.63 839.266 546.687 864.246C548.138 876.114 549.627 887.982 551.146 899.849C552.391 909.277 553.949 919.175 559.79 927.005C565.827 935.1 575.058 938.579 584.535 940.98C595.726 943.802 607.075 946.252 618.394 948.32C641.786 952.583 665.708 955.18 689.503 953.71C702.243 952.897 717.148 950.839 727.409 942.479C740.061 932.189 733.289 916.892 723.587 907.199C712.199 895.782 696.431 890.902 684.054 880.886C668.374 868.146 664.905 846.812 663.101 827.761C660.838 803.947 659.544 780.044 657.349 756.221C655.036 731.172 652.449 706.162 649.352 681.202C637.661 586.044 619.413 491.307 587.965 400.559C584.084 389.354 580.001 378.225 575.715 367.17C574.225 363.319 567.953 364.985 569.462 368.895V368.827Z" fill="#382C80"/>
<path d="M461.78 448.521C459.268 486.292 461.215 524.228 467.582 561.544C472.57 590.709 481.204 616.875 491.033 644.991C493.973 653.282 499.481 660.534 501.588 669.06C503.224 675.734 503.44 682.662 503.675 689.522C504.57 715.656 505.919 741.77 507.722 767.864C509.369 791.746 510.104 816.511 516.307 839.805C517.513 844.323 550.411 847.087 555.115 847.577C569.003 849.016 582.998 849.098 596.902 847.822C613.063 846.352 655.408 844.235 659.779 824.547C661.945 814.806 657.398 801.781 656.545 791.923C655.232 776.801 654.017 761.67 652.625 746.549C649.685 715.522 646.255 684.534 642.061 653.654C628.85 556.389 608.104 459.693 572.618 367.965" fill="#7F72FF"/>
<path d="M458.546 448.521C455.962 487.089 457.965 525.829 464.514 563.925C467.791 582.099 472.289 600.031 477.979 617.6C480.763 626.42 483.712 635.132 486.741 643.844C489.514 651.841 494.306 658.927 497.05 666.884C500.127 675.792 499.775 685.573 500.108 694.873C500.448 704.601 500.856 714.332 501.333 724.067C502.313 743.334 503.567 762.562 504.773 781.809C505.929 800.38 507.262 819.049 511.633 837.238C512.877 842.402 514.435 844.441 519.473 846.107C523.998 847.467 528.63 848.441 533.32 849.017C542.983 850.448 552.783 851.526 562.534 852.202C577.361 853.231 592.081 852.349 606.84 850.987C617.914 850.007 629.174 848.625 639.817 845.283C648.931 842.422 659.191 837.649 662.905 828.153C665.404 821.754 664.424 814.433 663.346 807.818C661.974 799.449 660.602 791.315 659.887 782.848C658.28 763.62 656.614 744.392 654.673 725.194C650.812 687.17 646.108 649.234 640.14 611.514C628.498 537.612 612.377 463.554 586.73 393.18C583.516 384.36 580.086 375.599 576.567 366.887C574.607 362.075 566.767 364.035 568.61 369.082C593.591 437.236 612.711 507.397 625.763 578.802C632.457 615.228 637.817 651.88 642.208 688.66C644.449 707.423 646.468 726.22 648.264 745.049C649.14 754.124 649.96 763.205 650.724 772.293C651.459 780.917 651.831 789.668 653.262 798.214C655.026 808.759 660.602 823.439 650.489 831.328C642.384 837.639 630.889 839.658 621.01 841.236C597.164 844.933 572.94 845.526 548.941 843C539.866 842.079 529.9 841.569 521.256 838.453C520.773 838.206 520.272 837.997 519.757 837.826C518.777 837.669 520.443 837.826 520.11 838.757C520.482 837.688 518.796 833.533 518.522 832.308C517.934 829.636 517.402 826.993 516.925 824.38C515.327 815.462 514.357 806.456 513.612 797.43C510.525 760.053 508.967 722.597 507.281 685.142C506.909 676.861 506.027 668.697 502.685 661.024C501.107 657.398 499.187 653.938 497.413 650.401C495.482 646.297 493.816 642.075 492.425 637.759C486.662 621.216 481.125 604.576 476.745 587.612C467.415 551.352 463.74 513.524 464.005 476.137C464.07 466.938 464.397 457.746 464.985 448.56C465.249 444.395 458.771 444.414 458.497 448.56L458.546 448.521Z" fill="#7F72FF"/>
<path d="M458.546 448.521C454.92 500.882 459.065 554.135 473.697 604.654C477.303 617.12 481.4 629.448 485.623 641.718C487.524 647.245 489.816 652.629 492.483 657.829C495.237 663.219 497.521 668.462 498.471 674.489C500.51 687.425 499.843 701.047 500.431 714.11C500.987 727.425 501.663 740.737 502.46 754.045C503.332 768.745 504.106 783.445 505.272 798.145C506.419 812.6 508.114 827.016 512.368 840.913C513.926 846.009 521.442 843.853 520.325 838.727C514.867 813.629 513.612 788.051 511.819 762.513C509.957 735.994 509.143 709.446 507.615 682.917C507.281 677.037 506.713 671.049 504.871 665.463C503.107 660.112 500.274 655.212 497.756 650.195C492.072 638.866 488.642 625.969 484.79 613.935C476.824 589.228 471.187 563.83 467.954 538.073C464.248 508.387 463.28 478.423 465.063 448.56C465.318 444.385 458.86 444.424 458.575 448.56L458.546 448.521Z" fill="#382C80"/>
<path d="M381.685 410.761C394.641 422.587 408.393 433.51 422.845 443.454C427.098 446.394 431.459 449.246 436.31 451C447.629 455.106 460.104 452.784 472.139 452.96C486.064 453.225 499.755 456.968 513.681 457.311C542.199 458.017 569.364 444.346 591.63 426.52C585.755 407.884 578.915 389.565 571.138 371.64C516.641 396.08 456.086 403.686 397.237 393.484" fill="#382C80"/>
<path d="M379.176 413.28C390.909 424.425 403.348 434.802 416.416 444.346C422.825 449.03 429.332 453.871 436.996 456.174C444.267 458.34 452 458.301 459.536 458.036C467.706 457.587 475.899 457.797 484.036 458.663C492.189 459.644 500.284 461.202 508.477 461.849C523.303 462.941 538.188 460.773 552.087 455.498C567.865 449.618 582.114 440.641 595.295 430.214C596.639 428.912 597.152 426.973 596.628 425.177C590.62 406.11 583.613 387.373 575.636 369.042C574.46 366.318 570.795 366.102 568.522 367.171C542.493 379.695 513.054 386.967 484.438 390.269C470.061 391.965 455.584 392.65 441.112 392.317C426.412 391.955 411.869 390.054 397.247 388.515C391.602 387.917 390.514 397.031 395.924 398.315C418.405 403.764 442.601 404.264 465.612 402.911C489.193 401.519 512.53 397.364 535.143 390.534C547.826 386.547 560.301 381.925 572.52 376.686L566.64 374.295C574.196 391.818 580.84 409.752 586.642 427.931L587.975 422.903C566.895 439.74 540.582 453.43 512.936 452.548C497.599 452.068 482.664 447.923 467.258 448.305C460.094 448.481 452.823 449.285 445.698 448.393C438.221 447.482 431.919 444.052 425.726 439.955C411.203 430.308 397.329 419.718 384.193 408.252C380.783 405.312 375.814 410.095 379.176 413.28Z" fill="#382C80"/>
<path d="M386.232 241.682C380.293 274.443 374.815 285.948 368.876 318.71C364.358 343.651 360.242 371.336 372.277 393.043C382.576 411.663 402.353 421.022 421.512 426.422C468.763 439.574 519.178 435.185 563.445 414.064C570.511 410.702 577.655 406.724 582.418 400.069C590.748 388.437 589.993 371.963 588.024 357.302C580.36 300.08 565.248 280.274 554.4 237.458" fill="white"/>
<path d="M382.714 240.712C375.756 278.197 362.085 314.741 360.477 353.118C359.684 371.944 363.3 391.093 376.04 405.626C387.447 418.621 404.038 425.961 420.355 430.607C460.587 441.876 503.283 440.735 542.855 427.333C552.267 424.231 561.416 420.384 570.217 415.828C578.665 411.34 585.956 405.136 589.876 396.228C597.618 378.588 593.178 357.303 589.876 339.163C586.39 320.816 581.398 302.789 574.95 285.263C569.07 269.044 563.102 252.923 558.731 236.263C557.271 230.647 548.637 233.019 550.039 238.654C557.056 266.76 569.315 293.103 576.44 321.15C580.909 338.79 585.113 357.822 584.603 376.099C584.368 384.527 582.594 393.357 576.763 399.756C570.697 406.352 561.681 410.076 553.586 413.535C517.367 428.95 477.394 433.291 438.711 426.01C421.914 422.796 404.411 417.896 390.514 407.439C376.04 396.522 369.288 380.137 368.474 362.359C367.494 341.044 372.188 319.161 376.932 298.493C381.214 279.873 386.359 261.508 389.75 242.633C390.573 238.056 383.576 236.077 382.714 240.673V240.712Z" fill="#382C80"/>
<path d="M487.201 169.622C499.755 169.671 508.134 179.716 511.407 188.958C515.718 201.071 518.266 213.741 518.973 226.58C519.473 236.037 518.855 245.886 513.808 254.284C511.388 249.541 506.233 246.356 501.313 243.416C496.394 240.476 491.513 237.536 485.937 235.831C481.645 234.498 475.98 233.518 471.619 235.155C468.464 236.35 467.601 238.095 463.848 237.722C453.695 236.566 445.865 234.694 435.986 238.967C427.362 242.691 420.689 249.659 418.043 257.685C411.768 239.26 411.177 219.375 416.347 200.61C421.162 184.096 431.767 169.869 446.218 160.538" fill="#7F72FF"/>
<path d="M486.358 172.68C502.293 175.159 507.566 189.026 511.005 202.962C514.769 218.211 518.61 237.781 510.104 252.138H517.503C512.799 243.475 501.823 237.85 493.169 233.91C488.286 231.529 482.981 230.133 477.558 229.804C475.134 229.707 472.712 230.038 470.404 230.784C468.375 231.47 466.602 233.009 464.524 233.156C459.34 233.509 453.901 231.627 448.638 231.705C443.282 231.792 438.004 233 433.144 235.253C424.089 239.399 417.178 247.141 414.083 256.607H422.07C416.222 238.886 415.786 219.825 420.816 201.855C425.285 186.292 435.516 173.797 448.599 164.566C453.391 161.175 449.06 153.345 443.915 156.559C409.546 178.011 401.775 222.444 414.083 258.802C414.63 260.548 416.247 261.737 418.077 261.737C419.906 261.737 421.524 260.548 422.07 258.802C424.961 251.1 432.213 245.082 439.906 242.417C443.904 241.143 448.115 240.68 452.294 241.055C456.704 241.329 461.3 242.642 465.7 242.348C469.434 242.093 472.099 239.281 475.745 238.908C480.106 238.458 484.741 239.888 488.71 241.603C492.667 243.445 496.498 245.546 500.176 247.895C503.959 250.188 507.86 252.55 510.143 256.46C510.926 257.756 512.329 258.548 513.843 258.548C515.356 258.548 516.76 257.756 517.542 256.46C522.207 248.062 523.559 238.703 523.265 229.187C523.021 218.813 521.588 208.501 518.992 198.454C516.797 190.232 514.22 181.912 508.467 175.434C503.009 169.289 495.512 165.634 487.24 166.457C483.997 166.761 482.576 172.082 486.398 172.68H486.358Z" fill="#7F72FF"/>
<path d="M438.77 162.39V199.885C438.77 212.723 441.367 226.913 458.056 229.491C465.624 230.649 473.305 228.26 478.881 223.013C482.566 219.367 484.702 214.634 486.064 209.842C491.249 191.692 486.339 172.464 488.25 153.795" fill="white"/>
<path d="M435.545 162.39C435.477 176.355 434.301 190.437 434.928 204.402C435.31 212.909 437.368 222.042 444.091 227.922C452.362 235.067 464.671 236.017 474.471 231.588C486.349 226.198 490.925 213.546 492.493 201.433C493.473 193.799 493.277 186.106 492.964 178.432C492.621 170.249 492.885 161.998 492.327 153.834C492.033 149.415 485.525 148.082 484.3 152.747C482.34 160.146 483.036 167.986 483.369 175.532C483.703 183.078 484.153 190.927 483.418 198.591C482.791 205.088 481.351 212.429 477.342 217.779C473.334 223.13 466.837 225.502 460.447 225.276C449.667 224.904 444.336 217.035 443.052 207.146C442.209 200.649 442.543 193.956 442.464 187.429C442.366 179.089 442.053 170.769 442.033 162.429C442.033 158.284 435.604 158.274 435.585 162.429L435.545 162.39Z" fill="#382C80"/>
<path d="M430.714 144.387C422.567 142.12 415.173 137.723 409.291 131.647C405.802 128.011 402.882 123.523 402.882 118.643C402.882 113.762 406.704 108.666 411.937 108.382C408.85 105.089 405.714 101.708 403.999 97.6019C402.284 93.4957 402.206 88.5957 404.979 85.0971C408.439 80.7949 414.201 81.1771 418.268 84.1171C419.64 80.4813 419.248 77.2571 421.541 73.4939C424.683 68.3507 428.427 63.6001 432.694 59.3427C436.212 55.8343 440.436 52.4827 445.434 52.1887C450.432 51.8947 455.812 56.0597 455.077 60.9597C460.535 54.2369 466.954 47.5827 475.353 45.4953C483.752 43.4079 494.296 47.9649 495.619 56.5105C497.109 52.3651 502.254 51.1107 506.615 50.4541C512.162 49.6309 518.806 49.1899 522.295 53.5411C525.784 57.8923 524.128 64.1349 522.168 69.2799C525.823 67.3885 530.596 69.2309 533.026 72.5531C535.456 75.8753 535.966 80.2363 535.692 84.3131C535.437 88.0077 534.565 91.7807 532.369 94.7599C530.174 97.7391 526.46 99.7775 522.834 99.1797C527.42 100.248 529.998 105.599 529.429 110.273C528.097 121.053 517.669 128.266 508.193 130.765C498.971 133.205 492.062 142.231 484.977 148.405" fill="#382C80"/>
<path d="M431.684 140.888C424.277 138.551 417.604 134.33 412.319 128.638C409.977 126.1 407.586 122.847 407.419 119.27C407.282 116.565 408.958 113.262 411.947 112.919C415.769 112.488 417.984 108.274 415.142 105.207C411.741 101.551 407.302 97.1903 407.39 91.8003C407.478 86.4103 412.172 85.4499 416.073 87.9685C418.591 89.5953 421.747 87.9685 422.6 85.3127C423.903 81.3045 424.128 77.5903 426.52 73.9643C428.966 70.1936 431.775 66.6717 434.908 63.4489C437.486 60.7735 440.494 57.7257 444.218 56.8143C447.158 56.0989 451 57.4415 450.755 60.9303C450.51 64.4191 455.831 66.9181 458.213 64.0173C463.181 57.9609 469.306 50.8069 477.499 49.4643C483.379 48.4843 490.239 51.4243 491.464 57.6473C492.15 61.1459 497.903 62.0671 499.422 58.6861C501.431 54.2271 509.986 53.8939 514.22 54.2859C522.197 55.0209 520.1 62.6943 518.081 68.1039C516.601 72.1023 521.384 74.3073 524.461 73.0039C530.213 70.5637 531.723 80.4323 531.595 83.6957C531.36 88.9779 529.135 95.2597 522.834 94.5443C517.444 93.9269 516.778 102.208 521.589 103.688C526.911 105.334 524.529 112.762 522.413 116.016C519.551 120.397 514.749 123.542 509.898 125.326C504.273 127.394 499.53 129.099 494.747 132.941C489.965 136.782 486.094 141.124 481.88 145.338C477.666 149.552 483.771 154.932 488.073 151.531C493.953 146.906 498.716 140.683 505.292 137.027C508.31 135.351 511.77 134.724 514.935 133.372C518.157 132.001 521.177 130.197 523.912 128.011C529.233 123.748 533.193 117.77 534.016 110.91C534.868 103.835 531.017 96.8375 524.069 94.7109L522.834 103.854C534.947 104.57 540.474 91.4279 540.013 81.2065C539.582 70.6323 531.135 60.7931 520.021 65.5265L526.401 70.4265C528.283 65.3501 529.753 59.6465 527.734 54.3251C525.967 49.956 522.068 46.8096 517.424 46.0049C509.457 44.4467 495.649 45.8873 491.856 54.3055L499.814 55.3443C497.971 45.9559 488.289 40.4287 479.234 40.6443C467.758 40.8893 458.85 49.5623 452.019 57.8825L459.438 60.9597C459.81 55.6383 456.302 51.1597 451.598 49.0919C446.1 46.6615 440.093 48.2197 435.32 51.4929C429.95 55.1679 425.52 60.3717 421.718 65.5559C419.748 68.0296 418.07 70.7229 416.72 73.5821C415.416 76.6005 415.112 79.8639 414.054 82.9509L420.581 80.2951C413.094 75.3167 402.941 77.2571 399.383 85.9889C395.365 95.8673 402.382 104.775 408.772 111.596L411.967 103.884C399.962 105.295 395.512 117.868 401 127.854C406.724 138.291 418.64 144.897 429.783 147.886C434.311 149.101 436.143 142.309 431.743 140.888H431.684Z" fill="#382C80"/>
<path d="M462.642 175.62C475.781 175.407 488.163 169.43 496.501 159.273C500.343 154.628 501.137 148.905 502.381 143.113C503.837 135.661 504.279 128.046 503.695 120.475C503.126 110.117 501.205 99.0427 493.895 91.6731C490.453 88.389 486.378 85.8413 481.919 84.1859C470.079 79.4478 457.041 78.5833 444.679 81.7163C441.455 82.4523 438.369 83.6961 435.536 85.4011C430.822 88.3999 427.431 93.2411 425.344 98.3861C423.407 103.643 422.242 109.152 421.884 114.742C420.238 132.804 422.649 158.137 439.034 169.26" fill="white"/>
<path d="M462.642 179.226C481.037 178.942 500.627 167.76 505.027 149.042C507.544 138.499 508.341 127.618 507.389 116.82C506.625 107.882 504.694 98.7096 499.098 91.4772C486.78 75.562 460.516 72.8572 442.396 77.9532C421.816 83.7352 417.288 104.629 417.063 123.543C416.837 141.692 421.041 162.018 436.859 172.974C441.494 176.188 445.777 168.672 441.259 165.438C430.351 157.657 426.902 142.957 426.079 130.324C425.197 116.742 425.216 96.0244 438.74 88.351C445.943 84.2644 455.4 83.5686 463.524 84.0684C471.884 84.5976 481.008 87.0084 487.926 91.83C494.845 96.6516 497.668 104.472 498.991 112.41C500.416 120.979 500.545 129.714 499.373 138.321C498.843 142.867 497.858 147.349 496.433 151.698C494.816 156.147 491.533 159.597 487.907 162.566C480.791 168.436 471.904 171.736 462.682 171.935C458.046 172.043 458.027 179.226 462.682 179.158L462.642 179.226Z" fill="#382C80"/>
<path d="M456.988 127.6C456.008 130.364 455.949 133.48 455.665 136.42C455.439 138.654 454.773 141.32 455.596 143.486C456.772 146.573 460.947 147.406 462.731 144.417C464.181 141.977 460.467 139.85 458.948 142.202C460.192 140.242 459.849 136.812 460.006 134.617C460.29 132.29 460.29 129.937 460.006 127.61C459.722 125.954 457.458 126.306 456.988 127.61V127.6Z" fill="#382C80"/>
<path d="M468.493 115.183C472.054 113.969 475.866 113.685 479.567 114.36C480.175 114.468 482.507 115.487 482.272 113.802C482.272 114.017 476.392 112.096 475.853 112.008C473.687 111.646 471.482 112.096 469.326 111.646C466.935 111.156 465.906 114.733 468.346 115.34C470.357 115.696 472.4 115.847 474.442 115.791C476.402 115.909 478.087 117.075 480.047 117.388C482.272 117.741 485.623 117.643 485.388 114.566C485.163 111.685 482.056 111.028 479.743 110.724C475.667 110.176 471.519 110.634 467.66 112.057C465.7 112.753 466.533 115.86 468.522 115.183H468.493Z" fill="#382C80"/>
<path d="M450.02 112.057C445.937 110.615 441.565 110.188 437.28 110.813C435.408 111.048 432.38 111.224 432.547 113.831C432.684 116.115 435.31 116.712 437.153 116.908C441.2 117.33 445.483 116.908 449.53 116.752C451.98 116.644 452.009 112.92 449.53 112.92C446.766 112.92 444.013 112.998 441.249 113.086C440.269 113.086 439.211 113.204 438.191 113.165C437.548 113.021 436.891 112.946 436.231 112.939C435.467 112.645 435.369 113.233 435.947 114.694C436.377 114.597 436.812 114.525 437.251 114.478C438.289 114.321 439.328 114.174 440.377 114.096C443.308 113.866 446.256 114.236 449.04 115.184C451 115.86 451.853 112.753 449.902 112.057H450.02Z" fill="#382C80"/>
<path d="M440.102 434.693C439.691 454.822 440.171 474.991 441.425 495.091C442.043 504.793 442.827 514.504 444.062 524.148C444.591 528.352 445.159 531.988 448.266 535.094C450.961 537.789 455.126 539.24 456.704 542.866C458.664 547.344 466.553 544.091 464.671 539.504C463.054 535.584 460.379 533.32 456.939 530.919C453.342 528.411 452.666 526.225 452.039 521.943C450.706 512.388 449.785 502.764 449.02 493.15C447.501 473.707 446.688 454.195 446.717 434.693C446.717 430.42 440.171 430.43 440.083 434.693H440.102Z" fill="#382C80"/>
<path d="M525.372 466.347C534.251 478.665 551.038 488.201 566.532 483.899C570.981 482.664 570.139 475.755 565.435 475.804C559.153 475.853 553.047 475.804 547.06 473.677C540.978 471.562 535.631 467.745 531.654 462.682C528.871 459.065 522.618 462.505 525.382 466.347H525.372Z" fill="#382C80"/>
<path d="M353.245 458.213C362.44 461.961 372.632 462.489 382.165 459.712C387.447 458.105 385.262 450.167 379.881 451.441C371.79 453.527 363.271 453.266 355.323 450.687C350.472 449.079 348.678 456.41 353.245 458.213Z" fill="#382C80"/>
<path d="M728.056 913.992C719.647 905.946 708.181 899.948 698.773 894.578C686.445 887.542 674.43 879.878 668.609 866.158C666.551 861.225 664.912 856.127 663.709 850.919C649.066 857.49 633.812 862.608 618.168 866.197C619.472 873.136 620.697 880.721 617.394 886.954C612.494 896.146 600.47 898.028 590.16 898.273C584.933 898.403 579.681 898.384 574.402 898.214C571.354 898.116 559.359 895.617 557.281 897.606C552.93 901.771 560.319 927.565 561.691 932.886C562.612 936.473 563.769 940.187 566.395 942.765C568.551 944.872 571.462 945.979 574.323 946.9C592.277 952.643 611.651 953.221 630.33 953.76C645.961 954.211 661.484 955.475 677.115 954.123C695.814 952.516 715.953 953.143 731.505 942.51C733.921 941.042 735.903 938.959 737.248 936.473C739.208 932.181 737.826 926.996 735.406 922.939C733.368 919.64 730.896 916.631 728.056 913.992Z" fill="#382C80"/>
<path d="M731.378 910.679C720.079 900.104 705.898 893.911 693.031 885.679C687.366 882.063 681.898 877.898 677.743 872.547C672.617 865.951 670.167 857.69 668.207 849.693C667.423 846.489 663.964 845.714 661.347 846.89C647.043 853.226 632.168 858.185 616.924 861.698C614.307 862.306 613.2 865.06 613.641 867.461C614.758 873.478 616.287 881.034 612.279 886.345C609.339 890.265 604.154 891.882 599.48 892.774C589.229 894.734 578.037 894.019 567.747 892.774C563.974 892.304 559.182 891.402 555.625 893.215C552.469 894.832 551.548 898.282 551.293 901.565C550.686 909.591 553.087 918.166 554.998 925.898C557.124 934.434 558.682 944.577 567.15 949.134C573.157 952.368 580.487 953.769 587.132 955.014C594.228 956.287 601.39 957.161 608.584 957.63C623.088 958.61 637.69 958.934 652.214 959.365C666.169 959.777 680.006 958.797 693.913 957.719C707.819 956.641 722.695 954.641 734.367 946.302C740.247 942.137 743.785 936.502 742.599 929.103C741.433 921.86 736.503 915.735 731.407 910.737C727.086 906.504 720.451 913.129 724.773 917.372C728.575 921.106 733.73 926.486 733.485 932.268C733.25 937.697 725.645 940.99 721.392 942.823C710.729 947.37 698.852 948.036 687.415 948.791C674.443 949.801 661.428 950.145 648.421 949.82C635.387 949.349 622.304 949.134 609.29 948.252C602.684 947.861 596.107 947.085 589.592 945.929C583.761 944.851 576.44 943.822 571.305 940.686C567.444 938.334 566.709 933.689 565.64 929.632C564.798 926.476 563.974 923.311 563.239 920.126C562.283 916.263 561.52 912.354 560.956 908.415C560.752 906.89 560.631 905.356 560.593 903.819C560.593 903.358 560.985 900.545 560.897 900.438C561.593 901.231 557.859 901.476 561.132 901.574C563.19 901.633 565.219 901.819 567.267 902.074C571.046 902.607 574.85 902.934 578.665 903.054C589.964 903.24 603.165 903.868 613.229 897.762C625.205 890.491 624.989 877.29 622.657 865.001L619.384 870.773C635.405 867.016 651.032 861.74 666.051 855.015L659.191 852.212C661.151 860.405 663.797 868.872 668.648 875.918C672.962 881.907 678.304 887.083 684.426 891.206C697.548 900.438 712.944 906.269 724.773 917.343C729.144 921.4 735.788 914.814 731.378 910.679Z" fill="#382C80"/>
<path d="M56.893 853.653C67.82 849.86 80.658 849.174 91.34 848.204C105.374 846.949 119.397 844.98 130.383 834.974C134.317 831.366 137.94 827.432 141.212 823.214C151.621 835.263 163.195 846.253 175.767 856.024C171.68 861.777 167.398 868.147 167.751 875.173C168.26 885.552 178.325 892.274 187.498 896.782C192.162 899.085 196.906 901.251 201.688 903.28C204.471 904.466 216.31 907.2 217.368 909.856C219.524 915.442 202.06 935.786 198.581 940.059C196.249 942.931 193.681 945.831 190.202 947.076C187.38 948.056 184.322 947.889 181.382 947.537C162.821 945.273 145.122 937.737 128.119 930.465C113.88 924.34 99.3662 919.038 85.8814 911.316C69.7408 902.074 51.356 894.254 41.7814 878.143C40.2203 875.812 39.3133 873.104 39.155 870.303C39.155 865.579 42.6046 861.483 46.4952 858.788C49.7132 856.614 53.211 854.887 56.893 853.653Z" fill="#382C80"/>
<path d="M58.1376 858.181C73.6608 852.977 90.1934 853.937 106.158 851.037C113.419 849.865 120.399 847.349 126.738 843.618C133.784 839.257 139.478 832.946 144.603 826.507H137.968C148.404 838.527 159.972 849.514 172.513 859.318L171.778 853.634C165.252 862.885 159.93 873.635 165.781 884.641C170.681 893.961 181.196 899.008 190.281 903.261C194.701 905.464 199.269 907.356 203.952 908.925C204.932 909.219 213.654 912.492 213.634 912.512C213.889 912.228 212.497 911.169 212.86 911.15C212.805 911.487 212.709 911.816 212.576 912.13C212.066 913.45 211.446 914.725 210.724 915.942C208.746 919.301 206.563 922.535 204.187 925.624C202.119 928.388 199.944 931.083 197.748 933.749C195.553 936.414 193.397 939.629 190.536 941.589C185.802 944.911 177.796 942.412 172.69 941.285C166.374 939.873 160.155 938.059 154.07 935.856C141.83 931.514 129.991 926.114 117.996 921.156C106.05 916.199 94.387 910.589 83.059 904.349C72.6514 898.655 61.7048 893.255 53.12 884.905C49.543 881.417 43.3788 875.213 43.9178 869.755C44.5352 863.532 53.12 859.955 58.1082 858.181C63.7432 856.142 61.3128 847.068 55.6092 849.135C44.9174 852.997 31.0504 861.532 35.235 875.056C38.6944 886.121 49.2 894.852 58.51 901.026C81.05 916.03 106.197 926.212 131.03 936.738C144.211 942.324 157.578 947.763 171.651 950.644C177.864 951.908 185.302 953.701 191.506 951.575C196.406 949.899 199.787 945.989 202.991 942.098C208.127 935.875 213.321 929.584 217.623 922.733C221.19 917.03 225.571 908.543 217.917 904.113C213.781 901.722 208.92 900.772 204.452 899.213C198.05 896.904 191.871 894.021 185.988 890.599C181.02 887.806 175.375 884.092 173.248 878.516C170.485 871.176 175.855 864.022 179.873 858.328C180.951 856.487 180.649 854.15 179.138 852.644C166.595 842.843 155.026 831.856 144.593 819.833C143.055 818.079 139.458 817.942 137.959 819.833C133.245 825.782 128.031 831.858 121.465 835.798C115.301 839.482 108.284 841.266 101.238 842.364C86.0284 844.716 70.4268 844.147 55.6582 849.096C49.9448 851.037 52.385 860.102 58.1376 858.181Z" fill="#382C80"/>
<path d="M111.92 834.278C117.516 840.021 119.319 845.695 119.378 853.584C119.378 855.965 122.965 856.524 123.572 854.152C125.66 845.852 121.289 835.905 114.341 831.142C112.381 829.829 110.421 832.69 111.92 834.278Z" fill="white"/>
<path d="M97.7394 841.402C101.941 845.269 104.348 850.706 104.384 856.416C104.461 857.574 105.423 858.474 106.584 858.474C107.745 858.474 108.707 857.574 108.784 856.416C109.166 849.252 105.54 842.823 99.964 838.541C98.3176 837.286 96.2302 840.03 97.7492 841.402H97.7394Z" fill="white"/>
<path d="M86.0186 843.98C88.2627 848.026 89.7536 852.446 90.4188 857.024C90.8598 859.905 95.3188 858.71 94.8386 855.799C93.9643 850.89 92.0751 846.217 89.2918 842.079C87.9492 840.05 84.8034 841.844 86.0186 844.039V843.98Z" fill="white"/>
<path d="M41.5756 866.627C78.1799 897.826 120.91 921.016 167.016 934.708C180.106 938.611 193.427 941.694 206.902 943.939C210.253 944.488 211.713 939.392 208.323 938.804C161.728 930.813 117.179 913.669 77.2476 888.364C65.6728 881.013 54.5464 872.979 43.9276 864.305C42.3106 862.991 40.0076 865.285 41.605 866.627H41.5756Z" fill="white"/>
<path d="M728.712 928.701C700.339 935.625 671.298 939.45 642.1 940.108C612.837 940.687 583.81 937.649 555.096 932.131C552.548 931.641 551.43 935.463 554.008 936.051C611.367 949.183 672.95 947.351 729.702 932.131C731.946 931.533 731.006 928.113 728.722 928.652L728.712 928.701Z" fill="white"/>
<path d="M674.156 871.645C669.664 876.556 666.24 882.346 664.101 888.648C663.268 891.078 667.159 892.147 667.952 889.706C669.774 884.007 672.78 878.757 676.772 874.301C678.37 872.507 675.792 869.852 674.117 871.645H674.156Z" fill="white"/>
<path d="M684.554 882.631C681.143 886.679 678.585 891.334 677.968 896.645C677.694 899.017 681.28 899.242 681.966 897.184C683.338 893.039 684.906 889.139 687.631 885.699C689.356 883.562 686.376 880.475 684.554 882.631Z" fill="white"/>
<path d="M696.529 890.647C693.743 894.024 691.765 897.993 690.747 902.251C690.13 905.014 694.295 906.171 695.03 903.427C695.956 899.735 697.568 896.251 699.783 893.156C701.155 891.265 697.999 888.805 696.529 890.647Z" fill="white"/>
<path d="M693.109 875.164C692.599 870.073 693.159 864.932 694.755 860.072C695.441 858.112 697.96 853.878 697.97 858.494C697.958 861.296 697.336 864.061 696.147 866.598C695.65 867.507 695.812 868.634 696.544 869.367C697.276 870.099 698.404 870.261 699.312 869.764C701.387 868.568 703.713 867.876 706.104 867.745C707.819 867.745 708.632 867.48 706.956 869.548C704.994 871.879 702.523 873.73 699.734 874.958C696.951 876.251 699.381 880.436 702.164 879.103C706.084 877.212 714.542 871.557 712.827 866.177C710.867 860.111 700.537 863.894 696.98 865.765L700.145 868.931C701.949 864.815 705.702 849.478 696.412 851.467C692.678 852.271 691.345 856.367 690.385 859.582C688.915 864.637 688.472 869.935 689.081 875.164C689.356 877.702 693.334 877.77 693.109 875.164Z" fill="#382C80"/>
<path d="M93.741 832.857C91.2136 830.761 89.3426 827.981 88.351 824.851C88.008 823.724 87.224 821.587 87.7042 820.48C90.0366 815.1 92.6728 821.587 93.2608 823.312C93.8488 825.037 96.5536 825.752 97.563 823.871C98.5724 821.989 101.091 817.07 102.159 821.333C102.757 823.704 102.042 827.046 101.728 829.427C101.307 832.622 106.334 832.593 106.755 829.427C107.324 825.135 108.794 816.942 103.561 814.796C98.3274 812.65 94.427 817.618 93.3 822.058L97.6022 821.499C96.2106 818.304 94.476 814.982 90.8108 814.09C88.0219 813.312 85.0879 814.72 83.9508 817.383C81.1774 823.704 86.0872 831.926 90.8892 835.768C92.9178 837.395 95.7892 834.621 93.8292 832.828L93.741 832.857Z" fill="#382C80"/>
<path d="M834.18 941.294C822.538 938.629 812.551 929.965 808.906 918.47C806.495 910.865 809.729 904.436 818.039 903.77C824.899 903.211 831.23 907.592 836.659 911.218C838.796 912.659 841.618 909.807 840.207 907.67C833.21 897.037 831.965 880.622 845.234 874.203C850.389 871.714 856.612 871.998 860.679 876.31C864.501 880.377 865.697 886.336 862.571 891.108L867.637 891.775C862.463 875.34 868.431 853.065 887.786 850.115C895.42 848.949 904.181 851.222 908.925 857.671C915.373 866.442 913.158 878.623 911.316 888.521C911.046 889.629 911.454 890.792 912.357 891.487C913.26 892.182 914.489 892.28 915.491 891.736C926.849 885.797 941.833 887.639 951.065 896.714C960.296 905.789 962.442 920.744 956.807 932.259C955.279 935.375 959.885 938.139 961.502 935.003C968.607 921.283 966.245 903.643 955.132 892.647C944.018 881.651 926.251 879.633 912.619 886.826L916.794 890.04C918.95 878.202 921.057 864.364 913.197 854.064C907.317 846.391 897.243 843.343 887.894 844.47C864.727 847.283 855.956 873.233 862.286 893.245C862.609 894.299 863.517 895.068 864.61 895.212C865.703 895.355 866.779 894.847 867.363 893.911C871.283 887.835 870.175 879.858 865.903 874.252C861.275 868.226 853.344 865.781 846.126 868.157C827.663 873.821 825.977 896.302 835.728 910.297L839.276 906.749C832.259 902.339 824.488 897.655 815.844 899.233C808.68 900.546 803.016 906.093 803.241 913.639C803.722 929.211 818.921 942.059 833.19 944.94C835.542 945.41 836.561 941.863 834.17 941.314L834.18 941.294Z" fill="#382C80"/>
<path d="M777.507 930.906C772.734 921.361 783.044 911.571 792.354 916.628C794.764 917.931 796.92 914.246 794.5 912.953C788.777 909.895 781.446 910.493 776.732 915.187C772.019 919.881 771.46 927.074 774.4 932.749C775.468 934.846 778.594 933.003 777.546 930.906H777.507Z" fill="#382C80"/>
<path d="M353 941.657C347.463 924.607 344.61 906.8 344.543 888.874L343.416 890.834C348.933 887.208 354.627 901.222 356.156 904.75C359.059 911.545 360.945 918.73 361.751 926.075C362.124 929.289 366.926 929.485 366.916 926.075C366.836 916.582 368.534 907.159 371.924 898.292C373.603 893.979 375.693 889.837 378.166 885.924C380.195 882.7 383.576 877.202 386.438 882.71C388.27 886.228 387.976 890.158 387.663 893.97C387.241 899.295 386.545 904.594 385.575 909.846C383.702 919.859 380.911 929.677 377.235 939.178C376.01 942.372 381.155 943.764 382.361 940.589C386.951 928.58 390.15 916.085 391.896 903.349C392.974 895.401 395.934 881.201 387.349 875.909C378.362 870.44 371.62 886.12 368.915 892C364.023 902.682 361.566 914.317 361.722 926.065L366.798 925.379C365.457 915.598 362.408 906.128 357.792 897.4C355.097 892.334 349.384 882.828 342.181 886.218C338.555 887.924 340.005 892.912 340.221 896.185C340.485 901.271 340.995 906.328 341.701 911.365C343.203 922.026 345.693 932.525 349.139 942.725C349.952 945.175 353.823 944.136 353.059 941.657H353Z" fill="#382C80"/>
<path d="M342.984 929.917C340.252 928.496 337.601 926.923 335.046 925.203C333.772 924.282 332.263 925.34 331.783 926.536C328.843 933.994 333.743 943.069 341.583 944.774C344.415 945.391 345.611 941.207 342.788 940.403C340.19 939.647 338.01 937.87 336.745 935.479C335.48 933.087 335.238 930.285 336.075 927.712L333.341 929.241C336.003 930.401 338.598 931.71 341.113 933.161C343.229 934.258 345.082 931.132 342.984 929.946V929.917Z" fill="#382C80"/>
<path d="M473.354 123.886C471.752 124.858 471.097 126.853 471.811 128.585C472.525 130.318 474.395 131.272 476.217 130.833C478.039 130.394 479.269 128.694 479.116 126.826C479.045 125.752 478.561 124.747 477.764 124.023C476.831 123.189 475.557 122.851 474.334 123.112C473.167 123.431 472.422 124.571 472.599 125.767C472.772 126.956 473.78 127.843 474.981 127.865C474.569 127.786 474.491 127.786 474.745 127.865C475 127.943 475 127.943 474.745 127.865C474.54 127.767 474.52 127.767 474.696 127.865C474.412 127.629 474.344 127.571 474.481 127.698C474.285 127.326 474.902 128.07 474.481 127.698L474.353 127.384C474.419 127.639 474.419 127.561 474.353 127.149C474.353 127.639 474.51 126.6 474.353 127.071C474.52 126.728 474.549 126.63 474.451 126.787C474.353 126.943 474.451 126.865 474.628 126.561C474.344 126.894 475.049 126.316 474.687 126.502C475.049 126.355 475.118 126.326 474.883 126.414C474.647 126.502 474.706 126.414 474.883 126.414C475.324 126.414 474.814 126.414 474.736 126.414C474.657 126.414 474.647 126.414 475.02 126.414C474.794 126.346 474.853 126.414 475.186 126.512C474.834 126.326 475.51 126.855 475.186 126.512L475.363 126.738C475.255 126.532 475.265 126.581 475.363 126.875C475.358 126.81 475.358 126.744 475.363 126.679C475.363 126.522 475.363 126.591 475.363 126.894C475.363 126.894 475.304 126.502 475.363 126.483C475.317 126.777 475.317 126.816 475.363 126.6L475.284 126.806C475.392 126.64 475.373 126.649 475.235 126.806C475.296 126.739 475.361 126.677 475.431 126.62C476.062 125.991 476.125 124.991 475.578 124.288C475.028 123.596 474.06 123.401 473.285 123.827L473.354 123.886Z" fill="#382C80"/>
<path d="M441.866 124.866C440.22 125.079 438.867 126.269 438.446 127.875C438.194 128.916 438.379 130.016 438.958 130.918C439.538 131.819 440.461 132.444 441.514 132.647C443.905 132.971 445.541 130.805 445.551 128.59C445.547 126.552 444.235 124.746 442.298 124.112C441.069 123.82 439.81 124.461 439.324 125.626C438.837 126.791 439.266 128.137 440.338 128.806C440.583 128.914 440.984 129.237 440.553 128.884C440.328 128.649 440.916 129.188 440.553 128.884C440.779 129.119 440.612 129.247 440.612 128.982C440.534 128.796 440.612 128.718 440.612 128.982C440.69 129.168 440.612 129.1 440.612 128.914C440.524 128.424 440.759 129.237 440.612 128.776C440.612 128.59 440.612 128.571 440.612 128.708C440.612 128.825 440.612 128.845 440.612 128.708C441.161 128.286 441.18 127.63 442.307 128.032C442.623 128.126 442.869 128.373 442.964 128.688C442.846 128.414 442.964 128.61 442.964 128.776C442.974 128.659 442.974 128.541 442.964 128.424C442.964 128.62 442.876 128.737 442.964 128.492C443.17 127.963 442.846 128.737 442.964 128.433C442.984 128.378 443.01 128.326 443.042 128.277C443.101 128.179 443.101 128.179 443.042 128.277C442.984 128.375 442.239 128.62 442.797 128.473C443.758 128.202 444.317 127.204 444.047 126.243C443.776 125.282 442.778 124.723 441.817 124.994L441.866 124.866Z" fill="#382C80"/>
<path d="M426.627 84.0492C428.215 89.6646 433.781 93.2906 439.367 94.9566C447.366 97.3057 455.941 96.7183 463.544 93.3004C466.053 92.1538 468.679 90.3604 469.052 87.6164C471.482 95.182 480.606 98.5728 488.554 98.1514C492.474 97.9456 496.55 96.995 499.677 94.5646C502.803 92.1342 504.802 87.9986 503.881 84.1472C502.96 80.2958 498.579 77.3852 494.855 78.7278" fill="#382C80"/>
<path d="M423.178 84.99C425.932 94.9566 436.241 99.5822 445.718 100.67C454.802 101.65 469.424 99.9056 473.53 90.2722L463.985 89.0276C468.885 102.522 486.29 106.668 498.667 101.287C505.527 98.2788 510.76 91.0562 509.183 83.3142C507.791 76.4542 500.314 71.0544 493.424 73.7102C487.074 76.1602 489.504 84.8332 496.207 83.814C498.746 83.4318 498.814 86.754 498.079 88.273C496.482 91.4776 492.385 92.5262 489.102 92.8202C483.85 93.3004 476.157 91.899 474.05 86.2542C473.257 83.8636 470.876 82.3745 468.38 82.7075C465.883 83.0405 463.976 85.1016 463.838 87.6164C463.897 86.8422 464.22 86.9598 463.583 87.538C463.1 87.9512 462.574 88.3125 462.015 88.616C460.548 89.4141 458.997 90.0452 457.39 90.4976C453.834 91.5811 450.114 92.0224 446.404 91.801C440.475 91.4678 432.488 89.2236 430.067 83.0986C428.431 78.9238 421.923 80.4526 423.207 84.99H423.178Z" fill="#382C80"/>
<path d="M640.865 819.294C649.908 816.951 657.658 811.128 662.425 803.094C664.875 798.802 658.613 795.254 655.869 799.272C651.858 805.397 645.844 809.938 638.856 812.12C634.28 813.492 636.2 820.578 640.816 819.294H640.865Z" fill="#382C80"/>
<path d="M180.226 772.441C176.37 770.774 173.483 767.44 172.386 763.385C170.985 757.78 162.586 760.161 163.772 765.767C165.169 772.604 170.323 778.058 177.07 779.84C181.353 780.976 184.479 774.41 180.197 772.441H180.226Z" fill="#382C80"/>
<path d="M228.158 798.978C270.336 718.822 318.97 642.233 373.58 569.971C389.26 549.205 405.548 528.89 422.07 508.78C423.707 506.82 420.894 503.88 419.209 505.909C360.654 575.665 308.469 651.057 262.605 729.721C249.656 751.935 237.223 774.455 225.306 797.283C224.326 799.194 227.197 800.889 228.246 798.978H228.158Z" fill="white"/>
<path d="M553.194 497.472C574.553 577.446 588.353 659.25 594.413 741.805C596.109 764.855 597.157 787.944 597.843 811.052C597.931 813.727 602.057 813.747 602.028 811.052C600.989 728.575 590.875 645.912 573.392 565.337C568.384 542.258 562.612 519.375 556.34 496.599C556.051 495.792 555.188 495.344 554.362 495.573C553.536 495.803 553.026 496.631 553.194 497.472Z" fill="white"/>
<path d="M741.276 572.736C739.853 574.56 738.173 576.167 736.288 577.508C717.472 590.875 681.467 590.964 659.348 593.365C529.273 607.467 398.413 613.023 267.603 615.64C243.877 616.12 217.819 621.275 205.03 596.648C198.983 584.995 197.611 571.54 196.425 558.428C192.636 516.614 189.546 474.752 187.155 432.841C185.959 411.888 184.943 390.926 184.107 369.954C183.538 355.675 178.727 332.41 187.939 319.974C198.101 306.303 228.03 306.822 243.113 304.794C288.016 298.767 333.322 296.905 378.509 294.288C472.384 288.849 566.101 280.127 659.211 266.995C669.383 265.564 679.869 264.055 689.826 266.623C720.284 274.375 719.226 307.9 724.312 332.596C732.975 374.531 738.571 417.023 742.932 459.595C745.118 480.91 746.97 502.254 748.753 523.598C749.998 538.583 751.096 560.103 741.276 572.736Z" fill="white"/>
<path d="M737.954 569.414C731.564 577.254 720.774 580.4 711.288 582.585C700.371 585.094 689.189 586.152 678.056 587.064C651.459 589.239 624.95 592.307 598.363 594.668C538.357 600 478.215 603.704 418.043 606.34C388.074 607.647 358.096 608.712 328.108 609.535C301.178 610.29 274.208 611.328 247.287 611.74C238.144 611.877 228.334 611.485 220.259 606.683C210.243 600.744 205.961 589.043 203.707 578.214C200.767 564.181 200.296 549.52 199.091 535.271C197.824 520.296 196.648 505.312 195.563 490.318C193.407 460.467 191.607 430.597 190.163 400.707C189.526 387.604 189.34 374.433 188.203 361.37C187.282 351.001 185.714 339.81 188.595 329.618C191.114 320.709 198.258 316.789 206.706 314.447C215.82 311.929 225.326 311.262 234.685 310.449C246.993 309.381 259.185 307.509 271.523 306.294C286.625 304.784 301.766 303.628 316.907 302.638C376.687 298.718 436.388 295.778 496.031 290.467C526.137 287.775 556.19 284.681 586.191 281.186C601.074 279.448 615.944 277.606 630.801 275.659C645.305 273.748 659.975 270.759 674.597 270.112C685.504 269.632 696.578 271.964 704.173 280.304C709.857 286.537 712.533 294.945 714.385 303.011C716.345 311.782 717.393 320.749 718.961 329.608C721.343 343.093 724.244 356.489 726.507 370.013C731.407 399.501 735.102 429.195 738.16 458.938C739.669 473.638 741.021 488.338 742.305 503.117C743.383 515.494 744.912 527.97 744.853 540.416C744.804 550.804 743.628 561.799 737.229 570.364C733.612 575.206 741.746 579.89 745.323 575.098C752.183 565.925 753.928 553.891 754.202 542.758C754.506 530.018 752.909 517.278 751.821 504.675C749.155 473.952 746.176 443.249 742.197 412.653C740.237 397.59 738.062 382.547 735.553 367.573C733.22 353.608 730.153 339.79 727.781 325.835C724.743 308.038 723.607 287.772 710.808 273.728C692.09 253.148 660.72 262.341 636.945 265.516C605.958 269.651 574.924 273.323 543.845 276.531C481.674 282.97 419.385 287.517 356.959 290.966C325.874 292.691 294.778 294.416 263.859 297.768C252.266 299.012 240.741 300.561 229.128 301.609C219.122 302.511 208.715 303.481 199.238 307.068C190.104 310.537 183.156 316.27 180.001 325.747C176.551 336.076 177.609 347.62 178.55 358.263C181.108 387.202 181.49 416.387 183.235 445.385C185.103 476.431 187.36 507.445 190.006 538.426C191.251 552.93 191.81 567.826 194.985 582.095C197.572 593.708 202.629 605.38 212.39 612.7C229.451 625.44 254.069 620.717 273.855 620.305C305.137 619.652 336.415 618.796 367.69 617.738C430.224 615.582 492.738 612.436 555.135 607.683C586.318 605.298 617.473 602.492 648.597 599.265C671.471 596.864 695.275 596.697 717.589 590.758C727.331 588.161 738.081 584.143 744.637 576.107C748.381 571.413 741.776 564.739 737.954 569.414Z" fill="#382C80"/>
<path d="M759.161 537.887C749.488 542.444 739.051 547.129 728.497 545.384C722.088 544.336 715.365 539.504 715.757 533.026C716.119 526.97 722.617 522.942 728.605 522.354C722.204 522.858 716.451 518.464 715.254 512.156C714.057 505.849 717.8 499.652 723.94 497.776C717.57 497.188 711.082 493.523 708.995 487.466C706.907 481.41 711.063 473.501 717.462 473.286C712.964 473.07 708.936 470.13 706.368 466.426C704.408 463.593 703.115 460.046 703.889 456.684C704.8 452.637 708.368 449.824 711.905 447.629C726.801 438.486 745.784 434.83 756.584 421.081" fill="white"/>
<path d="M758.142 534.192C748.93 537.632 738.209 543.355 728.105 540.65C725.028 539.817 720.529 537.387 720.539 533.672C720.549 529.958 725.439 527.792 728.595 527.44C734.926 526.714 735.308 517.159 728.595 517.267C720.128 517.395 716.835 505.811 725.263 502.567C727.618 501.855 729.107 499.537 728.776 497.099C728.444 494.66 726.39 492.824 723.93 492.767C720.01 492.375 715.11 490.141 713.63 486.162C712.562 483.349 713.914 478.322 717.452 477.969C720.05 477.969 722.156 475.863 722.156 473.265C722.156 470.667 720.05 468.561 717.452 468.561C711.464 468.003 705.535 459.741 710.181 454.704C714.453 450.049 721.647 447.403 727.291 444.855C739.051 439.553 751.419 434.575 759.769 424.275C763.404 419.787 757.054 413.348 753.369 417.876C742.717 430.988 725.214 434.692 711.092 442.768C703.811 446.942 697.372 453.224 699.43 462.368C701.558 470.844 708.759 477.086 717.452 477.989V468.581C708.632 469.365 702.664 477.538 703.82 486.221C705.045 495.482 713.944 501.372 722.607 502.557V492.944C714.267 495.766 708.711 504.096 710.23 512.965C711.7 521.609 719.961 527.792 728.595 527.42L727.242 517.424C720.941 518.345 714.571 522.059 712.033 528.126C709.299 534.652 712.17 541.483 717.599 545.57C730.555 555.311 748.714 548.294 761.092 541.169C764.737 539.072 762.307 532.614 758.152 534.172L758.142 534.192Z" fill="#382C80"/>
<path d="M167.888 544.639C177.688 548.892 188.272 553.253 198.768 551.186C205.147 549.931 211.723 544.894 211.125 538.446C210.577 532.409 204.011 528.577 197.964 528.185C204.389 528.513 210.026 523.943 211.034 517.589C212.042 511.236 208.095 505.145 201.884 503.469C208.234 502.685 214.624 498.814 216.506 492.689C218.387 486.564 214.007 478.793 207.607 478.773C212.096 478.411 216.025 475.353 218.485 471.57C220.357 468.679 221.523 465.093 220.661 461.77C219.612 457.762 215.957 455.028 212.36 452.95C197.19 444.287 178.06 441.19 166.878 427.813" fill="white"/>
<path d="M165.957 547.942C178.913 554.87 198.376 561.662 210.861 550.068C215.653 545.639 217.476 538.642 214.369 532.713C211.155 526.607 204.491 523.804 197.964 523.069V533.252C206.696 533.359 214.751 527.019 216.025 518.238C217.299 509.457 211.517 501.166 203.178 498.638V508.252C211.998 506.743 220.945 500.412 221.67 490.798C222.307 482.35 216.084 474.55 207.578 474.06L208.822 483.301C216.976 482.194 223.954 474.804 225.335 466.798C226.923 457.615 219.916 451.716 212.595 447.874C198.366 440.416 180.961 437.202 170.054 424.599C166.232 420.189 159.862 426.608 163.654 430.998C172.317 441.043 184.793 445.698 196.729 450.598C202.384 452.931 209.175 455.302 213.762 459.477C219.005 464.269 214.007 473.246 207.578 474.05C201.698 474.785 201.394 483.027 207.578 483.458C210.939 483.693 212.635 488.035 211.949 490.925C210.969 495.208 205.902 497.903 201.855 498.442C196.435 499.167 194.897 506.282 200.532 508.242C208.93 511.182 206.617 522.942 197.964 523.05C191.329 523.148 191.506 532.703 197.964 533.232C200.845 533.467 204.824 534.81 206.059 537.769C207.627 541.591 203.178 544.816 200.179 546.021C190.153 550.039 178.335 544.061 168.917 540.925C164.811 539.533 162.155 545.884 165.977 547.922L165.957 547.942Z" fill="#382C80"/>
<path d="M467.248 275.903C467.836 268.563 467.856 261.203 468.14 253.814C468.424 246.425 469.12 239.114 469.052 231.735C468.963 225.502 460.29 225.855 459.604 231.735C458.752 239.026 458.928 246.484 458.909 253.814C458.889 261.144 458.84 268.573 459.555 275.903C459.659 277.952 461.35 279.56 463.402 279.56C465.453 279.56 467.145 277.952 467.248 275.903Z" fill="#382C80"/>
<path d="M482.527 262.547C488.181 262.547 488.191 253.727 482.527 253.727C476.862 253.727 476.852 262.547 482.527 262.547Z" fill="#382C80"/>
<path d="M464.054 155.423C468.623 155.759 472.868 153.047 474.481 148.759C475.324 146.632 471.727 145.093 470.767 147.191C469.581 149.758 466.994 151.944 464.054 151.963C463.149 152.031 462.449 152.785 462.449 153.693C462.449 154.6 463.149 155.354 464.054 155.423Z" fill="#382C80"/>
<path d="M270.876 393.798C270.868 384.612 274.564 375.812 281.127 369.386C275.315 365.196 268.329 362.947 261.164 362.957C247.327 362.957 230.5 372.6 226.58 386.32C223.709 396.434 226.776 409.135 233.254 417.278C245.837 433.105 270.494 435.977 285.194 421.59C276.216 415.179 270.884 404.83 270.876 393.798Z" fill="#7F72FF"/>
<path d="M275.58 393.797C275.655 385.886 278.82 378.317 284.4 372.708C285.399 371.663 285.87 370.221 285.68 368.788C285.489 367.354 284.658 366.085 283.42 365.338C263.82 351.745 232.323 359.458 222.993 382.194C213.713 404.822 231.186 430.724 254.089 434.879C266.462 437.274 279.23 433.56 288.389 424.902C290.78 422.629 289.77 419.267 287.409 417.543C279.992 411.894 275.622 403.12 275.58 393.797C275.472 387.77 266.094 387.751 266.201 393.797C266.379 406.436 272.529 418.246 282.783 425.637L281.803 418.268C273.855 425.833 262.575 427.96 252.178 424.755C240.966 421.306 233.126 412.094 230.765 400.706C228.246 388.544 233.803 378.411 244.347 372.394C255.392 366.102 268.181 366.122 278.736 373.433L277.756 366.073C270.434 373.458 266.27 383.399 266.143 393.797C266.074 399.834 275.453 399.834 275.58 393.797Z" fill="#7F72FF"/>
<path d="M305.107 359.576C296.136 359.561 287.52 363.082 281.127 369.376C289.33 375.265 294.512 384.476 295.287 394.543C296.062 404.611 292.35 414.507 285.145 421.581C290.956 425.773 297.942 428.023 305.107 428.01C329.549 428.01 347.336 401.746 337.193 379.215C331.273 366.093 318.935 359.576 305.107 359.576Z" fill="white"/>
<path d="M305.107 354.882C294.916 355.015 285.157 359.015 277.805 366.073C275.413 368.337 276.433 371.708 278.785 373.433C293.347 384.282 294.406 405.499 281.852 418.268C280.853 419.313 280.382 420.755 280.572 422.188C280.763 423.621 281.594 424.891 282.832 425.638C299.805 437.278 322.883 433.859 335.752 417.798C347.669 402.921 347.865 381.44 334.772 367.132C327.187 358.821 316.152 355.048 305.117 354.911C299.071 354.833 299.071 364.211 305.117 364.29C314.633 364.417 323.982 367.886 329.784 375.756C335.337 383.347 336.861 393.161 333.87 402.079C330.897 411.249 323.746 418.464 314.603 421.521C305.459 424.577 295.407 423.112 287.516 417.572L288.496 424.932C305.627 407.508 302.873 379.784 283.528 365.368L284.508 372.737C290.07 367.392 297.462 364.37 305.176 364.29C311.134 364.153 311.154 354.774 305.107 354.882Z" fill="#7F72FF"/>
<path d="M295.386 397.179C295.393 386.157 290.084 375.808 281.127 369.386C273.918 376.458 270.204 386.355 270.979 396.424C271.754 406.493 276.939 415.704 285.145 421.59C291.705 415.163 295.397 406.363 295.386 397.179Z" fill="white"/>
<path d="M297.728 397.179C297.581 385.363 291.867 374.31 282.313 367.357C281.391 366.82 280.223 366.973 279.471 367.73C271.917 375.392 268.071 385.962 268.933 396.687C269.794 407.412 275.279 417.231 283.959 423.59C284.881 424.124 286.047 423.971 286.801 423.217C293.691 416.277 297.61 406.928 297.728 397.149C297.787 394.131 293.093 394.131 293.044 397.149C292.941 405.691 289.509 413.855 283.479 419.905L286.321 419.532C278.856 413.937 274.181 405.383 273.502 396.078C272.824 386.774 276.209 377.632 282.783 371.013L279.941 371.385C288.098 377.451 292.946 386.985 293.044 397.149C293.093 400.197 297.787 400.207 297.728 397.179Z" fill="#7F72FF"/>
<path d="M252.06 484.692C323.6 484.084 395.022 484.084 466.327 477.273C486.349 475.362 506.38 473.089 526.225 469.845C529.41 469.326 528.028 464.592 524.902 465.043C489.475 470.1 453.989 473.932 418.268 476.215C382.831 478.479 347.326 479.478 311.83 480.282C291.907 480.743 271.983 481.311 252.05 481.517C250.012 481.517 250.002 484.712 252.05 484.692H252.06Z" fill="#382C80"/>
<path d="M258.753 518.423C319.621 525.43 381.675 524.235 442.425 516.63C459.35 514.513 476.539 512.396 493.14 508.437C495.972 507.761 494.688 503.821 491.974 504.194C476.676 506.311 461.506 509.251 446.178 511.25C431.152 513.21 416.083 514.745 400.971 515.856C370.746 518.077 340.424 518.672 310.135 517.639C292.975 517.071 275.835 515.895 258.753 514.464C256.215 514.249 256.294 518.1 258.753 518.384V518.423Z" fill="#382C80"/>
<path d="M516.052 505.106H517.63C518.788 505.106 519.727 504.167 519.727 503.008C519.727 501.85 518.788 500.911 517.63 500.911H516.052C514.931 500.987 514.061 501.919 514.061 503.043C514.061 504.166 514.931 505.098 516.052 505.174V505.106Z" fill="#382C80"/>
<path d="M264.908 555.859C302.442 558.907 340.368 560.25 377.961 558.799C380.803 558.692 380.832 554.321 377.961 554.37C340.221 555.036 302.589 554.654 264.908 552.086C262.458 551.92 262.487 555.703 264.908 555.899V555.859Z" fill="#382C80"/>
<path d="M407.576 556.066C416.161 555.184 424.756 554.919 433.37 554.409C435.722 554.272 435.761 550.744 433.37 550.725C424.735 550.826 416.117 551.517 407.576 552.792C405.538 553.057 405.45 556.291 407.576 556.066Z" fill="#382C80"/>
<path d="M677.262 449.952C646.579 463.221 612.034 460.8 579.38 463.221C577.42 463.368 575.127 463.436 573.608 462.123C572.598 461.066 571.917 459.738 571.648 458.301C566.211 439.907 563.934 420.724 564.915 401.569C565.121 397.482 565.66 393.004 568.678 390.25C571.413 387.751 575.421 387.398 579.115 387.134C608.296 385.006 637.238 380.364 665.62 373.257C668.413 372.561 671.5 371.855 674.077 373.051C677.351 374.56 678.693 378.412 679.605 381.871C684.344 399.84 686.518 418.389 686.063 436.967C685.994 439.681 685.837 442.533 684.397 444.807C682.809 447.364 679.987 448.776 677.262 449.952Z" fill="#7F72FF"/>
<path d="M676.341 446.63C655.242 454.715 632.496 456.528 610.113 457.41C604.968 457.625 599.823 457.811 594.688 458.027C591.895 458.135 589.111 458.262 586.318 458.399L582.163 458.644C581.036 458.713 577.939 459.458 576.94 458.87C575.47 458.007 575.078 454.225 574.696 452.774C573.951 449.913 573.275 447.035 572.667 444.14C571.434 438.315 570.525 432.426 569.943 426.5C569.379 420.658 569.124 414.789 569.178 408.919C569.178 404.852 568.414 397.571 571.138 394.102C573.863 390.632 580.625 391.475 584.358 391.162C590.637 390.639 596.906 390.008 603.165 389.27C615.094 387.872 626.962 386.069 638.768 383.861C644.227 382.881 649.685 381.901 655.134 380.764C658.074 380.166 661.014 379.509 663.954 378.804C665.796 378.373 669.501 376.844 671.461 377.559C673.421 378.275 673.911 381.391 674.401 383.184C675.322 386.565 676.086 390.044 676.792 393.435C678.109 399.844 679.09 406.318 679.732 412.829C680.349 419.327 680.614 425.834 680.624 432.361C680.624 435.017 681.192 438.692 680.114 441.181C679.134 443.356 676.606 444.356 674.616 445.356C669.471 447.913 673.107 456.91 678.536 454.764C683.966 452.617 688.885 449.55 690.571 443.474C692.256 437.398 691.551 430.264 691.286 424.05C690.69 409.777 688.591 395.606 685.024 381.773C683.672 376.569 681.721 370.993 676.625 368.386C670.745 365.339 663.503 368.328 657.564 369.807C643.599 373.286 629.605 376.226 615.424 378.373C608.349 379.451 601.257 380.359 594.149 381.097C587.455 381.793 580.595 381.901 573.961 383.057C560.241 385.37 560.143 399.168 560.172 410.37C560.236 424.214 561.95 438.002 565.278 451.441C566.562 456.675 567.375 464.113 572.902 466.622C575.587 467.847 578.576 467.494 581.428 467.298C584.897 467.053 588.376 466.857 591.855 466.69C621.451 465.269 651.537 465.612 678.958 452.813C682.496 451.294 679.997 445.228 676.341 446.63Z" fill="#7F72FF"/>
<path d="M561.877 440.779C586.024 439.466 610.113 438.123 634.093 434.899C658.074 431.675 682.584 427.059 704.938 417.867C707.397 416.887 706.486 412.869 703.801 413.751C681.175 421.3 657.937 426.874 634.348 430.411C610.338 433.89 586.054 435.85 561.828 437.77C559.868 437.927 559.868 440.926 561.828 440.818L561.877 440.779Z" fill="white"/>
<path d="M595.746 381.939C595.615 387.837 596.466 393.716 598.265 399.334C599.519 402.931 601.636 406.596 605.428 407.909C607.731 408.713 609.819 408.105 612.151 408.164C616.434 408.262 616.718 411.986 617.375 415.279C618.649 421.688 619.766 428.137 621.128 434.526C621.726 437.349 625.93 436.133 625.42 433.35C624.244 426.908 623.013 420.486 621.726 414.083C620.971 410.35 620.07 405.871 616.12 404.283C613.837 403.352 611.553 403.98 609.182 404.009C606.075 404.058 604.282 402.284 602.939 399.648C600.195 394.121 600.166 387.457 599.019 381.518C598.647 379.666 595.824 380.156 595.795 381.959L595.746 381.939Z" fill="white"/>
<path d="M631.026 374.374C632.986 383.283 634.505 392.289 635.926 401.285C637.347 410.282 637.886 419.533 639.846 428.343C640.385 430.705 644.168 430.205 644.08 427.775C643.746 418.886 641.492 409.713 639.866 400.972C638.16 391.769 636.112 382.655 634.064 373.532C633.613 371.503 630.526 372.365 630.957 374.384L631.026 374.374Z" fill="white"/>
<path d="M591.777 440.22C592.757 447.462 593.737 454.724 594.717 461.966C595.06 464.367 598.745 463.358 598.372 460.986C597.275 453.774 596.079 446.571 594.952 439.368C594.629 437.241 591.444 438.162 591.738 440.25L591.777 440.22Z" fill="white"/>
<path d="M664.542 429.842C665.62 436.006 666.6 442.18 667.747 448.325C668.207 450.843 672.039 449.775 671.578 447.276C670.461 441.132 669.266 434.997 668.08 428.872C667.629 426.539 664.16 427.549 664.542 429.852V429.842Z" fill="white"/>
<path d="M653.282 368.543C654.262 372.551 655.144 376.55 656.104 380.548C656.457 382.047 656.829 383.547 657.182 385.046C657.574 386.693 658.75 389.466 658.466 391.152C658.015 393.719 651.557 394.542 649.362 395.072C645.52 395.944 641.522 396.052 637.739 396.904C634.926 397.571 635.848 401.353 638.376 401.618C643.08 402.108 648.372 400.716 652.86 399.433C655.967 398.541 660.642 397.59 662.337 394.425C664.032 391.259 662.082 387.094 661.239 383.958C659.779 378.5 658.299 373.041 656.849 367.592C656.232 365.289 652.743 366.26 653.282 368.572V368.543Z" fill="white"/>
<path d="M560.005 406.273C563.576 405.78 567.182 405.577 570.785 405.665C573.804 405.665 573.804 401.01 570.785 400.971C566.806 400.964 562.846 401.525 559.025 402.637C556.634 403.313 557.683 406.625 560.005 406.273Z" fill="white"/>
</svg>
