<svg width="1000" height="1000" viewBox="0 0 1000 1000" fill="none" xmlns="http://www.w3.org/2000/svg">
<path d="M719.921 439.24C719.405 487.175 720.18 535.094 722.244 582.996C722.861 597.187 731.897 596.138 742.912 599.098C757.25 602.939 771.42 605.87 786.307 606.389C804.75 607.026 823.282 604.625 841.637 606.516C853.897 607.781 865.873 610.936 877.986 613.21C888.93 615.266 899.999 616.592 911.119 617.179C919.342 617.61 931.543 619.697 939.539 617.032C956.062 611.495 951.25 576.94 950.79 563.602C949.326 521.064 949.588 478.509 951.574 435.938" fill="#7F72FF"/>
<path d="M717.756 439.24C716.551 482.625 717.021 525.99 718.54 569.365C718.726 574.529 718.648 579.802 719.197 584.937C719.392 588.158 720.441 591.27 722.235 593.953C725.733 598.745 731.672 599.911 737.121 601.087C746.284 603.047 755.251 605.752 764.502 607.369C774.752 609.126 785.139 609.963 795.539 609.868C806.142 609.79 816.726 609.104 827.33 609.211C837.958 609.396 848.543 610.614 858.935 612.847C869.284 614.974 879.515 617.277 890.03 618.727C899.566 620.031 909.14 620.55 918.715 621.393C926.418 622.079 935.375 623.088 942.617 619.629C947.605 617.247 950.643 612.436 952.417 607.398C956.494 596.06 955.455 583.016 954.71 571.217C953.564 553.204 953.446 535.094 953.348 517.052C953.24 495.414 953.672 473.795 954.328 452.166C954.491 446.757 954.681 441.354 954.897 435.957C955.083 431.547 948.301 431.577 948.037 435.957C945.851 477.588 945.655 519.336 947.057 561.005C947.429 572.256 948.801 583.545 947.762 594.766C947.292 599.803 946.351 605.311 943.48 609.574C940.255 614.356 934.532 614.797 929.172 614.797C920.665 614.797 912.002 613.817 903.525 613.122C893.562 612.285 883.656 610.861 873.86 608.859C863.825 606.83 853.839 604.507 843.657 603.302C833.475 602.097 823.194 602.322 812.963 602.626C802.899 602.969 792.814 603.478 782.75 602.89C772.734 602.206 762.796 600.662 753.046 598.275C748.901 597.295 744.804 596.119 740.649 595.207C737.856 594.59 735.014 594.129 732.29 593.247C725.91 591.209 725.547 585.858 725.273 579.86C723.401 538.259 722.715 496.629 722.215 454.989C722.156 449.762 722.107 444.516 722.068 439.25C722.068 436.457 717.815 436.457 717.737 439.25L717.756 439.24Z" fill="#7F72FF"/>
<path d="M383.527 431.4C363.447 428.343 343.132 434.34 324.228 441.769C305.323 449.197 286.733 458.135 266.682 461.369C245.983 464.652 224.774 461.68 205.775 452.833C190.791 445.816 177.708 435.32 165.164 424.54C154.384 415.328 143.604 405.273 138.567 392.053C131.246 372.806 137.685 351.315 144.662 331.94C149.249 319.2 154.08 311.977 168.182 316.329C181.001 320.249 191.291 330.294 200.042 340.025C212.86 354.274 223.082 370.111 234.959 385.007C238.056 388.927 245.063 396.532 249.806 397.62C257.127 399.295 269.906 394.023 277.246 392.475C314.604 384.517 352.775 375.197 391.23 379.735C406.273 381.499 420.14 384.978 429.921 397.59C437.255 407.146 440.396 419.27 438.623 431.185" fill="white"/>
<path d="M384.115 429.263C359.223 425.432 335.419 434.31 312.712 443.503C301.227 448.158 289.712 452.901 277.697 456.057C266.096 459.17 254.049 460.283 242.074 459.349C230.196 458.391 218.582 455.332 207.774 450.314C196.994 445.267 187.194 438.426 177.962 430.92C160.92 417.033 140.595 401.206 138.929 377.5C138.086 365.377 141.065 353.372 144.809 341.926C146.295 336.914 148.105 332.003 150.228 327.226C151.6 324.335 153.315 321.15 156.226 319.552C159.401 317.818 163.213 318.445 166.535 319.376C171.698 320.945 176.551 323.392 180.883 326.608C190.046 333.145 197.699 341.994 204.755 350.677C212.595 360.35 219.749 370.591 227.295 380.508C232.695 387.584 238.889 396.825 247.464 400.304C251.384 401.892 255.902 401.284 259.91 400.481C264.624 399.569 269.2 398.07 273.806 396.747C285.292 393.484 297.326 391.445 309.008 389.103C334.351 384.027 360.213 380.283 386.114 382.459C396.149 383.321 406.743 384.752 415.71 389.652C425.014 394.862 431.794 403.638 434.487 413.956C435.949 419.299 436.309 424.884 435.545 430.371C435.125 432.058 436.098 433.78 437.76 434.291C439.24 434.722 441.416 433.771 441.68 432.086C443.444 420.533 440.958 408.733 434.683 398.874C428.802 389.975 420.014 383.394 409.82 380.254C398.717 376.637 386.516 375.716 374.913 375.442C361.555 375.248 348.203 376.136 334.988 378.098C321.66 379.94 308.459 382.586 295.298 385.369C288.8 386.741 282.293 388.054 275.825 389.544C271.141 390.622 266.593 392.219 261.929 393.386C258.224 394.317 253.177 395.806 249.483 394.121C245.416 392.259 242.025 388.241 239.153 384.977C231 375.608 224.12 365.083 216.613 355.195C209.263 345.503 201.551 335.918 192.584 327.667C184.675 320.385 174.944 313.565 164.056 312.046C155.383 310.84 148.876 315.142 144.966 322.708C142.682 327.458 140.756 332.372 139.203 337.408C137.07 343.503 135.306 349.721 133.921 356.028C131.363 368.209 130.746 381.214 135.215 393.052C139.291 403.832 146.837 412.652 155.187 420.492C164.036 428.671 173.426 436.244 183.293 443.16C193.466 450.324 204.344 456.37 216.192 460.261C240.496 468.228 265.858 466.523 289.81 458.301C314.133 449.932 337.212 436.613 363.104 433.517C369.686 432.679 376.347 432.679 382.929 433.517C385.722 433.899 386.967 429.665 384.115 429.224V429.263Z" fill="#382C80"/>
<path d="M232.304 381.645C221.524 367.759 211.89 353.225 200.042 340.054C191.291 330.323 181.001 320.307 168.182 316.358C154.08 312.007 149.249 319.239 144.662 331.969C137.685 351.344 131.246 372.835 138.567 392.082C143.604 405.303 154.433 415.357 165.164 424.569C175.895 433.781 187.253 442.964 199.777 449.785C201.365 442.18 205.491 433.742 207.892 427.598C214.241 411.395 222.432 395.976 232.304 381.645Z" fill="white"/>
<path d="M234.538 379.46C222.082 363.349 210.842 346.219 196.475 331.675C190.105 325.217 182.921 319.18 174.562 315.466C168.153 312.614 160.274 310.292 153.58 313.604C147.7 316.544 144.76 322.983 142.506 328.775C138.772 338.079 135.876 347.698 133.853 357.518C131.991 367.122 131.403 377.069 133.608 386.683C135.725 395.875 140.566 404.009 146.632 411.134C153.59 419.287 161.969 426.226 170.221 433.017C178.909 440.371 188.262 446.9 198.16 452.519C199.012 453.005 200.039 453.074 200.948 452.705C201.856 452.336 202.545 451.57 202.815 450.628C204.109 444.748 206.461 439.152 208.803 433.605C211.145 428.058 213.35 422.306 215.908 416.769C221.319 405.076 227.712 393.864 235.018 383.253C237.331 379.882 231.843 376.706 229.54 380.048C222.061 390.931 215.536 402.44 210.038 414.446C207.519 419.954 205.344 425.608 202.992 431.185C200.552 436.976 198.092 442.788 196.7 448.942L201.355 447.051C185.42 438.26 170.72 426.245 157.686 413.564C151.689 407.733 146.211 401.285 142.653 393.66C138.733 385.271 137.959 375.883 138.831 366.779C139.733 357.332 142.457 348.09 145.495 339.143C147.524 333.185 149.356 325.639 153.953 321.033C158.372 316.603 164.987 318.377 170.162 320.396C178.002 323.473 184.803 329 190.742 334.89C205.706 349.639 217.202 367.338 230.02 383.89C231.079 385.252 233.391 384.978 234.499 383.89C235.89 382.567 235.577 380.754 234.538 379.46Z" fill="#382C80"/>
<path d="M159.146 426C147.817 418.729 132.686 419.758 120.426 425.314C105.952 431.88 83.3923 448.403 77.3065 463.858C71.2207 479.312 82.5005 501.548 91.5851 513.642C102.649 528.342 118.221 539.269 135.048 546.717C147.396 552.185 160.469 555.899 172.739 561.554C190.134 569.58 202.668 581.34 209.469 599.303C218.965 624.362 227.776 649.685 236.811 674.91C241.643 688.385 246.464 701.88 251.374 715.335C257.185 731.3 264.624 737.513 282.842 733.426L327.02 723.518C336.007 721.5 346.944 718.501 353.764 711.876C357.322 708.426 359.566 703.174 358.086 698.44C356.881 694.599 353.461 691.806 349.776 690.149C346.091 688.493 342.083 687.788 338.202 686.661C321.601 681.849 313.614 673.362 308.743 657.329C299.031 625.411 287.918 593.737 271.925 564.464C255.931 535.192 225.718 490.847 186.086 475.696" fill="white"/>
<path d="M160.381 423.883C135.93 408.635 105.932 427.059 88.0567 444.287C78.9819 453.029 71.6711 463.505 72.7099 476.627C73.7487 489.749 80.0109 502.675 87.5471 513.357C95.8575 525.117 106.912 534.751 119.231 542.179C133.186 550.588 148.631 555.311 163.683 561.328C176.423 566.405 188.428 573.226 197.052 584.094C201.055 589.274 204.231 595.043 206.47 601.195C209.665 609.688 212.791 618.181 215.849 626.675C221.876 643.335 227.726 660.122 233.714 676.831C236.778 685.383 239.846 693.932 242.916 702.478C245.474 709.573 247.679 716.992 251.08 723.744C253.153 728.214 256.384 732.047 260.439 734.847C264.692 737.591 269.925 738.434 274.913 738.169C282.587 737.758 290.201 735.435 297.669 733.759L323.864 727.879C331.028 726.272 338.153 724.675 344.905 721.735C350.991 719.079 357.351 715.061 360.311 708.887C363.388 702.458 362.329 695.167 356.832 690.404C351.01 685.377 343.268 684.642 336.251 682.26C325.667 678.674 317.935 671.696 313.888 661.21C311.046 653.831 309.086 646.069 306.636 638.562C304.049 630.624 301.334 622.725 298.433 614.895C288.379 587.769 275.991 561.485 259.763 537.475C244.974 515.611 227.021 494.473 204.177 480.743C198.701 477.483 192.953 474.702 186.998 472.433C182.95 470.865 181.206 477.333 185.204 478.92C208.724 488.015 227.756 507.154 243.024 526.617C258.792 546.736 271.493 569.306 281.773 592.659C288.241 607.359 293.749 622.441 298.786 637.67C301.207 644.991 303.363 652.37 305.754 659.701C307.392 665.111 309.912 670.213 313.212 674.803C320.552 684.524 331.302 688.523 342.69 691.541C348.012 692.962 355.979 695.804 354.891 702.791C353.911 709.171 347.051 713.042 341.69 715.365C335.409 718.089 328.627 719.471 321.983 720.961L297.326 726.498C290.015 728.134 282.459 730.594 274.943 730.996C270.837 731.211 266.603 730.682 263.261 728.056C259.733 725.331 257.548 721.039 255.882 717.011C252.854 709.691 250.404 702.076 247.718 694.618C241.936 678.546 236.18 662.464 230.451 646.373C224.708 630.32 219.024 614.229 212.87 598.353C208.477 586.636 200.96 576.347 191.133 568.6C179.697 559.682 166.006 554.88 152.521 549.98C138.468 544.884 124.895 539.063 112.812 530.106C102.354 522.388 93.6669 512.524 87.3315 501.176C81.5397 490.876 75.8361 477.166 79.9717 465.308C81.8827 459.849 85.7733 455.047 89.6737 450.882C94.0719 446.235 98.8949 442.009 104.08 438.26C114.164 430.91 125.64 424.089 138.439 423.384C145.257 422.905 152.057 424.552 157.901 428.097C160.587 429.773 163.046 425.54 160.371 423.874L160.381 423.883Z" fill="#382C80"/>
<path d="M275.727 667.463C290.633 661.416 306.107 654.977 316.789 642.963C320.15 639.18 322.992 633.408 319.994 629.331C318.034 626.626 314.319 625.979 311.34 624.431C302.844 619.972 299.727 605.507 296.317 597.363C291.605 586.072 286.32 575.029 280.48 564.278C268.338 541.993 253.628 520.58 235.4 502.842C225.678 493.415 214.82 484.957 202.609 478.96C196.857 476.137 191.996 474.55 188.34 468.944C185.008 463.838 183.676 457.654 179.667 452.941C176.265 449.197 171.776 446.612 166.829 445.551C150.973 441.7 132.529 451.961 129.001 467.895C126.365 479.793 131.726 492.219 139.507 501.607C147.288 510.996 157.353 518.15 166.369 526.352C191.908 549.588 208.607 580.723 224.806 611.211C231.235 623.323 237.713 635.534 241.574 648.686C243.416 654.958 244.7 661.514 248.042 667.129C251.384 672.745 257.46 677.351 263.957 676.655" fill="white"/>
<path d="M276.374 669.824C285.9 665.973 295.631 662.161 304.392 656.741C308.85 654.018 312.983 650.796 316.711 647.137C320.131 643.737 323.404 639.67 324.041 634.73C324.659 629.977 322.081 626.077 317.857 624.039C314.114 622.216 310.85 621.157 308.322 617.649C303.53 611.024 301.874 602.586 298.757 595.109C289.79 573.716 279.049 553.028 265.849 533.918C253.236 515.631 238.262 498.481 220.161 485.437C215.661 482.192 210.928 479.284 206 476.735C201.992 474.667 197.288 473.148 193.907 470.081C190.105 466.631 188.566 461.506 186.371 457.017C184.215 452.303 180.722 448.327 176.326 445.581C160.734 436.163 139.027 442.582 129.423 457.556C117.379 476.333 130.04 498.393 144.123 511.76C152.169 519.414 161.126 526.009 168.986 533.859C176.563 541.488 183.471 549.754 189.634 558.565C202.198 576.313 212.4 595.589 222.562 614.758C228.07 625.146 233.548 635.622 237.184 646.843C240.447 656.898 241.927 668.55 250.708 675.577C254.371 678.711 259.106 680.302 263.918 680.016C268.181 679.654 268.279 673.009 263.918 673.284C253.413 673.97 249.032 662.278 246.758 654.046C243.865 643.453 239.963 633.162 235.106 623.313C225.953 604.772 216.016 586.358 205.059 568.806C194.368 551.675 182.039 535.378 166.839 521.981C152.58 509.418 132.275 495.972 131.893 474.726C131.608 458.36 148.092 446.169 163.811 448.589C168.19 449.167 172.299 451.029 175.62 453.94C179.227 457.341 180.804 462.172 182.882 466.543C184.775 470.829 187.779 474.531 191.584 477.264C195.299 479.822 199.66 481.38 203.629 483.477C222.102 493.277 237.399 508.438 250.394 524.637C263.716 541.503 275.162 559.771 284.528 579.115C288.913 587.794 292.797 596.717 296.16 605.84C298.659 612.818 301.442 620.736 307.509 625.44C309.051 626.584 310.746 627.505 312.546 628.174C314.29 628.89 316.554 629.497 317.691 631.114C320.396 635.034 315.26 640.552 312.791 643.109C306.019 649.969 297.532 654.967 288.879 659.123C284.381 661.288 279.745 663.17 275.159 665.052C272.287 666.228 273.532 670.932 276.462 669.775L276.374 669.824Z" fill="#382C80"/>
<path d="M159.146 426C147.817 418.729 132.686 419.758 120.426 425.314C105.952 431.88 83.3923 448.403 77.3065 463.858C71.2207 479.312 82.5005 501.548 91.5851 513.642C102.649 528.342 118.221 539.269 135.048 546.717C147.396 552.185 160.469 555.899 172.739 561.554C190.134 569.58 202.668 581.34 209.469 599.303C218.965 624.362 227.776 649.685 236.811 674.91" fill="white"/>
<path d="M160.381 423.883C138.488 410.163 113.194 423.364 95.3681 437.505C86.8421 444.267 78.1495 452.617 74.1217 462.985C69.8587 473.902 73.2691 486.388 77.7183 496.658C87.7339 519.815 106.854 537.181 129.345 548.01C152.443 559.123 180.52 563.141 197.18 584.486C201.062 589.577 204.158 595.223 206.363 601.234C209.44 609.368 212.452 617.535 215.398 625.734C221.455 642.394 227.286 659.201 233.558 675.812C235.057 679.8 241.457 678.174 240.045 674.018C235.194 659.681 230.147 645.422 225.022 631.183C222.487 624.133 219.923 617.1 217.329 610.083C214.957 603.674 212.792 597.079 209.714 590.963C204.762 581.285 197.552 572.942 188.693 566.64C178.394 559.172 166.3 554.801 154.393 550.47C141.938 545.923 129.756 541.081 118.604 533.81C108.464 527.344 99.6586 518.994 92.6633 509.212C86.3325 500 80.7759 489.22 79.3059 477.989C78.5244 473.195 79.0945 468.277 80.9523 463.789C83.2217 459.101 86.2442 454.817 89.8997 451.108C98.3396 442.219 108.224 434.823 119.133 429.234C130.971 423.099 146.063 420.767 157.912 428.107C160.597 429.783 163.057 425.549 160.381 423.883Z" fill="#382C80"/>
<path d="M78.6007 371.159C82.1679 371.159 82.1777 365.612 78.6007 365.612C75.0237 365.612 75.0237 371.159 78.6007 371.159Z" fill="white"/>
<path d="M74.4945 381.243C77.8559 381.243 77.8657 376.02 74.4945 376.02C71.1233 376.02 71.1331 381.243 74.4945 381.243Z" fill="white"/>
<path d="M159.431 376.04L157.373 375.217C156.8 375.059 156.189 375.141 155.677 375.442C155.197 375.741 154.848 376.21 154.697 376.755C154.543 377.328 154.625 377.938 154.923 378.451C155.239 378.914 155.701 379.259 156.236 379.431L158.294 380.244C158.865 380.405 159.477 380.327 159.989 380.028C161.034 379.408 161.387 378.064 160.783 377.01C160.461 376.547 159.996 376.203 159.46 376.03L159.431 376.04Z" fill="white"/>
<path d="M268.769 654.84C263.615 603.508 247.454 551.323 214.232 510.996C209.734 505.305 204.732 500.031 199.287 495.237C193.202 490.112 185.861 485.437 183.029 477.597C182.333 475.637 179.256 476.48 179.932 478.45C182.118 484.781 186.792 489.308 191.888 493.434C197.14 497.616 202.055 502.204 206.588 507.154C215.302 516.862 223.024 527.417 229.638 538.661C243.025 561.201 252.541 586.074 258.93 611.475C262.561 625.72 265.148 640.21 266.672 654.83C266.8 656.183 268.936 656.193 268.799 654.83L268.769 654.84Z" fill="#7F72FF"/>
<path d="M287.046 640.503C283.445 620.179 277.808 600.27 270.219 581.075C266.544 571.785 262.458 562.651 257.911 553.753C253.256 544.649 248.267 535.456 242.142 527.244C235.625 518.532 227.805 510.927 220.19 503.185C218.809 501.784 216.662 503.93 218.034 505.351C224.61 512.211 231.46 518.787 237.409 526.195C243.701 534.035 248.738 542.924 253.452 551.764C262.933 569.658 270.671 588.424 276.56 607.8C279.942 618.756 282.765 629.877 285.017 641.12C285.292 642.472 287.311 641.894 287.075 640.561L287.046 640.503Z" fill="#7F72FF"/>
<path d="M296.611 630.497C294.692 618.195 290.804 606.282 285.096 595.217C284.371 593.864 282.47 595.05 283.068 596.393C288.188 607.498 292.063 619.136 294.622 631.094C294.886 632.408 296.827 631.839 296.582 630.546L296.611 630.497Z" fill="#7F72FF"/>
<path d="M274.6 576.763C275.353 576.763 275.963 576.154 275.963 575.401C275.963 574.649 275.353 574.039 274.6 574.039C273.848 574.039 273.238 574.649 273.238 575.401C273.238 576.154 273.848 576.763 274.6 576.763Z" fill="#7F72FF"/>
<path d="M342.289 687.65C337.536 691.335 337.389 697.695 337.849 703.183L340.946 700.087C334.018 699.665 325.452 705.094 325.394 712.64C325.394 715.414 329.412 716.658 330.744 714.091C331.842 711.984 332.606 709.896 334.527 708.348C336.343 706.899 338.625 706.16 340.946 706.27C342.649 706.265 344.028 704.886 344.033 703.183C343.622 699.322 343.053 694.363 346.062 691.423C348.6 688.944 344.925 685.602 342.289 687.641V687.65Z" fill="#382C80"/>
<path d="M364.985 708.505C367.376 709.162 367.268 712.278 366.347 714.071C365.034 716.619 362.359 718.472 360.124 720.157C355.118 723.93 349.782 727.243 344.18 730.055C338.707 732.814 333.013 735.109 327.157 736.915C320.983 738.816 314.711 739.855 308.39 741.031C304.764 741.737 305.558 747.715 309.262 747.499C316.936 747.068 324.687 744.951 331.93 742.423C339.392 739.844 346.542 736.435 353.245 732.26C356.492 730.208 359.632 727.99 362.653 725.616C365.455 723.43 368.337 721.186 370.375 718.227C373.707 713.395 372.903 705.281 366.279 703.821C363.241 703.144 361.957 707.662 364.985 708.495V708.505Z" fill="#382C80"/>
<path d="M122.7 552.057C123.533 552.057 124.209 551.382 124.209 550.548C124.209 549.715 123.533 549.039 122.7 549.039C121.866 549.039 121.19 549.715 121.19 550.548C121.19 551.382 121.866 552.057 122.7 552.057Z" fill="#7F72FF"/>
<path d="M212.733 499.549C213.479 499.463 214.042 498.831 214.042 498.079C214.042 497.328 213.479 496.696 212.733 496.609C211.986 496.696 211.423 497.328 211.423 498.079C211.423 498.831 211.986 499.463 212.733 499.549Z" fill="#7F72FF"/>
<path d="M270.68 698.871C272.709 706.408 283.009 708.456 286.958 701.292C287.302 700.633 287.067 699.821 286.426 699.446C285.784 699.072 284.962 699.268 284.557 699.891C281.323 704.105 275.002 703.409 273.434 698.107C273.193 697.384 272.428 696.977 271.694 697.18C270.96 697.384 270.514 698.128 270.68 698.871Z" fill="#382C80"/>
<path d="M952.692 638.229C946.008 639.434 937.012 637.249 929.946 636.632C914.482 635.234 899.021 633.822 883.563 632.398L813.6 625.969L504.283 597.628L192.016 569.012L87.0578 559.398C77.003 558.477 52.993 560.476 44.0848 555.478C43.9574 555.409 43.9378 555.556 43.928 555.556C40.8606 556.105 27.3268 526.607 53.2674 527.705C59.9902 527.989 67.6048 529.939 74.5138 530.586C89.0864 531.968 103.659 533.261 118.241 534.594L250.865 546.746L603.851 579.086L896.714 605.918C911.571 607.281 959.983 602.88 961.933 622.931C962.943 633.28 958.778 637.141 952.692 638.229Z" fill="white"/>
<path d="M951.849 635.181C944.989 636.161 938.041 634.339 931.269 633.604C923.106 632.702 914.903 632.094 906.769 631.35L857.573 626.842L757.201 617.6L556.135 599.176L353.628 580.654L152.208 562.201L101.532 557.556C89.7724 556.478 78.1986 556.105 66.37 555.831C60.98 555.703 55.4528 555.556 50.1902 554.302C48.4066 553.871 46.672 552.734 44.9276 552.411C44.1142 552.254 40.9488 552.303 43.7614 552.705C46.3094 553.067 44.8688 553.008 44.7414 552.371C44.4866 550.833 42.556 548.451 41.9876 546.678C40.9788 543.908 40.6168 540.945 40.9292 538.014C42.5364 527.421 57.7656 531.154 64.6256 532.33C80.7956 535.035 97.3478 535.839 113.626 537.328C147.24 540.399 180.854 543.48 214.468 546.57L415.475 564.984L617.434 583.486L818.5 601.92L869.46 606.595C881.318 607.673 893.206 609.241 905.113 609.407C913.815 609.535 922.527 609.525 931.21 610.289C938.942 610.975 948.595 611.887 954.975 616.816C957.394 618.612 958.842 621.429 958.895 624.441C959.209 629.997 957.562 634.025 951.869 635.221C947.88 636.044 949.575 642.149 953.554 641.326C964.03 639.17 968.195 627.165 963.766 617.806C960.071 610.015 950.536 607.026 942.725 605.536C932.474 603.576 921.939 603.302 911.532 603.175C899.243 603.028 887.159 601.91 874.899 600.783L639.337 579.223L404.617 557.644L169.113 536.084C149.716 534.3 130.328 532.523 110.95 530.753C101.235 529.851 91.5168 528.963 81.7952 528.087C72.5342 527.225 63.332 525.147 54.0514 524.559C45.2314 524.059 36.2252 527.303 34.7454 536.966C33.9161 543.611 35.5932 550.327 39.4494 555.801C40.9684 557.859 43.0558 559.486 45.6822 558.193H42.4874C50.3274 562.279 60.2254 562.113 68.8102 562.211C79.8254 562.377 90.5564 562.887 101.532 563.896L193.848 572.354L381.028 589.504L567.062 606.546L753.575 623.637L845.94 632.104L891.628 636.299C906.465 637.661 921.44 638.533 936.189 640.581C942.069 641.395 947.713 642.149 953.574 641.287C957.562 640.699 955.847 634.593 951.849 635.181Z" fill="#382C80"/>
<path d="M141.918 437.339C128.198 424.765 94.8777 423.619 86.5575 442.807C76.5223 465.994 73.6019 491.876 80.0601 516.435C83.0001 527.391 87.9883 542.297 95.9165 550.735C105.079 560.535 121.2 565.64 132.235 573.275C147.974 584.123 158.323 597.873 161.968 616.728C167.045 643.041 171.416 669.491 176.012 695.892C178.481 709.995 180.912 724.107 183.47 738.209C186.478 754.937 192.75 762.317 211.4 761.396L256.617 759.171C265.819 758.71 277.109 757.613 284.958 752.311C289.045 749.518 292.152 744.716 291.505 739.806C290.966 735.808 288.075 732.466 284.733 730.222C281.391 727.978 277.55 726.576 273.953 724.812C258.41 717.237 251.991 707.515 249.914 690.884C245.798 657.78 240.241 624.666 229.471 593.1C218.701 561.534 196.494 512.681 160.018 490.994" fill="white"/>
<path d="M143.653 435.614C136.332 429.028 126.14 426.059 116.458 425.569C106.775 425.079 96.2401 427.323 89.0763 434.34C84.7153 438.613 82.6573 444.483 80.6385 450.118C77.8895 457.739 75.9194 465.619 74.7585 473.638C72.5457 489.175 73.5802 505.002 77.7965 520.119C81.3049 532.732 86.1559 546.805 96.3185 555.664C106.481 564.523 119.839 568.698 130.854 576.41C141.438 583.79 150.454 593.717 155.217 605.81C157.931 612.749 159.137 620.079 160.44 627.37C162.054 636.106 163.618 644.844 165.134 653.585C168.182 671.078 171.142 688.601 174.18 706.104C175.669 714.708 177.178 723.309 178.707 731.907C179.815 738.15 180.667 744.49 183.196 750.37C187.321 760.023 195.73 764.443 205.941 764.962C213.781 765.374 221.906 764.433 229.785 764.051L256.598 762.728C269.073 762.091 287.517 760.621 293.612 747.538C296.709 740.923 294.592 733.818 289.192 729.075C283.793 724.332 276.256 722.372 270.082 718.53C260.165 712.376 255.275 703.095 253.599 691.737C251.139 675.077 249.14 658.417 245.906 641.865C240.467 614.062 232.421 586.818 220.504 561.083C209.901 538.171 196.112 515.415 176.737 498.843C172.023 494.821 166.982 491.198 161.665 488.014C157.941 485.78 154.56 491.591 158.274 493.826C179.06 506.301 194.211 527.077 205.775 547.951C217.652 569.394 226.355 592.541 232.656 616.208C236.734 631.864 240.005 647.718 242.456 663.709C243.73 671.715 244.857 679.751 245.886 687.797C246.641 693.756 247.425 699.675 249.679 705.29C253.932 715.904 262.331 723.165 272.503 728.036C277.873 730.604 287.281 733.328 287.958 740.502C288.565 746.989 281.098 750.899 275.972 752.585C269.71 754.643 263.124 755.211 256.588 755.525C248.179 755.956 239.768 756.371 231.353 756.77C223.513 757.162 215.536 757.946 207.656 757.828C203.384 757.769 198.836 757.191 195.25 754.731C192.025 752.546 190.114 748.969 188.899 745.353C186.792 739.071 186.018 732.338 184.862 725.851C181.967 709.367 179.089 692.883 176.228 676.4C173.376 659.946 170.534 643.482 167.467 627.057C166.134 619.922 165.046 612.651 162.567 605.791C160.469 599.797 157.497 594.147 153.747 589.023C146.259 578.929 136.312 571.089 125.258 565.219C114.204 559.349 101.669 554.547 94.5545 543.767C87.3417 532.83 83.2453 519.061 81.0697 506.242C78.5858 490.763 79.4615 474.931 83.6373 459.82C85.3425 453.528 87.1653 446.266 90.8599 440.818C93.3561 437.35 96.8295 434.706 100.836 433.223C109.656 429.753 119.946 429.959 128.835 432.85C133.01 434.12 136.875 436.246 140.183 439.093C142.526 441.19 146.005 437.74 143.653 435.633V435.614Z" fill="#382C80"/>
<path d="M169.976 486.143C206.441 507.82 228.658 556.703 239.428 588.239C245.241 605.64 249.807 623.433 253.089 641.483C254.53 649.097 254.422 659.123 258.342 665.787C261.851 671.745 269.014 674.861 263.242 683.427C259.597 688.758 253.08 691.198 246.935 693.227C238.768 695.84 230.533 698.218 222.229 700.361C207.725 704.085 190.32 704.065 175.307 703.664C171.142 674.567 167.614 645.736 162.018 616.767C158.372 597.912 148.024 584.162 132.285 573.314C121.162 565.65 108.912 559.77 97.6712 552.273C77.0912 538.553 59.853 522.383 56.9816 497.148C54.1004 472.56 61.5092 446.668 77.934 428.048" fill="white"/>
<path d="M168.76 488.24C184.841 497.903 197.425 512.563 207.597 528.145C217.326 543.317 225.436 559.467 231.793 576.332C239.604 597.097 245.524 618.526 249.482 640.355C251.276 649.812 250.56 660.935 256.45 669.118C258.185 671.529 262.193 674.587 261.928 677.87C261.575 682.319 256.352 685.533 252.785 687.209C246.905 689.963 240.368 691.541 234.165 693.334C227.618 695.363 220.963 697.029 214.232 698.322C201.413 700.508 188.232 700.331 175.277 699.988L178.736 702.615C175.179 677.723 172.043 652.752 167.701 627.978C165.859 617.463 164.095 607.114 159.205 597.51C154.889 589.26 148.976 581.952 141.81 576.009C133.284 568.825 123.503 563.386 113.88 557.839C104.726 552.577 95.7104 547.059 87.4882 540.366C72.9646 528.606 61.9494 513.632 60.3128 494.531C58.3528 471.658 65.3402 447.942 80.3342 430.41C83.1272 427.147 78.482 422.394 75.5714 425.647C61.47 441.72 53.4219 462.211 52.8158 483.585C52.4728 493.542 53.5312 503.783 57.2062 513.093C60.6883 521.713 65.8029 529.579 72.2688 536.26C87.4196 552.204 107.255 561.544 125.64 573.157C133.95 578.429 141.819 584.593 147.709 592.561C153.313 600.319 157.088 609.244 158.754 618.668C164.222 647.088 167.76 675.88 171.856 704.545C172.082 706.104 173.885 707.133 175.306 707.172C187.419 707.485 199.581 707.525 211.566 705.898C224.306 704.173 236.83 700.204 248.982 696.157C254.01 694.481 259.067 692.452 263.045 688.846C266.652 685.592 269.631 680.535 268.671 675.537C267.896 671.48 264.751 668.805 262.408 665.649C259.302 661.484 258.488 656.104 257.822 651.077C254.568 627.215 248.692 603.785 240.3 581.212C234.058 563.833 226.073 547.13 216.466 531.36C204.863 512.74 190.241 495.433 171.21 484.036C168.495 482.409 166.035 486.642 168.73 488.269L168.76 488.24Z" fill="#382C80"/>
<path d="M151.776 310.105C140.153 307.097 127.433 310.291 117.564 317.122C101.884 327.961 93.6719 347.218 86.1063 364.054C78.0703 381.92 72.1903 400.677 65.0559 418.934C63.0959 423.962 61.1359 429.381 62.6843 434.614C63.6643 437.848 65.8791 440.69 68.3977 443.16C80.0597 454.547 97.5429 458.722 114.007 462.152C130.246 465.523 146.719 468.738 163.37 468.689C171.641 468.689 180.951 468.571 187.928 463.465C192.201 460.339 195.229 455.243 194.984 449.951C194.779 445.492 192.378 441.474 190.859 437.27C188.546 430.861 188.262 423.922 187.997 417.111C187.095 394.032 186.282 371.385 183.166 348.619" fill="white"/>
<path d="M152.462 307.626C139.281 304.059 124.905 307.94 114.164 316.054C104.021 323.718 97.0042 334.596 91.3398 345.787C84.974 358.476 79.3076 371.503 74.3662 384.811C71.4752 392.396 68.7998 400.04 65.9186 407.635C63.351 414.495 59.5878 421.6 58.941 429.009C57.7258 442.847 72.8472 452.225 83.8428 456.949C96.5828 462.437 110.518 464.975 124.082 467.601C139.174 470.541 154.511 472.688 169.916 472.002C176.492 471.708 183.421 470.679 188.997 466.935C194.201 463.446 198.032 457.88 198.454 451.52C198.709 447.649 197.415 444.003 195.945 440.495C194.153 436.454 192.92 432.187 192.28 427.813C191.153 419.199 191.3 410.33 190.976 401.657C190.241 383.694 189.555 365.456 186.468 347.757C185.822 344.023 179.432 344.817 179.804 348.649C181.245 363.437 182.666 378.157 183.421 392.994C183.803 400.354 184.097 407.694 184.401 415.073C184.685 422.188 184.812 429.519 186.9 436.388C188.585 441.935 192.917 447.707 191.055 453.715C189.242 459.536 183.695 462.78 178.089 464.122C172.209 465.543 165.869 465.387 159.842 465.249C152.511 465.053 145.201 464.378 137.958 463.231C124.61 461.314 111.391 458.581 98.3762 455.048C87.4198 451.98 74.6798 447.149 67.8198 437.515C63.3216 431.214 66.4674 424.315 68.937 417.915C71.5928 410.977 74.082 403.97 76.5908 396.983C81.285 383.919 86.283 371.042 92.016 358.39C97.3276 346.63 103.149 334.635 112.322 325.384C122.416 315.211 136.822 309.469 151.13 312.644C154.354 313.349 155.716 308.547 152.502 307.675L152.462 307.626Z" fill="#382C80"/>
<path d="M250.237 667.002C247.154 668.21 244.073 669.442 240.996 670.696C240.421 670.87 239.996 671.356 239.901 671.949C239.806 672.542 240.057 673.137 240.549 673.482C241.041 673.826 241.686 673.86 242.211 673.568C245.262 672.261 248.3 670.928 251.325 669.569C252.756 668.922 251.727 666.423 250.237 667.002Z" fill="#382C80"/>
<path d="M243.358 659.025C243.25 645.04 239.125 631.31 235.518 617.865C232.127 605.066 228.394 592.385 223.807 579.909C214.663 554.972 201.003 531.933 183.51 511.946C181.001 509.085 178.423 506.272 175.768 503.538C173.259 500.931 170.427 498.53 168.153 495.698C163.635 490.063 161.479 482.958 159.588 476.098C159.297 475.288 158.431 474.838 157.601 475.067C156.771 475.296 156.257 476.125 156.422 476.97C157.922 482.664 159.696 488.367 162.665 493.483C165.772 498.844 170.505 502.793 174.729 507.203C184.096 517.033 192.558 527.686 200.013 539.033C214.713 561.485 223.788 586.975 231.02 612.671C235.254 627.694 240.261 643.256 240.82 658.946C240.82 659.623 241.369 660.171 242.045 660.171C242.722 660.171 243.27 659.623 243.27 658.946L243.358 659.025Z" fill="#7F72FF"/>
<path d="M232.46 676.88C229.304 646.588 222.405 616.992 210.9 588.739C205.186 574.669 198.404 561.056 190.614 548.02C182.978 535.096 174.378 522.765 164.889 511.133C159.538 504.665 153.276 499.588 146.857 494.257C140.095 488.642 134.401 482.497 133.637 473.334C133.48 471.433 130.599 471.374 130.628 473.334C130.854 488.534 145.142 496.002 154.971 505.135C160.655 510.417 165.379 516.631 169.916 522.903C174.346 529.018 178.736 535.153 182.833 541.523C199.413 567.422 212.003 595.668 220.181 625.313C224.947 642.192 228.33 659.432 230.294 676.861C230.451 678.213 232.587 678.233 232.44 676.861L232.46 676.88Z" fill="#7F72FF"/>
<path d="M217.633 683.358C213.588 651.998 204.977 621.399 192.074 592.532C178.933 563.072 161.589 535.674 140.585 511.192C134.862 504.528 128.992 497.403 122.2 491.788C119.182 489.308 115.879 487.358 113.498 484.193C110.721 480.441 109.285 475.864 109.421 471.198C109.421 469.238 106.481 469.238 106.373 471.198C106.15 477.95 108.842 484.473 113.762 489.103C116.35 491.553 119.446 493.356 122.053 495.786C124.993 498.56 127.796 501.588 130.56 504.606C141.72 516.681 151.948 529.586 161.155 543.208C179.33 570.089 193.498 599.47 203.217 630.428C208.654 647.821 212.646 665.632 215.153 683.682C215.349 685.073 217.819 684.76 217.633 683.348V683.358Z" fill="#7F72FF"/>
<path d="M199.395 689.238C193.574 656.075 186.998 622.5 172.014 592.12C165.232 578.176 156.613 565.203 146.387 553.547C135.872 541.689 122.456 532.752 112.538 520.364C106.531 512.877 100.866 505.047 97.5538 495.953C94.3936 487.093 93.1672 477.66 93.9572 468.287C94.1042 466.455 91.3308 466.504 91.1348 468.287C89.4394 484.516 94.31 500.333 103.63 513.583C108.078 520.075 113.152 526.115 118.781 531.615C124.612 537.181 130.972 542.169 136.744 547.795C160.499 570.962 174.964 601.205 184.225 632.712C189.713 651.459 193.496 670.667 197.073 689.865C197.357 691.365 199.611 690.728 199.356 689.238H199.395Z" fill="#7F72FF"/>
<path d="M278.52 725.322C271.288 724.263 268.505 730.849 267.789 736.886L271.895 733.76C264.467 731.8 256.098 735.141 252.501 742.06C250.541 745.774 256.059 749.038 258.136 745.353C260.451 741.027 265.411 738.83 270.171 740.022C272.385 740.59 274.091 738.973 274.277 736.886C274.522 734.642 274.708 730.526 277.795 730.614C280.882 730.702 281.578 725.714 278.52 725.322Z" fill="#382C80"/>
<path d="M376.873 566.071C379.362 546.824 382.292 506.772 384.782 487.524C385.027 485.613 385.487 483.428 387.457 482.546C388.615 482.147 389.847 482.013 391.063 482.154L398.129 482.448C398.77 482.417 399.408 482.563 399.972 482.869C400.405 483.232 400.696 483.735 400.795 484.29C402.667 491.043 401.285 498.01 400.942 504.87C400.599 511.73 401.569 519.286 407.096 524.47C410.458 527.626 410.34 528.724 410.183 533.29C409.979 537.462 409.554 541.62 408.909 545.746C407.723 553.978 406.214 562.279 406.881 570.638" fill="white"/>
<path d="M379.46 566.767C382.724 545.521 384.145 523.99 386.242 502.597C386.693 498.082 387.173 493.574 387.683 489.073C387.79 488.093 387.751 486.691 388.261 485.888C389.035 484.663 390.848 485.123 392.112 485.163C393.965 485.085 395.821 485.17 397.659 485.417C398.365 485.574 397.982 484.251 398.159 486.054C398.296 487.426 398.619 488.74 398.688 490.121C399.011 496.883 397.336 503.577 397.835 510.339C398.296 516.611 400.354 522.295 404.793 526.832C406.753 528.871 406.998 529.645 406.871 532.516C406.664 536.634 406.225 540.737 405.558 544.805C404.254 553.322 402.618 561.975 403.304 570.628C403.686 575.205 410.801 575.313 410.536 570.628C410.056 562.22 411.35 554.037 412.496 545.736C413.061 541.618 413.418 537.474 413.564 533.32C413.643 530.693 413.702 528.038 412.379 525.676C410.967 523.147 408.38 521.579 406.871 519.12C405.197 516.214 404.255 512.945 404.127 509.594C403.627 501.852 405.626 494.159 404.343 486.427C403.823 483.33 403.029 480.341 399.58 479.635C397.761 479.397 395.926 479.305 394.092 479.361C391.946 479.273 389.623 478.91 387.506 479.43C381.685 480.851 381.626 487.613 381.097 492.444C379.725 504.273 378.716 516.14 377.657 527.998C376.52 540.738 375.55 553.478 374.237 566.111C373.943 569.051 378.97 569.746 379.421 566.806L379.46 566.767Z" fill="#382C80"/>
<path d="M298.267 751.987C301.511 754.32 297.532 758.661 295.425 759.896C291.505 762.209 286.723 763.434 282.391 764.796C272.936 767.873 263.28 770.293 253.491 772.038C243.562 773.804 233.489 774.634 223.405 774.517C214.056 774.38 204.246 773.675 195.269 770.911C191.065 769.617 186.645 767.481 184.175 763.679C181.853 760.102 181.235 755.535 183.646 751.87C185.93 748.489 180.579 745.529 178.237 748.714C172.033 757.171 177.374 768.432 185.273 773.508C189.693 776.34 194.916 777.771 200.022 778.722C205.989 779.824 212.023 780.531 218.083 780.838C242.397 782.083 266.77 777.065 289.623 769.01C294.788 767.187 300.933 765.315 303.882 760.268C306.47 755.848 305.725 749.782 301.138 747.058C297.953 745.157 295.376 749.861 298.277 751.958L298.267 751.987Z" fill="#382C80"/>
<path d="M75.2289 461.711C66.0855 493.855 84.8231 524.794 110.509 543.159C111.734 544.041 113.341 541.983 112.136 541.052C100.16 531.821 89.3801 520.639 82.5201 507.066C75.4406 493.266 73.619 477.362 77.3947 462.319C77.5624 461.713 77.207 461.085 76.6009 460.918C75.9947 460.75 75.3672 461.105 75.1995 461.711H75.2289Z" fill="#7F72FF"/>
<path d="M197.876 728.242C197.457 732.356 199.429 736.347 202.951 738.514C206.473 740.681 210.925 740.642 214.408 738.414C216.221 737.258 214.536 734.357 212.723 735.523C210.218 737.247 206.936 737.346 204.331 735.778C201.726 734.209 200.279 731.262 200.63 728.242C200.777 726.449 198.062 726.507 197.876 728.242Z" fill="#382C80"/>
<path d="M362.378 486.133C362.678 486.556 363.005 486.959 363.358 487.338C368.304 492.426 375.868 493.952 382.4 491.18C388.814 488.191 392.874 481.713 392.768 474.637C392.406 461.231 378.666 451.627 366.573 458.654C360.84 461.956 358.605 469.179 358.88 475.5C359.046 479.126 360.379 481.762 361.614 485.045C363.221 489.308 363.427 494.267 364.074 498.834C364.12 499.524 364.324 500.195 364.672 500.794C365.364 501.612 366.393 502.071 367.465 502.038C370.993 502.205 374.148 500 376.941 497.834C394.013 484.633 409.624 469.071 420.208 450.255C421.08 448.697 421.953 446.864 421.355 445.169C420.926 444.206 420.249 443.374 419.395 442.758C416.62 440.403 413.456 438.55 410.046 437.28" fill="white"/>
<path d="M360.84 487.711C365.842 493.856 374.052 496.385 381.645 494.12C389.23 491.778 394.64 484.682 395.541 476.891C397.276 461.937 382.184 448.609 367.709 454.479C360.242 457.507 356.371 464.445 355.616 472.236C355.175 476.803 356.4 480.792 358.007 484.976C359.762 489.582 360.036 494.365 360.732 499.196C361.379 503.675 364.818 505.762 369.199 505.253C373.864 504.723 377.549 501.597 381.106 498.804C388.23 493.241 394.975 487.207 401.294 480.743C408.529 473.359 414.961 465.228 420.482 456.488C422.932 452.568 426.813 447.344 424.001 442.65C421.433 438.358 415.406 435.79 410.927 434.095C407.007 432.654 405.508 438.74 409.222 440.279C410.915 440.994 412.539 441.863 414.073 442.876C415.053 443.513 417.699 444.943 418.042 446.129C418.346 447.109 416.807 449.148 416.337 449.961C415.298 451.745 414.214 453.502 413.083 455.233C409.36 460.908 405.209 466.291 400.667 471.335C395.91 476.619 390.841 481.613 385.487 486.29C383.05 488.446 380.557 490.543 378.009 492.581C375.442 494.649 372.453 497.618 369.189 498.383C368.758 498.481 367.543 498.834 367.161 498.451C367.866 499.157 367.278 496.825 367.288 496.903C367.082 495.335 366.925 493.767 366.72 492.209C366.129 488.251 365.087 484.375 363.613 480.655C361.653 475.314 361.712 468.836 365.279 464.112C372.384 454.694 386.202 460.77 389.181 470.472C391.222 476.947 388.781 483.993 383.174 487.818C376.875 491.769 368.612 490.342 364.005 484.506C362.212 482.242 359.105 485.427 360.84 487.671V487.711Z" fill="#382C80"/>
<path d="M367.229 468.728C354.244 465.357 341.2 475.882 344.601 489.455C347.129 499.588 362.133 505.135 371.277 500.5C377.525 497.153 381.083 490.319 380.244 483.281C379.15 476.29 374.055 470.592 367.229 468.728Z" fill="#382C80"/>
<path d="M367.817 466.572C359.683 464.524 350.697 466.65 345.277 473.295C340.005 479.723 339.29 489.367 344.297 496.178C349.031 502.577 357.616 506.144 365.505 505.488C374.403 504.705 381.701 498.111 383.38 489.337C385.344 478.628 378.626 468.241 368.053 465.641C364.015 464.661 362.437 470.541 366.347 471.825C372.414 473.834 377.255 479.665 376.882 486.231C376.539 492.316 371.894 497.853 365.769 498.647C360.428 499.242 355.086 497.543 351.069 493.973C346.91 489.933 345.974 483.608 348.786 478.538C352.147 472.197 359.752 469.326 366.583 470.894C369.434 471.58 370.64 467.277 367.817 466.572Z" fill="#382C80"/>
<path d="M433.056 453.597C430.783 432.497 414.436 415.161 393.739 412.153C368.033 408.419 341.956 414.171 316.848 420.835C299.1 425.52 281.401 430.743 263.203 433.458C255.98 434.536 247.474 436.525 240.447 433.811C233.773 431.223 227.041 426.833 221.122 422.854L217.368 420.306C207.803 413.74 198.493 406.821 189.36 399.667C181.618 415.347 171.886 435.839 166.888 448.52C164.788 453.687 162.949 458.956 161.381 464.308C167.205 467.772 173.222 470.9 179.403 473.677C181.624 474.677 183.865 475.657 186.126 476.617C215.526 488.936 247.444 496.609 279.441 496.57C303.843 496.57 328.971 490.543 348.041 475.363C352.863 471.531 357.342 467.111 362.908 464.485C372.424 460.016 387.888 460.839 391.475 472.55C393.494 479.116 395.65 484.369 401.275 488.808C402.435 489.859 403.881 490.542 405.43 490.768C408.047 490.954 410.33 488.808 411.31 486.339C412.29 483.869 412.006 481.154 411.79 478.499C413.064 481.595 417.416 482.546 420.326 480.909C423.237 479.273 424.736 475.794 424.883 472.462C425.03 469.13 424.06 465.847 423.09 462.662C424.462 465.602 429.146 465.318 431.214 462.848C433.282 460.378 433.409 456.811 433.056 453.597Z" fill="white"/>
<path d="M436.232 453.597C434.599 438.715 426.562 425.284 414.222 416.808C399.786 407.008 380.902 406.91 364.104 408.39C344.034 410.164 324.552 415.465 305.157 420.699C295.299 423.354 285.43 425.981 275.424 428.058C270.524 429.038 265.624 429.881 260.724 430.665C256.432 431.351 252.13 432.135 247.769 431.988C242.359 431.812 237.596 429.254 233 426.608C228.404 423.962 224.092 421.051 219.77 418.082C210.172 411.503 200.8 404.62 191.654 397.433C190.174 396.277 187.675 396.052 186.675 398.07C181.354 408.85 176.131 419.738 171.162 430.714C166.34 441.367 161.597 452.196 158.373 463.466C158.007 464.848 158.598 466.306 159.823 467.043C178.737 478.205 199.798 486.221 220.995 491.827C241.928 497.354 263.919 500.51 285.606 499.579C305.079 498.746 324.806 494.12 341.555 483.801C345.715 481.176 349.681 478.254 353.422 475.059C357.039 472.031 360.714 468.807 365.104 466.955C370.827 464.554 378.452 464.093 383.9 467.445C387.605 469.718 388.359 473.325 389.78 477.147C391.306 481.751 393.875 485.94 397.287 489.387C400.766 492.709 405.49 495.541 410.155 492.65C415.055 489.583 415.466 483.732 415.055 478.499L409.175 480.106C411.919 485.633 419.612 486.192 423.943 482.272C429.823 476.911 428.294 468.552 426.276 461.8L420.484 464.25C422.718 468.111 427.804 468.875 431.538 466.71C436.095 464.083 436.781 458.34 436.34 453.597C435.958 449.579 429.617 449.54 430 453.597C430.196 455.724 430.568 458.781 429.088 460.594C428.422 461.398 426.628 462.202 425.952 461.045C424.178 457.978 419.092 460.006 420.16 463.485C421.336 467.405 423.002 472.188 420.856 476.059C419.592 478.332 416.103 479.842 414.653 476.902C413.281 474.148 408.498 475.402 408.773 478.499C408.979 481.096 409.243 489.838 404.353 486.947C400.884 484.908 398.355 481.125 396.768 477.529C395.18 473.932 394.612 469.993 392.338 466.749C390.417 464.071 387.791 461.978 384.753 460.702C378.677 458.095 371.435 458.193 365.153 460.202C356.451 463.015 350.345 470.002 343.093 475.177C310.616 498.334 266.398 496.041 229.413 487.339C206.383 481.919 183.5 473.619 163.097 461.535L164.547 465.112C167.703 454.087 172.318 443.552 177.052 433.096C181.952 422.384 187.018 411.781 192.212 401.226L187.244 401.873C195.084 408.027 203.1 414.035 211.273 419.787C218.898 425.158 226.62 430.744 235.048 434.791C238.877 436.788 243.078 437.972 247.386 438.27C251.874 438.318 256.354 437.897 260.754 437.016C270.309 435.477 279.766 433.713 289.174 431.4C308.46 426.677 327.452 420.62 346.994 417.082C356.81 415.213 366.774 414.229 376.766 414.142C385.292 414.142 394.2 414.574 402.246 417.602C417.279 423.247 428.147 437.741 429.98 453.597C430.352 457.605 436.693 457.654 436.232 453.597Z" fill="#382C80"/>
<path d="M391.789 452.205C401.442 460.104 407.047 470.825 409.566 482.938C410.389 486.858 416.191 485.153 415.534 481.292C413.339 468.179 405.048 456.537 394.494 448.707C392.475 447.207 389.829 450.598 391.789 452.205Z" fill="#382C80"/>
<path d="M404.274 437.172C408.811 440.886 411.947 445.61 414.525 450.833C415.789 453.381 416.936 455.998 417.984 458.673C419.033 461.349 419.836 464.406 421.267 466.984C423.021 470.159 427.431 467.895 426.824 464.641C426.216 461.388 424.717 458.399 423.492 455.469C422.319 452.579 420.95 449.773 419.395 447.07C416.309 441.736 412.062 437.164 406.969 433.693C404.901 432.311 402.304 435.584 404.274 437.192V437.172Z" fill="#382C80"/>
<path d="M143.28 314.192C132.032 309.167 119.059 309.83 108.382 315.976C70.2404 338.281 75.062 389.682 87.263 414.24C100.405 440.789 193.72 534.78 161.4 464.309C162.969 458.957 164.807 453.687 166.908 448.521C171.906 435.84 181.608 415.387 189.379 399.668C172.445 386.399 156.059 372.336 139.781 358.302" fill="white"/>
<path d="M144.857 311.458C136.817 307.826 127.843 306.798 119.191 308.518C111.253 310.086 104.216 314.222 98.062 319.357C87.9974 327.746 81.2256 339.476 77.9426 352.089C74.7478 364.319 74.6106 377.167 76.5118 389.613C77.9818 399.286 80.716 409.272 85.5768 417.827C89.34 424.452 94.2008 430.518 99.0126 436.398C105.265 444.032 111.9 451.382 118.76 458.478C125.473 465.436 132.48 472.198 139.781 478.46C145.269 483.134 151.09 488.064 157.656 491.2C161.684 493.16 167.613 494.787 170.317 489.906C173.385 484.359 169.592 475.843 167.524 470.639C166.456 467.964 165.31 465.318 164.114 462.701L164.428 465.142C167.583 454.117 172.199 443.582 176.932 433.125C181.832 422.414 186.899 411.81 192.093 401.255C192.661 400.119 192.74 398.315 191.603 397.424C174.659 384.125 158.283 370.091 141.995 356.048C138.918 353.402 134.42 357.861 137.517 360.527C153.844 374.57 170.18 388.604 187.124 401.902L186.625 398.061C178.687 414.172 170.709 430.401 164.085 447.061C162.193 451.833 160.37 456.635 158.891 461.545C158.146 464.015 158.381 465.24 159.41 467.533C160.008 468.875 160.596 470.228 161.145 471.6C162.847 475.495 164.087 479.577 164.839 483.762C164.731 483.076 164.839 484.016 164.839 484.222C164.839 484.428 164.839 484.849 164.839 485.202C164.839 485.555 164.839 485.702 164.839 485.947C164.839 486.927 164.898 485.78 164.839 486.153C164.806 486.376 164.753 486.595 164.682 486.809C164.516 487.368 164.682 486.633 164.682 486.76C164.682 486.888 164.428 487.172 164.388 487.231C164.918 486.378 164.31 487.28 164.663 486.898C165.202 486.329 164.545 486.956 164.555 486.898C164.565 486.839 165.123 486.898 164.712 486.819C164.3 486.741 164.251 486.819 164.859 486.819C164.63 486.834 164.401 486.834 164.173 486.819C163.193 486.711 164.526 487.035 163.457 486.711C162.899 486.545 162.34 486.388 161.791 486.192C161.595 486.123 160.743 485.761 161.468 486.074C161.2 485.968 160.939 485.846 160.684 485.712C159.998 485.379 159.322 485.026 158.655 484.653C157.195 483.84 155.784 482.938 154.402 481.998C151.061 479.68 147.842 477.191 144.759 474.54C128.94 461.01 114.461 445.99 101.521 429.685C96.9546 423.982 92.329 418.033 89.2126 411.379C84.2538 400.805 81.8822 388.78 81.4804 377.157C81.0296 363.878 83.3228 350.227 89.9868 338.594C97.7288 325.07 111.87 313.781 128.03 313.996C132.672 314.055 137.252 315.055 141.496 316.936C145.19 318.573 148.414 313.114 144.69 311.468L144.857 311.458Z" fill="#382C80"/>
<path d="M161.381 464.309C160.036 468.919 159.163 473.654 158.774 478.44C158.509 482.096 158.774 486.221 161.469 488.72C163.684 490.778 167.084 491.17 169.995 490.347C172.871 489.379 175.496 487.782 177.678 485.673C180.764 482.925 183.592 479.901 186.126 476.637C183.872 475.696 181.631 474.716 179.403 473.697C173.221 470.914 167.204 467.779 161.381 464.309V464.309Z" fill="#382C80"/>
<path d="M158.323 463.466C156.01 471.845 151.541 488.064 162.106 492.807C172.67 497.55 182.597 486.094 188.37 478.832C189.133 478.021 189.424 476.874 189.139 475.797C188.853 474.72 188.033 473.867 186.968 473.54C178.712 470.093 170.698 466.096 162.978 461.574C159.46 459.497 156.265 464.965 159.773 467.043C167.972 471.815 176.485 476.026 185.253 479.645L183.852 474.353C181.16 477.839 178.123 481.043 174.787 483.918C172.239 486.055 168.672 488.436 165.183 487.25C161.694 486.064 161.704 481.537 161.91 478.43C162.291 473.944 163.125 469.509 164.399 465.19C165.516 461.212 159.401 459.536 158.323 463.466Z" fill="#382C80"/>
<path d="M178.118 251.08C180.832 250.581 183.631 250.846 186.203 251.845C188.439 252.626 190.337 254.156 191.574 256.176C192.799 258.237 192.781 260.808 191.525 262.85C190.8 263.826 189.857 264.618 188.771 265.163C185.365 266.966 181.392 267.38 177.687 266.319C173.993 265.242 170.782 262.927 168.593 259.763" fill="#382C80"/>
<path d="M178.864 253.756C181.99 253.324 185.773 254.069 188.037 256.421C190.3 258.773 189.458 261.321 186.723 262.536C180.579 265.339 174.963 261.988 170.838 257.489C168.388 254.804 164.076 258.254 165.859 261.331C171.024 270.21 185.851 273.944 193.299 265.643C196.749 261.811 195.877 256.029 192.515 252.462C188.674 248.385 182.627 247.464 177.345 248.356C173.758 248.963 175.385 254.236 178.834 253.756H178.864Z" fill="#382C80"/>
<path d="M140.849 267.652C140.372 273.488 140.346 279.353 140.771 285.194C141.143 290.094 141.427 294.582 139.879 299.316C139.346 300.9 138.735 302.457 138.046 303.98C137.311 305.656 135.822 307.597 136.38 309.459C137.037 311.624 139.164 313.957 140.487 315.74C142.059 317.856 143.761 319.872 145.583 321.777C146.925 323.281 148.488 324.573 150.218 325.609C151.965 326.64 154.025 327.005 156.02 326.638C159.459 325.864 161.694 322.414 162.488 318.984C163.281 315.554 163.007 311.958 163.468 308.459C163.588 306.861 164.089 305.316 164.928 303.951C166.888 301.138 171.092 301.325 173.973 300.1C177.194 298.745 179.983 296.535 182.039 293.71C186.537 287.458 187.223 279.01 185.116 271.591C184.233 268.573 182.978 265.677 181.382 262.967C176.128 253.795 165.684 248.906 155.275 250.747C148.287 252.06 141.731 256.323 140.849 267.652Z" fill="white"/>
<path d="M138.321 267.652C137.748 272.271 137.503 276.924 137.586 281.578C137.704 285.939 138.36 290.398 137.714 294.729C137.067 299.061 134.774 302.256 133.451 306.185C132.128 310.115 134.578 313.437 136.89 316.485C141.291 322.297 146.867 330.695 155.187 330.205C163.889 329.725 166.281 320.317 166.643 313.232C166.79 310.292 166.261 305.999 169.681 304.902C172.925 303.863 175.983 303.353 178.913 301.413C185.342 297.15 188.811 290.202 189.605 282.646C191.133 268.112 182.137 252.491 167.976 248.052C161.361 245.974 153.541 246.366 147.396 249.786C140.801 253.471 138.027 260.41 137.4 267.622C137.018 272.032 143.829 271.964 144.26 267.622C144.721 262.948 146.485 258.45 150.699 256C154.861 253.794 159.691 253.204 164.262 254.343C176.169 257.107 183.352 269.651 182.637 281.411C182.274 287.291 179.481 292.936 174.297 295.944C169.583 298.679 163.723 297.748 161.106 303.539C158.588 309.116 161.547 317.122 157.294 321.895C152.629 327.138 145.309 316.485 142.839 313.349C141.859 312.124 140.34 310.733 139.83 309.233C139.252 307.538 140.81 305.519 141.526 303.892C143.058 300.365 143.941 296.59 144.133 292.75C144.27 288.83 143.692 284.91 143.496 281.039C143.28 276.57 143.202 272.091 143.358 267.622C143.486 264.33 138.684 264.496 138.321 267.652Z" fill="#382C80"/>
<path d="M138.321 267.652C137.748 272.271 137.503 276.924 137.586 281.578C137.704 285.939 138.36 290.398 137.714 294.729C137.067 299.061 134.774 302.256 133.451 306.185C132.128 310.115 134.578 313.437 136.89 316.485C141.291 322.297 146.867 330.695 155.187 330.205C163.889 329.725 166.281 320.317 166.643 313.232C166.79 310.292 166.261 305.999 169.681 304.902C172.925 303.863 175.983 303.353 178.913 301.413C185.342 297.15 188.811 290.202 189.605 282.646C191.133 268.112 182.137 252.491 167.976 248.052C161.361 245.974 153.541 246.366 147.396 249.786C140.801 253.471 138.027 260.41 137.4 267.622C137.018 272.032 143.829 271.964 144.26 267.622C144.721 262.948 146.485 258.45 150.699 256C154.861 253.794 159.691 253.204 164.262 254.343C176.169 257.107 183.352 269.651 182.637 281.411C182.274 287.291 179.481 292.936 174.297 295.944C169.583 298.679 163.723 297.748 161.106 303.539C158.588 309.116 161.547 317.122 157.294 321.895C152.629 327.138 145.309 316.485 142.839 313.349C141.859 312.124 140.34 310.733 139.83 309.233C139.252 307.538 140.81 305.519 141.526 303.892C143.058 300.365 143.941 296.59 144.133 292.75C144.27 288.83 143.692 284.91 143.496 281.039C143.28 276.57 143.202 272.091 143.358 267.622C143.486 264.33 138.684 264.496 138.321 267.652Z" fill="#382C80"/>
<path d="M181.314 271.376C178.452 271.033 175.434 271.709 174.738 274.904C174.485 276.253 174.659 277.648 175.238 278.893C175.62 279.814 176.218 280.598 176.649 281.499C177.168 282.078 177.217 282.264 176.796 282.038C176.296 282.225 175.816 282.391 175.257 282.528C173.15 283.156 174.042 286.174 176.159 285.792C178.276 285.41 181.47 284.243 180.432 281.352C179.981 280.088 178.932 279.128 178.295 277.952C177.835 277.109 177.188 275.649 177.805 274.688C178.55 273.512 180.167 273.708 181.314 273.757C182.872 273.855 182.793 271.552 181.314 271.376Z" fill="#382C80"/>
<path d="M167.78 276.844C167.838 276.969 167.917 277.082 168.015 277.178C167.915 277.043 167.854 276.884 167.839 276.717L168.005 276.07L169.603 275.913L169.72 276.06C169.603 275.884 169.769 276.158 169.72 276.158C169.671 276.158 169.671 275.992 169.662 275.982C169.652 275.972 169.662 275.933 169.662 276.07C169.711 276.169 169.711 276.285 169.662 276.384C169.592 276.613 169.395 276.781 169.158 276.814C168.921 276.848 168.685 276.741 168.554 276.541C168.49 276.352 168.463 276.152 168.476 275.953L168.397 276.217C168.397 276.051 168.515 276.1 168.397 276.217C168.28 276.335 169.221 275.688 168.819 275.815H168.701L169.505 275.904C169.926 276.129 169.358 275.786 169.279 275.737C169.13 275.642 168.973 275.56 168.809 275.492C168.321 275.211 167.712 275.251 167.266 275.595C166.82 275.938 166.624 276.516 166.771 277.06C166.978 278.087 167.843 278.852 168.887 278.932C169.952 278.941 170.9 278.259 171.23 277.246C171.55 276.412 171.4 275.471 170.838 274.777C170.317 274.167 169.501 273.896 168.72 274.074C167.938 274.252 167.32 274.849 167.114 275.624C166.909 276.399 167.15 277.224 167.741 277.766C168.08 278.1 168.554 278.258 169.026 278.195C169.497 278.132 169.913 277.854 170.152 277.442C170.391 276.998 170.411 276.469 170.209 276.008C170.006 275.546 169.601 275.204 169.113 275.08C168.646 274.966 168.156 275.134 167.858 275.512C167.56 275.895 167.521 276.421 167.76 276.844H167.78Z" fill="#382C80"/>
<path d="M181.892 277.54C181.952 277.663 182.031 277.776 182.127 277.873C182.03 277.737 181.969 277.579 181.951 277.413L182.117 276.766L183.715 276.609L183.832 276.756C183.715 276.58 183.881 276.844 183.832 276.854C183.783 276.864 183.832 276.678 183.773 276.668C183.715 276.658 183.773 276.668 183.773 276.756C183.817 276.856 183.817 276.97 183.773 277.07C183.71 277.301 183.516 277.474 183.279 277.51C183.041 277.546 182.805 277.439 182.676 277.236C182.605 277.049 182.575 276.848 182.588 276.648C182.588 276.648 182.519 276.884 182.509 276.903C182.509 276.746 182.627 276.786 182.509 276.903C182.392 277.021 183.332 276.384 182.931 276.511H182.813L183.617 276.599C184.038 276.825 183.47 276.482 183.391 276.433C183.24 276.338 183.083 276.253 182.921 276.178C182.432 275.907 181.83 275.952 181.387 276.293C180.944 276.633 180.746 277.204 180.882 277.746C181.092 278.774 181.954 279.54 182.999 279.628C184.063 279.634 185.009 278.953 185.341 277.942C185.663 277.105 185.514 276.16 184.949 275.463C184.46 274.777 183.616 274.439 182.789 274.598C181.961 274.756 181.302 275.382 181.101 276.2C180.9 277.018 181.193 277.878 181.853 278.403C182.19 278.737 182.663 278.898 183.135 278.836C183.606 278.775 184.023 278.499 184.263 278.089C184.502 277.645 184.523 277.116 184.32 276.655C184.117 276.193 183.713 275.851 183.225 275.727C182.758 275.602 182.261 275.772 181.97 276.158C181.672 276.542 181.633 277.068 181.872 277.491L181.892 277.54Z" fill="#382C80"/>
<path d="M139.36 283.341C138.713 284.4 137.998 285.791 138.517 287.016C138.791 287.714 139.389 288.234 140.119 288.406C140.849 288.578 141.616 288.381 142.173 287.879C143.682 286.605 144.133 284.439 143.996 282.469C143.858 280.499 143.378 278.549 143.457 276.589C143.535 274.629 144.368 272.493 146.161 271.689C147.868 271.035 149.799 271.416 151.13 272.669C152.492 273.875 154.658 277.02 154.57 278.961C155.432 276.831 155.667 274.498 155.246 272.238C154.864 270.278 153.992 268.387 153.776 266.358C153.552 264.843 153.952 263.301 154.883 262.085C156.118 260.694 157.128 261.83 158.666 262.036C160.064 262.228 161.488 262.031 162.782 261.468C163.478 261.154 165.791 259.9 165.722 258.949C165.879 263.144 169.642 264.663 173.229 265.407C180.262 267.015 187.613 266.52 194.368 263.986C201.143 261.38 206.565 256.125 209.381 249.433C210.284 247.296 210.68 244.978 210.538 242.662C210.022 238.458 207.451 234.785 203.678 232.862C199.891 231.006 195.541 230.656 191.506 231.882C187.498 233.101 183.869 235.324 180.961 238.34C179.756 235.174 175.414 234.106 172.367 235.576C170.567 236.517 169.099 237.988 168.162 239.79C167.182 241.495 167.182 243.073 165.34 244.043C165.063 240.627 162.831 237.68 159.617 236.488C156.339 235.435 152.749 236.179 150.16 238.448C147.633 240.759 146.262 244.072 146.416 247.493C144.423 245.724 141.753 244.921 139.115 245.298C136.466 245.726 134.269 247.58 133.402 250.119C132.624 252.714 133.655 255.51 135.93 256.979C133.578 257.26 131.507 258.659 130.369 260.737C129.231 262.814 129.167 265.313 130.197 267.446C131.523 269.893 133.855 271.637 136.577 272.218C134.792 273.27 133.427 274.908 132.716 276.854C132.032 278.835 132.453 281.03 133.823 282.616C135.268 284.13 137.574 284.432 139.36 283.341Z" fill="#382C80"/>
<path d="M137.076 282.018C135.234 284.9 134.803 289.006 138.37 290.838C141.427 292.406 144.661 290.505 146.073 287.683C147.944 283.949 146.171 280.421 146.68 276.589C147.229 272.405 150.982 277.001 151.08 278.961C151.104 280.695 152.394 282.15 154.113 282.381C155.832 282.611 157.46 281.548 157.94 279.882C158.952 277.141 159.193 274.175 158.636 271.307C158.362 269.886 157.823 268.543 157.499 267.142C157.362 266.525 157.499 265.633 157.303 265.064L157.49 264.496C156.225 264.78 155.961 265.006 156.686 265.162C158.479 266.652 162.948 265.28 164.712 264.427C166.476 263.575 168.632 262.046 169.112 259.9L162.252 258.979C163.017 266.975 170.592 268.779 177.393 269.523C185.527 270.386 194.053 268.837 200.982 264.28C207.087 260.233 212.33 253.971 213.565 246.572C214.859 238.83 210.194 231.715 202.893 229.069C194.22 225.933 184.832 229.863 178.56 235.929L183.852 236.615C181.96 232.479 176.894 230.735 172.65 231.862C170.458 232.488 168.503 233.754 167.035 235.498C166.191 236.466 165.476 237.54 164.908 238.693C164.546 239.457 164.34 240.653 163.615 241.094L168.573 243.112C168.122 239.858 166.369 236.927 163.717 234.989C161.064 233.051 157.738 232.273 154.501 232.832C147.386 233.998 142.995 240.574 143.015 247.532L148.787 245.141C144.034 241.329 137.243 240.408 132.588 245.014C130.501 247.082 129.463 249.983 129.764 252.906C130.065 255.828 131.672 258.457 134.136 260.057L134.969 253.618C129.539 254.598 125.687 259.466 125.983 264.976C126.335 270.445 130.618 274.188 135.645 275.541L134.832 269.327C130.824 272.13 127.737 276.511 129.285 281.626C130.834 286.742 136.459 288.79 141.104 286.399C145.122 284.321 141.574 278.245 137.556 280.333C136.292 280.989 135.783 279.412 135.9 278.373C136.188 277.008 137.053 275.836 138.272 275.158C139.411 274.441 140.029 273.126 139.854 271.791C139.68 270.456 138.744 269.345 137.458 268.945C135.498 268.347 133.333 267.113 132.999 264.868C132.627 262.311 134.577 260.772 136.841 260.37C140.085 259.802 139.938 255.47 137.684 253.932C136.028 252.795 136.567 250.511 137.948 249.443C139.752 248.032 142.309 248.542 144.005 249.884C146.18 251.609 149.806 250.678 149.777 247.493C149.777 243.877 151.6 240.182 155.451 239.457C159.303 238.732 161.517 241.417 162.056 244.906C162.39 247.042 165.339 248.003 167.015 246.925C169.955 245.063 170.053 242.025 172.317 239.712C173.983 238.016 176.894 237.526 178.04 240.016C178.971 242.034 181.901 242.083 183.332 240.692C188.33 235.792 196.013 231.872 202.746 235.958C209.283 239.947 207.646 247.718 203.726 252.971C199.59 258.547 193.064 261.723 186.282 262.614C182.551 263.099 178.766 262.983 175.071 262.271C173.17 261.909 169.426 261.429 169.191 258.949C168.858 255.264 163.36 253.971 162.331 258.028C162.576 256.999 162.733 257.607 161.958 257.92C161.625 258.057 161.331 258.273 160.978 258.391C159.655 258.841 158.764 258.391 157.499 258.077C154.648 257.43 152.217 259.057 150.992 261.595C149.956 264.09 149.862 266.876 150.728 269.435C151.58 272.561 152.276 274.874 151.129 278.04L157.989 278.971C157.666 273.042 151.6 266.064 145.249 268.445C142.182 269.592 140.506 272.718 140.251 275.854C140.215 277.702 140.376 279.548 140.732 281.362C140.8 282.341 140.8 283.323 140.732 284.302C140.688 284.646 140.578 284.979 140.408 285.282C141.094 285.762 141.476 285.576 141.574 284.723C142.162 283.497 141.72 282.026 140.555 281.325C139.39 280.625 137.884 280.925 137.076 282.018Z" fill="#382C80"/>
<path d="M153.393 299.913C157.626 303.451 164.614 306.391 170.17 304.068C173.414 302.716 173.061 298.139 169.328 297.845C167.152 297.669 165.006 298.149 162.811 297.845C160.593 297.529 158.421 296.946 156.343 296.111C154.049 295.131 151.06 297.992 153.403 299.943L153.393 299.913Z" fill="#382C80"/>
<path d="M166.358 273.473C168.034 272.767 169.739 273.571 171.386 273.953C173.032 274.335 174.247 271.876 172.572 271.141C170.259 270.112 167.593 269.671 165.437 271.288C164.457 272.013 164.996 274.041 166.358 273.473Z" fill="#382C80"/>
<path d="M172.228 287.144C170.977 286.734 169.964 285.801 169.455 284.586C169.251 283.887 168.567 283.443 167.846 283.541C167.124 283.639 166.583 284.25 166.574 284.978C166.358 287.663 169.259 288.702 171.327 289.28C172.562 289.633 173.463 287.703 172.228 287.144Z" fill="#382C80"/>
<path d="M455.263 823.518L505.497 651.302C507.869 643.149 510.28 634.75 509.417 626.303C508.006 613.278 499.02 601.92 498.089 588.837C496.854 570.609 514.749 553.743 532.928 555.605C551.107 557.467 565.17 577.058 561.583 594.972C560.328 601.244 557.3 607.104 556.467 613.445C555.683 619.443 556.918 625.509 558.143 631.428L595.599 812.552" fill="white"/>
<path d="M457.86 824.233C469.728 785.18 481.037 745.98 492.523 706.829C498.246 687.297 504.175 667.815 509.653 648.205C512.201 639.091 513.818 629.791 511.535 620.442C509.575 612.367 505.469 605.026 503.038 597.108C500.774 589.758 500.637 582.33 504.263 575.391C507.563 569.116 512.869 564.127 519.336 561.22C532.566 555.34 546.981 561.779 554.106 573.764C557.647 579.493 559.114 586.263 558.261 592.943C557.575 597.412 555.743 601.636 554.41 605.938C552.942 610.46 552.321 615.214 552.577 619.962C553.234 629.85 556.037 639.728 558.026 649.411L564.18 679.261C572.354 719.063 580.576 758.857 588.847 798.645C589.876 803.614 590.915 808.582 592.032 813.541C593.081 818.216 600.048 816.207 599.166 811.581C595.246 790.932 590.758 770.421 586.505 749.841C582.252 729.261 577.989 708.681 573.765 688.101C569.541 667.521 564.896 647.108 561.025 626.518C560.045 621.618 559.545 616.581 560.623 611.661C561.652 606.957 563.563 602.527 564.739 597.863C566.549 590.544 565.986 582.84 563.132 575.862C557.624 562.347 544.424 551.509 529.312 552.077C514.2 552.645 500.578 563.68 496.188 577.92C493.777 585.76 494.953 593.747 497.658 601.302C500.529 609.309 504.939 616.982 506.184 625.499C507.674 635.691 503.861 645.951 501.059 655.585C498.112 665.718 495.172 675.845 492.239 685.965C480.479 726.497 468.385 766.952 457.017 807.592C455.593 812.669 454.175 817.752 452.764 822.841C451.833 826.173 456.939 827.565 457.939 824.262L457.86 824.233Z" fill="#382C80"/>
<path d="M529.468 577.694C523.882 573.774 516.366 577.929 515.268 584.26C514.286 590.72 518.35 596.875 524.676 598.509C530.448 600.077 536.838 597.745 539.376 592.12C541.699 586.896 540.532 579.223 534.907 576.597C531.722 575.107 527.93 579.076 530.899 581.781C532.79 583.506 533.898 585.632 533.32 588.239C532.784 590.749 530.403 592.42 527.861 592.071C525.018 591.98 522.546 590.095 521.707 587.377C520.962 584.348 523.373 580.35 526.763 582.398C529.811 584.231 532.32 579.684 529.507 577.694H529.468Z" fill="#382C80"/>
<path d="M950.987 435.82C949.889 440.828 946.577 445.346 942.941 449.109C916.118 476.794 872.116 480.577 835.68 480.577C809.622 480.577 782.809 477.705 758.093 469.111C744.373 464.338 716.081 452.372 718.55 434.056C720.892 416.681 746.568 406.547 760.69 401.922C784.7 394.082 810.474 391.338 835.65 391.338C854.878 391.338 873.743 391.024 892.892 394.689C908.954 397.757 924.732 403.304 938.1 412.712C944.744 417.406 951.202 423.982 951.33 432.116C951.359 433.359 951.244 434.603 950.987 435.82Z" fill="white"/>
<path d="M947.929 434.977C945.92 443.199 938.58 449.618 932.073 454.577C925.931 459.168 919.234 462.965 912.139 465.876C897.273 472.05 881.181 474.951 865.217 476.323C829.153 479.429 790.933 477.793 756.672 465.288C745.608 461.25 732.77 455.821 725.312 446.237C721.892 441.817 720.598 436.603 722.441 431.243C724.401 425.48 729.36 421.002 734.201 417.631C746.039 409.467 760.435 404.793 774.263 401.343C793.814 396.443 814.002 394.63 834.122 394.542C854.819 394.454 875.762 394.169 896.087 398.619C905.348 400.554 914.353 403.56 922.919 407.576C930.759 411.359 939.648 416.18 944.852 423.413C947.331 426.852 948.654 430.782 947.851 435.016C947.096 439.004 953.201 440.71 953.966 436.701C955.789 427.107 950.771 418.973 943.568 413.015C935.934 406.694 926.908 402.058 917.735 398.472C897.459 390.553 875.595 388.534 854.035 388.25C815.492 387.75 774.469 389.23 739.375 407.184C727.86 413.064 713.64 423.55 715.218 438.269C716.708 452.078 731.006 460.76 742.345 466.17C776.341 482.409 815.845 485.055 852.996 483.438C870.244 482.683 887.688 480.654 904.211 475.431C920.254 470.355 936.483 461.887 947.41 448.765C950.472 445.294 952.698 441.167 953.917 436.701C955.005 432.703 948.899 431.008 947.929 434.977Z" fill="#382C80"/>
<path d="M919.372 433.115C919.205 439.975 913.492 445.208 908.503 449.226C904.127 452.699 899.325 455.6 894.215 457.86C883.817 462.554 872.41 464.906 861.111 466.121C835.699 468.855 808.661 468.003 784.083 460.682C771.529 456.938 738.895 444.502 754.359 426.764C760.455 419.767 769.941 415.916 778.506 412.966C791.529 408.632 805.057 405.997 818.755 405.126C826.673 404.557 834.611 404.528 842.549 404.538C850.487 404.548 858.67 404.655 866.687 405.449C882.102 406.958 897.547 411.212 910.375 420.149C912.051 421.315 913.639 418.571 911.973 417.415C900.213 409.242 886.238 404.891 872.145 402.94C856.877 400.833 841.021 400.98 825.644 401.588C810.415 402.205 795.137 404.332 780.564 408.977C771.313 411.917 761.582 415.7 754.3 422.325C747.44 428.567 744.716 437.799 750.645 445.659C756.329 453.175 765.835 457.507 774.41 460.79C799.812 470.511 828.31 471.883 855.24 469.845C868.715 468.865 882.279 466.503 894.744 461.084C900.727 458.529 906.313 455.134 911.336 451C916.794 446.452 922.361 440.661 922.547 433.134C922.596 431.096 919.421 431.096 919.372 433.134V433.115Z" fill="#382C80"/>
<path d="M932.308 602.184C940.295 598.774 947.468 593.531 951.525 585.652C952.187 584.385 951.737 582.822 950.503 582.102C949.269 581.381 947.687 581.758 946.91 582.957C942.5 589.219 937.012 594.932 929.916 598.078C927.104 599.323 929.544 603.37 932.308 602.184Z" fill="#382C80"/>
<path d="M718.383 484.398C724.106 489.818 731.251 493.022 738.444 496.011C745.898 499.096 753.522 501.757 761.278 503.979C808.297 517.44 858.309 516.198 904.603 500.421C920.851 494.835 939.069 488.073 950.398 474.53C952.456 472.07 948.987 468.522 946.851 470.972C936.874 482.409 921.851 488.524 907.935 493.659C893.365 499.02 878.296 502.91 862.953 505.272C831.884 510.045 800.176 508.585 769.676 500.98C761.269 498.853 752.983 496.275 744.853 493.257C736.729 490.268 728.046 487.152 721.549 481.233C719.422 479.273 716.276 482.409 718.383 484.398Z" fill="#382C80"/>
<path d="M719.961 527.175C725.684 532.595 732.838 535.799 740.031 538.788C747.483 541.869 755.104 544.526 762.856 546.746C809.876 560.219 859.894 558.981 906.19 543.198C922.429 537.612 940.657 530.84 951.986 517.297C954.034 514.847 950.575 511.289 948.428 513.749C938.462 525.186 923.438 531.291 909.513 536.436C894.952 541.785 879.893 545.666 864.56 548.02C833.491 552.787 801.784 551.328 771.284 543.727C762.881 541.596 754.598 539.018 746.47 536.005C738.346 533.006 729.663 529.9 723.156 523.98C721.039 522.02 717.883 525.156 719.99 527.146L719.961 527.175Z" fill="#382C80"/>
<path d="M721.549 569.952C727.272 575.362 734.426 578.576 741.61 581.565C749.067 584.641 756.69 587.298 764.444 589.523C811.461 602.998 861.478 601.757 907.769 585.965C924.017 580.379 942.235 573.617 953.574 560.074C955.622 557.624 952.163 554.066 950.017 556.526C940.04 567.963 925.017 574.068 911.101 579.203C896.533 584.569 881.463 588.459 866.119 590.816C835.05 595.594 803.341 594.134 772.842 586.524C764.438 584.399 756.155 581.821 748.029 578.802C739.895 575.862 731.212 572.706 724.715 566.777C722.588 564.817 719.442 567.953 721.549 569.952Z" fill="#382C80"/>
<path d="M726.312 469.728C725.939 472.531 725.332 475.373 725.684 478.185C725.971 479.221 726.913 479.939 727.987 479.939C729.051 479.907 729.977 479.202 730.29 478.185C731.27 475.618 731.192 472.462 731.457 469.728C731.451 468.31 730.306 467.161 728.889 467.15C727.479 467.182 726.343 468.317 726.312 469.728Z" fill="#382C80"/>
<path d="M748.92 480.518C748.273 482.828 748.273 485.273 748.92 487.583C749.802 490.729 754.8 489.377 753.82 486.241C753.371 484.813 753.338 483.287 753.722 481.841C754.535 478.744 749.802 477.431 748.92 480.518Z" fill="#382C80"/>
<path d="M777.614 487.436C777.614 489.867 777.526 492.336 777.614 494.737C777.703 498.461 783.318 498.461 783.406 494.737C783.465 492.307 783.406 489.837 783.406 487.436C783.406 483.761 777.722 483.751 777.683 487.436H777.614Z" fill="#382C80"/>
<path d="M814.756 489.523C814.469 492.384 814.681 495.272 815.383 498.059C815.781 499.496 817.269 500.339 818.706 499.941C820.143 499.543 820.985 498.056 820.587 496.619C820.225 494.272 820.087 491.896 820.176 489.523C820.362 486.005 815.05 486.084 814.756 489.523Z" fill="#382C80"/>
<path d="M849.86 489.004C849.988 491.258 850.154 493.512 850.233 495.776C850.259 497.263 851.461 498.46 852.947 498.481C854.27 498.481 855.829 497.236 855.652 495.776C855.388 493.522 855.201 491.258 854.986 489.004C854.945 487.603 853.819 486.477 852.418 486.437C851.008 486.453 849.871 487.594 849.86 489.004Z" fill="#382C80"/>
<path d="M889.903 485.878V487.956C889.903 489.39 891.066 490.553 892.5 490.553C893.935 490.553 895.097 489.39 895.097 487.956V485.878C895.097 484.954 894.604 484.1 893.804 483.638C893.003 483.175 892.017 483.175 891.217 483.638C890.416 484.1 889.923 484.954 889.923 485.878H889.903Z" fill="#382C80"/>
<path d="M918.509 475.98V477.538C918.516 478.235 918.794 478.903 919.283 479.4C920.037 480.152 921.169 480.377 922.153 479.97C923.137 479.562 923.78 478.603 923.781 477.538V475.98C923.772 475.28 923.495 474.61 923.007 474.108C922.252 473.355 921.117 473.13 920.132 473.54C919.147 473.95 918.507 474.913 918.509 475.98Z" fill="#382C80"/>
<path d="M936.767 468.365L937.286 469.924C937.495 470.594 937.936 471.168 938.531 471.541C939.153 471.904 939.894 472.004 940.591 471.821C941.288 471.637 941.883 471.183 942.245 470.561C942.607 469.928 942.706 469.178 942.519 468.473L941.99 466.915C941.802 466.22 941.345 465.628 940.72 465.272C940.094 464.915 939.352 464.822 938.658 465.014C937.979 465.21 937.4 465.659 937.041 466.268C936.669 466.898 936.57 467.652 936.767 468.356V468.365Z" fill="#382C80"/>
<path d="M731.427 510.515C731.77 514.435 732.094 518.355 732.652 522.275C733.074 525.215 737.856 524.47 737.739 521.589C737.582 517.865 737.18 514.18 736.827 510.476C736.494 507.065 731.124 507.007 731.427 510.476V510.515Z" fill="#382C80"/>
<path d="M767.873 522.089C768.157 525.402 768.373 528.714 768.922 531.997C769.363 534.692 773.743 534.035 773.655 531.35C773.567 528.244 773.145 525.176 772.802 522.089C772.459 519.002 767.608 518.894 767.902 522.089H767.873Z" fill="#382C80"/>
<path d="M801.987 526.969C802.457 529.498 802.634 532.056 802.967 534.594C803.05 535.927 804.155 536.965 805.49 536.965C806.826 536.965 807.931 535.927 808.014 534.594C808.179 531.552 807.885 528.503 807.142 525.548C806.407 522.167 801.35 523.588 801.987 526.969Z" fill="#382C80"/>
<path d="M842.021 527.851C842.56 530.791 843.001 533.731 843.814 536.671C844.5 539.209 848.89 538.808 848.557 536.034C848.175 532.83 847.499 529.703 846.862 526.538C846.225 523.373 841.433 524.715 842.021 527.871V527.851Z" fill="#382C80"/>
<path d="M888.914 522.02C889.918 523.38 890.445 525.034 890.413 526.724C890.354 530.105 895.617 530.105 895.656 526.724C895.704 524.103 894.922 521.534 893.422 519.384C892.667 518.172 891.095 517.763 889.845 518.453C888.612 519.188 888.197 520.776 888.914 522.02Z" fill="#382C80"/>
<path d="M922.743 510.976C922.704 513.196 923.152 515.397 924.056 517.424C924.694 518.66 926.174 519.198 927.457 518.659C928.739 518.121 929.392 516.687 928.956 515.366C928.439 513.961 928.18 512.474 928.191 510.976C928.24 507.487 922.841 507.487 922.772 510.976H922.743Z" fill="#382C80"/>
<path d="M939.04 505.88C938.987 507.579 939.023 509.28 939.148 510.976C939.231 512.324 940.349 513.375 941.701 513.375C943.052 513.375 944.17 512.324 944.254 510.976C944.383 509.28 944.419 507.579 944.361 505.88C944.361 502.46 939.04 502.45 939.04 505.88Z" fill="#382C80"/>
<path d="M737.562 556.37L737.082 560.535C737.087 561.988 738.265 563.165 739.718 563.171C741.159 563.135 742.318 561.975 742.354 560.535L742.805 556.37C742.805 554.923 741.635 553.749 740.189 553.743C738.753 553.779 737.598 554.934 737.562 556.37Z" fill="#382C80"/>
<path d="M770.088 566.787L770.539 570.03C770.925 571.425 772.367 572.245 773.763 571.863C775.134 571.446 775.939 570.03 775.596 568.639L775.125 565.395C774.73 564.012 773.3 563.201 771.911 563.572C770.549 563.993 769.75 565.402 770.088 566.787Z" fill="#382C80"/>
<path d="M812.209 573.274L812.66 575.136C813.049 576.546 814.508 577.373 815.918 576.984C817.328 576.594 818.155 575.135 817.765 573.725L817.295 571.873C816.908 570.468 815.456 569.644 814.051 570.03C812.647 570.417 811.822 571.87 812.209 573.274Z" fill="#382C80"/>
<path d="M846.704 566.091L846.606 574.431C846.606 578.135 852.418 578.145 852.369 574.431L852.271 566.091C852.271 562.504 846.744 562.504 846.704 566.091Z" fill="#382C80"/>
<path d="M892.294 557.545L894.137 567.277C894.793 570.766 900.203 569.305 899.478 565.797L897.518 556.105C896.812 552.694 891.638 554.145 892.314 557.545H892.294Z" fill="#382C80"/>
<path d="M918.333 552.92L919.656 561.269C920.047 562.671 921.496 563.494 922.9 563.112C924.284 562.699 925.097 561.268 924.742 559.868L923.292 551.548C922.902 550.187 921.494 549.39 920.126 549.754C918.776 550.158 917.985 551.554 918.333 552.92Z" fill="#382C80"/>
<path d="M939.579 551.734V553.126C939.578 554.157 940.199 555.088 941.152 555.483C942.105 555.877 943.202 555.659 943.93 554.929C944.399 554.445 944.666 553.8 944.675 553.126V551.734C944.656 551.078 944.394 550.453 943.94 549.98C943.214 549.255 942.123 549.039 941.176 549.431C940.228 549.823 939.61 550.748 939.609 551.773L939.579 551.734Z" fill="#382C80"/>
<path d="M809.464 416.974C804.035 415.632 798.851 417.063 794.225 420.061C789.6 423.06 785.288 427.049 784.17 432.498C782.975 438.378 786.13 442.69 790.452 446.218C794.372 449.393 798.753 451.666 803.849 451.99C815.011 452.715 824.488 444.316 833.072 438.427C842.304 432.096 853.427 427.862 864.717 427.647C869.323 427.558 878.299 429.028 877.28 435.545C876.437 440.916 868.94 446.178 863.805 446.639C859.189 447.051 859.042 454.146 863.805 453.94C869.479 453.685 874.585 450.412 878.623 446.6C882.66 442.788 885.306 437.672 884.179 432.174C881.749 420.267 866.628 419.934 857.259 421.335C845.989 423.021 835.914 427.774 826.742 434.409C819.225 439.838 808.798 448.56 798.998 443.797C796.422 442.56 794.097 440.859 792.138 438.779C789.786 436.212 790.178 433.095 792.138 430.371C795.264 426.02 802.379 421.071 807.994 422.286C811.424 423.021 812.894 417.837 809.454 416.984L809.464 416.974Z" fill="#7F72FF"/>
<path d="M881.68 437.535C884.944 437.231 888.256 437.447 891.48 437.114C893.353 437.114 894.871 435.595 894.871 433.723C894.871 431.85 893.353 430.332 891.48 430.332C888.031 429.911 884.199 430.695 880.828 431.39C877.457 432.086 878.123 437.868 881.661 437.535H881.68Z" fill="#7F72FF"/>
<path d="M777.232 438.926C780.105 439.265 783.008 439.245 785.876 438.868C787.836 438.662 789.423 437.241 789.139 435.104C789.005 434.163 788.476 433.324 787.684 432.798C786.892 432.272 785.913 432.109 784.994 432.351C782.378 432.728 779.786 433.258 777.232 433.938C775.017 434.624 774.537 438.534 777.232 438.926Z" fill="#7F72FF"/>
<path d="M896.9 361.124C892.271 363.556 887.197 365.026 881.984 365.446C843.5 367.769 808.484 340.868 781.583 316.279C760.023 296.542 737.483 272.179 724.41 245.719C719.432 235.616 716.198 224.483 716.453 213.223C716.609 206.265 724.822 197.797 729.408 192.995C733.539 188.681 737.967 184.659 742.658 180.961C743.631 180.033 744.873 179.436 746.205 179.256C747.715 179.256 749.018 180.236 750.184 181.167C765.031 193.26 779.3 206.617 795.901 216.143C812.502 225.669 827.712 237.517 841.814 250.443C855.426 262.889 870.126 275.276 880.926 290.388C885.895 297.346 889.325 304.598 894.783 311.526L914.599 336.712C915.273 337.464 915.795 338.34 916.137 339.29C916.647 341.083 915.843 342.965 914.932 344.582C911.139 351.285 904.426 357.292 896.9 361.124Z" fill="#7F72FF"/>
<path d="M895.303 358.39C879.917 366.024 860.729 361.948 845.401 356.038C829.604 349.943 815.208 340.28 802.046 329.735C788.671 318.99 776.039 307.35 764.238 294.896C751.625 281.637 739.944 267.289 730.918 251.306C726.302 243.132 722.48 234.577 720.647 225.326C719.844 221.259 718.972 216.349 719.667 212.213C720.295 208.695 722.715 205.422 724.891 202.698C729.992 196.457 735.693 190.732 741.913 185.606C742.991 184.715 745.187 182.225 746.666 182.608C747.533 183.041 748.316 183.625 748.979 184.332C750.077 185.227 751.168 186.126 752.252 187.027C755.78 189.967 759.269 192.907 762.778 195.847C769.883 201.727 777.076 207.607 784.71 212.85C792.344 218.093 800.39 222.356 808.024 227.55C823.567 238.095 837.424 250.678 851.242 263.32C858.128 269.457 864.671 275.967 870.842 282.822C876.997 289.839 881.73 297.522 886.689 305.441C891.971 313.839 898.537 321.425 904.662 329.216L909.141 334.9C910.375 336.468 913.374 339.006 912.992 341.172C912.669 342.985 911.032 344.954 909.964 346.405C908.676 348.098 907.247 349.678 905.691 351.128C902.575 354.028 899.073 356.482 895.283 358.42C891.667 360.301 894.872 365.77 898.488 363.888C906.328 359.792 914.08 353.441 918.088 345.366C919.214 343.414 919.623 341.13 919.244 338.908C918.705 336.526 917.02 334.733 915.54 332.861L905.632 320.268C902.202 315.907 898.606 311.634 895.401 307.117C892.461 303.05 890.031 298.708 887.394 294.465C882.009 286.034 875.719 278.217 868.637 271.151C861.777 264.134 854.398 257.607 847.077 251.012C839.561 244.152 831.975 237.507 823.939 231.304C816.021 225.153 807.724 219.507 799.096 214.399C790.384 209.264 782.066 203.485 774.214 197.112C766.551 190.938 759.269 184.244 751.449 178.266C747.401 175.169 743.766 176.1 739.993 179.08C736.173 182.104 732.531 185.347 729.085 188.791C723.499 194.387 717.325 200.551 714.385 207.99C712.768 212.096 713.121 216.663 713.601 220.975C714.149 225.891 715.2 230.738 716.737 235.439C722.803 253.971 734.828 270.641 747.225 285.419C759.622 299.992 773.153 313.562 787.689 326.001C801.488 337.987 816.256 349.227 832.71 357.361C848.39 365.093 866.922 370.728 884.582 368.367C889.428 367.646 894.123 366.133 898.478 363.888C902.153 362.046 898.949 356.577 895.303 358.39Z" fill="#7F72FF"/>
<path d="M912.727 340.476C908.542 343.416 903.045 344.533 897.821 344.847C859.346 347.179 824.321 320.278 797.43 295.68C778.202 278.099 760.357 257.94 747.94 234.861C741.031 222.121 728.232 194.152 742.413 182.304C755.868 171.063 781.613 180.922 795.215 187.047C818.226 197.455 839.08 212.86 857.7 229.824C871.89 242.799 886.012 255.304 897.684 270.935C907.484 284.038 915.324 298.777 918.872 314.741C920.616 322.689 920.939 331.901 915.549 337.996C914.705 338.927 913.758 339.758 912.727 340.476Z" fill="white"/>
<path d="M911.129 337.732C903.946 342.553 894.165 342.24 885.884 341.485C877.433 340.619 869.142 338.588 861.247 335.448C845.038 329.196 830.318 319.2 816.873 308.332C789.913 286.527 764.433 260.704 748.675 229.471C745.695 223.702 743.248 217.673 741.364 211.459C739.6 205.402 738.208 198.591 739.815 192.339C743.579 177.639 762.13 179.52 773.42 182.451C788.815 186.459 803.398 193.897 816.814 202.296C832.729 212.252 846.91 224.297 860.728 236.919C874.546 249.541 888.491 262.722 899.124 278.461C904.288 285.978 908.563 294.068 911.864 302.569C914.804 310.272 917.617 319.121 916.607 327.461C916.265 331.497 914.272 335.213 911.1 337.732C907.876 340.152 911.031 345.65 914.295 343.21C930.18 331.332 921.292 307.195 914.481 292.622C906.014 274.512 892.999 258.998 878.77 245.151C851.33 218.475 821.371 192.721 784.944 179.491C771.538 174.591 752.996 169.789 740.639 179.687C728.771 189.193 732.671 206.941 737.218 219.181C749.831 253.128 775.742 281.137 802.575 304.608C816.54 316.74 831.524 328.255 848.194 336.546C864.393 344.601 883.091 350.021 901.329 347.679C905.95 347.214 910.399 345.681 914.324 343.2C917.695 340.946 914.54 335.458 911.129 337.732Z" fill="#382C80"/>
<path d="M901.359 326.354C900.735 327.049 900.027 327.665 899.252 328.186C896.038 330.352 891.726 330.989 887.59 331.028C857.112 331.293 828.202 308.694 805.839 288.251C789.845 273.62 774.851 256.96 764.032 238.34C758.024 228.001 746.725 205.5 757.505 196.749C767.736 188.448 788.62 197.258 799.645 202.629C818.363 211.762 835.552 224.708 851.007 238.84C862.767 249.62 874.527 260.057 884.435 272.826C890.316 280.243 895.253 288.36 899.135 296.993" fill="white"/>
<path d="M900.232 325.237C895.214 330.431 886.61 329.794 880.004 329.049C873.652 328.273 867.422 326.699 861.463 324.365C848.723 319.465 837.041 311.909 826.291 303.579C804.662 286.831 784.151 266.946 769.264 243.867C762.287 233.087 741.207 196.377 767.304 194.985C777.977 194.407 788.864 199.219 798.282 203.805C811.015 210.077 823.028 217.713 834.111 226.58C846.473 236.436 858.234 247.023 869.332 258.283C880.847 269.857 891.098 282.832 897.752 297.846C898.575 299.708 901.3 298.101 900.486 296.248C894.273 282.185 884.855 269.788 874.252 258.754C863.483 247.6 852.063 237.096 840.05 227.296C828.607 217.753 816.175 209.464 802.967 202.57C792.863 197.425 781.583 192.3 770.088 191.79C765.276 191.604 760.199 192.486 756.368 195.642C752.898 198.523 751.468 202.884 751.468 207.284C751.262 217.76 756.613 228.403 761.66 237.36C775.801 262.605 796.94 283.763 819.195 301.952C831.338 311.87 844.43 320.944 859.042 326.824C866.026 329.685 873.381 331.539 880.886 332.332C888.207 333.057 897.017 333.194 902.515 327.501C903.926 326.031 901.692 323.796 900.271 325.266L900.232 325.237Z" fill="#382C80"/>
<path d="M832.691 291.368C835.386 295.709 839.551 298.228 844.451 299.424C849.654 300.717 855.799 301.07 860.64 298.444C869.793 293.406 867.931 279.461 862.669 272.14C855.75 262.507 842.647 261.517 831.907 259.832C820.382 258.019 808.886 253.462 800.272 245.377C796.852 242.172 791.452 234.842 796.852 230.902C801.135 227.776 810.102 229.079 814.09 232.313C817.677 235.253 822.822 230.353 819.255 227.149C815.002 223.376 809.112 222.19 803.575 222.111C798.234 222.033 792.53 223.807 789.512 228.511C782.838 238.938 793.706 249.816 801.595 255.333C806.444 258.705 811.716 261.424 817.275 263.418C822.959 265.467 828.829 266.358 834.788 267.211C844.421 268.573 856.671 270.406 859.435 281.382C860.082 283.94 860.895 287.517 859.905 290.055C858.915 292.593 855.819 293.71 853.271 293.975C848.243 294.426 840.462 293.25 837.424 288.663C835.464 285.723 830.799 288.408 832.681 291.437L832.691 291.368Z" fill="#7F72FF"/>
<path d="M794.979 226.512C792.412 224.473 790.177 222.033 787.62 220.014C786.275 218.809 784.222 218.865 782.945 220.142C781.668 221.419 781.612 223.471 782.818 224.816C785.003 227.502 788.276 229.609 791.187 231.431C794.097 233.254 797.802 228.766 794.979 226.531V226.512Z" fill="#7F72FF"/>
<path d="M871.155 297.944C869.359 295.705 867.262 293.726 864.922 292.064C863.364 290.848 861.296 290.672 859.964 292.397C859.385 293.158 859.16 294.131 859.348 295.068C859.535 296.005 860.117 296.817 860.944 297.297C863.082 298.87 865.329 300.292 867.666 301.55C868.688 302.111 869.955 301.949 870.802 301.148C871.63 300.314 871.795 299.028 871.204 298.012L871.155 297.944Z" fill="#7F72FF"/>
<path d="M724.714 226.816L725.929 225.297C726.428 224.763 726.718 224.067 726.742 223.337C726.735 222.603 726.443 221.9 725.929 221.377C725.408 220.858 724.704 220.566 723.969 220.563C723.232 220.556 722.524 220.85 722.009 221.377L720.794 222.896C720.294 223.429 720.005 224.125 719.98 224.856C719.988 225.589 720.28 226.292 720.794 226.816C721.315 227.334 722.019 227.626 722.754 227.629C723.49 227.634 724.197 227.34 724.714 226.816Z" fill="#382C80"/>
<path d="M737.826 256.304L740.932 253.648C742.091 252.482 742.091 250.599 740.932 249.434C739.755 248.295 737.886 248.295 736.709 249.434L733.769 252.227C732.673 253.365 732.673 255.165 733.769 256.304C734.907 257.399 736.707 257.399 737.845 256.304H737.826Z" fill="#382C80"/>
<path d="M759.768 284.312C760.905 283.234 762.042 282.146 763.159 281.029C764.328 279.833 764.328 277.923 763.159 276.727C761.954 275.572 760.052 275.572 758.847 276.727C757.71 277.815 756.603 278.922 755.495 280.039C754.315 281.219 754.315 283.132 755.495 284.312C756.675 285.492 758.588 285.492 759.768 284.312Z" fill="#382C80"/>
<path d="M788.12 314.486L791.471 311.771C792.572 310.669 792.572 308.885 791.471 307.783C790.345 306.743 788.609 306.743 787.483 307.783L784.161 310.527C783.105 311.62 783.105 313.353 784.161 314.447C785.264 315.477 786.977 315.477 788.081 314.447L788.12 314.486Z" fill="#382C80"/>
<path d="M823.184 340.162L824.096 338.947C824.601 338.068 824.528 336.971 823.911 336.167C823.293 335.363 822.253 335.01 821.273 335.272L820.675 335.527C820.302 335.744 819.991 336.054 819.774 336.428L818.862 337.634C818.516 338.226 818.428 338.934 818.617 339.594C818.989 340.922 820.364 341.702 821.695 341.338L822.283 341.083C822.656 340.87 822.967 340.562 823.184 340.191V340.162Z" fill="#382C80"/>
<path d="M860.963 360.115C863.096 358.806 864.869 356.983 866.118 354.813C866.778 353.648 866.481 352.174 865.422 351.354C864.364 350.517 862.847 350.605 861.894 351.56C861.286 352.285 860.639 353.01 859.983 353.696C859.689 354.01 859.375 354.304 859.003 354.598L858.454 355.058C858.797 354.784 858.111 355.293 858.101 355.303C857.242 355.806 856.715 356.729 856.721 357.724C856.726 358.72 857.262 359.637 858.127 360.13C858.992 360.623 860.054 360.618 860.914 360.115H860.963Z" fill="#382C80"/>
<path d="M890.157 361.32L891.069 360.409C891.537 359.928 891.803 359.286 891.813 358.615C891.813 357.214 890.677 356.077 889.275 356.077C888.604 356.087 887.962 356.354 887.482 356.822L886.57 357.733C886.093 358.208 885.824 358.853 885.824 359.527C885.824 360.2 886.093 360.846 886.57 361.32C887.047 361.795 887.691 362.062 888.364 362.065C889.034 362.053 889.675 361.787 890.157 361.32Z" fill="#382C80"/>
<path d="M695.323 175.405C696.029 212.537 695.843 249.649 695.402 286.782C695.402 288.83 698.538 288.83 698.577 286.782C699.233 249.659 698.753 212.507 697.754 175.405C697.754 174.734 697.21 174.189 696.538 174.189C695.867 174.189 695.323 174.734 695.323 175.405Z" fill="#382C80"/>
<path d="M707.544 283.185C707.544 285.586 707.544 287.977 707.622 290.368C707.622 291.18 708.28 291.838 709.092 291.838C709.904 291.838 710.562 291.18 710.562 290.368C710.608 287.977 710.634 285.583 710.641 283.185C710.577 282.38 709.905 281.76 709.097 281.76C708.29 281.76 707.618 282.38 707.554 283.185H707.544Z" fill="#382C80"/>
<path d="M937.502 336.909C936.13 341.593 934.973 346.17 932.866 350.629C930.828 354.832 928.358 358.813 925.497 362.506C924.399 363.947 926.878 365.877 928.025 364.466C934.14 356.92 939.099 347.032 940.02 337.242C940.157 335.772 937.894 335.556 937.502 336.909Z" fill="#382C80"/>
<path d="M940.196 370.914C941.029 370.914 941.705 370.239 941.705 369.405C941.705 368.572 941.029 367.896 940.196 367.896C939.362 367.896 938.687 368.572 938.687 369.405C938.687 370.239 939.362 370.914 940.196 370.914Z" fill="#382C80"/>
<path d="M659.995 414.485C663.241 418.735 667.248 422.344 671.814 425.128C673.558 426.187 675.087 423.511 673.401 422.414C669.139 419.672 665.335 416.276 662.131 412.349C660.897 410.83 658.839 412.976 659.995 414.485Z" fill="#382C80"/>
<path d="M684.338 404.283L687.209 412.858C687.895 414.907 691.129 414.025 690.453 411.967L687.592 403.392C686.906 401.343 683.672 402.216 684.338 404.283Z" fill="#382C80"/>
<path d="M665.865 452.96C670.941 452.656 676.027 452.392 681.113 452.078C683.142 451.951 683.152 448.775 681.113 448.913C676.027 449.246 670.951 449.628 665.865 449.971C663.905 450.098 663.905 453.078 665.865 452.911V452.96Z" fill="#382C80"/>
</svg>
