<svg width="1000" height="1000" viewBox="0 0 1000 1000" fill="none" xmlns="http://www.w3.org/2000/svg">
<path d="M679.458 772.93C692.345 758.828 712.288 753.33 731.398 752.232C738.258 751.84 745.186 751.948 751.792 753.771C755.79 754.878 759.543 757.995 763.385 758.896C767.844 759.935 767.824 758.896 772.342 758.524C786.435 757.485 806.975 758.524 806.76 777.84C806.681 784.043 803.516 789.864 799.312 794.421C795.833 798.184 791.599 801.281 788.738 805.544C784.612 811.708 788.13 817.138 786.15 823.41C784.7 827.976 781.505 830.828 777.213 832.749C768.648 836.6 757.613 836.287 750.753 843.421C743.158 851.261 745.608 864.707 739.689 873.909C729.408 889.883 706.545 876.849 694.54 888.609C690.718 892.362 689.473 898.086 685.906 902.084C664.797 925.741 621.344 885.551 595.384 893.117C585.446 896.057 575.999 904.495 566.18 901.241C556.938 898.184 553.939 886.463 554.704 876.741C556.507 853.995 573.157 836.13 591.591 824.468C610.025 812.806 633.28 817.187 645.961 796.048" fill="#382C80"/>
<path d="M681.702 775.164C690.179 766.971 700.586 761.817 711.993 759.053C723.401 756.289 736.68 754.849 748.253 757.456C754.31 758.828 759.082 763.257 765.403 763.816C767.35 763.841 769.293 763.643 771.195 763.228C773.379 762.988 775.575 762.88 777.771 762.904C784.494 762.816 792.981 763.042 798.282 767.804C805.73 774.527 800.958 785.846 795.176 791.834C790.815 796.342 785.376 800.252 782.994 806.279C782.052 808.882 781.652 811.65 781.818 814.413C781.887 817.069 782.338 819.842 781.387 822.4C779.682 826.957 774.831 828.721 770.519 829.956C765.149 831.485 759.641 832.475 754.555 834.856C743.687 840.06 741.295 850.262 739.12 861.012C738.14 865.657 737.023 870.695 733.357 874.007C730.613 876.477 726.87 877.378 723.273 877.731C714.247 878.603 704.83 877.212 696.411 881.396C691.707 883.738 688.571 887.805 686.229 892.372C684.161 896.361 682.162 900.026 678.203 902.378C672.323 905.877 665.081 905.191 658.662 903.75C642.002 899.987 626.841 890.706 609.858 888.07C605.839 887.378 601.74 887.292 597.696 887.815C592.727 888.54 588.17 890.755 583.682 892.892C579.017 895.136 573.255 898.448 567.924 896.812C564.004 895.596 561.71 892 560.554 888.227C557.526 878.427 560.25 867.216 564.876 858.327C569.884 848.713 577.479 840.609 585.956 833.945C594.266 827.418 602.929 823.527 613.033 820.685C622.225 818.098 631.653 815.619 639.424 809.739C643.524 806.571 647 802.67 649.675 798.233C652.615 793.49 645.167 789.188 642.237 793.882C636.475 803.153 627.439 807.387 617.286 810.307C607.133 813.227 596.775 815.736 587.671 821.616C568.071 834.278 550.431 854.358 549.872 878.848C549.647 888.825 553.135 900.683 563.014 905.014C575.754 910.61 586.014 900.114 597.794 897.321C605.271 895.577 613.641 898.193 620.785 900.555C629.791 903.495 638.503 907.327 647.509 910.355C655.565 913.021 664.238 915.167 672.764 914.02C682.309 912.746 689.424 907.004 693.795 898.585C696.166 894.058 698.411 890.373 703.595 888.903C707.936 887.658 712.523 887.786 717.001 887.698C727.144 887.482 737.15 886.012 743.402 877.114C746.656 872.478 747.871 866.794 748.939 861.326C749.919 856.426 750.625 850.683 754.222 846.89C758.004 842.902 763.806 841.765 768.922 840.481C774.566 839.08 780.358 837.473 784.905 833.68C789.453 829.73 791.932 823.908 791.628 817.892C791.569 815.285 790.981 812.404 791.903 809.886C792.99 806.946 795.764 804.584 797.988 802.447C806.808 793.99 814.374 783.171 810.513 770.294C807.847 761.474 799.899 756.407 791.187 754.712C786.783 753.877 782.3 753.528 777.82 753.673C775.86 753.722 773.802 753.82 771.813 754.026C769.353 754.28 767.06 755.113 764.619 754.565C761.895 753.947 759.533 752.262 757.024 751.095C753.679 749.626 750.124 748.69 746.489 748.322C739.6 747.582 732.647 747.681 725.782 748.616C713.728 750.027 701.703 753.075 691.149 759.239C685.895 762.238 681.203 766.128 677.282 770.735C674.704 773.812 678.781 778.085 681.76 775.203L681.702 775.164Z" fill="#382C80"/>
<path d="M702.664 513.593C701.312 546.785 690.13 578.557 683.779 611.103C675.263 654.742 680.369 710.534 708.818 744.696C731.692 772.136 756.045 798.204 778.614 825.987C793.049 843.745 807.083 860.983 820.607 879.77C821.87 881.305 822.813 883.078 823.38 884.983C824.066 888.031 822.822 891.128 821.264 893.705C816.217 902.094 806.632 908.611 799.958 915.687C791.619 924.507 782.857 932.954 773.9 941.069C768.383 946.067 746.352 972.713 740.58 956.837C739.091 952.731 739.943 948.144 741.207 944.038C743.461 936.727 746.94 929.956 749.675 922.851C752.409 915.746 754.398 908.023 753.467 900.311C750.684 877.3 721.901 863.629 705.447 852.193C686.827 839.266 667.678 827.026 650.9 811.66C623.647 786.699 598.314 750.792 594.403 712.386C591.375 682.604 599.107 652.429 611.612 625.538C624.117 598.647 641.277 574.578 658.309 550.647" fill="white"/>
<path d="M699.979 513.592C698.224 551.126 683.75 586.269 678.879 623.284C674.959 653.203 676.919 685.024 687.562 713.444C692.962 727.811 700.782 740.11 710.612 751.811C723.038 766.609 735.856 781.074 748.547 795.646C761.238 810.219 773.635 825.105 785.787 840.187C791.922 847.792 798.018 855.426 803.966 863.168C806.795 866.853 809.592 870.564 812.355 874.301C813.871 876.352 815.377 878.417 816.873 880.495C818.02 882.082 819.695 883.944 820.038 885.924C820.734 889.844 817.098 894.097 814.619 896.841C811.791 899.907 808.787 902.807 805.623 905.524C799.066 911.404 793.137 917.793 786.865 923.938C781.26 929.377 775.311 934.453 769.794 940.02C766.589 943.215 763.502 946.527 760.17 949.594C756.838 952.662 753.173 956.043 748.93 957.63C747.528 958.15 746.244 958.395 745.558 957.895C743.667 956.484 743.393 952.828 743.598 950.388C744.578 941.186 750.008 932.415 753.271 923.928C756.476 915.588 758.426 906.661 756.848 897.743C754.545 884.699 744.5 874.771 734.406 867.059C723.597 858.68 711.68 851.82 700.4 844.039C684.994 833.464 669.412 823.027 655.467 810.532C643.069 799.532 632.048 787.07 622.647 773.42C613.229 759.602 605.565 744.471 601.332 728.242C596.843 711.053 596.814 692.893 599.832 675.449C606.202 638.631 625.048 605.938 645.804 575.489C651.018 567.835 656.378 560.27 661.729 552.714C664.669 548.549 657.809 544.629 654.869 548.725C632.682 579.703 610.426 611.269 598.421 647.823C592.482 665.894 589.092 685.063 589.797 704.114C590.564 721.307 594.78 738.171 602.194 753.702C617.159 785.797 642.374 811.914 670.598 832.7C684.455 842.892 698.724 852.741 713.267 861.953C724.371 868.989 736.699 876.3 744.284 887.355C748.494 893.251 750.436 900.467 749.753 907.68C748.861 917.411 744.098 926.3 740.462 935.218C737.375 942.793 733.828 952.025 737.807 959.933C739.788 964.148 744.441 966.41 748.979 965.363C753.8 964.383 758.063 961.09 761.719 958.013C765.631 954.644 769.357 951.065 772.881 947.291C777.232 942.783 781.956 938.677 786.483 934.336C793.343 927.74 799.713 920.567 806.691 914.089C812.669 908.532 819.235 903.309 823.684 896.39C825.791 893.107 827.369 889.256 826.82 885.297C826.222 880.906 823.037 877.457 820.499 873.968C808.631 857.788 795.999 842.196 783.328 826.644C770.852 811.316 757.897 796.411 744.843 781.564C738.179 773.998 731.505 766.452 724.91 758.837C718.804 751.791 712.336 744.843 706.927 737.277C688.709 711.699 682.642 678.811 682.956 647.941C683.328 611.445 696.098 577.185 702.193 541.542C703.814 532.337 704.845 523.037 705.28 513.7C705.427 510.251 700.077 510.26 699.91 513.7L699.979 513.592Z" fill="#382C80"/>
<path d="M727.36 523.118C733.087 558.192 730.676 594.112 720.314 628.106C710.122 661.749 690.453 689.846 673.274 719.99C669.55 726.556 665.747 733.152 663.346 740.423C660.465 749.155 659.711 758.504 659.103 767.736C656.673 804.78 656.251 841.912 653.399 878.937C651.586 902.613 649.842 925.614 646.696 949.33C646.568 951.373 646.038 953.371 645.138 955.21C643.58 957.905 640.63 959.13 637.817 959.826C628.664 961.972 617.59 959.326 608.172 959.287C596.412 959.287 584.652 958.601 572.892 957.562C565.68 956.925 532.409 959.179 539.033 943.46C540.748 939.383 544.414 936.766 548.059 934.797C554.537 931.288 561.505 929.113 568.179 926.114C574.852 923.115 581.428 919.136 585.956 912.903C598.206 896.057 587.847 857.563 586.416 838.031C584.339 809.553 582.947 780.907 584.75 752.281C589.65 675.41 617.678 599.735 662.749 541.297" fill="white"/>
<path d="M724.724 523.834C730.627 560.401 727.512 597.857 715.649 632.947C704.359 665.944 683.652 694.305 667.051 724.655C662.728 732.184 659.65 740.361 657.937 748.871C656.32 757.691 655.898 766.668 655.359 775.576C654.164 795.176 653.468 814.835 652.586 834.474C651.723 853.604 650.518 872.711 648.97 891.794C647.46 910.787 645.951 929.848 643.227 948.713C642.668 952.633 641.62 955.004 637.7 956.122C633.388 957.347 628.684 957.102 624.254 956.808C615.375 956.18 606.614 955.69 597.706 955.377C585.564 954.955 573.441 953.995 561.309 953.417C556.843 953.327 552.402 952.735 548.069 951.653C546.45 951.271 544.911 950.608 543.522 949.693C542.664 949.218 542.085 948.362 541.963 947.39C541.856 940.971 550.666 937.413 555.497 935.306C563.22 931.925 571.393 929.426 578.508 924.811C584.172 921.106 589.219 916.206 591.963 909.934C594.228 904.355 595.467 898.412 595.618 892.392C596.324 879.074 594.08 865.717 592.149 852.585C589.915 837.424 589.131 822.116 588.484 806.819C587.527 787.487 587.687 768.116 588.964 748.803C593.842 682.389 615.637 618.329 652.272 562.72C656.689 556.056 661.331 549.549 666.198 543.199C668.893 539.671 662.729 534.869 659.995 538.416C618.041 592.689 592.169 658.368 583.349 726.263C578.449 763.767 579.164 802.291 582.751 839.943C583.996 852.918 586.73 865.707 587.651 878.721C588.553 890.756 589.052 905.181 579.703 914.256C573.412 920.361 565.003 923.37 557.026 926.584C549.813 929.524 541.493 932.582 536.975 939.324C534.349 943.244 533.349 948.487 535.995 952.643C538.23 956.151 542.434 957.935 546.295 958.973C554.694 961.237 563.416 960.728 572 961.178C580.997 961.659 589.944 962.521 598.96 962.756C603.488 962.884 608.035 962.756 612.553 963.05C617.227 963.344 621.863 963.962 626.537 964.148C633.515 964.432 643.197 964.148 647.627 957.719C649.832 954.514 650.028 950.487 650.498 946.743C651.145 941.618 651.733 936.473 652.272 931.337C654.34 911.737 655.869 892.069 657.172 872.41C658.544 852.369 659.269 832.289 660.112 812.218C660.514 802.183 660.935 792.148 661.445 782.123C661.945 772.421 662.19 762.523 663.65 752.948C666.423 734.681 677.233 719.03 686.484 703.438C695.598 688.16 704.82 672.921 712.268 656.8C727.685 623.211 734.746 586.39 732.848 549.48C732.388 540.402 731.406 531.358 729.908 522.393C729.339 518.993 724.185 520.433 724.724 523.824V523.834Z" fill="#382C80"/>
<path d="M539.072 943.411C540.787 939.334 544.453 936.717 548.098 934.748C554.576 931.239 561.544 929.064 568.218 926.065C570.274 925.151 572.282 924.134 574.235 923.017C575.313 929.818 576.009 936.737 576.459 943.597C584.299 944.551 592.139 945.433 599.979 946.243C609.348 947.223 618.727 948.085 628.145 948.458C632.888 948.654 637.945 949.144 642.717 948.595C644.074 948.382 645.442 948.248 646.814 948.193L646.667 949.34C646.538 951.383 646.009 953.381 645.108 955.22C643.55 957.915 640.6 959.14 637.788 959.836C628.635 961.982 617.561 959.336 608.143 959.297C596.383 959.297 584.623 958.601 572.863 957.572C565.719 956.876 532.448 959.13 539.072 943.411Z" fill="#382C80"/>
<path d="M542.483 945.4C545.207 939.599 551.851 937.021 557.437 934.708C563.778 932.082 570.236 929.808 576.224 926.427L570.422 924.066C571.402 930.534 572.069 937.051 572.51 943.587C572.6 945.714 574.303 947.418 576.43 947.507C588.307 948.938 600.195 950.29 612.112 951.319C618.05 951.839 623.979 952.162 629.928 952.456C632.78 952.593 635.632 952.789 638.493 952.75C641.355 952.711 644.02 952.192 646.804 952.103L642.884 948.183C642.629 950.143 642.492 952.593 640.973 954.063C639.454 955.533 636.67 956.023 634.612 956.366C629.458 957.092 624.117 956.474 618.932 955.994C607.525 954.936 596.049 955.181 584.632 954.446C578.086 954.024 571.608 953.466 565.032 953.319C559.642 953.191 554.154 952.995 548.902 951.672C546.844 951.153 544.266 950.29 543.022 949.046C542.74 948.824 542.515 948.539 542.365 948.213C542.208 947.958 542.149 947.674 542.179 947.85C542.078 946.671 542.316 945.488 542.865 944.44C544.746 939.706 537.112 937.658 535.25 942.333C529.106 957.836 550.499 960.551 560.73 961.061C567.649 961.413 574.509 961.629 581.418 962.119C594.932 963.099 608.446 963.03 621.941 964.157C628.311 964.696 635.318 965.137 641.414 962.795C648.185 960.198 649.969 954.847 650.812 948.164C651.067 946.086 648.783 944.156 646.892 944.244C641.394 944.42 636.112 944.9 630.624 944.626C624.469 944.322 618.335 943.999 612.2 943.46C600.283 942.48 588.396 941.078 576.518 939.648L580.438 943.568C579.948 936.325 579.184 929.113 578.066 921.949C577.665 919.342 574.274 918.46 572.265 919.587C565.513 923.389 558.123 925.751 551.067 928.907C544.972 931.631 538.651 935.081 535.691 941.392C533.516 945.988 540.317 950.006 542.483 945.4Z" fill="#382C80"/>
<path d="M745.147 956.553C743.187 952.633 743.599 948.007 744.451 943.813C745.97 936.414 748.793 929.465 750.821 922.253C751.439 920.048 751.978 917.794 752.379 915.51C758.142 918.979 763.728 922.811 769.137 926.819C774.841 921.175 780.502 915.478 786.121 909.728C792.824 902.868 799.459 895.949 805.721 888.678C808.896 885.013 812.512 881.269 815.119 877.143C815.821 875.926 816.593 874.752 817.432 873.625L818.196 874.458C819.629 875.874 820.768 877.559 821.548 879.417C822.528 882.357 821.626 885.532 820.313 888.237C816.07 896.89 807.044 904.034 801.007 911.531C793.471 920.881 785.474 929.857 777.242 938.53C772.185 943.871 752.634 971.831 745.147 956.553Z" fill="#382C80"/>
<path d="M748.557 954.563C746.058 948.84 748.969 941.314 750.713 935.747C752.673 929.397 754.957 923.145 756.191 916.598L750.39 918.95C756.152 922.449 761.709 926.251 767.138 930.259C768.539 931.288 770.774 930.779 771.93 929.642C780.887 920.763 789.805 911.826 798.449 902.643C802.663 898.164 806.72 893.549 810.787 888.923C814.521 884.689 817.5 880.103 820.862 875.624L814.658 876.428C816.187 878.114 818.029 879.819 818.029 882.239C818.029 884.66 816.501 887.218 815.187 889.286C812.486 893.233 809.397 896.9 805.966 900.232C798.733 907.788 792.334 916.04 785.386 923.86C780.486 929.328 775.36 934.542 770.686 940.177C767.029 944.824 762.983 949.152 758.592 953.113C756.74 954.701 754.486 956.504 752.046 957.033C751.725 957.11 751.396 957.143 751.066 957.131C750.899 957.119 750.734 957.086 750.576 957.033C749.698 956.421 749.017 955.566 748.616 954.573C746.274 950.055 739.453 954.044 741.756 958.552C749.988 974.408 766.619 957.102 773.341 949.271C778.575 943.186 783.955 937.286 789.335 931.318C797.606 922.125 805.348 912.541 813.835 903.505C817.961 899.095 822.087 894.352 824.478 888.737C827.496 881.632 825.174 876.261 820.303 870.871C818.431 868.794 815.53 869.764 814.1 871.665C812.434 873.9 811.16 876.359 809.396 878.525C807.632 880.691 805.642 882.896 803.751 885.062C799.929 889.423 796.058 893.735 792.069 897.959C783.69 906.779 775.066 915.461 766.403 924.046L771.185 923.429C765.756 919.421 760.2 915.589 754.437 912.129C752.399 910.885 749.106 911.973 748.636 914.481C747.175 922.204 744.284 929.495 742.138 937.021C740.09 944.205 738.708 951.457 741.795 958.523C743.765 963.197 750.576 959.179 748.557 954.563Z" fill="#382C80"/>
<path d="M640.228 515.729C610.322 549.109 588.034 588.594 574.911 631.448C564.435 665.748 560.074 701.635 559.064 737.415C558.545 755.731 558.898 774.057 559.741 792.364C560.378 806.387 561.505 820.137 561.505 834.18C561.505 840.403 558.947 845.156 557.006 851.075C554.694 858.091 553.053 865.31 552.106 872.635C551.636 876.33 550.587 891.255 556.85 891.51C559.79 891.628 559.339 887.806 559.976 885.856C561.26 881.936 563.729 878.065 565.856 874.556C568.992 869.411 572.892 864.315 578.508 862.12C582.555 860.63 586.992 860.581 591.071 861.983C596.736 863.835 601.4 867.863 606.839 870.332C613.586 873.302 621.188 873.693 628.203 871.43C633.309 869.774 636.631 864.688 639.963 860.65C642.551 857.504 645.559 853.398 649.763 852.428C655.242 851.173 660.112 855.917 663.483 859.601C667.913 864.501 675.067 869.401 680.506 865.638C687.033 861.14 684.152 848.243 691.639 845.646C694.157 844.784 696.901 845.587 699.479 846.244C710.259 849.008 724.038 847.792 729.192 837.943C735.298 826.291 725.145 808.543 737.258 799.802C746.333 793.226 769.255 802.595 770.176 785.984C770.441 781.182 771.46 774.675 774.792 770.941C778.3 767.021 781.191 768.275 785.572 767.501C788.414 767.001 791.266 766.07 794.176 766.051C795.803 766.051 800.938 768.236 802.016 767.628C805.103 765.825 800.233 756.995 799.076 754.888C793.99 745.657 785.621 738.571 777.046 732.682C765.07 724.45 753.869 716.747 743.197 706.868C732.524 696.99 742.138 679.497 747.068 668.825C769.167 620.962 768.824 563.289 746.146 515.69" fill="#7F72FF"/>
<path d="M638.18 513.72C612.572 542.277 592.12 574.421 578.223 610.24C563.112 649.166 556.663 690.855 554.909 732.417C553.978 754.516 554.351 776.644 555.507 798.723C556.066 809.258 556.761 819.803 556.899 830.358C557.017 835.211 556.192 840.04 554.468 844.578C552.715 849.208 551.232 853.936 550.029 858.739C548.343 865.736 546.991 873.056 547.187 880.299C547.334 885.747 548.284 893.774 554.468 895.704C558.041 896.947 561.952 895.117 563.288 891.578C563.703 890.209 564.03 888.815 564.268 887.404C565.011 885.093 566.059 882.891 567.385 880.857C571.687 873.429 577.057 864.197 587.063 865.667C591.963 866.392 596.001 869.44 600.146 871.871C604.198 874.369 608.688 876.075 613.376 876.898C622.608 878.329 632.114 876.545 638.533 869.411C641.267 866.363 643.57 862.953 646.373 859.964C649.175 856.975 651.929 855.799 655.575 858.337C659.22 860.875 661.553 864.442 664.963 867.039C668.374 869.636 672.313 871.606 676.576 871.439C684.808 871.126 688.003 863.815 689.747 856.916C690.238 854.956 690.62 851.33 692.531 850.134C694.128 849.154 696.607 850.183 698.254 850.585C700.143 851.043 702.058 851.393 703.987 851.634C711.307 852.614 719.549 851.908 725.89 847.772C732.446 843.5 735.298 836.63 735.69 829.005C735.994 822.273 733.867 814.619 736.248 808.131C738.208 802.702 743.05 801.791 748.195 801.487C753.673 801.173 759.523 801.487 764.757 799.625C770.774 797.459 773.89 792.696 774.478 786.434C774.831 782.7 775.086 778.751 776.967 775.409C779.055 771.715 782.093 772.469 785.787 771.871C788.179 771.519 790.511 770.764 792.922 770.509C794.304 770.362 795.45 770.833 797.136 771.313C800.35 772.234 803.761 772.832 805.956 769.715C809.523 764.766 805.26 757.279 802.751 752.752C798.292 744.716 791.677 738.287 784.445 732.76C776.605 726.772 768.226 721.539 760.356 715.6C756.247 712.516 752.275 709.249 748.44 705.8C745.676 703.34 743.304 701.066 742.756 697.244C741.697 689.992 745.539 682.221 748.518 675.861C752.346 667.904 755.687 659.722 758.524 651.361C770.289 615.044 770.75 576.01 759.847 539.425C757.148 530.59 753.726 521.993 749.616 513.72C747.283 508.967 740.443 513.122 742.579 517.826C757.89 551.497 762.61 589.026 756.113 625.44C754.45 634.564 752.081 643.545 749.028 652.302C746.382 659.867 742.942 667.002 739.669 674.312C736.582 681.172 733.426 688.797 733.916 696.49C734.494 705.692 740.531 710.866 747.215 716.403C754.457 722.401 762.101 727.869 769.823 733.21C777.546 738.551 785.101 743.657 791.06 750.88C793.151 753.497 794.957 756.329 796.45 759.327C797.071 760.49 797.608 761.695 798.057 762.934C798.217 763.626 798.414 764.31 798.645 764.982C798.694 765.202 798.694 765.429 798.645 765.648C800.605 765.286 801.438 764.541 801.232 763.404C800.468 762.748 797.949 762.424 796.93 762.218C795.218 761.819 793.446 761.746 791.707 762.003C787.787 762.483 783.867 763.267 779.858 763.767C771.097 764.884 767.452 773.469 766.325 781.27C765.962 783.798 766.325 787.15 764.874 789.355C763.894 790.844 762.091 791.432 760.229 791.863C749.449 794.333 737.209 790.305 729.967 801.242C725.978 807.269 726.429 814.835 726.782 821.714C727.085 827.78 727.762 835.042 722.538 839.354C717.315 843.666 709.406 843.764 703.183 842.588C698.969 841.785 694.775 840.079 690.443 841.422C687.275 842.498 684.711 844.866 683.387 847.939C682.279 850.659 681.407 853.468 680.781 856.338C680.183 858.572 679.467 861.982 676.762 862.531C673.313 863.227 669.422 859.434 667.276 857.239C664.336 854.191 661.484 851.046 657.554 849.233C648.734 845.195 642.1 851.046 636.837 857.543C634.652 860.228 632.623 863.237 629.977 865.452C626.508 868.303 621.236 868.705 616.933 868.392C607.133 867.627 600.46 859.797 591.238 857.337C582.016 854.877 572.892 858.317 566.806 865.559C564.358 868.6 562.155 871.831 560.221 875.222C558.261 878.544 555.056 883.19 555.164 887.257C555.164 888.531 554.008 888.736 556.918 886.972C556.987 886.972 557.673 887.041 557.643 887.129C557.341 886.501 557.102 885.844 556.928 885.169C556.368 882.49 556.194 879.744 556.409 877.016C556.712 869.048 558.692 861.042 561.083 853.496C562.308 849.576 564.023 845.881 565.003 841.941C566.326 836.904 566.091 831.74 565.983 826.575C565.415 805.133 563.641 783.759 563.318 762.307C562.69 721.147 565.601 679.565 576.557 639.709C586.553 603.351 603.449 569.835 625.234 539.161C630.518 531.725 636.207 524.587 642.276 517.777C644.716 515.043 640.698 511.005 638.239 513.749L638.18 513.72Z" fill="#7F72FF"/>
<path d="M422.776 366.985C440.622 364.045 459.036 368.945 475.069 377.373C491.102 385.801 505.027 397.59 518.836 409.282L574.784 456.616C590.082 437.751 610.426 421.198 623.784 401.099C635.593 383.312 654.83 371.865 676.282 369.249C685.024 368.18 694.197 368.68 702.145 372.463C710.092 376.246 716.58 383.762 717.56 392.514C718.442 400.746 714.512 408.664 710.612 415.965C702.066 431.972 693.099 447.74 683.711 463.27C674.499 478.44 664.64 493.777 650.548 504.596C638.141 514.122 623.186 519.62 608.408 524.588C588.024 531.448 566.895 537.593 545.423 536.515C510.035 534.741 478.558 513.603 452.323 489.789C438.231 476.98 428.313 457.047 410.183 449.256C405.283 447.168 399.893 446.796 394.601 446.659C387.082 446.452 379.557 446.658 372.061 447.276C364.466 447.894 355.852 448.609 350.207 443.493" fill="white"/>
<path d="M423.56 369.66C445.963 366.142 467.954 375.158 486.28 387.378C505.694 400.324 523.001 416.563 540.768 431.625L572.706 458.703C573.843 459.683 575.852 460.036 576.94 458.703C590.503 442.131 606.938 428.137 620.158 411.271C626.116 403.666 630.938 395.591 638.337 389.162C645.52 382.934 653.896 378.236 662.955 375.354C672.696 372.237 683.672 370.601 693.766 372.904C703.252 375.07 712.631 381.773 714.267 391.955C716.071 403.254 707.554 414.916 702.39 424.295C696.693 434.65 690.813 444.904 684.75 455.057C673.813 473.413 662.455 492.915 644.207 504.949C635.025 511.005 624.833 515.2 614.513 518.836C603.586 522.793 592.465 526.195 581.193 529.028C559.427 534.29 537.72 534.525 516.464 527.009C496.864 520.07 479.224 508.085 463.456 494.728C456.286 488.769 449.658 482.187 443.65 475.059C437.829 468.052 432.243 460.741 425.334 454.744C417.866 448.266 409.585 444.032 399.638 443.18C388.349 442.2 377.196 443.572 365.926 443.924C361.409 444.062 356.42 443.924 352.785 440.818C349.149 437.711 343.867 442.993 347.532 446.08C355.96 453.185 366.867 451.176 377 450.588C388.359 449.932 401.775 448.57 412.075 454.273C420.454 458.918 426.882 466.249 432.949 473.511C439.181 480.988 445.248 488.377 452.549 494.845C468.895 509.33 486.849 522.432 507.076 530.929C527.991 539.727 551.049 542.115 573.324 537.789C585.75 535.496 597.824 531.693 609.799 527.665C620.579 524.039 631.359 520.139 641.267 514.612C661.328 503.469 674.332 485.075 685.955 465.847C692.489 455.06 698.806 444.153 704.908 433.125C707.966 427.607 711.004 422.08 713.934 416.465C716.619 411.349 719.275 405.989 720.324 400.256C722.196 390.034 718.207 380.273 710.191 373.796C701.518 366.759 690.003 364.868 679.115 365.75C659.24 367.367 640.062 376.53 626.979 391.73C623.647 395.601 620.962 399.883 617.963 403.999C614.576 408.574 610.958 412.973 607.124 417.18C599.558 425.618 591.444 433.566 583.722 441.857C579.9 445.933 576.185 450.108 572.657 454.44H576.891C557.173 437.786 537.453 421.126 517.728 404.46C500.206 389.711 481.88 374.991 459.84 367.671C447.697 363.488 434.725 362.291 422.022 364.182C418.454 364.75 419.973 370.15 423.511 369.601L423.56 369.66Z" fill="#382C80"/>
<path d="M486.662 280.265C467.875 369.17 448.55 458.027 424.755 545.845C418.63 568.483 411.035 590.444 403.195 612.681C400.99 618.913 397.129 626.401 390.103 626.401C384.536 626.401 380.499 621.579 377.666 617.1C348.492 570.982 337.918 511.388 321.953 460.3L268.828 290.398" fill="white"/>
<path d="M483.84 279.5C473.363 327.706 462.77 375.893 451.5 423.903C445.835 447.926 439.955 471.9 433.86 495.825C427.793 519.6 421.796 543.453 414.426 566.865C410.82 578.4 406.9 589.905 402.901 601.352C401.216 606.163 399.844 611.289 397.511 615.836C395.934 618.894 393.307 622.961 389.279 622.324C384.889 621.638 382.106 616.659 379.989 613.259C377.238 608.816 374.648 604.279 372.218 599.646C367.389 590.392 363.09 580.87 359.34 571.128C343.964 531.576 335.046 489.788 322.394 449.354C307.538 401.873 292.74 354.382 277.677 306.96C275.828 301.138 273.969 295.317 272.101 289.496C270.768 285.36 264.261 287.095 265.554 291.299C280.48 340.574 296.003 389.681 311.35 438.828C318.122 460.496 324.599 482.184 330.587 504.077C336.359 525.196 342.151 546.354 349.599 566.954C353.196 576.92 357.194 586.769 361.741 596.354C366.191 605.703 370.924 615.954 377.627 623.911C383.752 631.173 394.052 632.986 400.785 625.43C403.725 622.079 405.587 617.992 407.096 613.817C409.203 607.937 411.212 602.126 413.221 596.265C429.734 548.245 441.494 498.667 453.048 449.265C464.72 399.491 475.353 349.521 485.692 299.492L489.484 281.048C490.239 277.373 484.643 275.786 483.84 279.49V279.5Z" fill="#382C80"/>
<path d="M377.999 334.429C369.598 350.599 361.245 366.795 352.941 383.017C344.621 399.217 335.859 415.279 328.137 431.772C327.157 433.919 330.195 435.81 331.381 433.664C340.201 417.719 347.982 401.167 356.165 384.909C364.348 368.651 372.57 352.334 380.665 336.007C381.557 334.213 378.891 332.626 377.96 334.429H377.999Z" fill="#382C80"/>
<path d="M418.17 326.54C402.568 369.651 384.268 411.737 363.378 452.549C357.498 464.083 350.638 475.265 345.13 486.986C344.814 487.87 345.169 488.854 345.978 489.333C346.786 489.811 347.82 489.649 348.443 488.946C354.705 479.342 359.674 468.66 364.887 458.458C370.101 448.256 375.226 437.809 380.146 427.363C389.867 406.691 398.9 385.719 407.243 364.447C412.055 352.167 416.504 339.76 420.816 327.295C421.394 325.619 418.768 324.913 418.17 326.56V326.54Z" fill="#382C80"/>
<path d="M393.67 325.099C403.354 339.71 414.129 353.567 425.902 366.553C437.613 379.431 450.245 392.141 464.25 402.539C465.984 403.823 468.17 400.961 466.562 399.53C453.597 388.162 440.661 376.99 428.881 364.388C416.991 351.616 406.06 337.983 396.179 323.6C395.13 322.071 392.631 323.492 393.67 325.06V325.099Z" fill="#382C80"/>
<path d="M445.698 344.435C430.41 396.58 411.104 447.384 386.418 495.845C379.46 509.506 371.62 522.677 364.574 536.26C364.013 537.215 364.334 538.444 365.289 539.004C366.244 539.564 367.473 539.244 368.033 538.288C375.422 526.803 381.606 514.376 387.809 502.224C394.013 490.072 399.971 477.626 405.577 465.122C416.625 440.497 426.425 415.37 434.977 389.74C439.896 375.047 444.313 360.186 448.226 345.16C448.374 344.479 447.964 343.801 447.291 343.616C446.619 343.431 445.92 343.803 445.698 344.464V344.435Z" fill="#382C80"/>
<path d="M326.05 381.9C333.89 403.549 344.621 424.472 355.626 444.62C366.821 465.17 379.149 485.081 392.552 504.263C400.089 515.043 407.929 525.598 416.239 535.79C417.846 537.75 420.502 534.976 419.003 533.026C390.583 496.364 365.553 457.645 344.964 416.063C339.211 404.44 334.135 392.543 328.588 380.783C327.921 379.372 325.511 380.372 326.05 381.851V381.9Z" fill="#382C80"/>
<path d="M657.614 396.188C645.854 399.393 635.711 409.81 632.31 422.217C628.057 437.75 633.868 453.009 632.31 468.444C630.654 485.104 624.205 502.489 621.167 519.159C619.815 526.587 618.786 534.917 622.833 540.797C625.46 544.609 629.782 546.677 634.015 548.255C662.435 559.133 725.243 568.541 746.304 533.555C752.664 522.991 750.106 509.712 748.126 497.795C745.686 483.095 739.689 469.561 738.258 454.342C737.265 443.382 737.478 432.346 738.895 421.433C739.875 413.593 744.216 405.822 742.648 398.08C739.483 382.4 728.624 371.336 712.356 374.08" fill="white"/>
<path d="M656.741 393.043C640.277 397.776 629.301 412.848 627.684 429.557C626.704 439.926 628.949 450.196 629.243 460.535C629.537 470.717 627.126 480.733 624.617 490.533C622.108 500.333 619.296 509.878 617.59 519.776C616.209 527.763 615.327 536.916 620.687 543.718C625.029 549.206 632.232 551.558 638.66 553.645C644.098 555.426 649.63 556.902 655.232 558.065C679.84 563.288 709.318 565.199 732.045 552.42C744.569 545.384 753.732 533.565 754.349 518.875C755.143 499.549 747.431 481.272 743.648 462.672C741.59 452.489 741.423 441.896 742.08 431.557C742.28 426.447 742.995 421.371 744.216 416.406C745.441 411.829 746.95 407.272 747.156 402.509C747.744 388.299 736.954 372.639 722.656 370.228C718.924 369.646 715.119 369.702 711.406 370.395C706.506 371.218 708.672 378.441 713.444 377.774C726.919 375.893 736.7 386.594 738.718 399.177C739.385 403.342 738.15 407.439 737.052 411.418C735.775 415.936 734.889 420.556 734.406 425.226C733.443 434.484 733.351 443.812 734.132 453.087C735.671 470.884 742.648 487.652 745.363 505.282C746.588 513.22 747.538 522.158 743.971 529.655C741.476 534.613 737.883 538.936 733.466 542.297C715.306 556.536 688.17 556.066 666.532 552.802C656.149 551.312 645.944 548.774 636.073 545.227C632.996 544.09 629.723 542.806 627.253 540.523C624.205 537.651 623.461 533.565 623.48 529.527C623.539 521.021 626.028 512.387 628.106 504.204C630.664 494.208 633.496 484.241 634.966 474.01C636.436 463.779 635.309 453.842 634.427 443.542C633.574 433.654 633.819 423.599 638.984 414.818C643.271 407.372 650.234 401.839 658.456 399.344C662.494 398.178 660.779 391.867 656.722 393.043H656.741Z" fill="#382C80"/>
<path d="M340.26 340.378C344.621 349.786 350.991 358.635 356.636 367.318C362.28 376.001 368.082 384.478 374.099 392.857C386.108 409.595 398.848 425.772 412.319 441.386C420.1 450.402 428.097 459.222 436.398 467.748C438.289 469.708 441.229 466.768 439.338 464.808C410.771 434.968 384.795 402.75 361.692 368.504C358.491 363.721 355.349 358.9 352.265 354.039C349.09 349.031 346.238 343.72 342.71 338.947C342.281 338.329 341.449 338.146 340.799 338.525C340.15 338.905 339.902 339.721 340.23 340.397L340.26 340.378Z" fill="#382C80"/>
<path d="M687.376 402.275C672.019 432.076 647 447.08 619.883 464.328C595.598 443.219 572.725 420.539 551.411 396.434C531.576 374.011 515.553 349.658 497.04 326.325C494.855 323.581 492.552 320.729 489.357 319.269C486.162 317.808 481.801 318.289 479.881 321.229C478.685 323.071 478.675 325.433 477.862 327.481C475.186 334.282 465.876 334.713 458.605 333.988L416.847 329.833C410.536 329.196 374.864 319.857 379.088 335.713C379.852 338.565 382.126 340.789 384.585 342.426C385.288 342.769 385.839 343.358 386.134 344.082C386.202 344.989 385.865 345.879 385.213 346.513C382.831 349.609 380.528 353.128 380.607 357.038C380.685 360.948 384.272 364.946 388.064 363.996C386.173 366.554 384.34 369.376 384.144 372.551C383.948 375.726 385.997 379.254 389.162 379.578C390.838 379.754 393.239 379.47 393.552 381.136C393.594 381.682 393.493 382.229 393.258 382.724C389.505 393.455 399.334 402.882 409.007 403.157C437.897 403.98 452.744 425.795 469.649 446.277C487.672 468.111 505.782 490.475 529.135 506.909C562.455 530.38 605.654 539.886 645.471 531.105C701.184 518.816 747.391 470.688 752.997 413.368C753.644 406.734 753.761 399.913 751.831 393.533C748.714 383.243 740.433 375.07 730.859 370.17C721.284 365.27 710.465 363.31 699.753 362.438" fill="white"/>
<path d="M684.652 400.687C677.442 414.164 667.617 426.068 655.751 435.702C644.07 445.414 631.016 453.342 618.217 461.476L622.216 461.996C598.909 441.651 576.898 419.869 556.311 396.777C535.731 373.707 518.767 347.933 499.579 323.796C495.708 318.896 490.876 314.172 484.144 314.976C481.47 315.225 479.013 316.547 477.333 318.641C475.422 321.091 475.667 324.11 474.216 326.687C471.845 330.911 465.239 330.725 461.094 330.499C453.303 330.078 445.492 328.98 437.731 328.186L425.971 327.001L420.747 326.471C419.66 326.364 418.572 326.236 417.484 326.138C416.122 326.021 417.033 326.138 416.945 326.089C414.221 325.697 411.526 325.109 408.811 324.639C401.147 323.296 393.013 321.895 385.291 323.179C381.91 323.737 378.353 325.139 376.422 328.137C373.982 331.94 374.844 337.055 377.324 340.603C378.369 342.095 379.638 343.418 381.087 344.523C381.342 344.719 382.508 345.738 382.674 345.689C382.88 343.729 382.674 343.21 382.184 344.141C381.89 344.562 381.587 344.974 381.263 345.376C379.078 348.384 377.255 351.657 376.863 355.421C376.118 362.624 381.871 368.817 389.123 367.71L384.723 361.977C381.783 366.054 379.186 370.983 380.695 376.148C381.329 378.359 382.655 380.31 384.478 381.714C385.703 382.625 389.133 384.35 390.73 383.566L391.191 383.635L389.466 381.626C389.24 382.235 389.063 382.861 388.937 383.498C388.699 384.601 388.558 385.722 388.515 386.849C388.429 389.108 388.799 391.361 389.603 393.474C391.253 397.689 394.206 401.266 398.031 403.686C402.088 406.312 406.39 406.91 411.085 407.223C415.823 407.559 420.486 408.593 424.922 410.291C433.262 413.456 440.357 419.189 446.551 425.481C453.274 432.341 459.144 439.906 465.171 447.325C472.344 456.145 479.547 464.965 487.044 473.471C501.999 490.514 518.551 506.566 538.318 517.954C575.146 539.171 621.04 545.149 661.484 531.203C696.911 518.992 727.507 492.768 744.236 459.144C752.683 442.16 758.877 421.904 757.848 402.715C756.633 379.832 737.914 365.417 716.864 360.703C711.229 359.507 705.513 358.733 699.763 358.39C694.579 358.027 694.736 365.848 699.763 366.387C718.138 368.347 741.492 374.56 747.538 394.67C750.361 404.058 748.763 414.75 746.872 424.187C745.2 432.621 742.637 440.853 739.228 448.746C725.4 480.4 698.94 506.056 667.129 519.463C631.065 534.692 589.062 532.546 553.812 516.033C515.474 498.089 489.837 463.936 463.515 432.164C452.666 419.062 440.387 406.224 423.57 401.285C419.161 400.016 414.619 399.269 410.036 399.06C405.979 398.854 402.333 397.61 399.491 394.572C396.492 391.377 396.002 387.78 397.061 383.674C398.335 378.774 395.414 376.059 390.701 375.618C385.213 375.099 389.721 368.161 391.426 365.818C393.66 362.731 389.985 359.615 387.026 360.085C384.242 360.526 384.478 355.617 384.919 354.313C385.899 351.442 388.28 349.413 389.436 346.728C392.239 340.152 383.674 339.358 382.645 333.988C382.302 332.185 382.694 331.783 384.233 331.146C386.869 330.048 390.005 330.107 392.788 330.166C399.295 330.323 405.695 331.538 412.084 332.675C422.864 334.635 433.997 335.086 444.904 336.164C454.793 337.144 469.297 340.858 477.764 333.547C479.39 332.131 480.628 330.323 481.36 328.294C482.233 325.972 481.929 322.414 485.016 321.973C490.631 321.17 495.472 329.921 498.334 333.606C515.484 355.636 531.203 378.784 549.794 399.668C570.929 423.442 593.578 445.827 617.6 466.68C618.672 467.716 620.297 467.927 621.598 467.199C634.858 458.722 648.274 450.402 660.377 440.298C672.609 430.249 682.72 417.867 690.12 403.872C691.992 400.265 686.553 397.071 684.661 400.687H684.652Z" fill="#382C80"/>
<path d="M667.012 275.58C661.671 278.088 658.158 283.347 657.888 289.241C652.439 286.664 645.54 284.606 640.758 288.261C636.436 291.583 636.201 298.424 638.964 303.128C641.728 307.832 646.696 310.782 651.704 313.026C654.597 314.338 657.565 315.477 660.593 316.436C665.316 317.936 670.461 319.004 675.205 317.524C681.788 315.278 685.924 308.757 685.152 301.844" fill="#382C80"/>
<path d="M666.081 272.209C659.329 274.819 654.505 280.863 653.458 288.026L660.201 285.282C651.861 280.706 639.16 279.069 634.035 289.124C629.135 298.728 635.201 308.783 643.306 314.104C647.943 316.96 652.921 319.222 658.123 320.837C663.494 322.64 669.178 323.845 674.783 322.708C684.828 320.748 691.306 310.547 689.483 300.668C688.503 295.582 680.438 296.807 680.536 301.874C680.644 307.264 677.498 312.556 671.814 313.271C664.954 314.124 656.732 310.39 650.861 307.264C646.363 304.863 640.767 300.668 642.1 294.798C643.629 288.046 652.606 292.152 656.634 293.671C659.436 294.729 662.514 292.015 662.445 289.241C662.436 284.807 664.849 280.722 668.737 278.589C672.02 276.629 669.815 270.67 666.051 272.209H666.081Z" fill="#382C80"/>
<path d="M678.742 294.073C668.942 304.343 663.327 317.916 664.042 332.185C664.199 335.341 664.689 338.594 666.424 341.23C668.658 344.621 672.588 346.464 676.41 347.865C677.939 348.424 679.624 349.051 680.438 350.472C680.934 351.511 681.127 352.669 680.996 353.814C680.634 360.86 679.281 367.534 679.889 374.59C679.933 376.35 680.372 378.078 681.173 379.646C682.294 381.328 683.958 382.573 685.887 383.174C690.787 384.919 696.157 383.919 700.988 382.106C705.067 380.659 708.837 378.459 712.102 375.619C714.699 373.276 717.658 369.827 718.452 366.309C718.756 365.005 718.452 363.633 718.511 362.291C718.687 359.968 719.04 357.645 719.305 355.323L722.372 328.157C722.999 322.561 723.626 316.887 722.813 311.321C722 305.754 719.53 300.188 715.042 296.787C712.41 294.956 709.463 293.627 706.349 292.867C700.884 291.31 695.234 290.496 689.552 290.447" fill="white"/>
<path d="M676.4 291.75C665.365 303.51 658.241 320.444 661.151 336.761C661.768 340.586 663.736 344.063 666.698 346.561C668.105 347.729 669.652 348.717 671.304 349.501C672.872 350.246 675.655 350.687 676.89 351.883C678.125 353.078 677.282 355.95 677.135 357.518C676.949 359.546 676.704 361.565 676.498 363.584C676.018 368.484 675.449 373.923 676.782 378.705C679.154 387.202 689.15 388.74 696.627 387.339C704.869 385.791 713.15 381.234 718.393 374.599C720.9 371.733 722.349 368.094 722.499 364.289C722.578 359.546 723.313 354.832 723.852 350.119C725.008 340.034 726.674 329.842 727.154 319.739C727.585 310.732 725.782 300.756 718.667 294.543C711.161 287.977 699.067 286.546 689.522 286.928C684.975 287.105 685.044 293.592 689.522 293.925C696.774 294.474 705.947 295.405 712.062 299.698C717.658 303.618 719.099 310.938 719.089 317.338C719.089 325.687 717.609 334.125 716.698 342.406L715.404 354.048C715.179 356.008 714.914 357.968 714.698 359.987C714.512 361.751 714.787 363.613 714.551 365.338C714.13 368.405 711.053 371.316 708.858 373.178C706.05 375.535 702.84 377.364 699.381 378.578C696.108 379.773 692.443 380.744 688.934 380.116C684.279 379.293 683.505 376.392 683.358 372.08C683.306 368.423 683.489 364.767 683.907 361.134C684.23 357.616 685.23 353.294 683.907 349.874C681.525 343.602 672.911 344.719 669.285 339.486C667.041 336.242 667.149 331.646 667.325 327.912C667.482 324.015 668.14 320.154 669.285 316.426C671.613 308.928 675.637 302.067 681.045 296.375C683.917 293.279 679.301 288.633 676.4 291.73V291.75Z" fill="#382C80"/>
<path d="M692.286 345.738C686.612 346.561 681.947 345.003 676.449 344.17C674.92 343.795 673.345 344.586 672.733 346.037C672.121 347.487 672.654 349.167 673.989 350.001C679.389 354.038 687.817 353.627 693.893 351.569C697.666 350.285 696.078 345.189 692.286 345.689V345.738Z" fill="#382C80"/>
<path d="M717.021 317.465C717.707 321.65 716.227 336.369 722.842 336.751C724.9 336.869 726.606 335.223 727.938 333.645C734.71 325.687 739.855 316.005 740.825 305.617C741.796 295.229 737.68 280.529 727.262 275.795C717.55 271.385 702.253 271.307 691.659 270.65C689.082 270.344 686.472 270.49 683.946 271.082C681.506 271.817 679.321 273.679 679.164 275.982C675.244 271.807 666.953 272.591 663.954 277.167C658.221 285.909 677.615 302.647 686.269 304.843C689.307 305.607 692.727 305.823 695.089 307.783C697.852 310.086 698.029 313.878 697.941 317.23L697.715 331.234C698.176 327.108 698.695 322.875 700.655 319.18C702.615 315.486 706.535 312.32 711.141 312.173C712.454 312.061 713.767 312.377 714.885 313.075C716.306 314.123 716.757 315.868 717.021 317.465Z" fill="#382C80"/>
<path d="M714.091 317.465C714.943 323.943 712.68 334.781 719.363 338.888C724.636 342.131 729.261 337.339 732.338 333.478C736.349 328.525 739.545 322.964 741.805 317.004C745.809 306.41 745.346 294.646 740.521 284.4C738.35 279.651 734.785 275.675 730.3 273.002C725.184 270.15 719.148 269.023 713.424 268.23C706.486 267.25 699.499 266.956 692.511 266.544C685.955 266.162 676.567 266.701 675.126 274.894L682.113 273.051C676.126 267.24 664.326 267.749 660.044 275.531C656.359 282.204 660.916 289.652 665.208 294.748C669.854 300.236 676.067 305.303 682.75 308.047C686.269 309.488 692.433 308.909 693.53 313.251C694.148 315.711 693.746 318.572 693.707 321.091L693.56 331.273C693.472 336.712 701.243 336.438 701.821 331.273C702.292 327.108 702.801 322.394 705.741 319.15C706.941 317.773 708.553 316.818 710.337 316.426C712.523 316.014 712.787 316.426 713.199 318.543C714.179 323.619 721.764 321.424 720.902 316.416C719.422 307.822 710.416 306.322 703.664 310.33C696.157 314.789 694.501 323.266 693.589 331.273H701.851C701.939 326.01 702.262 320.679 702.086 315.407C701.949 311.134 700.782 306.871 697.186 304.225C693.824 301.746 689.757 301.863 686.014 300.413C683.655 299.391 681.436 298.074 679.409 296.493C674.901 293.21 669.824 288.653 667.727 283.341C667.002 281.528 666.747 279.99 668.207 278.706C670.615 276.899 673.955 277.004 676.243 278.961C678.321 280.921 682.672 280.342 683.231 277.108C683.926 273.081 692.394 274.854 695.275 274.992C699.949 275.227 704.634 275.374 709.308 275.795C717.501 276.54 727.066 277.638 732.152 284.89C736.572 291.181 738.15 299.727 737.052 307.273C736.25 312.518 734.489 317.571 731.858 322.179C730.706 324.228 729.44 326.21 728.066 328.117C727.399 329.097 724.449 333.929 722.842 333.537C720.882 333.076 720.657 327.912 720.52 326.432C720.216 323.188 720.333 319.905 719.843 316.681C719.353 313.457 713.64 314.182 714.091 317.465Z" fill="#382C80"/>
<path d="M401.294 346.767C404.901 346.767 404.911 341.151 401.294 341.151C397.678 341.151 397.668 346.767 401.294 346.767Z" fill="#382C80"/>
<path d="M407.88 391.425C411.496 391.425 411.506 385.81 407.88 385.81C404.254 385.81 404.264 391.425 407.88 391.425Z" fill="#382C80"/>
<path d="M402.265 360.644C406.234 360.644 406.244 354.479 402.265 354.479C398.286 354.479 398.286 360.644 402.265 360.644Z" fill="#382C80"/>
<path d="M405.714 377.5C409.752 377.5 409.752 371.238 405.714 371.238C401.677 371.238 401.677 377.5 405.714 377.5Z" fill="#382C80"/>
<path d="M655.467 442.748C676.175 457.027 688.042 479.929 690.208 504.694C690.63 509.467 697.999 509.594 697.764 504.694C696.5 477.911 680.438 452.48 658.25 437.985C655.252 436.025 652.566 440.759 655.467 442.748Z" fill="#382C80"/>
<path d="M734.152 730.594C731.702 703.644 746.892 679.849 755.898 655.496C765.619 629.164 771.078 601.234 767.432 573.176C765.469 557.804 760.965 542.864 754.104 528.968C751.841 524.372 745.196 528.4 747.244 532.957C758.744 557.804 762.867 585.431 759.122 612.553C757.085 626.12 753.717 639.453 749.067 652.36C744.726 664.718 739.267 676.625 734.759 688.934C729.859 702.33 726.87 716.295 728.438 730.603C728.83 734.18 734.446 734.278 734.112 730.603L734.152 730.594Z" fill="#382C80"/>
<path d="M632.672 672.303C627.116 727.644 645.305 782.544 681.947 824.282C692.376 836.231 704.174 846.911 717.099 856.102C720.529 858.523 723.607 852.976 720.353 850.526C698.705 834.297 679.644 815.158 665.277 792.118C651.417 769.7 642.376 744.643 638.729 718.54C636.606 703.221 636.294 687.705 637.798 672.313C638.102 669.03 632.996 669.069 632.672 672.313V672.303Z" fill="#382C80"/>
<path d="M636.867 658.132C640.787 658.132 640.787 651.998 636.867 651.998C632.947 651.998 632.947 658.132 636.867 658.132Z" fill="#382C80"/>
<path d="M670.383 312.35C674.166 312.604 675.44 316.348 672.98 319.043C671.892 320.239 670.677 321.297 670.167 322.894C669.187 326.021 672.372 327.922 675.067 328.569C677.213 329.088 678.762 325.923 676.625 324.864C676.214 324.649 673.45 323.688 673.382 323.267C673.47 323.825 675.547 321.522 675.822 321.219C677.242 319.799 677.994 317.844 677.89 315.838C677.747 314.028 676.866 312.356 675.454 311.214C674.041 310.073 672.222 309.562 670.422 309.802C669.718 309.802 669.148 310.372 669.148 311.076C669.148 311.779 669.718 312.35 670.422 312.35H670.383Z" fill="#382C80"/>
<path d="M683.623 317.22C684.38 317.219 685.136 317.298 685.877 317.455C686.555 317.767 687.21 318.128 687.837 318.533C689.366 319.248 691.394 317.7 690.326 316.044C688.944 313.878 684.995 312.986 682.878 314.584C682.351 314.919 682.103 315.557 682.265 316.16C682.426 316.764 682.96 317.192 683.584 317.22H683.623Z" fill="#382C80"/>
<path d="M684.24 322.963C685.409 322.963 686.357 322.015 686.357 320.846C686.357 319.677 685.409 318.729 684.24 318.729C683.071 318.729 682.123 319.677 682.123 320.846C682.139 322.008 683.077 322.947 684.24 322.963Z" fill="#382C80"/>
<path d="M670.814 319.268C673.342 319.268 673.342 315.348 670.814 315.348C668.286 315.348 668.295 319.268 670.814 319.268Z" fill="#382C80"/>
<path d="M681.957 335.203C681.467 335.203 681.182 334.742 681.045 334.595C681.045 334.595 681.045 334.174 680.977 334.537L681.065 334.37C680.977 334.478 680.977 334.478 681.065 334.37C681.153 334.262 680.957 334.37 681.212 334.252C681.653 334.017 680.986 334.252 681.467 334.174C681.153 334.252 681.643 334.174 681.467 334.174C681.29 334.174 681.29 334.066 681.182 334.017C681.398 334.125 681.261 334.076 681.124 333.851V334.017C681.124 333.762 681.075 333.753 681.075 334.017V333.811C681.016 334.007 681.016 334.037 681.075 333.89C681.133 333.743 681.133 333.772 681.075 333.958L681.212 333.802C681.065 333.949 681.055 333.958 681.212 333.86C681.339 333.772 681.369 333.762 681.212 333.86C681.084 333.949 681.516 333.782 681.104 333.86C678.713 334.321 679.291 338.084 681.672 338.055C682.719 337.999 683.697 337.515 684.376 336.716C685.054 335.916 685.374 334.873 685.259 333.831C685.196 332.789 684.693 331.823 683.877 331.173C683.06 330.523 682.006 330.249 680.977 330.421C678.907 330.691 677.376 332.48 677.429 334.566C677.652 336.907 679.698 338.645 682.045 338.486C684.103 338.28 684.191 335.252 682.045 335.213L681.957 335.203Z" fill="#382C80"/>
<path d="M754.564 784.298C724.792 773.616 703.036 746.793 699.322 715.316C695.804 685.592 705.564 656.163 711.787 627.469C715.276 611.387 718.05 594.933 717.089 578.42C716.962 576.322 713.698 576.303 713.796 578.42C716.736 637.788 671.549 703.428 713.003 757.76C723.428 771.348 737.624 781.567 753.82 787.14C755.642 787.767 756.407 784.906 754.613 784.269L754.564 784.298Z" fill="white"/>
<path d="M733.573 577.42C737.097 613.701 731.781 650.295 718.079 684.073C717.217 686.21 720.647 687.102 721.509 685.053C735.431 650.995 740.512 613.969 736.278 577.42C736.082 575.725 733.407 575.685 733.573 577.42Z" fill="white"/>
<path d="M676.4 584.28C665.231 617.26 660.179 652.003 661.494 686.798C662.66 716.139 667.785 746.519 682.211 772.469C689.679 785.905 699.733 797.704 712.503 806.348C714.463 807.681 716.286 804.515 714.355 803.182C691.335 787.238 678.399 761.307 671.725 734.759C664.071 704.379 663.248 671.902 666.825 640.845C669.021 621.865 673.112 603.151 679.036 584.985C679.594 583.29 676.939 582.575 676.37 584.25L676.4 584.28Z" fill="white"/>
<path d="M739.796 732.113C746.029 743.04 756.76 750.978 768.52 755.084C771.038 755.966 772.136 751.948 769.627 751.085C758.465 747.244 749.625 739.845 742.746 730.388C741.472 728.634 738.669 730.153 739.806 732.113H739.796Z" fill="white"/>
<path d="M658.152 827.574C617.845 778.251 600.802 711.209 611.357 648.509C614.326 630.869 619.491 613.67 626.733 597.314C627.713 595.187 624.538 593.315 623.568 595.461C596.902 654.693 599.068 725.37 626.88 783.798C634.697 800.181 644.624 815.472 656.408 829.28C657.446 830.505 659.142 828.75 658.152 827.535V827.574Z" fill="white"/>
<path d="M641.551 621.147C643.568 607.71 647.668 594.67 653.703 582.496C654.683 580.536 651.694 578.733 650.694 580.742C644.349 593.258 640.362 606.835 638.934 620.795C638.797 622.265 641.286 622.617 641.521 621.147H641.551Z" fill="white"/>
<path d="M632.77 575.038C633.669 575.038 634.397 574.31 634.397 573.411C634.397 572.513 633.669 571.785 632.77 571.785C631.872 571.785 631.144 572.513 631.144 573.411C631.144 574.31 631.872 575.038 632.77 575.038Z" fill="white"/>
<path d="M598.98 608.349C582.63 661.435 582.242 718.155 597.863 771.46C602.235 786.361 607.878 800.859 614.729 814.795C615.709 816.755 618.649 815.04 617.669 813.071C594.07 763.706 585.207 708.584 592.14 654.311C594.085 639.009 597.307 623.897 601.773 609.133C602.322 607.359 599.548 606.604 599 608.368L598.98 608.349Z" fill="white"/>
<path d="M623.872 838.443C624.519 840.805 625.136 843.176 625.832 845.509C626.528 847.841 630.017 846.841 629.409 844.529C628.801 842.216 628.027 839.825 627.312 837.482C626.596 835.14 623.215 836.189 623.833 838.462L623.872 838.443Z" fill="white"/>
<path d="M572.519 754.604C578.017 778.679 581.478 803.174 582.868 827.829C582.996 830.024 586.396 830.054 586.308 827.829C585.365 802.823 581.634 777.999 575.185 753.82C574.94 753.125 574.2 752.739 573.49 752.935C572.781 753.131 572.344 753.843 572.49 754.564L572.519 754.604Z" fill="white"/>
<path d="M563.288 748.342V749.322C563.406 750.042 564.028 750.57 564.758 750.57C565.488 750.57 566.11 750.042 566.228 749.322V748.342C566.274 747.768 565.994 747.217 565.504 746.916C565.013 746.615 564.395 746.615 563.905 746.916C563.414 747.217 563.134 747.768 563.18 748.342H563.288Z" fill="white"/>
<path d="M617.717 571.04L623.793 559.937C624.705 558.271 622.127 556.771 621.245 558.457C619.285 562.181 617.325 565.912 615.365 569.649C614.552 571.207 616.894 572.589 617.737 571.04H617.717Z" fill="white"/>
<path d="M605.115 922.88C610.495 926.329 618.159 924.722 621.353 919.097C622.559 916.97 619.472 915.245 618.11 917.205C615.62 920.827 610.765 921.928 606.957 919.734C604.938 918.519 603.155 921.615 605.115 922.88Z" fill="#382C80"/>
<path d="M772.92 865.775C774.648 869.111 775.273 872.909 774.704 876.623C774.469 878.583 777.85 879.073 778.242 877.094C779.104 872.595 778.307 867.937 775.997 863.981C774.87 862.021 771.842 863.756 772.92 865.775Z" fill="#382C80"/>
<path d="M736.631 291.799C753.472 271.176 776.231 256.211 801.84 248.924C806.74 247.532 811.924 246.425 816.971 247.238C823.992 248.517 829.966 253.104 833.014 259.557C835.947 266.029 836.011 273.439 833.19 279.961C830.25 286.752 824.752 292.034 818.97 296.621C812.11 302.079 804.515 306.911 796.068 309.361C788.914 311.399 781.368 311.634 773.959 311.86L753.82 312.428C747.813 312.604 741.648 312.761 735.964 310.831" fill="#382C80"/>
<path d="M738.571 293.739C747.77 282.945 758.671 273.726 770.842 266.446C777.059 262.717 783.583 259.526 790.344 256.911C797.038 254.334 804.447 251.462 811.669 251.031C827.192 250.188 835.326 267.191 828.27 280.098C824.88 286.311 819.156 291.084 813.521 295.209C807.132 299.874 800.213 303.784 792.442 305.548C783.563 307.567 774.155 307.195 765.109 307.45C756.064 307.704 746.058 308.978 737.121 306.421C731.456 304.794 729.232 313.281 734.71 315.162C743.951 318.328 754.31 316.995 763.845 316.681C773.381 316.368 783.034 316.505 792.422 314.721C801.242 313.075 809.337 309.008 816.589 303.833C823.282 299.051 829.897 293.651 834.435 286.693C843.421 272.885 840.05 252.736 824.458 245.318C816.285 241.398 807.573 242.936 799.233 245.474C791.319 247.905 783.659 251.095 776.36 255C760.194 263.608 745.997 275.486 734.671 289.878C732.524 292.593 736.229 296.493 738.591 293.798L738.571 293.739Z" fill="#382C80"/>
<path d="M236.047 271.454C237.164 287.389 242.221 302.07 253.765 309.929C257.362 312.379 261.488 314.084 264.722 316.995C272.17 323.688 273.13 334.831 273.542 344.837C275.005 381.691 275.714 418.565 275.668 455.459C275.668 459.173 275.668 462.995 274.208 466.415C272.248 471.208 267.838 474.491 264.006 477.989C254.794 486.408 247.66 498.481 249.306 510.839C252.315 532.742 282.528 550.823 303.726 546.188C323.042 541.974 335.605 515.71 335.987 497.697C336.36 480.185 330.333 463.27 326.579 446.159C319.269 412.839 320.552 378.235 321.875 344.102C322.297 333.253 322.983 315.437 334.988 310.223C344.533 306.087 345.287 311.87 353.176 315.525C373.247 324.815 394.278 308.185 402.01 289.829C410.83 303.02 425.305 310.468 439.377 309.018C453.45 307.567 466.68 297.258 473.442 282.479C469.787 290.466 494.826 302.197 498.432 303.304C509.986 306.852 516.611 294.955 519.012 282.597C524.392 255.079 516.151 225.522 501.372 203.413C475.814 165.134 434.85 145.593 394.924 140.585C364.976 136.832 334.253 142.918 306.823 157.667C282.519 170.73 257.352 188.723 244.749 217.848C239.124 230.98 234.695 252.139 236.047 271.454Z" fill="#7F72FF"/>
<path d="M232.823 271.454C233.626 282.234 235.9 293.318 241.986 302.422C244.665 306.486 248.102 309.997 252.109 312.761C256.823 315.985 262.33 317.975 265.506 323.002C268.397 327.579 269.367 333.145 269.827 338.447C270.376 344.886 270.435 351.383 270.641 357.851C271.085 371.943 271.412 386.039 271.621 400.138C271.83 414.237 271.948 428.339 271.974 442.445C271.974 448.991 272.905 456.38 271.435 462.799C270.121 468.522 265.016 471.933 260.958 475.706C252.815 483.281 246.356 493.424 245.386 504.704C244.563 514.328 248.63 523.324 254.696 530.586C266.094 544.208 286.193 553.577 304.049 550.137C322.365 546.619 333.968 527.028 338.163 510.3C344.239 486.143 333.4 461.78 329.078 438.26C324.09 411.202 324.492 383.488 325.452 356.097C325.795 346.346 325.452 336.007 327.873 326.481C328.853 322.561 330.48 318.445 333.645 315.701C336.585 313.183 340.456 311.781 343.798 314.065C347.718 316.769 351.236 319.357 355.911 320.787C360.844 322.248 366.055 322.51 371.11 321.552C381.469 319.651 390.799 312.879 397.345 304.892C400.621 300.918 403.329 296.509 405.391 291.789H398.678C407.88 305.294 423.56 314.829 440.308 312.82C456.596 310.86 469.983 298.992 476.794 284.459L469.757 281.519C467.738 286.585 471.933 291.544 475.529 294.592C480.324 298.504 485.592 301.796 491.209 304.392C496.109 306.734 501.176 308.812 506.664 307.156C514.288 304.862 518.561 297.248 520.952 290.172C526.979 272.346 525.02 251.364 519.698 233.636C514.07 215.361 504.4 198.586 491.405 184.558C467.66 158.519 434.34 142.486 399.766 137.331C379.592 134.293 359.01 135.403 339.28 140.595C320.484 145.563 302.824 154.315 286.683 165.026C271.758 174.954 258.263 187.115 248.552 202.315C238.428 218.221 233.597 236.88 232.46 255.598C232.174 260.881 232.217 266.177 232.587 271.454C232.872 275.884 239.81 275.923 239.526 271.454C238.409 253.991 241.535 234.89 248.679 218.867C255.392 203.795 266.152 191.094 278.834 180.647C306.097 158.254 341.024 143.692 376.491 143.407C442.445 142.849 513.553 190.193 516.836 260.606C517.277 270.033 516.66 280.049 513.406 289.026C511.123 295.317 506.546 302.05 499.079 299.502C495.394 298.247 490.053 295.229 486.094 292.73C483.481 291.196 481.073 289.335 478.93 287.193C478.178 286.415 477.541 285.534 477.039 284.576C476.872 284.282 476.872 284.341 477.195 283.518C478.803 279.49 472.011 276.599 470.149 280.578C464.475 292.661 453.852 303.118 440.181 305.078C426.324 307.038 413.015 299.051 405.401 287.879C403.95 285.743 399.942 284.939 398.688 287.879C391.161 305.245 369.768 322.875 351.05 309.596C347.933 307.381 345.17 304.97 341.142 304.823C336.536 304.647 331.695 306.901 328.275 309.86C321.65 315.584 319.611 324.864 318.651 333.165C317.397 343.896 317.465 354.872 317.171 365.652C316.809 379.156 316.73 392.68 317.465 406.175C318.096 419.347 319.735 432.452 322.365 445.375C325.011 457.978 329.01 470.286 330.999 483.026C332.567 493.111 332.44 502.92 329.245 512.662C326.491 521.08 321.963 529.243 315.466 535.349C301.932 548.089 282.019 542.904 268.426 532.938C261.703 528.038 255.686 521.099 253.599 512.867C250.894 502.283 256.245 491.611 263.291 483.967C267.054 479.881 271.699 476.686 275.051 472.207C278.402 467.729 279.284 462.221 279.324 456.576C279.441 442.758 279.206 428.921 278.961 415.103C278.726 401.441 278.399 387.777 277.981 374.109C277.569 361.467 277.756 348.541 276.237 335.968C275.791 330.86 274.412 325.878 272.17 321.268C269.661 316.456 265.682 313.114 261.066 310.409C256.45 307.704 252.344 305.186 249.032 301.001C245.915 296.892 243.589 292.24 242.172 287.281C240.641 282.127 239.684 276.819 239.32 271.454C238.957 267.338 232.509 267.299 232.823 271.454Z" fill="#7F72FF"/>
<path d="M304.608 549.304C322.934 545.06 334.351 525.294 338.192 508.144C343.769 483.36 332.107 458.164 328.265 433.919C323.845 406.096 324.61 377.804 325.688 349.756C326.031 340.613 325.746 330.715 329.284 322.081C330.921 318.092 333.459 314.839 337.614 313.33C341.975 311.752 343.955 314.192 347.414 316.574C369.494 331.92 396.248 312.653 405.332 291.691H398.815C407.968 305.215 423.56 314.78 440.308 312.82C456.616 310.86 470.032 299.1 476.892 284.518L469.62 281.46C467.337 287.164 472.648 292.515 476.686 295.709C481.663 299.537 487.074 302.764 492.807 305.323C498.511 307.95 504.636 309.243 510.369 305.725C517.856 301.148 520.972 291.721 522.364 283.548C523.099 279.236 516.719 277.285 515.67 281.705C514.259 287.585 512.015 295.092 506.674 298.649C502.93 301.139 498.942 299.365 495.894 297.944C491.442 295.898 487.179 293.465 483.154 290.672C481.297 289.441 479.619 287.961 478.166 286.272C477.833 285.851 477.186 284.724 477.127 284.655C476.843 284.135 476.882 284.43 477.225 283.567C478.862 279.422 471.894 276.462 469.993 280.519C464.348 292.613 453.764 303.059 440.112 305.088C426.245 307.156 412.868 299.13 405.234 287.948C403.823 285.88 399.932 285.125 398.717 287.948C390.76 306.352 368.719 323.12 349.717 308.802C346.297 306.235 343.024 304.47 338.604 305.137C334.024 305.852 329.825 308.106 326.697 311.527C320.503 318.387 318.945 327.863 318.259 336.791C317.348 348.688 317.201 360.713 316.985 372.639C316.73 386.359 316.868 400.079 317.965 413.75C319.036 427.438 321.248 441.013 324.58 454.332C327.824 467.209 331.764 480.087 332.342 493.434C332.755 503.927 330.284 514.333 325.198 523.52C320.347 532.34 313.055 540.641 302.893 543.052C298.855 544.032 300.57 550.206 304.608 549.275V549.304Z" fill="#382C80"/>
<path d="M325.56 169.662C306.195 153.139 303.765 122.103 315.946 99.7487C328.128 77.3949 351.942 63.2339 376.647 57.0893C397.169 51.9933 419.572 51.9051 438.77 60.7741C461.31 71.1817 477.529 94.0941 479.93 118.741C482.331 143.388 470.816 169.005 450.736 183.568" fill="#7F72FF"/>
<path d="M327.755 167.437C312.164 153.355 308.792 130.148 315.153 110.774C322.228 89.2137 341.779 73.8179 362.193 65.6153C385.34 56.3053 413.672 53.1203 436.898 63.9003C457.015 73.4653 471.303 92.1225 475.294 114.037C479.851 139.468 467.758 165.066 448.031 180.853C444.669 183.548 449.07 189.262 452.647 186.841C473.472 172.749 485.437 147.21 484.154 122.161C482.899 97.7593 468.905 74.6803 448.207 61.7639C424.472 46.8973 393.807 47.4559 367.847 55.7369C344.494 63.1947 321.699 78.2769 311.066 101.14C300.286 124.209 302.981 154.825 323.277 171.896C326.334 174.464 330.764 170.191 327.726 167.437H327.755Z" fill="#7F72FF"/>
<path d="M300.972 902.917C265.018 899.742 228.799 901.493 193.319 908.121C182.598 910.15 170.916 913.296 166.143 920.42C159.842 929.838 169.299 941.118 181.441 946.968C203.511 957.592 232.205 957.121 258.861 956.249L340.848 953.583C367.818 952.701 395.953 951.623 419.385 942.039C424.53 939.932 429.871 936.835 430.096 932.611C430.322 928.388 425.197 924.928 420.228 922.459C399.462 912.139 374.06 906.612 348.737 906.906" fill="#7F72FF"/>
<path d="M300.972 899.713C281.285 897.927 261.493 897.619 241.76 898.792C223.268 899.899 204.393 901.889 186.341 906.142C174.101 909.013 155.628 916.971 161.939 932.915C167.672 947.41 185.832 953.77 199.748 956.837C216.829 960.6 234.538 960.571 251.933 960.12C272.023 959.601 292.113 958.856 312.173 958.219C331.293 957.611 350.472 957.396 369.542 955.955C387.349 954.603 405.734 952.143 422.217 944.901C429.156 941.853 437.525 935.228 432.145 926.928C429.832 923.36 425.804 921.048 422.11 919.176C417.801 916.996 413.385 915.033 408.88 913.296C389.665 906.029 369.236 902.509 348.698 902.927C343.631 903.006 343.621 910.767 348.698 910.767C365.42 910.716 382.059 913.126 398.08 917.921C405.705 920.083 413.083 923.04 420.091 926.741C421.894 927.721 426.618 929.995 426.235 932.621C425.814 935.463 420.532 937.453 418.307 938.394C403.548 944.666 387.163 947.008 371.267 948.321C354.196 949.732 337.026 949.987 319.915 950.555L265.261 952.378C248.885 952.927 232.431 953.662 216.094 952.094C202.041 950.751 185.234 947.919 174.268 938.276C170.093 934.601 165.379 928.623 168.564 922.91C171.749 917.196 179.344 915.011 185.048 913.443C203.305 908.464 222.866 906.642 241.692 905.475C261.419 904.262 281.208 904.484 300.903 906.142C305.019 906.485 304.98 900.085 300.903 899.723L300.972 899.713Z" fill="#7F72FF"/>
<path d="M235.909 919.283C233.461 919.728 230.972 918.744 229.49 916.745C228.363 915.03 228.422 913.05 228.51 911.159C228.775 905.504 229.49 899.144 235.576 895.479C242.074 891.559 251.844 892.539 259.841 894.587L264.633 879.338C270.288 861.316 304.509 854.407 326.589 859.582C345.914 864.099 360.752 876.124 367.318 889.824C372.296 900.203 372.521 912.541 363.202 921.282" fill="#7F72FF"/>
<path d="M235.91 916.314C230.843 916.736 231.735 911.767 232.186 908.288C232.597 905.172 233.381 901.928 235.831 899.772C241.79 894.499 251.923 896.459 258.851 898.194C260.823 898.688 262.835 897.544 263.418 895.597C265.221 889.923 266.427 883.308 269.298 878.045C271.213 874.762 273.953 872.035 277.246 870.137C285.086 865.237 294.729 863.051 303.892 862.355C324.952 860.738 347.826 867.902 360.174 886.071C366.926 896.009 369.415 908.994 360.281 918.323C356.469 922.243 362.241 927.966 366.23 924.272C376.412 914.776 377.069 900.693 371.522 888.521C366.279 877.006 356.214 867.824 345.131 862.012C324.374 851.134 296.709 850.605 275.952 862.012C271.205 864.48 267.1 868.024 263.967 872.361C262.519 874.583 261.415 877.012 260.694 879.564C259.214 884.258 257.754 888.962 256.313 893.657L260.88 891.02C250.041 888.384 234.253 886.934 227.864 898.478C225.433 902.878 224.796 908.582 225.247 913.531C225.796 919.676 230.843 923.027 236.752 922.145C240.045 921.655 239.3 916.02 235.959 916.265L235.91 916.314Z" fill="#7F72FF"/>
<path d="M480.596 927.221C470.943 926.32 460.771 930.161 456.478 936.414C455.893 937.115 455.57 937.999 455.567 938.913C455.724 940.353 457.341 941.48 458.948 942.353C463.759 945.009 469.182 946.361 474.677 946.273C480.341 946.096 486.035 943.872 488.397 940.216C490.759 936.561 489.2 931.612 484.3 929.583" fill="#7F72FF"/>
<path d="M480.596 924.105C472.011 923.223 462.574 925.389 456.037 931.279C453.186 933.866 450.422 937.796 452.5 941.676C454.577 945.557 459.938 947.39 463.76 948.615C472.08 951.3 482.791 951.133 489.612 944.979C492.563 942.449 493.985 938.566 493.366 934.728C492.552 930.259 489.367 927.545 485.369 925.908C481.37 924.272 478.577 930.945 482.429 932.954C486.927 935.326 485.8 938.727 481.664 940.696C476.578 943.127 470.581 942.656 465.357 940.941C464.157 940.548 462.985 940.073 461.849 939.52C461.212 939.207 460.585 938.864 459.977 938.54C459.605 938.393 459.673 938.158 460.163 937.845C460.673 936.179 463.887 934.483 465.289 933.699C469.994 931.194 475.307 930.057 480.626 930.416C484.693 930.612 484.546 924.536 480.626 924.183L480.596 924.105Z" fill="#7F72FF"/>
<path d="M366.465 561.74C371.414 567.15 376.706 572.305 381.988 577.42C382.754 578.186 383.996 578.186 384.762 577.42C385.528 576.654 385.528 575.413 384.762 574.647C379.636 569.404 374.442 564.151 368.993 559.231C368.284 558.59 367.195 558.618 366.52 559.296C365.845 559.974 365.82 561.062 366.465 561.77V561.74Z" fill="#382C80"/>
<path d="M440.22 324.365C443.277 327.697 446.335 330.999 449.451 334.272C451.039 335.938 453.577 333.4 451.98 331.734C448.85 328.468 445.695 325.25 442.513 322.081C441.033 320.592 438.818 322.836 440.22 324.365Z" fill="#382C80"/>
<path d="M295.797 466.984C286.174 464.044 275.952 463.328 266.485 467.239C262.36 468.944 263.879 475.569 268.387 474.099C276.746 471.453 285.644 470.247 294.21 472.717C297.924 473.785 299.472 468.072 295.797 466.945V466.984Z" fill="#382C80"/>
<path d="M278.246 318.935C260.939 318.866 250.747 302.53 241.594 290.339C238.977 286.869 233.293 289.868 235.596 293.847C244.671 309.468 258.401 325.942 278.246 324.609C281.862 324.364 281.94 318.945 278.246 318.935Z" fill="#382C80"/>
<path d="M460.202 182.852C473.109 172.553 483.203 157.97 485.604 141.369C488.397 122.004 482.664 103.149 475.853 85.264C474.501 81.687 468.699 83.2158 470.051 86.8614C476.265 103.521 484.075 121.72 480.106 139.85C476.755 155.128 468.209 168.858 456.733 179.383C454.352 181.569 457.792 184.783 460.202 182.852Z" fill="#382C80"/>
<path d="M402.705 50.5328C399.383 48.759 405.048 43.4572 406.831 42.5458C408.938 41.4678 413.691 41.85 412.711 45.3094C411.496 49.7586 418.17 51.5422 419.571 47.2008C420.792 43.1958 419.258 38.8628 415.788 36.5188C412.136 34.0184 407.376 33.8206 403.529 36.0092C399.609 38.077 395.689 42.34 394.816 46.7892C394.003 50.9542 396.071 55.0506 400.275 56.1776C403.597 57.0694 405.832 52.1988 402.656 50.5132L402.705 50.5328Z" fill="#382C80"/>
<path d="M322.345 171.759L319.533 168.388C318.395 167.293 316.594 167.293 315.456 168.388C314.355 169.527 314.355 171.335 315.456 172.474L318.269 175.846C319.407 176.941 321.207 176.941 322.345 175.846C323.447 174.706 323.447 172.899 322.345 171.759Z" fill="#382C80"/>
<path d="M271.406 252.53C269.318 261.546 272.513 270.092 277.237 277.775C277.903 278.863 278.648 280.068 278.452 281.332C278.12 282.593 277.206 283.62 275.992 284.096C272.258 285.909 267.593 284.811 264.35 282.224C261.106 279.637 259.087 275.825 257.646 271.944C254.452 263.34 255.392 253.736 255.99 244.729C256.588 235.723 260.528 226.227 268.25 220.896C269.004 220.272 269.938 219.905 270.916 219.847C272.934 219.896 274.091 222.15 274.62 224.1C276.181 229.899 276.215 236.003 274.718 241.819C273.777 245.435 272.258 248.885 271.406 252.53Z" fill="white"/>
<path d="M269.014 251.864C267.874 257.013 267.988 262.36 269.347 267.456C270.103 270.195 271.11 272.859 272.356 275.413C272.914 276.609 273.532 277.765 274.179 278.912C274.992 280.353 275.1 280.931 273.326 281.538C268.132 283.322 263.526 276.962 261.772 273.11C259.312 267.818 258.646 261.968 258.685 256.186C258.753 245.945 259.4 234.342 266.917 226.551C267.596 225.833 268.323 225.162 269.092 224.542C269.64 224.103 270.22 223.707 270.827 223.356C270.327 223.356 270.386 223.591 271.013 224.179C272.513 226.443 272.375 230.951 272.336 233.548C272.248 239.996 269.073 245.425 268.21 251.648C267.632 255.823 273.11 257.528 274.61 253.412C276.923 247.238 279.079 240.78 279.265 234.146C279.402 229.246 279.088 221.807 275.188 218.201C270.729 214.075 265.388 218.201 262.036 221.67C258.453 225.476 255.809 230.067 254.314 235.077C252.619 240.594 252.452 246.425 252.217 252.148C251.962 258.146 251.942 264.281 253.51 270.121C256.068 279.667 264.477 291.681 275.992 287.654C278.491 286.781 281.019 284.949 281.587 282.195C282.215 279.147 280.304 276.687 278.814 274.247C274.894 267.828 272.307 260.743 273.806 253.187C274.424 250.1 269.7 248.728 269.014 251.864Z" fill="white"/>
<path d="M266.466 484.986C262.928 489.475 259.881 494.502 258.881 500.215C257.901 505.517 259.616 511.593 265.251 513.426C270.553 515.151 275.472 511.613 274.992 506.046C274.588 502.994 274.022 499.964 273.297 496.972C272.884 494.145 272.048 491.396 270.817 488.818C268.358 484.153 261.321 488.279 263.752 492.944C265.075 495.462 265.3 498.687 265.878 501.44C266.153 502.714 266.192 504.91 266.858 506.017C266.858 507.565 267.26 507.565 267.985 506.017C267.54 505.998 267.126 505.787 266.848 505.439C264.888 499.882 268.083 493.355 271.474 488.828C273.61 485.976 268.71 482.144 266.476 484.986H266.466Z" fill="white"/>
<path d="M309.292 857.984C324.57 855.593 340.809 863.913 351.795 873.841C357.675 879.172 363.427 885.601 365.877 893.284C368.572 901.82 366.681 910.307 367.641 918.96C368.063 922.743 373.59 924.125 374.707 919.94C377.106 910.046 376.63 899.673 373.335 890.04C370.15 881.299 363.917 873.978 357.008 867.902C350.335 861.853 342.527 857.19 334.037 854.182C329.819 852.757 325.429 851.903 320.984 851.644C316.427 851.389 312.389 852.202 307.989 853.231C304.853 853.966 306.244 858.445 309.292 857.965V857.984Z" fill="#382C80"/>
<path d="M222.444 905.485C221.445 909.568 221.591 913.847 222.866 917.852C224.208 921.919 230.539 920.243 229.314 916.078C228.398 913.209 228.163 910.166 228.628 907.19C229.334 903.182 223.356 901.398 222.444 905.485Z" fill="#382C80"/>
<path d="M276.335 884.571C277.308 879.654 280.819 875.624 285.557 873.987C286.01 873.785 286.521 873.751 286.997 873.889C287.83 874.223 287.977 875.33 287.909 876.222C287.582 880.494 285.657 884.486 282.519 887.404C281.847 888.135 280.937 888.603 279.951 888.727C278.73 888.78 277.672 887.885 277.524 886.672C277.375 885.458 278.184 884.334 279.383 884.091" fill="white"/>
<path d="M278.902 885.277C279.371 883.217 280.387 881.321 281.842 879.789C282.9 878.724 284.151 877.87 285.527 877.27C286.674 877.133 286.634 876.8 285.429 876.29C284.694 875.31 284.361 875.252 284.449 876.232C284.331 876.82 284.184 877.408 284.028 877.986C283.781 878.838 283.452 879.665 283.048 880.455C282.634 881.265 282.149 882.036 281.597 882.758C281.24 883.214 280.854 883.647 280.441 884.052C279.082 884.941 279.389 886.081 281.362 887.472C285.351 885.679 282.518 878.917 278.363 880.367C272.307 882.484 272.032 891.147 278.775 892.539C284.9 893.803 289.555 885.679 290.76 880.779C291.358 878.358 291.858 875.193 290.486 872.939C289.006 870.489 286.37 870.361 283.949 871.341C278.659 873.543 274.834 878.263 273.777 883.895C273.15 887.227 278.069 888.687 278.922 885.316L278.902 885.277Z" fill="white"/>
<path d="M338.653 93.7803C332.348 98.1479 327.957 104.766 326.383 112.273C325.883 114.703 326.932 118.349 329.323 117.692C329.966 117.456 330.534 117.054 330.97 116.526L342.73 104.678C344.494 102.884 346.375 100.817 346.365 98.3079C346.356 95.7991 343.014 93.5059 341.24 95.2601" fill="white"/>
<path d="M337.389 91.6243C331.175 95.4335 326.396 101.191 323.796 108C322.61 111.205 321.777 114.86 323.443 118.114C324.808 121.078 328.306 122.39 331.283 121.054C333.155 120.211 334.557 118.437 335.978 117.016C337.634 115.36 339.3 113.694 340.946 112.018C343.671 109.235 347.159 106.432 348.972 102.914C350.54 99.8563 350.599 96.1911 348.296 93.4863C345.993 90.7815 342.161 89.6643 339.241 91.8791C335.321 94.8877 338.957 101.679 343.239 98.7391C342.651 98.8959 342.397 98.8077 342.485 98.4647C342.573 98.1217 342.485 98.2883 342.328 99.0429C341.799 99.5133 341.436 100.385 340.946 100.934C339.486 102.551 337.869 104.051 336.321 105.589C334.772 107.128 333.018 108.931 331.372 110.617C330.529 111.275 329.777 112.043 329.137 112.9C327.883 113.635 327.922 114.047 329.225 114.125C330.205 114.713 330.45 114.625 330.058 113.86C330.588 112.773 330.519 110.705 330.921 109.45C331.534 107.54 332.328 105.693 333.292 103.933C335.075 100.692 337.503 97.8499 340.427 95.5835C342.661 93.8097 339.77 90.1445 337.399 91.6635L337.389 91.6243Z" fill="white"/>
</svg>
