<svg width="1000" height="1000" viewBox="0 0 1000 1000" fill="none" xmlns="http://www.w3.org/2000/svg">
<path d="M822.136 38.4885C826.516 34.7645 831.22 39.0667 838.119 43.8099C865.321 62.6117 894.708 78.0358 925.633 89.7425C927.348 90.3893 929.142 91.0753 930.288 92.4865C932.327 95.0051 931.572 98.6801 930.71 101.796C923.105 129.344 917.97 156.676 912.09 184.626C906.863 209.649 901.937 234.73 897.311 259.87C870.851 240.564 844.323 221.082 818.843 200.473C808.847 192.388 798.684 183.891 789.168 175.12C786.228 172.386 759.768 147.161 761.836 144.172C776.53 123.109 789.863 101.129 801.752 78.3647C807.72 66.9673 812.806 55.1975 818.5 43.6825C819.357 41.7283 820.593 39.9631 822.136 38.4885Z" fill="#7F72FF"/>
<path d="M823.4 40.5562C826.693 38.0768 830.26 41.2324 833.043 43.1924C836.885 45.8874 840.726 48.5922 844.646 51.199C852.042 56.1382 859.621 60.8455 867.382 65.3208C883.082 74.3702 899.377 82.3429 916.157 89.1838C917.96 89.9221 919.767 90.644 921.576 91.3496C923.331 92.0356 926.173 92.5844 927.545 93.9564C930.328 96.7494 926.966 103.884 926.114 107.059C923.576 116.496 921.322 126.012 919.185 135.548C914.942 154.481 911.1 173.513 907.131 192.515C902.515 214.614 898.311 236.791 894.019 258.959L899.066 256.901C879.985 242.711 860.846 228.628 842.059 214.006C824.752 200.522 807.426 186.831 791.413 171.808C783.402 164.514 775.854 156.728 768.814 148.493C767.665 147.075 766.611 145.582 765.658 144.025C765.394 143.593 765.492 144.475 765.658 143.946C765.756 143.623 765.747 144.564 765.747 144.564C765.521 147.072 765.1 146.249 766.011 145.21C767.858 142.83 769.562 140.343 771.117 137.762C777.507 128.296 783.628 118.643 789.482 108.803C795.96 97.9058 802.222 86.8024 807.847 75.4834C810.787 69.6034 813.59 63.5568 816.403 57.5592C817.814 54.5604 819.235 51.5681 820.666 48.5824C821.871 46.0736 822.939 43.3394 825.017 41.399C828.849 37.822 823.106 32.1184 819.264 35.6562C815.423 39.194 813.384 44.78 811.17 49.484C808.514 55.0994 805.927 60.7344 803.232 66.3302C797.959 77.2768 792.148 87.9686 786.082 98.4938C780.202 108.745 773.995 118.822 767.462 128.727C765.802 131.249 764.133 133.751 762.454 136.234C761.052 138.301 759.024 140.457 758.103 142.78C757.26 144.907 758.014 146.935 759.083 148.807C761.846 153.54 766.06 157.676 769.863 161.616C774.116 166.094 778.506 170.436 782.955 174.708C797.214 188.428 812.757 200.767 828.31 212.928C850.33 230.118 872.87 246.64 895.587 262.908C896.51 263.441 897.627 263.519 898.615 263.119C899.603 262.719 900.352 261.885 900.644 260.86C907.896 219.112 916.324 177.443 925.496 136.067C927.741 125.904 930.151 115.781 932.817 105.687C933.885 101.649 935.502 97.1316 933.934 93.0058C932.484 89.1838 928.868 87.8314 925.33 86.5084C907.012 79.6035 889.226 71.3624 872.116 61.8516C862.42 56.4943 852.947 50.7547 843.696 44.633C839.452 41.8204 835.356 38.361 830.77 36.107C827.457 34.4802 823.978 34.147 820.901 36.4598C818.5 38.263 820.872 42.4084 823.4 40.5562Z" fill="#7F72FF"/>
<path d="M354.96 699.41C354.059 711.533 351.922 723.802 346.14 734.504C338.036 749.586 323.385 760.239 307.744 767.216C268.191 784.856 232.068 775.821 192.711 765.09C169.446 758.749 130.609 751.056 109.941 771.764C104.688 777.026 98.112 782.034 90.8796 781.926C82.971 781.799 76.7872 775.243 74.8468 767.853C72.9064 760.464 74.3666 752.418 76.2776 744.755C81.9246 722.36 91.1934 701.038 103.718 681.633C106.207 677.713 109.117 673.724 113.41 672.029C115.934 671.186 118.592 670.821 121.25 670.951C150.65 670.794 179.236 676.37 207.245 683.054C233.139 689.431 259.77 692.311 286.429 691.619" fill="white"/>
<path d="M352.412 699.411C351.589 709.769 349.315 720.343 344.837 729.791C340.691 738.22 334.678 745.593 327.256 751.351C311.781 763.689 291.535 770.823 271.944 772.479C251.315 774.234 231.088 770.147 211.184 765.11C194.965 761.004 179.05 756.064 162.351 754.232C146.887 752.536 130.011 753.252 116.183 761.092C112.683 763.106 109.452 765.556 106.569 768.383C103.267 771.588 99.6505 774.949 95.1817 776.409C87.0771 779.045 80.7855 772.391 79.4331 764.855C77.6593 754.957 81.6479 743.942 84.5683 734.612C87.6981 724.594 91.6004 714.833 96.2401 705.418C98.5529 700.747 101.029 696.173 103.669 691.698C106.05 687.651 108.373 683.152 111.597 679.703C115.193 675.861 119.496 676.116 124.445 676.155C130.001 676.155 135.558 676.449 141.105 676.861C163.037 678.517 184.597 683.005 205.961 688.052C226.956 693.179 248.431 696.086 270.033 696.725C275.531 696.843 281.029 696.804 286.517 696.637C292.916 696.451 292.956 686.563 286.517 686.671C263.536 687.112 240.58 684.955 218.084 680.242C195.103 675.401 172.484 669.717 149.062 667.267C143.182 666.649 137.194 666.208 131.246 665.993C125.562 665.777 119.309 665.179 113.733 666.581C103.394 669.187 97.8179 681.006 93.0061 689.503C87.5768 699.113 82.8696 709.114 78.9235 719.422C75.0035 729.751 71.3775 740.6 69.6527 751.566C68.0553 761.739 68.7805 772.93 76.5127 780.604C83.8921 787.963 94.3977 788.316 103.208 783.338C107.687 780.8 111.175 777.164 114.968 773.763C117.886 771.187 121.194 769.09 124.768 767.55C131.971 764.394 139.978 763.297 147.778 763.15C164.497 762.826 180.697 766.825 196.72 771.107C217.78 776.742 239.418 781.819 261.351 781.505C301.531 780.947 348.953 759.191 355.872 715.522C356.714 710.21 357.175 704.82 357.587 699.45C357.832 696.147 352.687 696.167 352.432 699.45L352.412 699.411Z" fill="#382C80"/>
<path d="M274.071 528.194C341.426 561.603 377.392 635.534 369.66 709.945C368.347 722.538 365.74 735.327 359.517 746.607C350.697 762.503 335.311 774.047 319.023 781.74C277.785 801.281 240.957 793.02 200.855 783.22C188.86 780.28 178.658 779.76 166.82 779.907C153.433 780.064 153.972 769.598 153.286 757.367C152.051 735.435 154.55 711.925 162.341 691.257C170.446 669.765 189.164 678.732 207.343 683.064C233.237 689.44 259.868 692.321 286.527 691.629" fill="white"/>
<path d="M272.767 530.38C308.753 548.451 337.447 581.34 352.461 618.492C360.109 637.4 364.595 657.437 365.74 677.801C366.292 688.045 366.06 698.316 365.044 708.524C363.858 720.588 361.467 732.946 355.616 743.687C344.66 763.796 322.992 776.654 301.716 783.386C278.451 790.756 254.069 789.325 230.412 784.641C218.152 782.22 206.108 778.506 193.779 776.468C187.221 775.408 180.596 774.822 173.954 774.713C170.357 774.655 164.409 775.576 161.704 773.733C159.675 772.332 159.205 768.755 158.93 765.893C158.431 760.807 158.264 755.633 158.156 750.537C157.829 737.993 158.914 725.451 161.39 713.15C162.669 706.921 164.375 700.788 166.496 694.794C167.878 690.874 169.622 686.788 173.238 684.495C179.363 680.575 188.105 683.328 194.583 685.043C218.328 691.306 242.407 695.823 267.015 696.617C273.512 696.833 280.009 696.823 286.497 696.617C292.985 696.411 292.936 686.533 286.497 686.651C259.171 687.255 231.891 684.106 205.422 677.292C196.602 674.989 187.164 671.5 177.893 672.49C166.976 673.646 160.596 681.084 156.951 690.972C148.131 714.757 145.916 741.874 148.709 767.001C149.17 771.107 149.914 775.301 152.384 778.761C155.393 782.926 160.008 784.719 165.006 785.052C171.435 785.484 177.884 785.052 184.322 785.66C191.133 786.434 197.878 787.711 204.5 789.482C229.559 795.568 255.46 800.987 281.313 797.645C306.342 794.421 331.557 784.347 349.913 766.648C358.882 758.037 365.576 747.336 369.395 735.504C373.227 723.744 374.677 711.004 375.138 698.616C375.955 676.668 373.066 654.738 366.592 633.75C353.95 592.972 326.991 555.125 289.604 533.614C284.939 530.929 280.137 528.43 275.315 526.029C272.375 524.559 269.749 528.969 272.718 530.478L272.767 530.38Z" fill="#382C80"/>
<path d="M261.919 574.166C298.845 652.155 315.643 743.334 330.617 827.055C334.655 849.595 341.397 881.083 365.25 887.521C371.953 889.334 379.039 892.48 382.175 899.085C385.595 906.318 382.929 915.589 377.667 921.488C372.404 927.388 365.093 930.563 357.9 933.16C337.193 940.527 315.322 944.083 293.348 943.656C289.036 943.568 284.39 943.195 281.068 940.265C279.113 938.46 277.604 936.225 276.658 933.738C249.453 864.648 252.423 808.7 232.754 750.331C225.6 729.114 210.9 712.974 201.59 692.707C191.976 671.686 177.384 653.439 167.094 632.77C150.942 600.112 146.016 563.036 153.08 527.293" fill="white"/>
<path d="M259.694 575.46C273.111 603.998 283.097 634.544 291.682 664.846C300.266 695.147 307.166 726.027 313.242 756.966C316.27 772.43 319.122 787.934 321.836 803.457C324.159 816.609 326.011 829.917 329.02 842.941C331.528 853.849 334.949 865.021 341.142 874.458C344.106 879.092 347.877 883.158 352.275 886.463C356.95 889.913 362.075 891.304 367.494 893.186C373.169 895.146 378.578 898.987 378.902 905.495C379.225 912.002 375.472 917.784 370.532 921.557C364.525 926.153 356.901 928.515 349.776 930.72C341.958 933.152 333.986 935.057 325.913 936.423C317.904 937.778 309.808 938.548 301.687 938.726C295.317 938.864 286.086 940.236 282.332 933.826C280.372 930.504 279.294 926.476 278.001 922.87C276.622 919.028 275.316 915.164 274.081 911.277C271.585 903.476 269.334 895.6 267.329 887.649C260.184 859.415 256.215 830.593 250.933 801.987C248.417 787.814 245.179 773.778 241.231 759.935C237.113 745.827 231.078 732.351 223.297 719.883C219.446 713.66 215.457 707.525 211.821 701.155C208.029 694.53 205.05 687.513 201.443 680.79C193.985 666.894 184.871 653.978 177.031 640.307C161.375 613.147 153.829 582.07 155.285 550.754C155.648 543.311 156.539 535.903 157.951 528.587C159.166 522.334 149.621 519.629 148.347 525.941C141.831 558.01 144.72 591.279 156.667 621.745C162.645 636.818 170.985 650.518 179.579 664.199C184.068 671.353 188.556 678.536 192.545 685.984C196.239 692.844 199.287 700.047 203.188 706.829C210.763 720.02 220.102 732.378 225.904 746.519C231.48 760.112 234.842 774.87 237.889 789.188C244.112 818.412 247.689 848.125 254.226 877.29C257.803 893.466 262.409 909.397 268.015 924.987C270.67 932.327 272.915 941.48 280.196 945.684C286.821 949.516 295.572 948.624 302.903 948.36C320.089 947.776 337.116 944.849 353.51 939.657C367.622 935.159 383.351 928.711 387.614 912.982C389.574 905.867 388.408 898.282 383.635 892.519C379.313 887.316 372.855 884.679 366.563 882.886C355.872 879.799 349.257 871.048 344.788 861.326C340.005 850.86 337.653 839.276 335.537 828.006C332.685 812.914 329.941 797.802 327.02 782.73C320.739 750.39 313.898 718.05 305.372 686.21C297.032 655.016 287.34 623.833 274.14 594.315C270.925 587.112 267.554 579.968 264.173 572.843C262.762 569.845 258.293 572.461 259.734 575.44L259.694 575.46Z" fill="#382C80"/>
<path d="M281.823 570.962C318.749 648.96 335.556 740.1 350.53 823.841C351.403 828.741 351.795 833.641 354.656 837.767C357.518 841.893 361.467 842.324 361.83 847.616C362.241 853.398 355.95 858.788 351.775 861.649C328.98 877.311 302.077 885.911 274.424 886.375C260.537 886.581 251.648 878.358 249.924 864.874C247.839 849.447 244.973 834.136 241.339 819C236.507 798.028 231.48 777.056 224.6 756.633C217.466 735.455 210.88 712.974 201.58 692.707C191.966 671.686 177.374 653.439 167.084 632.77C150.935 600.111 146.013 563.035 153.08 527.293" fill="white"/>
<path d="M279.598 572.255C290.378 595.256 298.796 619.756 306.273 644.021C313.927 668.834 320.278 694.001 325.873 719.412C331.371 744.412 336.095 769.569 340.573 794.774C342.729 806.946 344.493 819.274 347.081 831.367C348.19 836.734 351.081 841.569 355.283 845.087C358.919 848.361 355.763 852.026 352.853 854.721C348.688 858.582 343.464 861.493 338.535 864.256C333.239 867.249 327.741 869.868 322.081 872.096C310.38 876.701 298.099 879.669 285.586 880.916C276.717 881.769 265.77 883.121 259.42 875.379C256.982 872.18 255.458 868.38 255.01 864.384C254.03 857.622 253.128 850.85 251.913 844.117C247.052 816.873 240.506 789.956 232.313 763.522C228.314 750.704 224.012 737.944 219.69 725.224C215.369 712.503 210.87 700.028 205.098 687.984C194.054 664.846 177.296 644.864 167.427 621.108C157.746 597.604 153.676 572.166 155.54 546.815C155.979 540.696 156.784 534.609 157.95 528.587C159.156 522.334 149.62 519.629 148.346 525.941C140.271 565.314 146.465 606.276 165.82 641.502C172.268 653.321 179.863 664.454 186.762 676.008C201.021 699.851 209.057 726.184 217.721 752.448C226.711 780.097 234.119 808.236 239.908 836.728C241.358 843.706 242.671 850.722 243.828 857.769C244.729 863.59 245.092 869.44 247.424 874.909C251.344 884.16 259.782 889.873 269.67 891.02C275.629 891.716 281.832 891.089 287.761 890.422C294.277 889.705 300.74 888.563 307.106 887.002C319.782 883.86 331.978 879.027 343.366 872.635C352.186 867.735 366.798 859.993 366.661 848.135C366.657 845.536 365.83 843.004 364.299 840.903C362.829 838.943 360.752 837.679 359.154 835.836C355.45 831.544 355.411 824.174 354.45 818.843C349.746 792.795 344.807 766.785 339.231 740.904C333.557 714.571 327.245 688.356 319.631 662.504C312.065 636.886 303.52 611.308 292.279 587.044C289.594 581.252 286.83 575.499 284.096 569.727C282.675 566.738 278.216 569.345 279.647 572.324L279.598 572.255Z" fill="#382C80"/>
<path d="M441.592 335.722C435.497 335.389 429.832 332.224 425.481 327.882C421.13 323.541 418.102 318.141 415.573 312.585C411.5 303.63 408.671 294.16 407.165 284.439C406.714 281.499 406.087 277.53 407.586 274.776C409.086 272.022 412.966 270.239 415.426 268.347C421.571 263.653 427.49 258.685 433.801 254.206C442.807 247.816 452.843 242.368 463.799 240.917C488.142 237.703 510.898 258.753 513.093 282.41C513.609 286.975 513.155 291.597 511.76 295.974C507.507 308.42 489.426 324.394 475.677 321.699C469.473 320.483 463.27 318.474 458.35 314.505C455.743 312.408 453.45 309.38 453.754 306.048C454.244 301.148 459.742 298.727 464.446 297.395C462.572 296.617 461.361 294.777 461.388 292.749C461.455 290.758 462.14 288.837 463.348 287.252C464.762 285.01 466.867 283.29 469.346 282.352C471.875 281.448 474.696 282.009 476.686 283.812C473.746 280.568 475.324 274.815 479.087 272.561C488.887 266.681 491.827 279.49 500.03 277.746" fill="white"/>
<path d="M441.592 333.223C430.577 332.243 423.805 322.639 419.415 313.476C414.526 303.466 411.429 292.676 410.261 281.597C410.085 279.549 409.938 277.383 411.339 275.717C412.741 274.051 414.936 273.159 416.641 271.983C421.188 268.828 425.461 265.231 429.861 261.87C438.368 255.392 447.501 249.13 457.87 246.19C474.961 241.348 492.405 249.071 502.048 263.702C506.948 271.062 509.682 279.804 509.016 288.663C508.389 297.101 502.92 304.078 496.737 309.439C493.37 312.47 489.46 314.834 485.212 316.407C480.861 317.896 477.156 317.651 472.766 316.465C468.052 315.191 461.986 313.084 459.095 308.802C456.204 304.519 462.584 302.647 465.69 301.736C469.169 300.756 470.482 295.15 466.778 293.426C463.916 292.083 470.257 284.194 473.462 286.977C477.97 290.897 483.507 285.076 479.91 280.539C478.577 278.863 481.135 276.393 482.497 275.844C484.408 275.07 485.545 275.844 487.162 276.932C491.631 279.96 495.384 282.92 501.127 281.666C505.576 280.686 504.694 272.993 500.029 273.561C497.197 273.904 495.453 272.032 493.346 270.366C490.406 268.024 487.142 266.24 483.262 266.446C473.001 266.966 467.043 278.902 473.462 287.026L479.91 280.588C474.03 275.462 465.886 277.099 461.025 282.842C456.566 288.124 454.45 297.708 462.192 301.324L463.279 293.014C458.379 294.455 453.048 296.777 450.539 301.54C447.599 307.165 450.353 313.476 454.851 317.328C462.956 324.266 475.912 328.343 486.349 325.168C496.394 322.14 505.106 314.643 511.103 306.205C517.767 296.816 518.796 285.272 515.847 274.306C510.368 254.02 491.503 237.36 470.149 236.625C457.507 236.194 445.336 241.809 435.046 248.689C429.303 252.52 423.923 256.872 418.552 261.203C416.132 263.163 413.75 265.123 411.163 266.877C408.899 268.396 406.42 269.994 404.92 272.326C401.383 277.863 403.735 285.84 405.087 291.73C406.783 299.086 409.223 306.251 412.368 313.114C417.945 325.354 427.186 337.143 441.592 338.221C444.816 338.466 444.777 333.498 441.592 333.223Z" fill="#382C80"/>
<path d="M441.592 335.722C435.497 335.389 429.832 332.224 425.481 327.882C421.13 323.541 418.102 318.141 415.573 312.585C411.5 303.63 408.671 294.16 407.165 284.439C406.714 281.499 406.087 277.53 407.586 274.776C409.086 272.022 412.966 270.239 415.426 268.347C421.571 263.653 427.49 258.685 433.801 254.206C442.807 247.816 452.843 242.368 463.799 240.917C488.142 237.703 510.898 258.753 513.093 282.41C513.609 286.975 513.155 291.597 511.76 295.974C507.507 308.42 489.426 324.394 475.677 321.699C469.473 320.483 463.27 318.474 458.35 314.505C455.743 312.408 453.45 309.38 453.754 306.048C454.244 301.148 459.742 298.727 464.446 297.395C462.572 296.617 461.361 294.777 461.388 292.749C461.455 290.758 462.14 288.837 463.348 287.252C464.762 285.01 466.867 283.29 469.346 282.352C471.875 281.448 474.696 282.009 476.686 283.812C473.746 280.568 475.324 274.815 479.087 272.561C488.887 266.681 491.827 279.49 500.03 277.746" fill="white"/>
<path d="M441.592 333.4C430.263 332.42 423.374 322.414 418.934 312.977C414.358 303.246 410.908 292.162 410.006 281.401C409.83 279.334 409.703 277.197 411.163 275.521C412.623 273.846 414.995 272.807 416.837 271.503C421.443 268.24 425.784 264.643 430.283 261.194C438.76 254.765 447.854 248.64 458.222 245.798C475.578 241.035 493.169 249.248 502.695 264.163C507.418 271.562 510.113 280.412 509.271 289.232C508.477 297.581 502.94 304.5 496.795 309.812C493.432 312.822 489.533 315.173 485.3 316.74C480.978 318.22 477.274 318.034 472.893 316.868C467.993 315.574 461.241 313.32 458.585 308.626C456.125 304.294 462.505 302.364 465.602 301.462C468.836 300.482 470.051 295.347 466.582 293.74C463.358 292.23 470.051 283.646 473.667 286.791C477.842 290.427 483.016 285.018 479.645 280.804C478.195 278.981 480.684 276.286 482.223 275.629C484.232 274.777 485.466 275.472 487.123 276.609C491.591 279.598 495.257 282.705 501.019 281.45C505.155 280.539 504.322 273.365 500.039 273.924C497.197 274.287 495.433 272.503 493.336 270.827C490.484 268.554 487.348 266.701 483.536 266.809C473.481 267.084 467.297 278.853 473.667 286.821L479.645 280.833C473.971 275.933 466.16 277.432 461.398 282.881C456.929 287.997 454.704 297.503 462.319 301.06L463.299 293.348C458.477 294.769 453.097 297.072 450.706 301.825C447.834 307.567 450.843 313.663 455.41 317.456C463.534 324.198 476.362 328.089 486.662 324.786C496.521 321.611 505.057 314.261 510.937 305.882C517.512 296.513 518.434 284.988 515.415 274.11C514.017 269.126 511.862 264.387 509.026 260.057C500.372 246.768 485.702 237.282 469.649 236.919C457.301 236.645 445.443 242.094 435.349 248.787C429.646 252.57 424.305 256.872 418.983 261.164C416.563 263.124 414.181 265.143 411.594 266.878C409.252 268.465 406.645 270.043 405.077 272.483C401.627 277.815 403.872 285.517 405.146 291.221C406.803 298.573 409.203 305.738 412.309 312.605C417.837 324.913 427.009 336.997 441.523 338.085C444.512 338.31 444.463 333.694 441.523 333.449L441.592 333.4Z" fill="#382C80"/>
<path d="M152.815 374.952C161.792 394.386 181.294 406.106 200.424 413.927C225.904 424.354 254.392 425.177 281.685 421.659C315.123 417.328 347.456 406.785 377.02 390.573C398.185 378.828 418.217 365.148 436.858 349.707C442.307 345.229 445.561 341.681 444.463 334.272C442.827 323.228 436.682 312.007 430.684 302.775C425.647 295.023 408.193 266.966 395.767 272.944C389.809 275.815 383.762 283.557 378.666 287.889C366.952 297.859 355.028 307.567 342.896 317.015C332.776 324.907 322.509 332.61 312.095 340.123C304.705 345.464 294.376 356.705 284.978 355.872C275.58 355.039 266.152 354.196 256.813 352.785C244.925 351.001 233.381 347.022 221.464 344.651C210.9 342.524 200.12 340.397 189.34 340.809C182.09 341.212 174.903 342.379 167.897 344.288C152.619 348.208 136.792 354.578 128.09 367.72" fill="#7F72FF"/>
<path d="M150.14 376.52C159.754 397.1 180.285 409.497 200.62 417.68C225.502 427.705 253.07 428.764 279.432 425.647C306.04 422.485 332.047 415.47 356.636 404.822C381.263 394.18 404.215 379.705 425.559 363.535C430.822 359.546 436.104 355.538 441.092 351.216C444.611 348.169 447.619 344.503 448.374 339.78C449.354 333.9 447.394 327.608 445.316 322.14C442.866 315.833 439.817 309.775 436.212 304.049C432.234 297.477 427.882 291.139 423.178 285.066C418.278 278.794 412.398 272.032 404.725 269.122C395.16 265.496 387.741 273.365 381.548 279.627C371.865 289.427 360.693 297.855 349.943 306.43C338.868 315.27 327.615 323.878 316.182 332.253C311.428 335.742 306.773 339.241 302.226 343.033C298.238 346.326 293.818 350.109 288.732 351.52C286.272 352.196 283.832 351.775 281.343 351.52C277.658 351.187 273.983 350.844 270.308 350.462C263.366 349.806 256.466 348.766 249.64 347.345C235.655 344.249 222.013 340.172 207.803 338.065C193.973 336.052 179.877 336.903 166.389 340.564C155.667 343.337 144.829 347.257 135.93 354.039C131.638 357.313 127.931 361.289 124.964 365.799C122.367 369.719 128.58 373.237 131.226 369.464C137.341 360.771 147.004 355.254 156.814 351.667C167.888 347.61 180.02 344.67 191.849 344.641C205.442 344.641 219.181 347.796 232.284 351.158C244.962 354.535 257.875 356.963 270.915 358.419C276.795 359.027 283.391 360.497 289.241 359.458C293.975 358.615 298.316 355.901 302.118 353.078C306.137 350.089 309.831 346.689 313.879 343.68C319.122 339.76 324.463 335.968 329.696 332.028C350.55 316.348 371.424 300.364 390.162 282.205C392.602 279.833 396.218 275.805 399.824 275.972C402.549 276.099 405.244 277.932 407.341 279.627C413.388 284.449 418.121 290.937 422.512 297.267C427.559 304.608 432.458 312.163 436.173 320.268C438.515 325.364 441.406 332.116 440.837 337.908C440.416 342.259 436.408 345.091 433.301 347.639C393.896 379.93 348.815 405.058 298.512 415.083C273.679 419.983 247.464 421.943 222.494 416.818C201.424 412.486 178.727 402.735 164.213 386.349C160.76 382.425 157.876 378.034 155.648 373.306C153.884 369.631 148.474 372.845 150.189 376.5L150.14 376.52Z" fill="#382C80"/>
<path d="M458.654 252.628C463.162 252.628 470.306 253.677 473.687 257.038C475.432 258.773 476.098 261.615 473.246 262.615C470.835 263.448 467.993 262.125 465.837 261.135C464.839 260.583 463.645 260.512 462.589 260.942C461.532 261.372 460.727 262.257 460.398 263.35C457.723 271.768 448.727 275.11 441.004 277.354C436.251 278.745 438.241 286.066 443.052 284.792C453.617 281.97 464.318 276.619 467.552 265.319L462.113 267.524C466.543 269.484 471.257 271.062 475.961 269.034C479.993 267.463 482.396 263.306 481.743 259.028C480.077 248.689 466.964 247.268 458.664 247.63C455.469 247.768 455.43 252.628 458.664 252.628H458.654Z" fill="#382C80"/>
<path d="M450.745 331.587C454.244 331.724 458.007 329.176 460.633 327.069C463.579 324.784 465.748 321.646 466.847 318.083C468.179 313.781 462.143 311.595 459.83 315.143C458.452 317.415 456.835 319.534 455.008 321.464C453.048 323.424 450.481 324.404 448.501 326.207C446.521 328.01 448.119 331.499 450.745 331.607V331.587Z" fill="#382C80"/>
<path d="M153.08 345.866C145.671 344.484 137.508 350.364 131.412 354.793C125.316 359.223 120.74 365.436 117.055 371.983C106.726 390.113 78.0608 451.764 83.4998 472.119C88.7722 492.062 109.783 490.876 108.607 512.417C107.951 524.363 123.856 515.915 123.307 527.871C122.906 536.299 123.307 544.913 125.679 553.067C126.149 554.694 126.708 558.202 127.943 559.417C130.883 562.357 134.999 554.253 137.478 551.734C141.615 547.702 145.976 543.906 150.542 540.366C158.999 533.565 167.525 526.803 176.629 520.874C200.108 505.616 226.901 496.207 254.765 493.434C263.536 492.552 265.025 486.476 263.487 477.676C262.448 471.698 259.616 466.19 256.529 460.957C240.476 433.83 216.829 411.859 200.414 384.948" fill="#7F72FF"/>
<path d="M153.923 342.935C143.701 341.377 133.598 348.463 126.257 354.882C119.848 360.497 115.33 367.857 111.361 375.315C104.364 388.555 98.08 402.161 92.5356 416.073C86.7928 430.332 81.2264 445.296 79.4428 460.663C78.7274 466.788 79.1782 472.57 81.736 478.303C84.823 485.163 90.4384 489.779 96.0146 494.571C101.591 499.363 104.933 504.087 104.835 511.554C104.766 515.151 105.197 518.522 108.088 520.992C110.303 522.873 113.125 523.402 115.86 524.088C118.065 524.647 119.29 524.774 119.466 527.175C119.662 529.988 119.27 532.928 119.348 535.77C119.427 538.971 119.692 542.165 120.142 545.335C120.956 551.215 123.758 570.05 133.696 562.152C136.498 559.917 138.086 556.605 140.556 554.076C144.843 549.903 149.379 545.992 154.138 542.365C163.821 534.594 173.64 526.97 184.322 520.609C205.285 508.119 228.673 500.251 252.922 497.53C257.107 497.06 261.321 496.501 264.359 493.267C267.034 490.435 267.877 486.456 267.818 482.664C267.622 471.502 261.615 461.545 255.696 452.47C242.956 433.017 226.972 416.083 213.301 397.355C209.91 392.71 206.676 387.966 203.658 383.076C201.08 378.901 194.475 382.723 197.062 386.937C208.391 405.459 222.964 421.629 236.262 438.691C243.037 447.122 249.15 456.064 254.549 465.435C257.127 470.061 259.312 474.971 259.929 480.292C260.223 482.85 260.576 486.574 258.293 488.397C256.98 489.445 255.078 489.583 253.491 489.769C250.551 490.112 247.611 490.465 244.671 490.915C238.913 491.769 233.202 492.913 227.56 494.345C216.901 497.098 206.513 500.811 196.523 505.439C175.836 514.984 157.323 529.018 140.154 543.914C136.884 546.738 133.927 549.905 131.334 553.361C131.059 553.733 128.56 556.174 128.57 556.389C128.58 556.605 130.53 556.487 130.53 556.575C130.452 556.163 130.324 555.761 130.148 555.38C129.854 554.4 129.648 553.361 129.384 552.352C127.89 546.726 127.074 540.942 126.953 535.123C126.865 530.87 128.012 525.735 125.816 521.815C124.339 519.445 121.999 517.741 119.29 517.062C117.408 516.474 114.478 516.435 113.047 515.219C111.616 514.004 112.459 509.849 112.243 507.801C111.924 504.273 110.837 500.858 109.058 497.795C102.679 487.113 88.0864 482.38 86.6164 468.963C86.0284 463.632 87.0378 458.105 88.1746 452.911C89.8173 445.723 91.8821 438.639 94.3584 431.694C99.3702 417.45 105.164 403.493 111.714 389.887C114.115 384.85 116.614 379.852 119.27 374.952C123.744 366.386 130.319 359.095 138.38 353.764C142.359 351.138 147.308 348.1 152.296 348.806C156.108 349.335 157.794 343.533 153.913 342.926L153.923 342.935Z" fill="#382C80"/>
<path d="M341.808 555.958C324.168 549.284 318.524 529.361 318.896 512.191C319.422 494.119 323.763 476.361 331.636 460.085C338.77 445.218 348.786 429.705 363.427 421.277C371.777 416.494 381.567 414.593 388.829 422.169C394.797 428.401 397.884 437.555 398.766 445.992C400.52 462.78 393.915 479.146 382.331 491.17C376.683 496.969 370.138 501.82 362.947 505.537C355.107 509.604 345.748 513.377 337.232 509.163C322.62 501.96 317.112 484.222 316.368 469.13C315.574 452.901 319.308 436.496 325.384 421.512C338.761 388.486 364.162 362.163 392.259 341.034C399.403 335.654 406.782 330.607 414.201 325.609C422.041 320.317 429.93 314.829 438.319 310.458C442.151 308.498 446.208 306.94 450.187 305.255C454.663 303.264 459.018 301.013 463.23 298.512C471.554 293.789 479.897 289.101 488.26 284.449C522.808 265.248 557.699 246.696 592.933 228.795C619.148 215.447 645.442 202.668 672.509 191.163C695.167 181.53 717.707 171.622 738.885 158.999C765.345 143.202 789.325 123.563 810.856 101.522C817.389 94.8388 823.704 87.9592 829.799 80.8836C831.456 78.9236 828.692 76.1796 827.016 78.0906C803.624 104.845 777.644 129.345 747.793 148.778C725.253 163.429 701.037 174.728 676.41 185.263C664.718 190.261 652.978 195.171 641.414 200.463C625.107 207.921 609.162 216.143 593.188 224.287C555.948 243.234 519.035 262.883 482.448 283.234C473.217 288.389 464.122 293.818 454.822 298.826C450.677 301.06 446.257 302.677 441.925 304.52C437.522 306.454 433.264 308.704 429.185 311.252C412.449 321.352 396.407 332.559 381.165 344.798C353.186 367.338 328.765 396.003 317.926 430.832C313.026 446.512 310.703 463.789 313.869 480.077C316.613 494.15 325.629 511.496 341.162 514.377C349.541 515.925 357.929 512.319 365.181 508.497C372.447 504.658 379.061 499.697 384.781 493.797C396.375 481.743 403.333 465.543 402.421 448.717C401.657 434.585 393.964 412.957 376.638 413.496C359.889 414.005 346.179 429.617 337.653 442.445C327.357 457.996 320.445 475.539 317.367 493.934C314.525 510.986 313.878 530.713 324.227 545.531C328.313 551.564 334.157 556.193 340.966 558.79C342.671 559.427 343.396 556.713 341.71 556.076L341.808 555.958Z" fill="#382C80"/>
<path d="M233.999 442.582C245.425 432.321 259.136 424.942 273.003 418.366C278.491 415.749 284.037 413.231 289.663 410.996C292.083 410.016 294.759 409.115 297.248 409.899C298.616 410.496 299.948 411.174 301.236 411.927C305.725 413.966 309.253 411.555 313.614 410.996C317.632 410.496 322.434 411.173 326.422 411.976C337.511 414.316 347.31 420.751 353.862 429.998C355.822 432.821 357.537 436.084 357.351 439.524C357.165 442.964 354.411 446.453 351.001 446.384C353.266 447.389 354.782 449.571 354.933 452.044C355.084 454.517 353.845 456.869 351.719 458.141C349.593 459.414 346.935 459.396 344.827 458.095C348.38 461.069 349.3 466.158 347.012 470.188C344.481 474.088 339.459 475.519 335.252 473.54C337.134 476.833 335.252 481.262 332.165 483.399C329.078 485.535 325.031 485.888 321.248 485.868C314.515 485.868 309.576 483.761 303.402 482.37C297.767 481.096 297.993 485.104 294.759 489.416C287.82 498.647 276.766 503.89 266.554 508.614" fill="white"/>
<path d="M235.87 444.464C250.874 431.273 269.857 422.276 288.242 414.809C290.329 413.966 292.799 412.643 295.102 412.653C297.228 412.653 299.022 414.417 300.982 415.113C305.568 416.739 309.498 414.681 314.016 414.133C322.718 413.015 332.538 416.328 339.741 420.993C343.826 423.639 347.391 427.014 350.256 430.949C351.801 432.853 352.929 435.06 353.568 437.427C353.941 439.328 353.49 442.572 350.981 442.719C347.541 442.935 345.787 447.688 349.139 449.53C352.726 451.49 350.501 456.812 346.699 454.852C343.102 452.99 338.859 457.792 342.161 460.732C344.17 462.515 345.238 465.347 343.915 467.895C342.564 470.239 339.695 471.233 337.183 470.228C335.683 469.412 333.826 469.681 332.62 470.888C331.413 472.095 331.144 473.952 331.959 475.451C333.518 478.764 328.863 481.086 326.432 481.615C322.7 482.296 318.869 482.209 315.172 481.361C309.557 480.214 301.001 475.559 296.023 480.381C294.063 482.252 293.2 484.908 291.642 487.064C289.507 489.879 286.968 492.362 284.106 494.434C278.118 498.932 271.278 501.98 264.614 505.272C260.096 507.517 264.055 513.857 268.534 511.927C276.119 508.644 283.626 504.881 290.094 499.706C293.402 497.134 296.297 494.07 298.679 490.621C299.541 489.328 300.1 487.789 301.011 486.545C301.217 486.28 301.766 485.829 301.325 486.016C301.854 485.79 303.02 486.241 303.461 486.339C311.82 488.191 319.807 490.994 328.49 489.044C336.399 487.26 342.338 479.538 338.565 471.6L333.4 476.843C339.28 479.469 346.444 478.077 350.109 472.452C353.608 467.092 352.265 459.605 347.522 455.449L342.994 461.329C347.982 463.858 354.548 462.564 357.371 457.409C360.193 452.255 357.812 445.904 352.892 443.258L351.04 450.02C355.892 449.694 359.902 446.112 360.771 441.328C361.889 435.918 358.958 430.822 355.783 426.716C349.444 418.52 340.655 412.56 330.695 409.703C325.357 408.064 319.764 407.416 314.192 407.792C311.615 408.057 309.292 408.988 306.715 409.419C303.53 409.968 301.736 408.311 298.963 407.243C293.445 405.126 287.575 408.527 282.597 410.693C276.815 413.215 271.118 415.91 265.506 418.778C253.608 424.834 242.123 431.743 232.186 440.681C229.638 442.974 233.381 446.669 235.929 444.434L235.87 444.464Z" fill="#382C80"/>
<path d="M294.67 420.797C300.972 417.308 308.302 416.132 314.868 413.28C317.152 412.3 316.064 408.125 313.555 408.458C309.723 408.968 306.166 410.418 302.55 411.741C298.923 412.958 295.41 414.492 292.054 416.328C289.192 418.033 291.75 422.414 294.67 420.797Z" fill="#382C80"/>
<path d="M153.227 347.443C139.125 349.345 126.052 356.479 115.526 366.063C105.001 375.648 96.8575 387.555 90.0955 400.04C71.2109 434.987 57.8241 482.889 67.1145 522.54C69.3195 531.938 73.4355 540.788 78.2179 549.176C84.3429 559.956 91.8007 570.207 101.924 577.312C116.624 587.612 135.754 590.18 153.452 587.259C171.151 584.339 187.645 576.371 203.001 567.091C225.886 553.274 246.804 536.436 265.192 517.032C267.83 515.128 268.665 511.573 267.152 508.693C258.86 483.465 248.59 458.932 236.439 435.32C234.479 438.691 133 497.06 129.531 498.844" fill="#7F72FF"/>
<path d="M153.227 344.101C115.497 348.198 92.1338 383.488 78.2178 415.377C64.0372 447.893 55.325 485.339 62.5378 520.697C66.1442 538.739 75.7482 556.742 87.91 570.56C100.072 584.378 117.183 591.708 135.489 592.718C154.599 593.776 173.258 587.818 190.173 579.331C207.548 570.638 223.797 559.525 238.918 547.373C246.497 541.277 253.762 534.819 260.713 527.998C264.026 524.735 268.014 521.403 270.582 517.483C273.424 513.132 271.758 508.663 270.239 504.155C263.715 484.704 256.007 465.669 247.16 447.158C244.906 442.444 242.564 437.76 240.182 433.115C238.624 430.067 234.371 430.537 232.695 433.115C232.695 433.036 233.567 431.949 232.989 432.635C232.411 433.321 233.861 432.056 232.989 432.635C232.117 433.213 231.421 433.742 230.627 434.271C228.001 436.016 225.316 437.682 222.631 439.338C214.369 444.444 205.971 449.412 197.641 454.361C179.06 465.357 160.401 476.235 141.663 486.995C136.939 489.729 132.284 492.748 127.433 495.257C122.582 497.765 126.875 504.841 131.608 502.401C131.745 502.332 131.883 502.244 132.02 502.185C130.648 502.842 132.137 502.107 132.823 501.764C133.676 501.333 134.499 500.852 135.342 500.402C138.125 498.883 140.879 497.305 143.633 495.727C152.126 490.866 160.619 485.966 169.113 481.027C187.988 470.08 206.872 459.134 225.482 447.707C228.677 445.747 231.872 443.787 234.998 441.7C236.811 440.494 238.918 439.299 240.173 437.437H232.685C241.497 454.653 249.304 472.365 256.068 490.484C257.607 494.629 259.106 498.794 260.537 502.979C261.321 505.262 262.144 507.536 262.84 509.839C263.536 512.142 263.036 512.779 261.252 514.69C254.951 521.325 248.307 527.636 241.407 533.653C227.882 545.437 213.289 555.935 197.817 565.013C182.617 573.921 165.928 581.732 148.2 583.545C131.932 585.201 114.595 582.134 101.62 571.638C95.1422 566.198 89.5887 559.744 85.1758 552.528C80.2763 545.071 76.2607 537.069 73.21 528.684C67.771 512.926 67.33 495.609 68.9862 479.165C70.8459 462.398 74.8203 445.934 80.8148 430.165C93.447 396.071 115.174 357.694 154.109 350.658C157.774 349.991 156.98 343.69 153.227 344.092V344.101Z" fill="#382C80"/>
<path d="M130.07 368.68C136.141 377.976 145.777 384.357 156.706 386.32C162.312 387.241 168.388 387.3 173.19 383.84C177.58 380.675 180.138 375.775 182.411 371.012C184.126 367.435 178.893 364.27 177.031 367.866C175.071 371.639 173.023 375.814 169.446 378.313C165.585 381.018 160.43 380.538 156.059 379.567C147.326 377.637 139.535 372.732 134.019 365.691C132.265 363.456 128.472 366.377 130.099 368.738L130.07 368.68Z" fill="#382C80"/>
<path d="M138.713 456.027C138.025 466.893 138.402 477.8 139.84 488.593C140.467 493.179 147.513 491.248 146.837 486.633C145.274 476.5 144.618 466.247 144.877 455.998C145.014 451.99 138.909 452.029 138.684 455.998L138.713 456.027Z" fill="#382C80"/>
<path d="M131.716 250.962C136.481 247.643 142.026 245.617 147.808 245.082C151.64 244.857 157.118 244.533 160.42 246.807C163.301 248.867 164.863 252.308 164.517 255.833C167.937 253.628 172.945 255.47 175.071 259.086C177.198 262.703 176.806 267.426 174.905 271.091C177.025 269.197 180.031 268.659 182.676 269.7C185.234 270.876 186.763 274.374 185.381 276.824C188.615 273.982 194.201 275.766 196.357 279.657C198.513 283.547 197.631 288.535 195.269 292.171C191.124 298.551 184.891 299.168 178.1 299.952C172.416 300.609 166.928 303.872 161.302 305.146C147.445 308.4 132.598 308.4 118.947 303.392" fill="#382C80"/>
<path d="M132.97 253.108C138.85 249.443 161.586 242.916 160.626 255.843C160.391 258.949 164.056 260.498 166.506 259.214C168.348 258.234 170.592 259.498 171.553 261.174C172.925 263.545 172.356 266.623 171.2 268.935C169.475 272.414 173.317 277.608 177.08 274.815C177.952 274.178 179.442 273.022 180.647 273.532C180.961 273.669 181.715 274.384 181.627 274.59C180.098 278.04 183.685 283.518 187.595 280.558C189.644 279.02 192.143 280.284 192.907 282.655C193.946 285.938 192.182 289.8 189.702 291.965C187.419 293.925 184.381 294.621 181.461 295.072C177.541 295.68 173.846 296.052 170.073 297.414C162.047 300.266 154.393 302.451 145.857 302.843C136.851 303.255 128.707 301.579 120.083 299.266C115.605 298.061 112.302 304.999 116.81 307.028C127.286 311.732 139.752 312.575 151.051 311.34C156.731 310.827 162.326 309.619 167.711 307.743C172.618 305.864 177.715 304.523 182.911 303.745C192.613 302.314 201.384 296.081 201.933 285.478C202.197 280.529 200.071 275.492 195.729 272.885C191.927 270.601 186.821 270.249 183.176 273.032L189.144 279C193.72 268.563 181.196 260.88 172.719 267.367L178.599 273.247C181.196 267.544 181.715 260.596 177.472 255.48C173.875 250.995 167.586 249.721 162.527 252.452L168.407 255.813C168.76 247.14 162.027 241.613 153.815 241.368C149.883 241.223 145.952 241.669 142.153 242.691C137.704 243.945 134.234 246.258 130.461 248.787C127.825 250.551 130.226 254.794 132.96 253.079L132.97 253.108Z" fill="#382C80"/>
<path d="M116.957 305.803C117.899 313.262 121.198 320.226 126.375 325.678C128.472 327.863 131.824 329.774 133.304 332.42C134.538 334.615 135.264 337.996 135.665 340.456C136.013 342.481 136.258 344.522 136.4 346.571C136.577 348.806 136.097 351.775 137.792 353.431C139.752 355.391 143.407 356.665 145.887 357.831C148.816 359.205 151.827 360.397 154.903 361.399C157.229 362.246 159.672 362.731 162.145 362.839C164.63 362.939 167.067 362.134 169.005 360.575C172.278 357.743 172.69 352.735 171.543 348.531C170.397 344.327 168.015 340.632 166.447 336.595C165.653 334.796 165.297 332.835 165.408 330.872C165.849 326.716 170.544 324.443 172.954 321.444C175.655 318.12 177.397 314.121 177.992 309.88C179.217 300.492 175.052 290.946 168.446 284.165C165.742 281.409 162.703 279.002 159.401 277.001C150.295 271.42 138.966 270.883 129.374 275.58C120.554 280.019 116.506 292.995 116.693 302.314C116.723 303.481 116.811 304.645 116.957 305.803Z" fill="white"/>
<path d="M113.88 305.803C114.782 314.721 118.339 323.512 125.13 329.588C126.777 331.068 128.894 332.381 130.03 334.341C131.167 336.301 131.412 338.604 131.775 340.642C132.204 343.037 132.443 345.462 132.49 347.894C132.49 350.109 132.49 352.422 133.607 354.421C135.656 358.204 140.124 359.742 143.809 361.457C148.454 363.623 153.325 365.838 158.411 366.73C167.868 368.386 176.365 363.045 176.473 352.922C176.522 348.267 174.669 343.994 172.709 339.878C171.729 337.751 170.436 335.566 169.965 333.233C169.515 331.048 170.348 330.009 171.925 328.559C175.13 325.54 177.972 322.796 179.883 318.71C181.9 314.386 182.793 309.623 182.48 304.862C181.245 285.899 163.86 269.377 145.054 268.122C135.107 267.456 124.866 271.003 118.976 279.275C113.674 286.713 111.675 296.826 112.694 305.803C113.302 311.134 121.71 311.242 121.152 305.803C120.373 299.178 121.595 292.471 124.66 286.546C128.031 280.313 133.872 277.266 140.899 276.805C156.04 275.825 171.916 288.565 173.68 303.863C174.137 307.42 173.643 311.035 172.249 314.339C170.73 317.798 168.329 319.886 165.663 322.385C163.233 324.688 161.273 327.471 161.047 330.911C160.744 335.497 163.007 339.731 164.967 343.759C167.231 348.472 170.955 358.566 162.135 358.625C158.166 358.625 153.952 356.763 150.316 355.303C147.994 354.323 141.447 352.579 140.516 350.06C139.928 348.472 140.32 345.856 140.115 344.121C139.849 341.638 139.43 339.173 138.86 336.742C137.949 332.89 136.459 329.539 133.48 326.873C130.089 323.825 126.992 321.366 124.591 317.377C122.281 313.569 120.696 309.366 119.917 304.98C119.309 301.619 113.537 302.354 113.88 305.803Z" fill="#382C80"/>
<path d="M138.762 319.876C138.252 319.739 137.783 319.476 137.4 319.112C135.734 317.573 135.381 314.927 133.48 313.526C131.334 311.948 128.766 309.91 126.052 309.557C123.112 309.184 119.721 311.213 119.554 314.192C119.565 315.561 119.97 316.899 120.72 318.044C122.554 321.053 124.702 323.859 127.13 326.413C128.668 328.098 131.246 329.657 130.364 332.352C129.693 334.12 128.03 335.316 126.14 335.39C124.272 335.416 122.474 334.68 121.161 333.351C119.417 334.939 117.104 336.144 114.772 335.782C112.439 335.419 110.401 333.008 111.107 330.754C110.625 331.987 109.411 332.776 108.088 332.714C106.801 332.614 105.564 332.174 104.501 331.44C103.214 330.738 102.096 329.761 101.228 328.579C100.346 327.246 99.4838 323.875 101.963 323.865C98.8664 323.728 95.7696 323.443 92.6826 323.149C89.3371 322.763 86.569 320.368 85.705 317.113C84.9495 313.379 86.1979 309.523 88.9978 306.94C84.8627 305.191 82.6554 300.657 83.8303 296.323C85.0051 291.99 89.2007 289.191 93.6528 289.771C91.1766 287.323 89.2374 284.386 87.959 281.147C86.6915 277.863 86.9612 274.185 88.694 271.121C90.5462 268.181 94.4564 266.486 97.6806 267.76C95.1233 264.261 95.8867 259.351 99.3858 256.794C102.885 254.236 107.795 255 110.352 258.499C108.813 256.784 118.555 251.482 119.672 251.178C124.052 249.983 128.012 251.58 132.343 252.08C140.036 252.972 147.69 257.274 148.082 265.917C148.278 270.024 150.895 270.357 152.345 273.953C153.482 276.776 151.845 280.108 149.405 281.882C146.965 283.655 143.819 284.243 140.82 284.822C142.351 287.154 142.264 290.193 140.603 292.435C138.941 294.676 136.059 295.643 133.382 294.857C137.19 300.707 140.106 307.092 142.035 313.8C142.454 314.943 142.582 316.172 142.408 317.377C142.307 318.218 141.849 318.974 141.151 319.452C140.453 319.931 139.582 320.085 138.762 319.876Z" fill="#382C80"/>
<path d="M140.154 317.505C138.135 316.613 137.704 313.585 136.234 311.997C134.344 310.062 132.119 308.485 129.668 307.342C125.66 305.47 120.848 306.048 117.908 309.527C114.301 313.732 116.683 318.965 119.407 322.875C121.076 325.313 122.944 327.607 124.993 329.735C125.277 330.019 126.679 331.44 126.747 331.303C126.159 332.371 124.386 331.127 123.896 330.705C122.384 329.274 120.017 329.274 118.506 330.705C118.31 330.862 114.791 332.557 114.919 331.842C115.605 327.804 109.872 324.531 107.765 328.824H108.127C107.711 328.725 107.316 328.553 106.961 328.314C106.326 328.003 105.733 327.611 105.197 327.148C104.956 326.806 104.694 326.479 104.413 326.168C104.393 326.062 104.367 325.957 104.335 325.854C104.119 325.021 103.688 325.629 103.041 327.667C107.579 326.952 106.207 320.16 102.002 319.974C98.8763 319.827 93.1825 320.484 90.7129 318.21C88.0473 315.731 89.6349 311.83 91.6929 309.616C93.2707 307.969 93.2119 304.716 90.9285 303.638C85.0485 300.835 87.2045 293.034 93.6627 293.544C97.1319 293.828 98.3863 289.32 96.3381 287.076C93.7705 284.273 91.1833 281.009 91.0461 277.04C90.9481 273.806 93.0649 270.308 96.6713 271.435C100.033 272.483 102.434 268.652 100.993 265.819C98.7391 261.419 104.296 257.842 107.677 261.174C110.715 264.114 115.918 260.322 113.635 256.568C115.771 260.077 113.047 259.636 113.704 259.342C114.037 259.195 114.37 258.705 114.684 258.46C115.449 257.887 116.247 257.36 117.075 256.882C117.859 256.402 118.662 255.902 119.476 255.51C119.897 255.284 121.348 254.687 120.632 254.892C124.052 253.912 127.923 255.294 131.334 255.794C134.018 256.068 136.625 256.849 139.017 258.097C141.118 259.198 142.765 261.002 143.672 263.193C144.652 265.77 144.182 268.505 145.632 270.964C146.769 272.924 149.758 274.747 148.572 277.236C147.161 280.235 142.692 280.755 139.83 281.323C137.518 281.774 136.606 284.704 137.684 286.586C139.184 289.183 137.331 292.132 134.264 291.486C131.491 290.898 128.639 293.877 130.344 296.562C132.353 299.644 134.125 302.875 135.646 306.225C136.361 307.803 136.988 309.41 137.606 311.046C137.87 311.801 138.919 316.554 139.683 316.672C135.45 316.054 133.598 322.552 137.89 323.169C140.458 323.561 142.79 323.051 144.427 320.915C146.514 318.23 145.926 314.878 145.024 311.86C143.019 305.225 140.1 298.903 136.351 293.073L132.431 298.15C136.451 299.158 140.683 297.664 143.179 294.356C145.675 291.048 145.95 286.568 143.878 282.979L141.741 288.242C146.563 287.438 151.639 286.125 154.55 281.813C157.087 278.201 157.032 273.371 154.413 269.818C153.433 268.426 152.384 267.574 151.963 265.898C151.434 263.752 151.463 261.792 150.571 259.714C148.928 256.057 146.1 253.06 142.545 251.208C138.517 249.032 134.323 248.581 129.893 247.768C125.464 246.954 121.132 246.219 117.045 248.15C113.184 249.963 103.717 254.843 107.079 260.39L113.037 255.794C108.931 251.747 102.257 250.894 97.5337 254.402C92.8101 257.911 91.7713 264.477 94.3781 269.7L98.6999 264.085C92.0947 261.997 85.4797 266.476 83.7941 272.905C81.8341 280.333 86.1657 287.174 90.9677 292.417L93.6529 285.949C87.4681 285.348 81.7522 289.297 80.1256 295.294C78.499 301.291 81.4364 307.587 87.0771 310.194L86.3029 304.216C81.9125 308.743 79.8349 315.839 83.4511 321.503C87.4691 327.795 95.3287 327.442 101.944 327.795L100.905 320.092C94.5937 321.072 96.0049 329.029 99.2585 332.381C103.1 336.37 111.401 339.163 114.468 332.744L107.314 329.725C106.667 333.773 108.402 337.565 112.41 339.104C116.595 340.711 120.642 338.761 123.837 336.056H118.447C122.367 339.349 128.119 340.623 132.088 336.585C136.371 332.214 133.588 327.54 130.128 323.992C127.921 321.761 125.951 319.308 124.248 316.672C123.621 315.692 122.769 314.584 123.611 313.555C124.454 312.526 125.767 312.781 126.738 313.046C129.473 313.87 131.805 315.678 133.284 318.122C134.272 320.146 135.981 321.726 138.076 322.552C140.918 323.6 143.006 318.769 140.154 317.505Z" fill="#382C80"/>
<path d="M153.786 295.7C153.746 295.735 153.699 295.762 153.648 295.778L154.158 295.572H154.001L154.56 295.494H154.403L154.962 295.572H154.805L155.305 295.788L155.167 295.719L155.589 296.043C155.548 296.012 155.512 295.976 155.481 295.935L155.804 296.347C155.776 296.307 155.753 296.265 155.736 296.219L155.942 296.719V296.65L156.02 297.199C156.01 297.128 156.01 297.055 156.02 296.984L155.942 297.523C155.938 297.477 155.938 297.431 155.942 297.385L155.736 297.875L155.814 297.758L155.491 298.169L155.55 298.12L155.128 298.434C155.167 298.402 155.21 298.376 155.256 298.356L154.766 298.561H154.844L154.305 298.63H154.452L153.923 298.561C153.971 298.553 154.021 298.553 154.07 298.561L153.59 298.356L153.717 298.444L153.305 298.13L153.364 298.189L153.051 297.777C153.082 297.82 153.109 297.866 153.129 297.915L152.923 297.434V297.503L152.855 296.974V297.052C152.855 298.154 153.747 299.046 154.849 299.046C155.95 299.046 156.843 298.154 156.843 297.052C156.839 295.91 156.073 294.912 154.971 294.612C153.756 294.3 152.499 294.938 152.031 296.102C151.571 297.17 151.889 298.414 152.806 299.13C153.69 299.818 154.904 299.9 155.873 299.336C156.882 298.746 157.222 297.449 156.632 296.44C156.043 295.43 154.746 295.09 153.737 295.68L153.786 295.7Z" fill="#382C80"/>
<path d="M168.329 291.26L168.192 291.339L168.691 291.123H168.544L169.103 291.055H168.946L169.505 291.123C169.453 291.134 169.4 291.134 169.348 291.123L169.848 291.329L169.74 291.26L170.161 291.584C170.116 291.556 170.076 291.519 170.044 291.476L170.367 291.897C170.339 291.858 170.316 291.815 170.299 291.77L170.514 292.26V292.191L170.583 292.74C170.573 292.669 170.573 292.596 170.583 292.525L170.514 293.073C170.509 293.028 170.509 292.982 170.514 292.936L170.308 293.426C170.329 293.38 170.355 293.338 170.387 293.299L170.063 293.71L170.112 293.661L169.701 293.985C169.735 293.952 169.775 293.926 169.818 293.906L169.338 294.112H169.407L168.868 294.191H169.025L168.486 294.122C168.537 294.129 168.587 294.146 168.633 294.171L168.152 293.965C168.201 293.985 168.244 294.015 168.28 294.053L167.878 293.73V293.789L167.564 293.387C167.6 293.423 167.626 293.467 167.643 293.514L167.447 293.034V293.113L167.378 292.583V292.662C167.378 293.763 168.271 294.656 169.373 294.656C170.474 294.656 171.367 293.763 171.367 292.662C171.37 291.518 170.601 290.515 169.495 290.222C168.282 289.899 167.019 290.535 166.555 291.701C166.091 292.769 166.41 294.016 167.329 294.73C168.214 295.418 169.428 295.5 170.397 294.935C171.325 294.311 171.607 293.073 171.042 292.109C170.476 291.144 169.258 290.785 168.26 291.29L168.329 291.26Z" fill="#382C80"/>
<path d="M147.2 332.067C152.499 333.348 158.049 333.148 163.243 331.489C167.829 329.941 174.179 326.716 175.571 321.689C176.335 318.925 173.092 316.152 170.553 317.828C168.848 318.955 167.741 320.631 166.173 321.924C164.493 323.294 162.599 324.376 160.567 325.129C156.534 326.634 152.201 327.161 147.925 326.667C144.838 326.334 144.201 331.401 147.2 332.087V332.067Z" fill="#382C80"/>
<path d="M164.742 285.507C161.93 287.399 159.597 290.074 160.391 293.72C160.826 295.251 161.588 296.668 162.625 297.875C163.478 299.002 166.859 301.991 165.007 302.775C162.978 303.598 163.831 306.94 165.928 306.127C168.309 305.205 170.828 303.873 169.211 300.982C166.849 296.63 159.205 292.475 166.085 287.83C167.486 286.85 166.173 284.586 164.742 285.537V285.507Z" fill="#382C80"/>
<path d="M155.922 289.604C152.099 288.331 147.947 290.261 146.455 294.004C145.789 295.768 148.151 296.631 149.317 295.67C150.238 294.906 150.816 293.818 151.845 293.171C152.804 292.54 153.978 292.324 155.099 292.573C155.866 292.687 156.598 292.213 156.807 291.466C157.016 290.72 156.637 289.934 155.922 289.633V289.604Z" fill="#382C80"/>
<path d="M163.017 309.38C162.812 309.332 162.602 309.302 162.39 309.292C162.518 309.292 162.831 309.292 162.39 309.292C162.027 309.234 161.656 309.234 161.293 309.292C160.441 309.375 159.675 309.845 159.215 310.566C158.799 311.271 158.687 312.115 158.905 312.904C159.123 313.693 159.653 314.359 160.371 314.751C161.439 315.339 162.75 315.255 163.734 314.536C164.718 313.817 165.196 312.593 164.961 311.397C164.725 310.202 163.818 309.251 162.635 308.959C161.577 308.687 160.478 309.228 160.048 310.233C159.615 311.244 160.001 312.42 160.95 312.977C161.204 313.095 160.734 312.81 160.734 312.771C160.786 312.831 160.845 312.884 160.91 312.928C161.077 313.036 160.616 312.536 160.724 312.703C160.832 312.869 160.528 312.144 160.607 312.487L160.528 311.899C160.538 311.99 160.538 312.082 160.528 312.173L160.607 311.585C160.489 311.968 160.607 311.693 160.607 311.585C160.635 311.459 160.7 311.343 160.793 311.252C160.93 311.086 160.95 311.066 160.842 311.174C160.734 311.282 161.293 310.85 161.048 310.988C161.489 310.733 161.449 310.841 161.204 310.88L161.783 310.801C161.718 310.811 161.652 310.811 161.587 310.801L162.165 310.88C161.724 310.821 162.302 310.968 162.449 311.095C162.596 311.223 162.635 311.242 162.527 311.095C162.733 311.399 162.802 311.478 162.723 311.331C162.645 311.184 162.723 311.282 162.841 311.615C162.841 311.556 162.841 311.487 162.841 311.429L162.9 311.791C162.9 311.585 162.9 311.674 162.9 312.056C162.9 312.438 162.723 312.438 162.792 312.301C162.861 312.164 162.792 312.232 162.625 312.477L162.772 312.34L162.567 312.507L162.743 312.409L162.537 312.497C162.701 312.451 162.661 312.451 162.42 312.497H162.625C163.417 312.489 164.081 311.9 164.184 311.115C164.3 310.332 163.811 309.586 163.047 309.38H163.017Z" fill="#382C80"/>
<path d="M367.523 435.741C379.283 443.366 380.342 459.114 374.707 470.884C369.229 482.321 356.146 496.619 342.083 490.543C340.034 489.661 338.212 492.503 340.289 493.61C355.969 501.558 371.434 485.623 377.529 472.511C383.684 459.212 382.253 441.837 368.827 433.556C367.435 432.694 366.191 434.859 367.553 435.741H367.523Z" fill="#382C80"/>
<path d="M513.102 282.44C513.612 286.995 513.154 291.607 511.76 295.974C507.507 308.42 489.426 324.394 475.676 321.699C469.473 320.484 463.269 318.475 458.35 314.506C455.743 312.408 453.45 309.38 453.754 306.048C454.244 301.148 459.741 298.728 464.445 297.395C462.572 296.617 461.361 294.778 461.388 292.75C461.455 290.758 462.14 288.837 463.348 287.252C464.762 285.01 466.867 283.29 469.345 282.352C471.874 281.448 474.695 282.009 476.686 283.812C473.746 280.568 475.323 274.816 479.087 272.562C488.887 266.682 491.827 279.49 500.029 277.746" fill="white"/>
<path d="M502.695 264.212C507.419 271.611 510.114 280.46 509.271 289.28C508.477 297.63 502.94 304.549 496.795 309.86C493.428 312.853 489.529 315.187 485.3 316.74C480.978 318.22 477.274 318.033 472.893 316.867C467.993 315.574 461.241 313.32 458.585 308.625C456.125 304.294 462.505 302.363 465.602 301.462C468.836 300.482 470.051 295.346 466.582 293.739C463.358 292.23 470.051 283.645 473.667 286.791C477.842 290.427 483.017 285.017 479.645 280.803C478.195 278.98 480.684 276.285 482.223 275.629C484.232 274.776 485.467 275.472 487.123 276.609C491.592 279.598 495.257 282.704 501.019 281.45C505.155 280.539 504.322 273.365 500.039 273.924C497.197 274.286 495.433 272.503 493.336 270.827C490.484 268.553 487.348 266.701 483.536 266.809C473.481 267.083 467.297 278.853 473.667 286.82L479.645 280.833C473.971 275.933 466.161 277.432 461.398 282.881C456.929 287.996 454.704 297.502 462.319 301.06L463.299 293.347C458.477 294.768 453.097 297.071 450.706 301.824C447.835 307.567 450.843 313.663 455.41 317.455C463.534 324.198 476.362 328.088 486.662 324.786C496.521 321.61 505.057 314.26 510.937 305.881C517.513 296.513 518.434 284.988 515.415 274.11C514.017 269.126 511.862 264.386 509.026 260.057" fill="#382C80"/>
<path d="M704.869 176.649C741.805 167.721 780.672 174.003 816.315 185.469C833.226 191.026 849.766 197.654 865.834 205.314C868.382 206.51 870.626 202.717 868.059 201.502C824.713 181.03 775.743 164.615 727.125 169.574C719.342 170.357 711.631 171.73 704.056 173.68C702.096 174.17 702.958 177.08 704.869 176.62V176.649Z" fill="#382C80"/>
<path d="M826.683 42.5849C831.583 98.5037 844.323 154.56 866.403 206.245C872.093 220.001 878.826 233.302 886.542 246.033C888.07 248.503 891.892 246.288 890.462 243.759C863.022 195.808 846.548 142.349 836.405 88.2235C833.573 73.0825 831.25 57.8435 829.623 42.5457C829.427 40.7033 826.536 40.6543 826.683 42.5457V42.5849Z" fill="white"/>
<path d="M783.22 146.789C821.508 145.671 858.68 137.733 893.734 122.142C903.833 117.671 913.651 112.592 923.134 106.932C925.545 105.491 923.37 101.738 920.929 103.159C879.319 127.404 831.553 142.3 783.22 143.956C781.407 144.025 781.397 146.838 783.22 146.789Z" fill="white"/>
<path d="M935.443 111.852C937.183 118.441 940.142 124.647 944.165 130.148C944.871 131.128 946.605 131.481 947.233 130.148C950.576 123.136 949.51 114.816 944.508 108.872L942.254 111.812L951.221 116.869C952.544 117.624 954.573 116.35 953.985 114.743C951.623 108.392 948.105 102.267 942.94 97.7396C942.163 97.2402 941.144 97.3507 940.492 98.0048C939.84 98.659 939.733 99.6793 940.235 100.454C944.508 105.031 948.075 109.843 950.359 115.742L953.113 113.625L944.136 108.598C943.324 108.144 942.303 108.355 941.737 109.093C941.172 109.831 941.233 110.872 941.882 111.538C945.762 116.28 946.645 122.801 944.165 128.404H947.233C943.242 123.226 940.251 117.351 938.413 111.077C938.188 110.266 937.348 109.79 936.536 110.014C935.724 110.239 935.248 111.079 935.473 111.891L935.443 111.852Z" fill="#382C80"/>
<path d="M899.468 273.963C906.504 289.594 914.814 311.36 899.938 325.217C893.705 331.029 885.434 334.233 877.79 337.722C868.872 341.789 860.023 346.003 851.33 350.638C819.97 367.465 789.835 391.201 776.938 425.579C771.313 440.553 769.843 459.232 784.866 469.15C797.459 477.47 813.835 475.696 826.663 469.062C834.503 465.014 841.363 459.389 848.037 453.617C855.456 447.139 862.737 440.544 870.391 434.281C878.231 427.804 886.277 421.287 894.695 415.505C898.752 412.721 903.515 409.968 908.67 410.742C912.511 411.33 915.736 413.937 917.931 417.033C923.644 425.089 922.409 435.056 920.498 444.17C918.695 452.784 916.49 461.388 917.754 470.247C918.734 477.166 922.194 484.281 928.789 487.378C934.013 489.818 940.716 489.994 945.655 486.78C947.925 485.267 949.644 483.06 950.555 480.488C951.594 477.784 947.272 476.637 946.233 479.293C943.852 485.388 935.453 485.682 930.426 483.144C923.164 479.499 921.606 470.149 921.821 462.819C922.409 446.326 932.543 428.137 920.577 413.319C916.196 407.9 909.62 405.156 902.711 406.753C894.038 408.713 886.502 416.024 879.652 421.326C871.956 427.291 864.426 433.458 857.063 439.828C850.056 445.894 843.343 452.362 835.934 457.948C823.478 467.347 807.887 474.118 792.383 468.14C785.523 465.485 779.976 460.183 777.987 452.96C775.449 443.778 778.281 433.88 781.662 425.285C794.99 391.426 825.83 368.7 857.034 352.432C866.148 347.689 875.458 343.377 884.787 339.084C892.745 335.419 900.938 331.313 906.279 324.1C917.843 308.489 909.571 287.84 902.3 272.278C901.379 270.318 898.546 272.023 899.36 273.963H899.468Z" fill="#382C80"/>
<path d="M913.658 277.589C916.564 275.371 919.58 273.301 922.694 271.385L921.204 271.797H921.822L918.49 268.475C918.362 269.631 918.274 270.778 918.254 271.944C918.362 272.976 918.382 274.015 918.313 275.051L922.331 271.993C920.799 271.916 919.264 271.943 917.735 272.071C916.093 271.96 914.443 272.082 912.835 272.434C911.059 272.973 909.844 274.61 909.844 276.467C909.844 278.323 911.059 279.961 912.835 280.499C914.573 280.942 916.379 281.048 918.156 280.813C919.95 280.818 921.737 280.604 923.478 280.176C924.71 279.812 925.71 278.907 926.194 277.717C926.678 276.527 926.595 275.182 925.967 274.061C925.193 272.62 925.33 270.062 925.193 268.475C924.928 265.486 920.577 263.575 918.989 266.789C919.381 266.662 919.244 266.789 918.558 267.171L917.372 268.053C916.598 268.632 915.824 269.229 915.069 269.847C913.56 271.072 912.129 272.365 910.669 273.688C908.641 275.58 911.414 279.363 913.697 277.608L913.658 277.589Z" fill="#7F72FF"/>
<path d="M894.185 276.805C892.382 276.697 890.579 276.628 888.776 276.628C887.208 276.628 884.856 277.187 883.356 276.687C880.691 275.795 877.976 279.206 879.603 281.587C880.74 283.253 882.543 285.272 882.964 287.271C883.601 290.162 886.767 290.77 889.08 289.76C892.335 288.298 895.159 286.023 897.282 283.155C898.229 281.511 897.96 279.437 896.626 278.089C895.254 276.803 893.213 276.538 891.559 277.432C890.136 278.246 888.819 279.234 887.639 280.372C886.383 281.259 885.182 282.221 884.042 283.253H889.922C887.962 281.656 886.639 279.333 884.826 277.589L884.15 282.812C885.365 282.067 887.845 282.254 889.227 282.136C890.873 281.989 892.529 281.901 894.185 281.832C895.502 281.75 896.528 280.658 896.528 279.338C896.528 278.019 895.502 276.927 894.185 276.844V276.805Z" fill="#7F72FF"/>
<path d="M915.432 322.385C919.166 322.973 922.939 323.247 926.692 323.6L923.879 316.818C921.483 319.899 919.321 323.156 917.411 326.56L925.134 327.54C924.458 323.257 921.116 317.475 916.49 316.573C914.733 316.181 912.924 316.976 912.025 318.537C911.127 320.098 911.348 322.062 912.57 323.384C913.462 324.413 914.716 324.992 915.51 326.079C916.303 327.175 916.809 328.452 916.98 329.794C917.637 333.459 923.017 333.772 924.712 330.774C926.408 327.775 928.525 324.727 930.122 321.571C930.811 320.339 930.803 318.836 930.1 317.611C929.397 316.386 928.104 315.621 926.692 315.593C923.262 315.427 919.832 315.162 916.392 315.231C912.472 315.299 911.267 321.66 915.412 322.326L915.432 322.385Z" fill="#7F72FF"/>
<path d="M895.646 312.134C893.509 310.409 891.441 308.537 889.138 307.018C886.835 305.499 884.013 307.116 883.18 309.439C882.556 311.498 881.817 313.52 880.965 315.495C879.005 319.543 882.925 323.276 886.914 321.444C888.972 320.464 891.167 320.091 893.264 319.317C895.323 318.713 896.636 316.702 896.361 314.574C896.067 312.614 894.293 310.654 892.118 310.83C888.762 311.29 885.514 312.338 882.523 313.927L888.913 318.827C889.476 316.372 890.176 313.951 891.01 311.575L885.052 314.006C887.32 314.944 889.504 316.075 891.579 317.387C894.695 319.494 898.625 314.515 895.646 312.114V312.134Z" fill="#7F72FF"/>
<path d="M873.664 353.519C874.193 357.312 875.193 361.683 874.791 365.495L880.083 361.467C877.044 360.65 873.83 360.756 870.852 361.771L876.163 367.083C877.741 363.094 879.172 358.263 878.819 353.921C878.466 349.58 871.743 347.963 870.685 352.824C869.793 356.91 869.362 360.83 867.833 364.78C866.647 367.867 870.205 371.022 873.145 370.091C875.039 369.574 877.017 369.431 878.966 369.67C881.534 369.817 883.866 366.867 882.994 364.388C881.553 360.468 881.23 355.822 880.23 351.706C879.162 347.336 873.086 349.315 873.664 353.519Z" fill="#7F72FF"/>
<path d="M866.148 336.614C864.067 335.674 862.169 334.374 860.542 332.772L861.62 334.615L861.483 334.223V336.447C861.071 337.966 861.738 336.447 862.159 335.967C862.757 335.32 863.374 334.693 864.002 334.086C865.207 332.919 866.687 331.89 867.363 330.322L860.768 329.46C861.411 332.183 861.772 334.964 861.846 337.761C862.238 342.533 869.803 342.474 869.284 337.761C868.941 334.654 868.137 331.606 867.863 328.5C867.637 325.932 865.746 324.668 863.286 325.011C861.013 325.334 858.925 327.431 857.328 329.009C855.73 330.587 853.927 332.165 853.408 334.223C852.124 339.436 859.592 342.2 863.472 342.935C867.069 343.621 869.891 338.476 866.138 336.614H866.148Z" fill="#7F72FF"/>
<path d="M827.32 377.764C827.418 381.547 828.192 385.124 828.633 388.848C828.927 391.367 830.897 393.317 833.592 392.631C836.654 391.685 839.453 390.037 841.765 387.819C843.326 386.223 843.326 383.672 841.765 382.076C838.913 379.136 835.013 375.961 830.936 375.05C829.014 374.571 827.029 375.565 826.261 377.392C825.493 379.218 826.172 381.332 827.859 382.37C830.721 384.203 833.543 385.369 836.022 387.819V382.076C834.356 383.434 832.525 384.576 830.574 385.477L835.924 386.878C834.494 383.938 833.964 380.175 833.347 376.951C832.739 373.521 827.222 374.344 827.32 377.764Z" fill="#7F72FF"/>
<path d="M825.115 361.634C823.655 359.291 822.293 356.881 821.009 354.44C820.734 353.911 819.647 350.873 819.147 350.726C817.285 353.34 817.213 354.058 818.931 352.882L820.95 351.736C818.137 349.825 817.03 349.648 817.598 351.236C817.782 351.841 817.914 352.46 817.99 353.088C818.064 354.326 817.975 355.568 817.726 356.783C817.324 359.409 817.148 361.869 818.657 364.191C821.019 367.808 827.82 365.563 826.056 361.065C825.252 359.017 825.811 357.204 825.879 355.048C825.95 353.064 825.715 351.081 825.184 349.168C823.9 344.787 820.607 343.102 816.481 345.248C812.561 347.296 810.052 349.678 812.277 354.146C814.408 358.241 817.078 362.031 820.215 365.416C822.577 368.062 826.977 364.632 825.115 361.643V361.634Z" fill="#7F72FF"/>
<path d="M796.352 412.897C797.871 412.946 799.371 413.123 800.89 413.24C801.576 413.24 802.271 413.309 802.957 413.348L803.781 413.397C804.888 413.554 804.888 413.446 803.781 413.074L802.889 411.545L803.016 412.192V410.33C802.489 413.191 801.4 415.919 799.812 418.356L807.514 419.336C806.615 416.734 805.11 414.382 803.124 412.476C801.164 410.643 798.44 408.389 795.696 408.233C793.595 408.243 791.894 409.944 791.883 412.045C792.138 415.2 794.088 416.239 796.421 417.925C797.732 418.848 798.752 420.126 799.361 421.61C799.907 423.406 801.541 424.653 803.418 424.706C805.31 424.688 806.964 423.428 807.485 421.61C807.985 419.552 808.73 417.572 809.2 415.494C809.71 413.26 810.474 410.526 808.926 408.527C807.642 406.87 805.721 406.665 803.771 406.782C801.291 406.939 798.822 407.253 796.342 407.37C792.785 407.527 792.765 412.79 796.342 412.907L796.352 412.897Z" fill="#7F72FF"/>
<path d="M781.417 400.383C778.869 398.001 776.252 395.777 773.508 393.621C771.646 392.161 768.559 391.916 767.295 394.415C765.857 397.297 764.676 400.301 763.767 403.391C763.101 405.626 765.021 408.772 767.618 408.438C771.483 407.979 775.3 407.182 779.026 406.057C783.926 404.528 781.828 396.786 776.899 398.335C773.873 399.311 770.768 400.023 767.618 400.461L771.46 405.508C772.185 403.085 773.075 400.714 774.126 398.413L768.716 399.834C771.656 401.794 774.596 403.587 777.644 405.283C780.692 406.978 784.082 402.872 781.417 400.383Z" fill="#7F72FF"/>
<path d="M801.468 462.476C801.845 457.857 801.688 453.21 800.998 448.628L798.489 451.921C799.243 451.715 799.998 451.921 800.713 451.745L801.693 452.019L800.713 450.059C800.096 450.235 799.126 454.234 798.969 454.724C797.881 457.792 797.151 460.975 796.793 464.21C796.47 468.699 803.418 469.492 804.545 465.259C805.329 462.319 805.613 459.163 806.358 456.164C806.858 454.146 807.858 451.901 807.691 449.814C807.289 444.767 800.331 444.689 796.695 445.375C795.214 445.784 794.188 447.131 794.187 448.667C794.282 453.582 794.628 458.488 795.225 463.367C795.804 467.229 801.105 465.759 801.488 462.525L801.468 462.476Z" fill="#7F72FF"/>
<path d="M790.668 479.42C788.6 482.477 786.748 485.711 784.514 488.661C782.857 490.895 784.67 494.051 786.993 494.747C790.198 495.727 793.441 496.54 796.666 497.422C798.135 497.799 799.694 497.372 800.766 496.299C801.839 495.227 802.265 493.668 801.889 492.199C801.208 488.867 800.277 485.591 799.106 482.399C798.381 480.605 796.891 479.302 794.833 479.606C793.079 479.87 791.256 481.478 791.452 483.438C791.921 487.17 792.671 490.862 793.696 494.482L798.9 489.22C795.656 488.387 792.422 487.495 789.169 486.75L791.648 492.836C793.079 489.445 794.921 486.172 796.548 482.85C797.162 481.799 797.17 480.501 796.567 479.444C795.965 478.386 794.844 477.731 793.627 477.724C792.411 477.717 791.282 478.359 790.668 479.41V479.42Z" fill="#7F72FF"/>
<path d="M841.324 442.268C838.982 440.082 836.581 437.975 834.464 435.594L835.033 439.975C835.346 439.426 835.866 438.103 836.454 437.799L834.601 438.299L835.052 438.358L833.21 437.858L833.582 438.132L832.22 436.819C833.837 439.093 834.258 442.591 834.954 445.257C836.199 450.01 843.559 447.991 842.324 443.218C841.834 441.317 841.167 439.475 840.491 437.632C839.815 435.79 839.335 433.712 837.973 432.38C836.469 430.846 834.1 430.565 832.279 431.703C830.701 432.683 829.594 434.712 828.741 436.329C827.949 437.752 828.18 439.526 829.309 440.7C831.727 443.244 834.516 445.408 837.581 447.119C840.521 448.687 843.98 444.757 841.314 442.219L841.324 442.268Z" fill="#7F72FF"/>
<path d="M844.803 465.318C845.783 468.807 846.92 472.237 847.89 475.716C848.792 478.989 852.79 479.038 854.584 476.588C855.497 475.234 856.784 474.175 858.288 473.54C860.718 472.491 860.532 469.14 859.072 467.493C856.614 464.667 853.615 462.361 850.252 460.712C845.724 458.556 841.755 465.063 846.273 467.523C848.977 468.939 851.443 470.767 853.584 472.942L854.358 466.886C851.676 468.107 849.503 470.224 848.214 472.874H854.544C852.772 469.736 851.195 466.493 849.821 463.162C848.557 460.222 843.941 462.348 844.764 465.298L844.803 465.318Z" fill="#7F72FF"/>
<path d="M867.206 422.05C864.188 420.698 861.238 419.953 858.622 417.778L859.21 422.305C860.011 420.903 860.957 419.59 862.032 418.385L860.356 419.365L860.846 419.179H858.827C858.151 418.532 857.985 418.464 858.347 418.983C858.533 419.297 858.71 419.61 858.886 419.963C859.249 420.59 859.602 421.217 859.935 421.864C860.601 423.138 861.219 424.461 861.816 425.784C863.933 430.38 871.185 426.333 868.676 421.756C867.765 420.061 866.795 418.395 865.825 416.739C864.854 415.083 863.776 412.956 861.767 412.172C857.201 410.388 854.8 415.445 852.722 418.542C851.862 420.007 852.1 421.868 853.3 423.07C856.897 425.961 861.767 428.273 866.481 427.391C868.843 426.96 869.421 423.07 867.177 422.06L867.206 422.05Z" fill="#7F72FF"/>
<path d="M873.968 437.966C875.056 440.994 876.644 444.208 877.202 447.374C877.761 450.539 882.808 451.176 884.16 448.285C884.646 446.936 885.527 445.764 886.689 444.924C888.884 443.395 890.011 440.749 888.443 438.328C887.277 436.515 884.768 435.751 882.827 435.084C880.573 434.32 878.221 433.742 875.86 434.359C873.008 435.114 872.263 439.436 875.017 440.857C877.584 442.18 880.583 442.16 883.072 443.699L881.661 442.287L881.877 442.581L881.348 440.621V441.053L882.494 438.269C881.74 439.181 880.279 440.033 879.407 441.131C878.364 442.353 877.622 443.803 877.241 445.365L883.602 443.689C882.77 442.476 882.033 441.202 881.397 439.877L879.074 435.849C877.545 433.213 872.929 434.957 874.007 437.985L873.968 437.966Z" fill="#7F72FF"/>
<path d="M893.695 405.263C892.833 402.323 891.167 399.57 890.011 396.708L889.031 400.246C890.487 398.79 892.056 397.453 893.725 396.247L888.149 393.043C888.374 396.904 888.149 400.726 888.149 404.577C888.276 409.605 895.41 409.477 895.861 404.577C896.059 400.73 895.947 396.873 895.528 393.043C895.342 390.544 892.412 388.035 889.952 389.848C887.765 391.415 885.725 393.176 883.856 395.111C882.703 396.285 882.471 398.082 883.288 399.511C885.248 402.284 886.747 405.391 888.952 407.968C890.804 410.124 894.362 407.821 893.607 405.263H893.695Z" fill="#7F72FF"/>
<path d="M893.96 423.736C893.919 426.948 894.248 430.154 894.94 433.291C895.489 436.123 899.477 436.995 901.349 434.986C902.315 433.8 903.556 432.868 904.965 432.272C906.324 431.87 907.375 430.789 907.737 429.419C908.1 428.049 907.721 426.59 906.739 425.569C904.586 423.431 902.24 421.495 899.732 419.787C897.794 418.674 895.322 419.319 894.176 421.237C893.089 423.181 893.729 425.637 895.626 426.803C897.543 428.152 899.36 429.635 901.065 431.243L902.78 424.54C899.72 425.613 897.088 427.644 895.273 430.331H901.908C900.593 428.36 899.785 426.095 899.556 423.736C899.174 420.198 894.068 420.032 893.931 423.736H893.96Z" fill="#7F72FF"/>
<path d="M924.595 407.449C925.741 404.969 926.956 402.549 928.221 400.118L922.546 400.853C924.291 403.078 926.084 405.273 927.838 407.498L931.474 401.245C928.632 400.422 924.693 401.843 922.399 403.578C920.635 404.92 919.714 407.125 920.929 409.203C922.095 411.131 924.584 411.783 926.545 410.673C927.398 410.15 928.285 409.685 929.201 409.281C930.295 408.992 931.356 408.588 932.366 408.076C933.349 407.474 934.006 406.46 934.153 405.317C934.299 404.174 933.92 403.026 933.121 402.196C931.298 400.05 929.495 397.864 927.652 395.728C926.241 394.072 922.909 394.415 921.978 396.453C920.711 399.217 919.567 402.026 918.548 404.881C917.294 408.38 923.027 410.859 924.595 407.439V407.449Z" fill="#7F72FF"/>
<path d="M912.933 442.307C910.081 442.484 907.847 443.865 905.24 444.836C903.248 445.442 902.078 447.498 902.574 449.52L903.887 457.037C904.495 460.516 909.669 460.859 911.257 458.017C912.08 456.537 912.884 455.077 913.795 453.616C914.707 452.156 915.863 450.921 916.735 449.451C919.038 445.365 913.795 441.504 910.375 444.551C907.435 447.168 905.416 451.353 903.936 454.91H911.718L909.973 447.511L908.993 451.225C910.424 449.51 912.59 448.893 914.462 447.795C916.872 446.384 915.961 442.141 912.982 442.327L912.933 442.307Z" fill="#7F72FF"/>
<path d="M928.809 443.503C930.691 444.63 933.209 445.463 934.689 446.756L933.709 445.08L933.807 445.355V443.307C934.238 442.532 934.209 442.474 933.729 443.13L932.964 444.022C932.808 444.218 931.328 445.698 932.131 445.169L934.229 444.6H933.915L936.012 445.169L935.757 445.031L937.257 446.531C935.924 444.708 935.405 442.209 934.238 440.249C931.926 436.378 925.477 438.887 926.839 443.375C927.338 444.925 927.937 446.441 928.633 447.913C929.083 449.259 929.781 450.509 930.691 451.597C932.212 453.04 934.493 453.33 936.326 452.313C937.747 451.48 938.57 449.951 939.481 448.648C940.393 447.344 941.441 446.178 941.392 444.483C941.325 442.76 940.332 441.208 938.795 440.425C936.293 438.757 933.445 437.678 930.465 437.27C927.035 436.966 926.134 441.876 928.79 443.473L928.809 443.503Z" fill="#7F72FF"/>
<path d="M914.658 483.702C913.678 485.153 912.757 486.642 911.718 488.053C910.493 489.69 911.394 492.532 913.119 493.414C915.165 494.422 917.46 494.814 919.724 494.541C922.41 494.247 924.311 492.179 923.644 489.376C923.288 487.658 922.786 485.973 922.145 484.339C921.822 483.32 921.153 482.447 920.254 481.87C918.804 481.023 916.986 481.139 915.655 482.164C914.325 483.188 913.749 484.917 914.197 486.534C914.578 488.245 915.103 489.92 915.765 491.542L918.617 486.525C919.519 486.368 918.421 486.525 918.264 486.525C918.107 486.525 917.666 486.525 917.363 486.525C916.814 486.525 918.176 486.74 917.186 486.525C916.833 486.436 916.481 486.348 916.128 486.28L918.862 491.101C918.607 491.777 919.009 490.788 919.068 490.65L919.607 489.445L920.587 487.211C921.322 485.564 921.126 483.428 919.352 482.487C917.701 481.575 915.624 482.123 914.638 483.732L914.658 483.702Z" fill="#7F72FF"/>
<path d="M931.367 475.5C931.749 475.373 932.171 475.294 932.543 475.137C932.915 474.981 931.994 475.137 932.602 475.137C933.209 475.137 932.504 475.137 932.288 475.02C931.99 474.866 931.729 474.649 931.524 474.383C931.347 474.118 931.328 474.099 931.475 474.324L931.269 473.814C931.396 474.295 931.269 473.452 931.269 473.383C931.335 472.485 931.832 471.674 932.602 471.208L937.129 471.786C935.803 470.356 934.107 469.321 932.229 468.797C930.576 468.383 928.846 469.084 927.947 470.531C927.147 472.035 927.387 473.879 928.545 475.128C929.881 476.524 931.576 477.524 933.445 478.019C934.744 478.392 936.144 478.014 937.08 477.039C938.194 475.838 938.658 474.173 938.325 472.57C938.053 471.359 937.358 470.286 936.365 469.542C934.052 467.748 931.318 468.444 928.917 469.659C927.419 470.414 926.76 472.198 927.407 473.745C928.054 475.293 929.788 476.076 931.377 475.539L931.367 475.5Z" fill="#7F72FF"/>
<path d="M227.178 464.397C238.522 481.058 247.029 499.483 252.354 518.924C253.06 521.541 257.156 520.423 256.421 517.807C250.995 498.022 242.052 479.376 230.02 462.76C228.795 461.075 225.973 462.643 227.178 464.426V464.397Z" fill="#382C80"/>
<path d="M403.784 298.473C410.78 304.742 416.691 312.127 421.277 320.327C425.951 328.676 428.558 337.339 430.851 346.561C431.488 349.129 435.114 347.982 434.722 345.493C431.831 326.628 419.885 308.821 405.626 296.63C404.362 295.552 402.52 297.346 403.784 298.473Z" fill="#382C80"/>
<path d="M158.852 450.324C158.551 444.058 158.81 437.777 159.627 431.557L157 432.625C163.694 435.634 170.367 438.613 176.855 442.062C177.513 442.429 178.315 442.421 178.966 442.043C179.617 441.666 180.022 440.973 180.03 440.22C180.471 436.947 180.814 433.664 181.196 430.42L181.775 425.52C181.931 424.109 181.422 421.228 183.313 421.688C184.636 422.012 186.577 424.158 187.684 425.01L190.683 427.333C192.29 428.578 194.75 431.439 196.984 431.439C201.463 431.439 200.591 423.001 200.796 420.326L201.179 415.426L201.375 412.986C200.542 412.849 200.738 412.986 201.943 413.505C204.588 415.153 207.342 416.62 210.185 417.896C212.684 419.121 214.84 415.563 212.39 414.123C209.548 412.457 206.608 410.889 203.668 409.399C201.786 408.419 199.748 407.802 198.101 409.624C196.455 411.447 196.847 414.524 196.68 416.641L196.308 421.541C196.308 422.07 196.23 427.215 195.877 427.362H198.082C194.211 425.491 190.742 421.884 187.302 419.287C185.136 417.66 182.176 415.74 179.609 417.798C177.276 419.669 177.649 424.109 177.325 426.755C176.816 431.263 176.247 435.761 175.806 440.279L178.982 438.456C172.28 435.089 165.411 432.066 158.402 429.401C157.866 429.259 157.296 429.371 156.855 429.707C156.414 430.042 156.153 430.562 156.148 431.116C155.592 437.516 155.478 443.947 155.805 450.363C155.922 452.323 158.95 452.323 158.872 450.363L158.852 450.324Z" fill="white"/>
<path d="M167.623 466.219C167.819 464.102 167.898 461.319 168.711 459.359C169.691 456.958 171.112 457.399 173.327 457.928C176.149 458.585 180.471 460.584 183.382 459.565C186.018 458.644 186.381 455.459 186.939 453.126C187.312 451.549 187.41 449.412 188.252 448.021C189.497 445.992 191.192 447.119 192.868 447.795C197.768 449.755 201.473 447.932 203.393 443.052C203.952 441.631 204.373 440.112 204.756 438.681C204.893 438.201 205.157 436.359 205.657 435.976C206.157 435.594 206.765 435.859 207.47 435.976C210.531 436.39 213.629 435.553 216.065 433.654C218.133 432.076 216.065 428.499 213.987 430.106C212.278 431.525 210.054 432.164 207.852 431.87C206.69 431.583 205.478 431.56 204.305 431.802C201.463 432.782 201.13 436.359 200.385 438.818C199.963 440.249 199.63 442.16 198.65 443.346C197.18 445.11 195.71 444.493 193.809 443.767C191.545 442.876 189.164 441.964 186.861 443.326C184.274 444.836 183.852 448.226 183.245 450.872C183.095 452.097 182.816 453.303 182.412 454.469L182.206 455.253C181.266 455.609 180.24 455.667 179.266 455.42C177.188 455.214 175.081 454.606 173.023 454.214C170.681 453.773 168.211 453.45 166.614 455.606C164.654 458.271 164.762 463.142 164.605 466.278C164.507 468.238 167.427 468.169 167.604 466.278L167.623 466.219Z" fill="white"/>
<path d="M236.047 567.228C239.085 575.068 233.391 582.977 231.627 590.474C229.491 599.607 234.068 608.251 237.037 616.699C243.877 636.148 250.339 655.729 256.421 675.44C268.613 714.846 279.334 754.712 288.859 794.843C294.191 817.324 298.718 839.982 304.079 862.463C304.637 864.796 307.999 863.776 307.617 861.483C304.128 841.158 299.375 821.019 294.69 800.949C290.006 780.878 285.028 760.837 279.716 740.894C269.103 701.047 257.176 661.514 243.652 622.569C241.751 617.114 239.82 611.668 237.86 606.232C235.969 600.989 234.489 596.236 235.802 590.65C237.684 582.683 242.711 574.617 239.242 566.366C238.438 564.406 235.322 565.229 236.047 567.238V567.228Z" fill="#7F72FF"/>
<path d="M220.171 571.099C219.71 574.346 218.352 577.401 216.251 579.919C215.793 580.44 215.662 581.172 215.912 581.819C216.161 582.466 216.749 582.92 217.438 582.999C218.127 583.078 218.802 582.767 219.191 582.193C221.57 578.989 222.901 575.128 223.003 571.138C223.091 569.276 220.406 569.394 220.181 571.138L220.171 571.099Z" fill="#7F72FF"/>
<path d="M338.829 848.106C341.162 846.616 343.475 845.166 345.748 843.549C347.708 842.177 345.925 838.992 343.847 840.295C341.505 841.765 339.221 843.304 336.928 844.862C334.968 846.205 336.771 849.429 338.829 848.106Z" fill="#7F72FF"/>
<path d="M174.934 728.075C185.278 732.922 196.79 734.713 208.117 733.24C208.907 733.285 209.646 732.851 209.992 732.14C210.338 731.429 210.222 730.579 209.699 729.986C209.175 729.393 208.347 729.173 207.598 729.428C197.083 730.948 186.352 729.52 176.6 725.302C174.729 724.479 173.072 727.203 174.974 728.075H174.934Z" fill="#7F72FF"/>
<path d="M175.356 767.697C174.771 764.274 174.567 760.797 174.748 757.329C174.836 755.241 171.72 755.3 171.543 757.329C171.246 761.088 171.467 764.87 172.2 768.569C172.592 770.637 175.718 769.755 175.356 767.697Z" fill="#7F72FF"/>
<path d="M174.532 613.68C179.227 611.975 183.539 609.878 188.458 608.78L186.106 605.723C184.146 610.309 185.636 614.454 188.066 618.551C191.057 623.299 193.738 628.236 196.092 633.329C198.397 638.698 200.176 644.277 201.404 649.989C202.619 655.624 203.364 660.475 200.591 665.728C200.108 666.612 200.341 667.716 201.139 668.331C201.936 668.946 203.063 668.889 203.795 668.198C207.568 665.101 207.411 659.182 206.823 654.801C206.07 649.431 204.81 644.145 203.06 639.013C201.305 633.825 199.112 628.796 196.504 623.98C193.995 619.374 187.753 612.906 189.967 607.32C190.585 605.772 188.801 604.38 187.4 604.752C182.451 606.017 177.1 607.79 173.023 610.975C171.769 611.955 173.131 614.18 174.581 613.651L174.532 613.68Z" fill="#7F72FF"/>
<path d="M275.453 939.099C272.199 942.678 271.316 947.82 273.189 952.28C275.208 957.513 279.941 960.12 285.017 961.893C297.209 966.039 311.399 966 324.061 964.784C337.548 963.457 350.836 960.576 363.662 956.2C369.996 954.044 376.212 951.554 382.282 948.742C387.545 946.311 392.798 943.538 396.982 939.471C405.165 931.533 407.811 916.294 396.865 909.336C392.298 906.396 388.574 913.354 392.71 916.441C399.334 921.341 394.248 930.827 389.446 934.757C381.949 940.902 371.542 944.43 362.506 947.585C342.347 954.612 320.64 958.522 299.286 956.405C294.386 955.925 289.045 955.269 284.498 953.25C281.156 951.76 276.589 947.37 279.853 943.45C282.411 940.431 278.246 936.09 275.443 939.05L275.453 939.099Z" fill="#382C80"/>
<path d="M356.724 890.667C356.724 892.97 356.851 895.273 357.077 897.527C357.302 899.781 358.057 902.064 357.841 904.25L364.015 900.712C353.784 896.214 344.268 906.945 340.025 915.167C335.781 923.389 332.626 935.933 340.083 943.244C343.886 946.968 349.109 941.46 345.826 937.491C342.083 932.964 344.915 924.487 347.188 919.93C349.462 915.373 354.783 906.945 360.85 908.17C365.093 909.052 367.337 904.505 364.838 901.31C364.074 900.33 363.77 897.831 363.486 896.616C363.042 894.637 362.763 892.624 362.653 890.598C362.418 886.825 356.675 886.747 356.724 890.598V890.667Z" fill="#382C80"/>
<path d="M105.256 669.647C103.778 665.297 99.9982 662.134 95.4559 661.445C89.9875 660.465 85.4109 662.974 81.4027 666.492C72.3671 674.44 65.8599 686.2 60.9599 696.98C55.5881 709.091 51.6417 721.785 49.1999 734.808C47.8571 741.762 46.9082 748.787 46.3579 755.848C45.8679 762.061 45.5739 768.373 46.8675 774.468C49.2979 786.16 61.6949 797.39 73.8273 790.628C78.5215 788.022 74.4055 781.348 69.6819 783.533C61.3127 787.453 55.5601 776.81 54.7467 770.195C53.4825 760.013 55.2563 748.9 57.0595 738.835C60.6561 718.814 67.3985 698.969 78.8841 682.054C81.6869 677.919 84.8327 673.43 88.9291 670.471C91.7221 668.442 97.5335 666.854 99.2485 671.264C100.679 674.92 106.53 673.489 105.256 669.608V669.647Z" fill="#382C80"/>
<path d="M113.311 760.288C111.273 759.229 109.195 758.239 107.088 757.348C104.981 756.456 102.629 756.015 100.826 754.839V761.924C109.411 755.584 105.03 742.667 100.405 735.249C95.3674 727.164 85.2832 717.442 74.9246 720.627C69.8776 722.166 71.9846 729.447 77.0904 728.467C83.3624 727.242 89.8304 734.474 92.7704 739.139C95.338 743.138 99.552 751.066 95.8868 755.486C94.6252 756.818 94.3922 758.822 95.3144 760.408C96.2366 761.994 98.0935 762.783 99.8754 762.346C101.326 762.091 103.795 763.09 105.158 763.473C106.935 763.988 108.668 764.644 110.342 765.433C113.752 767.01 116.771 762.101 113.341 760.317L113.311 760.288Z" fill="#382C80"/>
<path d="M290.632 917.48C294.651 920.942 300.418 921.492 305.019 918.852C308.145 917.058 305.391 912.443 302.206 914.04C299.808 915.242 296.932 914.948 294.827 913.285C291.887 910.845 287.683 915.079 290.632 917.48Z" fill="#382C80"/>
<path d="M121.514 704.163C123.136 701.935 125.887 700.828 128.6 701.311C130.462 701.527 132.069 699.567 132.069 697.852C132.069 695.794 130.471 694.608 128.6 694.383C123.452 693.918 118.485 696.403 115.771 700.802C113.439 704.437 119.123 707.662 121.514 704.163Z" fill="#382C80"/>
<path d="M438.926 873.576C437.358 870.91 435.143 867.52 436.153 864.276C436.77 862.316 438.515 860.581 440.72 861.542C442.023 862.1 442.905 863.707 443.542 864.893C446.355 870.117 446.482 876.33 446.58 882.112H451.108C450.863 878.897 455.028 876.81 457.752 878.476C461.27 880.652 460.349 886.189 458.183 888.923C456.89 890.55 458.007 893.617 460.437 892.794C464.769 891.324 471.394 889.413 475.255 893.029C477.313 894.989 478.567 900.261 475.255 901.633C472.609 902.721 473.667 907.053 476.46 906.024C483.879 903.299 493.12 907.249 495.649 914.971C498.314 923.203 491.533 932.611 483.144 933.591C480.488 933.905 480.38 938.06 483.144 937.835C494.345 936.962 503.214 925.643 500.323 914.471C497.628 904.064 485.212 897.919 475.255 901.584L476.46 905.975C482.144 903.652 483.154 896.822 480.165 891.833C475.853 884.64 465.925 885.953 459.242 888.276L461.496 892.196C465.582 887.012 466.464 877.594 459.536 874.193C454.126 871.547 445.933 875.595 446.649 882.112C446.962 884.944 451.343 885.052 451.176 882.112C450.882 877.104 450.588 871.91 448.883 867.137C447.609 863.58 445.394 859.003 441.435 857.827C437.848 856.759 434.467 859.229 433.203 862.522C431.498 866.99 433.977 871.43 436.31 875.144C437.368 876.839 440.024 875.311 438.995 873.576H438.926Z" fill="#382C80"/>
<path d="M442.052 925.32C443.748 924.134 445.796 925.055 446.952 926.613C448.217 928.397 448.511 930.769 448.844 932.866C449.177 934.963 452.636 934.169 452.235 931.886C451.666 928.711 450.892 925.232 448.197 923.164C446.021 921.488 442.876 920.969 440.543 922.615C438.946 923.752 440.465 926.408 442.092 925.271L442.052 925.32Z" fill="#382C80"/>
<path d="M229.912 918.597C220.719 916.343 211.027 926.172 214.575 935.335C215.437 937.57 218.955 936.717 218.24 934.355C216.339 927.985 222.16 920.498 229.02 921.841C231.107 922.252 232.009 919.136 229.902 918.626L229.912 918.597Z" fill="#382C80"/>
<path d="M463.181 858.474C464.975 841.373 468.62 824.811 475.216 808.886C481.899 792.775 491.268 778.457 502.283 765.001C503.812 763.139 501.244 760.454 499.588 762.316C476.617 788.012 461.927 824.056 460.261 858.474C460.173 860.375 462.995 860.306 463.201 858.474H463.181Z" fill="#382C80"/>
<path d="M475.902 810.17C480.356 807.198 485.76 806 491.052 806.808L490.004 804.231C486.084 809.709 479.155 811.708 472.785 810.042C470.502 809.444 469.718 812.688 471.805 813.511C479.645 816.559 488.612 812.972 493.012 806.005C493.316 805.46 493.311 804.796 492.999 804.256C492.688 803.716 492.117 803.379 491.493 803.368C485.464 802.698 479.392 804.184 474.353 807.563C472.746 808.641 474.226 811.228 475.882 810.17H475.902Z" fill="#382C80"/>
<path d="M481.733 786.963C480.86 782.671 483.203 778.075 480.566 774.106C479.028 771.657 475.799 770.912 473.344 772.44C466.356 776.909 469.424 789.1 472.236 794.98C473.216 797.077 476.392 795.244 475.372 793.147C473.246 788.796 470.904 780.868 474.059 776.379C476.705 772.597 479.165 776.566 479.292 779.476C479.42 782.387 478.714 784.876 479.292 787.679C479.635 789.247 482.017 788.58 481.693 787.012L481.733 786.963Z" fill="#382C80"/>
<path d="M467.033 835.708C470.56 835.573 473.982 836.928 476.46 839.442V837.041C475.775 837.725 474.789 838.013 473.844 837.806C471.58 837.502 471.609 841.059 473.844 841.353C475.742 841.607 477.637 840.866 478.861 839.393C479.52 838.729 479.52 837.657 478.861 836.992C475.559 834.22 471.341 832.78 467.033 832.955C465.298 833.033 465.288 835.708 467.033 835.659V835.708Z" fill="#382C80"/>
<path d="M459.271 832.729C458.476 827.251 455.843 822.206 451.803 818.421C451.204 817.845 450.257 817.845 449.657 818.421C441.817 825.605 447.246 838.296 457.625 838.345C459.918 838.345 459.908 834.876 457.625 834.787C450.059 834.513 446.845 826.065 451.803 820.568H449.657C453.588 823.783 456.166 828.358 456.88 833.386C457.135 834.964 459.477 834.278 459.261 832.729H459.271Z" fill="#382C80"/>
<path d="M495.453 757.397C494.365 756.017 494.461 754.047 495.678 752.781C497.138 751.164 499.382 751.507 500.99 752.683C504.635 755.358 503.361 760.199 501.137 763.326C499.745 765.286 502.989 767.187 504.351 765.207C508.271 759.582 507.781 750.007 499.647 748.547C493.767 747.567 488.975 754.849 493.444 759.327C494.747 760.65 496.638 758.69 495.453 757.318V757.397Z" fill="#382C80"/>
<path d="M422.766 878.711C415.337 878.936 409.291 886.757 411.006 893.979C411.506 896.067 415.073 895.675 414.838 893.46C414.22 887.717 417.493 883.003 423.197 881.906C425.01 881.553 424.589 878.652 422.766 878.711Z" fill="#382C80"/>
</svg>
