<svg width="1000" height="1000" viewBox="0 0 1000 1000" fill="none" xmlns="http://www.w3.org/2000/svg">
<path d="M444.327 427.205C424.942 428.244 407.41 438.534 390.946 448.824C369.788 462.054 348.747 475.902 331.313 493.747C313.879 511.593 300.149 533.927 296.513 558.623C295.376 566.297 295.249 574.303 297.493 581.693C300.59 591.757 307.783 599.95 314.79 607.81C324.59 618.795 334.439 629.85 346.15 638.719C357.597 647.363 370.582 653.732 383.831 659.23C434.732 680.33 491.19 688.934 545.698 680.869C600.205 672.803 652.518 647.666 690.738 607.966C703.84 594.491 715.395 578.9 719.961 560.76C725.9 537.171 719.168 511.878 707.221 490.66C675.342 433.82 606.458 402.46 541.601 408.938" fill="#7F72FF"/>
<path d="M444.327 423.344C426.314 424.432 410.321 431.909 395.072 441.092C379.823 450.275 364.898 459.82 350.844 470.6C324.228 491.023 300.188 517.944 292.926 551.636C291.064 560.28 290.192 569.276 291.682 577.988C293.142 586.583 297.425 594.168 302.687 600.999C308.185 608.143 314.388 614.817 320.504 621.432C326.731 628.339 333.48 634.757 340.692 640.63C354.706 651.743 370.856 659.387 387.408 665.953C404.565 672.774 422.268 678.13 440.328 681.966C508.713 696.421 581.448 687.934 642.208 652.262C656.291 644.01 669.512 634.367 681.673 623.48C694.236 612.21 706.173 599.519 714.807 584.936C723.648 570.359 727.775 553.408 726.625 536.397C725.332 518.757 719.138 501.695 710.299 486.466C680.556 435.212 621.883 404.999 563.504 403.313C556.223 403.115 548.937 403.384 541.69 404.117C535.584 404.724 535.516 414.338 541.69 413.74C596.707 408.497 654.389 429.93 689.669 473.099C708.878 496.57 723.254 529.468 715.277 560.084C711.19 575.764 701.616 589.346 690.777 601.116C680.205 612.501 668.491 622.77 655.82 631.761C602.646 669.618 536.358 684.22 471.874 677.096C437.761 673.323 403.392 663.836 372.502 648.783C357.135 641.293 343.229 631.118 331.44 618.737C325.56 612.602 319.808 606.242 314.251 599.774C309.018 593.688 304.01 587.034 301.854 579.194C297.679 563.974 303.011 546.07 309.596 532.271C316.397 518.032 326.06 505.409 337.262 494.355C349.345 482.438 363.036 472.354 377.157 462.995C390.995 453.822 405.146 444.189 420.405 437.515C428.059 434.173 435.967 431.635 444.327 431.076C449.227 430.743 449.305 423.06 444.327 423.364V423.344Z" fill="#382C80"/>
<path d="M545.364 696.519C547.456 717.665 545.321 739.015 539.082 759.328C534.545 774.086 525.813 789.894 510.662 793.02C495.962 796.068 481.752 785.543 473.06 773.332C461.711 757.397 455.998 737.072 459.438 717.825C462.877 698.577 476.098 680.849 494.326 673.842" fill="#382C80"/>
<path d="M541.729 696.519C543.264 716.18 541.185 735.956 535.594 754.868C531.674 767.834 524.814 784.102 510.252 787.63C494.709 791.393 480.969 776.438 473.992 764.492C465.622 750.164 461.653 732.583 465.475 716.217C469.229 700.145 480.293 685.416 495.855 679.154C498.599 678.046 500.569 675.479 499.697 672.382C498.962 669.746 495.728 667.482 492.935 668.54C475.883 675.175 463.182 689.12 456.9 706.231C450.04 724.949 452.667 745.96 461.065 763.718C468.905 780.378 483.723 797.41 503.284 798.89C522.276 800.311 534.644 784.19 540.965 768.324C549.785 746.019 551.745 720.176 549.03 696.519C548.511 691.972 541.406 691.776 541.759 696.519H541.729Z" fill="#382C80"/>
<path d="M252.677 537.083C248.258 566.993 259.439 597.52 276.903 622.196C305.441 662.552 349.668 689.463 395.914 706.917C432.948 720.892 471.678 729.457 510.172 738.277C537.995 744.657 563.034 743.246 585.711 763.051C597.588 773.43 607.957 785.591 620.883 794.647C623.823 796.724 627.204 798.704 630.82 798.567C635.955 798.292 640.003 793.5 640.895 788.433C641.786 783.367 640.14 778.104 638.043 773.42C631.183 758.328 619.099 746.656 610.24 732.828C601.812 719.696 601.489 704.193 594.56 691.384C591.777 686.21 585.211 684.7 579.458 683.544C544.853 676.234 512.527 660.671 485.231 638.18C469.022 624.813 454.851 609.162 438.564 595.854C404.862 568.257 363.702 551.695 323.237 535.535" fill="white"/>
<path d="M249.689 536.26C240.751 598.529 289.349 652.635 338.565 683.152C365.074 699.597 394.18 711.366 423.903 720.559C440.622 725.723 457.557 730.114 474.56 734.22C490.71 738.14 506.9 742.276 523.285 745.088C537.005 747.44 551.166 749.106 564.102 754.555C578.802 760.749 589.357 772.479 600.656 783.318C606.222 788.845 612.215 793.924 618.58 798.508C624.549 802.653 631.859 804.956 638.318 800.419C652.684 790.325 642.914 770.745 635.544 759.563C627.244 746.96 615.356 735.915 609.858 721.656C607.056 714.375 605.537 706.702 602.998 699.322C600.725 692.58 598.098 685.602 591.385 682.251C585.192 679.124 577.91 678.409 571.246 676.684C563.799 674.764 556.458 672.451 549.255 669.756C534.468 664.197 520.336 657.029 507.115 648.382C479.42 630.301 458.507 604.282 431.998 584.741C406.116 565.562 376.52 551.989 346.719 539.847C339.339 536.838 331.901 533.967 324.473 531.086C322.121 530.174 319.416 532.066 318.779 534.32C318.024 536.966 319.71 539.063 322.013 540.013C350.697 551.773 379.676 563.367 406.352 579.321C419.602 587.2 432.071 596.322 443.592 606.565C455.499 617.208 466.622 628.713 478.774 639.082C501.712 658.669 528.344 673.461 557.095 682.584C564.043 684.779 571.099 686.592 578.224 688.111C581.108 688.577 583.93 689.373 586.632 690.483C589.876 692.041 591.15 694.765 592.512 697.98C595.247 704.585 596.707 711.641 598.824 718.442C600.994 725.662 604.27 732.502 608.535 738.718C616.846 750.704 627.214 761.405 633.565 774.674C636.005 779.77 639.562 790.452 632.173 793.559C629.233 794.813 626.068 792.657 623.686 791.05C620.423 788.803 617.297 786.362 614.327 783.739C602.891 773.812 592.993 761.797 580.292 753.359C569.11 745.951 556.174 742.187 543.052 739.796C528.636 737.17 514.289 734.847 499.932 731.613C483.762 727.948 467.592 724.253 451.53 720.088C421.15 712.19 390.975 702.566 362.859 688.376C337.908 675.783 314.457 659.74 295.18 639.268C274.894 617.6 258.45 590.16 255.363 560.133C254.58 552.738 254.686 545.276 255.677 537.906C256.216 533.986 250.257 532.311 249.689 536.26Z" fill="#382C80"/>
<path d="M332.744 527.969C382.479 543.581 425.119 571.854 460.987 609.682C464.544 613.425 525.745 671.814 529.587 666.522C529.587 666.522 479.763 734.289 492.043 791.197C491.915 790.58 458.958 786.013 455.93 785.317C441.439 781.833 427.19 777.413 413.27 772.087C382.136 760.249 352.256 744.363 325.805 724.067C302.628 706.261 281.862 684.72 267.358 659.191C250.698 629.909 237.899 594.129 239.556 560.211C240.134 548.5 242.241 536.76 246.964 526.029C255.01 507.732 270.337 493.267 287.821 483.565C305.304 473.863 324.904 468.571 344.582 465.063C390.206 456.955 436.98 457.914 482.233 467.885" fill="#7F72FF"/>
<path d="M331.92 530.958C377.852 545.599 418.905 571.952 452.734 606.144C469.914 623.519 487.691 640.385 506.458 656.065C511.256 660.257 516.316 664.139 521.609 667.688C524.372 669.452 529.449 672.519 532.281 669.207L526.401 664.65C520.227 673.199 514.679 682.183 509.8 691.531C499.588 710.651 491.18 731.28 487.71 752.762C485.574 765.923 485.329 779.222 488.044 792.324L494.982 788.287C492.738 785.748 486.289 785.856 483.31 785.347C476.862 784.318 470.404 783.387 463.955 782.358C445.541 779.496 427.509 773.097 410.241 766.256C368.17 749.596 327.794 725.155 297.032 691.619C282.295 675.371 270.226 656.891 261.272 636.867C251.824 616.13 245.072 593.512 244.298 570.619C243.543 548.353 248.561 526.078 263.496 508.987C277.628 492.826 296.973 482.654 317.269 476.411C340.142 469.385 364.309 466.102 388.172 464.887C413.11 463.656 438.109 465.01 462.769 468.924C468.872 469.885 474.948 471.005 480.997 472.286C486.799 473.501 489.288 464.691 483.457 463.358C433.447 451.968 381.538 451.764 331.44 462.76C309.076 467.719 287.222 475.931 269.18 490.357C251.638 504.371 239.849 523.677 236.291 545.972C232.548 569.394 235.821 593.306 243.004 615.767C249.966 637.92 260.338 658.853 273.747 677.811C300.922 715.629 340.514 743.726 382.213 763.561C404.635 774.335 428.096 782.794 452.234 788.806C463.436 791.55 475.147 792.412 486.534 794.333C487.514 794.5 488.494 794.715 489.474 794.853C491.199 795.098 490.709 795.901 489.19 794.206C492.13 797.489 496.932 793.951 496.129 790.158C491.483 768.206 496.129 745.363 503.586 724.567C509.656 708.013 517.513 692.171 527.018 677.321C528.9 674.381 530.83 671.343 532.898 668.501C535.397 665.071 529.762 660.661 527.018 663.944C527.783 663.052 528.753 663.435 529.321 663.258C529.047 663.236 528.781 663.159 528.537 663.033C528.184 662.817 529.086 663.327 528.253 662.905C526.6 662.036 525.008 661.054 523.49 659.965C518.943 656.849 514.67 653.341 510.427 649.822C499.647 640.865 489.288 631.457 479.067 621.951C471.923 615.336 465.014 608.574 458.144 601.685C441.826 585.225 423.778 570.577 404.312 557.996C382.341 543.892 358.581 532.791 333.664 524.99C329.852 523.794 328.225 529.772 332.018 530.978L331.92 530.958Z" fill="#382C80"/>
<path d="M418.66 628.87C410.239 648.378 405.775 669.364 405.528 690.61C405.361 706.045 408.87 723.763 422.315 731.339C435.359 738.708 452.127 733.015 464.122 724.028C479.802 712.268 491.405 694.697 493.993 675.302C496.58 655.908 489.406 635.024 474.148 622.794" fill="#382C80"/>
<path d="M415.485 627.027C406.295 647.168 401.294 668.967 400.785 691.1C400.472 707.544 404.245 727.634 420.023 736.248C438.035 746.048 459.223 736.072 473.129 723.753C487.368 711.16 497.266 693.716 499.589 674.753C502.058 654.242 494.228 632.016 478.029 618.893C475.696 617.012 472.531 616.659 470.248 618.893C468.288 620.853 467.964 624.773 470.248 626.665C482.209 636.761 489.064 651.653 488.956 667.305C488.956 683.368 481.743 698.822 470.904 710.425C460.83 721.205 444.444 732.907 428.764 728.242C414.378 723.949 410.673 706.584 410.213 693.54C409.448 671.794 414.015 649.901 422.139 629.781C423.668 625.989 417.181 623.225 415.485 626.978V627.027Z" fill="#382C80"/>
<path d="M745.98 566.072C741.08 595.903 721.146 621.579 696.98 639.778C657.505 669.54 607.182 681.702 557.82 684.24C518.296 686.288 478.802 682.623 439.445 679.34C411.025 676.939 387.584 667.982 359.958 679.938C345.483 686.21 331.9 694.638 316.838 699.342C313.378 700.42 309.576 701.302 306.185 699.999C301.383 698.176 298.982 692.374 299.678 687.259C300.374 682.143 303.47 677.723 306.93 673.921C318.102 661.651 333.125 654.193 345.777 643.717C357.792 633.77 362.819 619.1 373.286 608.996C377.509 604.909 384.222 605.478 390.063 606.056C425.257 609.647 460.797 604.681 493.659 591.581C513.161 583.741 531.458 573.196 550.989 565.464C591.492 549.422 635.749 546.178 679.202 543.11" fill="white"/>
<path d="M742.952 565.248C733.093 622.343 675.332 656.761 623.774 670.569C594.688 678.409 564.573 681.016 534.536 680.937C517.591 680.937 500.667 680.026 483.772 678.801C467.063 677.595 450.256 676.468 433.615 674.528C419.258 672.852 404.999 669.628 390.495 669.53C383.186 669.454 375.9 670.35 368.827 672.196C361.321 674.156 354.255 677.586 347.267 681.016C340.28 684.446 333.547 687.954 326.491 690.972C322.951 692.516 319.329 693.867 315.643 695.02C312.703 695.892 308.783 697.186 306.264 694.765C301.247 689.934 305.882 682.201 309.41 678.105C314.265 672.759 319.736 668.006 325.707 663.944C337.291 655.692 349.688 648.499 358.449 637.043C362.497 631.751 365.887 626.018 369.729 620.589C371.472 618.094 373.402 615.736 375.501 613.533C377.873 611.093 380.342 610.465 383.704 610.456C391.015 610.456 398.355 611.7 405.675 611.935C413.496 612.179 421.324 612.006 429.127 611.416C444.743 610.249 460.196 607.46 475.236 603.096C505.841 594.158 532.713 576.528 562.799 566.346C592.689 556.222 624.137 552.42 655.448 549.754C663.366 549.101 671.285 548.448 679.203 547.794C685.083 547.324 685.191 538.171 679.203 538.533C646.285 540.542 613.141 542.992 581.027 550.921C564.776 554.992 548.955 560.617 533.781 567.718C518.591 574.744 503.813 582.722 488.123 588.621C457.471 600.12 424.614 604.532 392.014 601.528C385.35 600.901 377.941 599.95 372.061 603.948C366.613 607.653 362.644 614.042 359.057 619.432C355.137 625.312 351.511 631.359 346.64 636.475C341.456 641.923 335.027 646.108 328.873 650.361C317.377 658.28 302.864 667.178 296.974 680.457C294.21 686.68 294.22 694.01 298.473 699.577C303.324 705.917 310.998 705.859 318.073 703.703C333.381 699.008 347.013 690.335 361.624 683.995C376.236 677.654 391.593 677.38 407.136 679.34C414.917 680.32 422.649 681.623 430.42 682.584C438.79 683.632 447.218 684.181 455.616 684.857C473.256 686.288 490.808 687.601 508.438 688.287C540.955 689.542 573.667 688.542 605.664 682.221C660.75 671.353 721.304 641.865 743.413 586.681C745.956 580.303 747.802 573.669 748.92 566.895C749.577 562.975 743.619 561.309 742.933 565.248H742.952Z" fill="#382C80"/>
<path d="M672.48 533.016C620.354 532.752 571.129 546.736 525.48 571.824C520.953 574.313 444.885 611.308 442.788 605.144C442.788 605.144 469.62 684.857 440.603 735.327C440.916 734.779 473.697 740.463 476.804 740.698C491.666 741.79 506.584 741.918 521.462 741.08C554.724 739.277 588.024 733.24 619.404 721.941C646.902 712.033 673.235 697.833 694.864 677.929C719.628 655.105 742.727 624.921 751.468 592.091C754.487 580.762 756.045 568.933 754.82 557.281C752.723 537.397 742.531 518.953 728.83 504.361C715.13 489.769 697.96 478.783 680.32 469.453C639.33 447.845 594.484 434.525 548.344 430.253" fill="#7F72FF"/>
<path d="M672.48 529.919C624.205 529.665 576.881 541.777 533.869 563.465C512.965 574.01 492.013 584.319 470.365 593.306C464.338 595.805 458.262 598.265 452.039 600.264C449.999 600.94 447.921 601.497 445.816 601.93C445.179 602.057 445.022 602.067 445.384 602.008C445.11 602.008 444.689 601.94 444.453 602.008C443.934 602.243 444.865 602.322 444.551 602.008C445.169 602.557 445.688 602.371 446.384 604.027C444.581 599.705 437.564 601.312 439.132 605.987C442.143 615.431 444.5 625.071 446.188 634.838C449.951 655.301 451.627 676.694 448.648 697.362C446.845 709.847 443.258 722.078 436.986 733.073C434.947 736.66 439.054 740.913 442.67 738.757C441.072 739.737 440.357 739.032 442.17 739.394C443.317 739.63 443.248 739.532 444.551 739.718C447.57 740.159 450.578 740.639 453.587 741.129C459.879 742.109 466.16 743.216 472.452 744.177C481.468 745.549 490.7 745.666 499.794 745.735C512.883 745.82 525.967 745.222 538.994 743.942C586.72 739.267 635.642 726.066 675.684 698.862C694.413 685.953 711.033 670.228 724.959 652.243C738.875 634.485 750.498 614.513 756.25 592.561C762.434 568.963 760.729 545.188 748.949 523.638C738.081 503.734 720.794 488.358 701.909 476.196C681.8 463.289 659.71 453.136 637.229 445.012C614.293 436.649 590.526 430.769 566.336 427.47C560.351 426.667 554.351 426.013 548.333 425.51C542.365 425.001 542.453 434.164 548.333 434.771C595.04 439.563 640.953 453.283 682.172 475.853C701.37 486.368 720.147 499.255 733.25 517.101C746.813 535.564 752.977 557.281 749.077 580.086C745.343 601.851 735.357 621.863 722.538 639.689C709.819 657.563 694.411 673.361 676.86 686.523C639.199 714.306 592.394 728.761 546.344 734.396C523.265 737.219 499.137 738.689 475.951 736.229C477.117 736.356 474.716 736.043 474.226 735.974L470.306 735.376L460.908 733.887C454.969 732.907 449.01 731.927 443.032 731.211C441.474 731.015 439.867 730.741 438.426 731.594L444.11 737.278C455.557 716.982 458.654 693.109 457.889 670.128C457.161 651.439 454.344 632.89 449.491 614.827C448.511 611.201 447.531 607.555 446.335 604.047L439.475 606.987C442.366 613.788 458.291 606.007 462.25 604.429C475.186 599.421 487.838 593.649 500.402 587.769C509.133 583.692 517.934 579.645 526.47 575.176C546.687 564.582 567.071 555.105 588.974 548.451C616.049 540.244 644.189 536.09 672.48 536.123C676.468 536.123 676.478 529.939 672.48 529.919Z" fill="#382C80"/>
<path d="M791.314 400.481C794.186 400.481 794.196 396.022 791.314 396.022C788.433 396.022 788.443 400.481 791.314 400.481Z" fill="#382C80"/>
<path d="M504.312 241.456C542.395 237.615 580.096 255.647 608.242 281.587C636.387 307.528 656.497 340.828 675.861 373.825C677.822 377.167 679.899 380.626 683.163 382.704C685.838 384.389 689.042 384.977 692.149 385.516C718.957 390.103 746.008 393.14 773.166 394.611C786.742 395.349 800.331 395.692 813.934 395.64C826.321 395.591 833.279 391.857 844.686 387.398C849.037 385.556 853.539 384.094 858.142 383.027C860.556 382.371 863.108 382.426 865.491 383.184C869.059 384.595 871.107 388.584 871.176 392.416C871.244 396.247 869.676 399.932 867.765 403.254C866.217 405.949 864.394 408.556 863.59 411.565C861.072 420.934 873.577 426.882 881.358 426.471C888.933 426.069 895.656 419.14 891.158 411.643C889.07 408.213 885.15 406.361 882.406 403.431C879.928 400.753 878.489 397.277 878.349 393.631C878.248 392.281 878.505 390.929 879.094 389.711C880.878 386.447 885.474 386.163 889.119 386.937C899.654 389.191 908.719 396.953 913.12 406.773C917.43 416.787 917.543 428.112 913.433 438.211C911.747 442.415 909.386 446.482 909.072 450.951C909.072 451.451 912.806 446.531 912.992 446.355C914.425 444.749 916.122 443.4 918.01 442.366C923.093 439.099 928.208 435.859 933.357 432.645C936.561 430.685 939.942 428.636 943.705 428.382C947.469 428.127 951.673 430.342 952.388 434.007C952.996 437.182 950.967 440.22 948.909 442.719C941.162 452.142 931.652 459.965 920.91 465.749C928.972 457.661 939.169 452.036 950.31 449.53C952.433 448.907 954.679 448.832 956.837 449.314C958.944 449.942 960.826 451.833 960.757 454.028C960.553 455.608 959.849 457.081 958.748 458.232C949.886 469.383 938.332 478.094 925.173 483.546C932.37 478.664 940.357 475.067 948.782 472.913C952.378 471.992 956.759 471.551 959.297 474.265C961.502 476.617 961.257 480.508 959.532 483.232C957.807 485.957 954.975 487.74 952.163 489.298C933.258 499.706 911.65 503.567 891.021 508.663C869.461 514.004 652.057 539.553 525.647 382.302" fill="white"/>
<path d="M504.312 244.72C545.54 241.25 584.407 262.712 612.514 291.417C627.547 306.763 640.15 324.247 651.714 342.298C657.456 351.265 662.935 360.389 668.374 369.552C670.902 373.844 673.205 378.372 676.37 382.292C679.732 386.379 684.21 388.437 689.297 389.426C712.513 393.944 736.337 396.453 759.857 398.178C771.773 399.047 783.71 399.618 795.666 399.893C806.446 400.138 817.775 401.069 828.349 398.286C838.335 395.649 847.459 390.387 857.514 387.947C861.816 386.898 866.255 386.967 866.481 392.445C866.706 397.923 862.345 402.323 860.238 406.978C852.623 423.824 875.438 436.555 889.383 429.126C893.365 427.153 896.192 423.428 897.02 419.061C897.848 414.695 896.581 410.194 893.597 406.9C890.657 403.391 885.757 401.441 883.944 396.982C883.523 395.953 882.543 393.141 883.307 392.082C884.072 391.024 886.737 391.435 887.805 391.631C907.797 395.228 915.51 418.503 909.14 435.8C907.239 440.965 904.789 445.443 904.181 450.99C903.926 453.264 905.906 454.969 907.758 455.694H907.817C909.493 456.351 911.296 455.488 912.56 454.44C913.822 453.211 914.952 451.855 915.931 450.392C916.51 449.638 917.333 448.775 916.372 449.824C916.92 449.18 917.527 448.59 918.185 448.06C919.616 446.962 921.233 446.1 922.752 445.12C926.672 442.598 930.592 440.106 934.512 437.642C937.393 435.859 941.215 432.821 944.832 433.34C948.869 433.928 947.066 437.074 945.341 439.318C942.945 442.331 940.324 445.158 937.501 447.776C931.749 453.199 925.315 457.85 918.362 461.613L924.242 469.238C928.954 464.532 934.449 460.682 940.48 457.86C943.488 456.498 946.614 455.416 949.82 454.626C951.429 454.061 953.135 453.822 954.837 453.92C954.749 453.92 956.013 454.234 955.817 454.018C955.817 453.969 954.779 455.429 954.504 455.772C946.292 466.307 934.904 474.275 922.674 479.439L927.505 487.711C932.977 483.993 938.932 481.042 945.204 478.94C947.34 478.234 959.326 474.471 955.327 480.9C953.965 483.085 951.3 484.369 949.114 485.564C946.174 487.172 943.126 488.642 940.039 489.955C933.823 492.514 927.45 494.674 920.959 496.423C908.503 499.921 895.734 503.401 882.915 505.37L880.955 505.654L879.838 505.811C881.014 505.645 880.063 505.811 879.485 505.811C877.8 506.027 876.114 506.233 874.419 506.419C870.185 506.876 865.938 507.255 861.679 507.556C850.732 508.34 839.746 508.683 828.77 508.643C799.079 508.611 769.458 505.786 740.296 500.206C704.663 493.346 669.736 482.174 637.308 465.847C600.383 447.389 567.279 422.119 539.739 391.367C536.083 387.27 532.546 383.066 529.096 378.793C525.107 373.893 518.169 380.871 522.118 385.771C549.966 420.175 584.395 448.681 623.392 469.62C657.554 488.034 694.638 500.794 732.622 508.555C763.986 514.931 795.903 518.184 827.908 518.267C847.341 518.336 866.98 517.503 886.198 514.435C888.158 514.122 890.206 513.759 892.196 513.298C905.298 510.26 918.538 507.36 931.347 503.204C937.933 501.105 944.357 498.524 950.565 495.482C956.023 492.777 962.06 489.602 964.51 483.722C966.852 478.048 965.029 471.256 959.189 468.65C953.348 466.043 946.527 468.375 940.912 470.365C934.482 472.636 928.359 475.697 922.684 479.479C918.46 482.281 921.086 490.455 926.368 488.23C935.145 484.598 943.312 479.64 950.584 473.53C954.042 470.611 957.258 467.415 960.198 463.975C963.236 460.418 966.548 456.449 965.098 451.451C962.021 440.896 948.438 444.522 941.078 447.266C932.211 450.575 924.145 455.726 917.411 462.378C913.423 466.298 918.489 472.628 923.291 470.002C933.317 464.534 971.742 438.642 951.966 425.824C942.293 419.552 931.778 427.852 923.722 432.948C919.263 435.771 913.922 438.377 910.179 442.16C909.418 442.94 908.732 443.79 908.131 444.698C907.404 445.741 906.577 446.709 905.661 447.589L910.404 446.335H910.345L913.922 451.029C914.501 445.825 917.842 441.131 919.303 436.163C920.828 431.15 921.491 425.914 921.263 420.679C920.867 410.539 916.831 400.881 909.895 393.474C903.897 387.153 894.744 381.714 885.787 381.763C881.279 381.763 876.849 383.605 874.713 387.76C872.478 392.082 873.537 397.658 875.536 401.872C877.741 406.518 881.661 408.879 885.336 412.241C888.452 415.122 888.687 418.777 884.601 420.806C879.956 423.109 869.901 420.688 868.323 415.083C867.265 411.163 871.606 406.714 873.223 403.431C875.477 398.785 876.878 393.474 875.448 388.358C874.318 383.954 871.126 380.368 866.882 378.735C861.718 376.951 855.838 378.656 850.859 380.322C841.157 383.566 832.004 388.74 821.861 390.593C816.314 391.573 810.542 391.298 804.937 391.259C798.841 391.259 792.745 391.083 786.66 390.867C761.981 390.021 737.364 387.862 712.915 384.399C706.878 383.537 700.854 382.602 694.843 381.596C689.248 380.616 684.887 379.685 681.574 374.687C675.694 365.73 670.588 356.146 664.914 347.022C653.34 328.5 640.963 310.438 626.42 294.2C599.048 263.692 561.661 239.124 519.6 237.605C514.504 237.428 509.401 237.615 504.331 238.163C500.215 238.595 500.098 245.023 504.331 244.7L504.312 244.72Z" fill="#382C80"/>
<path d="M869.244 473.021C872.351 463.475 874.389 454.136 873.929 444.022C873.624 434.093 871.289 424.331 867.069 415.338C864.844 410.81 857.014 414.005 858.817 418.817C865.06 435.418 868.323 453.979 863.717 471.502C862.737 475.088 868.107 476.519 869.244 473.021Z" fill="#382C80"/>
<path d="M208.686 400.481C211.557 400.481 211.557 396.022 208.686 396.022C205.814 396.022 205.804 400.481 208.686 400.481Z" fill="#382C80"/>
<path d="M495.688 241.456C457.605 237.615 419.895 255.647 391.808 281.587C363.721 307.528 343.553 340.828 324.188 373.825C322.228 377.167 320.15 380.626 316.877 382.704C314.212 384.389 310.997 384.977 307.891 385.516C281.086 390.104 254.039 393.14 226.884 394.611C213.308 395.349 199.718 395.692 186.116 395.64C173.729 395.591 166.771 391.857 155.363 387.398C151.013 385.556 146.511 384.094 141.908 383.027C139.494 382.371 136.942 382.426 134.558 383.184C130.991 384.595 128.943 388.584 128.874 392.416C128.805 396.247 130.373 399.932 132.284 403.254C133.833 405.949 135.656 408.556 136.459 411.565C138.978 420.934 126.473 426.882 118.692 426.471C111.116 426.069 104.394 419.14 108.892 411.643C110.979 408.213 114.899 406.361 117.643 403.431C120.122 400.753 121.561 397.277 121.7 393.631C121.802 392.281 121.545 390.929 120.956 389.711C119.172 386.447 114.576 386.163 110.93 386.937C100.395 389.191 91.3302 396.953 86.93 406.773C82.6197 416.787 82.5068 428.112 86.6164 438.211C88.302 442.415 90.6638 446.482 90.9774 450.951C90.9774 451.451 87.2436 446.531 87.1064 446.355C85.6736 444.749 83.9766 443.4 82.0888 442.366C77.0059 439.099 71.8903 435.859 66.742 432.645C63.5374 430.685 60.1564 428.636 56.3932 428.382C52.63 428.127 48.4258 430.342 47.7104 434.007C47.1028 437.182 49.1314 440.22 51.1894 442.719C58.9367 452.142 68.447 459.965 79.188 465.749C71.1265 457.661 60.929 452.036 49.788 449.53C47.6657 448.907 45.42 448.833 43.2612 449.314C41.1542 449.942 39.2628 451.833 39.3412 454.028C39.5324 455.602 40.2187 457.074 41.3012 458.232C50.1633 469.383 61.7176 478.094 74.876 483.546C67.6798 478.664 59.6923 475.067 51.2678 472.913C47.6712 471.992 43.2906 471.551 40.7524 474.265C38.5474 476.617 38.7924 480.508 40.5172 483.232C42.242 485.957 45.0742 487.74 47.8868 489.298C66.742 499.706 88.4 503.567 108.98 508.663C130.609 514.004 347.963 539.553 474.373 382.302" fill="white"/>
<path d="M495.688 238.183C454.009 233.783 414.113 254.255 384.801 282.567C369.121 297.679 355.891 315.123 343.945 333.253C337.977 342.308 332.302 351.569 326.736 360.889C324.012 365.456 321.473 370.199 318.543 374.609C315.211 379.626 310.889 380.567 305.274 381.518C280.92 385.616 256.366 388.416 231.715 389.907C219.553 390.652 207.362 391.112 195.181 391.181C189.575 391.181 183.793 391.524 178.256 390.514C173.492 389.535 168.839 388.073 164.37 386.153C159.352 384.135 154.383 381.959 149.258 380.273C144.28 378.598 138.4 376.902 133.235 378.686C122.71 382.322 122.857 395.042 126.885 403.382C128.462 406.645 132.765 411.163 131.785 415.034C131.03 417.798 127.649 419.591 125.189 420.532C121.985 421.737 118.202 422.325 115.105 420.532C111.352 418.356 111.802 414.946 114.772 412.202C118.398 408.85 122.318 406.469 124.572 401.833C126.532 397.619 127.629 392.033 125.395 387.721C120.72 378.617 108.461 381.734 101.189 385.301C82.569 394.395 74.9446 416.867 80.7756 436.124C82.2848 441.092 85.5776 445.777 86.146 450.99L89.7328 446.296H89.674L94.4172 447.55C93.4983 446.673 92.6708 445.704 91.9476 444.659C91.3112 443.773 90.5997 442.944 89.821 442.18C86.0872 438.387 80.7364 435.79 76.2774 432.968C68.2218 427.872 57.7064 419.571 48.0338 425.843C28.2574 438.662 66.6538 464.553 76.7086 470.022C81.4714 472.619 86.6066 466.357 82.5886 462.397C75.8553 455.745 67.7893 450.595 58.9216 447.286C51.5912 444.542 37.979 440.916 34.9018 451.47C33.5102 456.263 36.509 460.085 39.4196 463.544C42.4642 467.151 45.808 470.495 49.4156 473.54C56.6879 479.65 64.8549 484.608 73.6314 488.24C78.8646 490.445 81.5792 482.36 77.3162 479.489C71.4688 475.59 65.1451 472.457 58.5002 470.169C52.924 468.209 46.015 466.014 40.3604 468.855C34.7058 471.697 33.2358 478.234 35.4604 483.732C37.9692 489.857 44.349 493.052 49.9742 495.806C62.479 501.862 75.8854 505.625 89.38 508.879C96.3576 510.574 103.335 512.485 110.391 513.828C127.473 517.101 145.201 517.914 162.547 518.199C193.347 518.698 224.125 516.286 254.471 510.996C292.015 504.449 328.784 493.179 363.114 476.539C402.279 457.679 437.404 431.385 466.533 399.119C470.453 394.768 474.236 390.315 477.881 385.761C481.801 380.861 474.892 373.845 470.904 378.784C444.533 411.473 412.095 438.76 375.373 459.144C343.033 477.088 308.018 489.641 272.003 497.658C242.001 504.269 211.422 507.912 180.706 508.536C160.553 509.11 140.386 508.197 120.368 505.802C118.731 505.596 120.877 505.89 119.192 505.645L116.987 505.321C115.85 505.145 114.713 504.959 113.586 504.753C108.363 503.773 103.218 502.372 98.053 501.156C84.9602 498.04 71.74 495.002 59.3626 489.661C56.6676 488.495 54.0216 487.211 51.4344 485.829C49.0432 484.545 45.7896 483.095 44.4764 480.557C41.213 474.255 53.2964 478.43 55.374 479.136C61.4324 481.223 67.1864 484.107 72.4848 487.711L77.3162 479.42C65.0858 474.255 53.6982 466.288 45.4858 455.753C45.2506 455.449 44.0452 454.214 44.1432 453.793C44.0452 454.205 44.3294 454.067 44.5352 453.94C45.7504 453.185 48.3768 454.116 49.6312 454.42C52.8468 455.208 55.983 456.291 59 457.654C65.2317 460.472 70.905 464.389 75.7482 469.218L81.6282 461.594C74.8498 457.927 68.5637 453.416 62.92 448.168C59.9222 445.436 57.1466 442.471 54.6194 439.299C52.875 437.045 51.0816 433.909 55.129 433.321C58.755 432.801 62.5574 435.83 65.4484 437.623C69.1985 439.962 72.9388 442.327 76.6694 444.718C78.2668 445.747 79.9426 446.678 81.4812 447.825C82.1272 448.308 82.7304 448.846 83.2844 449.432C83.8038 450.03 83.7646 449.961 83.1766 449.226L83.9312 450.206C84.9448 451.737 86.1139 453.159 87.42 454.45C88.6842 455.498 90.4874 456.41 92.1632 455.704H92.222C94.0546 454.979 96.044 453.244 95.799 451C95.1914 445.453 92.7414 440.975 90.8402 435.81C89.104 431.157 88.295 426.21 88.4588 421.247C88.7118 411.826 93.0993 402.993 100.454 397.1C103.878 394.353 107.911 392.468 112.214 391.602C113.194 391.416 115.869 390.965 116.683 391.965C117.496 392.964 116.487 395.963 116.075 396.973C114.252 401.432 109.411 403.382 106.422 406.89C103.336 410.278 102.032 414.925 102.904 419.424C106.824 437.064 134.93 433.144 140.556 418.866C142.133 414.858 141.536 410.791 139.772 406.929C137.665 402.284 133.313 397.815 133.529 392.396C133.97 381.371 152.962 391.328 158.176 393.376C167.29 397.1 176.1 400.04 186.037 400.04C197.984 400.138 209.959 399.775 221.886 399.207C245.697 398.076 269.436 395.751 293.014 392.239C298.894 391.367 304.862 390.505 310.733 389.358C315.838 388.378 320.297 386.31 323.659 382.224C326.824 378.362 329.127 373.805 331.656 369.484C334.406 364.819 337.189 360.164 340.005 355.519C351.05 337.359 362.771 319.474 376.589 303.285C402.764 272.62 438.936 246.827 480.469 244.416C485.557 244.137 490.659 244.215 495.737 244.651C499.961 245.014 499.863 238.546 495.737 238.115L495.688 238.183Z" fill="#382C80"/>
<path d="M136.282 471.501C131.725 453.979 134.988 435.418 141.182 418.817C142.966 414.054 135.175 410.761 132.93 415.338C128.72 424.334 126.386 434.094 126.07 444.022C125.59 454.136 127.648 463.475 130.755 473.02C131.892 476.519 137.223 475.098 136.282 471.501Z" fill="#382C80"/>
<path d="M462.76 130.461C455.175 131.667 449.099 137.88 446.159 144.975C443.219 152.07 442.954 159.979 443.219 167.652C443.813 184.089 446.72 200.36 451.852 215.986C462.525 209.469 474.824 205.921 487.24 204.363C499.657 202.805 512.23 203.197 524.706 204.108C526.023 204.323 527.374 204.191 528.626 203.726C530.586 202.746 531.379 200.443 531.948 198.336C537.132 179.02 540.64 159.969 532.242 140.928C530.919 137.555 528.918 134.489 526.362 131.921C524.79 130.523 523.048 129.328 521.178 128.364C507.557 121.119 491.396 120.399 477.185 126.404" fill="#382C80"/>
<path d="M462.76 126.904C454.979 126.453 448.579 131.716 444.365 137.831C439.465 144.956 438.211 154.05 438.103 162.517C437.858 181.079 441.347 199.757 446.815 217.397C447.268 218.951 448.405 220.213 449.904 220.824C451.403 221.435 453.098 221.328 454.508 220.533C467.464 213.007 482.076 209.626 496.942 208.832C504.814 208.473 512.699 208.564 520.56 209.107C523.902 209.312 527.499 209.979 530.654 208.558C533.81 207.137 535.554 204.295 536.603 201.129C538.894 193.996 540.508 186.663 541.424 179.226C542.565 172.027 542.753 164.709 541.983 157.461C541.136 149.836 538.922 142.426 535.446 135.587C531.977 128.933 526.391 124.807 519.619 121.808C505.217 115.585 488.883 115.585 474.481 121.808C468.983 124.141 472.981 133.862 478.587 131.608C489.28 127.075 501.259 126.598 512.279 130.266C518.238 132.284 523.422 135.224 526.43 140.918C529.405 146.678 531.229 152.963 531.801 159.421C532.977 172.161 530.36 185.263 526.754 197.474C526.381 198.738 525.588 199.267 526.754 198.983C525.421 199.316 523.314 198.817 521.981 198.728C518.512 198.503 515.033 198.317 511.564 198.219C504.371 197.952 497.169 198.158 490.004 198.836C475.686 200.287 461.584 203.942 449.206 211.576L456.899 214.702C451.784 199.551 448.882 183.741 448.285 167.76C448.011 160.538 448.07 152.894 451.117 146.2C453.861 140.164 458.624 136.4 464.534 133.656C467.983 132.059 465.945 127.218 462.74 127.032L462.76 126.904Z" fill="#382C80"/>
<path d="M527.44 232.911C529.233 229.109 534.084 230.265 532.281 188.752C531.909 180.069 530.194 175.032 528.773 166.408C527.234 157.01 523.383 147.494 515.827 141.683C510.251 137.381 503.156 135.489 496.139 134.764C483.301 133.441 469.375 136.136 460.104 145.113C451.676 153.276 448.481 165.173 447.815 176.561C447.051 189.752 445.992 203.472 447.511 216.633C449.256 231.725 456.174 247.425 469.708 254.324C482.291 260.733 498.334 257.881 509.526 249.287C520.717 240.692 521.433 245.671 527.44 232.911Z" fill="white"/>
<path d="M530.203 234.508C531.32 232.244 532.878 230.539 533.711 228.05C536.073 220.994 535.936 212.85 535.995 205.51C536.233 190.582 534.65 175.681 531.281 161.136C527.851 146.867 518.649 135.92 504.115 132.382C490.778 129.139 475.117 130.207 463.347 137.743C451.097 145.583 445.658 159.303 444.169 173.239C442.454 189.379 441.288 206.843 444.326 222.885C446.736 235.625 452.891 248.022 463.612 255.657C476.352 264.751 494.051 263.791 507.212 256.058C510.466 254.098 513.278 251.619 516.483 249.63C518.188 248.571 520.011 247.728 521.755 246.69C526.371 244.044 528.821 239.634 530.879 234.861C532.839 230.314 526.479 226.257 524.019 230.872C522.373 233.979 520.687 237.664 517.904 239.242C514.439 241.035 511.078 243.024 507.839 245.2C498.245 252.187 485.907 255.804 474.363 251.599C463.289 247.572 456.664 236.586 453.577 225.767C449.657 212.135 450.637 197.347 451.401 183.401C452.097 170.524 453.253 156.814 463.24 147.416C472.305 138.87 486.103 136.988 498.02 138.654C504.478 139.566 511.034 141.692 515.787 146.347C520.374 150.826 523.02 156.833 524.558 163.007C527.7 175.91 529.325 189.134 529.399 202.413C529.507 210.008 529.929 218.387 527.743 225.776C527.483 226.964 526.968 228.081 526.234 229.05C525.696 229.77 525.202 230.523 524.754 231.304C522.961 234.959 528.419 238.173 530.203 234.508Z" fill="#382C80"/>
<path d="M518.551 175.62C512.22 173.542 506.928 172.68 500.411 174.963C496.119 176.492 498.01 183.421 502.303 181.823C507.477 179.863 511.76 180.177 517.003 181.147C520.609 181.814 522.079 176.776 518.532 175.62H518.551Z" fill="#382C80"/>
<path d="M459.399 182.323C464.671 181.343 468.934 181.069 474.099 182.999C478.381 184.587 480.292 177.668 475.99 176.139C469.483 173.826 464.171 174.718 457.85 176.786C454.312 177.952 455.773 182.989 459.379 182.323H459.399Z" fill="#382C80"/>
<path d="M472.638 240.574C456.811 241.505 436.672 249.081 423.766 258.322C406.018 271.013 409.977 285.017 410.732 303.686C411.535 323.54 409.869 343.416 405.773 362.859C400.873 386.29 397.511 410.34 393.934 434.154C392.415 444.248 390.994 454.734 393.934 464.534C397.482 476.558 407.243 486.211 418.542 492.17C429.842 498.128 442.65 500.803 455.351 502.587C493.806 507.987 534.094 505.645 569.599 490.484C584.789 483.996 600.254 473.471 603.39 457.595C604.752 450.735 603.596 443.591 602.351 436.672C596.598 404.714 585.211 373.56 582.065 341.377C579.047 310.468 581.467 262.977 547.765 247.003C535.662 241.28 521.227 241.015 508.085 241.123" fill="white"/>
<path d="M472.638 237.115C459.986 237.938 447.628 241.75 436.153 247.062C426.02 251.756 414.828 258.165 409.644 268.543C405.106 277.628 405.93 287.81 406.547 297.63C407.5 312.554 407.054 327.535 405.214 342.377C403.254 357.831 399.491 373.011 396.874 388.348C394.258 403.685 391.876 418.973 389.465 434.291C387.231 448.442 386.153 462.887 393.679 475.735C400.089 486.682 410.898 494.473 422.413 499.324C435.643 504.9 450.03 507.066 464.22 508.604C478.702 510.218 493.298 510.562 507.84 509.633C522.091 508.755 536.213 506.404 549.98 502.616C562.543 499.098 575.381 494.463 586.357 487.289C596.236 480.831 605.212 471.776 608.005 459.937C609.671 452.881 608.917 445.688 607.751 438.622C606.506 431.076 604.899 423.589 603.154 416.141C596.647 388.437 588.454 361.261 586.426 332.743C585.025 313.212 584.466 292.818 577.449 274.316C573.98 265.202 568.943 256.538 561.495 250.1C552.126 241.995 540.533 238.34 528.361 237.017C521.638 236.396 514.882 236.197 508.134 236.419C502.038 236.527 502.018 245.925 508.134 245.915C520.639 245.915 534.231 245.915 545.717 251.511C553.458 255.339 559.851 261.434 564.043 268.984C572.941 284.664 574.362 303.735 575.597 321.326C576.283 331.126 576.842 340.985 578.204 350.726C580.164 364.574 583.359 378.166 586.779 391.749C590.258 405.567 593.952 419.336 596.706 433.33C599.087 445.424 601.234 457.723 593.168 468.189C586.416 476.931 576.008 482.556 565.973 486.691C553.793 491.645 541.104 495.241 528.135 497.413C501.783 501.94 474.059 501.244 447.776 496.433C424.069 492.111 397.247 479.773 396.815 452.048C396.717 445.032 397.795 438.064 398.775 431.135C399.755 423.766 400.804 416.435 401.862 409.046C403.891 394.826 406.223 380.626 409.075 366.573C412.064 352.452 413.916 338.115 414.612 323.698C415.122 311.477 413.936 299.462 413.632 287.281C413.407 277.54 415.886 269.406 423.569 262.987C432.664 255.382 444.502 250.364 455.782 247.111C461.268 245.474 466.911 244.419 472.618 243.965C477.029 243.661 477.077 236.772 472.618 237.056L472.638 237.115Z" fill="#382C80"/>
<path d="M512.122 186.841C508.584 187.194 504.204 186.145 500.979 187.752C498.5 188.987 499.068 192.27 500.979 193.632C504.164 195.896 509.564 194.377 513.004 193.397C516.444 192.417 515.944 186.469 512.122 186.841Z" fill="#382C80"/>
<path d="M461.369 193.74C464.632 195.455 468.807 195.886 472.149 194.034C475.177 192.358 473.129 187.252 469.757 188.37C467.944 188.967 466.19 189.555 464.309 188.762C462.934 188.007 461.209 188.464 460.389 189.8C459.634 191.175 460.091 192.9 461.427 193.72L461.369 193.74Z" fill="#382C80"/>
<path d="M485.976 205.549C489.818 205.128 491.856 204.383 495.355 206.353C498.087 207.902 500.503 209.949 502.48 212.39C504.155 214.467 504.724 218.27 507.321 218.995C510.804 220.1 514.449 220.607 518.101 220.494C521.756 220.23 525.47 218.74 527.715 215.849C529.567 213.458 531.635 210.528 532.252 199.032C532.321 206.872 532.085 223.581 532.144 231.441C532.252 243.808 530.439 255.098 520.12 263.075C514.935 267.093 508.82 269.729 502.676 272.042C497.991 273.806 493.17 275.433 488.162 275.717C483.374 275.872 478.6 275.124 474.089 273.512C465.338 270.572 457.086 265.515 451.765 257.979C446.571 250.619 444.493 241.476 443.925 232.499C443.345 222.841 444.412 213.154 447.08 203.854C447.864 206.402 448.119 209.087 448.805 211.694C449.491 214.301 450.706 216.858 452.911 218.358C454.959 219.749 457.556 220.024 460.036 220.034C462.228 220.193 464.419 219.717 466.347 218.662C469.806 216.437 471.404 211.939 474.285 209.077C477.166 206.216 482.027 206 485.976 205.549Z" fill="#382C80"/>
<path d="M485.976 208.616C489.602 208.224 492.062 207.852 495.227 210.057C498.393 212.262 499.912 214.683 501.627 217.897C504.92 224.071 514.533 224.757 520.737 223.679C533.006 221.464 535.319 209.508 536.005 199.012H528.596C528.596 209.087 528.42 219.151 528.42 229.216C528.42 240.212 527.754 251.609 518.767 259.263C513.7 263.575 507.281 266.211 501.127 268.494C494.502 270.944 487.946 272.66 480.87 271.229C468.865 268.798 457.35 261.781 452.088 250.374C445.737 236.537 447.041 219.181 451 204.902H443.287C444.689 209.988 444.846 215.682 448.668 219.808C452.284 223.65 457.811 224.365 462.819 223.797C468.248 223.189 471.404 219.945 474.324 215.614C475.706 213.565 476.921 211.419 479.342 210.498C481.762 209.577 484.467 209.518 486.986 209.136C491.141 208.577 490.19 201.492 486.006 201.786C482.086 202.07 477.999 202.246 474.442 204.128C470.727 206.088 468.993 209.704 466.602 212.948C464.026 216.134 459.608 217.149 455.9 215.408C451.862 213.448 451.98 206.5 451 202.795C450.487 201.094 448.92 199.93 447.144 199.93C445.367 199.93 443.8 201.094 443.287 202.795C439.191 217.495 438.005 234.488 443.003 249.149C447.629 262.722 458.262 271.964 471.541 276.775C478.861 279.431 486.545 280.431 494.218 278.794C501.824 277.036 509.142 274.208 515.954 270.396C528.322 263.634 534.643 252.814 535.77 238.928C536.299 232.293 535.956 225.551 535.986 218.906C536.015 212.262 536.103 205.657 535.986 199.032C535.927 194.24 528.832 194.299 528.577 199.032C528.351 203.197 528.214 207.95 526.195 211.713C523.598 216.564 518.257 217.544 513.132 216.75C511.74 216.525 509.114 216.358 508.056 215.457C507.291 214.81 506.929 213.369 506.458 212.517C505.063 210.137 503.215 208.053 501.019 206.382C496.119 202.462 492.013 201.678 485.957 202.462C482.154 202.991 482.007 209.048 485.976 208.616Z" fill="#382C80"/>
<path d="M481.057 196.719C480.527 200.541 481.223 204.491 485.957 204.412C487.781 204.356 489.484 203.482 490.593 202.032C491.703 200.583 492.102 198.711 491.68 196.935" fill="white"/>
<path d="M478.284 195.955C477.372 201.228 478.725 206.941 484.899 207.715C491.298 208.509 496.923 202.413 494.699 196.112C493.601 192.976 488.28 193.172 488.534 196.945C488.662 198.787 487.505 201.414 485.212 201.041C483.419 200.757 483.821 198.101 483.928 196.729C484.183 193.525 478.813 192.751 478.264 195.965L478.284 195.955Z" fill="#382C80"/>
<path d="M482.145 226.198C485.609 227.96 489.768 227.642 492.925 225.375C493.452 225.013 493.735 224.389 493.661 223.753C493.587 223.118 493.168 222.576 492.572 222.345C491.976 222.114 491.3 222.231 490.818 222.65C488.793 224.228 486.079 224.602 483.703 223.63C481.978 222.895 480.42 225.365 482.194 226.227L482.145 226.198Z" fill="white"/>
<path d="M451.774 142.516C459.173 151.571 471.541 154.677 483.134 156.177C489.847 157.039 496.717 157.539 503.332 156.177C509.947 154.815 516.356 151.218 519.992 145.485C521.508 143.219 522.304 140.548 522.276 137.821C521.929 133.992 519.891 130.518 516.719 128.345C513.564 126.218 509.963 124.843 506.194 124.327C489.034 121.387 471.796 127.874 455.596 134.284" fill="#382C80"/>
<path d="M449.588 144.701C456.399 152.884 465.817 157.362 476.048 159.646C487.808 162.262 500.784 163.791 512.093 158.734C521.805 154.393 530.948 143.476 526.518 132.353C521.814 120.593 507.516 117.839 496.207 118.045C481.34 118.319 466.141 123.327 452.793 129.599C447.295 132.186 451.176 141.271 456.929 139.399C469.669 135.283 481.909 129.442 495.541 129.05C500.96 128.893 507.075 129.187 511.946 131.823C516.816 134.46 517.914 139.095 514.631 143.583C507.604 153.168 493.522 152.403 483.095 151.423C472.922 150.443 460.966 148.483 453.91 140.33C451.284 137.311 447.05 141.682 449.549 144.701H449.588Z" fill="#382C80"/>
<path d="M471.472 134.676C466.89 130.835 463.635 125.646 462.172 119.848C461.252 116.614 461.269 113.185 462.221 109.96C463.343 107.008 465.19 104.386 467.591 102.336C479.943 90.9444 498.708 90.1165 512.015 100.376C513.939 101.796 515.598 103.544 516.915 105.54C518.556 108.337 519.451 111.51 519.512 114.752C519.799 119.833 518.457 124.874 515.68 129.139C512.875 133.397 508.461 136.332 503.45 137.273" fill="#382C80"/>
<path d="M474.461 131.686C468.248 126.11 462.486 115.232 468.787 107.706C474.549 100.846 484.232 97.2492 493.071 97.9058C501.294 98.5428 512.72 103.384 514.21 112.488C515.66 121.308 510.8 129.883 502.136 132.363C496.874 133.872 497.628 143.005 503.489 142.31C514.092 141.045 522.109 133.009 524.069 122.504C526.186 111.332 522.462 101.502 513.005 95.1324C504.02 89.2324 493.036 87.2045 482.536 89.5072C473.256 91.526 462.809 97.5922 458.683 106.51C453.666 117.29 460.016 130.51 468.483 137.635C472.599 141.085 478.558 135.322 474.461 131.657V131.686Z" fill="#382C80"/>
<path d="M454.714 257.675C454.655 270.729 455.861 284.312 462.936 295.66C469.13 305.568 480.057 313.143 492.16 312.232C519.6 310.174 524.588 274.551 522.079 253.05C521.344 246.729 511.73 246.346 511.917 253.05C512.22 263.781 511.632 274.874 508.222 285.135C505.674 292.789 500.754 300.589 491.983 301.462C482.673 302.393 474.343 296.905 469.443 289.329C463.367 279.96 462.093 268.573 461.682 257.675C461.515 253.216 454.753 253.177 454.734 257.675H454.714Z" fill="#382C80"/>
<path d="M414.27 458.84C456.804 475.096 503.175 478.503 547.628 468.64C560.302 465.872 572.676 461.874 584.574 456.703C589.043 454.743 585.838 447.021 581.232 448.765C560.78 456.468 539.651 462.23 517.856 464.445C495.848 466.715 473.632 465.92 451.843 462.083C439.652 459.927 427.657 456.784 415.975 452.685C412.055 451.303 410.477 457.409 414.27 458.859V458.84Z" fill="#382C80"/>
<path d="M414.103 433.536C430.881 441.376 448.933 443.16 467.239 442.739C487.329 442.278 507.468 440.602 527.509 439.103C532.654 438.711 532.732 430.714 527.509 431.018C508.252 432.125 489.034 433.801 469.777 434.859C452.137 435.839 433.419 435.839 417.063 428.47C413.662 426.931 410.664 431.939 414.123 433.536H414.103Z" fill="#382C80"/>
<path d="M553.224 434.585L554.027 434.712C555.565 435.125 557.205 434.692 558.339 433.575C559.759 432.153 560.042 429.953 559.03 428.217C558.019 426.481 555.965 425.643 554.027 426.176C553.763 426.235 553.488 426.265 553.224 426.304L552.244 426.745C551.755 427.002 551.341 427.38 551.038 427.842C550.441 428.58 550.115 429.5 550.117 430.449C550.154 431.205 550.354 431.944 550.705 432.615C550.963 433.106 551.345 433.522 551.813 433.82C552.222 434.201 552.727 434.465 553.273 434.585H553.224Z" fill="#382C80"/>
<path d="M423.755 399.128C470.972 415.867 522.206 407.674 570.011 397.923C575.263 396.855 573.009 388.995 567.815 389.936C521.148 398.344 471.775 408.556 425.461 392.945C421.541 391.622 419.894 397.756 423.755 399.128Z" fill="#382C80"/>
<path d="M424.451 361.986C448.608 369.162 473.739 372.512 498.931 371.914C523.804 371.326 549.695 367.21 572.941 358.135C577.498 356.351 575.754 349.099 570.873 350.628C547.294 358.057 523.725 363.221 498.931 364.201C474.368 365.166 449.8 362.414 426.059 356.038C422.217 355.009 420.62 360.859 424.422 361.986H424.451Z" fill="#382C80"/>
<path d="M422.071 332.008C470.492 347.757 525.862 346.934 573.226 327.667C577.753 325.834 575.96 318.455 571.158 320.17C547.511 328.588 523.138 333.978 497.981 334.87C472.928 335.727 447.898 332.584 423.835 325.56C419.709 324.355 418.023 330.646 422.071 331.969V332.008Z" fill="#382C80"/>
<path d="M432.38 311.066C478.078 320.572 527.44 318.445 571.344 301.863C575.588 300.266 573.902 293.504 569.384 294.945C547.471 302.03 525.382 307.302 502.352 309.086C479.429 310.942 456.364 309.955 433.684 306.146C430.518 305.597 429.117 310.36 432.331 311.046L432.38 311.066Z" fill="#382C80"/>
<path d="M527.44 281.127C539.694 283.365 552.336 281.908 563.759 276.942C567.62 275.266 564.837 268.514 560.819 270.082C550.464 274.24 539.314 276.044 528.175 275.364C524.912 275.149 524.118 280.568 527.391 281.136L527.44 281.127Z" fill="#382C80"/>
<path d="M428.068 283.645C431.988 284.165 435.761 284.429 439.632 285.321C444.532 286.448 446.639 278.98 441.719 277.755C437.456 276.687 432.468 275.795 428.068 276.403C423.413 276.981 423.432 283.028 428.068 283.645Z" fill="#382C80"/>
<path d="M469.061 512.338C468.634 525.211 469.441 538.094 471.472 550.813C472.459 557.013 473.72 563.161 475.255 569.256C476.833 575.509 478.391 582.261 481.282 588.053C482.86 591.218 487.799 589.621 487.779 586.289C487.839 571.812 488.975 557.36 491.18 543.051C491.758 539.043 485.672 537.259 484.996 541.346C482.692 556.228 481.294 571.237 480.812 586.289L487.672 585.368C486.398 579.272 483.997 573.323 482.429 567.287C480.913 561.407 479.636 555.491 478.597 549.539C476.496 537.233 475.352 524.782 475.177 512.299C475.118 508.379 469.199 508.379 469.071 512.299L469.061 512.338Z" fill="#382C80"/>
<path d="M491.092 526.558C496.08 526.558 496.09 518.806 491.092 518.806C486.094 518.806 486.103 526.558 491.092 526.558Z" fill="#382C80"/>
<path d="M561.514 721.421C554.043 717.181 548.038 710.769 544.296 703.036C543.933 702.282 542.914 700.88 542.983 699.979C543.139 698.068 544.149 698.558 545.834 698.92C548.12 699.427 550.345 700.179 552.469 701.164C556.672 703.15 560.386 706.038 563.347 709.622C564.935 711.503 567.561 709.102 566.581 707.123C562.524 698.891 560.427 687.386 565.033 678.83C568.904 671.637 572.873 683.123 573.853 686.092C575.543 691.061 576.571 696.231 576.91 701.468L581.634 700.831C580.428 692.256 586.7 681.672 596.334 681.966C609.162 682.368 600.479 702.34 596.569 707.926C594.736 710.543 599.019 712.993 600.842 710.425C607.026 701.743 614.336 678.409 597.275 677.105C584.427 676.125 574.421 690.169 577.038 702.115C577.606 704.712 582.085 704.202 581.761 701.478C581.007 695.294 576.489 665.933 564.592 673.058C559.75 675.998 558.712 683.838 558.339 688.846C557.836 695.96 559.464 703.063 563.014 709.249L566.248 706.75C562.03 702.365 556.873 698.991 551.166 696.882C548.226 695.794 540.386 693.148 539.357 698.224C538.886 700.478 540.65 703.369 541.611 705.271C542.956 707.892 544.558 710.374 546.393 712.679C550.108 717.357 554.702 721.262 559.917 724.175C560.657 724.529 561.546 724.257 561.96 723.548C562.374 722.84 562.176 721.932 561.505 721.46L561.514 721.421Z" fill="#382C80"/>
<path d="M563.161 569.07C561.201 577.479 560.515 588.876 570.178 592.728C573.422 594.021 577.302 594.051 580.184 591.865C584.104 588.866 583.124 583.643 586.064 580.193L583.957 580.752C587.122 582.036 588.18 586.563 590.817 588.641C593.3 590.517 596.589 590.946 599.47 589.768C607.241 586.887 607.947 578.126 606.82 571.06L603.576 573.559C616.15 582.251 632.418 570.354 628.419 555.782C627.674 553.047 623.411 554.204 624.166 556.948C627.224 568.002 615.111 576.195 605.811 569.688C604.037 568.463 602.292 570.482 602.557 572.187C603.096 575.636 603.419 579.684 601.469 582.781C600.019 585.084 596.883 586.887 594.207 585.642C591.993 584.603 591.003 581.889 589.601 580.037C588.463 578.46 586.9 577.239 585.093 576.518C584.342 576.294 583.528 576.51 582.986 577.077C579.449 581.115 580.184 590.866 572.736 589.131C564.2 587.171 565.425 576.509 566.856 570.041C567.355 567.64 563.71 566.611 563.161 569.061V569.07Z" fill="#382C80"/>
<path d="M659.241 583.79C648.578 588.69 634.427 597.51 640.366 611.338C645.57 623.47 662.083 623.882 668.786 612.965L664.523 610.476C661.583 615.65 659.691 621.765 662.063 627.537C664.023 632.369 668.727 635.75 674.058 635.034C679.193 634.348 683.535 630.252 685.397 625.538C687.955 619.051 686.249 611.818 684.544 605.399L680.222 607.212C682.917 611.583 686.171 616.209 691.639 617.012C696.706 617.708 700.606 614.601 701.655 609.711C703.86 599.441 697.529 588.563 688.268 584.231C686.191 583.251 683.584 585.329 684.936 587.563C686.543 590.229 689.552 590.17 691.943 588.543C694.334 586.916 695.412 583.555 695.726 580.703C696.561 573.447 692.51 566.509 685.779 563.671C678.881 561.021 671.065 562.905 666.13 568.404C661.23 574.167 660.564 582.124 663.445 588.916C664.67 591.856 668.894 589.317 667.678 586.446C664.013 577.783 669.638 567.375 679.438 567.365C683.776 567.23 687.798 569.624 689.748 573.5C690.698 575.416 691.12 577.55 690.973 579.684C690.907 580.573 690.726 581.449 690.434 582.291C690.081 583.33 688.788 584.408 689.17 585.045L685.838 588.386C692.046 591.23 696.327 597.1 697.137 603.88C697.5 607.32 697.196 612.641 692.6 612.387C688.484 612.171 686.142 608.055 684.338 604.87C682.986 602.489 679.438 604.115 680.017 606.693C681.741 614.033 684.25 625.46 675.518 629.497C671.667 631.281 667.933 629.164 666.522 625.323C664.983 621.128 666.757 616.659 668.815 613.004C670.383 610.231 666.208 607.8 664.552 610.515C659.015 619.58 644.844 616.865 643.659 606.007C642.59 596.207 653.704 590.484 661.122 587.044C663.298 586.064 661.397 582.849 659.241 583.829V583.79Z" fill="#382C80"/>
<path d="M474.373 613.464C478.568 610.946 484.869 610.26 487.535 615.336C490.083 620.236 485.222 623.117 481.557 625.038C479.695 626.018 480.048 629.193 482.155 629.625C487.603 630.752 492.415 634.525 493.562 640.209C494.267 643.707 492.435 646.089 488.838 645.961C485.408 645.844 482.507 643.149 480.106 640.993C477.529 638.68 473.805 642.325 476.275 644.815C477.794 646.343 476.961 648.548 476.069 650.205C474.736 652.694 472.786 654.428 469.875 653.145C466.06 651.308 463.146 648.013 461.79 644.001C460.683 640.855 455.724 642.139 456.733 645.403C458.791 652.076 466.386 661.435 474.491 658.858C481.067 656.771 485.271 646.187 480.106 640.993L476.275 644.815C480.048 648.156 484.399 651.567 489.73 651.204C493.65 650.94 497.452 648.588 498.55 644.628C501.088 635.495 491.915 626.126 483.478 624.783L484.075 629.37C489.681 625.871 494.973 620.236 490.818 613.415C486.898 606.967 478.617 607.281 472.884 610.936C471.296 611.916 472.737 614.444 474.364 613.464H474.373Z" fill="#382C80"/>
<path d="M528.293 636.328C527.852 638.895 527.46 641.708 528.91 644.05C529.986 645.938 532.114 646.967 534.261 646.637C536.315 646.157 537.977 644.654 538.661 642.658C539.641 640.032 538.867 637.268 537.887 634.769C536.985 632.447 533.261 633.358 534.075 635.818C534.692 637.709 536.172 641.1 534.153 642.678C533.173 643.462 532.193 642.825 531.625 641.816C530.89 640.473 531.233 638.621 531.448 637.19C531.752 635.152 528.655 634.25 528.293 636.328Z" fill="#382C80"/>
<path d="M606.124 628.88C604.223 631.163 602.293 634.377 604.449 637.18C606.252 639.522 610.485 638.993 611.103 635.877C611.196 635.177 610.908 634.48 610.348 634.05C609.788 633.619 609.041 633.52 608.388 633.79C607.735 634.06 607.276 634.657 607.183 635.357C607.183 635.054 607.3 634.818 607.33 634.907C607.33 634.711 607.055 634.485 607.036 634.211C606.938 633.103 607.879 632.104 608.525 631.271C609.917 629.585 607.545 627.135 606.095 628.84L606.124 628.88Z" fill="#382C80"/>
<path d="M597.02 484.389C595.599 488.848 593.992 493.904 595.903 498.471C597.213 501.772 600.218 504.098 603.743 504.537C613.298 505.321 614.209 492.091 611.309 485.986L607.604 488.152C610.799 494.385 615.728 501.754 623.862 500.039C632.496 498.226 631.036 489.318 628.047 483.291L624.421 486.084C629.321 490.112 636.544 494.571 642.433 489.465C648.323 484.359 643.257 477.489 637.788 474.765C635.23 473.491 633.025 477.137 635.524 478.626C638.268 480.263 643.188 484.751 637.857 486.711C634.143 488.083 630.389 484.937 627.684 482.791C625.724 481.204 622.784 483.134 624.058 485.594C625.205 487.838 627.116 491.2 625.754 493.757C624.774 495.629 622.383 496.002 620.481 495.717C615.748 494.963 613.288 489.788 611.309 485.976C610.035 483.507 606.409 485.672 607.604 488.142C609.407 491.905 609.015 503.244 602.195 500.029C596.648 497.403 598.853 489.681 600.235 485.251C600.862 483.232 597.706 482.37 597.059 484.379L597.02 484.389Z" fill="#382C80"/>
<path d="M530.517 544.404C528.439 540.964 525.999 536.887 527.048 532.644C527.547 530.625 529.204 528.597 531.448 528.499C533.692 528.401 535.436 531.115 533.476 532.673L537.289 534.898C538.122 530.223 543.237 527.568 547.089 530.978C550.94 534.388 549.137 539.641 545.207 541.934C542.561 543.473 544.923 547.53 547.608 546.041C554.664 542.121 556.33 532.321 549.725 527.068C543.12 521.815 533.898 526.088 532.81 534.261C532.555 536.221 535.485 537.279 536.73 535.868C538.833 533.531 539.035 530.049 537.217 527.484C535.399 524.919 532.046 523.956 529.145 525.167C519.668 528.587 524.108 540.033 527.881 545.894C528.959 547.56 531.585 546.05 530.546 544.335L530.517 544.404Z" fill="#382C80"/>
<path d="M252.55 564.885C250.375 557.967 257.068 550.852 264.036 554.106C271.572 557.643 269.622 567.826 261.939 569.56C258.871 570.236 260.184 574.803 263.222 574.235C267.142 573.49 271.356 572.637 275.169 574.146C278.158 575.332 281.313 578.821 279.089 582.114C277.746 584.074 274.914 583.848 274.287 586.494C273.659 589.14 276.188 590.532 277.932 592.002C280.539 594.207 283.322 596.843 284.008 600.342C284.782 604.262 282.764 607.339 278.736 607.79C271.954 608.545 265.016 604.076 260.606 599.303C258.528 597.039 255.451 600.283 257.293 602.616C263.056 609.75 276.266 617.119 285.057 610.75C288.742 608.074 289.839 603.282 288.869 598.99C288.234 596.453 287.008 594.102 285.292 592.13C284.459 591.15 279.255 586.779 279.255 586.798L278.52 588.572C279.5 587.494 281.117 587.161 282.166 586.073C283.157 585.04 283.878 583.777 284.263 582.398C285.072 579.531 284.543 576.451 282.822 574.019C278.03 567.228 269.102 568.139 261.968 569.531L263.252 574.205C274.228 571.265 276.688 556.036 266.27 550.685C256.372 545.629 245.788 555.409 249.218 565.738C249.924 567.855 253.266 566.963 252.58 564.807L252.55 564.885Z" fill="#382C80"/>
<path d="M339.799 556.35C334.38 557.84 328.549 560.633 326.246 566.15C324.472 570.393 325.079 575.95 328.833 579.008C333.233 582.536 339.28 580.87 343.533 577.939C345.493 576.607 347.659 574.901 347.61 572.334C347.589 571.304 347.158 570.326 346.413 569.616C345.668 568.905 344.67 568.522 343.641 568.551C342.317 568.567 341.25 569.639 341.24 570.962C341.543 577.508 348.403 586.289 355.675 584.447C358.894 583.619 361.375 581.051 362.091 577.805C362.807 574.559 361.638 571.186 359.066 569.08C358.11 568.253 356.677 568.304 355.783 569.198C354.889 570.092 354.838 571.525 355.665 572.481C360.252 577.822 369.542 584.946 375.765 577.381C381.988 569.815 373.678 561.838 367.66 558.045C365.181 556.487 363.054 560.29 365.397 561.965C368.533 564.17 376.49 570.305 371.825 574.784C367.425 579.008 361.584 572.148 359.085 569.129L355.685 572.53C358.625 575.019 357.694 580.223 353.245 579.909C349.913 579.674 346.296 573.98 346.071 571.011L343.66 573.412C343.102 572.598 342.592 572.618 342.122 573.49C341.431 574.057 340.697 574.568 339.926 575.019C338.456 575.974 336.773 576.553 335.026 576.705C331.92 576.812 329.832 574.607 329.489 571.599C328.745 565.043 335.556 561.603 340.818 560.064C343.151 559.378 342.171 555.772 339.838 556.419L339.799 556.35Z" fill="#382C80"/>
<path d="M337.261 544.894L335.232 546.217C334.464 546.822 334.26 547.901 334.754 548.745C335.247 549.59 336.288 549.941 337.192 549.568L339.201 548.196C339.953 547.936 340.472 547.247 340.516 546.453C340.56 545.658 340.12 544.916 339.402 544.575C338.684 544.233 337.83 544.359 337.241 544.894H337.261Z" fill="#382C80"/>
<path d="M365.123 732.995C360.458 730.771 351.148 724.489 352.53 718.138C353.637 713.062 358.811 715.884 360.948 718.432C363.116 721.129 364.454 724.398 364.799 727.84L369.013 726.096C368.239 725.234 371.032 722.793 371.62 722.294C373.423 720.735 375.481 719.795 377.706 721.147C381.9 723.705 380.793 729.506 379.127 733.24C378.509 734.358 378.799 735.759 379.81 736.539C380.82 737.32 382.249 737.246 383.174 736.366C386.361 733.521 390.683 732.306 394.885 733.074C399.981 734.171 393.631 740.914 391.367 742.237C388.897 743.628 390.269 746.901 392.7 747.137C395.904 747.48 399.472 748.264 401.647 750.851C404.127 753.791 403.548 759.132 398.825 758.691C395.463 758.338 395.522 763.532 398.825 763.924C405.293 764.669 409.771 758.044 408.135 752.164C406.234 745.226 399.178 742.57 392.7 741.933L394.042 746.833C398.756 744.099 405.949 734.524 399.922 729.693C394.15 725.077 384.419 728.438 379.568 732.74L383.88 735.259C386.634 728.164 386.212 716.374 376.246 715.502C370.277 714.983 359.948 723.724 365.554 729.614C367.416 731.574 370.042 729.467 369.689 727.213C368.823 722.091 366.225 717.421 362.33 713.983C359.007 711.151 353.931 709.789 350.658 713.434C342.975 721.98 356.538 732.878 363.466 735.916C365.426 736.778 367.132 733.956 365.162 732.976L365.123 732.995Z" fill="#382C80"/>
<path d="M407.988 535.28C403.274 533.594 397.923 529.557 396.541 524.5C394.826 518.169 401.108 522.893 402.872 524.912C404.84 527.172 406.586 529.617 408.086 532.213C409.438 534.506 413.446 533.006 412.515 530.351C411.547 527.911 411.279 525.251 411.741 522.667C412.202 520.374 413.525 516.68 416.151 516.082C419.179 515.386 421.178 519.13 421.316 521.57C421.482 524.598 420.012 527.685 418.846 530.39C418.013 532.281 419.405 534.976 421.786 534.202C425.863 532.869 435.506 532.693 435.839 539.053C436.202 545.962 426.118 545.06 422.041 544.257C420.651 543.971 419.278 544.812 418.901 546.18C418.523 547.547 419.271 548.973 420.61 549.441C422.011 549.931 422.394 551.822 421.894 553.106C421.051 555.272 418.278 555.958 416.21 555.968C414.03 555.944 411.898 555.324 410.046 554.174C408.84 553.449 403.842 549.715 406.508 547.804C408.115 546.648 408.38 543.296 405.871 542.904C403.754 542.601 404.969 539.563 405.234 538.553C406.077 535.378 401.52 534.251 400.402 537.22C398.844 541.336 399.06 547.138 404.45 548.049L403.813 543.149C399.413 546.089 399.707 551.332 402.882 555.135C406.43 559.339 411.757 561.621 417.249 561.289C421.717 560.917 426.245 558.349 427.225 553.694C428.134 549.675 425.913 545.606 422.041 544.198L420.62 549.363C425.451 550.343 430.831 550.96 435.32 548.383C438.662 546.423 441.2 542.934 441.141 538.965C440.886 528.9 427.931 526.646 420.443 529.165L423.383 532.967C425.343 528.234 427.519 522.805 425.569 517.689C424.305 514.337 421.159 511.299 417.445 511.054C407.4 510.388 405.146 524.647 407.899 531.634L412.329 529.772C409.467 525.921 406.312 521.148 402.225 518.512C399.285 516.552 394.64 516.405 392.719 519.933C390.798 523.461 393.787 528.459 396.002 531.262C398.869 534.831 402.709 537.492 407.057 538.926C409.34 539.71 410.3 536.123 408.037 535.319L407.988 535.28Z" fill="#382C80"/>
<path d="M352.687 489.573C349.443 494.816 352.755 501.94 359.214 501.881C365.819 501.832 369.014 494.169 365.29 489.034L361.987 492.336C365.829 494.355 371.013 492.963 372.551 488.642C373.262 486.475 372.89 484.1 371.551 482.254C370.212 480.409 368.069 479.318 365.789 479.322C363.369 479.41 362.742 482.997 365.211 483.644C369.337 484.712 367.945 489.965 364.417 488.171C363.369 487.561 362.031 487.822 361.287 488.781C360.544 489.739 360.625 491.1 361.477 491.964C362.415 493.009 362.614 494.523 361.978 495.775C361.343 497.026 360.003 497.759 358.606 497.618C355.343 497.422 354.47 493.943 355.931 491.484C357.185 489.377 353.971 487.495 352.667 489.573H352.687Z" fill="#382C80"/>
<path d="M725.704 531.683C722.009 533.594 720.157 538.396 722.264 542.179C724.508 546.217 729.467 546.687 733.269 544.845L731.015 540.993C725.753 544.512 724.626 552.655 729.241 557.242C733.857 561.828 741.854 560.495 745.519 555.36C747.244 552.94 743.304 550.744 741.599 553.057C739.453 555.909 734.533 556.409 732.191 553.537C729.849 550.666 731.133 546.677 733.74 544.502C735.7 542.895 733.073 539.484 731.035 540.993C726.791 544.139 722.891 537.456 727.566 534.839C729.633 533.692 727.811 530.605 725.723 531.683H725.704Z" fill="#382C80"/>
<ellipse cx="497.628" cy="884.023" rx="337.522" ry="26.6462" fill="#382C80"/>
<path fill-rule="evenodd" clip-rule="evenodd" d="M258.911 903.545C322.669 908.611 407.469 911.385 497.629 911.385C587.799 911.385 672.578 908.66 736.347 903.545C767.364 901.095 791.727 898.243 808.749 895.068C820.392 892.892 835.856 889.384 835.856 883.994C835.856 881.406 833.044 877.447 808.749 872.91C791.727 869.735 767.364 866.883 736.347 864.433C672.578 859.366 587.808 856.593 497.629 856.593C407.449 856.593 322.669 859.405 258.911 864.433C227.884 866.883 203.521 869.735 186.498 872.91C174.866 875.085 159.392 878.594 159.392 883.994C159.392 886.571 162.204 890.53 186.498 895.068C203.521 898.243 227.884 901.095 258.911 903.545ZM259.018 865.932C322.748 860.856 407.469 858.092 497.629 858.092C587.759 858.092 672.48 860.856 736.229 865.932C827.35 873.125 834.425 881.622 834.425 884.062C834.425 885.885 831.025 889.511 808.485 893.725C791.511 896.9 767.197 899.742 736.229 902.182C672.5 907.249 587.769 910.022 497.629 910.022C407.488 910.022 322.718 907.22 259.018 902.182C167.908 894.989 160.822 886.493 160.822 884.062C160.822 882.23 164.223 878.604 186.763 874.39C203.737 871.224 228.05 868.372 259.018 865.932Z" fill="#382C80"/>
<path d="M728.791 875.036C718.923 865.854 713.107 853.128 712.621 839.658C712.552 837.473 713.022 834.758 715.12 834.121C716.452 833.739 717.854 834.445 719.04 835.229C725.9 839.884 730.104 847.528 734.014 854.829C731.438 844.719 733.721 833.987 740.188 825.801C741.246 824.498 742.805 823.145 744.402 823.674C745.686 824.096 746.293 825.517 746.666 826.81C749.056 835.109 748.234 844.003 744.363 851.722C748.492 842.96 755.934 836.198 765.051 832.926C765.696 832.646 766.397 832.522 767.099 832.563C769.892 832.916 769.823 836.993 768.902 839.648C765.92 848.307 762.445 856.788 758.494 865.05C756.799 868.588 753.438 872.714 749.841 871.155" fill="#382C80"/>
<path d="M729.918 873.919C721.507 865.903 716.176 855.19 714.855 843.647C714.682 842.324 714.597 840.992 714.601 839.658C714.601 838.11 714.473 836.836 716.1 836.551C718.472 836.13 721.49 839.942 722.96 841.569C726.88 845.94 729.232 850.997 731.849 856.122C733.172 858.719 736.984 856.867 736.386 854.211C734.299 845.514 735.941 836.341 740.914 828.907C741.511 828.045 742.099 826.604 743.295 826.644C744.491 826.683 744.402 827.486 744.716 828.653C745.387 831.211 745.716 833.848 745.696 836.493C745.617 841.366 744.424 846.156 742.207 850.497C740.767 853.437 745.147 855.975 746.568 853.055C748.739 848.433 751.881 844.335 755.78 841.04C757.802 839.38 760.005 837.953 762.346 836.787C763.209 836.355 764.737 835.248 765.649 835.375C767.393 835.611 767.031 836.355 766.776 837.855C766.345 840.432 765.041 843.029 764.12 845.469C762.905 848.697 761.615 851.892 760.249 855.054C758.857 858.288 755.349 870.038 750.449 868.862C747.401 868.137 746.333 872.41 749.175 873.488C757.015 876.486 761.141 865.403 763.493 860.091C765.453 855.707 767.266 851.271 768.932 846.783C770.274 843.215 772.274 839.246 771.872 835.317C770.96 827.006 762.072 831.024 757.525 833.68C750.867 837.635 745.531 843.473 742.188 850.458L746.549 853.015C749.562 846.731 750.815 839.748 750.175 832.808C749.753 828.564 748.646 819.813 742.335 821.401C737.003 822.743 733.681 830.985 732.162 835.65C730.073 842.08 729.876 848.975 731.594 855.514L736.141 853.554C732.554 847.116 728.517 840.138 722.774 835.366C720.608 833.562 717.874 831.338 714.855 832.004C712.307 832.573 711.092 834.944 710.769 837.365C709.877 843.999 712.229 851.781 714.767 857.817C717.736 864.755 722.141 870.984 727.693 876.094C729.183 877.496 731.417 875.271 729.938 873.86L729.918 873.919Z" fill="#382C80"/>
<path d="M394.895 649.264C396.834 647.734 399.17 646.792 401.628 646.549C405.626 645.941 404.676 639.307 400.648 639.503C396.592 639.72 392.747 641.382 389.809 644.187C388.872 645.086 388.494 646.421 388.82 647.678C389.147 648.934 390.127 649.916 391.383 650.245C392.639 650.574 393.975 650.199 394.876 649.264H394.895Z" fill="#382C80"/>
<path d="M799.645 751.801C790.308 772.876 782.251 794.495 775.517 816.54C772.185 827.646 769.173 838.848 766.482 850.144C763.836 861.267 760.994 872.615 759.837 884.003C759.386 888.413 766.423 889.217 767.481 885.042C770.274 874.036 771.96 862.727 774.508 851.653C777.056 840.579 779.917 829.554 783.093 818.627C789.364 796.775 796.77 775.264 805.28 754.182C806.593 750.968 801.046 748.596 799.645 751.801Z" fill="#382C80"/>
<path d="M775.791 819.137C769.803 810.14 763.668 800.811 761.757 790.178C761.204 787.956 761.306 785.621 762.051 783.455C762.943 781.358 765.227 779.711 767.441 780.231C769.656 780.75 770.822 782.887 771.724 784.886C776.478 795.399 778.594 806.914 777.888 818.431" fill="#382C80"/>
<path d="M778.388 817.628C775.252 812.218 772.067 806.789 769.451 801.105C768.647 799.37 762.973 784.837 766.315 784.445C768.569 784.171 771.381 797.126 771.881 799.361C773.312 805.74 773.184 811.954 773.449 818.441C773.635 823.165 781.416 824.811 782.181 819.617C783.494 810.65 782.014 800.625 779.162 792.06C777.065 785.778 773.282 774.067 764.462 776.38C755.143 778.8 757.112 790.56 759.445 797.254C762.483 805.976 767.647 813.375 773.165 820.676C775.429 823.616 780.338 821.087 778.349 817.647L778.388 817.628Z" fill="#382C80"/>
<path d="M789.982 789.982C792.834 787.306 795.735 784.602 799.234 782.877C802.732 781.152 806.995 780.535 810.533 782.181C811.838 782.661 812.847 783.717 813.267 785.043C813.718 787.11 811.876 788.963 810.072 790.041C804.237 793.553 797.19 794.436 790.668 792.471" fill="#382C80"/>
<path d="M792.472 792.471C794.773 790.242 797.352 788.319 800.145 786.748C801.968 785.837 806.946 784.318 808.416 785.621C808.328 785.543 802.311 788.032 801.066 788.238C798.036 788.627 794.96 788.417 792.011 787.62C785.661 786.209 783.191 795.225 789.336 797.322C795.48 799.419 802.379 798.743 808.21 796.342C813.395 794.235 819.637 789.688 817.383 783.269C815.364 777.526 807.809 776.409 802.634 777.487C796.49 778.79 791.854 783.161 787.493 787.454C784.249 790.688 789.1 795.411 792.472 792.432V792.471Z" fill="#382C80"/>
<path d="M757.388 871.596C755.575 863.06 766.413 837.296 778.81 843.176C781.349 844.362 782.662 847.351 782.613 850.154C782.395 852.955 781.533 855.668 780.094 858.082C779.648 857.044 780.027 855.836 780.986 855.24C781.939 854.695 783.015 854.402 784.112 854.387C787.699 854.044 791.844 854.005 794.265 856.69C797.009 859.738 795.951 864.648 793.785 868.137C791.011 872.596 785.563 876.271 780.682 874.33" fill="#382C80"/>
<path d="M760.68 870.685C759.7 864.668 763.894 856.259 767.442 851.712C769.01 849.752 771.509 846.9 774.233 846.665C779.604 846.195 777.173 852.967 775.831 855.593L784.798 856.769C783.354 858.847 783.449 859.667 785.082 859.229C785.582 859.229 786.062 859.16 786.601 859.16C787.487 859.067 788.382 859.147 789.237 859.395C790.942 860.121 790.982 861.14 790.472 862.904C789.492 866.246 785.837 870.293 782.064 869.225C775.449 867.353 772.92 877.163 779.261 879.417C791.158 883.65 804.133 868.96 800.38 857.445C798.42 851.448 792.452 849.164 786.601 849.282C780.75 849.399 773.214 851.996 775.341 859.376C776.448 863.227 782.348 864.433 784.308 860.552C788.002 853.231 789.619 842.343 780.006 838.766C774.674 836.806 769.226 838.766 765.306 842.51C758.103 849.213 752.154 862.571 754.104 872.518C754.957 876.888 761.454 874.987 760.729 870.685H760.68Z" fill="#382C80"/>
</svg>
