<svg width="1000" height="1000" viewBox="0 0 1000 1000" fill="none" xmlns="http://www.w3.org/2000/svg">
<path d="M196.327 121.789C170.436 104.237 157.598 69.9859 128.825 57.7163C113.792 51.3071 96.485 52.1107 80.805 56.6481C69.976 59.7743 59 65.1937 53.512 74.9937C52.6883 76.2118 52.3014 77.673 52.4144 79.1391C52.8162 81.4519 55.2172 82.7749 57.3928 83.6471C66.1042 87.1278 75.463 88.6921 84.8328 88.2335C75.5896 92.7211 68.3228 100.455 64.4194 109.96C70.4636 112.69 77.5592 111.485 82.3632 106.912C76.8586 111.508 72.6636 117.474 70.2014 124.209C68.8882 127.806 68.4374 132.559 71.5636 134.764C74.8368 137.067 79.3546 134.764 82.2652 131.971C86.3754 128.098 89.6243 123.403 91.8006 118.192C88.2138 121.965 84.431 126.13 83.843 131.305C83.255 136.479 87.763 142.428 92.8002 141.105C94.9268 140.546 96.5732 138.909 98.298 137.537C104.394 132.706 114.654 129.384 121.299 134.695" fill="white"/>
<path d="M197.935 119.035C175.483 102.874 163.86 75.7088 140.938 60.0484C127.6 50.9148 111.303 47.9356 95.3482 49.827C80.903 51.5322 64.1156 56.0794 54.1882 67.467C51.503 70.554 48.2102 74.768 48.5728 79.1192C48.906 83.0392 52.0714 85.5088 55.4328 86.9592C64.7101 90.9739 74.771 92.8528 84.872 92.457L82.7356 84.617C72.8547 89.466 65.0312 97.6857 60.6758 107.794C59.8526 109.754 59.882 112.694 62.234 113.674C69.9935 117.287 79.1661 115.858 85.46 110.058C89.7132 106.138 83.5 100.16 79.2076 103.796C73.9841 108.194 69.8401 113.733 67.0948 119.985C64.7918 125.277 63.0082 132.402 67.5064 137.145C72.3476 142.241 79.5604 139.977 84.3134 136.067C89.6544 131.686 93.3 125.64 95.9362 119.348C97.6316 115.281 91.5262 112.233 88.7626 115.173C84.4016 119.76 79.8348 125.081 79.58 131.765C79.2762 137.4 82.9218 143.456 88.4 145.142C94.7308 147.102 98.5136 142.114 103.374 139.262C108.235 136.41 114.321 134.862 119.162 138.36C123.553 141.516 127.551 134.342 123.366 131.177C115.458 125.199 104.247 128.011 96.8084 133.392C95.4462 134.372 93.4372 136.9 91.634 137.047C89.8308 137.194 88.694 135.156 88.253 133.695C86.9398 128.982 91.928 124.317 94.8092 121.279L88.057 116.075C86.3066 120.086 83.9023 123.779 80.9422 127.002C79.7858 128.247 75.2582 133.176 73.7392 130.461C72.377 128.041 75.6404 122.621 76.6792 120.661C78.9577 116.637 81.9305 113.047 85.46 110.058L79.2076 103.796C75.8342 106.982 70.9237 107.933 66.6048 106.236L68.5648 111.136C72.1992 102.712 78.742 95.8774 86.9986 91.8788C90.7422 90.0168 88.9586 83.8232 84.872 84.0388C77.0446 84.4791 69.2027 83.4826 61.7342 81.0988C60.3328 80.6382 57.9808 80.1972 56.9224 79.1388C55.864 78.0804 56.6284 77.316 57.334 76.1302C59.1182 73.2112 61.4471 70.6626 64.194 68.6234C75.1994 60.2248 90.9676 56.9418 104.482 56.8928C117.893 56.7313 130.934 61.2933 141.32 69.7798C150.64 77.3748 158.156 86.9004 165.712 96.181C174.326 106.755 183.225 117.035 194.72 124.601C198.209 126.884 201.227 121.445 197.944 119.084L197.935 119.035Z" fill="#382C80"/>
<path d="M206.921 121.72C237.683 116.075 263.222 89.8797 294.504 90.2325C315.397 90.4677 338.898 104.452 347.551 123.896C350.148 129.776 351.285 137.057 347.443 142.173C344.56 145.859 339.747 147.454 335.233 146.22C329.284 144.505 327.608 137.684 322.15 135.087C328.167 143.839 332.734 152.874 332.42 163.968C325.786 164.036 319.774 160.075 317.22 153.952C320.405 160.379 321.845 167.53 321.395 174.689C321.14 178.501 319.641 183.048 315.897 183.803C311.977 184.597 308.782 180.628 307.224 176.943C305.021 171.742 303.939 166.136 304.049 160.489C305.813 165.389 307.587 170.72 306.009 175.698C304.431 180.677 297.953 184.303 293.857 181.079C292.132 179.716 291.289 177.551 290.26 175.6C287.052 169.764 281.744 165.367 275.413 163.301" fill="white"/>
<path d="M207.764 124.797C234.665 120.279 255.872 100.826 282.352 95.2501C294.694 92.7135 307.534 94.5171 318.7 100.356C329.598 105.922 340.103 114.997 344.562 126.718C346.748 132.48 347.179 142.143 338.81 142.682C335.546 142.898 333.567 140.722 331.656 138.429C329.451 135.754 327.383 133.137 324.257 131.471C320.768 129.619 315.976 133.558 318.484 137.253C323.992 145.397 328.284 153.913 328.069 163.997L332.4 159.666C327.157 159.666 323.051 156.481 321.032 151.747L313.369 156.226C315.226 160.097 316.393 164.262 316.818 168.535C317.063 171.112 317.798 176.727 315.682 178.874C313.722 180.834 311.615 176.041 311.036 174.669C309.19 170.182 308.267 165.37 308.322 160.518L299.884 161.655C301.295 165.575 304.049 171.867 301.266 175.806C300.481 176.97 299.264 177.771 297.885 178.031C296.307 178.148 295.719 176.865 295.043 175.6C290.819 167.76 285.086 162.243 276.54 159.323C271.435 157.578 269.367 165.506 274.326 167.339C279.4 169.141 283.666 172.692 286.36 177.355C289.006 182.098 291.672 186.782 297.865 186.576C302.873 186.23 307.302 183.2 309.439 178.658C312.379 172.464 310.331 165.457 308.165 159.372C306.597 154.962 299.757 155.452 299.727 160.518C299.727 167.496 300.795 175.218 304.441 181.343C307.528 186.508 313.682 190.506 319.602 187.145C324.678 184.264 325.874 177.805 325.923 172.445C325.923 165.252 324.245 158.158 321.023 151.728C318.484 146.534 311.105 151.081 313.359 156.206C316.782 163.64 324.236 168.385 332.42 168.339C334.801 168.302 336.72 166.378 336.752 163.997C336.879 152.472 332.204 142.32 325.795 132.99L320.013 138.772C325.893 141.839 327.951 148.846 335.056 150.326C342.434 151.779 349.797 147.755 352.559 140.761C357.949 127.13 346.091 111.41 336.36 103.041C325.462 93.6821 311.566 87.4591 297.16 86.5281C281.979 85.5481 267.426 91.1929 254.04 97.7687C238.428 105.452 223.287 114.958 206.02 118.643C201.953 119.515 203.726 125.503 207.715 124.797H207.764Z" fill="#382C80"/>
<path d="M299.786 433.722C298.395 413.093 296.268 392.023 287.507 373.296C278.746 354.568 262.027 338.349 241.584 335.487C236.351 334.762 229.677 335.82 228.089 340.858C226.502 345.895 231.539 350.716 236.253 353.362C231.722 352.746 227.3 355.073 225.242 359.157C223.185 363.24 223.947 368.179 227.139 371.453C219.701 374.295 211.253 378.313 209.646 386.153C208.607 391.19 210.969 396.453 214.546 400.177C218.123 403.901 222.748 406.351 227.286 408.752C225.326 413.721 226.521 419.483 229.167 424.118C231.813 428.754 235.753 432.478 239.644 436.123" fill="#382C80"/>
<path d="M303.02 433.722C301.697 409.144 299.394 383.145 285.782 361.869C279.983 352.566 272.157 344.693 262.889 338.839C254.618 333.772 243.289 329.284 233.489 331.528C228.099 332.753 223.571 336.859 223.415 342.651C223.248 349.197 228.883 354.137 234.028 357.184L237.438 349.09C231.059 348.11 224.698 350.579 221.357 356.371C217.868 362.427 219.259 369.777 223.738 374.864L225.865 366.808C216.672 370.346 206.098 375.569 204.726 386.506C203.089 399.54 214.8 407.635 224.855 412.917L222.66 407.458C218.27 420.326 227.619 431.263 236.38 439.436C240.79 443.562 247.425 436.966 243.024 432.801C236.86 426.98 228.658 419.385 231.999 410.026C232.574 407.916 231.662 405.682 229.775 404.577C223.62 401.304 213.428 396.335 214.35 387.8C215.055 381.292 223.248 378.127 228.471 376.098C231.921 374.766 233.156 370.934 230.598 368.053C226.433 363.349 230.843 357.635 236.311 357.792C240.751 357.919 242.289 351.696 238.546 349.531C236.419 348.306 230.529 344.719 232.666 341.514C234.263 339.103 239.095 339.456 241.486 339.78C249.904 340.936 257.969 344.895 264.575 350.158C279.5 362.143 287.409 379.734 291.642 398.08C294.337 409.84 295.562 421.776 296.542 433.742C296.875 437.868 303.275 437.966 303.049 433.742L303.02 433.722Z" fill="#382C80"/>
<path d="M783.122 635.789C812.199 609.956 822.155 568.933 825.84 530.213C826.879 519.316 826.614 506.301 817.608 500.078C813.218 497.04 807.642 496.394 802.33 495.845L731.907 488.514C725.723 487.868 719.285 487.26 713.483 489.494C698.587 495.178 694.167 534.418 690.218 548.128C683.358 571.805 677.39 595.766 673.685 620.158C667.58 660.201 667.805 701.851 680.134 740.433C688.042 765.119 700.714 788.032 715.218 809.523C730.398 832.063 749.116 854.211 774.9 862.718" fill="white"/>
<path d="M785.288 637.954C801.771 623.872 812.473 604.968 819.235 584.574C822.658 574.076 825.25 563.325 826.987 552.42C828.682 542.179 830.466 531.507 830.289 521.06C830.123 511.515 827.487 501.195 818.774 495.952C813.816 493.012 807.994 492.326 802.33 491.719C795.496 490.987 788.665 490.265 781.838 489.553L740.227 485.153C729.781 484.055 716.413 481.007 707.427 488.191C701.86 492.64 698.764 499.676 696.353 506.193C693.628 514.001 691.46 521.992 689.865 530.105C685.426 550.685 679.154 570.697 674.656 591.228C663.552 641.963 660.093 696.225 677.282 746.068C685.534 769.97 697.96 792.226 712.141 813.08C724.567 831.367 739.11 849.34 758.671 860.356C763.475 863.003 768.539 865.147 773.783 866.755C779.016 868.401 781.064 860.444 776.027 858.621C756.427 851.536 740.982 836.463 728.516 820.234C714.442 801.966 702.506 782.145 692.942 761.16C672.568 716.08 670.716 665.796 678.478 617.57C680.438 605.193 683.035 592.914 685.984 580.732C688.699 569.472 692.09 558.398 694.912 547.167C698.411 533.251 700.057 518.747 705.751 505.409C708.054 500.029 711.19 494.316 716.805 492.836C722.685 491.278 729.153 492.424 735.102 493.042L754.31 495.002L793.363 499.02C802.918 500 815.903 499.304 820.274 509.849C823.743 518.296 822.097 528.469 821.097 537.24C819.955 547.535 818.194 557.752 815.825 567.835C811.15 587.435 803.516 606.624 791.05 622.617C787.97 626.534 784.599 630.212 780.966 633.623C778.026 636.357 782.328 640.483 785.288 637.954Z" fill="#382C80"/>
<path d="M833.102 500.784C845.391 544.499 843.562 590.979 827.879 633.594C815.658 666.551 795.107 697.294 792.53 732.397C791.295 749.126 794.284 765.845 797.254 782.377C805.662 829.006 815.658 875.575 822.93 922.38C826.448 945.008 803.104 943.019 784.582 944.636C758.289 946.939 731.388 945.871 705.32 946.596C704.499 946.704 703.666 946.538 702.948 946.126C702.391 945.656 702.005 945.015 701.851 944.303C700.508 939.795 702.301 934.807 705.32 931.2C708.338 927.594 712.454 925.095 716.502 922.674C742.031 907.455 746.45 892.931 740.306 865.364C734.014 837.12 728.271 808.7 724.42 780.016C714.532 706.222 714.277 629.723 733.71 557.144" fill="white"/>
<path d="M830.172 501.588C838.982 533.656 840.213 567.334 833.768 599.96C830.585 615.58 825.739 630.814 819.313 645.403C813.032 659.858 805.907 673.93 799.988 688.523C794.108 702.978 789.619 718.05 788.61 733.691C787.512 750.831 790.668 767.903 793.696 784.7C800.076 820.048 807.308 855.26 813.58 890.599C815.109 899.223 816.573 907.86 817.971 916.51C818.765 921.498 820.754 928.103 817.794 932.797C813.208 940.059 800.36 939.608 792.942 940.049C777.32 941.029 761.797 942.009 746.137 942.176C737.523 942.254 728.908 942.235 720.294 942.313C716.129 942.313 711.964 942.401 707.799 942.499C706.819 942.499 704.918 941.833 705.751 943.234C705.519 942.639 705.416 942.001 705.447 941.363C705.445 939.373 706.005 937.422 707.064 935.737C710.71 929.446 718.54 926.467 724.302 922.517C729.149 919.349 733.538 915.531 737.346 911.169C743.748 903.447 747.117 893.657 746.823 883.631C746.646 869.137 742.021 854.672 739.1 840.589C735.474 823.086 732.191 805.505 729.585 787.826C719.618 720.137 718.05 650.195 731.731 582.908C733.403 574.63 735.321 566.402 737.483 558.222C738.767 553.322 731.251 551.274 729.937 556.144C711.425 624.823 710.435 696.951 718.746 767.256C720.863 785.203 723.594 803.059 726.939 820.823C730.163 838.08 734.563 855.123 737.591 872.42C739.345 882.425 739.551 893.088 734.073 902.006C731.155 906.444 727.452 910.313 723.146 913.423C717.354 917.813 710.602 920.851 705.124 925.653C699.646 930.455 695.755 938.06 697.96 945.351C698.724 948.364 701.39 950.507 704.497 950.604C709.269 950.927 714.297 950.418 719.05 950.369C737.131 950.192 755.231 950.437 773.293 949.448C780.153 949.075 786.905 948.468 793.726 948.036C799.265 947.846 804.779 947.19 810.209 946.076C820.372 943.666 827.683 936.757 827.291 925.79C826.997 917.588 824.87 909.13 823.488 901.094C821.907 891.824 820.254 882.566 818.529 873.321C815.168 855.24 811.669 837.189 808.151 819.127C804.633 801.066 801.046 783.24 798.283 765.227C795.627 747.94 795.176 730.819 799.449 713.758C807.289 682.211 825.585 654.497 835.042 623.47C847.285 583.285 847.625 540.414 836.022 500.039C834.944 496.286 829.162 497.873 830.142 501.656L830.172 501.588Z" fill="#382C80"/>
<path d="M733.71 557.144C714.277 629.723 714.532 706.221 724.42 780.015C726.752 797.391 729.781 814.658 733.24 831.848C734.935 840.383 736.307 849.194 738.63 857.582C741.119 866.54 746.833 866.402 755.77 868.245C783.147 873.907 811.568 871.706 837.747 861.894C844.607 859.307 848.38 859.15 848.713 852.3C849.027 845.764 844.303 836.258 842.549 829.888C838.316 814.462 834.092 799.027 830.035 783.553C825.752 767.324 821.44 750.88 821.44 734.112C821.293 698.96 839.384 666.669 849.017 632.859C861.341 589.136 859.541 542.638 843.872 500" fill="white"/>
<path d="M730.78 556.33C716.188 609.76 712.239 665.443 715.032 720.568C716.462 748.484 719.483 776.296 724.077 803.868C726.4 817.892 729.114 831.847 731.839 845.803C733.799 855.72 735.014 867.049 746.137 870.303C757.26 873.556 769.559 874.889 781.113 875.203C794.379 875.617 807.643 874.299 820.568 871.283C827.041 869.698 833.415 867.734 839.658 865.403C843.578 863.991 848.057 862.933 850.575 859.376C856.455 851.085 849.684 838.982 847.018 830.75C842.696 817.373 839.492 803.516 835.885 789.933C832.2 776.056 828.173 762.091 826.379 747.793C823.028 721.147 830.868 696.068 839.952 671.353C844.441 659.122 849.135 646.951 852.741 634.426C863.633 596.208 863.924 555.747 853.584 517.375C851.892 511.136 849.912 504.985 847.645 498.922C845.911 494.247 838.374 496.246 840.099 500.999C848.748 524.867 853.11 550.074 852.986 575.46C852.869 600.94 847.782 625.538 839.335 649.509C831.073 672.95 821.019 696.019 818.108 720.921C814.972 747.763 823.204 774.057 830.084 799.684C833.465 812.238 836.326 825.164 840.775 837.384C842.432 841.922 844.764 846.988 844.637 851.918C844.539 855.72 841.951 856.112 838.757 857.249C826.722 861.502 814.658 865.011 801.909 866.412C789.235 867.857 776.426 867.613 763.816 865.687C758.867 864.903 753.781 864.07 748.93 862.806C745.323 861.826 743.491 860.14 742.423 856.534C738.571 843.519 736.69 829.652 734.22 816.354C729.279 789.769 725.714 762.946 723.538 735.994C719.324 682.995 721.029 629.35 732.093 577.234C733.465 570.779 734.984 564.356 736.65 557.967C737.63 554.174 731.819 552.567 730.77 556.35L730.78 556.33Z" fill="#382C80"/>
<path d="M765.805 297.591C703.468 301.511 675.087 348.179 634.25 380.479C635.632 379.392 581.624 303.334 576.685 296.317C564.386 278.853 553.165 261.841 536.505 248.072C521.09 235.332 502.793 225.532 482.85 222.592C480.342 222.094 477.765 222.061 475.245 222.494C472.711 222.968 470.54 224.59 469.365 226.884C467.405 231.294 469.845 235.145 472.805 238.35C476.01 241.829 480.341 243.524 478.871 248.532C478.799 248.86 478.644 249.164 478.42 249.414C477.911 249.875 477.117 249.64 476.46 249.414C474.034 248.651 471.397 248.965 469.218 250.277C467.051 251.645 465.817 254.1 466.014 256.656C466.464 260.723 467.435 262.468 463.015 261.948C459.732 261.566 457.066 260.694 454.087 262.928C448.285 267.221 452.862 272.248 454.028 277.148C451.784 276.051 449.188 275.924 446.848 276.797C444.507 277.669 442.628 279.465 441.651 281.764C438.515 290.241 446.492 293.73 451.02 298.6C457.546 305.617 462.054 316.24 466.866 324.472C477.107 342.054 486.966 359.88 498.491 376.677C522.295 411.369 556.134 440.975 598.245 450.255C629.468 457.115 662.553 448.237 690.159 432.116C717.766 415.995 757.534 387.036 779.555 363.908" fill="white"/>
<path d="M765.805 294.484C743.901 295.897 722.739 302.971 704.389 315.015C687.258 326.177 672.607 340.495 657.839 354.529C649.342 362.584 640.748 370.532 631.555 377.794L636.945 383.174C639.885 379.45 635.514 374.589 633.466 371.414C629.252 364.868 624.872 358.429 620.462 352.02C609.878 336.634 599.179 321.326 588.367 306.097C576.283 288.977 564.915 271.003 550.45 255.784C539.44 244.081 526.363 234.513 511.878 227.56C504.673 224.089 497.094 221.459 489.289 219.72C482.164 218.201 473.119 216.368 467.542 222.444C461.074 229.491 466.7 238.32 472.442 243.456C473.295 244.21 474.265 245.71 475.108 246.317V246.748C477.764 246.033 478.224 245.563 476.5 245.357C475.547 245.072 474.551 244.963 473.56 245.033C469.621 245.033 465.941 246.991 463.74 250.257C462.596 252.033 461.99 254.103 461.996 256.215C461.996 256.999 462.162 257.783 462.25 258.567C462.309 258.91 462.358 259.253 462.388 259.596C462.348 261.073 463.07 260.57 464.553 258.087C464.029 258.031 463.503 258.005 462.976 258.009C461.741 257.891 460.516 257.597 459.271 257.538C457.396 257.424 455.521 257.76 453.803 258.518C450.275 260.135 447.452 263.418 447.227 267.436C447.002 271.454 449.187 274.6 450.167 278.216L455.998 273.728C449.775 270.788 441.896 272.748 438.515 279.01C435.134 285.272 437.633 291.75 442.435 296.248C444.561 298.208 446.884 299.972 448.815 302.128C451.289 305.074 453.459 308.262 455.292 311.644C459.546 319.043 463.475 326.618 467.738 334.008C484.702 363.408 501.823 392.915 527.077 416.083C549.5 436.663 577.587 452.343 608.153 455.92C641.786 459.84 674.009 447.1 702.027 429.607C716.796 420.375 731.084 410.32 744.882 399.677C758.054 389.525 770.833 378.764 782.328 366.72C785.886 362.986 780.231 357.322 776.664 361.056C757.309 381.342 734.161 398.462 711.004 414.093C686.2 430.822 659.809 445.708 629.36 448.197C599.754 450.618 571.177 439.75 547.452 422.551C523.226 404.969 505.155 381.146 489.72 355.803C484.536 347.287 479.577 338.633 474.589 330.009C470.228 322.463 466.239 314.721 461.849 307.185C459.863 303.701 457.588 300.39 455.047 297.287C452.94 294.778 450.383 292.848 448.011 290.623C445.982 288.732 444.179 286.703 445.071 283.763C445.502 282.39 446.492 281.262 447.798 280.657C449.104 280.053 450.605 280.027 451.931 280.588C454.949 282.038 458.732 279.608 457.762 276.109C457.096 273.708 454.989 270.739 455.087 268.269C455.234 264.349 460.584 265.77 462.927 265.976C465.092 266.172 467.366 265.976 468.905 264.232C470.992 261.889 469.885 259.459 469.885 256.725C469.836 252.942 473.177 252.962 476.01 253.481C479.577 254.128 482.037 252.207 482.801 248.718C484.369 241.613 477.725 238.859 474.216 234.077C472.54 231.803 471.502 228.667 474.5 226.962C477.744 225.11 482.664 226.511 486.074 227.197C493.244 228.636 500.223 230.902 506.87 233.95C520.65 240.35 533.132 249.237 543.688 260.165C557.614 274.473 568.424 291.525 579.948 307.744C589.748 321.555 599.463 335.406 609.094 349.296C614.17 356.626 619.256 363.996 624.215 371.365C625.861 373.815 627.498 376.265 629.056 378.794C629.517 379.529 629.928 380.293 630.389 381.028C630.507 381.224 630.634 381.694 630.801 381.832C629.958 381.146 630.859 378.745 631.555 377.843C628.556 381.714 633.064 386.33 636.945 383.223C667.737 358.606 692.325 324.649 729.634 309.116C741.157 304.382 753.374 301.552 765.805 300.737C769.725 300.462 769.804 294.278 765.805 294.533V294.484Z" fill="#382C80"/>
<path d="M369.542 169.613C373.276 163.213 390.034 163.429 397.051 162.449C407.057 161.057 417.112 160.019 427.186 159.205C447.374 157.578 467.611 156.892 487.848 156.265C491.043 156.177 494.453 156.128 497.178 157.804C499.383 159.156 500.823 161.44 501.999 163.684C506.831 173.131 508.408 183.872 509.555 194.426C511.503 212.264 512.429 230.197 512.328 248.14C512.564 249.302 512.303 250.509 511.609 251.47C510.914 252.43 509.85 253.056 508.673 253.197C470.965 265.655 431.391 271.52 391.69 270.533C387.3 270.425 382.39 269.975 379.558 266.613C377.755 264.496 377.186 261.625 376.765 258.881C375.785 252.403 375.236 245.876 374.697 239.35C373.012 219.077 371.332 198.761 369.66 178.403" fill="#7F72FF"/>
<path d="M372.1 171.102C374.119 167.996 379.548 167.388 382.88 166.879C387.231 166.212 391.632 166.085 396.002 165.595C410.702 163.948 425.314 162.243 440.102 161.42C455.361 160.567 470.649 160.156 485.927 159.793C488.867 159.725 492.787 159.137 495.394 160.92C498.001 162.704 499.402 166.624 500.5 169.397C502.813 175.665 504.356 182.191 505.096 188.831C506.974 203.856 508.001 218.975 508.173 234.116C508.239 237.958 508.261 241.803 508.242 245.651C508.242 246.445 508.526 248.65 508.242 249.032C507.458 250.012 504.096 250.355 502.901 250.727C495.74 252.923 488.567 254.922 481.38 256.725C452.644 263.744 423.117 266.995 393.543 266.398C390.603 266.339 386.859 266.594 384.174 265.035C381.175 263.291 381.028 259.067 380.607 255.97C379.47 247.689 378.96 239.31 378.284 231C376.843 213.468 375.511 195.926 373.943 178.403C373.453 172.964 364.936 172.866 365.358 178.403C366.671 195.73 368.219 213.037 369.66 230.343C370.366 238.664 370.934 247.003 372.002 255.314C372.933 262.576 374.05 270.014 381.636 273.169C388.221 275.864 396.483 274.992 403.45 274.924C411.702 274.845 419.944 274.47 428.176 273.797C444.6 272.467 460.911 269.992 476.99 266.388C485.045 264.585 493.029 262.491 500.941 260.106C507.546 258.146 516.101 257.029 516.444 248.64C517.15 231.559 515.464 213.997 513.671 197.033C512.858 189.438 511.976 181.775 509.986 174.385C508.281 168.064 505.831 160.077 500.519 155.814C494.639 151.12 485.712 152.874 478.812 153.159C470.198 153.492 461.584 153.864 452.98 154.344C434.075 155.383 415.318 157.206 396.532 159.489C391.191 160.146 385.801 160.313 380.479 161.234C375.501 162.096 369.885 163.605 366.975 168.094C364.897 171.308 370.023 174.278 372.1 171.034V171.102Z" fill="#382C80"/>
<path d="M771.382 378.911C749.361 402.088 709.642 430.988 681.986 447.119C654.33 463.25 621.295 472.129 590.072 465.259C547.932 455.978 514.122 426.373 490.318 391.681C486.064 385.477 482.478 376.471 477.225 371.208C472.825 366.798 465.19 366.034 465.024 357.812C464.896 352.128 470.698 346.777 476.186 348.237C477.581 348.69 478.924 349.287 480.194 350.021C488.015 353.93 497.013 354.783 505.429 352.412C511.995 350.54 517.189 346.757 522.589 342.798C526.989 339.574 531.781 332.841 537.122 331.744C540.435 331.058 543.786 332.4 546.922 333.704L560.966 339.584C556.948 337.888 552.989 312.751 554.243 308.508C557.536 297.365 562.74 289.712 562.544 277.246C562.48 276.506 562.574 275.762 562.818 275.061C563.7 273.052 566.807 273.052 568.443 274.512C570.08 275.972 570.678 278.236 571.295 280.343C577.949 302.883 595.187 322.395 608.447 341.456C610.201 343.974 635.779 379.274 634.27 380.46C675.106 348.12 703.487 301.511 765.825 297.571" fill="#7F72FF"/>
<path d="M769.186 376.716C748.107 398.678 722.734 416.847 697.274 433.351C684.299 441.759 670.99 449.766 656.447 455.195C640.591 461.075 623.686 464.407 606.732 463.564C575.578 462.025 546.295 445.64 523.834 424.805C512.758 414.488 502.85 402.986 494.287 390.505C489.847 384.047 486.878 376.648 481.909 370.542C480.179 368.428 478.109 366.617 475.784 365.182C473.677 363.849 470.884 362.722 469.61 360.439C468.867 358.912 468.806 357.142 469.443 355.568C470.081 353.995 471.356 352.766 472.952 352.187C474.912 351.521 476.47 352.589 478.195 353.432C480.354 354.51 482.599 355.405 484.908 356.107C494.106 358.775 503.964 357.977 512.613 353.863C520.531 350.129 526.558 344.278 533.046 338.614C537.034 335.135 539.906 335.155 544.806 337.095C549.862 339.104 554.86 341.319 559.888 343.426C564.043 345.18 566.914 338.212 562.955 336.154C562.455 335.899 563.347 336.703 562.955 336.154C563.367 336.752 562.887 335.958 562.769 335.743C562.359 334.914 562.012 334.056 561.73 333.175C560.876 330.512 560.185 327.798 559.662 325.051C558.682 320.229 557.546 314.81 558.026 309.871C558.026 309.469 557.869 310.508 558.026 309.724C558.183 308.94 558.575 307.93 558.869 307.058C559.564 304.971 560.339 302.913 561.132 300.855C562.668 297.105 563.977 293.266 565.052 289.359C565.538 287.371 565.901 285.355 566.14 283.322C566.277 282.264 566.375 281.196 566.434 280.118C566.508 279.562 566.527 279.001 566.493 278.442V277.286L565.66 277.54C565.66 277.619 566.473 278.687 566.552 278.844C566.89 279.702 567.168 280.583 567.385 281.48C568.051 283.695 568.796 285.89 569.639 288.056C576.381 305.323 587.808 320.033 598.676 334.851C604.233 342.426 609.652 350.119 615.052 357.812C618.59 362.849 622.098 367.906 625.479 373.041C626.734 375.001 627.998 376.903 629.154 378.921C629.546 379.598 629.909 380.274 630.271 380.97C630.634 381.665 630.35 380.842 630.271 380.921C630.193 380.999 630.36 381.117 630.34 381.156C630.84 379.784 628.703 380.999 631.369 377.726C629.929 379.316 629.989 381.756 631.504 383.275C633.02 384.793 635.46 384.857 637.053 383.42C667.854 358.88 692.531 325.041 729.869 309.88C741.338 305.244 753.465 302.443 765.805 301.58C770.911 301.217 770.97 293.24 765.805 293.573C743.747 294.96 722.447 302.155 704.065 314.428C686.984 325.737 672.382 340.202 657.623 354.284C649.156 362.369 640.591 370.346 631.428 377.628L637.112 383.322C639.934 379.852 636.847 375.825 634.917 372.718C631.869 367.818 628.576 363.075 625.293 358.332C619.06 349.365 612.759 340.427 606.301 331.607C593.884 314.653 581.193 298.189 574.745 277.923C573.392 273.669 570.678 269.534 565.719 269.495C559.917 269.446 558.653 274.208 558.535 278.971C558.3 288.771 553.518 297.287 550.695 306.411C548.814 312.497 550.607 319.994 551.764 326.011C552.744 330.911 553.841 340.329 558.937 342.965L562.005 335.694C557.32 333.734 552.655 331.774 547.961 329.814C543.639 328.03 539.073 326.648 534.476 328.344C531.193 329.549 528.489 331.911 525.97 334.282C522.894 337.282 519.591 340.041 516.092 342.534C508.506 347.748 500.186 350.864 490.847 349.316C482.772 347.973 475.657 340.829 467.562 346.052C461.359 350.051 459.065 358.684 463.162 364.986C464.828 367.544 467.376 369.268 469.943 370.866C472.809 372.451 475.286 374.654 477.195 377.314C481.978 384.174 485.457 391.769 490.386 398.57C495.102 405.11 500.163 411.394 505.547 417.396C527.244 441.553 555.125 460.996 587.034 468.552C622.314 476.892 658.094 466.034 688.297 447.629C703.761 438.14 718.695 427.815 733.034 416.7C747.254 405.744 761.199 394.16 773.577 381.146C776.321 378.206 771.96 373.865 769.186 376.756V376.716Z" fill="#7F72FF"/>
<path d="M724.244 347.169C709.406 371.336 706.417 399.364 703.213 426.324C701.576 440.044 699.93 453.832 696.666 467.356C693.962 478.548 686.974 490.827 688.258 502.48C688.885 508.203 694.138 512.515 699.587 515.455C715.267 524 734.338 525.833 752.703 526.019C785.562 526.333 819.245 521.727 848.184 507.331C854.221 504.332 860.434 500.471 862.512 494.483C864.893 487.672 861.169 480.557 858.484 473.903C851.624 456.792 850.164 436.408 850.556 418.278C851.32 382.861 837.11 351.765 817.883 322.855C812.375 314.584 806.181 305.862 796.813 302.569" fill="#7F72FF"/>
<path d="M721.647 345.65C700.087 380.137 702.135 421.61 694.011 460.085C691.992 469.669 688.131 478.509 685.534 487.917C683.211 496.482 682.358 505.753 688.709 512.77C694.53 519.199 703.732 522.815 711.817 525.333C721.186 528.089 730.847 529.734 740.6 530.233C760.361 531.509 780.204 530.555 799.753 527.391C818.52 524.353 838.159 519.061 854.633 509.389C862.473 504.793 868.882 497.629 867.951 488.005C867.461 482.929 865.422 478.362 863.502 473.697C861.73 469.37 860.266 464.923 859.121 460.389C856.864 450.968 855.586 441.339 855.309 431.655C854.936 422.13 855.534 412.624 854.584 403.127C852.712 384.458 846.92 366.603 838.717 349.786C834.561 341.355 829.914 333.174 824.801 325.286C820.146 318.034 815.305 310.302 808.592 304.755C805.395 302.077 801.744 299.992 797.812 298.601C792.716 296.788 790.717 304.696 795.607 306.617C802.957 309.508 807.945 316.358 812.208 322.679C817.108 329.97 821.783 337.428 825.997 345.131C834.19 360.135 840.599 376.109 843.755 392.955C846.998 410.301 844.833 427.912 846.822 445.365C847.721 454.467 849.654 463.436 852.584 472.1C854.976 478.842 861.571 488.554 856.504 495.443C851.898 501.735 842.275 505.096 835.336 507.87C827.157 511.113 818.744 513.733 810.17 515.71C792.256 519.875 773.861 521.413 755.496 521.462C737.748 521.521 718.775 520.561 702.703 512.241C699.606 510.633 696.333 508.762 694.177 505.949C691.835 502.872 692.109 498.785 692.658 495.169C693.991 486.349 698.136 478.205 700.361 469.601C710.71 429.636 705.192 385.585 726.743 348.796C728.703 345.435 723.597 342.485 721.539 345.758L721.647 345.65Z" fill="#7F72FF"/>
<path d="M517.64 253.295C514.052 253.374 510.552 252.18 507.762 249.924C503.949 246.827 501.45 241.76 496.707 240.486C492.234 239.477 487.775 242.229 486.672 246.68C486.365 248.833 486.553 251.029 487.221 253.099C488.985 259.9 492.297 264.81 496.305 270.347C494.669 271.748 491.141 271.709 488.995 272.562C486.466 273.597 484.102 274.997 481.978 276.717C477.941 279.989 474.65 284.085 472.325 288.732C470.776 291.779 469.591 295.592 471.345 298.473" fill="white"/>
<path d="M517.64 250.169C510.359 250.041 507.84 243.74 502.94 239.634C498.363 235.772 492.209 235.184 487.319 238.859C476.059 247.307 486.496 264.153 492.503 272.562L494.071 266.564C492.719 267.485 490.974 267.485 489.406 267.867C487.51 268.364 485.688 269.109 483.987 270.082C480.353 272.116 477.103 274.769 474.383 277.922C469.297 283.743 463.26 292.897 467.787 300.58C470.071 304.5 477.225 301.844 475.353 297.395C473.119 292.064 479.508 284.9 483.115 281.538C485.241 279.415 487.779 277.747 490.572 276.638C493.258 275.658 496.06 275.796 498.501 274.13C500.304 272.895 501.548 270.151 500.078 268.132C497.423 264.506 484.065 246.092 494.11 244.259C498.148 243.524 501.264 248.895 503.822 251.217C507.602 254.639 512.542 256.496 517.64 256.411C521.658 256.411 521.648 250.247 517.64 250.169Z" fill="#382C80"/>
<path d="M836.062 353.343C877.741 351.53 840.962 308.067 877.555 328.147C922.733 352.931 957.513 395.767 948.938 450.118C943.773 482.889 921.498 497.452 894.558 511.76C866.422 526.676 833.396 528.567 801.566 529.233C787.689 529.527 773.655 529.635 760.141 526.499C750.557 524.275 741.109 520.296 733.436 514.043C723.636 506.086 726.645 502.577 723.822 491.866C722.597 487.191 717.531 484.202 716.629 479.459C716.09 476.627 717.168 473.765 717.335 470.884C717.609 466.327 715.62 461.966 714.796 457.478C713.816 452.088 715.375 447.756 719.696 444.522C724.41 441.033 730.359 441.582 735.239 438.573C740.423 435.408 736.993 430.43 737.199 424.03C737.327 420.669 737.65 416.876 740.267 414.769C746.656 409.634 751.458 417.337 755.741 420.473C762.542 425.461 772.989 427.637 781.142 429.185C793.51 431.547 806.162 431.508 818.676 430.635C829.662 429.881 839.903 430.194 850.752 429.94C849.262 429.94 844.49 421.218 843.47 419.973C840.047 415.772 836.552 411.633 832.984 407.556C825.85 399.403 818.431 391.511 810.729 383.88" fill="white"/>
<path d="M836.062 356.42C843.598 356.058 851.987 354.46 857.004 348.306C860.581 343.896 861.453 338.408 861.904 332.91C861.966 331.047 862.176 329.193 862.531 327.363C862.639 326.883 862.786 326.501 862.678 326.795C862.737 326.648 863.306 325.55 862.874 326.373C863.041 326.06 863.217 326.109 863.296 326.109C870.616 326.736 878.829 332.44 885.297 336.526C904.632 348.737 922.008 364.829 933.415 384.811C944.984 404.848 949.091 428.333 945.008 451.108C943.171 461.819 938.589 471.87 931.71 480.282C924.987 488.279 916.549 494.492 907.67 499.882C896.89 506.409 885.748 512.319 873.743 516.131C860.366 520.384 846.42 522.55 832.455 523.687C818.147 524.853 803.692 525.264 789.335 525.147C774.978 525.029 759.935 523.765 746.793 517.307C741.462 514.7 735.269 511.201 731.809 506.203C729.712 503.156 729.702 499.245 729.153 495.717C728.853 493.012 728.142 490.369 727.046 487.877C725.674 485.133 723.352 483.066 721.823 480.429C720.294 477.793 721.441 474.824 721.725 471.884C721.931 468.278 721.476 464.664 720.382 461.221C718.805 455.341 717.972 449.618 724.694 446.796C730.31 444.434 737.67 444.63 741.256 438.828C744.196 434.026 741.59 428.225 741.854 423.031C741.942 421.247 742.138 417.602 744.637 417.464C746.225 417.376 747.989 419.424 749.028 420.404C758.338 428.989 770.274 431.919 782.514 433.948C797.998 436.516 813.188 435.075 828.741 434.712C836.111 434.536 843.441 434.624 850.85 434.467C855.838 434.36 857.298 426.549 852.065 425.461C854.113 425.883 853.359 426.608 852.741 425.618C852.251 424.844 851.693 424.128 851.193 423.364C850.321 422.031 849.507 420.659 848.655 419.307C846.116 415.25 842.706 411.653 839.609 408.027C831.442 398.562 822.759 389.555 813.6 381.048C809.827 377.529 804.378 382.959 807.936 386.712C817.082 396.394 825.99 406.322 834.66 416.494C837.489 419.752 840.083 423.207 842.422 426.833C844.078 429.45 846.224 433.693 849.566 434.36L850.791 425.353C842.598 425.53 834.405 425.422 826.213 425.696C817.853 425.971 809.553 426.755 801.144 426.598C793.415 426.44 785.718 425.561 778.153 423.972C771.803 422.649 765.198 421.11 759.631 417.631C755.172 414.838 752.213 409.869 746.725 408.762C740.237 407.459 734.494 412.466 733.289 418.64C732.702 421.685 732.592 424.803 732.966 427.882C733.162 429.509 734.367 432.782 733.446 434.33C732.103 436.516 726.449 436.898 724.224 437.554C720.796 438.471 717.641 440.207 715.032 442.611C709.906 447.59 709.328 454.273 710.955 460.908C711.758 464.191 713.062 467.444 712.915 470.884C712.699 474.53 711.543 477.852 712.601 481.507C713.503 484.643 715.669 486.995 717.58 489.534C719.203 491.84 720.215 494.521 720.52 497.325C721.294 501.735 721.5 506.145 723.881 510.065C727.115 515.376 732.77 519.375 738.032 522.462C744.252 526.043 750.955 528.71 757.936 530.38C773.489 534.173 789.668 533.761 805.554 533.32C835.258 532.516 865.912 530.233 893.019 516.983C913.099 507.183 934.414 494.228 945.145 473.863C956.533 452.254 956.317 424.501 948.732 401.706C941.147 378.911 925.81 359.262 907.288 344.18C897.891 336.454 887.709 329.737 876.908 324.139C872.145 321.699 863.521 316.887 858.572 321.532C855.25 324.658 855.711 330.127 855.358 334.272C854.946 339.329 853.525 344.425 848.723 347.247C844.921 349.472 840.354 350.08 835.983 350.315C832.063 350.53 832.063 356.646 835.983 356.459L836.062 356.42Z" fill="#382C80"/>
<path d="M801.056 376.52C808.749 384.144 825.909 399.452 833.043 407.605C836.61 411.682 840.106 415.821 843.529 420.022C844.509 421.267 849.321 430.018 850.811 429.989C839.962 430.243 829.721 429.93 818.735 430.684C813.247 431.067 807.749 431.292 802.252 431.214C799.723 431.214 796.528 431.537 794.078 430.88C793.098 430.635 790.403 428.636 789.639 428.754C784.269 429.616 783.984 452.097 783.289 457.095C782.683 458.807 783.499 460.695 785.16 461.427L798.057 470.022C798.699 470.355 799.207 470.898 799.498 471.56C799.811 472.648 798.92 473.677 798.106 474.451C792.51 479.753 783.926 485.084 782.426 493.071C780.29 504.184 781.701 517.209 783.014 528.351C784.533 541.15 797.714 536.828 806.279 536.191C819.999 535.162 833.621 536.926 847.498 534.888C876.008 530.742 902.927 519.173 925.555 501.342C935.875 493.012 945.332 483.34 951.78 471.776C965.853 446.296 963.256 413.789 949.82 387.986C936.384 362.182 913.276 342.475 888.08 327.922C856.571 309.758 821.429 298.801 785.18 295.836" fill="#7F72FF"/>
<path d="M798.9 378.646C808.21 387.898 818.118 396.522 827.212 405.979C832.112 411.104 837.277 416.602 841.275 422.472C843.392 425.569 845.803 432.272 849.938 433.154L850.83 426.598C844.068 426.725 837.316 426.598 830.564 426.755C823.812 426.911 817.206 427.402 810.523 427.607C807.446 427.705 804.368 427.656 801.301 427.676C798.479 427.676 796.078 427.98 793.588 426.588C790.531 424.883 787.708 424.716 785.307 427.568C781.064 432.586 781.015 441.504 780.476 447.688C780.211 450.628 780.064 453.646 779.741 456.605C779.055 462.946 784.063 465.024 788.708 468.14L792.461 470.659L794.608 472.099L795.147 472.462C796.274 473.442 796.509 473.442 795.862 472.462L795.499 471.766C795.186 472.07 794.862 472.364 794.519 472.658L793.167 473.834C792.109 474.745 791.031 475.637 789.962 476.549C786.238 479.724 782.397 483.222 780.251 487.711C777.85 492.699 777.614 498.755 777.487 504.204C777.433 510.587 777.786 516.967 778.545 523.304C779.045 528.038 779.153 533.281 782.563 537.024C785.102 539.788 788.649 540.944 792.295 541.199C795.94 541.454 799.527 540.856 803.075 540.415C808.676 539.827 814.311 539.611 819.941 539.768C833.18 539.896 845.95 539.621 858.954 536.887C870.777 534.365 882.301 530.6 893.333 525.656C914.971 516.013 935.963 501.548 950.114 482.311C964.02 463.417 967.921 439.465 964.089 416.651C960.257 393.837 948.252 373.168 932.415 356.498C916.422 339.662 896.616 326.52 875.85 316.319C853.202 305.186 828.682 297.032 803.643 293.612C797.459 292.769 791.276 292.191 785.023 291.868C779.78 291.593 780.025 299.306 785.023 299.874C829.995 305.039 875.379 320.238 910.894 349.011C927.094 362.133 941.431 378.48 949.418 397.933C957.405 417.386 959.404 439.955 952.26 460.055C944.861 480.861 926.996 496.501 908.768 507.948C889.78 519.863 868.515 527.687 846.332 530.919C833.876 532.702 821.224 531.331 808.7 532.026C804.986 532.232 801.33 532.869 797.626 533.232C794.97 533.496 791.423 533.977 789.041 532.428C785.974 530.468 786.385 524.784 786.052 521.648C785.368 515.872 785.041 510.06 785.072 504.243C785.16 499.236 785.17 493.532 788.012 489.22C790.59 485.3 794.529 482.438 798.008 479.42C801.183 476.666 805.466 472.56 801.713 468.307C799.968 466.347 797.165 465.034 795.009 463.603L791.236 461.104C790.256 460.467 787.454 459.301 786.924 458.252C786.18 456.762 787.209 452.656 787.336 450.961C787.571 447.599 787.806 444.228 788.316 440.896C788.776 438.068 789.464 435.283 790.374 432.566C790.678 431.586 790.541 432.076 790.541 432.115C790.658 432.645 788.365 431.468 790.315 432.889C792.012 434.001 793.982 434.624 796.009 434.693C808.014 435.673 820.333 433.713 832.347 433.546C838.492 433.438 844.637 433.448 850.781 433.291C854.397 433.203 855.485 427.519 851.663 426.735C852.859 426.98 852.29 427.392 851.771 426.549C851.555 426.196 851.252 425.873 851.007 425.569C850.242 424.51 849.546 423.393 848.851 422.286C847.697 420.354 846.42 418.498 845.029 416.729C840.423 411.094 835.719 405.508 830.583 400.344C821.714 391.416 812.189 383.164 803.202 374.354C800.37 371.581 796.048 375.903 798.851 378.696L798.9 378.646Z" fill="#7F72FF"/>
<path d="M798.9 378.647C808.063 388.025 817.863 396.787 826.84 406.351C831.661 411.487 836.728 416.984 840.619 422.855C842.863 426.216 845.274 432.998 849.713 433.978L850.83 425.755C843.255 425.834 835.679 425.657 828.104 425.755C820.333 425.863 812.591 426.637 804.809 426.628C800.42 426.698 796.031 426.413 791.687 425.775C789.437 425.36 787.167 425.063 784.886 424.883C784.082 424.883 783.259 424.815 782.456 424.883C781.887 424.883 779.3 425.089 781.074 425.001C775.948 425.246 775.909 433.262 781.074 433.007C779.839 433.076 780.858 433.056 781.554 433.243C782.25 433.429 783.181 433.654 783.994 433.831C786.023 434.262 788.091 434.487 790.129 434.811C794.993 435.545 799.91 435.873 804.829 435.791C812.404 435.742 819.95 435.036 827.506 434.742C835.287 434.428 843.069 434.438 850.85 434.183C855.358 434.036 856.73 426.902 851.957 425.961C853.613 426.285 853.094 427.02 852.428 425.961C852.241 425.677 851.987 425.403 851.781 425.128C850.997 424.08 850.301 422.962 849.605 421.865C848.403 419.884 847.071 417.985 845.617 416.181C840.942 410.614 836.199 405.068 831.005 399.962C822.028 391.142 812.385 382.998 803.271 374.325C800.399 371.591 796.156 375.824 798.92 378.666L798.9 378.647Z" fill="#382C80"/>
<path d="M760.955 523.52C754.794 522.035 748.86 519.727 743.315 516.66C738.905 514.141 733.965 510.947 731.104 506.635C729.144 503.695 729.075 500.078 728.595 496.678C728.122 491.935 726.337 487.419 723.44 483.634C721.96 481.674 720.441 479.881 720.5 477.333C720.598 473.971 721.666 470.923 721.284 467.533C720.726 462.476 717.109 456.174 719.501 451.225C722.029 446.002 728.86 446.012 733.603 444.287C738.709 442.435 742.648 439.064 742.648 433.301C742.648 430.528 741.815 427.833 741.766 425.059C741.766 423.021 741.57 419.562 743.403 418.199C744.892 417.072 746.186 418.278 747.431 419.248C749.417 420.984 751.53 422.569 753.752 423.991C757.672 426.245 761.817 420.973 758.603 417.7C754.947 413.985 751.674 409.468 746.117 408.674C739.787 407.753 734.416 412.702 733.24 418.689C732.651 421.738 732.545 424.86 732.927 427.941C733.113 429.499 734.328 432.899 733.426 434.379C732.221 436.339 727.252 436.8 725.224 437.319C721.775 438.171 718.563 439.788 715.826 442.053C710.926 446.306 709.524 452.431 710.671 458.615C711.298 461.986 712.768 465.22 713.14 468.63C713.542 472.295 712.082 475.814 712.582 479.479C713.434 485.692 719.295 489.122 720.647 495.159C721.627 499.383 721.627 503.832 723.47 507.82C726.076 513.573 731.809 517.689 737.033 520.884C743.933 524.949 751.45 527.858 759.289 529.498C763.13 530.351 764.777 524.598 760.925 523.618L760.955 523.52Z" fill="#382C80"/>
<path d="M742.922 234.165C733.505 243.142 731.29 260.625 730.329 272.875C729.914 276.192 730.133 279.558 730.976 282.793C733.446 290.574 740.845 293.465 748.175 294.553C751.635 295.072 752.644 297.405 752.438 300.766L751.674 313.075C751.311 318.955 751.311 325.736 755.8 329.529C758.573 331.891 762.493 332.469 766.119 332.116C768.562 331.917 770.943 331.251 773.136 330.156C780.839 326.148 785.258 315.809 786.013 307.616C786.986 295.853 787.215 284.04 786.699 272.248C786.454 265.143 785.876 258.038 785.719 250.933C785.572 245.7 784.22 241.574 780.28 237.811C773.544 231.431 764.409 228.223 755.163 228.991" fill="white"/>
<path d="M740.639 231.882C734.759 237.556 731.574 245.376 729.614 253.187C727.654 260.998 725.939 270.249 726.439 278.442C726.997 287.732 732.828 294.22 741.492 297.062C743.342 297.603 745.22 298.048 747.117 298.394C748.695 298.728 748.489 298.914 748.43 300.795C748.244 306.009 747.528 311.203 747.45 316.417C747.274 325.403 750.684 334.429 760.523 336.144C769.814 337.771 778.379 333.704 783.818 326.217C789.257 318.729 790.492 309.743 791.06 300.678C791.726 289.12 791.726 277.534 791.06 265.976C790.531 255.529 791.981 243.436 784.288 235.214C776.997 227.423 765.668 223.562 755.153 224.502C749.43 225.022 749.273 233.901 755.153 233.558C762.803 232.974 770.374 235.44 776.213 240.418C782.505 246.004 781.113 254.52 781.603 262.193C782.171 271.856 782.514 281.519 782.377 291.191C782.26 299.306 782.573 308.234 779.437 315.897C776.762 322.561 771.705 327.951 764.1 327.941C754.898 327.941 755.447 318.671 755.819 311.86C756.162 305.558 758.847 295.082 751.684 291.544C748.812 290.123 745.314 290.241 742.295 289.075C739.07 288.011 736.414 285.684 734.935 282.626C733.201 278.608 733.955 273.806 734.289 269.533C734.583 265.59 735.08 261.665 735.778 257.773C737.229 250.1 739.561 242.093 745.186 236.38C748.126 233.44 743.618 228.932 740.619 231.823L740.639 231.882Z" fill="#382C80"/>
<path d="M766.727 288.83C760.023 290.457 752.507 290.408 745.676 290.016C741.256 289.771 740.129 297.15 744.608 297.856C752.655 299.291 760.949 298.156 768.314 294.612C771.783 293.171 770.588 287.889 766.727 288.83Z" fill="#382C80"/>
<path d="M788.786 274.218C789.815 274.326 791.079 273.394 792.638 270.866C799.984 258.634 805.361 245.323 808.572 231.421C810.287 224.179 810.689 216.809 812.061 209.606C813.286 203.158 810.973 197.278 806.181 192.682C801.683 188.399 795.813 185.871 789.913 183.979C775.756 179.474 760.781 178.136 746.048 180.059C741.981 180.588 737.836 181.412 734.377 183.617C725.557 189.261 728.644 204.353 729.477 213.281C730.457 224.061 732.779 234.714 735.063 245.308C738.375 242.299 743.412 242.554 747.861 242.985C755.76 243.759 761.807 245.553 767.746 250.982C771.744 254.637 772.136 258.822 772.646 264.055C772.385 261.356 772.72 258.633 773.626 256.078C774.606 253.353 776.879 250.531 779.751 250.923C781.578 251.307 783.067 252.625 783.671 254.392C784.24 256.135 784.518 257.959 784.494 259.792C784.621 262.565 785.444 273.865 788.786 274.218Z" fill="#382C80"/>
<path d="M788.786 277.227C791.864 277.178 793.755 274.796 795.352 272.454C797.972 268.506 800.313 264.38 802.359 260.106C806.216 252.352 809.368 244.267 811.777 235.949C812.949 231.649 813.83 227.275 814.413 222.856C815.09 218.103 816.06 213.35 816.618 208.587C817.51 201.032 814.09 193.789 808.455 188.84C801.938 183.098 793.549 180.275 785.219 178.354C776.686 176.31 767.962 175.167 759.19 174.944C750.713 174.797 740.678 174.944 733.122 179.266C727.487 182.47 724.939 188.154 724.224 194.368C723.46 201.071 724.655 207.843 725.361 214.497C726.507 225.277 728.82 235.802 731.241 246.327C731.956 249.473 735.719 249.865 737.866 248.081C740.463 245.925 744.784 246.611 747.862 246.954C751.224 247.259 754.525 248.047 757.662 249.297C760.853 250.57 763.695 252.586 765.952 255.177C767.912 257.656 768.079 261.057 768.383 263.997C768.912 269.328 777.203 269.514 776.86 263.997C776.586 261.676 776.875 259.323 777.703 257.137C778.3 255.804 778.741 254.765 779.565 255.647C780.839 257.019 780.358 262.144 780.545 264.085C781.093 268.75 781.868 277.011 787.62 278.216C792.853 279.314 795.117 271.356 789.845 270.141C791.06 270.435 790.697 271.494 790.325 270.033C790.158 269.387 789.923 268.75 789.766 268.073C789.371 266.432 789.093 264.766 788.933 263.085C788.522 258.979 788.933 254.559 786.63 250.933C785.339 248.729 783.14 247.206 780.622 246.772C778.104 246.337 775.523 247.035 773.567 248.679C769.206 252.276 768.001 258.587 768.344 263.957H776.821C776.311 258.969 775.723 254.089 772.548 250.012C769.418 246.254 765.366 243.373 760.788 241.653C756.299 239.984 751.578 239.025 746.793 238.811C741.403 238.409 736.494 238.987 732.152 242.407L738.777 244.152C736.043 230.647 733.583 217.094 732.593 203.325C732.28 198.944 731.907 193.593 734.249 189.605C737.248 184.548 745.529 184.264 750.713 183.725C765.649 182.294 781.093 184.029 794.813 190.35C800.488 192.966 806.573 197.21 807.72 203.766C808.298 206.902 807.465 210.038 807.034 213.135C806.505 216.986 806.054 220.857 805.486 224.689C804.133 233.005 802.034 241.181 799.214 249.12C797.785 253.122 796.149 257.048 794.314 260.88C793.464 262.664 792.572 264.425 791.638 266.162C791.276 266.839 789.129 271.151 788.777 271.18C784.964 271.464 784.876 277.295 788.786 277.227Z" fill="#382C80"/>
<path d="M867.676 899.438C863.051 899.83 858.288 895.744 858.798 890.844C859.248 886.571 864.099 884.101 868.039 884.836C872.527 885.679 873.919 890.501 875.115 894.274C876.31 898.047 877.457 901.408 880.211 904.172C882.092 906.063 884.562 903.672 883.641 901.526C881.583 896.724 885.15 889.393 890.844 889.57C896.136 889.736 899.487 896.587 896.596 900.869L900.712 902.594C901.839 898.439 907.151 895.577 911.081 898.047C914.667 900.291 915.089 905.808 912.335 908.827C911.451 909.723 911.451 911.164 912.335 912.061C914.903 914.187 917.617 914.256 920.753 913.384C924.291 912.404 928.172 910.248 931.21 913.443C937.737 920.303 929.701 929.123 924.889 934.081C922.841 936.188 926.045 939.403 928.123 937.315C934.16 931.22 940.951 923.105 936.943 914.031C935.443 910.591 932.552 907.719 928.73 907.171C926.828 906.97 924.905 907.187 923.095 907.808C921.057 908.386 917.48 910.444 915.52 908.788V912.022C920.204 906.877 919.528 897.851 913.325 894.097C906.886 890.177 898.213 894.382 896.322 901.379C895.646 903.907 899.036 905.181 900.438 903.104C905.22 895.989 899.33 885.199 890.795 885.081C881.494 884.964 876.369 895.92 879.819 903.701L883.249 901.055C878.78 896.685 879.142 889.57 875.242 884.758C871.92 880.662 866.422 879.721 861.63 881.749C856.838 883.778 853.907 888.609 855.132 893.833C856.446 899.37 861.924 903.633 867.627 902.917C869.823 902.653 869.901 899.223 867.627 899.409L867.676 899.438Z" fill="#382C80"/>
<path d="M882.2 929.916C885.728 927.956 889.824 927.956 892.98 930.671C894.813 932.268 897.508 929.593 895.665 927.986C891.334 924.213 884.768 923.664 880.201 927.339C878.711 928.535 880.622 930.779 882.161 929.916H882.2Z" fill="#382C80"/>
<path d="M765.747 546.933C761.699 559.673 776.879 567.826 782.867 576.813C788.267 584.908 785.935 595.021 785.16 604.125C784.239 614.833 783.328 625.545 782.426 636.26C779.016 676.44 774.194 716.933 776.311 757.299C777.467 779.281 780.878 801.194 788.071 822.048C788.933 824.518 792.863 823.469 791.991 820.96C779.398 783.397 778.751 743.54 781.123 704.409C782.338 684.24 784.229 664.101 785.935 643.972L788.551 613.122C788.982 607.977 789.423 602.842 789.845 597.697C790.247 592.885 790.825 587.985 789.923 583.193C788.541 575.823 783.063 570.511 777.918 565.474C773.155 560.809 766.687 555.194 768.863 547.834C769.461 545.796 766.335 544.953 765.698 546.962L765.747 546.933Z" fill="#382C80"/>
<path d="M822.93 922.38C822.002 916.363 821.022 910.352 819.99 904.348C817.868 904.697 815.798 905.306 813.825 906.161C800.411 911.208 786.239 913.945 771.911 914.256C770.036 914.43 768.148 914.151 766.403 913.443C763.257 911.875 762.111 908.072 760.886 904.779C759.455 900.977 757.426 897.253 754.232 894.754C751.635 892.725 746.862 891.226 742.305 890.834C740.463 903.574 732.77 912.962 716.492 922.674C712.444 925.095 708.338 927.574 705.31 931.2C702.282 934.826 700.498 939.795 701.841 944.303C701.996 945.015 702.382 945.656 702.938 946.126C703.656 946.538 704.489 946.704 705.31 946.596C731.378 945.881 758.23 946.949 784.572 944.636C803.104 942.96 826.448 944.989 822.93 922.38Z" fill="#382C80"/>
<path d="M824.821 921.841C823.88 915.824 822.9 909.813 821.881 903.809C821.573 902.782 820.511 902.177 819.47 902.437C815.736 903.025 812.257 904.701 808.69 905.887C804.809 907.194 800.889 908.294 796.93 909.19C788.557 911.174 779.987 912.213 771.382 912.286C766.482 912.286 764.825 909.66 763.267 905.495C762.271 902.491 760.867 899.639 759.092 897.018C755.065 891.51 748.9 889.56 742.344 888.845C741.461 888.844 740.687 889.434 740.453 890.285C738.13 905.191 726.831 914.109 714.61 921.518C708.495 925.222 702.174 929.623 700.087 936.865C699.293 939.638 699.028 943.303 700.439 945.949C702.203 949.252 705.908 948.507 709.073 948.439C727.968 948.027 746.862 948.439 765.747 947.713C774.077 947.4 782.407 946.655 790.668 946.145C796.354 945.942 802.023 945.389 807.642 944.489C812.542 943.558 817.834 941.853 821.303 938.011C825.35 933.543 825.654 927.535 824.85 921.841C824.498 919.352 820.725 920.411 821.077 922.88C821.734 927.545 821.401 932.68 817.736 936.061C814.57 939.001 810.043 940.118 805.907 940.844C800.857 941.587 795.769 942.051 790.668 942.235C783.612 942.666 776.585 943.323 769.529 943.646C752.722 944.411 735.896 944.205 719.069 944.372C715.149 944.411 711.197 944.476 707.211 944.568C704.595 944.626 703.448 943.98 703.389 941.324C703.39 938.967 704.045 936.657 705.281 934.65C709.201 928.006 717.109 924.85 723.224 920.705C733.681 913.541 742.227 904.221 744.226 891.305L742.344 892.745C746.421 893.186 750.949 894.205 754.026 897.096C756.868 899.762 758.299 903.378 759.651 906.896C760.631 909.386 761.611 911.953 763.64 913.756C766.109 916.001 769.392 916.167 772.567 916.089C780.711 915.875 788.816 914.891 796.773 913.149C800.762 912.277 804.721 911.189 808.602 909.954C812.483 908.719 816.442 906.779 820.548 906.122L818.147 904.76C819.153 910.771 820.133 916.781 821.087 922.792C821.44 925.32 825.203 924.34 824.821 921.841Z" fill="#382C80"/>
<path d="M726.508 901.085C730.428 906.484 733.652 911.708 735.563 918.176C736.18 920.253 739.483 919.362 738.826 917.274C736.866 910.777 733.613 904.181 728.771 899.35C727.654 898.233 725.528 899.732 726.508 901.085Z" fill="white"/>
<path d="M720.118 912.286C723.528 915.853 725.429 919.979 726.831 924.653C727.478 926.819 730.535 925.888 730.163 923.732C729.069 918.444 726.324 913.639 722.323 910.012C721.703 909.39 720.696 909.388 720.074 910.007C719.451 910.627 719.449 911.634 720.069 912.256L720.118 912.286Z" fill="white"/>
<path d="M714.738 919.832C717.293 922.264 719.102 925.375 719.951 928.799C720.373 930.259 722.891 930.053 722.715 928.427C722.14 924.262 720.046 920.458 716.835 917.745C715.414 916.5 713.336 918.538 714.748 919.832H714.738Z" fill="white"/>
<path d="M790.276 922.596C786.591 924.507 786.454 930.279 789.767 932.67C793.079 935.061 798.587 933.042 799.273 928.897C799.645 926.77 796.597 925.849 795.98 927.995C795.529 929.583 793.226 930.847 791.756 929.73C790.286 928.613 790.884 926.124 792.158 925.026C793.432 923.928 791.776 921.812 790.276 922.596Z" fill="white"/>
<path d="M742.54 262.635C741.952 264.31 741.413 265.996 740.894 267.701C740.275 269.25 739.822 270.859 739.541 272.503C739.336 275.443 743.216 275.649 745.284 275.59C746.231 275.52 746.964 274.732 746.964 273.782C746.964 272.832 746.231 272.044 745.284 271.974C744.628 271.974 743.158 272.062 742.638 271.631L743.167 272.925C743.426 271.327 743.826 269.757 744.363 268.23C744.765 266.633 745.147 265.045 745.48 263.438C745.628 262.655 745.15 261.89 744.381 261.679C743.612 261.469 742.811 261.885 742.54 262.635Z" fill="#382C80"/>
<path d="M748.224 255.549C749.191 255.615 750.153 255.739 751.105 255.922C752.062 256.216 753.048 256.403 754.045 256.48C754.816 256.466 755.485 255.944 755.687 255.2C755.889 254.456 755.575 253.668 754.918 253.266C753.036 251.953 749.959 252.227 747.862 252.835C747.22 253.042 746.819 253.68 746.911 254.348C747.003 255.016 747.56 255.522 748.234 255.549H748.224Z" fill="#382C80"/>
<path d="M739.63 252.178C738.151 251.767 736.626 251.55 735.092 251.531C734.102 251.522 733.261 252.254 733.132 253.236C732.998 254.206 733.6 255.127 734.543 255.392C736.075 255.598 737.628 255.598 739.159 255.392C739.973 255.377 740.657 254.776 740.776 253.971C740.89 253.16 740.388 252.39 739.6 252.168L739.63 252.178Z" fill="#382C80"/>
<path d="M750.057 260.331C749.001 260.92 748.496 262.162 748.842 263.32C749.045 263.964 749.501 264.499 750.104 264.801C750.708 265.104 751.408 265.15 752.046 264.928C752.675 264.723 753.205 264.294 753.536 263.722C753.953 262.966 753.953 262.048 753.536 261.292C753.19 260.671 752.617 260.208 751.938 259.998C751.521 259.885 751.082 259.885 750.664 259.998C749.967 260.187 749.417 260.725 749.214 261.419C749.01 262.245 749.363 263.108 750.086 263.556C750.472 263.759 750.904 263.861 751.341 263.85L750.821 263.781H750.968L750.508 263.585C750.586 263.585 750.792 263.771 750.508 263.585C750.411 263.527 750.33 263.447 750.272 263.35C750.165 263.193 750.145 263.164 750.214 263.281L750.018 262.821C750.046 262.893 750.066 262.969 750.076 263.046L750.008 262.536V262.615L750.076 262.105C750.076 262.35 750.204 261.88 750.214 261.86V261.919C750.295 261.762 750.417 261.63 750.566 261.537C750.89 261.292 750.41 261.537 750.802 261.409C750.909 261.351 751.194 261.282 750.802 261.409L751.311 261.341H751.096L751.595 261.409H751.448C751.666 261.463 751.864 261.579 752.017 261.743C751.889 261.615 751.938 261.674 752.164 261.939C752.389 262.203 752.321 262.331 752.272 262.154C752.272 262.507 752.272 262.585 752.272 262.399C752.213 262.732 752.203 262.821 752.272 262.644C752.225 262.833 752.122 263.004 751.978 263.134C752.009 263.093 752.045 263.057 752.085 263.026C752.404 262.719 752.581 262.293 752.575 261.85C752.558 261.494 752.432 261.152 752.213 260.87C751.701 260.218 750.791 260.036 750.067 260.439L750.057 260.331Z" fill="#382C80"/>
<path d="M734.318 259.675C733.281 260.255 732.775 261.47 733.093 262.615C733.301 263.258 733.759 263.79 734.363 264.093C734.968 264.395 735.668 264.442 736.307 264.222C736.934 264.016 737.464 263.587 737.797 263.017C738.208 262.259 738.208 261.344 737.797 260.586C737.454 259.963 736.881 259.499 736.2 259.293C735.786 259.18 735.349 259.18 734.935 259.293C734.234 259.475 733.681 260.016 733.485 260.714C733.279 261.537 733.628 262.4 734.347 262.85C734.737 263.055 735.172 263.156 735.612 263.144L735.092 263.076H735.239L734.769 262.88C734.857 262.88 735.053 263.066 734.769 262.88C734.67 262.825 734.589 262.743 734.534 262.644C734.416 262.488 734.396 262.468 734.465 262.576L734.269 262.115C734.305 262.186 734.328 262.262 734.338 262.341L734.22 261.86V261.939L734.289 261.429C734.289 261.674 734.406 261.204 734.416 261.184V261.253C734.489 261.094 734.609 260.961 734.759 260.871C735.092 260.616 734.612 260.871 734.994 260.733C735.102 260.675 735.376 260.596 734.994 260.733L735.494 260.665H735.278L735.778 260.733H735.641C735.858 260.789 736.055 260.905 736.209 261.067C736.082 260.939 736.131 260.998 736.356 261.263C736.582 261.527 736.503 261.655 736.454 261.478C736.454 261.831 736.503 261.909 736.503 261.723C736.445 262.056 736.435 262.145 736.503 261.968C736.456 262.157 736.354 262.328 736.209 262.458C736.244 262.42 736.284 262.387 736.327 262.36C736.899 261.762 736.948 260.837 736.444 260.181C735.94 259.525 735.033 259.335 734.308 259.734L734.318 259.675Z" fill="#382C80"/>
<path d="M751.948 223.924C755.192 223.924 755.192 218.877 751.948 218.877C748.704 218.877 748.695 223.924 751.948 223.924Z" fill="#382C80"/>
<path d="M749.41 280.666C750.578 280.593 751.702 280.192 752.654 279.51C753.634 278.914 754.506 278.155 755.231 277.266C755.906 276.543 755.906 275.421 755.231 274.698C754.517 273.992 753.368 273.992 752.654 274.698C752.077 275.462 751.42 276.162 750.694 276.786C749.909 277.272 749.15 277.799 748.42 278.363C748.044 278.757 747.939 279.337 748.152 279.837C748.365 280.338 748.856 280.664 749.4 280.666H749.41Z" fill="#382C80"/>
<path d="M824.87 465.573C820.568 466.2 816.05 466.318 811.738 466.847C807.426 467.376 803.251 467.454 799.106 468.268C794.588 469.15 795.813 475.971 800.164 476.108C804.515 476.245 809.102 475.275 813.384 474.52C817.912 473.726 821.979 472.227 826.34 470.943C829.848 469.904 828.3 465.063 824.87 465.602V465.573Z" fill="#382C80"/>
<path d="M809.464 451C807.775 452.057 806.746 453.907 806.74 455.9C806.838 458.536 808.7 461.192 811.64 461.074C814.58 460.957 816.834 458.134 816.863 455.341C816.898 453.713 816.167 452.163 814.888 451.154C813.61 450.145 811.932 449.794 810.356 450.206C808.874 450.562 807.704 451.698 807.303 453.168C806.902 454.639 807.335 456.211 808.432 457.27C809.529 458.328 811.115 458.705 812.571 458.252L812.738 458.203L811.63 458.35C811.74 458.331 811.853 458.331 811.963 458.35L810.856 458.203L811.013 458.252L810.033 457.831C810.137 457.88 810.239 457.936 810.337 457.997C809.357 456.762 808.984 456.449 809.308 457.066L808.896 456.086L808.955 456.292L808.808 455.224C808.828 455.367 808.828 455.512 808.808 455.655L808.955 454.587C808.937 454.734 808.904 454.878 808.857 455.018C809.112 454.459 809.17 454.312 809.023 454.577C808.876 454.842 809.023 454.714 809.357 454.185C808.867 454.646 809.229 454.44 810.454 453.587L811.434 453.45C812.119 453.463 812.775 453.728 813.277 454.195C813.659 454.734 813.757 454.851 813.551 454.538C814.061 455.518 813.767 454.949 813.659 454.626C813.727 455.273 813.757 455.42 813.747 455.057C813.639 455.675 813.62 455.812 813.698 455.469C813.602 455.801 813.419 456.102 813.169 456.341C813.24 456.255 813.318 456.177 813.404 456.106C814.576 454.962 814.704 453.121 813.702 451.825C812.7 450.53 810.886 450.192 809.484 451.039L809.464 451Z" fill="#382C80"/>
<path d="M830.084 449.168C828.396 450.203 827.357 452.03 827.33 454.009C827.428 456.655 829.29 459.301 832.23 459.193C835.17 459.085 837.424 456.253 837.453 453.45C837.486 451.822 836.752 450.272 835.471 449.265C834.191 448.258 832.512 447.91 830.936 448.325C828.761 448.977 827.506 451.248 828.111 453.437C828.716 455.625 830.96 456.929 833.161 456.371L833.327 456.322L832.21 456.469C832.323 456.444 832.44 456.444 832.553 456.469L831.446 456.322L831.603 456.371L830.623 455.949C830.727 455.999 830.828 456.055 830.926 456.116C829.92 454.881 829.594 454.554 829.946 455.136L829.535 454.156L829.584 454.372L829.447 453.294C829.461 453.437 829.461 453.581 829.447 453.725L829.584 452.666C829.57 452.81 829.54 452.951 829.496 453.088C829.75 452.529 829.809 452.382 829.662 452.657C829.515 452.931 829.662 452.794 829.986 452.265C829.505 452.715 829.868 452.519 831.083 451.657L832.063 451.53C832.747 451.539 833.403 451.801 833.906 452.265C834.288 452.804 834.376 452.921 834.18 452.617C834.69 453.597 834.396 453.029 834.288 452.696C834.347 453.352 834.376 453.499 834.376 453.127C834.268 453.754 834.249 453.891 834.376 453.539C834.281 453.874 834.099 454.179 833.847 454.421C833.915 454.333 833.994 454.254 834.082 454.185C835.21 453.031 835.314 451.223 834.327 449.946C833.339 448.67 831.562 448.317 830.162 449.119L830.084 449.168Z" fill="#382C80"/>
<path d="M574.558 352.393C571.526 345.844 567.191 339.982 561.818 335.164C558.212 331.881 553.243 336.879 556.477 340.505C561.025 345.601 565.474 350.815 570.119 355.803C572.461 358.312 575.744 355.127 574.539 352.393H574.558Z" fill="#382C80"/>
<path d="M572.716 325.315C570.491 325.884 568.96 327.92 569.031 330.215C569.138 332.96 571.352 335.153 574.098 335.233C576.429 335.344 578.576 333.968 579.449 331.803C580.427 329.48 579.816 326.791 577.93 325.119C577.42 324.605 576.785 324.233 576.087 324.041L574.97 323.894C573.671 323.88 572.445 324.493 571.677 325.541C570.948 326.49 570.66 327.706 570.885 328.882C571.109 330.057 571.826 331.081 572.853 331.695C572.939 331.745 573.02 331.801 573.098 331.862L572.255 331.205C572.364 331.302 572.465 331.407 572.559 331.519L571.912 330.676C572.029 330.834 572.128 331.005 572.206 331.185L571.785 330.205C571.839 330.341 571.878 330.483 571.903 330.627L571.756 329.539C571.78 329.731 571.78 329.925 571.756 330.117L571.903 329.039C571.875 329.181 571.833 329.319 571.775 329.451L572.187 328.471C572.124 328.591 572.052 328.706 571.971 328.814L572.589 328.01C572.531 328.074 572.469 328.133 572.402 328.187L573.206 327.569C573.065 327.676 572.914 327.768 572.755 327.844L573.735 327.442C573.571 327.504 573.4 327.547 573.226 327.569L574.206 327.432C574.075 327.442 573.944 327.442 573.814 327.432L574.794 327.569C574.688 327.56 574.583 327.543 574.48 327.52L575.391 327.902C575.273 327.854 575.161 327.791 575.058 327.716L575.823 328.314C575.756 328.257 575.693 328.195 575.636 328.128L576.224 328.892C576.148 328.795 576.082 328.69 576.028 328.579L576.411 329.47C576.364 329.353 576.328 329.232 576.303 329.108L576.44 330.088C576.42 329.922 576.42 329.754 576.44 329.588L576.303 330.568C576.335 330.364 576.388 330.164 576.46 329.97L576.107 330.823C576.134 330.748 576.174 330.679 576.224 330.617L575.676 331.323C575.891 331.048 576.126 330.989 575.333 331.528C576.785 330.655 577.376 328.847 576.719 327.284C576.062 325.721 574.357 324.879 572.716 325.305V325.315Z" fill="#382C80"/>
<path d="M584.584 341.573C582.359 342.142 580.828 344.179 580.899 346.473C581.015 349.219 583.229 351.411 585.975 351.501C588.305 351.603 590.446 350.23 591.326 348.071C592.288 345.743 591.679 343.062 589.807 341.377C589.293 340.865 588.655 340.493 587.955 340.299L586.848 340.152C585.547 340.142 584.322 340.759 583.555 341.809C582.826 342.758 582.538 343.974 582.762 345.15C582.987 346.325 583.703 347.349 584.731 347.963C584.818 348.006 584.9 348.059 584.976 348.12L584.133 347.463C584.241 347.571 584.339 347.659 584.437 347.777L583.79 346.944C583.903 347.099 583.999 347.267 584.074 347.444L583.663 346.464C583.712 346.601 583.752 346.742 583.78 346.885L583.633 345.797C583.658 345.989 583.658 346.184 583.633 346.375L583.78 345.307C583.751 345.448 583.709 345.586 583.653 345.719L584.064 344.739C584.001 344.86 583.925 344.975 583.839 345.082L584.466 344.278C584.409 344.345 584.347 344.407 584.28 344.464L585.084 343.837C584.945 343.947 584.794 344.039 584.633 344.112L585.613 343.71C585.445 343.775 585.271 343.821 585.093 343.847L586.132 343.71H585.74L586.72 343.847C586.589 343.829 586.461 343.797 586.338 343.749L587.249 344.141C587.133 344.085 587.022 344.02 586.916 343.945L587.681 344.543L587.494 344.366L588.082 345.131C588.008 345.029 587.942 344.921 587.886 344.807L588.259 345.699C588.216 345.585 588.183 345.467 588.161 345.346L588.288 346.326C588.269 346.16 588.269 345.993 588.288 345.827L588.151 346.807C588.184 346.606 588.236 346.409 588.308 346.219L587.945 347.061C587.984 346.991 588.027 346.922 588.073 346.856L587.524 347.561C587.739 347.287 587.965 347.238 587.181 347.767C588.621 346.887 589.201 345.084 588.543 343.529C587.886 341.974 586.19 341.134 584.554 341.554L584.584 341.573Z" fill="#382C80"/>
<path d="M758.553 336.467C767.305 337.094 769.823 329.98 769.961 324.433C770.078 320.14 767.354 315.015 770.245 311.036C771.225 309.694 772.763 308.929 774.165 308.018C780.26 303.99 783.416 296.895 787.885 291.123C791.883 285.948 794.657 290.858 798.763 292.877C801.869 294.396 806.603 294.19 808.827 297.15C810.111 298.865 809.866 301.236 809.523 303.343C808.551 309.144 807.242 314.884 805.603 320.532C804.3 325.04 802.859 334.027 799.478 337.398C795.833 341.034 789.512 336.546 786.317 334.105" fill="#7F72FF"/>
<path d="M758.553 339.486C766.393 340.299 772.068 334.899 773.253 327.344C773.554 325.436 773.58 323.496 773.332 321.581C773.048 319.406 772.166 316.897 772.587 314.721C773.038 312.369 775.801 311.36 777.487 310.027C779.308 308.619 780.953 306.996 782.387 305.196C785.327 301.57 787.62 297.512 790.384 293.759C790.962 292.965 791.011 292.671 791.697 292.701C792.383 292.73 793.52 293.965 793.961 294.298C795.553 295.559 797.341 296.552 799.253 297.238C800.889 297.797 803.535 297.885 804.937 298.992C806.573 300.296 805.515 303.02 805.172 304.813C804.133 310.203 802.683 315.456 801.252 320.758C800.174 324.815 799.586 329.451 797.41 333.106C796.548 334.566 796.029 334.713 794.402 334.086C792.278 333.12 790.299 331.863 788.522 330.352C786.562 328.902 783.622 330.078 782.475 331.94C781.133 334.184 782.162 336.556 784.063 337.986C787.885 340.868 792.804 343.974 797.832 342.955C802.859 341.936 805.015 337.369 806.534 333.047C808.181 328.392 809.131 323.433 810.376 318.661C811.219 315.407 811.963 312.124 812.581 308.861C813.13 305.921 813.923 302.746 813.659 299.747C813.11 293.69 808.141 291.603 802.938 290.309C798.684 289.261 795.401 284.87 790.795 285.331C785.601 285.86 782.691 292.191 780.133 296.013C778.708 298.279 777.085 300.414 775.282 302.393C773.195 304.559 770.382 305.735 768.285 307.842C763.14 313.016 766.668 319.063 766.325 325.188C766.07 330.088 763.61 333.429 758.485 333.567C754.565 333.674 754.702 339.192 758.485 339.594L758.553 339.486Z" fill="#382C80"/>
<path d="M749.449 333.959C747.842 333.763 745.804 326.393 745.314 325.05C744.216 322.032 744.245 318.7 743.04 315.76C742.44 314.003 740.576 313.018 738.787 313.511C736.998 314.005 735.902 315.806 736.288 317.622C736.956 322.477 738.454 327.181 740.717 331.528C742.677 335.321 744.873 338.908 749.469 339.368C752.967 339.711 752.869 334.37 749.469 333.959H749.449Z" fill="#382C80"/>
<path d="M752.282 397.178C753.32 387.084 754.496 376.961 756.202 366.955C757.907 356.949 760.494 347.355 762.082 337.457C762.585 335.625 761.508 333.732 759.676 333.228C757.844 332.725 755.95 333.802 755.447 335.634C752.066 345.287 750.547 355.891 749.165 366.014C747.721 376.343 746.994 386.759 746.99 397.188C746.99 400.638 751.89 400.491 752.252 397.188L752.282 397.178Z" fill="#382C80"/>
<path d="M766.874 365.289C771.44 365.289 771.45 358.194 766.874 358.194C762.297 358.194 762.307 365.289 766.874 365.289Z" fill="#382C80"/>
<path d="M764.492 391.142C769.392 391.142 769.392 383.507 764.492 383.507C759.592 383.507 759.592 391.142 764.492 391.142Z" fill="#382C80"/>
<path d="M705.232 401.108C701.919 416.527 698.607 431.942 695.294 447.354C694.442 451.274 700.537 452.999 701.37 449.03L711.014 402.705C711.788 398.942 706.045 397.335 705.232 401.108Z" fill="#382C80"/>
<path d="M735.2 296.885C730.045 302.765 724.812 310.86 723.44 318.681C722.46 324.1 722.313 330.372 726.674 334.439C728.683 336.321 731.388 337.379 733.906 335.84C736.19 334.439 736.494 331.45 738.483 330.009C742.648 327.011 739.149 321.189 734.504 323.149C733.083 323.795 731.861 324.81 730.966 326.089C730.614 326.56 730.28 327.069 729.986 327.54C729.849 327.755 728.507 329.363 729.32 328.775L732.574 328.353C729.928 327.638 730.614 321.679 730.849 319.876C731.222 317.664 731.881 315.509 732.809 313.467C734.631 308.845 737.014 304.464 739.904 300.423C741.923 297.767 737.464 294.328 735.269 296.846L735.2 296.885Z" fill="#382C80"/>
<path d="M649.528 386.486C646.226 382.204 642.766 378.225 639.993 373.55C637.67 369.63 631.447 373.286 633.897 377.118C637.171 382.233 641.14 387.329 646.177 390.838C648.989 392.798 651.273 388.75 649.528 386.496V386.486Z" fill="#382C80"/>
<path d="M865.854 429.44C859.552 427.558 852.467 426.216 845.979 427.784C842.304 428.675 843.304 433.948 846.842 434.154C852.722 434.477 858.376 434.046 864.237 435.31C868.049 436.133 869.627 430.567 865.854 429.43V429.44Z" fill="#382C80"/>
<path d="M496.521 368.562C488.877 369.709 481.4 369.023 473.736 369.072C469.757 369.072 469.326 374.472 472.834 375.736C480.87 378.627 490.318 377.294 498.109 374.315C499.697 373.877 500.63 372.233 500.191 370.645C499.753 369.056 498.11 368.124 496.521 368.562Z" fill="#382C80"/>
<path d="M391.044 194.054C399.227 201.707 407.38 209.4 415.906 216.662C420.251 220.367 424.7 223.94 429.254 227.383C433.34 230.461 437.799 234.165 442.886 235.4C453.548 237.997 460.976 228.912 466.2 221.082C472.57 211.517 479.518 202.462 486.78 193.524C494.042 184.587 500.284 175.159 504.577 164.262C506.203 160.146 499.128 158.009 497.824 162.4C495.208 171.22 489.22 178.55 483.546 185.665C477.47 193.279 471.306 200.786 465.651 208.714C462.819 212.693 460.222 216.839 457.36 220.798C454.763 224.385 450.941 228.52 446.071 228.099C441.504 227.697 437.182 223.777 433.556 221.239C429.349 218.344 425.242 215.323 421.237 212.174C412.231 205.137 403.597 197.631 395.013 190.085C392.347 187.733 388.437 191.555 391.093 194.005L391.044 194.054Z" fill="#382C80"/>
<path d="M394.219 255.912C399.236 250.482 404.705 245.337 410.075 240.232C412.689 237.742 415.341 235.279 418.033 232.842C420.738 230.392 423.962 228.158 426.059 225.159C428.156 222.16 424.168 219.015 421.355 220.455C418.307 222.004 415.789 224.944 413.319 227.315C410.546 229.942 407.831 232.617 405.175 235.371C399.981 240.761 395.277 246.474 390.475 252.217C388.349 254.775 391.857 258.46 394.199 255.931L394.219 255.912Z" fill="#382C80"/>
<path d="M493.581 231.823C486.937 223.983 482.086 214.732 474.726 207.421C471.149 203.873 465.612 209.381 469.189 212.958C476.49 220.21 481.596 229.236 488.995 236.409C492.033 239.349 496.247 234.969 493.581 231.823Z" fill="#382C80"/>
<path d="M441.004 203.06C437.77 204.084 435.716 207.256 436.104 210.626C436.672 214.231 439.895 216.808 443.537 216.568C447.178 216.329 450.036 213.353 450.128 209.704C450.091 207.84 449.377 206.053 448.119 204.677C446.635 202.987 444.335 202.262 442.151 202.795C440.403 203.296 439.202 204.898 439.211 206.715C439.272 208.509 440.446 210.074 442.151 210.635C441.543 210.351 441.425 210.322 441.788 210.547C442.905 211.018 443.15 211.116 442.523 210.861C442.16 210.704 442.141 210.704 442.435 210.861C441.906 210.43 441.808 210.371 442.121 210.675C441.749 210.165 441.651 210.047 441.827 210.322C441.894 210.425 441.952 210.533 442.004 210.645C441.749 210.018 441.69 209.92 441.817 210.341V210.586C441.749 209.881 441.71 209.753 441.71 210.204C441.827 209.508 441.827 209.381 441.71 209.812C441.798 209.538 442.552 208.626 442.092 209.018C442.582 208.675 442.69 208.577 442.435 208.744C442.18 208.911 442.298 208.842 442.846 208.597C442.689 208.65 442.529 208.692 442.366 208.724C442.984 208.666 443.131 208.636 442.817 208.656C441.837 208.656 443.454 208.95 442.748 208.705C442.043 208.46 443.385 209.205 442.748 208.705C443.552 209.322 442.699 208.411 443.209 209.205C442.846 208.636 443.287 209.92 443.14 209.038C443.082 208.764 443.091 208.871 443.14 209.371C443.131 209.198 443.131 209.025 443.14 208.852C443.14 209.381 443.091 209.244 443.219 208.773C443.023 209.499 443.219 208.871 443.336 208.656C443.082 208.979 443.072 208.999 443.336 208.734C443.013 208.96 443.013 208.969 443.336 208.734C444.559 207.899 445.03 206.322 444.468 204.953C443.905 203.583 442.461 202.794 441.004 203.06Z" fill="#382C80"/>
<path d="M212.468 437.515C214.918 431.008 230.471 428.539 236.811 426.53C245.857 423.658 255.01 421.1 264.202 418.748C282.636 414.044 301.276 410.203 319.915 406.44C322.855 405.842 326.011 405.264 328.804 406.381C331 407.439 332.867 409.075 334.204 411.114C340.172 419.091 343.337 428.754 346.071 438.378C350.704 454.587 354.401 471.048 357.145 487.682C357.554 488.719 357.507 489.88 357.017 490.881C356.526 491.882 355.638 492.631 354.568 492.944C321.62 510.458 285.898 522.158 248.973 527.528C244.896 528.126 240.28 528.508 237.125 525.843C235.165 524.167 234.185 521.599 233.322 519.12C231.362 513.24 229.843 507.36 228.305 501.362C223.522 482.795 218.743 464.224 213.967 445.649" fill="white"/>
<path d="M215.026 439.014C216.535 435.565 221.063 434.173 224.355 433.134C228.373 431.811 232.509 430.949 236.566 429.783C249.924 425.951 263.183 422.041 276.746 418.944C290.76 415.73 304.872 412.927 318.984 410.173C322.238 409.536 325.962 408.37 328.833 410.634C331.166 412.476 332.851 415.583 334.292 418.121C337.292 423.695 339.647 429.594 341.309 435.702C345.367 449.48 348.687 463.465 351.256 477.597C351.863 480.919 352.461 484.241 352.971 487.573C353.235 489.259 352.902 489.151 351.412 489.925C349.658 490.847 347.894 491.738 346.12 492.63C340.11 495.655 334.008 498.491 327.814 501.137C302.973 511.702 276.898 519.09 250.208 523.128C247.434 523.549 243.897 524.392 241.182 523.343C238.242 522.207 237.517 518.385 236.674 515.69C234.322 508.163 232.489 500.47 230.529 492.836C226.404 476.735 222.376 460.614 218.113 444.542C216.702 439.201 208.489 441.455 209.832 446.825C213.811 462.75 218.015 478.606 222.121 494.492C224.081 502.136 225.943 509.819 228.285 517.365C230.294 523.833 232.803 530.311 240.182 531.85C246.739 533.222 254.216 531.105 260.664 529.949C268.073 528.642 275.426 527.054 282.724 525.186C297.311 521.478 311.624 516.766 325.56 511.084C332.505 508.268 339.365 505.226 346.14 501.96C349.345 500.402 352.53 498.804 355.666 497.109C358.802 495.413 361.232 493.581 361.477 489.876C361.722 486.172 360.389 482.095 359.693 478.508C358.909 474.373 358.06 470.247 357.145 466.131C355.421 458.291 353.49 450.526 351.354 442.836C349.558 435.813 347.313 428.913 344.631 422.178C342.073 416.102 338.751 408.899 333.302 404.852C327.236 400.304 319.582 402.99 312.84 404.411C305 406.067 297.16 407.752 289.32 409.526C271.817 413.446 254.373 417.866 237.252 423.246C232.225 424.824 227.041 425.853 222.062 427.588C217.593 429.136 211.978 431.351 209.969 436.016C208.47 439.485 213.566 442.513 215.085 439.014H215.026Z" fill="#382C80"/>
<path d="M236.38 457.017C245.102 462.78 253.795 468.611 262.771 473.981C267.23 476.666 271.768 479.283 276.413 481.645C280.754 483.85 285.498 486.545 290.427 486.986C300.168 487.887 306.107 479.42 309.625 471.57C313.859 462.103 318.612 452.999 323.482 443.866C325.511 440.341 327.139 436.6 328.333 432.713C329.509 428.382 330.117 423.834 331.028 419.444C332.008 414.544 324.688 413.397 324.168 418.513C323.188 427.774 319.641 435.359 315.201 443.434C312.467 448.413 309.851 453.44 307.361 458.556C304.872 463.671 303.01 469.336 299.864 474.099C298.624 476.193 296.789 477.871 294.592 478.92C291.652 480.106 288.447 478.803 285.703 477.597C280.549 475.353 275.482 472.874 270.494 470.286C259.782 464.74 249.443 458.526 239.134 452.215C236.057 450.334 233.362 455.057 236.331 457.017H236.38Z" fill="#7F72FF"/>
<path d="M249.247 513.436C252.962 507.752 257.087 502.264 261.184 496.776C263.144 494.14 265.153 491.513 267.191 488.936C269.23 486.359 272.14 483.644 273.551 480.577C274.816 477.823 271.925 473.609 268.847 475.863C266.123 477.823 264.222 480.88 262.203 483.566C260.034 486.434 257.934 489.351 255.902 492.317C251.835 498.295 248.307 504.489 244.7 510.741C243.005 513.681 247.405 516.209 249.247 513.397V513.436Z" fill="#7F72FF"/>
<path d="M328.5 489.73C322.287 482.311 317.72 473.648 310.86 466.768C307.293 463.211 301.756 468.728 305.333 472.305C312.193 479.165 316.995 487.583 323.953 494.316C327.01 497.256 331.185 492.885 328.539 489.73H328.5Z" fill="#7F72FF"/>
<path d="M283.606 457.095C280.884 458.648 279.545 461.836 280.343 464.867C281.285 468.245 284.625 470.369 288.084 469.789C291.543 469.21 294.008 466.114 293.798 462.613C293.524 458.84 289.594 454.596 285.527 456.243C283.91 456.899 282.46 458.203 282.587 460.163C282.604 461.972 283.795 463.56 285.527 464.083C285.801 464.151 286.056 464.289 286.331 464.347C286.605 464.406 286.497 464.347 285.89 464.132C286.275 464.36 286.197 464.282 285.654 463.897C286.213 464.416 285.243 463.093 285.654 463.828C286.066 464.563 285.419 462.917 285.654 463.759C285.586 463.054 285.556 462.936 285.566 463.387L285.645 462.779C285.929 462.191 285.968 462.084 285.772 462.456C286.174 461.976 286.262 461.848 286.046 462.074C285.831 462.299 285.958 462.201 286.429 461.809L286.027 462.035L286.556 461.799C286.408 461.845 286.258 461.881 286.105 461.907C286.732 461.848 286.889 461.829 286.576 461.839C286.458 461.848 286.34 461.848 286.223 461.839C286.87 461.946 286.987 461.956 286.576 461.839L287.056 462.064C286.713 461.858 286.772 461.927 287.242 462.27C287.007 462.044 287.017 462.035 287.242 462.27C287.428 462.525 287.477 462.495 287.242 462.27C287.428 462.789 287.467 462.858 287.33 462.485L287.262 462.25C287.183 461.868 287.193 461.937 287.262 462.476C287.252 462.355 287.252 462.234 287.262 462.113C287.262 461.848 287.262 461.946 287.262 462.417C287.017 462.231 287.752 461.721 287.262 462.309C287.448 462.005 287.418 462.025 287.164 462.358C287.274 462.24 287.392 462.128 287.516 462.025C288.62 460.909 288.724 459.148 287.761 457.909C286.794 456.681 285.077 456.34 283.714 457.105L283.606 457.095Z" fill="#382C80"/>
<path d="M304.98 427.695C301.452 428.293 297.699 428.862 294.406 427.46C292.728 426.684 291.22 425.585 289.966 424.226C282.058 416.102 279.676 405.606 271.19 397.502C263.102 389.798 253.814 383.463 243.691 378.744C211.116 363.633 174.503 365.652 148.464 391.367C145.367 394.424 142.427 399.089 144.662 402.833C145.79 404.451 147.452 405.62 149.356 406.135C161.498 410.222 174.963 401.235 187.341 404.587C181.53 407.788 176.253 411.875 171.7 416.7C170.299 418.18 168.946 420.561 170.318 422.07C171.181 423.05 172.651 423.05 173.925 422.903C185.273 422.038 196.558 420.477 207.715 418.229C207.401 421.257 204.893 423.57 202.335 425.226C199.777 426.882 196.925 428.264 195.122 430.724C193.319 433.183 193.162 437.172 195.641 438.867C197.19 439.847 199.218 439.759 201.051 439.485C208.56 438.345 215.726 435.569 222.043 431.351C218.985 433.909 215.643 438.034 217.838 441.357C219.896 444.483 224.61 443.444 228.197 442.395C240.521 438.813 253.676 439.343 265.672 443.905" fill="white"/>
<path d="M304.108 424.442C299.041 425.167 295.415 424.844 291.838 420.894C289.094 417.629 286.73 414.061 284.792 410.261C280.578 402.715 275.972 396.316 269.406 390.661C256.252 379.285 240.507 371.309 223.552 367.435C208.234 364.025 191.996 364.133 177.012 369.052C169.467 371.514 162.34 375.106 155.873 379.705C149.699 384.125 141.271 390.083 139.919 398.09C138.076 408.919 150.973 411.937 159.205 411.281C168.113 410.575 177.315 406.439 186.243 408.664L185.263 400.951C179.776 403.983 174.72 407.738 170.23 412.114C166.516 415.769 162.557 422.717 168.75 426.333C171.092 427.696 173.925 427.313 176.482 427.098C180.056 426.791 183.62 426.418 187.174 425.981C194.465 425.079 201.711 423.916 208.911 422.492L203.54 417.112C202.678 421.914 195.7 423.58 192.701 426.912C189.222 430.694 187.939 437.143 191.721 441.21C195.739 445.541 202.217 444.032 207.264 442.739C213.312 441.157 219.059 438.594 224.277 435.153L219.034 428.362C215.114 431.821 211.057 437.398 213.762 442.817C216.29 447.903 222.023 448.305 226.972 447.237C232.989 445.953 238.556 444.395 244.798 444.405C251.558 444.471 258.257 445.694 264.604 448.021C269.749 449.824 271.758 441.876 266.829 439.936C257.423 436.306 247.267 435.057 237.262 436.3C232.685 436.859 228.344 438.525 223.816 439.132C223.15 439.22 221.592 439.289 221.464 439.034C220.896 437.927 224.571 434.957 225.12 434.487C228.814 431.282 223.993 425.02 219.887 427.696C216.096 430.209 211.978 432.188 207.646 433.576C206.127 434.046 198.924 436.516 198.16 434.967C197.053 432.752 204.148 429.401 205.324 428.558C208.499 426.324 211.253 423.413 211.949 419.473C212.325 417.962 211.881 416.363 210.78 415.262C209.678 414.16 208.08 413.717 206.568 414.093C196.83 416.054 186.993 417.483 177.1 418.376C176.041 418.32 174.979 418.409 173.944 418.64C173.552 418.64 173.16 418.689 172.768 418.689L174.336 420.414C175.032 419.728 175.687 419.002 176.296 418.239C177.08 417.455 177.884 416.69 178.697 415.955C182.003 413.01 185.617 410.431 189.477 408.262C192.554 406.508 192.025 401.402 188.497 400.559C180.794 398.727 173.268 400.452 165.673 401.961C162.547 402.588 145.26 405.224 148.69 398.041C150.218 394.846 153.482 392.376 156.147 390.122C164.718 382.939 174.866 377.885 185.763 375.373C214.8 368.631 248.483 380.126 269.279 401.02C275.345 407.106 278.412 415.328 283.508 422.129C285.978 425.442 288.81 428.823 292.642 430.577C296.885 432.537 301.462 431.802 305.911 430.979C310.36 430.155 308.322 423.854 304.118 424.471L304.108 424.442Z" fill="#382C80"/>
<path d="M147.641 98.8469C152.463 94.6721 166.085 99.5035 172.141 100.66C180.696 102.306 189.193 104.247 197.621 106.393C214.546 110.675 231.264 115.742 247.944 120.877C250.59 121.691 253.383 122.602 255.137 124.729C256.447 126.54 257.236 128.675 257.421 130.903C258.744 139.968 257.038 149.17 255.049 158.107C251.677 173.211 247.443 188.108 242.368 202.727C242.24 203.742 241.692 204.656 240.857 205.247C240.022 205.838 238.977 206.05 237.977 205.833C203.729 205.521 169.791 199.305 137.655 187.458C134.107 186.145 130.217 184.42 128.835 180.902C127.953 178.668 128.296 176.169 128.707 173.807C129.687 168.25 131.079 162.772 132.451 157.294L145.24 106.04" fill="white"/>
<path d="M149.16 101.415C152.1 99.1899 156.618 100.229 159.94 100.876C163.772 101.63 167.515 102.767 171.337 103.561C184.077 106.226 196.661 109.147 209.156 112.685C221.651 116.222 234.067 120.093 246.454 124.023C248.61 124.709 251.286 125.287 252.609 127.316C254.108 129.59 254.059 133.245 254.147 135.862C254.353 142.418 253.167 148.886 251.795 155.256C249.051 167.712 245.631 180.011 241.662 192.123C240.741 194.916 240.114 198.513 238.624 201.041C237.948 202.188 238.36 201.806 236.792 201.639C234.998 201.453 233.107 201.551 231.304 201.492C224.999 201.296 218.707 200.894 212.429 200.287C187.467 197.897 162.918 192.298 139.389 183.627C137.361 182.882 134.489 182.01 133.186 180.118C131.628 177.806 133.029 173.866 133.529 171.426C134.95 164.566 136.773 157.784 138.488 150.983C142.163 136.41 145.926 121.857 149.474 107.255C150.777 101.885 142.614 99.6113 141.193 104.972C137.42 119.515 133.872 134.127 130.236 148.709C128.433 155.903 126.502 163.076 125.081 170.348C123.954 176.13 123.121 182.216 127.767 186.733C132.128 190.967 139.027 192.613 144.613 194.436C151.146 196.644 157.771 198.604 164.487 200.316C178.25 203.869 192.242 206.466 206.363 208.088C213.634 208.917 220.932 209.489 228.256 209.803C233.597 210.028 242.201 211.841 245.386 206.235C246.915 203.57 247.601 200.199 248.532 197.288C249.682 193.701 250.779 190.108 251.825 186.508C253.863 179.478 255.715 172.399 257.381 165.271C259.161 158.261 260.47 151.141 261.301 143.956C261.909 137.89 262.36 130.05 259.283 124.513C256.343 119.143 249.992 117.908 244.583 116.291C237.438 114.164 230.294 112.057 223.121 110.029C207.343 105.58 191.447 101.424 175.355 98.2687C170.014 97.2201 164.781 95.6227 159.401 94.7799C154.609 94.0351 149.601 93.6823 145.563 96.7987C142.927 98.8469 146.485 103.512 149.16 101.464V101.415Z" fill="#382C80"/>
<path d="M158.147 125.131C164.027 136.244 169.848 147.426 176.6 158.049C179.638 162.812 182.833 168.427 187.223 172.102C191.397 175.484 197.049 176.405 202.08 174.523C207.499 172.69 211.831 168.643 216.349 165.291C221.602 161.371 227.021 157.765 232.509 154.227C236.117 152.051 239.513 149.541 242.652 146.73C245.857 143.682 248.532 139.87 251.374 136.469C254.637 132.637 248.738 128.022 245.876 132.226C241.525 138.625 236.076 143.006 229.608 147.19C224.865 150.268 220.141 153.345 215.555 156.638C211.282 159.705 207.254 163.321 202.707 165.977C200.59 167.212 198.013 168.309 195.494 167.937C193.152 167.545 191.516 165.663 190.065 163.939C186.625 159.832 183.568 155.305 180.549 150.885C174.258 141.653 168.584 132.03 162.988 122.377C161.185 119.27 156.51 122.024 158.186 125.18L158.147 125.131Z" fill="#7F72FF"/>
<path d="M144.113 176.404C149.601 173.464 155.383 170.906 161.038 168.309C163.795 167.055 166.562 165.823 169.338 164.615C172.19 163.38 175.63 162.518 178.158 160.695C181.373 158.284 179.422 153.835 175.512 154.403C172.572 154.815 169.534 156.628 166.81 157.882C163.87 159.235 160.989 160.636 158.137 162.116C152.384 165.056 146.994 168.515 141.477 171.916C138.586 173.69 141.144 178.051 144.133 176.453L144.113 176.404Z" fill="#7F72FF"/>
<path d="M218.593 191.79C216.888 183.068 216.976 174.091 214.448 165.516C213.027 160.695 205.461 162.753 206.902 167.594C209.43 176.11 209.646 185.028 212.341 193.505C213.615 197.513 219.387 195.857 218.593 191.79Z" fill="#7F72FF"/>
<path d="M196.533 145.564C193.162 145.665 190.427 148.326 190.232 151.693C190.038 155.06 192.449 158.018 195.786 158.506C199.124 158.995 202.281 156.852 203.06 153.57C203.429 151.892 203.2 150.138 202.413 148.611C201.462 146.771 199.584 145.595 197.513 145.544C195.881 145.559 194.417 146.548 193.793 148.056C193.169 149.564 193.507 151.299 194.652 152.463C194.818 152.62 194.936 152.796 195.093 152.963C195.573 153.482 194.701 152.247 194.946 152.698C195.191 153.149 194.661 151.718 194.838 152.424C195.014 153.129 194.838 151.395 194.789 152.228C194.906 151.532 194.926 151.355 194.857 151.679C194.789 152.002 194.857 151.845 195.093 151.228C194.779 151.787 195.455 150.934 195.592 150.787C195.896 150.581 195.906 150.571 195.592 150.787L196.122 150.562C195.387 150.816 197.043 150.562 196.249 150.562C196.612 150.562 197.082 150.758 196.484 150.562C196.053 150.405 197.219 151.012 196.651 150.562C197.072 150.924 197.17 151.003 196.964 150.797C196.759 150.591 196.827 150.699 197.17 151.11C196.837 150.62 197.278 151.522 197.298 151.747C197.17 152.139 197.239 151.071 197.298 151.747C197.425 151.355 196.974 152.237 197.298 151.689C197.062 151.953 197.033 152.002 197.2 151.826C197.366 151.649 197.317 151.679 197.053 151.885L197.298 151.738C196.955 151.865 196.964 151.875 197.298 151.738C200.757 150.865 199.973 145.642 196.465 145.583L196.533 145.564Z" fill="#382C80"/>
<path d="M264.075 121.201C274.061 113.008 285.635 104.541 299.159 109.127C302.167 110.107 304.059 105.511 301.315 104.012C286.262 95.8875 271.013 107.647 260.057 117.183C257.264 119.603 261.282 123.494 264.075 121.201Z" fill="#382C80"/>
<path d="M125.875 80.3541C133.598 82.9805 139.693 89.3015 140.281 97.7393C140.595 102.12 147.523 102.081 147.141 97.7393C146.112 87.2043 138.321 76.8359 127.326 75.1993C124.003 74.7093 122.592 79.1977 125.914 80.3247L125.875 80.3541Z" fill="#382C80"/>
<path d="M278.804 434.233C282.606 436.856 286.81 438.842 291.25 440.113C295.17 441.259 296.885 435.124 292.955 433.958C289.052 432.794 285.351 431.039 281.979 428.754C278.598 426.471 275.502 431.9 278.804 434.193V434.233Z" fill="#382C80"/>
<path d="M374.56 475.275C375.373 487.035 371.13 497.168 364.231 506.458C363.045 508.065 365.603 509.927 366.955 508.565C375.452 500 378.882 487.074 377.833 475.245C377.647 473.168 374.413 473.128 374.56 475.245V475.275Z" fill="#382C80"/>
<path d="M388.045 504.714L387.065 506.605C386.711 507.333 386.978 508.21 387.676 508.618C388.375 509.027 389.27 508.829 389.73 508.164L390.71 506.272C391.003 505.794 391.014 505.194 390.739 504.705C390.464 504.216 389.945 503.914 389.384 503.916C388.823 503.918 388.307 504.223 388.035 504.714H388.045Z" fill="#382C80"/>
<path d="M41.164 109.362C37.2058 123.665 40.8239 138.998 50.7582 150.023C52.3556 151.757 54.8742 149.19 53.3356 147.445C44.3013 137.316 40.896 123.357 44.251 110.205C44.4034 109.385 43.9029 108.585 43.0987 108.362C42.2946 108.14 41.4542 108.57 41.164 109.353V109.362Z" fill="#382C80"/>
<path d="M34.5687 146.161L35.5487 148.994C35.8301 149.854 36.7265 150.354 37.6067 150.14C38.5091 149.883 39.0374 148.949 38.7925 148.043L37.8125 145.221C37.5467 144.33 36.6262 143.807 35.7251 144.035C34.8275 144.292 34.3004 145.22 34.5393 146.122L34.5687 146.161Z" fill="#382C80"/>
<path d="M335.36 77.9532L350.432 94.9856C351.932 96.6712 354.411 94.1918 352.912 92.516L337.712 75.562C336.262 73.9254 333.87 76.3264 335.321 77.9532H335.36Z" fill="#382C80"/>
<path d="M211.88 294.573C224.502 294.111 237.116 295.703 249.228 299.286C251.188 299.865 252.08 296.768 250.09 296.16C237.718 292.397 224.784 290.825 211.87 291.515C209.91 291.613 209.91 294.651 211.87 294.573H211.88Z" fill="#382C80"/>
<path d="M327.628 342.554C328.33 339.469 329.921 336.658 332.204 334.469L328.843 333.077C329.186 336.997 329.558 340.917 329.823 344.837C329.911 346.091 331.126 347.405 332.518 346.885C334.478 346.16 336.389 345.386 338.32 344.631C339.956 343.994 342.347 342.446 344.111 342.436C346.561 342.436 344.827 345.102 344.111 346.425C343.127 348.197 341.863 349.799 340.368 351.168C339.894 351.657 339.668 352.336 339.756 353.011C339.844 353.687 340.235 354.285 340.819 354.637C344.405 356.989 347.982 359.38 351.706 361.497C354.019 362.84 355.842 359.488 353.764 357.969C350.285 355.431 346.659 353.128 343.053 350.786L343.494 354.255C346.591 351.315 352.481 343.857 348.923 339.467C347.463 337.673 345.003 337.663 342.955 338.202C339.035 339.241 335.115 341.191 331.381 342.75L334.076 344.798C333.586 340.878 333.184 336.958 332.753 333.038C332.587 331.509 330.627 330.215 329.392 331.636C326.824 334.442 325.027 337.866 324.178 341.574C323.698 343.798 327.04 344.749 327.598 342.554H327.628Z" fill="#382C80"/>
<path d="M504.42 130.08C508.463 121.74 513.43 113.88 519.228 106.648L515.945 105.286C515.602 115.713 514.328 126.405 511.045 136.342C510.378 138.302 512.681 139.615 514.288 138.841C522.958 134.711 532.574 132.976 542.14 133.814L539.964 130.962C538.191 137.381 530.096 138.802 524.402 139.527C522.295 139.792 521.001 142.643 523.226 143.878C530.87 148.112 538.563 152.247 546.246 156.422L545.766 152.688C538.408 158.475 530.088 162.92 521.188 165.82C518.248 166.8 519.463 171.338 522.471 170.466C532.23 167.459 541.296 162.549 549.147 156.02C549.663 155.499 549.91 154.769 549.816 154.041C549.722 153.314 549.298 152.67 548.667 152.296C540.984 148.131 533.32 143.927 525.607 139.821L525.049 144.084C532.693 143.006 542.032 140.576 544.345 132.128C544.515 131.451 544.368 130.733 543.944 130.178C543.521 129.623 542.867 129.291 542.169 129.276C531.79 128.455 521.381 130.431 512.025 134.999L515.268 137.489C517.718 126.797 519.639 116.272 519.796 105.256C519.796 103.718 517.581 102.542 516.503 103.894C510.536 111.408 505.44 119.575 501.313 128.237C500.333 130.315 503.401 132.157 504.42 130.05V130.08Z" fill="#382C80"/>
<path d="M482.037 119.76C482.34 122.573 482.625 125.386 483.017 128.198C483.291 130.344 486.692 130.413 486.456 128.198C486.162 125.376 485.79 122.573 485.476 119.76C485.222 117.644 481.86 117.595 482.105 119.76H482.037Z" fill="#382C80"/>
<path d="M673.46 849.037C669.697 842.177 663.101 835.317 654.497 837.571C647.568 839.394 644.423 848.214 649.597 853.535L652.459 849.831C646.412 846.685 637.964 846.42 633.123 851.928C629.115 856.505 628.968 864.266 633.868 868.235L635.583 864.1C628.723 864.168 619.56 864.795 616.444 872.087C614.278 877.134 615.865 884.062 621.736 885.503L622.373 880.769C613.729 880.456 602.714 883.709 600.107 893.098C598.029 900.546 602.253 909.013 610.201 910.042C613.072 910.424 613.308 906.122 610.848 905.24C604.213 902.957 595.53 905.24 592.708 912.188C590.219 918.352 593.688 926.33 600.44 927.692C603.576 928.329 604.919 923.527 601.763 922.87C597.716 922.027 595.687 917.049 597.637 913.443C599.882 909.278 605.477 908.631 609.544 909.954L610.201 905.152C604.86 904.495 603.341 897.028 605.301 892.921C608.241 886.845 616.267 885.366 622.333 885.591C625.038 885.689 625.616 881.504 622.97 880.858C619.452 879.985 619.727 874.978 621.628 872.616C624.734 868.813 631.153 868.99 635.544 868.951C637.504 868.951 638.964 866.187 637.259 864.805C634.182 862.306 634.26 857.534 637.063 854.77C640.493 851.379 646.049 852.075 650.038 853.898C652.341 854.956 654.938 852.193 652.89 850.203C651.272 848.53 651.055 845.949 652.37 844.029C653.791 841.844 656.486 841.089 658.966 841.354C664.375 841.854 667.982 846.352 670.569 850.693C671.046 851.433 672.021 851.666 672.781 851.223C673.542 850.779 673.819 849.817 673.411 849.037H673.46Z" fill="#382C80"/>
<path d="M652.763 917.627C649.911 912.355 658.035 907.268 660.25 912.727C660.572 913.79 661.618 914.463 662.719 914.314C663.82 914.166 664.651 913.24 664.679 912.129C664.767 910.682 665.46 909.339 666.588 908.429C667.716 907.519 669.176 907.126 670.608 907.347C673.352 907.847 675.254 910.561 675.508 913.227C675.822 916.167 680.536 916.235 680.212 913.227C679.654 908.023 675.959 902.986 670.354 902.643C667.727 902.51 665.158 903.447 663.234 905.24C661.31 907.033 660.194 909.529 660.142 912.159L663.993 910.561C661.21 907.033 656.153 905.387 652.175 908.043C648.629 910.648 647.659 915.53 649.94 919.293C650.432 920.005 651.39 920.218 652.138 919.781C652.885 919.344 653.17 918.406 652.792 917.627H652.763Z" fill="#382C80"/>
</svg>
