<svg width="1000" height="1000" viewBox="0 0 1000 1000" fill="none" xmlns="http://www.w3.org/2000/svg">
<path d="M839.374 607.937C851.791 610.387 859.209 625.048 856.514 637.425C853.819 649.803 843.284 659.309 831.544 664.052C819.803 668.795 806.867 669.53 794.206 669.932C746.911 671.412 698.979 668.952 653.586 655.555C639.787 651.488 625.793 646.118 615.787 635.779C605.781 625.44 600.871 608.966 607.633 596.265C614.013 584.27 628.213 579.066 641.424 575.744C667.432 569.177 694.176 565.975 721 566.218C734.984 566.346 748.949 567.404 762.905 568.472C789.061 570.432 817.138 573.216 837.091 590.238" fill="#382C80"/>
<path d="M838.404 611.426C845.264 613.151 849.85 618.756 851.761 625.381C853.858 632.663 852.075 639.758 847.841 645.961C837.424 661.21 817.334 664.14 800.321 664.934C760.141 666.816 719.089 665.414 679.605 657.094C662.023 653.409 642.757 649.254 627.527 639.219C615.042 631.006 603.792 613.739 611.71 598.657C619.178 584.437 638.562 581.017 652.743 577.92C673.036 573.531 693.721 571.206 714.483 570.981C736.473 570.915 758.447 572.201 780.28 574.833C799.165 576.959 818.706 581.281 833.729 593.61C838.414 597.461 845.195 590.885 840.481 586.848C825.919 574.362 807.318 568.914 788.63 566.268C767.297 563.373 745.809 561.773 724.283 561.475C701.577 561.072 678.893 563.086 656.614 567.483C639.17 570.903 617.58 574.745 606.134 589.856C594.688 604.968 599.931 625.93 612.014 638.856C625.803 653.556 646.961 659.26 665.914 663.915C709.465 674.616 755.094 676.576 799.782 674.548C819.225 673.666 840.442 669.981 853.349 653.889C863.923 640.728 864.697 620.442 850.624 609.26C847.646 606.862 844.133 605.218 840.383 604.468C835.856 603.586 833.886 610.348 838.423 611.455L838.404 611.426Z" fill="#382C80"/>
<path d="M604.537 666.492C597.372 659.511 589.366 653.451 580.703 648.45C563.895 638.793 545.289 632.676 526.029 630.477C524.265 630.261 522.442 630.056 520.639 629.781C513.956 654.285 512.138 679.862 515.288 705.065C521.893 757.808 553.587 799.4 576.969 845.734C583.624 858.944 594.198 877.025 593.384 892.372C592.777 904.005 584.114 917.852 580.419 928.995C579.672 930.778 579.363 932.713 579.517 934.64C579.958 937.276 582.105 939.334 584.476 940.52C591.003 943.881 598.892 942.166 605.968 940.177C634.574 932.141 662.592 920.577 686.22 902.594C688.572 900.8 690.983 898.801 691.982 896.018C693.158 892.735 692.119 889.158 691.051 885.787C679.958 851.487 661.308 821.381 647.255 788.767C633.907 757.818 619.609 724.449 613.935 691.1C613.386 687.817 612.955 684.416 613.7 681.182C613.982 680.082 614.38 679.014 614.886 677.997C610.74 673.989 606.614 668.56 604.537 666.492Z" fill="white"/>
<path d="M607.408 663.66C595.867 652.541 582.38 643.638 567.62 637.396C560.445 634.328 553.04 631.831 545.472 629.928C537.632 627.968 529.694 626.988 521.697 625.881C519.541 625.567 517.336 626.381 516.709 628.703C510.392 652.097 508.356 676.439 510.702 700.557C512.975 722.783 519.59 743.932 528.773 764.257C537.818 784.268 549.02 803.192 559.751 822.322C565.023 831.73 570.06 841.246 574.999 850.83C579.939 860.414 585.093 869.871 587.847 880.23C589.238 884.894 589.659 889.794 589.082 894.626C588.298 899.703 586.328 904.612 584.319 909.326C582.31 914.04 579.988 918.871 578.047 923.742C576.175 928.407 574.039 933.738 576.626 938.56C582.065 948.693 596.226 947.017 605.419 944.577C616.556 941.6 627.506 937.961 638.209 933.679C648.728 929.556 658.933 924.676 668.746 919.077C673.646 916.245 678.429 913.197 683.044 909.953C687.082 907.102 691.962 904.171 694.599 899.859C697.744 894.724 696.304 888.913 694.55 883.582C692.688 877.917 690.63 872.331 688.356 866.804C683.926 855.887 678.928 845.244 673.744 834.66C663.101 812.992 652.537 791.422 643.188 769.147C633.525 746.127 624.499 722.607 619.374 698.107C618.217 692.55 615.934 685.553 618.394 680.104C619.259 678.504 619.002 676.53 617.757 675.204C614.072 671.549 611.014 667.364 607.388 663.65C603.762 659.936 598 665.61 601.655 669.383C605.311 673.156 608.339 677.282 612.024 680.927L611.397 676.027C608.956 681.437 609.094 686.474 610.044 692.237C610.995 697.999 612.279 703.84 613.68 709.504C616.716 721.319 620.386 732.962 624.676 744.382C632.78 766.344 641.982 788.1 652.116 809.19C662.121 829.976 673.195 850.35 681.653 871.802C683.76 877.133 685.798 882.582 687.445 888.021C688.199 890.52 689.071 893.372 687.582 895.763C686.337 897.723 684.093 899.183 682.251 900.545C673.448 907.025 664.107 912.739 654.33 917.627C644.309 922.632 633.959 926.951 623.353 930.553C618.168 932.337 612.925 933.983 607.673 935.512C602.665 936.962 597.52 938.569 592.238 938.393C589.735 938.408 587.286 937.667 585.211 936.266C582.761 934.434 583.574 932.17 584.447 929.612C586.034 924.938 588.18 920.469 590.18 915.961C594.188 906.925 598.196 897.498 597.285 887.394C596.373 877.29 592.385 867.666 587.984 858.572C583.584 849.478 578.9 840.501 574.117 831.612C564.033 812.894 552.998 794.696 543.296 775.752C533.741 757.132 525.607 737.63 521.335 717.031C516.707 694.086 516.514 670.468 520.766 647.451C521.746 641.855 523.04 636.308 524.51 630.791L519.6 633.691C534.702 635.867 549.255 638.425 563.445 644.334C577.638 650.214 590.602 658.704 601.665 669.363C605.419 672.989 611.152 667.276 607.408 663.66Z" fill="#382C80"/>
<path d="M647.255 788.816C645.177 784.014 643.09 779.15 640.993 774.224C637.809 775.367 634.908 777.182 632.486 779.545C619.002 792.118 600.264 797.704 582.399 801.938C575.225 803.633 560.633 800.86 553.557 803.075C561.495 817.157 569.639 831.211 576.969 845.734C583.624 858.945 594.198 877.026 593.384 892.372C592.777 904.005 584.114 917.852 580.419 928.995C579.672 930.778 579.363 932.713 579.517 934.64C579.958 937.276 582.105 939.334 584.476 940.52C591.003 943.881 598.892 942.166 605.968 940.177C634.574 932.141 662.592 920.577 686.22 902.594C688.572 900.8 690.983 898.801 691.982 896.018C693.158 892.735 692.119 889.158 691.051 885.787C679.958 851.565 661.308 821.44 647.255 788.816Z" fill="#7F72FF"/>
<path d="M607.408 663.66C595.867 652.541 582.38 643.638 567.62 637.396C560.445 634.328 553.04 631.831 545.472 629.928C537.632 627.968 529.694 626.988 521.697 625.881C519.541 625.567 517.336 626.381 516.709 628.703C510.392 652.097 508.356 676.439 510.702 700.557C512.975 722.783 519.59 743.932 528.773 764.257C537.818 784.268 549.02 803.192 559.751 822.322C565.023 831.73 570.06 841.246 574.999 850.83C579.939 860.414 585.093 869.871 587.847 880.23C589.238 884.894 589.659 889.794 589.082 894.626C588.298 899.703 586.328 904.612 584.319 909.326C582.31 914.04 579.988 918.871 578.047 923.742C576.175 928.407 574.039 933.738 576.626 938.56C582.065 948.693 596.226 947.017 605.419 944.577C616.556 941.6 627.506 937.961 638.209 933.679C648.728 929.556 658.933 924.676 668.746 919.077C673.646 916.245 678.429 913.197 683.044 909.953C687.082 907.102 691.962 904.171 694.599 899.859C697.744 894.724 696.304 888.913 694.55 883.582C692.688 877.917 690.63 872.331 688.356 866.804C683.926 855.887 678.928 845.244 673.744 834.66C663.101 812.992 652.537 791.422 643.188 769.147C633.525 746.127 624.499 722.607 619.374 698.107C618.217 692.55 615.934 685.553 618.394 680.104C619.259 678.504 619.002 676.53 617.757 675.204C614.072 671.549 611.014 667.364 607.388 663.65C603.762 659.936 598 665.61 601.655 669.383C605.311 673.156 608.339 677.282 612.024 680.927L611.397 676.027C608.956 681.437 609.094 686.474 610.044 692.237C610.995 697.999 612.279 703.84 613.68 709.504C616.716 721.319 620.386 732.962 624.676 744.382C632.78 766.344 641.982 788.1 652.116 809.19C662.121 829.976 673.195 850.35 681.653 871.802C683.76 877.133 685.798 882.582 687.445 888.021C688.199 890.52 689.071 893.372 687.582 895.763C686.337 897.723 684.093 899.183 682.251 900.545C673.448 907.025 664.107 912.739 654.33 917.627C644.309 922.632 633.959 926.951 623.353 930.553C618.168 932.337 612.925 933.983 607.673 935.512C602.665 936.962 597.52 938.569 592.238 938.393C589.735 938.408 587.286 937.667 585.211 936.266C582.761 934.434 583.574 932.17 584.447 929.612C586.034 924.938 588.18 920.469 590.18 915.961C594.188 906.925 598.196 897.498 597.285 887.394C596.373 877.29 592.385 867.666 587.984 858.572C583.584 849.478 578.9 840.501 574.117 831.612C564.033 812.894 552.998 794.696 543.296 775.752C533.741 757.132 525.607 737.63 521.335 717.031C516.707 694.086 516.514 670.468 520.766 647.451C521.746 641.855 523.04 636.308 524.51 630.791L519.6 633.691C534.702 635.867 549.255 638.425 563.445 644.334C577.638 650.214 590.602 658.704 601.665 669.363C605.419 672.989 611.152 667.276 607.408 663.66Z" fill="#382C80"/>
<path d="M580.684 928.103C584.231 916.882 592.698 902.956 593.159 891.314C593.59 880.397 588.259 868.166 582.663 857.298C586.786 855.097 591.095 853.264 595.54 851.82C599.333 850.565 603.508 849.301 607.242 850.732C615.983 854.074 614.68 868.107 622.304 873.546C627.675 877.378 635.152 875.34 641.091 872.459C653.419 866.471 664.268 857.425 677.233 852.986C678.036 852.683 678.877 852.491 679.732 852.418C683.525 862.727 687.219 873.066 690.728 883.444C691.845 886.747 692.933 890.353 691.796 893.656C690.816 896.459 688.454 898.487 686.122 900.31C662.739 918.646 634.878 930.543 606.379 938.961C599.333 941.039 591.464 942.881 584.898 939.579C582.506 938.393 580.331 936.364 579.86 933.699C579.687 931.795 579.969 929.877 580.684 928.103Z" fill="#382C80"/>
<path d="M584.594 929.181C588.406 917.421 595.374 906.641 596.951 894.185C598.666 880.583 592.179 867.029 586.171 855.25L584.721 860.797C589.768 858.102 595.638 855.416 601.312 854.417C605.85 853.613 608.241 855.593 610.074 859.454C613.376 866.432 614.66 874.801 622.5 878.28C632.192 882.611 642.943 876.437 651.175 871.606C655.781 868.901 660.269 865.991 664.895 863.315C669.795 860.512 675.214 857.22 680.81 856.328L675.822 853.505C679.801 864.285 684.015 875.163 687.366 886.208C688.072 888.54 688.797 891.108 687.464 893.382C686.278 895.342 684.044 896.87 682.221 898.282C678.046 901.476 673.695 904.465 669.246 907.278C651.606 918.401 632.388 926.535 612.592 932.846C607.055 934.61 601.283 936.766 595.462 937.256C592.568 937.642 589.625 937.246 586.936 936.11C583.653 934.522 583.614 932.376 584.594 929.181C586.122 924.183 578.302 922.047 576.754 927.025C574.95 932.905 575.774 938.383 581.095 942.058C586.083 945.527 592.424 945.88 598.245 944.998C604.439 944.087 610.466 942.009 616.395 940.098C622.549 938.138 628.645 935.933 634.662 933.552C646.286 929.02 657.538 923.588 668.315 917.303C673.692 914.135 678.906 910.698 683.936 907.004C688.278 903.809 693.55 900.496 695.49 895.195C697.98 888.335 694.05 880.671 691.835 874.291C689.156 866.614 686.416 858.967 683.613 851.349C682.952 849.241 680.773 848.004 678.625 848.517C673.127 849.389 667.59 852.506 662.768 855.191C657.947 857.876 653.605 860.689 649.048 863.433C642.561 867.353 628.664 877.006 622.51 867.951C618.247 861.679 618.217 853.123 611.514 848.468C607.085 845.391 601.714 845.773 596.814 847.194C591.202 848.817 585.776 851.024 580.625 853.78C578.727 854.932 578.085 857.382 579.174 859.317C584.603 869.96 591.032 882.739 588.661 895.048C586.505 906.259 580.282 916.225 576.783 927.005C575.166 931.994 582.986 934.14 584.594 929.181Z" fill="#382C80"/>
<path d="M742.922 316.524C684.652 313.937 616.365 310.644 558.153 312.359C530.87 313.173 503.41 313.555 476.206 311.036C466.533 310.135 452.558 305.156 443.287 308.851C431.802 313.437 426.245 329.215 425.148 340.348C424.559 346.49 424.952 352.686 426.314 358.704C427.99 366.132 430.851 373.492 435.996 379.107C443.768 387.584 455.488 390.946 466.592 393.935C480.684 397.727 494.865 401.53 509.398 402.882C556.242 407.233 602.116 385.869 649.146 386.692" fill="white"/>
<path d="M742.922 313.673C701.547 311.811 660.181 309.841 618.766 309.116C598.343 308.753 577.91 308.724 557.487 309.282C535.015 309.89 512.505 310.262 490.053 308.89C484.82 308.577 479.508 308.341 474.314 307.616C470.022 307.009 465.798 305.999 461.515 305.294C453.577 303.99 444.963 303.285 437.995 308.038C425.118 316.789 420.708 335.536 421.806 350.178C422.492 359.419 424.981 369.15 430.185 376.922C435.153 384.331 442.474 389.074 450.637 392.357C459.457 395.914 468.973 398.07 478.195 400.412C488.634 403.222 499.281 405.188 510.035 406.292C552.087 410.036 592.355 393.621 633.868 390.612C638.964 390.24 644.063 390.09 649.166 390.162C653.605 390.22 653.605 383.302 649.166 383.302C609.133 382.782 571.099 397.737 531.35 399.913C510.231 401.079 490.269 396.884 469.983 391.465C461.702 389.25 453.136 387.182 445.708 382.753C437.868 378.078 433.144 370.748 430.587 362.114C426.235 347.414 427.127 327.383 438.662 315.868C444.62 309.919 452.578 310.331 460.359 311.624C469.114 313.234 477.946 314.399 486.819 315.113C527.685 317.798 568.678 314.682 609.584 315.045C654.085 315.427 698.538 317.495 742.991 319.425C746.656 319.592 746.646 313.898 742.991 313.731L742.922 313.673Z" fill="#382C80"/>
<path d="M448.775 346.463C481.997 303.995 522.994 268.232 569.58 241.084C580.968 234.449 592.708 228.344 603.165 220.298C611.181 214.144 617.13 207.245 618.756 196.955C619.844 190.095 618.031 183.156 616.238 176.453C615.14 172.376 613.484 168.074 612.857 163.958C621.5 171.455 628.076 181.235 636.73 188.595C644.011 194.799 655.35 189.134 649.842 179.393C635.975 155.06 609.662 124.513 579.145 126.473C565.738 127.326 553.008 133.225 542.336 141.389C530.968 150.091 523.226 162.331 512.515 171.288C500.519 181.324 488.433 191.231 476.255 201.012C451.98 220.298 427.696 239.614 406.126 261.86C388.123 280.48 372.188 303.608 372.12 329.48C372.071 349.648 382.018 369.023 396.434 383.125C410.849 397.227 429.44 406.518 448.57 412.78C509.663 432.703 605.046 408.723 661.053 379.803" fill="white"/>
<path d="M450.892 348.58C472.942 321.522 497.736 296.258 525.568 275.08C539.312 264.602 553.715 255.018 568.688 246.386C583.702 237.762 600.95 230.059 613.033 217.319C619.09 211.124 622.763 202.988 623.402 194.348C624.088 183.342 618.923 173.356 617.081 162.762L609.76 167.055C615.219 171.876 619.864 177.472 624.744 182.852C628.85 187.39 633.564 193.329 639.689 195.044C644.364 196.347 649.803 195.181 653.056 191.447C656.976 186.968 655.889 181.186 653.194 176.424C641.483 155.765 624.107 135.136 601.655 125.963C575.195 115.183 546.922 128.57 528.577 148.151C523.765 153.286 519.296 158.735 514.288 163.684C508.722 169.191 502.421 173.993 496.384 178.972C483.83 189.32 471.1 199.444 458.438 209.655C434.918 228.667 410.33 248.238 391.387 272.042C374.08 293.779 362.545 320.768 370.532 348.688C378.372 376.128 400.579 396.316 425.687 408.311C448.56 419.238 472.952 424.119 498.207 424.413C524.52 424.726 550.97 420.943 576.528 414.848C600.94 409.027 625.146 401.177 647.921 390.563C653.007 388.192 657.986 385.614 662.984 383.047C667.296 380.832 663.484 374.325 659.181 376.54C639.366 386.732 617.884 394.385 596.54 400.638C573.079 407.498 548.931 412.564 524.559 414.691C502.215 416.651 479.185 416.426 457.35 410.771C432.958 404.479 408.164 392.082 392.269 372.032C384.507 362.232 378.892 350.403 377.079 337.977C375.266 325.55 377.784 312.8 382.959 301.472C394.317 276.746 415.544 257.577 435.653 239.957C457.987 220.357 481.654 202.394 504.537 183.489C509.908 179.06 515.484 174.758 520.443 169.867C525.186 165.183 529.449 160.067 533.967 155.167C543.042 145.367 553.871 137.233 566.767 133.206C578.028 129.687 589.592 129.991 600.381 134.911C610.74 139.644 619.56 147.2 627.233 155.53C630.962 159.617 634.434 163.931 637.631 168.446C640.679 172.749 644.491 177.531 646.451 182.451C647.617 185.391 645.667 187.204 642.678 186.763C640.258 186.41 638.503 184.43 636.798 182.843C634.182 180.334 631.741 177.658 629.331 174.954C625.133 169.993 620.639 165.29 615.875 160.871C612.465 157.853 607.81 160.871 608.555 165.134C610.113 174.13 614.376 182.568 614.631 191.81C614.846 199.542 611.495 206.51 606.134 211.919C600.185 217.946 592.747 222.523 585.554 226.854C577.9 231.46 570.09 235.763 562.495 240.467C533.951 258.12 507.445 278.871 483.458 302.344C470.001 315.604 457.553 329.85 446.218 344.964C444.199 347.659 448.775 351.216 450.922 348.59L450.892 348.58Z" fill="#382C80"/>
<path d="M668.129 305.47C657.104 306.607 538.651 313.849 527.616 314.996C531.046 314.643 521.187 379.95 519.639 385.556C516.562 396.796 513.2 409.997 507.115 420.032C503.195 426.529 495.08 434.291 505.488 441.004C511.368 444.806 519.757 442.895 524.647 437.868C526.264 436.202 527.587 434.222 529.615 433.037C531.644 431.851 534.123 431.596 536.475 431.4L591.983 426.853" fill="#7F72FF"/>
<path d="M668.129 302.344C651.792 303.726 635.299 304.02 618.923 305.019C595.334 306.479 571.746 307.881 548.167 309.4C541.307 309.831 534.447 310.164 527.587 310.86C522.383 311.389 522.158 318.974 527.587 319.131C526.127 319.082 524.578 317.23 524.069 316.671C524.255 316.877 524.069 317.965 524.069 316.348C524.069 316.956 524.157 317.573 524.167 318.181C524.167 320.033 524.088 321.885 523.961 323.737C523.598 329.235 522.981 334.713 522.305 340.182C520.874 352.04 519.182 363.858 517.228 375.638C515.063 388.75 511.613 402.323 505.468 414.142C501.96 420.914 494.081 428.097 496.345 436.476C498.912 445.973 510.956 449.334 519.355 446.355C521.724 445.517 523.939 444.295 525.911 442.739C527.95 441.122 529.4 438.681 531.517 437.231C533.634 435.781 537.201 435.947 539.749 435.751L549.666 434.957L591.953 431.557C597.833 431.077 597.922 421.757 591.953 422.247L554.949 425.344C548.784 425.853 542.61 426.324 536.446 426.892C531.223 427.372 527.048 428.529 523.412 432.498C520.404 435.79 517.326 438.583 512.564 438.613C509.477 438.613 504.292 436.565 504.724 432.733C505.165 429.195 508.497 425.814 510.319 422.933C512.924 418.587 515.084 413.991 516.768 409.213C525.421 386.114 528.155 361.193 530.929 336.869C531.556 331.352 532.193 325.795 532.36 320.209C532.467 316.593 532.516 310.919 527.528 310.791V319.063C543.875 317.387 560.348 316.642 576.734 315.515C600.323 313.898 623.921 312.418 647.5 310.537C654.36 309.998 661.22 309.331 668.08 308.518C672 308.047 672.137 301.942 668.08 302.275L668.129 302.344Z" fill="#7F72FF"/>
<path d="M527.616 317.455L525.215 316.113C524.99 315.535 524.921 315.368 525 315.623C525.313 315.544 524.588 316.279 525 315.574C525.176 315.28 525 315.76 525 316.152C524.941 317.063 524.902 317.965 524.804 318.876C524.529 321.65 524.265 324.423 523.981 327.197C523.216 334.87 522.158 342.504 521.041 350.129C519.923 357.753 518.855 365.191 517.63 372.669C517.014 377.332 516.07 381.946 514.808 386.477C510.966 398.864 505.664 411.957 497.05 421.757C493.13 426.255 499.735 432.88 503.626 428.333C516.15 413.76 522.54 394.464 525.539 375.697C528.214 359.037 530.723 342.181 531.752 325.325C531.948 322.13 533.202 311.076 527.616 311.223C523.559 311.34 523.696 317.103 527.616 317.455Z" fill="#382C80"/>
<path d="M608.623 164.409C608.809 168.123 609.054 172.454 606.663 175.551C605.762 176.708 602.126 179.216 601.107 176.688C599.343 172.347 592.6 172.582 592.512 177.854C592.512 179.981 592.816 184.224 590.552 185.508C588.288 186.792 585.966 183.332 584.741 181.921C582.545 179.373 578.606 180.941 577.685 183.783C576.616 187.007 571.56 186.909 571.089 183.313C570.776 180.892 569.247 178.844 566.601 178.824C564.327 178.824 561.887 180.902 562.103 183.313C562.622 189.252 566.728 194.387 572.883 195.073C579.037 195.759 584.006 191.574 585.819 186.027L578.763 187.899C582.604 192.358 588.278 196.67 594.354 193.632C600.43 190.594 601.352 183.881 601.214 177.854L593.1 180.059C595.864 186.155 604.115 187.458 609.309 183.842C615.963 179.207 615.954 170.769 614.895 163.566C614.376 160.018 608.466 160.851 608.643 164.409H608.623Z" fill="#382C80"/>
<path d="M600.587 182.402C597.615 187.256 596.449 193.002 597.295 198.63C597.981 203.05 605.576 202.06 605.135 197.562C604.762 193.583 604.86 189.624 606.634 185.949C608.594 181.921 602.861 178.442 600.568 182.402H600.587Z" fill="#382C80"/>
<path d="M591.013 346.14C573.304 367.043 568.737 395.64 562.142 422.237C549.862 471.737 528.714 525.137 495.227 563.974C493.993 565.415 492.66 567.032 492.689 568.943C492.689 571.138 494.541 572.863 496.247 574.225C527.303 599.533 565.326 614.792 605.262 617.972C599.078 579.145 614.778 540.689 625.979 503.008C634.503 474.419 640.552 445.15 644.06 415.524C647.157 389.24 651.253 361.849 651.351 335.409C651.351 329.196 653.703 310.703 648.676 306.254C640.356 298.894 625.42 309.792 617.796 313.271C609.819 316.906 600.156 318.288 600.489 329.411C607.869 330.166 615.611 323.531 618.658 332.851" fill="#7F72FF"/>
<path d="M588.631 343.778C571.383 361.301 565.964 387.271 560.515 410.418C554.792 434.683 547.775 458.595 538.445 481.723C529.018 505.027 517.238 527.597 502.352 547.893C498.697 552.871 494.581 557.467 490.827 562.348C486.907 567.473 487.887 573.039 492.689 577.175C502.368 585.349 512.879 592.484 524.049 598.461C549.128 612.11 576.784 620.362 605.242 622.686C608.574 622.97 610.142 619.511 609.74 616.806C605.419 588.082 613.474 559.349 621.951 532.144C630.771 503.812 639.101 475.618 644.217 446.325C646.804 431.449 648.529 416.465 650.361 401.481C652.145 386.781 653.938 372.081 654.967 357.381C655.751 346.013 656.085 334.527 656.3 323.13C656.467 314.751 656.437 303.941 647.255 300.364C636.73 296.16 625.636 304.421 616.62 308.9C612.288 311.027 607.437 312.173 603.41 314.907C598.56 318.119 595.737 323.628 595.962 329.441C596.018 331.885 597.986 333.853 600.43 333.91C603.586 334.115 606.644 333.371 609.711 332.724C610.739 332.427 611.806 332.285 612.876 332.302C613.67 332.371 613.856 332.557 614.376 334.047C616.336 339.241 624.744 337.075 622.833 331.714C621.177 327.079 618.11 323.522 612.876 323.384C608.643 323.267 604.684 325.256 600.43 324.972L604.889 329.441C604.889 320.621 615.748 319.396 622.049 316.152C626.048 314.084 629.889 311.703 634.103 310.037C637.229 308.802 642.012 307.009 645.128 309.223C647.039 310.576 647.167 314.79 647.294 317.328C647.423 321.609 647.331 325.894 647.02 330.166C646.343 342.053 646.245 353.921 645.158 365.799C643.864 379.872 642.002 393.876 640.258 407.939C638.543 421.659 636.73 435.379 634.162 448.942C628.988 476.382 620.952 502.96 612.68 529.625C603.664 558.702 596.02 588.71 600.754 619.305L605.242 613.425C581.262 611.505 557.86 605.082 536.26 594.492C525.537 589.251 515.316 583.041 505.723 575.94C503.352 574.186 500.941 572.412 498.736 570.442C498.285 570.04 497.295 569.345 497.325 568.776C497.374 567.796 499.285 566.238 499.873 565.523C503.695 560.982 507.337 556.307 510.8 551.499C538.739 512.906 555.88 466.788 567.032 420.757C570.099 408.017 572.765 395.179 576.734 382.694C580.656 370.271 586.463 358.524 593.953 347.865C596.187 344.699 591.297 341.103 588.661 343.778H588.631Z" fill="#7F72FF"/>
<path d="M628.89 504.743C631.604 499.951 632.868 494.482 634.329 489.2C635.789 483.918 637.082 478.754 638.317 473.52C640.885 462.584 643.1 451.572 644.962 440.484C648.588 418.758 651.008 396.777 653.468 374.893C654.713 363.907 655.693 352.902 656.006 341.848C656.202 334.782 656.712 327.667 656.653 320.601C656.653 314.721 656.447 306.94 651.665 302.687C645.785 297.473 637.523 298.835 630.879 301.57C623.676 304.51 617.081 308.665 609.887 311.654C601.822 315.005 595.932 320.062 595.962 329.431C596.014 331.881 597.99 333.853 600.44 333.9C603.596 334.106 606.653 333.371 609.721 332.714C611.945 332.234 613.415 331.597 614.386 334.037C616.434 339.143 624.676 337.153 622.843 331.705C621.265 327.01 618.119 323.502 612.886 323.365C608.653 323.257 604.684 325.246 600.44 324.962L604.909 329.431C604.909 322.806 610.279 321.14 615.62 319.053C621.451 316.769 626.714 313.467 632.418 310.938C635.097 309.599 638.001 308.765 640.983 308.479C643.256 308.371 645.305 309.086 646 310.752C647.96 315.358 647.098 322.15 646.863 327.157C646.069 344.19 645.657 361.154 643.923 378.117C641.884 397.904 639.64 417.798 636.475 437.437C634.678 448.543 632.538 459.575 630.056 470.531C628.801 476.009 627.459 481.468 626.077 486.907C624.695 492.346 622.961 497.521 622.637 503.028C622.431 506.419 627.322 507.546 628.909 504.733L628.89 504.743Z" fill="#382C80"/>
<path d="M717.129 513.72C713.464 506.978 707.544 501.764 701.449 497.138C686.749 486.015 668.129 475.01 649.754 471.453C634.407 468.513 620.785 480.684 609.368 489.455C578.214 513.406 555.174 546.295 535.368 579.821C530.733 587.661 525.803 596.02 517.728 600.215C514.582 601.842 511.045 602.792 508.271 604.987C502.94 609.182 501.95 617.865 506.194 623.157C509.624 627.429 515.102 628.929 520.678 629.772C522.481 630.046 524.304 630.252 526.068 630.467C545.328 632.667 563.934 638.783 580.742 648.441C595.54 657.045 610.662 668.687 612.945 686.896C613.161 688.621 613.602 690.816 615.307 691.159C615.895 691.249 616.496 691.184 617.051 690.973C626.057 688.229 629.233 677.507 634.182 669.501C637.122 664.718 641.042 660.622 644.962 656.575L674.254 626.195C681.506 618.658 690.728 613.033 696.872 604.703C711.131 585.368 721.617 561.662 721.99 537.358C722.088 529.214 721.01 520.864 717.129 513.72Z" fill="white"/>
<path d="M720.627 511.691C715.032 501.793 705.614 494.914 696.431 488.573C686.625 481.653 676.016 475.947 664.836 471.58C654.272 467.591 643.472 465.112 632.614 469.404C622.814 473.324 614.719 480.184 606.477 486.574C588.092 500.843 572.451 518.11 558.633 536.789C551.656 546.217 545.158 555.997 538.975 565.974C533.359 575.009 528.645 585.828 520.727 593.129C516.699 596.844 511.476 597.882 507.007 600.842C503.122 603.431 500.485 607.515 499.726 612.122C497.913 623.059 505.851 630.693 515.905 632.986C521.413 634.24 527.117 634.515 532.683 635.475C538.833 636.529 544.909 637.979 550.872 639.817C562.11 643.276 572.847 648.192 582.81 654.438C591.013 659.564 599.078 665.747 604.164 674.126C606.879 678.605 608.084 683.231 609.064 688.327C609.907 693.227 613.484 696.294 618.511 694.716C627.674 691.855 631.653 682.358 635.857 674.636C641.649 664.003 651.39 655.702 659.711 647.069C668.354 638.082 676.704 628.772 686.249 620.736C690.639 617.032 695.069 613.327 698.695 608.829C702.234 604.349 705.457 599.627 708.338 594.697C720.098 575.097 728.35 551.117 725.557 528.057C724.934 522.356 723.273 516.816 720.657 511.711C718.246 507.085 711.249 511.172 713.66 515.798C718.716 525.48 718.628 537.211 717.168 547.795C715.596 558.573 712.397 569.051 707.682 578.87C703.193 588.347 697.686 598.392 690.443 606.065C686.767 609.759 682.887 613.243 678.821 616.502C674.627 620.156 670.62 624.019 666.816 628.076C658.322 636.929 649.806 645.772 641.267 654.605C637.301 658.52 633.751 662.836 630.673 667.482C628.429 671.088 626.694 674.989 624.558 678.654C623.66 680.275 622.61 681.808 621.422 683.231C620.03 684.838 618.345 685.534 616.796 686.817C616.189 687.317 615.513 686.621 616.591 687.474C617.845 688.454 616.992 687.729 617.11 687.386C617.326 686.719 616.738 685.053 616.61 684.318C616.229 682.02 615.622 679.765 614.797 677.586C611.573 668.952 605.683 661.729 598.647 655.879C582.555 642.492 562.318 633.652 542.003 629.115C536.546 627.917 531.031 626.998 525.48 626.361C520.825 625.803 515.513 625.381 511.525 622.657C508.104 620.363 506.672 616.044 508.046 612.161C509.604 607.516 514.239 606.281 518.277 604.419C527.42 600.215 533.055 591.601 538.014 583.241C543.483 574.049 549.059 564.925 555.007 556.027C566.875 538.269 580.115 521.354 595.599 506.595C603.193 499.496 611.194 492.844 619.56 486.672C627.047 481.008 635.808 474.824 645.628 475.059C650.832 475.196 656.202 477.078 661.053 478.803C666.386 480.751 671.565 483.096 676.547 485.819C686.253 490.924 695.375 497.069 703.752 504.145C707.699 507.419 711.045 511.355 713.64 515.778C716.198 520.315 723.205 516.239 720.627 511.691Z" fill="#382C80"/>
<path d="M551.029 602.538C543.88 596.153 534.411 593.007 524.863 593.845C519.551 594.306 519.355 602.234 524.863 602.263C532.613 602.319 540.255 604.082 547.246 607.428C550.245 608.819 553.841 605.086 551.029 602.528V602.538Z" fill="#382C80"/>
<path d="M661.494 532.997C655.389 562.397 667.296 592.061 673.617 621.402C680.996 655.644 680.79 690.982 680.477 726.037C679.869 791.354 674.94 857.357 675.988 922.468C676.047 925.957 676.233 929.72 678.419 932.454C680.261 934.767 683.191 935.875 685.994 936.815C714.179 946.233 744.412 948.076 774.086 946.439C781.427 946.037 789.443 945.106 794.529 939.814C796.381 937.854 797.753 935.247 797.312 932.621C796.84 930.745 795.922 929.01 794.637 927.564C787.532 918.186 774.87 907.905 770.529 897.096C764.806 882.837 768.961 862.306 770.99 847.655C779.994 782.858 784.408 717.506 784.2 652.086C784.024 592.953 778.624 529.792 742.354 483.085" fill="white"/>
<path d="M658.887 532.271C652.027 566.464 666.825 599.245 672.402 632.457C678.282 667.443 677.429 703.291 676.753 738.63C676.067 774.753 674.352 810.836 673.205 846.949C672.627 865.07 672.225 883.209 672.157 901.33C672.157 909.689 671.559 918.391 672.529 926.702C673.45 934.542 678.487 938.236 685.592 940.598C701.65 945.756 718.282 948.919 735.112 950.016C743.932 950.663 752.752 950.859 761.513 950.692C769.02 950.555 776.801 950.584 784.19 949.095C790.648 947.791 797.577 944.342 800.272 937.952C803.359 930.622 797.332 924.507 792.814 919.42C787.914 913.981 782.583 908.876 778.32 902.927C774.219 897.191 771.898 890.374 771.646 883.327C770.794 868.549 774.175 853.653 776.125 839.07C778.516 821.215 780.561 803.313 782.26 785.366C785.69 749.047 787.692 712.634 788.267 676.126C789.247 616.346 788.512 551.264 757.309 498.177C753.634 491.982 749.544 486.043 745.069 480.4C742.413 477.019 736.435 481.566 739.061 485.035C774.4 531.791 779.535 592.12 779.976 648.803C780.555 717.751 775.87 786.643 765.962 854.878C764.002 868.294 761.66 883.131 766.09 896.322C770.519 909.513 782.24 918.264 790.707 928.75C793.177 931.817 794.627 934.277 791.462 937.462C789.09 939.814 785.856 940.941 782.642 941.637C775.409 943.225 767.599 943.038 760.239 943.156C743.603 943.58 726.968 942.302 710.592 939.344C702.58 937.858 694.682 935.814 686.955 933.229C683.711 932.131 680.879 930.906 680.095 927.27C679.193 923.213 679.624 918.685 679.585 914.53C679.418 897.312 679.585 880.083 680.046 862.865C680.888 828.075 682.525 793.285 683.427 758.504C684.309 724.42 685.279 689.904 682.143 655.947C680.572 639.452 677.668 623.111 673.46 607.085C669.236 590.777 664.258 574.402 662.905 557.536C662.194 549.579 662.587 541.562 664.072 533.712C664.748 530.311 659.544 528.812 658.858 532.271H658.887Z" fill="#382C80"/>
<path d="M774.077 946.439C781.417 946.037 789.433 945.106 794.519 939.814C796.372 937.854 797.744 935.247 797.303 932.621C796.83 930.745 795.912 929.01 794.627 927.564C787.522 918.186 774.861 907.905 770.519 897.096C764.796 882.837 768.951 862.306 770.98 847.655C772.613 835.934 774.093 824.194 775.419 812.434C760.66 810.591 745.794 813.286 730.8 811.228C712.66 808.7 693.903 806.005 678.634 795.96C677.106 838.227 675.302 880.554 675.979 922.478C676.037 925.967 676.224 929.73 678.409 932.464C680.251 934.777 683.182 935.884 685.984 936.825C714.169 946.233 744.402 948.076 774.077 946.439Z" fill="#7F72FF"/>
<path d="M658.887 532.271C652.027 566.464 666.825 599.245 672.402 632.457C678.282 667.443 677.429 703.291 676.753 738.63C676.067 774.753 674.352 810.836 673.205 846.949C672.627 865.07 672.225 883.209 672.157 901.33C672.157 909.689 671.559 918.391 672.529 926.702C673.45 934.542 678.487 938.236 685.592 940.598C701.65 945.756 718.282 948.919 735.112 950.016C743.932 950.663 752.752 950.859 761.513 950.692C769.02 950.555 776.801 950.584 784.19 949.095C790.648 947.791 797.577 944.342 800.272 937.952C803.359 930.622 797.332 924.507 792.814 919.42C787.914 913.981 782.583 908.876 778.32 902.927C774.219 897.191 771.898 890.374 771.646 883.327C770.794 868.549 774.175 853.653 776.125 839.07C778.516 821.215 780.561 803.313 782.26 785.366C785.69 749.047 787.692 712.634 788.267 676.126C789.247 616.346 788.512 551.264 757.309 498.177C753.634 491.982 749.544 486.043 745.069 480.4C742.413 477.019 736.435 481.566 739.061 485.035C774.4 531.791 779.535 592.12 779.976 648.803C780.555 717.751 775.87 786.643 765.962 854.878C764.002 868.294 761.66 883.131 766.09 896.322C770.519 909.513 782.24 918.264 790.707 928.75C793.177 931.817 794.627 934.277 791.462 937.462C789.09 939.814 785.856 940.941 782.642 941.637C775.409 943.225 767.599 943.038 760.239 943.156C743.603 943.58 726.968 942.302 710.592 939.344C702.58 937.858 694.682 935.814 686.955 933.229C683.711 932.131 680.879 930.906 680.095 927.27C679.193 923.213 679.624 918.685 679.585 914.53C679.418 897.312 679.585 880.083 680.046 862.865C680.888 828.075 682.525 793.285 683.427 758.504C684.309 724.42 685.279 689.904 682.143 655.947C680.572 639.452 677.668 623.111 673.46 607.085C669.236 590.777 664.258 574.402 662.905 557.536C662.194 549.579 662.587 541.562 664.072 533.712C664.748 530.311 659.544 528.812 658.858 532.271H658.887Z" fill="#382C80"/>
<path d="M662.798 517.64C653.096 552.283 666.384 587.828 673.578 621.393C679.771 650.097 681.957 679.663 678.095 708.613C677.841 710.573 677.605 712.533 678.448 714.306C679.385 715.852 680.746 717.097 682.368 717.893C701.39 729.095 723.528 732.975 745.274 734.044C758.22 734.69 793.294 739.218 800.723 723.93C804.486 716.208 797.528 709.544 794.951 702.821C791.844 694.716 793.069 685.641 793.971 677.243C799.762 622.265 793.569 539.553 749.341 487.525" fill="white"/>
<path d="M658.897 516.572C652.733 539.21 655.722 562.573 660.789 585.103C666.042 608.467 672.549 631.34 674.862 655.271C676.018 667.256 676.293 679.31 675.685 691.335C675.361 697.333 674.705 703.262 674.009 709.22C673.431 714.591 675.489 718.383 680.026 721.186C698.715 732.721 721.48 736.729 743.04 738.003C756.76 738.816 770.725 740.384 784.396 738.003C790.619 736.905 797.381 734.671 801.703 729.8C808.122 722.588 805.839 714.356 801.546 706.731C798.835 702.27 797.313 697.189 797.126 691.972C796.979 686.661 797.695 681.379 798.234 676.106C799.031 668.266 799.544 660.407 799.772 652.527C800.334 634.951 799.544 617.357 797.411 599.901C792.893 563.23 782.407 526.019 760.749 495.59C758.083 491.853 755.264 488.23 752.291 484.722C748.93 480.733 743.226 486.486 746.568 490.455C769.236 517.307 781.241 551.607 787.209 585.838C790.083 602.634 791.616 619.632 791.795 636.671C792.03 652.87 790.511 668.766 789.257 684.877C788.749 689.932 788.99 695.034 789.972 700.018C790.952 704.605 793.295 708.456 795.5 712.523C797.303 715.835 798.9 719.461 796.744 722.989C795.348 725.047 793.383 726.654 791.09 727.615C785.366 730.349 778.585 730.888 772.342 731.104C765.676 731.251 759.006 731.054 752.36 730.516C734.132 729.261 716.1 727.88 698.881 721.353C693.896 719.503 689.087 717.207 684.515 714.493C682.388 713.219 681.859 712.415 682.045 709.877C682.261 706.937 682.79 703.997 683.025 701.057C684.103 689.722 684.348 678.324 683.76 666.953C682.643 644.413 678.213 622.51 672.804 600.676C667.472 579.204 661.886 557.232 663.758 534.927C664.246 529.482 665.23 524.092 666.698 518.826C668.07 513.789 660.26 511.633 658.858 516.67L658.897 516.572Z" fill="#382C80"/>
<path d="M746.872 710.181C762.73 714.451 779.542 713.495 794.813 707.456C799.713 705.496 797.469 697.539 792.628 699.548C778.689 705.333 763.382 706.989 748.528 704.32C744.745 703.644 743.079 709.132 746.911 710.2L746.872 710.181Z" fill="#382C80"/>
<path d="M668.168 305.44C651.812 304.46 635.407 315.005 629.566 330.313C628.233 333.811 627.41 337.496 625.901 340.907C621.765 350.217 613.161 349.942 606.8 356.528C601.092 362.64 598.703 371.141 600.391 379.332C601.724 385.33 604.919 390.72 606.996 396.502C614.66 417.68 606.673 440.808 602.9 462.995C600.999 474.206 595.197 484.418 604.488 494.286C609.721 499.843 617.13 502.763 624.431 504.978C658.238 515.119 694.444 513.848 727.458 501.362C732.554 499.402 737.699 497.109 741.403 493.101C749.361 484.496 748.263 471.129 746.303 459.575C739.59 420.933 727.429 394.336 730.28 355.215" fill="white"/>
<path d="M668.168 302.432C652.488 301.011 636.759 309.586 628.772 323.071C626.849 326.535 625.311 330.199 624.186 333.998C622.902 337.918 621.657 341.73 618.306 344.317C615.797 346.277 612.769 347.414 610.054 349.011C606.636 350.965 603.668 353.617 601.342 356.793C596.655 363.352 594.794 371.517 596.177 379.46C597.794 388.662 603.429 396.561 605.086 405.832C608.457 424.658 601.92 444.483 598.402 462.838C596.912 470.62 593.776 478.381 595.364 486.417C596.991 494.669 603.753 500.833 610.956 504.537C619.1 508.722 628.361 511.045 637.288 512.867C646.55 514.764 655.956 515.869 665.405 516.17C684.54 516.766 703.633 514.017 721.823 508.046C729.771 505.429 738.689 502.548 744.54 496.237C750.155 490.161 752.125 481.997 752.164 473.912C752.213 464.21 749.988 454.469 747.979 445.042C745.823 434.967 743.275 424.991 740.923 414.975C736.308 395.287 733.181 375.511 734.367 355.195C734.671 349.962 726.674 350.04 726.263 355.195C725.058 372.053 726.253 388.996 729.81 405.518C733.172 421.943 737.758 438.074 740.943 454.518C743.618 468.346 747.176 486.427 732.27 494.434C724.802 498.452 716.1 500.833 707.897 502.832C699.291 504.926 690.52 506.274 681.682 506.86C663.993 508.099 646.221 506.327 629.125 501.617C621.677 499.549 613.621 497.138 608.065 491.464C602.508 485.79 603.733 479.126 605.448 472.139C607.496 463.858 608.878 455.42 610.534 447.051C612.298 438.231 613.984 429.244 614.396 420.199C614.797 411.447 613.847 402.48 610.672 394.268C607.8 386.839 603.018 379.568 604.145 371.238C605.272 362.908 610.378 357.939 617.414 354.166C620.459 352.711 623.243 350.764 625.656 348.404C628.929 344.905 630.399 340.564 631.791 336.056C634.309 327.961 638.288 321.179 645.187 316.054C651.805 311.062 659.878 308.376 668.168 308.41C672.088 308.41 671.961 302.736 668.168 302.393V302.432Z" fill="#382C80"/>
<path d="M703.056 316.27C696.98 333.714 685.553 349.08 680.32 366.779C674.587 386.291 676.743 407.184 679.918 427.274C688.121 479.214 700.635 581.693 721.441 629.968C719.226 624.832 745.245 610.123 748.567 608.408C762.393 601.606 777.69 598.34 793.089 598.902C804.471 599.337 815.714 601.556 826.409 605.477C837.385 609.397 855.809 615.62 859.944 628.106C848.674 593.972 824.047 565.386 807.093 533.869C799.361 519.512 791.805 504.978 786.415 489.583C770.941 445.404 774.145 396.855 782.495 350.795" fill="#7F72FF"/>
<path d="M700.224 315.486C695.726 327.647 688.356 338.398 682.731 350.031C676.934 361.733 673.503 374.465 672.637 387.496C671.275 409.056 676.096 430.773 679.242 452.019C685.279 492.797 691.129 533.702 700.116 573.961C704.536 593.727 709.593 613.562 717.58 632.231C719.54 636.886 727.38 633.564 725.782 628.772C725.547 628.086 725.831 629.144 725.782 629.223C725.233 630.967 725.851 629.605 725.782 629.566C726.253 629.958 725.184 630.144 725.782 629.693C725.959 629.566 726.076 629.203 726.233 629.027C725.88 629.409 726.89 628.36 727.115 628.135C727.791 627.449 728.507 626.812 729.242 626.175C731.971 623.923 734.849 621.857 737.856 619.991C743.355 616.27 749.169 613.037 755.231 610.328C767.805 605.123 781.394 602.828 794.98 603.615C807.602 604.272 819.578 607.771 831.338 612.19C839.854 615.395 852.163 619.962 855.515 629.38C857.475 634.907 866.295 632.594 864.403 626.93C852.575 591.571 828.016 562.906 810.503 530.468C801.203 513.201 792.403 495.668 787.179 476.686C781.956 457.703 779.957 438.103 780.045 418.484C780.153 396.159 782.985 373.982 786.542 351.971C787.385 346.689 779.447 344.298 778.369 349.717C770.647 388.525 767.54 429.44 775.772 468.424C783.877 506.87 804.976 541.033 825.987 573.637C837.394 591.356 848.782 609.27 855.524 629.38L864.413 626.93C860.493 616.081 850.115 610.103 840.05 605.84C827.438 600.489 814.325 596.383 800.664 594.913C785.445 593.232 770.044 595.121 755.682 600.43C747.836 603.522 740.353 607.465 733.367 612.19C729.2 614.785 725.265 617.736 721.607 621.01C718.971 623.49 715.776 627.224 717.119 631.144L725.322 627.694C718.462 611.789 714.13 594.776 710.19 577.979C705.496 557.977 701.723 537.75 698.283 517.493C694.902 497.579 691.904 477.597 688.934 457.625C685.994 437.907 681.77 417.984 681.094 398.041C680.614 383.341 682.76 369.131 688.67 355.548C694.275 342.651 701.223 330.372 705.849 317.044C707.094 313.437 701.468 311.967 700.175 315.476L700.224 315.486Z" fill="#7F72FF"/>
<path d="M718.207 303.51C762.63 297.483 746.049 300.472 790.923 300.962C820.94 301.295 851.163 304.549 879.701 313.878C900.565 320.738 921.772 329.872 938.403 344.533C951.617 356.184 959.714 372.568 960.943 390.142C962.139 405.685 954.426 424.128 943.401 435.153C931.788 446.766 908.591 434.859 896.136 429.45C839.737 404.95 785.69 384.948 724.636 392.612" fill="white"/>
<path d="M718.207 306.773C730.212 305.186 742.452 303.02 754.604 303.187C767.128 303.353 779.663 304.284 792.197 304.51C833.7 305.245 876.369 312.016 913.246 332.097C929.475 340.917 944.724 352.931 951.858 370.513C955.272 378.601 956.829 387.351 956.415 396.12C955.837 404.871 952.652 413.515 948.223 421.022C944.665 427.059 940.049 434.242 932.543 435.095C925.036 435.947 917.137 432.939 910.277 430.195C892.794 423.168 875.761 415.112 858.121 408.429C820.107 394.023 779.898 383.87 738.944 386.624C733.799 386.967 728.683 387.604 723.587 388.476C718.785 389.27 719.863 397.414 724.743 397.022C746.225 395.307 767.618 395.542 788.894 399.197C809.67 402.774 829.966 408.811 849.742 416.034C868.656 422.894 886.884 431.312 905.485 438.966C913.099 442.102 921.233 444.904 929.563 445.032C938.207 445.159 944.851 441.553 950.251 434.957C962.364 420.159 968.009 401.059 964.52 382.175C961.031 363.29 949.928 347.777 934.748 336.33C918.372 323.992 898.997 315.985 879.554 309.87C858.278 303.138 836.042 299.737 813.806 298.316C796.264 297.199 778.663 297.483 761.101 296.689C751.301 296.248 741.854 297.179 732.162 298.443C727.262 299.09 722.303 299.776 717.374 300.462C713.777 300.962 714.6 307.322 718.246 306.862L718.207 306.773Z" fill="#382C80"/>
<path d="M659.622 585.564C656.133 580.086 652.625 574.49 650.685 568.237C649.041 562.469 648.132 556.515 647.98 550.519C647.264 536.917 647.637 523.177 646.363 509.614C645.961 505.321 639.669 505.165 639.562 509.614C639.385 516.993 639.924 524.431 640.189 531.811C640.444 539.033 640.532 546.285 641.071 553.488C641.541 559.839 642.482 566.336 644.922 572.255C647.451 578.4 651.508 583.506 655.634 588.641C657.447 590.885 661.141 587.975 659.612 585.564H659.622Z" fill="#382C80"/>
<path d="M794.627 927.564C787.522 918.186 774.861 907.906 770.519 897.096C766.442 886.953 767.373 873.645 768.981 861.532C764.362 860.854 759.692 860.585 755.025 860.728C751.027 860.807 746.676 861.022 743.638 863.668C736.523 869.754 742.472 882.533 737.111 890.217C733.338 895.626 725.606 896.224 719.05 895.499C705.428 893.999 692.178 889.119 678.468 889.295C677.609 889.275 676.751 889.373 675.92 889.589C675.812 900.585 675.802 911.561 675.979 922.508C676.037 925.996 676.224 929.76 678.409 932.494C680.251 934.807 683.182 935.914 685.984 936.855C714.169 946.273 744.402 948.115 774.077 946.478C781.417 946.077 789.433 945.146 794.519 939.854C796.372 937.894 797.744 935.287 797.303 932.66C796.836 930.77 795.918 929.022 794.627 927.564Z" fill="#382C80"/>
<path d="M798.116 925.516C791.021 916.314 781.397 908.768 775.693 898.536C769.598 887.6 771.479 873.39 773.028 861.532C773.047 859.71 771.841 858.103 770.088 857.612C764.113 856.672 758.052 856.396 752.017 856.788C747.391 857.141 742.805 858.307 739.649 861.933C733.632 868.793 737.532 877.858 734.857 885.689C731.564 895.283 716.149 891.147 709.073 889.736C703.369 888.589 697.695 887.237 691.933 886.335C686.484 885.483 680.339 884.434 674.871 885.64C673.133 886.154 671.939 887.747 671.931 889.56C671.859 896.583 671.836 903.613 671.862 910.649C671.862 916.813 671.127 923.84 672.784 929.847C674.352 935.561 678.722 938.501 684.024 940.412C690.26 942.582 696.626 944.357 703.085 945.723C716.099 948.551 729.332 950.25 742.638 950.8C755.378 951.368 768.598 951.643 781.24 949.82C786.993 949.016 792.794 947.193 797.028 943.028C802.32 937.825 802.438 931.268 798.116 925.516C795.039 921.38 788.002 925.418 791.128 929.602C792.598 931.562 794.068 933.356 792.569 935.776C791.356 937.522 789.684 938.899 787.738 939.755C783.7 941.715 778.986 942.097 774.576 942.362C763.525 943.045 752.444 943.12 741.384 942.587C730.249 942.087 719.169 940.737 708.24 938.55C702.915 937.465 697.65 936.159 692.442 934.63C688.375 933.415 681.878 932.454 680.535 927.711C679.771 925.026 680.026 921.958 679.987 919.205C679.947 916.14 679.921 913.07 679.908 909.993C679.908 903.191 679.931 896.384 679.977 889.569L677.037 893.489C682.103 892.372 688.464 893.901 693.471 894.822C699.204 895.881 704.879 897.253 710.612 898.291C719.432 899.889 730.3 901.633 737.816 895.351C744.912 889.471 743.099 880.436 743.971 872.361C744.451 867.99 746.548 865.569 751.007 864.991C756.647 864.381 762.343 864.533 767.942 865.442L765.002 861.522C763.316 874.448 762.062 888.766 767.863 900.879C773.273 912.109 783.71 919.891 791.197 929.593C792.54 931.337 794.656 932.229 796.734 931.053C798.38 930.083 799.458 927.28 798.116 925.516Z" fill="#382C80"/>
<path d="M958.826 407.566C947.125 444.64 916.794 465.004 902.202 474.451C891.108 481.636 879.66 488.259 867.902 494.296C853.417 501.735 845.558 509.349 848.302 526.372C849.282 532.712 850.262 539.719 846.753 545.129C843.245 550.539 833.504 551.646 831.162 545.668C832.264 549.135 831.33 552.928 828.743 555.486C826.156 558.045 822.353 558.937 818.898 557.796C815.444 556.655 812.92 553.674 812.365 550.078C813.551 556.115 806.034 561.025 800.086 559.447C794.137 557.869 790.207 552.214 787.787 546.56C790.256 551.46 784.288 557.281 778.8 556.693C773.312 556.105 769.128 551.646 765.845 547.216C756.137 534.036 749.914 518.618 747.754 502.391C740.639 505.067 732.28 499.608 730.114 492.317C727.948 485.026 730.898 477.009 735.788 471.208C744.686 460.653 759.524 449.902 771.538 443.219C800.801 426.921 839.884 406.831 878.603 386.555" fill="white"/>
<path d="M955.827 404.215C948.37 441.053 913.491 463.75 883.131 481.106C874.674 485.937 865.442 489.808 857.396 495.306C851.585 499.275 846.714 504.351 844.499 511.172C841.824 519.414 844.676 527.273 844.568 535.594C844.568 538.828 843.911 542.885 840.648 544.414C838.59 545.394 836.189 545.541 835.18 543.316C832.935 538.416 825.38 541.944 826.624 546.922C827.271 549.451 825.909 552.548 823.263 553.312C820.176 554.214 817.52 551.626 816.922 548.824C815.834 543.688 806.887 544.737 807.602 550.088C808.053 553.469 804.457 555.527 801.34 554.841C796.509 553.763 793.735 548.226 791.932 544.129C789.766 539.229 781.035 542.787 783.112 547.853C783.769 549.441 783.034 550.48 781.534 551.323C779.623 552.391 777.614 551.715 775.89 550.627C770.99 547.608 767.658 541.728 764.786 536.907C758.302 525.921 754.092 513.743 752.409 501.098C752.066 498.579 748.675 496.962 746.441 497.707C741.933 499.196 737.287 496.462 735.288 492.297C732.838 487.172 734.926 481.037 737.817 476.617C741.041 471.668 745.882 467.523 750.341 463.74C755.35 459.526 760.634 455.649 766.158 452.137C776.566 445.453 787.718 439.828 798.586 433.987C810.983 427.323 823.449 420.796 835.885 414.211C850.869 406.273 865.912 398.443 880.72 390.191C885.473 387.545 881.289 380.597 876.487 382.949C847.136 397.374 818.137 412.594 789.267 428.029C777.281 434.448 765.07 440.641 753.987 448.609C742.903 456.576 729.575 466.406 725.567 479.969C723.401 487.27 724.489 495.335 729.555 501.166C734.289 506.615 741.972 509.437 748.959 507.125L743.04 503.685C745.391 520.869 752.143 537.153 762.64 550.96C767.197 556.84 774.037 562.945 782.152 561.309C789.012 559.907 795.441 552.489 792.442 545.305L783.622 549.02C787.052 556.752 793.618 564.7 802.879 564.533C811.385 564.347 818.108 557.32 816.942 548.853L807.72 551.342C809.425 559.182 817.892 564.602 825.713 562.387C833.308 560.25 837.532 551.862 835.601 544.423L827.085 548.02C830.221 554.88 838.943 555.595 845.009 552.577C852.996 548.598 854.407 538.975 853.515 530.948C852.761 524.177 850.909 517.121 854.407 510.77C857.582 505.008 863.658 501.49 869.284 498.501C887.384 488.877 905.191 478.509 921.439 465.945C936.335 454.43 949.859 440.465 957.631 423.09C960.472 416.843 962.491 410.255 963.638 403.49" fill="#382C80"/>
<path d="M746.255 486.594C743.852 492.676 743.043 499.27 743.903 505.753C744.52 510.251 751.654 509.036 751.674 504.704C751.619 499.245 751.983 493.79 752.762 488.387C753.133 486.638 752.077 484.902 750.353 484.427C748.628 483.951 746.832 484.901 746.255 486.594Z" fill="#382C80"/>
<path d="M646.353 219.25C642.598 217.429 638.414 216.676 634.26 217.074C630.671 217.314 627.273 218.781 624.637 221.229C622.128 223.748 620.844 227.648 622 231.029C622.665 232.751 623.726 234.292 625.097 235.528C629.347 239.547 634.986 241.77 640.836 241.731C646.67 241.656 652.302 239.58 656.79 235.851" fill="#382C80"/>
<path d="M648.157 216.163C641.159 212.85 632.692 211.968 625.617 215.732C619.149 219.181 615.444 227.217 618.835 234.097C625.989 248.601 649.088 249.551 659.593 238.683C662.749 235.42 658.711 229.922 654.693 232.323C650.675 234.724 646.687 237.027 641.865 237.331C636.968 237.68 632.129 236.101 628.38 232.931C624.46 229.55 624.813 224.895 629.488 222.337C634.162 219.779 639.905 220.308 644.521 222.337C648.656 224.16 652.361 218.142 648.127 216.153L648.157 216.163Z" fill="#382C80"/>
<path d="M694.128 258.665C692.456 267.412 690.11 276.016 687.111 284.4C684.583 291.397 682.339 297.875 682.682 305.431C682.816 307.964 683.078 310.489 683.466 312.997C683.868 315.741 685.259 319.18 683.672 321.689C681.849 324.58 677.792 327.128 675.116 329.206C671.96 331.662 668.654 333.92 665.218 335.968C662.641 337.619 659.83 338.871 656.878 339.682C653.897 340.478 650.728 340.176 647.951 338.829C643.237 336.301 641.365 330.352 641.6 325.002C641.835 319.651 643.707 314.516 644.54 309.224C645.01 306.836 644.906 304.37 644.236 302.03C642.57 297.13 636.289 295.69 632.565 292.72C628.409 289.429 625.228 285.069 623.362 280.108C619.325 269.132 621.765 256.49 627.861 246.504C630.358 242.45 633.346 238.72 636.759 235.4C648.178 224.119 665.447 221.214 679.928 228.138C689.591 232.803 697.431 241.741 694.128 258.665Z" fill="white"/>
<path d="M691.012 257.813C688.474 268.7 684.583 279.02 681.143 289.623C679.46 294.494 678.596 299.611 678.586 304.764C678.659 307.508 678.904 310.244 679.321 312.957C679.575 314.809 680.8 317.769 680.026 319.513C679.379 320.993 677.194 322.306 675.949 323.228C673.989 324.678 672.029 326.168 670.069 327.549C665.944 330.489 661.249 333.91 656.281 335.193C651.694 336.389 647.98 334.537 646.677 329.941C645.373 325.344 646.755 320.435 647.814 315.848C648.999 310.733 650.322 305.068 648.313 299.992C646.785 296.131 643.413 293.749 639.944 291.799C631.957 287.36 626.675 280.451 626.028 271.052C624.725 252.315 639.405 232.715 657.996 229.373C666.502 227.844 676.096 229.824 682.956 235.253C689.816 240.682 691.384 249.169 689.895 257.528C688.915 263.095 697.392 265.506 698.44 259.89C700.253 250.198 699.42 240.369 693.021 232.499C687.347 225.512 678.203 221.484 669.501 220.279C646.295 217.094 625.313 234.136 618.776 255.823C615.542 266.554 616.169 279.02 622.588 288.487C625.458 292.798 629.31 296.365 633.829 298.894C635.573 299.874 637.622 300.707 639.023 302.167C640.924 304.127 640.326 307.371 639.876 309.841C637.916 320.425 633.702 333.929 644.227 341.671C654.752 349.413 667.943 340.191 676.43 333.684C680.536 330.538 686.592 327.177 688.19 321.924C689.17 318.886 688.248 315.829 687.66 312.82C686.974 309.366 686.681 305.845 686.788 302.324C687.053 295.18 689.924 288.526 692.09 281.813C694.364 274.532 696.097 267.093 697.274 259.557C697.901 255.51 691.982 253.687 691.012 257.813Z" fill="#382C80"/>
<path d="M691.012 257.813C688.474 268.7 684.583 279.02 681.143 289.623C679.46 294.494 678.596 299.611 678.586 304.764C678.659 307.508 678.904 310.244 679.321 312.957C679.575 314.809 680.8 317.769 680.026 319.513C679.379 320.993 677.194 322.306 675.949 323.228C673.989 324.678 672.029 326.168 670.069 327.549C665.944 330.489 661.249 333.91 656.281 335.193C651.694 336.389 647.98 334.537 646.677 329.941C645.373 325.344 646.755 320.435 647.814 315.848C648.999 310.733 650.322 305.068 648.313 299.992C646.785 296.131 643.413 293.749 639.944 291.799C631.957 287.36 626.675 280.451 626.028 271.052C624.725 252.315 639.405 232.715 657.996 229.373C666.502 227.844 676.096 229.824 682.956 235.253C689.816 240.682 691.384 249.169 689.895 257.528C688.915 263.095 697.392 265.506 698.44 259.89C700.253 250.198 699.42 240.369 693.021 232.499C687.347 225.512 678.203 221.484 669.501 220.279C646.295 217.094 625.313 234.136 618.776 255.823C615.542 266.554 616.169 279.02 622.588 288.487C625.458 292.798 629.31 296.365 633.829 298.894C635.573 299.874 637.622 300.707 639.023 302.167C640.924 304.127 640.326 307.371 639.876 309.841C637.916 320.425 633.702 333.929 644.227 341.671C654.752 349.413 667.943 340.191 676.43 333.684C680.536 330.538 686.592 327.177 688.19 321.924C689.17 318.886 688.248 315.829 687.66 312.82C686.974 309.366 686.681 305.845 686.788 302.324C687.053 295.18 689.924 288.526 692.09 281.813C694.364 274.532 696.097 267.093 697.274 259.557C697.901 255.51 691.982 253.687 691.012 257.813Z" fill="#382C80"/>
<path d="M632.545 250.894C635.936 251.599 639.052 253.657 636.642 257.421C635.309 259.498 632.878 260.547 631.32 262.399C628.243 266.084 632.134 268.965 635.328 270.543C637.827 271.778 639.954 268.25 637.533 266.77C636.828 266.358 636.142 265.917 635.475 265.447C634.858 264.947 634.966 264.526 635.789 264.192C636.397 263.212 637.808 262.33 638.592 261.409C640.104 259.795 641.047 257.73 641.277 255.529C641.522 250.708 637.514 248.669 633.349 247.983C631.457 247.689 630.585 250.521 632.545 250.923V250.894Z" fill="#382C80"/>
<path d="M649.783 258.352C649.111 258.348 648.474 258.65 648.051 259.172C647.628 259.694 647.465 260.38 647.608 261.037C647.778 261.632 648.211 262.118 648.783 262.356C649.355 262.595 650.004 262.56 650.548 262.262C651.463 261.737 652.029 260.763 652.032 259.707C652.035 258.652 651.475 257.675 650.562 257.145C649.649 256.614 648.523 256.611 647.608 257.136C646.545 257.855 645.974 259.107 646.128 260.38C646.139 261.837 647.153 263.095 648.574 263.415C649.996 263.736 651.451 263.034 652.086 261.723C652.421 261.106 652.365 260.351 651.943 259.79C651.521 259.229 650.812 258.966 650.126 259.116C649.865 259.174 649.606 259.246 649.352 259.332C649.237 259.364 649.126 259.406 649.019 259.459L648.862 259.528C648.754 259.4 650.067 259.831 649.842 259.528C649.323 259.038 650.018 259.89 650.077 259.998C650.077 260.194 650.136 260.106 650.077 259.998C650.087 259.861 650.087 259.723 650.077 259.586C650.165 259.694 649.891 260.125 649.783 260.204C649.594 260.341 649.343 260.36 649.136 260.252C648.928 260.144 648.799 259.928 648.803 259.694C648.824 259.545 648.874 259.402 648.95 259.273C648.923 259.341 648.883 259.405 648.833 259.459C648.891 259.41 649.146 259.145 648.833 259.459C648.774 259.508 648.774 259.518 648.833 259.459C649.362 259.008 649.999 259.204 650.744 260.057V260.88C650.666 261.031 650.571 261.173 650.459 261.301C650.606 261.194 650.744 261.076 650.881 260.958C651.302 260.512 651.421 259.86 651.187 259.293C650.952 258.726 650.406 258.35 649.793 258.332L649.783 258.352Z" fill="#382C80"/>
<path d="M628.821 253.569C628.147 253.565 627.508 253.868 627.084 254.393C626.661 254.917 626.499 255.606 626.646 256.264C626.816 256.86 627.249 257.346 627.822 257.583C628.395 257.82 629.044 257.782 629.586 257.479C630.495 257.022 631.102 256.127 631.192 255.113C631.282 254.099 630.841 253.111 630.027 252.501C629.041 251.772 627.711 251.713 626.665 252.354C625.603 253.072 625.032 254.325 625.185 255.598C625.197 257.055 626.21 258.313 627.632 258.633C629.054 258.953 630.509 258.252 631.144 256.94C631.478 256.324 631.422 255.569 631.001 255.008C630.579 254.447 629.869 254.184 629.184 254.334C628.919 254.391 628.657 254.463 628.4 254.549C628.285 254.582 628.174 254.624 628.067 254.677L627.91 254.745C627.812 254.618 629.115 255.049 628.89 254.745C628.37 254.255 629.066 255.108 629.125 255.216C629.125 255.412 629.184 255.323 629.125 255.216C629.125 255.157 629.125 254.843 629.125 254.804C629.125 254.765 628.939 255.343 628.841 255.421C628.652 255.559 628.401 255.578 628.193 255.47C627.986 255.362 627.857 255.146 627.861 254.912C627.878 254.764 627.925 254.62 627.998 254.49C627.968 254.559 627.932 254.624 627.89 254.686C627.939 254.628 628.194 254.363 627.89 254.686C627.831 254.745 627.841 254.745 627.89 254.686C628.419 254.236 629.056 254.432 629.801 255.284V256.147C629.727 256.3 629.632 256.442 629.517 256.568C629.664 256.462 629.804 256.347 629.938 256.225C630.358 255.78 630.479 255.13 630.246 254.564C630.014 253.998 629.472 253.62 628.86 253.599L628.821 253.569Z" fill="#382C80"/>
<path d="M660.024 294.543C656.615 295.054 653.151 295.08 649.734 294.621C646.324 294.219 643.315 292.661 639.993 291.995C636.465 291.328 632.594 295.983 636.073 298.767C643.129 304.441 653.841 303.755 661.71 300.55C663.369 300.09 664.341 298.372 663.881 296.714C663.421 295.055 661.703 294.083 660.044 294.543H660.024Z" fill="#382C80"/>
<path d="M711.053 413.417C735.131 412.437 767.403 411.82 791.109 413.554C796.225 413.936 801.801 413.633 805.809 410.418C809.817 407.204 810.885 400.128 806.72 397.139C805.358 396.159 803.643 395.738 802.418 394.601C801.374 393.48 800.635 392.11 800.272 390.622C797.812 382.733 797.695 374.295 798.312 366.044C799.233 353.304 800.86 340.182 805.564 328.177C807.779 322.194 810.971 316.62 815.011 311.683C817.687 308.537 828.584 300.501 817.775 299.923C783.759 298.257 742.374 295.474 708.475 298.943" fill="#7F72FF"/>
<path d="M711.053 416.396C734.484 416.308 757.906 415.73 781.319 417.072C791.197 417.631 804.603 420.463 811.277 410.859C813.863 407.205 814.503 402.519 812.992 398.305C812.05 395.936 810.319 393.963 808.092 392.719C807.23 392.21 806.024 391.906 805.378 391.142C804.535 390.162 804.26 388.202 803.966 387.026C800.948 374.834 802.83 360.918 804.946 348.708C806.965 337.114 810.346 324.159 818.314 315.084C822.155 310.723 832.034 303.226 824.654 297.258C820.871 294.18 814.443 294.994 809.886 294.759C803.898 294.455 797.9 294.131 791.912 293.847C777.84 293.161 763.747 292.593 749.655 292.495C735.935 292.407 722.009 292.446 708.387 294.259C705.859 294.602 703.722 296.219 703.693 298.963C703.714 301.547 705.803 303.636 708.387 303.657C731.207 302.184 754.089 301.906 776.938 302.824C788.12 303.255 799.282 303.804 810.454 304.412C812.855 304.539 815.579 305.019 817.961 304.784C818.078 304.784 818.941 304.97 818.941 304.96C818.941 304.951 817.559 302.432 817.539 302.412C817.108 301.834 817.863 301.677 817.01 302.657C815.168 304.784 812.953 306.577 811.13 308.724C803.819 317.387 799.527 328.471 797.008 339.417C794.346 351.001 793.086 362.862 793.255 374.746C793.229 380.691 794.132 386.603 795.93 392.269C796.589 394.521 797.845 396.553 799.566 398.149C800.919 399.305 803.643 399.873 804.535 401.383C806.75 405.146 801.389 408.321 798.655 408.968C793.921 410.095 788.688 409.183 783.886 408.968C759.575 408 735.228 408.485 710.974 410.418C707.211 410.722 707.054 416.377 710.974 416.367L711.053 416.396Z" fill="#7F72FF"/>
<path d="M711.053 416.396C725.606 416.641 740.168 416.22 754.731 416.484C762.336 416.635 769.934 416.903 777.526 417.288C784.19 417.621 791.246 418.807 797.851 418.101C804.456 417.396 810.758 414.289 813.208 407.723C815.413 401.784 813.482 395.307 807.828 392.239C806.671 391.612 805.868 391.328 805.182 390.22C804.28 388.721 804.025 386.3 803.682 384.556C802.958 380.499 802.662 376.376 802.8 372.257C802.944 363.949 803.763 355.667 805.25 347.492C807.975 332.361 813.384 316.132 827.192 307.744C832.445 304.568 827.849 297.071 822.449 299.629C810.238 305.401 803.437 318.759 799.409 330.989C796.986 338.764 795.344 346.761 794.509 354.862C793.588 362.653 792.824 370.62 793.333 378.46C793.755 384.958 794.382 394.434 799.997 398.737C801.536 399.913 804.28 400.334 804.603 402.48C804.966 404.979 802.986 407.047 800.879 407.968C795.146 410.487 787.385 408.713 781.279 408.488C774.165 408.223 767.04 408.243 759.935 408.321C743.647 408.497 727.223 408.801 711.013 410.438C707.28 410.81 707.093 416.318 711.013 416.386L711.053 416.396Z" fill="#382C80"/>
<path d="M656.457 254.187C654.027 251.11 650.028 250.678 646.373 251.247C644.08 251.6 644.795 255 646.902 255.108C649.293 255.235 652.292 254.677 654.301 256.343C654.907 256.865 655.813 256.831 656.379 256.265C656.945 255.699 656.979 254.793 656.457 254.187Z" fill="#382C80"/>
<path d="M642.884 277.668C642.884 277.609 642.688 277.266 642.766 277.511C642.698 277.197 642.845 277.756 642.766 277.511C642.835 277.824 642.766 277.295 642.766 277.325C642.766 277.354 642.6 277.687 642.766 277.413C642.933 277.138 642.766 277.344 642.766 277.491C642.619 277.677 642.933 277.089 642.766 277.491C642.913 277.305 642.463 277.717 642.678 277.57C642.276 277.677 642.894 277.423 642.678 277.57C642.561 277.57 642.247 277.57 642.531 277.57C642.815 277.57 642.188 277.472 642.453 277.57C642.717 277.668 642.08 277.364 642.316 277.501C642.551 277.638 641.992 277.178 642.257 277.501C642.178 277.413 642.012 277.138 642.149 277.393L642.022 277.109C642.071 277.305 642.08 277.295 642.022 277.109C642.022 276.688 642.022 277.109 642.022 277.158C641.904 277.413 642.188 276.56 642.022 277.021C642.022 276.923 642.267 276.59 642.09 276.835C642.09 276.766 642.423 276.462 642.208 276.668C642.521 276.452 642.59 276.384 642.433 276.482C642.276 276.58 642.365 276.482 642.551 276.433C642.982 276.247 642.306 276.433 642.806 276.374C643.305 276.315 642.806 276.325 642.747 276.374C642.825 276.374 643.364 276.521 643.041 276.374C642.717 276.227 643.462 276.629 643.237 276.482C643.011 276.335 643.658 276.864 643.443 276.658C643.227 276.452 643.374 276.609 643.648 276.933L643.795 277.305C643.697 276.972 643.795 277.56 643.795 277.609C643.795 277.658 643.629 278.246 643.795 277.854C643.962 277.462 643.55 278.393 643.697 278.118C643.844 277.844 643.266 278.608 643.58 278.295C643.58 278.295 643.08 278.648 643.374 278.481C643.315 278.481 642.776 278.667 643.1 278.618C643.392 278.564 643.67 278.447 643.913 278.275C644.515 277.889 644.925 277.266 645.04 276.56C645.141 275.815 644.896 275.064 644.374 274.522C643.198 273.209 641.14 273.62 639.973 274.679C639.144 275.453 638.669 276.533 638.66 277.668C638.702 278.892 639.313 280.027 640.313 280.735C641.314 281.443 642.587 281.642 643.756 281.274C644.851 280.94 645.752 280.157 646.236 279.12C646.72 278.082 646.741 276.889 646.294 275.835C645.856 274.813 645.011 274.021 643.964 273.649C642.917 273.277 641.761 273.359 640.777 273.875C639.718 274.449 638.995 275.492 638.828 276.685C638.662 277.878 639.073 279.08 639.934 279.922C640.573 280.668 641.684 280.786 642.465 280.19C643.247 279.593 643.426 278.491 642.874 277.677L642.884 277.668Z" fill="#382C80"/>
<path d="M682.78 280.823C684.152 277.452 685.847 274.306 686.7 270.68C687.386 267.74 687.023 264.31 684.74 262.379C682.672 260.625 679.507 260.635 677.066 261.821C674.626 263.007 670.138 266.721 669.481 269.661C669.08 266.192 669.686 262.681 671.226 259.547C672.794 256.382 676.792 252.687 675.391 248.885C673.862 244.71 667.903 244.318 664.307 244.367C655.134 244.475 646.755 244.504 637.984 242.064C629.213 239.624 621.324 239.477 614.876 231.98C613.259 230.098 611.936 227.785 611.936 225.306C612.112 218.779 619.335 218.907 622.716 215.653C626.9 211.635 629.242 206.598 634.24 203.031C643.57 196.356 655.119 193.547 666.473 195.191C683.936 197.925 698.93 211.4 704.771 228.089C706.231 232.244 707.103 236.792 709.279 240.663C711.69 244.965 715.159 244.916 719.402 246.876C728.614 251.109 737.17 257.225 743.011 265.623C750.135 275.894 752.595 289.868 747.234 301.158C743.128 309.811 734.877 316.074 725.802 319.161C719.372 321.245 712.622 322.165 705.869 321.875C699.783 321.718 692.766 323.159 687.376 319.494C683.093 316.554 681.408 311.115 680.663 305.989C679.746 299.558 679.855 293.022 680.986 286.625C681.383 284.634 681.984 282.69 682.78 280.823Z" fill="#382C80"/>
<path d="M685.69 282.528C689.022 275.315 695.49 263.065 685.24 258.028C677.605 254.275 667.805 261.233 665.355 268.504L673.754 269.641C673.435 266.365 674.207 263.075 675.949 260.282C677.713 257.509 679.771 254.892 680.085 251.462C680.624 245.582 676.057 241.486 670.677 240.369C664.277 239.036 657.486 239.996 650.998 239.585C644.285 239.163 637.857 237.36 631.34 235.812C626.106 234.567 618.717 232.342 616.689 226.609C615.297 222.689 622.088 221.611 624.529 219.847C629.811 215.986 632.31 209.45 637.817 205.755C643.441 201.952 649.94 199.641 656.702 199.042C669.138 198.062 681.31 203.207 690.022 211.988C694.284 216.245 697.65 221.314 699.92 226.894C702.331 232.96 702.791 240.271 707.29 245.337C710.955 249.453 717.354 250.492 722.058 253.089C728.161 256.331 733.563 260.747 737.954 266.084C746.009 276.237 748.91 291.24 741.462 302.51C737.467 308.227 731.724 312.491 725.096 314.662C717.07 317.426 708.985 317.181 700.596 317.436C697.127 317.534 693.129 317.838 690.071 315.868C687.288 314.065 686.092 310.821 685.377 307.724C683.518 299.165 684.143 290.253 687.18 282.038C689.316 276.589 680.526 274.198 678.429 279.618C675.224 287.84 675.038 297.258 676.292 305.872C677.272 312.859 679.556 320.219 686.092 323.963C692.629 327.706 701.223 326.501 708.485 326.452C716.93 326.524 725.28 324.678 732.907 321.052C746.401 314.368 755.447 300.972 754.467 285.664C753.487 269.984 744.04 256.901 731.202 248.424C728.168 246.416 724.98 244.653 721.666 243.152C719.314 242.093 715.708 241.545 713.875 239.604C711.582 237.174 710.798 232.744 709.759 229.647C708.638 226.234 707.249 222.914 705.604 219.72C699.283 207.637 688.268 197.366 675.224 192.986C660.657 188.189 644.682 190.531 632.104 199.307C629.206 201.455 626.631 204.01 624.46 206.892C622.5 209.381 620.638 212.174 617.737 213.624C612.641 216.172 607.565 218.681 607.516 225.277C607.467 233.548 615.591 239.839 622.569 242.564C626.228 243.834 629.971 244.853 633.77 245.612C638.26 246.823 642.823 247.743 647.431 248.365C651.797 248.808 656.185 248.991 660.573 248.914C663.356 248.914 667.492 248.218 670.118 249.59C672.745 250.962 668.687 254.833 667.756 256.529C665.589 260.534 664.69 265.104 665.179 269.631C665.649 274.257 672.117 275.649 673.587 270.768C674.293 268.406 679.546 263.34 682.231 265.496C685.563 268.171 680.555 277.158 679.516 279.931C678.203 283.479 684.093 285.997 685.69 282.528Z" fill="#382C80"/>
<path d="M703.232 348.1C703.967 345.934 708.132 350.677 708.563 351.187C710.396 353.265 712.709 355.029 715.58 353.657C718.06 352.481 719.196 349.403 720.255 347.042C721.613 344.015 722.717 340.882 723.557 337.673C726.821 325.05 726.399 311.213 723.156 298.659C721.911 293.837 714.728 295.886 715.737 300.697C718.481 313.751 719.285 327.108 714.924 339.897C714.424 341.348 713.875 342.788 713.248 344.19C712.944 344.876 712.003 346.052 712.023 346.738C711.445 347.522 711.856 347.659 713.258 347.12C714.747 347.394 715.139 347.238 714.414 346.659C714.149 345.728 712.091 344.16 711.376 343.553C710.423 342.742 709.353 342.081 708.201 341.593C703.418 339.584 698.097 342.034 697.421 347.316C697.009 350.766 702.203 351.069 703.203 348.1H703.232Z" fill="#382C80"/>
<path d="M570.315 368.102C563.092 388.907 556.164 410.732 553.469 432.655C553.028 436.271 558.878 436.927 559.751 433.507C562.465 422.864 564.396 412.035 567.081 401.393C569.766 390.75 572.638 380.136 575.901 369.65C577.028 366.054 571.501 364.594 570.286 368.102H570.315Z" fill="#382C80"/>
<path d="M690.336 442.788C690.062 443.099 689.807 443.426 689.571 443.768L690.767 442.572C689.6 443.352 688.872 444.639 688.807 446.041C688.747 446.805 688.847 447.573 689.101 448.295C689.718 450.202 691.248 451.673 693.178 452.215C695.647 452.921 697.656 451 697.852 448.658C697.98 447.168 698.078 445.669 698.185 444.179C698.154 442.06 696.444 440.35 694.324 440.318C692.205 440.35 690.495 442.06 690.463 444.179V448.658L695.118 445.12C694.981 445.103 694.846 445.07 694.716 445.022C695.069 445.098 695.39 445.279 695.637 445.542C695.373 445.277 695.422 445.365 695.794 445.816C695.716 445.701 695.647 445.579 695.588 445.453C695.804 445.992 695.853 446.09 695.755 445.728C695.814 446.326 695.833 446.443 695.824 446.061C695.842 445.562 695.786 445.063 695.657 444.581V446.355C695.683 446.223 695.726 446.094 695.784 445.973C696.178 444.547 695.562 443.034 694.285 442.288C693.008 441.581 691.419 441.787 690.365 442.798L690.336 442.788Z" fill="#382C80"/>
<path d="M698.107 491.797C696.434 492.915 695.376 494.748 695.245 496.756C695.174 498.601 695.857 500.395 697.137 501.725C698.769 503.329 701.385 503.329 703.017 501.725C704.683 499.765 705.957 497.364 705.231 494.728C704.819 492.993 703.558 491.585 701.88 490.984C700.57 490.537 699.127 490.71 697.96 491.454C696.411 492.552 695.431 494.747 696.637 496.521C697.088 497.197 696.353 495.747 696.549 496.266C696.745 496.786 696.901 497.08 697.088 497.481C697.372 498.089 696.872 496.874 696.852 496.668C696.735 495.61 696.764 497.109 696.852 496.207C696.941 495.306 696.617 496.639 696.911 495.913C697.205 495.188 696.911 495.913 696.823 496.041L696.509 496.668L702.213 495.169C702.762 495.629 702.879 495.717 702.585 495.423C702.987 495.992 703.085 496.1 702.86 495.737C703.115 496.384 703.164 496.511 703.036 496.119C702.909 495.727 702.968 495.855 703.036 496.227C703.105 496.599 703.085 496.648 703.036 496.335C702.987 496.021 703.036 496.06 702.938 496.727C702.961 496.591 702.993 496.456 703.036 496.325C702.795 496.874 702.765 496.982 702.948 496.648C703.756 495.258 703.531 493.498 702.399 492.356C701.321 491.376 699.391 490.847 698.107 491.797Z" fill="#382C80"/>
<path d="M705.408 539.572C704.152 543.184 705.647 547.178 708.965 549.078C710.43 549.907 712.265 549.672 713.473 548.5C717.011 544.855 714.306 538.867 709.396 538.632C707.251 538.658 705.525 540.406 705.525 542.552C705.525 544.698 707.251 546.445 709.396 546.472C708.829 546.445 708.29 546.215 707.877 545.825C708.377 546.266 707.515 545.296 707.76 545.678C707.858 545.864 707.838 545.815 707.76 545.541C707.613 545.3 707.551 545.017 707.583 544.737V544.962C707.559 544.345 707.81 543.749 708.269 543.336L711.886 542.356C711.474 542.218 711.729 542.287 711.984 542.356C711.621 542.209 711.807 542.209 711.984 542.434L711.582 542.032C712.042 542.532 711.582 541.924 711.582 541.915C711.494 541.748 711.494 541.748 711.582 541.915C711.66 542.101 711.67 542.081 711.582 541.915C711.425 542.287 711.523 541.562 711.582 541.915V541.65C711.582 541.65 711.709 541.278 711.719 541.258C712.178 539.534 711.171 537.76 709.455 537.269C707.734 536.833 705.974 537.831 705.467 539.533L705.408 539.572Z" fill="#382C80"/>
<path d="M714.963 585.172C714.262 587.938 715.456 590.837 717.903 592.306C719.612 593.275 721.782 592.711 722.803 591.032C723.957 589.238 724.268 587.029 723.656 584.985C723.423 584.164 722.923 583.443 722.235 582.937C721.568 582.371 720.718 582.068 719.843 582.085C718.678 582.149 717.548 582.51 716.56 583.133C715.055 584.015 714.327 585.797 714.786 587.48C715.245 589.164 716.776 590.33 718.52 590.326C719.685 590.322 720.829 590.018 721.843 589.444L716.443 588.033C716.557 588.202 716.652 588.383 716.727 588.572L716.345 587.651C716.433 587.91 716.502 588.176 716.551 588.445L716.413 587.465C716.453 587.79 716.453 588.119 716.413 588.445L716.541 587.465C716.49 587.736 716.414 588.001 716.315 588.259L720.696 585.769C720.216 585.613 721.078 585.936 721.078 585.936C720.975 585.896 720.879 585.84 720.794 585.769C720.794 585.769 721.47 586.308 721.108 585.985C720.745 585.662 721.46 586.534 721.284 586.201C721.108 585.867 721.46 586.887 721.411 586.544C721.397 586.432 721.367 586.323 721.323 586.22C721.166 585.867 721.451 586.975 721.392 586.602C721.333 586.23 721.529 585.818 721.323 586.896C721.533 586.039 721.418 585.135 721 584.358C720.332 583.215 719.044 582.583 717.731 582.754C716.418 582.925 715.335 583.866 714.983 585.142L714.963 585.172Z" fill="#382C80"/>
<path d="M685.269 389.77C683.376 392.55 683.407 396.214 685.347 398.962C685.994 400.004 687.076 400.699 688.292 400.855C689.509 401.011 690.731 400.611 691.619 399.766C695.128 396.826 693.677 390.269 688.768 390.073C686.669 390.1 684.977 391.797 684.955 393.895C684.968 394.224 685 394.551 685.053 394.875C685.053 395.16 685.818 397.257 685.308 395.914C685.504 396.434 685.308 395.806 685.308 395.581C685.426 394.973 685.455 394.826 685.377 395.14C685.23 395.679 685.436 395.346 685.994 394.16H691.639C691.485 394.042 691.343 393.907 691.218 393.758C691.521 394.17 691.561 394.189 691.335 393.827C691.11 393.464 691.159 393.484 691.335 393.935C691.289 393.797 691.253 393.656 691.227 393.513C691.169 393.239 691.227 393.327 691.227 393.778C691.213 393.582 691.213 393.386 691.227 393.19C691.149 393.67 691.159 393.709 691.227 393.298C691.296 392.886 691.345 392.925 691.227 393.298C692.114 391.639 691.531 389.577 689.907 388.628C688.284 387.679 686.201 388.184 685.191 389.77H685.269Z" fill="#382C80"/>
<path d="M686.415 827.516C697.519 832.132 709.72 834.846 721.607 836.463C733.634 838.218 745.827 838.521 757.926 837.365C760.572 837.081 760.67 832.965 757.926 833.151C746.124 834.115 734.257 833.98 722.479 832.749C710.347 831.338 698.832 828.241 687.199 824.743C685.367 824.194 684.779 826.83 686.435 827.516H686.415Z" fill="white"/>
<path d="M572.285 818.5C595.599 824.557 617.953 811.64 636.837 799.469C638.719 798.253 637.004 795.264 635.073 796.45C616.316 807.985 595.981 820.754 572.931 816.158C571.412 815.854 570.746 818.118 572.285 818.5Z" fill="white"/>
<path d="M569.58 404.009L574.696 405.244C575.842 405.518 578.998 405.655 579.821 406.439C581.164 407.704 579.899 411.486 579.664 413.005L578.88 418.229C577.832 425.089 576.92 432.027 575.705 438.887C574.725 444.767 573.235 451.127 569.188 455.704C564.935 460.506 559.535 461.976 553.508 460.496C552.509 460.074 551.358 460.541 550.935 461.54C550.513 462.538 550.981 463.69 551.979 464.112C557.604 467.64 565.18 465.014 569.884 461.172C575.852 456.272 578.184 448.432 579.507 441.102C581.154 431.939 582.271 422.658 583.614 413.446C584.015 410.693 585.76 405.92 583.114 403.774C581.83 402.725 579.841 402.588 578.282 402.265C575.705 401.726 573.118 401.216 570.531 400.706C568.365 400.275 567.424 403.519 569.609 404.048L569.58 404.009Z" fill="white"/>
<path d="M759.935 896.116C763.697 893.382 768.429 892.345 772.989 893.254C775.155 893.637 776.095 890.52 773.91 889.913C768.465 888.454 762.65 889.657 758.23 893.156C756.515 894.47 758.142 897.429 759.955 896.096L759.935 896.116Z" fill="white"/>
<path d="M768.843 908.66C771.362 906.609 774.43 905.348 777.663 905.034C779.937 904.799 780.015 901.271 777.663 901.427C773.461 901.712 769.471 903.38 766.315 906.171C764.58 907.66 767.079 910.091 768.814 908.66H768.843Z" fill="white"/>
<path d="M779.8 915.677L786.542 914.021C788.571 913.521 787.708 910.355 785.67 910.875L778.957 912.58C776.997 913.09 777.8 916.157 779.8 915.667V915.677Z" fill="white"/>
<path d="M587.632 887.012C592.359 886.865 596.876 888.971 599.803 892.686C600.969 894.107 603.488 892.196 602.371 890.726C598.949 886.097 593.417 883.515 587.671 883.866C585.652 883.984 585.623 887.1 587.671 887.032L587.632 887.012Z" fill="white"/>
<path d="M583.565 901.888C587.142 903.937 590.67 906.191 594.423 907.915C595.202 908.294 596.14 908.009 596.577 907.261C597.014 906.514 596.801 905.556 596.089 905.064C592.63 902.81 588.837 901.036 585.191 899.105C583.359 898.125 581.752 900.85 583.565 901.888Z" fill="white"/>
<path d="M578.4 914.687C581.295 915.913 584.003 917.539 586.446 919.518C588.102 920.871 590.474 918.489 588.808 917.157C586.024 914.927 582.939 913.102 579.645 911.737C577.969 911.041 576.705 913.962 578.4 914.677V914.687Z" fill="white"/>
<path d="M168.437 67.2223C167.744 116.575 167.332 165.928 167.202 215.281C167.136 273.702 167.326 332.12 167.77 390.534C168.201 451.98 168.91 513.426 169.897 574.872C170.785 633.783 171.938 692.684 173.356 751.576C174.581 802.34 175.983 853.104 177.854 903.839C178.05 909.238 178.413 914.619 178.883 919.96C179.324 925.075 186.929 925.261 186.978 919.96C187.184 896.9 185.685 873.772 184.95 850.732C184.126 824.481 183.378 798.23 182.705 771.979C181.209 713.585 179.965 655.18 178.972 596.765C177.867 535.319 176.976 473.873 176.296 412.427C175.591 353.516 175.107 294.602 174.846 235.684C174.65 184.911 174.405 134.137 174.846 83.3531C174.898 77.9827 174.954 72.6058 175.012 67.2223C175.012 62.9887 168.486 62.9887 168.427 67.2223H168.437Z" fill="#382C80"/>
<path d="M273.179 167.114L60.8031 142.653L38.5571 111.146L67.3789 85.5286L279.755 109.989L273.179 167.114Z" fill="#7F72FF"/>
<path d="M273.179 163.056L200.982 154.746L86.8908 141.604L60.8032 138.596L64.3018 140.605L42.0558 109.107L41.4188 114.007L70.2504 88.4L67.3888 89.576L139.576 97.8864L253.667 111.028L279.755 114.037L275.707 109.96L269.122 167.084C268.534 172.249 276.638 172.21 277.226 167.084L283.802 109.96C284.077 107.608 281.715 106.128 279.755 105.903L250.864 102.61L185.283 95.0542L114.674 86.9202L70.6718 81.8536C69.6285 81.6757 68.5741 81.5709 67.5162 81.54C65.1152 81.5988 63.2826 83.8136 61.6362 85.3228L37.6066 106.589L35.6466 108.284C34.3494 109.585 34.0881 111.595 35.0096 113.184L50.6896 135.352C52.8456 138.409 54.8742 141.634 57.1968 144.574C58.5198 146.249 60.0192 146.602 61.9302 146.828C74.6702 148.317 87.3514 149.768 100.062 151.218L169.309 159.195L237.282 167.035L261.037 169.74C264.859 170.181 268.779 170.916 272.63 171.083C272.814 171.093 272.997 171.112 273.179 171.141C278.344 171.759 278.304 163.654 273.179 163.056Z" fill="#7F72FF"/>
<path d="M286.272 359.811L72.5044 361.683L46.554 333.155L72.0046 304.176L285.772 302.314L286.272 359.811Z" fill="#7F72FF"/>
<path d="M286.272 355.764L213.615 356.391L98.7585 357.371L72.5043 357.596L75.3757 358.782L49.4155 330.264V335.987L74.8955 307.009L72.0339 308.204L144.701 307.567L259.547 306.587L285.801 306.362L281.754 302.315L282.254 359.811C282.303 365.025 290.398 365.035 290.358 359.811L289.849 302.315C289.822 300.089 288.027 298.289 285.801 298.257L256.715 298.512L190.712 299.09L119.633 299.708L75.3463 300.1C74.3075 300.1 73.2099 300.021 72.1711 300.1C69.4467 300.364 68.2511 302.334 66.5753 304.235L45.3975 328.343L43.7119 330.303C42.1937 331.909 42.1937 334.421 43.7119 336.027L61.9399 356.097C65.0857 359.547 68.5941 365.681 73.6999 365.721C86.5673 365.819 99.4347 365.495 112.302 365.378L181.735 364.78L250.159 364.182C261.987 364.074 273.924 364.437 285.743 363.868H286.252C291.485 363.78 291.495 355.715 286.272 355.764Z" fill="#7F72FF"/>
<path d="M76.9439 262.33L290.506 252.952L314.927 223.091L287.987 195.504L74.4155 204.883L76.9439 262.33Z" fill="#7F72FF"/>
<path d="M76.9339 266.388L106.04 265.104L171.994 262.213L243.005 259.087L287.252 257.127C288.291 257.078 289.378 257.127 290.417 256.98C293.22 256.656 294.259 254.765 295.905 252.756L316.221 227.913L317.838 225.953C319.367 224.348 319.367 221.825 317.838 220.22L298.826 200.806C295.641 197.543 291.77 191.388 286.772 191.506C273.914 191.8 261.056 192.633 248.209 193.201L178.834 196.249L110.479 199.248C98.6409 199.767 86.7437 199.963 74.9249 200.816H74.4153C72.1911 200.842 70.3944 202.639 70.3679 204.863L72.8865 262.311C73.1119 267.505 81.2165 267.534 80.9911 262.311L78.4627 204.863L74.4153 208.94L147.014 205.745L261.752 200.708L287.987 199.552L285.115 198.366L312.065 225.963V220.23L287.644 250.1L290.505 248.914L217.917 252.06L103.169 257.127L76.9339 258.283C71.7399 258.508 71.7399 266.613 76.9339 266.388Z" fill="#7F72FF"/>
<path d="M173.209 60.3819C172.207 59.9787 171.53 59.0303 171.475 57.9515C171.426 57.1773 171.828 57.1773 172.337 56.8833C172.435 56.8343 172.582 56.6187 172.817 56.9617C172.651 56.7167 171.994 55.8151 172.308 56.5207L172.367 56.1973C172.229 56.6285 172.21 56.7069 172.367 56.4423C172.523 56.1777 171.847 56.6481 172.445 56.3639C171.926 56.6089 172.445 56.7069 172.445 56.3639C173.023 56.0993 172.964 56.1189 172.288 56.3639C171.612 56.6089 171.553 56.6775 172.092 56.3639C167.192 57.8633 168.172 64.9291 173.288 65.1839C177.953 65.3897 180.942 60.7053 180.765 56.4423C180.701 54.2847 179.761 52.2464 178.162 50.7969C176.562 49.3473 174.442 48.6115 172.288 48.7591C167.878 49.0825 163.958 52.5615 163.782 57.1087C163.786 61.7099 166.99 65.6888 171.485 66.6735C175.689 67.6535 177.188 61.7735 173.239 60.3035L173.209 60.3819Z" fill="#382C80"/>
<path d="M201.982 877.731C196.445 871.175 197.474 860.944 203.873 855.387H200.933C207.881 861.811 211.239 871.233 209.92 880.603L214.222 880.034C209.665 871.283 215.565 859.611 226.139 860.983C230.618 861.571 234.449 864.54 235.214 869.127C236.027 873.499 234.007 877.91 230.167 880.152C227.795 881.475 229.393 885.63 232.068 884.65C236.282 883.111 241.437 880.995 245.886 882.69C247.666 883.305 249.152 884.564 250.051 886.218C251.149 888.374 250.051 890.02 249.532 892.098C247.895 898.321 253.177 900.849 258.43 901.3C261.586 901.565 264.555 901.467 267.515 902.809C270.794 904.292 273.482 906.832 275.149 910.022C278.52 916.627 276.06 924.634 270.533 929.191C268.093 931.151 271.572 934.601 273.992 932.65C287.242 921.978 281.97 900.007 265.114 896.812C262.419 896.302 256.98 897.351 254.833 895.44C253.324 894.097 255.412 890.706 255.539 889.011C255.689 887.27 255.349 885.522 254.559 883.964C249.786 874.732 238.703 876.977 230.794 879.877L232.695 884.385C238.052 881.223 240.964 875.135 240.065 868.98C239.148 862.477 234.058 857.354 227.56 856.397C212.791 853.878 203.687 869.95 210.204 882.406C211.067 884.062 214.222 883.886 214.497 881.847C216.06 870.893 212.083 859.877 203.883 852.447C203.061 851.661 201.765 851.661 200.943 852.447C193.058 859.823 192.38 872.1 199.405 880.299C200.963 882.073 203.481 879.505 201.982 877.731Z" fill="#382C80"/>
<path d="M154.805 891.157C152.943 886.61 147.033 887.933 144.348 891.039C139.811 896.292 144.681 903.093 148.268 907.268L151.414 904.122C147.817 900.083 141.918 899.041 137.155 901.604C132.468 904.335 130.434 910.05 132.343 915.128C132.638 916.21 133.755 916.849 134.837 916.554C135.92 916.259 136.558 915.142 136.263 914.06C134.695 906.7 142.868 901.418 148.307 907.268C150.267 909.375 153.345 906.288 151.453 904.122C149.405 901.819 145.73 897.948 147.053 894.538C147.415 893.468 148.279 892.644 149.364 892.333C150.45 892.022 151.619 892.264 152.492 892.98C153.047 893.291 153.734 893.24 154.238 892.852C154.741 892.464 154.965 891.812 154.805 891.196V891.157Z" fill="#382C80"/>
<path d="M90.595 339.447C93.4272 344.347 99.17 339.996 101.375 336.909C105.359 331.227 106.869 324.172 105.56 317.358C105.398 316.799 104.99 316.344 104.451 316.124C103.912 315.905 103.302 315.944 102.796 316.231C94.4758 322.375 95.9948 336.027 106.716 338.545C112.596 339.917 118.172 336.879 122.837 333.645C128.196 329.97 133.046 325.604 137.263 320.66C137.655 320.258 137.842 319.699 137.772 319.142C137.701 318.585 137.38 318.09 136.9 317.799C132 315.143 126.296 318.161 124.346 323.12C122.131 328.735 126.042 334.37 131.02 336.84C137.341 339.947 144.358 338.124 150.453 335.39C156.333 332.753 162.978 329.372 164.663 322.65C164.824 322.04 164.694 321.391 164.31 320.89C163.927 320.39 163.334 320.095 162.703 320.092C158.499 320.258 156.823 324.933 158.499 328.451C161.204 334.253 169.279 332.028 174.287 332.136C188.272 332.43 202.384 339.564 216.006 333.41C217.966 332.518 216.554 329.059 214.516 329.882C205.03 333.714 195.21 331.127 185.557 329.421C181.114 328.517 176.587 328.083 172.053 328.128C169.877 328.206 167.652 328.637 165.477 328.402C164.164 328.255 162.537 327.902 162.047 326.54C161.802 325.913 161.635 324.159 162.703 324.129L160.743 321.572C159.646 325.737 155.902 328.069 152.306 329.96C148.062 332.126 143.329 334.38 138.38 334.38C134.323 334.38 129.491 332.42 128.031 328.285C126.639 324.365 130.687 318.749 135.028 320.905L134.656 318.034C129.266 324.276 122.386 330.715 114.625 333.822C110.293 335.556 105.334 335.282 102.522 331.097C100.077 327.247 101.027 322.162 104.697 319.455L101.924 318.338C102.706 322.199 102.435 326.2 101.14 329.921C100.544 331.613 99.73 333.221 98.7192 334.704C98.2978 335.321 94.8482 339.966 93.5154 337.761C93.0499 336.966 92.0276 336.698 91.232 337.163C90.4364 337.629 90.1687 338.651 90.6342 339.447H90.595Z" fill="white"/>
<path d="M228.265 335.429C230.764 335.429 230.774 331.509 228.265 331.509C225.757 331.509 225.757 335.429 228.265 335.429Z" fill="white"/>
<path d="M118.584 225.345C115.752 235.567 125.003 244.593 134.969 244.201C147.709 243.691 155.216 232.793 159.861 222.19C160.557 220.592 158.96 218.191 157.137 219.475C152.985 222.437 151.301 227.793 153.011 232.597C154.814 238.056 160.253 241.31 165.751 242.054C172.552 242.976 179.226 240.281 185.145 237.154C190.761 234.214 195.72 230.373 198.121 224.356C198.39 223.371 197.811 222.354 196.827 222.082C192.388 221.19 188.762 225.581 189.506 229.922C190.486 235.802 197.709 237.243 202.638 237.233C215.726 237.051 227.706 229.845 233.998 218.368C234.386 217.648 234.255 216.759 233.677 216.18C233.099 215.602 232.21 215.471 231.49 215.859C228.827 217.13 227.519 220.178 228.432 222.984C229.412 226.355 232.92 228.138 236.037 229.05C244.076 231.278 252.696 229.348 259.018 223.905C260.978 222.249 258.146 219.407 256.176 221.063C252.406 224.243 247.661 226.035 242.73 226.139C240.462 226.217 238.197 225.885 236.047 225.159C234.087 224.454 229.187 220.818 233.342 219.024L230.833 216.516C226.818 223.977 220.072 229.596 212.007 232.196C208.223 233.455 204.223 233.939 200.247 233.617C198.14 233.421 195.426 232.842 193.965 231.167C192.505 229.491 192.466 224.669 195.876 225.688L194.583 223.415C191.329 231.598 179.883 237.007 171.67 238.34C167.035 239.095 161.665 238.252 158.382 234.606C155.442 231.323 155.324 225.561 159.185 222.905L156.245 220.661C153.207 229.167 147.425 237.899 138.076 240.085C129.746 242.045 119.456 235.851 122.102 226.306C122.373 225.34 121.809 224.337 120.843 224.066C119.877 223.796 118.874 224.36 118.603 225.326L118.584 225.345Z" fill="white"/>
<path d="M273.081 224.326H275.688C276.732 224.326 277.579 223.479 277.579 222.435C277.579 221.39 276.732 220.543 275.688 220.543H273.081C272.167 220.729 271.511 221.532 271.511 222.464C271.511 223.396 272.167 224.199 273.081 224.385V224.326Z" fill="white"/>
<path d="M94.4367 109.509C94.3665 108.306 93.5476 107.277 92.3911 106.938C91.2345 106.6 89.9899 107.025 89.2819 108C86.9789 110.94 89.8111 117.467 91.6829 120.005C97.8471 128.335 108.647 122.484 114.223 116.889C116.898 114.203 119.897 110.793 116.183 107.402C113.606 105.05 109.627 105.442 106.922 107.324C103.786 109.548 103.002 113.635 104.188 117.124C105.619 121.504 109.588 124.248 113.841 125.493C124.778 128.678 137.361 125.15 145.671 117.653L142.359 116.781C144.26 123.239 150.552 126.052 156.5 127.914C166.026 130.912 175.649 133.705 185.253 136.44C187.733 137.155 188.762 133.353 186.312 132.598C178.305 130.128 170.259 127.816 162.223 125.444C156.588 123.778 148.111 122.23 146.181 115.722C146.004 115.033 145.469 114.494 144.781 114.313C144.093 114.131 143.361 114.337 142.868 114.85C137.901 119.269 131.629 121.949 125.003 122.484C119.123 122.994 108.176 122.22 107.588 114.429C107.38 113.287 107.663 112.11 108.368 111.188C109.074 110.266 110.136 109.685 111.293 109.588C111.951 109.503 112.608 109.758 113.038 110.264C113.467 110.771 113.611 111.46 113.419 112.096C113.086 113.076 111.077 114.537 110.303 115.272C108.98 116.619 107.496 117.798 105.883 118.78C103.08 120.358 99.3465 121.132 96.3967 119.407C93.0647 117.447 92.8589 113.194 91.8887 109.882C92.0768 110.49 92.6768 110.873 93.3079 110.788C93.9389 110.703 94.4162 110.175 94.4367 109.539V109.509Z" fill="white"/>
<path d="M207.48 136.724H208.126C209.209 136.724 210.086 135.846 210.086 134.764C210.086 133.681 209.209 132.804 208.126 132.804H207.48C206.727 132.751 206.007 133.123 205.615 133.768C205.222 134.413 205.222 135.223 205.615 135.867C206.007 136.512 206.727 136.884 207.48 136.832V136.724Z" fill="white"/>
<path d="M182.774 398.531C170.857 395.003 156.432 398.462 149.454 408.752C147.051 412.545 145.367 416.747 144.485 421.149C143.143 426.961 142.525 433.105 144.113 438.868C147.22 450.285 159.058 458.272 170.896 458.154C182.735 458.037 193.877 450.579 199.738 440.289C204.569 431.802 205.971 420.914 201.531 412.212C197.092 403.509 186.047 398.08 176.943 401.677" fill="#7F72FF"/>
<path d="M183.695 395.209C170.328 391.406 154.903 394.091 146.348 405.871C141.546 412.476 139.39 421.375 138.919 429.391C138.364 437.09 140.718 444.717 145.515 450.765C155.011 462.662 171.396 465.71 185.058 459.732C199.307 453.499 209.724 438.28 208.96 422.492C208.548 414.005 204.922 406.175 198.082 401.03C191.771 396.277 183.254 394.307 175.699 397.11C170.083 399.168 172.435 408.184 178.188 406.175C188.39 402.617 198.092 410.947 199.277 421.012C200.64 432.566 193.633 443.954 183.813 449.628C174.503 455.018 162.645 454.528 154.413 447.198C145.083 438.819 146.093 424.236 151.355 413.74C156.785 402.96 170.583 398.727 181.804 401.824C186.096 403.009 187.909 396.394 183.646 395.179L183.695 395.209Z" fill="#7F72FF"/>
<path d="M158.96 408.252C150.071 415.191 146.122 427.294 151.767 437.574C157.039 447.168 169.887 450.863 178.972 444.248C181.137 442.67 179.07 439.024 176.835 440.602C169.132 446.061 158.911 443.003 154.785 434.673C150.552 426.128 154.197 416.269 161.096 410.389C162.596 409.105 160.459 407.076 158.96 408.252Z" fill="white"/>
<path d="M192.143 415.269C192.557 416.382 192.884 417.526 193.123 418.689C193.227 419.875 193.263 421.066 193.231 422.257C193.261 423.076 193.878 423.755 194.691 423.864C195.504 423.973 196.278 423.48 196.523 422.698C197.451 419.744 196.978 416.528 195.24 413.966C194.152 412.535 191.574 413.26 192.133 415.269H192.143Z" fill="white"/>
<path d="M750.811 166.261C755.799 158.49 765.511 154.805 773.606 151.218C781.907 147.553 790.736 143.633 796.597 136.41C803.555 127.808 804.839 115.931 799.88 106.04C794.921 96.2401 783.671 91.3401 773.067 92.9865C760.513 94.9465 749.126 109.98 759.18 121.22C762.512 124.944 768.824 120.093 766.119 115.87C760.699 107.422 771.587 101.307 778.859 101.601C787.602 101.963 794.725 108.743 795.519 117.457C797.253 135.323 777.967 141.438 765.139 147.778C757.495 151.551 750.801 156.285 746.215 163.615C744.382 166.555 748.979 169.201 750.831 166.31L750.811 166.261Z" fill="#382C80"/>
<path d="M742.06 179.736C747.371 179.736 747.381 171.475 742.06 171.475C736.738 171.475 736.738 179.736 742.06 179.736Z" fill="#382C80"/>
<path d="M772.646 200.297C773.782 191.33 786.366 189.017 793.51 188.38C798.717 188.057 803.944 188.35 809.082 189.252C813.815 189.938 818.568 190.173 822.969 187.968C829.829 184.548 837.394 174.385 835.709 166.408C833.749 156.941 822.841 153.09 814.305 154.266C809.405 154.942 810.513 163.498 815.481 162.968C819.245 162.576 823.204 163.223 826.026 165.967C829.329 169.172 826.33 173.631 824.184 176.688C822.038 179.746 819 182.127 814.991 182.353C810.483 182.608 805.956 181.373 801.448 181.245C788.796 180.863 768.618 184.793 766.922 200.306C766.521 203.991 772.195 203.903 772.646 200.306V200.297Z" fill="#382C80"/>
<path d="M758.514 223.15C763.502 223.15 763.512 215.398 758.514 215.398C753.516 215.398 753.516 223.15 758.514 223.15Z" fill="#382C80"/>
</svg>
