<svg width="1000" height="1000" viewBox="0 0 1000 1000" fill="none" xmlns="http://www.w3.org/2000/svg">
<path d="M122.857 536.26C115.017 535.104 111.411 529.675 104.992 526.715C98.1315 523.54 93.6039 529.381 89.9583 534.986C82.3143 546.746 75.0199 558.728 68.0749 570.933C64.1549 577.851 60.2349 585.27 60.3819 593.237C61.0091 620.913 86.4107 649.764 107.422 664.973C117.429 672.398 128.646 678.035 140.575 681.633C163.341 688.199 184.911 682.192 207.656 684.191C227.207 685.916 241.329 672.039 248.287 654.38C252.629 643.364 254.167 631.467 255.147 619.678C256.01 609.603 256.127 593.757 244.005 590.376C239.889 589.229 235.136 590.376 230.941 590.219C223.905 590.023 217.505 587.926 210.724 586.299" fill="#382C80"/>
<path d="M123.798 532.83C116.35 531.095 111.93 524.206 104.688 522.05C97.681 519.972 92.1244 524.5 88.1652 529.782C82.7164 537.073 78.032 545.08 73.328 552.822C68.624 560.564 63.43 568.58 59.608 576.969C46.0448 606.996 71.7404 640.473 93.0456 659.632C105.139 670.52 119.055 679.506 134.46 684.896C152.404 691.178 170.828 689.63 189.468 688.973C198.219 688.669 207.245 690.169 215.928 689.071C222.57 688.233 228.888 685.714 234.283 681.751C246.318 672.931 253.227 658.975 256.647 644.765C258.762 635.521 260.002 626.097 260.351 616.62C260.675 610.054 260.351 603.125 257.725 597.02C255.179 590.611 249.34 586.102 242.496 585.26C237.507 584.662 232.529 585.789 227.531 585.191C222.288 584.574 217.163 582.967 212.047 581.722C206.098 580.262 203.57 589.366 209.519 590.905C216.82 592.806 224.219 595.119 231.794 595.109C237.556 595.109 244.22 593.266 247.886 599.029C253.56 607.849 250.208 623.088 248.699 632.574C246.582 645.902 242.652 659.701 232.941 669.589C228.978 673.783 223.957 676.83 218.407 678.409C211.88 680.163 205.177 678.889 198.523 678.83C182.441 678.693 166.183 681.427 150.189 678.83C135.097 676.361 121.064 669.099 108.863 660.073C97.9897 652.042 88.406 642.399 80.4428 631.477C72.7204 620.716 65.8604 608.064 65.1842 594.668C64.7138 585.554 69.5648 577.753 73.9258 570.168C78.473 562.23 83.1966 554.4 87.9986 546.648C90.8112 542.081 96.4364 528.39 103.257 530.752C106.403 531.84 109.137 534.359 111.911 536.074C114.954 537.984 118.356 539.255 121.907 539.807C126.317 540.454 128.394 533.986 123.798 532.947V532.83Z" fill="#382C80"/>
<path d="M109.773 586.289C100.591 580.644 89.9775 561.054 94.3091 551.088C95.4459 548.461 97.2491 546.188 98.6603 543.708C107.48 528.587 105.285 502.107 108.401 484.908C116.368 441.025 131.068 398.636 151.982 359.243C156.804 350.188 163.085 341.475 166.604 331.92C169.152 324.972 169.201 316.721 175.316 311.34C180.912 306.44 190.075 307.822 195.798 312.595C201.521 317.367 204.53 324.59 206.901 331.666C212.997 349.894 240.309 336.399 254.451 337.418C276.422 338.996 297.571 350.58 310.997 367.955C324.109 384.889 330.136 406.538 329.695 427.794C329.489 437.78 326.981 446.551 324.795 456.047C322.022 468.268 321.071 480.155 316.544 492.072C309.213 511.358 297.355 529.312 280.587 541.356C258.165 557.448 234.527 562.348 240.143 596.903C241.456 605.007 244.171 613.808 240.28 621.04C235.88 629.213 225.208 631.33 215.927 631.555C179.222 632.263 143.811 617.989 117.858 592.022" fill="white"/>
<path d="M111.204 583.829C103.188 578.449 94.3776 563.788 97.0628 553.802C97.9742 550.402 100.738 547.53 102.404 544.482C103.76 541.932 104.879 539.261 105.746 536.505C107.611 530.252 108.82 523.821 109.352 517.317C110.851 503.097 111.508 489.191 114.507 475.177C118.1 458.375 122.662 441.795 128.168 425.52C133.786 408.922 140.413 392.682 148.013 376.893C151.639 369.376 155.412 361.928 159.646 354.735C163.634 347.963 167.78 341.27 170.592 333.89C172.876 327.893 172.934 319.582 177.932 315.006C183.812 309.645 192.338 314.31 196.307 319.602C203.079 328.637 202.54 341.564 215.27 344.876C225.129 347.453 235.782 344.121 245.533 342.544C258.057 340.505 271.16 344.151 282.283 349.913C310.291 364.437 325.119 394.425 325.177 425.373C325.177 433.948 323.433 442.161 321.473 450.471C319.513 458.781 318.17 467.278 316.426 475.686C313.188 491.14 306.657 505.714 297.277 518.414C289.084 529.537 278.657 537.662 266.956 544.874C258.439 550.098 249.237 555.184 242.867 563.083C235.782 571.903 233.841 582.84 235.106 593.874C235.939 601.156 239.349 609.662 237.066 616.914C234.978 623.559 227.579 625.842 221.386 626.626C192.75 630.232 161.606 619.384 138.242 603.38C132.074 599.117 126.293 594.319 120.965 589.043C117.045 585.123 110.959 591.189 114.86 595.158C137.326 617.866 166.938 632.13 198.699 635.544C211.742 636.965 229.402 638.307 239.996 628.85C252.902 617.316 243.426 599.901 244.004 585.495C244.484 573.902 251.295 566.023 260.507 559.79C271.209 552.548 282.694 546.707 292.24 537.838C303.686 527.225 312.379 513.769 318.513 499.481C325.658 482.821 327.814 464.446 331.665 446.855C338.692 414.819 330.352 378.666 305.94 355.783C294.661 345.163 280.697 337.824 265.554 334.557C259.457 333.125 253.16 332.744 246.934 333.43C241.368 334.145 235.899 335.39 230.353 336.252C225.776 336.918 220.063 337.742 215.653 335.713C210.263 333.204 209.479 325.266 207.078 320.425C201.198 308.577 185.792 297.787 173.179 307.42C167.397 311.83 165.535 318.71 163.82 325.433C161.645 333.949 157.225 341.348 152.786 348.845C143.707 364.508 135.812 380.828 129.168 397.669C122.159 414.903 116.296 432.582 111.616 450.589C107.461 466.68 103.776 483.017 102.708 499.589C101.728 513.661 102.384 530.067 95.0146 542.63C91.663 548.353 89.1346 552.822 90.1146 559.604C91.1513 565.835 93.5287 571.767 97.0824 576.989C99.9403 581.652 103.751 585.66 108.264 588.749C111.371 590.709 114.144 585.858 111.136 583.849L111.204 583.829Z" fill="#382C80"/>
<path d="M909.209 563.21C900.633 604.245 882.292 642.608 855.74 675.048C822.851 715.051 790.012 735.318 742.266 754.065C634.466 796.421 499.461 752.37 438.094 654.282C381.704 564.122 380.499 445.542 444.513 359.694C542.081 228.913 753.144 207.264 859.827 338.359C869.436 350.145 877.736 362.941 884.582 376.52C913.923 434.791 922.38 501.255 909.209 563.21Z" fill="#7F72FF"/>
<path d="M905.122 562.083C892.627 620.001 860.748 673.881 813.845 710.553C792.618 727.154 768.265 739.179 743.285 749.106C720.076 758.375 695.541 763.889 670.598 765.443C620.942 768.481 570.57 756.623 527.205 732.299C482.157 707.078 446.342 668.129 424.981 621.128C401.794 570.668 394.268 512.74 405.302 458.232C415.818 406.292 443.179 359.586 482.644 324.315C517.101 293.514 559.603 272.16 604.546 261.703C648.646 251.452 695.304 251.756 738.934 264.114C783.919 276.777 824.085 302.614 854.26 338.3C894.95 386.673 913.178 453.617 910.806 516.111C910.209 531.571 908.307 546.953 905.122 562.093C904.015 567.414 912.178 569.688 913.295 564.347C926.612 500.016 917.784 433.073 888.246 374.393C864.491 327.353 823.086 289.623 775.115 268.279C731.995 249.091 683.858 242.476 637.014 247.64C589.827 252.854 543.914 269.455 504.714 296.346C461.594 325.932 427.294 367.465 408.585 416.455C388.084 470.09 386.898 530.243 402.705 585.25C417.797 637.749 447.785 685.083 491.17 718.589C532.026 750.135 582.173 769.147 633.564 773.469C659.3 775.679 685.222 773.924 710.425 768.265C736.885 762.268 762.679 751.429 786.464 738.473C838.1 710.328 877.976 662.925 899.84 608.555C905.575 594.224 910.079 579.431 913.305 564.337C914.442 559.016 906.278 556.742 905.122 562.083Z" fill="#7F72FF"/>
<path d="M905.122 562.083C892.627 620.001 860.748 673.881 813.845 710.553C792.618 727.154 768.265 739.179 743.285 749.106C720.076 758.375 695.541 763.889 670.598 765.443C620.942 768.481 570.57 756.623 527.205 732.299C482.157 707.078 446.342 668.129 424.981 621.128C401.794 570.668 394.268 512.74 405.302 458.232C415.818 406.292 443.179 359.586 482.644 324.315C517.101 293.514 559.603 272.16 604.546 261.703C648.646 251.452 695.304 251.756 738.934 264.114C783.919 276.777 824.085 302.614 854.26 338.3C894.95 386.673 913.178 453.617 910.806 516.111C910.209 531.571 908.307 546.953 905.122 562.093C904.015 567.414 912.178 569.688 913.295 564.347C926.612 500.016 917.784 433.073 888.246 374.393C864.491 327.353 823.086 289.623 775.115 268.279C731.995 249.091 683.858 242.476 637.014 247.64C589.827 252.854 543.914 269.455 504.714 296.346C461.594 325.932 427.294 367.465 408.585 416.455C388.084 470.09 386.898 530.243 402.705 585.25C417.797 637.749 447.785 685.083 491.17 718.589C532.026 750.135 582.173 769.147 633.564 773.469C659.3 775.679 685.222 773.924 710.425 768.265C736.885 762.268 762.679 751.429 786.464 738.473C838.1 710.328 877.976 662.925 899.84 608.555C905.575 594.224 910.079 579.431 913.305 564.337C914.442 559.016 906.278 556.742 905.122 562.083Z" fill="#382C80"/>
<path d="M418.424 402.294L418.258 403.107C396.541 464.142 434.183 463.985 445.972 470.727C458.712 478.028 447.325 501.049 455.302 513.357C463.583 526.098 480.939 529.155 492.62 538.906C503.939 548.363 508.967 563.347 511.671 577.851C514.376 592.355 515.327 607.349 520.785 621.05C521.765 623.519 523.128 626.156 525.617 627.096C529.076 628.4 532.712 625.773 535.338 623.176C544.886 613.677 552.134 602.118 556.526 589.386C559.976 579.331 561.602 568.669 565.797 558.898C569.991 549.128 577.557 539.915 587.925 537.632C603.889 534.114 620.794 547.775 636.024 541.846C645.951 537.985 651.361 526.313 650.194 515.719C649.028 505.126 642.443 495.776 634.377 488.828C623.323 479.293 608.123 471.737 605.33 457.4C604.183 451.52 605.399 445.042 602.704 439.671C600.744 435.751 596.912 433.017 593.158 430.675C580.876 423.012 567.504 417.253 553.498 413.594C549.774 412.614 545.883 411.741 542.855 409.37C536.22 404.186 536.407 393.454 541.199 386.536C545.991 379.617 554.027 375.756 561.926 372.816C569.825 369.876 578.115 367.524 584.848 362.467C600.273 350.844 602.919 327.451 595.138 309.772C587.504 292.417 572.069 279.774 555.869 269.867C494.928 294.997 445.802 342.329 418.424 402.294Z" fill="#382C80"/>
<path d="M596.334 607.584C588.19 618.639 581.83 632.692 585.76 645.804C589.993 659.936 607.055 668.697 621.04 663.895C622.179 663.571 623.226 662.983 624.097 662.18C625.499 660.72 625.704 658.525 626.439 656.633C629.507 648.793 640.894 647.5 645.128 640.209C649.479 632.702 644.03 623.186 637.435 617.561C626.664 608.451 612.835 603.771 598.745 604.468" fill="#382C80"/>
<path d="M899.184 421.708C897.341 422.581 895.591 423.639 893.96 424.863C871.694 445.488 842.764 457.433 812.434 458.526C796.911 459.026 780.398 456.841 766.678 464.102C754.379 470.639 746.846 483.581 747.237 497.504C747.628 511.426 755.874 523.925 768.52 529.762C778.879 534.604 792.648 535.642 797.92 545.756C803.898 557.251 794.059 570.158 790.178 582.526C783.651 603.302 797.509 628.125 818.598 633.486C822.195 634.397 826.056 634.867 829.035 637.072C833.543 640.404 834.66 646.608 835.072 652.213C835.484 657.819 835.689 663.866 839.208 668.246C842.775 672.757 847.314 676.405 852.487 678.918C913.107 607.805 930.928 509.641 899.174 421.757L899.184 421.708Z" fill="#382C80"/>
<path d="M798.36 293.494C797.645 293.847 796.93 294.21 796.214 294.602C787.036 299.827 778.504 306.112 770.793 313.329C763.012 320.425 756.671 330.068 756.789 340.603C756.848 346.189 758.749 351.589 760.562 356.871C762.855 363.466 765.236 370.189 769.558 375.667C773.88 381.145 780.593 385.252 787.551 384.595C795.616 383.831 801.918 377.098 809.787 375.158C815.344 373.786 821.361 374.893 826.79 373.051C833.346 370.826 837.894 364.583 839.893 357.949C841.892 351.314 841.725 344.229 841.549 337.369C841.895 335.328 842.532 333.348 843.44 331.489C829.908 317.15 814.783 304.403 798.36 293.494V293.494Z" fill="#382C80"/>
<path d="M660.72 577.734C663.395 582.232 666.247 586.897 670.716 589.611C675.185 592.326 681.77 592.336 684.965 588.2C688.836 583.202 685.259 575.293 679.546 572.598C673.832 569.903 667.109 570.923 660.926 572.324" fill="#382C80"/>
<path d="M632.496 254.735C635.269 258.94 639.973 261.184 640.963 266.123C642.306 272.826 642.404 279.706 643.433 286.458C644.462 293.21 646.579 300.07 651.224 305.078C655.869 310.086 663.533 312.732 669.785 309.978C676.263 307.116 679.291 299.727 681.251 292.926C684.711 280.917 686.777 268.55 687.405 256.068C687.405 256.068 687.582 254.686 687.748 252.413C668.782 249.976 649.604 249.647 630.565 251.433C631.147 252.568 631.792 253.671 632.496 254.735Z" fill="#382C80"/>
<path d="M523.098 754.016L516.601 772.44C515.121 776.664 512.593 781.338 512.24 785.866C511.946 789.678 513.788 793.069 516.405 795.734C523.765 803.231 535.564 806.74 545.295 809.748C568.159 816.814 592.267 821.244 616.081 823.733C663.209 828.633 711.64 823.204 757.289 810.797C793.931 800.84 826.565 782.063 856.475 758.945C883.768 737.836 907.778 712.493 925.859 683.015C946.517 649.332 958.444 611.475 963.706 572.461C969.723 527.851 968.361 482.164 958.287 438.201C953.21 416.039 945.802 394.477 936.188 373.874C926.633 353.431 914.001 334.831 899.8 317.347C872.85 284.184 841.794 255.99 805.72 233.067C789.59 222.797 755.623 199.943 739.384 221.552C735.072 227.295 733.622 234.43 732.848 241.417C732.24 246.787 740.688 246.738 741.246 241.417C742.579 229.726 747.793 220.014 760.797 221.523C772.822 222.915 784.258 229.833 794.392 235.988C826.891 255.696 856.21 280.224 881.347 308.733C895.802 325.05 909.326 342.337 920.155 361.3C930.778 379.92 938.775 400.05 944.851 420.541C957.013 461.535 960.884 504.684 957.826 547.275C955.023 586.259 946.546 624.979 928.916 660.063C913.961 689.806 893.117 716.041 868.323 738.179C856.412 748.744 843.764 758.448 830.475 767.216C816.118 776.752 801.163 785.974 785.199 792.569C766.099 800.458 745.901 805.505 725.654 809.396C703.52 813.83 681.05 816.387 658.485 817.04C628.968 817.696 601.322 814.266 572.627 808.141C560.466 805.544 548.225 802.604 536.603 798.096C532.142 796.535 527.915 794.372 524.039 791.667C522.931 790.862 521.941 789.906 521.099 788.825C520.553 788.173 520.249 787.353 520.237 786.503C520.619 782.377 523.177 777.526 524.48 773.606L530.36 756.035C531.908 751.399 524.686 749.478 523.088 754.075L523.098 754.016Z" fill="#382C80"/>
<path d="M658.143 823.233C656.065 836.434 657.163 850.438 657.163 863.786C657.094 877.653 657.016 891.53 657.447 905.387C657.604 910.434 665.13 910.444 665.287 905.387C665.728 891.53 665.65 877.653 665.581 863.786C665.512 850.438 666.63 836.434 664.542 823.233C664.052 820.088 658.662 820.088 658.192 823.233H658.143Z" fill="#382C80"/>
<path d="M532.486 965.5C532.424 958.618 531.953 951.746 531.075 944.92C530.095 937.334 530.046 930.004 532.222 922.615L530.262 925.143C544.756 915.48 563.062 911.502 579.928 908.297C603.566 903.809 627.684 901.78 651.713 901.045C676.279 900.179 700.876 901.086 725.311 903.76C743.588 905.837 763.218 908.66 780.005 916.637C787.845 920.38 794.519 924.967 795.754 934.277C797.057 944.175 794.342 955.112 790.687 964.294L794.803 961.158H529.223C523.686 961.158 523.676 969.763 529.223 969.763H619.138H762.218H794.754C796.657 969.711 798.315 968.448 798.87 966.627C802.633 957.179 805.093 946.194 804.387 936.031C803.613 925.026 798.311 917.254 789.021 911.796C771.107 901.261 748.645 898.076 728.379 895.626C700.664 892.245 672.519 891.706 644.677 892.862C618.07 894.009 591.198 896.655 565.297 902.819C554.115 905.475 542.904 908.816 532.624 914.03C530.695 914.991 528.82 916.058 527.008 917.225C522.833 919.979 522.539 925.682 522.108 930.347C521.729 935.796 521.969 941.27 522.824 946.664C523.676 953.024 525.597 959.149 526.038 965.539C526.312 969.596 532.535 969.694 532.486 965.5Z" fill="#382C80"/>
<path d="M274.933 423.099C276.168 410.212 282.165 398.315 285.272 385.752C288.379 373.188 287.898 358.223 278.412 349.413C275.209 346.512 271.353 344.428 267.171 343.337C247.473 337.937 224.502 345.297 215.045 363.966C210.459 372.992 210.547 382.812 207.489 392.171C204.265 401.971 202.217 412.339 198.581 422.09C190.545 443.65 185.596 466.945 179.216 489.073C174.601 505.057 162.841 528.136 163.536 544.717C164.154 559.241 185.9 566.963 199.052 564.259C208.518 562.299 216.143 554.919 220.719 546.413C225.296 537.906 227.315 528.293 229.265 518.826" fill="white"/>
<path d="M278.383 424.05C281.725 407.39 290.574 391.778 291.387 374.599C292.073 359.899 285.86 345.581 271.405 340.103C258.665 335.291 243.593 336.624 231.451 342.367C217.652 348.894 209.587 361.271 206.568 375.922C202.795 394.16 197.062 411.8 191.143 429.44C185.097 447.462 180.834 466.004 175.689 484.32C171.465 499.314 164.526 513.445 160.842 528.596C157.764 541.248 157.461 553.488 168.868 561.828C179.775 569.815 195.994 572.245 208.185 565.944C225.002 557.242 230.794 537.338 234.008 520.139C235.165 513.994 225.943 511.319 224.532 517.522C221.445 531.242 218.848 547.265 206.47 555.899C197.582 562.093 185.498 560.799 176.443 555.527C172.709 553.341 169.025 550.039 168.329 545.54C167.427 539.66 169.309 533.055 170.887 527.479C174.375 515.043 179.873 503.293 183.558 490.925C188.174 475.461 191.712 459.683 196.2 444.179C198.493 436.251 201.237 428.499 203.893 420.659C206.461 413.113 208.215 405.322 210.459 397.678C214.379 384.164 214.732 367.935 225.159 357.41C233.509 348.962 245.69 345.287 257.372 346.042C264.624 346.512 272.415 348.649 277.197 354.48C281.744 360.017 282.803 367.602 282.509 374.55C281.774 391.347 271.817 406.135 271.376 423.05C271.278 426.97 277.599 428.009 278.402 424.03L278.383 424.05Z" fill="#382C80"/>
<path d="M438.652 219.514C430.528 244.935 416.925 268.161 396.874 285.694C374.903 304.902 346.796 315.76 318.161 319.994C306.822 321.689 294.866 319.425 288.545 330.362C282.969 340.015 284.547 355.548 277.765 363.751C272.767 369.827 258.106 371.159 251.648 367.602C250.057 366.641 248.674 365.372 247.581 363.868C244.932 360.742 243.232 356.923 242.681 352.863C242.123 347.198 245.709 343.572 247.758 338.81C250.208 333.116 251.374 326.442 253.118 320.493C260.38 295.69 244.004 281.97 235.704 259.488C226.604 234.948 223.529 208.583 226.737 182.607C229.314 162.4 235.694 142.81 243.994 124.199C255 99.7973 269.7 76.3851 290.74 59.9113C315.966 40.2035 359.291 26.4247 389.809 39.8409C409.83 48.6609 425.285 66.0853 434.546 85.9009C443.807 105.717 447.286 127.796 447.981 149.66C448.687 173.072 445.786 197.18 438.652 219.514Z" fill="white"/>
<path d="M434.566 218.387C425.52 246.18 409.605 271.875 385.722 289.212C373.553 297.945 360.082 304.705 345.807 309.243C338.507 311.604 331.059 313.484 323.512 314.868C317.024 316.073 310.537 316.299 304.01 317.112C291.162 318.729 283.93 326.324 281.049 338.78C279.647 344.856 279.226 351.422 276.795 357.214C274.483 362.702 269.749 364.642 264.055 365.211C257.881 365.838 252.962 364.789 249.502 359.272C247.611 356.253 246.288 352.676 247.395 349.139C248.375 346.091 250.414 343.415 251.698 340.485C254.687 333.625 256.48 325.785 258.087 318.484C259.448 312.384 259.538 306.069 258.352 299.933C256.01 287.81 248.669 277.393 243.348 266.446C236.204 251.746 232.245 235.086 230.608 218.916C227.256 185.812 235.243 153.413 249.032 123.454C260.88 97.6804 277.354 72.7198 301.785 57.324C323.581 43.604 352.491 34.441 378.225 40.468C405.832 46.9262 425.677 72.0534 434.83 97.6608C445.698 128.09 446.286 163.086 440.475 194.681C439.007 202.71 437.043 210.64 434.595 218.426C432.958 223.64 441.132 225.874 442.768 220.68C453.231 187.065 455.294 151.397 448.776 116.8C443.013 86.822 427.833 57.4514 401.177 41.0658C376.491 25.8856 346.042 28.5904 319.994 38.8412C291.76 49.9446 270.014 70.0444 254.226 95.74C236.939 123.876 224.512 156.892 221.886 189.928C220.526 207.558 221.982 225.293 226.198 242.466C229.951 257.901 236.439 271.307 243.74 285.272C246.876 291.27 249.796 297.61 250.6 304.411C251.531 312.251 249.091 319.523 247.18 327.01C246.294 331.007 244.973 334.895 243.24 338.604C241.751 341.544 239.879 344.307 239.007 347.531C237.154 354.391 240.29 361.634 244.602 366.906C251.923 375.834 266.888 375.599 276.384 370.258C288.144 363.623 286.635 347.502 290.486 336.359C292.946 329.254 298.11 326.265 305.294 325.432C312.154 324.639 318.926 324.296 325.737 323.041C341.482 320.185 356.745 315.118 371.071 307.988C399.295 293.798 421.208 270.258 434.487 241.691C437.655 234.848 440.404 227.818 442.719 220.641C444.424 215.437 436.241 213.213 434.566 218.387Z" fill="#382C80"/>
<path d="M404.136 207.088C403.587 208.754 402.999 210.41 402.372 212.056C389.26 246.67 362.682 264.976 330.009 278.765C315.093 285.056 298.355 283.782 284.929 274.659C269.7 264.339 266.76 251.482 263.134 234.998C254.392 195.553 257.714 155.167 278.235 119.662C288.408 102.022 302.657 86.1655 321.091 77.5905C339.525 69.0155 362.535 68.7705 379.391 80.1385C397.158 92.1435 405.175 114.252 408.575 135.42C412.407 159.273 411.682 184.175 404.136 207.088Z" fill="#7F72FF"/>
<path d="M402.088 206.519C396.791 222.748 387.485 237.377 375.03 249.051C363.348 259.831 349.354 267.828 334.909 274.335C325.893 278.402 316.926 281.254 306.9 280.372C297.077 279.443 287.832 275.311 280.587 268.612C268.622 257.518 265.78 239.614 263.202 224.277C256.646 185.077 263.202 143.917 286.213 111.048C296.708 96.0144 311.095 82.6766 328.764 76.8064C346.218 71.0146 366.72 72.4258 381.42 84.2348C396.531 96.3672 403.185 116.065 406.321 134.538C410.398 158.48 409.585 183.313 402.117 206.519C401.284 209.126 405.371 210.233 406.204 207.646C413.191 185.9 414.426 162.811 411.437 140.242C408.987 121.808 403.842 102.727 391.582 88.3018C379.322 73.8762 360.399 67.5846 341.7 69.6818C322.62 71.8182 305.822 82.0788 292.955 95.9458C264.094 127.061 253.147 171.406 257.43 212.958C258.513 222.88 260.258 232.718 262.653 242.407C264.525 250.247 266.936 258.087 271.601 264.692C282.146 279.696 301.207 287.007 319.121 284.096C329.225 282.45 338.907 277.432 347.913 272.738C356.588 268.278 364.796 262.963 372.413 256.872C388.358 243.965 399.589 227.031 406.135 207.646C407.047 205.02 402.98 203.952 402.088 206.519Z" fill="#7F72FF"/>
<path d="M299.894 382.733C289.069 388.559 276.443 390.079 264.545 386.987C253.442 384.047 232.127 376.324 234.342 397.12C235.096 404.195 239.604 410.213 243.956 415.838C235.406 418.241 228.925 425.232 227.176 433.939C225.428 442.646 228.706 451.598 235.665 457.115C227.58 455.224 219.367 462.094 217.417 470.169C215.467 478.244 218.397 486.741 222.601 493.885C219.348 488.387 212.801 508.967 212.664 510.28C212.017 518.914 213.409 526.411 220.504 532.291C226.835 537.524 235.488 539.426 243.662 538.612C251.835 537.799 259.577 534.457 266.594 530.194" fill="white"/>
<path d="M298.963 379.362C287.321 383.635 276.423 385.595 264.232 382.302C257.842 380.557 251.169 378.333 244.456 378.656C237.743 378.98 231.921 382.38 230.216 389.201C227.482 400.099 233.764 409.879 240.016 418.199L242.77 411.427C221.073 417.905 214.654 445.845 232.147 460.721L237.047 452.303C227.247 450.569 218.084 455.998 213.978 465.043C209.254 475.421 212.998 487.142 218.25 496.511L227.07 491.376C221.484 483.379 214.752 491.111 212.086 496.991C208.735 504.4 206.686 511.025 207.843 519.257C209.548 531.419 219.132 540.199 230.853 542.963C244.358 546.158 257.735 541.669 269.21 534.584C274.689 531.203 269.779 522.706 264.154 525.921C256.314 530.429 247.601 534.025 238.35 533.584C230.285 533.202 221.445 529.135 218.75 521.011C217.306 516.591 217.389 511.815 218.985 507.448C219.705 505.243 220.556 503.083 221.533 500.98C222.121 500.08 222.632 499.132 223.062 498.148C222.994 498.383 223.435 497.442 223.405 497.628C223.533 496.736 222.68 502.616 218.309 496.511C222.053 501.744 230.461 497.148 227.129 491.376C223.797 485.604 220.7 478.469 222.396 471.56C223.67 466.405 228.697 461.035 234.46 462.035C238.879 462.799 243.593 457.193 239.36 453.616C227.766 443.816 230.54 425.255 245.308 420.296C248.846 419.13 249.522 415.338 247.347 412.594C244.162 408.585 240.781 404.166 239.458 399.128C238.762 396.453 238.056 391.818 240.055 389.446C242.868 386.104 249.738 387.878 253.305 388.662C259.842 390.093 266.094 392.317 272.827 392.847C282.627 393.611 293.652 391.445 301.786 385.761C304.794 383.664 303.069 377.921 299.091 379.381L298.963 379.362Z" fill="#382C80"/>
<path d="M268.26 317.005C276.472 323.482 286.076 327.295 296.68 326.462C301.629 326.07 301.727 318.925 296.68 318.69C288.046 318.279 280.02 315.985 272.905 311.027C269.406 308.596 264.889 314.319 268.299 317.005H268.26Z" fill="#382C80"/>
<path d="M281.548 157.323C299.076 146.271 320.674 143.776 340.26 150.542C356.616 156.275 372.904 170.739 378.735 187.292C380.607 192.603 382.508 200.443 377.941 204.932C374.315 208.499 368.376 209.528 363.535 210.008C351.854 211.155 339.711 209.685 328.304 207.068C309.184 202.707 290.672 190.663 284.204 171.357C282.048 164.889 271.827 167.613 273.934 174.189C280.706 195.328 299.522 209.89 320.317 216.006C333.92 220.014 349.404 221.964 363.516 220.484C370.65 219.73 378.108 218.142 383.782 213.458C389.77 208.558 391.406 201.247 390.554 193.779C388.172 173.052 370.17 154.207 352.04 145.377C328.172 133.96 299.958 136.596 278.618 152.237C275.678 154.432 278.314 159.362 281.558 157.294L281.548 157.323Z" fill="#382C80"/>
<path d="M353.402 187.037C362.781 175.581 358.498 156.02 346.199 148.386C339.192 144.044 330.196 143.417 322.366 146.024C310.949 149.826 305.706 162.919 307.274 174.258C308.646 184.058 315.829 193.142 325.433 195.494C330.637 196.758 336.164 196.082 341.28 194.514C345.866 193.034 350.354 190.761 353.402 187.037Z" fill="#382C80"/>
<path d="M355.842 189.477C363.143 180.559 364.407 168.711 359.939 158.117C354.811 145.899 342.376 138.396 329.176 139.556C315.976 140.585 305.774 148.934 302.716 161.939C299.727 174.532 303.912 188.134 314.418 196.004C320.866 200.825 328.735 202.188 336.605 200.972C344.239 199.796 353.363 196.435 357.293 189.271C359.302 185.616 355.009 180.392 351.158 183.136C341.23 190.222 326.873 195.19 317.514 184.352C310.596 176.345 310.537 163.223 317.593 155.246C325.296 146.524 341.113 147.935 348.424 156.324C355.284 164.164 356.636 176.717 350.452 185.273C348.159 188.438 353.363 192.495 355.842 189.477Z" fill="#382C80"/>
<path d="M216.212 410.418L221.925 413.868C223.473 414.771 225.461 414.249 226.364 412.701C227.268 411.153 226.746 409.166 225.198 408.262L219.475 404.842C217.945 404.04 216.055 404.582 215.183 406.073C214.31 407.564 214.763 409.477 216.212 410.418Z" fill="#382C80"/>
<path d="M201.629 449.04L207.313 453.656C208.728 454.987 210.936 454.987 212.351 453.656C213.585 452.421 213.87 449.824 212.351 448.628L206.588 444.081C205.196 442.769 203.022 442.769 201.629 444.081C200.395 445.316 200.15 447.844 201.629 449.04Z" fill="#382C80"/>
<path d="M189.105 503.606C190.085 507.663 193.613 510.623 197.376 512.015C199.418 512.573 201.528 511.378 202.099 509.339C202.618 507.299 201.432 505.214 199.414 504.616C198.434 504.273 200.022 504.988 199.091 504.488C198.842 504.364 198.6 504.227 198.366 504.077C198.121 503.93 197.748 503.665 198.179 503.998C197.914 503.792 197.662 503.569 197.425 503.332C197.229 503.136 197.052 502.92 196.866 502.714C196.68 502.509 197.092 503.116 196.749 502.538C196.406 501.96 196.072 501.391 195.769 500.803C194.837 499.243 192.898 498.607 191.223 499.312C189.548 500.018 188.649 501.849 189.114 503.606H189.105Z" fill="#382C80"/>
<path d="M501.755 157.284C508.764 156.545 515.85 157.31 522.54 159.528C525.069 160.351 526.108 156.431 523.628 155.608C516.619 153.177 509.147 152.383 501.784 153.285C499.236 153.579 499.187 157.588 501.784 157.323L501.755 157.284Z" fill="#382C80"/>
<path d="M488.622 208.568L502.754 222.827C504.498 224.591 507.242 221.847 505.478 220.102L491.18 206C490.449 205.379 489.363 205.423 488.684 206.101C488.006 206.78 487.962 207.866 488.583 208.597L488.622 208.568Z" fill="#382C80"/>
<path d="M441.063 274.404L448.109 286.262C449.334 288.31 452.549 286.438 451.314 284.39L444.14 272.64C442.935 270.68 439.828 272.454 441.024 274.453L441.063 274.404Z" fill="#382C80"/>
<path d="M486.466 109.205L500.705 95.0641C502.41 93.3687 499.725 90.7031 498.059 92.4181L483.918 106.657C483.262 107.369 483.285 108.471 483.969 109.155C484.653 109.839 485.755 109.861 486.466 109.205Z" fill="#382C80"/>
<path d="M354.695 571.608C362.153 585.75 377.059 593.991 392.563 596.167C412.427 598.95 431.978 592.061 450.089 584.652C452.617 583.672 451.51 579.448 448.942 580.507C432.223 587.367 414.319 593.942 395.914 592.463C380.518 591.228 365.23 583.79 357.645 569.874C356.587 567.914 353.666 569.658 354.705 571.608H354.695Z" fill="#382C80"/>
<path d="M382.997 639.65C404.877 642.816 427.201 640.395 447.893 632.614C450.323 631.692 449.285 627.714 446.805 628.694C426.604 636.282 404.874 638.901 383.448 636.328C381.557 636.093 381.096 639.405 382.997 639.67V639.65Z" fill="#382C80"/>
<path d="M902.879 261.928C912.831 297.552 907.486 335.711 888.13 367.229C886.787 369.425 890.227 371.424 891.579 369.248C911.427 336.84 916.636 297.546 905.917 261.086C905.656 260.282 904.808 259.825 903.994 260.051C903.179 260.277 902.687 261.105 902.879 261.928Z" fill="#382C80"/>
<path d="M927.966 304.245V327.902C927.966 330.381 931.827 330.381 931.827 327.902L931.778 304.245C931.778 301.814 928.015 301.814 928.005 304.245H927.966Z" fill="#382C80"/>
<path d="M232.627 665.62C220.69 700.763 231.725 737.464 238.291 772.44C245.406 810.395 241.77 849.331 249.198 887.198C250.306 892.843 258.675 890.383 257.754 884.836C251.648 847.969 254.951 810.297 248.15 773.459C241.731 738.659 228.707 702.713 238.977 667.345C240.173 663.239 233.979 661.612 232.627 665.591V665.62Z" fill="#382C80"/>
<path d="M110.744 705.575C99.837 709.024 93.7904 725.175 103.953 733.015C113.479 740.355 130.09 730.682 126.277 718.56C124.523 712.983 115.929 715.277 117.457 720.99C118.604 725.253 111.577 728.526 108.539 725.733C104.335 721.813 108.02 713.973 112.548 712.15C116.468 710.563 115.017 704.222 110.735 705.575H110.744Z" fill="#382C80"/>
<path d="M110.989 767.481C106.922 771.401 103.737 776.967 104.825 782.828C105.805 787.904 110.185 792.442 115.448 792.873C126.316 793.755 130.02 776.693 119.064 774.253C113.449 772.989 111.097 781.319 116.683 782.896C115.997 782.71 117.251 783.416 116.526 784.063C115.801 784.709 115.075 784.464 114.135 783.788C110.107 780.848 113.674 775.213 116.095 772.636C119.289 769.245 114.331 764.247 110.969 767.51L110.989 767.481Z" fill="#382C80"/>
<path d="M40.8313 767.873C38.6753 710.327 49.7689 654.565 70.5449 601.048C72.0933 597.049 65.3117 594.139 63.5575 598.108C40.2041 650.92 30.8059 710.357 33.8439 767.873C34.0791 772.332 40.9979 772.381 40.8313 767.873Z" fill="#382C80"/>
</svg>
