<svg width="1000" height="1000" viewBox="0 0 1000 1000" fill="none" xmlns="http://www.w3.org/2000/svg">
<path d="M739.943 778.467C737.846 789.845 736.258 797.753 740.825 808.563C744.363 816.932 747.9 825.311 752.095 833.366C754.143 837.286 756.397 841.206 759.739 844.078C774.106 856.494 800.154 848.88 816.579 845.95C846.645 840.589 876.506 832.141 902.995 816.942C929.073 801.987 981.621 761.199 960.668 727.056C955.415 718.501 947.507 711.895 939.245 706.182C930.984 700.469 922.213 695.48 914.334 689.248" fill="#382C80"/>
<path d="M737.023 777.663C735.641 784.886 734.034 792.04 734.936 799.429C735.867 807.063 739.473 814.129 742.491 821.165C748.175 834.317 753.752 848.409 768.589 852.957C780.868 856.72 794.48 854.201 806.809 851.781C821.675 848.841 836.581 846.146 851.203 842.059C878.094 834.533 903.662 823.057 925.928 806.073C943.225 792.892 962.697 775.38 967.999 753.33C976.241 719.03 938.766 703.663 916.931 686.69C913.315 683.887 908.19 688.934 911.845 691.776C929.485 705.496 963.276 718.53 961.825 745.568C960.747 765.864 942.343 783.171 927.751 795.254C909.391 810.293 888.479 821.911 866.011 829.554C851.806 834.388 837.275 838.204 822.528 840.971C810.944 843.206 799.194 846.097 787.405 846.92C781.035 847.371 774.243 847.282 768.226 844.891C760.7 841.892 757.025 835.219 753.526 828.329C749.528 820.421 745.167 812.022 742.56 803.545C740.1 795.548 741.443 787.316 742.874 779.261C743.54 775.468 737.768 773.812 736.994 777.653L737.023 777.663Z" fill="#382C80"/>
<path d="M562.603 782.152C562.603 782.152 575.539 870.783 596.903 870.783H665.62C680.467 870.783 699.92 782.152 699.92 782.152L562.603 782.152Z" fill="#382C80"/>
<path d="M559.074 783.131C561.098 796.767 563.823 810.289 567.237 823.645C569.675 833.832 572.915 843.81 576.93 853.486C579.87 860.297 583.662 868.293 590.209 872.38C593.982 874.732 597.96 874.438 602.272 874.438H650.969C656.114 874.438 662.356 875.418 667.393 874.213C673.469 872.762 677.125 865.393 679.643 860.355C684.102 851.359 687.376 841.735 690.423 832.21C695.529 816.089 699.861 799.654 703.497 783.131C703.782 782.033 703.548 780.864 702.862 779.96C702.176 779.056 701.113 778.517 699.978 778.496H562.602C557.898 778.496 557.888 785.807 562.602 785.807H699.92L696.392 781.181C693.648 793.666 690.433 806.073 686.905 818.353C684.073 828.153 681.025 837.953 677.282 847.537C674.851 853.721 672.127 861.551 667.099 866.157C666.657 866.578 666.138 866.911 665.571 867.137C666.306 866.941 664.512 867.137 664.189 867.137H615.365C609.417 867.137 601.929 868.186 596.324 867.137C590.444 866 586.857 857.67 584.632 852.937C580.526 844.225 577.772 834.836 575.273 825.497C571.372 810.913 568.316 796.117 566.12 781.181C565.444 776.546 558.398 778.516 559.074 783.131Z" fill="#382C80"/>
<path d="M283.028 782.152C283.028 782.152 295.964 870.783 317.328 870.783H386.007C400.854 870.783 420.307 782.152 420.307 782.152L283.028 782.152Z" fill="#382C80"/>
<path d="M279.5 783.131C281.524 796.767 284.249 810.289 287.663 823.645C290.1 833.832 293.341 843.81 297.355 853.486C300.295 860.297 304.088 868.293 310.634 872.38C314.407 874.732 318.386 874.438 322.698 874.438H371.394C376.539 874.438 382.782 875.418 387.819 874.213C393.895 872.762 397.551 865.393 400.069 860.355C404.528 851.359 407.801 841.735 410.849 832.21C415.965 816.089 420.296 799.654 423.932 783.131C424.218 782.033 423.984 780.864 423.298 779.96C422.611 779.056 421.549 778.517 420.414 778.496H283.028C278.324 778.496 278.314 785.807 283.028 785.807H420.385L416.857 781.181C414.103 793.666 410.898 806.073 407.36 818.353C404.538 828.153 401.48 837.953 397.747 847.537C395.316 853.721 392.592 861.551 387.555 866.157C387.117 866.58 386.601 866.913 386.036 867.137C386.771 866.941 384.977 867.137 384.654 867.137H335.791C329.842 867.137 322.355 868.186 316.75 867.137C310.87 866 307.283 857.67 305.058 852.937C300.942 844.225 298.198 834.836 295.689 825.497C291.796 810.912 288.743 796.116 286.546 781.181C285.87 776.546 278.824 778.516 279.5 783.131Z" fill="#382C80"/>
<path d="M122.827 727.948C122.827 727.948 135.773 816.569 157.127 816.569H225.806C240.662 816.569 260.106 727.948 260.106 727.948L122.827 727.948Z" fill="#382C80"/>
<path d="M119.31 728.918C121.333 742.553 124.055 756.075 127.463 769.431C129.905 779.619 133.149 789.597 137.165 799.272C140.105 806.132 143.888 814.09 150.444 818.167C154.217 820.528 158.196 820.225 162.508 820.225H211.204C216.349 820.225 222.592 821.205 227.629 820.009C233.705 818.549 237.36 811.189 239.869 806.142C244.328 797.155 247.611 787.522 250.649 778.006C255.755 761.875 260.096 745.441 263.732 728.918C264.018 727.819 263.783 726.649 263.095 725.746C262.406 724.843 261.34 724.307 260.204 724.292H122.828C118.134 724.292 118.124 731.603 122.828 731.603H260.185L256.666 726.978C253.913 739.453 250.708 751.86 247.17 764.139C244.348 773.939 241.29 783.788 237.556 793.324C235.126 799.507 232.402 807.338 227.364 811.944C226.922 812.36 226.407 812.692 225.845 812.924C226.58 812.737 224.787 812.924 224.464 812.924H175.62C169.672 812.924 162.175 813.982 156.569 812.924C150.689 811.787 147.112 803.457 144.878 798.733C140.772 790.011 138.018 780.623 135.519 771.293C131.626 756.712 128.573 741.919 126.375 726.987C125.64 722.342 118.633 724.312 119.31 728.918Z" fill="#382C80"/>
<path d="M331.44 804.388C301.903 802.251 154.197 737.993 129.56 736.474C104.923 734.955 121.338 391.416 129.56 362.486C137.782 333.557 508.418 304.666 520.296 339.035C532.173 373.403 360.997 806.524 331.44 804.388Z" fill="#382C80"/>
<path d="M331.44 800.733C321.728 799.958 310.742 795.833 301.129 792.697C285.076 787.405 269.22 781.534 253.393 775.625C221.053 763.551 189.017 750.655 156.285 739.777C150.855 737.964 145.387 736.209 139.85 734.759C137.939 734.259 136.018 733.779 134.088 733.436C133.108 733.26 132.128 733.113 131.148 732.985C130.168 732.858 129.021 732.985 130.05 732.887C129.864 732.887 130.05 733.103 129.825 732.701C129.305 731.721 130.06 733.142 129.54 732.368C129.286 731.986 129.05 731.584 128.835 731.182C128.375 730.4 128.022 729.559 127.786 728.683C127.296 727.223 126.875 725.743 126.502 724.263C121.485 704.095 121.397 682.3 120.76 661.661C118.8 597.539 120.926 533.193 124.16 469.15C125.464 443.209 126.973 417.21 129.344 391.387C130.04 383.782 130.775 375.952 131.902 368.974C132.226 367.014 132.647 365.054 133.117 363.153C133.01 363.604 133.117 363.153 133.617 362.633C134.744 361.389 134.264 361.889 135.577 361.085C141.095 357.626 146.926 355.871 153.384 354.009C163.478 351.069 173.797 348.913 184.126 346.963C212.233 341.671 240.682 338.143 269.122 335.282C331.136 328.98 394.17 324.835 456.508 327.824C467.395 328.343 478.313 329.088 489.102 330.666C496.217 331.705 505.018 333.282 510.868 335.86C513.318 336.938 515.014 337.82 516.17 339.202C516.67 339.887 517.006 340.678 517.15 341.514C517.65 346.924 516.729 351.314 515.798 356.361C512.132 376.236 505.998 395.718 499.882 414.936C491.121 442.533 481.498 469.816 471.511 497.021C448.883 558.526 424.54 619.462 397.982 679.34C386.947 704.252 375.56 729.036 363.035 753.232C355.587 767.609 347.443 784.092 337.261 795.852C336.516 796.715 335.752 797.567 334.939 798.351C334.351 798.92 332.812 800.125 333.39 799.743C332.998 800.007 330.979 801.183 332.234 800.527C330.979 801.183 332.136 800.742 331.45 800.703C326.756 800.468 326.765 807.769 331.45 808.014C335.634 808.23 339.29 804.555 341.828 801.713C346.332 796.446 350.353 790.785 353.843 784.798C365.789 765.345 375.795 744.618 385.556 724.038C398.825 696 411.251 667.58 423.295 639.023C436.571 607.506 449.35 575.783 461.633 543.855C473.236 513.71 484.438 483.399 494.953 452.862C503.214 428.872 511.211 404.724 517.728 380.185C519.874 372.1 521.893 363.937 523.265 355.685C524.128 350.53 525.225 344.699 524.147 339.476C521.589 327.353 501.852 325.266 492.189 323.796C467.052 319.964 441.347 319.641 415.965 319.749C382.959 319.886 349.942 321.434 316.985 323.825C284.645 326.168 252.393 329.353 220.298 333.802C196.651 337.075 172.592 340.583 149.679 347.522C143.368 349.423 136.528 351.52 131.059 355.362C126.885 358.302 125.718 361.8 124.915 366.632C121.72 385.83 120.72 405.499 119.417 424.893C117.31 456.096 115.82 487.338 114.703 518.591C113.488 552.518 112.743 586.475 112.802 620.432C112.861 647.872 113.125 675.41 115.84 702.752C116.673 711.17 117.594 719.775 119.868 727.948C121.073 732.289 122.974 738.532 127.884 739.982C130.893 740.874 133.764 740.855 137.322 741.766C142.917 743.207 148.425 744.971 153.913 746.793C169.368 751.919 184.636 757.632 199.885 763.355C233.538 775.978 266.995 789.374 301.178 800.517C310.909 803.682 321.111 807.377 331.391 808.141C336.144 808.416 336.115 801.105 331.44 800.733Z" fill="#382C80"/>
<path d="M705.134 804.084C675.596 801.948 355.812 805.603 331.146 804.084C306.479 802.565 322.924 459.026 331.146 430.096C339.368 401.167 693.256 395.679 705.134 430.096C717.011 464.514 734.681 806.211 705.134 804.084Z" fill="#7F72FF"/>
<path d="M672.206 751.448C659.779 750.655 647.03 751.88 634.613 752.428C611.152 753.408 587.7 754.555 564.239 755.535C513.446 757.662 462.319 760.141 411.496 758.093C402.931 757.75 394.317 757.299 385.811 756.133C381.263 755.525 375.031 754.467 371.963 752.801C370.709 752.115 371.483 752.644 371.042 752.164C371.62 752.791 370.67 751.595 370.366 750.9C370.532 751.282 369.895 749.606 369.66 748.842C369.288 747.636 368.994 746.411 368.68 745.176C367.293 738.187 366.382 731.112 365.956 723.999C362.036 674.999 363.565 625.283 365.182 576.195C365.936 553.185 366.936 530.135 368.572 507.193C369.131 499.461 369.729 491.709 370.64 484.006C370.934 481.517 371.13 479.871 371.62 477.284C371.757 476.529 371.904 475.774 372.1 475.03C372.463 473.56 371.904 475.157 372.463 474.118C372.002 474.981 373.306 473.52 372.904 473.814C373.695 473.271 374.531 472.795 375.403 472.393C377.398 471.533 379.452 470.812 381.548 470.237C388.493 468.362 395.554 466.948 402.686 466.004C423.746 462.878 445.091 461.496 466.386 460.477C515.504 458.115 565.16 457.899 614.18 462.231C629.987 463.632 646.785 464.945 661.837 470.375C663.722 470.996 665.514 471.866 667.169 472.962C668.149 473.609 667.374 473.03 668.472 474.089C668.345 473.961 668.893 474.883 668.795 474.579C670.142 479.292 671.125 484.102 671.735 488.965C678.36 533.32 679.909 578.782 681.124 623.48C681.8 648.156 682.045 672.882 681.045 697.558C680.399 713.434 680.281 730.878 675.165 746.088C674.638 747.831 673.848 749.483 672.823 750.988C673.411 750.067 671.843 752.428 672.412 751.37C672.294 751.605 672.696 751.448 672.176 751.429C667.472 751.243 667.482 758.553 672.176 758.74C682.809 759.161 684.515 739.355 685.495 732.417C688.435 711.229 688.836 689.63 688.944 668.266C689.251 616.895 686.935 565.541 682.006 514.406C681.153 505.586 680.193 496.766 678.919 488.024C678.184 482.977 677.586 477.636 675.891 472.795C672.421 462.897 656.604 460.869 647.892 459.222C627.547 455.39 606.683 453.999 586.034 452.98C559.839 451.686 533.585 451.421 507.37 451.833C482.36 452.225 457.341 453.215 432.419 455.332C414.995 456.811 396.953 458.272 380.038 463.025C375.746 464.23 370.621 465.68 367.357 468.905C364.584 471.678 364.417 476.078 363.878 479.753C361.428 497.442 360.615 515.406 359.684 533.222C356.93 585.956 355.548 638.954 357.048 691.747C357.567 709.847 357.773 728.634 361.516 746.441C362.389 750.615 363.476 755.633 367.112 758.308C370.748 760.984 376.246 761.915 380.744 762.65C399.717 765.766 419.297 765.756 438.466 765.874C465.377 766.031 492.297 765.345 519.189 764.453C565.739 762.914 612.289 760.023 658.809 758.74C663.249 758.612 667.747 758.397 672.176 758.681C676.91 759.053 676.89 751.742 672.206 751.448Z" fill="#382C80"/>
<path d="M129.236 362.8L331.44 429.793H699.351C699.351 429.793 707.877 385.33 502.607 323.198C426.01 300.011 136.537 317.72 129.236 362.8Z" fill="#7F72FF"/>
<path d="M329.588 433.507C377.725 433.272 425.882 433.713 474.03 433.311L618.09 432.115C645.197 431.89 672.617 432.811 699.685 431.224C704.104 430.969 704.144 424.501 699.685 424.315C675.822 423.335 651.665 424.53 627.802 424.736L555.928 425.363C507.823 425.788 459.709 426.242 411.584 426.725C384.252 427.039 356.93 428.029 329.607 428.362C326.295 428.362 326.285 433.517 329.607 433.507H329.588Z" fill="#382C80"/>
<ellipse cx="540.797" cy="619.854" rx="70.3346" ry="93.7762" fill="white"/>
<path d="M629.302 623.48C629.302 662.68 605.488 694.412 576.098 694.412C546.708 694.412 522.903 662.68 522.903 623.48C522.903 584.28 552.558 552.802 576.313 552.802C605.694 552.832 629.302 584.339 629.302 623.48Z" fill="#382C80" stroke="#382C80" stroke-width="0.62"/>
<path d="M493.023 558.673C494.836 560.348 496.619 562.054 498.589 563.573C500.049 564.7 502.362 563.925 503.381 562.593C504.521 561.115 504.396 559.023 503.087 557.693C501.568 556.164 499.834 554.841 498.187 553.459C497.264 552.533 495.915 552.171 494.652 552.51C493.389 552.848 492.403 553.836 492.066 555.1C491.73 556.364 492.095 557.712 493.023 558.633V558.673Z" fill="#382C80"/>
<path d="M484.487 590.64C485.656 590.858 486.846 590.943 488.035 590.895C489.218 590.947 490.402 590.795 491.533 590.444C492.745 590.078 493.575 588.962 493.575 587.695C493.575 586.429 492.745 585.312 491.533 584.946C490.403 584.591 489.218 584.439 488.035 584.496C486.846 584.443 485.656 584.528 484.487 584.75C483.198 585.149 482.318 586.341 482.318 587.69C482.318 589.04 483.198 590.232 484.487 590.63V590.64Z" fill="#382C80"/>
<path d="M481.87 641.179C483.781 642.884 486.898 642.786 489.191 641.963C490.919 641.45 491.933 639.661 491.484 637.915C490.994 636.386 489.152 634.975 487.446 635.622C487.084 635.779 486.711 635.867 486.339 635.994C485.957 636.073 485.967 636.122 486.339 635.994H485.898C485.761 635.994 484.722 635.994 485.447 635.994C484.707 635.872 483.953 635.872 483.213 635.994C482.178 636.295 481.377 637.116 481.102 638.157C480.827 639.199 481.118 640.309 481.87 641.081V641.179Z" fill="#382C80"/>
<path d="M500.001 680.075L503.068 678.301C503.983 677.833 504.564 676.898 504.578 675.87C504.592 674.842 504.036 673.891 503.134 673.399C502.233 672.906 501.132 672.952 500.275 673.519L497.276 675.42C495.994 676.181 495.558 677.829 496.296 679.125C497.068 680.399 498.711 680.832 500.011 680.105L500.001 680.075Z" fill="#382C80"/>
<path d="M530.135 707.427C531.138 706.61 532.096 705.739 533.006 704.82C533.906 703.763 533.943 702.221 533.097 701.121C532.25 700.022 530.75 699.664 529.498 700.263C528.182 701.102 526.913 702.011 525.696 702.987C525.106 703.574 524.775 704.371 524.774 705.202C524.774 706.939 526.183 708.348 527.92 708.348C528.742 708.302 529.523 707.977 530.135 707.427Z" fill="#382C80"/>
<path d="M524.295 684.544C533.213 694.344 544.503 701.096 557.782 702.635C569.767 704.026 581.909 700.929 592.356 695.04C616.699 681.32 629.596 655.193 630.978 627.91C631.821 611.573 628.636 594.864 620.952 580.35C613.357 566.013 601.352 556.242 585.496 552.459C571.845 549.206 556.958 549.98 543.121 551.842C536.917 552.685 530.508 554.155 525.383 557.947C519.424 562.338 515.485 569.884 512.378 576.43C496.414 610.172 496.639 656.849 523.668 685.21C527.088 688.797 532.39 683.427 529.077 679.801C508.252 656.927 505.244 621.334 514.201 592.816C518.062 580.507 523.844 564.396 537.515 560.564C542.944 559.055 548.609 558.682 554.175 558.349C560.418 557.967 566.602 557.497 572.854 557.967C587.338 559.055 601.343 564.533 609.986 576.675C618.512 588.661 622.824 603.557 623.53 618.149C624.745 643.021 616.337 667.962 596.247 683.574C586.946 690.806 575.451 695.618 563.573 695.677C550.177 695.755 537.986 689.483 528.421 680.428C525.696 677.772 521.747 681.751 524.295 684.544Z" fill="#382C80"/>
<path d="M515.445 535.329C515.094 538.092 515.237 540.896 515.867 543.61C516.994 548.177 524.05 546.246 522.913 541.65C522.345 539.586 522.081 537.45 522.129 535.309C522.129 533.464 520.633 531.968 518.787 531.968C516.941 531.968 515.445 533.464 515.445 535.309V535.329Z" fill="#382C80"/>
<path d="M550.363 530.213C549.902 532.232 549.383 534.241 549.108 536.289C548.683 537.978 549.658 539.703 551.323 540.209C553.016 540.668 554.763 539.681 555.243 537.995C555.782 536.035 556.135 533.957 556.527 531.928C556.953 530.24 555.978 528.515 554.312 528.008C552.618 527.562 550.878 528.55 550.392 530.233L550.363 530.213Z" fill="#382C80"/>
<path d="M808.876 175.042C790.08 158.96 764.453 153.893 740.002 149.993C633.098 132.933 524.783 126.368 416.602 130.393C374.04 131.971 330.156 135.558 292.357 155.187C286.036 158.47 279.803 162.292 275.256 167.77C268.171 176.296 265.927 188.056 266.956 199.13C269.053 221.876 283.919 242.015 302.618 255.147C321.316 268.279 343.592 275.286 365.798 280.627C386.574 285.674 407.664 289.721 428.969 293.014C431.268 307.923 429.431 323.177 423.658 337.114C442.278 330.725 457.654 315.897 465.582 297.914C555.86 308.449 648.96 308.067 737.914 314.329C757.867 315.731 778.653 315.26 796.802 306.852C847.645 283.273 848.644 209.126 808.876 175.042Z" fill="white"/>
<path d="M811.464 172.455C793.265 157.206 770.167 151.385 747.235 147.494C719.599 142.8 691.767 139.125 663.935 135.989C607.31 129.615 550.395 126.161 493.415 125.64C464.936 125.375 436.438 125.777 407.988 127.061C382.332 128.208 356.489 130.373 331.548 136.694C319.588 139.677 307.937 143.782 296.748 148.954C285.968 154.001 274.796 160.097 268.75 170.847C258.136 189.732 263.605 213.967 274.63 231.284C288.869 253.677 312.252 267.426 336.791 276.041C366.083 286.331 397.424 291.721 428.019 296.523L425.471 293.965C427.485 308.252 425.654 322.818 420.17 336.164C419.131 338.702 422.198 341.534 424.658 340.662C444.297 333.582 460.215 318.824 468.758 299.776L465.602 301.579C545.502 310.831 625.999 311.605 706.222 316.015C740.1 317.877 779.095 324.894 808.906 304.118C828.506 290.456 839.139 267.858 840.482 244.338C842.02 217.691 831.73 190.134 811.444 172.464C807.916 169.387 802.722 174.542 806.28 177.639C840.1 207.039 844.578 269.22 806.152 297.199C778.036 317.632 740.385 310.664 708.094 308.871C670.285 306.764 632.438 305.509 594.61 303.794C551.49 301.834 508.448 299.296 465.602 294.337C464.296 294.302 463.079 294.997 462.447 296.14C454.607 313.369 440.661 327.295 422.708 333.674L427.206 338.173C433.053 323.568 434.884 307.664 432.508 292.113C432.194 290.856 431.215 289.873 429.96 289.555C404.274 285.556 378.52 280.735 353.52 273.708C330.911 267.338 308.254 258.028 291.574 240.957C276.874 225.923 266.006 203.354 272.033 182.059C275.482 169.867 284.988 163.086 295.798 157.617C306.783 152.143 318.304 147.815 330.176 144.701C353.863 138.311 378.382 135.95 402.814 134.705C429.156 133.362 455.557 132.912 481.919 132.97C535.682 133.088 589.35 135.816 642.924 141.153C673.486 144.198 703.948 148.098 734.309 152.855C759.318 156.775 786.249 160.92 806.319 177.717C809.876 180.628 815.08 175.483 811.464 172.455Z" fill="#382C80"/>
<path d="M571.403 543.247L571.344 544.463C571.321 544.925 571.423 545.385 571.638 545.795C571.958 546.651 572.639 547.322 573.5 547.628C573.91 547.843 574.37 547.945 574.833 547.922C575.749 547.922 576.628 547.557 577.276 546.908C577.923 546.259 578.285 545.379 578.282 544.463L578.224 543.247C578.207 542.353 577.858 541.497 577.244 540.846C576.944 540.521 576.566 540.278 576.146 540.141C575.743 539.935 575.295 539.834 574.843 539.847C573.942 539.847 573.077 540.199 572.432 540.827C571.822 541.48 571.473 542.334 571.452 543.228L571.403 543.247Z" fill="#382C80"/>
<path d="M553.488 718.001C557.408 718.001 557.408 711.886 553.488 711.886C549.568 711.886 549.568 718.001 553.488 718.001Z" fill="#382C80"/>
<path d="M535.799 574.656C518.159 599.558 515.347 633.584 526.764 661.769C529.464 668.77 533.815 675.016 539.445 679.977C545.433 685.24 551.842 690.659 559.045 694.246C569.658 699.567 584.407 699.724 595.05 694.324C600.166 691.727 595.668 684.171 590.562 686.651C580.762 691.414 568.081 690.012 559.084 684.436C553.275 680.78 547.853 676.541 542.904 671.784C537.701 666.816 534.712 660.485 532.418 653.762C523.824 628.576 527.95 600.568 540.778 577.538C542.601 574.274 537.946 571.658 535.878 574.656H535.799Z" fill="#382C80"/>
<path d="M617.247 546.579C604.281 512.701 568.903 494.639 533.682 497.413C505.546 499.627 481.742 515.65 465.856 538.524C431.488 588.112 429.89 669.412 475.941 712.572C510.623 745.078 566.61 745.264 600.636 711.66C604.35 707.985 598.676 702.409 594.922 705.947C565.794 733.268 521.352 736.013 489.082 712.483C462.622 693.119 449.882 659.034 448.599 627.135C446.639 578.517 470.159 518.728 522.099 506.321C556.683 498.059 598.303 513.465 611.984 548.02C613.248 551.195 618.442 549.843 617.188 546.579H617.247Z" fill="#382C80"/>
<path d="M394.503 164.066L396.688 246.807C396.943 256.196 411.555 256.235 411.31 246.807L409.125 164.066C408.88 154.677 394.258 154.638 394.503 164.066Z" fill="#7F72FF"/>
<path d="M358.282 183.548L432.703 240.888C435.839 243.299 440.896 241.359 442.709 238.262C444.914 234.489 443.219 230.677 440.083 228.266L365.662 170.926C362.526 168.515 357.469 170.446 355.656 173.552C353.451 177.325 355.146 181.138 358.282 183.548Z" fill="#7F72FF"/>
<path d="M373.943 234.273C397.63 219.473 419.539 202.003 439.241 182.206C445.875 175.522 435.546 165.183 428.902 171.867C410.102 190.807 389.185 207.522 366.564 221.68C358.606 226.658 365.937 239.32 373.943 234.302V234.273Z" fill="#7F72FF"/>
<path d="M535.819 167.114L538.005 249.855C538.25 259.243 552.871 259.283 552.617 249.855L550.441 167.114C550.186 157.725 535.574 157.686 535.819 167.114Z" fill="#7F72FF"/>
<path d="M499.589 186.596L574.02 243.926C577.146 246.337 582.203 244.406 584.016 241.309C586.221 237.536 584.536 233.724 581.39 231.304L506.969 173.974C503.842 171.563 498.786 173.493 496.973 176.6C494.768 180.373 496.453 184.175 499.589 186.596Z" fill="#7F72FF"/>
<path d="M515.259 237.36C538.93 222.555 560.826 205.085 580.517 185.293C587.162 178.609 576.823 168.27 570.178 174.954C551.373 193.868 530.456 210.559 507.84 224.699C499.883 229.677 507.213 242.339 515.22 237.321L515.259 237.36Z" fill="#7F72FF"/>
<path d="M667.384 179.903L669.54 262.644C669.785 272.032 684.407 272.072 684.152 262.644L681.976 179.903C681.721 170.514 667.11 170.475 667.355 179.903H667.384Z" fill="#7F72FF"/>
<path d="M631.154 199.385L705.585 256.725C708.711 259.136 713.768 257.195 715.581 254.098C717.786 250.325 716.1 246.513 712.964 244.102L638.533 186.763C635.407 184.352 630.35 186.282 628.537 189.389C626.332 193.162 628.018 196.974 631.154 199.385Z" fill="#7F72FF"/>
<path d="M646.824 250.1C670.498 235.298 692.394 217.828 712.083 198.033C718.727 191.349 708.388 181.01 701.744 187.694C682.955 206.622 662.051 223.327 639.445 237.478C631.487 242.456 638.818 255.118 646.824 250.1Z" fill="#7F72FF"/>
<path d="M347.904 491.533C356.087 498.638 367.347 500.941 377.304 496.364C380.999 494.669 378.382 488.593 374.54 489.808C366.994 492.209 359.086 491.768 352.706 486.682C349.335 483.967 344.484 488.593 347.865 491.533H347.904Z" fill="#382C80"/>
<path d="M346.581 731.515C353.872 739.355 367.67 738.895 373.531 729.555C375.569 726.331 370.885 722.695 368.239 725.478C363.79 730.133 356.253 731.447 351.363 726.684C348.227 723.636 343.602 728.291 346.581 731.466V731.515Z" fill="#382C80"/>
<path d="M212.135 353.118C217.336 359.655 224.105 364.772 231.813 367.994C235.204 369.415 237.693 363.555 234.332 362.026C227.444 359.034 221.325 354.517 216.437 348.815C213.889 345.797 209.734 350.109 212.135 353.118Z" fill="#382C80"/>
<path d="M80.4035 367.102C64.4471 356.657 49.9218 344.174 37.1953 329.97L34.5003 336.467C46.7206 336.236 58.7551 339.482 69.2021 345.826C71.7011 347.336 75.4447 345.415 75.2487 342.347C74.1315 324.707 72.7987 307.067 74.8763 289.427L67.3793 291.456C76.8199 304.196 86.2149 316.969 95.5641 329.774C97.5241 332.508 102.14 332.489 103.13 328.794C107.422 312.712 111.95 295.944 124.435 284.155L117.457 282.313C119.862 292.27 121.5 302.397 122.357 312.604C122.798 317.798 130.952 317.857 130.521 312.604C129.613 301.663 127.929 290.801 125.483 280.098C124.748 276.893 120.701 276.178 118.496 278.246C104.776 290.799 99.5233 309.165 95.1133 326.589L102.679 325.609C93.1859 312.921 83.7126 300.181 74.2589 287.389C71.7991 284.047 67.2519 285.37 66.7619 289.418C64.6157 307.009 65.6643 324.698 67.1441 342.338L73.1907 338.868C61.4587 332.039 48.0722 328.574 34.5003 328.853C32.9811 328.898 31.6299 329.831 31.0483 331.235C30.4668 332.639 30.7631 334.254 31.8053 335.36C45.0406 349.922 60.3137 362.492 77.1499 372.678C80.7269 374.844 83.8629 369.366 80.4035 367.102Z" fill="#382C80"/>
<path d="M46.799 394.229C52.4372 394.882 58.069 395.535 63.6942 396.189C68.0748 396.669 68.1238 389.662 63.6942 389.329C58.0592 388.839 52.434 388.349 46.799 387.947C42.6732 387.623 42.8104 393.827 46.799 394.317V394.229Z" fill="#382C80"/>
<path d="M69.8586 439.887C73.5532 439.887 73.5532 434.144 69.8586 434.144C66.164 434.144 66.1542 439.887 69.8586 439.887Z" fill="#382C80"/>
<path d="M146.68 307.136L145.142 311.742C144.683 313.435 145.67 315.181 147.356 315.662C149.046 316.098 150.778 315.12 151.276 313.447L152.815 308.831C153.279 307.138 152.29 305.387 150.6 304.911C148.91 304.475 147.178 305.454 146.68 307.126V307.136Z" fill="#382C80"/>
<path d="M767.765 803.036C816.873 806.279 867 788.884 903.985 756.456C913.109 748.459 919.949 737.65 927.133 728.154C934.15 718.873 937.972 707.642 936.639 695.922C936.381 692.375 935.249 688.948 933.346 685.945C930.612 682.025 926.133 679.712 922.272 676.87C905.494 664.532 900.457 642.188 894.548 622.216C888.336 601.278 879.926 581.056 869.46 561.887C860.904 546.207 850.262 530.645 834.307 522.687C820.999 516.023 811.601 504.361 796.959 500.931C791.364 499.618 785.199 498.971 779.79 501.48C777.526 502.538 767.236 510.633 769.225 513.828C766.021 508.683 760.817 506.174 755.192 504.341C750.213 502.715 744.921 501.303 739.776 502.293C735.69 503.077 732.044 505.292 728.114 506.635C716.158 510.682 701.351 497.217 688.424 497.638C675.684 498.06 661.964 502.969 648.979 504.42L596.481 510.3C593.564 510.474 590.692 511.095 587.965 512.142C580.575 515.415 577.283 524.412 577.724 532.487C578.704 549.372 592.992 562.749 609.378 563.23C616.424 563.445 623.421 563.23 630.487 563.122C639.611 562.965 648.862 562.808 657.721 565.082C682.878 571.383 700.576 597.843 699.008 623.735C698.107 638.494 692.335 654.223 679.163 661.406C663.532 669.942 647.529 678.066 630.791 684.191C623.235 686.964 615.414 689.356 608.711 693.815C597.537 701.385 590.665 713.85 590.228 727.34C590.062 734.485 592.502 742.609 599.048 745.559C604.674 748.107 611.161 745.951 617.129 744.353C642.061 737.679 664.405 743.373 687.493 752.948C694.471 755.888 700.469 757.475 705.192 763.728C711.964 772.656 714.13 783.426 723.616 790.492C733.416 797.822 745.862 800.703 758.034 802.203C761.238 802.506 764.492 802.82 767.765 803.036Z" fill="white"/>
<path d="M767.766 805.662C803.508 808.075 839.212 800.43 870.832 783.593C886.453 775.341 902.467 764.767 914.119 751.331C919.999 744.598 925.085 737.229 930.357 730.045C935.73 722.965 939.172 714.611 940.344 705.8C941.324 697.852 940.618 688.425 935.159 682.094C929.701 675.763 921.998 672.735 916.755 666.287C906.2 653.321 902.712 635.907 898.047 620.295C892.308 601.074 884.734 582.45 875.428 564.68C867.471 549.471 858.161 534.222 844.068 523.951C840.148 521.1 835.768 519.13 831.652 516.601C827.536 514.073 823.812 511.231 819.951 508.428C812.316 502.872 804.369 498.04 794.921 496.404C787.277 495.071 780.055 495.825 773.891 500.686C770.216 503.567 763.062 509.34 765.355 514.867L772.695 511.77C766.207 502.244 751.752 496.688 740.424 498.128C734.465 498.893 729.33 503.205 723.352 503.322C717.521 503.44 711.661 500.382 706.408 498.187C701.812 496.286 697.196 494.424 692.227 493.797C685.573 492.964 678.507 494.453 672.029 495.757C665.169 497.158 658.309 498.971 651.302 499.99C642.796 501.235 634.192 501.95 625.646 502.93L602.312 505.527C596.03 506.223 589.043 506.253 583.584 509.869C574.304 516.013 572.187 528.714 574.529 538.887C576.97 548.895 583.429 557.453 592.385 562.544C603.978 569.12 617.688 567.444 630.487 567.228C644.56 566.993 658.505 567.228 670.667 575.215C690.541 588.628 699.429 613.375 692.629 636.367C691.236 641.483 688.856 646.277 685.622 650.479C681.212 655.967 675.028 658.839 668.962 662.063C655.248 669.431 641.033 675.823 626.42 681.192C614.503 685.465 603.282 690.208 595.423 700.587C588.426 709.818 584.427 722.254 586.515 733.828C588.671 745.814 597.912 752.399 609.917 750.41C618.384 748.999 626.254 746.147 634.936 745.725C643.17 745.375 651.413 746.15 659.436 748.028C667.461 749.935 675.325 752.465 682.956 755.594C688.768 757.907 695.696 759.828 700.195 764.414C705.095 769.383 707.584 776.507 711.161 782.407C714.634 788.276 719.531 793.173 725.4 796.646C738.072 804.124 753.291 806.064 767.726 807.034C772.871 807.377 772.822 799.42 767.726 799.037C755.28 798.106 742.041 796.431 730.967 790.217C719.501 783.808 716.766 772.773 709.681 762.679C703.066 753.271 692.1 749.939 681.79 746.019C669.511 741.345 656.702 737.866 643.57 737.199C637.046 736.881 630.507 737.272 624.068 738.366C617.59 739.444 610.348 743.001 603.763 742.286C590.297 740.894 594.355 720.138 598.088 712.327C603.968 700.038 614.748 694.324 627.018 689.885C639.985 685.209 652.654 679.743 664.954 673.519C675.587 668.139 686.798 663.366 693.834 653.331C699.852 644.736 702.576 633.947 703.174 623.588C704.369 602.685 693.942 581.762 677.086 569.531C667.629 562.671 656.653 559.672 645.099 558.996C637.994 558.585 630.85 558.898 623.745 558.996C617.277 559.104 610.28 559.79 603.949 558.251C593.747 555.753 585.662 547.988 582.751 537.897C581.311 532.654 581.321 526.823 583.731 521.854C587.044 514.994 593.531 514.592 600.391 513.828C617.149 511.946 633.966 510.339 650.695 508.173C658.055 507.193 665.238 505.42 672.48 503.891C679.272 502.45 686.837 500.578 693.756 502.186C704.712 504.743 715.11 513.132 726.86 511.006C734.161 509.673 739.463 504.871 747.362 506.282C754.006 507.478 761.807 509.957 765.776 515.768C768.158 519.247 774.978 517.15 773.116 512.672C773.322 513.171 773.244 512.495 774.038 511.456C774.797 510.529 775.633 509.667 776.537 508.879C777.992 507.39 779.64 506.101 781.437 505.047C788.297 501.49 798.371 504.694 804.741 507.987C811.356 511.447 817.099 516.268 823.194 520.492C829.584 524.912 836.816 527.871 842.794 532.909C855.044 543.228 863.1 557.732 870.234 571.815C878.589 588.278 885.441 605.462 890.707 623.157C894.842 636.985 898.302 651.41 905.789 663.905C909.23 669.848 913.766 675.085 919.156 679.34C922.096 681.624 925.555 683.417 928.27 686.004C931.514 689.091 932.651 693.266 932.964 697.627C934.287 715.394 922.018 729.849 911.59 742.942C901.349 755.81 887.659 765.698 873.606 774.057C841.682 793.054 804.871 802.23 767.766 800.439C764.365 800.233 764.414 805.417 767.766 805.662Z" fill="#382C80"/>
<path d="M757.858 577.42C756.711 549.196 743.314 517.336 716.923 503.793C713.797 502.186 709.857 506.498 712.934 508.977C723.597 517.542 733.299 526.343 740.208 538.377C747.117 550.411 751.341 563.602 751.321 577.42C751.321 581.644 758.024 581.624 757.858 577.42Z" fill="#382C80"/>
<path d="M795.412 559.927C797.372 549.059 797.372 536.407 787.807 529.057C785.014 526.921 782.358 531.272 784.298 533.604C790.129 540.631 790.933 549.588 789.679 558.349C789.159 562.034 794.706 563.739 795.412 559.927Z" fill="#382C80"/>
<path d="M827.056 539.043C827.722 541.208 828.497 543.337 829.378 545.423C829.876 547.096 831.609 548.074 833.298 547.638C834.992 547.167 835.983 545.412 835.513 543.718C834.631 541.356 833.827 538.906 832.72 536.652C831.152 533.467 826.183 535.672 827.085 539.024L827.056 539.043Z" fill="#382C80"/>
</svg>
