<svg width="1000" height="1000" viewBox="0 0 1000 1000" fill="none" xmlns="http://www.w3.org/2000/svg">
<path d="M826.114 304.402C837.06 274.767 841.578 235.351 871.478 217.701C883.179 210.792 899.045 209.067 911.06 216.182C925.643 224.806 928.622 243.26 928.073 258.753C927.318 279.921 923.085 300.991 919.302 321.777C918.391 326.805 926.113 328.941 926.995 323.894C930.552 303.637 934.276 283.244 935.423 262.683C936.403 245.337 933.875 225.355 919.596 213.546C907.395 203.452 889.882 202.364 875.496 208.058C860.159 214.134 848.889 227.129 841.333 241.447C831.131 260.772 827.505 282.342 821.312 303.069C820.332 306.205 825.046 307.381 826.143 304.402H826.114Z" fill="#382C80"/>
<path d="M280.921 414.515C280.107 425.99 279.343 437.819 283.018 448.717C285.203 455.175 289.329 461.457 295.68 463.926C302.863 466.719 311.36 463.858 316.887 458.536C322.414 453.215 325.589 445.865 327.843 438.505C330.332 430.391 331.93 421.786 330.401 413.437C328.872 405.087 323.786 397.1 315.966 393.768" fill="#382C80"/>
<path d="M278.304 414.515C277.324 426.51 275.883 438.878 279.686 450.559C282.89 460.428 290.25 468.973 301.246 469.356C312.241 469.738 321.365 462.182 326.5 453.195C332.356 442.728 335.313 430.887 335.065 418.895C334.624 407.341 328.989 395.248 317.964 390.358C313.378 388.329 309.37 395.072 313.995 397.149C332.145 405.283 327.715 429.979 321.091 444.444C317.67 451.912 312.271 459.232 303.568 460.496C295.228 461.702 289.378 454.832 286.634 447.756C282.596 437.28 282.91 425.569 283.547 414.544C283.743 411.153 278.588 411.222 278.314 414.544L278.304 414.515Z" fill="#382C80"/>
<path d="M546.893 652.508C546.785 663.807 545.55 675.322 540.856 685.593C534.241 700.067 521.256 710.828 507.213 718.246C471.59 736.984 437.535 730.78 400.393 723.205C378.431 718.726 341.945 713.924 324.021 734.387C319.464 739.581 313.663 744.618 306.959 744.951C299.609 745.314 293.484 739.6 291.279 732.868C289.074 726.135 289.907 718.579 291.221 711.308C295.098 690.215 302.393 669.897 312.82 651.155C314.897 647.412 317.347 643.502 321.228 641.669C323.526 640.73 325.979 640.228 328.461 640.189C355.744 638.229 382.566 641.728 408.948 646.236C433.353 650.591 458.23 651.658 482.918 649.411" fill="#382C80"/>
<path d="M544.502 652.508C544.491 662.356 542.722 672.123 539.278 681.349C536.008 689.328 530.952 696.452 524.5 702.174C510.78 714.62 492.572 722.382 474.422 725.292C456.106 728.232 437.447 725.821 419.366 722.489C404.244 719.706 389.289 716.031 373.894 715.09C359.674 714.218 344.337 715.414 331.695 722.548C328.534 724.343 325.607 726.522 322.983 729.036C320.101 731.809 317.72 735.024 314.437 737.376C311.438 739.532 307.822 741.158 304.088 740.129C300.791 739.037 298.079 736.653 296.572 733.524C292.318 725.469 295.229 714.62 297.042 706.27C299.16 696.544 302.021 686.994 305.597 677.703C309.011 668.475 313.276 659.584 318.337 651.145C320.729 647.225 323.326 645.354 327.951 644.981C333.155 644.57 338.398 644.413 343.631 644.403C364.77 644.334 385.771 647.098 406.576 650.616C426.686 654.007 447.011 655.928 467.415 655.075C472.599 654.86 477.774 654.487 482.938 653.997C488.75 653.439 488.818 644.325 482.938 644.815C461.318 646.658 439.557 646.02 418.082 642.913C395.796 639.64 373.756 635.622 351.177 634.995C345.558 634.838 339.94 634.874 334.321 635.103C329.039 635.338 323.237 635.25 318.445 637.768C314.29 639.954 311.458 643.982 309.184 647.951C306.568 652.488 304.216 657.202 302.02 661.955C297.553 671.559 293.831 681.493 290.888 691.668C288.026 701.664 285.272 712.386 285.145 722.832C285.047 732.191 288.33 742.04 296.856 746.94C305.382 751.84 314.653 748.783 321.728 742.913C324.982 740.218 327.491 736.807 330.666 734.093C333.337 731.826 336.325 729.96 339.535 728.556C346.13 725.616 353.519 724.322 360.703 723.92C375.903 723.058 390.75 725.802 405.577 728.742C425.049 732.583 445.022 735.866 464.936 734.259C502.077 731.26 544.492 708.681 548.628 667.913C549.147 662.817 549.245 657.672 549.294 652.557C549.294 649.479 544.561 649.479 544.512 652.557L544.502 652.508Z" fill="#382C80"/>
<path d="M461.525 498.579C526.009 525.51 563.827 591.914 561.123 661.396C560.662 673.156 559.035 685.171 553.92 696.01C546.707 711.278 533.124 722.891 518.473 731.035C481.429 751.615 446.766 746.245 408.987 739.502C397.678 737.542 388.182 737.631 377.206 738.522C364.799 739.502 364.672 729.702 363.3 718.452C360.83 698.176 361.742 676.224 367.72 656.585C373.943 636.161 391.837 643.345 408.958 646.275C433.363 650.63 458.24 651.697 482.928 649.45" fill="white"/>
<path d="M460.31 500.647C494.718 515.21 522.903 543.689 539.347 576.96C547.56 593.658 552.989 611.587 555.419 630.036C556.645 639.559 557.12 649.163 556.84 658.76C556.536 670.265 555.292 682.143 550.549 692.766C541.846 712.258 522.462 725.831 503.107 733.426C482.105 741.668 459.683 741.982 437.555 739.238C426.069 737.817 414.75 735.239 403.255 733.858C397.349 733.169 391.398 732.949 385.458 733.201C382.518 733.309 379.656 733.573 376.755 733.711C375.227 733.898 373.676 733.696 372.247 733.123C371.334 732.639 370.635 731.832 370.287 730.859C369.661 729.282 369.221 727.637 368.974 725.959C368.21 721.706 367.818 717.345 367.426 713.052C366.259 701.054 366.456 688.962 368.014 677.008C368.815 671.184 370.024 665.424 371.63 659.77C372.669 656.104 373.943 652.106 377.069 649.656C382.185 645.658 390.172 647.333 396.12 648.47C418.66 652.88 441.102 655.82 464.015 655.183C470.336 655.007 476.637 654.585 482.929 653.997C488.74 653.449 488.809 644.325 482.929 644.815C457.14 647.088 431.161 645.746 405.744 640.826C397.384 639.16 388.721 636.906 380.176 638.376C370.758 640.032 365.407 647.647 362.839 656.3C355.979 679.34 355.627 704.977 359.899 728.566C361.477 737.386 366.946 743.609 376.393 743.266C382.841 743.05 389.211 742.442 395.679 742.746C401.817 743.164 407.922 743.976 413.956 745.177C437.613 749.283 461.741 752.497 485.555 747.764C508.418 743.217 531.468 731.937 547.021 714.228C554.918 705.3 560.412 694.507 562.985 682.868C565.464 671.628 565.925 659.848 565.494 648.372C564.687 628.181 560.521 608.266 553.165 589.445C538.74 552.793 511.662 519.865 475.873 502.411C471.384 500.226 466.788 498.207 462.153 496.286C459.683 495.247 457.821 499.598 460.31 500.657V500.647Z" fill="#382C80"/>
<path d="M455.959 567.62C490.259 640.14 505.939 724.851 519.815 802.673C523.569 823.665 529.802 852.888 552.008 858.876C558.241 860.552 564.827 863.482 567.688 869.656C570.873 876.379 568.394 884.993 563.504 890.481C558.614 895.969 551.812 898.919 545.119 901.261C525.872 908.12 505.543 911.44 485.114 911.061C481.105 910.983 476.793 910.63 473.706 907.905C471.886 906.231 470.483 904.153 469.61 901.839C444.316 837.62 447.07 785.621 428.793 731.319C422.158 711.631 408.458 696.637 399.834 677.792C390.906 658.26 377.343 641.296 367.778 622.088C352.784 591.741 348.217 557.295 354.783 524.088" fill="#382C80"/>
<path d="M453.94 568.777C466.415 595.305 475.696 623.657 483.683 651.861C491.67 680.065 498.089 708.701 503.744 737.493C506.566 751.87 509.192 766.276 511.74 780.702C513.896 792.922 515.66 805.3 518.414 817.403C520.747 827.536 523.922 837.924 529.674 846.685C532.427 850.987 535.929 854.761 540.013 857.828C544.355 861.032 549.147 862.326 554.145 864.08C559.437 865.922 564.474 869.48 564.778 875.556C565.082 881.632 561.583 887.012 556.938 890.52C551.352 894.793 544.257 896.988 537.632 899.046C530.365 901.303 522.956 903.074 515.455 904.348C508.003 905.609 500.47 906.323 492.915 906.485C486.976 906.612 478.391 907.886 474.892 901.908C473.089 898.821 472.06 895.048 470.855 891.716C469.548 888.149 468.33 884.555 467.199 880.936C464.867 873.684 462.773 866.363 460.918 858.974C454.273 832.73 450.588 805.946 445.679 779.359C443.338 766.187 440.328 753.143 436.663 740.277C432.836 727.161 427.231 714.631 420.003 703.037C416.426 697.245 412.711 691.541 409.33 685.632C405.812 679.468 403.039 672.951 399.687 666.698C392.759 653.782 384.291 641.777 377 629.066C362.432 603.805 355.416 574.895 356.783 545.766C357.12 538.856 357.948 531.979 359.262 525.186C360.379 519.424 351.589 516.944 350.442 522.746C344.385 552.549 347.07 583.467 358.174 611.779C363.731 625.783 371.483 638.513 379.47 651.224C383.645 657.878 387.81 664.552 391.524 671.481C394.954 677.88 397.796 684.544 401.412 690.845C408.458 703.115 417.141 714.601 422.531 727.752C427.715 740.384 430.841 754.095 433.674 767.413C439.456 794.569 442.778 822.195 448.854 849.302C452.183 864.336 456.465 879.145 461.672 893.637C464.132 900.448 466.239 908.944 472.981 912.845C479.126 916.402 487.26 915.569 494.061 915.324C510.036 914.785 525.863 912.065 541.101 907.239C554.194 903.064 568.806 897.077 572.765 882.475C574.549 875.869 573.51 868.813 569.08 863.492C565.062 858.661 559.114 856.24 553.234 854.545C543.277 851.683 537.122 843.539 532.967 834.464C528.518 824.733 526.333 813.963 524.363 803.506C521.707 789.482 519.159 775.439 516.444 761.425C510.564 731.349 504.283 701.322 496.364 671.706C488.622 642.708 479.606 613.729 467.337 586.299C464.348 579.596 461.212 572.961 458.076 566.336C456.753 563.553 452.637 565.974 453.94 568.747V568.777Z" fill="#382C80"/>
<path d="M460.486 536.074C502.861 614.866 524.402 721.813 538.318 799.635C539.141 804.212 539.503 808.769 542.159 812.581C544.815 816.393 548.49 816.815 548.833 821.734C549.205 827.105 543.345 832.112 539.484 834.778C518.294 849.328 493.291 857.32 467.591 857.759C454.684 857.945 446.413 850.301 444.826 837.777C442.885 823.438 440.223 809.207 436.848 795.137C432.36 775.635 427.685 756.143 421.286 737.16C414.651 717.482 408.546 696.588 399.883 677.743C390.955 658.211 377.392 641.248 367.827 622.04C352.833 591.692 348.266 557.246 354.832 524.04" fill="white"/>
<path d="M458.419 537.24C469.385 557.82 478.019 579.87 485.859 601.793C493.964 624.548 500.853 647.735 506.929 671.108C518.277 714.757 527.127 759.22 534.575 803.702C535.555 809.582 537.368 814.658 541.935 818.667C543.189 819.764 544.581 820.627 544.424 822.498C544.238 824.801 542.062 826.859 540.504 828.378C536.27 832.298 530.87 835.238 525.804 838.002C509.312 846.98 491.01 852.128 472.257 853.065C463.593 853.437 454.813 852.251 451.059 843.265C448.864 838.031 448.825 831.848 447.953 826.301C446.855 819.372 445.532 812.483 444.033 805.623C441.119 791.903 437.888 778.248 434.34 764.659C430.832 751.223 426.5 738.081 422.208 724.89C417.994 712.013 413.829 699.107 408.762 686.543C403.775 674.342 397.739 662.597 390.721 651.439C383.861 640.375 376.618 629.497 370.974 617.737C360.092 594.661 355.256 569.197 356.92 543.737C357.307 537.519 358.092 531.333 359.272 525.215C360.38 519.453 351.599 516.974 350.452 522.775C345.099 549.082 346.529 576.318 354.608 601.92C358.812 614.721 364.488 626.991 371.522 638.484C378.49 650.126 386.222 661.337 392.485 673.391C398.913 685.73 403.578 698.94 408.008 712.092C412.545 725.576 417.19 739.081 421.199 752.742C425.305 766.785 428.705 781.015 431.979 795.264C435.222 809.327 438.172 823.459 440.093 837.767C441.455 847.929 446.639 856.808 456.557 860.591C461.731 862.551 467.337 862.453 472.747 862.1C479.331 861.664 485.879 860.79 492.347 859.484C505.281 856.859 517.764 852.363 529.4 846.136C538.22 841.412 553.714 833.69 553.293 821.734C553.199 819.07 552.185 816.521 550.421 814.521C548.863 812.747 546.756 811.581 545.521 809.523C544.022 807.122 543.561 804.133 543.14 801.399C542.719 798.665 542.16 795.646 541.621 792.775C539.661 782.113 537.655 771.457 535.604 760.807C531.03 737.287 525.804 713.885 519.924 690.6C513.809 666.228 506.958 642.012 498.834 618.217C490.994 595.168 482.174 572.157 470.934 550.539C468.209 545.296 465.406 540.072 462.604 534.859C461.134 532.144 457.018 534.555 458.468 537.269L458.419 537.24Z" fill="#382C80"/>
<path d="M414.524 416.7C464.906 436.623 526.813 423.678 573.902 390.436C614.17 362.016 632.074 318.416 645.873 272.121C649.738 259.136 652.524 245.854 654.203 232.411C655.477 222.19 659.612 205.049 653.046 196.082C650.959 193.231 647.402 191.182 643.923 191.859C640.444 192.535 637.66 196.396 638.944 199.699C637.239 197.435 636.573 194.593 635.367 192.035C634.162 189.477 632.065 186.978 629.252 186.763C625.156 186.459 622.392 191.016 621.765 195.083C620.873 190.438 619.364 185.028 614.905 183.431C612.108 182.516 609.034 183.276 606.986 185.391C605.015 187.553 604.154 190.505 604.654 193.387C603.738 190.627 602.417 188.017 600.734 185.645C599.016 183.253 596.33 181.74 593.394 181.51C588.17 181.412 584.27 187.213 584.848 192.417C585.632 199.532 585.965 205.049 581.222 211.174C574.362 220.083 564.072 225.874 556.722 234.44C547.804 244.965 544.1 258.783 539.876 271.66C535.172 285.86 530.076 299.766 524.069 313.467C519.835 323.1 516.425 332.92 506.683 338.124C499.353 342.044 491.425 344.69 483.526 347.257C447.021 359.154 381.537 351.638 369.748 395.826" fill="white"/>
<path d="M413.76 419.522C467.228 440.671 529.929 425.726 575.675 393.435C598.107 377.598 615.091 355.852 627.311 331.42C633.347 319.13 638.546 306.446 642.874 293.455C647.842 278.883 652.341 264.055 655.232 248.953C656.731 241.113 657.711 233.156 658.877 225.237C659.916 218.26 660.837 211.145 659.857 204.109C658.877 197.425 655.388 190.506 648.391 188.546C641.1 186.508 633.231 192.956 635.524 200.649L642.1 197.866C638.493 192.613 637.895 184.479 630.251 183.274C623.744 182.294 619.383 188.419 618.315 194.113H625.293C624.028 187.752 621.196 180.285 613.758 179.501C605.918 178.668 600.205 185.988 601.087 193.407L608.192 192.427C605.8 186.263 602.508 179.403 595.285 178.099C588.954 176.943 583.447 181.686 581.771 187.547C580.095 193.407 583.035 199.463 580.624 205.294C578.008 211.615 571.344 216.437 566.267 220.69C560.916 225.169 555.713 229.667 551.567 235.312C547.422 240.957 544.501 247.405 542.042 253.932C536.544 268.553 532.242 283.587 526.558 298.14C523.804 305.147 520.883 312.114 517.738 318.965C515.131 324.688 511.975 330.538 506.487 333.988C500.166 337.967 492.767 340.348 485.692 342.681C481.01 344.245 476.247 345.554 471.423 346.601C451.891 350.785 431.801 351.834 412.427 356.842C402.343 359.448 392.16 363.143 383.742 369.425C375.268 375.681 369.194 384.654 366.533 394.846C365.387 399.04 371.894 400.824 373.041 396.639C377.872 378.999 393.621 369.787 410.085 364.985C428.636 359.576 448.04 358.282 466.983 354.882C477.18 353.025 487.176 350.196 496.834 346.434C503.273 343.964 510.064 341.279 515.072 336.379C519.247 332.302 522.03 327.079 524.392 321.807C530.651 307.819 536.26 293.579 541.218 279.088C545.619 266.241 548.784 252.364 556.418 240.937C560.593 234.675 566.434 229.951 572.098 225.159C577.586 220.553 583.79 215.496 586.877 208.862C588.308 205.689 589.018 202.238 588.954 198.758C588.954 195.818 587.866 192.329 588.719 189.438C589.513 186.723 591.992 184.215 594.981 185.459C598.411 186.9 599.94 191.143 601.175 194.279C602.517 197.719 608.809 197.719 608.29 193.299C607.907 190.085 609.897 184.812 614.17 186.919C617.11 188.38 617.756 193.084 618.315 195.926C619.001 199.346 624.646 199.395 625.293 195.926C625.694 193.76 627.39 188.458 630.398 190.957C633.407 193.456 633.77 198.346 635.867 201.404C638.072 204.618 643.707 202.746 642.462 198.621C641.737 196.19 644.422 194.877 646.451 195.396C649.254 196.102 651.008 198.856 651.88 201.423C653.615 206.529 653.232 212.203 652.693 217.505C651.357 230.782 649.177 243.96 646.167 256.96C642.929 270.299 638.954 283.448 634.26 296.346C630.178 308.094 625.31 319.553 619.687 330.646C608.329 352.706 592.864 372.6 572.52 387.133C550.837 402.636 526.221 413.554 500.176 419.219C472.011 425.275 442.307 424.315 415.288 413.858C411.751 412.486 410.251 418.15 413.73 419.522H413.76Z" fill="#382C80"/>
<path d="M369.748 395.797C381.508 351.608 447.021 359.125 483.526 347.228C488.23 345.699 494.228 341.612 499.098 342.279C504.91 343.073 510.3 350.521 513.426 354.852C523 368.131 530.448 383.223 534.006 399.276C536.613 411.134 540.523 428.274 526.969 433.919C495.727 446.913 446.796 445.933 410.977 438.77" fill="#7F72FF"/>
<path d="M372.6 396.581C375.054 387.67 380.549 379.9 388.133 374.619C395.865 369.229 404.891 366.112 413.956 363.79C433.654 358.723 454.136 357.812 473.942 353.49C478.779 352.549 483.513 351.134 488.073 349.266C490.886 348.041 493.787 346.326 496.893 345.885C500 345.444 502.636 347.63 504.733 349.805C509.457 354.588 513.22 360.585 516.67 366.308C520.686 372.92 524.047 379.908 526.705 387.173C528.896 393.45 530.597 399.889 531.791 406.43C532.771 411.33 533.594 416.769 532.526 421.757C531.37 427.176 527.999 429.734 523.001 431.606C517.145 433.766 511.129 435.463 505.008 436.682C474.451 442.964 442.376 440.71 411.849 435.545C407.645 434.83 405.753 441.063 410.056 442.043C424.557 445.2 439.32 447.008 454.156 447.443C469.418 448.118 484.711 447.297 499.814 444.993C506.743 443.925 513.58 442.329 520.266 440.22C526.146 438.329 532.438 436.3 536.25 431.126C543.11 421.747 539.7 408.154 537.348 397.806C533.663 381.636 526.186 366.446 516.533 353.049C512.779 347.826 508.497 341.75 502.205 339.407C495.198 336.801 488.936 341.612 482.605 343.778C472.874 347.11 462.437 348.541 452.303 350.04C441.239 351.687 430.136 353.118 419.189 355.479C407.782 357.939 396.179 361.448 386.408 368.043C376.829 374.342 369.901 383.945 366.945 395.022C365.965 398.688 371.581 400.226 372.61 396.59L372.6 396.581Z" fill="#382C80"/>
<path d="M412.418 353.892C406.009 351.069 397.385 354.666 390.926 357.39C364.221 368.66 348.973 396.708 342.995 423.883C337.017 451.059 345.239 480.165 340.309 507.624C339.202 513.808 337.252 519.884 337.007 526.166C336.762 532.448 338.594 539.249 343.602 543.051C348.61 546.854 355.774 546.756 361.713 544.6C367.651 542.444 372.757 538.553 378.049 535.094C395.664 523.649 415.831 516.725 436.761 514.935C447.659 513.955 458.096 514.935 468.885 516.209C475.451 516.974 487.819 520.57 493.738 517.023C495.8 515.649 497.269 513.55 497.854 511.143C499.638 504.822 497.041 498.04 493.346 492.611C489.652 487.182 484.84 482.546 481.371 476.931C478.166 471.805 476.186 466.033 474.236 460.271C467.494 440.583 457.988 420.542 456.645 399.658" fill="#7F72FF"/>
<path d="M413.172 351.167C405.479 348.09 396.923 351.687 389.789 354.686C382.875 357.594 376.467 361.583 370.806 366.504C359.272 376.52 351.148 389.907 345.562 403.96C339.005 420.444 336.918 437.515 337.408 455.165C337.937 474.481 339.956 493.63 335.644 512.671C333.772 520.923 332.057 529.596 335.389 537.72C338.377 545.142 345.679 549.912 353.676 549.666C362.574 549.598 370.091 544.766 377.196 539.935C384.859 534.682 393.075 530.285 401.696 526.823C419.402 519.875 438.462 517.069 457.419 518.62C465.563 519.267 473.471 520.854 481.556 521.805C488.524 522.628 496.54 522.148 500.108 515.082C504.126 507.115 501.137 497.726 496.433 490.768C491.19 483.007 484.477 476.774 480.811 467.964C477.215 459.301 474.402 450.245 471.129 441.445C467.758 432.36 464.494 423.207 462.309 413.75C461.238 409.134 460.52 404.442 460.163 399.717C459.83 395.189 452.734 395.14 453.048 399.717C454.293 417.66 460.888 434.369 467.062 451.069C470.139 459.359 472.501 468.13 476.646 475.98C480.566 483.389 486.985 488.936 491.288 496.051C494.433 501.245 498.148 513.563 488.955 514.867C482.82 515.729 476.441 513.691 470.414 512.848C452.587 510.349 434.791 510.329 417.219 514.484C400.334 518.483 385.32 526.009 370.944 535.545C364.711 539.68 357.047 544.296 349.266 541.973C341.994 539.798 340.132 531.772 340.583 525.059C340.877 520.58 342.102 516.239 343.023 511.829C343.975 507.243 344.63 502.602 344.983 497.932C345.537 489.18 345.537 480.401 344.983 471.649C344.15 454.224 342.965 436.849 347.404 419.777C351.393 404.401 358.184 389.289 368.807 377.324C373.942 371.429 380.047 366.458 386.859 362.624C390.64 360.555 394.595 358.821 398.678 357.439C402.901 355.999 407.331 354.931 411.633 356.597C415.044 357.91 416.465 352.481 413.133 351.148L413.172 351.167Z" fill="#382C80"/>
<path d="M371.669 430.185C348.963 437.153 325.472 442.151 301.727 442.239C277.981 442.327 253.893 437.28 233.44 425.285C212.988 413.29 196.357 393.925 190.105 370.993C184.078 348.874 187.811 325.413 191.584 302.795C195.181 281.235 203.178 262.742 209.95 242.172C216.859 221.18 225.316 200.737 234.116 180.432C238.213 170.985 243.368 154.119 253.569 149.728C256.823 148.337 260.91 148.415 263.585 150.708C266.26 153.002 266.662 157.794 263.889 159.989C266.496 158.911 268.524 156.804 270.857 155.207C273.189 153.609 276.276 152.531 278.804 153.776C282.489 155.599 282.548 160.93 281.019 164.742C284.155 161.204 288.203 157.314 292.848 158.196C295.725 158.835 297.981 161.068 298.649 163.938C299.251 166.799 298.495 169.777 296.601 172.004C298.789 170.089 301.25 168.511 303.902 167.319C306.598 166.14 309.676 166.204 312.32 167.496C316.877 170.063 317.279 177.051 314.143 181.216C309.841 186.949 306.754 191.525 307.734 199.218C309.145 210.4 315.025 220.582 316.966 231.686C320.768 253.403 310.39 271.866 305.206 292.328C299.123 316.306 293.511 340.404 288.369 364.623C329.265 355.92 369.778 359.899 416.338 355.724" fill="white"/>
<path d="M370.885 427.353C340.505 436.516 308.165 442.406 276.472 436.967C248.768 432.204 222.023 418.778 205.559 395.375C197.45 383.95 192.433 370.622 190.997 356.685C189.36 340.466 191.653 324.198 194.27 308.204C196.808 292.789 201.13 278.089 206.353 263.369C211.704 248.189 216.663 232.872 222.474 217.858C228.354 202.609 234.92 187.635 241.192 172.543C243.515 166.977 246.092 160.989 250.296 156.559C252.256 154.54 254.569 152.708 257.431 152.482C259.979 152.286 264.154 154.854 261.351 157.5C258.156 160.44 262.203 164.821 265.731 163.174C267.542 162.257 269.242 161.136 270.798 159.832C272.219 158.725 274.199 156.892 276.159 156.892C279.549 156.892 278.246 161.93 277.55 163.811C276.306 167.202 281.255 169.956 283.607 167.329C285.567 165.144 288.644 161.263 292.005 161.734C296.494 162.361 295.337 167.751 293.485 170.201C290.79 173.768 296.258 176.894 299.179 174.591C301.619 172.631 304.471 170.328 307.715 170.142C310.596 169.985 312.37 171.73 312.556 174.532C312.722 177.129 311.39 178.903 309.939 180.902C308.05 183.36 306.497 186.059 305.323 188.929C300.492 201.561 309.057 215.555 312.321 227.55C316.123 241.555 313.095 255.343 308.763 268.828C306.666 275.345 304.353 281.793 302.511 288.428C300.453 295.847 298.708 303.383 296.886 310.87C292.6 328.438 288.578 346.075 284.822 363.78C284.502 365.042 284.87 366.379 285.791 367.299C286.711 368.22 288.048 368.588 289.31 368.269C331.048 359.498 374.1 363.457 416.308 359.223C420.562 358.792 420.679 352.148 416.308 352.481C373.424 355.754 329.686 352.324 287.37 361.232L291.858 365.721C295.536 348.433 299.456 331.195 303.618 314.006C305.578 305.803 307.479 297.542 309.792 289.418C311.86 282.195 314.457 275.129 316.652 267.946C321.219 253.148 323.179 238.213 318.544 223.17C316.211 215.614 312.84 208.303 311.527 200.463C310.915 197.532 311.081 194.491 312.007 191.643C313.144 188.448 315.378 185.891 317.25 183.127C320.886 177.796 320.788 169.642 315.486 165.399C308.381 159.695 299.943 164.84 294.014 169.505L299.708 173.895C304.098 168.074 303.109 159.195 296.278 155.667C289.447 152.139 282.842 157.343 278.442 162.253L284.498 165.771C286.39 160.607 285.978 153.639 280.578 150.728C273.297 146.808 267.838 154.197 262.007 156.932L266.388 162.616C271.651 157.716 269.328 149.101 263.115 146.328C256.902 143.555 249.924 146.563 245.416 151.228C236.684 160.185 233.048 173.768 228.227 184.989C221.2 201.375 214.438 217.897 208.627 234.763C203.031 250.953 196.867 267.103 192.231 283.587C187.604 300.527 184.733 317.9 183.666 335.429C182.559 352.157 184.264 368.935 191.173 384.36C203.57 412.035 229.726 431.332 258.342 439.711C295.935 450.726 335.762 444.395 372.434 433.056C376.03 431.949 374.502 426.294 370.866 427.392L370.885 427.353Z" fill="#382C80"/>
<path d="M416.308 355.803C396.552 357.577 376.716 357.88 356.891 358.37C339.251 358.811 321.16 358.067 304.108 363.172C305.823 369.905 310.243 376.687 312.311 383.654C318.189 403.525 319.038 424.546 314.78 444.826C313.742 449.726 312.82 455.351 309.988 459.526C308.077 462.26 304.334 464.063 303.305 467.307C310.106 469.836 318.544 468.287 325.531 467.307C343.416 464.838 353.275 465.818 369.778 458.487" fill="#7F72FF"/>
<path d="M416.308 352.863C396.933 354.372 377.48 354.45 358.057 354.823C339.672 355.215 320.993 354.47 303.177 359.664C301.286 360.22 300.176 362.175 300.668 364.084C301.995 368.375 303.67 372.55 305.676 376.569C307.591 380.751 309.113 385.101 310.223 389.564C312.599 399.11 313.8 408.911 313.8 418.748C313.73 428.139 312.675 437.497 310.654 446.668C309.851 450.53 309.096 455.096 306.381 458.134C303.882 460.918 301.178 462.672 299.757 466.308C299.002 468.219 300.599 470.228 302.295 470.786C308.106 472.746 314.28 472.413 320.268 471.639C326.432 470.845 332.567 470.032 338.751 469.414C350.158 468.277 361.026 466.386 371.444 461.388C374.844 459.751 372.424 453.813 368.847 455.224C358.851 459.144 348.953 461.104 338.31 462.162C332.763 462.711 327.233 463.364 321.718 464.122C315.907 464.936 309.89 465.671 304.235 463.73L306.773 468.209C307.391 466.641 309.174 465.484 310.37 464.367C311.733 463.124 312.903 461.684 313.839 460.094C316.044 456.272 316.975 451.902 317.857 447.629C319.92 438.129 320.988 428.44 321.042 418.719C321.002 408.818 319.831 398.954 317.553 389.319C316.504 384.707 315.038 380.2 313.173 375.854C311.213 371.326 308.871 366.955 307.557 362.134L305.049 366.553C322.61 361.428 341.113 362.212 359.213 361.722C378.264 361.193 397.316 360.536 416.298 358.664C420.012 358.292 420.101 352.49 416.298 352.784L416.308 352.863Z" fill="#382C80"/>
<path d="M431.919 561.123C434.741 568.424 429.459 575.754 427.832 582.683C425.872 591.169 430.096 599.196 432.859 607.036C439.21 625.185 445.214 643.407 450.872 661.7C462.201 698.332 472.167 735.376 481.017 772.685C485.985 793.579 490.219 814.629 495.148 835.523C495.658 837.698 498.813 836.748 498.441 834.621C495.148 815.736 490.758 797.018 486.407 778.359C482.055 759.7 477.42 741.119 472.491 722.548C462.622 685.504 451.558 648.764 438.955 612.563C437.191 607.486 435.401 602.426 433.585 597.383C431.821 592.483 430.449 588.073 431.625 582.888C433.379 575.48 438.063 567.992 434.839 560.348C434.094 558.575 431.144 559.3 431.899 561.172L431.919 561.123Z" fill="#7F72FF"/>
<path d="M417.161 564.68C416.72 567.684 415.455 570.506 413.505 572.834C413.065 573.316 412.933 574.005 413.164 574.616C413.395 575.227 413.95 575.657 414.599 575.727C415.248 575.798 415.882 575.498 416.239 574.95C418.453 571.975 419.692 568.387 419.787 564.68C419.865 562.945 417.366 563.053 417.161 564.68Z" fill="#7F72FF"/>
<path d="M527.44 822.185C529.596 820.793 531.752 819.402 533.869 817.942C535.701 816.687 534.026 813.708 532.105 814.923C529.939 816.305 527.803 817.736 525.676 819.167C523.824 820.421 525.539 823.42 527.44 822.185Z" fill="#7F72FF"/>
<path d="M384.418 726.762C383.664 723.625 383.26 720.414 383.213 717.188C383.15 716.409 382.499 715.81 381.718 715.81C380.937 715.81 380.287 716.409 380.224 717.188C380.167 720.693 380.596 724.189 381.498 727.576C381.978 729.467 384.889 728.664 384.438 726.762H384.418Z" fill="#7F72FF"/>
<path d="M374.746 604.282C379.107 602.704 383.115 600.744 387.682 599.735L385.516 596.912C383.654 601.175 385.075 605.007 387.339 608.819C390.116 613.228 392.607 617.811 394.796 622.539C396.926 627.534 398.567 632.723 399.696 638.033C400.833 643.276 401.48 647.833 398.932 652.733C398.52 653.543 398.742 654.532 399.461 655.087C400.179 655.643 401.192 655.609 401.872 655.007C405.38 652.116 405.233 646.628 404.685 642.561C403.971 637.559 402.783 632.637 401.137 627.861C399.54 623.04 397.533 618.365 395.139 613.886C392.807 609.594 386.986 603.567 389.063 598.392C389.632 596.971 387.985 595.707 386.702 596.04C382.096 597.197 377.117 598.843 373.334 601.793C372.168 602.714 373.432 604.733 374.785 604.282H374.746Z" fill="#7F72FF"/>
<path d="M620.541 845.852C619.08 843.382 617.022 840.227 617.963 837.218C618.532 835.376 620.158 833.778 622.207 834.67C623.422 835.19 624.235 836.689 624.833 837.787C627.459 842.687 627.538 848.42 627.665 853.8H631.84C631.615 850.801 635.535 848.841 638.043 850.399C641.317 852.428 640.464 857.583 638.445 860.131C637.25 861.64 638.288 864.472 640.523 863.708C644.56 862.336 650.725 860.562 654.321 863.923C656.281 865.726 657.389 870.675 654.321 871.959C651.871 872.939 652.861 876.957 655.438 876.007C662.298 873.468 670.952 877.143 673.284 884.327C675.764 891.99 669.452 900.791 661.652 901.702C659.202 901.986 659.094 905.818 661.652 905.622C672.049 904.799 680.272 894.293 677.606 883.925C675.107 874.252 663.572 868.549 654.321 871.959L655.438 876.007C660.711 873.851 661.632 867.51 658.859 862.884C654.86 856.201 645.648 857.465 639.435 859.582L641.522 863.159C645.315 858.347 646.128 849.605 639.68 846.45C634.653 843.99 627.048 847.743 627.714 853.8C627.998 856.407 632.046 856.524 631.889 853.8C631.624 849.135 631.35 844.313 629.762 839.884C628.586 836.581 626.538 832.318 622.902 831.221C619.561 830.241 616.425 832.524 615.258 835.591C613.671 839.737 615.974 843.863 618.14 847.351C618.568 847.983 619.413 848.175 620.072 847.79C620.731 847.405 620.979 846.575 620.639 845.891L620.541 845.852Z" fill="#382C80"/>
<path d="M623.392 893.96C624.97 892.862 626.871 893.715 627.91 895.165C629.086 896.822 629.361 899.027 629.664 900.977C629.968 902.927 633.202 902.182 632.82 900.105C632.291 897.165 631.575 893.931 629.067 892C627.054 890.31 624.181 890.108 621.952 891.5C620.472 892.549 621.883 895.018 623.392 893.96Z" fill="#382C80"/>
<path d="M426.217 887.698C417.642 885.611 408.733 894.744 411.958 903.26C412.742 905.358 416.054 904.544 415.368 902.28C413.555 896.4 419.072 889.403 425.393 890.658C427.353 891.04 428.177 888.139 426.217 887.659V887.698Z" fill="#382C80"/>
<path d="M643.08 831.818C644.746 815.933 648.137 800.537 654.272 785.758C660.521 770.966 668.973 757.205 679.34 744.941C680.771 743.217 678.36 740.718 676.831 742.442C655.585 766.57 641.835 799.655 640.277 831.818C640.199 833.592 642.815 833.524 642.992 831.818H643.08Z" fill="#382C80"/>
<path d="M654.841 786.934C658.979 784.168 664.002 783.05 668.923 783.798L667.943 781.407C664.259 786.371 657.879 788.524 651.94 786.807C649.823 786.239 649.078 789.277 651.048 790.031C658.359 792.824 666.66 789.541 670.756 783.054C671.038 782.549 671.035 781.934 670.748 781.432C670.461 780.93 669.932 780.616 669.355 780.604C663.743 779.986 658.095 781.374 653.41 784.524C651.92 785.504 653.292 787.934 654.831 786.954L654.841 786.934Z" fill="#382C80"/>
<path d="M660.279 765.355C659.466 761.366 661.642 757.094 659.192 753.409C657.759 751.138 654.765 750.443 652.479 751.851C645.981 755.996 648.872 767.295 651.45 772.754C652.371 774.714 655.311 773.009 654.39 771.059C652.43 767.011 650.234 759.651 653.165 755.467C655.634 751.958 657.918 755.653 658.065 758.348C658.212 761.043 657.535 763.366 658.065 765.972C658.388 767.433 660.603 766.815 660.309 765.355H660.279Z" fill="#382C80"/>
<path d="M646.618 810.66C649.895 810.523 653.076 811.784 655.369 814.129V811.895C654.731 812.527 653.816 812.793 652.939 812.6C650.842 812.326 650.861 815.629 652.939 815.903C654.695 816.15 656.455 815.481 657.604 814.129C658.211 813.508 658.211 812.516 657.604 811.895C654.539 809.316 650.62 807.977 646.618 808.141C645.001 808.21 644.991 810.699 646.618 810.66Z" fill="#382C80"/>
<path d="M639.396 807.897C638.655 802.806 636.209 798.117 632.457 794.598C631.904 794.085 631.05 794.085 630.497 794.598C623.235 801.272 628.253 813.071 637.906 813.11C640.033 813.11 640.023 809.886 637.906 809.808C630.879 809.553 627.851 801.703 632.496 796.587H630.536C634.172 799.585 636.55 803.837 637.2 808.504C637.436 809.974 639.621 809.337 639.415 807.897H639.396Z" fill="#382C80"/>
<path d="M732.26 209.832L171.7 183.46L169.906 219.23L633.27 240.79L631.476 276.57C631.049 285.129 637.641 292.415 646.201 292.843C654.761 293.27 662.046 286.678 662.474 278.118L663.228 263.222L697.205 264.927L696.323 282.509C695.983 287.152 698.184 291.616 702.074 294.173C705.965 296.731 710.935 296.982 715.063 294.829C719.192 292.676 721.831 288.456 721.96 283.802L723.92 245.347L730.476 245.67C740.354 246.168 748.765 238.565 749.263 228.687C749.761 218.809 742.157 210.398 732.279 209.9L732.26 209.832Z" fill="#7F72FF"/>
<path d="M732.26 206.255L717.217 205.549L676.488 203.589L616.051 200.737L542.551 197.268L461.78 193.505L380.548 189.673L304.803 186.106L240.545 183.078L194.377 180.902C187.135 180.559 179.863 180.01 172.611 179.922L171.631 179.873C169.667 179.91 168.085 181.496 168.054 183.46L166.261 219.23C166.287 221.195 167.873 222.781 169.838 222.807L182.264 223.385L215.878 224.953L265.799 227.276L326.726 230.108L393.18 233.146L460.545 236.282L523.353 239.222L576.205 241.682L614.425 243.456C620.363 243.73 626.508 244.504 632.457 244.289H633.241L629.664 240.702L627.939 275.002C627.527 283.204 631.183 291.025 638.925 294.602C643.858 296.821 649.496 296.866 654.464 294.727C659.432 292.588 663.274 288.46 665.051 283.351C666.208 279.951 666.12 276.207 666.306 272.65L666.776 263.163L663.189 266.76L697.166 268.465L693.589 264.888C693.305 270.543 692.972 276.207 692.736 281.872C692.305 292.142 700.89 300.776 711.356 299.345C720.225 298.14 725.174 290.692 725.596 282.264L726.576 262.458L727.438 245.308L723.851 248.885C728.203 249.11 732.671 249.649 736.915 248.503C743.531 246.666 748.888 241.807 751.36 235.4C756.721 221.621 746.46 207.303 732.211 206.265C727.605 205.931 727.624 213.125 732.211 213.428C742.511 214.173 748.949 225.62 743.804 234.734C741.461 238.896 737.206 241.624 732.446 242.015C729.577 242.092 726.707 241.987 723.851 241.701C721.885 241.733 720.301 243.322 720.274 245.288L718.677 276.932C718.461 281.352 718.981 286.507 715.453 289.819C712.213 292.834 707.304 293.161 703.693 290.603C700.753 288.496 699.773 285.302 699.92 281.852C700.155 276.188 700.488 270.523 700.772 264.869C700.741 262.901 699.153 261.313 697.186 261.282L663.209 259.577C661.241 259.608 659.654 261.196 659.622 263.163C659.377 268.063 659.269 272.963 658.887 277.805C658.221 286.252 649.322 291.946 641.492 287.908C635.72 284.968 634.897 279.304 635.191 273.522L636.112 255.069L636.837 240.731C636.8 238.767 635.214 237.186 633.25 237.154L620.834 236.576L587.22 235.008L537.24 232.685L476.313 229.853L409.869 226.756L342.524 223.64L279.715 220.7L226.864 218.24L188.644 216.466C182.705 216.192 176.561 215.418 170.622 215.624C170.357 215.638 170.092 215.638 169.828 215.624L173.415 219.21L175.208 183.44L171.7 186.988L186.743 187.703L227.472 189.663L287.908 192.505L361.408 195.975L442.17 199.777L523.402 203.609L599.146 207.176L663.405 210.214L709.573 212.39C716.815 212.733 724.087 213.272 731.339 213.37H732.319C736.817 213.634 736.807 206.47 732.26 206.255Z" fill="#7F72FF"/>
<path d="M673.029 737.875C672.022 736.592 672.109 734.764 673.235 733.583C674.587 732.084 676.675 732.397 678.135 733.495C681.526 735.974 680.34 740.482 678.262 743.383C676.979 745.206 679.997 746.97 681.261 745.137C684.877 739.904 684.446 731.006 676.89 729.683C671.432 728.703 666.973 735.563 671.118 739.747C672.333 740.972 674.058 739.149 672.99 737.875H673.029Z" fill="#382C80"/>
<path d="M605.467 850.634C598.607 850.84 592.953 858.111 594.55 864.815C595.011 866.775 598.303 866.383 598.078 864.344C597.51 859.003 600.557 854.613 605.869 853.564C607.555 853.241 607.163 850.536 605.467 850.624V850.634Z" fill="#382C80"/>
<path d="M541.003 271.023C546.373 253.873 548.843 235.488 552.547 217.907C553.273 214.428 554.566 210.322 558.006 209.41C561.779 208.43 565.131 212.096 566.767 215.633C568.504 219.451 569.537 223.551 569.815 227.736C569.786 229.314 570.122 230.877 570.795 232.303C572.637 235.429 577.087 235.243 580.683 235.714C586.353 236.476 591.326 239.881 594.087 244.891C596.848 249.902 597.071 255.924 594.687 261.125" fill="white"/>
<path d="M543.61 271.738C546.627 262.61 549.081 253.306 550.96 243.877C551.94 239.153 552.832 234.41 553.763 229.677C554.615 225.375 555.145 220.729 556.615 216.594C557.732 213.458 559.408 212.056 561.76 215.153C564.249 218.436 565.268 223.199 565.591 227.217C565.934 231.431 566.493 235.38 570.433 237.723C573.627 239.624 577.293 239.3 580.821 240.026C590.15 241.986 594.002 251.629 590.621 260.037C588.915 264.33 596.207 267.446 598.137 263.203C602.322 254.01 600.421 243.073 592.424 236.537C588.818 233.61 584.426 231.816 579.801 231.382C578.429 231.225 575.95 231.382 574.794 230.539C573.353 229.461 573.755 225.698 573.5 224.032C572.295 216.192 566.395 201.423 555.752 206.108C551.666 207.901 550.078 212.115 549.216 216.202C548.089 221.513 547.167 226.864 546.217 232.215C543.953 244.955 541.846 257.822 538.377 270.308C537.397 273.679 542.473 275.012 543.581 271.738H543.61Z" fill="#382C80"/>
<path d="M311.929 271.278C316.025 253.775 323.228 236.674 328.99 219.661C330.137 216.3 331.107 212.105 328.608 209.577C325.874 206.804 321.111 208.264 317.907 210.479C314.455 212.882 311.467 215.89 309.087 219.357C308.322 220.731 307.252 221.911 305.96 222.807C302.795 224.571 299.1 222.131 295.71 220.72C290.439 218.501 284.43 218.91 279.508 221.821C274.586 224.732 271.334 229.801 270.739 235.488" fill="white"/>
<path d="M314.536 271.993C317.476 261.037 321.474 250.375 325.424 239.761C327.462 234.273 329.54 228.785 331.509 223.268C332.979 219.113 334.89 214.605 333.401 210.185C331.911 205.765 327.374 203.619 322.905 204.207C318.211 204.824 314.232 207.745 310.88 210.92C309.12 212.625 307.514 214.481 306.078 216.467C304.608 218.427 304.197 219.652 301.629 218.721C296.817 216.976 292.809 214.801 287.517 215.134C276.487 215.824 267.621 224.478 266.663 235.488C266.183 240.055 274.032 241.172 274.748 236.586C275.934 228.971 281.833 223.072 289.859 223.611C293.779 223.875 296.925 226.384 300.688 227.276C304.686 228.341 308.925 226.819 311.331 223.454C313.781 220.249 315.957 217.084 319.171 214.585C320.818 213.301 325.923 209.989 326.364 213.899C326.805 217.809 324.404 222.18 323.179 225.659C321.631 230.128 320.034 234.577 318.466 239.036C314.719 249.33 311.661 259.862 309.312 270.563C308.607 273.944 313.615 275.384 314.516 272.003L314.536 271.993Z" fill="#382C80"/>
<path d="M453.147 487.975C464.309 485.035 475.834 482.772 486.281 489.122C488.966 490.759 492.161 486.829 489.701 484.683C478.921 475.353 464.025 479.371 451.775 482.977C448.58 483.957 449.913 488.857 453.147 487.975Z" fill="#382C80"/>
<path d="M409.919 340.103C414.427 342.406 419.482 343.423 424.531 343.043C429.019 342.622 435.438 341.083 437.81 336.85C439.064 334.615 436.947 331.146 434.233 332.175C432.4 332.871 430.979 334.135 429.235 335.007C427.481 335.864 425.602 336.436 423.668 336.703C419.705 337.231 415.673 336.804 411.908 335.458C409.194 334.478 407.322 338.859 409.948 340.133L409.919 340.103Z" fill="#382C80"/>
<path d="M413.241 258.724C418.706 256.547 424.642 255.827 430.469 256.637C434.291 257.293 439.779 258.234 442.504 261.233C444.867 263.935 445.613 267.691 444.464 271.092C448.384 269.7 452.852 272.669 454.126 276.727C455.4 280.784 453.911 285.36 451.186 288.536C453.706 287.14 456.798 287.288 459.173 288.918C461.427 290.672 462.113 294.474 460.212 296.572C464.044 294.514 469.179 297.552 470.385 301.893C471.59 306.234 469.591 310.948 466.465 313.986C460.908 319.327 454.616 318.504 447.737 317.71C441.974 317.044 435.82 318.965 429.969 318.965C415.544 318.965 400.903 315.564 388.594 307.469" fill="#382C80"/>
<path d="M413.859 260.949C420.337 258.714 445.062 257.283 441.005 270.131C440.678 271.376 441.036 272.701 441.945 273.613C442.854 274.524 444.179 274.885 445.425 274.561C447.669 273.953 449.805 275.609 450.501 277.726C451.412 280.47 450.158 283.606 448.404 285.733C445.464 289.31 449.051 293.749 453.206 291.956C455.166 291.123 458.655 292.093 456.763 294.543C454.019 298.12 459.105 301.403 462.251 300.041C464.946 298.826 466.818 302.981 466.691 304.941C466.265 308.445 464.076 311.488 460.889 313.006C457.684 314.613 453.951 314.27 450.501 313.927C446.456 313.484 442.373 313.527 438.339 314.055C430.238 315.177 422.006 314.932 413.986 313.33C405.48 311.605 398.1 308.214 390.545 304.078C386.017 301.609 382.705 307.871 386.625 310.821C393.396 315.936 402.138 319.053 410.35 320.895C418.563 322.738 427.324 323.649 435.723 322.581C440.074 322.022 444.278 321.395 448.668 321.865C452.588 322.287 456.508 322.62 460.37 321.767C467.955 320.101 474.266 313.202 474.785 305.382C475.383 296.464 466.612 289.271 458.223 293.083L463.711 298.581C466.406 295.043 465.622 289.643 462.575 286.556C458.949 282.891 453.588 283.087 449.227 285.086L454.029 291.319C457.822 286.419 459.909 279.98 457.126 274.071C454.735 269.053 448.962 265.966 443.533 267.603L447.963 272.032C450.305 263.81 445.268 256.823 437.398 254.696C433.65 253.656 429.772 253.161 425.883 253.226C421.111 253.383 417.063 254.814 412.653 256.47C409.909 257.509 411.036 261.909 413.878 260.929L413.859 260.949Z" fill="#382C80"/>
<path d="M386.045 309.419C385.263 316.991 386.914 324.615 390.759 331.185C392.327 333.831 395.189 336.487 396.041 339.437C396.757 341.887 396.659 345.376 396.521 347.914C396.296 352.255 396.061 353.47 391.621 354.666C384.502 356.571 377.191 357.672 369.826 357.949C373.834 365.622 376.882 373.972 382.664 380.411C388.783 387.098 397.264 391.143 406.312 391.69C410.41 391.745 414.505 391.417 418.542 390.71C429.18 389.101 438.393 382.471 443.297 372.894C444.619 370.39 445.699 367.764 446.521 365.054C446.766 364.201 448.481 355.528 448.697 355.509C441.258 355.979 426.382 355.773 429.175 344.376C430.037 340.828 435.133 339.829 437.74 337.79C441.15 335.117 443.768 331.567 445.316 327.52C448.687 318.553 446.766 308.175 441.827 299.962C439.792 296.622 437.349 293.547 434.555 290.809C426.869 283.187 415.816 280.029 405.263 282.44C395.512 284.772 388.554 296.65 386.643 305.882C386.38 307.049 386.18 308.23 386.045 309.419Z" fill="white"/>
<path d="M383.193 309.419C382.433 315.514 383.149 321.701 385.281 327.461C386.29 330.167 387.658 332.725 389.348 335.066C390.994 337.31 392.738 339.3 393.042 342.161C393.304 344.618 393.251 347.098 392.885 349.541C392.768 350.246 392.229 350.883 392.885 350.364C392.037 350.876 391.093 351.209 390.112 351.344C383.472 353.066 376.662 354.052 369.806 354.284C368.492 354.314 367.289 355.03 366.635 356.17C365.982 357.311 365.973 358.711 366.612 359.86C370.659 367.847 373.824 376.442 379.891 383.204C385.811 389.674 393.763 393.93 402.431 395.267C419.875 397.874 438.798 390.671 446.991 374.501C448.757 371.164 450.075 367.609 450.911 363.927C451.215 362.496 451.509 361.056 451.823 359.625C451.96 358.978 452.136 358.341 452.264 357.665C452.391 356.989 452.93 356.587 452.185 357.557C454.037 355.156 451.529 351.354 448.726 351.52C444.963 351.746 431.772 352.667 432.899 346.277C433.242 344.317 435.212 343.808 436.819 342.984C439.258 341.77 441.461 340.13 443.326 338.143C447.721 333.382 450.395 327.285 450.921 320.827C452.166 307.763 445.306 294.367 435.398 286.144C426.45 278.677 412.74 274.963 401.588 279.529C390.004 284.263 383.566 297.64 382.213 309.439C381.978 311.536 384.173 313.3 386.133 313.359C388.446 313.359 389.769 311.556 390.053 309.439C391.102 300.776 396.649 289.173 405.733 286.507C417.062 283.185 428.42 288.82 435.466 297.571C442.767 306.626 446.756 321.032 438.975 331.087C437.519 333.017 435.66 334.606 433.526 335.742C431.419 336.84 429.234 337.82 427.568 339.574C424.549 342.769 424.128 348.394 426.156 352.177C430.223 359.88 441.288 360.017 448.814 359.546L445.345 353.51C443.963 355.293 443.875 358.86 443.385 360.977C442.696 364.429 441.528 367.767 439.916 370.895C435.447 379.496 427.142 385.449 417.562 386.918C407.625 388.584 397.962 387.77 389.642 381.518C381.321 375.266 377.774 364.976 373.109 356.097L369.904 361.673C377.599 361.377 385.235 360.196 392.66 358.155C398.138 356.557 399.912 353.431 400.157 347.933C400.294 344.866 400.402 341.514 399.481 338.535C398.56 335.556 396.325 333.175 394.502 330.587C390.2 324.492 388.544 316.789 389.014 309.439C389.132 305.686 383.605 305.852 383.193 309.419Z" fill="#382C80"/>
<path d="M404.312 328.324C403.844 328.066 403.444 327.7 403.146 327.255C401.862 325.354 402.117 322.649 400.549 320.836C398.795 318.788 396.727 316.181 394.14 315.211C391.298 314.153 387.515 315.378 386.662 318.279C386.354 319.635 386.446 321.051 386.927 322.355C388.036 325.748 389.508 329.01 391.317 332.087C392.444 334.047 394.63 336.232 393.14 338.692C392.063 340.291 390.131 341.087 388.24 340.711C386.392 340.308 384.789 339.168 383.801 337.555C381.713 338.721 379.156 339.368 376.941 338.486C374.726 337.604 373.266 334.733 374.481 332.675C373.726 333.78 372.348 334.278 371.061 333.91C369.809 333.523 368.684 332.805 367.807 331.832C366.698 330.844 365.821 329.622 365.24 328.255C364.671 326.736 364.603 323.218 367.053 323.767C364.024 322.924 361.035 321.934 358.056 320.934C354.843 319.785 352.664 316.781 352.568 313.369C352.49 309.566 354.92 305.989 358.184 304.049C354.499 301.379 353.359 296.394 355.516 292.387C357.673 288.38 362.461 286.588 366.719 288.193C364.849 285.21 363.615 281.874 363.093 278.393C362.721 274.904 363.623 271.131 366.122 268.671C368.621 266.211 372.874 265.427 375.765 267.426C374.541 263.507 376.488 259.299 380.267 257.694C384.046 256.089 388.426 257.611 390.396 261.213C389.269 259.165 400.108 256.186 401.274 256.137C405.87 255.97 409.418 258.459 413.563 259.939C420.953 262.595 427.509 268.602 425.911 277.217C425.147 281.323 427.656 282.244 428.254 286.125C428.734 289.173 426.343 292.083 423.501 293.269C420.659 294.455 417.444 294.308 414.367 294.151C415.337 296.805 414.55 299.782 412.394 301.609C410.239 303.436 407.173 303.726 404.714 302.334C407.134 309.003 408.548 315.995 408.908 323.081C409.059 324.306 408.901 325.549 408.448 326.697C408.146 327.487 407.526 328.113 406.739 328.422C405.952 328.732 405.071 328.696 404.312 328.324Z" fill="#382C80"/>
<path d="M405.606 326.109C404.695 325.433 404.626 323.453 404.342 322.444C404.011 321.256 403.47 320.138 402.744 319.141C401.429 317.282 399.877 315.602 398.129 314.143C394.571 311.301 389.367 310.762 385.781 313.908C381.459 317.7 383.429 323.61 385.379 328.118C386.431 330.586 387.669 332.972 389.083 335.252C389.583 336.056 390.661 336.908 389.397 337.212C388.417 337.467 387.437 336.477 386.888 335.752C385.864 334.116 383.744 333.558 382.047 334.478C381.576 334.713 377.019 335.811 377.617 334.478C379.156 331.087 374.765 326.638 371.963 330.107C371.463 330.725 369.356 328.255 369.023 327.589C368.901 327.275 368.764 326.967 368.611 326.667V326.079C368.827 325.246 368.327 325.668 367.131 327.363C371.267 327.716 371.904 321.346 368.111 320.268C366.092 319.7 364.087 319.092 362.094 318.445C360.261 317.847 358.252 317.465 357.086 315.799C354.871 312.634 357.292 308.88 360.026 307.087C361.741 305.97 362.613 303.04 360.742 301.54C355.489 297.336 359.232 289.427 365.857 291.564C368.866 292.544 371.277 288.977 369.826 286.399C367.807 282.793 365.906 278.706 366.945 274.482C367.729 271.346 370.796 268.524 374.04 270.455C375.289 271.144 376.829 271.028 377.96 270.158C379.091 269.288 379.599 267.831 379.254 266.446C378.623 264.274 379.713 261.972 381.793 261.081C383.873 260.191 386.29 260.992 387.427 262.948C389.456 266.201 395.267 264.163 393.866 260.233C395.061 263.644 392.386 262.683 393.591 262.389C393.981 262.232 394.355 262.038 394.708 261.811C395.586 261.431 396.486 261.104 397.403 260.831C398.276 260.537 399.167 260.272 400.059 260.037C400.471 259.929 400.902 259.841 401.314 259.724C401.47 259.724 402.362 259.577 401.637 259.645C400.657 259.724 402.98 259.743 403.225 259.782C404.119 259.957 404.998 260.206 405.851 260.527C407.301 261.047 408.673 261.723 410.085 262.33C412.868 263.516 415.729 264.457 418.15 266.368C420.286 267.93 421.809 270.191 422.452 272.758C423.03 275.6 421.825 278.383 422.599 281.215C423.207 283.4 425.716 285.978 424.402 288.261C422.57 291.446 417.484 290.907 414.436 290.799C413.399 290.807 412.424 291.294 411.795 292.118C411.167 292.943 410.955 294.012 411.221 295.013C412.201 298.071 409.624 301.08 406.4 299.541C404.116 298.453 400.667 300.305 401.686 303.167C403.079 307.025 404.154 310.991 404.9 315.025C405.243 316.985 405.508 318.886 405.665 320.827C405.753 321.875 405.851 322.934 405.851 323.982C405.851 324.835 406.174 325.697 405.175 325.305C401.412 323.825 399.804 329.872 403.509 331.342C405.771 332.226 408.342 331.662 410.026 329.911C412.162 327.765 412.25 324.786 412.074 321.944C411.623 314.956 410.212 308.064 407.88 301.462L403.166 305.088C411.241 309.008 420.11 302.148 417.64 293.249L414.436 297.463C419.502 297.777 425 297.65 428.842 293.818C432.144 290.525 432.566 286.164 430.753 282.058C429.949 280.225 429.361 279.343 429.567 277.305C430.598 270.932 427.886 264.532 422.589 260.841C419.14 258.136 415.122 256.793 411.153 255.059C407.429 253.432 403.528 252.011 399.393 252.903C395.551 253.736 385.016 256.362 387.035 262.164L393.483 259.449C390.465 254.628 384.34 252.227 378.95 254.549C373.56 256.872 371.012 262.899 372.384 268.426L377.598 264.418C371.825 260.958 364.348 263.526 361.29 269.377C357.713 276.237 360.183 283.753 363.721 290.045L367.7 284.792C361.895 282.756 355.47 285.211 352.502 290.599C349.534 295.986 350.892 302.73 355.714 306.548L356.43 301.001C351.128 304.412 347.433 310.801 349.756 317.142C352.284 324.002 359.83 325.433 366.122 327.246L367.102 320.16C361.222 319.611 360.399 326.952 362.525 330.891C365.093 335.654 372.639 340.77 377.078 335.223L371.414 330.862C369.687 334.358 370.769 338.59 373.962 340.828C377.539 343.386 381.978 342.504 385.634 340.613L380.792 339.339C383.732 343.376 388.789 345.885 393.532 343.092C395.806 341.775 397.197 339.34 397.178 336.712C397.119 334.076 395.414 332.008 394.16 329.852C392.519 327.225 391.203 324.408 390.24 321.464C389.838 320.072 389.465 318.916 390.906 318.23C391.967 317.795 393.175 317.924 394.12 318.573C396.397 319.891 398.188 321.908 399.226 324.325C400.108 326.883 400.657 328.97 403.019 330.558C405.812 332.42 408.174 328.039 405.606 326.109Z" fill="#382C80"/>
<path d="M424.824 308.106L424.677 308.155L425.196 308.077H424.981L425.49 308.155L425.343 308.106L425.804 308.302L425.677 308.234L426.069 308.528C426.026 308.503 425.989 308.47 425.961 308.43L426.255 308.822C426.226 308.783 426.203 308.74 426.186 308.694L426.372 309.155C426.363 309.106 426.363 309.056 426.372 309.008L426.431 309.518C426.426 309.469 426.426 309.419 426.431 309.371L426.363 309.87C426.358 309.825 426.358 309.779 426.363 309.733L426.176 310.184C426.193 310.139 426.216 310.096 426.245 310.057L425.951 310.439C425.982 310.401 426.018 310.368 426.059 310.341L425.677 310.635C425.713 310.603 425.757 310.579 425.804 310.566L425.353 310.752H425.432L424.932 310.821H425.089L424.589 310.752H424.667L424.226 310.556C424.276 310.579 424.322 310.608 424.363 310.645L423.981 310.351C424.027 310.38 424.064 310.42 424.089 310.468L423.805 310.096V310.164L423.619 309.723C423.647 309.768 423.663 309.818 423.668 309.87L423.599 309.38V309.459L423.668 308.969V309.047C423.552 309.523 423.615 310.025 423.844 310.458C424.089 310.868 424.482 311.17 424.942 311.301C425.916 311.553 426.915 310.984 427.196 310.017C427.503 308.887 426.929 307.703 425.85 307.246C424.772 306.788 423.522 307.198 422.923 308.204C422.35 309.138 422.466 310.338 423.207 311.144C423.867 311.856 424.871 312.136 425.804 311.87C426.55 311.653 427.098 311.015 427.2 310.244C427.302 309.474 426.939 308.716 426.274 308.312C425.821 308.049 425.281 307.978 424.775 308.116L424.824 308.106Z" fill="#382C80"/>
<path d="M440.22 307.058L440.083 307.107L440.592 307.038H440.377L440.886 307.107H440.749L441.21 307.293C441.16 307.28 441.113 307.257 441.073 307.224L441.465 307.528C441.424 307.501 441.388 307.468 441.357 307.43L441.661 307.812C441.625 307.776 441.599 307.733 441.582 307.685L441.768 308.145C441.759 308.1 441.759 308.053 441.768 308.008L441.837 308.508C441.827 308.46 441.827 308.41 441.837 308.361L441.768 308.871C441.764 308.822 441.764 308.773 441.768 308.724L441.582 309.174L441.661 309.047L441.367 309.429L441.465 309.331L441.082 309.625L441.21 309.557L440.769 309.743H440.837L440.338 309.811H440.494L440.004 309.753H440.073L439.632 309.566C439.683 309.583 439.729 309.609 439.769 309.645L439.397 309.351L439.505 309.468L439.211 309.096V309.165L439.024 308.724C439.05 308.769 439.066 308.819 439.073 308.871L439.005 308.381V308.459L439.073 307.969V308.047C438.956 308.525 439.023 309.028 439.26 309.459C439.499 309.87 439.889 310.172 440.347 310.301C441.319 310.554 442.317 309.99 442.601 309.027C442.92 307.894 442.348 306.701 441.266 306.239C440.183 305.777 438.926 306.191 438.329 307.205C437.766 308.14 437.881 309.334 438.613 310.145C439.273 310.849 440.272 311.125 441.2 310.86C441.947 310.643 442.494 310.005 442.596 309.235C442.698 308.464 442.335 307.706 441.67 307.303C441.217 307.039 440.677 306.969 440.171 307.107L440.22 307.058Z" fill="#382C80"/>
<path d="M437.937 300.502C434.565 301.746 431.704 303.961 431.831 307.881C432.056 309.792 432.663 311.638 433.615 313.31C433.948 314.035 435.839 317.034 435.496 317.612C435.869 316.995 434.311 317.612 433.791 317.661C431.733 317.995 432.625 321.072 434.654 320.778C437.799 320.327 439.505 319.112 438.201 315.819C436.388 311.213 431.429 305.549 438.583 302.873C440.053 302.324 439.426 299.933 437.937 300.502Z" fill="#382C80"/>
<path d="M428.185 302.54C424.778 300.461 420.344 301.358 418.013 304.598C417.033 305.989 418.885 307.45 420.188 306.773C422.423 305.607 423.991 303.726 426.744 305.019C428.391 305.784 429.822 303.471 428.185 302.54Z" fill="#382C80"/>
<path d="M430.292 323.541C430.204 323.498 430.112 323.462 430.018 323.433C430.322 323.571 430.263 323.541 429.832 323.365L429.695 323.306C429.405 323.218 429.105 323.169 428.803 323.159C428.045 323.128 427.309 323.416 426.774 323.953C426.224 324.541 425.949 325.335 426.016 326.138C426.083 326.941 426.487 327.678 427.127 328.167C428.494 329.06 430.326 328.676 431.219 327.309C432.112 325.943 431.728 324.111 430.361 323.218C429.888 322.951 429.329 322.877 428.803 323.012C428.286 323.165 427.852 323.518 427.597 323.992C427.324 324.463 427.25 325.024 427.392 325.55C427.566 326.041 427.892 326.463 428.323 326.756C428.16 326.679 428.024 326.556 427.931 326.403C427.715 326.128 427.793 326.217 428.146 326.677L427.921 326.403C427.951 326.45 427.977 326.499 427.999 326.55L427.793 326.07C427.822 326.15 427.845 326.231 427.862 326.315L427.784 325.766C427.789 325.851 427.789 325.936 427.784 326.021L427.852 325.482C427.843 325.565 427.824 325.648 427.793 325.727L427.999 325.246L427.921 325.393L428.136 325.119C428.029 325.217 428.048 325.197 428.205 325.07C428.548 324.805 428.029 325.07 428.43 324.933C428.519 324.884 428.832 324.796 428.43 324.933L428.96 324.864C428.875 324.874 428.79 324.874 428.705 324.864L429.234 324.943C429.009 324.943 428.96 324.805 429.381 325.05C429.116 324.903 429.685 325.344 429.528 325.178C429.371 325.011 429.822 325.619 429.665 325.335L429.802 325.638C429.799 325.583 429.799 325.527 429.802 325.472L429.871 325.981V325.727C429.871 325.423 429.793 326.158 429.871 325.932C429.949 325.707 429.871 325.883 429.763 326.187L429.587 326.413L429.675 326.305C429.773 326.217 429.675 326.305 429.499 326.442C429.734 326.295 429.195 326.53 429.391 326.442C429.587 326.354 429.577 326.442 429.616 326.383C429.375 326.383 429.316 326.383 429.44 326.383H429.577H429.371H429.557C430.33 326.601 431.136 326.168 431.38 325.403C431.572 324.622 431.12 323.827 430.351 323.59L430.292 323.541Z" fill="#382C80"/>
<path d="M415.72 341.024C418.72 343.049 422.148 344.351 425.735 344.827C429.557 345.346 433.007 344.072 436.378 342.387C440.631 340.26 436.898 333.988 432.664 336.036C430.41 337.124 428.225 338.359 425.647 338.271C423.107 338.19 420.601 337.655 418.248 336.693C417.057 336.042 415.564 336.458 414.88 337.63C414.195 338.803 414.568 340.307 415.72 341.024Z" fill="#382C80"/>
<path d="M392.758 365.485C397.364 361.693 399.011 355.881 400.001 350.207C400.677 346.287 394.777 344.611 394.013 348.561C393.111 353.177 392.425 358.263 389.172 361.899C388.246 362.899 388.277 364.453 389.24 365.416C390.204 366.38 391.757 366.411 392.758 365.485Z" fill="#382C80"/>
<path d="M462.142 521.746C466.395 529.821 470.629 537.906 474.882 545.962C476.93 549.794 478.459 553.381 478.322 557.81C478.185 562.24 477.185 566.513 477.744 570.942C478.175 574.343 483.565 574.431 483.173 570.942C482.634 566.15 483.8 561.495 483.722 556.722C483.56 552.64 482.443 548.652 480.458 545.08C475.97 536.378 470.992 527.91 466.248 519.355C464.759 516.67 460.711 519.051 462.142 521.756V521.746Z" fill="#382C80"/>
<path d="M812.17 309.684C791.325 307.097 782.936 311.183 773.95 333.949C753.723 385.203 746.882 446.227 771.608 497.187C784.661 524.088 808.848 548.235 838.708 550.401C923.125 556.516 960.052 435.741 959.464 370.473C959.385 360.889 958.484 350.726 952.849 342.984C945.009 332.204 930.534 329.264 917.422 327.079C884.755 321.643 852.089 316.204 819.422 310.762C814.679 309.978 806.456 307.822 814.767 302.52C817.334 300.893 820.519 300.678 823.587 300.501C825.779 300.227 828.004 300.407 830.123 301.03C832.191 301.805 833.994 303.716 833.926 305.93C833.877 307.224 833.21 308.527 833.612 309.762C834.161 311.448 836.268 311.918 838.022 312.134C859.131 314.712 880.048 318.68 900.634 324.011C904.603 324.991 909.768 325.687 911.924 322.198C912.581 321.15 912.845 319.827 913.786 319.023C914.751 318.368 915.904 318.048 917.069 318.112C920.747 317.916 924.422 317.824 928.094 317.837C929.047 317.769 930.002 317.92 930.887 318.278C933.925 319.778 932.847 324.335 933.827 327.569C934.814 330.424 937.607 332.25 940.618 332.008" fill="#7F72FF"/>
<path d="M812.17 306.94C801.605 305.617 790.355 305.607 782.348 313.682C778.056 318.014 775.175 323.6 772.774 329.137C769.442 336.934 766.518 344.899 764.013 353C753.556 386.32 749.205 422.178 755.134 456.801C760.592 488.71 775.508 520.884 802.252 540.317C814.203 549.115 828.576 554.012 843.412 554.341C854.522 554.564 865.56 552.502 875.84 548.284C896.783 539.631 913.08 523.03 925.33 504.331C938.511 484.281 947.576 461.515 953.848 438.426C959.572 417.317 963.207 395.306 963.403 373.403C963.541 357.723 961.306 341.563 947.145 332.351C940.765 328.206 933.21 326.05 925.83 324.511C916.638 322.63 907.318 321.297 898.067 319.748C877.853 316.345 857.638 312.954 837.424 309.576L822.264 307.057C820.745 306.803 819.226 306.577 817.736 306.195C817.295 306.087 815.1 305.215 814.963 305.293C815.041 305.244 815.12 307.361 815.159 307.371C815.198 307.381 815.737 306.891 815.649 306.92C816.462 306.685 817.305 305.734 818.167 305.411C820.372 304.75 822.669 304.452 824.969 304.529C826.184 304.529 828.683 304.235 829.496 305.45C829.947 306.126 829.496 307.028 829.437 307.832C829.297 309.004 829.421 310.193 829.8 311.311C831.29 315.485 835.945 315.966 839.708 316.446C844.715 317.073 849.704 317.798 854.682 318.592C864.6 320.18 874.465 322.078 884.278 324.286C889.178 325.383 894.078 326.579 898.978 327.804C902.496 328.686 906.328 329.431 909.895 328.392C911.613 327.905 913.167 326.964 914.394 325.668C915.246 324.746 915.873 322.61 916.745 322.179C917.618 321.748 919.029 322.051 919.833 322.022C921.116 321.973 922.4 321.934 923.694 321.904H926.996C927.8 321.904 929.064 322.022 928.888 321.797C929.574 322.698 929.329 325.05 929.466 326.118C929.626 327.845 930.157 329.517 931.024 331.018C933.109 334.266 936.762 336.162 940.618 335.997C945.763 335.811 945.793 327.784 940.618 327.971C936.982 328.108 937.433 324.325 937.09 321.718C936.581 317.867 934.542 314.76 930.544 313.976C926.34 313.153 921.332 313.702 917.079 313.976C915.195 313.973 913.346 314.481 911.728 315.446C910.856 316.055 910.124 316.844 909.582 317.759C909.18 318.416 908.954 319.572 908.396 320.082C906.544 321.787 902.095 320.082 900.056 319.552C895.182 318.298 890.282 317.125 885.356 316.034C875.929 313.95 866.455 312.14 856.936 310.605C851.997 309.821 847.041 309.106 842.07 308.459C840.972 308.322 839.874 308.214 838.786 308.047C838.382 308.014 837.981 307.942 837.591 307.832C836.915 307.587 837.444 307.734 837.464 307.832C837.66 308.655 837.963 306.793 837.953 306.852C838.036 306.396 838.066 305.932 838.042 305.47C838.011 304.34 837.737 303.23 837.238 302.216C833.622 294.611 821.666 295.19 815.031 297.826C811.748 299.129 807.75 301.873 807.25 305.666C806.839 308.743 808.73 311.144 811.317 312.526C813.904 313.908 817.197 314.486 820.137 314.946L835.308 317.445C855.143 320.712 874.978 324.002 894.813 327.314C903.878 328.813 912.982 330.156 922.008 331.881C929.201 333.253 936.561 335.027 942.814 338.966C955.73 347.12 955.848 363.251 955.495 376.912C955.205 387.045 954.246 397.148 952.623 407.155C949.131 429.975 942.667 452.24 933.396 473.383C924.292 493.747 912.11 513.426 894.882 527.91C878.565 541.63 857.456 548.902 836.082 546.364C805.28 542.698 782.809 515.209 771.5 488.328C758.054 456.38 756.457 420.532 762.258 386.673C765.177 369.876 769.702 353.398 775.773 337.467C779.526 327.539 784.25 315.152 795.765 312.467C801.106 311.222 806.809 311.801 812.18 312.467C815.766 312.888 815.708 307.312 812.18 306.871L812.17 306.94Z" fill="#7F72FF"/>
<path d="M812.17 309.684C791.325 307.097 782.936 311.183 773.95 333.949C753.723 385.203 746.882 446.227 771.608 497.187C784.661 524.088 808.848 548.235 838.708 550.401C923.125 556.516 960.052 435.741 959.464 370.473C959.385 360.889 958.484 350.726 952.849 342.984C945.009 332.204 930.534 329.264 917.422 327.079C884.755 321.643 852.089 316.204 819.422 310.762C814.679 309.978 806.456 307.822 814.767 302.52C817.334 300.893 820.519 300.678 823.587 300.501C825.779 300.227 828.004 300.407 830.123 301.03C832.191 301.805 833.994 303.716 833.926 305.93C833.877 307.224 833.21 308.527 833.612 309.762C834.161 311.448 836.268 311.918 838.022 312.134C859.131 314.712 880.048 318.68 900.634 324.011C904.603 324.991 909.768 325.687 911.924 322.198C912.581 321.15 912.845 319.827 913.786 319.023C914.751 318.368 915.904 318.048 917.069 318.112C920.747 317.916 924.422 317.824 928.094 317.837C929.047 317.769 930.002 317.92 930.887 318.278C933.925 319.778 932.847 324.335 933.827 327.569C934.814 330.424 937.607 332.25 940.618 332.008" fill="#7F72FF"/>
<path d="M812.17 306.94C801.605 305.617 790.355 305.607 782.348 313.682C778.056 318.014 775.175 323.6 772.774 329.137C769.442 336.934 766.518 344.899 764.013 353C753.556 386.32 749.205 422.178 755.134 456.801C760.592 488.71 775.508 520.884 802.252 540.317C814.203 549.115 828.576 554.012 843.412 554.341C854.522 554.564 865.56 552.502 875.84 548.284C896.783 539.631 913.08 523.03 925.33 504.331C938.511 484.281 947.576 461.515 953.848 438.426C959.572 417.317 963.207 395.306 963.403 373.403C963.541 357.723 961.306 341.563 947.145 332.351C940.765 328.206 933.21 326.05 925.83 324.511C916.638 322.63 907.318 321.297 898.067 319.748C877.853 316.345 857.638 312.954 837.424 309.576L822.264 307.057C820.745 306.803 819.226 306.577 817.736 306.195C817.295 306.087 815.1 305.215 814.963 305.293C815.041 305.244 815.12 307.361 815.159 307.371C815.198 307.381 815.737 306.891 815.649 306.92C816.462 306.685 817.305 305.734 818.167 305.411C820.372 304.75 822.669 304.452 824.969 304.529C826.184 304.529 828.683 304.235 829.496 305.45C829.947 306.126 829.496 307.028 829.437 307.832C829.297 309.004 829.421 310.193 829.8 311.311C831.29 315.485 835.945 315.966 839.708 316.446C844.715 317.073 849.704 317.798 854.682 318.592C864.6 320.18 874.465 322.078 884.278 324.286C889.178 325.383 894.078 326.579 898.978 327.804C902.496 328.686 906.328 329.431 909.895 328.392C911.613 327.905 913.167 326.964 914.394 325.668C915.246 324.746 915.873 322.61 916.745 322.179C917.618 321.748 919.029 322.051 919.833 322.022C921.116 321.973 922.4 321.934 923.694 321.904H926.996C927.8 321.904 929.064 322.022 928.888 321.797C929.574 322.698 929.329 325.05 929.466 326.118C929.626 327.845 930.157 329.517 931.024 331.018C933.109 334.266 936.762 336.162 940.618 335.997C945.763 335.811 945.793 327.784 940.618 327.971C936.982 328.108 937.433 324.325 937.09 321.718C936.581 317.867 934.542 314.76 930.544 313.976C926.34 313.153 921.332 313.702 917.079 313.976C915.195 313.973 913.346 314.481 911.728 315.446C910.856 316.055 910.124 316.844 909.582 317.759C909.18 318.416 908.954 319.572 908.396 320.082C906.544 321.787 902.095 320.082 900.056 319.552C895.182 318.298 890.282 317.125 885.356 316.034C875.929 313.95 866.455 312.14 856.936 310.605C851.997 309.821 847.041 309.106 842.07 308.459C840.972 308.322 839.874 308.214 838.786 308.047C838.382 308.014 837.981 307.942 837.591 307.832C836.915 307.587 837.444 307.734 837.464 307.832C837.66 308.655 837.963 306.793 837.953 306.852C838.036 306.396 838.066 305.932 838.042 305.47C838.011 304.34 837.737 303.23 837.238 302.216C833.622 294.611 821.666 295.19 815.031 297.826C811.748 299.129 807.75 301.873 807.25 305.666C806.839 308.743 808.73 311.144 811.317 312.526C813.904 313.908 817.197 314.486 820.137 314.946L835.308 317.445C855.143 320.712 874.978 324.002 894.813 327.314C903.878 328.813 912.982 330.156 922.008 331.881C929.201 333.253 936.561 335.027 942.814 338.966C955.73 347.12 955.848 363.251 955.495 376.912C955.205 387.045 954.246 397.148 952.623 407.155C949.131 429.975 942.667 452.24 933.396 473.383C924.292 493.747 912.11 513.426 894.882 527.91C878.565 541.63 857.456 548.902 836.082 546.364C805.28 542.698 782.809 515.209 771.5 488.328C758.054 456.38 756.457 420.532 762.258 386.673C765.177 369.876 769.702 353.398 775.773 337.467C779.526 327.539 784.25 315.152 795.765 312.467C801.106 311.222 806.809 311.801 812.18 312.467C815.766 312.888 815.708 307.312 812.18 306.871L812.17 306.94Z" fill="#7F72FF"/>
<path d="M840.481 424.687C836.796 421.169 836.757 416.132 840.001 412.026C842.617 408.94 846.372 407.045 850.409 406.773C853.239 406.417 856.106 407.021 858.552 408.488C861.548 410.604 863.343 414.032 863.374 417.7C863.361 421.331 862.19 424.864 860.032 427.784C858.905 429.372 857.563 430.861 856.916 432.684C856.142 434.869 856.455 437.261 856.72 439.544C857.406 445.725 857.603 451.952 857.308 458.164C857.313 459.087 857.15 460.004 856.828 460.869C854.28 466.612 835.268 462.829 833.308 457.654C832.938 456.302 832.973 454.872 833.406 453.538C835.376 445.019 838.425 436.786 842.48 429.038" fill="#382C80"/>
<path d="M842.588 422.58C835.66 414.799 850.742 406.469 857.112 411.8C860.65 414.74 860.052 420.091 858.092 423.746C855.759 428.039 852.614 430.842 852.614 436.075C852.614 441.102 853.525 446.13 853.594 451.177C853.594 453.627 853.897 456.537 853.388 458.958C853.329 459.242 853.388 459.281 852.604 459.438C847.619 460.326 842.48 459.42 838.1 456.88C836.924 456.155 837.041 456.439 837.228 455.106C837.715 452.44 838.42 449.818 839.335 447.266C841.079 441.707 843.289 436.304 845.94 431.116C848.272 426.539 841.442 422.502 839.08 427.078C835.678 433.491 832.942 440.236 830.916 447.208C829.476 452.225 827.418 458.282 831.896 462.319C837.365 467.219 848.233 469.258 855.152 466.896C860.601 465.044 861.257 460.506 861.365 455.273C861.453 451.588 861.365 447.894 861.091 444.219C860.855 441.083 859.523 436.751 860.689 433.723C861.669 431.047 864.099 428.921 865.305 426.275C866.778 423.173 867.365 419.723 867 416.308C866.398 410.218 862.031 405.164 856.093 403.686C849.585 402.206 841.951 404.411 837.688 409.644C833.425 414.877 833.494 422.002 838.433 426.794C841.206 429.489 845.185 425.432 842.647 422.58H842.588Z" fill="#382C80"/>
<path d="M923.723 327.05C930.21 330.597 937.364 332.547 943.95 335.87C947.163 337.362 950.048 339.477 952.437 342.093C955.24 345.366 956.543 349.56 957.337 353.715C961.11 372.688 958.111 392.719 953.583 411.281C949.056 429.842 945.371 448.766 938.883 466.817C932.768 483.977 923.85 500.921 911.639 514.543C897.919 529.831 879.78 539.847 862.159 549.921C858.367 552.087 861.738 557.83 865.579 555.801C882.347 546.805 899.223 537.328 912.776 523.745C926.33 510.163 936.032 493.071 943.088 475.461C950.643 456.606 954.524 436.614 959.238 416.935C964.02 396.924 967.303 376.647 964.216 356.087C962.786 346.522 959.316 338.153 950.898 332.812C943.333 328.02 934.326 326.373 926.33 322.512C923.282 321.032 920.616 325.452 923.644 327.099L923.723 327.05Z" fill="#382C80"/>
<path d="M832.719 558.055C836.017 559.037 839.503 559.209 842.882 558.555C846.302 557.849 845.567 552.214 842.059 552.42C839.485 552.663 836.892 552.59 834.336 552.205C830.544 551.499 828.897 556.997 832.719 558.085V558.055Z" fill="#382C80"/>
<path d="M535.897 858.052C539.827 853.98 543.961 850.111 548.284 846.459C549.519 845.361 547.873 843.166 546.491 844.136C541.829 847.587 537.581 851.562 533.829 855.985C532.595 857.386 534.613 859.454 535.897 858.052Z" fill="white"/>
<path d="M545.521 862.472C546.697 858.425 550.117 855.975 554.155 855.269C555.86 854.966 555.478 852.133 553.743 852.231C548.386 852.649 543.9 856.452 542.611 861.669C542.467 862.194 542.615 862.756 542.998 863.143C543.381 863.53 543.941 863.683 544.468 863.545C544.994 863.406 545.407 862.998 545.551 862.472H545.521Z" fill="white"/>
<path d="M554.772 864.031C556.604 861.74 559.138 860.114 561.985 859.405C563.847 858.905 563.053 856.181 561.191 856.543C557.668 857.282 554.545 859.304 552.43 862.218C551.45 863.55 553.714 865.344 554.772 864.031Z" fill="white"/>
<path d="M471.237 886.482C477.901 885.62 482.017 889.05 485.879 893.94C489.23 898.154 493.072 899.997 498.423 900.428C511.462 901.355 524.563 900.029 537.152 896.508C538.083 896.207 538.611 895.225 538.348 894.283C538.085 893.34 537.124 892.774 536.172 892.999C523.707 896.341 509.918 898.429 496.972 896.861C493.925 896.596 491.098 895.163 489.083 892.862C487.378 890.971 485.918 888.864 483.928 887.247C480.226 884.338 475.467 883.131 470.826 883.925C469.395 884.14 469.718 886.669 471.179 886.482H471.237Z" fill="white"/>
<path d="M331.352 722.117C334.995 724.029 337.552 727.515 338.281 731.564C338.663 733.524 341.475 732.642 341.172 730.77C340.345 725.931 337.195 721.806 332.744 719.736C331.156 718.981 329.804 721.284 331.352 722.117Z" fill="white"/>
<path d="M326.393 728.007C328.429 730.32 330.164 732.882 331.557 735.631C332.478 737.434 335.262 735.837 334.282 734.044C332.668 731.119 330.692 728.409 328.402 725.978C327.128 724.626 325.158 726.635 326.373 728.007H326.393Z" fill="white"/>
<path d="M319.758 733.769C322.14 735.555 324.006 737.938 325.168 740.678C325.962 742.481 328.725 740.923 327.853 739.11C326.332 735.975 324.039 733.277 321.189 731.27C319.69 730.202 318.308 732.652 319.758 733.72V733.769Z" fill="white"/>
<path d="M298.904 712.081C300.342 703.92 302.541 695.911 305.47 688.16C308.165 681.035 311.292 672.911 316.652 667.305C319.279 664.561 322.238 663.297 325.815 662.268C328.883 661.386 331.695 660.22 333.489 657.368C335.449 654.301 336.487 650.449 337.801 647.088C339.658 642.744 341.294 638.309 342.701 633.799C343.142 632.202 340.741 631.114 339.957 632.652C338.033 636.692 336.316 640.826 334.812 645.04L332.46 651.096C331.744 652.958 331.127 655.212 329.676 656.682C327.119 659.259 322.591 659.279 319.435 660.925C316.699 662.467 314.324 664.575 312.468 667.109C308.038 672.881 305.167 680.006 302.668 686.768C299.756 694.734 297.712 702.991 296.572 711.395C296.356 712.905 298.63 713.591 298.904 712.042V712.081Z" fill="white"/>
<path d="M506.918 573.98C516.145 588.283 521.854 604.567 523.578 621.5C525.323 638.386 522.912 654.928 517.424 670.922C516.679 673.088 519.952 673.862 520.785 671.902C533.947 639.915 528.312 601.028 509.133 572.716C508.153 571.344 505.958 572.618 506.879 574.029L506.918 573.98Z" fill="#7F72FF"/>
<ellipse cx="142.923" cy="199.104" rx="111.328" ry="104.654" transform="rotate(-79.79 142.923 199.104)" fill="#7F72FF"/>
<path d="M242.456 216.702C234.616 259.498 202.511 296.307 159.058 304.902C138.15 308.975 116.48 305.953 97.4841 296.317C78.9515 286.678 63.835 271.568 54.1877 253.04C33.3627 213.654 39.0467 162.978 67.6725 128.864C81.0887 112.9 98.9639 100.797 119.103 95.1423C139.624 89.4152 161.463 90.6384 181.215 98.6213C221.484 114.889 245.405 157.421 244.171 199.983C244.011 205.59 243.438 211.178 242.456 216.702C241.662 221.21 248.571 223.15 249.365 218.662C253.606 195.355 250.918 171.316 241.632 149.523C232.805 128.918 217.88 111.511 198.865 99.6405C179.351 87.6677 156.399 82.5496 133.646 85.0973C111.369 87.7961 90.4664 97.2995 73.7877 112.312C38.4195 143.868 25.2777 196.484 41.1831 241.123C48.6294 262.355 62.2872 280.858 80.3831 294.229C98.7787 307.583 121.076 314.475 143.799 313.829C190.153 312.389 229.921 279.412 244.739 236.272C246.703 230.515 248.233 224.618 249.316 218.632C250.198 214.105 243.298 212.174 242.456 216.702Z" fill="#7F72FF"/>
<ellipse cx="204.879" cy="201.142" rx="52.2438" ry="64.7094" transform="rotate(-87.84 204.879 201.142)" fill="#7F72FF"/>
<path d="M265.956 203.589C264.898 226.502 244.866 242.417 223.992 247.689C200.678 253.569 173.307 247.846 156.372 230.118C149.228 222.631 144.299 212.88 143.789 202.443C143.368 192.033 146.885 181.847 153.638 173.915C169.161 155.452 195.866 149.287 218.867 153.991C242.759 158.891 266.711 177.139 265.907 203.628C265.78 208.234 272.943 208.234 273.071 203.628C273.835 177.453 253.049 157.225 229.559 149.434C204.079 140.987 173.258 145.407 153.227 163.948C144.593 171.945 138.527 182.568 136.978 194.328C135.513 206.233 138.539 218.257 145.465 228.05C160.988 250.306 190.173 259.714 216.368 256.343C243.984 252.805 271.689 233.538 273.071 203.628C273.335 198.973 266.172 198.993 265.956 203.589Z" fill="#7F72FF"/>
<ellipse cx="142.5" cy="200.176" rx="57.1525" ry="53.7251" transform="rotate(-79.5923 142.5 200.176)" fill="white"/>
<path d="M652.478 244.592C680.144 247.973 708.338 250.296 736.268 249.179C740.384 249.022 740.423 242.652 736.268 242.75C708.407 243.397 680.173 242.838 652.478 239.555C649.264 239.173 649.303 244.2 652.478 244.592Z" fill="#382C80"/>
<path d="M241.28 181.677C247.004 207 244.083 233.136 234.234 257.048C232.843 260.429 238.321 261.88 239.712 258.558C249.963 234.058 251.678 206.265 245.847 180.422C245.171 177.482 240.614 178.717 241.28 181.677Z" fill="#382C80"/>
<path d="M261.723 202.482V202.158C261.723 200.123 260.073 198.474 258.038 198.474C257.064 198.476 256.131 198.863 255.441 199.552C254.745 200.239 254.356 201.18 254.363 202.158V202.482C254.43 203.434 254.829 204.332 255.49 205.02C256.917 206.444 259.228 206.444 260.655 205.02L261.223 204.285C261.553 203.727 261.726 203.091 261.723 202.443V202.482Z" fill="#382C80"/>
</svg>
