<svg width="1000" height="1000" viewBox="0 0 1000 1000" fill="none" xmlns="http://www.w3.org/2000/svg">
<rect x="34.5" y="181.931" width="439.55" height="111.436" rx="55.7179" fill="white"/>
<path d="M418.336 289.3H149.209C129.795 289.3 110.381 289.369 90.9675 289.3C69.5545 289.222 49.7095 276.472 41.9675 256.186C32.1675 230.382 44.9075 200.532 70.4855 189.967C79.4329 186.273 88.5077 186.106 97.9255 186.106H415.191C430.773 186.106 445.277 190.947 456.145 202.59C475.039 222.817 474.089 255.353 454.361 274.639C444.698 284.001 431.791 289.268 418.336 289.339C413.035 289.408 413.015 297.65 418.336 297.581C446.1 297.14 471.139 277.667 476.852 250.1C482.438 223.209 468.708 194.897 443.581 183.362C433.203 178.609 422.521 177.776 411.398 177.776H153.903C132.98 177.776 112.057 177.707 91.1831 177.776C69.9759 177.845 50.1211 188.399 39.0373 206.676C24.7097 230.294 28.9139 261.752 48.8373 280.813C60.9991 292.436 76.6203 297.473 93.1725 297.473H418.336C423.638 297.493 423.648 289.3 418.336 289.3Z" fill="#382C80"/>
<circle cx="401.598" cy="237.654" r="41.895" fill="#7F72FF"/>
<path d="M441.425 237.654C441.171 254.226 431.008 269.367 415.259 275.09C399.463 280.852 381.749 276.078 370.987 263.158C360.225 250.238 358.732 231.952 367.256 217.458C375.78 202.963 392.485 195.379 409.007 198.503C427.813 202.08 441.131 218.711 441.425 237.703C441.425 240.349 445.59 240.359 445.551 237.703C445.552 219.143 433.895 202.584 416.423 196.324C398.952 190.064 379.431 195.453 367.645 209.79C355.859 224.127 354.349 244.322 363.871 260.252C373.394 276.182 391.896 284.415 410.105 280.823C430.685 276.854 445.218 258.381 445.551 237.703C445.59 234.998 441.474 234.998 441.425 237.654Z" fill="#7F72FF"/>
<rect x="34.5" y="35.6465" width="416.892" height="111.436" rx="55.7179" fill="#382C80"/>
<path d="M90.2229 151.208H386.869C395.366 151.208 403.686 151.306 411.996 148.944C437.365 141.548 454.986 118.525 455.498 92.1045C455.812 66.2815 438.907 42.8203 414.495 34.6079C405.675 31.6679 396.708 31.5699 387.565 31.5699H142.045C124.787 31.5699 107.51 31.3935 90.2425 31.5699C65.0049 31.7795 42.5384 47.6056 33.8435 71.2991C25.0235 95.7991 33.7749 123.837 54.5215 139.35C64.8609 146.994 77.3652 151.147 90.2229 151.208C95.5247 151.267 95.5247 143.025 90.2229 142.966C63.7629 142.643 40.7133 122.2 38.7729 95.4659C36.951 69.5305 54.5051 46.2128 79.9329 40.7917C86.4401 39.4001 93.3001 39.7627 99.9347 39.7627H338.447C357.253 39.7627 376.059 39.6941 394.866 39.7627C414.77 39.8411 432.997 50.5427 441.906 68.5257C453.597 91.9183 445.081 121.357 422.943 135.166C405.773 145.857 383.321 143.006 363.917 143.006H90.2229C84.9211 142.966 84.9113 151.208 90.2229 151.208Z" fill="#382C80"/>
<circle cx="98.7195" cy="91.7124" r="41.895" fill="#7F72FF"/>
<path d="M54.7566 91.7125C54.7593 110.297 66.4503 126.871 83.9566 133.109C101.463 139.347 121.001 133.901 132.755 119.505C144.478 105.15 145.936 84.9841 136.401 69.0915C126.866 53.1989 108.386 44.9952 90.2032 48.5827C69.6232 52.5027 55.0898 71.0149 54.7566 91.7027C54.7566 94.3487 58.8432 94.3487 58.8824 91.7027C59.147 75.1309 69.3096 59.9801 85.0484 54.2667C100.822 48.5247 118.503 53.2869 129.259 66.1746C140.016 79.0623 141.539 97.3098 133.068 111.802C124.51 126.253 107.866 133.855 91.34 130.863C72.5338 127.286 59.2254 110.656 58.9216 91.7125C58.8432 89.0567 54.7174 89.0469 54.7566 91.7125Z" fill="#7F72FF"/>
<path d="M777.693 507.84C776.634 557.725 759.857 606.004 729.751 645.795C706.358 676.537 674.871 702.341 660.994 738.365C654.36 755.564 652.174 774.096 650.008 792.403C643.942 844.107 639.562 896.283 632.251 947.791C628.713 972.703 604.811 963.148 584.819 958.934C556.448 952.946 528.508 943.254 500.862 935.649C499.968 935.498 499.149 935.057 498.53 934.395C498.097 933.723 497.894 932.928 497.952 932.131C497.952 926.957 501.46 922.331 505.792 919.46C510.123 916.588 515.249 915.314 520.266 914.079C551.969 906.24 561.26 892.382 563.612 861.434C566.022 829.731 569.06 798.057 574.186 766.658C587.367 685.916 611.553 605.409 655.193 535.319" fill="white"/>
<path d="M774.488 507.84C773.522 543.513 764.475 578.501 748.028 610.172C739.887 625.651 730.085 640.198 718.795 653.556C708.142 666.296 696.667 678.213 686.092 690.963C675.812 703.36 666.247 716.531 659.632 731.3C652.253 747.871 649.176 765.6 646.941 783.534C641.943 823.537 638.386 863.717 633.731 903.77C632.574 913.674 631.349 923.572 630.056 933.464C629.144 940.324 629.527 950.653 624.686 956.259C617.6 964.481 601.43 958.542 592.836 956.494C575.098 952.26 557.556 947.978 540.033 942.774C530.351 939.893 520.698 936.943 510.996 934.15C508.614 933.464 506.203 932.592 503.773 932.102C501.568 931.661 501.754 932.366 502.528 929.799C503.949 925.036 508.683 922.125 513.073 920.479C525.49 915.843 538.299 914.393 549.098 905.985C557.457 899.477 562.505 890.305 565.052 880.103C568.972 864.237 568.835 847.214 570.354 831.005C572.256 810.797 574.588 790.629 577.783 770.588C589.366 697.872 609.76 625.763 645.04 560.858C649.372 552.887 653.945 545.047 658.76 537.338C661.563 532.81 654.438 528.675 651.645 533.173C611.338 598.176 587.308 671.696 573.432 746.588C569.766 766.377 566.8 786.274 564.533 806.279C562.25 826.154 561.142 846.126 559.016 866.059C557.82 877.163 555.096 888.854 546.854 896.92C536.407 907.102 522.099 907.837 509.251 913.031C502.264 915.853 495.698 921.175 494.149 928.917C492.16 939.04 501.107 940.02 508.82 942.176C528.567 947.85 548.138 954.201 568.061 959.248C576.332 961.345 584.721 963.079 592.982 965.049C598.925 966.623 604.985 967.715 611.103 968.313C623.078 969.146 633.016 963.756 635.809 951.535C637.935 942.235 638.572 932.347 639.729 922.899C641.035 912.355 642.277 901.806 643.452 891.255C645.805 870.126 647.951 848.978 650.205 827.849C652.361 807.534 654.125 787.022 657.623 766.893C660.867 748.41 667.071 731.388 677.321 715.629C696.079 686.798 722.695 664.121 741.629 635.377C766.549 597.449 780.168 553.216 780.897 507.84C780.966 503.714 774.606 503.724 774.488 507.84Z" fill="#382C80"/>
<path d="M695.686 440.553C629.85 539.318 593.198 650.205 574.186 766.619C571.079 785.631 568.747 804.751 566.846 823.919C565.866 833.435 564.523 843.127 564.288 852.692C564.043 862.904 570.099 864.56 578.9 869.352C605.868 884.055 636.446 890.827 667.1 888.884C675.146 888.354 679.154 889.383 681.692 882.298C684.113 875.526 682.182 864.021 682.388 856.818C682.858 839.237 683.368 821.665 684.034 804.104C684.75 785.68 685.514 767.04 690.796 749.381C701.88 712.356 731.28 684.24 752.164 651.733C779.083 609.72 792.06 560.285 789.247 510.466" fill="white"/>
<path d="M692.923 438.936C656.261 493.405 627.861 553.028 606.908 615.199C585.513 679.201 571.089 745.326 563.886 812.424C562.906 821.675 561.848 830.946 560.946 840.207C560.3 846.949 558.634 855.387 561.926 861.767C564.406 866.53 569.208 869.019 573.765 871.42C580.644 875.161 587.713 878.544 594.943 881.553C610.299 887.689 626.483 891.507 642.963 892.882C650.999 893.535 659.071 893.62 667.12 893.137C671.931 892.872 677.625 893.352 681.555 890.05C690.973 882.151 686.377 864.501 686.661 853.917C687.18 835.17 687.7 816.413 688.503 797.675C689.258 780.211 690.571 762.64 696.343 746.009C701.371 731.447 709.446 718.128 718.227 705.555C736.278 679.693 756.976 656.124 770.549 627.371C787.873 590.961 795.733 550.769 793.402 510.515C793.108 505.243 784.867 505.204 785.161 510.515C786.851 541.69 782.331 572.89 771.862 602.302C761.503 631.457 744.696 656.29 726.135 680.702C708.495 703.977 690.855 728.056 684.505 757.142C680.938 773.498 680.399 790.335 679.771 806.995C679.115 824.331 677.929 841.863 678.243 859.209C678.36 865.667 679.644 872.518 678.331 878.917C677.057 885.12 673.225 884.395 667.825 884.679C651.856 885.678 635.827 884.358 620.236 880.759C604.87 877.104 590.778 870.959 576.881 863.551C571.325 860.611 568.345 858.406 568.512 851.702C568.718 843.029 569.943 834.405 570.835 825.791C577.577 760.896 589.827 696.666 609.055 634.27C627.626 573.921 653.066 515.798 685.994 461.878C690.052 455.221 694.223 448.642 698.509 442.141C700.783 438.672 695.265 435.506 692.982 438.907L692.923 438.936Z" fill="#382C80"/>
<path d="M691.864 537.456C682.239 560.787 673.925 584.638 666.963 608.898C664.017 618.925 661.638 629.11 659.838 639.405C658.201 649.264 656.898 659.172 654.82 668.962C652.86 678.252 650.401 687.631 645.853 696.02C643.697 699.94 640.434 703.438 638.797 707.662C637.249 711.67 638.062 715.639 639.307 719.608C641.081 725.312 642.169 729.888 639.425 735.514C637.572 739.306 635.073 742.756 633.398 746.646C631.281 751.546 631.82 755.76 631.859 761.013C631.859 767.54 629.899 774.175 628.576 780.545C622.784 808.965 617.58 837.561 613.141 866.255C612.729 868.911 616.787 870.077 617.228 867.382C621.383 841.902 625.861 816.501 630.879 791.197C632.075 785.186 633.296 779.182 634.544 773.185C635.005 770.911 635.524 768.657 635.818 766.325C636.347 762.552 635.818 759.102 635.887 755.349C636.034 745.98 644.354 739.561 645.579 730.457C646.157 726.194 644.756 722.421 643.511 718.413C642.443 715.002 641.61 711.905 643.158 708.426C644.266 705.957 646.098 703.85 647.598 701.566C652.331 694.197 655.222 685.72 657.398 677.272C662.298 658.094 663.493 638.229 668.658 619.099C676.065 591.713 684.937 564.744 695.236 538.308C696.049 536.221 692.727 535.368 691.894 537.387L691.864 537.456Z" fill="#7F72FF"/>
<path d="M632.3 947.752C633.241 941.127 634.133 934.496 634.976 927.858C632.639 927.546 630.272 927.523 627.929 927.79C612.212 928.805 596.435 927.148 581.272 922.89C579.243 922.473 577.344 921.576 575.735 920.273C572.932 917.617 572.942 913.256 572.697 909.395C572.422 904.946 571.481 900.389 568.914 896.733C566.826 893.793 562.289 890.667 557.634 888.786C551.627 901.526 540.533 909.013 520.316 914.021C515.298 915.255 510.173 916.569 505.841 919.401C501.509 922.233 498.001 926.898 498.001 932.072C497.943 932.87 498.146 933.664 498.579 934.336C499.198 934.999 500.018 935.439 500.912 935.59C528.557 943.166 556.497 952.887 584.868 958.875C604.801 963.109 628.713 972.664 632.3 947.752Z" fill="#382C80"/>
<path d="M634.26 948.301C635.234 941.487 636.155 934.672 637.024 927.858C637.171 926.662 635.946 925.898 634.956 925.8C626.136 924.732 616.914 926.3 607.976 925.594C599.254 924.908 590.16 923.634 581.801 920.92C575.509 918.901 575.205 915.128 574.745 909.414C574.583 906.248 573.976 903.121 572.941 900.124C570.462 893.558 564.886 889.736 558.653 887.031C557.668 886.475 556.419 886.8 555.831 887.766C548.784 902.251 534.604 908.238 519.747 912.051C512.083 914.011 503.93 916.274 499.069 923.046C496.002 927.299 493.65 934.806 499.696 937.374C504.116 939.246 509.281 940.098 513.887 941.451C519.032 942.95 524.167 944.498 529.302 946.037C539.621 949.124 549.941 952.231 560.348 955.043C569.805 957.601 579.351 959.679 588.886 961.903C595.168 963.373 601.43 965.049 607.839 965.823C613.464 966.548 619.678 966.705 624.823 963.932C630.703 960.757 633.241 954.573 634.26 948.252C634.681 945.655 630.712 944.538 630.291 947.154C629.38 952.77 627.4 958.444 621.765 960.815C616.934 962.844 611.21 962.246 606.163 961.443C592.443 959.238 578.557 955.563 565.111 952.005C547.373 947.331 529.89 941.745 512.27 936.629C509.82 935.923 500.941 934.738 500.049 932.043C498.657 927.858 504.675 922.527 507.595 920.704C514.612 916.323 523.657 915.598 531.37 912.864C543.394 908.572 553.694 901.516 559.388 889.805L556.575 890.549C560.878 892.411 565.454 894.822 567.914 899.007C570.374 903.191 570.403 907.748 570.854 912.325C571.452 919.126 574.108 922.84 580.752 924.859C589.068 927.264 597.604 928.827 606.232 929.524C611.047 929.963 615.882 930.153 620.716 930.092C625.479 930.034 630.281 929.308 635.015 929.877L632.957 927.819C632.127 934.267 631.258 940.716 630.35 947.164C629.899 949.82 633.868 950.917 634.26 948.301Z" fill="#382C80"/>
<path d="M537.759 894.607C540.367 901.275 541.741 908.361 541.817 915.52C541.817 917.813 545.364 917.813 545.374 915.52C545.521 907.896 543.859 900.346 540.523 893.489C539.759 891.98 537.171 893.029 537.759 894.656V894.607Z" fill="white"/>
<path d="M527.44 904.328C529.88 909.17 530.547 914.128 530.527 919.489C530.527 921.89 533.898 921.753 534.163 919.489C534.859 913.609 533.183 907.729 530.331 902.633C529.273 900.742 526.48 902.408 527.391 904.328H527.44Z" fill="white"/>
<path d="M519.404 910.532C521.306 913.915 522.203 917.77 521.991 921.645C521.991 923.272 524.618 923.722 524.931 922.037C525.613 917.482 524.614 912.835 522.119 908.964C521.659 908.284 520.751 908.078 520.043 908.492C519.334 908.905 519.068 909.797 519.434 910.532H519.404Z" fill="white"/>
<path d="M597.804 937.639C593.267 938.511 591.444 944.734 594.345 948.193C595.813 949.789 597.954 950.589 600.109 950.347C602.264 950.105 604.174 948.85 605.252 946.968C605.753 946.113 605.465 945.014 604.61 944.513C603.755 944.013 602.656 944.3 602.155 945.155C601.175 946.694 598.431 947.184 597.167 945.704C595.638 943.92 597.285 941.392 599.058 940.628C600.832 939.863 599.499 937.315 597.804 937.688V937.639Z" fill="white"/>
<path d="M823.136 474.52C836.636 522.558 834.626 573.633 817.393 620.462C803.957 656.722 781.388 690.502 778.546 729.026C777.193 747.411 780.506 765.786 783.75 783.906C792.981 835.15 803.967 886.316 811.954 937.766C815.815 962.638 790.169 960.443 769.814 962.266C740.924 964.794 711.357 963.618 682.712 964.402C681.814 964.518 680.902 964.339 680.115 963.893C679.513 963.386 679.09 962.699 678.909 961.933C677.42 956.974 679.389 951.496 682.721 947.537C686.053 943.577 690.561 940.824 695.001 938.168C723.048 921.439 727.909 905.495 721.157 875.193C714.238 844.166 707.927 812.973 703.703 781.446C692.835 700.361 692.551 616.306 713.915 536.554" fill="white"/>
<path d="M820.048 475.363C829.75 510.715 831.092 547.84 823.968 583.8C820.402 601.12 814.988 618.007 807.818 634.172C801.036 649.715 793.392 664.875 787.003 680.594C780.701 696.108 775.811 712.248 774.527 729.016C773.067 748.146 776.566 767.236 779.947 785.954C786.865 824.292 794.715 862.453 801.565 900.8C803.316 910.6 804.992 920.427 806.593 930.279C807.573 936.159 810.023 944.048 806.387 949.526C800.987 957.67 786.248 956.964 777.781 957.484C760.249 958.552 742.824 959.63 725.243 959.757C715.766 959.836 706.28 959.816 696.823 959.914C694.618 959.914 692.423 959.963 690.228 960.002C688.777 960.002 683.965 960.855 682.74 960.169C683.279 960.473 682.672 963.805 682.623 958.807C682.613 957.971 682.691 957.136 682.858 956.317C683.47 953.644 684.809 951.191 686.729 949.232C691.874 943.666 699.469 940.598 705.525 936.198C710.381 932.826 714.758 928.815 718.54 924.271C725.312 915.794 728.281 905.583 728.085 894.793C727.801 878.986 722.803 863.237 719.618 847.871C715.698 828.878 712.111 809.798 709.269 790.609C698.205 716.012 696.402 638.846 711.552 564.69C713.414 555.576 715.541 546.527 717.932 537.544C719.304 532.409 711.356 530.223 709.984 535.349C689.757 611.328 688.591 690.796 697.881 768.52C700.214 788.015 703.206 807.413 706.858 826.712C710.386 845.548 715.247 864.188 718.491 883.062C720.451 894.577 720.519 906.641 713.777 916.667C710.396 921.714 705.643 925.869 700.733 929.407C694.363 933.954 686.935 937.247 681.349 942.813C676.214 947.929 672.686 955.68 674.881 962.972C677.409 971.37 689.277 968.391 695.853 968.322C716.1 968.087 736.366 968.401 756.613 967.342C769.882 966.637 784.18 966.607 797.214 963.736C807.592 961.453 815.834 955.141 816.481 943.93C817.01 935.336 814.315 926.084 812.894 917.656C811.182 907.504 809.389 897.377 807.514 887.276C803.839 867.324 799.948 847.41 796.117 827.496C792.285 807.583 788.277 787.806 785.131 767.854C782.005 748.342 781.044 729.006 785.709 709.661C794.137 674.705 814.413 644.07 824.958 609.819C838.571 565.548 839.017 518.275 826.242 473.756C825.115 469.836 818.97 471.472 820.068 475.461L820.048 475.363Z" fill="#382C80"/>
<path d="M713.924 536.446C692.56 616.199 692.844 700.253 703.713 781.338C706.27 800.429 709.593 819.401 713.356 838.296C715.228 847.674 716.727 857.347 719.236 866.569C721.97 876.369 728.242 876.232 738.071 878.329C768.151 884.557 799.379 882.141 828.143 871.361C835.689 868.519 839.825 868.333 840.187 860.816C840.54 853.633 835.346 843.176 833.425 836.189C828.77 819.235 824.125 802.281 819.705 785.229C815.041 767.403 810.337 749.341 810.268 730.917C810.101 692.286 829.986 656.81 840.56 619.658C854.105 571.634 852.143 520.56 834.954 473.716" fill="white"/>
<path d="M710.837 535.594C694.618 595.119 690.365 657.241 693.707 718.697C695.411 749.635 698.883 780.451 704.104 810.993C706.633 825.821 709.445 840.619 712.425 855.368C714.532 865.854 716.109 876.928 727.703 880.338C753.634 887.874 782.965 887.521 809.102 881.455C815.943 879.818 822.681 877.776 829.28 875.34C833.376 873.85 838.364 872.763 841.393 869.382C848.743 861.13 841.608 847.341 838.678 838.786C833.631 824.086 830.221 808.582 826.222 793.559C822.39 779.143 818.294 764.678 816.011 749.92C811.356 719.804 819.539 691.59 829.799 663.542C835.385 648.264 841.334 633.084 845.548 617.355C858.281 569.573 855.968 519.028 838.923 472.609C837.12 467.709 829.123 469.796 830.975 474.794C840.577 501.076 845.413 528.86 845.254 556.84C845.087 584.907 839.423 611.965 830.113 638.356C821.175 663.68 810.336 688.621 807.034 715.492C803.496 744.196 811.846 772.107 819.186 799.557C822.988 813.767 826.193 828.476 831.112 842.353C832.925 847.459 835.415 852.82 836.012 858.259C836.61 863.698 834.219 864.746 829.633 866.383C803.173 875.801 775.889 880.044 747.91 875.83C742.205 875.04 736.544 873.964 730.947 872.606C725.87 871.322 724.185 868.686 722.842 863.727C719.177 850.105 717.031 835.934 714.463 822.067C709.002 792.766 705.057 763.203 702.644 733.495C697.372 667.835 700.478 601.254 717.04 537.299C718.079 533.3 711.954 531.615 710.866 535.594H710.837Z" fill="#382C80"/>
<path d="M669.824 469.208C663.23 471.398 658.272 476.891 656.767 483.674C655.263 490.457 657.434 497.531 662.484 502.303C667.217 506.782 673.803 508.624 680.124 510.143C733.565 522.824 789.264 522.531 842.569 509.29" fill="white"/>
<path d="M668.962 466.072C656.878 469.904 649.646 482.399 653.35 494.796C657.653 509.192 672.284 512.828 685.259 515.788C718.679 523.288 753.043 525.674 787.179 522.863C806.025 521.354 825.615 519.032 843.637 513.063C848.537 511.446 846.518 504.557 841.52 505.4C823.077 508.506 804.966 512.368 786.258 513.818C767.876 515.242 749.41 515.196 731.035 513.681C712.934 512.191 694.412 509.673 676.87 504.861C669.03 502.695 661.377 498.403 660.377 489.426C659.515 481.645 664.562 474.971 671.471 471.992C674.852 470.531 672.451 464.945 668.962 466.043V466.072Z" fill="#382C80"/>
<path d="M749.185 251.247C680.693 255.578 649.509 306.832 604.635 342.328C606.693 340.701 565.993 284.763 562.896 280.362C556.36 271.043 550.156 261.409 542.405 253.138C532.458 242.564 527.126 228.922 516.101 218.75C505.076 208.577 492.209 198.973 478.195 193.27C470.637 190.15 462.477 188.761 454.312 189.203C451.049 189.369 448.628 189.605 445.796 191.261C443.721 193.19 441.794 195.273 440.034 197.494C429.509 195.181 416.7 190.202 406.39 196.122C402.098 198.591 399.53 204.726 402.539 208.656C404.254 210.9 407.174 211.782 409.869 212.635C416.563 214.751 423.178 217.535 428.646 221.915C434.115 226.296 438.358 232.578 439.191 239.555C439.475 241.044 439.269 242.584 438.603 243.946C437.623 245.533 435.79 246.288 434.026 246.886C429.429 248.366 424.672 249.297 419.856 249.659C415.465 249.982 410.595 250.012 407.37 252.991C404.146 255.97 403.725 261.174 405.254 265.329C408.938 275.423 417.425 285.351 423.795 293.926C432.057 305.049 440.338 316.142 448.913 327.02C465.788 348.453 483.83 369.16 504.557 386.947C522.04 401.971 542.503 414.093 565.013 419.052C599.313 426.608 635.681 416.837 666.012 399.119C696.343 381.4 740.1 349.59 764.237 324.119" fill="white"/>
<path d="M749.185 247.973C725.399 249.522 702.407 257.144 682.407 270.112C663.337 282.42 647.127 298.355 630.693 313.908C621.353 322.728 611.896 331.499 601.793 339.496L607.477 345.17C609.956 341.995 607.869 338.751 606.134 335.762C603.341 330.93 600.185 326.305 597.069 321.689C589.317 310.203 581.252 298.924 573.167 287.663C564.112 275.031 555.713 261.811 545.305 250.227C537.465 241.466 532.105 230.872 524.618 221.807C517.13 212.742 506.791 204.824 496.776 198.395C485.545 191.182 473.089 185.606 459.585 185.048C450.765 184.675 440.808 186.557 436.476 195.396L441.122 193.505C431.596 191.329 421.776 187.86 411.898 189.771C404.058 191.28 395.738 197.494 397.306 206.431C398.972 216.016 411.212 216.731 418.376 220.269C422.831 222.337 426.812 225.303 430.067 228.981C432.654 232.068 438.064 240.427 432.929 242.828C424.207 246.895 411.81 242.936 404.45 249.992C397.472 256.695 400.697 266.486 404.656 273.777C409.85 283.342 417.131 291.77 423.609 300.472C430.587 309.841 437.613 319.18 444.816 328.373C471.423 362.31 502.078 398.629 542.63 416.014C582.702 433.193 627.175 425.314 664.415 404.744C683.231 394.346 701.076 381.93 718.315 369.092C735.553 356.254 752.37 342.632 767.197 327.01C770.862 323.159 765.051 317.318 761.317 321.13C736.69 346.718 707.054 368.249 677.184 387.261C644.266 408.213 605.703 423.639 566.121 414.926C526.342 406.175 495.688 375.726 469.934 345.983C455.498 329.323 442.209 311.683 429.048 294.043C423.276 286.282 416.896 278.804 412.172 270.337C410.212 266.76 407.272 261.929 409.036 257.744C411.094 252.844 419.13 253.873 423.452 253.324C432.125 252.227 444.552 250.267 443.238 238.957C442.131 229.51 435.81 221.602 428.127 216.417C423.737 213.581 419.005 211.312 414.044 209.665C409.869 208.195 401.637 206.108 407.321 200.522C414.848 193.123 430.4 199.542 438.936 201.443C440.732 201.91 442.622 201.14 443.581 199.552C443.062 200.62 443.66 199.454 443.915 199.16C444.424 198.572 444.944 197.993 445.463 197.425C446.273 196.379 447.193 195.423 448.207 194.573C452.225 191.81 460.947 193.113 465.377 193.848C476.323 195.651 486.407 201.208 495.482 207.382C504.302 213.389 513.201 220.445 519.816 228.883C526.431 237.321 531.321 246.827 538.436 254.853C548.02 265.711 555.968 277.697 564.396 289.437C571.354 299.12 578.273 308.822 585.064 318.612C588.808 324.012 592.571 329.392 596.138 334.939C597.363 336.83 598.598 338.741 599.705 340.711C599.983 341.347 600.31 341.96 600.685 342.543C600.332 342.426 601.244 343.229 600.685 342.543C600.727 342.643 600.763 342.744 600.793 342.847C601.018 343.896 601.156 343.063 601.185 340.338C598.176 344.258 604.252 347.786 607.496 345.238C629.252 327.824 647.804 306.862 669.236 289.035C692.354 269.788 718.912 256.695 749.234 254.579C753.399 254.285 753.448 247.768 749.234 248.042L749.185 247.973Z" fill="#382C80"/>
<path d="M749.185 251.247C682.28 255.48 650.92 304.549 607.643 339.907C606.992 340.446 606.138 340.671 605.306 340.524C604.474 340.377 603.748 339.872 603.321 339.143C599.558 332.606 589.298 318.337 588.465 317.122C583.271 309.537 578.044 301.981 572.785 294.455C567.444 286.811 565.454 277.991 562.602 269.151C559.163 258.45 554.419 246.337 543.306 243.26C542.114 242.912 540.833 243.046 539.739 243.632C536.642 245.396 537.857 249.728 538.426 253.118C539.798 261.419 534.996 269.435 529.763 276.031C517.233 291.696 501.305 304.306 483.183 312.908C469.787 319.308 451.274 331.117 439.995 316.671C439.527 316.056 438.773 315.726 438.004 315.802C437.234 315.878 436.56 316.348 436.222 317.044C435.075 319.435 433.703 322.248 433.536 322.924C432.626 325.937 432.012 329.033 431.704 332.165C431.361 339.025 434.791 346.307 439.73 350.932C443.875 354.852 449.197 357.204 453.45 360.918C457.125 364.103 459.928 368.151 462.917 371.983C484.741 399.932 511.103 423.756 546.815 431.126C571.207 436.163 596.697 434.193 620.814 428.009C634.946 424.383 648.852 419.268 660.906 411.065C672.96 402.862 683.123 391.377 687.954 377.618" fill="#7F72FF"/>
<path d="M749.185 247.973C724.726 249.554 701.11 257.522 680.692 271.082C661.19 283.939 644.638 300.609 627.714 316.544C623.421 320.582 619.09 324.58 614.689 328.49C612.729 330.235 610.769 331.959 608.809 333.655C608.368 334.027 605.624 336.164 606.124 336.242C606.624 336.32 605.144 334.282 604.86 333.723C599.49 325.295 593.561 317.22 587.886 308.988C583.29 302.324 577.998 295.797 574.088 288.712C570.325 281.852 568.61 274.169 566.179 266.819C562.779 256.519 558.016 244.955 547.363 240.359C542.581 238.301 536.583 238.497 534.31 244.044C533.33 246.376 533.624 248.806 533.967 251.237C534.506 255 534.741 258.244 533.467 261.909C530.997 268.994 525.568 275.07 520.541 280.529C515.456 286.013 509.894 291.034 503.92 295.533C493.238 303.579 481.164 309.753 469.012 315.26C463.701 317.661 457.301 320.268 451.372 319.18C448.472 318.595 445.84 317.081 443.875 314.868C441.915 312.84 439.955 311.213 436.908 311.791C431.665 312.771 429.607 321.14 428.607 325.511C427.127 332.008 427.382 338.251 430.175 344.356C432.86 350.236 437.26 354.568 442.533 358.165C445.473 360.125 448.54 361.889 451.167 364.27C454.005 367.049 456.589 370.076 458.889 373.315C475.039 394.258 494.296 413.78 518.316 425.53C545.462 438.809 576.469 440.357 605.909 435.33C634.407 430.43 664.709 420.091 682.692 396.061C686.631 390.725 689.762 384.838 691.982 378.588C693.795 373.56 685.837 371.444 684.005 376.393C673.842 403.833 645.412 417.347 618.854 424.07C590.101 431.341 558.447 432.703 530.39 421.816C506.576 412.564 487.211 394.846 471.119 375.432C466.945 370.405 463.279 364.829 458.752 360.105C454.224 355.381 448.129 352.706 443.238 348.394C438.103 343.876 434.987 336.948 436.065 330.078C436.635 327.311 437.414 324.592 438.397 321.944C438.505 321.63 439.769 320.062 438.574 320.572C437.594 320.974 438.574 320.964 439.034 321.669C439.857 322.885 441.798 324.012 443.013 324.727C452.558 330.382 463.926 326.491 473.187 322.287C484.604 317.103 495.953 311.35 506.135 304C517.055 296.232 526.716 286.832 534.78 276.129C538.485 271.111 541.64 265.447 542.512 259.185C542.817 256.381 542.708 253.548 542.189 250.776C542.111 250.227 541.376 247.503 541.875 247.131C542.375 246.758 544.884 248.169 545.384 248.444C555.86 254.373 558.31 269.7 561.74 280.117C566.326 294.229 575.617 305.597 583.927 317.681C588.827 324.845 594.051 331.812 598.627 339.241C601.136 343.298 604.938 346.483 609.78 343.484C614.19 340.75 618.168 336.487 622.02 333.018C655.016 303.236 684.681 267.515 730.084 257.274C736.394 255.889 742.798 254.975 749.243 254.539C753.408 254.245 753.457 247.728 749.243 248.003L749.185 247.973Z" fill="#7F72FF"/>
<path d="M696.921 297.748C683.084 324.208 680.438 354.97 677.586 384.566C676.135 399.648 674.646 414.77 671.706 429.646C669.226 441.925 662.719 455.371 663.993 468.18C664.62 474.471 669.638 479.234 674.773 482.497C689.64 491.994 707.584 494.12 724.881 494.434C755.849 494.983 787.601 490.132 814.737 474.501C820.401 471.237 826.232 467.004 828.163 460.467C830.358 453.009 826.81 445.159 824.243 437.809C817.657 418.964 816.168 396.561 816.403 376.638C816.716 352.647 812.757 328.196 802.114 306.979" fill="#7F72FF"/>
<path d="M694.177 296.16C676.959 328.353 675.714 365.142 671.637 400.618C670.657 410.498 669.116 420.314 667.021 430.018C664.924 439.015 661.367 447.658 659.916 456.792C658.731 464.24 658.574 471.874 663.18 478.225C667.786 484.575 675.302 488.75 682.466 491.788C697.882 498.324 715.022 499.422 731.584 499.314C748.92 499.197 766.413 497.354 783.181 492.778C791.764 490.442 800.121 487.343 808.151 483.517C815.011 480.234 822.645 476.47 827.751 470.639C840.08 456.576 828.908 439.524 825.37 424.276C820.676 404.078 821.959 383.9 820.793 363.408C819.627 342.916 815.178 323.012 805.77 304.765C803.212 299.796 796.029 304.157 798.341 309.106C805.298 324.302 809.549 340.596 810.905 357.253C812.346 373.423 811.062 389.662 812.689 405.832C813.43 413.756 814.74 421.616 816.609 429.352C818.5 436.976 822.175 444.258 823.547 451.98C825.086 460.594 819.627 465.759 812.767 469.787C805.864 473.81 798.596 477.17 791.06 479.822C775.99 485.032 760.272 488.139 744.353 489.054C728.977 490.034 712.905 490.181 697.813 486.702C690.264 485.105 683.064 482.164 676.557 478.019C669.256 473.178 667.639 467.072 668.913 458.625C670.128 450.5 673.097 442.778 675.087 434.84C676.973 426.65 678.367 418.354 679.262 409.997C683.887 373.022 682.897 333.557 699.704 299.345C701.488 295.719 696.176 292.485 694.226 296.141L694.177 296.16Z" fill="#7F72FF"/>
<path d="M821.626 430.744C817.216 416.367 816.158 400.364 816.374 385.84C816.374 383.606 816.354 381.371 816.315 379.137C770.599 383.717 724.608 384.936 678.713 382.782C678.321 386.075 677.958 389.358 677.586 392.631C676.136 405.489 674.646 418.386 671.706 431.038C671.324 432.635 670.853 434.262 670.324 435.938C719.922 442.974 771.509 437.898 821.626 430.744Z" fill="white"/>
<path d="M825.595 429.646C820.695 412.986 820.882 396.326 820.441 379.137C820.382 377.069 818.588 374.785 816.315 375.011C770.596 379.545 724.608 380.767 678.713 378.666C676.302 378.549 674.793 380.626 674.587 382.782C672.568 400.109 671.51 418.062 666.326 434.801C665.728 436.761 667.041 439.573 669.197 439.867C720.353 447.011 771.882 441.945 822.724 434.712C827.947 433.968 825.723 426.03 820.529 426.765C771.294 433.772 720.941 438.838 671.392 431.929L674.274 436.996C679.664 419.581 680.732 400.795 682.829 382.782L678.713 386.908C724.608 389.008 770.596 387.787 816.315 383.253L812.199 379.137C812.659 397.051 812.503 414.417 817.648 431.831C819.157 436.908 827.114 434.752 825.595 429.646Z" fill="white"/>
<path d="M728.722 287.262C726.341 287.448 725.067 284.479 724.891 282.097C724.322 274.257 727.693 266.417 732.672 260.292C733.914 258.645 735.444 257.237 737.19 256.137C738.83 255.28 740.576 254.644 742.384 254.246C756.633 250.433 771.96 251.854 786.738 252.031C850.752 252.825 973.35 268.318 957.954 360.027C954.808 378.735 945.959 396.022 935.747 412.016C925.133 428.811 912.949 444.561 899.36 459.056C892.358 466.582 884.786 473.557 876.712 479.92C869.656 485.359 858.602 488.446 857.906 498.903C857.328 507.527 866.02 520.933 852.692 525.206C846.244 527.283 839.815 522.393 834.788 517.846C836.34 521.242 835.183 525.262 832.063 527.313C828.853 529.187 824.784 528.677 822.136 526.068C819.196 523.128 818.608 518.091 815.08 515.837C815.536 518.032 815.536 520.297 815.08 522.491C814.472 524.637 812.718 526.627 810.494 526.774C808.602 526.911 806.877 525.794 805.466 524.49C802.503 521.83 800.161 518.552 798.606 514.886C798.606 518.806 797.401 523.834 793.5 524.412C790.413 524.873 787.865 522.129 786.092 519.512C778.912 509.004 774.315 496.95 772.675 484.33C771.107 472.217 773.116 469.346 763.934 461.261C761.219 458.87 760.298 454.93 760.749 451.333C761.2 447.737 762.826 444.415 764.541 441.22C786.101 400.922 827.683 375.148 862.669 347.728C857.083 347.101 852.281 343.661 847.391 340.868C831.711 331.911 813.512 329.245 795.225 328.304" fill="white"/>
<path d="M729.585 284.145C724.744 283.449 730.79 269.161 731.937 267.191C735.396 261.223 739.199 258.371 745.863 256.872C757.789 254.236 770.176 255.108 782.289 255.431C795.411 255.784 808.485 256.186 821.558 257.391C848.998 259.988 877.173 264.996 902.525 276.197C925.614 286.399 947.253 302.942 953.427 328.608C963.001 368.357 935.963 408.125 912.453 437.564C903.997 448.25 894.732 458.269 884.738 467.533C880.43 471.71 875.742 475.477 870.734 478.783C866.942 481.125 862.894 483.222 859.641 486.3C852.781 492.738 853.143 500.578 854.888 509.085C855.485 512.025 856.848 516.572 854.672 519.159C849.772 524.902 841.746 518.101 837.943 514.71C834.935 512.025 828.731 514.573 830.486 519.051C832.446 523.951 826.693 525.362 824.184 521.266C822.303 518.179 821.244 514.955 818.304 512.662C815.668 510.613 810.053 511.466 810.582 515.856C810.68 516.689 811.405 520.688 810.699 521.305C809.523 522.285 807.759 520.384 807.083 519.718C805.184 517.608 803.645 515.201 802.526 512.593C800.566 508.222 794.108 510.702 793.99 514.906C793.99 515.886 794.128 518.453 793.226 519.11C791.913 520.09 791.011 518.512 790.051 517.248C787.469 513.668 785.281 509.821 783.524 505.772C780.032 498.112 777.817 489.932 776.968 481.556C776.448 476.539 776.566 471.266 774.312 466.641C771.764 461.437 764.649 458.174 765.374 451.941C766.217 444.708 772.087 437.104 776.154 431.224C780.554 424.853 785.422 418.82 790.717 413.172C801.037 402.029 812.61 392.131 824.517 382.743C838.179 371.963 852.34 361.859 866.04 351.158C868.745 349.051 867.294 343.749 863.943 343.21C858.063 342.23 853.457 338.78 848.322 336.007C843.02 333.152 837.437 330.853 831.662 329.147C819.902 325.638 807.465 324.57 795.215 324.247C789.835 324.1 789.982 332.087 795.215 332.528C807.23 333.508 819.225 335.125 830.731 338.859C836.16 340.623 841.384 342.965 846.313 345.846C851.124 348.639 855.819 351.51 861.405 352.392L859.307 344.454C830.593 366.916 799.155 387.104 776.007 415.779C770.435 422.602 765.473 429.901 761.18 437.594C757.182 444.855 753.428 453.764 758.142 461.653C759.955 464.691 763.15 466.553 765.129 469.414C766.668 471.668 766.991 474.177 767.227 476.843C768.011 485.604 769.187 494.159 772.205 502.489C775.223 510.819 779.849 523.314 788.032 527.822C797.362 532.977 802.938 522.814 803.134 514.925L794.588 517.238C797.264 523.04 802.663 530.958 809.768 531.311C818.285 531.683 820.441 522.56 819.568 515.876L812.708 519.796C815.56 521.981 816.236 526.656 818.863 529.292C821.682 532.031 825.597 533.334 829.496 532.83C833.107 532.328 836.291 530.206 838.142 527.065C839.994 523.925 840.31 520.111 839.002 516.709L831.544 521.05C839.315 527.91 850.723 534.565 860.072 526.127C866.746 520.11 863.992 511.241 862.59 503.587C860.777 493.512 868.735 490.318 875.997 485.614C886.777 478.656 896.048 468.875 904.672 459.506C922.076 440.592 937.992 419.042 949.605 396.091C959.091 377.402 965.285 356.293 962.619 335.193C954.72 270.68 873.38 254.745 820.568 250.149C800.988 248.339 781.316 247.714 761.66 248.277C754.849 248.408 748.075 249.322 741.472 251.002C735.357 252.658 731.437 255.99 727.889 261.154C724.202 266.4 722.02 272.554 721.578 278.951C721.343 283.489 722.441 289.643 727.84 290.388C731.907 290.937 733.72 284.733 729.565 284.145H729.585Z" fill="#382C80"/>
<path d="M728.722 287.262C726.341 287.448 725.067 284.478 724.89 282.097C724.322 274.257 727.693 266.417 732.671 260.292C733.913 258.645 735.444 257.237 737.189 256.137C738.83 255.28 740.576 254.644 742.383 254.245C756.632 250.433 771.96 251.854 786.738 252.031C818.196 252.423 850.173 255.617 880.475 264.369C895.851 268.808 911.041 274.796 924.418 283.694C949.104 300.119 964.735 324.168 965.47 354.48C966.039 377.422 957.738 399.501 946.625 419.228C942.068 427.333 935.992 434.497 931.043 442.454C924.879 452.352 916.108 459.996 910.571 470.571C908.248 474.981 906.239 479.606 903.133 483.507C900.026 487.407 895.567 490.572 890.589 490.719C883.846 490.935 878.005 485.751 871.292 485.084C886.62 465.573 883.131 438.24 867.715 419.513C856.573 405.979 839.864 399.276 822.635 398.394C815.06 398.002 806.74 397.59 799.341 398.541C789.384 399.824 794.607 383.841 798.9 380.048C803.859 375.638 810.66 373.992 817.108 372.639C833.768 369.16 849.801 359.194 862.355 347.904C852.937 345.278 841.961 344.964 832.239 343.896C819.029 342.455 804.701 344.19 791.844 341.26C778.271 338.163 764.169 340.877 750.351 340.76C736.533 340.642 722.097 337.82 712.327 328.265" fill="#7F72FF"/>
<path d="M729.585 284.145C726.311 283.675 728.742 274.806 729.359 272.905C730.69 268.924 732.788 265.241 735.533 262.066C740.855 255.882 751.409 255.608 759.004 255.206C775.223 254.402 791.873 255.333 808.073 256.294C841.128 258.254 875.771 263.506 905.975 277.765C930.847 289.525 952.221 309.312 959.061 336.722C966.48 366.495 955.563 399.06 938.844 423.756C934.081 430.812 929.309 438.035 924.252 444.875C919.411 451.441 913.707 457.341 909.287 464.22C905.005 470.904 902.555 480.478 895.371 484.8C887.845 489.279 880.015 481.988 872.469 480.88L875.095 487.348C895.067 461.153 884.542 422.619 858.259 405.028C843.911 395.414 826.899 393.405 810.003 393.396C807.602 393.396 805.201 393.445 802.8 393.621C801.82 393.699 798.88 394.474 797.9 394.013C798.812 394.464 798.106 394.395 798.234 393.445C798.333 392.221 798.519 391.006 798.792 389.809C800.693 383.057 805.74 380.44 812.287 378.627C821.832 375.971 830.907 373.913 839.844 369.346C849.158 364.441 857.818 358.383 865.618 351.314C868.294 348.943 866.824 344.317 863.551 343.474C851.791 340.378 839.051 339.554 826.967 338.859C820.45 338.496 813.923 338.643 807.367 338.398C800.429 338.143 793.892 336.654 787.052 335.772C763.532 332.743 734.975 343.043 715.159 325.452C711.239 321.944 705.486 327.52 709.279 331.332C717.56 339.28 728.34 343.318 739.62 344.788C753.163 346.542 766.648 344.082 780.221 344.582C787.081 344.837 793.618 346.669 800.399 347.336C807.181 348.002 814.021 347.855 820.823 347.992C834.023 348.257 848.263 349.08 861.091 352.441L859.023 344.601C851.796 351.105 843.779 356.673 835.16 361.173C826.987 365.368 818.598 367.102 809.847 369.533C803.212 371.385 796.274 374.433 792.648 380.607C790.158 384.83 788.316 390.465 789.178 395.405C790.296 401.716 795.254 403.539 801.056 403C810.599 402.074 820.22 402.328 829.701 403.754C846.704 406.449 861.581 415.74 870.028 430.939C879.231 447.501 879.064 467.552 867.49 482.879C865.903 484.986 867.49 488.975 870.126 489.357C877.731 490.445 884.101 495.845 892.069 494.973C900.036 494.1 905.789 488.113 909.66 481.605C914.236 473.893 917.892 466.327 923.595 459.301C928.995 452.656 933.709 445.786 938.57 438.721C949.036 423.609 958.17 408.341 963.893 390.759C969.185 374.462 971.115 357.106 968.058 340.172C954.691 266.103 861.473 250.992 799.723 248.787C788.855 248.405 777.928 248.13 767.05 248.16C757.397 248.16 746.588 248.512 737.532 252.266C730.241 255.284 725.292 263.938 723.019 271.141C721.264 276.668 719.461 289.212 727.86 290.368C731.927 290.917 733.74 284.714 729.585 284.126V284.145Z" fill="#7F72FF"/>
<path d="M772.264 447.403C766.795 454.763 765.022 465.612 768.109 474.246C769.53 478.166 776.605 478.009 776.047 473.177C775.067 464.779 775.664 458.036 778.702 450.118C780.251 446.09 774.439 444.463 772.264 447.403Z" fill="#382C80"/>
<path d="M729.781 180.785C730.91 184.915 730.563 189.309 728.801 193.211C726.38 198.503 721.51 206.725 715.169 207.098C705.406 207.703 695.608 206.837 686.102 204.53C682.851 203.859 679.781 202.503 677.096 200.551C674.519 198.474 672.666 195.269 672.951 191.976C673.401 186.87 678.723 185.577 682.927 184.871C683.642 184.754 685.602 184.871 686.151 184.411C687.366 183.431 686.661 183.852 685.975 182.353C684.466 179.07 683.231 176.306 683.152 172.553C683.025 169.928 683.547 167.313 684.671 164.938C686.367 161.635 692.11 155.883 704.644 153.737" fill="#382C80"/>
<path d="M726.184 181.784C727.664 188.546 724.146 196.67 718.824 201.119C713.777 205.353 702.791 203.011 696.804 202.158C693.04 201.684 689.32 200.907 685.681 199.836C683.211 199.071 675.714 196.092 677.4 191.937C678.997 188.017 686.945 189.732 689.875 186.841C691.22 185.424 691.493 183.3 690.551 181.588C688.15 176.325 685.23 170.22 689.659 165.026C693.579 160.469 700.077 158.656 705.673 157.47C710.573 156.431 708.436 149.258 703.634 150.052C695.794 151.345 687.317 154.413 682.368 160.998C676.488 168.838 679.428 177.962 683.064 185.969L683.74 180.706C684.583 179.883 684.338 180.422 682.937 180.52C681.999 180.61 681.07 180.763 680.153 180.98C678.121 181.351 676.158 182.032 674.332 182.999C670.561 185.049 668.312 189.092 668.56 193.377C669.138 205.686 683.613 208.989 693.334 210.41C703.056 211.831 716.688 214.046 724.44 206.745C731.623 199.983 735.69 189.457 733.377 179.795C732.25 175.11 725.145 177.1 726.174 181.755L726.184 181.784Z" fill="#382C80"/>
<path d="M715.806 182.931C705.457 192.79 703.017 211.958 701.958 225.463C701.674 229.118 701.576 232.872 702.674 236.37C705.388 244.916 713.513 248.13 721.568 249.316C725.371 249.894 726.468 252.442 726.253 256.176L725.4 269.7C724.998 276.148 724.998 283.606 729.928 287.781C732.985 290.368 737.287 290.995 741.266 290.613C743.951 290.402 746.57 289.673 748.979 288.467C757.436 284.057 762.307 272.699 763.13 263.663C764.2 250.74 764.452 237.762 763.885 224.806C763.61 216.966 762.973 209.195 762.758 201.384C762.601 195.632 761.111 191.104 756.789 186.968C749.38 179.968 739.34 176.457 729.183 177.315" fill="white"/>
<path d="M713.405 180.52C706.799 186.978 703.291 195.749 701.164 204.589C699.038 213.428 697.078 223.728 697.96 232.793C698.842 241.858 704.653 248.297 713.003 251.413C715.02 252.133 717.091 252.693 719.196 253.089C721.793 253.628 722.058 253.569 722.068 256.146C722.068 262.556 720.794 268.886 720.98 275.354C721.254 284.772 725.586 293.161 735.582 294.807C745.068 296.375 754.202 292.259 759.886 284.713C766.315 276.217 767.726 266.231 768.392 255.892C769.109 242.929 769.086 229.936 768.324 216.976C767.716 205.353 769.245 192.378 760.229 183.519C751.935 175.593 740.631 171.619 729.202 172.611C723.322 173.111 723.126 182.303 729.202 181.98C737.758 181.529 746.401 184.009 752.82 189.869C759.572 196.033 758.102 205.686 758.583 214.046C759.21 224.747 759.563 235.459 759.396 246.17C759.259 254.931 759.572 264.496 756.25 272.757C753.075 280.705 746.587 287.31 737.356 286.144C727.311 284.88 729.516 272.071 729.947 264.849C730.319 258.381 732.358 249.169 724.822 245.994C718.442 243.318 710.768 244.23 707.182 236.88C704.928 232.283 705.77 226.688 706.202 221.778C706.545 217.603 707.015 213.448 707.77 209.322C709.357 200.698 711.964 191.77 718.236 185.341C721.284 182.205 716.56 177.501 713.434 180.53L713.405 180.52Z" fill="#382C80"/>
<path d="M741.991 243.132C734.361 244.592 726.576 245.072 718.824 244.563C714.267 244.318 713.091 251.962 717.726 252.658C726.801 254.09 736.097 252.78 744.422 248.894C747.852 247.356 745.294 242.456 741.991 243.132Z" fill="#382C80"/>
<path d="M700.037 169.328C704.153 180.794 710.494 192.417 721.391 197.856C722.582 198.547 723.934 198.912 725.311 198.914C727.66 198.602 729.592 196.91 730.211 194.622C730.772 192.351 730.653 189.966 729.868 187.762C731.77 189.653 733.788 191.623 736.454 192.123C739.12 192.623 742.334 190.859 742.226 188.203C744.804 188.869 745.735 191.986 746.146 194.612C747.313 201.666 748.095 208.778 748.488 215.917C748.165 212.89 748.527 209.829 749.547 206.96C750.615 203.961 753.124 200.865 756.279 201.286C758.284 201.714 759.915 203.166 760.572 205.108C761.195 207.005 761.503 208.991 761.483 210.988C761.738 216.319 762.241 221.634 762.992 226.933C763.159 228.109 763.61 229.559 764.786 229.686C765.298 229.698 765.8 229.543 766.217 229.245C768.725 227.697 770.205 224.973 771.538 222.385C776.105 213.301 781.044 205.441 783.425 195.279C784.19 192.025 784.748 188.536 783.651 185.381C782.511 182.223 779.521 180.113 776.164 180.098C776.379 169.495 760.934 163.566 752.879 160.312C741.508 155.826 729.437 153.371 717.217 153.06C707.73 152.737 697.46 153.776 690.286 159.989" fill="#382C80"/>
<path d="M696.98 170.171C700.596 180.951 705.741 191.731 715.031 198.719C719.157 201.815 724.341 204.755 729.408 202.06C735.141 199.013 735.474 192.26 734.092 186.625L726.703 190.928C729.839 194.034 733.485 197.013 738.159 196.661C742.246 196.357 745.931 193.574 746.597 189.438L739.884 192.172C742.53 193.289 742.383 199.816 742.706 202.305C743.285 206.843 743.618 211.39 743.99 215.937H752.957C752.761 213.683 752.252 208.097 754.408 206.588C757.671 204.275 757.112 211.165 757.181 212.831C757.397 217.956 757.308 223.856 758.69 228.824C759.798 232.823 763.306 235.351 767.412 233.724C771.871 231.941 774.086 227.178 776.134 223.17C782.014 211.664 800.713 178.482 776.134 175.904L780.368 180.138C779.741 164.458 758.7 157.255 746.254 153.403C728.447 147.886 702.713 143.986 687.199 156.971C682.868 160.587 689.022 166.467 693.314 163.096C699.635 158.137 707.926 157.353 715.678 157.461C724.628 157.582 733.523 158.874 742.138 161.302C748.55 163.054 754.784 165.403 760.758 168.319C765.442 170.681 771.754 174.199 771.881 180.138C771.881 182.637 773.792 184.058 776.105 184.362C784.386 185.342 777.085 201.433 775.125 205.588C773.527 209.038 771.705 212.37 769.931 215.731C768.529 218.387 766.687 224.414 763.502 225.365L767.03 225.825C766.932 225.767 766.501 219.563 766.354 218.181C766.03 215.065 765.913 211.919 765.57 208.813C765.09 204.491 763.61 200.149 759.435 198.082C748.655 192.701 743.657 208.225 743.931 215.957C744.137 221.709 753.114 221.739 752.898 215.957C752.599 209.303 751.925 202.671 750.88 196.092C750.194 191.506 749.184 186.292 744.441 184.332C742.109 183.352 738.159 183.803 737.718 187.066C737.424 189.281 733.514 185.332 732.897 184.734C731.459 183.38 729.302 183.133 727.596 184.127C725.889 185.12 725.04 187.118 725.507 189.036C727.075 195.132 723.606 194.808 719.627 192.192C716.932 190.356 714.524 188.13 712.483 185.587C708.338 180.569 705.408 174.562 703.007 168.544C701.537 164.85 695.568 166.29 696.891 170.23L696.98 170.171Z" fill="#382C80"/>
<path d="M877.182 333.292C867.882 339.701 858.072 345.385 848.459 351.304C838.659 357.331 829.447 362.682 818.294 365.759C810.033 368.043 801.448 370.189 795.049 376.226C790.521 380.508 786.817 386.878 788.247 393.317C789.913 400.824 797.685 405.077 804.702 406.322C814.805 408.144 825.115 406.557 835.209 409.007C851.261 412.927 863.629 425.667 869.323 440.906C872.38 449.128 873.605 458.124 871.714 466.758C870.734 471.1 868.921 474.657 866.814 478.518C864.629 482.644 864.001 487.152 867.647 490.66C871.469 494.345 877.202 488.622 873.468 484.839C872.861 484.222 877.467 476.793 878.045 475.412C879.398 472.228 880.343 468.886 880.857 465.465C881.861 458.289 881.401 450.985 879.505 443.993C875.809 429.9 867.393 417.499 855.662 408.86C849.026 404.183 841.399 401.104 833.376 399.863C824.155 398.315 814.433 399.863 805.368 397.903C797.655 396.198 793.667 390.7 798.939 384.056C804.212 377.412 812.787 375.677 820.431 373.501C831.299 370.414 840.53 365.465 850.056 359.478C860.434 352.961 870.744 346.453 880.701 339.309C884.307 336.722 880.916 330.705 877.182 333.282V333.292Z" fill="#382C80"/>
<path d="M770.911 562.534C773.773 571.589 771.264 582.036 770.558 591.287C769.755 601.675 769.196 612.073 768.451 622.461C767.726 632.516 766.903 642.561 765.648 652.557C764.472 661.847 762.248 671.108 761.836 680.477C761.434 689.571 763.532 698.568 763.385 707.691C763.351 712.293 762.742 716.873 761.572 721.323C760.307 725.978 757.593 730.055 756.309 734.671C753.898 743.354 763.051 746.813 763.169 754.8C763.267 759.592 761.464 764.286 760.827 769C760.257 773.559 760.299 778.173 760.954 782.72C762.385 793.706 765.933 804.437 768.794 815.06C771.911 826.5 775.05 837.934 778.212 849.36C778.937 851.987 782.994 850.879 782.289 848.243C776.967 828.31 770.529 808.426 766.276 788.238C765.141 783.317 764.637 778.272 764.776 773.224C765.011 768.118 766.619 763.316 767.246 758.269C767.816 754.924 767.415 751.485 766.089 748.361C764.022 743.912 759.141 741.403 760.435 735.808C761.366 731.78 763.982 728.076 765.227 724.097C766.502 719.854 767.275 715.476 767.53 711.053C768.138 701.811 766.129 692.844 766.05 683.613C765.972 674.381 768.236 665.071 769.48 655.879C770.803 646.02 771.724 636.102 772.42 626.185C773.234 614.856 773.831 603.508 774.508 592.169C775.096 582.271 777.448 571.168 774.155 561.554C773.449 559.466 770.147 560.339 770.813 562.475L770.911 562.534Z" fill="#7F72FF"/>
<path d="M811.954 937.746C810.921 931.141 809.85 924.536 808.739 917.931C806.41 918.303 804.136 918.961 801.967 919.891C787.228 925.441 771.654 928.453 755.907 928.799C753.846 928.988 751.768 928.679 749.851 927.897C746.401 926.172 745.137 922.017 743.785 918.381C742.227 914.197 739.992 910.11 736.474 907.366C733.622 905.132 728.379 903.446 723.371 903.044C721.343 917 712.895 927.368 695.01 938.03C690.571 940.686 686.053 943.43 682.731 947.399C679.409 951.368 677.429 956.837 678.919 961.795C679.1 962.561 679.522 963.248 680.124 963.755C680.912 964.202 681.823 964.381 682.721 964.265C711.366 963.481 740.933 964.657 769.823 962.129C790.168 960.423 815.815 962.619 811.954 937.746Z" fill="#382C80"/>
<path d="M813.943 937.198C812.911 930.593 811.836 923.987 810.719 917.382C810.401 916.3 809.284 915.664 808.191 915.942C799.429 917.5 791.08 921.675 782.319 923.605C773.41 925.565 763.522 927.3 754.349 926.771C746.157 926.3 745.392 914.54 741.08 909.082C736.768 903.623 730.143 901.781 723.44 901.016C722.523 901.023 721.722 901.64 721.48 902.525C718.717 919.871 705.369 929.191 691.404 937.894C684.858 941.98 678.36 947.223 676.773 955.21C676.243 957.837 676.204 961.57 677.684 964.03C679.595 967.147 683.427 966.431 686.563 966.363C708.035 965.892 729.526 966.363 750.998 965.5C759.818 965.138 768.53 964.334 777.301 963.795C783.474 963.588 789.627 962.963 795.715 961.923C801.144 960.845 806.838 958.875 810.523 954.524C814.649 949.624 814.864 943.293 814.041 937.247C813.679 934.63 809.71 935.747 810.062 938.344C810.827 943.901 810.288 949.781 805.662 953.525C801.87 956.592 796.705 957.69 792.001 958.425C778.908 960.385 765.149 960.786 751.948 961.365C733.603 962.149 715.247 961.923 696.902 962.109C692.727 962.109 687.876 962.923 683.75 962.345C677.439 961.453 681.702 952.133 684.279 948.958C689.179 942.921 697.019 939.746 703.242 935.355C714.405 927.515 723.254 917.49 725.459 903.701L723.499 905.211C728.517 905.789 733.789 907.082 737.307 910.944C740.394 914.334 741.57 918.627 743.334 922.704C745.853 928.584 749.596 930.945 756.074 930.945C764.729 930.829 773.351 929.844 781.809 928.005C786.487 927.019 791.112 925.796 795.666 924.34C800.194 922.89 804.584 920.802 809.278 919.969L806.74 918.46C807.844 925.059 808.916 931.664 809.955 938.276C810.376 940.912 814.345 939.795 813.943 937.198Z" fill="#382C80"/>
<path d="M706.065 914.344C710.426 920.224 713.905 926.016 716.031 933.121C716.688 935.316 720.118 934.385 719.461 932.141C717.335 924.977 713.738 917.823 708.446 912.463C707.27 911.287 705.026 912.884 706.065 914.305V914.344Z" fill="white"/>
<path d="M699.038 926.633C702.791 930.553 704.918 935.091 706.437 940.246C707.113 942.519 710.357 941.549 709.945 939.266C708.965 933.474 705.594 928.28 701.4 924.252C700.736 923.657 699.722 923.685 699.093 924.317C698.464 924.949 698.44 925.962 699.038 926.624V926.633Z" fill="white"/>
<path d="M693.119 934.924C695.939 937.599 697.933 941.028 698.861 944.802C699.302 946.351 701.988 946.125 701.801 944.41C701.157 939.853 698.858 935.691 695.343 932.719C693.854 931.406 691.658 933.562 693.148 934.924H693.119Z" fill="white"/>
<path d="M776.105 938.06C772.127 940.157 771.96 946.41 775.566 949.016C779.173 951.623 785.072 949.408 785.886 944.91C786.288 942.676 783.063 941.696 782.417 943.93C781.907 945.724 779.33 947.135 777.654 945.89C775.978 944.646 776.674 941.833 778.085 940.608C779.496 939.383 777.683 937.217 776.125 938.04L776.105 938.06Z" fill="white"/>
<path d="M715.453 214.222C714.806 216.074 714.218 217.927 713.65 219.798C712.975 221.493 712.479 223.254 712.17 225.051C711.944 228.207 716.178 228.422 718.393 228.364C719.274 228.153 719.896 227.364 719.896 226.458C719.896 225.551 719.274 224.763 718.393 224.551C717.628 224.551 716.031 224.659 715.453 224.15L716.021 225.512C716.306 223.752 716.746 222.02 717.334 220.337C717.785 218.593 718.197 216.849 718.569 215.075C718.722 214.255 718.221 213.454 717.417 213.232C716.613 213.01 715.772 213.44 715.482 214.222H715.453Z" fill="#382C80"/>
<path d="M722.019 208.372C723.087 208.215 724.164 208.127 725.243 208.107C726.329 208.176 727.419 208.137 728.497 207.989C730.457 207.588 730.006 205.049 728.497 204.491C726.174 203.511 722.989 204.599 720.902 205.716C719.314 206.559 720.51 208.587 722.019 208.372Z" fill="#382C80"/>
<path d="M712.317 205.255C711.122 204.336 709.842 203.532 708.495 202.854C707.509 202.309 706.268 202.632 705.673 203.589C705.113 204.576 705.443 205.83 706.418 206.411C707.873 207.224 709.402 207.897 710.984 208.42C711.813 208.647 712.682 208.229 713.023 207.44C713.342 206.646 713.045 205.737 712.317 205.284V205.255Z" fill="#382C80"/>
<path d="M723.675 211.753C722.565 212.368 722.021 213.665 722.362 214.889C722.57 215.576 723.044 216.152 723.68 216.487C724.315 216.822 725.058 216.889 725.743 216.672C726.43 216.475 727.014 216.018 727.37 215.398C727.782 214.666 727.822 213.783 727.478 213.017C727.154 212.25 726.508 211.666 725.714 211.419C725.429 211.327 725.13 211.287 724.832 211.302C724.445 211.309 724.066 211.417 723.734 211.615C723.266 211.901 722.918 212.347 722.754 212.87L722.685 213.399C722.674 213.665 722.735 213.929 722.862 214.163C723.014 214.57 723.296 214.915 723.665 215.143C724.084 215.348 724.543 215.455 725.008 215.457L724.459 215.379L724.645 215.437L724.155 215.232C724.218 215.262 724.277 215.298 724.332 215.339L723.92 215.016C723.974 215.06 724.023 215.109 724.067 215.163L723.754 214.751C723.792 214.807 723.825 214.866 723.852 214.928L723.656 214.438C723.66 214.503 723.66 214.569 723.656 214.634L723.587 214.095V214.232L723.656 213.693C723.665 213.755 723.665 213.817 723.656 213.879L723.861 213.399L723.773 213.546L724.087 213.144L723.959 213.262L724.361 212.948C724.295 212.997 724.222 213.036 724.146 213.066L724.626 212.87C724.55 212.899 724.471 212.918 724.391 212.929L724.92 212.86H724.734L725.263 212.929C725.162 212.913 725.064 212.887 724.969 212.85L725.439 213.046L725.331 212.987L725.733 213.291C725.683 213.251 725.637 213.205 725.596 213.154L725.89 213.546C725.852 213.498 725.819 213.445 725.792 213.389L725.988 213.84C725.953 213.765 725.927 213.686 725.91 213.605L725.978 214.105C725.968 214.02 725.968 213.934 725.978 213.85L725.91 214.34C725.92 214.253 725.94 214.168 725.968 214.085L725.792 214.526C725.821 214.447 725.864 214.374 725.919 214.31L725.635 214.663L725.772 214.536C726.109 214.214 726.297 213.767 726.292 213.301C726.281 212.913 726.147 212.539 725.91 212.233C725.689 211.923 725.366 211.701 724.998 211.606C724.541 211.507 724.063 211.57 723.646 211.782L723.675 211.753Z" fill="#382C80"/>
<path d="M706.378 211.027C705.267 211.643 704.724 212.94 705.065 214.163C705.27 214.853 705.744 215.431 706.38 215.768C707.015 216.105 707.76 216.173 708.446 215.957C709.13 215.754 709.712 215.298 710.072 214.683C710.478 213.949 710.518 213.069 710.18 212.301C709.856 211.53 709.206 210.941 708.406 210.694C708.125 210.606 707.83 210.566 707.534 210.577C707.148 210.59 706.772 210.698 706.437 210.89C705.973 211.18 705.626 211.624 705.457 212.145L705.388 212.674C705.379 212.942 705.436 213.208 705.555 213.448C705.716 213.852 706.001 214.195 706.368 214.428C706.784 214.629 707.239 214.733 707.701 214.732L707.162 214.663C707.226 214.674 707.289 214.694 707.348 214.722L706.858 214.506L707.034 214.614L706.623 214.301L706.77 214.438L706.446 214.026C706.489 214.08 706.526 214.14 706.554 214.203L706.348 213.713C706.377 213.775 706.397 213.841 706.407 213.909L706.329 213.37C706.333 213.415 706.333 213.461 706.329 213.507L706.397 212.968C706.408 213.029 706.408 213.092 706.397 213.154L706.603 212.674C706.574 212.728 706.541 212.781 706.505 212.831L706.819 212.419C706.781 212.466 706.739 212.509 706.691 212.546L707.103 212.233C707.037 212.281 706.964 212.321 706.887 212.35L707.368 212.145L707.132 212.203L707.652 212.135C707.594 212.145 707.534 212.145 707.475 212.135L707.995 212.203C707.897 212.192 707.801 212.165 707.711 212.125L708.181 212.321L708.073 212.262L708.465 212.566L708.328 212.439L708.632 212.831L708.534 212.664L708.72 213.125C708.691 213.045 708.669 212.963 708.651 212.88L708.72 213.379C708.715 213.295 708.715 213.209 708.72 213.125L708.661 213.615C708.67 213.531 708.69 213.448 708.72 213.37L708.534 213.801C708.571 213.726 708.613 213.654 708.661 213.585L708.387 213.948L708.524 213.82C708.851 213.488 709.037 213.042 709.043 212.576C709.03 212.189 708.896 211.816 708.661 211.508C708.435 211.213 708.118 210.999 707.76 210.9C707.302 210.8 706.824 210.862 706.407 211.076L706.378 211.027Z" fill="#382C80"/>
<path d="M899.164 442.748C900.859 448.073 902.085 453.536 902.829 459.075C903.407 462.907 910.14 462.015 909.689 458.154C908.917 452.301 907.392 446.573 905.151 441.112C903.721 437.505 897.909 438.907 899.193 442.748H899.164Z" fill="#382C80"/>
<path d="M723.205 234.783C726.399 234.697 729.222 232.68 730.339 229.687C731.025 227.834 728.007 226.56 727.135 228.344C726.351 230.131 724.718 231.403 722.793 231.725C721.068 231.97 721.46 234.89 723.205 234.783Z" fill="#382C80"/>
<path d="M753.82 551.215C761.591 563.651 778.212 573.618 793.147 571.285C796.587 570.746 796.568 564.925 793.147 564.367C786.591 563.289 780.143 562.72 774.037 559.829C767.932 556.938 763.13 552.597 758.72 547.432C756.417 544.718 751.958 548.226 753.82 551.215Z" fill="#382C80"/>
<path d="M466.082 209.979C458.664 202.55 449.902 196.504 439.622 193.966C435.3 192.907 433.742 199.062 437.809 200.551C446.629 203.766 454.93 207.774 461.888 214.193C464.7 216.78 468.826 212.713 466.102 209.979H466.082Z" fill="#382C80"/>
<path d="M469.189 221.68L470.639 222.885C471.139 223.357 471.795 223.629 472.481 223.65C473.172 223.646 473.834 223.372 474.324 222.885C474.815 222.398 475.09 221.735 475.088 221.043L475 220.347C474.875 219.911 474.642 219.514 474.324 219.191L473.128 217.76C472.607 217.241 471.903 216.949 471.168 216.947C470.434 216.954 469.732 217.246 469.208 217.76C468.688 218.28 468.395 218.985 468.395 219.72C468.39 220.456 468.683 221.163 469.208 221.68H469.189Z" fill="#382C80"/>
<path d="M472.138 348.698C465.729 352.696 458.193 353.784 450.804 352.853C446.345 352.294 445.257 360.036 449.736 360.762C458.825 362.371 468.168 360.001 475.392 354.254C478.577 351.824 475.755 346.414 472.138 348.698Z" fill="#382C80"/>
<path d="M538.867 306.94C546.241 302.151 552.202 295.479 556.134 287.614C557.908 284.018 552.606 280.852 550.705 284.449C546.999 291.522 541.839 297.73 535.564 302.667C533.143 304.559 536.299 308.635 538.867 306.94Z" fill="#382C80"/>
<path d="M616.669 356.401C611.308 347.149 607.349 337.153 601.744 328.039C596.04 318.7 589.758 309.586 583.672 300.433C577.714 291.456 572.275 282.616 568.237 272.601C564.709 263.83 561.642 254.383 556.193 246.572C552.273 240.917 545.727 235.204 538.318 237.752C531.38 240.114 530.674 247.905 529.919 254.108C527.607 273.228 512.799 288.104 497.148 297.797C487.407 303.824 476.892 308.42 466.366 312.879C461.084 315.113 455.243 317.779 449.363 316.907C443.219 316.034 440.661 311.174 437.378 306.538C434.438 302.461 427.676 306.342 430.596 310.507C435.496 317.475 439.701 323.786 448.824 324.874C458.35 326.011 467.513 321.219 476 317.534C493.689 309.851 511.505 300.609 523.863 285.331C529.389 278.696 533.51 271.008 535.976 262.732C537.299 258.009 536.583 240.986 544.953 245.523C548.677 247.552 551.038 251.844 552.989 255.412C555.553 260.345 557.843 265.416 559.849 270.602C563.622 279.853 567.689 288.604 573.245 296.944C580.027 307.146 587.112 317.132 593.825 327.373C600.538 337.614 605.35 348.855 611.622 359.35C613.533 362.555 618.482 359.664 616.63 356.41L616.669 356.401Z" fill="#382C80"/>
<path d="M692.825 298.277C685.426 316.456 680.585 335.311 676.88 354.558C673.352 372.855 672.46 391.308 670.118 409.752C669.123 418.901 666.953 427.883 663.66 436.476C660.171 445.11 656.212 452.813 657.035 462.427C658.327 478.365 670.029 491.516 685.71 494.649C691.178 495.717 693.55 487.583 688.033 486.211C672.147 482.291 662.445 466.611 667.59 450.686C670.148 442.748 673.872 435.428 675.743 427.215C677.475 419.157 678.667 410.992 679.311 402.774C680.859 385.487 681.614 368.161 684.789 351.05C688.182 333.686 692.659 316.551 698.195 299.747C699.303 296.278 694.167 295.062 692.854 298.277H692.825Z" fill="#382C80"/>
<path d="M775.889 346.659C803.104 345.826 830.544 344.141 856.426 354.196C861.238 356.058 863.188 348.433 858.543 346.522C832.475 335.811 803.241 337.751 775.889 340.995C772.371 341.407 772.146 346.777 775.889 346.659Z" fill="#382C80"/>
<path d="M853.78 372.355C847.322 367.533 839.413 364.162 831.24 363.937C826.987 363.819 825.987 370.483 830.26 371.434C837.355 373.012 843.98 374.599 850.526 377.921C854.289 379.881 857.043 374.805 853.77 372.355H853.78Z" fill="#382C80"/>
<path d="M708.171 272.454C706.829 289.339 713.346 309.351 732.103 313.114C750.86 316.877 766.109 302.814 776.399 289.026C777.702 287.281 774.723 284.949 773.351 286.674C763.875 298.571 751.125 311.409 734.494 309.478C716.531 307.391 709.994 288.134 711.111 272.454C711.249 270.553 708.318 270.572 708.171 272.454Z" fill="white"/>
<path d="M781.309 272.258L781.897 270.239C782.136 269.334 781.61 268.403 780.711 268.142C779.803 267.919 778.878 268.443 778.604 269.337L777.898 271.297C777.642 272.239 778.193 273.211 779.133 273.473C780.072 273.713 781.033 273.168 781.309 272.238V272.258Z" fill="white"/>
<path d="M438.633 939.324C428.372 935.012 412.29 928.064 413.153 914.55C413.447 909.65 416.093 903.633 421.071 901.898C428.098 899.458 433.595 907.131 436.516 912.365C437.819 914.697 441.945 913.109 440.945 910.493C438.074 902.917 434.477 893.833 438.652 886.101C440.289 883.033 443.493 879.858 447.286 880.044C451.422 880.24 455.685 884.944 453.627 889.031L458.135 890.932C461.954 881.581 470.625 875.105 480.675 874.096L478.166 871.587C478.47 874.233 478.783 876.879 479.087 879.525C479.283 881.25 481.125 882.876 482.87 881.7C486.287 879.374 490.504 878.539 494.55 879.385C498.596 880.232 502.124 882.688 504.322 886.189C505.998 888.913 510.271 886.444 508.634 883.67C502.93 874.037 489.593 870.93 480.332 877.349L484.114 879.525L483.134 871.587C482.987 870.352 482.105 868.941 480.635 869.088C468.377 870.231 457.813 878.196 453.342 889.668C452.304 892.255 456.616 894.058 457.85 891.569C462.75 881.681 451.059 871.969 441.69 876.506C427.804 883.19 431.969 900.585 436.241 911.835L440.671 909.964C436.212 903.907 431.057 896.244 422.433 897.224C415.965 897.929 411.447 903.672 409.693 909.572C404.45 927.692 423.933 937.384 437.633 942.892C439.779 943.754 440.661 940.324 438.613 939.452L438.633 939.324Z" fill="#382C80"/>
<path d="M383.135 934.552C370.572 927.172 374.315 909.199 388.643 907.17C390.818 906.857 390.328 903.054 388.123 903.25C370.346 905.21 365.064 929.073 381.479 937.354C383.351 938.334 384.978 935.59 383.135 934.512V934.552Z" fill="#382C80"/>
<path d="M459.742 889.256C459.791 859.758 460.114 830.338 461.809 800.879C461.956 798.321 457.978 798.341 457.831 800.879C456.096 830.279 455.243 859.836 456.38 889.256C456.459 891.402 459.742 891.421 459.742 889.256Z" fill="#382C80"/>
<path d="M456.371 832.935C454.605 829.767 452.001 827.146 448.844 825.36C448.27 825.021 447.557 825.021 446.982 825.36C443.395 827.653 443.062 832.347 445.101 835.846C447.717 840.256 453.313 841.236 457.988 841.628C460.153 841.804 460.673 838.178 458.507 837.796C455.567 837.287 452.235 836.963 449.824 835.091C448.07 833.739 446.659 830.191 448.844 828.555H446.982C449.76 829.816 452.08 831.904 453.627 834.533C454.071 835.283 455.037 835.534 455.791 835.095C456.544 834.656 456.803 833.692 456.371 832.935Z" fill="#382C80"/>
<path d="M461.447 821.861C461.778 819.971 462.657 818.219 463.975 816.824C464.779 816.001 467.895 813.463 467.523 815.932C467.033 819.147 462.574 822.224 460.153 823.949C459.332 824.503 459.082 825.6 459.581 826.456C460.08 827.312 461.158 827.634 462.045 827.192C466.229 825.232 474.981 817.647 470.727 812.277C468.709 809.719 465.357 810.973 463.201 812.59C460.498 814.621 458.688 817.621 458.154 820.96C457.801 823.086 460.996 824.037 461.447 821.861Z" fill="#382C80"/>
<path d="M460.32 864.962C462.126 854.228 470.796 845.973 481.606 844.695L479.959 841.814C474.628 850.066 467.788 854.976 459.948 860.562C458.311 861.738 459.252 865.03 461.457 864.129C470.61 860.366 478.117 851.987 483.262 843.745C483.958 842.618 483.076 840.687 481.606 840.873C469.207 842.288 459.285 851.817 457.37 864.148C457.096 866.059 459.987 866.922 460.31 864.962H460.32Z" fill="#382C80"/>
</svg>
