<svg width="1000" height="1000" viewBox="0 0 1000 1000" fill="none" xmlns="http://www.w3.org/2000/svg">
<path d="M588.513 640.081C592.654 652.933 589.974 667.009 581.401 677.441C572.828 687.873 559.539 693.229 546.128 691.658C540.67 691.021 535.064 689.042 531.595 684.798C528.41 680.878 527.489 675.606 526.96 670.569C525.068 652.341 527.998 631.761 542.052 620.001C551.355 612.371 563.83 609.839 575.372 613.239" fill="#382C80"/>
<path d="M585.544 640.904C591.502 664.277 571.442 688.111 547.324 685.72C542.15 685.201 536.769 683.211 534.643 678.105C532.516 673 532.418 666.737 532.35 661.279C532.203 650.499 533.976 639.317 540.19 630.321C547.785 619.335 561.24 615.483 573.892 618.472C580.752 620.099 583.437 610.182 576.832 607.947C562.289 603.047 545.158 607.947 534.77 619.06C524.784 629.752 521.05 644.648 520.609 658.937C520.413 666.071 520.609 674.058 522.873 680.879C525.499 688.719 531.409 694.099 539.308 696.461C553.684 700.753 570.56 696.03 581.31 685.798C593.894 673.823 597.206 655.311 591.512 639.268C590.209 635.573 584.584 637.014 585.573 640.904H585.544Z" fill="#382C80"/>
<path d="M669.079 541.082C640.463 587.014 622.216 596.941 584.26 635.544C574.833 645.128 565.111 654.487 556.654 664.944C540.337 685.112 529.214 708.769 519.521 732.662C509.829 756.554 497.491 778.977 486.123 802.242C461.78 852.114 438.485 902.604 411.927 951.408C410.105 954.759 408.007 958.268 404.685 959.904C401.843 961.257 398.629 960.943 395.62 960.521C365.387 956.249 337.144 943.705 311.164 928.054C304.745 924.193 297.963 919.489 296.052 911.962C295.356 909.228 295.454 906.083 297.189 903.701C298.547 902.127 300.251 900.89 302.167 900.085C313.339 894.401 329.98 890.481 339.407 882.102C351.804 871.057 358.449 849.262 364.035 834.151C416.406 692.286 482.36 558.8 585.338 446.365" fill="white"/>
<path d="M666.355 539.484C657.569 553.655 647.526 567.008 636.348 579.38C626.695 589.974 616.12 599.646 605.673 609.437C591.895 622.333 578.322 635.514 565.317 649.185C551.567 663.661 539.954 680.025 530.831 697.784C521.443 715.923 514.494 735.161 505.704 753.575C496.492 772.891 486.505 791.795 477.146 811.072C458.203 850.027 439.759 889.227 419.699 927.623C417.086 932.595 414.472 937.547 411.859 942.48C409.771 946.4 407.782 951.947 404.342 954.906C400.903 957.866 395.326 956.141 391.249 955.426C386.193 954.534 381.165 953.407 376.206 952.074C356.646 946.88 338.163 938.491 320.66 928.485C313.751 924.565 303.471 920.048 300.688 911.884C298.924 906.749 302.256 904.946 306.352 903.064C310.194 901.261 314.192 899.801 318.112 898.262C325.874 895.244 333.792 892.196 340.466 887.051C346.767 882.151 351.373 875.379 355.058 868.431C363.084 853.212 368.023 836.297 374.119 820.244C380.979 802.173 388.11 784.207 395.512 766.344C410.085 731.28 425.893 696.715 443.258 662.945C478.332 594.746 519.835 529.518 569.678 471.09C575.859 463.838 582.137 456.674 588.514 449.599C592.336 445.345 586.142 439.064 582.212 443.287C528.312 501.107 483.438 567.267 446.11 636.818C427.559 671.373 410.771 706.858 395.326 742.913C387.565 761.016 380.117 779.251 372.982 797.616C366.191 815.08 360.066 832.798 353.294 850.262C350.148 858.357 346.532 866.618 341.22 873.556C336.085 880.26 329.049 884.16 321.375 887.384C313.702 890.608 304.921 892.96 297.748 897.488C289.467 902.731 289.908 912.992 295.121 920.351C300.335 927.711 308.675 931.925 316.201 936.198C325.134 941.301 334.341 945.911 343.778 950.006C353.109 954.079 362.714 957.495 372.522 960.228C377.48 961.593 382.488 962.74 387.545 963.667C392.269 964.53 397.345 965.755 402.186 965.108C412.045 963.795 415.906 953.289 420.032 945.596C425.311 935.705 430.482 925.758 435.546 915.755C445.679 895.753 455.459 875.575 465.19 855.358C475.088 834.778 484.79 814.139 495.051 793.726C504.734 774.4 514.749 755.221 522.962 735.2C530.713 716.286 539.024 697.568 550.323 680.457C561.917 662.896 577.146 648.294 591.895 633.417C613.886 611.279 637.827 591.15 656.349 565.797C661.828 558.31 666.914 550.539 671.823 542.669C673.97 539.21 668.531 536.054 666.375 539.484H666.355Z" fill="#382C80"/>
<path d="M311.164 928.054C304.745 924.193 297.963 919.489 296.052 911.963C295.356 909.228 295.454 906.083 297.189 903.701C298.547 902.127 300.251 900.89 302.167 900.085C313.339 894.401 329.98 890.481 339.407 882.102C351.804 871.057 358.449 849.262 364.035 834.151C368.49 822.064 373.103 810.029 377.872 798.047C392.131 803.261 404.205 812.914 418.787 818.03C436.427 824.213 454.773 830.485 473.667 828.006C453.636 869.538 433.83 911.257 411.976 951.408C410.154 954.759 408.056 958.268 404.734 959.904C401.892 961.257 398.678 960.943 395.669 960.522C365.387 956.249 337.144 943.705 311.164 928.054Z" fill="#7F72FF"/>
<path d="M302.167 900.085C313.339 894.401 329.98 890.481 339.407 882.102C348.227 874.262 354.107 860.954 358.811 848.498C363.323 850.029 367.68 851.981 371.826 854.329C375.393 856.289 379.215 858.582 380.646 862.531C383.988 871.783 372.149 881.308 373.09 891.255C373.756 898.272 380.44 902.506 386.732 904.916C399.805 909.924 414.24 911.502 426.539 918.176C427.325 918.563 428.048 919.065 428.685 919.665C423.217 930.328 417.641 940.909 411.957 951.408C410.134 954.759 408.037 958.268 404.715 959.904C401.873 961.257 398.658 960.943 395.65 960.522C365.417 956.249 337.173 943.705 311.193 928.054C304.774 924.193 297.993 919.489 296.082 911.963C295.386 909.228 295.484 906.083 297.218 903.701C298.568 902.131 300.262 900.894 302.167 900.085Z" fill="#382C80"/>
<path d="M304.549 904.162C316.603 898.164 330.372 895.342 341.083 886.796C352.49 877.731 358.331 862.972 363.339 849.752L357.528 853.045C362.888 854.878 368.719 857.318 373.286 860.748C376.922 863.492 376.961 866.628 375.383 870.626C372.071 878.956 365.711 886.796 369.503 896.194C373.296 905.593 383.713 909.189 392.533 911.874C397.962 913.521 403.49 914.814 408.929 916.412C414.181 917.931 421.012 919.518 425.344 923.017L424.54 917.284C420.901 924.379 417.21 931.455 413.466 938.511C411.604 942.029 409.742 945.547 407.811 949.026C406.616 951.182 405.391 953.926 403.225 955.288C400.285 957.15 395.846 955.857 392.67 955.288C388.979 954.668 385.311 953.929 381.665 953.074C374.85 951.482 368.127 949.519 361.526 947.194C347.835 942.263 334.601 936.148 321.973 928.917C316.025 925.555 290.143 911.62 304.51 904.152C309.909 901.359 305.137 893.205 299.747 896.008C293.867 899.066 290.251 903.848 291.044 910.708C291.701 916.314 294.866 921.282 298.963 925.046C303.471 929.181 308.9 932.229 314.172 935.277C320.052 938.668 326.011 941.882 332.097 944.871C344.588 951.095 357.617 956.179 371.022 960.061C377.553 961.925 384.186 963.414 390.887 964.52C397.247 965.559 403.94 966.705 409.409 962.413C414.877 958.121 417.768 950.555 420.953 944.577C424.952 937.09 428.872 929.576 432.713 922.037C433.585 920.332 433.634 917.656 431.978 916.314C423.109 909.14 410.31 907.023 399.579 904.064C392.239 902.035 375.883 898.772 377.941 888.051C379.646 879.182 387.692 872.371 385.526 862.659C383.184 852.134 368.994 846.979 360.046 843.941C357.479 843.059 355.146 844.921 354.245 847.234C349.776 859.052 344.445 873.125 333.665 880.652C323.473 887.766 310.87 890.51 299.835 896.008C294.347 898.723 299.1 906.867 304.549 904.162Z" fill="#382C80"/>
<path d="M451.412 851.663C439.397 849.547 427.725 847.126 416.23 842.912C404.568 838.639 393.837 832.798 383.311 826.252C380.616 824.586 378.294 828.702 380.852 830.446C400.932 844.166 426.657 853.388 450.961 854.946C452.823 855.064 453.283 852.006 451.412 851.654V851.663Z" fill="white"/>
<path d="M666.355 539.484C657.569 553.655 647.526 567.008 636.348 579.38C626.695 589.974 616.12 599.646 605.673 609.437C591.895 622.333 578.322 635.514 565.317 649.185C551.567 663.661 539.954 680.025 530.831 697.784C521.443 715.923 514.494 735.161 505.704 753.575C496.492 772.891 486.505 791.795 477.146 811.072C458.203 850.027 439.759 889.227 419.699 927.623C417.086 932.595 414.472 937.547 411.859 942.48C409.771 946.4 407.782 951.947 404.342 954.906C400.903 957.866 395.326 956.141 391.249 955.426C386.193 954.534 381.165 953.407 376.206 952.074C356.646 946.88 338.163 938.491 320.66 928.485C313.751 924.565 303.471 920.048 300.688 911.884C298.924 906.749 302.256 904.946 306.352 903.064C310.194 901.261 314.192 899.801 318.112 898.262C325.874 895.244 333.792 892.196 340.466 887.051C346.767 882.151 351.373 875.379 355.058 868.431C363.084 853.212 368.023 836.297 374.119 820.244C380.979 802.173 388.11 784.207 395.512 766.344C410.085 731.28 425.893 696.715 443.258 662.945C478.332 594.746 519.835 529.518 569.678 471.09C575.859 463.838 582.137 456.674 588.514 449.599C592.336 445.345 586.142 439.064 582.212 443.287C528.312 501.107 483.438 567.267 446.11 636.818C427.559 671.373 410.771 706.858 395.326 742.913C387.565 761.016 380.117 779.251 372.982 797.616C366.191 815.08 360.066 832.798 353.294 850.262C350.148 858.357 346.532 866.618 341.22 873.556C336.085 880.26 329.049 884.16 321.375 887.384C313.702 890.608 304.921 892.96 297.748 897.488C289.467 902.731 289.908 912.992 295.121 920.351C300.335 927.711 308.675 931.925 316.201 936.198C325.134 941.301 334.341 945.911 343.778 950.006C353.109 954.079 362.714 957.495 372.522 960.228C377.48 961.593 382.488 962.74 387.545 963.667C392.269 964.53 397.345 965.755 402.186 965.108C412.045 963.795 415.906 953.289 420.032 945.596C425.311 935.705 430.482 925.758 435.546 915.755C445.679 895.753 455.459 875.575 465.19 855.358C475.088 834.778 484.79 814.139 495.051 793.726C504.734 774.4 514.749 755.221 522.962 735.2C530.713 716.286 539.024 697.568 550.323 680.457C561.917 662.896 577.146 648.294 591.895 633.417C613.886 611.279 637.827 591.15 656.349 565.797C661.828 558.31 666.914 550.539 671.823 542.669C673.97 539.21 668.531 536.054 666.375 539.484H666.355Z" fill="#382C80"/>
<path d="M352.892 884.621C350.609 879.044 346.12 874.566 340.054 873.449C337.536 872.978 336.458 876.585 338.986 877.369C343.55 878.629 347.31 881.864 349.237 886.189C350.158 888.237 353.755 886.757 352.892 884.65V884.621Z" fill="white"/>
<path d="M338.79 892.882C337.402 888.695 334.598 885.123 330.862 882.778C328.529 881.357 326.511 884.914 328.735 886.404C331.51 888.225 333.642 890.871 334.831 893.97C335.742 896.42 339.731 895.4 338.751 892.882H338.79Z" fill="white"/>
<path d="M663.072 477.676C652.016 452.136 624.585 437.828 597.314 443.376C585.074 445.816 580.478 451.617 572.442 460.81C556.52 479.018 541.376 497.87 527.009 517.366C514.21 534.702 503.626 553.351 490.445 570.217C489.481 571.588 488.303 572.796 486.956 573.794C484.212 575.587 480.694 575.44 477.46 575.999C471.147 577.143 465.69 581.08 462.613 586.71C459.791 591.973 458.987 599.519 462.035 604.772C471.56 602.655 476.323 607.232 485.369 608.907C496.08 610.867 506.409 612.827 516.435 617.335C526.068 621.647 534.859 627.635 543.13 634.182C554.89 643.472 566.121 654.762 569.972 669.168C571.119 673.48 572.657 679.036 577.097 679.428C580.037 679.693 582.506 677.311 584.496 675.116C614.121 642.472 642.129 608.417 670.138 574.372" fill="white"/>
<path d="M665.796 476.088C658.182 458.85 643.452 445.483 625.166 440.485C614.593 437.544 603.425 437.494 592.826 440.338C585.26 442.494 579.331 447.08 574.088 452.803C558.722 469.581 544.423 487.436 530.645 505.527C516.66 523.873 504.802 543.639 491.121 562.191C489.318 564.641 487.368 568.306 484.781 570.031C482.713 571.383 479.881 571.246 477.548 571.599C472.46 572.351 467.71 574.595 463.897 578.047C456.008 585.182 453.293 597.481 458.223 607.006C459.265 608.71 461.295 609.536 463.23 609.045C471.198 607.516 479.253 612.288 486.976 613.758C496.648 615.601 506.419 617.678 515.396 621.843C524.146 626.073 532.369 631.316 539.896 637.465C546.756 642.894 553.469 648.872 558.516 656.085C560.921 659.407 562.879 663.031 564.337 666.865C565.64 670.451 566.199 674.322 568.012 677.723C572.099 685.347 580.282 685.749 586.377 680.134C593.913 673.186 600.44 664.679 607.202 656.976C614.226 648.98 621.161 640.911 628.008 632.77C643.325 614.533 658.564 596.177 673.352 577.508C676.841 573.098 670.824 566.728 667.041 571.197C640.052 602.773 613.915 635.044 586.23 666.032C585.044 667.364 579.537 675.253 577.518 674.626C575.499 673.999 574.578 667.766 574.098 666.1C571.384 658.078 567.013 650.715 561.27 644.491C549.101 630.93 534.176 620.125 517.493 612.798C507.556 608.525 497.148 606.683 486.623 604.556C482.487 603.713 478.656 602.116 474.628 600.94C470.161 599.665 465.45 599.507 460.908 600.479L465.916 602.518C461.78 594.619 467.013 584.652 474.687 581.35C478.656 579.635 483.115 580.184 487.093 578.547C491.327 576.822 493.797 573.01 496.452 569.492C508.928 552.94 519.306 534.937 531.605 518.257C544.267 501.107 557.542 484.447 571.432 468.277C576.332 462.525 581.232 455.537 587.661 451.382C594.972 446.6 604.458 445.777 612.965 446.267C633.496 447.452 652.008 460.614 660.397 479.293C662.063 482.997 667.462 479.783 665.845 476.117L665.796 476.088Z" fill="#382C80"/>
<path d="M324.061 893.029L318.857 888.198C317.073 886.532 314.368 889.236 316.172 890.883L321.424 895.665C323.188 897.272 325.825 894.685 324.061 893.029Z" fill="white"/>
<path d="M695.824 538.72C689.591 570.756 660.103 572.569 666.551 604.556C674.087 641.894 673.872 680.447 673.538 718.638C672.921 789.855 667.894 861.845 668.972 932.807C669.03 936.61 669.217 940.716 671.441 943.685C673.323 946.204 676.341 947.419 679.173 948.438C707.927 958.709 738.777 960.727 769.049 958.944C776.527 958.503 784.729 957.484 789.904 951.711C791.785 949.614 793.187 946.733 792.736 943.871C792.265 941.848 791.329 939.962 790.002 938.364C782.759 928.133 769.843 916.931 765.413 905.152C759.533 889.609 763.816 867.216 765.894 851.252C775.084 780.55 779.592 709.319 779.388 638.023C779.202 573.549 773.694 504.694 736.69 453.783" fill="white"/>
<path d="M692.776 537.877C690.169 550.509 682.858 559.261 674.499 568.6C667.286 576.665 661.857 585.485 661.994 596.667C662.102 605.164 664.591 613.67 665.747 622.069C667.09 631.79 667.933 641.571 668.54 651.371C669.755 670.971 669.746 690.571 669.52 710.239C669.158 750.341 667.56 790.403 666.218 830.485C665.551 850.154 664.973 869.823 664.679 889.501C664.529 899.817 664.473 910.133 664.512 920.449C664.512 928.289 662.925 939.011 667.678 945.861C672.137 952.28 682.005 954.152 689.032 956.141C698.034 958.652 707.204 960.519 716.472 961.727C734.637 964.142 753.005 964.634 771.274 963.197C778.633 962.619 786.13 961.168 791.775 956.063C798.508 949.987 798.243 942.147 793.157 935.198C784.249 923.037 770.94 912.874 767.902 897.39C764.864 881.906 768.608 865.197 770.637 849.703C773.211 829.992 775.419 810.242 777.261 790.452C780.966 750.599 783.194 710.635 783.945 670.559C785.18 604.125 785.533 531.762 753.222 471.619C749.461 464.623 745.204 457.906 740.482 451.519C737.14 446.972 729.437 451.284 732.779 456.018C770.225 509.134 774.253 576.705 774.459 639.581C774.704 714.708 769.176 789.443 759.533 863.913C757.652 878.427 755.858 894.656 761.875 908.464C764.962 915.569 770.068 921.645 775.096 927.456C777.555 930.318 780.084 933.121 782.504 936.022C784.464 938.383 788.727 942.411 788.188 945.714C787.022 952.897 775.664 954.083 770.117 954.475C761.297 955.092 752.477 955.269 743.657 955.083C725.498 954.7 707.397 952.466 689.894 947.399C686.057 946.391 682.286 945.144 678.605 943.666C674.224 941.784 673.381 938.599 673.205 934.091C672.833 924.409 672.989 914.677 673.019 904.995C673.097 885.855 673.509 866.775 674.058 847.596C675.155 809.259 676.831 770.941 677.37 732.593C677.899 694.853 678.517 656.731 672.833 619.315C670.873 606.34 665.973 593.257 673.47 581.213C678.948 572.393 687.19 565.65 692.384 556.605C695.421 551.307 697.579 545.552 698.773 539.563C699.577 535.643 693.52 533.908 692.687 537.887L692.776 537.877Z" fill="#382C80"/>
<path d="M769.049 958.944C776.527 958.503 784.729 957.483 789.904 951.711C791.785 949.614 793.187 946.733 792.736 943.871C792.265 941.848 791.329 939.962 790.002 938.364C782.759 928.132 769.843 916.931 765.413 905.151C759.533 889.609 763.816 867.216 765.894 851.251C767.547 838.472 769.052 825.67 770.411 812.845C755.359 810.836 740.188 813.776 724.89 811.532C706.417 808.817 687.249 805.838 671.676 794.872C670.118 840.932 668.276 887.1 668.972 932.817C669.03 936.619 669.217 940.725 671.441 943.695C673.323 946.213 676.341 947.429 679.173 948.458C707.927 958.708 738.777 960.727 769.049 958.944Z" fill="#7F72FF"/>
<path d="M700.645 536.309C698.117 548.422 690.394 556.889 681.545 565.023C673.92 572.02 665.718 579.419 663.091 589.846C661.494 596.158 662.376 602.243 663.542 608.545C665.375 618.443 666.659 628.419 667.55 638.445C669.314 658.25 669.697 678.125 669.638 697.989C669.501 738.552 668.05 779.075 666.629 819.598C665.924 839.795 665.257 859.993 664.875 880.191C664.686 889.991 664.575 899.791 664.542 909.591C664.542 919.185 663.562 929.544 665.14 938.991C666.649 947.987 673.597 951.094 681.457 953.691C690.378 956.687 699.515 958.997 708.789 960.6C727.274 963.567 746.023 964.552 764.717 963.54C772.332 963.197 780.397 962.923 787.257 959.277C794.117 955.631 799.4 948.036 796.283 940.304C793.343 933.072 786.483 926.908 781.495 921.086C776.507 915.265 771.332 909.209 769.049 901.8C764.394 886.747 767.942 869.793 770.029 854.593C772.714 835.062 774.929 815.393 776.801 795.793C780.721 755.437 783.092 714.969 783.916 674.391C784.67 638.641 784.964 602.586 780.691 567.022C776.771 534.026 769.098 501.029 753.251 471.56C749.491 464.565 745.233 457.847 740.511 451.461C737.17 446.913 729.467 451.225 732.809 455.959C770.911 509.996 774.4 578.821 774.527 642.668C774.573 681.404 773.234 720.114 770.509 758.798C769.137 778.104 767.426 797.378 765.374 816.618C763.512 834.062 760.954 851.408 758.984 868.833C757.289 883.778 756.515 900.193 764.58 913.57C768.569 920.175 773.861 925.947 778.918 931.749C781.299 934.473 783.7 937.198 785.778 940.128C786.758 941.49 788.345 943.254 788.326 945.028C788.326 946.988 786.532 948.948 785.072 950.104C779.192 954.779 770.284 954.455 763.228 954.759C754.075 955.161 744.892 955.181 735.788 954.71C717.616 953.94 699.64 950.641 682.378 944.91C678.762 943.675 674.959 942.656 673.822 938.56C672.686 934.463 673.215 929.338 673.176 925.006C673.078 915.206 673.078 905.406 673.176 895.606C673.362 875.938 673.862 856.279 674.479 836.61C675.684 797.783 677.311 758.955 677.595 720.098C677.889 682.153 678.066 643.874 670.735 606.467C669.569 600.587 668.775 594.884 670.882 589.072C672.519 584.554 675.567 580.723 678.84 577.263C686.112 569.59 694.52 563.004 700.233 553.969C703.354 549.05 705.549 543.604 706.711 537.897C707.525 533.977 701.468 532.242 700.635 536.221L700.645 536.309Z" fill="#382C80"/>
<path d="M642.335 545.011C654.301 583.976 659.828 636.749 655.408 677.311C654.693 683.858 653.889 691.031 657.368 696.578C661.2 702.791 668.805 704.193 674.557 707.976C680.31 711.758 684.916 715.247 691.355 717.844C706.711 724.048 723.312 726.576 739.776 727.448C752.977 728.144 788.776 733.083 796.332 716.413C800.184 707.995 793.079 700.733 790.452 693.403C787.277 684.583 788.492 674.675 789.472 665.512C793.392 625.675 791.609 584.692 782.798 545.609C778.124 524.863 771.323 504.449 761.395 485.614C756.966 477.205 751.752 466.249 744.784 459.634C736.513 451.794 722.783 452.205 712.072 452.842C698.264 453.666 684.269 455.41 671.578 460.937C658.887 466.464 647.529 476.225 642.698 489.181" fill="white"/>
<path d="M637.788 546.266C644.669 569.391 649.071 593.182 650.92 617.238C651.965 629.461 652.374 641.731 652.145 653.997C652.038 659.583 651.773 665.179 651.312 670.746C650.852 676.312 649.764 682.182 650.146 687.876C650.528 693.57 652.292 698.94 656.487 702.86C660.338 706.457 665.238 708.172 669.805 710.622C674.96 713.395 679.487 717.207 684.701 719.912C690.61 722.85 696.816 725.15 703.213 726.772C715.6 730.085 728.34 731.388 741.129 732.26C748.352 732.721 755.565 733.387 762.807 733.397C777.037 733.397 801.36 730.849 802.134 711.935C802.36 706.565 799.773 701.645 797.342 697.039C794.455 691.682 793 685.67 793.118 679.585C793.187 665.865 795.47 652.145 795.902 638.494C797.646 583.888 788.855 528.352 763.503 479.577C758.495 469.944 752.958 458.34 743.187 452.656C734.034 447.335 722.764 447.511 712.543 448.099C688.68 449.481 662.416 454.175 646.363 473.697C642.862 477.972 640.066 482.779 638.082 487.936C635.877 493.601 645.001 496.051 647.187 490.445C655.605 468.885 680.222 460.722 701.292 458.448C711.298 457.36 722.549 455.959 732.447 458.448C742.786 461.075 747.989 470.561 752.742 479.361C764.382 500.798 772.99 523.746 778.32 547.55C783.885 572.943 786.671 598.866 786.631 624.862C786.631 637.929 786.023 650.966 784.808 663.974C783.701 675.577 782.28 687.327 787.366 698.274C789.267 702.351 792.736 706.682 792.658 711.376C792.658 714.561 790.6 717.158 788.081 718.913C782.485 722.833 774.861 723.509 768.266 723.813C760.831 724.045 753.389 723.826 745.98 723.156C736.298 722.431 726.635 721.951 717.061 720.216C705.016 718.031 693.158 714.62 682.849 707.868C678.759 705.065 674.483 702.543 670.05 700.322C665.601 698.195 661.338 696 659.995 690.865C658.653 685.73 659.829 680.085 660.328 674.95C660.828 669.815 661.191 664.385 661.387 659.084C661.808 648.039 661.602 636.965 660.936 625.93C659.645 603.367 656.329 580.966 651.028 558.996C649.774 553.894 648.379 548.824 646.844 543.787C645.08 537.995 635.966 540.464 637.749 546.295L637.788 546.266Z" fill="#382C80"/>
<path d="M741.178 701.576C757.417 706.28 774.782 705.242 790.345 698.636C796.597 696.02 793.03 687.18 786.699 689.973C772.954 695.909 757.742 697.571 743.04 694.746C738.61 693.923 736.729 700.263 741.158 701.606L741.178 701.576Z" fill="#382C80"/>
<path d="M790.002 938.354C782.76 928.123 769.843 916.921 765.414 905.142C761.258 894.087 762.209 879.574 763.846 866.363C759.137 865.626 754.37 865.33 749.606 865.481C745.529 865.579 741.09 865.814 737.993 868.647C730.731 875.291 736.798 889.227 731.339 897.596C727.488 903.476 719.579 904.142 712.905 903.358C699.009 901.712 685.465 896.4 671.5 896.596C670.623 896.571 669.747 896.68 668.903 896.92C668.795 908.905 668.786 920.871 668.972 932.807C669.031 936.61 669.217 940.716 671.441 943.685C673.323 946.204 676.341 947.419 679.174 948.448C707.927 958.709 738.777 960.727 769.049 958.944C776.527 958.503 784.729 957.484 789.904 951.711C791.785 949.614 793.187 946.733 792.736 943.871C792.266 941.845 791.33 939.955 790.002 938.354Z" fill="#382C80"/>
<path d="M794.079 935.973C786.807 925.898 776.86 917.51 771.117 906.377C764.982 894.48 767.011 879.103 768.559 866.363C768.574 864.237 767.153 862.369 765.1 861.816C755.751 860.356 741.257 858.259 733.975 866.001C727.39 872.988 730.486 882.818 728.771 891.255C726.527 902.32 711.935 898.723 704.154 897.135C692.658 894.734 679.477 890.03 667.649 892.392C665.612 892.975 664.203 894.831 664.189 896.949C664.124 904.495 664.101 912.041 664.121 919.587C664.121 926.359 663.435 933.817 664.964 940.461C666.316 946.341 670.334 949.997 675.744 952.221C682.177 954.726 688.787 956.751 695.52 958.278C709.277 961.522 723.312 963.441 737.435 964.011C750.478 964.608 764.169 964.912 777.105 962.874C790.041 960.835 803.447 949.487 794.059 936.022C790.609 931.122 782.426 935.787 785.915 940.785C788.14 943.979 788.796 946.282 785.749 949.252C783.85 950.977 781.554 952.206 779.065 952.829C773.028 954.554 766.452 954.475 760.229 954.681C745.468 955.289 730.683 954.603 716.041 952.633C708.777 951.595 701.579 950.142 694.481 948.282C691.156 947.413 687.863 946.433 684.603 945.342C681.761 944.411 677.615 943.607 675.528 941.255C673.568 939.06 673.744 935.542 673.676 932.827C673.588 928.672 673.578 924.517 673.558 920.361C673.519 912.521 673.539 904.714 673.617 896.939L670.148 901.487C675.793 900.36 682.604 902.104 688.131 903.251C694.07 904.476 699.891 905.995 705.908 907.063C714.826 908.65 725.792 909.944 732.936 903.006C739.796 896.342 738.023 886.855 738.816 878.28C739.228 874.115 740.776 871.244 745.177 870.499C750.714 869.568 757.025 870.078 762.532 870.93L759.063 866.383C757.358 880.397 755.996 895.842 761.915 909.091C767.383 921.322 778.154 930.083 785.876 940.755C789.453 945.616 797.646 940.912 794.079 935.973Z" fill="#382C80"/>
<path d="M679.154 829.211C701.439 839.09 728.389 842.931 752.566 840.148C755.614 839.795 755.741 835.052 752.566 835.248C740.492 836.111 728.536 836.326 716.492 834.817C704.075 833.269 692.325 829.917 680.448 826.115C678.674 825.546 677.4 828.398 679.154 829.172V829.211Z" fill="white"/>
<path d="M754.8 904.181C758.5 901.259 763.304 900.122 767.922 901.075C770.441 901.545 771.519 897.939 768.99 897.155C763.032 895.371 757.083 897.155 752.33 901.016C750.605 902.437 752.957 905.544 754.761 904.152L754.8 904.181Z" fill="white"/>
<path d="M763.885 917.813C766.349 915.627 769.431 914.258 772.705 913.893C775.341 913.599 775.449 909.503 772.705 909.689C768.301 910.021 764.148 911.863 760.945 914.903C758.985 916.706 761.925 919.558 763.885 917.843V917.813Z" fill="white"/>
<path d="M774.949 925.506L781.809 923.713C784.171 923.095 783.171 919.401 780.829 920.048L773.969 921.919C771.656 922.547 772.636 926.114 774.949 925.506Z" fill="white"/>
<path d="M602.341 324.051C609.201 307.734 650.067 229.971 670.941 228.599C681.359 227.932 692.501 229.677 702.85 230.49C754.673 234.557 809.308 238.663 859.346 253.579C880.612 259.92 901.741 267.838 919.734 280.843C941.725 296.728 953.407 320.66 945.557 347.992C938.824 371.424 920.42 389.926 899.869 403.049C863.874 426.02 822.391 432.997 780.407 431.243C756.329 430.263 731.407 429.577 708.201 422.815C688.875 417.18 672.705 396.189 661.769 380.009C656.869 372.816 627.067 322.885 635.632 318.563C644.197 314.241 654.174 313.8 663.738 314.368C670.432 314.78 677.096 315.642 683.809 315.868C687.562 315.995 694.001 317.063 696.069 312.928C698.96 307.116 692.227 299.208 700.733 295.778C703.556 294.641 706.731 294.974 709.749 295.356C764.825 302.275 820.774 318.553 874.86 306.019" fill="white"/>
<path d="M605.536 325.923C614.523 304.96 626.577 284.714 639.219 265.8C645.834 255.892 652.939 245.729 661.935 237.83C664.65 235.449 667.619 233.244 670.902 232.636C669.53 232.891 673.783 232.509 672.392 232.568C673.587 232.519 674.793 232.509 675.988 232.509C678.664 232.509 681.339 232.656 684.005 232.842C689.885 233.254 695.637 233.989 701.459 234.498C746.039 238.418 790.766 241.466 834.474 251.639C855.446 256.539 876.614 262.673 896.028 272.16C913.295 280.588 930.328 292.015 938.658 309.988C955.582 346.552 924.35 382.263 895.028 400.226C877.196 410.985 857.585 418.472 837.12 422.335C816.471 426.382 795.597 426.696 774.655 425.804C752.644 424.824 729.732 424.217 708.603 417.357C691.629 411.849 679.075 395.365 669.266 381.342C663.603 373.032 658.401 364.418 653.684 355.538C648.313 345.738 642.443 335.36 639.856 324.374C639.771 323.963 639.692 323.551 639.621 323.139C639.464 322.159 639.817 324.404 639.621 323.012C639.596 322.614 639.596 322.215 639.621 321.816C639.621 320.944 639.072 322.326 639.621 321.914C640.493 321.238 638.396 323.522 638.258 323.394C638.258 323.394 645.393 320.856 646.098 320.68C656.947 318.279 668.295 320.346 679.213 321.091C686.974 321.62 697.833 323.277 701.41 314.359C702.703 311.154 702.331 308.008 701.958 304.676C701.87 303.892 701.4 302.011 701.87 301.334C702.772 300.051 705.947 300.462 707.182 300.541C718.432 301.276 729.722 303.686 740.874 305.519C752.232 307.401 763.581 309.351 774.959 311.066C797.361 314.427 820.156 317.181 842.843 315.799C854.085 315.128 865.24 313.408 876.163 310.664C882.229 309.125 879.642 300.129 873.596 301.344C825.37 311.036 776.654 299.835 728.967 292.524C723.087 291.609 717.181 290.773 711.249 290.015C705.575 289.3 699.685 289.035 694.981 292.857C692.211 295.166 690.66 298.622 690.777 302.226C690.777 303.892 691.12 305.539 691.276 307.195C691.412 308.024 691.445 308.866 691.374 309.704C691.227 310.605 690.757 310.684 691.374 310.262C690.228 311.085 687.631 310.586 686.347 310.527C683.956 310.409 681.574 310.301 679.183 310.145C673.127 309.743 667.09 308.988 661.014 308.773C655.489 308.514 649.952 308.886 644.511 309.88C640.287 310.684 634.368 311.958 631.202 315.143C624.078 322.287 632.692 337.634 635.936 344.601C641.23 355.794 647.146 366.682 653.654 377.216C661.494 390.122 670.804 402.696 681.996 412.937C689.209 419.522 697.401 425.089 706.809 427.931C717.923 431.273 729.575 432.968 741.109 434.144C785.611 438.681 832.553 438.995 874.556 421.708C910.424 406.939 949.193 377.804 952.652 335.977C956.327 291.368 912.658 266.838 876.477 254.275C831.779 238.761 784.357 233.048 737.464 229.069C725.949 228.089 714.424 227.256 702.899 226.345C692.031 225.482 680.026 222.807 669.158 224.757C659.848 226.423 652.292 235.537 646.618 242.397C629.34 263.428 615.709 287.967 603.713 312.31C601.969 315.838 600.293 319.396 598.764 323.022C597.147 326.854 603.88 329.735 605.536 325.874V325.923Z" fill="#382C80"/>
<path d="M638.435 224.287L513.299 236.194C490.886 238.33 468.375 240.467 445.894 239.251C429.322 238.36 412.917 235.645 396.541 232.95C345.748 224.561 294.2 207.96 242.378 207.548C224.924 207.411 207.098 210.645 192.113 219.642C187.501 222.29 183.377 225.711 179.922 229.755C165.722 247.121 166.516 275.727 171.455 296.278C173.738 305.744 176.11 318.377 184.195 324.394C195.071 332.258 209.023 334.521 221.827 330.499C229.314 328.03 236.458 323.384 244.367 323.914C250.247 324.315 255.451 327.559 260.566 330.46C311.125 359.105 372.414 360.017 430.42 356.538C514.171 351.51 607.643 341.838 673.999 285.439" fill="white"/>
<path d="M638.435 220.543C596.736 224.404 554.997 227.962 513.298 231.793C492.934 233.665 472.501 235.537 452.029 234.9C431.841 234.263 411.78 230.911 391.925 227.403C352.412 220.416 313.653 209.449 273.728 204.863C254.99 202.697 235.625 201.394 217.015 205.196C200.463 208.567 182.715 216.339 173.209 230.941C164.781 243.828 162.762 260.272 163.595 275.345C164.031 282.837 165.12 290.278 166.849 297.581C168.525 304.745 170.112 312.065 173.503 318.661C180.902 333.008 199.444 338.76 214.663 336.947C223.483 335.899 230.706 331.067 239.163 329.166C248.326 327.138 256.264 333.851 263.947 337.82C326.667 370.267 401.922 364.495 469.992 358.576C534.79 352.941 602.919 341.455 657.662 303.961C664.495 299.272 671.076 294.228 677.38 288.849C682.123 284.811 675.273 278.069 670.52 281.989C621.245 323.335 556.644 339.172 494.12 346.385C461.829 350.119 429.136 352.5 396.63 353.019C362.271 353.568 327.363 351.187 294.553 340.279C286.339 337.557 278.332 334.249 270.592 330.381C262.957 326.55 255.519 320.817 246.925 319.415C238.33 318.014 230.833 321.993 223.013 324.972C215.663 327.868 207.597 328.416 199.924 326.54C192.623 324.717 185.665 321.101 182.029 314.29C178.717 308.077 177.394 300.805 175.826 293.994C172.631 280.088 171.612 265.025 175.012 251.06C176.668 244.2 179.481 237.458 184.156 232.127C189.859 225.619 198.003 221.17 206.029 218.181C222.983 211.85 240.976 211.723 258.812 212.938C297.581 215.584 335.252 225.815 373.266 233.43C392.053 237.203 411.065 240.496 430.106 242.593C449.657 244.739 469.208 244.396 488.798 242.858C528.822 239.722 568.757 235.018 608.702 230.98C618.6 230 628.507 229.02 638.415 228.04C643.158 227.579 643.227 220.112 638.415 220.553L638.435 220.543Z" fill="#382C80"/>
<path d="M597.108 268.534C581.272 298.835 578.234 334.076 574.97 367.974C573.304 385.242 571.628 402.558 568.198 419.542C565.356 433.605 557.899 449.001 559.378 463.642C560.094 470.845 565.846 476.303 571.697 480.037C588.72 490.905 609.27 493.346 629.086 493.698C664.552 494.335 700.871 488.798 731.986 470.874C738.473 467.141 745.147 462.299 747.352 454.812C749.871 446.257 745.804 437.28 742.864 428.852C735.328 407.292 733.613 381.616 733.907 358.801C734.269 331.361 729.742 303.324 717.55 279.029" fill="white"/>
<path d="M593.972 266.701C574.372 303.196 572.736 345.209 568.179 385.497C566.944 396.434 565.484 407.39 563.2 418.17C561.103 428.068 557.262 437.505 555.253 447.423C553.381 456.655 552.44 466.925 558.193 474.99C563.622 482.615 572.373 487.427 580.821 490.974C598.559 498.422 618.247 499.618 637.269 499.481C657.339 499.324 677.606 497.099 696.98 491.709C706.462 489.074 715.695 485.618 724.577 481.38C732.417 477.636 741.08 473.354 746.941 466.749C753.801 459.016 755.045 449.452 752.497 439.622C749.949 429.793 745.745 420.336 743.618 410.222C741.397 399.186 740.086 387.986 739.698 376.736C739.199 365.181 739.698 353.608 738.983 342.063C737.493 319.249 732.427 296.924 721.862 276.55C718.864 270.768 710.475 275.845 713.199 281.607C721.284 298.728 725.861 317.661 727.546 336.487C729.212 355.048 727.752 373.678 729.604 392.249C730.478 401.832 732.09 411.334 734.426 420.669C736.739 429.646 741.894 438.76 742.364 448.109C742.785 456.469 736.602 461.525 730.016 465.416C722.226 469.97 714.023 473.776 705.516 476.784C688.137 482.862 669.996 486.49 651.616 487.564C633.77 488.74 615.082 488.897 597.569 484.781C589.009 482.892 580.857 479.483 573.5 474.716C570.433 472.658 567.307 469.973 565.729 466.553C563.935 462.691 564.425 457.733 564.964 453.617C566.209 444.209 569.688 435.251 572.03 426.098C574.47 416.553 575.754 406.665 576.93 396.904C582.203 354.646 580.929 309.41 600.235 270.366C602.293 266.211 596.197 262.526 593.963 266.701H593.972Z" fill="#382C80"/>
<path d="M714.787 303.099C719.03 301.325 721.813 297.268 724.263 293.367C736.376 274.081 749.126 251.717 750.4 228.393C750.604 227.081 750.333 225.74 749.636 224.61C748.893 223.838 747.949 223.288 746.911 223.023C742.991 221.612 731.153 215.457 726.9 216.957C720.5 219.201 724.205 225.865 722.98 231.372C722.289 233.809 721.149 236.096 719.618 238.115C709.955 252.619 700.299 267.123 690.649 281.627" fill="white"/>
<path d="M715.914 305.039C721.647 302.422 724.969 296.905 728.203 291.77C732.27 285.302 736.19 278.745 739.698 271.964C746.392 258.998 751.752 245.092 752.977 230.451C753.193 227.903 753.448 225.11 751.772 222.964C750.341 221.131 748.009 220.582 745.96 219.73C741.511 217.868 737.14 215.643 732.407 214.536C728.32 213.556 723.734 213.958 721.411 218.005C718.667 222.807 721.833 228.56 719.285 233.499C715.257 241.339 709.377 248.601 704.497 255.931C699.1 264.026 693.753 272.16 688.454 280.333C686.631 283.126 691.051 285.645 692.893 282.93C700.818 271.268 708.678 259.563 716.472 247.817C719.667 243.024 724.312 237.85 725.645 232.137C726.341 229.099 724.244 222.082 726.85 220.083C729.457 218.083 735.514 221.229 738.12 222.288C739.943 223.032 741.737 223.846 743.54 224.61C746.235 225.757 747.822 226.492 747.587 229.804C746.676 242.74 742.089 255.284 736.435 266.838C733.367 273.11 729.928 279.196 726.351 285.194C722.989 290.829 719.794 298.169 713.611 301.207C711.004 302.501 713.287 306.254 715.874 305.078L715.914 305.039Z" fill="#382C80"/>
<path d="M930.642 373.012C919.587 392.778 920.45 389.926 899.899 403.049C863.904 426.02 822.42 432.997 780.437 431.243C756.358 430.263 731.437 429.577 708.231 422.815C703.703 421.492 699.107 419.973 695.491 416.994C689.973 412.476 688.209 405.597 693.609 400.334C688.757 401.234 683.82 399.267 680.916 395.278C678.012 391.288 677.659 385.985 680.007 381.645C680.644 380.46 681.486 379.048 680.8 377.892C680.33 377.088 679.33 376.824 678.478 376.451C673.931 374.433 673.352 368.856 674.489 364.633C675.626 360.409 680.918 356.195 679.487 351.55C678.644 348.806 675.783 347.277 673.147 346.13C664.794 342.5 656.06 339.821 647.108 338.143C642.747 337.32 638.18 336.673 634.535 334.145C630.889 331.616 628.566 326.54 630.752 322.62C631.95 320.807 633.654 319.386 635.652 318.533C644.217 314.212 654.193 313.771 663.758 314.339C670.452 314.751 677.116 315.613 683.829 315.838C687.582 315.966 694.021 317.034 696.088 312.898C698.979 307.087 692.247 299.178 700.753 295.748C703.576 294.612 706.751 294.945 709.769 295.327C764.845 302.246 820.793 318.524 874.88 305.989" fill="white"/>
<path d="M931.759 366.72C923.782 378.744 912.649 388.75 900.761 396.786C882.342 409.056 861.702 417.605 840.001 421.953C818.079 426.471 795.97 426.931 773.685 425.961C760.759 425.402 747.813 424.756 734.985 423.021C728.465 422.166 721.994 420.969 715.6 419.434C710.318 418.15 704.32 416.867 699.783 413.721C695.863 411.016 694.217 407.341 697.676 403.686C700.861 400.305 697.362 394.522 692.992 395.12C688.013 395.797 683.378 392.406 683.829 387.065C684.044 384.536 685.789 382.606 686.22 380.117C686.699 376.984 685.146 373.891 682.349 372.404C680.546 371.355 679.507 371.14 679.33 368.856C679.125 366.259 680.487 364.231 681.81 362.114C684.975 357.038 686.631 351.285 682.496 346.16C678.576 341.328 671.079 339.3 665.444 337.428C658.625 335.246 651.676 333.495 644.638 332.185C641.826 331.626 631.203 327.932 636.975 324.021C641.875 320.699 648.784 319.935 654.536 319.67C661.465 319.347 668.374 320.209 675.263 320.778C680.595 321.219 686.759 322.169 692.09 321.307C697.421 320.444 701.361 316.907 702.174 311.507C702.403 309.092 702.317 306.657 701.919 304.265C701.665 301.952 701.273 301.109 703.879 300.58C706.819 299.982 710.259 300.933 713.131 301.325C716.649 301.795 720.147 302.305 723.656 302.824C730.457 303.853 737.239 304.96 744.03 306.087C757.613 308.351 771.186 310.684 784.827 312.536C815.492 316.711 846.411 318.239 876.653 310.517C881.906 309.184 879.701 300.158 874.341 301.227C845.342 306.999 815.658 305.539 786.533 301.619C771.48 299.58 756.505 296.973 741.511 294.514C734.259 293.328 727.007 292.181 719.736 291.152C712.876 290.172 704.771 288.016 698.176 290.946C692.296 293.583 690.336 298.914 690.983 305.029C691.211 306.325 691.355 307.634 691.414 308.949C691.414 309.851 690.855 310.693 691.306 310.38C690.14 311.183 687.513 310.684 686.2 310.615C671.941 309.87 657.075 306.989 642.963 310.341C636.916 311.771 629.507 314.192 626.175 319.886C622.843 325.58 624.882 332.626 629.39 336.977C634.672 342.122 642.384 342.72 649.225 344.18C657.06 345.711 664.677 348.203 671.902 351.599C675.048 353.157 674.234 354.078 672.539 356.871C670.716 359.899 669.138 362.663 668.756 366.259C668.364 369.296 668.804 372.382 670.03 375.187C670.81 376.886 671.95 378.394 673.372 379.607C674.087 380.205 676.224 381.959 677.135 381.763L675.626 378.617L675.136 379.548C674.622 380.383 674.26 381.302 674.068 382.263C672.492 387.407 673.206 392.98 676.028 397.561C679.84 403.637 687.21 406.626 694.197 405.655L689.522 397.09C680.996 406.194 686.328 418.092 695.951 423.638C701.42 426.784 707.917 428.293 714.003 429.754C720.642 431.315 727.362 432.513 734.132 433.34C748.234 435.124 762.454 435.634 776.644 436.192C788.643 436.769 800.665 436.644 812.65 435.82C858.014 432.311 907.71 414.642 935.943 377.02" fill="#382C80"/>
<path d="M639.013 286.027C639.455 285.601 639.979 285.268 640.552 285.047C641.142 284.909 641.753 284.879 642.355 284.959C654.762 285.939 666.62 289.917 679.164 290.986C691.708 292.054 704.222 292.407 716.639 294.327C718.324 294.582 720.284 295.082 720.892 296.503C721.5 297.924 720.578 299.139 719.736 300.256L707.76 316.162C704.34 320.709 698.509 326.03 696.882 331.411C694.197 340.329 708.25 353.951 714.287 360.419C709.093 359.576 703.909 360.918 698.734 361.487C689.983 362.467 681.094 361.183 672.274 359.929L638.307 355.087C636.84 354.973 635.411 354.567 634.103 353.892C632.771 352.907 631.717 351.594 631.046 350.08C627.067 342.837 624.666 335.007 621.148 327.598C617.943 320.876 608.506 311.82 616.11 305.529C623.715 299.237 631.438 292.632 639.013 286.027Z" fill="#7F72FF"/>
<path d="M641.571 288.585C642.727 287.683 649.411 289.565 651.273 289.927C655.016 290.633 658.74 291.495 662.464 292.309C669.946 293.91 677.53 294.99 685.161 295.543C693.168 296.16 701.194 296.621 709.171 297.552C711.278 297.797 713.424 298.002 715.512 298.414C716.177 298.509 716.832 298.66 717.472 298.865C717.132 296.905 716.655 296.64 716.041 298.071C714.796 298.639 713.17 301.854 712.327 302.971L708.632 307.871C704.448 313.398 699.538 318.494 695.647 324.208C692.619 328.667 691.316 333.498 692.923 338.751C695.941 348.551 704.31 356.293 711.121 363.613L714.287 355.96C707.584 355.097 701.027 357.067 694.344 357.273C687.337 357.498 680.389 356.557 673.48 355.489C666.293 354.392 659.106 353.317 651.92 352.265C648.326 351.742 644.733 351.216 641.14 350.687C639.915 350.501 638.092 350.521 636.975 349.884C635.857 349.247 635.181 347.561 634.564 346.365C631.457 340.368 629.321 333.939 626.616 327.745C624.538 323.022 621.206 319.033 619.119 314.349C618.413 312.781 617.855 311.409 618.845 309.86C620.481 307.361 624.323 305.264 626.616 303.343C632.016 298.835 637.327 294.22 642.619 289.623C647.519 285.341 640.375 278.295 635.495 282.499C630.614 286.703 625.95 290.672 621.167 294.749C617.11 298.208 611.103 301.677 609.094 306.832C605.605 315.799 613.641 323.335 617.198 330.783C619.785 336.203 621.755 341.906 624.264 347.375C626.577 352.383 629.056 357.851 634.848 359.37C640.64 360.889 647.235 361.173 653.262 362.006C659.606 362.888 665.947 363.744 672.284 364.574C679.36 365.554 686.484 366.534 693.638 366.367C700.567 366.21 707.358 364.084 714.316 364.936C718.422 365.436 719.883 359.84 717.482 357.283C711.905 351.334 705.036 345.238 701.88 337.536C700.077 333.165 701.968 330.146 704.771 326.599C708.407 322.003 712.16 317.573 715.678 312.879L721.656 304.911C723.195 302.844 725.086 300.756 725.312 298.051C725.831 291.868 719.608 290.456 714.826 289.819C701.743 288.055 688.503 288.193 675.43 286.527C668.246 285.605 661.171 283.92 654.036 282.734C648.49 281.803 641.238 279.569 636.504 283.498C632.849 286.478 637.984 291.397 641.571 288.585Z" fill="#7F72FF"/>
<path d="M634.74 134.587C636.04 139.316 635.645 144.35 633.623 148.817C630.859 154.883 625.283 164.291 618.012 164.713C606.82 165.414 595.587 164.423 584.692 161.773C581.017 160.842 577.332 159.587 574.382 157.216C571.432 154.844 569.296 151.159 569.629 147.416C570.139 141.585 576.234 140.085 581.056 139.291C581.879 139.154 584.113 139.291 584.75 138.762C586.132 137.645 585.338 138.115 584.545 136.4C582.82 132.647 581.409 129.472 581.311 125.209C581.164 122.205 581.763 119.212 583.055 116.497C585.015 112.704 591.571 106.118 605.928 103.659" fill="#382C80"/>
<path d="M630.624 135.724C631.908 141.271 630.37 146.073 627.586 150.865C625.626 154.207 622.971 158.509 619.08 159.764C616.62 160.557 613.357 160.126 610.789 160.067C607.604 159.999 604.419 159.803 601.254 159.479C595.079 158.945 588.98 157.743 583.065 155.893C580.125 154.913 573.265 151.59 574.872 147.298C575.852 144.632 581.105 144.446 583.447 144.211C588.083 143.731 592.326 139.958 589.798 135.058C587.465 130.55 585.397 126.042 586.681 120.76C588.641 112.626 599.794 109.411 607.134 107.892C612.759 106.726 610.289 98.5038 604.792 99.3956C596.06 100.797 586.622 104.207 580.85 111.283C577.921 115.076 576.366 119.751 576.44 124.542C576.413 127.598 576.927 130.634 577.959 133.509C578.469 134.93 579.047 136.342 579.684 137.714C579.821 138.017 581.644 141.447 581.183 140.497V135.352C582.98 134.274 583.176 133.859 581.771 134.107C581.118 134.159 580.465 134.238 579.811 134.342C578.782 134.499 577.744 134.695 576.734 134.95C574.394 135.472 572.164 136.404 570.149 137.704C565.836 140.646 563.739 145.91 564.847 151.012C567.454 164.223 582.908 167.241 594.08 168.78C601.084 169.723 608.162 170.002 615.219 169.613C620.697 169.319 625.019 167.956 628.998 164.046C636.926 156.255 641.738 144.446 638.945 133.451C637.592 128.11 629.448 130.373 630.703 135.724H630.624Z" fill="#382C80"/>
<path d="M618.737 137.037C606.889 148.337 604.096 170.289 602.881 185.753C602.557 189.938 602.44 194.24 603.704 198.238C606.801 208.038 616.111 211.664 625.332 213.066C629.693 213.732 630.967 216.652 630.703 220.906L629.723 236.399C629.262 243.789 629.272 252.324 634.917 257.107C638.406 260.047 643.335 260.782 647.902 260.36C650.973 260.109 653.967 259.271 656.722 257.891C666.414 252.854 671.98 239.839 672.931 229.471C674.149 214.67 674.437 199.806 673.793 184.969C673.48 176.022 672.745 167.094 672.5 158.146C672.323 151.561 670.618 146.386 665.64 141.633C657.177 133.617 645.701 129.583 634.084 130.54" fill="white"/>
<path d="M615.983 134.293C608.623 141.389 604.625 151.169 602.185 160.93C599.695 170.906 597.559 182.49 598.186 192.76C598.862 204.069 605.752 212.056 616.228 215.761C618.612 216.553 621.053 217.163 623.529 217.584C625.763 218.015 625.881 218.064 625.871 220.377C625.871 227.031 624.744 233.685 624.587 240.339C624.323 251.619 628.507 263.026 640.885 265.192C652.792 267.26 663.64 261.88 670.402 252.197C677.057 242.691 678.419 231.549 679.105 220.279C679.904 206.034 679.904 191.756 679.105 177.511C678.419 164.134 680.359 148.405 670.157 138.066C660.623 128.659 647.436 123.914 634.093 125.091C627.145 125.718 626.959 136.498 634.093 136.077C643.697 135.509 653.517 138.321 660.779 144.819C668.795 151.982 667.061 163.233 667.639 173.043C668.344 185.195 668.756 197.366 668.55 209.538C668.384 219.495 668.687 230.118 665.071 239.585C661.749 248.238 655.271 255.265 645.471 255.265C633.711 255.265 634.387 243.505 634.858 234.832C635.299 226.717 638.856 212.537 628.605 208.96C624.93 207.676 620.961 207.637 617.306 206.098C613.461 204.663 610.328 201.783 608.574 198.072C606.291 192.75 607.359 186.312 607.839 180.726C608.213 175.966 608.838 171.229 609.711 166.535C611.544 156.931 614.513 146.935 621.549 139.791C625.077 136.224 619.658 130.814 616.052 134.293H615.983Z" fill="#382C80"/>
<path d="M648.725 206C640.277 208.087 630.81 208.029 622.186 207.519C616.826 207.205 615.464 216.192 620.903 217.045C625.926 217.861 631.04 217.963 636.093 217.348C641.463 216.682 645.716 214.987 650.646 212.978C654.84 211.253 653.37 204.863 648.686 206H648.725Z" fill="#382C80"/>
<path d="M600.676 121.475C605.389 134.597 612.651 147.935 625.176 154.138C626.535 154.923 628.075 155.341 629.644 155.354C632.281 155.197 634.466 152.962 635.23 150.454C635.866 147.858 635.73 145.133 634.838 142.614C637.014 144.779 639.366 147.033 642.375 147.611C645.383 148.19 649.068 146.161 648.99 143.094C651.93 143.858 653.008 147.425 653.507 150.434C654.848 158.513 655.744 166.659 656.193 174.836C655.823 171.368 656.238 167.861 657.408 164.575C658.633 161.145 661.504 157.598 665.111 158.088C667.394 158.391 669.187 160.312 670.011 162.449C670.705 164.644 671.036 166.938 670.991 169.24C671.285 175.355 671.863 181.444 672.725 187.507C672.911 188.85 673.431 190.516 674.783 190.663C675.369 190.674 675.944 190.495 676.42 190.153C679.291 188.389 680.996 185.253 682.506 182.245C687.749 171.837 693.403 162.841 696.128 151.198C697 147.465 697.637 143.486 696.382 139.86C695.059 136.057 691.688 133.98 687.807 133.813C688.062 121.661 670.373 114.889 661.142 111.146C648.119 106.016 634.297 103.21 620.305 102.855C609.437 102.483 597.687 103.668 589.464 110.783" fill="#382C80"/>
<path d="M597.177 122.435C601.146 134.342 606.81 146.318 616.777 154.354C621.54 158.176 628.125 162.468 634.29 159.156C640.905 155.608 641.493 147.739 639.787 141.242L631.104 146.298C634.828 150.003 639.288 153.56 644.874 152.855C650.244 152.178 653.694 148.366 654.301 143.055L647.51 148.229C647.422 148.229 648.147 151.071 648.294 151.816C648.774 154.354 649.117 156.941 649.44 159.509C650.077 164.595 650.42 169.691 650.871 174.797H661.396C661.092 171.857 661.034 168.672 662.161 165.859C663.141 163.537 664.562 161.665 665.581 165.046C666.384 167.721 665.953 171.004 666.1 173.787C666.309 177.342 666.607 180.892 666.992 184.44C667.541 189.34 668.452 195.788 674.832 195.984C680.173 196.151 684.132 190.506 686.308 186.361C693.168 173.317 717.374 131.295 687.856 128.825L692.815 133.725C692.55 124.582 685.818 118.221 678.438 113.772C670.448 109.077 661.91 105.384 653.017 102.777C641.229 99.2783 628.995 97.5122 616.699 97.5336C605.605 97.5336 594.541 99.7386 585.917 107.098C580.87 111.401 588.082 118.319 593.11 114.301C600.038 108.755 609.368 107.804 617.924 107.873C636.346 108.139 654.474 112.537 670.971 120.74C676.047 123.366 682.888 127.277 682.897 133.784C682.897 136.724 685.181 138.439 687.798 138.733C697.803 139.85 687.798 160.499 685.485 165.144C683.103 170.044 680.506 174.777 677.978 179.569C676.998 181.529 675.391 183.156 674.401 184.999C672.441 186.155 673.666 186.782 678.076 186.87L677.899 186.047C678.262 184.724 677.321 182.039 677.145 180.647C676.067 171.827 677.909 155.001 665.679 153.266C654.458 151.669 650.401 166.32 650.842 174.826C651.185 181.549 661.622 181.637 661.367 174.826C661.061 167.213 660.305 159.624 659.103 152.1C658.182 145.946 656.712 140.428 650.381 137.968C646.863 136.616 643.844 140.026 643.59 143.143L644.119 142.163L643.697 142.398C643.639 142.339 642.463 142.163 642.237 142.084C640.787 141.555 639.542 140.017 638.474 138.978C634.779 135.381 628.41 138.978 629.791 144.035C630.183 145.465 631.183 148.503 629.87 149.777C628.557 151.051 626.763 149.611 625.46 148.895C622.027 146.992 618.945 144.516 616.346 141.575C610.887 135.558 607.153 128.031 604.184 120.534C602.498 116.291 595.668 117.947 597.177 122.494V122.435Z" fill="#382C80"/>
<path d="M618.335 172.886C617.59 175.003 616.924 177.119 616.267 179.266C615.699 181.147 614.719 183.303 614.572 185.283C614.307 188.899 619.158 189.144 621.706 189.085C624.529 189.017 624.499 184.871 621.706 184.714C620.834 184.665 618.992 184.842 618.296 184.254L618.943 185.812C619.06 183.852 619.982 181.774 620.462 179.883C620.942 177.992 621.442 175.885 621.873 173.866C622.144 172.889 621.571 171.877 620.594 171.607C619.617 171.336 618.606 171.909 618.335 172.886Z" fill="#382C80"/>
<path d="M627.821 195.72C629.299 194.573 630.992 193.733 632.8 193.25C635.798 192.476 634.495 187.713 631.526 188.605C629.135 189.285 626.976 190.606 625.283 192.427C624.555 193.178 624.484 194.348 625.116 195.181C625.754 196.015 626.912 196.246 627.821 195.72Z" fill="#382C80"/>
<path d="M625.852 166.183C627.076 166.005 628.309 165.9 629.546 165.869C630.791 165.957 632.043 165.918 633.28 165.751C635.495 165.281 634.995 162.419 633.28 161.733C630.614 160.675 626.969 161.861 624.568 163.135C622.765 164.115 624.127 166.437 625.852 166.183Z" fill="#382C80"/>
<path d="M614.738 162.606C613.239 161.399 611.593 160.388 609.838 159.597C608.683 159.279 607.473 159.872 607.016 160.979C606.59 162.067 607.002 163.304 607.996 163.919C609.643 164.891 611.404 165.655 613.239 166.192C614.197 166.46 615.205 165.967 615.581 165.046C615.944 164.131 615.601 163.088 614.768 162.566L614.738 162.606Z" fill="#382C80"/>
<path d="M606.36 172.121C606.119 173.419 606.654 174.739 607.73 175.503C608.806 176.267 610.228 176.338 611.374 175.684C612.521 175.03 613.183 173.77 613.073 172.455C613.178 170.439 611.638 168.715 609.623 168.593C608.662 168.55 607.726 168.904 607.036 169.573C606.642 169.963 606.353 170.445 606.193 170.975C605.955 171.727 606.029 172.542 606.399 173.239C606.803 173.939 607.551 174.369 608.359 174.366C609.163 174.353 609.903 173.927 610.319 173.239C610.476 172.969 610.595 172.679 610.672 172.376C610.74 172.151 610.672 172.239 610.544 172.66C610.672 172.455 610.603 172.543 610.348 172.905C610.515 172.739 610.427 172.807 610.084 173.092C610.289 172.974 610.182 173.013 609.77 173.209C610.113 173.111 609.064 173.209 609.603 173.209C609.133 173.131 609.025 173.121 609.26 173.209C608.859 173.023 608.761 172.984 608.966 173.101C608.643 172.827 608.574 172.768 608.741 172.925C608.908 173.082 608.849 173.033 608.584 172.709C608.761 172.994 608.398 172.063 608.516 172.572C608.633 173.082 608.457 171.876 608.516 172.435C608.516 172.798 608.672 171.778 608.516 172.308C608.359 172.837 608.751 171.896 608.574 172.19C608.398 172.484 609.035 171.759 608.653 172.082C609.006 171.837 609.094 171.769 608.908 171.886C609.309 171.729 609.407 171.69 609.202 171.749C609.633 171.749 609.741 171.749 609.505 171.749C609.917 171.818 610.015 171.827 609.78 171.749C609.992 171.803 610.183 171.919 610.329 172.082C610.182 171.925 610.221 171.984 610.436 172.249L610.319 172.043C610.449 172.357 610.479 172.406 610.407 172.19C610.378 172.114 610.358 172.035 610.348 171.955C610.387 172.288 610.387 172.347 610.348 172.131C610.348 171.022 609.449 170.122 608.339 170.122C607.23 170.122 606.33 171.022 606.33 172.131L606.36 172.121Z" fill="#382C80"/>
<path d="M360.703 44.5842C366.014 39.3804 375.785 43.8296 374.668 51.3756C373.119 61.94 360.389 64.978 351.961 67.7122C333.913 73.5416 316.698 81.6881 300.746 91.9476C269.092 112.361 242.436 141.379 226.266 175.512C217.045 194.975 212.184 215.741 209.685 237.066C207.09 258.089 206.762 279.33 208.705 300.423C210.724 320.866 215.379 340.946 224.042 359.635C233.019 378.98 246.65 395.953 261.831 410.8C279.177 427.774 298.835 442.16 318.671 456.057C327.677 462.339 337.888 469.12 342.622 479.449C344.278 483.075 345.866 489.318 342.622 492.591C340.858 494.365 336.222 494.884 335.399 491.954C333.9 486.603 325.766 488.848 327.079 494.247C329.088 502.479 339.28 504.969 346.189 501.264C355.43 496.315 355.068 483.977 351.412 475.637C347.11 465.788 338.79 458.595 330.352 452.323C321.101 445.463 311.546 439.015 302.334 432.096C283.714 418.121 265.868 402.696 251.266 384.478C237.1 366.705 227.203 345.918 222.337 323.718C217.319 301.413 216.662 278.324 217.956 255.568C219.289 232.264 222.67 208.528 231.774 186.831C247.591 149.199 276.413 117.937 310.997 96.6712C319.741 91.2684 328.866 86.5094 338.3 82.4318C347.982 78.257 358.488 75.8952 367.925 71.2304C376.54 66.9674 384.223 58.3532 382.939 48.1122C381.871 39.6646 374.031 34.0394 365.74 34.5C361.814 34.6851 358.103 36.3479 355.352 39.155C351.922 42.6732 357.234 47.975 360.752 44.5548L360.703 44.5842Z" fill="#382C80"/>
<path d="M193.064 233.92C200.365 239.095 211.831 237.958 216.849 245.367C217.992 247.253 218.844 249.302 219.377 251.443L229.579 284.988C232.205 293.632 234.008 303.245 226.315 310.311C223.797 312.624 220.367 313.604 217.074 314.506C215.014 315.157 212.887 315.574 210.733 315.75C206.176 315.956 201.815 314.016 197.748 311.967" fill="white"/>
<path d="M189.262 237.36C197.151 245.455 211.272 247.16 221.709 244.328C227.354 242.809 224.973 234.214 219.299 235.576C215.003 236.67 210.536 236.913 206.147 236.292C201.531 235.606 197.768 233.597 193.554 231.803C190.065 230.314 186.243 234.263 189.262 237.36Z" fill="#382C80"/>
<path d="M187.948 261.752C196.935 269.906 212.262 271.552 222.248 264.075C226.462 260.909 222.934 254.402 218.034 256.882C209.371 261.272 200.345 261.615 191.672 256.882C188.732 255.274 185.263 259.283 187.948 261.723V261.752Z" fill="#382C80"/>
<path d="M192.643 288.869C202.854 296.346 218.995 294.131 229.393 288.34C234.293 285.625 229.922 278.216 225.022 280.862C216.682 285.36 204.814 287.879 195.994 283.146C192.153 281.078 189.252 286.389 192.643 288.869Z" fill="#382C80"/>
<path d="M197.68 315.819C209.44 317.828 222.787 320.121 231.872 310.282C235.792 306.038 229.442 299.659 225.512 303.922C218.652 311.399 207.872 310.723 198.532 309.478C194.965 308.998 194.093 315.201 197.68 315.819Z" fill="#382C80"/>
<path d="M605.242 359.37C594.866 368.093 583.482 375.541 571.334 381.557C567.973 383.223 564.396 384.899 562.21 387.947C560.25 390.632 559.692 394.033 559.202 397.306C557.895 405.982 556.951 414.701 556.37 423.462C588.398 418.355 618.24 404.013 642.237 382.194" fill="white"/>
<path d="M603.959 358.076C597.676 363.031 591.065 367.556 584.172 371.62C577.812 375.462 570.639 378.215 564.494 382.331C558.81 386.124 557.35 391.7 556.409 398.139C555.174 406.547 554.273 414.995 553.655 423.472C553.518 425.432 555.498 426.343 557.095 426.088C589.072 421.11 620.619 406.547 644.099 384.066C646.579 381.694 642.923 378.186 640.375 380.342C615.954 401.275 587.514 415.534 555.645 420.855L559.094 423.472C559.643 415.475 560.427 407.488 561.554 399.55C562.073 395.934 562.407 391.779 564.857 388.858C566.817 386.467 569.923 385.164 572.628 383.782C584.819 377.471 596.204 369.712 606.536 360.673C608.339 359.115 605.752 356.636 603.959 358.086V358.076Z" fill="#382C80"/>
<path d="M514.063 236.38C509.402 254.45 507.307 273.086 507.84 291.74C508.438 310.115 510.848 329.519 517.591 346.708C519.708 352.098 527.881 350.138 526.411 344.268C522.148 326.834 518.081 309.762 517.258 291.74C516.427 273.869 517.873 255.964 521.56 238.458C522.599 233.558 515.278 231.47 514.024 236.38H514.063Z" fill="#382C80"/>
<path d="M242.76 217.76C239.82 224.424 236.4 231.647 229.765 234.655C228.393 235.282 226.913 235.704 225.59 236.419C221.215 238.958 219.248 244.239 220.896 249.022C222.317 252.795 225.904 255.421 229.716 256.695C237.291 259.224 242.691 258.205 249.198 254.03C240.702 264.898 242.093 280.911 248.346 293.23C250.306 297.052 253.246 301.07 257.558 301.403" fill="white"/>
<path d="M239.516 215.879C236.517 222.543 232.979 228.619 225.914 231.304C219.132 233.901 214.693 240.232 215.663 247.66C216.633 255.088 222.983 259.861 229.726 261.939C237.566 264.369 244.955 262.83 251.874 258.597L244.671 251.394C237.909 260.361 236.831 272.072 239.085 282.803C241.123 292.603 246.18 305.441 257.577 306.391C263.183 306.862 264.379 297.797 258.9 296.591C252.423 295.151 249.845 283.714 248.963 278.226C247.738 270.553 249.13 263.007 253.765 256.715C256.95 252.384 250.825 246.847 246.562 249.512C241.662 252.609 236.762 253.942 231.049 251.943C226.923 250.482 223.091 246.455 226.227 242.064C227.638 240.104 229.99 239.614 232.048 238.595C234.4 237.398 236.504 235.769 238.252 233.793C241.878 229.706 243.867 224.63 246.013 219.681C247.895 215.31 241.505 211.449 239.516 215.888V215.879Z" fill="#382C80"/>
<path d="M913.129 393.356C877.134 416.337 822.42 432.997 780.437 431.243C756.358 430.263 731.437 429.577 708.231 422.815C703.703 421.492 699.107 419.973 695.491 416.994C689.973 412.476 688.209 405.597 693.609 400.334C688.757 401.234 683.82 399.267 680.916 395.278C678.012 391.288 677.659 385.985 680.007 381.645C680.644 380.46 681.486 379.048 680.8 377.892C680.33 377.088 679.33 376.824 678.478 376.451C673.931 374.433 673.352 368.856 674.489 364.633C675.626 360.409 680.918 356.195 679.487 351.55C678.644 348.806 675.783 347.277 673.147 346.13C664.794 342.5 656.06 339.821 647.108 338.143C642.747 337.32 638.18 336.673 634.535 334.145C630.889 331.616 628.566 326.54 630.752 322.62C631.95 320.807 633.654 319.386 635.652 318.533C644.217 314.212 654.193 313.771 663.758 314.339C670.452 314.751 677.116 315.613 683.829 315.838C687.582 315.966 828.271 331.205 830.339 327.05" fill="white"/>
<path d="M564.533 365.172C555.923 374.239 547.838 383.79 540.317 393.778C536.351 399.089 532.539 404.512 528.88 410.046C525.392 415.348 521.609 420.728 519.08 426.578C514.768 436.614 516.209 446.678 521.276 456.145C526.342 465.612 533.771 474.138 544.649 476.137C547.589 476.676 548.882 472.217 545.903 471.609C535.613 469.385 528.773 461.094 524.343 452.009C519.08 441.229 521.295 431.331 527.283 421.473C538.96 402.454 552.319 384.52 567.198 367.886C568.835 366.054 566.218 363.368 564.484 365.172H564.533Z" fill="#382C80"/>
<path d="M911.257 388.692C907.847 391.504 904.289 394.14 900.663 396.6C882.259 408.847 861.639 417.379 839.962 421.718C818.059 426.226 795.96 426.686 773.704 425.706C760.778 425.138 747.832 424.491 734.994 422.766C728.473 421.919 721.999 420.735 715.6 419.219C710.357 417.945 704.399 416.68 699.92 413.564C696.088 410.928 694.432 407.38 697.813 403.764C701.194 400.148 697.499 394.317 692.982 394.944C687.19 395.738 682.251 390.74 684.485 384.899C685.641 381.881 687.425 379.254 685.867 375.903C685.121 374.368 683.915 373.104 682.417 372.286C681.3 371.63 680.31 371.512 679.712 370.326C678.732 368.317 679.81 365.681 680.79 363.947C682.535 360.869 684.652 358.174 685.112 354.548C686.092 346.542 678.879 342.553 672.598 339.995C664.636 336.785 656.382 334.356 647.951 332.743C644.677 332.116 640.855 331.812 638.004 329.911C635.652 328.343 634.456 325.854 637.024 324.119C642.629 320.327 650.636 319.778 657.172 319.7C665.542 319.602 673.832 320.974 682.202 321.336C694.55 321.875 706.839 323.13 719.216 323.188C725.41 323.188 724.273 313.614 718.119 313.584C711.964 313.555 705.506 312.369 699.332 311.693C692.903 310.997 686.504 310.595 680.055 310.164C670.491 309.517 660.916 308.145 651.322 308.89C643.756 309.488 634.662 311.35 628.782 316.534C622.265 322.297 623.637 331.822 629.703 337.379C636.308 343.435 646.833 343.425 655.075 345.621C659.484 346.811 663.814 348.274 668.041 350.001C669.501 350.589 672.343 351.246 673.47 352.53C674.597 353.813 673.901 354.294 672.97 355.881C669.236 362.251 666.326 369.356 670.549 376.402C671.443 377.907 672.638 379.212 674.058 380.234C674.136 380.293 676.851 382.067 677.047 381.832L675.508 378.48C675.155 379.107 674.832 379.744 674.528 380.44C672.815 384.533 672.597 389.099 673.911 393.337C676.606 401.931 685.426 406.978 694.197 405.773L689.365 396.953C680.741 406.145 686.141 418.18 695.853 423.785C701.331 426.951 707.848 428.47 713.954 429.94C720.591 431.511 727.312 432.712 734.083 433.536C748.185 435.31 762.405 435.82 776.595 436.369C788.611 436.942 800.649 436.814 812.649 435.986C835.964 434.173 859.229 428.93 880.563 419.228C894.323 413.109 907.163 405.104 918.715 395.444" fill="#382C80"/>
<path d="M108.98 212.213C174.353 229.2 240.052 244.664 306.078 258.606C375.004 273.032 444.219 286.02 513.72 297.571C550.085 303.621 586.534 309.174 623.068 314.231C629.595 315.123 630.909 306.136 624.284 305.254C557.536 296.307 491.053 285.37 424.814 273.248C355.561 260.566 286.559 246.546 217.809 231.186C182.059 223.13 146.269 215.183 110.724 206.088C106.804 205.108 105.08 211.174 109.039 212.203L108.98 212.213Z" fill="#7F72FF"/>
<path d="M115.889 235.998C120.907 220.925 125.712 205.791 130.305 190.594L51.5325 190.438C68.2317 202.295 85.2641 213.667 102.63 224.551C108.51 228.216 110.097 230.872 116.918 231.96" fill="#7F72FF"/>
<path d="M119.397 236.958C125.454 222.317 129.952 206.911 134.705 191.81C135.068 190.437 134.777 188.974 133.917 187.844C133.057 186.714 131.724 186.044 130.305 186.028C104.051 185.685 77.7865 185.881 51.5323 185.91C46.7695 185.91 45.7209 191.868 49.2391 194.348C60.8815 202.547 72.6644 210.541 84.5877 218.328C90.3599 222.082 96.2987 225.6 102.002 229.52C106.461 232.538 110.244 235.469 115.722 236.321C121.201 237.174 123.837 228.903 118.104 227.687C112.773 226.551 109.352 223.611 104.884 220.729C99.2093 217.074 93.4861 213.517 87.8315 209.832C76.3263 202.312 64.9845 194.557 53.8059 186.567L51.5225 195.004C77.7669 195.132 104.041 195.436 130.295 195.2L125.895 189.418C121.465 204.638 116.271 219.71 112.381 235.067C111.205 239.732 117.643 241.202 119.388 237.027L119.397 236.958Z" fill="#7F72FF"/>
<path d="M383.89 64.6938C452.666 117.428 517.905 174.767 583.133 231.764C600.979 247.346 618.629 263.203 636.808 278.402C639.238 280.431 642.757 277.04 640.336 274.865C608.437 246.17 575.656 218.328 543.199 190.34C509.536 161.351 475.647 132.627 441.063 104.756C422.861 90.0888 404.368 75.771 385.585 61.8028C383.851 60.4994 382.204 63.41 383.89 64.7428V64.6938Z" fill="#7F72FF"/>
<path d="M357.626 493.424C433.987 463.828 509.643 430.812 579.723 388.152C597.941 377.059 615.914 365.299 632.643 352.108C634.858 350.373 631.898 346.483 629.625 348.188C564.866 396.669 491.239 432.38 417.435 464.896C397.365 473.742 377.151 482.236 356.793 490.376C354.96 491.111 355.744 494.11 357.626 493.385V493.424Z" fill="#7F72FF"/>
<path d="M791.148 241.525C792.104 251.624 791.586 261.808 789.61 271.758C788.6 276.591 787.207 281.336 785.445 285.948C783.612 290.77 781.054 295.248 779.143 300.031C776.968 305.48 785.023 307.773 787.963 303.745C794.206 295.219 797.205 283.165 798.743 272.895C800.475 262.161 800.236 251.202 798.038 240.555C797.224 236.723 790.786 237.507 791.119 241.486L791.148 241.525Z" fill="#382C80"/>
<path d="M610.446 303.745C620.246 299.119 629.831 293.426 639.229 287.977C641.395 286.722 639.474 283.449 637.269 284.625C627.694 289.78 617.845 294.905 608.751 300.864C607.955 301.329 607.688 302.352 608.153 303.147C608.618 303.943 609.641 304.211 610.436 303.745H610.446Z" fill="#382C80"/>
<path d="M694.873 219.201C703.105 207.872 712.964 196.886 717.305 183.303C718.217 180.495 718.777 177.585 718.971 174.64C719.187 170.828 718.06 167.29 717.933 163.517C717.815 160.352 720.098 152.502 724.616 156.422C727.556 158.98 729.075 163.684 731.163 166.927C739.336 179.579 753.703 188.683 768.128 192.407C775.883 194.377 783.927 194.954 791.883 194.113C795.136 193.789 798.355 193.193 801.507 192.329C804.908 191.349 809.749 189.644 810.268 194.955C811.248 204.755 798.155 205.098 792.491 209.116C785.425 214.134 781.789 222.121 778.604 229.902C777.673 232.195 781.544 233.822 782.632 231.598C786.699 222.856 790.962 213.242 800.988 210.302C807.446 208.401 813.404 204.883 814.708 197.621C815.786 191.839 812.101 186.047 805.888 186.547C802.732 186.792 799.753 188.164 796.666 188.791C791.471 189.824 786.166 190.189 780.878 189.879C762.64 188.899 743.383 179.207 733.769 163.233C730.947 158.539 727.35 149.219 720.157 151.659C713.131 154.05 713.503 162.939 714.503 168.77C717.629 187.086 701.263 203.658 691.424 217.26C689.934 219.328 693.384 221.288 694.834 219.22L694.873 219.201Z" fill="#382C80"/>
<path d="M793.344 197.033C770.804 195.837 745.324 185.91 729.712 170.112C726.223 166.574 716.09 155.04 723.754 151.032C725.949 149.885 729.193 149.934 732.182 150.11C756.309 151.571 780.535 158.989 798.822 170.514C804.378 174.013 809.543 178.031 811.787 182.695C814.031 187.36 812.767 192.76 807.064 195.328C803.3 197.033 798.214 197.288 793.344 197.033Z" fill="#382C80"/>
<path d="M793.344 195.22C769.824 192.535 742.286 183.156 727.546 163.527C725.057 160.214 720.579 153.668 727.439 152.815C734.485 151.933 742.57 153.658 749.479 154.922C763.925 157.439 777.881 162.232 790.825 169.123C797.156 172.562 806.28 177.139 809.278 184.136C813.394 193.701 799.184 194.387 793.344 194.162C789.688 194.024 789.698 199.669 793.344 199.846C800.635 200.189 810.278 199.787 814.325 192.545C817.853 186.253 814.159 179.452 809.543 174.905C803.193 168.711 794.716 164.34 786.709 160.695C778.469 156.952 769.908 153.961 761.131 151.757C752.092 149.491 742.87 148.035 733.573 147.406C727.929 147.024 719.197 147.053 718.334 154.432C717.697 159.842 721.853 165.105 725.126 168.966C729.653 174.182 734.896 178.732 740.698 182.48C756.307 192.883 774.587 198.563 793.344 198.836C795.686 198.826 795.558 195.504 793.344 195.22Z" fill="#382C80"/>
<path d="M514.876 457.556C515.925 464.818 521.119 471.384 527.44 474.853C529.792 476.147 531.879 472.599 529.547 471.257C523.667 467.876 520.237 462.995 518.15 456.655C517.989 456.07 517.528 455.615 516.941 455.463C516.354 455.31 515.73 455.482 515.304 455.913C514.878 456.345 514.715 456.971 514.876 457.556Z" fill="#382C80"/>
<path d="M768.569 177.09C774.655 166.555 780.221 155.648 785.817 144.838C787.081 142.398 783.406 140.242 782.122 142.682C776.468 153.462 770.715 164.301 765.56 175.336C764.58 177.296 767.432 179.07 768.569 177.09Z" fill="#7F72FF"/>
<path d="M769.216 142.721C769.647 139.056 771.274 135.646 772.881 132.324C777.788 122.171 782.688 112.018 787.581 101.865L790.962 123.425L811.424 117.682C811.121 120.622 809.66 123.308 808.23 125.895C803.656 134.14 799.103 142.378 794.568 150.61C790.384 158.196 785.474 158.049 777.115 159.979C776.582 160.171 776 160.171 775.468 159.979C774.995 159.655 774.649 159.177 774.488 158.627C772.44 153.756 768.598 148.18 769.216 142.721Z" fill="#7F72FF"/>
<path d="M771.058 143.28C772.352 136.165 776.605 129.491 779.731 123.053L789.482 103.002L785.562 102.482C786.67 109.685 787.816 116.879 788.904 124.042C789.237 125.21 790.446 125.895 791.619 125.581C798.479 123.709 805.339 122.014 812.199 120.113L809.122 117.045C808.063 123.621 803.242 129.873 800.243 135.734C798.567 138.987 796.823 142.202 795.039 145.406C793.598 148.003 792.275 151.041 790.07 153.119C788.476 154.528 786.557 155.518 784.484 156C782.524 156.539 779.692 157.598 777.703 157.451C775.439 157.274 777.585 158.264 776.223 156.363C775.39 154.951 774.691 153.465 774.136 151.923C772.822 148.983 771.774 146.043 771.96 142.741C772.146 139.438 766.854 139.34 766.658 142.741C766.443 146.328 767.53 149.532 769.02 152.737C770.216 155.314 771.548 159.959 773.92 161.704C776.292 163.448 779.232 162.017 781.633 161.488C784.333 161.017 786.966 160.217 789.473 159.107C795.754 155.971 798.293 148.582 801.595 142.849C804.065 138.537 806.623 134.283 809.024 129.942C811.072 126.247 813.306 122.602 813.924 118.368C814.208 116.565 812.846 114.742 810.856 115.301C803.996 117.261 797.283 119.378 790.472 121.328L793.187 122.876C792.021 115.683 790.913 108.49 789.776 101.316C789.492 99.5032 786.582 99.1798 785.807 100.797C782.26 108.186 778.709 115.579 775.155 122.974C772.107 129.325 768.295 135.714 767.393 142.751C767.031 144.838 770.676 145.348 771.058 143.28Z" fill="#7F72FF"/>
<path d="M791.521 188.36C800.399 180.03 808.896 171.2 817.373 162.468C819.333 160.508 816.285 157.48 814.355 159.44C805.819 168.133 797.185 176.825 789.061 185.9C788.428 186.587 788.448 187.651 789.108 188.313C789.767 188.975 790.831 189 791.521 188.37V188.36Z" fill="#7F72FF"/>
<path d="M802.046 155.648C803.516 152.257 806.064 149.464 808.563 146.749L831.476 121.857L828.457 143.486L849.704 143.907C848.567 146.632 846.391 148.807 844.274 150.846L824.047 170.553C817.844 176.59 813.179 175.032 804.624 174.473C804.062 174.505 803.507 174.339 803.056 174.003C802.685 173.557 802.484 172.995 802.487 172.415C801.948 167.133 799.88 160.636 802.046 155.648Z" fill="#7F72FF"/>
<path d="M803.692 156.608C806.848 150.385 812.659 145.397 817.353 140.32L833.033 123.386L829.407 121.279C828.427 128.482 827.447 135.695 826.36 142.898C826.192 143.56 826.336 144.263 826.75 144.807C827.164 145.35 827.803 145.676 828.486 145.691C835.572 145.867 842.657 146.249 849.733 146.396L847.586 142.643C844.872 148.209 839.021 152.443 834.768 156.833C832.22 159.46 829.623 162.057 827.006 164.605C824.743 166.82 822.508 169.505 819.784 171.092C816.285 173.199 810.395 173.356 806.505 172.21C804.006 171.484 804.212 167.476 803.947 165.163C803.464 162.211 803.699 159.186 804.633 156.343C805.819 153.129 800.713 151.747 799.517 154.932C798.485 158.039 798.255 161.356 798.851 164.575C799.272 167.633 799.194 172.17 800.811 174.826C802.242 177.217 805.27 176.874 807.671 177.07C810.684 177.457 813.733 177.457 816.746 177.07C823.812 175.787 828.614 169.103 833.533 164.458C837.149 161.038 840.824 157.706 844.382 154.227C847.234 151.443 850.125 148.768 851.879 145.132C852.308 144.358 852.301 143.415 851.86 142.647C851.419 141.879 850.608 141.398 849.723 141.379C842.647 141.251 835.562 141.379 828.476 141.251L830.681 143.456C831.661 136.43 832.641 129.423 833.621 122.396C833.886 120.436 831.661 118.476 829.995 120.289L813.335 138.429C808.759 143.437 803.232 148.366 800.419 154.658C799.419 156.882 802.565 158.833 803.692 156.608Z" fill="#7F72FF"/>
<path d="M749.724 166.428C751.684 154.236 752.967 141.879 754.33 129.609C754.633 126.875 750.41 126.904 750.057 129.609C748.636 141.692 747.117 153.835 746.294 165.967C746.166 167.927 749.41 168.378 749.724 166.428Z" fill="#7F72FF"/>
<path d="M738.052 133.931C737.131 130.344 737.435 126.581 737.748 122.906L740.571 89.1938L751.458 108.127L768.501 95.3874C769.265 98.2392 768.863 101.267 768.501 104.207C767.194 113.537 765.887 122.86 764.581 132.177C763.385 140.761 758.701 142.378 751.635 147.18C751.205 147.547 750.661 147.751 750.096 147.759C749.531 147.635 749.028 147.315 748.675 146.857C745 143.064 739.404 139.193 738.052 133.931Z" fill="#7F72FF"/>
<path d="M739.895 133.421C738.552 126.365 740.218 118.486 740.875 111.41L742.835 89.1938L738.797 90.2816C742.413 96.6026 746.059 102.904 749.655 109.235C750.269 110.283 751.614 110.637 752.664 110.029C758.368 105.834 764.179 101.797 769.853 97.5826L766.188 96.093C767.001 100.121 766.021 104.217 765.482 108.235C765.032 111.557 764.708 114.889 764.297 118.221C763.807 122.141 763.317 126.13 762.729 130.06C762.366 132.49 762.043 134.96 760.769 137.096C759.672 138.756 758.24 140.169 756.564 141.242C755.741 141.82 751.498 145.309 750.528 145.162C749.254 144.936 746.608 141.389 745.628 140.448C743.436 138.482 741.755 136.013 740.728 133.255C739.748 130.001 734.583 131.393 735.612 134.666C736.648 137.759 738.44 140.545 740.826 142.77C742.991 144.897 745.569 148.102 748.205 149.63C751.047 151.228 753.399 149.033 755.712 147.514C758.098 146.1 760.326 144.434 762.356 142.545C767.462 137.331 767.256 129.531 768.236 122.778C769.001 117.878 769.853 112.978 770.549 108.078C771.176 103.619 771.911 99.2584 771 94.819C770.805 94.0403 770.249 93.4017 769.505 93.1013C768.761 92.8008 767.917 92.8747 767.237 93.3C761.562 97.5532 756.016 101.983 750.341 106.246L753.36 107.04C749.695 100.748 746.088 94.427 742.443 88.1256C741.306 86.1656 738.572 87.1456 738.405 89.2232L736.445 112.969C735.867 120.025 734.485 127.492 736.19 134.47C736.788 136.851 740.345 135.812 739.895 133.421Z" fill="#7F72FF"/>
<path d="M517.297 576.44C511.917 574.117 506.517 572.02 500.735 571.128C495.316 570.295 488.583 569.168 483.35 571.236C479.939 572.559 478.646 578.88 483.35 579.517C488.465 580.223 493.689 579.204 498.873 579.517C504.268 579.797 509.602 580.785 514.739 582.457C518.238 583.643 520.766 577.89 517.297 576.391V576.44Z" fill="#382C80"/>
<path d="M693.785 511.299C694.861 516.559 698.345 521.008 703.193 523.314C709.073 525.97 716.031 524.294 720.333 529.978C723.9 534.692 724.812 541.219 725.576 546.922C726.644 554.86 727.536 562.837 728.33 570.815C729.908 586.779 730.986 602.792 731.819 618.835C732.23 626.851 732.59 634.871 732.897 642.894C733.22 651.126 733.122 659.554 734.19 667.727C734.563 670.598 738.62 670.765 738.796 667.727C739.286 659.505 738.571 651.067 738.238 642.894C737.905 634.72 737.542 626.332 737.101 618.06C736.248 601.783 735.141 585.515 733.475 569.296C732.691 561.606 731.773 553.926 730.721 546.256C729.957 540.67 728.987 535.015 726.262 529.998C723.886 525.3 719.493 521.947 714.336 520.893C710.67 520.158 706.809 520.423 703.458 518.561C700.335 516.82 698.087 513.847 697.264 510.368C696.686 508.104 693.266 509.065 693.785 511.348V511.299Z" fill="#382C80"/>
<path d="M529.116 589.004C542.09 562.172 557.546 536.613 575.283 512.662C577.008 510.31 573.088 508.075 571.363 510.378C553.659 534.353 538.498 560.106 526.127 587.22C525.205 589.229 528.145 590.993 529.116 588.974V589.004Z" fill="#382C80"/>
<path d="M154.06 935.512C140.396 929.145 130.466 916.789 127.188 902.074L123.268 904.319C131.177 910.581 139.017 916.921 146.896 923.203C147.79 924.045 149.132 924.199 150.193 923.581C151.255 922.963 151.783 921.721 151.492 920.528C150.512 915.226 149.346 909.934 148.268 904.642C147.425 900.536 146.102 895.94 147.073 891.726C148.209 886.826 153.227 886.061 156.873 889.119C160.518 892.176 161.479 897.87 162.351 902.427C162.988 905.759 167.858 904.769 168.015 901.663C168.789 886.718 172.474 871.087 179.912 857.984C181.794 854.662 184.558 851.957 188.007 855.181C190.545 857.553 191.633 861.316 192.535 864.55C194.612 872.119 195.053 880.043 193.828 887.796C193.378 890.736 197.748 893.362 199.16 890.04C203.57 879.681 216.29 869.362 228.03 874.977C236.409 878.986 240.77 891.951 233.499 898.86C231.264 900.987 233.616 904.368 236.36 903.76C242.015 902.525 249.238 900.742 254.569 903.985C258.342 906.298 260.625 911.326 257.734 915.128C255.47 918.068 260.508 921.008 262.752 918.068C266.985 912.541 264.555 904.848 259.724 900.546C252.913 894.489 242.868 896.351 234.792 898.096L237.654 902.996C247.454 893.666 242.828 876.536 231.774 870.303C217.368 862.139 199.895 873.478 194.113 887.08L199.444 889.325C201.102 879.396 200.295 869.213 197.092 859.67C194.848 853.261 188.997 844.97 181.108 848.537C177.472 850.193 175.424 853.829 173.719 857.249C171.532 861.641 169.636 866.172 168.045 870.812C164.685 880.77 162.729 891.146 162.233 901.643L167.907 900.879C166.712 894.744 165.124 888.021 159.754 884.15C155.501 881.083 149.376 880.289 145.191 883.954C141.006 887.619 140.771 893.362 141.398 898.419C142.378 906.259 144.456 914.217 146.181 921.939L150.218 918.832C142.182 912.756 134.097 906.739 126.061 900.644C124.356 899.34 122.23 901.477 122.671 903.25C126.597 918.908 137.409 931.943 152.071 938.697C154.246 939.677 156.147 936.472 153.962 935.463L154.06 935.512Z" fill="#382C80"/>
<path d="M194.71 932.895C194.965 926.32 204.432 923.184 208.803 927.858C210.763 929.965 213.85 926.878 211.939 924.722C204.981 916.99 190.722 922.694 190.496 932.895C190.428 935.62 194.612 935.6 194.71 932.895Z" fill="#382C80"/>
<path d="M110.666 782.632C124.142 799.007 135.396 817.091 144.133 836.414C152.953 855.828 158.382 876.036 162.449 896.91C163.076 900.114 167.711 898.684 167.27 895.577C161.204 853.221 140.477 812.62 112.998 780.28C111.616 778.653 109.323 780.995 110.666 782.612V782.632Z" fill="#382C80"/>
<path d="M153.678 843.176C154.325 839.717 154.521 836.316 155.706 832.906C156.377 831.019 157.241 829.206 158.284 827.496C158.744 826.742 159.264 826.017 159.744 825.301L159.577 824.409V826.546C159.456 830.617 158.984 834.669 158.166 838.659C157.781 840.521 157.33 842.366 156.814 844.196C156.549 845.097 155.834 849.027 155.118 849.468L157.931 849.831L157.715 849.644C156.992 848.971 155.914 848.85 155.059 849.346C154.204 849.842 153.775 850.839 154.001 851.8V852.085C154.278 853.09 155.192 853.788 156.236 853.79C158.539 853.623 159.176 852.251 159.901 850.232C161.154 846.636 162.137 842.951 162.841 839.207C163.413 836.198 163.809 833.158 164.027 830.103C164.213 827.565 165.007 823.606 163.468 821.283C160.293 816.452 155.942 822.528 154.374 825.203C151.296 830.397 149.091 837.11 150.091 843.176C150.385 844.98 153.374 844.94 153.697 843.176H153.678Z" fill="#382C80"/>
<path d="M140.124 822.782C135.871 819.784 119.339 812.679 117.957 822.518C117.408 826.438 121.132 828.809 124.513 829.378C129.266 830.181 135.43 828.819 138.988 825.526C139.652 824.83 139.776 823.778 139.293 822.945C138.809 822.113 137.835 821.699 136.9 821.93C134.352 822.665 132 823.89 129.393 824.35C128.325 824.527 126.042 824.85 124.905 824.419C123.543 823.919 122.867 823.067 124.268 822.361C125.973 821.499 129.805 822.91 131.5 823.341C133.99 824.037 136.4 825.056 138.772 825.958C140.732 826.693 141.643 823.811 140.124 822.733V822.782Z" fill="#382C80"/>
<path d="M129.393 800.331C128.737 797.297 128.677 794.165 129.217 791.109C129.531 789.472 130.618 784.318 132.578 784.494C134.538 784.67 133.999 789.864 133.705 791.472C133.2 793.975 132.157 796.339 130.648 798.4C128.913 800.899 132.912 803.114 134.676 800.752C137.544 796.914 138.907 792.159 138.507 787.385C138.253 784.376 137.42 779.153 133.607 778.83C129.599 778.487 127.6 783.328 126.591 786.405C125.008 791.197 124.861 796.348 126.169 801.223C126.738 803.339 129.825 802.438 129.423 800.331H129.393Z" fill="#382C80"/>
<path d="M601.41 932.837C598.47 933.18 595.873 933.091 593.521 931.043C591.561 929.377 590.199 926.702 591.287 924.183C592.767 920.753 598.882 919.283 600.93 922.87C602.361 925.369 606.487 923.713 605.624 920.91C603.968 915.481 600.783 906.759 606.996 902.956C612.171 899.791 614.131 906.808 619.354 906.132C624.254 905.485 626.959 900.448 632.202 900.546C637.089 900.601 641.426 903.688 643.08 908.288C644.06 911.335 648.666 910.091 647.892 906.955C646.367 901.105 641.631 896.642 635.7 895.469C632.944 894.834 630.069 894.928 627.361 895.744C625.914 896.225 624.546 896.918 623.303 897.802C620.706 899.585 619.805 901.163 616.512 899.144C613.954 897.576 612.367 896.204 609.113 896.528C606.167 896.908 603.451 898.321 601.449 900.516C595.873 906.484 598.147 915.451 600.665 922.253L605.36 920.293C600.744 914.07 590.101 914.912 586.975 922.37C583.29 931.19 594.266 939.844 602.351 936.365C604.027 935.639 603.213 932.65 601.371 932.856L601.41 932.837Z" fill="#382C80"/>
<path d="M631.192 940.441C630.807 939.168 630.996 937.79 631.712 936.668L629.693 937.825L636.788 937.629C639.856 937.541 639.865 932.729 636.788 932.856L632.065 933.052C630.457 933.121 628.733 932.856 627.674 934.307C626.14 936.632 626.016 939.614 627.351 942.058C628.399 944.224 631.849 942.695 631.192 940.441Z" fill="#382C80"/>
<path d="M119.358 238.066C121.769 230.539 124.199 223.003 126.757 215.526C129.315 208.048 132.5 200.767 134.842 193.26C135.548 190.977 132.03 189.428 130.922 191.614C127.443 198.552 125.042 206.265 122.641 213.634C120.115 221.383 118.015 229.264 116.35 237.242C116.169 238.052 116.654 238.862 117.453 239.084C118.253 239.306 119.086 238.862 119.348 238.075L119.358 238.066Z" fill="#382C80"/>
<path d="M625.881 173.464C627.116 173.228 628.391 173.326 629.576 173.748C632.016 174.924 634.084 171.524 631.722 170.073C629.673 168.697 627.028 168.576 624.862 169.76C623.294 170.74 623.794 173.601 625.842 173.464H625.881Z" fill="#382C80"/>
<path d="M614.513 506.978C617.149 522.481 620.079 537.946 622.941 553.41C624.13 559.984 626.695 566.232 630.467 571.746C634.828 578.449 639.199 585.152 643.648 591.816C645.422 594.472 649.724 592.003 647.96 589.288C643.746 582.787 639.5 576.319 635.22 569.884C633.247 567.165 631.46 564.317 629.869 561.358C628.243 558.026 627.743 554.302 627.057 550.696C624.234 535.751 621.49 520.796 618.462 505.9C617.933 503.313 614.121 504.44 614.542 506.978H614.513Z" fill="#382C80"/>
<path d="M635.593 506.556C635.264 511.689 635.637 516.842 636.7 521.874C637.2 524.284 640.934 523.275 640.395 520.894C639.356 516.203 638.963 511.392 639.229 506.595C639.346 504.253 635.75 504.283 635.593 506.595V506.556Z" fill="#382C80"/>
</svg>
