<svg width="1000" height="1000" viewBox="0 0 1000 1000" fill="none" xmlns="http://www.w3.org/2000/svg">
<path d="M605.526 300.59C598.108 266.054 561.603 244.877 526.578 240.3C499.752 236.842 472.488 240.485 447.511 250.864C403.597 269.19 370.973 306.401 337.859 340.574C304.745 374.746 266.682 408.478 219.72 416.092C191.133 420.718 160.577 415.348 133.931 426.696C130.991 427.97 127.58 430.234 127.933 433.458C128.129 435.34 129.589 436.8 130.873 438.182C148.425 457.174 145.22 487.025 138.331 511.936C131.442 536.848 121.965 563.337 130.413 587.769C132.459 594.121 136.08 599.853 140.938 604.429C146.592 609.476 153.942 612.269 161.351 613.857C189.242 619.874 217.809 610.593 245.964 605.938C274.12 601.283 307.067 603.057 325.462 624.872C332.322 632.986 336.36 643.1 342.886 651.479C359.684 673.039 393.415 678.977 416.573 664.454C425.608 658.789 432.929 650.597 442.249 645.403C457.778 637.035 476.63 637.786 491.445 647.363C504.273 655.879 513.357 670.794 528.322 674.411C539.19 656.104 540.082 633.358 536.309 612.406C532.536 591.454 524.412 571.54 518.238 551.137C508.742 519.776 503.724 486.584 508.232 454.117C512.74 421.649 527.411 389.956 552.332 368.739" fill="#7F72FF"/>
<path d="M608.564 299.756C601.959 264.721 566.836 243.72 534.153 237.487C491.895 229.432 448.422 240.996 413.319 265.045C379.754 288.045 353.539 319.435 324.835 347.845C296.591 375.804 263.888 402.813 223.963 411.026C202.56 415.436 180.49 413.093 158.911 415.867C153.656 416.493 148.45 417.475 143.329 418.807C138.644 420.071 133.392 421.531 129.246 424.148C125.405 426.578 122.386 430.792 123.866 435.526C125.13 439.661 129.217 442.611 131.559 446.159C141.624 461.456 140.516 481.272 137.018 498.461C132.666 519.835 123.915 540.18 122.67 562.161C121.504 582.82 128.296 605.703 148.66 614.581C169.309 623.578 193.289 620.589 214.732 616.6C234.822 612.866 254.696 607.663 275.296 608.545C292.328 609.27 309.929 614.189 321.483 627.459C328.167 635.132 331.998 644.834 338.035 652.939C343.153 659.861 349.753 665.553 357.351 669.599C372.296 677.556 390.671 679.595 406.792 674.263C416.024 671.216 423.54 665.728 430.959 659.563C438.799 653.066 446.639 647.196 456.831 645.158C466.182 643.364 475.863 644.7 484.379 648.96C492.346 652.978 498.402 659.563 504.87 665.541C511.338 671.519 518.345 676.909 526.989 679.154C529.13 679.707 531.38 678.791 532.526 676.9C555.409 637.592 536.397 592.708 524.069 553.478C511.084 512.181 505.449 466.944 520.149 425.294C527.303 404.96 539.268 386.202 555.684 372.11C560.26 368.19 553.625 361.604 549.078 365.505C518.375 391.857 503.43 431.968 501.891 471.717C501.009 494.394 504.224 517.169 509.81 539.112C515.445 561.22 524.333 582.349 529.606 604.546C534.878 626.743 535.936 651.586 524.059 671.941L529.606 669.687C521.462 667.58 515.278 661.915 509.32 656.261C502.783 650.067 496.197 643.629 487.916 639.807C470.146 631.614 449.329 633.707 433.546 645.275C425.608 651.086 418.63 658.329 409.722 662.729C402.725 666.063 395.049 667.723 387.3 667.58C371.738 667.472 355.94 660.72 346.336 648.205C340.083 640.061 336.046 630.457 329.529 622.47C324.153 615.959 317.39 610.732 309.733 607.173C293.886 599.715 275.805 598.353 258.567 599.813C237.468 601.616 217.103 607.986 196.092 610.367C177.472 612.484 150.336 613.033 138.88 595.001C127.12 576.518 131.804 552.773 137.076 532.996C142.084 514.171 148.366 495.6 148.219 475.872C148.15 467.248 146.896 458.438 143.623 450.392C141.998 446.325 139.85 442.487 137.233 438.975C135.93 437.26 134.293 435.751 133.049 434.016C131.804 432.282 133.264 431.958 134.96 431.076C143.907 426.49 154.942 424.922 164.83 424.011C175.375 423.031 185.969 422.962 196.533 422.492C216.897 421.57 236.292 418.013 255 409.752C272.718 401.912 288.78 390.818 303.667 378.519C334.321 353.186 359.38 322.042 388.701 295.297C403.068 282.195 418.503 270.18 435.741 260.997C454.609 250.866 475.412 244.853 496.776 243.357C531.232 241.064 571.197 250.502 592.473 280.039C597.134 286.467 600.563 293.704 602.586 301.383C603.566 305.352 609.397 303.647 608.652 299.717L608.564 299.756Z" fill="#7F72FF"/>
<path d="M386.32 330.088C384.232 341.848 375.824 352.804 378.313 364.456C380.273 373.512 388.799 380.136 397.913 381.753C407.027 383.37 416.445 380.548 424.52 376.03C446.786 363.584 460.32 337.085 457.34 311.762" fill="#382C80"/>
<path d="M383.635 329.343C381.077 341.661 372.012 352.353 374.413 365.524C376.51 377.03 387.32 384.938 398.433 386.438C422.982 389.77 446.071 369.415 455.655 348.414C461.193 336.633 463.234 323.511 461.535 310.605C460.888 305.793 452.607 306.881 453.009 311.762C454.708 331.006 447.645 349.992 433.781 363.447C426.569 370.307 417.121 376.05 407.076 377.363C397.776 378.588 386.8 374.805 382.91 365.603C380.607 360.144 382.008 354.156 383.684 348.737C385.526 342.788 387.878 336.977 388.995 330.842C389.623 327.373 384.38 325.854 383.654 329.362L383.635 329.343Z" fill="#382C80"/>
<path d="M510.378 366.847C625.038 418.738 757.946 382.233 865.138 322.483C881.387 313.428 897.305 303.673 912.894 293.22C925.751 284.586 938.599 275.315 948.174 262.595C957.748 249.875 963.795 233.058 960.914 217.064C958.091 201.276 947.752 190.418 937.139 180.314C925.438 169.181 920.293 156.931 905.171 149.346C901.546 147.348 897.631 145.926 893.568 145.132C888.668 144.358 883.543 145.24 878.692 146.71C869.207 149.647 860.487 154.639 853.153 161.332C851.193 163.125 845.93 170.857 843.353 169.691C840.54 168.397 841.119 158.862 840.491 155.971C839.404 150.973 836.934 145.965 832.651 143.809C825.488 140.213 816.834 146.426 813.296 154.197C809.759 161.969 809.563 170.936 807.73 179.354C801.85 206.353 779.388 219.455 759.514 233.626C739.181 248.142 718.009 261.444 696.108 273.463C683.878 280.176 671.373 286.497 658.182 290.417C628.008 299.384 595.648 295.239 566.336 284.116" fill="white"/>
<path d="M508.82 369.454C573.902 399.168 647.127 400.814 716.139 385.291C787.503 369.18 855.299 336.595 915.736 295.846C930.102 286.174 944.312 275.541 954.014 260.919C963.462 246.68 968.352 228.511 963.677 211.713C961.433 203.677 957.16 196.514 951.966 190.075C946.949 183.862 940.873 178.717 935.581 172.788C930.534 167.123 926.153 160.871 920.753 155.54C914.469 149.256 906.765 144.577 898.292 141.898C889.246 139.154 879.74 141.379 871.244 144.907C863.404 148.131 855.397 152.806 849.527 158.95C847.694 160.91 846.214 163.203 844.166 164.928C844.343 164.781 842.912 165.908 842.971 165.791L846.116 166.614L845.871 166.163C845.871 164.948 845.381 163.497 845.283 162.243C844.754 155.52 844 149.17 839.403 143.79C834.053 137.537 825.399 137.175 818.755 141.565C811.709 146.22 808.23 153.893 806.524 161.91C804.682 170.612 804.251 179.55 800.733 187.811C797.879 194.32 793.871 200.26 788.904 205.343C778.555 216.202 765.511 224.336 753.291 232.901C737.18 244.21 720.562 254.758 703.438 264.545C686.906 273.992 669.903 283.44 651.243 287.918C632.584 292.397 613.102 291.897 594.462 288.016C585.29 286.078 576.275 283.457 567.493 280.176C562.593 278.353 560.505 286.164 565.337 288.016C600.097 301.256 638.298 304.01 673.137 289.496C690.708 282.175 707.329 272.395 723.548 262.497C739.12 252.991 754.055 242.613 769 232.166C780.652 224.022 792.354 215.614 800.968 204.138C805.422 198.218 808.778 191.546 810.876 184.44C813.306 176.139 813.365 167.329 816.011 159.087C817.696 153.874 823.704 144.387 830.603 147.435C836.914 150.228 836.395 158.215 836.983 163.762C837.551 169.044 840.432 176.786 847.273 173.101C849.703 171.798 851.585 169.554 853.349 167.496C855.392 165.063 857.692 162.858 860.209 160.92C867.084 155.555 875.037 151.738 883.523 149.728C893.019 147.602 901.996 151.257 909.65 156.824C915.765 161.273 920.43 167.368 925.202 173.16C930.171 179.177 935.875 184.332 941.274 189.938C946.674 195.543 951.535 201.6 954.544 208.734C957.763 216.581 958.645 225.192 957.082 233.528C953.926 251.011 942.813 265.163 929.485 276.305C915.52 287.977 899.575 297.61 884.052 307.018C868.529 316.426 852.398 325.344 836.032 333.478C804.812 349.245 772.195 362.076 738.601 371.806C672.617 390.593 601.587 395.405 535.741 373.443C527.646 370.751 519.698 367.674 511.897 364.211C508.379 362.653 505.292 367.808 508.84 369.425L508.82 369.454Z" fill="#382C80"/>
<path d="M510.378 366.848C542.836 381.548 577.714 389.387 612.935 391.24C630.507 392.12 648.119 391.658 665.62 389.858C679.517 388.457 698.685 380.577 711.533 388.378C714.248 390.034 717.021 392.298 720.128 391.847C725.567 391.024 726.988 383.184 726.743 377.236C726.135 358.527 723.666 339.672 717.727 322.111C711.68 304.206 701.312 292.083 691.1 277.403C690.287 276.237 660.72 289.643 658.26 290.388C628.086 299.355 595.727 295.21 566.415 284.087" fill="white"/>
<path d="M508.82 369.454C542.297 385.016 578.704 393.425 615.542 395.12C634.162 395.983 653.762 396.012 672.186 392.739C679.654 391.416 687.043 389.348 694.638 388.907C698.218 388.591 701.826 388.899 705.3 389.818C708.926 390.887 711.67 393.474 715.1 394.856C722.303 397.717 727.968 392.7 729.702 385.898C731.613 378.372 730.349 369.885 729.702 362.261C728.272 344.219 724.871 325.638 716.894 309.243C713.276 302.097 709.074 295.263 704.33 288.81C701.998 285.517 699.607 282.254 697.264 279.01C695.549 276.599 694.04 273.13 690.62 273.13C687.464 273.13 684.034 275.031 681.183 276.178C676.459 278.138 671.765 280.098 667.08 282.107C663.435 283.675 660.514 285.154 657.163 286.291C647.98 289.408 637.906 290.642 628.263 290.985C607.398 291.73 586.916 287.31 567.395 280.205C562.495 278.402 560.437 286.174 565.239 288.045C581.529 294.454 598.726 298.257 616.199 299.315C624.644 299.782 633.114 299.437 641.493 298.286C647.814 297.424 654.487 296.375 660.475 294.072C668.237 291.074 675.763 287.457 683.476 284.351C685.152 283.675 686.827 283.008 688.523 282.391C689.179 282.156 689.865 281.969 690.483 281.724C690.714 281.685 690.94 281.622 691.159 281.538C691.757 281.176 690.365 281.421 690.777 281.538C686.582 279.911 687.964 280.392 689.317 282.303L690.943 284.576L694.177 289.065C696.51 292.299 698.832 295.542 701.037 298.865C710.465 312.947 716.08 328.176 719.236 344.797C720.894 353.447 721.997 362.193 722.539 370.983C722.893 374.467 722.939 377.976 722.676 381.469C722.45 383.341 721.931 387.29 719.736 387.976C717.247 388.76 713.003 384.722 710.847 383.742C707.585 382.33 704.104 381.488 700.557 381.253C693.197 380.646 685.71 382.233 678.537 383.654C661.69 387.114 644.491 387.996 627.312 387.888C587.691 387.643 548.177 380.048 511.79 364.231C508.281 362.702 505.175 367.798 508.732 369.444L508.82 369.454Z" fill="#382C80"/>
<path d="M503.92 485.3C535.388 510.398 560.074 542.561 572.863 577.998C585.652 613.435 586.25 652.096 572.755 686.298C561.534 714.718 541.17 739.071 517.934 760.396C506.38 770.99 494.052 780.907 481.478 790.531C471.864 797.891 453.127 807.122 449.452 818.461C447.09 825.752 450.726 833.68 454.901 840.56C459.075 847.439 464.034 854.388 464.544 862.12C464.664 863.048 464.536 863.992 464.171 864.854C463.533 865.893 462.588 866.708 461.467 867.186C456.755 869.516 451.358 870.059 446.277 868.715C440.808 867.284 436.232 863.894 431.88 860.552C404.411 839.354 378.823 813.727 365.74 783.22C364.946 781.387 364.192 779.447 364.466 777.546C364.829 775.115 366.779 773.214 368.651 771.47C396.698 745.412 426.922 721.607 453.362 693.824C462.701 684.024 481.939 667.707 486.329 654.84C491.905 638.415 473.364 624.529 463.544 614.66C450.657 601.416 440.154 586.046 432.498 569.227C416.063 533.947 410.938 493.277 419.307 455.185" fill="white"/>
<path d="M501.823 487.417C553.273 528.753 590.278 593.757 576.666 661.386C570.109 693.962 551.509 721.784 528.646 745.274C516.112 757.898 502.762 769.684 488.681 780.554C482.801 785.19 476.921 789.61 470.62 793.716C464.838 797.499 458.938 801.321 453.891 806.083C449.471 810.268 445.787 815.384 445.238 821.616C444.513 829.868 448.854 837.581 453.019 844.362C455.129 847.585 457.04 850.933 458.742 854.388C459.638 856.279 460.296 858.274 460.702 860.326C461.212 863.08 460.702 863.658 458.076 864.599C449.736 867.618 442.18 863.492 435.634 858.572C410.222 839.511 386.036 815.991 371.934 787.16C370.258 783.749 366.926 779.202 369.974 775.87C373.022 772.538 376.569 769.716 379.862 766.756C386.722 760.621 393.582 754.584 400.442 748.557C413.937 736.797 427.47 725.037 440.436 712.68C451.216 702.37 461.849 691.698 472.305 681.006C480.733 672.392 492.15 661.083 491.641 648C491.121 634.711 480.263 624.646 471.267 616.13C459.756 605.27 449.977 592.711 442.268 578.89C425.622 549.019 417.805 515.033 419.728 480.89C420.209 472.587 421.277 464.327 422.923 456.174C423.854 451.568 416.886 449.569 415.818 454.214C407.9 488.74 410.869 525.323 423.433 558.408C429.493 574.714 437.927 590.037 448.462 603.88C453.168 609.983 458.334 615.717 463.917 621.03C468.66 625.538 473.628 629.987 477.548 635.25C481.331 640.346 484.33 646.49 482.448 652.89C480.753 658.77 476.314 663.983 472.345 668.511C467.601 673.911 462.447 678.919 457.321 683.946C451.686 689.444 446.316 695.196 440.72 700.743C427.549 713.777 413.662 726.066 399.746 738.297C392.71 744.49 385.654 750.664 378.676 756.917C375.266 759.974 371.875 763.055 368.504 766.158C365.564 768.853 362.065 771.587 360.821 775.527C359.576 779.467 361.477 783.592 363.124 787.287C364.917 791.207 366.916 795.127 369.092 798.871C373.151 805.818 377.707 812.464 382.724 818.755C393.219 832.083 405.509 843.931 418.543 854.731C430.42 864.58 444.836 878.192 461.467 871.234C479.44 863.717 456.763 839.727 453.391 829.28C450.932 821.675 453.685 816.109 459.222 810.925C464.416 806.025 470.532 802.31 476.441 798.39C490.994 788.737 504.606 777.144 517.601 765.462C542.17 743.314 564.474 717.354 576.401 686.082C589.268 652.468 588.592 614.542 577.126 580.654C566.719 549.862 547.893 522.305 524.735 499.677C518.782 493.876 512.541 488.378 506.037 483.203C503.048 480.812 498.765 485.026 501.784 487.446L501.823 487.417Z" fill="#382C80"/>
<path d="M419.277 455.175C410.898 493.267 416.034 533.937 432.468 569.217C440.124 586.039 450.627 601.413 463.515 614.66C473.315 624.577 491.876 638.464 486.3 654.84C481.909 667.707 462.672 683.995 453.332 693.824C446.962 700.508 440.367 706.976 433.644 713.297C429.126 717.54 422.943 720.99 423.736 728.065C424.403 734.004 432.556 743.902 435.614 749.194C445.499 766.195 458.308 781.316 473.452 793.863C482.409 801.252 492.65 807.906 504.194 809.151C511.682 809.954 520.286 807.73 523.912 801.144C525.333 798.557 525.872 795.578 526.734 792.765C530.498 780.946 541.934 771.597 550.058 762.728C566.454 744.833 581.203 725.772 590.189 702.948C603.684 668.756 603.086 630.095 590.297 594.658C579.38 564.621 560.388 537.828 537.24 515.876C527.999 507.056 518.463 501.832 514.396 489.347C508.751 472.05 505.684 453.489 503.959 435.447" fill="white"/>
<path d="M416.386 454.371C403.372 514.063 422.002 579.811 466.454 622.069C474.049 629.291 485.535 639.199 483.81 650.959C482.997 656.496 479.214 661.533 475.774 665.757C471.545 670.805 467.04 675.614 462.28 680.163C452.195 690.081 442.415 700.332 432.086 709.994C427.813 713.993 422.198 717.501 420.581 723.489C419.032 729.251 422.002 734.749 424.942 739.502C440.092 764.002 456.841 788.718 481.595 804.506C492.571 811.503 507.948 816.883 520.266 809.945C526.734 806.309 528.273 800.409 530.439 793.824C532.604 787.238 537.083 781.956 541.66 777.066C551.616 766.433 561.74 756.162 570.56 744.588C579.993 732.553 587.763 719.302 593.658 705.192C605.722 675.538 607.055 642.149 599.607 611.171C592.443 581.369 577.067 554.096 557.3 530.811C552.544 525.232 547.527 519.891 542.248 514.788C537.397 510.094 532.016 505.968 527.165 501.333C521.981 496.325 519.159 490.896 517.071 484.055C514.711 476.261 512.79 468.34 511.319 460.33C509.761 452.058 508.565 443.728 507.634 435.369C507.115 430.743 499.872 430.596 500.264 435.369C501.435 451.574 504.118 467.635 508.281 483.34C510.143 490.073 512.201 496.482 516.562 502.068C520.423 507.046 525.323 510.966 530.056 515.082C551.845 534.087 569.329 557.521 581.34 583.819C594.08 611.936 599.244 643.844 593.972 674.391C588.768 704.546 573.304 730.251 553.469 753.105C544.649 763.277 533.447 772.254 526.587 783.955C524.953 786.752 523.663 789.737 522.746 792.844C521.766 796.117 521.207 799.547 518.522 801.928C514.131 805.848 507.409 806.093 501.921 805.045C487.417 802.261 475.167 791.325 464.984 781.231C454.538 770.911 446.08 759.328 438.407 746.862C435.388 741.962 431.723 737.454 429.038 732.338C427.911 730.202 426.794 727.84 427.421 725.361C428.127 722.578 430.694 720.569 432.772 718.775C443.277 709.7 452.548 699.342 462.466 689.64C471.07 681.202 480.439 672.666 486.603 662.2C492.767 651.733 491.18 640.953 484.143 631.389C477.107 621.824 467.405 614.552 459.643 605.605C449.772 594.146 441.555 581.36 435.232 567.62C422.253 539.809 416.625 509.135 418.885 478.528C419.472 470.949 420.572 463.418 422.178 455.988C422.991 452.215 417.209 450.608 416.386 454.391V454.371Z" fill="#382C80"/>
<path d="M479.528 518.326C394.268 711.386 238.164 785.925 215.976 809.014C207.156 818.157 195.396 827.487 188.781 838.276C179.667 853.182 184.999 866.696 187.458 882.435C187.86 884.721 188.086 887.034 188.135 889.354C188.26 891.556 187.775 893.75 186.733 895.695C184.489 899.399 179.295 900.595 174.973 899.615C170.651 898.635 167.016 895.793 163.635 892.98C141.17 874.3 123.075 850.92 110.626 824.488C108.843 820.666 107.147 816.648 107.02 812.493C106.354 790.933 141.781 768.598 155.844 755.29L216.917 697.47C228.373 686.621 239.928 675.675 248.826 662.758C256.362 651.831 261.84 639.719 268.122 628.076C281.421 603.429 298.336 580.86 316.142 559.172C324.374 549.176 333.273 539.915 341.995 530.527C350.295 521.589 353.853 511.172 359.919 500.549C367.347 487.544 377.559 474.001 392.729 471.59" fill="white"/>
<path d="M477.019 516.856C460.943 553.031 441.242 587.485 418.219 619.687C398.443 647.229 376.356 673.034 352.196 696.823C332.439 716.287 311.492 734.504 289.476 751.37C273.326 763.767 256.627 775.409 239.82 786.905C234.165 790.825 228.481 794.617 222.964 798.665C217.855 802.602 213.013 806.875 208.47 811.454C200.982 818.647 193.074 825.595 187.145 834.209C181.216 842.824 179.236 852.829 180.471 863.178C181.079 868.255 182.127 873.253 183.058 878.27C183.842 882.474 186.302 890.334 183.342 894.107C180.383 897.88 174.611 895.969 171.308 893.98C166.839 891.294 162.909 887.502 159.087 883.974C143.623 869.777 130.526 853.203 120.289 834.876C117.751 830.329 115.321 825.683 113.223 820.921C111.45 816.873 110.283 812.659 111.263 808.259C112.831 801.056 117.682 794.882 122.573 789.57C133.402 777.81 146.759 768.99 158.392 758.21C176.541 741.305 194.436 724.126 212.448 707.094C229.108 691.316 246.229 675.851 257.891 655.8C263.712 645.785 268.573 635.22 274.277 625.185C279.98 615.15 286.213 605.438 292.897 596.011C306.503 576.778 321.411 558.501 337.516 541.307C341.436 537.142 345.483 533.104 348.913 528.567C351.968 524.366 354.651 519.907 356.93 515.239C361.428 506.419 365.75 497.432 372.071 489.759C377.794 482.732 384.811 477.078 393.925 475.471C398.982 474.579 396.865 466.876 391.798 467.758C371.924 471.266 360.33 490.661 352 507.213C349.697 512.067 347.112 516.782 344.258 521.335C340.995 526.235 336.752 530.439 332.724 534.761C324.443 543.649 316.387 552.695 308.753 562.201C293.906 580.576 279.804 599.666 268.103 620.217C262.164 630.634 257.156 641.551 251.139 651.92C245.204 661.945 238.069 671.209 229.892 679.507C212.654 697.372 193.985 713.983 175.992 731.055C167.623 738.983 159.45 747.205 150.797 754.829C144.799 760.121 138.419 764.992 132.304 770.147C120.681 779.947 105.766 792.559 103.561 808.602C102.208 818.51 107.902 828.006 112.449 836.424C117.591 845.91 123.49 854.965 130.089 863.502C136.672 872.056 143.928 880.072 151.786 887.472C158.725 893.999 167.143 903.084 177.266 903.701C181.52 903.956 186.145 902.437 188.928 899.115C192.251 895.195 192.143 889.687 191.535 884.846C190.212 874.409 186.508 863.923 187.507 853.31C188.566 841.991 196.445 833.308 204.167 825.654C209.371 820.489 214.585 815.237 219.965 810.258C220.739 809.533 221.543 808.847 222.356 808.181C222.797 807.808 223.248 807.455 223.689 807.093L224.306 806.613C224.416 806.518 224.53 806.43 224.649 806.348C227.041 804.525 229.481 802.761 231.931 801.027C246.768 790.521 261.889 780.447 276.57 769.716C298.052 754.08 318.663 737.281 338.31 719.393C362.779 697.033 385.393 672.724 405.93 646.706C430.064 616.021 451.072 583 468.64 548.138C473.357 538.808 477.816 529.361 482.017 519.796C483.507 516.395 478.509 513.426 476.99 516.856H477.019Z" fill="#382C80"/>
<path d="M493.14 523.01C439.828 625.528 356.636 709.72 263.212 779.711C247.797 791.256 223.258 803.28 217.574 821.312C216.172 825.771 212.821 830.495 207.999 830.436C206.093 830.294 204.243 829.732 202.58 828.79C181.118 818.265 165.526 799.272 152.022 780.005C139.919 762.748 136.773 751.585 152.345 737.032C169.603 720.931 186.645 704.624 203.844 688.424C215.535 677.38 227.364 666.237 236.409 653.144C244.093 642.031 249.688 629.703 256.107 617.864C269.68 592.786 286.948 569.844 305.166 547.755C314.319 536.652 324.825 528.253 331.832 515.552C339.878 500.97 344.219 484.722 352.696 470.316C364.665 450.332 383.227 435.146 405.185 427.372" fill="white"/>
<path d="M490.602 521.56C462.035 576.117 424.873 625.695 382.488 670.275C361.257 692.525 338.882 713.656 315.456 733.583C293.083 752.693 270.043 771.107 245.592 787.483C235.165 794.47 223.924 802.095 217.358 813.1C216.041 815.414 214.942 817.845 214.075 820.362C213.095 823.028 211.322 826.752 207.999 826.801C204.677 826.85 200.444 823.606 197.7 821.901C194.398 819.901 191.227 817.695 188.203 815.295C176.326 805.819 166.594 793.931 157.823 781.623C151.052 772.166 141.163 759.641 148.219 747.793C152.237 741.09 158.999 736.033 164.664 730.751C171.36 724.459 178.037 718.158 184.695 711.847C197.249 699.969 210.175 688.327 222.209 675.998C233.698 664.151 243.398 650.691 251.002 636.044C258.842 621.197 266.682 606.565 276.051 592.63C285.419 578.694 295.768 565.356 306.431 552.361C316.407 540.219 328.716 529.91 336.164 515.866C344.004 501.107 348.424 484.732 357.273 470.473C364.885 458.321 375.151 448.052 387.3 440.436C393.26 436.674 399.608 433.565 406.234 431.165C411.036 429.44 408.978 421.718 404.117 423.462C389.862 428.533 376.853 436.584 365.956 447.08C354.47 458.203 346.699 471.58 340.544 486.28C337.154 494.336 334.076 502.528 330.098 510.329C326.353 517.451 321.652 524.025 316.123 529.87C304.608 542.405 293.73 555.233 283.469 568.835C273.051 582.447 263.557 596.741 255.049 611.622C246.455 626.92 239.595 643.305 228.589 657.143C217.809 670.785 204.589 682.388 191.996 694.324C178.511 707.064 165.056 719.922 151.493 732.613C146.299 737.513 141.242 742.687 138.988 749.596C137.028 755.476 137.959 761.778 140.291 767.442C143.123 774.302 147.514 780.407 151.855 786.405C156.334 792.579 160.999 798.626 166.046 804.349C176.091 815.766 188.36 826.957 202.58 832.877C209.44 835.709 215.751 832.877 219.24 826.536C220.632 824.017 221.2 821.195 222.533 818.637C223.979 815.859 225.77 813.274 227.864 810.944C236.87 800.811 248.963 794.01 259.988 786.376C272.562 777.683 284.488 767.932 296.386 758.338C321.413 738.201 345.398 716.803 368.249 694.226C413.084 649.773 453.088 600.087 484.379 545.149C488.247 538.361 491.977 531.501 495.571 524.569C497.295 521.246 492.288 518.297 490.543 521.629L490.602 521.56Z" fill="#382C80"/>
<path d="M454.597 511.123C450.069 519.375 440.034 520.864 431.557 522.168C422.159 523.608 412.662 524.951 405.097 531.184C396.277 538.426 390.397 549.441 383.811 558.624C376.54 568.816 369.092 578.88 361.467 588.817C329.14 630.989 294.3 671.173 257.136 709.152C237.154 729.594 216.3 749.057 195.161 768.304C193.084 770.196 196.141 773.106 198.209 771.352C217.682 755.065 235.968 737.307 253.834 719.295C272.624 700.348 290.803 680.843 308.371 660.779C325.867 640.865 342.762 620.445 359.056 599.519C366.831 589.523 374.449 579.396 381.91 569.139C385.503 564.18 389.064 559.192 392.592 554.174C396.032 549.274 399.246 544.09 403.156 539.474C407.042 534.75 412.212 531.251 418.043 529.4C423.13 527.972 428.297 526.846 433.517 526.029C442.768 524.324 453.029 522.06 457.625 512.877C458.605 510.917 455.665 509.114 454.597 511.113V511.123Z" fill="#7F72FF"/>
<path d="M215.202 801.428L221.16 804.78C223.12 805.868 224.845 802.889 222.905 801.84L216.937 798.498C214.977 797.42 213.271 800.38 215.202 801.438V801.428Z" fill="#382C80"/>
<path d="M468.64 755.78C514.906 725.057 551.382 670.04 537.632 612.7C533.588 595.913 525.675 580.304 514.524 567.12C512.819 565.16 509.986 568.002 511.643 570.001C530.086 592.394 539.269 621.814 535.849 650.714C532.664 677.674 519.11 702.654 501.421 722.832C491.288 734.339 479.767 744.543 467.121 753.212C465.553 754.29 467.013 756.848 468.621 755.78H468.64Z" fill="#7F72FF"/>
<path d="M520.355 788.375C516.85 787.302 513.647 785.419 511.006 782.877C509.193 781.191 506.478 783.857 508.281 785.601C511.411 788.569 515.23 790.711 519.394 791.834C521.629 792.471 522.56 789.041 520.374 788.375H520.355Z" fill="#382C80"/>
<path d="M174.973 899.575C179.295 900.614 184.489 899.399 186.733 895.655C187.775 893.711 188.26 891.517 188.135 889.315C188.086 886.995 187.86 884.682 187.458 882.396C184.999 866.647 179.618 853.143 188.781 838.237C189.546 836.983 190.389 835.748 191.28 834.533C187.596 831.838 182.46 831.328 177.786 831.691C172.513 832.093 167.251 833.347 161.998 832.671C139.821 829.907 134.646 803.143 124.072 788.502C123.575 787.709 122.905 787.039 122.112 786.542C120.152 785.494 117.771 786.728 115.918 787.934L107.353 793.471C104.864 795.078 102.179 796.969 101.571 799.821C101.366 801.278 101.456 802.761 101.836 804.182C105.001 820.186 116.183 836.767 125.356 850.468C136.011 866.357 148.881 880.642 163.576 892.892C167.016 895.753 170.651 898.546 174.973 899.575Z" fill="#7F72FF"/>
<path d="M173.895 903.456C179.609 904.612 186.165 903.456 189.722 898.438C193.927 892.47 191.869 883.983 190.702 877.378C189.468 870.597 187.762 863.815 187.762 856.877C187.762 849.242 190.408 842.735 194.828 836.6C196.161 834.768 195.054 832.2 193.388 831.093C184.773 825.35 175.169 828.78 165.703 828.888C158.97 828.927 152.545 826.071 148.063 821.048C139.243 811.738 135.715 798.841 128.786 788.296C126.689 785.111 124.317 782.024 120.084 782.21C115.184 782.426 110.382 786.807 106.432 789.364C103.326 791.383 100.033 793.461 98.4059 796.94C96.4459 801.213 98.0531 806.407 99.3859 810.66C102.169 819.989 106.824 828.731 111.881 837.012C116.703 844.921 121.838 852.692 127.355 860.179C133.81 868.926 140.944 877.151 148.69 884.777C155.814 891.774 164.076 900.741 173.984 903.466C178.991 904.848 181.128 897.076 176.13 895.704C172.073 894.587 168.839 892.019 165.663 889.344C162.227 886.456 158.888 883.444 155.648 880.308C149.473 874.348 143.682 868.001 138.312 861.306C132.863 854.505 128.022 847.253 123.269 839.952C118.378 832.723 114.069 825.117 110.382 817.206C108.814 813.723 107.532 810.118 106.55 806.426C106.089 804.652 105.021 801.967 105.825 800.193C106.628 798.42 109.049 797.332 110.548 796.362L115.899 792.902C116.977 792.206 119.398 789.962 120.681 790.668C121.593 791.187 122.494 793.353 123.033 794.245C123.817 795.529 124.552 796.832 125.258 798.165C130.746 808.337 135.058 819.656 143.476 827.878C148.223 832.628 154.374 835.721 161.018 836.698C170.103 837.953 181.157 832.661 189.34 838.129L187.89 832.612C180.197 843.284 178.717 854.809 180.736 867.559C181.716 873.703 183.313 879.769 183.989 885.963C184.264 888.472 184.803 892.225 182.931 894.273C181.294 896.057 178.335 896.233 176.13 895.773C170.975 894.665 168.809 902.437 173.895 903.456Z" fill="#7F72FF"/>
<path d="M462.221 803.8C460.673 801.888 458.969 800.108 457.125 798.479C451.461 793.579 443.836 790.345 436.437 791.619C431.449 792.481 426.706 795.313 421.678 794.725C415.083 793.941 410.712 787.699 407.214 782.044L389.26 752.938C382.322 759.063 375.422 765.217 368.68 771.509C366.808 773.253 364.858 775.155 364.495 777.585C364.221 779.486 364.976 781.427 365.769 783.259C378.882 813.727 404.47 839.354 431.968 860.493C436.32 863.835 440.896 867.226 446.365 868.656C451.446 870 456.843 869.457 461.555 867.128C462.676 866.649 463.622 865.834 464.259 864.795C464.624 863.933 464.752 862.989 464.632 862.061C464.122 854.378 459.173 847.42 454.989 840.501C450.804 833.582 447.149 825.693 449.54 818.402C451.216 813.1 456.312 808.21 462.221 803.8Z" fill="#7F72FF"/>
<path d="M465.073 800.919C459.967 794.823 453.313 789.639 445.424 787.934C441.734 787.12 437.912 787.12 434.223 787.934C430.234 788.835 426.01 791.305 421.826 790.658C415.073 789.619 411.046 780.603 407.919 775.507C402.849 767.308 397.78 759.105 392.71 750.899C392.066 749.839 390.975 749.13 389.745 748.971C388.515 748.813 387.28 749.223 386.389 750.086C378.98 756.613 370.905 762.944 364.182 770.196C361.379 773.224 359.743 776.732 360.654 780.976C361.536 785.023 363.819 789.012 365.681 792.677C373.276 807.612 383.635 821.097 395.15 833.219C406.803 845.566 419.618 856.76 433.419 866.647C440.201 871.469 447.903 874.438 456.322 873.027C459.859 872.439 464.044 871.126 466.563 868.401C469.503 865.236 468.728 860.483 467.719 856.7C465.2 847.312 458.213 840.138 454.577 831.279C452.813 826.967 451.882 822.204 454.097 817.882C456.312 813.561 460.457 810.17 464.26 807.279C468.327 804.172 464.318 797.175 460.193 800.321C454.313 804.829 447.952 810.052 445.6 817.412C443.297 824.595 445.836 832.171 449.168 838.58C452.813 845.597 458.546 852.006 460.212 859.905C460.516 861.345 460.928 862.482 459.869 863.443C458.811 864.403 456.684 864.795 455.273 865.069C451.136 865.781 446.88 865.113 443.16 863.168C436.369 859.787 430.42 854.348 424.54 849.507C418.552 844.548 412.78 839.374 407.184 833.945C396.257 823.263 386.242 811.591 378.216 798.557C376.128 795.156 374.168 791.697 372.336 788.09C371.356 786.13 370.376 784.17 369.562 782.21C368.504 779.731 367.877 778.124 369.827 775.899C372.875 772.42 376.746 769.431 380.176 766.334C384.096 762.8 388.045 759.285 392.024 755.79L385.693 754.976L401.02 779.584C404.852 785.787 408.684 793.147 415.348 796.773C418.684 798.555 422.52 799.169 426.245 798.518C430.45 797.861 434.35 795.715 438.603 795.382C447.119 794.715 454.283 800.487 459.428 806.622C462.76 810.601 468.385 804.868 465.073 800.919Z" fill="#7F72FF"/>
<path d="M189.83 846.107C186.816 847.308 183.509 847.571 180.344 846.861C178.07 846.361 177.129 849.909 179.364 850.34C183.29 851.111 187.359 850.617 190.986 848.929C192.554 848.214 191.427 845.479 189.801 846.107H189.83Z" fill="#382C80"/>
<path d="M188.987 855.397C185.802 857.72 182.559 858.396 178.707 858.719C177.823 858.787 177.141 859.523 177.141 860.41C177.141 861.296 177.823 862.033 178.707 862.1C182.911 862.375 187.233 860.552 190.555 858.082C192.133 856.906 190.614 854.221 188.987 855.397Z" fill="#382C80"/>
<path d="M189.34 865.413C186.586 867.732 183.069 868.944 179.471 868.813C178.524 868.813 177.756 869.581 177.756 870.528C177.756 871.476 178.524 872.243 179.471 872.243C183.924 872.343 188.214 870.564 191.29 867.343C192.554 866.079 190.663 864.237 189.33 865.383L189.34 865.413Z" fill="#382C80"/>
<path d="M445.238 815.148C448.936 815.462 452.385 817.142 454.91 819.862C456.488 821.518 459.046 818.961 457.419 817.344C454.18 814.098 449.821 812.215 445.238 812.081C443.278 812.003 443.278 815.021 445.238 815.148Z" fill="#382C80"/>
<path d="M445.953 827.193C448.732 825.435 452.286 825.481 455.018 827.31C456.978 828.545 458.83 825.35 456.841 824.194C452.975 821.87 448.121 821.961 444.346 824.429C442.631 825.546 444.189 828.271 445.953 827.193Z" fill="#382C80"/>
<path d="M452.617 836.66C453.837 835.61 455.423 835.089 457.027 835.209C457.795 835.239 458.459 834.679 458.561 833.918C458.663 833.156 458.168 832.442 457.419 832.269C454.863 831.693 452.193 832.522 450.412 834.445C448.991 835.866 451.157 838.022 452.617 836.64V836.66Z" fill="#382C80"/>
<path d="M200.973 851.36C202.472 850.321 205.461 848.684 207.362 849.517C208.195 849.37 208.342 849.517 207.833 850.056C207.584 850.513 207.252 850.918 206.853 851.252C205.915 852.219 204.773 852.965 203.511 853.437C201.551 854.192 201.659 857.357 204.04 857.357C210.057 857.249 206.833 865.638 202.541 861.963C200.581 860.307 197.768 863.08 199.709 864.786C203.354 868.01 209.332 867.412 211.204 862.502C213.076 857.592 208.96 853.065 204.04 853.388L205.02 857.083C207.392 855.525 213.968 851.066 210.988 847.508C208.362 844.392 202.002 846.901 199.464 848.831C197.984 849.948 199.366 852.487 200.963 851.379L200.973 851.36Z" fill="#382C80"/>
<path d="M466.269 818.275C467.249 817.647 468.67 817.187 469.503 818.275C469.855 818.745 470.179 819.862 469.346 820.235C467.817 820.832 467.16 823.077 468.856 823.988C470.022 824.615 471.482 825.262 472.168 826.458C473.295 828.418 471.335 828.633 469.826 827.957C467.386 826.869 465.22 830.378 467.69 831.612C470.884 833.21 475.53 833.141 476.559 828.976C477.588 824.811 474.118 822.116 470.924 820.44V823.988C472.16 823.347 473.065 822.21 473.413 820.862C473.76 819.514 473.518 818.081 472.746 816.922C470.963 814.355 467.307 814.315 464.965 816.07C463.672 817.05 464.828 819.215 466.269 818.294V818.275Z" fill="#382C80"/>
<path d="M606.036 354.96C594.762 388.723 577.759 420.292 555.772 448.285C547.863 458.36 539.014 468.581 536.799 481.194C535.339 489.534 536.015 500.02 528.665 504.224C523.922 506.948 517.973 505.488 512.73 503.92C488.064 496.541 463.348 488.054 441.239 474.608C424.932 464.7 398.717 447.482 392.651 428.323C390.514 421.541 392.406 412.917 398.746 409.703C400.951 408.586 403.45 408.213 405.753 407.292C410.996 405.195 414.671 400.481 417.994 395.914C441.367 363.76 463.005 324.835 499.873 306.391" fill="white"/>
<path d="M603.194 354.147C591.108 387.511 573.751 418.721 551.783 446.59C546.658 453.038 541.268 459.457 537.426 466.788C533.781 473.746 532.526 480.704 531.546 488.348C530.733 494.649 529.292 501.686 521.452 501.215C517.326 500.97 513.171 499.324 509.251 498.099C504.547 496.648 499.863 495.159 495.188 493.61C478.058 487.897 461.231 481.125 445.639 471.943C433.301 464.671 421.051 456.664 410.722 446.678C405.871 441.984 401.402 436.79 398.423 430.685C396.032 425.785 394.689 418.082 399.746 414.24C402.568 412.094 406.792 411.888 409.918 410.163C413.43 408.055 416.488 405.27 418.915 401.971C423.658 395.953 427.911 389.525 432.253 383.223C451.539 355.185 471.276 326.383 501.891 309.723C506.409 307.254 502.44 300.766 497.903 302.863C468.121 316.848 448.246 344.954 429.959 371.169C425.304 377.843 420.698 384.546 415.945 391.132C413.613 394.366 411.31 397.688 408.311 400.354C404.852 403.441 400.471 403.637 396.551 405.744C389.828 409.311 386.751 417.396 387.516 424.707C388.211 431.635 391.837 438.005 395.983 443.474C405.508 456.008 418.709 465.494 431.851 473.912C447.025 483.554 463.185 491.547 480.057 497.756C489.279 501.205 498.677 504.263 508.075 507.085C516.258 509.535 525.931 512.534 533.242 506.272C538.72 501.597 539.602 494.1 540.366 487.387C541.219 479.159 544.113 471.273 548.784 464.446C554.468 455.929 561.289 448.197 567.238 439.877C573.191 431.521 578.703 422.859 583.751 413.927C594.283 395.493 602.728 375.942 608.927 355.636C610.044 351.961 604.537 350.57 603.253 354.068L603.194 354.147Z" fill="#382C80"/>
<path d="M571.373 292.671C548.52 281.117 522.226 279.226 496.844 275.815C476.264 273.042 455.812 269.132 435.555 264.486C429.45 263.085 423.393 262.154 417.219 261.262C414.279 260.841 409.242 258.871 406.439 260.331C425.638 250.12 444.552 239.359 463.348 228.432C471.492 223.699 479.783 219.24 488.073 214.781C491.386 212.997 495.913 209.214 499.49 208.362C503.342 207.441 506.243 211.988 509.555 213.115C512.875 214.189 516.346 214.725 519.835 214.702C527.438 214.544 534.702 211.528 540.18 206.255C548.118 198.621 551.862 187.36 552.126 176.345C552.263 170.465 550.588 164.958 548.833 159.45C547.314 154.707 546.266 147.69 541.973 144.681C538.436 142.202 533.32 143.006 529.841 140.448C527.077 138.419 526.078 134.832 524.255 131.932C520.923 126.581 515.435 124.778 509.555 124.268C504.439 123.837 499.226 124.552 497.344 118.584C494.775 110.639 488.709 104.309 480.88 101.405C468.66 96.975 453.617 103.521 442.66 108.951C386.32 136.93 325.903 166.594 288.438 219.485C277.805 234.518 269.21 251.825 268.838 270.249C268.093 310.125 301.109 329.578 334.87 341.122C389.231 359.742 425.295 363.172 482.321 356.185" fill="white"/>
<path d="M573.137 289.653C553.361 279.745 531.487 276.609 509.79 273.826C486.015 270.768 462.486 266.681 439.103 261.389C432.596 259.91 426.069 258.753 419.503 257.754C415.044 257.078 409.928 254.814 405.489 256.646L408.429 263.634C423.795 255.46 438.975 246.974 454.058 238.291C468.199 230.157 482.634 222.483 496.57 214.026C497.55 213.458 499.373 212.066 500.578 212.066C501.617 212.066 502.744 213.223 503.518 213.791C505.977 215.723 508.847 217.065 511.907 217.711C519.089 219.266 526.58 218.49 533.291 215.496C546.648 209.538 553.871 195.622 555.644 181.637C556.624 173.493 554.988 166.124 552.616 158.372C550.931 152.835 549.892 146.436 545.374 142.378C542.826 140.085 539.651 139.37 536.397 138.664C532.634 137.851 531.154 136.616 529.41 133.235C526.293 127.208 522.079 122.945 515.347 121.21C512.447 120.574 509.494 120.21 506.527 120.123C503.371 119.907 501.931 119.603 500.764 116.565C498.47 110.338 494.33 104.96 488.897 101.15C476.441 92.4963 461.084 96.4065 448.246 101.973C435.408 107.539 422.845 114.272 410.408 120.769C397.757 127.375 385.193 134.117 372.933 141.438C348.629 155.942 325.413 172.621 305.744 193.093C285.909 213.742 265.937 240.378 265.349 270.21C264.998 282.264 268.15 294.161 274.424 304.461C280.539 314.261 289.3 322.1 298.924 328.333C309.106 334.899 320.366 339.75 331.773 343.778C346.206 348.929 360.932 353.219 375.873 356.626C403.372 362.771 431.361 364.191 459.428 362.104C467.415 361.516 475.343 360.605 483.281 359.458C487.064 358.909 486.221 352.343 482.37 352.716C454.518 355.44 426.765 357.469 398.913 353.588C385.593 351.688 372.42 348.872 359.488 345.16C346.591 341.505 333.596 337.516 321.268 332.155C301.325 323.473 281.186 310.017 274.698 288.055C266.554 260.537 281.264 233.538 298.042 212.595C331.979 170.22 380.861 144.25 428.519 120.368C440.465 114.38 452.725 106.873 466.023 104.443C472.658 103.237 479.302 104.041 484.888 108.01C487.29 109.727 489.339 111.89 490.925 114.38C492.679 117.114 493.258 120.397 495.051 123.063C498.373 128.021 504.175 127.757 509.447 128.247C512.258 128.388 514.995 129.194 517.434 130.599C520.129 132.333 521.354 134.96 522.785 137.704C524.037 140.456 526.059 142.787 528.606 144.417C531.438 146.044 534.663 146.151 537.71 147.102C542.993 148.739 543.59 155.981 545.011 160.528C547.295 168.015 548.931 174.953 547.599 182.803C546.491 189.438 543.973 196.063 539.572 201.227C535.149 206.541 528.85 209.949 521.981 210.743C518.511 211.1 515.003 210.767 511.662 209.763C508.957 208.92 507.095 206.617 504.557 205.422C498.618 202.619 493.218 207.058 488.407 210.126C482.095 214.154 475.196 217.368 468.66 221.023C454.469 228.971 440.494 237.301 426.284 245.219C419.058 249.238 411.803 253.193 404.519 257.087C400.785 259.047 403.401 265.76 407.459 264.085C410.653 262.771 415.936 264.957 419.219 265.456C424.775 266.28 430.273 267.27 435.751 268.504C447.158 271.118 458.618 273.434 470.13 275.452C491.69 279.245 513.671 280.852 535.211 284.919C547.05 287.163 558.731 290.388 569.511 295.699C573.52 297.659 577.067 291.681 573.039 289.663L573.137 289.653Z" fill="#382C80"/>
<path d="M571.374 292.671C534.134 273.826 490.249 279.186 450.834 268.093C449.697 267.769 448.06 267.691 447.737 268.838C447.665 269.22 447.692 269.615 447.815 269.984C453.891 295.984 446.59 317.132 435.947 340.348C429.087 355.401 422.982 377.588 403.323 380.009C408.743 384.576 416.818 382.831 423.727 381.263C438.451 377.922 453.556 376.561 468.64 377.216C475.843 377.52 483.428 378.196 489.936 375.109" fill="white"/>
<path d="M573.137 289.653C539.494 272.571 501.421 274.659 465.337 267.505C460.82 266.613 456.419 265.29 451.931 264.32C448.383 263.555 444.258 264.555 443.875 268.838C443.67 271.121 444.699 273.689 445.081 275.923C445.494 278.331 445.786 280.758 445.953 283.195C446.268 287.746 446.196 292.316 445.737 296.856C444.003 314.192 436.241 329.882 429.685 345.758C424.334 358.743 418.18 374.364 402.441 376.579C399.001 377.069 399.501 381.479 401.588 383.076C407.096 387.329 414.221 386.8 420.679 385.565C428.725 384.027 436.623 382.233 444.797 381.44C453.108 380.646 461.466 380.45 469.806 380.852C477.274 381.195 484.869 381.685 491.68 378.068C495.051 376.285 492.738 370.454 489.044 371.796C482.36 374.237 475.647 373.913 468.66 373.629C460.916 373.304 453.16 373.503 445.443 374.227C438.052 374.923 430.71 376.078 423.462 377.686C417.455 379.019 410.516 381.057 405.175 376.941L404.332 383.439C418.003 381.479 426.255 370.356 431.9 358.713C434.693 352.941 437.055 346.953 439.74 341.132C443.769 332.811 447.175 324.203 449.932 315.378C452.388 307.169 453.736 298.669 453.94 290.104C453.999 285.866 453.734 281.63 453.146 277.432C453.019 276.501 452.646 270.484 451.872 270.17L449.795 271.866C450.53 272.081 451.265 272.277 452.009 272.473C453.489 272.865 454.949 273.228 456.468 273.581C474.108 277.697 492.219 279.079 510.172 281.107C530.488 283.41 551.068 286.605 569.6 295.69C573.608 297.65 577.155 291.701 573.128 289.653H573.137Z" fill="#382C80"/>
<path d="M469.454 260.517C478.646 262.056 486.29 268.642 491.641 276.266C496.992 283.89 500.461 292.632 504.724 300.933C507.939 307.226 511.6 313.282 515.68 319.053C520.678 326.119 527.764 334.037 536.77 335.487C540.464 336.085 543.679 335.487 547.324 336.35C552.077 337.506 556.144 339.407 561.201 339.75C576.822 340.819 593.62 326.883 601.538 314.457C608.584 303.392 613.533 286.291 609.662 273.228C606.634 263.026 590.288 255.304 581.242 250.786C556.34 238.418 526.999 234.812 499.99 241.701" fill="#7F72FF"/>
<path d="M468.64 263.399C481.145 265.917 488.76 276.687 494.248 287.369C500.402 299.345 505.635 311.556 513.642 322.502C520.668 332.126 529.136 339.319 541.493 339.721C547.599 339.917 552.979 342.73 558.977 343.572C564.491 344.305 570.1 343.631 575.284 341.612C596.452 333.527 611.544 312.634 614.552 290.466C615.964 280.068 614.797 269.543 606.899 262.046C599.892 255.353 590.836 251.011 582.203 246.837C556.458 234.381 526.666 230.833 498.903 237.958C494.003 239.222 496.061 246.778 501 245.582C523.965 240.114 548.051 241.771 570.051 250.335C578.894 253.712 587.351 258.026 595.276 263.203C598.686 265.457 602.224 268.103 604.439 271.64C606.82 275.423 607.065 280.372 606.938 284.723C606.301 305.098 592.512 325.629 573.549 333.42C568.943 335.311 563.886 336.36 558.937 335.448C553.391 334.468 548.373 332.116 542.65 331.95C536.927 331.783 532.399 330.813 527.803 327.099C523.797 323.656 520.302 319.66 517.425 315.231C513.405 309.434 509.802 303.359 506.645 297.052C503.558 290.907 500.765 284.586 497.188 278.696C491.141 268.769 482.086 259.782 470.228 257.705C466.494 257.048 464.838 262.703 468.64 263.467V263.399Z" fill="#7F72FF"/>
<path d="M468.64 263.399C479.214 265.76 486.564 274.179 491.611 283.293C497.491 293.906 501.646 305.205 508.271 315.437C513.72 323.816 520.031 333.008 529.419 337.359C534.623 339.77 539.445 339.251 544.913 339.995C550.382 340.74 555.478 343.278 561.162 343.7C566.287 344.082 566.12 336.35 561.162 335.801C555.585 335.184 550.509 332.43 544.913 331.881C539.553 331.371 535.113 331.636 530.419 328.618C521.668 323.012 515.797 312.614 510.907 303.755C501.293 286.301 492.934 261.115 470.188 257.617C466.484 257.048 464.769 262.517 468.601 263.379L468.64 263.399Z" fill="#382C80"/>
<path d="M550.891 333.812L535.28 360.673C534.829 361.294 534.589 362.043 534.594 362.81C534.751 364.123 536.221 364.77 537.534 365.142C542.808 366.484 548.37 366.142 553.439 364.162C554.811 363.623 556.232 362.957 557.692 363.182C561.005 363.623 562.171 367.867 564.895 369.807C565.275 370.127 565.762 370.292 566.258 370.268C566.704 370.171 567.113 369.946 567.434 369.621C569.746 367.661 572.236 365.456 572.569 362.457C572.804 360.34 571.902 358.282 571.001 356.352C568.035 350.04 564.817 343.853 561.348 337.79" fill="#7F72FF"/>
<path d="M548.226 332.253C544.747 337.467 541.366 342.759 538.132 348.1L533.046 356.381C531.625 358.704 529.959 361.046 530.527 363.927C531.507 368.984 537.858 369.954 542.052 370.287C544.761 370.481 547.484 370.309 550.147 369.778C551.285 369.563 552.408 369.275 553.508 368.915C553.959 368.768 556.576 367.514 556.742 367.563C557.938 367.925 559.241 370.591 559.937 371.404C561.19 373.057 562.983 374.219 565.004 374.687C569.57 375.501 574.157 370.385 575.989 366.671C578.547 361.497 576.176 356.557 573.902 351.795C571.287 346.22 568.375 340.79 565.18 335.527C562.142 330.627 554.772 334.939 557.438 340.054C559.525 344.053 561.672 348.031 563.72 352.059C564.641 353.892 565.552 355.724 566.434 357.577C567.062 358.88 568.228 360.683 567.904 362.202C567.597 363.019 567.092 363.746 566.434 364.319C565.454 365.387 564.092 365.358 566.209 365.907C568.61 366.524 567.013 365.642 566.415 364.927C565.817 364.211 565.435 363.633 564.945 363.016C562.985 360.507 560.427 358.635 557.105 358.645C553.126 358.645 549.539 361.163 545.521 361.477C543.606 361.634 541.678 361.535 539.788 361.183C539.269 361.085 538.759 360.967 538.259 360.82C537.214 360.428 537.413 361.082 538.857 362.78C539.083 362.78 540.288 360.164 540.415 359.938C544.884 351.795 549.382 343.68 553.557 335.37C554.344 333.904 553.829 332.079 552.392 331.242C550.955 330.404 549.113 330.856 548.226 332.263V332.253Z" fill="#7F72FF"/>
<path d="M548.226 332.253C544.747 337.467 541.366 342.759 538.132 348.1L533.046 356.381C531.625 358.704 529.959 361.046 530.527 363.927C531.507 368.984 537.858 369.954 542.052 370.287C544.761 370.481 547.484 370.309 550.147 369.778C551.285 369.563 552.408 369.275 553.508 368.915C553.959 368.768 556.576 367.514 556.742 367.563C557.938 367.925 559.241 370.591 559.937 371.404C561.19 373.057 562.983 374.219 565.004 374.687C569.57 375.501 574.157 370.385 575.989 366.671C578.547 361.497 576.176 356.557 573.902 351.795C571.287 346.22 568.375 340.79 565.18 335.527C562.142 330.627 554.772 334.939 557.438 340.054C559.525 344.053 561.672 348.031 563.72 352.059C564.641 353.892 565.552 355.724 566.434 357.577C567.062 358.88 568.228 360.683 567.904 362.202C567.597 363.019 567.092 363.746 566.434 364.319C565.454 365.387 564.092 365.358 566.209 365.907C568.61 366.524 567.013 365.642 566.415 364.927C565.817 364.211 565.435 363.633 564.945 363.016C562.985 360.507 560.427 358.635 557.105 358.645C553.126 358.645 549.539 361.163 545.521 361.477C543.606 361.634 541.678 361.535 539.788 361.183C539.269 361.085 538.759 360.967 538.259 360.82C537.214 360.428 537.413 361.082 538.857 362.78C539.083 362.78 540.288 360.164 540.415 359.938C544.884 351.795 549.382 343.68 553.557 335.37C554.344 333.904 553.829 332.079 552.392 331.242C550.955 330.404 549.113 330.856 548.226 332.263V332.253Z" fill="#382C80"/>
<path d="M603.88 212.252C614.993 211.498 626.528 221.072 624.46 232.264C621.706 246.797 623.049 262.517 614.542 275.482C607.29 286.546 594.805 286.977 582.869 285.331C582.594 285.331 579.811 301.815 579.605 303.324C578.763 309.263 579.537 309.204 573.98 312.644C566.983 316.916 554.753 316.505 549.225 311.526C543.551 306.421 544.237 299.698 545.707 292.769C550.48 270.121 558.232 247.689 567.042 226.355" fill="white"/>
<path d="M603.88 215.398C611.26 215.173 619.844 219.867 621.06 227.756C621.677 231.823 620.08 236.488 619.58 240.496C618.982 245.396 618.6 250.247 617.728 255.078C616.307 263.389 613.621 273.483 606.134 278.412C599.764 282.607 591.571 282.195 584.329 281.254C577.881 280.421 577.92 287.614 577.067 292.22C576.215 296.826 575.401 301.56 574.735 306.254C574.735 306.597 574.245 307.352 574.588 306.842C574.931 306.332 574.588 306.842 574.431 306.989C573.05 308.047 571.546 308.936 569.953 309.635C566.627 310.922 563.029 311.344 559.496 310.86C556.213 310.429 552.852 309.263 550.901 306.45C548.804 303.422 549.245 299.404 549.921 295.984C554.361 272.552 563.063 249.737 571.883 227.668C572.863 225.12 570.776 222.16 568.365 221.474C565.425 220.641 563.23 222.454 562.171 224.992C556.534 238.255 551.627 251.815 547.471 265.613C545.413 272.473 543.659 279.49 542.091 286.517C540.798 292.397 539.249 298.492 540.259 304.51C542.219 316.152 554.067 320.974 564.759 319.964C569.776 319.551 574.589 317.787 578.684 314.858C582.252 312.31 583.232 309.557 583.731 305.343C584.065 302.599 584.711 299.002 585.201 295.886C585.535 293.857 585.868 291.819 586.24 289.8C586.377 289.045 586.593 288.281 586.671 287.526C586.809 286.184 587.71 286.144 585.868 288.291L582.869 289.535C592.542 290.741 603.184 290.623 611.338 284.557C620.374 277.844 623.774 266.074 625.274 255.431C626.097 249.551 626.459 243.622 627.234 237.732C627.851 232.764 628.929 228.226 627.067 223.356C623.559 214.183 613.582 208.558 603.968 209.067C599.95 209.283 599.901 215.486 603.968 215.369L603.88 215.398Z" fill="#382C80"/>
<path d="M541.719 248.022C541.851 251.172 542.514 254.276 543.679 257.205C550.294 272.954 563.396 267.005 566.875 253.207C568.904 245.171 570.335 236.311 576.391 230.667C576.963 230.065 577.672 229.611 578.459 229.344C580.879 228.667 583.094 231.245 583.467 233.734C583.839 236.223 583.153 238.761 583.467 241.26C584.809 234.841 587.72 228.089 593.61 225.188C598.696 222.67 604.791 223.63 610.191 225.375C615.591 227.119 620.863 229.579 626.518 229.981C635.661 230.627 648.96 221.719 647.363 211.439C646.922 208.577 645.295 205.735 642.639 204.579C639.983 203.423 636.347 204.579 635.377 207.254C634.887 203.217 634.397 199.101 632.741 195.387C631.085 191.672 628.076 188.331 624.137 187.311C620.197 186.292 615.424 188.213 614.111 192.064C612.367 188.666 608.834 186.563 605.015 186.651C601.196 186.738 597.763 189.001 596.177 192.476C593.296 189.409 590.15 186.194 586.044 185.263C581.938 184.332 576.783 186.959 576.744 191.143C576.744 186.488 559.349 200.1 558.663 200.894C549.151 212.08 543.292 225.91 541.875 240.525C541.631 243.017 541.578 245.523 541.719 248.022Z" fill="#382C80"/>
<path d="M538.514 248.022C539.053 255.451 541.366 264.241 548.138 268.436C553.136 271.533 559.114 270.259 563.406 266.603C568.992 261.85 570.511 254.912 572.334 248.169C573.412 244.249 574.588 240.163 576.93 236.743C577.599 236.023 578.224 235.264 578.802 234.469L579.547 233.763C578.645 233.303 578.38 233.313 578.753 233.763C578.596 234.391 578.998 236.027 578.949 236.85C578.826 238.314 578.787 239.783 578.831 241.251C579.086 246.288 586.769 247.856 587.994 242.495C588.974 238.085 590.542 233.087 594.374 230.294C598.931 226.992 605.272 228.814 610.054 230.431C615.464 232.254 620.756 234.498 626.518 234.832C630.889 234.94 635.212 233.895 639.052 231.803C646.53 228.03 653.223 220.279 652.233 211.429C651.645 206.265 648.47 201.051 643.188 199.61C638.611 198.356 633.211 200.385 631.163 204.785L640.248 207.245C639.189 198.562 637.455 188.928 629.154 184.175C625.733 182.13 621.588 181.684 617.809 182.955C614.031 184.225 610.997 187.084 609.505 190.781L618.237 189.644C612.357 179.52 597.549 179.462 592.051 190.055L599.558 189.075C595.344 184.607 590.111 179.873 583.506 180.314C577.332 180.716 572.5 184.969 571.942 191.153H581.546C580.566 177.139 560.25 193.113 556.066 196.817C550.137 202.06 545.903 210.332 542.855 217.515C538.808 227.05 536.397 237.605 536.858 248.013C537.132 254.226 546.834 254.255 546.55 248.013C545.874 233.107 551.45 215.829 561.72 204.746C563.808 202.482 565.572 201.472 568.296 199.571C569.992 198.385 571.726 197.229 573.529 196.2C574.137 195.857 575.607 195.122 575.685 195.083C575.146 195.338 576.273 194.887 576.234 194.936L576.548 194.857C574.451 195.426 572.919 194.191 571.952 191.153C571.952 193.805 574.102 195.955 576.754 195.955C579.406 195.955 581.556 193.805 581.556 191.153C581.663 189.859 584.633 189.752 585.789 190.173C588.631 191.153 590.817 193.76 592.806 195.867C593.863 196.901 595.336 197.394 596.802 197.203C598.269 197.011 599.566 196.158 600.323 194.887C602.469 190.732 607.575 190.251 609.995 194.475C611.612 197.298 616.855 197.886 618.247 194.475C619.638 191.065 623.411 191.437 625.871 193.779C629.399 197.131 629.958 202.697 630.507 207.254C630.761 209.43 631.839 211.341 634.084 211.958C636.044 212.497 638.69 211.645 639.591 209.714C639.817 209.234 640.081 208.577 641.042 209.234C642.188 210.018 642.619 211.753 642.639 213.046C642.639 215.918 640.836 218.368 638.837 220.239C633.172 225.571 626.636 225.776 619.56 223.483C610.74 220.612 601.44 216.457 592.218 220.543C584.476 223.993 580.664 232.107 578.978 239.986L588.2 241.28C587.886 236.576 589.062 231.803 585.642 227.903C583.013 224.64 578.312 223.956 574.862 226.335C568.169 230.853 565.827 240.231 564.17 247.581C563.004 252.746 561.652 260.998 555.546 262.752C548.471 264.78 545.335 252.726 544.953 248.052C544.6 243.946 538.22 243.887 538.514 248.022Z" fill="#382C80"/>
<path d="M516.189 190.516C509.882 195.846 503.244 200.772 496.315 205.265C491.797 208.117 495.992 215.33 500.509 212.439C508.112 207.726 514.941 201.869 520.756 195.073C522.015 193.812 522.012 191.77 520.751 190.511C519.49 189.253 517.448 189.255 516.189 190.516Z" fill="#382C80"/>
<path d="M475.382 124.758C481.791 122.024 488.269 122.249 495.051 122.867C499.5 123.268 500.098 116.497 496.031 115.291C488.024 112.89 479.126 114.997 472.011 119.054C468.209 121.22 471.55 126.385 475.343 124.758H475.382Z" fill="#382C80"/>
<path d="M499.736 139.36L501.343 139.233C502.158 139.212 502.936 138.891 503.528 138.331C504.106 137.75 504.43 136.965 504.43 136.146C504.432 135.329 504.107 134.546 503.528 133.97C502.953 133.385 502.164 133.059 501.343 133.068L499.736 133.196C498.924 133.218 498.149 133.539 497.56 134.097C496.358 135.302 496.358 137.253 497.56 138.458C498.132 139.043 498.918 139.369 499.736 139.36Z" fill="#382C80"/>
<path d="M518.12 151.698C521.315 151.698 521.325 146.729 518.12 146.729C514.916 146.729 514.916 151.698 518.12 151.698Z" fill="#382C80"/>
<path d="M536.524 171.592C540.591 171.592 540.601 165.261 536.524 165.261C532.448 165.261 532.448 171.592 536.524 171.592Z" fill="#382C80"/>
<path d="M889.746 179.08C888.933 185.556 886.025 191.589 881.465 196.259C877.613 200.179 872.341 203.393 870.793 208.999C869.303 214.467 872.38 219.779 877.31 222.16C883.562 225.169 889.961 222.719 895.812 220.004L889.873 214.056C885.845 220.788 882.543 228.805 887.472 236.027C889.476 239.125 892.861 241.054 896.547 241.202C898.396 241.185 900.229 240.854 901.966 240.222C903.495 239.722 904.906 238.869 906.445 239.438L904.299 231.304C899.81 236.468 897.821 244.632 902.829 250.247C906.994 254.912 914.324 255.833 918.94 251.335L910.865 246.641C908.493 255.324 910.473 267.73 920.949 269.867C929.348 271.572 937.099 263.987 940.98 257.362C944.038 252.168 936.021 247.503 932.905 252.648C931.112 255.588 927.329 260.714 923.438 260.821C918.185 260.959 919.332 252.217 920.185 249.208C921.508 244.485 915.539 241.221 912.109 244.514C911.453 245.141 910.149 244.083 909.865 243.534C908.885 241.878 910.11 239.448 911.178 238.193C912.384 236.96 912.853 235.185 912.413 233.517C911.973 231.85 910.689 230.537 909.032 230.059C906.47 229.252 903.713 229.318 901.192 230.245C899.693 230.716 897.429 232.205 895.881 231.451C891.108 229.177 895.881 221.131 897.37 218.436C899.624 214.516 895.224 210.596 891.431 212.498C888.168 214.095 882.151 217.221 879.054 213.566C876.281 210.283 881.69 206.098 883.797 204.079C890.724 197.538 894.844 188.566 895.293 179.05C895.528 175.444 890.148 175.591 889.746 179.05V179.08Z" fill="#382C80"/>
<path d="M373.639 290.741C380.477 284.053 387.805 277.885 395.562 272.287C403.255 266.75 411.516 262.144 419.552 257.127C422.492 255.304 420.532 249.855 417.082 251.247C398.894 258.714 382.665 272.15 369.337 286.409C366.671 289.261 370.826 293.445 373.639 290.701V290.741Z" fill="#382C80"/>
<path d="M503.861 511.054C505.331 526.029 496.413 540.787 489.318 553.361C485.725 559.737 481.864 565.944 477.734 571.981C475.67 575.006 473.547 577.992 471.364 580.938C470.531 582.055 469.061 584.927 467.905 585.387C466.249 586.034 463.495 585.132 461.849 584.75C460.886 584.539 459.927 585.119 459.666 586.069C459.405 587.019 459.933 588.007 460.869 588.317C463.377 589.199 468.062 590.434 470.404 588.69C471.678 587.71 472.746 585.662 473.687 584.407C475.039 582.614 476.353 580.811 477.656 578.988C482.732 571.853 487.446 564.484 491.797 556.879C499.637 543.159 509.437 527.018 507.085 510.564C506.831 508.751 503.675 509.163 503.861 511.005V511.054Z" fill="#382C80"/>
<path d="M559.28 335.507C558.118 335.179 557.09 334.493 556.34 333.547C556.124 333.233 556.899 334.458 556.213 333.047C556.258 333.348 556.258 333.22 556.213 332.665C556.252 332.758 556.219 332.866 556.134 332.92C556.546 332.302 556.448 332.342 555.85 333.008C555.605 332.939 555.781 332.881 556.36 332.841C557.702 332.92 555.723 332.42 555.536 332.106C555.943 331.475 556.485 330.942 557.124 330.548C558.457 330.705 558.721 330.656 557.918 330.382C557.656 330.307 557.4 330.212 557.153 330.097C553.841 328.725 550.382 332.724 551.401 335.85C553.625 342.632 563.043 340.887 564.513 334.537C565.129 331.644 564.308 328.631 562.308 326.452C560.231 324.198 557.477 323.688 554.566 324.286C552.205 324.756 550.141 326.179 548.862 328.218C547.582 330.258 547.2 332.735 547.804 335.066C548.423 337.463 549.966 339.518 552.097 340.779C554.449 342.142 556.605 341.985 559.172 341.916C563.367 341.789 563.278 335.781 559.172 335.458L559.28 335.507Z" fill="#382C80"/>
<path d="M503.479 256.362C513.465 267.671 519.247 281.205 521.658 296.003C521.981 297.963 525.46 297.552 525.206 295.523C523.138 280.06 516.253 265.642 505.527 254.314C504.253 252.942 502.254 254.971 503.479 256.362Z" fill="#382C80"/>
<path d="M529.4 280.852C530.379 280.852 531.174 280.058 531.174 279.078C531.174 278.099 530.379 277.305 529.4 277.305C528.42 277.305 527.626 278.099 527.626 279.078C527.626 280.058 528.42 280.852 529.4 280.852Z" fill="#382C80"/>
<path d="M162.733 575.872C192.24 563.143 219.36 545.475 242.926 523.628C244.543 522.138 242.123 519.708 240.515 521.217C217.259 542.977 190.512 560.674 161.39 573.569C159.832 574.264 161.184 576.509 162.733 575.872Z" fill="#382C80"/>
<path d="M264.8 510.408L267.985 509.114C268.855 508.849 269.367 507.95 269.151 507.066C268.894 506.184 267.982 505.667 267.093 505.9L263.908 507.164C263.027 507.429 262.51 508.339 262.732 509.232C262.98 510.126 263.904 510.652 264.8 510.408Z" fill="#382C80"/>
<path d="M172.151 443.082C179.912 442.474 187.671 441.873 195.426 441.279C197.288 441.141 197.288 438.211 195.426 438.339C187.664 438.992 179.906 439.662 172.151 440.348C170.436 440.495 170.406 443.19 172.151 443.052V443.082Z" fill="#382C80"/>
<path d="M223.64 436.3C224.625 436.3 225.424 435.502 225.424 434.517C225.424 433.531 224.625 432.733 223.64 432.733C222.655 432.733 221.856 433.531 221.856 434.517C221.856 435.502 222.655 436.3 223.64 436.3Z" fill="#382C80"/>
<path d="M448.177 640.003C447.088 635.027 446.562 629.945 446.609 624.852C446.609 623.937 445.868 623.196 444.953 623.196C444.039 623.196 443.297 623.937 443.297 624.852C443.19 630.242 443.776 635.624 445.041 640.865C445.512 642.913 448.638 642.041 448.177 640.003Z" fill="#382C80"/>
<path d="M361.291 780.868C380.097 765.188 399.256 749.822 417.278 733.201C420.924 729.83 415.553 724.587 411.868 727.791C393.386 743.844 374.628 759.602 356.988 776.546C354.107 779.31 358.331 783.348 361.3 780.868H361.291Z" fill="#382C80"/>
<path d="M100.64 802.82C102.826 792.726 115.938 790.629 123.592 786.16C130.599 782.113 138.008 777.066 143.192 770.794C146.201 767.158 141.291 761.974 137.91 765.512C131.729 771.772 124.561 776.973 116.693 780.907C107.295 785.651 95.7011 789.727 95.0543 802.026C94.8877 805.192 99.9543 805.946 100.621 802.781L100.64 802.82Z" fill="#382C80"/>
<path d="M571.217 284.331C575.138 287.357 579.824 289.23 584.75 289.741C589.062 290.055 589.984 283.136 585.73 282.205C581.81 281.323 578.028 280.705 574.323 278.932C572.832 278.06 570.917 278.563 570.045 280.054C569.174 281.545 569.676 283.46 571.168 284.331H571.217Z" fill="#382C80"/>
<path d="M617.061 239.496C613.337 239.389 609.221 239.683 607.437 243.514C605.566 247.493 607.437 253.001 608.016 257.068L610.407 254.677C608.276 254.636 606.146 254.767 604.037 255.069C601.293 255.441 602.077 259.684 604.674 259.763C606.59 259.814 608.507 259.712 610.407 259.459C611.147 259.443 611.84 259.09 612.289 258.5C612.737 257.911 612.892 257.149 612.71 256.431C611.95 253.732 611.413 250.975 611.103 248.189C610.691 244.014 613.425 242.907 617.061 242.515C617.894 242.515 618.57 241.839 618.57 241.006C618.57 240.172 617.894 239.496 617.061 239.496Z" fill="#382C80"/>
<path d="M595.452 264.977C596.967 266.863 599.237 267.985 601.656 268.044C602.76 268.044 603.655 267.149 603.655 266.045C603.655 264.941 602.76 264.046 601.656 264.046C600.244 263.976 598.883 263.499 597.736 262.674C597.1 262.038 596.068 262.038 595.433 262.674C594.797 263.309 594.797 264.341 595.433 264.977H595.452Z" fill="#382C80"/>
<path d="M595.57 240.506C598.333 239.663 600.372 240.506 602.851 241.682C603.639 242.121 604.629 241.918 605.181 241.205C605.732 240.491 605.679 239.482 605.056 238.83C602.351 235.89 597.687 236.086 594.355 237.625C592.728 238.379 593.884 241.015 595.57 240.506Z" fill="#382C80"/>
<path d="M596.805 243.24C596.154 244.36 596.085 245.725 596.618 246.905C597.277 248.111 598.665 248.723 599.999 248.395C600.736 248.229 601.375 247.775 601.773 247.134C602.171 246.492 602.295 245.718 602.116 244.984C601.719 243.675 600.614 242.703 599.264 242.476C598.108 242.173 596.922 242.847 596.589 243.995C596.303 245.148 596.971 246.324 598.108 246.67C598.49 246.827 597.618 246.415 597.99 246.67L598.235 246.797C598.304 246.797 598.402 246.915 598.48 246.925C598.196 246.69 598.108 246.631 598.235 246.739C598.274 246.772 598.31 246.808 598.343 246.846C598.075 246.592 597.926 246.236 597.932 245.866L597.99 245.465C598.167 245.112 598.216 245.004 598.128 245.151C598.039 245.298 598.128 245.2 598.333 244.877L598.618 244.651C598.353 244.837 599.117 244.465 598.804 244.583C598.49 244.7 599.264 244.583 599.029 244.583C598.794 244.583 599.549 244.71 599.255 244.583L599.519 244.7C599.395 244.622 599.464 244.681 599.725 244.877C599.47 244.641 599.921 245.21 599.725 244.877C599.803 245.033 599.862 245.2 599.774 244.935C599.686 244.671 599.774 245.318 599.774 244.935V244.759C599.774 244.622 599.774 244.671 599.774 244.906C599.781 244.782 599.808 244.659 599.852 244.543C600.062 243.737 599.643 242.9 598.872 242.583C598.103 242.246 597.204 242.542 596.785 243.269L596.805 243.24Z" fill="#382C80"/>
<path d="M614.082 246.053C613.436 247.177 613.367 248.543 613.896 249.728C614.562 250.93 615.95 251.54 617.286 251.217C618.022 251.05 618.659 250.595 619.057 249.954C619.454 249.313 619.579 248.54 619.403 247.807C619.005 246.496 617.902 245.522 616.551 245.288C615.393 244.985 614.204 245.658 613.866 246.807C613.58 247.967 614.252 249.147 615.395 249.492C615.777 249.639 614.905 249.238 615.268 249.492L615.522 249.62C615.595 249.675 615.674 249.721 615.758 249.757C615.473 249.512 615.395 249.453 615.522 249.571C615.56 249.602 615.593 249.638 615.62 249.679C615.361 249.419 615.216 249.066 615.219 248.699L615.277 248.307C615.454 247.944 615.493 247.836 615.415 247.983C615.336 248.13 615.415 248.032 615.611 247.709L615.905 247.493C615.63 247.67 616.404 247.307 616.081 247.415C615.758 247.523 616.542 247.415 616.316 247.415C616.091 247.415 616.826 247.552 616.532 247.415C616.845 247.572 616.934 247.611 616.796 247.532C616.669 247.464 616.738 247.532 617.012 247.709C616.747 247.474 617.198 248.042 617.012 247.709C617.1 247.856 617.159 248.022 617.071 247.758C616.983 247.493 617.071 248.14 617.071 247.817C617.066 247.755 617.066 247.692 617.071 247.63C617.071 247.493 617.071 247.552 617.071 247.787C617.071 247.689 617.13 247.503 617.149 247.425C617.347 246.62 616.93 245.792 616.167 245.47C615.404 245.148 614.52 245.428 614.082 246.131V246.053Z" fill="#382C80"/>
<path d="M718.236 429.175C758.146 420.274 796.349 404.96 831.358 383.831C833.151 382.743 831.514 379.911 829.721 381.018C795.035 402.195 757.162 417.642 717.56 426.765C715.992 427.117 716.658 429.528 718.226 429.175H718.236Z" fill="#382C80"/>
<path d="M617.865 594.384L620.707 601.518C621.491 603.478 624.744 602.635 623.941 600.626L621.079 593.492C620.295 591.532 617.061 592.385 617.865 594.384Z" fill="#382C80"/>
<path d="M267.681 338.555C223.97 354.742 177.75 363.105 131.138 363.261C118.074 363.261 105.001 362.682 91.9866 361.457C89.1838 361.193 89.2132 365.564 91.9866 365.828C138.553 370.295 185.543 366.28 230.676 353.98C243.485 350.462 256.104 346.288 268.485 341.475C270.288 340.779 269.523 337.859 267.681 338.535V338.555Z" fill="#382C80"/>
<path d="M112.9 342.534L118.045 342.975C120.005 343.141 120.005 340.084 118.045 339.917L112.9 339.496C110.94 339.339 110.94 342.367 112.9 342.534Z" fill="#382C80"/>
<path d="M73.3079 800.262C67.1437 796.646 58.3629 800.262 55.7463 806.671C52.9043 813.678 57.3437 821.597 64.2135 823.958L65.3993 819.646C58.7529 817.487 51.5145 820.402 48.2199 826.565C45.0839 832.749 47.6025 840.873 53.3453 844.587C54.7565 845.499 57.2653 845.832 58.4707 846.93C59.7839 848.174 59.5291 850.771 60.2249 852.418C61.377 855.001 63.4432 857.067 66.0265 858.219C71.4263 860.757 77.7865 859.679 81.4027 854.799C82.9119 852.751 79.4427 850.056 77.8551 852.065C75.2287 855.348 70.3287 855.583 66.9379 853.241C64.8799 851.82 64.4487 850.046 63.9979 847.704C63.6882 845.376 62.2093 843.368 60.0779 842.382C57.8631 841.265 55.6679 840.854 53.9823 838.854C52.224 836.777 51.3856 834.075 51.6597 831.367C52.3555 825.487 58.8333 822.351 64.1449 823.958C66.8987 824.782 68.0649 820.499 65.3307 819.646C60.6365 818.206 57.4907 812.688 59.3331 807.935C61.2931 802.722 67.2809 801.536 72.0731 803.035C72.7905 803.199 73.5218 802.824 73.8087 802.147C74.0956 801.469 73.8557 800.683 73.2393 800.282L73.3079 800.262Z" fill="#382C80"/>
<path d="M328.5 808.896C321.434 812.071 317.887 821.283 321.483 828.29C325.168 835.474 334.929 837.933 341.789 834.023L338.486 831.485C337.141 838.129 339.828 844.943 345.346 848.88C346.054 849.31 346.942 849.31 347.649 848.88L353.627 845.038L350.491 844.225C356.371 853.809 369.974 856.22 378.686 849.125C380.558 847.586 378.059 844.294 376.069 845.734C369.288 850.634 358.968 849.223 354.45 841.922C353.801 840.843 352.41 840.477 351.314 841.099L345.317 844.96H347.62C343.8 842.132 341.929 837.373 342.798 832.7C343.009 831.823 342.683 830.904 341.967 830.355C341.25 829.806 340.278 829.73 339.486 830.162C334.586 833.102 327.51 831.701 324.678 826.428C321.846 821.156 324.805 814.159 330.068 811.63C331.901 810.748 330.293 808.102 328.471 808.916L328.5 808.896Z" fill="#382C80"/>
<path d="M732.025 446.325L747.705 444.287C748.366 444.238 748.946 443.826 749.21 443.217C749.473 442.608 749.377 441.904 748.961 441.388C748.544 440.872 747.875 440.63 747.225 440.759L731.545 443.003C729.683 443.268 730.104 446.57 731.996 446.325H732.025Z" fill="#382C80"/>
<path d="M796.137 621.951C785.758 623.304 775.4 617.669 769.931 608.878C764.228 599.705 765.619 588.298 772.411 580.125C779.202 571.952 789.855 568.208 799.929 571.952C809.837 575.646 817.197 585.348 817.275 595.981C817.275 598.676 821.558 599.431 822.116 596.638C824.851 582.986 830.878 564.543 847.4 563.043C860.572 561.858 869.186 576.313 867.128 588.131C866.736 590.366 869.588 592.777 871.391 590.611C880.877 579.213 895.724 572.598 910.591 574.127C917.284 574.803 925.389 577.704 928.397 584.28C930.74 589.425 929.299 597.216 923.419 599.205C920.851 600.068 921.165 604.105 924.076 604.105C930.936 604.037 938.403 604.037 944.656 607.349C949.722 610.034 954.377 615.846 953.26 621.922C952.143 627.998 945.822 631.467 940.628 633.75C934.345 636.423 927.889 638.666 921.302 640.463C894.029 648.176 865.442 649.342 837.287 647.931C821.097 647.127 804.947 645.432 788.885 643.482C785.523 643.08 785.553 648.382 788.885 648.754C820.911 652.674 853.378 655.555 885.601 652.263C900.931 650.812 916.052 647.653 930.681 642.845C941.343 639.248 958.836 633.907 958.425 619.756C958.229 613.023 953.701 606.879 948.046 603.527C940.902 599.284 932.18 599.058 924.115 599.156L924.771 604.056C931.798 601.655 935.15 594.325 934.248 587.21C933.17 578.723 925.879 573.098 918.156 570.678C900.242 565.062 879.486 573 867.804 587.083L872.067 589.562C874.537 575.303 865.207 558.388 849.527 558.006C829.398 557.526 820.548 578.978 817.432 595.403L822.273 596.06C821.577 576.46 800.713 560.525 781.858 568.061C772.974 571.677 766.158 579.057 763.258 588.2C760.562 597.291 762.67 607.129 768.853 614.317C775.633 622.407 786.088 626.454 796.548 625.038C798.283 624.793 797.891 621.726 796.137 621.961V621.951Z" fill="#382C80"/>
<path d="M46.6128 191.467C35.0488 183.401 36.9794 165.859 43.8394 155.383C47.9358 149.131 54.5116 143.339 62.3026 142.849C69.2606 142.408 77.13 147.18 77.7768 154.609L81.8634 153.501C74.6016 139.174 80.2954 121.651 91.536 111.116C103.678 99.7092 126.718 96.24 138.38 110.43C144.407 117.79 145.524 128.845 139.654 136.567C138.488 138.106 140.428 140.487 142.192 139.87C153.952 135.46 168.868 134.568 177.815 145.073C181.529 149.434 183.401 155.354 181.598 160.949C179.795 166.545 174.973 171.053 168.976 171.259L169.524 175.306C180.393 171.533 194.103 169.74 202.746 179.119C206.225 182.901 208.058 188.164 206.255 193.172C204.52 198.013 200.14 201.659 194.887 201.463C192.349 201.365 192.437 205.118 194.887 205.383C200.963 205.961 206.421 202.198 209.175 196.906C212.016 191.39 211.675 184.774 208.283 179.579C199.669 165.859 181.912 166.673 168.427 171.367C166.339 172.092 166.535 175.502 168.976 175.414C183.783 174.914 190.398 157.441 183.284 145.681C174.395 130.981 155.608 130.236 140.997 135.567L143.535 138.88C149.287 131.314 149.18 120.956 145.083 112.655C140.595 103.541 131.197 98.2588 121.348 97.0338C101.424 94.525 83.2844 107.451 76.64 125.856C72.9383 135.566 73.4787 146.384 78.1296 155.677C79.1096 157.539 82.422 156.745 82.2162 154.57C81.4028 146.034 74.2292 139.87 65.9286 138.772C56.6382 137.537 48.073 143.211 42.5752 150.248C32.8536 162.664 30.0704 184.548 45.035 194.25C46.7892 195.396 48.3474 192.643 46.6618 191.467H46.6128Z" fill="#382C80"/>
</svg>
