<svg width="1000" height="1000" viewBox="0 0 1000 1000" fill="none" xmlns="http://www.w3.org/2000/svg">
<path d="M760.121 627.567C673.303 714.199 533.653 715.022 448.197 629.399C362.741 543.777 363.849 404.117 450.667 317.475L760.121 627.567Z" fill="#7F72FF"/>
<ellipse cx="604.92" cy="473.023" rx="74.9308" ry="219.04" transform="rotate(-44.94 604.92 473.023)" fill="#382C80"/>
<path d="M720.637 357.381C709.907 346.617 693.286 344.401 680.111 351.977C666.935 359.553 660.49 375.033 664.395 389.721L614.415 432.557L614.356 432.508L531.36 503.695C538.096 510.927 545.087 518.179 552.332 525.451C559.577 532.722 566.813 539.726 574.039 546.462L645.412 463.583L688.415 413.603C703.076 417.424 718.481 410.955 726.019 397.812C733.556 384.668 731.359 368.105 720.657 357.381H720.637Z" fill="#7F72FF"/>
<path d="M723.499 354.519C711.791 343.049 694.074 340.321 679.458 347.737C663.778 355.822 656.428 373.903 660.495 390.779L661.533 386.859L611.553 429.695H617.286L617.228 429.636C615.624 428.113 613.108 428.113 611.504 429.636L538.788 492.013L528.479 500.833C526.783 502.293 527.077 505.057 528.479 506.556C542.199 521.289 556.428 535.544 571.168 549.323C572.677 550.734 575.431 551.028 576.891 549.323L639.405 476.744L648.274 466.454C649.798 464.848 649.798 462.328 648.274 460.721L648.215 460.672V466.396L691.218 416.465L687.298 417.513C704.124 421.492 722.097 414.201 730.182 398.57C737.624 383.968 734.927 366.247 723.479 354.519C719.873 350.746 714.15 356.479 717.756 360.242C726.488 369.366 729.055 383.076 723.185 394.483C716.803 406.735 702.863 413.025 689.454 409.703C688.055 409.318 686.558 409.715 685.534 410.741L642.531 460.672C641.003 462.274 641.003 464.794 642.531 466.396V466.454V460.721L580.066 533.32L571.246 543.61H576.969C562.243 529.825 548.02 515.566 534.3 500.833V506.556L607.016 444.189L617.316 435.369H611.593V435.418C613.2 436.942 615.719 436.942 617.326 435.418L667.306 392.582C668.332 391.558 668.729 390.06 668.344 388.662C664.94 375.198 671.252 361.162 683.583 354.774C695 348.894 708.701 351.53 717.815 360.281C721.529 363.858 727.272 358.135 723.499 354.519Z" fill="#7F72FF"/>
<path d="M635.877 393.513C605.781 366.534 573 341.407 536.73 323.277C523.353 316.583 509.29 310.664 494.649 307.41C484.144 305.068 472.805 303.853 462.309 306.705C443.258 311.84 436.143 329.892 437.427 348.1C439.387 375.442 452.842 401.882 466.572 425.04C486.907 459.34 512.368 490.7 539.925 519.453C568.531 549.294 599.96 576.783 634.319 599.813C659.074 616.473 686.68 632.457 716.168 638.739C733.701 642.472 755.623 642.512 766.589 625.763C779.035 606.761 770.509 579.302 762.924 560.231C749.136 525.588 727.497 494.179 704.193 465.308C697.078 456.508 689.715 447.913 682.104 439.524C678.605 435.604 672.892 441.386 676.38 445.247C702.311 473.952 726.262 505.027 744.353 539.327C751.076 552.067 757.005 565.327 760.866 579.223C763.63 589.2 765.707 600.146 763.806 610.475C760.572 628.341 745.02 633.848 728.526 632.467C702.762 630.311 677.752 616.992 656.006 603.968C624.117 584.897 594.923 561.377 567.983 535.868C539.19 508.624 512.544 478.793 489.886 446.227C473.04 422.012 457.086 395.591 449.05 366.975C444.885 352.157 440.906 329.735 455.214 318.759C462.025 313.555 471.11 312.702 479.381 313.183C491.699 313.888 503.832 317.779 515.219 322.306C548.118 335.36 578.214 356.185 605.634 378.274C613.984 384.997 622.15 391.952 630.134 399.138C634.054 402.608 639.758 396.894 635.867 393.405L635.877 393.513Z" fill="#382C80"/>
<path d="M612.945 828.751L553.9 590.474H435.82L376.775 828.751H612.945Z" fill="#7F72FF"/>
<path d="M323.6 884.101H665.238C665.238 884.101 674.489 843.872 665.238 826.713C655.987 809.553 338.584 807.936 323.639 826.713C308.694 845.489 323.6 884.101 323.6 884.101Z" fill="#7F72FF"/>
<path d="M664.963 822.342C589.504 814.051 513.593 810.581 437.692 811.954C411.437 812.395 385.124 813.286 358.978 815.746C350.795 816.52 342.583 817.402 334.478 818.892C330.499 819.627 325.511 820.303 322.12 822.704C317.896 825.703 315.633 831.975 314.427 836.777C312.844 843.684 312.482 850.815 313.359 857.847C314.291 867.182 316.432 876.357 319.729 885.14C321.581 889.952 329.411 887.864 327.569 882.984C325.009 876.159 323.16 869.089 322.052 861.885C320.533 852.359 319.17 836.836 326.795 829.251C325.962 830.084 326.883 829.172 327.53 828.937C326.55 829.3 328.814 828.506 329.284 828.369C331.715 827.657 334.186 827.088 336.683 826.663C344.209 825.282 351.844 824.478 359.468 823.723C417.886 818.275 477.146 818.882 535.711 821.019C578.9 822.587 622.039 825.576 664.993 830.358C670.167 830.936 670.128 822.832 664.993 822.263L664.963 822.342Z" fill="#382C80"/>
<path d="M445.933 316.113C406.39 355.822 379.656 410.585 377.196 466.964C374.942 518.591 393.954 570.148 425.383 610.671C443.328 633.942 465.687 653.443 491.18 668.06C496.08 670.873 500.519 663.337 495.629 660.436C452.786 634.854 419.542 595.894 401.02 549.559C381.79 501.546 381.59 448.008 400.461 399.854C411.849 370.552 429.509 343.994 450.373 320.591C453.068 317.573 448.795 313.202 445.904 316.113H445.933Z" fill="#382C80"/>
<path d="M835.405 875.664H67.085C56.6676 875.664 46.211 875.419 35.7936 875.664H34.5C24.0728 875.664 24.063 891.863 34.5 891.863H802.82C813.237 891.863 823.694 892.118 834.111 891.863H835.434C845.862 891.863 845.871 875.664 835.434 875.664H835.405Z" fill="#382C80"/>
<path d="M967.303 882.328C958.738 879.388 948.683 878.956 939.736 878.702C931.063 878.466 920.195 877.349 912.012 880.583C906.014 882.945 904.573 892.471 912.012 894.254C920.538 896.293 930.034 894.666 938.775 894.881C947.517 895.097 956.7 896.263 965.5 895.636C968.74 895.405 971.373 892.933 971.809 889.715C972.245 886.496 970.364 883.413 967.303 882.328Z" fill="#382C80"/>
<path d="M660.769 367.514C657.329 381.763 660.769 397.894 671.608 408.204C674.665 411.144 678.909 406.753 676.194 403.617C667.835 393.945 663.552 381.783 666.237 369.023C666.982 365.476 661.631 363.947 660.769 367.514Z" fill="#382C80"/>
<path d="M689.738 307.234C714.042 303.559 741.805 314.261 756.868 333.763C774.243 356.303 775.262 386.399 773.028 413.535C772.597 418.817 777.85 423.335 782.828 423.335C788.571 423.335 792.109 418.817 792.628 413.535C795.882 381.136 791.589 345.258 769.284 319.955C748.63 296.749 716.489 287.461 686.641 296.072C679.311 298.218 682.525 308.332 689.718 307.234H689.738Z" fill="#382C80"/>
<path d="M664.248 212.007C689.973 204.677 718.824 212.174 742.57 222.787C763.523 232.071 782.683 244.965 799.174 260.88C833.945 294.592 854.672 339.78 854.201 388.564C853.917 417.337 845.597 444.169 833.327 469.963C831.145 473.889 832.5 478.84 836.378 481.108C840.255 483.375 845.234 482.13 847.586 478.303C863.698 455.684 870.91 427.176 872.821 399.795C874.775 372.123 870.499 344.364 860.307 318.563C841.06 270.543 802.751 231.745 755.584 210.675C726.184 197.533 692.423 189.026 661.269 201.208C654.722 203.766 657.153 214.026 664.209 211.988L664.248 212.007Z" fill="#382C80"/>
<path d="M656.183 119.437C673.881 118.31 691.855 118.457 709.573 119.045C727.076 119.613 744.481 120.652 761.689 124.023C778.408 127.306 794.804 132.471 809.827 140.595C825.879 149.278 839.688 160.773 851.967 174.258C897.145 224.022 921.792 291.525 923.723 358.341C924.326 376.845 923.148 395.364 920.204 413.642C917.078 432.547 911.884 450.882 906.386 469.238C903.593 478.528 918.146 485.163 922.4 475.99C937.325 443.581 943.058 406.822 943.489 371.346C943.913 335.675 938.334 300.188 926.986 266.368C915.58 232.181 898.164 200.305 875.556 172.239C862.943 156.667 848.488 142.496 831.671 131.52C816.55 121.632 799.331 114.713 781.868 110.274C761.474 105.109 740.316 103.188 719.324 103.071C698.068 102.943 677.184 106.265 656.183 108.833C649.577 109.646 649.215 119.907 656.183 119.466V119.437Z" fill="#382C80"/>
<path d="M618.58 873.664C618.58 869.46 617.6 865.305 617.541 861.091C617.541 859.905 617.296 857.494 618.472 856.681C619.648 855.868 622.48 856.446 623.784 856.485C625.087 856.524 627.988 856.034 629.135 856.603C630.324 856.407 630.549 856.554 629.811 857.044V860.17C629.811 864.335 629.87 868.5 629.968 872.675C630.105 878.182 638.582 878.212 638.543 872.675C638.543 869.029 638.435 865.374 638.356 861.728C638.288 858.788 638.67 855.26 637.376 852.516C634.74 846.979 627.204 848.204 622.235 848.302C616.894 848.41 611.906 849.86 610.299 855.574C608.731 861.13 609.976 869.294 611.818 874.576C613.063 878.143 618.521 877.682 618.56 873.664H618.58Z" fill="#382C80"/>
<path d="M559.839 872.674C560.025 868.637 559.898 864.482 560.368 860.473L556.742 864.099C558.486 864.256 560.241 864.227 561.995 864.246H565.15C565.699 864.246 567.238 864.521 567.6 864.246C568.228 864.335 568.12 864.119 567.267 863.6C566.62 862.669 566.395 862.718 566.601 863.747C566.297 864.413 566.601 865.805 566.601 866.52C566.601 868.558 566.601 870.607 566.699 872.635C566.983 877.859 574.539 877.878 574.823 872.635C574.985 869.675 574.985 866.707 574.823 863.747C574.666 861.228 574.137 858.847 571.883 857.347C569.923 855.975 567.414 856.22 565.141 856.308C562.348 856.416 559.506 856.455 556.732 856.808C554.929 857.034 552.9 858.288 553.096 860.434C553.479 864.452 553.243 868.598 553.341 872.635C553.439 876.673 559.633 876.8 559.829 872.635L559.839 872.674Z" fill="#382C80"/>
<path d="M405.528 783.22C411.317 750.638 418.529 718.409 427.166 686.533C427.437 685.605 426.904 684.633 425.976 684.363C425.047 684.092 424.076 684.625 423.805 685.553C414.743 717.36 407.729 749.714 402.804 782.417C402.539 784.181 405.205 784.965 405.528 783.171V783.22Z" fill="#382C80"/>
<path d="M429.901 674.499C430.783 674.499 431.498 673.784 431.498 672.902C431.498 672.019 430.783 671.304 429.901 671.304C429.018 671.304 428.303 672.019 428.303 672.902C428.303 673.784 429.018 674.499 429.901 674.499Z" fill="#382C80"/>
<path d="M653.203 406.469L655.84 409.115C656.463 409.653 657.396 409.621 657.981 409.041C658.567 408.461 658.607 407.528 658.074 406.9L655.428 404.264C654.802 403.728 653.869 403.765 653.287 404.347C652.704 404.93 652.668 405.862 653.203 406.488V406.469Z" fill="#382C80"/>
<path d="M653.733 754.261C677.586 737.876 701.387 721.405 725.135 704.85C730.741 700.93 736.219 696.755 742.021 693.188C745.176 691.228 748.538 689.758 752.301 690.836C755.907 691.874 759.083 694.756 761.954 696.98C771.156 704.203 779.976 711.906 788.561 719.844C822.861 751.537 853.241 787.228 888.09 818.294C907.112 835.239 927.564 850.634 950.075 862.669C952.829 864.139 955.279 859.964 952.525 858.474C909.571 835.248 874.997 800.458 841.216 765.835C824.449 748.636 807.7 731.329 789.796 715.296C781.152 707.554 772.254 700.087 763.003 693.07C759.083 690.13 754.888 686.867 749.782 686.818C743.902 686.759 739.002 690.904 734.445 694.079C707.005 713.248 679.601 732.456 652.233 751.703C650.695 752.791 652.145 755.349 653.733 754.261Z" fill="#382C80"/>
<path d="M44.5646 812.561C87.9487 782.291 126.65 745.811 159.43 704.291C167.016 694.677 173.866 684.426 182.068 675.312C189.801 666.728 199.65 657.672 211.664 656.32C226.031 654.742 236.302 666.218 245.857 675.136L278.569 705.614C303.686 729.026 328.706 752.566 354.029 775.772C356.067 777.644 359.105 774.635 357.077 772.734C333.919 751.008 310.488 729.614 287.154 708.054L252.844 676.4C243.652 667.913 234.018 656.32 221.337 653.204C199.15 647.765 181.245 669.158 169.515 684.789C152.678 707.251 134.911 728.742 115.105 748.665C92.8431 771.085 68.7496 791.609 43.075 810.023C41.5462 811.111 42.9966 813.669 44.5646 812.571V812.561Z" fill="#382C80"/>
<path d="M175.463 691.453C175.144 694.952 176.251 698.432 178.533 701.104C180.815 703.775 184.08 705.412 187.586 705.643C195.426 706.026 201.57 699.371 202.903 692.129L199.307 693.109C202.933 697.363 208.508 699.429 214.031 698.568C219.554 697.707 224.234 694.041 226.394 688.885L222.827 689.346C228.099 693.746 232.95 699.714 240.614 697.882C247.219 696.304 250.541 690.042 249.434 683.652C249.032 681.349 245.161 681.869 245.337 684.211C245.739 689.689 241.662 695.069 235.665 693.384C231.843 692.315 229.001 688.552 226.051 686.132C225.473 685.585 224.654 685.374 223.884 685.573C223.113 685.772 222.499 686.353 222.258 687.112C218.711 695.598 208.283 696.618 202.364 690.052C201.817 689.513 201.025 689.305 200.284 689.507C199.543 689.709 198.966 690.29 198.768 691.032C197.905 695.932 194.612 700.773 189.34 701.567C186.509 701.98 183.643 701.079 181.559 699.118C179.475 697.158 178.399 694.353 178.638 691.502C178.805 689.454 175.698 689.542 175.483 691.502L175.463 691.453Z" fill="#382C80"/>
<path d="M719.373 721.059C712.052 721.166 708.309 731.652 713.493 736.66C719.451 742.403 729.673 736.033 728.899 728.418L725.459 729.839C729.379 734.475 734.416 739.767 741.07 739.051C745.843 738.542 749.439 735.386 750.027 730.614L746.784 732.476C752.938 736.797 760.866 740.423 768.471 737.875C774.498 735.857 779.114 730.231 778.614 723.734C778.389 720.921 773.988 720.872 774.184 723.734C774.576 729.663 769.422 734.083 763.718 734.298C758.269 734.504 753.301 731.741 748.959 728.752C747.47 727.772 745.882 729.144 745.715 730.614C745.167 735.396 739.091 735.514 735.837 733.887C732.809 732.338 730.516 729.516 728.311 727.027C727.233 725.792 724.665 726.713 724.871 728.448C725.429 733.015 718.775 738.14 715.355 733.348C712.68 729.614 716.11 724.979 719.775 724.057C720.444 723.811 720.853 723.133 720.756 722.426C720.66 721.719 720.084 721.175 719.373 721.117V721.059Z" fill="#382C80"/>
<path d="M692.639 836.64C688.523 833.543 691.159 827.457 696.421 829.104C701.076 830.554 701.733 835.503 700.41 839.639C699.636 842.079 703.027 843.206 704.33 841.295C708.867 834.758 717.246 843.716 710.328 847.822C708.279 849.037 709.348 851.791 711.464 852.006C717.452 852.624 724.557 853.241 729.32 857.396C733.544 861.091 735.014 868.176 730.457 872.155C728.614 873.753 731.104 877.055 733.093 875.566C739.13 871.009 739.11 862.826 734.984 856.887C729.83 849.429 719.736 848.322 711.464 847.518L712.601 851.703C717.501 848.763 719.363 841.609 715.13 837.208C710.896 832.808 703.752 834.415 700.616 839.119L704.536 840.785C706.496 833.161 701.704 822.087 692.08 825.439C686.092 827.516 684.671 837.375 691.453 839.374C693.197 839.884 693.883 837.591 692.609 836.64H692.639Z" fill="#382C80"/>
<path d="M296.327 832.847C292.034 824.9 284.567 819.196 276.197 816.089C275.199 815.851 274.186 816.424 273.875 817.403C270.729 829.466 275.952 841.707 286.291 848.439L287.948 844.519C275.462 839.894 265.28 852.536 270.494 864.119L273.101 860.719C263.408 857.779 247.944 856.867 246.758 870.519C246.494 873.557 251.198 873.517 251.492 870.519C252.472 860.532 265.692 863.502 271.876 865.168C272.774 865.383 273.715 865.05 274.278 864.318C274.842 863.585 274.922 862.59 274.482 861.777C270.562 853.349 278.54 845.823 286.801 848.655C289.124 849.449 290.545 845.921 288.457 844.735C279.357 839.376 274.904 828.639 277.54 818.412L275.227 819.725C283.253 822.391 289.055 827.438 293.73 834.425C294.004 834.894 294.509 835.181 295.052 835.178C295.596 835.174 296.097 834.881 296.366 834.409C296.635 833.936 296.631 833.356 296.356 832.887L296.327 832.847Z" fill="#382C80"/>
<path d="M158.656 297.14C142.741 290.349 140.036 269.7 144.466 254.804C145.946 249.806 148.307 244.396 153.217 241.927C157.813 239.614 163.517 240.398 168.005 242.544C178.119 247.376 182.294 258.842 185.998 268.612C186.236 269.37 186.849 269.952 187.618 270.151C188.387 270.351 189.205 270.139 189.781 269.592C197.386 263.604 206.108 256.852 216.388 257.901C220.984 258.391 225.6 260.566 227.589 264.957C229.402 268.965 229.059 274.198 225.345 277.021L228.52 280.196C235.929 266.633 254.451 263.879 264.839 275.678C267.275 278.44 268.995 281.758 269.847 285.341C270.523 288.202 270.327 291.28 271.454 294.033C272.089 295.852 273.432 297.336 275.178 298.149C278.334 299.492 281.176 297.307 284.273 298.002C290.456 299.384 290.006 309.027 286.615 312.702C281.715 318.063 273.179 318.504 266.407 318.837C248.101 319.749 229.785 320.454 211.527 321.258L181.5 322.62C176.335 322.845 171.171 323.09 166.006 323.296C163.943 323.484 161.866 323.441 159.813 323.169C158.788 323.079 157.789 322.793 156.873 322.326C155.363 321.562 154.795 320.562 155.158 319.317C155.158 318.239 155.814 317.573 157.118 317.308C160.058 318.2 161.175 313.78 158.362 312.81C152.482 310.782 148.474 318.308 150.973 323.159C155.128 331.254 169.711 328.059 176.639 327.696L252.187 324.296C265.192 323.708 295.082 325.619 293.837 305.196C293.504 299.727 290.143 293.72 284.165 293.249C281.852 293.073 278.079 294.465 276.119 292.955C274.835 291.975 275.139 288.349 274.865 286.801C274.281 282.569 272.695 278.537 270.239 275.041C258.695 258.655 234.077 260.459 224.542 277.922C223.562 279.774 225.747 282.587 227.717 281.088C236.89 274.11 233.94 260.174 224.091 255.382C210.469 248.748 196.935 258.322 186.606 266.456L190.389 267.436C186.086 256.156 180.843 243.338 168.927 238.311C158.225 233.803 147.288 237.536 142.467 248.267C134.676 265.731 137.616 292.367 157.314 300.364C159.127 301.099 160.479 297.944 158.656 297.169V297.14Z" fill="#382C80"/>
<path d="M387.3 166.496C382.459 156.638 387.986 143.065 398.57 139.644C411.183 135.558 424.364 148.464 421.963 161.116C421.433 163.87 425.647 165.036 426.186 162.282C428.139 153.189 437.027 147.347 446.149 149.16C455.204 151.12 461.006 159.577 462.368 168.27C462.711 169.498 463.979 170.219 465.21 169.887C473.844 166.947 484.408 166.389 491.053 173.739C496.472 179.726 496.08 188.096 490.073 193.446C479.606 202.825 462.388 202.511 449.324 203.844C431.586 205.647 413.662 208.362 395.826 208.744C387.006 208.96 377.941 208.274 369.591 205.108C364.417 203.148 360.193 198.934 365.201 193.907C368.719 190.379 374.501 190.487 379.117 190.389C381.969 190.34 381.979 185.93 379.117 185.949C372.355 185.998 364.525 186.459 360.34 192.604C356.744 197.905 357.9 204.226 363.437 207.578C378.372 216.623 399.364 213.732 415.759 212.057L447.403 208.803C455.782 207.941 464.308 207.48 472.58 205.863C483.585 203.707 497.903 198.288 499.481 185.45C500.372 178.178 496.541 171.24 490.592 167.173C482.703 161.773 472.589 162.371 463.946 165.389L466.788 167.006C465.083 156.02 456.664 145.613 445.12 144.329C434.595 143.163 423.648 150.444 421.943 161.116L426.167 162.282C428.225 147.435 414.25 131.902 398.727 135.901C385.34 139.36 378.362 156.02 384.438 168.153C385.418 170.054 388.211 168.388 387.28 166.496H387.3Z" fill="#382C80"/>
<path d="M873.468 563.122C878.055 558.085 885.16 553.822 892.206 556.056C898.292 558.016 902.261 565.856 898.35 571.364C896.929 573.324 900.016 575.607 901.692 573.941C907.288 568.336 914.324 564.063 922.547 564.808C930.23 565.544 936.5 571.274 937.923 578.861C940.941 595.521 920.234 596.393 909.121 597.314C902.927 597.824 896.724 598.529 890.961 600.989C883.023 604.37 876.408 608.339 867.814 604.017C861.091 600.636 855.221 593.698 853.447 586.377C852.261 581.419 853.3 569.776 860.728 570.776C863.59 571.168 864.883 566.856 861.943 566.356C848.312 564.269 846.263 582.497 850.252 591.66C856.132 605.095 870.832 615.18 885.385 608.986C889.364 607.3 893.029 605.066 897.233 603.929C901.135 602.986 905.113 602.393 909.121 602.155C915.785 601.597 922.782 601.489 929.152 599.215C941.47 594.854 946.557 581.575 939.393 570.296C930.034 555.596 908.67 558.438 898.684 570.962L902.025 573.539C906.102 566.523 902.839 557.565 895.773 553.832C887.188 549.304 877.084 554.39 871.273 560.937C869.94 562.436 872.126 564.651 873.498 563.151L873.468 563.122Z" fill="#382C80"/>
<path d="M450.53 466.278C484.624 516.543 527.038 560.064 577.175 594.472C591.561 604.341 606.477 613.906 622.255 621.461C624.46 622.52 626.351 619.423 624.215 618.149C598.059 602.616 572.471 586.995 548.755 567.826C525.686 549.181 504.322 528.52 484.918 506.086C473.48 492.967 462.809 479.198 452.96 464.848C451.98 463.348 449.481 464.759 450.51 466.278H450.53Z" fill="#382C80"/>
<path d="M650.655 654.468H653.39C654.085 654.518 654.751 654.176 655.114 653.58C655.477 652.985 655.477 652.236 655.114 651.641C654.751 651.045 654.085 650.703 653.39 650.753H650.655C649.666 650.825 648.9 651.648 648.9 652.64C648.9 653.632 649.666 654.455 650.655 654.526V654.468Z" fill="#382C80"/>
<path d="M518.767 261.919C517.535 268.412 517.039 275.023 517.287 281.627C517.375 283.841 520.835 283.851 520.737 281.627C520.451 275.327 520.876 269.015 522.001 262.811C522.393 260.704 519.169 259.792 518.767 261.919Z" fill="#382C80"/>
<path d="M557.134 278.873C556.626 285.721 554.838 292.412 551.862 298.6C550.882 300.737 554.027 302.618 555.056 300.472C558.294 293.716 560.178 286.392 560.603 278.912C560.731 276.678 557.301 276.707 557.134 278.912V278.873Z" fill="#382C80"/>
<path d="M591.953 327.059C594.727 324.325 597.49 321.591 600.234 318.827C600.901 318.096 600.875 316.97 600.175 316.27C599.475 315.57 598.349 315.544 597.618 316.211C594.835 318.935 592.081 321.689 589.337 324.443C588.67 325.174 588.696 326.3 589.396 327C590.096 327.7 591.222 327.726 591.953 327.059Z" fill="#382C80"/>
<path d="M779.937 519.825C784.556 516.843 790.029 515.465 795.509 515.905C797.832 516.043 797.734 512.593 795.509 512.338C789.374 511.684 783.204 513.214 778.085 516.66C776.125 517.944 777.948 521.099 779.937 519.816V519.825Z" fill="#382C80"/>
<path d="M794.49 580.537C798.586 582.418 802.693 584.3 806.818 586.142C809.053 587.122 811.013 583.869 808.778 582.82C804.682 580.919 800.576 579.057 796.46 577.195C794.216 576.215 792.246 579.488 794.5 580.537H794.49Z" fill="#382C80"/>
<path d="M790.472 649.097L798.724 653.233C800.811 654.291 802.644 651.136 800.556 650.097L792.295 645.981C790.227 644.952 788.375 648.049 790.472 649.097Z" fill="#382C80"/>
</svg>
