<svg width="1000" height="1000" viewBox="0 0 1000 1000" fill="none" xmlns="http://www.w3.org/2000/svg">
<path d="M157.774 159.783C146.249 153.531 139.154 140.899 137.194 127.933C132.108 94.1427 155.226 63.6059 190.114 61.9399C207.649 61.226 224.583 68.3904 236.282 81.4713C241.476 87.3513 245.494 94.4563 246.905 102.179C249.845 118.545 241.025 134.519 232.039 148.513" fill="#7F72FF"/>
<path d="M159.205 157.323C144.995 149.346 139.546 132.098 140.291 116.634C140.808 103.087 146.426 90.2363 156.02 80.6579C178.687 58.4903 218.681 62.2829 236.654 88.6449C242.598 97.0474 244.64 107.601 242.26 117.614C239.829 128.061 234.194 137.478 228.54 146.475C225.766 150.885 232.666 154.854 235.488 150.542C247.062 132.902 257.283 111.832 247.532 90.9577C239.359 73.4745 220.906 61.3421 202.099 58.5295C185.151 55.9237 167.884 60.5174 154.471 71.2009C142.172 81.1087 134.773 96.0047 133.009 111.567C130.785 131.167 138.576 152.286 156.294 162.233C159.489 164.027 162.36 159.117 159.166 157.333L159.205 157.323Z" fill="#7F72FF"/>
<path d="M483.693 507.967C460.574 489.965 428.293 492.552 399.05 490.572C379.803 489.269 360.781 485.623 341.553 484.173C292.338 480.449 242.436 491.376 198.13 513.112C153.825 534.849 115.066 567.179 83.7252 605.311C73.7782 617.414 64.282 630.673 60.264 646.02C58.0394 654.556 52.522 664.258 54.8152 673.323C56.7164 680.79 65.8892 683.495 72.3082 686.641C90.35 695.461 110.44 699.606 130.412 700.518C155.491 701.664 180.539 697.901 205.177 693.099C227.717 688.709 250.129 684.044 272.356 678.399C292.436 673.323 312.536 670.118 332.234 664.013C375.54 650.636 424.54 635.887 465.455 616.355C470.776 613.817 507.595 597.853 519.071 570.403C527.567 550.107 510.486 560.035 519.071 539.768" fill="#382C80"/>
<path d="M485.878 505.782C457.86 483.634 419.444 489.22 386.183 485.496C365.916 483.242 345.826 479.792 325.423 479.547C306.004 479.374 286.621 481.266 267.603 485.192C230.608 492.738 195.259 507.732 163.605 528.214C133.32 547.995 106.17 572.202 83.0588 600.029C77.1877 606.81 71.7945 613.991 66.9183 621.52C62.1755 629.284 58.5218 637.663 56.0599 646.422C53.6099 654.752 49.3763 662.925 50.5523 671.902C51.5323 679.673 57.3045 684.113 64.0077 687.268C71.9419 691.185 80.1264 694.574 88.5077 697.411C97.6922 700.272 107.12 702.283 116.673 703.419C136.969 705.947 157.48 704.673 177.678 701.9C218.995 696.216 259.302 685.24 299.972 676.351C319.474 672.108 338.408 666.463 357.449 660.524C376.069 654.713 394.63 648.764 412.986 642.188C430.802 635.808 448.452 628.87 465.572 620.814C473.52 617.217 481.223 613.102 488.632 608.496C500.098 601.136 510.966 592.081 518.375 580.507C521.864 575.048 525.235 568.326 525.578 561.73C525.774 557.546 523.461 554.468 521.55 551.832C520.964 551.112 520.642 550.213 520.639 549.284C520.639 546.403 521.815 543.473 522.893 540.856C524.853 536.231 517.287 534.222 515.396 538.788C513.367 543.688 511.358 549.48 513.916 554.586C514.619 555.832 515.45 557.001 516.395 558.075C516.905 558.738 517.296 559.484 517.552 560.28C518.228 565.631 514.18 572.187 511.446 576.46C507.822 581.931 503.463 586.877 498.491 591.16C481.037 606.653 458.124 616.042 436.751 624.646C402.313 638.503 366.72 649.352 331.263 660.24C312.006 666.12 292.063 669.481 272.591 674.332C253.118 679.183 233.636 683.456 214.016 687.376C175.62 695.02 135.695 701.782 97.2199 691.619C88.6219 689.218 80.2424 686.094 72.1711 682.28C66.6047 679.761 59.0097 677.38 58.3041 670.353C57.8827 666.169 59.1861 661.965 60.4895 658.045C61.9202 653.713 63.3805 649.44 64.6741 645.069C67.287 636.814 71.1436 629.005 76.1107 621.912C85.6755 607.692 97.4943 594.766 109.499 582.585C121.793 570.046 135.014 558.452 149.052 547.902C177.639 526.509 209.606 509.682 243.818 499.304C279.81 488.377 317.672 485.007 355.028 489.406C374.148 491.631 393.062 494.404 412.319 495.139C428.538 495.757 445.13 495.835 460.859 500.314C468.517 502.441 475.726 505.94 482.134 510.643C484.927 512.72 488.642 507.967 485.878 505.743V505.782Z" fill="#382C80"/>
<path d="M233.273 511.672C244.504 529.126 253.099 549.304 251.825 570.021C250.61 589.739 240.633 608.045 238.938 627.714C237.056 649.587 247.425 673.313 267.25 682.741C275.972 686.886 285.821 688.091 295.474 688.091C323.571 688.091 354.274 675.44 364.75 649.372C374.178 625.93 364.446 598.588 348.512 578.988C339.172 567.502 327.696 557.595 320.386 544.688C311.039 527.938 309.555 507.92 316.328 489.975" fill="white"/>
<path d="M230.637 513.21C239.663 528.008 247.228 544.717 248.042 562.279C248.885 580.389 241.103 597.02 237.076 614.317C233.567 629.419 233.881 644.746 240.016 659.123C245.798 672.617 256.284 683.515 270.16 688.63C284.86 694.05 302.069 693.481 317.2 690.169C330.92 687.16 344.239 681.094 354.617 671.549C365.475 661.552 371.992 647.705 372.776 632.966C373.639 617.198 368.268 601.42 360.183 588.063C350.442 571.952 334.997 560.388 325.227 544.384C315.592 528.287 313.789 508.686 320.327 491.102C322.179 486.074 314.221 483.987 312.34 488.897C306.593 503.982 306.35 520.611 311.654 535.858C317.22 551.666 328.813 563.298 339.77 575.48C358.899 596.775 373.962 629.654 355.989 656.349C340.926 678.723 308.694 686.612 283.273 682.927C268.573 680.8 256.734 672.813 249.6 659.779C242.671 647.137 241.466 632.643 244.357 618.678C248.277 599.823 256.813 581.948 255.666 562.279C254.559 543.277 246.346 525.745 235.909 510.133C233.744 506.889 228.569 509.829 230.637 513.21Z" fill="#382C80"/>
<path d="M168.123 136.616C121.916 153.717 84.882 192.123 65.8602 237.566C36.0486 308.655 58.275 370.963 73.1514 441.406C81.305 479.988 86.1658 521.197 72.1714 558.026C64.2628 578.812 50.729 597.069 42.5754 617.757C32.795 642.414 39.4002 681.79 70.3584 686.964C71.2206 687.176 72.1232 687.155 72.975 686.906C75.2878 686.024 75.2878 682.819 74.935 680.369C66.3698 609.437 160.812 567.277 215.428 549.402C260.067 534.79 306.852 528.057 353.461 522.295C381.959 518.767 410.703 515.582 439.319 517.816C459.899 519.424 481.459 524.451 496.296 538.837C511.133 553.224 516.111 579.213 502.313 594.59C512.348 586.681 522.53 578.635 530.027 568.286C542.473 551.127 545.345 529.165 529.449 513.73C521.207 505.723 511.064 500.01 502.244 492.601C489.808 482.213 481.939 469.483 475.02 455.077C468.16 440.886 460.594 429.763 456.469 413.917C443.18 363.025 442.994 309.841 426.961 259.234C412.565 213.762 386.781 185.734 345.68 161.577C307.019 138.831 261.213 127.943 216.467 132.177" fill="#7F72FF"/>
<path d="M167.3 133.627C131.197 147.063 100.728 172.758 79.5801 204.795C55.3741 241.545 45.2801 285.037 48.2985 328.755C51.4933 374.305 66.1149 417.935 73.4649 462.789C77.1399 485.261 78.9529 508.595 75.2877 531.193C73.502 542.484 70.2264 553.487 65.5465 563.916C60.8621 574.225 55.0801 583.996 49.7195 593.933C41.3013 609.446 33.9317 625.019 34.5001 643.08C34.9705 657.388 39.7627 672.872 51.1601 682.28C56.5893 686.788 64.8213 691.325 72.1321 690.963C82.0105 690.473 78.2473 676.821 78.3061 670.618C78.4629 656.535 83.2061 643.129 90.8697 631.418C107.588 605.742 135.44 588.298 162.351 574.99C193.76 559.417 227.403 548.53 261.576 540.925C285.37 535.662 309.478 531.899 333.625 528.704C357.978 525.48 382.439 522.168 406.998 521.207C428.999 520.345 452.499 520.678 473.295 528.832C490.661 535.692 505.282 549.941 506.527 569.394C507.046 577.508 505.057 585.662 499.667 591.875C496.325 595.717 501.284 600.391 505.145 597.353C521.452 584.515 538.896 570.001 543.365 548.608C545.379 539.625 544.323 530.225 540.366 521.913C535.633 512.27 526.646 505.723 518.14 499.598C509.134 493.111 500.421 486.662 493.414 477.94C486.731 469.63 481.988 460.143 477.264 450.647C472.452 440.984 466.798 431.684 463.034 421.522C458.958 410.506 456.772 398.648 454.606 387.133C445.786 340.309 444.062 291.28 426.696 246.435C420.332 229.702 411.242 214.138 399.795 200.375C388.143 186.527 374.001 174.983 358.9 165.095C321.66 140.732 277.912 126.806 233.254 127.316C227.687 127.384 222.121 127.678 216.594 128.188C211.38 128.668 211.331 136.871 216.594 136.391C260.576 132.511 304.679 142.354 342.837 164.566C358.37 173.582 373.159 184.028 385.84 196.808C397.769 208.904 407.543 222.951 414.74 238.34C423.883 257.803 429.058 279.049 433.037 300.08C437.427 323.316 440.122 346.816 443.817 370.17C447.325 392.533 450.873 415.622 460.977 436.084C465.671 445.61 470.522 455.145 475.52 464.504C480.099 473.328 485.848 481.493 492.611 488.779C500.196 496.746 509.457 502.607 518.199 509.183C526.166 515.17 533.438 522.001 535.78 532.036C540.405 551.852 525.882 569.668 511.976 581.742C507.967 585.221 503.802 588.504 499.628 591.787L505.106 597.265C517.013 583.604 516.444 563.945 508.32 548.461C499.108 530.968 480.283 521.423 461.702 517.16C439.044 511.956 415.073 512.534 392.043 514.298C367.739 516.17 343.484 519.453 319.357 522.883C277.138 528.89 235.233 537.328 195.24 552.42C166.212 563.377 137.625 577.106 113.243 596.52C90.4973 614.611 71.2697 639.64 70.6131 669.824C70.5347 673.607 70.9463 677.302 71.2207 681.075C71.2207 681.633 71.5049 682.868 71.2207 683.368C70.9365 683.868 71.4559 683.182 71.4069 683.201C70.8775 683.167 70.3543 683.068 69.8487 682.907C67.8695 682.506 65.9309 681.925 64.0569 681.173C57.9208 678.563 52.773 674.071 49.3569 668.344C42.0167 656.408 40.6741 640.855 43.6435 627.351C45.6721 618.119 50.1115 609.554 54.4921 601.254C59.7841 591.248 65.5857 581.507 70.4857 571.305C80.2857 550.823 84.7545 528.714 84.7839 506.047C84.8427 460.124 70.0055 415.789 61.1757 371.15C56.9127 349.59 53.9629 327.618 54.5803 305.568C55.204 282.112 60.2478 258.985 69.4469 237.399C84.5487 202.119 110.538 171.249 143.652 151.688C151.716 146.91 160.183 142.847 168.956 139.546C172.651 138.164 171.053 132.186 167.31 133.578L167.3 133.627Z" fill="#7F72FF"/>
<path d="M491.249 342.553C497.06 342.798 491.2 335.87 491.631 333.733C492.385 329.892 498.109 328.588 501.235 327.981C513.161 325.687 525.568 328.206 536.574 332.93C549.039 338.28 560.094 346.277 571.569 353.588C596.177 369.327 623.078 382.155 651.812 387.398C679.095 392.376 706.182 389.476 733.554 389.583C762.934 389.682 792.289 391.318 821.499 394.483C842.373 396.757 866.402 408.203 878.28 426.255C886.747 439.142 889.217 456.135 883.464 470.453C872.282 498.275 845.029 496.492 820.617 491.033" fill="white"/>
<path d="M491.248 345.307C493.836 345.307 496.227 344.18 496.57 341.387C496.893 338.761 494.865 336.938 494.678 334.527C494.502 332.322 498.755 331.587 500.509 331.175C504.82 330.29 509.236 330.023 513.622 330.382C533.575 331.822 550.235 343.71 566.414 354.333C598.754 375.54 634.456 391.22 673.46 393.474C694.099 394.689 714.767 393.102 735.415 393.219C756.61 393.343 777.778 394.251 798.919 395.944C816.628 397.374 834.043 398.619 850.115 406.871C864.589 414.299 877.163 426 881.406 442.151C885.267 456.851 881.612 475.471 868.392 484.536C857.768 491.837 843.823 491.396 831.622 489.436C828.251 488.887 824.889 488.22 821.548 487.476C817.03 486.496 815.099 493.356 819.588 494.424C833.082 497.501 848.008 499.843 861.512 495.737C876.085 491.317 886.09 478.714 889.109 463.995C892.715 446.355 886.551 428.127 874.125 415.357C862.561 403.46 846.587 395.62 830.456 392.18C820.744 390.122 810.63 389.583 800.752 388.76C789.645 387.839 778.539 387.14 767.432 386.663C745.539 385.683 723.724 385.977 701.831 386.467C680.173 386.967 658.711 386.242 637.719 380.46C618.227 375.099 599.813 366.475 582.457 356.185C565.297 346.022 549.225 332.939 529.939 326.952C520.574 323.882 510.596 323.175 500.892 324.894C495.923 325.874 486.995 328.755 488.896 335.566C489.28 336.668 489.731 337.744 490.249 338.79C490.376 339.113 490.631 340.378 490.886 340.544C491.141 340.711 492.258 339.75 491.15 339.78C487.613 339.868 487.593 345.287 491.15 345.287L491.248 345.307Z" fill="#382C80"/>
<path d="M432.693 307.597C438.946 345.216 446.956 382.492 456.723 419.424C461.525 437.554 466.752 455.564 472.403 473.452C475.627 483.683 480.88 513.005 498.216 500C503.675 495.913 505.792 488.524 505.292 481.723C504.792 474.922 502.077 468.513 499.49 462.211C481.233 417.807 467.415 365.544 456.566 307.459" fill="white"/>
<path d="M429.989 308.341C435.398 341.485 442.137 374.384 450.206 407.037C454.237 423.188 458.592 439.247 463.269 455.214C466.425 465.994 469.336 476.882 472.873 487.495C475.216 494.512 478.753 503.665 486.456 506.223C496.834 509.663 506.409 498.834 508.281 489.681C511.162 475.578 502.94 461.78 498.138 449.04C493.15 435.898 488.681 422.58 484.604 409.115C474.392 375.383 467.062 341.005 460.104 306.479C459.124 301.707 452.039 303.765 452.862 308.439C458.015 337.691 464.655 366.662 472.756 395.238C476.47 408.409 480.527 421.492 485.016 434.438C489.386 446.992 494.894 459.124 499.235 471.678C501.372 477.842 502.812 484.614 500.451 490.935C498.951 494.924 495.188 499.177 490.651 499.706C484.3 500.461 481.037 490.18 479.498 485.663C476.303 476.245 473.667 466.543 470.776 457.027C466.203 441.889 461.904 426.667 457.879 411.359C448.863 376.863 441.35 342.031 435.339 306.862C434.732 303.314 429.371 304.833 429.94 308.351L429.989 308.341Z" fill="#382C80"/>
<path d="M777.075 601.989C754.094 630.82 738.61 664.591 734.426 698.852C730.241 733.113 737.591 767.765 756.623 795.558C772.45 818.676 795.607 836.238 820.715 850.546C833.19 857.651 846.195 863.992 859.425 870.019C869.519 874.634 888.139 879.054 893.725 888.433C897.312 894.46 895.685 902.28 893.362 909.277C891.04 916.275 888.031 923.497 889.148 930.455C889.232 931.31 889.54 932.128 890.04 932.827C890.835 933.633 891.864 934.168 892.98 934.356C897.663 935.471 902.592 934.855 906.857 932.621C911.404 930.22 914.805 926.3 918.009 922.38C938.256 897.88 955.867 869.774 961.364 839.884C961.85 838.14 961.85 836.296 961.364 834.552C960.551 832.465 958.424 831.162 956.396 829.986C926.016 812.434 894.166 797.342 864.883 777.928C854.535 771.068 834.023 760.445 827.477 749.841C819.137 736.307 832.867 720.118 839.619 709.259C848.423 694.798 854.663 678.923 858.063 662.337C865.54 627.488 861.806 590.16 846.548 557.82" fill="white"/>
<path d="M775.056 599.96C755.456 624.636 740.374 653.311 733.818 684.309C727.389 714.689 729.614 746.715 741.933 775.36C754.016 803.437 775.889 825.203 800.909 842.128C814.527 851.156 828.77 859.206 843.529 866.216C850.242 869.48 856.965 872.802 863.943 875.487C869.47 877.614 875.115 879.505 880.426 882.161C885.444 884.67 891.03 887.933 892.186 893.921C893.587 901.457 889.57 909.15 887.433 916.147C885.65 921.968 882.758 933.121 889.589 936.835C895.469 940.059 904.025 938.413 909.562 935.198C916.167 931.367 920.89 924.693 925.536 918.813C930.436 912.678 935.051 906.377 939.393 899.86C948.144 886.698 955.641 872.586 960.688 857.563C961.825 854.152 962.844 850.703 963.687 847.194C964.608 843.441 966.019 838.962 965.372 835.082C964.814 831.701 962.589 829.456 959.845 827.634C956.376 825.331 952.603 823.42 948.977 821.381C934.012 812.983 918.823 805.015 903.829 796.675C889.726 788.835 876.212 780.202 862.521 771.695C856.994 768.265 851.389 764.953 846.008 761.297C841.02 757.916 835.67 754.183 831.994 749.312C823.743 738.365 834.346 724.655 840.462 715.443C849.008 702.489 855.457 688.267 859.572 673.303C868.289 642.011 867.857 608.876 858.327 577.822C855.961 570.358 853.046 563.08 849.605 556.046C847.645 551.96 841.765 555.527 843.568 559.584C856.436 588.335 860.76 620.181 856.024 651.322C853.802 666.61 849.292 681.476 842.647 695.422C839.491 701.696 835.926 707.756 831.975 713.562C828.329 719.05 824.782 724.675 822.596 730.917C820.636 736.552 820.097 742.834 822.332 748.469C824.498 753.938 828.829 758.269 833.318 761.876C842.824 769.598 853.682 775.341 863.893 782.034C891.618 800.213 921.527 814.609 950.339 830.917C952.574 832.181 957.454 833.857 957.973 836.64C958.277 838.267 957.474 840.501 957.141 842.059C956.739 844.019 956.278 845.911 955.778 847.822C953.863 855.053 951.352 862.114 948.271 868.931C941.757 883.002 933.733 896.323 924.34 908.66C919.93 914.54 915.441 920.841 910.081 925.928C907.596 928.409 904.483 930.168 901.075 931.014C899.388 931.399 897.651 931.511 895.93 931.347C893.45 931.092 892.647 930.886 892.5 928.289C891.725 914.334 905.455 899.811 896.42 886.149C890.256 876.879 877.535 873.409 867.676 869.705C853.535 864.433 839.835 857.298 826.624 850.036C801.311 836.13 776.762 818.774 759.984 794.813C742.521 769.814 734.926 739.11 736.601 708.818C738.307 678.193 749.459 648.588 765.776 622.833C769.902 616.336 774.36 610.055 779.133 604.017C781.387 601.165 777.389 597.098 775.096 599.98L775.056 599.96Z" fill="#382C80"/>
<path d="M846.548 557.82C861.806 590.16 865.52 627.508 858.043 662.366C854.643 678.953 848.404 694.827 839.599 709.289C832.847 720.147 819.117 736.337 827.457 749.871C834.004 760.474 854.515 771.088 864.864 777.957C871.91 782.632 879.123 787.052 886.424 791.334C891.324 794.206 897.547 796.019 898.282 802.497C898.899 807.936 893.646 818.441 891.98 823.792C886.628 840.999 878.274 857.124 867.304 871.42C860.816 879.858 853.025 887.884 842.971 891.353C836.454 893.597 828.271 893.372 823.733 888.227C821.93 886.198 820.881 883.65 819.5 881.367C813.727 871.567 801.595 865.569 792.54 859.307C774.243 846.665 757.172 832.651 744.52 814.139C725.488 786.346 718.138 751.703 722.323 717.442C725.89 688.317 737.415 660.514 753.595 636.181C760.063 626.459 767.501 619.805 768.589 607.829C770.098 591.228 769.049 574.029 766.903 557.526" fill="#7F72FF"/>
<path d="M844.078 559.241C863.355 600.93 863.806 652.018 844.078 693.658C839.707 702.88 833.837 710.965 828.526 719.618C823.773 727.36 819.47 736.611 821.666 745.892C823.724 754.457 831.348 760.513 838.09 765.492C845.44 770.892 853.378 775.37 861.022 780.3C866.363 783.739 871.665 787.218 877.094 790.511C879.946 792.236 882.788 794.01 885.728 795.597C887.741 796.539 889.689 797.613 891.559 798.812C895.303 801.526 894.401 805.27 893.245 809.19C891.883 813.806 889.913 818.226 888.6 822.861C887.355 827.261 893.823 828.898 895.352 824.723C898.066 817.295 903.701 808.837 901.967 800.586C901.036 796.166 897.733 793.059 893.99 790.844C889.746 788.345 885.405 786.052 881.191 783.494C872.283 778.085 863.551 772.362 854.682 766.923C846.92 762.179 838.571 757.27 832.553 750.263C826.066 742.756 829.094 733.603 833.426 725.763C838.326 716.943 844.451 708.867 848.9 699.704C859.072 678.752 864.276 655.399 864.884 632.153C865.595 605.982 860.157 580.009 849.008 556.321C847.43 552.989 842.54 555.899 844.108 559.202L844.078 559.241Z" fill="#382C80"/>
<path d="M764.375 517.983C637.475 651.263 614.944 824.174 603.733 849.488C599.304 859.523 595.707 871.969 589.219 880.848C580.262 893.117 567.659 893.588 554.165 897.135C552.193 897.606 550.26 898.225 548.383 898.987C546.579 899.656 544.984 900.789 543.757 902.27C541.523 905.308 542.268 909.787 544.531 912.805C546.795 915.824 550.235 917.705 553.616 919.381C576.229 930.521 601.003 936.585 626.205 937.149C629.87 937.227 633.633 937.149 637.043 935.826C654.615 928.887 660.808 893.509 666.845 877.927L693.06 810.229C697.96 797.489 702.958 784.749 710.387 773.302C716.678 763.649 724.597 755.182 731.868 746.254C747.274 727.35 759.808 706.339 771.333 684.906C776.644 675.018 781.133 664.865 785.798 654.811C790.237 645.236 797.42 638.856 803.947 630.448C811.944 620.158 819.441 607.477 816.364 594.805" fill="white"/>
<path d="M762.424 516.033C737.353 542.431 715.052 571.328 695.873 602.273C678.718 629.97 663.76 658.969 651.136 689.003C640.526 714.178 631.265 739.9 623.392 766.06C617.659 784.994 612.7 804.143 607.8 823.331C606.261 829.368 604.762 835.425 602.978 841.393C602.39 843.353 601.753 845.313 601.018 847.273C600.724 848.076 600.842 847.724 600.881 847.626C600.087 849.517 599.264 851.389 598.5 853.29C596.736 857.641 595.129 862.051 593.257 866.353C589.719 874.478 585.338 882.465 577.273 886.816C570.335 890.559 562.22 891.539 554.655 893.401C550.284 894.479 545.149 895.695 541.915 899.056C539.135 902.109 538.197 906.413 539.455 910.346C542.042 919.264 552.597 923.027 560.27 926.329C578.803 934.329 598.566 939.105 618.707 940.451C627.057 941 636.053 941.706 643.207 936.531C648.235 932.925 651.91 927.711 654.791 922.321C661.181 910.336 664.395 897.037 668.56 884.199C671.373 875.546 674.979 867.137 678.272 858.67L690.257 827.79C697.862 808.19 704.477 787.61 716.962 770.411C722.842 762.277 729.781 754.908 736.062 747.058C742.344 739.208 748.352 730.829 753.889 722.293C765.196 704.889 775.26 686.707 784.004 667.884C786.18 663.199 788.13 658.339 790.629 653.821C792.891 649.921 795.537 646.258 798.528 642.884C804.731 635.603 811.091 628.39 815.57 619.874C819.852 611.74 822.116 602.871 820.097 593.747C819.039 588.974 811.728 590.993 812.767 595.766C816.863 614.484 798.675 629.762 788.61 643.031C782.661 650.871 779.241 660.23 775.057 669.06C770.686 678.282 765.864 687.258 760.837 696.137C751.105 713.336 740.423 730.075 727.811 745.323C721.617 752.82 715.071 760.023 709.485 768.03C703.914 776.223 699.236 784.988 695.53 794.176C687.327 813.6 680.134 833.484 672.529 853.143C669.128 861.963 665.453 870.665 662.357 879.603C660.397 885.326 658.77 891.177 656.957 896.949C655.051 903.432 652.68 909.77 649.862 915.912C647.372 921.106 644.305 926.574 639.66 930.161C633.133 935.218 623.5 933.581 615.826 932.954C605.942 932.122 596.15 930.424 586.563 927.878C576.956 925.356 567.592 921.981 558.584 917.794C554.664 915.961 549.48 914.05 547.089 910.218C544.061 905.397 547.883 902.682 552.214 901.32C559.907 898.899 568.041 898.066 575.587 895.146C583.047 892.336 589.389 887.177 593.659 880.446C598.559 872.919 601.42 864.295 604.693 856.014C605.918 852.918 607.339 849.909 608.398 846.753C610.064 841.785 611.338 836.679 612.631 831.603C617.022 814.433 621.255 797.224 626.097 780.162C632.957 755.976 640.797 732.064 649.94 708.622C661.013 679.999 674.113 652.201 689.14 625.44C706.09 595.141 725.912 566.541 748.332 540.033C754.16 533.173 760.177 526.473 766.384 519.933C768.834 517.346 764.933 513.436 762.464 516.013L762.424 516.033Z" fill="#382C80"/>
<path d="M762.072 511.495C685.279 592.345 639.493 695.539 611.642 802.457C607.467 818.5 605.928 841.824 593.316 852.437C590.199 855.074 587.514 859.297 589.151 863.07C589.903 864.512 590.972 865.765 592.277 866.736C607.839 879.877 628.262 885.503 648.225 889.403C666.1 892.902 676.116 891.5 682.643 874.311C689.875 855.27 697.343 836.297 704.663 817.285C709.661 804.339 714.718 791.276 722.303 779.643C728.693 769.843 736.739 761.16 744.138 752.056C759.818 732.789 772.558 711.366 784.239 689.512C789.639 679.438 794.206 669.079 798.939 658.829C803.447 649.029 810.758 642.561 817.393 633.995C825.517 623.5 833.141 610.564 830.005 597.647" fill="#7F72FF"/>
<path d="M647.49 892.127C655.173 893.646 663.768 895.146 671.294 892.127C679.134 888.952 683.054 881.504 685.994 874.007C690.966 861.208 695.964 848.423 700.988 835.65C705.888 823.292 710.357 810.738 715.894 798.665C721.444 786.798 728.599 775.751 737.16 765.835C745.402 756.035 753.526 746.303 760.798 735.768C775.433 714.295 788.181 691.595 798.9 667.923C801.84 661.553 804.672 655.428 809.063 649.911C813.179 644.736 817.716 639.924 821.705 634.642C829.937 623.754 836.797 610.691 833.68 596.687C832.612 591.914 825.311 593.933 826.35 598.706C828.898 610.466 821.92 621.785 815.129 630.791C808.338 639.797 800.037 647.608 795.196 658.084C784.739 680.741 773.636 702.87 760.033 723.881C753.392 734.244 746.13 744.197 738.287 753.683C730.447 763.052 722.441 772.303 716.374 782.906C710.396 793.383 706.065 804.692 701.772 815.932C697.108 828.153 692.394 840.354 687.739 852.575C685.142 859.366 682.594 866.177 680.026 872.988C678.458 877.124 676.488 881.406 673.088 884.366C666.581 890.03 656.712 888.227 648.999 886.786C645.52 886.14 644.021 891.432 647.529 892.127H647.49Z" fill="#382C80"/>
<path d="M875.713 445.835C877.986 457.713 877.673 470.218 875.997 482.242C873.204 501.607 866.893 520.257 862.208 539.249C860.944 544.414 859.778 549.735 860.483 555.007C860.885 558.045 861.904 561.083 861.463 564.112C858.161 585.338 806.358 571.952 794.314 568.032C777.448 562.593 760.19 554.106 751.596 538.632C748.94 533.83 747.205 528.234 748.313 522.863C749.371 517.748 752.811 513.514 756.015 509.408C773.568 486.895 787.296 461.646 796.646 434.673" fill="white"/>
<path d="M872.694 446.668C878.025 476.97 866.481 506.938 859.043 535.848C857.22 542.904 855.632 549.911 856.818 557.212C857.514 561.485 858.053 564.915 855.387 567.532C851.516 571.334 843.784 571.716 838.1 571.677C823.939 571.579 809.455 568.375 795.96 564.082C785.18 560.652 774.204 556.017 765.58 548.579C761.042 544.802 757.329 540.132 754.673 534.859C751.507 528.371 752.095 522.579 756.133 516.719C760.406 510.515 765.345 504.782 769.598 498.55C773.851 492.317 777.997 485.682 781.75 478.95C789.47 465.192 795.919 450.759 801.017 435.83C802.977 430.204 794.157 427.872 792.197 433.389C787.205 447.507 781.028 461.178 773.734 474.255C766.491 487.172 757.809 498.824 749.155 510.79C744.892 516.67 742.56 523.187 743.844 530.498C745.039 537.358 748.871 543.551 753.301 548.784C761.631 558.633 773.459 564.876 785.327 569.413C800.863 575.359 817.228 578.857 833.837 579.782C841.52 580.164 850.046 579.909 856.994 576.215C860.005 574.669 862.456 572.218 864.001 569.208C866.883 563.239 864.197 557.516 864.246 551.323C864.315 542.503 867.706 533.33 869.989 524.863C872.331 516.209 874.723 507.566 876.673 498.804C880.593 481.066 882.2 462.936 878.741 444.983C877.976 441.014 872.018 442.719 872.704 446.639L872.694 446.668Z" fill="#382C80"/>
<path d="M836.042 411.604C800.478 400.559 762.914 406.449 726.987 412.241C696.725 417.141 653.35 428.734 623.989 416.504C612.288 411.604 600.469 407.174 588.905 401.922C565.797 391.426 543.296 379.676 520.697 368.141C506.321 360.811 494.825 354.754 478.126 353.666C474.206 353.412 470.1 353.441 466.797 355.489C463.495 357.537 461.584 362.29 463.857 365.475C466.65 369.395 474.187 371.659 471.237 377.98C470.09 380.43 467.581 381.9 465.102 383.008C458.614 385.85 450.03 385.859 444.522 380.852C442.67 379.166 440.935 376.932 438.436 376.785C437.36 376.81 436.3 377.053 435.32 377.5C433.095 378.323 430.733 379.244 429.322 381.155C427.362 383.792 427.842 387.447 428.705 390.603C429.822 394.66 431.831 399.04 435.829 400.942C431.645 401.196 426.735 401.343 423.815 404.862C420.894 408.38 421.688 413.907 424.677 417.317C427.666 420.728 432.331 422.217 436.849 422.462C430.537 424.638 425.49 430.979 426.069 437.633C426.647 444.287 434.056 449.834 440.328 447.521C433.468 450.049 434.536 461.907 438.799 465.886C450.196 476.539 470.923 469.561 484.908 470.845C505.351 472.717 524.941 483.056 543.894 490.171C620.883 519.051 755.819 509.114 827.3 464.446" fill="white"/>
<path d="M836.875 408.586C801.84 397.806 765.051 402.862 729.594 408.517C714.571 410.908 699.675 414.074 684.612 416.259C669.383 418.454 653.36 419.954 638.111 417.102C630.271 415.632 623.166 412.496 615.816 409.517C607.183 406.028 598.539 402.568 590.062 398.737C572.843 390.897 555.978 382.282 539.151 373.639C524.284 365.995 509.31 356.724 493.042 352.412C485.623 350.452 476.225 348.492 468.679 350.677C462.25 352.579 456.537 359.958 460.173 366.691C461.662 369.435 464.308 371.012 466.533 373.08C468.758 375.148 467.993 377.157 465.2 378.754C461.925 380.604 458.168 381.424 454.42 381.106C449.932 380.724 447.619 378.255 444.375 375.569C437.946 370.238 426.471 374.805 424.491 382.763C422.619 390.289 427.127 400.599 433.889 404.254L435.849 397.139C431.772 397.374 427.441 397.619 423.874 399.854C420.186 402.211 418.029 406.35 418.209 410.722C418.523 420.738 428.009 425.696 436.829 426.353L435.849 418.817C427.558 421.943 420.659 430.204 422.531 439.534C424.197 447.825 433.174 453.881 441.406 451.294L438.466 444.248C432.919 446.6 431.135 453.068 431.763 458.624C432.312 464.71 436.088 470.032 441.651 472.56C454.753 478.999 469.561 473.981 483.389 474.696C501.186 475.608 518.199 484.065 534.418 490.69C546.821 495.789 559.637 499.821 572.726 502.744C600.097 508.8 628.36 510.907 656.349 510.506C686.281 510.136 716.096 506.692 745.323 500.225C774.723 493.65 803.555 483.752 829.231 467.778C833.367 465.21 829.564 458.664 825.419 461.241C804.094 474.5 779.702 483.203 755.525 489.504C728.256 496.498 700.345 500.691 672.225 502.019C645.226 503.391 617.933 502.519 591.209 498.226C578.937 496.31 566.819 493.513 554.949 489.857C540.18 485.222 526.264 478.362 511.682 473.197C502.862 470.081 493.601 467.552 484.193 466.915C476.598 466.396 468.983 467.748 461.398 468.013C454.998 468.238 446.404 468.209 441.592 463.181C438.652 460.163 437.848 452.784 442.327 450.882C446.355 449.167 443.483 442.533 439.387 443.836C435.291 445.14 430.567 441.817 429.979 437.466C429.332 432.478 433.546 427.843 437.917 426.196C439.721 425.652 440.866 423.881 440.623 422.012C440.38 420.144 438.82 418.725 436.937 418.66C432.292 418.317 426.284 416.181 425.932 410.702C425.579 405.224 431.949 404.989 435.918 404.754C439.495 404.538 441.376 399.54 437.878 397.639C434.771 395.973 433.389 392.847 432.498 389.574C431.469 385.771 431.733 383.086 435.614 381.469C437.643 380.626 438.554 380.362 440.2 381.881C441.423 383.11 442.734 384.25 444.12 385.291C446.966 387.155 450.228 388.29 453.617 388.594C459.967 389.26 467.797 387.447 472.442 382.821C477.088 378.196 476.519 371.943 471.962 367.739C470.512 366.406 468.209 365.279 467.17 363.594C465.141 360.301 469.757 357.89 472.325 357.469C479.645 356.254 488.181 358.38 495.129 360.585C502.401 362.898 509.232 366.308 516.023 369.748C524.059 373.815 532.085 377.931 540.131 381.998C556.438 390.269 572.804 398.482 589.523 405.891C597.451 409.399 605.507 412.613 613.543 415.847C620.481 418.64 627.263 421.727 634.583 423.246C663.366 429.303 693.472 421.502 721.803 416.475C758.906 409.879 798.459 403.45 835.317 414.622C839.168 415.798 840.815 409.771 836.973 408.595L836.875 408.586Z" fill="#382C80"/>
<path d="M849.762 326.971C842.971 322.022 831.759 323.492 828.604 331.499C824.684 341.397 819.509 350.746 818.137 361.506C817.774 363.726 817.804 365.991 818.226 368.2C819.852 375.246 827.222 379.137 833.817 382.126C834.004 382.204 829.133 393.886 828.663 394.924C826.81 399.06 826.32 398.737 828.506 403.147C831.25 408.693 839.227 413.348 844.764 412.398C850.301 411.447 852.702 406.841 854.564 401.833C860.63 385.438 864.687 368.023 867.667 350.824" fill="white"/>
<path d="M851.281 324.394C845.713 320.492 838.469 319.907 832.347 322.865C829.412 324.361 827.07 326.806 825.703 329.803C823.743 334.106 821.842 338.506 819.989 342.877C816.599 350.834 812.149 361.31 814.786 370.072C817.128 377.98 824.801 382.331 831.779 385.605L829.819 382.126C829.74 380.509 829.642 382.018 829.28 382.939C828.76 384.223 828.231 385.497 827.692 386.771C826.859 388.731 826.046 390.691 825.154 392.651C823.704 395.846 822.214 398.482 823.439 402.029C824.822 405.98 827.324 409.443 830.642 411.996C837.09 417.023 846.322 419.13 852.927 413.221C855.965 410.516 857.582 406.733 859.013 403.019C860.973 397.992 862.668 392.876 864.246 387.731C867.744 376.044 870.442 364.132 872.321 352.079C873.301 346.071 864.207 343.396 863.06 349.521C860.934 360.918 858.562 372.267 855.505 383.449C853.927 389.221 852.241 394.964 850.183 400.579C849.037 403.705 847.469 407.743 843.617 408.086C840.138 408.399 836.316 405.92 834.033 403.519C833.318 402.772 832.708 401.931 832.22 401.02C832.112 400.824 831.24 398.394 831.24 399.236C831.24 400.079 831.749 398.256 831.857 398.011C832.171 397.247 832.524 396.492 832.837 395.718C833.817 393.386 834.797 391.034 835.689 388.672C836.414 386.849 837.992 384.203 837.855 382.155C837.866 380.727 837.121 379.399 835.895 378.666C830.916 376.451 824.135 373.698 822.175 368.082C820.989 364.642 821.94 360.487 822.733 357.057C823.6 353.512 824.72 350.034 826.085 346.65C827.408 343.239 828.888 339.888 830.27 336.507C831.25 333.998 831.955 331.195 834.19 329.441C838.266 326.207 844.205 326.854 848.311 329.588C851.555 331.744 854.436 326.648 851.34 324.423L851.281 324.394Z" fill="#382C80"/>
<path d="M861.15 417.239C861.15 415.073 856.456 395.855 855.779 396.12C850.144 398.335 844.088 397.629 838.296 396.541C835.356 395.993 832.416 395.326 829.427 394.905C827.046 394.562 823.547 393.66 821.244 394.395C816.07 396.138 812.38 400.728 811.787 406.155C813.16 406.238 814.539 406.159 815.893 405.92C818.652 405.61 821.442 405.752 824.155 406.341C827.173 406.988 830.035 407.321 832.74 408.831C836.314 410.88 839.716 413.217 842.912 415.818" fill="white"/>
<path d="M864.168 417.239C864.275 412.623 862.747 407.684 861.669 403.254C860.689 399.383 859.973 391.416 854.309 392.896C844.509 395.463 835.13 391.72 825.32 390.642C816.804 389.662 809.317 397.041 808.131 405.185C807.759 407.743 809.111 409.781 811.787 409.987C814.462 410.193 816.883 409.634 819.45 409.752C822.174 409.965 824.867 410.465 827.486 411.241C832.592 412.604 836.443 416.651 840.912 419.268C844.832 421.571 848.752 416.328 845.704 413.064C841.458 408.573 836.115 405.266 830.201 403.47C827.258 402.706 824.254 402.197 821.224 401.951C818.029 401.696 814.952 402.519 811.787 402.402L815.579 406.194C815.953 403 817.833 400.177 820.636 398.599C823.654 396.914 827.496 398.168 830.701 398.727C837.953 399.981 847.361 403.117 854.593 400.236L855.661 399.922C853.303 397.701 852.394 397.116 852.937 398.168C852.8 398.335 852.839 397.482 852.937 398.168C853.121 398.996 853.377 399.806 853.701 400.589C854.354 402.732 854.952 404.888 855.495 407.057C856.053 409.203 856.563 411.369 857.161 413.505C857.406 414.377 857.641 415.259 857.856 416.141C857.945 416.494 858.258 418.278 858.16 417.288C858.552 421.081 864.119 421.257 864.197 417.288L864.168 417.239Z" fill="#382C80"/>
<path d="M872.076 378.421C870.715 380.377 869.032 382.087 867.098 383.478C856.543 390.877 850.575 381.793 853.897 371.591C855.857 365.642 858.484 359.409 856.896 353.353C856.766 352.743 856.494 352.172 856.102 351.687C854.828 350.276 852.378 351.04 851.134 352.471C849.889 353.902 849.321 355.813 848.125 357.283C849.85 352.638 850.703 347.159 848.125 342.936C845.891 339.29 841.598 337.448 837.453 336.379C833.308 335.311 828.947 334.782 825.174 332.763C819.068 329.5 814.168 318.455 819.294 312.536C820.68 310.792 822.846 309.858 825.066 310.047C827.232 310.38 829.113 312.546 828.633 314.682C830.449 312.2 832.626 310.003 835.091 308.165C837.649 306.45 840.912 305.539 843.833 306.47C846.753 307.401 849.037 310.547 848.331 313.536C850.814 312.045 853.932 312.113 856.349 313.708C858.766 315.303 860.054 318.144 859.66 321.013C862.737 320.219 866.04 319.425 869.038 320.484C872.037 321.542 874.272 325.296 872.596 328C874.448 325.011 880.103 340.74 880.22 341.505C881.795 352.481 879.965 363.676 874.977 373.58C874.134 375.265 873.164 376.883 872.076 378.421Z" fill="#382C80"/>
<path d="M869.459 376.873C867.558 379.401 860.992 385.526 857.778 381.636C854.416 377.549 858.425 370.424 859.738 366.416C861.414 361.252 863.658 351.589 858.091 347.875C855.59 346.306 852.406 346.329 849.928 347.933C847.174 349.57 846.116 352.569 844.313 355.038L852.447 358.468C854.563 352.647 855.387 345.728 851.849 340.24C848.311 334.752 842.127 332.655 836.09 331.293C830.602 330.068 825.634 329.059 823.017 323.6C822.083 321.828 821.681 319.823 821.861 317.828C821.997 316.791 822.502 315.838 823.282 315.143C823.429 315.005 823.948 314.623 824.193 314.643C824.438 314.662 824.105 313.908 824.036 314.643C823.693 318.504 829.485 321.003 831.974 317.936C833.934 315.564 835.894 312.742 838.736 311.389C839.618 310.968 844.322 309.939 843.979 312.281C843.411 316.201 846.919 319.366 850.673 317.436C853.427 316.025 855.279 318.416 855.102 320.974C854.897 324.012 858.17 326.06 860.875 325.374C862.697 324.903 864.912 324.119 866.813 324.56C867.597 324.747 868.577 325.785 868.646 325.648C866.01 331.068 873.017 334.87 876.555 330.274C871.067 329.496 869.165 329.865 870.851 331.381C871.155 331.724 871.165 331.734 870.851 331.381C871.106 331.95 871.547 332.498 871.831 333.057C872.478 334.253 873.056 335.507 873.585 336.761C874.496 338.677 875.231 340.671 875.78 342.72C876.996 348.1 876.192 354.637 874.987 359.938C873.75 365.707 871.422 371.186 868.127 376.079C864.746 380.979 872.752 385.614 876.114 380.744C880.644 373.928 883.572 366.175 884.679 358.067C885.561 352.079 886.149 345.042 884.316 339.182C882.699 334.017 876.025 316.064 868.636 325.678L876.545 330.303C878.695 326.043 877.486 320.855 873.673 317.985C869.263 314.427 863.54 315.299 858.434 316.603L864.207 321.003C864.873 311.036 854.554 305.323 846.067 309.586L852.76 314.741C853.329 311.584 852.519 308.334 850.536 305.813C848.552 303.292 845.584 301.74 842.382 301.55C835.061 300.952 829.642 306.146 825.389 311.35L833.327 314.633C833.549 310.595 830.996 306.923 827.133 305.725C823.115 304.48 818.823 306.215 816.049 309.204C810.924 314.731 812.061 323.286 815.599 329.313C819.891 336.644 826.859 338.614 834.669 340.427C837.894 341.181 841.912 342.102 843.989 344.944C846.331 348.149 844.969 352.667 843.852 356.058C842.108 361.114 849.252 363.368 851.986 359.488C852.889 358.377 853.61 357.13 854.122 355.793C854.228 355.523 854.408 355.289 854.642 355.117L852.878 354.421C852.809 354.48 853.27 356.489 853.289 356.724C853.564 360.458 852.26 364.201 851.163 367.72C849.556 372.884 848.34 378.304 850.741 383.458C852.431 387.367 856.389 389.797 860.639 389.534C866.617 389.113 871.351 384.517 874.712 379.96C877.054 376.785 871.772 373.796 869.459 376.873Z" fill="#382C80"/>
<path d="M816.657 608.29C812.816 607.418 808.817 606.154 804.956 605.722C801.32 605.321 800.134 607.682 798.527 610.475C794.607 617.188 787.561 621.255 782.308 626.763C777.996 631.31 774.409 637.229 775.282 643.717C776.017 649.244 779.692 654.497 785.474 655.35C788.257 655.771 789.462 651.508 786.65 651.087C781.75 650.352 779.074 645.373 779.417 640.679C779.839 635.083 784.121 630.487 788.031 626.861C791.942 623.235 796.508 619.805 799.87 615.395C801.987 612.631 802.535 609.437 806.73 609.682C809.67 609.848 812.894 610.897 815.834 611.475C817.902 611.887 818.774 608.76 816.706 608.29H816.657Z" fill="#382C80"/>
<path d="M740.982 569.09C729.526 582.379 744.245 600.381 739.727 615.356C738.248 620.256 735.366 624.617 732.603 628.88C729.839 633.143 726.938 637.7 724.155 642.09C718.68 650.793 713.346 659.583 708.152 668.462C687.089 704.467 668.352 741.783 652.057 780.182C642.903 801.742 634.152 823.655 627.116 846.018C626.312 848.576 630.173 849.556 631.036 847.106C638.17 827.81 645.138 808.475 653.017 789.453C660.955 770.278 669.504 751.367 678.664 732.721C687.732 714.258 697.375 696.095 707.593 678.233C712.702 669.302 717.949 660.459 723.332 651.704C728.644 643.06 734.475 634.691 739.6 625.93C742.177 621.52 744.324 616.787 744.863 611.651C745.181 607.16 744.758 602.647 743.608 598.294C741.648 589.886 737.219 579.115 743.285 571.413C744.588 569.766 742.354 567.404 740.933 569.051L740.982 569.09Z" fill="#382C80"/>
<path d="M611.808 844.882L607.153 841.363C606.37 840.915 605.372 841.177 604.909 841.951C604.477 842.737 604.735 843.723 605.497 844.196L610.162 847.694C610.94 848.143 611.934 847.886 612.396 847.116C612.827 846.334 612.568 845.351 611.808 844.882Z" fill="#382C80"/>
<path d="M882.807 838.718C880.984 841.785 879.152 844.843 877.398 847.949C875.349 851.575 880.886 854.809 882.974 851.213C884.757 848.126 886.463 844.99 888.187 841.854C890.147 838.345 884.865 835.268 882.807 838.718Z" fill="#382C80"/>
<path d="M864.56 833.68C825.063 817.567 792.976 787.332 774.547 748.861C773.449 746.588 770.156 748.567 771.185 750.821C785.18 781.378 809.405 807.377 838.335 824.321C846.463 829.072 854.989 833.109 863.815 836.385C865.54 837.022 866.226 834.327 864.57 833.661L864.56 833.68Z" fill="#382C80"/>
<path d="M825.938 878.956C829.432 877.103 832.409 874.408 834.601 871.116C835.895 869.156 832.749 867.333 831.436 869.274C829.593 872.066 827.119 874.386 824.213 876.046C822.253 877.124 824.008 880.044 825.938 878.986V878.956Z" fill="#382C80"/>
<path d="M544.531 912.806C542.267 909.787 541.522 905.309 543.757 902.271C544.983 900.789 546.579 899.656 548.382 898.988C550.26 898.225 552.193 897.606 554.164 897.135C567.639 893.617 580.262 893.117 589.219 880.848C589.973 879.868 590.689 878.731 591.365 877.614C594.756 879.574 596.863 883.396 598.127 887.179C599.548 891.442 600.273 895.999 602.537 899.86C612.102 916.245 635.318 911.051 650.557 914.256C651.36 914.362 652.127 914.65 652.801 915.099C654.291 916.275 654.085 918.558 653.732 920.43L652.115 929.025C651.645 931.524 651.018 934.287 648.93 935.738C647.828 936.401 646.606 936.84 645.334 937.031C631.427 940.089 614.395 937.031 600.352 934.63C584.117 931.799 568.369 926.664 553.586 919.381C550.234 917.706 546.795 915.824 544.531 912.806Z" fill="#382C80"/>
<path d="M547.834 910.875C546.56 908.993 545.364 906.269 547.079 904.25C548.961 902.035 552.959 901.388 555.654 900.702C560.613 899.438 565.66 898.537 570.589 897.155C580.919 894.274 588.974 888.727 594.678 879.515L589.435 880.887C595.197 884.552 595.403 893.127 597.833 898.86C600.031 904.09 603.902 908.443 608.839 911.237C618.031 916.422 629.144 916.275 639.376 916.833C641.835 916.961 644.276 917.098 646.755 917.431C647.637 917.549 649.244 917.509 649.969 918.009C650.538 918.401 650.244 917.029 650.165 918.734C650.043 919.777 649.856 920.811 649.607 921.831C649.078 924.663 649.068 929.162 647.461 931.631C645.853 934.101 640.679 934.032 637.994 934.238C623.568 935.394 608.535 932.601 594.482 929.554C586.057 927.727 577.779 925.277 569.717 922.223C565.444 920.596 561.25 918.793 557.134 916.814C553.449 915.04 549.853 913.305 547.236 910.071C544.129 906.239 538.749 911.688 541.817 915.481C546.952 921.821 555.997 924.879 563.308 927.878C571.264 931.15 579.453 933.823 587.808 935.875C595.854 937.835 604.066 939.236 612.308 940.422C620.55 941.608 629.056 942.539 637.455 941.941C644.815 941.412 652.831 940.637 655.271 932.543C656.268 928.75 657.021 924.897 657.525 921.008C658.074 917.598 657.898 913.883 654.762 911.767C652.429 910.189 649.019 910.032 646.314 909.718C643.609 909.405 640.63 909.228 637.788 909.091C631.702 908.787 625.538 908.68 619.599 907.219C613.337 905.681 607.839 902.398 605.046 896.361C601.391 888.403 601.44 879.446 593.286 874.272C591.45 873.255 589.139 873.864 588.043 875.654C585.104 880.682 580.738 884.723 575.499 887.267C570.521 889.628 564.974 890.677 559.633 891.873C553.871 893.156 546.893 894.146 542.346 898.164C537.446 902.457 537.75 909.63 541.199 914.707C543.982 918.793 550.617 914.961 547.834 910.875Z" fill="#382C80"/>
<path d="M879.348 877.918C880.346 875.896 881.506 873.959 882.817 872.126C886.875 866.569 893.029 862.149 899.899 861.787C904.524 861.542 909.346 863.1 913.707 861.542C919.45 859.494 922.076 853.026 924.046 847.263C927.417 837.385 930.792 827.503 934.169 817.618C941.617 821.666 949.036 825.762 956.376 829.996C958.395 831.172 960.531 832.475 961.345 834.562C961.83 836.306 961.83 838.15 961.345 839.894C955.867 869.784 938.256 897.88 918.009 922.38C914.805 926.3 911.404 930.22 906.818 932.611C902.565 934.839 897.652 935.459 892.98 934.356C891.864 934.168 890.835 933.633 890.04 932.827C889.54 932.128 889.232 931.31 889.148 930.455C888.031 923.497 891.03 916.275 893.362 909.278C895.695 902.28 897.282 894.46 893.725 888.433C891.089 884.003 885.532 880.681 879.348 877.918H879.348Z" fill="#382C80"/>
<path d="M882.66 879.848C885.924 873.449 890.98 867.108 898.497 865.775C902.417 865.099 906.406 866.305 910.365 866.03C913.934 865.856 917.338 864.473 920.018 862.11C924.986 857.73 926.878 850.772 928.955 844.735L937.864 818.647L932.238 820.94C939.324 824.792 946.399 828.682 953.387 832.7C954.682 833.278 955.887 834.041 956.964 834.964C958.071 836.209 957.944 837.297 957.669 838.884C957.083 842.424 956.275 845.923 955.249 849.36C951.329 863.384 944.978 876.575 937.413 888.982C929.965 901.193 921.458 913.482 911.649 923.909C909.513 926.375 906.895 928.376 903.956 929.789C901.261 930.945 896.792 931.955 893.95 930.681C892.46 930.014 892.735 928.868 892.744 927.163C892.781 925.436 893.001 923.718 893.401 922.037C894.303 918.029 895.782 914.197 897.066 910.277C899.31 903.417 900.986 895.626 898.115 888.717C895.175 881.622 887.942 877.624 881.278 874.605C876.829 872.577 872.929 879.172 877.417 881.21C883.915 884.15 891.578 887.884 891.99 895.91C892.401 903.937 887.982 911.639 886.11 919.372C884.493 926.163 883.562 935.689 891.892 937.992C899.203 940.02 907.121 937.668 912.932 933.092C918.969 928.299 923.634 921.586 928.309 915.51C933.346 908.954 938.109 902.202 942.528 895.195C950.976 881.73 958.101 867.226 962.452 851.889C964.549 844.48 968.498 834.249 961.217 828.614C957.767 825.938 953.651 824.018 949.859 821.891C945.282 819.323 940.676 816.805 936.07 814.296C935.038 813.732 933.806 813.661 932.716 814.104C931.626 814.546 930.792 815.455 930.445 816.579L921.948 841.481C920.175 846.675 918.45 855.476 912.658 857.828C909.091 859.288 904.749 857.896 901.025 857.906C897.522 857.944 894.07 858.75 890.912 860.268C884.169 863.443 879.338 869.46 876.016 875.948C873.801 880.368 880.406 884.248 882.66 879.848Z" fill="#382C80"/>
<path d="M579.782 882.925C579.626 886.233 580.544 889.502 582.398 892.245C583.633 894.077 586.642 892.245 585.338 890.51C583.696 888.315 582.775 885.665 582.702 882.925C582.702 882.113 582.044 881.455 581.232 881.455C580.42 881.455 579.762 882.113 579.762 882.925H579.782Z" fill="white"/>
<path d="M572.638 886.061C571.658 889.677 571.658 893.784 573.383 897.174C574.206 898.791 576.862 897.674 576.323 895.94C575.343 892.833 574.686 890.06 575.48 886.835C575.921 885.003 573.108 884.219 572.638 886.061Z" fill="white"/>
<path d="M564.994 888.687C563.332 892.302 563.332 896.461 564.994 900.075C565.778 901.721 568.678 900.536 567.983 898.821C566.645 895.961 566.441 892.7 567.414 889.697C567.885 888.315 565.601 887.315 565.023 888.717L564.994 888.687Z" fill="white"/>
<path d="M896.146 881.837C892.074 882.907 888.568 885.495 886.346 889.07C885.179 890.912 888.159 892.657 889.286 890.775C890.969 887.854 893.686 885.669 896.9 884.65C897.642 884.408 898.062 883.626 897.855 882.874C897.648 882.122 896.887 881.666 896.126 881.837H896.146Z" fill="white"/>
<path d="M899.507 892.657C895.605 891.218 891.223 892.152 888.247 895.058C886.659 896.586 889.119 899.046 890.677 897.478C892.74 895.311 895.888 894.566 898.703 895.577C900.565 896.214 901.31 893.323 899.507 892.637V892.657Z" fill="white"/>
<path d="M896.155 902.849C894.146 901.5 891.571 901.321 889.393 902.378C887.923 903.143 888.972 905.318 890.491 904.965C891.886 904.557 893.387 904.715 894.666 905.406C895.372 905.818 896.278 905.579 896.69 904.872C897.101 904.166 896.862 903.26 896.155 902.849Z" fill="white"/>
<path d="M577.303 876.32C578.038 873.586 578.028 867.823 574.696 866.52C570.776 865.021 569.149 871.763 568.63 874.242H572.266C570.864 870.166 565.994 868.264 562.466 871.214C560.874 872.581 560.095 874.669 560.403 876.744C560.712 878.82 562.064 880.591 563.985 881.436C566.18 882.416 568.12 879.211 565.945 878.153C561.525 876.036 566.925 871.116 568.63 875.213C569.365 877.026 572.422 877.016 572.334 874.713C572.334 873.899 572.824 869.715 573.775 869.989C575.186 870.401 574.755 874.605 574.588 875.487C574.431 876.217 574.87 876.944 575.59 877.144C576.31 877.344 577.061 876.949 577.303 876.242V876.32Z" fill="#382C80"/>
<path d="M879.682 889.511C877.3 888.452 874.194 888.786 872.822 891.285C872.189 892.526 872.153 893.987 872.725 895.258C873.296 896.528 874.413 897.471 875.762 897.821L874.89 894.548C872.342 896.733 869.735 900.075 871.705 903.554C873.674 907.033 877.741 905.936 880.26 903.897C882.024 902.466 879.662 899.36 877.82 900.722C876.752 901.506 874.517 902.408 875.233 900.114C875.585 898.968 876.801 898.076 877.663 897.321C878.155 896.828 878.349 896.111 878.171 895.437C877.994 894.764 877.472 894.235 876.801 894.048C876.273 894.014 875.83 893.637 875.713 893.121C875.595 892.605 875.83 892.074 876.291 891.814C877.048 891.393 877.964 891.371 878.741 891.755C880.035 892.216 880.966 890.079 879.721 889.511H879.682Z" fill="#382C80"/>
<path d="M760.866 921.4C768.29 911.638 772.692 899.914 773.528 887.678C773.665 885.718 771.009 885.317 770.078 886.698C763.914 896.263 757.779 905.848 751.458 915.334C749.949 917.608 753.555 919.646 755.084 917.451C760.68 909.434 753.918 896.665 744.03 897.145C734.436 897.606 728.771 910.356 734.416 917.921C736.102 920.185 739.963 917.921 738.248 915.677C734.641 910.855 737.532 902.182 743.971 901.565C750.831 900.899 754.878 910.062 751.458 915.285L755.084 917.402C761.043 907.719 767.158 898.125 773.234 888.511L769.794 887.58C769.052 899.186 764.918 910.319 757.907 919.597C756.603 921.341 759.533 923.007 760.847 921.302L760.866 921.4Z" fill="#382C80"/>
<path d="M325.825 264.8C323.453 243.622 330.078 221.406 347.483 205.598C353.451 200.169 360.958 195.671 369.043 195.965C378.617 196.318 386.683 201.904 396.483 201.296C407.459 200.61 418.817 196.808 429.705 194.995C455.137 190.752 480.812 188.114 506.576 187.096C509.663 186.978 512.985 186.949 515.533 188.683C517.699 190.163 518.904 192.672 519.973 195.073C531.252 220.465 537.436 248.238 540.621 275.786C543.424 300.08 516.592 310.409 496.972 316.632C477.617 322.767 457.272 324.943 437.074 326.981C416.877 329.019 396.081 330.901 376.432 325.658C347.032 317.779 328.902 292.132 325.825 264.8Z" fill="white"/>
<path d="M329.656 264.8C327.814 247.415 332.018 229.52 343.112 215.8C348.757 208.803 356.587 201.227 365.887 199.934C375.187 198.64 384.056 204.51 393.229 205.118C403.431 205.804 414.005 202.178 423.864 200.032C434.703 197.66 445.806 196.259 456.811 194.926C467.817 193.593 479.136 192.525 490.337 191.79C495.894 191.427 501.47 191.084 507.046 190.918C509.134 190.859 511.77 190.653 513.544 192.006C515.317 193.358 516.219 196.102 517.091 198.091C525.696 217.75 531.086 238.791 534.535 259.929C535.878 268.142 538.455 277.726 535.937 285.919C534.065 291.995 529.4 296.797 524.284 300.354C511.476 309.243 495.08 313.878 480.037 317.122C469.231 319.351 458.315 321.009 447.335 322.091C436.555 323.267 425.716 324.453 414.877 325.031C395.542 326.011 375.207 324.57 358.655 313.575C345.572 304.882 336.262 291.211 331.969 276.197C330.889 272.468 330.115 268.656 329.656 264.8C329.088 259.959 321.424 259.9 322.003 264.8C324.031 282.009 331.215 298.414 343.465 310.86C357.488 325.07 376.148 331.283 395.748 332.606C407.508 333.4 419.336 332.547 431.028 331.43C442.719 330.313 454.303 329.147 465.867 327.432C484.712 324.639 504.087 320.062 521.129 311.174C534.761 304 546.06 292.122 544.394 275.737C542.152 252.884 537.153 230.387 529.508 208.734C527.616 203.442 525.539 198.209 523.236 193.054C521.119 188.37 518.052 184.479 512.73 183.499C507.409 182.519 501.382 183.391 495.933 183.705C489.916 184.038 483.905 184.466 477.901 184.989C465.749 186.034 453.639 187.439 441.572 189.203C429.812 190.908 418.464 193.603 406.871 195.916C401.588 196.964 396.012 198.013 390.652 197.043C385.565 196.112 380.773 194.103 375.736 192.966C365.221 190.663 355.891 193.838 347.6 200.414C332.224 212.625 323.198 231.5 321.738 250.904C321.41 255.508 321.498 260.133 322.003 264.722C322.512 269.602 330.176 269.7 329.656 264.8Z" fill="#382C80"/>
<path d="M558.33 244.289C559.252 251.76 558.888 259.334 557.252 266.682C548.833 303.275 503.185 320.964 474.932 294.504C461.868 282.283 452.784 265.447 451.51 247.611C448.717 208.362 493.728 171.641 530.713 193.985C541.493 200.492 548.598 211.723 553.116 223.444C555.719 230.147 557.471 237.15 558.33 244.289Z" fill="#7F72FF"/>
<path d="M554.498 244.289C555.821 256.539 554.331 269.024 547.912 279.725C543.068 287.711 536.067 294.166 527.715 298.345C510.81 306.881 490.582 304.284 476.862 291.123C459.683 274.6 449.726 249.061 458.742 225.982C465.808 207.891 483.566 192.662 503.322 191.163C515.623 190.205 527.725 194.685 536.437 203.423C546.893 214.046 552.695 229.716 554.498 244.289C555.096 249.11 562.759 249.189 562.152 244.289C558.8 216.78 542.973 187.694 513.005 183.793C489.7 180.765 467.072 195.132 455.655 214.889C449.634 225.067 446.875 236.846 447.747 248.64C449.181 263.059 454.771 276.752 463.838 288.055C471.384 297.669 480.9 305.617 492.797 309.057C502.999 311.92 513.83 311.613 523.853 308.175C535.131 304.316 544.941 297.067 551.94 287.418C560.986 274.992 563.7 259.361 562.113 244.298C561.632 239.438 553.969 239.389 554.498 244.289Z" fill="#7F72FF"/>
<path d="M527.754 301.766C500.314 306.744 471.776 294.553 460.32 268.338C454.655 255.382 453.46 240.506 458.301 227.178C463.156 214.253 472.504 203.51 484.634 196.915C498.638 189.32 515.014 189.173 528.734 197.337C532.987 199.855 536.848 193.231 532.605 190.722C518.831 182.495 501.987 181.235 487.142 187.321C472.57 193.325 460.681 204.426 453.695 218.554C439.573 247.405 451.48 283.832 478.469 300.55C493.797 310.037 512.23 312.379 529.772 309.184C534.614 308.312 532.565 300.923 527.734 301.805L527.754 301.766Z" fill="#382C80"/>
<path d="M711.386 415.387C707.907 422.884 704.761 430.361 702.831 438.427C700.915 446.499 699.896 454.758 699.793 463.054C699.642 471.242 700.415 479.421 702.096 487.436C703.487 493.836 706.516 501.362 712.876 504.302C714.191 505.073 715.816 505.083 717.141 504.329C718.465 503.576 719.287 502.173 719.297 500.65C719.306 499.126 718.503 497.713 717.188 496.942C712.219 493.561 710.798 487.887 709.71 482.242C708.366 475.177 707.745 467.992 707.858 460.8C708.035 446.561 710.602 431.4 716.267 418.248C717.678 414.975 712.935 412.065 711.367 415.397L711.386 415.387Z" fill="#382C80"/>
<path d="M735.465 390.171C730.606 394.948 727.827 401.449 727.732 408.262C727.732 413.113 735.249 413.113 735.278 408.262C735.152 403.325 736.847 398.515 740.041 394.748C742.746 391.641 738.424 387.182 735.465 390.171Z" fill="#382C80"/>
<path d="M448.374 408.056C452.49 408.056 452.499 401.647 448.374 401.647C444.248 401.647 444.248 408.056 448.374 408.056Z" fill="#382C80"/>
<path d="M453.862 431.694C457.096 431.694 457.106 426.667 453.862 426.667C450.618 426.667 450.628 431.694 453.862 431.694Z" fill="#382C80"/>
<path d="M457.007 460.114C460.927 460.114 460.927 453.979 457.007 453.979C453.087 453.979 453.087 460.114 457.007 460.114Z" fill="#382C80"/>
<path d="M540.719 299.708L543.473 298.786C545.131 298.235 546.067 296.482 545.602 294.798C545.137 293.113 543.435 292.088 541.728 292.465L538.984 293.445C537.848 293.744 536.96 294.631 536.659 295.767C536.359 296.903 536.692 298.113 537.533 298.935C538.373 299.756 539.59 300.063 540.719 299.737V299.708Z" fill="#382C80"/>
<path d="M361.761 230.343C365.392 221.113 372.149 213.452 380.852 208.695C384.723 206.559 381.244 200.581 377.373 202.756C367.235 208.442 359.575 217.696 355.881 228.716C354.598 232.48 360.38 233.94 361.761 230.343Z" fill="#382C80"/>
<path d="M178.472 113.341C178.403 110.234 178.207 107.608 180.697 105.246C183.274 103.044 186.747 102.204 190.046 102.982C192.711 103.551 195.877 105.236 196.661 108.059C197.19 110.019 196.004 112.959 193.721 113.096C188.742 113.331 188.684 120.936 193.721 120.877C199.777 120.877 204.334 115.781 204.609 109.842C204.893 103.668 200.052 98.7096 194.632 96.6124C188.751 94.3302 182.109 95.2336 177.051 99.0036C172.631 102.492 169.632 109.656 172.612 114.929C173.339 116.143 174.785 116.726 176.152 116.357C177.518 115.988 178.474 114.756 178.492 113.341H178.472Z" fill="#382C80"/>
<path d="M210.145 481.282C172.558 494.071 137.357 513.018 105.981 537.348C97.0603 544.126 88.6187 551.513 80.7169 559.457C77.4829 562.769 82.3241 567.493 85.7443 564.494C100.366 551.695 115.017 539.151 131.108 528.234C146.96 517.471 163.632 507.968 180.971 499.814C191.026 495.08 201.247 490.749 211.723 487.015C215.281 485.751 213.781 480.057 210.145 481.302V481.282Z" fill="#382C80"/>
<path d="M230.5 481.321C234.959 481.321 234.969 474.373 230.5 474.373C226.031 474.373 226.022 481.321 230.5 481.321Z" fill="#382C80"/>
<path d="M369.239 469.424C386.161 466.578 403.466 466.91 420.267 470.404C424.707 471.296 426.598 464.446 422.139 463.603C404.162 460.298 385.712 460.538 367.827 464.308C364.446 464.994 365.867 470.032 369.239 469.444V469.424Z" fill="#382C80"/>
<path d="M83.3729 282.558C81.6726 253.678 90.7523 225.196 108.853 202.629C117.565 191.849 128.816 182.372 142.349 179.373C144.358 178.932 146.759 178.746 148.18 180.226C149.601 181.706 149.317 184.077 148.778 186.047C145.525 197.856 136.42 206.98 128.58 216.349C114.978 232.46 103.777 251.844 103.385 272.865C103.316 276.874 103.63 280.941 102.787 284.861C101.944 288.781 99.6801 292.701 95.9267 294.18C92.1733 295.66 87.1067 293.808 86.3031 289.888" fill="white"/>
<path d="M86.2146 282.558C85.5573 265.287 88.6951 248.083 95.407 232.156C101.846 216.878 111.812 201.57 125.238 191.535C128.192 189.309 131.364 187.388 134.705 185.802C136.547 184.946 138.45 184.228 140.399 183.656C141.364 183.346 142.345 183.091 143.339 182.892C144.544 182.686 145.299 182.284 145.671 183.391C146.044 184.499 144.819 187.037 144.456 187.997C143.722 189.91 142.837 191.762 141.81 193.534C139.551 197.386 136.95 201.027 134.039 204.412C123.082 217.554 112.096 230.118 105.481 246.151C101.747 254.994 99.7508 264.473 99.6014 274.071C99.6014 278.706 100.18 284.096 97.4356 288.134C95.9656 290.3 91.0558 292.848 89.8896 288.898C88.5274 284.331 81.4714 286.252 82.7356 290.858C85.1072 299.512 96.2694 300.462 101.924 294.484C109.313 286.644 106.265 275.031 107.696 265.378C110.793 244.602 123.523 227.785 136.763 212.243C142.976 204.951 149.033 197.239 151.875 187.939C153.1 183.94 153.364 179.07 149.327 176.551C145.289 174.032 139.977 175.973 136.038 177.384C117.731 183.97 103.894 200.394 94.7602 217.015C83.7624 237.02 78.8282 259.795 80.56 282.558C80.8246 286.164 86.44 286.252 86.244 282.558H86.2146Z" fill="white"/>
<path d="M97.9258 350.756C110.264 358.204 118.996 342.573 105.56 335.595C93.3002 329.206 85.4602 342.543 97.2202 350.276L97.9258 350.756Z" fill="white"/>
<path d="M96.4653 353.245C102.189 356.655 109.98 356.822 113.909 350.628C117.653 344.748 114.654 337.663 109.431 333.861C103.551 329.588 94.2309 328.343 89.5955 335.086C84.6955 342.161 89.7229 350.07 96.0047 354.029C100.16 356.646 103.962 350.109 99.8463 347.473C97.4159 345.924 93.6037 342.436 95.7597 339.231C97.9157 336.026 103.453 338.133 105.893 339.907C108.333 341.681 110.048 344.621 108.412 347.414C106.452 350.756 102.189 349.795 99.3857 348.257C96.1223 346.473 93.2999 351.334 96.4653 353.245Z" fill="white"/>
<path d="M305.636 202.217C287.996 198.581 272.669 184.401 253.696 188.781C250.57 189.497 250.266 193.152 251.981 195.289C261.556 207.264 271.405 219.093 280.735 231.264L282.254 225.492C269.514 234.871 258.822 247.474 250.541 260.9C248.659 263.957 251.178 267.152 254.314 267.466C263.555 268.397 270.494 262.134 278.549 258.871C279.225 258.597 280.872 258.42 281.293 257.95C282.018 257.95 282.087 257.773 281.509 257.421C281.146 256.901 281.029 256.891 281.146 257.421C280.937 258.226 280.783 259.044 280.686 259.871C280.303 261.164 279.833 262.448 279.392 263.722L274.286 278.804C272.277 284.684 268.044 296.719 277.305 299.198C282.116 300.482 285.762 296.591 289.065 293.73C293.337 289.986 297.584 286.229 301.805 282.46C305.96 278.755 299.903 272.826 295.738 276.384C291.72 279.814 287.722 283.266 283.743 286.742C282.763 287.595 279.578 289.584 279.608 290.75C280.254 291.466 280.509 291.632 280.352 291.27C280.322 291.169 280.282 291.07 280.235 290.976C280.289 290.219 280.289 289.459 280.235 288.702C280.891 284.42 283.057 280 284.439 275.913C286.017 271.239 287.889 266.574 289.172 261.811C290.094 258.42 290.28 254.343 287.761 251.57C284.645 248.15 280.019 249.022 276.178 250.502C269.043 253.256 262.311 259.606 254.265 258.783L258.028 265.349C265.986 252.511 276.001 242.044 287.31 232.156C289.123 230.578 288.712 227.825 287.31 226.188C277.118 214.271 267.387 201.943 257.44 189.82L255.715 196.327C263.918 194.318 271.983 196.974 279.568 200.022C287.546 203.227 295.366 206.882 303.863 208.519C307.93 209.312 309.694 203.109 305.587 202.256L305.636 202.217Z" fill="#382C80"/>
<path d="M293.22 170.308C295.964 174.522 298.738 178.717 301.423 182.96C304.108 187.204 311.017 183.088 308.136 179.04C305.255 174.993 302.393 170.759 299.531 166.624C296.885 162.802 290.643 166.33 293.22 170.308Z" fill="#382C80"/>
<path d="M337.094 349.737C336.908 355.617 338.349 362.692 345.277 363.76C352.647 364.897 357.263 358.606 359.801 352.657C361.447 348.737 356.195 345.356 353.921 349.237C352.343 351.971 350.432 356.097 347.061 356.753C343.141 357.537 343.2 352.353 343.141 349.737C343.082 345.817 337.183 345.817 337.065 349.737H337.094Z" fill="#382C80"/>
<path d="M213.115 125.924C187.35 127.522 162.076 133.323 138.929 145.005C134.685 147.141 138.409 153.227 142.613 151.306C164.81 141.183 188.673 134.039 213.115 132.206C217.103 131.902 217.172 125.669 213.115 125.924Z" fill="#382C80"/>
<path d="M403.078 684.093L422.149 700.753C425.471 703.693 430.371 698.793 427.049 695.853L407.811 679.34C404.567 676.547 399.814 681.232 403.078 684.074V684.093Z" fill="#382C80"/>
<path d="M365.005 724.773L367.602 731.143C368.169 732.983 370.073 734.062 371.943 733.603C373.629 733.142 375.109 731.045 374.403 729.261L371.894 722.872C371.322 721.009 369.398 719.913 367.504 720.373C365.808 720.843 364.27 722.979 365.005 724.773Z" fill="#382C80"/>
<path d="M288.77 757.24L290.054 749.586C290.498 747.801 289.464 745.982 287.702 745.451C286.095 745 283.861 745.99 283.567 747.793L282.302 755.457C281.869 757.233 282.897 759.038 284.645 759.573C286.252 760.014 288.467 759.034 288.77 757.24Z" fill="#382C80"/>
<path d="M220.788 735.465L231.029 730.427C234.733 728.605 231.48 722.999 227.785 724.871L217.613 730.045C213.997 731.878 217.172 737.238 220.788 735.465Z" fill="#382C80"/>
</svg>
