<svg width="1000" height="1000" viewBox="0 0 1000 1000" fill="none" xmlns="http://www.w3.org/2000/svg">
<path d="M260.664 251.678C271.444 254.451 280.392 262.301 286.703 271.484C293.014 280.666 297.032 291.211 300.982 301.628C312.614 332.273 322.963 361.859 339.878 389.691C347.62 402.431 356.42 415.289 369.464 422.502C378.999 427.774 390.044 429.567 400.755 431.322C441.974 438.103 483.271 445.747 522.687 459.604C539.817 465.631 556.879 473.03 570.423 485.133C582.438 495.913 594.844 513.818 591.081 530.556C587.661 545.795 580.301 566.669 565.601 574.402C556.595 579.145 545.874 578.988 535.731 578.145C496.149 574.872 457.84 563.053 419.905 551.313C387.868 541.385 355.479 531.321 326.677 514.141C262.673 475.99 221.739 402 223.415 327.52" fill="white"/>
<path d="M259.9 254.471C276.256 259.126 285.821 273.767 292.24 288.555C299.1 304.372 304.363 320.895 310.674 336.977C316.848 352.657 323.551 368.209 331.714 383.037C338.819 395.895 346.777 409.399 358.018 419.111C370.444 429.891 385.791 432.831 401.539 435.496C419.385 438.505 437.192 441.7 454.881 445.512C472.237 449.265 489.494 453.499 506.458 458.791C522.403 463.769 538.504 469.287 552.93 477.871C565.983 485.633 577.998 496.589 584.231 510.721C590.052 523.922 585.75 538.161 579.939 550.685C573.627 564.288 564.17 573.471 548.53 574.206C530.968 575.019 512.691 571.354 495.61 567.737C461.251 560.456 427.441 549.617 394.121 538.602C363.339 528.43 332.89 515.944 307.352 495.541C262.781 459.898 233.538 405.851 228.462 348.972C227.825 341.857 227.57 334.703 227.609 327.559C227.609 322.169 219.416 322.189 219.25 327.559C217.407 387.339 243.495 447.119 286.203 488.563C309.723 511.387 338.006 527.146 368.455 538.818C384.968 545.158 401.873 550.401 418.758 555.625C436.859 561.23 455.018 566.836 473.344 571.54C491.408 576.297 509.786 579.765 528.342 581.918C544.139 583.643 561.544 584.858 574.402 573.706C584.496 564.974 589.993 551.528 593.561 538.984C595.432 532.389 596.785 525.921 595.785 519.051C594.658 511.211 591.248 503.851 586.838 497.344C567.836 469.287 533.545 457.811 502.509 448.707C484.261 443.356 465.71 439.083 447.041 435.467C428.636 431.91 410.016 429.44 391.622 425.833C382.861 424.118 374.276 421.59 366.896 416.406C360.301 411.77 354.94 405.479 350.315 398.932C340.26 384.624 332.136 368.944 325.05 353C317.553 336.134 311.203 318.768 304.568 301.55C298.639 286.174 292.456 270.19 279.804 259.008C274.543 254.258 268.259 250.784 261.439 248.855C257.832 247.875 256.303 253.422 259.89 254.441L259.9 254.471Z" fill="#382C80"/>
<path d="M613.082 510.378L576.754 511.927C572.834 512.093 568.6 512.387 565.68 514.984C563.396 517.013 562.318 520.129 560.064 522.177C557.644 524.353 554.263 525.01 551.048 525.519C535.819 527.93 520.982 525.46 505.537 526.166L451.568 528.645C448.903 528.763 445.688 529.253 444.65 531.713C444.338 532.616 444.214 533.573 444.287 534.525C444.346 551.512 444.411 568.499 444.483 585.485C444.483 587.004 444.571 588.719 445.698 589.739C446.825 590.758 448.305 590.719 449.716 590.64L607.741 585.26" fill="white"/>
<path d="M613.082 507.409C606.065 507.536 599.058 507.585 592.042 507.742C585.231 507.889 578.047 507.556 571.305 508.722C566.903 509.335 562.962 511.771 560.446 515.435C558.388 518.287 557.036 520.286 553.488 521.197C549.577 522.093 545.584 522.586 541.572 522.667C527.636 523.324 513.71 521.971 499.755 522.599L457.35 524.559C452.862 524.764 446.933 524.225 443.229 527.361C439.073 530.88 440.289 537.338 440.289 542.179C440.289 556.34 440.122 570.511 440.23 584.672C440.23 588.925 441.21 593.178 445.737 594.619C448.207 595.403 451.049 594.962 453.577 594.874L467.229 594.393L510.153 592.914L607.702 589.542C613.112 589.356 613.131 580.928 607.702 581.114L529.665 583.8C503.714 584.691 477.519 584.593 451.627 586.485C450.138 586.593 449.148 587.034 448.687 586.22C448.227 585.407 448.638 582.771 448.628 581.84L448.54 572.402L448.374 553.508C448.325 547.804 447.335 541.189 448.217 535.564C448.726 532.271 450.618 532.722 453.46 532.575C457.311 532.369 461.172 532.212 465.024 532.026C477.868 531.425 490.716 530.824 503.567 530.223C516.229 529.655 528.881 531.036 541.532 530.399C547.04 530.125 553.292 529.841 558.398 527.646C560.6 526.745 562.543 525.31 564.053 523.471C566.121 520.942 567.238 518.002 570.393 516.611C573.333 515.347 577.43 515.709 580.536 515.543C583.643 515.376 586.906 515.18 590.091 514.984C597.745 514.523 605.389 513.926 613.043 513.406C616.806 513.151 616.885 507.418 613.043 507.477L613.082 507.409Z" fill="#382C80"/>
<path d="M654.223 604.439L653.713 604.674C646.03 608.006 637.18 607.271 628.782 606.467C623.882 605.997 618.727 605.487 614.513 602.949C605.105 597.343 604.017 584.79 603.958 574.137L603.723 525.372C603.723 517.611 603.674 509.692 606.232 502.352C612.886 483.232 628.037 484.389 645.256 485.565C649.548 485.859 654.076 486.231 657.594 488.652C660.906 490.935 662.768 494.708 664.062 498.452C666.884 506.586 667.658 515.229 667.982 523.785C668.55 540.239 667.443 556.683 666.022 573.069C665.052 584.378 666.6 598.676 654.223 604.439Z" fill="white"/>
<path d="M652.88 602.067C648.039 604.223 642.512 604.184 637.318 603.851C631.869 603.498 626.057 603.086 620.805 601.567C611.289 598.813 608.682 589.582 608.065 580.683C607.33 569.786 607.82 558.722 607.8 547.804C607.8 536.24 606.977 524.333 608.241 512.818C609.123 504.714 612.161 495.257 620.05 491.494C626.381 488.485 634.044 489.122 640.826 489.534C645.373 489.808 651.008 489.534 654.938 492.072C659.485 495.012 660.818 501.695 661.896 506.664C664.248 517.777 663.934 529.547 663.582 540.846C663.18 553.234 661.778 565.523 661.083 577.881C660.612 586.397 660.377 596.011 652.135 600.803C647.333 603.596 651.537 610.211 656.388 608.074C666.13 603.782 669.128 594.648 670.03 584.731C671.147 572.383 671.843 559.878 672.304 547.491C672.843 533.271 673.225 518.355 670.216 504.371C669.05 498.942 667.345 493.13 663.827 488.691C659.975 483.889 654.497 482.144 648.539 481.517C639.562 480.586 629.497 479.655 620.697 482.233C611.896 484.81 605.997 491.376 602.733 499.804C597.833 512.544 599.793 527.577 599.891 540.964C599.999 554.557 599.235 568.453 600.47 581.997C601.45 592.884 605.37 603.919 616.512 607.888C622.97 610.191 630.526 610.309 637.308 610.338C643.59 610.509 649.834 609.308 655.604 606.82C658.829 605.34 656.026 600.646 652.88 602.067Z" fill="#382C80"/>
<path d="M183.117 555.311C154.834 530.174 145.152 490.269 141.555 452.597C140.575 442.004 140.81 429.342 149.572 423.286C153.844 420.346 159.264 419.709 164.428 419.17L232.94 412.035C238.948 411.408 245.22 410.82 250.864 412.966C265.359 418.503 269.661 456.674 273.493 470.012C280.127 493.052 285.968 516.356 289.584 540.072C295.464 579.037 295.317 619.55 283.302 657.084C275.619 681.104 263.271 703.399 249.179 724.293C234.4 746.196 216.202 767.775 191.114 776.046" fill="white"/>
<path d="M185.273 553.145C170.808 539.425 161.145 521.472 155.089 502.597C149.278 484.457 145.152 464.21 145.113 445.091C145.113 434.752 148.121 426 159.264 423.864C170.877 421.639 183.117 421.267 194.877 420.061L231.039 416.357C239.31 415.504 249.042 413.76 254.559 421.384C262.507 432.458 264.437 448.187 267.172 461.202C271.376 481.194 277.785 500.647 281.872 520.707C291.211 566.895 293.249 615.875 277.432 660.916C269.112 684.612 256.264 706.711 241.819 727.164C228.54 745.98 212.096 763.963 190.016 772.058C185.116 773.861 187.076 781.662 192.211 780.035C213.428 773.302 229.667 757.877 242.995 740.57C257.687 721.634 270.002 700.969 279.667 679.036C300.247 631.722 301.089 579.762 292.171 529.596C289.741 515.876 286.625 502.391 283.106 488.955C280.656 479.596 277.697 470.335 275.649 460.898C272.513 446.384 270.298 429.695 261.693 417.19C256.931 410.281 250.414 407.468 242.035 407.341C228.981 407.135 215.477 409.752 202.492 411.124C189.291 412.515 176.032 413.77 162.87 415.318C153.07 416.465 144.152 419.532 139.938 429.215C135.528 439.318 137.292 451.098 138.605 461.672C140.011 473.716 142.304 485.639 145.465 497.344C151.835 520.257 162.713 541.787 180.981 557.467C183.921 559.996 188.184 555.889 185.302 553.145H185.273Z" fill="#382C80"/>
<path d="M134.46 423.972C122.511 466.501 124.291 511.717 139.546 553.175C151.434 585.24 171.426 615.189 173.944 649.293C175.14 665.561 172.229 681.829 169.338 697.891C161.155 743.256 151.434 788.551 144.358 834.111C140.938 856.122 163.654 854.182 181.667 855.76C207.245 858.004 233.411 856.955 258.783 857.661C259.577 857.761 260.382 857.599 261.076 857.2C261.621 856.745 261.997 856.121 262.144 855.426C263.457 851.036 261.713 846.185 258.773 842.686C255.833 839.188 251.835 836.748 247.895 834.396C223.062 819.588 218.76 805.466 224.738 778.643C230.863 751.203 236.449 723.558 240.192 695.637C249.816 623.852 250.061 549.431 231.157 478.822" fill="white"/>
<path d="M131.52 423.158C122.615 454.481 120.982 487.423 126.747 519.473C129.673 535.291 134.336 550.738 140.654 565.533C146.935 580.468 154.315 594.933 160.254 610.025C166.192 625.117 170.397 640.61 170.397 656.82C170.397 674.744 166.428 692.55 163.154 710.102C156.52 745.715 149.199 781.211 143.192 816.922C141.379 827.702 136.067 842.98 145.524 851.742C152.531 858.229 163.654 858.513 172.621 859.082C188.223 860.062 203.736 861.042 219.377 861.218C228.481 861.297 237.576 861.277 246.68 861.375C252.187 861.434 262.262 863.962 265.388 857.916C268.328 852.212 265.662 844.852 261.909 840.276C257.528 834.915 251.129 831.946 245.504 828.192C236.419 822.165 228.491 814.286 226.737 803.104C224.649 789.766 229.53 775.664 232.274 762.816C235.998 745.294 239.389 727.693 242.133 709.994C252.677 641.688 254.873 571.03 240.908 503.048C239.163 494.554 237.174 486.13 234.939 477.774C233.646 472.923 226.119 474.981 227.403 479.851C244.622 544.717 245.739 612.778 238.262 679.164C234.44 713.111 227.384 746.294 220.475 779.702C218.387 789.766 217.064 800.703 220.475 810.65C223.777 820.382 230.99 827.624 239.212 833.455C244.759 837.375 252.266 840.256 256.333 845.891C257.359 847.269 258.089 848.844 258.479 850.517C258.655 851.389 258.969 853.731 258.381 854.368C258.891 853.809 259.175 853.486 257.901 853.672C253.814 854.29 248.963 853.496 244.837 853.457C227.864 853.31 210.88 853.515 193.877 852.643C182.666 852.065 170.357 852.143 159.401 849.703C155.638 848.86 151.365 847.537 149.297 844.009C146.21 838.747 148.778 831.191 149.679 825.674C155.246 791.491 162.125 757.544 168.564 723.518C174.611 691.619 182.607 659.162 173.827 627.018C165.849 597.775 149.033 571.942 139.801 543.149C129.979 512.408 127.445 479.803 132.402 447.913C133.64 440.121 135.309 432.403 137.4 424.795C138.38 421.022 132.618 419.424 131.52 423.178V423.158Z" fill="#382C80"/>
<path d="M231.186 478.793C250.09 549.353 249.806 623.833 240.222 695.608C237.958 712.513 235.008 729.31 231.686 746.039C230.03 754.339 228.697 762.905 226.433 771.068C224.012 779.78 218.456 779.623 209.773 781.436C183.14 786.951 155.49 784.814 130.021 775.272C123.347 772.754 119.682 772.597 119.358 765.933C119.054 759.573 123.651 750.321 125.346 744.128C129.472 729.124 133.588 714.11 137.527 699.048C141.663 683.27 145.818 667.276 145.887 650.959C146.034 616.757 128.433 585.348 119.064 552.459C103.1 496.286 104.57 433.919 147.288 389.613" fill="white"/>
<path d="M228.256 479.606C242.436 534.486 245.474 591.483 241.388 647.843C239.295 676.069 235.631 704.157 230.412 731.976C229.157 738.708 227.805 745.431 226.492 752.164C225.316 758.436 224.865 767.03 221.592 772.597C219.632 775.997 215.437 776.321 211.909 777.017C205.437 778.381 198.894 779.382 192.309 780.015C178.588 781.159 164.773 780.284 151.306 777.418C144.988 776.048 138.768 774.261 132.686 772.068C128.845 770.686 123.406 770.196 123.278 765.325C123.141 760.249 125.758 754.986 127.424 750.312C129.776 743.736 131.402 736.905 133.245 730.173C137.165 715.923 141.085 701.674 144.574 687.307C147.719 674.293 150.179 660.936 149.777 647.49C149.385 634.485 146.592 621.667 142.8 609.27C135.342 584.897 124.729 561.701 119.133 536.75C107.853 486.437 113.067 431.165 150.022 392.376C153.492 388.731 147.974 383.204 144.495 386.849C110.381 422.688 101.14 471.737 107.941 519.6C111.695 546.119 120.887 570.648 129.883 595.717C134.715 609.192 139.213 622.98 141.055 637.229C143.015 652.174 141.163 666.953 137.821 681.565C134.391 696.559 130.187 711.396 126.15 726.223C124.268 733.083 122.651 740.139 120.27 746.882C118.388 752.301 115.977 757.662 115.458 763.463C114.429 774.851 123.298 777.183 132.235 780.319C145.918 785.048 160.223 787.733 174.689 788.287C188.233 788.835 201.404 787.111 214.653 784.514C218.377 783.788 222.248 782.965 225.218 780.447C229.706 776.644 230.716 770.519 231.921 765.07C238.306 736.117 243.086 706.832 246.239 677.351C253.354 610.858 251.717 542.836 234.067 478.028C233.087 474.255 227.207 475.853 228.187 479.645L228.256 479.606Z" fill="#382C80"/>
<path d="M285.458 318.239C284.243 351.079 279.706 358.596 275.119 384.517C272.787 397.727 271.484 394.317 270.523 407.674C269.729 418.738 272.091 431.743 267.965 442.376C265.937 447.59 260.527 450.471 255.392 452.039C240.467 456.606 224.649 454.175 209.822 450.334C183.274 443.474 157.372 431.812 137.89 412.035C133.833 407.909 129.864 402.911 129.776 396.884C129.668 390.024 134.558 384.144 138.488 378.48C148.572 363.966 155.148 345.209 159.656 328.157C165.085 307.577 174.248 287.703 188.36 272.121" fill="white"/>
<path d="M282.44 318.239C281.068 341.397 275.423 363.398 270.768 386.016C269.935 390.093 268.446 393.974 267.613 398.031C266.521 403.904 266.048 409.876 266.201 415.847C266.25 423.227 266.887 430.959 264.849 438.142C262.752 445.541 255.951 447.776 249.012 449.108C234.008 452.048 218.397 448.217 204.03 443.954C190.404 440.066 177.324 434.468 165.105 427.294C158.98 423.618 153.186 419.418 147.788 414.74C143.182 410.741 137.008 405.92 135.048 399.922C132.667 392.778 138.752 386.251 142.496 380.783C146.512 374.853 149.97 368.564 152.825 361.996C159.205 347.58 162.478 332.4 167.525 317.563C172.678 301.998 180.72 287.545 191.231 274.962C194.593 271.042 189.085 265.319 185.469 269.2C174.875 280.588 167.172 293.847 161.439 308.253C155.618 322.875 152.668 338.417 146.739 353.01C143.802 360.378 140.145 367.439 135.822 374.089C131.667 380.381 126.346 386.281 125.287 394.023C123.327 408.448 138.135 419.669 148.278 427.343C160.655 436.672 174.738 443.591 189.262 448.834C204.138 454.214 220.19 458.683 236.096 458.957C248.963 459.183 267.368 456.723 272.356 442.738C277.422 428.519 272.238 413.005 275.805 398.55C282.293 372.208 287.908 345.454 288.457 318.19C288.526 314.27 282.665 314.358 282.44 318.19V318.239Z" fill="#382C80"/>
<path d="M100.856 815.246C112.038 816.226 118.212 800.831 107.794 795.088C103.708 792.844 98.2687 792.971 94.7113 796.146C89.6055 800.703 90.3209 808.573 85.6463 813.375L89.2331 815.462C92.4573 807.72 86.6165 797.107 77.6201 797.92C69.4861 798.616 64.6743 808.7 68.9569 815.442C70.2603 817.5 73.7295 816.217 72.9945 813.747C71.0345 807.171 63.1063 802.898 56.7461 806.466C50.3859 810.033 49.7881 818.892 54.2863 824.106L54.7371 820.578C51.2189 823.224 45.3291 818.52 41.0661 819.353C37.6597 820.171 34.8551 822.578 33.5299 825.821C29.4629 834.641 36.1759 842.706 42.0755 848.664C44.1041 850.722 47.2499 847.577 45.2409 845.499C40.8113 840.903 31.5797 830.378 40.0371 824.694C45.2507 821.195 51.4345 828.682 57.0009 824.458C57.5881 824.096 57.9808 823.488 58.0702 822.804C58.1595 822.12 57.9359 821.432 57.4615 820.93C54.8449 817.902 55.1683 812.306 58.9903 810.288C62.8123 808.269 67.5751 811.023 68.7413 814.894L72.7201 813.169C69.9859 808.886 73.2885 802.036 78.6785 802.203C84.5585 802.379 86.9399 809.66 85.0779 814.325C84.2645 816.364 87.2731 817.873 88.6647 816.413C93.2217 811.601 92.5847 803.134 97.5435 798.998C100.67 796.391 106.226 797.342 108.441 800.733C111.91 806.034 106.226 812.032 100.836 811.748C98.5725 811.63 98.6215 815.05 100.836 815.246H100.856Z" fill="#382C80"/>
<path d="M88.6744 838.894C84.2252 835.307 77.7964 835.846 73.5726 839.531C71.7302 841.128 74.4154 843.794 76.248 842.206C79.3056 839.541 83.2648 839.609 86.685 841.471C88.2432 842.324 90.1836 840.119 88.645 838.894H88.6744Z" fill="#382C80"/>
<path d="M196.896 469.718C198.856 476.656 193.25 481.801 188.742 486.241C184.665 490.259 180.187 494.336 177.845 499.677C174.483 507.321 176.345 516.415 177.021 524.422C177.864 534.372 178.71 544.322 179.56 554.272C182.833 592.884 187.458 631.8 185.753 670.598C184.773 692.639 181.412 714.473 174.424 735.435C173.601 737.895 177.462 738.934 178.295 736.503C191.035 699.597 191.467 660.063 189.075 621.51C187.85 601.646 185.988 581.81 184.303 561.985L181.686 531.164C181.255 526.019 180.794 520.884 180.363 515.749C179.961 510.849 179.481 505.811 181.51 501.235C186.331 490.327 204.226 482.772 200.032 468.846C199.424 466.886 196.298 467.68 196.866 469.718H196.896Z" fill="#7F72FF"/>
<path d="M144.387 834.092C145.302 828.212 146.253 822.365 147.239 816.55C149.302 816.888 151.317 817.477 153.237 818.304C166.288 823.206 180.076 825.857 194.015 826.144C195.839 826.319 197.679 826.047 199.375 825.35C202.433 823.821 203.54 820.127 204.746 816.932C206.127 813.228 208.097 809.611 211.214 807.132C213.742 805.172 218.387 803.702 222.817 803.31C224.61 815.668 232.088 824.87 247.924 834.288C251.844 836.64 255.862 839.07 258.802 842.579C261.742 846.087 263.487 850.938 262.174 855.319C262.026 856.013 261.65 856.638 261.105 857.092C260.411 857.492 259.606 857.653 258.812 857.553C233.44 856.847 207.274 857.896 181.696 855.652C163.684 854.162 140.967 856.103 144.387 834.092Z" fill="#382C80"/>
<path d="M146.279 834.611C147.194 828.731 148.141 822.884 149.121 817.069L146.72 818.431C154.638 819.833 162.174 823.596 170.103 825.291C177.951 827.075 185.966 828.025 194.015 828.123C199.483 828.123 202.942 826.232 205.206 821.136C206.813 817.52 207.793 813.659 210.469 810.611C213.595 807.034 218.309 805.858 222.817 805.319L220.935 803.888C222.601 814.217 228.422 822.42 236.488 828.868C241.741 833.082 247.797 836.022 253.148 840.07C256.254 842.412 259.087 845.362 260.184 849.203C260.821 851.457 261.409 854.652 258.812 855.661C257.244 856.279 254 855.554 252.295 855.524C223.611 855.024 194.975 855.426 166.379 852.692C161.371 852.212 155.746 851.545 151.385 848.772C146.151 845.45 145.583 839.717 146.347 834.072C146.681 831.583 142.77 831.612 142.427 834.072C141.055 844.264 145.465 851.781 155.412 854.73C160.41 856.21 165.732 856.602 170.906 856.955C178.246 857.455 185.606 858.062 192.946 858.464C211.772 859.444 230.637 859.121 249.483 859.385C255.304 859.464 263.203 861.737 264.408 854.172C265.388 847.557 261.252 841.51 256.323 837.6C249.463 832.122 241.378 828.594 234.988 822.39C229.494 817.191 225.873 810.321 224.689 802.849C224.452 802.005 223.684 801.421 222.807 801.418C216.594 802.153 210.724 803.849 206.774 808.994C203.109 813.776 202.511 823.851 195.377 824.223C187.39 824.644 178.903 823.243 171.132 821.528C163.203 819.813 155.667 816.04 147.749 814.668C146.707 814.387 145.634 815 145.348 816.04C144.368 821.881 143.417 827.728 142.496 833.582C142.124 836.032 145.887 837.12 146.279 834.611Z" fill="#382C80"/>
<path d="M235.968 811.64C231.255 816.373 228.06 822.753 226.168 829.094C225.551 831.181 228.805 832.034 229.422 829.995C231.294 823.704 234.391 818.627 238.242 813.335C239.222 811.993 237.115 810.474 235.988 811.591L235.968 811.64Z" fill="white"/>
<path d="M242.191 822.077C238.311 825.606 235.652 830.277 234.596 835.415C234.224 837.561 237.272 838.492 237.919 836.326C239.291 831.789 241.123 827.781 244.436 824.321C245.024 823.696 245.01 822.717 244.403 822.11C243.796 821.503 242.816 821.488 242.191 822.077Z" fill="white"/>
<path d="M247.591 829.574C244.453 832.216 242.407 835.928 241.848 839.991C241.652 841.599 244.181 841.834 244.602 840.364C245.437 837.04 247.193 834.02 249.669 831.652C251.08 830.368 249.002 828.329 247.591 829.574Z" fill="white"/>
<path d="M174.297 836.718C175.512 837.757 176.198 840.07 174.699 841.216C173.199 842.363 171.083 841.069 170.651 839.55C170.034 837.414 166.996 838.335 167.368 840.462C168.084 844.529 173.356 846.557 176.678 844.156C180.001 841.755 179.795 836.15 176.179 834.278C174.699 833.514 172.905 835.503 174.297 836.718Z" fill="white"/>
<path d="M238.222 280.108L237.85 280.215H237.664C237.141 280.357 236.664 280.634 236.282 281.019C236.098 281.227 235.928 281.446 235.772 281.676C235.497 282.149 235.351 282.686 235.351 283.234C235.351 283.784 235.497 284.325 235.772 284.802C235.928 285.031 236.098 285.251 236.282 285.458C236.664 285.843 237.141 286.12 237.664 286.262L237.85 286.311L238.222 286.419C239.369 286.734 240.597 286.409 241.437 285.566L241.946 284.9C242.247 284.396 242.403 283.82 242.397 283.234C242.353 282.369 242.006 281.547 241.417 280.911C240.572 280.078 239.35 279.754 238.203 280.059L238.222 280.108Z" fill="#382C80"/>
<path d="M256.529 510.29C269.964 569.886 266.956 632.012 247.826 690.032C247.052 692.423 250.766 693.432 251.58 691.071C271.003 632.663 273.424 569.364 259.312 509.526C258.881 507.722 256.117 508.487 256.529 510.29Z" fill="#7F72FF"/>
<path d="M170.308 759.386H169.142C168.601 759.397 168.084 759.611 167.692 759.984C167.299 760.373 167.078 760.902 167.078 761.454C167.078 762.007 167.299 762.536 167.692 762.924C168.084 763.298 168.601 763.511 169.142 763.522H170.308C170.848 763.515 171.363 763.301 171.749 762.924C172.328 762.339 172.501 761.463 172.186 760.702C171.872 759.941 171.132 759.442 170.308 759.435V759.386Z" fill="#7F72FF"/>
<path d="M330.127 845.352C339.162 846.146 350.07 840.677 352.598 831.328C353.5 827.996 351.726 825.448 348.188 825.742C346.507 825.977 344.906 826.605 343.514 827.575C340.015 829.633 336.605 831.897 333.155 834.043L336.154 836.346C338.114 831.446 340.074 826.663 341.877 821.773C342.73 819.48 343.984 816.756 342.357 814.492C338.437 809.033 329.705 818.324 327.206 821.234L330.901 823.38C333.743 816.001 333.616 805.878 325.237 802.163C318.925 799.361 311.517 804.123 312.036 811.111L315.956 809.494C309.625 802.732 298.639 801.076 290.976 806.662C283.312 812.248 281.46 822.469 285.38 830.672C286.693 833.406 290.711 831.024 289.437 828.3C286.497 822.008 288.379 813.776 294.406 809.974C300.433 806.172 308.028 807.867 312.693 812.728C313.986 814.09 316.76 813.12 316.613 811.111C316.074 804.525 324.404 805.074 327.03 809.66C329.274 813.58 328.069 818.245 326.638 822.204C325.903 824.233 328.941 826.056 330.333 824.36C331.724 822.665 333.547 820.254 335.566 819.215C338.643 817.638 338.506 818.882 337.447 821.567C335.703 826.124 333.949 830.691 332.224 835.287C331.597 836.953 333.792 838.512 335.213 837.59L343.896 831.985C344.327 831.71 347.159 829.437 347.688 829.78C349.648 831.103 346.708 834.631 346.013 835.444C342.091 840.067 336.164 842.491 330.127 841.942C327.912 841.775 327.941 845.185 330.127 845.381V845.352Z" fill="#382C80"/>
<path d="M326.893 795.245C331.656 791.325 340.27 780.986 336.83 774.155C332.577 765.698 324.462 781.662 322.806 784.063L326.285 786.101C328.598 781.456 325.178 776.046 320.023 775.596C313.908 775.057 310.527 781.476 310.086 786.65C309.851 789.355 314.104 789.345 314.31 786.65C314.326 784.57 315.181 782.584 316.681 781.142C318.582 779.476 324.854 779.565 322.806 784.082C321.748 786.405 324.923 788.385 326.285 786.121C327.647 783.857 329.127 781.554 330.568 779.261C331.381 777.967 331.43 776.683 332.851 777.644C334.272 778.604 333.39 779.604 332.91 781.025C331.214 785.654 328.375 789.78 324.658 793.02C323.13 794.412 325.354 796.538 326.893 795.254V795.245Z" fill="#382C80"/>
<path d="M220.818 302.04C240.976 331.185 269.896 378.794 287.458 409.576C301.717 434.546 320.072 445.532 347.63 451.402C368.719 455.9 389.975 459.575 411.006 464.338C444.846 471.982 480.4 483.34 509.653 502.274C535.015 518.689 541.513 562.279 535.26 589.278C533.565 596.569 530.439 604.341 523.736 607.673C517.032 611.005 506.723 606.252 507.722 598.853C510.917 606.154 505.939 615.787 498.128 617.404C490.318 619.021 481.929 612.132 481.978 604.164C482.958 611.152 477.166 618.335 470.13 618.864C463.093 619.393 456.302 613.141 456.243 606.124C459.183 610.505 454.989 616.992 449.746 617.708C444.503 618.423 439.485 615.101 436.026 611.064C426.422 599.764 420.228 591.591 406.116 585.397C396.179 581.036 385.84 580.056 375.226 578.194C343.168 572.533 312.373 561.211 284.282 544.757C240.133 518.855 211.655 483.909 192.162 436.898C173.954 392.984 151.345 329.627 168.505 282.391C175.669 262.664 193.848 245.7 214.84 245.719" fill="white"/>
<path d="M218.142 303.579C236.831 330.773 253.902 359.115 270.592 387.564C278.187 400.52 284.861 414.544 294.484 426.147C303.426 436.732 314.946 444.832 327.932 449.667C345.425 456.4 364.691 458.83 382.988 462.456C402.323 466.278 421.61 470.404 440.514 476.049C458.879 481.547 476.911 488.367 493.816 497.481C500.882 501.294 508.379 505.204 514.112 510.927C518.805 515.773 522.601 521.414 525.323 527.587C531.938 541.905 534.251 558.388 533.428 574.049C533.026 581.624 532.046 589.925 528.665 596.794C526.872 600.45 523.824 604.576 519.404 604.909C515.69 605.183 511.378 602.949 511.623 598.892L503.92 599.872C505.821 604.958 503.734 611.377 498.256 613.298C492.376 615.356 486.143 609.936 485.839 604.145H477.999C478.391 609.044 475.343 614.356 470.051 614.924C464.955 615.483 460.398 610.926 460.065 606.046L452.784 608.006C453.764 609.799 452.656 611.857 451.078 612.906C448.981 614.346 446.433 613.778 444.307 612.759C440.279 610.799 437.623 606.879 434.801 603.537C429.705 597.549 424.413 591.777 417.896 587.337C401.52 576.097 381.106 575.813 362.359 571.501C324.835 562.867 288.026 546.344 258.136 521.854C232.323 500.715 212.86 473.53 199.16 443.219C184.528 410.83 171.72 375.599 167.555 340.152C165.31 320.895 165.595 300.296 172.837 282.048C179.697 264.849 195.543 249.904 214.791 249.532C219.828 249.434 219.847 241.613 214.791 241.692C196.945 241.946 181.422 252.55 171.671 267.064C161.302 282.509 158.294 302.344 158.343 320.562C158.45 360.203 172.347 399.04 187.233 435.222C201.247 469.306 221.014 500.49 249.228 524.588C281.195 551.891 321.101 570.276 361.987 579.4C374.011 582.085 386.545 582.967 398.335 586.573C409.272 589.905 417.994 596.305 425.54 604.733C431.733 611.592 437.75 621.589 448.227 621.569C457.047 621.569 463.848 612.073 459.526 604.007C457.742 600.685 451.98 602.047 452.245 605.967C452.872 615.14 460.477 623.137 470.041 622.627C479.391 622.157 486.525 613.111 485.79 604.007C485.388 599.107 477.715 598.941 477.95 604.007C478.489 614.376 488.367 623.441 499.04 621.01C509.045 618.727 514.896 607.124 511.358 597.657C510.793 595.826 508.986 594.672 507.086 594.929C505.187 595.187 503.752 596.78 503.695 598.696C503.283 605.448 508.595 610.583 514.857 612.063C522.217 613.788 528.9 610.103 533.124 604.145C541.425 592.384 541.944 574.598 540.964 560.78C539.984 545.972 536.476 530.909 529.047 517.953C520.649 503.253 506.997 495.257 492.287 487.818C454.254 468.611 412.378 460.094 370.885 452.049C353.137 448.619 334.439 446.061 318.533 436.917C303.99 428.558 295.16 415.671 286.919 401.49C266.927 367.092 245.984 333.027 223.326 300.315C221.072 297.062 215.712 300.139 217.976 303.441L218.142 303.579Z" fill="#382C80"/>
<path d="M291.358 186.792C297.846 197.66 295.386 214.585 293.083 226.355C292.611 229.575 291.527 232.676 289.888 235.488C285.547 242.142 277.863 242.917 270.7 242.054C267.319 241.643 265.8 243.563 265.084 246.768L262.595 258.528C261.409 264.124 259.655 270.484 254.441 272.875C251.227 274.365 247.405 273.855 244.093 272.601C241.855 271.782 239.796 270.541 238.026 268.945C231.862 263.183 230.402 252.334 231.833 244.445C233.994 233.171 236.857 222.042 240.408 211.125C242.485 204.53 244.886 198.023 246.915 191.418C248.414 186.518 250.766 183.039 255.431 180.53C263.41 176.319 272.805 175.706 281.264 178.844" fill="white"/>
<path d="M288.575 188.419C292.152 195.024 292.397 202.687 291.838 209.979C291.329 216.741 290.535 224.806 287.859 231.098C284.282 239.526 276.883 237.762 269.514 238.046C263.232 238.281 261.674 243.877 260.527 249.022C259.302 254.608 258.744 266.231 252.687 268.975C245.18 272.395 238.164 263.918 236.537 257.597C234.704 250.521 236.292 243.632 237.909 236.674C239.869 228.138 242.348 219.69 245.033 211.351C246.582 206.559 248.277 201.815 249.855 197.043C251.09 193.319 251.884 189.203 254.863 186.41C261.321 180.373 272.228 180.461 280.059 183.048C285.547 184.861 287.722 176.423 282.42 174.483C273.577 171.216 263.801 171.568 255.216 175.463C246.239 179.53 243.661 186.733 240.78 195.514C237.213 206.294 233.577 217.074 230.823 228.148C228.569 237.174 226.021 246.552 227.423 255.911C228.579 263.634 232.244 271.16 239.349 275.011C246.709 279 256.088 279.216 261.556 272.072C263.928 269.004 265.163 265.211 266.045 261.468C266.584 259.145 267.025 256.803 267.515 254.461C267.936 252.403 267.897 248.297 269.181 246.621C270.464 244.945 277.315 246.19 279.784 245.778C283.481 245.252 286.954 243.689 289.8 241.27C297.111 234.782 297.757 222.846 298.62 213.722C299.512 204.02 299.1 193.75 294.141 185.106C292.073 181.51 286.605 184.714 288.575 188.36V188.419Z" fill="#382C80"/>
<path d="M251.198 236.449C254.216 239.118 257.623 241.312 261.301 242.956C265.093 244.572 269.102 245.622 273.199 246.072C277.569 246.582 278.491 239.349 274.237 238.399C267.504 237.04 260.978 234.806 254.824 231.754C251.972 230.265 248.444 234.185 251.198 236.449Z" fill="#382C80"/>
<path d="M271.484 191.966C270.592 191.966 269.7 191.888 268.808 191.868C259.283 191.643 258.244 199.552 255.666 207.205C256.655 204.696 257.07 201.997 256.882 199.307C256.676 196.504 255.274 193.26 252.481 192.878C250.671 192.764 248.936 193.613 247.915 195.112C246.918 196.611 246.182 198.268 245.739 200.012C244.249 204.501 242.561 208.914 240.672 213.252C240.251 214.232 239.516 215.349 238.477 215.212C238.037 215.109 237.645 214.856 237.37 214.497C235.596 212.537 234.979 209.91 234.43 207.352C232.676 198.532 230.333 190.634 230.706 181.402C230.833 178.462 231.186 175.346 232.872 172.905C234.244 170.945 235.87 170.681 237.958 169.965C241.456 168.809 240.427 170.495 241.241 166.447C242.417 160.82 244.86 155.534 248.385 150.993C250.972 147.465 254.01 143.858 258.234 142.702C262.458 141.545 267.916 144.182 268.034 148.582C270.618 145.131 274.922 143.425 279.169 144.168C283.416 144.911 286.885 147.977 288.144 152.1C289.28 148.797 294.122 148.18 296.964 150.14C299.806 152.1 301.04 155.755 301.775 159.166C302.922 155.912 307.538 155.04 310.517 156.794C313.496 158.548 315.015 161.998 315.809 165.359C318.818 177.972 314.702 192.466 300.364 194.426C293.504 195.406 286.644 193.681 279.784 192.721C277.05 192.378 274.267 192.113 271.484 191.966Z" fill="#382C80"/>
<path d="M271.484 188.967C266.466 188.605 261.752 188.967 258.185 192.887C254.912 196.513 253.716 201.707 252.119 206.186C250.521 210.665 257.568 212.527 259.214 208.146C261.664 201.619 261.566 187.742 251.178 188.752C247.101 189.144 244.387 192.26 242.819 195.788C241.839 198.111 241.113 200.6 240.222 202.991C239.771 204.226 237.282 210.91 237.331 210.91L240.663 211.341C238.281 209.802 238.095 203.501 237.527 200.865C236.635 196.739 235.714 192.613 235.224 188.419C234.812 184.832 234.018 179.922 235.449 176.463C236.792 173.238 239.496 174.111 242.084 172.915C243.867 172.082 244.396 170.73 244.896 168.995C245.876 165.526 246.552 162.262 248.297 159.038C250.055 155.76 252.226 152.721 254.755 149.993C255.99 148.68 263.203 143.662 263.84 148.484C264.261 151.659 268.348 154.55 270.994 151.424C274.914 146.857 281.862 146.984 284.194 153.148C285.321 156.147 289.966 157.558 291.681 154.128C294.092 149.287 297.61 158.636 298.002 160.224C298.767 163.37 303.677 164.213 305.186 161.204C307.244 157 310.919 162.86 311.575 165.026C312.283 167.489 312.64 170.039 312.634 172.601C312.634 177.178 311.722 182.049 308.714 185.655C304.794 190.379 298.61 190.859 292.897 190.447C285.703 189.918 278.696 188.203 271.474 187.87C266.162 187.635 266.25 195.71 271.474 196.082C282.362 196.905 294.494 201.208 305.235 197.621C312.408 195.125 317.854 189.201 319.739 181.843C321.777 174.571 321.307 165.134 317.377 158.538C313.32 151.737 302.628 148.974 298.385 157.235L305.568 158.215C304.451 153.217 302.197 147.709 297.022 145.759C292.348 143.995 286.928 145.524 284.596 150.071L292.083 151.051C287.879 139.497 273.414 135.91 265.055 145.573L272.209 148.513C271.611 142.592 266.596 138.104 260.645 138.164C254.206 138.047 249.149 142.741 245.533 147.582C243.347 150.458 241.493 153.571 240.006 156.863C238.82 159.538 236.507 164.281 237.066 167.28C237.35 168.877 240.006 166.133 238.673 165.634C237.889 165.33 235.4 166.614 234.665 166.898C232.121 167.843 230.023 169.707 228.785 172.121C225.541 178.207 226.315 186.527 227.286 193.064C227.923 197.346 228.912 201.57 229.794 205.804C230.578 209.547 231.117 213.575 233.656 216.584C238.477 222.336 243.348 218.024 245.533 212.664C247.101 208.832 248.424 204.922 249.796 201.021C250.069 200.085 250.413 199.171 250.825 198.287C252.236 197.15 252.948 197.415 252.962 199.081C253.942 200.845 252.677 204.481 252.148 206.176L259.243 208.136C260.165 205.03 260.753 201.57 262.311 198.709C264.359 194.936 267.593 194.857 271.513 194.926C275.433 194.994 275.306 189.242 271.484 188.967Z" fill="#382C80"/>
<path d="M283.048 212.409C282.94 213.997 282.881 215.584 282.842 217.182C282.943 218.75 282.907 220.324 282.734 221.886L283.577 220.788C283.028 221.043 281.617 220.524 281.058 220.406C280.097 220.135 279.099 220.695 278.829 221.655C278.558 222.616 279.117 223.614 280.078 223.885C282.038 224.483 285.792 225.286 286.321 222.454C286.473 220.968 286.473 219.471 286.321 217.985C286.272 216.123 286.203 214.261 286.076 212.409C286.076 211.57 285.396 210.89 284.557 210.89C283.718 210.89 283.038 211.57 283.038 212.409H283.048Z" fill="#382C80"/>
<path d="M279.226 204.334C277.736 202.874 275.178 201.159 272.983 201.453C272.215 201.476 271.546 201.984 271.317 202.717C271.117 203.474 271.44 204.272 272.111 204.677C273.013 205.073 273.956 205.369 274.923 205.559C275.819 205.837 276.699 206.164 277.56 206.539C278.902 207.117 280.441 205.559 279.226 204.373V204.334Z" fill="#382C80"/>
<path d="M289.427 209.783C290.921 209.729 292.405 209.522 293.857 209.165C294.588 209.033 295.181 208.5 295.39 207.787C295.598 207.074 295.386 206.304 294.841 205.799C294.297 205.294 293.513 205.141 292.818 205.402C291.508 205.658 290.228 206.045 288.996 206.559C288.219 206.795 287.723 207.555 287.82 208.362C287.923 209.172 288.611 209.78 289.427 209.783Z" fill="#382C80"/>
<path d="M273.081 211.164C272.9 210.972 272.793 210.722 272.777 210.459C272.777 210.459 272.865 210.057 272.777 210.224C272.689 210.39 272.885 209.998 272.865 210.018C272.944 209.911 273.036 209.816 273.14 209.734C273.248 209.655 273.316 209.577 273.14 209.734C273.032 209.812 273.532 209.606 273.404 209.616H273.306C273.032 209.616 273.689 209.616 273.591 209.616C273.493 209.616 273.326 209.616 273.698 209.616C274.139 209.668 274.528 209.926 274.747 210.312C274.649 210.155 274.933 210.812 274.884 210.625C274.835 210.439 274.884 210.998 274.884 210.978V210.9C274.884 210.714 274.757 211.449 274.884 211.204L274.953 210.959C275.021 210.723 274.776 211.311 274.835 211.233C274.862 211.186 274.885 211.137 274.904 211.086C274.965 211.017 275.017 210.942 275.061 210.861C275.061 210.861 274.688 211.272 274.874 211.106L274.982 210.998C275.149 210.792 274.59 211.272 274.747 211.174C274.904 211.076 274.835 211.174 274.845 211.115C274.855 211.057 274.296 211.311 274.531 211.262C274.394 211.249 274.257 211.249 274.12 211.262C274.218 211.262 274.316 211.262 273.963 211.262C273.741 211.243 273.529 211.157 273.355 211.017C273.052 210.782 273.218 210.91 273.287 211.017C273.355 211.125 272.983 210.557 273.14 210.841C273.169 210.902 273.201 210.961 273.238 211.017C273.375 211.253 273.091 210.576 273.169 210.861C273.179 210.905 273.196 210.948 273.218 210.988C273.297 211.125 273.218 210.733 273.218 210.714C273.218 210.694 273.316 210.253 273.218 210.439C273.12 210.625 273.404 210.028 273.316 210.243C273.296 210.286 273.269 210.326 273.238 210.361C273.238 210.361 273.561 210.008 273.355 210.184C273.355 210.184 273.718 209.91 273.551 210.018C273.385 210.126 273.502 210.018 273.659 210.018C273.754 209.96 273.862 209.93 273.973 209.93C274.296 209.93 274.139 209.93 274.051 209.93C274.273 209.927 274.493 209.981 274.688 210.086C274.688 210.086 275.041 210.39 274.914 210.253C274.786 210.116 275.188 210.625 275.051 210.449C275.051 210.449 274.982 210.341 274.992 210.331C275.002 210.322 275.188 210.812 275.1 210.547C275.1 210.478 275.1 210.282 275.1 210.616C275.1 210.723 275.1 210.949 275.1 210.616V210.469C275.1 210.204 275.1 210.665 275.1 210.704C275.141 210.441 275.167 210.176 275.178 209.91C275.151 209.07 274.591 208.34 273.787 208.097C272.966 207.896 272.109 208.244 271.66 208.959C271.038 210.037 271.069 211.371 271.738 212.419C272.524 213.693 274.173 214.124 275.482 213.399C276.646 212.725 277.228 211.365 276.913 210.057C276.694 209.2 276.167 208.453 275.433 207.96C274.796 207.617 274.046 207.552 273.36 207.78C272.674 208.008 272.112 208.509 271.807 209.165C271.17 210.371 271.062 212.105 272.385 212.899C273.184 213.33 274.155 213.289 274.914 212.791C275.574 212.392 276.013 211.71 276.103 210.944C276.193 210.178 275.924 209.412 275.374 208.871C274.722 208.229 273.674 208.229 273.022 208.871C272.405 209.534 272.405 210.561 273.022 211.223L273.081 211.164Z" fill="#382C80"/>
<path d="M290.731 213.046C290.694 212.983 290.661 212.917 290.633 212.85L290.799 213.252C290.771 213.183 290.751 213.11 290.741 213.036L290.799 213.487C290.79 213.426 290.79 213.363 290.799 213.301L290.741 213.752C290.736 213.706 290.736 213.66 290.741 213.615L290.564 214.026L290.643 213.899L290.368 214.261C290.409 214.202 290.459 214.149 290.515 214.105L290.153 214.389C290.232 214.33 290.317 214.281 290.407 214.242L289.976 214.428C290.101 214.373 290.233 214.336 290.368 214.32L289.888 214.389C290.063 214.359 290.242 214.359 290.417 214.389L289.927 214.32C290.015 214.333 290.1 214.356 290.182 214.389L289.741 214.203L289.878 214.281L289.496 213.987L289.594 214.075L289.3 213.693L289.359 213.811L289.173 213.36C289.177 213.392 289.177 213.425 289.173 213.458L289.104 212.958C289.114 213.007 289.114 213.056 289.104 213.105L289.173 212.605C289.164 212.69 289.14 212.773 289.104 212.85L289.3 212.39C289.229 212.543 289.141 212.688 289.035 212.821L289.329 212.439C289.272 212.505 289.21 212.568 289.143 212.625L289.535 212.331L289.349 212.429L289.81 212.233C289.722 212.27 289.63 212.294 289.535 212.301L290.055 212.233H289.77L290.29 212.301L290.084 212.243L290.554 212.439L290.368 212.341L290.77 212.644C290.469 212.379 290.115 212.182 289.731 212.066C289.164 211.911 288.556 212.035 288.095 212.399C287.622 212.744 287.345 213.295 287.35 213.879C287.359 214.684 287.806 215.421 288.516 215.8C288.956 216.057 289.457 216.189 289.966 216.182C290.959 216.166 291.877 215.65 292.407 214.81C293.046 213.956 293.13 212.808 292.622 211.87C291.691 210.263 289.133 210.381 288.006 211.704C287.593 212.157 287.363 212.747 287.36 213.36C287.381 214.016 287.65 214.64 288.114 215.104C288.707 215.685 289.636 215.741 290.294 215.235C290.952 214.73 291.138 213.818 290.731 213.095V213.046Z" fill="#382C80"/>
<path d="M245.2 310.292C246.26 301.885 247.897 293.562 250.1 285.38C250.851 283.173 251.203 280.85 251.139 278.52C250.806 275.09 248.816 274.6 246.69 272.64C239.536 266.104 243.563 254.363 237.38 246.964C233.891 242.799 229.344 239.33 227.129 234.361C226.815 233.468 226.365 232.629 225.796 231.872C223.993 229.853 220.72 230.481 218.211 231.5C212.233 233.93 199.542 238.624 203.971 246.553C208.669 254.961 213.644 263.196 218.897 271.258C219.367 271.984 219.945 272.768 220.798 272.875C221.866 273.022 222.758 272.042 223.346 271.16L227.393 265.516" fill="white"/>
<path d="M248.062 311.075C249.404 303.01 251.07 295.033 253.158 287.134C254.579 281.734 255.862 276.031 251.286 271.866C249.022 269.808 247.268 268.367 246.278 265.339C245.518 262.465 244.987 259.535 244.69 256.578C243.957 250.937 241.38 245.697 237.36 241.672C235.037 239.212 232.46 236.86 230.853 233.832C229.52 231.372 228.893 229.03 226.198 227.677C221.553 225.325 215.986 228.158 211.674 230.02C207.362 231.882 202.639 234.224 200.296 238.467C197.513 243.504 200.071 248.003 202.629 252.501C204.863 256.421 207.15 260.302 209.489 264.143C211.586 267.554 213.536 271.758 216.349 274.668C222.591 281.176 227.736 272.238 230.951 267.524C233.989 263.065 226.952 259.233 223.836 263.369C222.944 264.555 220.582 268.602 219.691 268.779L222.915 269.2C220.298 267.818 218.221 262.418 216.702 259.949C214.957 257.133 213.249 254.297 211.576 251.442C210.596 249.776 207.049 245.464 207.147 243.397C207.215 241.633 209.254 240.29 210.567 239.388C212.752 237.879 220.367 233.116 222.866 234.488C224.434 235.341 225.757 239.065 226.913 240.564C228.736 242.926 230.833 244.984 232.911 247.17C240.006 254.843 236.272 266.456 243.318 274.12C244.926 275.884 247.15 276.726 247.64 279.118C248.287 282.185 246.17 286.732 245.494 289.731C243.977 296.514 242.903 303.388 242.28 310.311C241.976 313.584 247.523 314.378 248.062 311.095V311.075Z" fill="#382C80"/>
<path d="M272.571 227.05C273.313 227.245 274.038 227.5 274.737 227.815C275.619 228.207 276.491 228.795 277.471 228.373C278.341 228.108 278.85 227.207 278.628 226.325C278.069 224.179 274.855 223.895 273.012 223.777C271.17 223.66 270.788 226.56 272.571 227.05Z" fill="#382C80"/>
<path d="M194.534 429.587C204.167 398.933 229.765 377.039 260.831 370.258C266.378 369.043 263.908 361.075 258.528 361.898C224.924 367.073 196.033 395.111 188.086 427.803C187.106 431.998 193.24 433.683 194.534 429.587Z" fill="#382C80"/>
<path d="M570.707 559.78C571.07 564.778 571.354 569.795 571.903 574.774C572.363 578.89 578.763 579.086 578.498 574.774C578.224 569.766 577.675 564.778 577.204 559.78C576.822 555.674 570.393 555.576 570.707 559.78Z" fill="#382C80"/>
<path d="M565.454 571.011C565.547 568.511 565.508 566.009 565.337 563.514C565.337 561.717 563.88 560.26 562.083 560.26C560.286 560.26 558.829 561.717 558.829 563.514C558.658 566.009 558.619 568.511 558.712 571.011C558.712 575.342 565.415 575.352 565.454 571.011Z" fill="#382C80"/>
<path d="M534.81 487.515C539.642 488.12 543.593 491.657 544.727 496.394C545.178 498.354 545.492 501.539 542.885 502.009C540.739 502.391 537.769 500.049 536.103 498.991C534.781 498.237 533.159 498.239 531.839 498.996C530.52 499.754 529.7 501.154 529.684 502.675C529.719 505.065 529.365 507.445 528.636 509.722C527.401 514.063 533.996 517.081 536.084 512.858C537.653 509.702 538.389 506.196 538.22 502.675L531.791 506.36C539.749 511.593 552.538 512.485 553.038 499.931C553.43 490.053 545.198 482.076 535.633 481.458C532.213 481.233 531.36 486.946 534.81 487.515Z" fill="#382C80"/>
<path d="M944.489 313.516C887.149 367.328 818.333 412.427 751.968 455.077C726.801 471.247 701.259 486.803 675.342 501.744C656.251 512.75 626.93 520.668 630.683 548.677C632.741 564.004 646.138 574.921 658.642 584.015C760.406 657.996 825.242 700.782 934.728 762.787" fill="#7F72FF"/>
<path d="M942.45 311.477C900.771 350.334 854.446 383.762 807.083 415.289C782.995 431.322 758.707 447.057 734.22 462.495C711.298 476.872 688.229 491.895 663.993 503.979C649.568 511.182 631.477 519.463 627.733 536.946C622.667 560.74 642.933 576.763 659.916 589.121C701.076 619.031 742.57 648.47 785.111 676.341C833.288 707.946 882.837 737.346 932.817 766.011C937.031 768.432 940.853 761.876 936.619 759.504C850.866 711.355 767.871 658.451 688.023 601.038C677.243 593.276 666.198 585.681 655.683 577.518C646.686 570.599 637.122 562.063 634.476 550.529C629.762 530.184 647.676 519.6 663.248 511.76C686.043 500.304 707.76 486.672 729.408 473.207C753.134 458.507 776.576 443.219 799.87 427.794C851.212 393.827 901.584 357.792 946.527 315.564C949.242 313.016 945.165 308.959 942.45 311.487V311.477Z" fill="#7F72FF"/>
<path d="M639.258 586.103C631.016 584.505 624.94 577.44 620.893 570.099C611.975 553.929 610.025 532.918 619.913 517.356C622.483 513.081 626.147 509.57 630.526 507.183C635.318 504.753 644.971 502.96 645.883 510.31C646.363 514.23 644.658 519.13 644.227 523.05C643.766 527.283 643.423 531.527 643.247 535.79C642.406 553.105 643.753 570.457 647.255 587.436" fill="white"/>
<path d="M646.755 506.654C641.623 533.338 641.803 560.772 647.284 587.387L646.755 506.654Z" fill="white"/>
<path d="M643.972 505.88C641.247 519.6 638.68 532.948 638.592 547.04C638.494 560.554 638.925 575.578 642.943 588.572C644.374 593.188 652.312 592.639 651.763 587.377C650.45 574.157 647.843 561.319 647.49 547.961C647.137 534.604 647.167 520.521 649.519 507.409C650.165 503.793 644.677 502.215 643.952 505.87L643.972 505.88Z" fill="#382C80"/>
<path d="M693.599 477.205C756.41 424.599 819.13 371.878 881.759 319.043C899.399 304.088 917.264 289.271 934.787 274.12C938.246 271.131 933.248 266.28 929.799 269.141C866.863 321.464 804.819 374.981 742.717 428.323C725.155 443.405 707.711 458.634 690.149 473.707C687.719 475.794 691.227 479.224 693.638 477.205H693.599Z" fill="#7F72FF"/>
<path d="M957.964 245.621C961.579 246.507 965.391 245.384 967.95 242.681C971.086 239.487 966.333 234.773 963.05 237.781C962.792 238.044 962.486 238.253 962.148 238.399C962.374 238.281 961.492 238.614 961.315 238.654C961.051 238.712 961.139 238.693 961.315 238.654C961.048 238.668 960.78 238.668 960.512 238.654C959.984 238.637 959.457 238.591 958.934 238.516C957.199 238.291 955.622 240.045 955.435 241.613C955.196 243.374 956.285 245.043 957.993 245.533L957.964 245.621Z" fill="#7F72FF"/>
<path d="M663.307 623.901C693.295 649.381 723.42 674.705 753.261 700.341C783.102 725.978 812.277 752.546 842.5 777.761C846.107 780.77 851.32 775.801 847.743 772.518C819 745.706 788.483 720.578 758.436 695.196C728.389 669.814 698.029 644.579 667.178 620.06C664.473 617.914 660.593 621.618 663.258 623.921L663.307 623.901Z" fill="#7F72FF"/>
<path d="M876.075 800.497C880.191 800.497 880.201 794.088 876.075 794.088C871.949 794.088 871.939 800.497 876.075 800.497Z" fill="#7F72FF"/>
<path d="M681.3 560.241C703.919 571.256 726.38 582.653 748.92 593.727C771.078 604.605 793.099 616.797 816.138 625.695C819.774 627.096 821.95 621.422 818.745 619.531C797.46 606.997 774.165 597.363 751.88 586.76C729.438 576.087 706.8 565.729 684.426 554.998C680.918 553.322 677.831 558.526 681.359 560.241H681.3Z" fill="white"/>
<path d="M844.362 651.841H846.538C847.551 651.829 848.521 651.426 849.243 650.714C849.958 649.996 850.36 649.023 850.36 648.01C850.313 645.917 848.631 644.23 846.538 644.178H844.362C843.349 644.19 842.38 644.594 841.658 645.305C840.556 646.397 840.223 648.047 840.816 649.481C841.41 650.914 842.811 651.847 844.362 651.841Z" fill="white"/>
<path d="M703.624 541.219C712.855 542.727 722.176 543.611 731.525 543.865C735.719 543.973 735.739 537.328 731.525 537.328C722.452 537.341 713.39 536.738 704.399 535.525C701.194 535.094 700.4 540.699 703.624 541.219Z" fill="white"/>
<path d="M699.763 510.898L705.202 508.771C706.772 508.293 707.694 506.67 707.299 505.076C706.907 503.655 705.114 502.362 703.605 502.979L698.185 505.194C696.642 505.667 695.735 507.261 696.118 508.83C696.321 509.591 696.822 510.239 697.507 510.627C698.193 511.016 699.005 511.113 699.763 510.898Z" fill="white"/>
<path d="M807.72 456.125C829.476 445.767 851.134 435.016 871.861 422.707C875.124 420.747 872.204 415.779 868.921 417.621C847.822 429.322 826.781 441.014 805.025 451.461C801.889 452.97 804.633 457.615 807.749 456.125H807.72Z" fill="white"/>
<path d="M908.376 404.94C912.521 404.94 912.531 398.492 908.376 398.492C904.221 398.492 904.231 404.94 908.376 404.94Z" fill="white"/>
</svg>
