<svg width="1000" height="1000" viewBox="0 0 1000 1000" fill="none" xmlns="http://www.w3.org/2000/svg">
<path d="M335.36 287.624C324.737 288.428 314.182 289.8 303.52 289.908C300.129 289.908 298.718 290.701 299.041 286.742C299.463 281.45 303.54 280.617 308.106 280.264C314.966 279.716 321.915 280.656 328.824 280.264C339.858 279.598 350.883 278.736 361.889 277.765C383.272 275.897 404.597 273.522 425.863 270.641C436.362 269.23 446.838 267.694 457.292 266.035C462.682 265.192 468.065 264.31 473.442 263.389C477.176 262.762 483.291 260.302 486.76 262.546C489.475 264.29 490.063 268.289 489.24 271.19C488.142 275.11 484.595 276.942 480.988 278.05C473.315 280.421 464.965 279.745 457.047 279.784C452.578 279.784 452.568 286.713 457.047 286.732C470.228 286.791 496.384 287.977 496.247 268.602C496.247 261.791 491.474 255.235 484.271 255.059C478.626 254.931 472.462 256.901 466.935 257.842C459.663 259.077 452.382 260.256 445.091 261.38C417.455 265.62 389.714 269.047 361.869 271.66C349.227 272.856 336.291 274.6 323.581 274.6C315.946 274.6 306.382 273.003 299.296 276.678C294.083 279.382 290.035 291.378 296.846 294.572C300.698 296.366 307.009 295.072 310.978 294.808C319.122 294.269 327.216 293.181 335.341 292.475C338.428 292.201 338.486 287.36 335.341 287.575L335.36 287.624Z" fill="#382C80"/>
<path d="M486.584 260.958C493.091 263.369 500.059 264.614 506.84 266.045L505.096 259.43C500.811 263.71 495.758 267.145 490.2 269.553L496.149 274.12C497.129 271.072 498.216 268.132 498.471 264.927C498.775 261.223 493.571 260.282 491.797 263.114C490.024 265.947 489.347 268.994 488.338 271.934C487.074 275.649 491.347 277.814 494.287 276.501C500.46 273.801 506.026 269.885 510.653 264.986C512.554 263.026 511.956 258.93 508.908 258.381C501.793 257.097 494.541 255.549 487.299 255.323C483.918 255.225 483.683 259.851 486.545 260.919L486.584 260.958Z" fill="#382C80"/>
<path d="M756.074 258.234C777.634 243.318 796.254 224.522 816.54 207.931C833.56 193.994 852.44 182.499 872.635 173.778C885.042 168.486 914.325 168.201 924.213 178.629C925.859 180.363 926.584 182.745 927.3 185.028C935.012 209.891 943.842 232.921 950.163 258.254C956.543 283.832 961.61 309.782 963.952 336.066C970.812 413.201 954.152 491.18 924.752 562.818C908.445 602.518 889.08 627.939 843.167 624.636C764.767 618.992 685.387 613.043 611.299 586.789C598.03 582.085 582.938 574.166 581.595 560.143C581.252 556.526 581.477 552.009 578.273 550.284C576.381 549.304 574.049 549.784 571.942 549.304C565.876 547.971 564.582 540.004 564.602 533.79C559.702 531.164 554.674 528.283 551.421 523.755C546.717 517.199 540.847 505.302 548.667 498.824C551.725 496.286 555.792 495.472 559.525 494.11C569.325 490.523 577.038 482.938 583.927 475.118C605.35 450.75 621.597 422.283 631.683 391.445" fill="#7F72FF"/>
<path d="M757.407 260.527C786.385 240.555 810.454 214.33 840.06 195.22C847.369 190.49 854.937 186.171 862.727 182.284C868.803 179.256 874.899 176.218 881.602 174.914C892.676 172.758 906.68 172.67 916.99 177.854C924.134 181.441 924.938 189.546 927.221 196.563C930.034 205.206 932.964 213.811 935.806 222.444C941.48 239.692 946.419 257.087 950.408 274.806C958.552 311.066 962.903 347.786 961.658 384.938C960.443 421.198 954.475 457.184 944.998 492.18C940.235 509.741 934.636 527.054 928.201 544.12C923.036 557.84 917.686 571.697 910.394 584.476C904.808 594.276 897.87 603.713 888.56 610.319C879.25 616.924 867.98 620.364 856.445 621.099C839.717 622.079 822.439 619.472 805.77 618.159C787.806 616.718 769.853 615.091 751.948 613.043C715.453 608.878 679.075 602.861 643.658 592.982C628.409 588.729 611.426 584.78 597.863 576.322C592.218 572.804 586.887 567.855 585.72 561.005C584.789 555.576 585.456 549.118 579.35 546.56C575.969 545.149 572.147 546.707 570.129 543.002C568.678 540.337 568.639 536.868 568.61 533.918C568.613 532.502 567.868 531.19 566.65 530.468C559.917 526.832 554.89 523.03 551.411 516.101C549.98 513.259 548.471 509.692 548.941 506.429C549.48 502.381 552.861 500.804 556.369 499.569C563.043 497.158 568.884 494.669 574.49 490.19C580.321 485.565 585.27 480.008 590.111 474.334C610.499 450.374 625.916 422.597 635.465 392.621C636.965 387.819 629.585 385.879 627.978 390.554C616.718 422.894 599.352 455.116 574.637 479.273C568.882 484.955 561.898 489.237 554.223 491.788C547.677 494.091 541.973 497.873 541.042 505.263C539.239 519.473 551.322 531.311 562.602 537.387L560.642 533.937C560.711 539.817 561.514 546.746 566.238 550.872C568.835 553.145 571.334 552.832 574.411 553.665C578.694 554.831 577.351 560.231 578.223 563.886C581.301 577.459 595.256 584.937 607.153 589.552C642.58 603.272 680.829 610.848 718.295 616.375C756.387 621.99 794.735 625.048 833.17 627.812C847.596 628.85 861.982 629.772 875.928 625.087C886.908 621.374 896.712 614.825 904.348 606.105C912.697 596.677 918.842 585.525 924.016 574.127C931.188 558.005 937.511 541.518 942.96 524.735C954.984 488.475 963.452 451.059 967.176 413.015C970.905 374.603 969.336 335.86 962.511 297.875C959.076 278.217 954.521 258.772 948.869 239.634C943.391 221.298 936.894 203.295 931.151 185.048C929.191 178.962 926.486 174.65 920.684 171.72C915.265 168.985 909.238 167.8 903.24 167.123C890.603 165.63 877.798 167.616 866.206 172.866C849.744 180.434 834.201 189.861 819.882 200.963C805.182 212.292 791.844 225.247 777.918 237.458C770.562 244.071 762.858 250.286 754.839 256.078C752.075 258.038 754.682 262.615 757.514 260.664L757.407 260.527Z" fill="#382C80"/>
<path d="M850.566 217.76C847.452 265.711 839.667 313.245 827.32 359.684L796.695 475.941C795.333 481.115 793.559 486.829 788.855 489.445C786.15 490.964 782.975 491.141 779.829 491.278C723.812 493.64 667.129 491.572 612.181 479.596C585.065 473.839 558.632 465.24 533.32 453.94C526.558 450.882 472.129 421.855 471.257 422.845C543.198 341.367 589.837 242.044 613.082 136.371C613.905 132.637 614.846 128.678 617.61 126.042C622.382 121.465 630.085 122.857 636.494 124.513C717.126 145.352 799.366 159.376 882.347 166.437C913.54 300.394 890.393 439.857 812.189 553.851C810.915 555.713 809.553 557.624 807.573 558.692C805.593 559.76 803.016 559.78 800.654 559.78C714.653 559.192 629.67 541.121 550.872 506.664C548.804 505.762 546.511 504.596 545.864 502.421C545.129 499.951 546.903 497.521 548.569 495.512L571.893 467.787" fill="white"/>
<path d="M848.135 217.76C844.954 264.84 837.292 311.51 825.252 357.136C819.156 380.244 812.943 403.323 806.789 426.412C803.712 437.976 800.641 449.537 797.577 461.094C796.166 466.425 794.862 471.805 793.314 477.107C791.677 482.752 789.394 487.309 782.985 488.113C771.47 489.563 759.298 489.024 747.705 489.093C736.111 489.161 724.332 489.034 712.65 488.603C688.63 487.796 664.681 485.538 640.934 481.841C602.557 475.725 563.298 465.769 528.547 447.962C516.719 441.906 504.968 435.702 493.15 429.646C488.093 427.059 483.046 424.452 477.911 422.021C475.5 420.885 472.315 418.719 469.61 419.993L473.53 425.069C522.324 369.738 560.191 305.578 586.622 236.772C593.325 219.328 599.3 201.632 604.546 183.685C607.094 174.963 609.479 166.192 611.7 157.372C612.837 152.825 613.944 148.268 614.993 143.652C615.973 139.448 616.394 134.333 618.541 130.53C623.441 121.887 638.65 128.639 645.696 130.413C655.856 132.987 666.048 135.45 676.272 137.802C697.316 142.656 718.461 147.05 739.708 150.983C786.905 159.718 834.448 166.163 882.337 170.318L878.495 167.378C898.399 254.04 895.949 345.238 868.568 430.018C854.803 472.746 834.971 513.275 809.68 550.362C808.259 552.44 807.063 554.606 804.564 555.39C802.242 556.115 799.488 555.703 797.077 555.674C790.446 555.595 783.811 555.409 777.173 555.115C765.113 554.586 753.075 553.711 741.06 552.489C716.798 550.012 692.701 546.118 668.893 540.827C642.367 534.948 616.245 527.373 590.689 518.15C578.018 513.573 565.209 508.879 552.979 503.146C548.294 500.941 551.303 498.599 553.959 495.433L560.044 488.083C564.944 482.203 569.727 476.323 574.637 470.443C577.724 466.778 572.451 461.447 569.345 465.141C564.846 470.492 560.26 475.765 555.713 481.076C551.636 485.839 546.413 490.572 543.267 496.041C536.593 507.644 553.067 512.044 560.711 515.239C584.662 525.211 609.21 533.688 634.211 540.621C684.369 554.533 736.038 562.27 788.071 563.661C793.627 563.808 799.498 564.415 805.015 563.661C810.023 562.936 813.002 559.907 815.795 555.919C822.89 545.844 829.368 535.28 835.522 524.618C870.809 463.347 892.138 395.043 897.988 324.58C902.44 271.221 898.472 217.495 886.228 165.369C885.723 163.654 884.164 162.464 882.376 162.429C838.407 158.725 794.653 153.096 751.115 145.544C729.829 141.839 708.635 137.665 687.533 133.019C676.975 130.694 666.45 128.26 655.957 125.718C646.686 123.464 636.798 119.633 627.184 119.427C619.442 119.25 613.582 123.21 611.024 130.53C607.957 139.291 606.683 148.964 604.399 157.97C599.826 176.107 594.514 194.041 588.464 211.772C576.285 247.577 560.984 282.242 542.738 315.368C522.016 352.981 497.281 388.238 468.963 420.522C467.89 421.689 467.814 423.458 468.783 424.713C469.752 425.967 471.483 426.341 472.883 425.598C469.051 427.411 470.443 425.324 471.423 426.167C471.759 426.386 472.13 426.545 472.521 426.637C474.245 427.372 475.911 428.215 477.597 429.038C482.615 431.488 487.583 434.026 492.552 436.565C503.4 442.121 514.18 447.776 525.029 453.323C560.436 471.404 600.215 481.635 639.307 487.799C662.675 491.426 686.235 493.681 709.867 494.551C733.602 495.531 757.75 495.855 781.466 494.159C790.403 493.522 795.607 489.102 798.429 480.655C802.124 469.61 804.505 457.978 807.455 446.717C813.688 422.956 819.895 399.184 826.075 375.403C839.619 323.531 849.595 271.356 853.045 217.77C853.251 214.634 848.38 214.653 848.145 217.77L848.135 217.76Z" fill="#382C80"/>
<path d="M917.852 231.735C937.132 310.633 935.313 393.215 912.58 471.188C906.112 493.297 897.684 514.602 888.413 535.672C886.727 539.484 892.215 542.885 894.126 539.004C912.207 502.313 923.938 462.005 930.69 421.737C937.541 381.175 938.961 339.881 934.914 298.943C932.532 275.843 928.374 252.961 922.478 230.5C921.694 227.511 917.117 228.775 917.852 231.774V231.735Z" fill="#382C80"/>
<path d="M867.5 568.218L867.206 570.178C867.069 570.606 867.049 571.062 867.147 571.501C867.165 571.94 867.3 572.367 867.539 572.736C868.212 573.893 869.514 574.533 870.841 574.359C872.168 574.186 873.262 573.233 873.615 571.942L874.223 570.119C874.471 569.211 874.347 568.241 873.88 567.424C873.411 566.647 872.665 566.076 871.792 565.827C870.886 565.581 869.919 565.708 869.107 566.179C868.313 566.626 867.733 567.376 867.5 568.257V568.218Z" fill="#382C80"/>
<path d="M869.185 617.277C864.762 617.002 861.062 613.818 860.13 609.486C859.327 605.566 860.356 601.646 859.023 597.726C856.935 591.708 851.3 588.455 845.92 585.76C842.118 583.859 838.766 589.601 842.578 591.473C845.989 593.149 850.262 595.021 852.378 598.333C854.838 602.253 853.26 607.388 854.544 611.671C856.504 618.178 862.6 622.216 869.244 622.451C872.645 622.569 872.557 617.551 869.244 617.218L869.185 617.277Z" fill="#382C80"/>
<path d="M832.475 578.106C836.15 578.106 836.159 572.393 832.475 572.393C828.79 572.393 828.79 578.106 832.475 578.106Z" fill="#382C80"/>
<path d="M794.147 585.691C731.907 586.073 670.667 571.883 614.503 545.247C611.112 543.639 608.123 548.647 611.563 550.323C668.04 578.116 731.319 591.63 794.176 590.503C797.253 590.454 797.273 585.691 794.176 585.711L794.147 585.691Z" fill="#382C80"/>
<path d="M849.723 216.457C840.197 305.96 830.387 396.649 798.194 480.704C796.881 484.134 795.411 487.711 792.559 490.024C789.071 492.856 784.239 493.218 779.751 493.463C724.773 496.403 669.462 499.343 614.817 492.64C560.172 485.937 505.674 469.12 461.672 436.065C463.907 437.741 505.41 376.206 508.957 370.454C523.446 346.978 536.219 322.486 547.177 297.169C560.035 267.426 568.796 236.184 577.057 204.922C581.35 188.693 585.505 172.425 590.101 156.275C593.227 145.25 595.648 124.689 609.28 121.259C614.121 120.034 869.754 164.624 874.664 165.536" fill="white"/>
<path d="M847.184 216.457C838.178 296.905 828.643 378.509 802.83 455.577C799.772 464.73 797.185 475.265 792.344 483.654C789.874 487.946 785.885 488.769 781.26 489.122C775.968 489.524 770.656 489.671 765.354 489.945C744.235 491.004 723.107 491.905 701.958 492.229C660.906 492.826 619.56 490.955 579.301 482.37C537.896 473.55 497.961 457.772 463.848 432.331L459.506 439.75C465.22 442.258 469.728 434.046 472.55 430.351C478.695 422.306 484.506 413.995 490.268 405.675C501.891 388.907 513.289 372.12 523.324 354.352C543.28 319.094 559.182 281.692 570.726 242.858C576.606 223.199 581.604 203.315 586.828 183.489C589.376 173.827 592.237 164.232 594.668 154.55C596.157 148.67 597.333 142.633 599.568 136.969C600.624 134.093 602.158 131.416 604.105 129.05C605.022 127.984 606.1 127.068 607.3 126.336C608.28 125.787 611.279 125.209 609.338 125.248C610.082 125.258 610.825 125.307 611.563 125.395C615.258 125.758 617.845 126.208 622.235 126.865C636.935 129.07 651.635 131.5 666.335 133.921C707.495 140.729 748.655 147.713 789.815 154.873C817.128 159.577 844.401 164.585 871.773 168.966L872.802 169.113C874.399 169.377 871.822 169.034 872.9 169.113C873.115 169.113 873.341 169.191 873.556 169.23C878.456 170.122 880.534 162.645 875.614 161.743C852.702 157.529 829.731 153.59 806.769 149.621C765.256 142.434 723.73 135.362 682.192 128.404C665.835 125.669 649.469 122.955 633.084 120.397C627.968 119.593 622.853 118.809 617.727 118.094C615.101 117.731 612.18 117.026 609.505 117.114C598.725 117.633 592.933 130.53 590.238 139.242C585.221 155.51 581.35 172.298 577.018 188.772C566.542 228.609 555.909 268.357 538.7 305.931C526.991 331.755 513.168 356.568 497.373 380.117C486.309 396.473 475.441 413.299 462.975 428.627C462.221 429.558 461.447 430.479 460.643 431.361C458.438 433.791 460.339 430.753 463.799 432.262C458.712 430.038 454.979 436.359 459.457 439.681C525.47 488.995 610.073 501.098 690.394 500.941C712.503 500.892 734.592 499.961 756.672 498.844C766.736 498.324 777.732 498.844 787.6 496.688C796.42 494.728 799.86 487.868 802.8 480.028C817.628 440.514 827.477 399.325 834.748 357.792C842.961 310.938 847.429 263.712 852.202 216.388C852.535 213.134 847.498 213.193 847.135 216.388L847.184 216.457Z" fill="#382C80"/>
<path d="M785.817 133.725C782.044 118.29 758.779 121.269 750.537 130.726C739.59 143.241 741.325 163.968 750.115 177.1C752.595 180.804 758.328 177.541 756.133 173.582C750.439 163.301 747.254 149.817 752.997 138.811C755.131 134.384 759 131.036 763.688 129.56C769.323 127.963 778.996 128.266 780.799 135.097C781.652 138.341 786.611 136.969 785.817 133.715V133.725Z" fill="#382C80"/>
<path d="M726.586 127.326C722.509 122.759 718.119 118.427 711.651 118.104C706.372 117.896 701.206 119.668 697.166 123.072C685.916 132.402 687.68 147.514 692.041 159.881C693.491 163.987 699.881 162.331 698.636 158.068C695.863 148.895 692.942 137.586 699.93 129.521C702.543 126.46 706.266 124.563 710.279 124.248C715.776 123.905 719.324 127.404 722.754 131.108C725.116 133.696 728.899 129.864 726.586 127.277V127.326Z" fill="#382C80"/>
<path d="M669.383 113.223C661.083 103.757 649.166 109.784 642.57 118.123C634.828 127.923 633.75 141.918 640.816 152.316C643.276 155.922 649.166 152.551 646.696 148.866C641.804 141.371 641.572 131.754 646.098 124.033C650.018 117.349 658.78 109.333 665.698 116.928C667.972 119.417 671.578 115.752 669.373 113.253L669.383 113.223Z" fill="#382C80"/>
<path d="M820.019 258.607C762.964 254.54 705.712 248.562 649.499 238.027C634.662 235.243 619.972 231.872 605.282 228.442C601.705 227.599 600.205 232.931 603.763 233.95C630.683 241.692 658.8 245.955 686.494 249.904C715.581 254.059 744.804 257.205 774.087 259.704C789.407 261.011 804.731 262.128 820.059 263.056C822.901 263.232 822.881 258.852 820.059 258.646L820.019 258.607Z" fill="#7F72FF"/>
<path d="M804.467 330.852C744.51 322.267 683.897 318.7 624.362 306.94C609.662 304.069 595.178 300.55 580.801 296.483C577.361 295.503 576.107 300.541 579.351 301.756C605.919 311.752 635.113 315.662 663.072 319.7C694.726 324.266 726.537 327.667 758.338 331.077C773.479 332.704 788.63 334.311 803.751 336.085C806.691 336.428 807.465 331.244 804.467 330.813V330.852Z" fill="#7F72FF"/>
<path d="M785.749 404.666C755.369 404.724 724.989 401.971 694.844 398.629C659.77 394.709 624.715 389.681 590.199 382.263C575.107 379.019 559.966 375.354 545.423 370.111C541.846 368.817 540.337 374.472 543.855 375.785C572.54 386.428 603.469 391.553 633.584 396.218C668.374 401.608 703.429 405.548 738.542 407.978C754.222 409.066 770 409.879 785.749 409.781C789.041 409.781 789.041 404.656 785.749 404.666Z" fill="#7F72FF"/>
<path d="M787.346 217.76C774.047 248.689 766.305 282.097 757.769 314.564C749.175 347.277 740.433 380.117 727.389 411.398C719.905 429.056 711.038 446.096 700.871 462.358C698.646 465.974 704.085 468.963 706.466 465.631C726.066 438.338 738.375 406.106 748.332 374.246C758.495 341.73 766.05 308.479 775.145 275.658C780.339 256.872 786.434 238.418 792.618 219.985C793.598 216.937 788.639 214.732 787.336 217.76H787.346Z" fill="#7F72FF"/>
<path d="M716.815 206.911C700.734 275.041 678.497 341.563 647.814 404.538C639.111 422.394 629.684 439.877 620.276 457.36C618.316 460.927 623.598 464.005 625.705 460.535C643.962 430.596 659.182 398.688 672.813 366.406C686.543 334.068 698.215 300.894 707.76 267.083C713.196 247.653 717.799 228.03 721.568 208.215C722.156 205.157 717.58 203.815 716.845 206.911H716.815Z" fill="#7F72FF"/>
<path d="M653.488 192.388C637.406 260.508 615.17 327.04 584.486 390.015C575.784 407.87 566.356 425.353 556.948 442.837C554.988 446.404 560.27 449.481 562.377 446.012C580.635 416.073 595.864 384.164 609.486 351.873C623.207 319.538 634.869 286.367 644.403 252.56C649.839 233.13 654.445 213.507 658.221 193.691C658.799 190.634 654.223 189.291 653.488 192.388Z" fill="#7F72FF"/>
<path d="M676.106 290.045C671.275 277.956 664.363 266.808 655.683 257.107C653.125 254.334 649.273 258.371 651.596 261.194C659.486 270.565 665.991 281.021 670.912 292.24C672.166 295.18 677.35 293.034 676.106 290.045Z" fill="#382C80"/>
<path d="M675.782 264.486C668.56 271.562 661.239 278.52 654.085 285.684C651.224 288.545 655.673 292.995 658.534 290.123C665.688 282.979 672.656 275.658 679.732 268.436C682.25 265.858 678.36 261.968 675.812 264.516L675.782 264.486Z" fill="#382C80"/>
<path d="M684.867 455.831C682.584 442.582 676.665 429.685 666.855 420.316C664.189 417.778 660.563 421.561 662.866 424.305C671.059 434.105 677.057 444.718 679.595 457.292C680.301 460.771 685.475 459.252 684.867 455.831Z" fill="#382C80"/>
<path d="M687.043 428.715C678.927 436.573 669.994 443.541 660.397 449.501C656.8 451.794 660.024 457.341 663.748 455.234C673.936 449.167 683.18 441.643 691.188 432.899C693.785 430.126 689.718 426.039 687.004 428.715H687.043Z" fill="#382C80"/>
<path d="M852.496 149.209C851.634 139.35 845.234 130.824 835.326 128.551C825.419 126.277 815.08 131.177 808.318 138.184C795.137 151.826 800.272 172.112 812.826 184.136C816.226 187.39 821.224 182.382 817.99 178.972C809.935 170.475 804.064 157.48 810.915 146.475C814.452 140.771 821.538 135.871 828.202 134.823C837.394 133.382 845.558 140.164 846.616 149.209C847.047 152.894 852.839 153.021 852.496 149.209Z" fill="#382C80"/>
<path d="M644.746 152.933C645.138 152.786 645.295 152.698 645.609 152.796C645.716 152.796 645.873 153.011 645.844 152.972C646.02 153.266 646.059 153.609 645.981 153.59C645.903 153.57 645.981 153.893 645.981 153.492C645.981 153.237 645.628 154.011 645.912 153.629C646.197 153.247 645.805 153.903 645.716 153.766C645.628 153.629 646.108 153.678 646.128 153.688C645.295 153.55 646.187 153.688 646.373 153.903C646.524 154.212 646.524 154.574 646.373 154.883C646.314 154.991 645.991 155.207 645.991 155.256C645.991 155.305 646.363 155.256 646.647 155.109C648.118 154.671 649.198 153.414 649.411 151.894C649.646 150.354 648.916 148.826 647.569 148.043C645.196 146.911 642.363 147.442 640.562 149.356C638.856 151.061 638.139 153.519 638.66 155.873C639.24 158.048 640.769 159.845 642.822 160.766C644.876 161.686 647.236 161.631 649.244 160.616C651.14 159.653 652.563 157.962 653.188 155.929C653.812 153.897 653.585 151.698 652.557 149.836C651.579 148.107 649.924 146.865 647.991 146.409C646.057 145.954 644.022 146.325 642.375 147.435C641.125 148.207 640.615 149.769 641.169 151.13C641.738 152.495 643.232 153.225 644.658 152.835L644.746 152.933Z" fill="#382C80"/>
<path d="M694.128 161.067C694.52 160.92 694.677 160.832 694.991 160.93C695.098 160.93 695.255 161.145 695.226 161.106C695.402 161.4 695.441 161.743 695.363 161.724C695.285 161.704 695.363 162.027 695.363 161.626C695.363 161.371 695.01 162.145 695.294 161.763C695.579 161.381 695.187 162.037 695.098 161.9C695.01 161.763 695.49 161.812 695.52 161.822C694.677 161.684 695.569 161.822 695.755 162.037C695.922 162.36 695.922 162.744 695.755 163.066C695.696 163.174 695.383 163.39 695.373 163.439C695.363 163.488 695.745 163.439 696.029 163.292C697.504 162.857 698.589 161.6 698.803 160.077C699.028 158.536 698.295 157.012 696.951 156.226C694.578 155.094 691.745 155.625 689.944 157.539C688.275 159.264 687.603 161.722 688.16 164.056C688.747 166.218 690.275 168.001 692.321 168.913C694.367 169.825 696.715 169.769 698.715 168.76C700.597 167.797 702.011 166.114 702.634 164.093C703.258 162.073 703.039 159.886 702.027 158.029C701.051 156.301 699.398 155.059 697.466 154.603C695.535 154.147 693.5 154.519 691.855 155.628C690.598 156.394 690.083 157.96 690.639 159.323C691.208 160.687 692.702 161.418 694.128 161.028V161.067Z" fill="#382C80"/>
<path d="M753.967 174.434C754.369 174.287 754.516 174.199 754.83 174.297C754.937 174.297 755.094 174.503 755.075 174.473C755.251 174.758 755.28 175.101 755.212 175.081C755.143 175.061 755.212 175.395 755.261 174.983C755.261 174.728 754.898 175.502 755.182 175.12C755.467 174.738 755.075 175.395 754.986 175.257C754.898 175.12 755.378 175.179 755.408 175.179C754.565 175.042 755.408 175.179 755.643 175.395C755.794 175.704 755.794 176.065 755.643 176.375C755.584 176.492 755.271 176.708 755.261 176.757C755.251 176.806 755.633 176.757 755.917 176.61C757.392 176.175 758.477 174.918 758.691 173.395C758.916 171.854 758.183 170.33 756.839 169.544C754.467 168.405 751.63 168.937 749.832 170.857C748.121 172.559 747.407 175.021 747.94 177.374C748.52 179.546 750.048 181.341 752.099 182.262C754.15 183.182 756.507 183.129 758.514 182.117C760.41 181.154 761.834 179.463 762.458 177.43C763.083 175.398 762.855 173.199 761.827 171.337C760.851 169.609 759.198 168.367 757.266 167.911C755.334 167.455 753.3 167.827 751.654 168.936C750.402 169.702 749.888 171.261 750.439 172.621C751.004 173.99 752.499 174.725 753.928 174.336L753.967 174.434Z" fill="#382C80"/>
<path d="M813.806 184.891C814.208 184.744 814.355 184.656 814.668 184.754C814.776 184.754 814.933 184.959 814.913 184.93C815.09 185.214 815.119 185.557 815.05 185.538C814.982 185.518 815.05 185.851 815.05 185.44C815.05 185.195 814.688 185.959 814.982 185.577C815.276 185.195 814.874 185.851 814.786 185.714C814.698 185.577 815.168 185.636 815.197 185.636C814.355 185.508 815.246 185.636 815.442 185.851C815.61 186.174 815.61 186.558 815.442 186.88C815.384 186.998 815.06 187.213 815.05 187.262C815.041 187.311 815.433 187.262 815.707 187.115C817.182 186.681 818.266 185.424 818.48 183.901C818.707 182.362 817.979 180.839 816.638 180.05C814.263 178.909 811.423 179.441 809.621 181.363C807.911 183.065 807.196 185.527 807.73 187.88C808.31 190.052 809.837 191.847 811.888 192.767C813.94 193.687 816.296 193.634 818.304 192.623C820.186 191.66 821.6 189.977 822.224 187.956C822.847 185.936 822.628 183.749 821.616 181.892C820.633 180.195 818.993 178.981 817.083 178.535C815.173 178.09 813.165 178.453 811.532 179.54C810.263 180.292 809.747 181.868 810.327 183.225C810.891 184.589 812.38 185.323 813.806 184.94V184.891Z" fill="#382C80"/>
<path d="M156.344 371.62C129.276 378.206 104.796 392.122 83.6275 410.036C72.8636 419.181 62.885 429.212 53.7963 440.024C44.7313 450.706 36.0583 462.76 32.7557 476.666C26.5033 502.881 45.4957 525.245 70.3877 530.988C78.2277 532.791 86.2539 532.595 94.2409 532.389C101.767 532.203 110.901 531.331 117.898 534.79C126.885 539.259 126.022 552.499 131.069 560.094C137.096 569.168 148.19 569.051 156.353 562.906C168.456 553.773 168.309 539.004 166.957 525.196C166.585 521.364 160.607 521.276 160.891 525.196C161.714 536.897 162.851 550.754 151.992 558.3C149.052 560.329 145.27 561.858 141.702 560.868C136.528 559.437 134.597 553.753 133.098 549.176C130.668 541.777 128.953 533.712 121.554 529.645C110.303 523.471 95.3875 526.705 83.1963 526.293C58.1279 525.539 32.4911 506.693 38.5083 479.087C41.3699 465.945 49.5725 454.401 58.1083 444.267C66.1609 434.636 74.9132 425.612 84.2939 417.268C105.462 398.521 130.354 383.997 157.951 377.265C161.645 376.363 160.077 370.669 156.373 371.571L156.344 371.62Z" fill="#382C80"/>
<path d="M110.166 489.132C118.379 479.322 128.046 470.828 138.831 463.946C142.496 461.594 139.115 455.733 135.411 458.066C123.933 465.412 113.852 474.74 105.638 485.614C103.678 488.201 108.069 491.631 110.166 489.112V489.132Z" fill="#382C80"/>
<path d="M228.363 563.759C250.6 591.659 265.603 624.323 269.631 657.466C273.659 690.61 266.564 724.106 248.159 751.017C232.842 773.381 210.439 790.384 186.155 804.212C174.081 811.072 161.469 817.226 148.699 823.057C138.899 827.516 120.926 831.799 115.516 840.873C112.037 846.695 113.556 854.27 115.859 861.032C118.162 867.794 121.014 874.752 119.936 881.524C119.857 882.351 119.56 883.143 119.074 883.817C118.318 884.586 117.342 885.103 116.281 885.297C111.75 886.379 106.981 885.783 102.855 883.621C98.4155 881.308 95.1227 877.467 92.0749 873.723C72.4749 850.027 55.4523 822.832 50.1309 793.912C49.6601 792.226 49.6601 790.443 50.1309 788.757C50.9149 786.738 52.9729 785.474 54.9329 784.337C84.3329 767.354 115.134 752.762 143.456 733.975C153.472 727.331 173.317 717.06 179.648 706.8C187.713 693.717 174.434 678.056 167.888 667.541C159.367 653.554 153.327 638.2 150.032 622.157C142.8 588.435 146.396 552.273 161.155 521.011" fill="white"/>
<path d="M226.58 565.601C262.967 611.749 281.862 675.959 255.921 731.662C243.769 757.76 222.601 777.663 198.728 793.128C185.906 801.271 172.574 808.58 158.813 815.011C147.67 820.333 135.734 823.959 124.738 829.525C114.37 834.768 108.872 842.745 111.018 854.662C112.381 862.345 116.536 869.44 117.036 877.28C117.183 879.642 116.751 881.514 114.478 882.386C112.724 883.062 109.95 882.612 108.176 882.161C104.168 881.181 100.983 878.682 98.1804 875.742C87.9394 864.962 79.1488 852.036 71.6224 839.266C64.096 826.497 58.0102 813.002 54.6292 798.616C53.708 794.696 52.2086 790.129 56.1482 787.64C59.4018 785.572 62.871 783.788 66.2324 781.917C73.0924 778.085 80.07 774.351 87.0182 770.617C100.905 763.159 114.821 755.731 128.374 747.666C139.644 740.962 150.767 733.897 161.802 726.821C170.357 721.343 181.128 714.728 184.724 704.653C188.742 693.383 181.706 681.77 175.708 672.686C167.672 660.495 161.165 647.96 156.922 633.927C145.764 597.186 148.281 557.648 164.007 522.618C165.673 518.934 160.293 515.68 158.509 519.404C145.095 547.68 140.205 579.251 144.436 610.26C146.412 625.627 150.653 640.617 157.02 654.742C160.084 661.474 163.683 667.949 167.78 674.107C171.337 679.458 175.15 684.887 177.217 691.061C181.98 705.232 169.025 713.493 158.646 720.226C146.945 727.821 135.126 735.357 123.102 742.481C108.764 750.998 94.035 758.838 79.3742 766.785C71.9164 770.843 64.4684 774.91 57.089 779.124C51.6696 782.22 45.8876 785.004 46.3678 792.158C47.3478 806.319 54.3058 821.332 60.7934 833.719C68.0832 847.294 76.6757 860.127 86.4498 872.037C91.0362 877.761 95.7206 884.003 102.6 887.061C107.5 889.227 114.517 890.187 119.388 887.492C124.836 884.474 123.533 876.33 122.328 871.302C120.564 863.678 116.183 856.23 116.546 848.223C117.114 835.229 136.146 831.367 145.828 827.526C160.175 821.812 174.189 814.462 187.586 806.809C212.684 792.461 236.586 774.302 252.393 749.714C286.184 697.225 275.649 630.075 243.083 579.85C239.065 573.657 234.704 567.708 230.118 561.926C228.04 559.3 224.395 563.004 226.443 565.601H226.58Z" fill="#382C80"/>
<path d="M161.155 521.011C146.396 552.273 142.8 588.435 150.032 622.157C153.323 638.214 159.363 653.581 167.888 667.58C174.415 678.095 187.694 693.756 179.648 706.839C173.317 717.099 153.472 727.419 143.456 734.014C136.645 738.532 129.668 742.834 122.602 746.95C117.869 749.733 111.822 751.488 111.136 757.73C110.538 762.993 115.615 773.155 117.222 778.31C122.407 794.949 130.489 810.541 141.095 824.37C147.376 832.534 154.913 840.305 164.615 843.657C170.916 845.822 178.785 845.617 183.235 840.628C184.969 838.668 185.998 836.199 187.321 833.945C192.917 824.488 204.648 818.667 213.409 812.61C231.117 800.38 247.621 786.826 259.89 768.912C278.295 742.06 285.38 708.515 281.362 675.42C277.912 647.255 266.76 620.354 251.109 596.814C244.857 587.406 237.664 580.968 236.605 569.374C235.155 553.312 236.164 536.672 238.242 520.707" fill="#7F72FF"/>
<path d="M158.96 519.698C139.977 560.084 138.38 608.339 155.324 649.734C159.244 659.348 164.409 668.07 170.024 676.763C174.924 684.24 181.843 694.697 177.364 703.83C173.621 711.455 164.409 716.658 157.509 721.019C149.601 726.037 141.624 730.957 133.695 735.945C128.423 739.257 123.111 742.53 117.623 745.48C114.017 747.44 110.46 749.626 108.666 753.487C104.864 761.729 111.361 771.597 114.164 779.163C115.556 782.946 121.465 781.476 120.309 777.467C118.623 771.685 111.165 759.68 116.683 754.565C119.623 751.831 124.268 750.184 127.708 748.136C132.843 745.078 137.939 741.952 142.947 738.679C150.355 733.838 158.019 729.389 165.34 724.41C171.651 720.108 178.638 715.237 182.646 708.554C192.231 692.541 176.6 675.959 168.926 662.915C157.274 643.158 151.071 620.197 149.669 597.383C148.006 571.609 152.742 545.824 163.458 522.324C164.84 519.316 160.391 516.66 158.96 519.698Z" fill="#382C80"/>
<path d="M240.653 482.497C363.427 611.436 385.222 778.702 396.061 803.202C400.354 812.894 403.823 824.939 410.105 833.582C418.768 845.45 430.979 845.93 444.013 849.341C445.922 849.791 447.793 850.391 449.608 851.134C451.358 851.772 452.905 852.869 454.087 854.309C456.253 857.249 455.528 861.571 453.332 864.501C451.137 867.431 447.815 869.235 444.512 870.852C422.642 881.638 398.675 887.505 374.295 888.041C370.748 888.119 367.102 888.041 363.809 886.767C346.816 880.054 340.819 845.832 334.978 830.75C326.484 808.922 318.024 787.094 309.596 765.266C304.833 752.977 300.011 740.59 292.828 729.545C286.742 720.196 279.108 712.013 272.042 703.37C257.136 685.083 245.014 664.758 233.822 644.021C228.677 634.466 224.336 624.636 219.828 614.915C215.535 605.654 208.577 599.48 202.266 591.346C194.612 581.34 187.38 569.061 190.32 556.84" fill="white"/>
<path d="M238.869 484.32C283.694 531.723 318.249 587.818 343.729 647.725C361.369 689.15 374.109 732.211 385.105 775.811C387.888 786.885 390.573 797.753 394.905 808.347C400.687 822.665 405.508 839.158 420.708 846.097C427.392 849.154 434.683 850.262 441.749 852.036C445.59 853.016 451.882 853.927 452.078 858.739C452.303 864.099 445.316 866.922 441.347 868.833C423.628 877.29 404.529 882.482 384.968 884.16C377.02 884.846 367.151 886.473 360.585 880.936C356.077 877.133 353.127 871.645 350.697 866.373C345.601 855.289 343.043 843.323 338.937 831.877C332.283 813.139 324.6 794.715 317.377 776.184C310.517 758.436 304.363 739.835 293.24 724.185C282.322 708.828 269.23 695.304 258.783 679.546C248.35 663.81 239.024 647.369 230.872 630.34C226.766 621.755 223.483 612.445 217.848 604.723C212.664 597.628 206.353 591.454 201.404 584.143C196.131 576.371 191.682 567.346 193.662 557.683C194.563 553.341 187.899 551.479 186.998 555.84C183.235 573.931 195.818 589.16 206.813 601.989C213.605 609.897 217.701 618.355 222.062 627.743C226.423 637.131 231.029 646.049 236.008 654.967C245.484 671.931 255.853 688.415 267.985 703.624C274.208 711.464 281.078 718.726 286.919 726.821C292.912 735.389 297.879 744.632 301.717 754.359C309.909 774.155 317.318 794.294 325.07 814.266C330.48 828.192 334.929 842.187 339.77 856.308C343.543 867.431 348.325 880.632 358.508 887.531C365.27 892.118 373.668 891.451 381.469 890.951C391.225 890.312 400.91 888.846 410.418 886.571C419.604 884.356 428.589 881.38 437.28 877.672C444.454 874.615 454.469 871.204 457.595 863.276C464.455 845.979 436.898 845.136 426.882 841.716C409.556 835.836 404.803 816.628 398.599 801.37C397.374 798.341 395.836 792.795 394.768 788.796C383.988 748.361 373.619 708.103 358.508 668.962C335.086 608.202 303.069 550.637 260.733 501C254.814 494.055 248.702 487.28 242.397 480.674C240.153 478.322 236.605 481.88 238.83 484.242L238.869 484.32Z" fill="#382C80"/>
<path d="M242.887 476.215C317.171 554.429 361.467 654.262 388.407 757.701C392.455 773.214 393.935 795.774 406.136 806.103C409.154 808.651 411.751 812.757 410.163 816.383C409.439 817.779 408.407 818.992 407.145 819.931C392.092 832.671 372.326 838.08 353.02 841.863C335.732 845.244 326.04 843.892 319.7 827.261C312.712 808.827 305.499 790.482 298.404 772.087C293.563 759.563 288.673 746.931 281.372 735.67C275.188 726.145 267.397 717.795 260.243 708.985C245.092 690.365 232.803 669.618 221.445 648.48C216.221 638.68 211.802 628.713 207.225 618.796C202.864 609.358 195.788 603.057 189.369 594.766C181.529 584.613 174.14 572.108 177.178 559.604" fill="#7F72FF"/>
<path d="M352.353 839.433C345.238 840.746 336.252 842.451 329.901 837.865C322.11 832.24 319.827 819.803 316.622 811.405C308.194 789.208 300.776 766.011 290.094 744.765C279.637 723.959 262.193 707.711 249.179 688.562C235.857 668.781 224.21 647.923 214.359 626.204C211.753 620.52 209.41 614.709 205.814 609.544C202.658 605.036 198.954 600.95 195.416 596.804C187.145 587.004 177.776 574.186 180.53 560.544C181.422 556.203 174.767 554.341 173.856 558.712C171.465 570.158 175.63 580.84 181.921 590.327C188.213 599.813 197.278 607.584 202.825 617.6C208.93 628.645 213.399 640.591 219.406 651.724C225.414 662.856 231.666 673.754 238.497 684.338C245.132 694.663 252.401 704.567 260.263 713.993C268.896 724.302 277.687 734.269 284.008 746.245C290.006 757.613 294.367 769.765 299.051 781.721C303.951 794.167 308.851 806.593 313.663 819.039C317.063 827.81 319.896 838.531 328.823 843.353C336.399 847.439 345.67 845.813 353.696 844.254C356.881 843.627 355.519 838.806 352.353 839.354V839.433Z" fill="#382C80"/>
<path d="M132.941 412.702C130.746 424.187 130.981 436.29 132.676 447.913C135.371 466.651 141.496 484.692 146.004 503.067C147.239 508.056 148.356 513.21 147.68 518.306C147.288 521.246 146.308 524.186 146.759 527.126C149.954 547.706 200.071 534.672 211.723 530.909C228.03 525.647 244.729 517.434 253.04 502.489C255.617 497.844 257.293 492.425 256.225 487.231C255.245 482.282 251.874 478.195 248.767 474.216C231.784 452.437 218.507 428.009 209.469 401.912" fill="white"/>
<path d="M130.197 411.937C124.317 443.405 134.989 472.942 142.378 503.077C143.388 506.66 144.019 510.339 144.26 514.053C144.387 518.169 142.868 522.128 143.074 526.235C143.207 529.576 144.511 532.765 146.759 535.241C151.659 540.552 159.617 541.758 166.467 542.101C181.794 542.767 197.944 539.298 212.527 534.731C224.012 531.125 235.361 526.186 244.7 518.473C253.765 510.976 262.801 498.569 260.165 486.133C258.616 478.822 253.001 473.128 248.708 467.307C243.946 460.839 239.483 454.162 235.322 447.276C226.501 432.552 219.174 416.984 213.448 400.804C211.674 395.855 203.756 397.943 205.49 403C213.967 427.841 226.303 451.193 242.044 472.197C245.465 476.745 250.178 481.292 251.903 486.897C253.863 493.405 250.276 500.294 246.415 505.38C239.32 514.72 228.422 520.668 217.682 524.804C204.17 530.035 189.98 533.308 175.542 534.525C168.976 535.035 161.155 535.505 155.06 532.497C152.936 531.604 151.295 529.846 150.552 527.665C149.64 524.657 150.934 521.413 151.257 518.395C151.55 515.239 151.415 512.057 150.855 508.938C148.347 493.473 142.604 478.558 139.037 463.26C135.224 446.992 132.814 430.175 135.675 413.544C136.293 409.977 130.873 408.409 130.187 412.025L130.197 411.937Z" fill="#382C80"/>
<path d="M172.778 377.569C194.201 369.65 218.456 372.345 239.692 380.744C257.666 387.849 272.346 400.54 288.349 410.996C299.678 418.405 300.188 413.682 305.294 402.627C309.723 393.053 313.937 383.38 318.132 373.698C328.333 350.178 338.398 326.52 350.962 304.118C361.252 285.792 376.745 254.49 400.422 251.629C404.342 251.149 408.85 251.835 411.271 254.971C415.495 260.429 411.026 269.426 408.605 274.865C410.82 272.571 414.828 272.709 417.308 274.698C419.73 276.85 420.957 280.043 420.6 283.263C423.648 280.85 427.906 280.684 431.133 282.852C434.359 285.021 435.814 289.026 434.732 292.759C441.68 288.526 451.245 294.092 454.165 301.687C458.879 313.927 452.617 327.677 449.403 339.486C445.708 353.069 441.876 366.612 437.564 380.009C429.077 406.332 418.65 432.194 403.97 455.724C388.672 480.224 370.748 497.109 341.946 502.479C333.126 504.116 324.09 503.626 315.192 502.607C301.54 501.058 287.957 498.265 275.129 493.326C254.432 485.349 236.429 472.06 219.446 458.046C210.684 450.824 202.129 443.346 193.378 436.094" fill="white"/>
<path d="M173.533 380.313C199.326 371.189 228.54 376.569 251.854 389.985C263.085 396.453 273.287 404.499 284.008 411.741C289.623 415.524 297.65 421.149 303.01 414.015C305.548 410.644 306.93 406.283 308.714 402.48C311.811 395.705 314.845 388.904 317.818 382.077C323.463 369.18 328.98 356.214 334.831 343.406C344.268 322.698 354.656 301.962 367.092 282.852C373.11 273.6 380.293 264.134 390.093 258.636C394.464 256.186 401.147 253.53 406.136 255.451C413.26 258.195 407.664 268.612 405.626 273.15C404.819 274.645 405.214 276.505 406.559 277.544C407.904 278.582 409.803 278.493 411.045 277.334C414.965 274.11 417.2 280.568 417.151 283.293C417.175 284.518 417.844 285.639 418.91 286.242C419.977 286.846 421.282 286.842 422.345 286.233C426.863 283.293 432.586 286.164 431.4 291.828C431.061 293.178 431.553 294.6 432.655 295.451C433.756 296.301 435.257 296.418 436.476 295.748C441.935 292.877 448.315 297.199 450.657 302.256C453.901 309.243 452.156 317.573 450.216 324.639C446.404 338.545 442.327 352.441 438.182 366.25C429.871 393.915 419.914 421.257 405.469 446.365C394.013 466.268 379.45 485.339 357.557 494.277C345.082 499.373 332.077 500.666 318.759 499.412C304.163 498.196 289.803 494.985 276.08 489.867C245.141 477.911 221.2 454.087 195.818 433.674C192.427 430.939 187.537 435.634 190.918 438.574C214.987 459.232 239.095 481.772 268.553 494.522C283.116 500.823 298.561 504.263 314.28 506.105C329.304 507.869 343.906 507.144 358.135 501.666C382.547 492.287 398.854 472.031 411.535 449.951C427.852 421.531 438.564 390.309 447.58 358.929C450.147 349.972 452.48 340.966 455.253 332.057C457.556 324.57 459.859 316.662 459.173 308.743C458.105 296.189 446.306 282.754 432.948 289.8L438.035 293.72C440.387 282.469 428.725 273.757 418.817 280.323L424.021 283.263C424.177 273.659 414.74 265.349 406.126 272.424L411.545 276.609C415.269 268.308 420.777 255.216 409.938 249.659C401.324 245.239 389.789 250.218 382.665 255.392C366.23 267.289 356.802 286.752 347.257 304.098C332.812 330.46 321.64 358.351 309.527 385.801C306.734 392.151 303.853 398.462 301.001 404.783C299.218 408.703 298.355 412.829 293.514 410.536C287.761 407.811 282.518 403.431 277.344 399.756C271.836 395.836 266.339 391.916 260.625 388.309C234.724 371.934 201.61 364.221 172.023 374.815C168.603 376.04 170.063 381.528 173.533 380.303V380.313Z" fill="#382C80"/>
<path d="M158.049 297.708C164.624 292.916 175.473 294.337 178.521 302.079C182.294 311.664 187.341 320.699 188.644 331.117C188.997 333.261 188.967 335.451 188.556 337.585C186.988 344.445 179.853 348.169 173.474 351.06C173.297 351.138 178.011 362.437 178.462 363.447C180.255 367.445 180.726 367.132 178.619 371.395C175.963 376.755 168.24 381.263 162.89 380.342C157.539 379.421 155.206 374.972 153.413 370.121C147.533 354.264 143.613 337.418 140.742 320.787" fill="white"/>
<path d="M159.421 300.08C163.644 297.356 170.014 296.63 173.895 300.482C175.963 302.53 176.708 305.842 177.815 308.479C179.128 311.634 180.5 314.76 181.735 317.965C183.862 323.6 187.194 331.959 184.92 337.937C182.96 343.19 176.424 345.826 171.69 347.943C170.555 348.574 169.861 349.781 169.887 351.079C170.259 355.234 172.915 359.752 174.513 363.564C175.865 366.798 176.688 368.004 174.268 371.15C171.847 374.295 167.3 377.186 163.35 376.353C159.401 375.52 158 370.728 156.814 367.337C155.001 362.183 153.462 356.949 152.031 351.657C149.17 341.103 146.955 330.382 144.946 319.641C143.966 314.143 135.734 316.524 136.616 321.934C138.785 335.748 142.062 349.365 146.416 362.653C149.356 371.571 152.796 384.674 164.585 384.419C172.709 384.242 183.676 376.579 183.793 367.69C183.793 364.672 181.833 361.751 180.618 359.027C179.854 357.243 179.102 355.457 178.364 353.666C178.099 353.029 177.002 349.874 177.129 351.06L175.326 354.186C181.696 351.246 188.752 347.326 191.3 340.338C194.416 331.773 190.134 321.336 186.812 313.467C183.979 306.783 181.804 297.483 174.826 293.867C168.959 291.045 162.027 291.603 156.686 295.327C153.825 297.287 156.461 301.942 159.44 300.031L159.421 300.08Z" fill="#382C80"/>
<path d="M147.337 382.135C147.337 380.048 151.581 364.348 152.237 364.603C157.686 366.74 163.546 366.054 169.152 365.005C172.014 364.476 174.846 363.839 177.727 363.427C180.03 363.094 183.401 362.212 185.655 362.937C190.671 364.625 194.243 369.081 194.799 374.344C193.471 374.431 192.138 374.355 190.83 374.119C188.16 373.816 185.459 373.952 182.833 374.521C179.893 375.158 177.119 375.432 174.522 376.932C171.08 378.919 167.802 381.18 164.722 383.694" fill="white"/>
<path d="M150.14 382.135C150.522 379.088 151.894 375.795 152.757 372.825C153.42 371.13 153.967 369.392 154.393 367.622C154.393 367.7 154.824 366.446 154.834 366.455C152.639 367.671 152.325 368.337 153.854 368.474C154.676 368.7 155.515 368.857 156.363 368.945C162.704 369.856 168.956 368.278 175.15 367.151C177.815 366.671 181.216 365.642 183.97 366.024C187.997 366.612 190.898 370.473 191.388 374.344L194.828 370.914C188.87 371.052 183.568 370.405 177.609 371.894C171.935 373.286 166.349 377.177 162.214 381.214C159.381 383.988 163.076 388.986 166.506 386.781C170.945 383.919 175.032 380.087 180.226 378.803C185.42 377.52 189.703 378.078 194.789 377.823C195.851 377.795 196.844 377.287 197.487 376.441C198.131 375.596 198.357 374.504 198.101 373.472C196.994 366.877 191.545 359.978 184.43 359.448C175.022 358.753 165.908 364.299 156.402 362.496C153.697 361.977 151.326 360.438 149.356 363.065C148.376 364.339 147.994 366.406 147.553 367.916C146.23 372.424 144.613 377.431 144.613 382.175C144.613 385.82 149.689 385.585 150.12 382.175L150.14 382.135Z" fill="#382C80"/>
<path d="M137.841 347.257C138.42 350.115 140.46 352.457 143.211 353.421C152.394 356.41 156.559 348.521 154.05 340.868C152.178 335.115 149.611 329.108 151.11 323.228C151.235 322.636 151.497 322.082 151.875 321.611C153.109 320.248 155.481 320.983 156.677 322.375C157.872 323.767 158.441 325.599 159.617 327.03C157.951 322.542 157.118 317.23 159.617 313.153C161.782 309.615 165.918 307.842 169.936 306.813C173.768 305.833 177.688 305.999 180.785 303.5C184.097 300.854 186.106 296.18 186.665 292.093C187.355 286.374 185.986 280.597 182.803 275.796C178.423 268.936 170.465 264.114 162.419 265.016C154.374 265.917 147.269 273.767 148.592 281.764C141.604 279.177 133.078 276.864 127.306 281.519C122.406 285.556 122.406 294.259 127.365 298.257C122.994 299.325 118.653 301.658 116.585 305.627C114.517 309.596 115.409 315.329 119.388 317.436C114.615 318.034 111.969 323.6 112.204 328.402C112.503 334.485 115.868 340 121.14 343.048C126.413 346.096 132.871 346.26 138.292 343.484C137.739 344.66 137.58 345.984 137.841 347.257Z" fill="#382C80"/>
<path d="M135.166 347.992C137.655 356.812 150.512 360.967 156.01 352.324C158.372 348.61 158.313 344.111 157.235 339.995C156.392 336.761 155.03 333.674 154.481 330.362C154.246 329.07 154.16 327.754 154.227 326.442C154.71 323.999 154.788 323.446 154.462 324.786C155.05 325.825 155.53 327.726 156.363 328.951C158.617 332.381 164.673 330.313 163.292 326.011C160.861 318.533 162.4 313.065 170.377 310.919C175.561 309.527 180.794 309.566 184.822 305.48C192.76 297.434 192.505 284.38 187.253 275.021C182.235 266.054 171.847 259.41 161.361 261.007C151.561 262.507 143.358 271.66 144.476 281.783L149.748 277.765C141.242 274.737 130.148 272.209 123.219 279.912C117.8 285.968 118.643 295.788 124.513 301.178L126.326 294.318C120.358 295.944 114.194 299.433 112.116 305.666C110.092 311.364 112.24 317.707 117.31 321.003L118.29 313.477C107.138 315.887 106.246 330.019 110.92 338.349C116.889 348.972 129.697 351.981 140.389 347.071L134.293 342.387C133.735 343.939 133.528 345.596 133.686 347.238C134.156 352.52 142.506 352.569 141.996 347.238C141.746 346.35 141.855 345.399 142.3 344.592C143.603 340.838 139.193 338.535 136.204 339.907C130.063 342.826 122.712 340.908 118.78 335.36C116.203 331.656 114.292 322.767 120.475 321.424C124.131 320.631 124.258 315.721 121.455 313.898C114.693 309.488 124.67 303.275 128.492 302.226C131.373 301.442 132.608 297.483 130.305 295.366C126.777 292.142 126.767 286.115 131.393 283.832C136.293 281.401 142.77 284.047 147.523 285.792C149.895 286.664 153.06 284.361 152.796 281.783C151.767 271.983 162.194 266.838 170.485 270.415C179.079 274.13 184.744 284.586 182.088 293.759C180.608 298.884 177.551 301.178 172.445 302.128C168.584 302.689 164.861 303.965 161.469 305.891C153.492 310.87 153.041 319.896 155.971 328.03L162.9 325.09C160.381 321.513 158.48 316.956 153.296 317.25C148.513 317.553 147.239 322.326 147.151 326.373C147.014 332.332 149.983 337.261 151.218 342.896C151.728 345.199 151.796 348.306 149.807 350.001C146.534 352.784 141.536 350.001 140.507 346.454C139.478 342.906 134.186 344.543 135.166 347.992Z" fill="#382C80"/>
<path d="M251.08 478.117C251.596 464.788 254.366 451.643 259.273 439.24C263.839 427.784 271.601 416.906 284.057 413.584C288.3 412.447 286.497 405.812 282.244 406.988C269.014 410.634 259.929 421.394 254.588 433.595C248.806 446.796 243.485 463.544 245.445 478.097C245.915 481.615 250.923 481.85 251.109 478.097L251.08 478.117Z" fill="#382C80"/>
<path d="M65.223 430.724C64.978 436.388 68.8588 441.122 72.1908 445.424C76.0329 450.299 80.296 454.828 84.9308 458.958C93.6528 466.798 103.551 473.952 114.703 477.93C119.682 479.704 121.818 471.786 116.879 470.022C107.52 466.68 99.0232 460.859 91.34 454.636C87.5296 451.57 83.9099 448.274 80.5012 444.767C77.1006 441.269 71.2304 435.849 70.8188 430.724C70.5346 427.166 65.3896 427.088 65.2328 430.724H65.223Z" fill="#382C80"/>
<path d="M190.898 572.843C193.466 572.334 196.543 571.217 199.15 571.207L203.462 571.873C203.746 572.451 204.05 573.02 204.363 573.578C205.108 574.558 205.677 575.705 206.421 576.685C209.107 580.223 212.556 583.035 215.878 585.956C219.798 589.435 224.248 593.433 225.757 598.696C227.266 603.958 224.983 610.377 219.142 611.436C216.623 611.877 217.701 615.709 220.2 615.268C225.61 614.288 229.02 609.77 229.902 604.488C230.882 598.225 227.54 592.522 223.424 588.063C217.985 582.183 211.282 578.145 207.039 571.158C205.735 569.021 204.706 567.365 201.923 567.414C198.091 567.483 193.828 569.119 190.095 569.952C188.193 570.384 189.007 573.235 190.898 572.892V572.843Z" fill="#382C80"/>
<path d="M260.88 533.839C266.495 541.219 263.281 550.343 261.311 558.477C259.459 566.081 258.646 573.431 261.713 580.86C265.192 589.249 271.062 596.736 275.874 604.38C281.271 612.991 286.533 621.683 291.662 630.458C311.549 664.551 329.273 699.862 344.729 736.18C353.804 757.495 361.742 779.192 369.748 800.919C370.552 803.114 374.031 802.242 373.306 799.939C361.193 761.719 344.984 724.479 327.314 688.493C318.357 670.259 308.812 652.321 298.679 634.681C293.772 626.123 288.728 617.649 283.547 609.26C278.304 600.764 272.434 592.6 267.534 583.868C261.654 573.412 263.996 564.112 266.241 553.067C267.76 545.59 268.367 538.23 263.222 532.036C262.134 530.723 259.792 532.497 260.841 533.869L260.88 533.839Z" fill="#382C80"/>
<path d="M389.799 801.379L394.307 797.998C394.998 797.565 395.234 796.668 394.846 795.95C394.426 795.246 393.517 795.01 392.808 795.421L388.3 798.822C387.615 799.251 387.379 800.137 387.761 800.85C388.181 801.554 389.089 801.79 389.799 801.379Z" fill="#382C80"/>
<path d="M121.034 795.725C122.7 798.753 124.346 801.781 126.081 804.77C127.972 808.053 133.029 805.103 131.157 801.83C129.462 798.822 127.688 795.862 125.924 792.893C124.062 789.757 119.27 792.55 121.024 795.754L121.034 795.725Z" fill="#382C80"/>
<path d="M144.407 790.462C183.391 775.821 216.447 745.568 233.91 707.672C234.832 705.653 231.882 703.879 230.892 705.908C213.012 743.142 181.924 772.397 143.672 787.983C142.163 788.59 142.79 791.05 144.358 790.462H144.407Z" fill="#382C80"/>
<path d="M182.715 828.937C179.886 827.323 177.478 825.063 175.689 822.342C174.493 820.578 171.632 822.214 172.808 824.027C174.914 827.209 177.78 829.816 181.147 831.612C182.902 832.592 184.46 829.917 182.715 828.937Z" fill="#382C80"/>
<path d="M453.332 864.452C455.528 861.512 456.272 857.2 454.087 854.26C452.905 852.82 451.359 851.724 449.608 851.085C447.793 850.342 445.922 849.742 444.013 849.292C430.979 845.881 418.768 845.372 410.105 833.533C409.37 832.553 408.684 831.485 408.027 830.397C404.744 832.289 402.715 836.003 401.49 839.658C400.118 843.774 399.413 848.174 397.218 851.928C387.966 867.784 365.505 862.708 350.736 865.854C349.961 865.953 349.22 866.232 348.57 866.667C347.12 867.804 347.326 870.019 347.669 871.822L349.227 880.142C349.678 882.563 350.285 885.228 352.314 886.63C353.378 887.276 354.561 887.702 355.793 887.884C369.248 890.824 385.712 887.933 399.305 885.561C415.012 882.828 430.245 877.858 444.542 870.803C447.815 869.186 451.147 867.373 453.332 864.452Z" fill="#382C80"/>
<path d="M456.351 866.207C458.987 862.13 459.947 856.759 457.096 852.487C454.048 847.939 447.727 846.607 442.778 845.372C430.097 842.304 418.552 840.472 411.036 828.633C410.047 826.992 407.931 826.435 406.263 827.379C399.962 831.632 398.423 838.159 396.296 845.019C394.17 851.879 389.711 856.632 382.674 858.739C376.794 860.532 370.552 860.699 364.446 861.013C359.35 861.258 353.039 860.954 348.247 862.973C341.769 865.648 344.425 873.39 345.395 878.594C346.65 885.277 348.423 889.972 355.646 891.432C371.326 894.607 388.221 891.334 403.715 888.296C413.554 886.364 423.2 883.553 432.537 879.897C440.455 876.8 450.177 873.606 455.802 866.932C458.683 863.531 453.773 858.572 450.902 862.032C445.13 868.892 433.909 872.165 425.745 875.066C416.835 878.186 407.684 880.572 398.384 882.2C389.201 883.847 379.94 885.424 370.601 885.63C366.161 885.728 360.997 885.895 356.714 884.523C352.147 883.072 352.432 878.398 351.648 874.223C351.334 872.518 350.266 870.244 351.648 869.215C352.549 868.549 355.078 868.647 356.156 868.539C359.311 868.216 362.486 868.108 365.652 867.951C371.953 867.647 378.441 867.334 384.517 865.491C390.236 863.902 395.275 860.476 398.854 855.74C403.617 849.174 402.774 838.1 409.781 833.386L405.009 832.132C409.993 840.281 417.884 846.235 427.088 848.792C431.635 850.144 436.31 850.997 440.926 852.114C446.453 853.457 455.067 855.378 450.324 862.698C447.884 866.52 453.94 869.97 456.351 866.207Z" fill="#382C80"/>
<path d="M129.423 830.701C128.466 828.741 127.345 826.866 126.071 825.095C122.151 819.715 116.193 815.442 109.548 815.09C105.07 814.854 100.405 816.364 96.1812 814.854C90.6344 812.894 88.0864 806.622 86.1852 801.046L76.3852 772.362C69.1822 776.282 61.9988 780.202 54.9036 784.337C52.9436 785.474 50.8856 786.738 50.1016 788.757C49.6309 790.443 49.6309 792.226 50.1016 793.912C55.423 822.832 72.4652 850.027 92.0456 873.723C95.1424 877.467 98.4352 881.308 102.826 883.621C106.951 885.783 111.721 886.379 116.252 885.297C117.313 885.103 118.288 884.586 119.045 883.817C119.53 883.143 119.828 882.351 119.907 881.524C120.985 874.791 118.084 867.804 115.83 861.032C113.576 854.26 112.008 846.695 115.487 840.873C118.074 836.581 123.445 833.367 129.423 830.701Z" fill="#382C80"/>
<path d="M132.431 828.937C129.403 823.057 125.248 817.687 119.368 814.472C113.135 811.062 107.804 812.277 101.091 812.042C92.5845 811.748 90.6343 803.3 88.3509 796.528L79.7563 771.46C79.4504 770.439 78.702 769.61 77.718 769.202C76.734 768.794 75.6186 768.849 74.6799 769.353C66.9575 773.557 58.7255 777.448 51.4539 782.407C45.2995 786.621 46.1227 792.265 47.5339 798.841C50.9149 814.07 57.3339 828.555 65.1739 841.961C73.1609 855.583 82.6473 869.872 93.8487 881.083C98.6899 885.924 104.785 889.285 111.763 889.305C117.908 889.305 122.798 887.208 123.523 880.671C124.503 871.479 119.515 863.237 117.643 854.505C116.663 849.713 116.457 844.646 119.936 840.785C122.876 837.502 127.237 835.503 131.187 833.7C135.136 831.897 131.716 825.86 127.668 827.673C121.249 830.613 114.262 834.435 111.44 841.305C108.451 848.576 110.695 856.563 113.076 863.649C114.536 868 117.133 873.449 116.683 878.123C116.438 880.622 116.124 881.994 113.321 882.278C111.064 882.49 108.788 882.213 106.647 881.465C98.2391 878.525 92.1925 868.647 87.0475 861.865C76.4733 847.949 66.9183 832.906 60.3915 816.628C57.5691 809.592 53.7079 800.674 53.4433 792.961C53.2865 788.59 55.1975 788.179 58.3433 786.385C60.5287 785.121 62.7239 783.886 64.9191 782.652C69.3291 780.188 73.7489 777.758 78.1785 775.36L73.0629 773.273L81.6281 798.361C83.6469 804.241 85.5481 810.993 90.3599 815.305C96.2399 820.499 102.629 817.961 109.578 818.559C117.614 819.235 122.984 825.762 126.443 832.436C128.482 836.444 134.46 832.916 132.431 828.937Z" fill="#382C80"/>
<path d="M416.484 835.542C416.421 838.211 415.527 840.794 413.926 842.931C412.76 844.548 415.494 846.175 416.621 844.509C418.408 841.871 419.295 838.725 419.15 835.542C419.15 834.806 418.553 834.209 417.817 834.209C417.081 834.209 416.484 834.806 416.484 835.542Z" fill="white"/>
<path d="M423.482 839.305C424.246 842.451 423.638 845.185 422.668 848.125C422.168 849.684 424.628 850.742 425.344 849.252C426.854 845.889 427.111 842.097 426.069 838.561C425.857 837.864 425.128 837.464 424.427 837.658C423.725 837.852 423.306 838.57 423.482 839.276V839.305Z" fill="white"/>
<path d="M431.302 842.069C432.253 844.986 432.064 848.155 430.773 850.938C430.136 852.486 432.733 853.604 433.487 852.085C435.075 848.615 435.075 844.627 433.487 841.158C432.968 839.913 430.871 840.795 431.312 842.069H431.302Z" fill="white"/>
<path d="M112.449 837.12C115.599 838.101 118.267 840.227 119.926 843.078C120.906 844.783 123.641 843.206 122.592 841.53C120.456 838.083 117.077 835.589 113.155 834.562C112.448 834.367 111.718 834.782 111.523 835.488C111.328 836.194 111.743 836.925 112.449 837.12Z" fill="white"/>
<path d="M110.685 847.704C113.433 846.72 116.503 847.441 118.525 849.546C119.936 850.977 122.171 848.743 120.73 847.341C117.876 844.569 113.688 843.674 109.95 845.038C108.304 845.646 108.97 848.282 110.685 847.704Z" fill="white"/>
<path d="M114.576 857.22C115.828 856.532 117.304 856.377 118.672 856.789C120.034 857.102 121.014 855.123 119.652 854.437C117.575 853.431 115.121 853.603 113.204 854.887C112.603 855.282 112.416 856.079 112.778 856.7C113.141 857.321 113.927 857.549 114.566 857.22H114.576Z" fill="white"/>
<path d="M424.177 828.486C424.001 827.673 423.609 823.194 425.05 823.096C426.206 823.018 426.578 826.781 426.549 827.702C426.48 829.789 429.244 829.838 429.92 828.163C431.576 824.056 437.153 828.956 432.674 831.103C430.665 832.083 432.419 835.023 434.428 834.043C436.257 833.241 437.544 831.555 437.837 829.58C438.129 827.605 437.386 825.619 435.869 824.321C432.556 821.518 427.941 823.341 426.608 827.212H429.92C429.45 824.889 427.96 818.392 424.197 819.784C421.012 821.009 421.012 826.526 421.708 829.123C421.933 829.756 422.608 830.109 423.257 829.931C423.905 829.754 424.306 829.106 424.177 828.447V828.486Z" fill="#382C80"/>
<path d="M130.001 843.98C130.768 843.581 131.685 843.603 132.431 844.039C132.872 844.331 133.091 844.863 132.983 845.381C132.875 845.899 132.462 846.299 131.941 846.391C131.344 846.565 130.881 847.04 130.723 847.642C130.564 848.244 130.733 848.885 131.167 849.331C132.03 850.085 133.196 850.948 133.549 852.075C134.244 854.28 132.03 853.721 130.844 852.849C129.217 851.624 127.051 854.397 128.658 855.691C131.02 857.651 134.862 858.631 136.704 855.387C138.547 852.143 136.067 848.919 133.647 846.851L132.872 849.791C134.146 849.47 135.203 848.586 135.745 847.39C136.286 846.193 136.254 844.816 135.656 843.647C134.372 841.265 131.412 840.942 129.148 841.941C127.992 842.451 128.815 844.411 130.001 843.99V843.98Z" fill="#382C80"/>
<path d="M449.285 780.603C446.257 776.193 447.835 770.588 451.686 767.158C456.214 763.12 462.642 764.022 467.366 767.158C477.94 774.263 477.95 788.208 476.99 799.498C476.813 801.673 480.508 802.202 480.831 800.017C482.086 791.687 492.954 787.473 499.843 792.177C507.997 797.773 505.939 810.258 499.49 816.197C497.795 817.755 499.99 820.607 501.95 819.392C508.389 815.374 517.875 816.834 521.942 823.625C526.009 830.417 522.834 839.433 516.229 843.157L518.414 846.9C526.421 840.844 540.954 838.276 547.589 847.88C552.744 855.309 547.971 868.862 538.063 868.46C535.329 868.352 535.358 872.527 538.063 872.694C550.49 873.488 557.33 857.994 552.548 847.733C546.119 833.915 526.617 835.297 516.229 843.176C514.073 844.813 515.935 848.36 518.414 846.92C526.94 841.961 530.664 830.26 525.5 821.577C520.335 812.894 508.193 810.709 499.902 815.903L502.362 819.088C510.731 811.356 512.348 795.215 501.627 788.561C492.67 783.014 478.665 788.149 477.068 798.978L480.9 799.498C481.723 785.15 479.763 765.051 462.505 761.278C451.245 758.808 438.985 771.528 446.492 782.142C447.668 783.808 450.412 782.24 449.265 780.525L449.285 780.603Z" fill="#382C80"/>
<path d="M567.708 842.02C577.254 839.521 587.74 846.332 588.984 856.24C589.259 858.435 592.747 858.464 592.463 856.24C590.954 844.147 578.743 835.66 566.826 838.825C564.768 839.374 565.641 842.559 567.708 842.02Z" fill="#382C80"/>
<path d="M246.788 871.175C240.035 862.161 236.036 851.385 235.273 840.148L232.137 841.001C238.017 850.301 243.955 859.562 249.777 868.921C251.041 870.989 254.304 869.097 253.03 867.02C249.747 861.679 253.726 852.447 260.792 853.564C266.966 854.544 269.435 862.62 266.064 867.363C264.575 869.46 268.024 871.459 269.504 869.382C274.649 862.13 269.759 850.154 260.537 849.537C250.815 848.88 244.632 861.12 249.757 868.921L253.011 867.02C246.944 857.837 241.025 848.557 235.067 839.305C234.224 838.002 231.794 838.384 231.931 840.148C232.771 851.959 237.016 863.274 244.151 872.723C245.327 874.282 247.993 872.723 246.807 871.175H246.788Z" fill="#382C80"/>
</svg>
