<svg width="1000" height="1000" viewBox="0 0 1000 1000" fill="none" xmlns="http://www.w3.org/2000/svg">
<path d="M489.426 85.3033C486.457 83.8082 484.332 81.0409 483.653 77.7867C483.487 76.9243 483.781 75.7385 483.516 74.9741C483.918 73.8961 483.693 73.8373 482.84 74.8075C481.697 75.2975 481.726 75.6993 482.928 76.0129C483.487 76.7185 484.761 77.2281 485.486 77.8455C487.373 79.4492 488.92 81.4154 490.033 83.6275C491.68 86.9203 497.873 86.4695 498.432 82.5299C498.647 80.9423 500.206 70.0153 503.332 74.9153C504.929 77.4045 503.665 81.0305 501.313 82.5103C496.276 85.6561 500.862 93.6039 505.988 90.5071C513.828 85.7443 515.895 74.0823 508.977 67.5163C505.309 63.9462 499.589 63.5763 495.492 66.6441C490.837 69.9957 489.553 75.8855 489.406 81.3441L497.971 79.0313C494.61 74.1313 481.311 59.5293 476.166 70.0643C472.178 78.2277 478.42 88.1061 485.829 91.4969C489.955 93.3785 493.591 87.3123 489.426 85.3425V85.3033Z" fill="#382C80"/>
<path d="M622.02 102.218C574.392 98.5071 526.659 96.7856 478.822 97.0534C468.042 97.1122 457.164 97.269 446.394 98.3176C439.642 98.9742 429.332 98.1608 423.394 101.748C408.429 110.793 401.363 134.137 402.814 150.463C404.086 163.354 409.669 175.439 418.66 184.763C422.717 189.017 428.98 195.083 434.869 196.582C441.729 198.336 450.736 197.454 457.939 197.876C493.473 199.934 529.051 200.613 564.67 199.914C579.87 199.61 595.05 199.062 610.191 197.366C611.356 197.484 612.517 197.11 613.394 196.334C614.271 195.557 614.783 194.45 614.807 193.28C616.205 187.014 617.46 180.723 618.57 174.405" fill="#7F72FF"/>
<path d="M622.931 98.9153C603.566 95.6323 583.535 95.2011 563.945 94.2995C544.574 93.3979 525.186 92.8459 505.782 92.6433C485.986 92.4473 466.141 92.2317 446.394 93.8683C439.24 94.4563 431.606 93.7997 424.736 96.2595C418.787 98.3959 413.956 103.12 410.242 108.02C402.196 118.78 398.129 132.882 398.08 146.22C398.08 161.9 404.94 177.178 415.661 188.458C420.561 193.662 426.441 199.179 433.585 201.129C441.425 203.276 449.883 202.198 457.889 202.58C477.303 203.511 496.707 204.412 516.15 204.716C537.828 205.059 559.545 205.01 581.203 204.148C586.73 203.932 592.247 203.638 597.765 203.227C602.498 202.864 607.565 202.815 612.259 201.796C617.424 200.669 618.796 196.572 619.844 191.908C621.04 186.55 622.108 181.157 623.049 175.728C624.088 169.848 615.032 167.28 613.984 173.229C613.233 177.521 612.422 181.8 611.553 186.067C611.022 188.062 610.597 190.083 610.279 192.123C610.132 193.877 609.799 193.103 610.662 192.682C609.789 193.142 608.388 193.005 607.398 193.113C598.461 194.034 589.484 194.573 580.517 194.916C562.583 195.602 544.629 195.72 526.685 195.583C508.889 195.445 491.102 194.959 473.324 194.122C465.092 193.74 456.89 193.211 448.638 193.142C441.229 193.142 434.859 192.868 428.862 188.105C417.562 179.138 409.134 166.104 407.4 151.62C406.13 139.525 408.79 127.343 414.985 116.879C417.758 112.243 421.678 107.255 426.745 104.991C432.625 102.345 440.053 103.286 446.345 102.767C464.21 101.287 482.144 101.395 500.059 101.522C520.397 101.659 540.732 102.133 561.064 102.943C581.311 103.747 601.714 105.883 621.971 105.648C625.685 105.589 626.871 99.5817 622.882 98.9153H622.931Z" fill="#382C80"/>
<path d="M532.928 345.63C522.128 296.933 521.042 246.582 529.733 197.464C530.351 194.034 531.047 190.506 533.056 187.664C541.974 175.061 576.852 182.95 589.484 183.832L665.179 189.173C672.48 189.693 680.526 190.536 685.524 195.896C690.934 201.698 690.777 210.596 690.257 218.505C686.71 272.307 681.532 325.959 674.724 379.46" fill="#382C80"/>
<path d="M535.829 344.827C528.726 310.217 526.418 274.794 528.969 239.555C529.616 230.627 530.498 221.69 531.752 212.821C532.353 208.528 533.033 204.249 533.791 199.983C534.379 196.651 534.771 192.623 536.966 189.899C539.318 186.959 543.777 186.057 547.266 185.567C552.626 184.948 558.036 184.902 563.406 185.43C574.01 186.194 584.486 188.037 595.099 188.801L648.362 192.613C656.457 193.191 664.964 193.103 672.931 194.73C680.085 196.19 684.593 200.032 685.583 207.47C686.563 215.173 685.25 223.415 684.701 231.117C684.047 240.003 683.365 248.885 682.653 257.764C679.321 298.434 674.813 338.956 669.913 379.46C669.599 382.057 672.343 384.232 674.705 384.252C677.586 384.252 679.164 382.018 679.507 379.46C684.593 341.367 688.327 303.069 691.522 264.8C692.332 255 693.086 245.2 693.785 235.4C694.393 226.766 695.647 217.838 695.059 209.175C694.53 201.619 691.992 194.367 685.544 189.889C679.428 185.636 671.657 185.038 664.454 184.538C645.318 183.166 626.169 181.827 607.006 180.52C594.266 179.638 581.752 178.197 569.08 176.894C558.3 175.787 545.678 174.679 535.692 179.775C530.047 182.666 527.156 187.958 525.892 194.015C524.01 202.942 522.952 212.125 521.972 221.19C517.541 263.105 520.279 305.467 530.067 346.463C530.958 350.246 536.642 348.629 535.868 344.856L535.829 344.827Z" fill="#382C80"/>
<path d="M392.043 346.218C384.83 321.66 378.059 296.787 375.971 271.288C373.884 245.788 376.726 219.348 387.966 196.386C390.23 191.731 393.043 187.027 397.531 184.45C401.833 181.98 407.037 181.823 412.006 181.725L545.815 179.187C548.755 179.128 551.95 179.187 554.194 181.049C555.929 182.509 556.722 184.783 557.252 186.988C559.751 197.298 558.3 208.087 557.252 218.642C553.239 259.321 555.474 300.374 563.876 340.378" fill="#7F72FF"/>
<path d="M394.993 345.405C386.516 315.554 378.568 284.9 379.078 253.628C379.163 238.841 381.608 224.162 386.32 210.145C388.515 203.815 391.083 196.798 395.287 191.525C399.864 185.753 406.616 185.773 413.388 185.645C446.13 185.146 478.871 184.528 511.613 183.96L536.525 183.529C540.317 183.46 544.208 183.146 548.001 183.372C551.989 183.607 552.705 185.841 553.459 189.399C555.017 196.808 554.371 204.559 553.645 212.027C552.901 219.71 552.117 227.384 551.685 235.096C549.579 270.772 552.302 306.568 559.78 341.514C560.956 346.934 569.159 344.631 568.071 339.231C561.231 305.891 558.565 271.829 560.133 237.83C560.545 229.647 561.28 221.504 562.093 213.33C562.906 205.157 563.416 196.67 561.917 188.448C560.682 181.725 557.673 176.169 550.333 175.208C546.521 174.709 542.591 175.071 538.759 175.15L525.235 175.434C490.367 176.149 455.489 176.786 420.61 177.59C413.123 177.756 404.715 177.041 397.688 180.108C391.446 182.823 387.604 188.507 384.713 194.436C377.961 208.254 374.188 223.248 372.581 238.536C368.661 275.551 378.539 311.948 389.162 347.051C390.299 350.805 396.14 349.227 395.042 345.425L394.993 345.405Z" fill="#382C80"/>
<path d="M358.547 420.297C352.767 389.224 348.746 357.85 346.502 326.324C414.351 320.19 482.344 316.488 550.48 315.221C563.71 314.966 577.077 314.829 589.993 317.916C592.208 318.445 594.58 319.19 595.942 321.14C597.304 323.09 597.284 325.374 597.304 327.638C597.598 353.379 597.889 379.127 598.176 404.881" fill="#7F72FF"/>
<path d="M361.82 419.405C357.547 388.378 352.765 357.596 350.501 326.305L346.581 330.225C389.93 326.305 433.344 323.388 476.823 321.473C498.56 320.513 520.303 319.798 542.052 319.327C552.185 319.112 562.358 318.739 572.432 319.376C577.541 319.653 582.621 320.334 587.622 321.415C589.582 321.856 592.081 322.081 593.012 324.129C593.943 326.177 593.355 329.549 593.375 331.793C593.649 356.136 593.718 380.479 594.178 404.822C594.276 409.997 602.253 410.016 602.234 404.822C602.155 382.116 601.705 359.409 601.45 336.703C601.391 331.989 602.038 326.599 600.744 322.003C599.451 317.406 595.501 315.143 591.081 313.996C580.586 311.34 569.521 310.987 558.741 311.056C513.475 311.301 468.121 313.555 422.943 316.426C397.463 318.04 371.983 320 346.503 322.306C344.484 322.483 342.377 323.972 342.583 326.226C344.847 357.9 348.1 390.132 355.323 421.09C356.303 425.422 362.379 423.452 361.801 419.307L361.82 419.405Z" fill="#382C80"/>
<path d="M580.194 410.477L577.548 321.826C577.548 320.17 577.479 318.396 578.41 317.024C581.183 312.928 601.822 316.201 607.153 316.103C621.726 315.838 636.289 314.927 650.861 314.77C665.434 314.613 680.105 315.887 694.687 317.171C696.049 317.289 697.568 317.485 698.44 318.543C699.313 319.602 699.224 320.964 699.156 322.248C697.359 353.836 695.562 385.422 693.766 417.004" fill="#382C80"/>
<path d="M583.085 410.477C582.487 388.437 582.212 366.377 581.791 344.337L581.497 328.863C581.497 326.52 581.36 324.168 581.36 321.826C581.262 321.055 581.262 320.275 581.36 319.504C581.193 319.768 581.526 319.504 581.918 319.376C583.986 318.592 586.818 318.974 588.974 319.023C592.238 319.092 595.482 319.357 598.774 319.631C616.552 321.17 634.505 319.072 652.331 319.023C663.425 319.023 674.509 319.768 685.563 320.719C688.137 321.079 690.728 321.308 693.325 321.405C695.765 321.405 694.305 321.013 694.824 322.248C695.187 323.139 694.628 325.511 694.569 326.491L693.589 343.465C692.139 367.965 690.179 392.465 689.375 416.965C689.179 422.766 697.843 422.619 698.293 416.965C700.253 392.974 701.057 368.866 702.37 344.837L703.35 326.452C703.605 321.709 704.33 316.446 699.43 313.869C697.176 312.693 694.403 312.732 691.933 312.526C688.876 312.265 685.818 312.013 682.76 311.771C676.88 311.311 671 310.909 665.12 310.674C653.106 310.194 641.11 310.674 629.105 311.144C620.031 311.517 610.858 312.35 601.793 311.644C595.129 311.125 588.23 310.233 581.595 311.438C572.285 313.114 573.833 322.012 574.137 329.529C575.245 356.499 576.528 383.429 577.401 410.438C577.528 414.152 583.281 414.172 583.183 410.438L583.085 410.477Z" fill="#382C80"/>
<path d="M664.317 931.2C693.315 931.2 716.825 901.32 716.825 864.472C716.825 827.624 693.305 797.744 664.317 797.744H633.682V931.2H664.317Z" fill="#382C80"/>
<path d="M664.317 935.424C701.557 935.041 721.931 895.244 721.078 862.198C720.245 830.103 699.597 793.598 663.895 793.412C653.821 793.353 643.756 793.412 633.682 793.412C631.332 793.444 629.436 795.344 629.409 797.694V931.2C629.441 933.546 631.335 935.441 633.682 935.473H664.317C669.824 935.473 669.834 926.917 664.317 926.917H633.682L637.965 931.2V797.694L633.682 801.967H659.662C663.729 801.967 667.776 801.869 671.784 802.712C678.434 804.131 684.643 807.133 689.885 811.463C715.561 832.563 719.001 874.281 702.801 902.006C694.677 915.912 680.938 926.702 664.317 926.868C658.809 926.927 658.76 935.482 664.317 935.424Z" fill="#382C80"/>
<ellipse cx="801.056" cy="843.637" rx="52.5084" ry="66.7282" fill="#382C80"/>
<path d="M849.282 843.637C849.135 866.618 839.139 892.147 817.216 902.496C797.058 912.012 775.4 901.29 764.071 883.67C750.547 862.639 749.077 833.69 759.827 811.219C768.883 792.265 788.179 776.762 810.19 782.309C836.65 788.973 849.125 818.696 849.282 843.637C849.282 849.145 857.876 849.154 857.847 843.637C857.671 817.579 845.822 788.365 820.754 776.997C796.695 766.109 771.176 777.389 757.201 798.449C741.443 822.195 740.247 854.858 752.438 880.338C763.218 902.878 786.817 919.646 812.463 913.188C842.657 905.573 857.661 872.322 857.847 843.608C857.876 838.1 849.321 838.1 849.282 843.637Z" fill="#382C80"/>
<ellipse cx="427.862" cy="843.637" rx="52.5084" ry="66.7282" fill="#382C80"/>
<path d="M476.088 843.637C475.941 866.618 465.945 892.147 444.023 902.496C423.854 912.012 402.206 901.29 390.877 883.67C377.344 862.639 375.874 833.69 386.634 811.219C395.689 792.265 414.976 776.762 436.996 782.309C463.456 788.973 475.922 818.696 476.088 843.637C476.088 849.145 484.683 849.154 484.644 843.637C484.477 817.579 472.619 788.365 447.561 776.997C423.502 766.109 397.982 777.389 384.008 798.449C368.249 822.195 367.054 854.858 379.245 880.338C390.025 902.878 413.623 919.646 439.27 913.188C469.464 905.573 484.458 872.322 484.644 843.608C484.683 838.1 476.118 838.1 476.088 843.637Z" fill="#382C80"/>
<path d="M168.76 846.92C165.31 820.401 164.928 736.974 199.454 717.56C213.732 709.534 228.687 703.242 244.975 701.586C255.206 661.739 293.455 489.151 309.566 421.394C312.25 410.129 322.223 402.111 333.802 401.912L711.984 395.483C724.024 395.28 734.546 403.573 737.16 415.328L787.836 643.08C791.06 657.574 793.245 672.852 797.636 687.053C804.731 710.161 848.733 711.66 869.431 718.687C890.501 725.831 911.698 737.807 921.047 757.985C924.311 765.031 925.947 772.685 927.554 780.29C932.758 804.888 937.59 829.172 941.098 854.035L168.76 846.92Z" fill="white"/>
<path d="M172.161 846.92C169.632 826.987 170.201 806.309 172.455 786.385C173.676 774.476 176.153 762.729 179.844 751.341C183.107 741.678 187.733 731.878 195.357 724.881C200.747 719.932 207.95 716.815 214.536 713.826C224.165 709.349 234.442 706.422 244.985 705.153C246.569 705.11 247.949 704.061 248.415 702.546C257.617 666.708 265.457 630.487 273.679 594.423C284.459 547.158 295.131 499.873 306.078 452.646C308.136 443.781 310.21 434.912 312.301 426.039C313.692 420.159 315.447 414.887 320.209 410.81C324.041 407.59 328.857 405.775 333.861 405.665C337.947 405.528 342.044 405.528 346.13 405.459L421.737 404.225L532.546 402.412L640.14 400.667L705.947 399.609C707.76 399.609 709.573 399.53 711.386 399.521C718.717 399.452 725.645 402.461 729.898 408.625C731.724 411.447 732.976 414.6 733.583 417.905C734.72 422.894 735.798 427.892 736.905 432.89L743.217 461.368L755.496 516.817L780.388 629.213C784.416 647.421 787.248 666.061 792.246 684.034C793.745 689.512 795.617 694.324 799.498 698.558C802.955 702.159 807.049 705.089 811.572 707.201C832.367 717.442 856.397 717.452 877.673 726.4C890.971 732.005 904.299 740.12 912.668 752.144C917.412 759.004 919.989 766.678 921.871 774.733C923.929 783.553 925.663 792.442 927.457 801.311C931.053 819.186 934.317 837.13 936.874 855.211L941.069 849.713L920.293 849.517L864.276 848.998L780.888 848.223L679.84 847.243L568.414 846.214L456.694 845.176L351.834 844.196L263.82 843.392C242.574 843.196 221.34 843.02 200.12 842.863C190.124 842.784 180.109 842.49 170.122 842.618H168.76C163.213 842.559 163.204 851.193 168.76 851.242C175.692 851.301 182.617 851.369 189.536 851.448L245.553 852.016C273.359 852.297 301.155 852.555 328.941 852.79L429.989 853.711L541.415 854.691L653.135 855.671L757.995 856.651L846.019 857.455L909.719 858.043C919.715 858.131 929.72 858.425 939.716 858.317H941.03C944.136 858.317 945.606 855.524 945.224 852.81C942.549 834.013 939.119 815.344 935.336 796.734C931.994 780.241 929.936 761.876 920.116 747.734C904.642 725.4 877.467 715.237 851.82 709.887C840.55 707.535 828.869 705.447 818.265 700.812C813.737 698.852 809.288 696.333 805.858 692.727C801.595 688.238 800.517 681.947 799.086 676.135C794.569 657.643 791.246 638.807 787.091 620.207L774.351 563.288L748.92 449.452L742.56 421.032C740.894 413.554 739.287 406.714 733.965 400.912C728.156 394.738 719.999 391.319 711.523 391.504C695.197 391.592 678.86 392.082 662.523 392.376L560.123 394.16L445.12 396.218L357.459 397.757L336.428 398.119C334.831 398.119 333.234 398.119 331.646 398.296C318.2 399.57 308.567 409.419 305.549 422.198C295.18 466.102 285.38 510.133 275.384 554.135C265.584 597.255 256 640.444 245.759 683.495C244.397 689.228 243.025 694.961 241.564 700.675L244.985 698.068C235.516 699.12 226.235 701.458 217.398 705.016C209.724 708.103 201.639 711.592 194.858 716.374C186.204 722.46 180.412 731.662 176.316 741.256C166.516 764.179 164.164 790.315 163.88 815.011C163.64 825.669 164.141 836.331 165.379 846.92C165.928 851.183 172.68 851.252 172.161 846.92Z" fill="#382C80"/>
<path d="M615.64 699.391C598.48 627.194 578.674 529.567 565.072 452.098C562.955 440.22 572.981 429.44 586.24 429.195L638.65 428.391C659.858 428.058 695.686 421.09 710.994 440.053C717.041 447.55 719.363 457.301 721.519 466.69C726.576 488.792 731.636 510.888 736.699 532.977C749.485 588.778 762.268 644.579 775.047 700.381C756.966 701.772 739.247 698.372 721.382 699.009C707.211 699.508 693.501 701.076 679.066 700.763C674.705 700.665 616.199 701.88 615.64 699.391Z" fill="#7F72FF"/>
<path d="M575.92 695.686C566.166 646.784 556.082 597.951 545.668 549.186C540.441 524.804 535.113 500.451 529.684 476.127C528.299 469.92 526.907 463.714 525.509 457.507C524.529 452.931 523.294 448.687 520.374 444.953C515.831 439.192 508.915 435.809 501.578 435.761C487.564 435.477 473.52 435.761 459.516 435.761H361.124C355.607 435.761 349.883 435.32 344.65 437.339C336.154 440.622 331.195 447.923 329.411 456.547L326.628 470.041L315.289 524.863C310.311 548.951 305.346 573.043 300.393 597.138L286.752 663.317L279.235 699.793L278.882 701.508C278.588 702.647 278.832 703.859 279.545 704.795C280.258 705.732 281.361 706.29 282.538 706.31L311.526 705.722L380.753 704.301L464.818 702.586C488.945 702.096 513.073 701.664 537.191 701.096L561.073 700.537C563.572 700.469 566.071 700.371 568.58 700.273C569.364 700.273 570.158 700.224 570.942 700.175H571.824C574.186 700.028 571.697 700.175 572.461 700.175H572.971C577.596 700.077 577.606 692.893 572.971 692.991C572.804 692.991 572.628 692.991 572.461 692.991C571.657 692.991 573.774 692.991 571.873 692.991H570.893C568.933 692.991 566.973 692.991 565.072 692.991C558.026 692.991 550.979 693.217 543.943 693.344C520.864 693.756 497.785 694.275 474.716 694.765L390.642 696.529L318.318 697.96L294.435 698.46C290.819 698.538 286.595 698.029 283.057 698.695C282.884 698.71 282.711 698.71 282.538 698.695L286.193 703.497L291.26 678.821L303.461 619.56L318.161 547.961C322.381 527.407 326.595 506.857 330.803 486.309C332.812 476.509 334.664 466.631 336.84 456.851C338.8 448.119 345.718 443.131 354.48 443.131H371.855L439.475 443.013L496.374 442.915C503.675 442.915 510.799 443.297 515.464 450.128C518.404 454.43 518.933 460.016 520.06 464.985C521.413 470.943 522.759 476.908 524.098 482.879C526.783 494.809 529.446 506.746 532.085 518.689C542.669 566.434 552.91 614.252 562.808 662.141C565.251 673.901 567.666 685.661 570.05 697.421C570.815 701.174 576.695 699.538 575.92 695.686Z" fill="#382C80"/>
<path d="M632.614 733.495C648.529 737.307 664.474 740.962 680.379 744.784C695.451 748.401 710.906 751.36 725.577 756.417C737.866 760.67 750.312 767.197 756.388 779.32C761.788 790.1 763.63 803.045 765.502 814.825C766.56 821.499 767.462 828.202 768.324 834.905C769.108 841.099 769.422 847.547 770.902 853.613C772.136 858.69 779.996 857.533 779.967 852.388C779.967 846.734 778.84 841.02 778.114 835.425C777.272 828.937 776.399 822.449 775.4 815.991C773.489 803.535 771.392 790.844 766.501 779.153C754.202 749.753 718.099 744.98 690.61 739.336C671.804 735.474 653.047 731.417 634.26 727.527C630.34 726.723 628.713 732.554 632.614 733.495Z" fill="#382C80"/>
<ellipse cx="633.682" cy="864.423" rx="52.5084" ry="66.7282" fill="white"/>
<path d="M681.917 864.423C681.77 887.404 671.774 912.933 649.852 923.282C629.683 932.797 608.035 922.076 596.706 904.456C583.173 883.425 581.703 854.476 592.463 832.004C601.518 813.051 620.805 797.548 642.815 803.094C669.275 809.758 681.751 839.482 681.917 864.423C681.917 869.921 690.512 869.94 690.473 864.423C690.306 838.365 678.448 809.151 653.39 797.783C629.331 786.895 603.811 798.175 589.837 819.235C574.068 842.98 572.883 875.644 585.074 901.124C595.854 923.664 619.452 940.432 645.099 933.973C675.293 926.359 690.287 893.107 690.473 864.393C690.512 858.915 681.947 858.905 681.917 864.423Z" fill="#382C80"/>
<path d="M297.855 931.2C326.853 931.2 350.363 901.32 350.363 864.472C350.363 827.624 326.843 797.744 297.855 797.744H267.22V931.2H297.855Z" fill="#382C80"/>
<path d="M297.855 935.424C335.095 935.042 355.46 895.244 354.607 862.198C353.784 830.103 333.135 793.598 297.424 793.412C287.36 793.353 277.295 793.412 267.221 793.412C264.87 793.444 262.974 795.344 262.948 797.695V931.2C262.979 933.547 264.874 935.441 267.221 935.473H297.855C303.363 935.473 303.373 926.918 297.855 926.918H267.221L271.503 931.2V797.695L267.221 801.968H293.22C297.287 801.968 301.334 801.87 305.333 802.712C311.984 804.126 318.194 807.129 323.433 811.464C349.109 832.563 352.559 874.282 336.36 902.006C328.235 915.912 314.496 926.702 297.875 926.869C292.348 926.927 292.338 935.483 297.855 935.424Z" fill="#382C80"/>
<ellipse cx="267.221" cy="864.423" rx="52.5084" ry="66.7282" fill="white"/>
<path d="M315.456 864.423C315.3 887.404 305.304 912.933 283.381 923.282C263.222 932.797 241.564 922.076 230.236 904.456C216.712 883.425 215.242 854.476 226.002 832.004C235.047 813.051 254.344 797.548 276.354 803.094C302.814 809.758 315.29 839.482 315.456 864.423C315.456 869.921 324.041 869.94 324.012 864.423C323.845 838.365 311.987 809.151 286.929 797.783C262.87 786.895 237.35 798.175 223.366 819.235C207.607 842.98 206.422 875.644 218.613 901.124C229.393 923.664 252.991 940.432 278.628 933.973C308.832 926.359 323.826 893.107 324.012 864.393C324.041 858.915 315.486 858.905 315.456 864.423Z" fill="#382C80"/>
<path d="M800.419 772.665C807.56 772.974 813.94 777.221 816.981 783.69C823.645 798.047 807.103 816.481 792.481 808.19C777.105 799.429 781.348 772.293 800.419 772.665Z" fill="#7F72FF"/>
<path d="M922.89 766.256C930.032 766.563 936.413 770.811 939.452 777.281C946.126 791.638 929.573 810.072 914.952 801.732C899.576 793.02 903.829 765.874 922.89 766.256Z" fill="#7F72FF"/>
<path d="M840.786 792.687C856.544 794.803 872.332 790.805 888.061 793.147C893.265 793.921 895.685 786.287 890.295 785.052C874.106 781.475 857.955 788.188 841.638 786.415C838.1 786.023 837.228 792.206 840.786 792.687Z" fill="#382C80"/>
<path d="M843 811.532C851.134 811.532 859.278 811.307 867.412 811.101C871.371 811.003 875.324 810.898 879.27 810.787C883.258 810.67 887.276 810.895 890.961 809.268C894.195 807.847 892.853 803.232 890.06 802.301C886.443 801.105 882.308 801.909 878.574 802.163C874.654 802.425 870.701 802.702 866.716 802.996C858.807 803.565 850.899 804.143 843 804.878C838.806 805.27 838.639 811.552 843 811.532Z" fill="#382C80"/>
<path d="M858.131 827.908C863.505 828.576 868.951 828.378 874.262 827.32C878.378 826.428 877.516 819.686 873.282 819.931C868.245 820.215 863.208 820.764 858.151 820.832C853.506 820.901 853.692 827.467 858.151 827.918L858.131 827.908Z" fill="#382C80"/>
<path d="M532.34 715.6C523.412 705.535 521.893 689.375 529.4 678.213C536.907 667.051 553.087 662.533 565.033 668.678C576.979 674.822 582.448 691.414 575.96 703.203C574.47 705.918 572.697 709.838 575.274 711.543C575.814 711.857 576.404 712.076 577.018 712.19L593.404 716.276" fill="white"/>
<path d="M534.663 713.287C528.599 705.835 526.678 695.839 529.547 686.67C532.272 678.046 539.778 672.255 548.53 670.618C556.536 669.128 564.906 671.951 569.678 678.693C574.49 685.256 575.217 693.963 571.56 701.233C569.276 705.702 567.365 711.866 572.324 715.375C574.833 717.158 578.204 717.531 581.144 718.315L592.032 721.157C598.265 722.783 600.94 713.003 594.688 711.523L584.417 709.083C582.849 708.586 581.248 708.199 579.625 707.927C576.499 707.691 579.125 707.378 578.753 708.72C578.922 708.132 579.138 707.558 579.4 707.005C581.556 702.233 583.32 697.97 583.408 692.619C583.47 682.607 578.788 673.156 570.786 667.139C553.645 654.517 527.979 664.954 522.187 684.701C518.787 696.274 522.04 709.073 529.929 718.021C532.791 721.264 537.338 716.57 534.633 713.317L534.663 713.287Z" fill="#382C80"/>
<path d="M177.08 750.067C180.706 751.047 184.665 750.968 188.409 751.213C192.329 751.468 196.357 751.586 200.336 751.674C208.509 751.85 216.702 751.674 224.836 751.39C231.196 751.145 237.164 749.645 239.624 743.099C242.23 736.16 242.779 727.879 243.887 720.559C244.681 715.326 237.027 712.885 235.733 718.315C234.195 724.832 233.077 731.447 231.568 737.964C230.941 740.668 230.265 741.678 227.54 742.119C224.317 742.506 221.075 742.722 217.829 742.766C211.047 743.118 204.265 743.314 197.484 743.481C190.702 743.648 183.597 742.962 177.041 744.177C174.003 744.735 174.287 749.302 177.041 750.057L177.08 750.067Z" fill="#382C80"/>
<path d="M257.754 852.8C252.854 855.005 251.129 862.1 252.207 866.932C253.432 872.38 258.273 876.065 263.673 876.732C276.413 878.241 283.175 862.943 274.747 853.849C271.16 849.978 265.731 855.642 269.024 859.572C272.317 863.502 268.867 869.264 263.987 868.617C261.624 868.354 259.74 866.522 259.41 864.168C258.959 861.228 260.586 859.464 262.213 857.308C264.389 854.368 260.331 851.693 257.754 852.849V852.8Z" fill="#382C80"/>
<path d="M621.275 853.006C616.849 856.892 614.459 862.6 614.797 868.48C615.111 874.193 618.717 882.906 625.754 881.886C631.585 881.034 635.946 874.781 637.455 869.509C639.273 863.671 637.921 857.307 633.888 852.712C630.722 849.203 625.548 853.692 627.586 857.612C628.926 860.09 629.479 862.916 629.174 865.716C628.919 867.676 627.596 872.057 625.411 872.723C624.186 873.106 623.892 871.89 623.402 870.616C622.944 869.359 622.702 868.034 622.686 866.696C622.596 863.445 623.876 860.305 626.214 858.043C629.448 854.838 624.646 850.203 621.314 853.143L621.275 853.006Z" fill="#382C80"/>
<path d="M499.256 721.392C499.863 739.502 500.108 757.652 499.452 775.782C499.138 784.621 498.628 793.441 497.923 802.242C497.619 806.034 497.923 810.846 496.766 814.472C495.884 817.167 491.612 816.55 489.152 816.736C462.27 818.601 435.306 818.997 408.38 817.922C394.846 817.461 381.273 816.765 367.808 815.237C363.486 814.747 362.428 822.234 366.779 822.89C393.964 826.967 421.885 827.232 449.325 826.899C463.045 826.732 476.765 826.34 490.485 825.184C493.425 824.929 496.59 824.87 499.305 823.655C503.176 821.93 504.695 818.5 505.185 814.482C506.312 805.133 506.664 795.617 507.047 786.219C508.021 764.597 507.562 742.934 505.675 721.372C505.302 717.325 499.118 717.178 499.256 721.372V721.392Z" fill="#382C80"/>
<path d="M472.168 721.862C467.268 722.097 462.29 722.293 457.351 722.489C451.294 722.725 451.284 732.211 457.351 731.917C464.475 731.574 472.158 731.074 478.842 728.458C483.036 726.821 483.036 719.275 477.676 719.824C470.816 720.52 464.22 722.068 457.351 722.489L458.605 731.75C463.446 730.839 468.287 729.937 473.148 729.085C477.225 728.36 476.284 721.656 472.168 721.862Z" fill="#382C80"/>
<path d="M353.98 716.051C355.483 729.117 356.93 742.204 358.321 755.31C359.693 768.255 360.281 781.525 362.682 794.314C363.349 797.832 369.072 797.028 368.915 793.471C368.366 780.545 365.858 767.589 364.29 754.761C362.722 741.933 361.144 728.957 359.625 716.051C359.213 712.484 353.559 712.435 353.98 716.051Z" fill="#382C80"/>
<path d="M643.815 492.954C641.927 500.042 640.323 507.196 639.003 514.416C638.161 519.061 637.318 524.696 641.11 528.332C645.599 532.644 651.979 530.527 656.428 527.401C657.849 526.421 662.102 522.501 663.631 524.598C664.836 526.264 663.552 530.057 663.131 531.781C662.295 535.211 661.449 538.641 660.593 542.071C659.877 545.011 658.633 548.187 658.917 551.225C659.417 556.379 664.523 558.594 669.158 558.085C672.578 557.722 679.409 551.989 680.918 556.928C682.496 562.073 680.242 568.561 679.35 573.588C676.41 590.16 673.039 606.722 670.726 623.382C669.971 628.782 677.998 631.33 679.134 625.704C682.074 611.279 684.093 596.618 686.514 582.085C687.621 575.46 689.287 568.678 689.66 561.965C689.905 557.516 689.15 552.371 685.798 549.118C681.398 544.864 675.773 546.687 670.942 548.971C669.962 549.546 668.875 549.913 667.747 550.049C667.476 550.107 667.195 550.107 666.924 550.049C666.257 549.696 667.129 550.901 666.835 549.745C666.59 548.765 667.551 546.481 667.815 545.403L669.129 539.592C670.324 534.329 672.5 528.263 670.873 522.854C669.334 517.767 664.209 515.513 659.27 517.228C655.791 518.434 653.439 521.256 650.234 522.883C648.705 523.647 646.589 524.441 645.462 522.716C644.756 521.619 644.981 519.776 645.079 518.522C645.746 510.515 647.941 502.372 649.901 494.6C650.881 490.68 644.854 488.985 643.815 492.924V492.954Z" fill="white"/>
<path d="M647.735 595.491L645.775 608.721C645.435 610.121 645.923 611.593 647.034 612.512C648.145 613.43 649.683 613.633 650.994 613.035C652.305 612.436 653.159 611.142 653.194 609.701L654.84 596.452C655.33 592.453 648.343 591.463 647.755 595.472L647.735 595.491Z" fill="white"/>
<path d="M708.132 539.788C699.391 579.243 689.326 618.492 681.516 658.143C680.487 663.386 688.376 665.669 689.61 660.377C699.058 621.05 706.27 581.154 714.806 541.621C715.737 537.289 709.093 535.427 708.132 539.788Z" fill="white"/>
<path d="M398.08 699.469C393.084 678.771 390.324 657.596 389.848 636.308C389.573 627.312 389.093 617.688 390.308 608.77C390.68 604.562 392.724 600.679 395.983 597.99C399.727 594.924 403.948 592.491 408.478 590.787C418.552 586.75 429.322 585.191 440.122 584.907C450.921 584.623 463.211 584.172 473.079 589.229C481.801 593.708 487.936 601.753 492.679 610.103C497.579 618.766 501.597 628.047 505.713 637.131C507.409 640.875 509.339 644.971 512.573 647.637C516.042 650.528 519.708 649.96 523.5 647.99C528.417 645.397 533.607 643.36 538.974 641.914C545.648 640.12 552.449 638.886 559.211 637.494C564.033 636.514 561.916 629.458 557.202 630.213C545.893 632.026 533.261 633.848 523.04 639.336C521.815 639.993 519.267 642.276 517.826 642.09C516.962 641.325 516.204 640.449 515.572 639.483C513.524 636.396 512.191 632.917 510.672 629.576C502.048 611.191 493.316 588.915 472.824 580.987C462.25 576.891 450.01 577.155 438.848 577.636C427.862 578.096 416.857 579.792 406.606 583.908C398.462 587.181 388.603 592.228 385.183 600.881C381.978 608.996 382.919 618.933 382.978 627.498C383.036 652.327 386.25 677.048 392.543 701.067C393.523 704.663 399.03 703.144 398.119 699.528L398.08 699.469Z" fill="#382C80"/>
<path d="M416.504 614.062L431.527 665.022C431.761 667.515 433.928 669.375 436.427 669.226L468.17 673.685C475.921 674.773 484.163 676.077 490.024 681.271C495.149 685.808 501.784 698.911 498.442 705.869C497.383 708.103 495.041 709.436 492.709 710.23C486.749 712.235 480.211 711.539 474.808 708.324C469.404 705.109 465.673 699.695 464.593 693.501" fill="white"/>
<path d="M413.76 614.827C416.876 627.959 420.718 640.944 424.295 653.958C425.164 657.101 426.033 660.243 426.902 663.386C427.617 666.022 428.127 669.07 430.214 671.03C432.008 672.715 434.34 673.137 436.663 673.519L446.953 675.214C453.587 676.302 460.232 677.321 466.886 678.311C472.109 679.075 477.666 679.771 482.487 682.143C486.564 684.162 489.112 687.229 491.239 691.169C492.905 694.275 495.423 699.499 494.179 703.115C492.493 707.887 482.732 706.496 479.273 705.006C473.971 702.733 470.453 697.715 469.199 692.217C467.807 686.151 459.007 688.807 460.016 694.746C462.342 707.695 473.902 716.916 487.044 716.306C493.434 715.953 500.647 713.591 503.254 707.201C505.214 702.301 504.165 696.588 502.372 691.825C500.578 687.062 497.854 681.917 494.032 678.252C489.485 673.881 483.36 671.569 477.293 670.304C470.433 668.883 463.387 668.139 456.459 667.364L444.699 665.992C442.543 665.747 436.859 665.992 435.624 664.405C434.644 663.111 434.281 660.21 433.791 658.652L431.665 651.9L427.676 639.229C424.952 630.565 422.306 621.843 419.277 613.278C418.052 609.819 412.868 611.171 413.731 614.807L413.76 614.827Z" fill="#382C80"/>
<path d="M389.338 658.339C402.274 662.337 413.838 658.437 425.598 652.89C429.93 650.851 426.872 643.609 422.325 645.138C417.317 646.804 412.79 649.538 407.821 651.312C402.44 653.346 396.566 653.688 390.985 652.292C387.065 651.312 385.477 657.133 389.319 658.319L389.338 658.339Z" fill="#382C80"/>
<path d="M468.738 610.299C474.432 624.725 478.783 639.699 483.614 654.468C486.104 662.072 488.622 669.677 491.317 677.213C493.777 684.073 495.992 691.708 499.853 697.931C502.019 701.419 507.958 699.214 506.664 695.059C504.567 688.297 501.254 681.8 498.765 675.155C495.874 667.472 493.16 659.73 490.484 651.969C485.457 637.425 480.4 622.912 474.52 608.711C473.07 605.262 467.366 606.751 468.787 610.299H468.738Z" fill="#382C80"/>
<path d="M500.98 626.616C498.04 632.986 492.924 637.2 486.809 640.395C482.781 642.492 485.623 649.666 489.965 647.882C498.305 644.442 503.91 637.514 506.723 629.047C507.83 625.715 502.489 623.363 500.98 626.616Z" fill="#382C80"/>
<path d="M619.168 635.524C611.387 632.486 605.507 632.976 601.195 635.75C606.095 658.231 610.995 679.752 615.611 699.391C615.856 700.43 626.146 700.822 638.396 700.939C643.171 695.812 646.168 689.283 646.941 682.319C647.921 673.499 645.726 664.493 641.63 656.614C636.867 647.441 628.919 639.327 619.168 635.524Z" fill="#382C80"/>
<path d="M775.086 700.381C773.74 694.501 772.394 688.621 771.048 682.741L641.688 685.406L642.267 688.542L614.415 694.217C614.817 695.941 615.228 697.666 615.63 699.362C616.218 701.851 674.724 700.636 679.124 700.734C693.56 701.047 707.27 699.479 721.441 698.979C739.287 698.372 757.005 701.772 775.086 700.381Z" fill="#382C80"/>
<path d="M735.033 681.908L735.219 681.163L738.042 680.016L737.669 679.889L739.472 681.271L739.335 681.045L739.659 683.476C739.659 683.24 739.855 680.908 739.933 680.869C739.981 680.909 740.038 680.936 740.1 680.947C741.873 680.8 742.334 684.622 742.54 685.612C743.579 690.512 752.046 689.532 751.468 684.407C750.723 677.811 745.509 671.059 738.11 673.009C735.247 673.822 733.065 676.147 732.436 679.056C731.711 682.3 733.416 685.543 736.875 685.798C737.948 685.813 738.943 685.242 739.472 684.309C739.784 683.822 739.957 683.26 739.972 682.682L739.874 681.937C739.492 680.957 739.492 681.045 739.874 682.133C739.838 680.806 738.771 679.739 737.444 679.703H737.258C736.038 679.724 735.054 680.707 735.033 681.927V681.908Z" fill="#382C80"/>
<path d="M417.474 581.075C421.326 575.705 417.602 570.05 414.456 565.513C410.536 559.79 407.047 554.165 407.714 546.893C408.488 538.485 414.966 531.066 423.031 528.547C431.096 526.029 440.289 528.224 446.806 533.594C453.289 539.17 457.243 547.129 457.772 555.664C458.06 558.495 457.725 561.355 456.792 564.043C454.763 569.306 450.295 574.323 449.06 580.125C448.178 584.26 451.02 590.964 449.001 594.58C443.307 604.997 421.6 585.897 417.474 581.075Z" fill="white"/>
<path d="M420.022 582.565C423.883 576.538 421.424 570.335 417.935 564.778C414.338 559.055 410.271 553.018 411.722 545.893C414.564 531.968 431.135 528.155 442.102 535.113C447.766 538.739 451.431 544.815 452.97 551.254C453.773 554.596 454.185 558.379 453.215 561.72C452.245 565.062 450.079 567.777 448.442 570.648C446.707 573.43 445.473 576.495 444.797 579.703C444.316 582.643 444.914 585.525 445.189 588.465C445.399 589.644 445.399 590.852 445.189 592.032C445.071 592.352 444.871 592.636 444.61 592.855C443.703 593.079 442.749 593.021 441.876 592.688C434.036 590.601 426.196 583.604 420.816 577.704C416.671 573.167 410.31 579.782 414.142 584.368C417.148 587.753 420.524 590.791 424.207 593.423C428.587 596.765 433.429 599.999 438.809 601.479C443.542 602.792 448.785 602.312 451.96 598.186C456.566 592.198 451.696 585.446 453.862 579.066C455.136 575.323 457.595 572.069 459.33 568.541C461.37 564.547 462.269 560.067 461.927 555.595C461.396 547.681 458.342 540.146 453.215 534.094C442.866 521.981 423.433 519.463 411.575 530.801C405.384 536.615 402.679 545.239 404.44 553.547C405.42 557.84 407.723 561.74 410.232 565.307C413.113 569.404 418.072 574.372 414.936 579.586C412.966 582.849 417.984 585.74 420.022 582.565Z" fill="#382C80"/>
<path d="M438.113 579.615C444.591 580.948 451.333 579.341 455.753 574.264C459.114 570.433 453.891 565.092 450.128 568.639C447.217 571.528 443.143 572.922 439.073 572.422C434.987 571.942 434.075 578.792 438.093 579.615H438.113Z" fill="#382C80"/>
<path d="M395.571 553.802C384.017 552.097 371.434 553.871 360.076 556.144C354.823 557.203 349.296 558.428 344.562 560.956C338.084 564.506 333.205 570.395 330.921 577.42C328.569 584.623 329.735 593.825 335.821 598.872C338.427 601.038 342.161 601.812 344.17 604.664C346.316 607.682 346.718 611.965 347.238 615.513C349.198 628.821 351.442 642.08 353.794 655.33C356.508 670.657 359.301 685.984 361.634 701.39C362.457 706.79 370.513 704.438 369.787 699.146C366.269 673.352 361.84 647.696 357.92 621.981C357.028 616.101 356.636 609.78 354.529 604.194C353.429 600.979 351.494 598.114 348.923 595.893C346.189 593.639 341.848 592.806 340.24 589.454C337.379 583.486 340.525 576.528 344.856 572.206C348.59 568.482 353.206 566.983 358.184 565.64C364.636 563.953 371.18 562.644 377.784 561.72C383.272 560.927 389.015 560.201 394.562 560.858C398.541 561.328 399.521 554.39 395.542 553.802H395.571Z" fill="#382C80"/>
<path d="M361.918 575.881C363.678 579.614 364.107 583.837 363.133 587.847C362.153 591.904 359.752 594.893 357.4 598.225C355.274 601.254 359.36 604.595 362.212 603.027C372.492 597.441 373.129 581.634 367.004 572.912C366.159 571.582 364.416 571.156 363.052 571.944C361.688 572.732 361.188 574.456 361.918 575.852V575.881Z" fill="#382C80"/>
<path d="M467.993 557.898C473.471 559.682 475.108 566.317 475.833 571.354C476.558 576.391 476.539 581.34 474.52 586.24C473.03 589.866 478.704 593.1 481.145 590.101C486.27 583.849 484.947 575.254 483.105 567.904C481.262 560.554 477.068 554.331 469.551 552.087C465.817 550.98 464.289 556.703 467.954 557.898H467.993Z" fill="#382C80"/>
<path d="M389.368 592.198C400.285 597.255 410.928 603.645 421.042 610.113C430.929 616.36 440.292 623.4 449.04 631.163C457.24 638.402 464.675 646.464 471.227 655.222C474.465 659.62 477.446 664.201 480.155 668.942C482.997 673.921 484.928 679.81 488.319 684.407C491.396 688.572 497.06 686.004 496.384 681.006C495.629 675.381 492.16 669.785 489.397 664.895C486.503 659.792 483.281 654.882 479.753 650.195C472.793 640.943 464.859 632.466 456.086 624.911C446.781 616.963 436.766 609.888 426.167 603.772C415.191 597.373 403.725 592.522 392.171 587.338C388.937 585.887 386.085 590.65 389.358 592.159L389.368 592.198Z" fill="#382C80"/>
<path d="M428.019 559.437C427.745 557.173 425.785 555.566 424.442 553.724C423.1 551.881 422.619 548.824 424.638 547.716C425.687 547.158 426.971 547.432 428.137 547.187C430.597 546.668 431.988 543.836 431.782 541.307C431.577 538.779 430.185 536.574 428.842 534.447C433.947 534.061 438.992 533.108 443.885 531.605C445.1 531.38 446.185 530.705 446.923 529.714C447.531 528.655 446.923 526.911 445.669 526.999C447.022 529.417 449.417 531.074 452.157 531.488C454.942 531.824 457.637 530.372 458.889 527.862C460.614 523.942 457.37 519.443 453.656 517.238C447.556 513.687 440.123 513.283 433.674 516.151C432.478 516.566 431.479 517.411 430.871 518.522C430.371 519.669 430.969 521.325 432.214 521.462C433.615 521.09 432.429 518.944 431.106 518.356C425.36 515.844 418.821 515.869 413.094 518.424C410.703 519.502 408.194 521.786 408.948 524.304C406.008 521.776 401.108 521.256 398.472 524.049C395.836 526.842 397.62 532.693 401.471 532.634C397.669 533.114 395.356 538.21 397.551 541.386C398.913 543.346 401.373 544.326 403.343 545.727C409.497 550.176 410.575 559.447 416.73 563.906C414.839 561.535 414.758 558.196 416.531 555.736C418.304 553.277 421.497 552.298 424.344 553.342" fill="#382C80"/>
<path d="M430.792 558.673C430.361 555.811 428.411 554.076 427.166 551.626C426.314 549.951 427.245 551.185 426.951 551.215C427.695 551.127 428.45 551.215 429.195 551.019C430.615 550.689 431.915 549.969 432.948 548.941C437.76 544.208 435.692 537.318 432.713 532.222L428.842 538.955C434.869 538.543 442.64 538.112 448.001 535.035C453.058 532.095 453.264 523.932 446.933 522.462C443.121 521.58 439.201 525.794 441.572 529.429C444.14 533.349 448.177 536.387 453.068 536.289C457.671 536.25 461.789 533.419 463.475 529.135C467.062 519.09 455.89 511.368 447.364 509.908C440.504 508.742 422.139 510.888 426.382 522.001C428.274 526.97 435.869 528.028 437.456 522.177C438.858 517.013 433.85 513.906 429.675 512.691C420.355 509.957 402.372 512.573 404.195 525.637L412.486 520.805C406.763 516.327 397.266 515.317 393.288 522.765C391.703 525.815 391.741 529.454 393.389 532.47C395.037 535.486 398.078 537.484 401.5 537.799L400.128 527.675C395.445 528.774 392 532.76 391.592 537.554C391.092 542.522 394.023 546.05 398.001 548.588C401.696 550.94 403.44 553.616 405.479 557.467C407.752 561.76 410.173 565.464 414.054 568.453C418.219 571.658 424.158 565.415 421.247 561.26C420.042 559.545 420.551 557.487 423.011 558.094C429.165 559.613 431.664 550.49 425.628 548.618C414.936 545.286 406.126 557.232 412.172 566.562L420.424 560.192C415.788 556.497 414.22 550.499 410.722 545.874C408.807 543.423 406.438 541.363 403.744 539.808C402.186 538.828 401.206 537.985 402.872 537.612C408.85 536.28 407.008 527.93 401.5 527.499C402.48 528.116 402.794 528.234 402.48 527.871L402.421 527.705C402.617 527.705 401.735 527.558 402.362 527.469C403.849 527.107 405.418 527.533 406.518 528.596C410.438 531.536 414.358 526.636 413.809 522.991C414.015 524.304 414.465 523.206 415.651 522.667C417.212 522.015 418.865 521.608 420.551 521.462C422.04 521.31 423.542 521.349 425.02 521.58C425.759 521.697 426.489 521.864 427.205 522.079C427.578 522.176 427.944 522.294 428.303 522.432C429.61 523.053 429.557 522.197 428.146 519.865L430.371 516.925L429.881 517.238L433.615 516.748C433.615 520.348 434.487 521.531 436.231 520.296C436.918 520.032 437.618 519.803 438.328 519.61C439.773 519.221 441.262 519.027 442.758 519.032C445.781 518.99 448.756 519.787 451.353 521.335C452.548 522.099 455.714 524.48 454.469 526.235C453.224 527.989 450.549 525.607 449.883 524.578L444.522 531.546C445.221 527.626 444.63 526.127 442.748 527.048L441.523 527.42C440.102 527.842 438.652 528.224 437.201 528.567C434.486 529.203 431.733 529.668 428.96 529.959C425.863 530.272 423.021 533.604 425.098 536.691C426.078 538.181 429.175 541.591 427.196 543.306C426.461 543.973 423.903 543.767 422.844 544.394C421.84 545.001 421.025 545.876 420.492 546.922C419.451 549.142 419.498 551.72 420.62 553.9C421.776 556.232 424.491 557.712 425.255 560.182C426.372 563.798 431.341 562.23 430.802 558.653L430.792 558.673Z" fill="#382C80"/>
<path d="M489.22 557.82C498.363 558.339 507.468 559.378 516.66 559.78C521.116 559.976 525.568 560.159 530.017 560.329C534.653 560.505 539.396 561.034 543.973 560.123C548.549 559.212 548.539 551.773 543.973 550.744C539.406 549.715 534.643 550.156 530.017 550.205C525.568 550.264 521.119 550.323 516.66 550.411C507.507 550.578 498.393 551.391 489.22 551.666C485.241 551.793 485.3 557.546 489.22 557.82Z" fill="#382C80"/>
<path d="M328.157 724.832C329.353 727.507 333.106 728.448 335.772 728.918C338.782 729.595 341.933 729.196 344.68 727.791C347.414 726.331 347.052 721.343 343.769 720.794C341.564 720.422 339.368 720.432 337.163 720.157C334.958 719.883 332.822 718.57 330.421 719.275C328.02 719.981 327.167 722.597 328.157 724.832Z" fill="#382C80"/>
<path d="M445.688 325.56C445.48 329.304 445.602 333.059 446.051 336.781C446.413 339.613 446.629 343.102 447.893 345.679C449.02 347.963 450.833 348.374 453.303 348.384C457.223 348.384 461.143 348.12 465.063 347.786C468.463 347.492 471.874 347.14 475.255 346.62C477.577 346.267 479.606 345.748 480.155 343.229C480.831 339.946 480.223 335.86 480.155 332.508C480.155 328.333 480.155 324.149 479.792 319.984C479.792 318.955 478.959 318.122 477.93 318.122C476.902 318.122 476.068 318.955 476.068 319.984C475.706 325.531 475.872 331.126 475.941 336.644C476.083 338.031 476.102 339.428 476 340.819C475.715 342.445 476.215 341.799 474.824 342.494C472.687 343.543 468.169 343.347 465.739 343.572C463.309 343.798 460.672 343.994 458.134 344.121C455.194 344.258 452.117 345.258 450.941 342.083C449.089 337.075 449.108 330.803 449.226 325.531C449.275 323.228 445.776 323.257 445.669 325.531L445.688 325.56Z" fill="#382C80"/>
<path d="M438.554 393.788C434.105 376.667 432.929 358.743 432.89 341.113C433.002 320.173 434.639 299.27 437.79 278.569C444.003 235.772 454.812 193.162 471.061 153.051C478.636 134.372 487.574 115.977 499.187 99.4446C502.176 95.1914 495.188 91.1636 492.229 95.3776C481.821 110.215 473.609 126.551 466.533 143.192C458.186 162.939 451.144 183.213 445.453 203.883C433.693 246.19 426.098 290.309 425.971 334.311C425.912 354.793 427.588 375.471 433.184 395.287C434.164 398.756 439.514 397.296 438.603 393.788H438.554Z" fill="#382C80"/>
<path d="M624.891 183.333C595.334 184.019 584.545 166.114 581.859 150.248C579.174 134.382 587.112 117.506 600.479 108.48C605.63 104.868 611.624 102.644 617.884 102.022C631.3 100.944 644.521 109.49 650.577 121.524C656.633 133.558 655.977 148.307 650.499 160.606C645.403 172.053 635.377 182.098 622.951 183.725" fill="#382C80"/>
<path d="M624.891 180.206C612.269 179.961 599.009 176.081 591.748 165.026C585.126 154.874 583.747 142.171 588.033 130.834C593.345 116.908 608.29 104.1 623.99 106.736C640.14 109.441 650.107 124.66 650.018 140.34C649.92 157.343 639.385 175.826 621.598 179.07C616.355 180.05 617.482 189.134 622.872 188.497C642.521 186.175 655.869 167.966 658.829 149.297C661.974 129.491 653.664 108.657 634.515 100.425C615.895 92.4279 595.619 101.973 584.966 118.133C575.96 131.833 574.817 149.258 581.957 164.017C589.954 180.755 607.134 187.253 624.852 186.39C628.85 186.194 628.89 180.216 624.852 180.138L624.891 180.206Z" fill="#382C80"/>
<path d="M467.445 182.549C465.979 187.882 465.021 193.342 464.583 198.856C464.609 200.079 465.594 201.064 466.817 201.09C474.942 201.737 483.713 205.775 491.935 202.933C494.796 201.953 494.473 199.091 494.747 196.504C495.218 191.917 495.727 187.302 495.953 182.686C496.08 180.383 492.199 179.746 491.856 182.137C491.366 185.381 491.043 188.644 490.671 191.937C490.328 193.671 490.144 195.432 490.122 197.2C489.593 198.18 489.7 198.611 490.465 198.65C489.342 198.846 488.211 198.984 487.074 199.062C480.047 199.591 473.707 197.102 466.817 196.651L469.052 198.895C469.119 193.722 469.7 188.568 470.786 183.509C471.276 181.343 468.013 180.422 467.445 182.588V182.549Z" fill="#382C80"/>
<path d="M519.286 262.644C505.558 260.153 491.668 258.647 477.725 258.136L478.538 293.818C478.517 294.055 478.591 294.291 478.744 294.474C478.918 294.596 479.13 294.652 479.342 294.631L511.211 294.866C513.676 295.047 516.153 294.744 518.502 293.975C519.891 293.52 521.01 292.477 521.56 291.123C521.748 290.367 521.804 289.585 521.727 288.81L520.658 266.113" fill="white"/>
<path d="M519.776 260.88C506.056 258.342 491.758 256.107 477.724 256.098C476.597 256.103 475.686 257.018 475.686 258.146C476.431 268.612 476.235 279.216 476.421 289.712C476.499 293.808 476.019 296.572 480.723 296.699C486.035 296.836 491.346 296.836 496.658 296.905C501.97 296.973 507.193 297.042 512.446 296.964C515.905 296.915 520.06 296.621 522.461 293.759C525.078 290.643 523.765 285.449 523.588 281.734C523.343 276.423 523.481 270.856 522.422 265.643C521.981 263.467 519.031 264.222 518.826 266.123C518.257 271.464 518.973 277.089 519.218 282.44C519.306 284.341 520.335 289.084 519.345 290.819C517.983 293.181 513.465 292.779 511.211 292.779C506.125 292.779 501.048 292.632 495.962 292.622H487.652C485.104 292.622 481.772 293.142 479.283 292.524L480.713 293.955C479.92 291.358 480.41 287.624 480.341 284.919C480.256 281.94 480.174 278.967 480.096 276.001C479.949 270.063 479.626 264.094 479.773 258.156L477.724 260.204C491.503 261.272 505.164 262.076 518.796 264.437C521.109 264.839 522.109 261.321 519.776 260.89V260.88Z" fill="#382C80"/>
<path d="M487.26 275.727C494.718 275.296 502.126 275.374 509.574 275.531C512.181 275.58 512.181 271.562 509.574 271.484C502.128 271.322 494.678 271.577 487.26 272.248C485.055 272.424 485.016 275.854 487.26 275.727Z" fill="#382C80"/>
<path d="M495.012 282.901L501.01 283.822C501.641 283.952 502.292 283.719 502.698 283.218C503.104 282.717 503.196 282.032 502.938 281.441C502.68 280.851 502.113 280.453 501.47 280.411L495.433 279.765C493.66 279.569 493.228 282.626 495.012 282.901Z" fill="#382C80"/>
<path d="M542.14 370.473C545.822 371.434 549.689 371.434 553.371 370.473C557.614 369.327 555.811 363.045 551.568 363.927C549.058 364.491 546.454 364.491 543.943 363.927C539.7 362.947 537.887 369.415 542.14 370.473Z" fill="#382C80"/>
<path d="M545.746 383.311L549.794 383.4C551.598 383.303 553.012 381.811 553.012 380.004C553.012 378.197 551.598 376.705 549.794 376.608L545.746 376.696C543.929 376.712 542.46 378.182 542.444 379.999C542.475 381.811 543.934 383.275 545.746 383.311Z" fill="#382C80"/>
<path d="M616.914 136.087C614.435 137.214 613.279 140.693 613.818 143.211C614.517 146.074 617.114 148.064 620.06 147.994C622.939 148.044 625.388 145.904 625.725 143.045C626.147 140.201 624.387 137.488 621.618 136.714C620.571 136.508 619.543 137.145 619.26 138.174C618.977 139.202 619.535 140.275 620.54 140.634C621.298 141.055 621.713 141.904 621.579 142.761C621.347 143.677 620.44 144.253 619.511 144.074C618.298 144.023 617.304 143.095 617.169 141.888C616.963 140.399 617.757 139.399 618.669 138.351C619.172 137.833 619.218 137.025 618.777 136.453C618.337 135.882 617.542 135.721 616.914 136.077V136.087Z" fill="white"/>
<path d="M611.72 130.373C604.713 134.744 601.508 143.692 605.438 151.257C609.976 159.969 619.991 161.753 628.488 158.235C637.592 154.462 641.091 145.181 637.171 136.116C633.552 127.789 624.376 123.372 615.611 125.738C612.886 126.483 614.092 130.275 616.747 129.864C623.451 128.825 630.32 131.824 632.927 138.37C635.661 145.23 632.8 151.492 626.067 154.138C620.05 156.5 613.327 155.726 609.633 149.964C606.065 144.446 608.065 136.802 613.337 133.157C615.023 131.99 613.494 129.237 611.71 130.373H611.72Z" fill="white"/>
<path d="M596.707 121.191C590.131 133.441 587.289 148.092 594.649 160.724C601.45 172.396 616.591 178.511 629.517 173.366C631.33 172.641 631.271 169.691 629.027 169.74C622.285 169.858 616.189 171.455 609.584 168.907C604.543 166.834 600.384 163.066 597.824 158.254C591.679 147.278 594.002 133.598 599.598 122.886C600.578 120.926 597.726 119.28 596.658 121.191H596.707Z" fill="white"/>
<path d="M641.326 164.419L642.394 163.027C642.624 162.633 642.684 162.163 642.561 161.724C642.437 161.31 642.16 160.96 641.787 160.744C640.979 160.304 639.969 160.57 639.484 161.351L638.445 162.762C638.221 163.144 638.157 163.6 638.27 164.028C638.382 164.457 638.66 164.823 639.043 165.046C639.43 165.274 639.894 165.334 640.326 165.212C640.73 165.075 641.075 164.805 641.306 164.448L641.326 164.419Z" fill="white"/>
<path d="M624.352 113.782C631.712 116.369 638.308 119.544 642.247 126.62C643.1 128.149 645.756 127.12 645.187 125.405C642.11 116.879 633.241 113.263 625.283 110.577C623.245 109.891 622.392 113.076 624.401 113.782H624.352Z" fill="white"/>
<path d="M600.205 194.034C600.607 201.257 601.185 208.509 601.303 215.751C601.313 216.898 602.243 217.823 603.39 217.829C608.336 217.34 613.306 217.131 618.276 217.201C620.991 217.201 623.705 217.388 626.41 217.623C628.37 217.789 630.673 218.456 632.574 217.878C636.024 216.819 635.563 212.713 635.71 209.812C635.965 204.559 636.24 199.297 636.308 194.034C636.308 191.427 632.525 191.506 632.32 194.034C631.996 197.954 631.781 201.806 631.585 205.696C631.6 207.758 631.501 209.819 631.291 211.87C631.124 212.85 631.428 213.193 630.458 213.732C629.84 214.075 627.753 213.438 627.077 213.379C619.192 212.67 611.255 212.765 603.39 213.664L605.468 215.751C604.703 208.538 604.37 201.267 603.87 194.034C603.704 191.702 600.078 191.663 600.205 194.034Z" fill="white"/>
<path d="M612.573 328.186C612.573 333.537 612.651 338.966 612.328 344.268C612.343 345.454 613.298 346.413 614.484 346.434C622.079 346.826 631.369 346.13 638.454 343.131C640.983 342.063 641.59 340.27 641.306 337.604C640.877 332.916 640.16 328.259 639.16 323.659C638.601 321.317 634.819 321.787 634.917 324.237C635.054 327.255 635.583 330.254 636.004 333.243C636.171 334.458 637.043 336.977 636.72 338.143C637.102 338.957 636.72 339.319 635.603 339.221C634.779 339.476 633.946 339.711 633.113 339.927C627.023 341.432 620.767 342.17 614.493 342.122L616.659 344.288C616.238 338.947 616.267 333.557 616.13 328.206C616.13 327.226 615.336 326.432 614.356 326.432C613.377 326.432 612.582 327.226 612.582 328.206L612.573 328.186Z" fill="white"/>
<path d="M180.01 848.478C177.547 852.964 176.288 858.012 176.355 863.129C176.463 867.559 177.286 873.292 180.373 876.712C183.685 880.377 189.732 879.368 194.181 879.358C200.061 879.358 205.892 879.358 211.743 879.005C217.76 878.662 217.858 869.509 211.743 869.578C207.686 869.578 203.638 869.754 199.591 869.832C195.543 869.911 191.094 869.548 186.978 869.96C186.733 869.96 185.714 869.646 186.233 869.96C186.753 870.273 185.665 868.196 185.577 867.931C184.989 866.176 184.617 864.357 184.469 862.512C184.182 858.616 184.757 854.704 186.155 851.056C187.458 847.479 181.784 845.127 180.01 848.468V848.478Z" fill="#382C80"/>
<path d="M153.374 834.464C152.325 824.086 141.732 817.383 132.049 821.91C127.806 823.87 123.778 828.32 123.837 833.259C123.896 837.865 128.492 841.011 132.657 838.786C133.247 838.428 133.642 837.822 133.732 837.137C133.821 836.453 133.595 835.765 133.117 835.268C126.55 827.228 116.589 822.739 106.216 823.145C101.875 823.371 96.6418 824.605 94.7112 829.025C93.1658 832.302 94.341 836.216 97.4356 838.1C98.3504 838.599 99.4848 838.437 100.223 837.701C100.961 836.965 101.127 835.831 100.63 834.915C97.1024 827.594 88.3314 824.997 80.854 827.222C72.7886 829.623 67.0556 836.512 64.9192 844.499C62.7828 852.486 63.6942 862.051 68.3982 868.999C72.7886 875.467 80.5992 879.123 88.2922 876.957L86.9398 872.057C79.3734 874.411 74.4966 881.751 75.2582 889.638C76.003 897.939 81.9712 904.926 89.5368 908.003C105.276 914.393 122.122 903.211 123.327 886.541L118.574 887.825C122.181 893.135 128.638 895.74 134.921 894.421C142.084 893.068 147.416 887.345 150.777 881.21L146.857 881.72C151.986 886.022 159.226 886.745 165.105 883.543C167.937 882.043 165.428 877.741 162.596 879.24C158.686 881.366 153.885 880.945 150.405 878.172C149.848 877.645 149.084 877.396 148.323 877.495C147.563 877.594 146.888 878.03 146.485 878.682C144.035 883.131 140.526 887.502 135.509 889.07C131.02 890.501 125.709 889.334 123.014 885.258C122.414 884.299 121.258 883.845 120.166 884.141C119.074 884.436 118.305 885.411 118.27 886.541C117.855 892.348 114.872 897.667 110.134 901.049C105.396 904.432 99.3973 905.526 93.7704 904.034C87.7794 902.494 82.9808 898.017 81.0304 892.147C79.1292 885.944 81.932 878.927 88.3902 876.986C91.5262 876.006 90.213 871.155 87.0378 872.086C72.72 876.085 67.183 857.563 69.4566 846.969C70.76 841.04 74.19 835.65 79.7564 832.926C85.6364 830.044 93.4764 830.966 96.6026 837.306L99.7876 834.111C98.6205 833.358 98.2792 831.805 99.0232 830.632C99.9444 828.81 102.512 828.231 104.354 827.947C107.587 827.491 110.878 827.661 114.047 828.447C120.292 829.941 125.871 833.45 129.923 838.433L130.373 834.915C128.453 834.425 127.799 833.396 128.413 831.828C128.62 831.024 128.951 830.257 129.393 829.554C129.994 828.583 130.749 827.716 131.628 826.987C133.661 825.304 136.202 824.355 138.841 824.292C144.544 824.213 149.278 828.937 149.954 834.464C150.218 836.62 153.619 836.689 153.394 834.464H153.374Z" fill="#382C80"/>
<path d="M58.7746 783.681C53.2572 786.621 45.7308 786.523 40.9582 782.064C38.4886 779.761 37.8516 776.615 40.1546 773.93C42.4576 771.244 45.9366 770.735 49.2098 770.509C50.0154 770.494 50.7541 770.058 51.1556 769.359C51.5571 768.661 51.5624 767.803 51.1698 767.099C48.2298 760.327 56.1972 753.987 61.891 752.164C70.7796 749.322 72.8964 760.219 70.9854 766.619C70.7202 767.703 71.2002 768.832 72.1647 769.394C73.1293 769.955 74.3483 769.815 75.1602 769.049C77.7768 766.364 82.0986 763.875 85.3816 767.089C87.816 769.576 88.1564 773.436 86.195 776.311C81.5302 783.377 72.3182 781.211 65.7228 778.771C63.2434 777.84 61.695 781.711 63.9392 783.004C73.406 788.336 90.0366 787.561 92.3592 774.322C93.1848 769.521 91.0927 764.687 87.028 762.003C81.7164 758.759 75.4836 761.386 71.5832 765.56L75.758 767.991C78.3452 758.593 73.798 744.471 61.7244 747.342C52.3262 749.586 42.6242 759.396 47.2204 769.441L49.1804 766.031C44.6332 766.433 39.9684 767.491 36.8912 771.137C34.1292 774.237 33.6969 778.771 35.823 782.338C40.821 790.59 52.8358 791.158 60.4308 786.601C61.1852 786.119 61.4234 785.126 60.9701 784.354C60.5168 783.582 59.5341 783.306 58.7452 783.73L58.7746 783.681Z" fill="#382C80"/>
<path d="M587.828 555.733C590.454 558.957 593.61 557.291 597.03 557.8C600.107 558.261 601.646 562.397 602.547 564.974C605.86 574.333 608.614 583.957 611.367 593.492C616.944 612.886 621.677 632.525 626.146 652.194C627.302 657.28 634.78 655.075 633.878 650.058C630.02 629.065 625.025 608.298 618.913 587.847C616.13 578.38 613.729 568.326 609.613 559.339C608.084 556.007 605.811 552.832 602.508 551.068C600.823 550.189 598.939 549.761 597.04 549.823C595.746 549.823 593.041 551.038 591.934 550.421C588.406 548.461 585.486 552.832 587.838 555.733H587.828Z" fill="#382C80"/>
<path d="M949.428 763.081C951.49 762.489 953.487 761.687 955.387 760.69C957.445 759.71 955.965 756.143 953.828 756.995C951.783 757.671 949.813 758.554 947.948 759.631C947.172 760.132 946.868 761.119 947.228 761.97C947.588 762.821 948.508 763.29 949.409 763.081H949.428Z" fill="#382C80"/>
<path d="M957.895 787.356L961.874 788.669C962.473 788.833 963.114 788.666 963.556 788.23C963.997 787.794 964.173 787.155 964.016 786.554C963.859 785.953 963.394 785.482 962.795 785.317L958.875 783.926C957.928 783.655 956.941 784.203 956.67 785.151C956.4 786.098 956.948 787.085 957.895 787.356Z" fill="#382C80"/>
<path d="M955.827 815.952L962.472 821.234C964.187 822.596 966.637 820.195 964.912 818.794L958.297 813.482C956.562 812.081 954.073 814.551 955.827 815.952Z" fill="#382C80"/>
</svg>
