<svg width="1000" height="1000" viewBox="0 0 1000 1000" fill="none" xmlns="http://www.w3.org/2000/svg">
<path d="M207.431 149.219C176.231 144.934 145.488 137.806 115.585 127.923C100.918 123.082 86.4859 117.588 72.2889 111.44C66.5461 108.96 42.9771 96.5242 48.2789 114.929C49.8371 120.338 54.9135 123.866 59.7253 126.787C82.0987 140.399 106.236 150.816 130.824 159.715C136.567 161.802 198.268 180.549 198.19 181.275C199.454 169.838 201.286 159.274 207.431 149.219Z" fill="#7F72FF"/>
<path d="M208.185 146.494C174.11 141.761 140.251 132.5 108 120.818C94.9851 116.095 82.2353 110.793 69.5933 105.138C63.3507 102.365 54.0309 97.8472 47.3571 101.757C37.4689 107.539 45.4657 121.916 51.7671 126.836C57.7451 131.491 64.8011 135.019 71.4651 138.596C78.7955 142.516 86.2925 146.161 93.8679 149.601C112.324 157.828 131.263 164.927 150.581 170.857C160.381 173.934 170.181 177.028 179.981 180.138C183.901 181.382 187.742 182.627 191.603 183.921L195.053 185.106C195.426 185.298 195.821 185.442 196.229 185.538C195.315 185.22 194.557 184.564 194.112 183.705C196.709 188.154 202.54 185.734 203.05 181.284C204.255 170.749 206.46 160.949 211.517 151.561C214.369 146.269 206.715 141.82 203.481 146.867C196.846 157.196 194.828 169.289 193.456 181.284L202.393 178.864C200.531 175.659 194.259 174.699 191.055 173.67C183.391 171.2 175.698 168.829 168.015 166.447C154.638 162.302 141.075 158.607 127.923 153.707C113.151 148.45 98.6917 142.351 84.6167 135.44C77.7567 131.971 70.8967 128.296 64.3013 124.288C59.6071 121.436 51.9043 117.428 52.1493 110.813C52.2277 108.931 53.3155 109.548 55.6871 110.019C59.1038 110.801 62.4257 111.952 65.5949 113.449C77.0511 118.466 88.6151 123.141 100.414 127.277C135.018 139.389 170.426 146.877 206.686 151.963C210.233 152.433 211.772 146.994 208.185 146.494Z" fill="#7F72FF"/>
<path d="M404.813 333.273C454.734 371.14 517.072 395.111 580.233 392.22C614.533 390.652 649.235 380.244 675.567 358.204C698.274 339.192 713.709 312.369 721.755 283.871C729.8 255.372 730.741 225.218 727.635 195.769C726.351 183.509 726.704 174.738 735.181 166.094C741.472 159.666 741.276 151.963 736.484 143.251C727.978 127.786 707.162 119.456 690.15 120.289C671.285 121.21 653.468 130.932 640.562 144.721C620.687 165.947 612.318 196.259 604.135 223.444C599.147 239.977 593.267 258.665 584.535 273.62C576.254 287.732 558.604 285.302 543.747 282.254C528.891 279.206 516.092 272.562 501.666 267.662C485.644 262.224 469.359 257.596 452.872 253.795C442.425 251.394 431.851 249.306 421.149 248.728C403.506 247.798 385.886 250.95 369.66 257.94" fill="white"/>
<path d="M403.284 335.889C457.253 376.873 526.519 402.823 594.943 394.591C627.684 390.671 659.877 378.49 684.123 355.528C708.368 332.567 723.009 301.08 729.154 268.661C732.545 250.109 733.73 231.22 732.682 212.39C732.25 203.658 730.722 194.877 730.839 186.135C730.813 182.655 731.479 179.203 732.799 175.983C734.455 172.2 737.405 169.593 739.836 166.379C748.832 154.53 740.541 138.939 730.751 130.413C720.432 121.485 706.427 116.614 692.825 116.546C660.162 116.379 633.907 140.889 620.07 168.486C604.988 198.581 600.607 232.666 586.054 262.948C582.859 269.592 579.664 276.668 572.334 279.343C565.729 281.774 558.124 280.99 551.342 279.882C534.545 277.128 519.522 269.886 503.577 264.359C485.226 257.996 466.494 252.789 447.492 248.767C429.45 244.955 411.359 243.524 393.131 246.925C384.485 248.619 376.058 251.288 368.014 254.882C364.447 256.431 367.034 262.722 370.689 261.233C386.972 254.441 404.583 251.425 422.198 252.413C440.896 253.569 459.536 258.724 477.47 263.859C494.463 268.759 510.604 275.276 527.195 281.215C539.827 285.733 554.792 289.672 568.355 287.791C583.32 285.703 589.415 274.012 594.952 261.252C601.381 246.454 605.86 230.951 610.515 215.526C619.433 185.979 630.066 153.619 656.996 135.577C669.442 127.247 684.818 122.141 699.881 124.366C713.601 126.385 727.997 133.676 734.269 146.573C735.935 149.983 737.121 153.991 736.121 157.774C735.122 161.557 731.829 164.105 729.546 167.182C725.98 172.102 723.936 177.959 723.666 184.028C723.146 192.202 724.724 200.483 725.234 208.617C725.805 217.559 725.926 226.524 725.596 235.478C724.293 269.416 715.326 303.334 695.5 331.264C676.361 358.233 647.823 375.609 615.973 383.478C551.342 399.452 481.243 379.489 426.373 344.386C419.581 340.044 412.976 335.429 406.528 330.597C403.402 328.255 400.413 333.537 403.47 335.821L403.284 335.889Z" fill="#382C80"/>
<path d="M499.069 597.079C498.952 610.152 497.511 623.539 492.082 635.377C484.428 652.145 469.434 664.611 453.127 673.186C411.879 694.893 372.453 687.709 329.441 678.938C304.01 673.744 261.762 668.158 241.006 691.874C235.733 697.891 229.02 703.732 221.249 704.114C212.743 704.526 205.647 697.96 203.06 690.12C200.473 682.28 201.473 673.578 202.992 665.208C207.499 640.762 215.97 617.216 228.07 595.501C230.471 591.179 233.313 586.681 237.801 584.515C240.465 583.433 243.306 582.855 246.18 582.81C277.766 580.595 308.832 584.594 339.378 589.807C368.112 594.707 395.238 596.197 425.02 593.482" fill="#382C80"/>
<path d="M496.609 597.079C496.256 619.09 489.945 639.728 473.393 654.899C457.419 669.53 436.055 678.625 414.809 681.966C375.158 688.209 337.643 672.48 298.522 670.206C282.597 669.226 265.574 670.569 251.266 678.203C243.603 682.3 238.899 688.64 232.47 694.167C224.63 700.929 214.261 701.655 208.803 691.551C203.423 681.604 207.078 668.266 209.381 657.947C211.831 647.027 215.084 636.303 219.112 625.861C223.046 615.282 227.937 605.084 233.724 595.393C236.86 590.287 240.202 588.229 246.16 587.681C252.55 587.102 259.028 587.034 265.437 587.053C293.073 587.142 319.964 591.953 347.208 595.942C372.956 599.799 399.073 600.552 425.001 598.186C430.881 597.637 431.008 588.386 425.001 588.876C399.306 591.05 373.446 590.221 347.943 586.407C322.091 582.487 296.454 578.008 270.229 577.469C263.82 577.342 257.401 577.469 250.992 577.743C245.288 578.037 239.095 578.067 234.048 581.105C224.845 586.642 220.073 599.725 215.81 609.035C210.683 620.155 206.423 631.655 203.07 643.433C199.797 655.007 196.465 667.6 196.661 679.693C196.827 689.904 200.581 700.43 209.793 705.81C218.466 710.867 228.364 708.583 236.017 702.791C243.446 697.166 248.375 689.669 256.891 685.377C264.869 681.359 273.973 679.683 282.812 679.124C301.158 677.968 319.072 681.447 336.938 685.004C359.321 689.405 382.273 693.06 405.146 691.09C430.42 688.905 455.498 679.575 474.883 662.974C483.801 655.549 490.876 646.156 495.551 635.534C500.706 623.333 501.431 610.24 501.539 597.167C501.539 593.992 496.639 593.992 496.639 597.167L496.609 597.079Z" fill="#382C80"/>
<path d="M325.305 487.809C319.631 479.832 314.525 470.845 314.329 461.055C314.055 447.815 323.042 435.751 334.302 428.783C384.282 397.874 434.174 428.95 467.895 468.081C500.863 506.301 517.503 557.105 515.543 607.369C515.014 620.981 513.132 634.897 507.203 647.451C498.854 665.091 483.125 678.566 466.161 688.003C423.266 711.866 383.135 705.643 339.388 697.803C326.295 695.471 315.3 695.637 302.599 696.608C288.232 697.715 288.085 686.435 286.488 673.372C283.636 649.901 284.684 624.48 291.603 601.734C298.806 578.096 319.533 586.416 339.359 589.797C368.092 594.697 395.219 596.187 425.001 593.472" fill="#7F72FF"/>
<path d="M327.432 486.564C318.827 474.275 313.428 460.055 321.552 446.061C328.804 433.634 343.112 426.324 356.557 422.541C383.017 415.093 409.703 424.403 431.469 439.759C477.578 472.315 506.096 527.264 510.515 583.045C512.789 611.74 510.78 642.463 489.935 664.385C470.032 685.279 440.406 697.274 411.967 699.528C397.806 700.645 383.547 699.695 369.493 697.862C354.96 695.961 340.564 692.315 325.923 691.394C318.426 691.039 310.913 691.161 303.432 691.757C298.61 692.07 295.131 691.659 293.445 686.759C291.76 681.859 291.485 676.067 290.946 670.824C290.138 663.237 289.765 655.61 289.829 647.98C289.927 632.682 291.642 616.943 296.474 602.351C299.982 591.777 308.234 589.611 318.435 590.817C330.323 592.267 342.014 595.295 353.911 596.844C369.456 598.921 385.134 599.832 400.814 599.568C408.899 599.411 416.955 598.911 425.001 598.167C430.881 597.618 430.998 588.367 425.001 588.857C407.341 590.369 389.588 590.461 371.914 589.131C356.43 587.935 341.358 585.211 326.119 582.369C315.936 580.497 304.314 579.135 295.739 586.211C291.054 590.072 288.457 595.638 286.732 601.332C284.385 609.347 282.7 617.541 281.695 625.832C279.529 642.57 280.039 659.289 281.989 676.008C283.155 685.984 284.429 698.646 296.307 701.125C303.843 702.693 312.34 700.704 320.013 700.822C328.451 700.959 336.624 702.262 344.915 703.703C360.664 706.457 376.54 708.956 392.533 709.583C425.01 710.808 457.38 702.311 483.389 682.358C494.992 673.46 505.341 662.406 511.466 649.038C518.218 634.26 520.021 617.894 520.198 601.802C520.854 539.298 493.14 478.058 443.856 439.24C421.404 421.6 393.68 409.027 364.564 413.554C338.966 417.543 303.98 438.142 312.624 468.963C314.672 476.274 318.837 482.87 323.179 489.024C324.992 491.592 329.264 489.142 327.432 486.535V486.564Z" fill="#7F72FF"/>
<path d="M393.778 498.726C433.527 582.653 451.598 680.781 467.719 770.892C472.07 795.196 479.283 829.035 504.959 835.964C512.162 837.924 519.796 841.305 523.167 848.41C526.852 856.191 523.981 866.167 518.316 872.518C512.652 878.868 504.782 882.318 497.031 885.042C474.744 892.968 451.208 896.796 427.558 896.341C422.913 896.243 417.915 895.842 414.348 892.686C412.238 890.748 410.613 888.341 409.605 885.659C380.313 811.307 383.517 751.086 362.349 688.278C354.666 665.483 338.829 648.098 328.814 626.293C318.465 603.674 302.765 584.035 291.691 561.799C274.32 526.644 269.029 486.742 276.638 448.276" fill="#382C80"/>
<path d="M391.651 500C405.979 530.488 416.749 562.994 425.951 595.344C435.339 628.213 442.866 661.592 449.471 695.118C455.488 725.498 459.585 756.427 466.298 786.679C471.256 808.974 480.527 833.357 504.42 840.491C511.162 842.51 518.816 845.911 520.1 853.682C521.452 861.659 516.385 869.421 510.113 873.831C503.841 878.241 496.178 880.75 488.857 883.053C480.194 885.771 471.353 887.887 462.397 889.383C453.563 890.869 444.63 891.691 435.673 891.843C428.46 891.961 419.013 893.215 414.897 885.904C410.604 878.26 408.291 868.754 405.645 860.424C402.999 852.094 400.745 843.96 398.619 835.63C390.975 805.25 386.741 774.224 380.979 743.452C378.32 728.557 374.916 713.806 370.777 699.254C366.435 684.238 360.061 669.885 351.834 656.594C347.541 649.626 343.014 642.786 339.005 635.671C334.997 628.556 331.753 621.03 327.882 613.827C319.954 599.068 310.301 585.338 301.952 570.825C285.026 541.687 276.758 508.327 278.118 474.657C278.479 466.224 279.462 457.829 281.058 449.54C282.185 443.66 273.218 441.171 272.081 447.06C265.202 481.165 268.208 516.526 280.744 548.98C287.222 565.552 296.424 580.585 305.842 595.609C310.438 602.939 315.025 610.309 319.151 617.904C323.188 625.352 326.481 633.153 330.675 640.512C339.074 655.212 349.609 669.001 355.901 684.867C361.781 699.793 365.514 715.816 368.797 731.496C375.54 763.306 379.46 795.646 386.741 827.32C390.779 845.096 395.981 862.588 402.313 879.681C404.91 886.669 407.311 894.47 414.328 898.301C421.188 901.976 430.106 901.055 437.544 900.8C455.806 900.2 473.904 897.137 491.346 891.696C505.801 887.159 521.785 881.073 527.538 865.697C533.163 850.654 524.451 837.982 510.251 832.926C504.126 830.75 498.638 829.29 493.708 824.752C489.458 820.662 485.99 815.83 483.477 810.493C477.852 799.214 475.108 786.562 472.697 774.233C469.502 757.652 466.572 741.021 463.367 724.449C450.098 655.575 435.32 585.26 406.674 520.805C403.195 512.965 399.569 505.214 395.894 497.481C394.542 494.61 390.299 497.119 391.641 499.971L391.651 500Z" fill="#382C80"/>
<path d="M399.06 462.26C448.129 553.488 473.07 677.321 489.22 767.432C490.2 772.734 490.592 778.006 493.669 782.416C496.746 786.826 501 787.316 501.392 793.02C501.833 799.233 495.041 805.035 490.612 808.122C466.077 824.976 437.122 834.23 407.361 834.729C392.416 834.954 382.861 826.095 381.008 811.591C378.708 794.987 375.575 778.508 371.62 762.219C366.416 739.679 361.007 717.07 353.598 695.098C345.915 672.304 338.8 648.058 328.823 626.293C318.475 603.674 302.775 584.035 291.701 561.799C274.33 526.644 269.039 486.742 276.648 448.276" fill="#7F72FF"/>
<path d="M396.894 463.495C409.722 487.554 419.914 513.299 429.048 538.955C438.358 565.131 446.306 591.797 453.332 618.668C466.592 669.364 476.617 720.951 485.506 772.528C486.544 778.594 488.446 784.141 493.071 788.404C495.129 790.305 497.452 791.609 496.629 794.843C495.913 797.675 493.336 800.047 491.209 801.899C480.939 810.797 467.072 817.04 454.381 821.558C440.577 826.537 426.09 829.366 411.427 829.946C400.206 830.338 389.946 827.359 386.545 815.442C384.585 808.475 384.272 800.85 383.056 793.716C381.753 786.091 380.224 778.516 378.578 770.96C375.177 755.368 371.512 739.806 367.406 724.371C363.3 708.936 358.243 693.785 353.274 678.595C348.531 664.121 343.798 649.617 338.045 635.475C332.442 621.957 325.715 608.933 317.935 596.54C310.037 583.8 301.687 571.266 295.131 557.751C282.244 531.223 276.707 501.372 278.353 471.982C278.785 464.414 279.725 456.884 281.166 449.442C282.283 443.562 273.375 441.073 272.189 446.962C266.049 477.363 267.735 508.826 277.089 538.396C281.883 552.979 288.341 566.961 296.336 580.066C304.323 593.443 313.182 606.31 320.444 620.119C327.951 634.397 333.419 649.685 338.574 664.944C343.896 680.702 349.354 696.49 354.009 712.444C363.515 744.784 371.483 778.104 376.059 811.522C377.568 822.528 382.919 832.426 393.582 836.875C405.596 841.912 421.022 838.835 433.34 836.522C448.273 833.729 462.719 828.777 476.225 821.822C486.25 816.667 501.94 809.19 505.243 797.224C506.84 791.442 504.518 786.64 500.274 782.848C494.669 777.84 494.316 771.225 493.052 764.228C490.752 751.461 488.37 738.721 485.907 726.008C480.596 698.568 474.585 671.278 467.875 644.138C454.008 587.965 437.437 530.978 410.82 479.42C407.654 473.266 404.381 467.16 401.108 461.065C399.599 458.262 395.355 460.751 396.855 463.544L396.894 463.495Z" fill="#7F72FF"/>
<path d="M343.367 251.305C335.948 248.042 325.952 252.207 318.484 255.353C289.271 267.681 276.423 300.795 270.464 329.705C266.544 348.923 260.361 369.601 260.331 389.319C260.331 395.346 261.86 401.196 261.889 407.214C261.948 417.572 259.929 427.617 260.772 438.054C261.488 447.109 263.281 456.37 260.978 465.161C259.998 469.081 258.136 472.805 257.842 476.823C257.548 480.841 259.381 485.476 263.252 486.623C268.034 488.034 272.346 483.683 275.698 479.949C287.595 466.915 302.334 460.682 317.671 452.989C334.502 444.572 352.774 439.415 371.522 437.79C384.135 436.692 396.218 437.79 408.762 439.269C416.357 440.142 430.685 444.316 437.535 440.249C439.931 438.646 441.632 436.195 442.298 433.389C444.356 426.069 441.318 418.209 437.074 411.918C428.254 398.952 416.014 389.515 418.67 372.169C420.434 360.654 423.736 349.374 424.55 337.761C425.363 326.148 423.423 313.702 415.896 304.823" fill="white"/>
<path d="M344.18 248.503C335.155 245.063 325.315 249.149 316.985 252.726C308.865 256.236 301.534 261.342 295.425 267.74C282.911 280.774 275.433 298.022 270.553 315.192C267.75 325.06 265.859 335.184 263.566 345.18C260.959 356.567 258.43 368.023 257.362 379.685C256.265 391.7 258.92 403.382 258.107 415.387C257.715 421.11 257.078 426.823 257.058 432.556C257.058 438.975 258.127 445.296 258.46 451.706C258.743 457.624 257.905 463.542 255.99 469.15C254.52 473.746 253.511 478.43 255.265 483.095C258.646 492.042 268.074 491.915 274.542 486.368C278.462 483.036 281.627 478.959 285.606 475.667C290.327 471.878 295.393 468.542 300.737 465.7C310.667 460.082 320.956 455.126 331.538 450.863C354.706 441.906 378.578 439.769 403.147 442.347C417.661 443.875 444.748 453.127 446.551 430.234C447.443 419.013 440.299 409.752 433.811 401.441C426.608 392.278 420.571 383.547 422.541 371.346C426.285 348.227 435.046 322.63 418.543 302.246C415.603 298.581 410.448 303.784 413.368 307.42C427.157 324.57 419.15 348.335 415.74 367.573C414.25 376.02 414.407 383.703 418.19 391.553C421.738 398.923 427.52 404.911 432.282 411.467C436.712 417.553 445.15 433.478 434.095 437.731C427.108 440.426 417.435 436.8 410.311 435.771C389.447 432.88 368.602 432.939 348.071 437.946C328.775 442.66 309.969 451.559 292.926 461.692C284.538 466.68 278.001 472.854 271.053 479.596C269.455 481.145 266.809 483.889 264.291 483.085C262.096 482.38 261.547 479.361 261.566 477.431C261.566 472.139 264.722 466.905 265.428 461.623C266.868 450.735 263.938 439.848 264.34 428.93C264.732 418.239 265.967 408.066 264.614 397.374C261.88 375.814 268.916 354.098 273.326 333.175C277.148 315.113 282.146 297.13 292.554 281.627C297.643 273.817 304.322 267.169 312.154 262.115C320.239 257.068 333.048 250.57 342.632 254.108C346.16 255.412 347.64 249.816 344.18 248.503Z" fill="#382C80"/>
<path d="M366.132 491.18C369.513 500.304 362.663 509.173 361.114 518.012C359.517 527.126 364.436 536.24 367.386 544.619C374.671 565.356 381.557 586.224 388.045 607.222C401.137 649.519 412.652 692.286 422.893 735.367C428.705 759.808 433.673 784.425 439.367 808.867C439.887 811.091 443.15 810.121 442.758 807.887C435.016 764.384 424.138 721.186 412.741 678.527C401.343 635.867 388.593 593.335 374.07 551.519C371.999 545.58 369.905 539.657 367.788 533.751C365.632 527.783 363.966 522.511 365.456 516.111C367.465 507.497 372.766 499.226 369.189 490.278C368.445 488.416 365.416 489.181 366.132 491.121V491.18Z" fill="white"/>
<path d="M349.021 495.423C348.534 498.959 347.064 502.286 344.778 505.027C344.354 505.529 344.24 506.222 344.481 506.833C344.721 507.443 345.278 507.873 345.93 507.95C346.582 508.027 347.223 507.74 347.6 507.203C350.146 503.797 351.586 499.693 351.726 495.443C351.814 493.659 349.227 493.767 349.021 495.443V495.423Z" fill="white"/>
<path d="M476.48 793.353C478.979 791.736 481.469 790.109 483.928 788.453C485.83 787.16 484.075 784.082 482.106 785.337C479.607 786.944 477.137 788.6 474.667 790.237C472.756 791.521 474.53 794.617 476.48 793.343V793.353Z" fill="#7F72FF"/>
<path d="M310.762 683.113C309.877 679.46 309.404 675.719 309.351 671.961C309.287 671.161 308.62 670.545 307.818 670.545C307.015 670.545 306.348 671.161 306.284 671.961C306.22 676 306.711 680.03 307.744 683.936C308.244 685.896 311.243 685.063 310.762 683.113Z" fill="white"/>
<path d="M299.688 541.052C304.647 538.994 309.4 536.917 314.653 535.701L312.252 533.32C310.39 537.906 312.085 542.14 314.476 546.178C317.578 551.138 320.392 556.271 322.904 561.554C325.309 567.012 327.202 572.681 328.559 578.488C330.088 584.976 331.499 591.385 328.03 597.441C327.703 598.256 327.957 599.189 328.652 599.725C329.348 600.261 330.315 600.269 331.019 599.744C338.232 592.659 333.165 578.233 330.568 570.119C328.808 564.632 326.592 559.302 323.943 554.184C321.003 548.579 313.692 540.954 316.005 534.349C316.181 533.676 315.986 532.96 315.495 532.468C315.003 531.977 314.287 531.782 313.614 531.958C308.342 533.32 303.02 535.113 298.502 538.22C297.199 539.131 297.973 541.738 299.688 541.023V541.052Z" fill="white"/>
<path d="M318.348 255.186C269.779 253.951 206.363 265.349 176.953 269.298C163.557 271.092 150.297 271.013 136.92 272.003C124.856 272.895 114.625 286.625 110.215 296.797C109.745 297.895 109.314 299.012 108.922 300.139C104.592 312.815 105.509 326.696 111.47 338.692C117.673 351.02 128.943 360.37 141.575 365.926C154.207 371.483 168.172 373.511 181.981 373.717C187.609 373.945 193.243 373.434 198.739 372.198C211.155 369.052 221.504 360.615 233.137 355.538C246.71 349.599 294.426 345.807 308.508 341.25" fill="white"/>
<path d="M318.347 252.276C283.753 250.786 249.091 255.216 214.918 260.116C201.002 262.076 187.106 264.594 173.121 266.133C162.684 267.289 152.169 267.456 141.692 268.093C133.715 268.563 127.414 270.21 121.201 275.472C108.627 286.135 101.601 303.383 102.679 319.729C103.776 336.673 112.812 351.324 126.287 361.34C141.242 372.463 160.038 376.638 178.374 377.353C188.115 377.735 197.68 377.137 206.794 373.433C215.349 369.915 222.993 364.682 231.245 360.556C243.073 354.676 257.45 353.578 270.357 351.667C283.263 349.756 296.964 348.649 309.37 344.454C313.29 343.131 311.693 337.065 307.655 338.231C297.806 341.064 287.252 341.995 277.128 343.386C265.123 345.033 252.991 346.62 241.182 349.374C227.55 352.549 216.878 361.526 204.079 366.681C194.995 370.346 185.332 370.473 175.659 369.915C166.076 369.482 156.608 367.653 147.553 364.486C132.177 358.9 117.878 347.62 112.439 331.724C106.976 315.415 110.746 297.427 122.298 284.684C124.682 281.931 127.523 279.61 130.697 277.824C134.754 275.668 139.095 275.649 143.584 275.413C153.433 274.874 163.311 274.669 173.111 273.581C185.43 272.209 197.67 270.092 209.92 268.299C245.768 263.046 282.038 258.175 318.337 258.263C322.091 258.263 322.061 252.599 318.337 252.442L318.347 252.276Z" fill="#382C80"/>
<path d="M605.429 222.66C611.103 202.648 613.406 181.284 617.11 160.822C617.845 156.765 619.208 152.002 623.157 150.816C627.489 149.542 631.497 153.688 633.496 157.735C635.636 162.101 636.964 166.82 637.416 171.661C637.592 173.464 637.681 175.365 638.641 176.904C640.866 180.471 646.011 180.089 650.195 180.54C656.78 181.25 662.639 185.037 665.991 190.749C669.343 196.461 669.791 203.424 667.198 209.518" fill="white"/>
<path d="M608.113 223.444C612.259 209.812 614.856 195.906 617.188 181.863C618.335 175.003 619.256 168.015 620.785 161.224C621.206 159.332 621.902 155.148 624.205 154.658C627.468 153.972 629.889 159.558 630.79 161.841C632.839 166.986 632.162 172.954 634.387 177.874C636.612 182.794 641.325 184.077 646.265 184.558C651.762 185.087 656.643 186.077 660.475 190.438C664.894 195.504 665.375 202.286 663.17 208.421C661.347 213.556 669.226 215.486 671.206 210.635C673.703 204.358 673.575 197.34 670.849 191.158C668.124 184.976 663.03 180.147 656.711 177.756C653.763 176.773 650.693 176.202 647.588 176.061C646.078 175.924 643.579 176.061 642.403 174.846C641.227 173.631 641.521 170.485 641.286 168.966C640.306 162.459 638.052 155.02 633.133 150.346C629.085 146.494 622.764 145.162 618.325 149.199C613.19 153.864 613.052 162.684 612.072 168.985C609.289 186.684 607.172 204.579 602.743 221.974C601.871 225.453 607.065 226.874 608.113 223.454V223.444Z" fill="#382C80"/>
<path d="M313.937 340.113C284.037 345.474 256.656 360.085 227.501 368.602C173.081 384.497 91.2807 385.262 57.2159 331.783C49.4837 319.68 44.7503 305.833 40.9675 291.936C31.7947 258.244 33.2451 225.071 39.9287 190.918C43.7409 171.514 47.9255 144.691 59.7737 128.453C62.4385 124.966 65.5638 121.857 69.0641 119.211C85.3811 106.373 107.735 99.5132 127.364 106.265C135.204 108.951 142.211 113.655 150.179 115.879C157.568 117.947 165.271 118.662 172.513 121.416C181.333 124.758 188.085 132.069 189.173 141.624C189.585 145.064 187.879 149.327 184.42 149.63C174.355 150.493 170.112 136.596 158.548 140.507C148.748 143.819 147.709 153.942 153.246 161.537C156.3 165.687 160.302 169.047 164.918 171.337C169.681 173.699 176.845 175.963 177.021 182.46C177.188 188.223 174.914 195.2 172.934 200.522C165.927 219.406 157.793 237.899 151.923 257.166C146.053 276.433 142.466 296.748 144.877 316.75" fill="white"/>
<path d="M313.134 337.193C281.578 342.935 253.04 358.37 222.19 366.593C199.714 372.621 176.46 375.234 153.207 374.344C130.305 373.364 106.814 368.464 87.1456 356.185C63.0964 341.152 51.3658 316.74 44.3 290.035C35.3722 256.48 37.6752 222.337 44.153 188.595C46.7402 175.12 49.1804 161.508 53.7864 148.533C56.0502 142.163 58.8922 135.793 62.9788 130.315C67.6926 124.052 74.5918 119.231 81.393 115.468C94.2604 108.372 109.813 104.962 124.19 109.127C131.304 111.185 137.665 115.144 144.534 117.839C152.159 120.779 160.381 121.465 168.182 123.837C174.895 125.875 180.99 129.717 183.979 136.342C184.959 138.576 187.115 144.25 184.136 145.71C182.068 146.69 179.236 144.603 177.609 143.496C173.925 140.928 170.651 137.694 166.153 136.567C160.945 135.439 155.509 136.838 151.492 140.34C142.32 148.288 146.759 160.92 154.227 168.221C158.882 172.758 164.536 174.591 169.907 177.952C176.286 181.97 172.435 191.035 170.455 196.808C159.675 228.168 144.505 257.832 141.153 291.289C140.312 299.768 140.423 308.315 141.487 316.769C142.026 321.111 148.876 321.258 148.425 316.769C144.77 279.823 159.587 245.435 172.66 211.792C176.757 201.218 187.253 181.823 175.473 172.817C170.181 168.77 163.713 167.349 158.921 162.429C154.677 158.078 150.61 149.954 156.961 145.387C162.361 141.467 167.045 144.642 171.494 148.043C175.297 150.983 179.481 153.707 184.499 153.296C190.379 152.815 193.319 146.965 192.937 141.604C192.545 135.43 189.301 129.384 184.979 125.072C173.533 113.655 155.324 114.997 141.349 108.412C134.489 105.168 127.737 101.885 120.152 100.679C112.889 99.5653 105.483 99.7844 98.298 101.326C83.9312 104.266 69.0058 112.185 59.2548 123.288C50.0526 133.735 45.6132 148.013 42.34 161.253C34.2942 193.476 28.62 227.56 31.658 260.802C34.4804 291.182 43.5062 325.482 65.3406 348.022C82.128 365.319 105.295 374.864 128.737 378.931C153.031 383.145 178.119 382.302 202.345 378.029C232.901 372.639 260.517 359.272 289.78 349.609C297.947 346.875 306.285 344.681 314.741 343.043C318.573 342.318 316.936 336.516 313.134 337.212V337.193Z" fill="#382C80"/>
<path d="M390.436 406.243C403.49 402.774 416.847 400.148 429.068 407.586C431.822 409.262 435.173 405.165 432.596 403.009C420.023 392.504 403.196 396.943 389.015 401.098C385.732 402.078 387.104 407.125 390.436 406.243Z" fill="#382C80"/>
<path d="M339.28 232.568C349.433 237.301 365.995 238.654 373.58 228.55C375.697 225.747 371.728 222.67 369.101 224.081C364.564 226.453 360.967 229.03 355.656 229.579C350.774 230.065 345.845 229.438 341.24 227.746C338.457 226.766 336.497 231.304 339.211 232.568H339.28Z" fill="#382C80"/>
<path d="M343.2 130.177C352.069 126.855 364.692 124.601 372.796 130.991C377.784 134.911 380.705 140.791 383.988 146.24C387.271 151.688 391.504 157.108 397.58 158.931C401.853 160.214 406.616 159.548 410.683 161.361C418.415 164.781 420.042 175.14 418.631 183.47C415.691 200.884 402.951 206.627 386.8 204.765C379.509 203.922 371.728 206.353 364.329 206.363C346.091 206.363 327.569 202.06 312.007 191.829" fill="#382C80"/>
<path d="M343.788 132.5C350.001 130.334 357.939 129.099 364.368 130.746C372.375 132.774 376.128 140.164 379.94 146.749C383.204 152.335 387.055 158.029 392.896 161.185C398.737 164.34 407.811 162.165 412.094 167.594C419.072 176.414 413.976 193.309 404.587 198.356C399.687 200.963 394.062 201.296 388.662 200.865C380.626 200.287 373.09 202.011 365.142 202.227C346.659 202.717 329.862 197.327 313.947 188.448C309.41 185.92 305.95 192.309 309.958 195.259C324.658 206.039 344.66 210.332 362.624 210.518C367.246 210.424 371.856 210.014 376.422 209.293C380.924 208.85 385.457 208.814 389.966 209.185C396.385 209.508 403.058 208.548 408.752 205.441C420.571 199.003 425.285 183.372 422.266 170.759C420.581 163.703 415.789 158.088 408.546 156.559C404.156 155.638 399.54 156.285 395.542 153.874C391.543 151.463 388.731 147.073 386.291 143.094C381.714 135.597 377.098 127.649 368.17 124.934C359.243 122.22 350.766 124.846 342.534 127.943C339.711 129.011 340.877 133.549 343.798 132.529L343.788 132.5Z" fill="#382C80"/>
<path d="M308.763 194.24C307.766 203.821 309.857 213.469 314.731 221.778C316.691 225.12 320.327 228.471 321.405 232.205C322.306 235.302 322.179 239.722 322.012 242.926C321.728 248.414 321.424 249.953 315.77 251.462C306.764 253.872 297.518 255.266 288.202 255.617C297.649 273.669 306.401 290.368 327.539 296.591C342.778 301.08 358.831 300.903 372.041 291.779C378.186 287.526 383.801 282.371 387.721 276.011C391.641 269.651 393.768 261.987 392.621 254.598C392.596 254.178 392.454 253.774 392.21 253.432C391.671 252.766 390.642 252.844 389.789 252.981C380.322 254.481 359.703 252.746 363.202 238.448C364.299 233.969 370.738 232.705 374.04 230.118C378.372 226.739 381.699 222.243 383.664 217.113C387.927 205.775 385.487 192.613 379.244 182.264C376.689 178.051 373.617 174.172 370.101 170.72C360.377 161.094 346.403 157.115 333.067 160.175C320.728 163.115 311.938 178.139 309.468 189.82C309.156 191.28 308.921 192.755 308.763 194.24Z" fill="white"/>
<path d="M305.822 194.24C304.948 201.812 305.854 209.483 308.468 216.643C309.523 219.496 310.891 222.224 312.545 224.777C314.642 227.952 317.592 230.657 318.308 234.577C318.847 237.926 318.847 241.341 318.308 244.69C317.906 247.121 317.151 247.258 314.819 247.934C306.151 250.334 297.222 251.67 288.231 251.913C286.906 251.94 285.693 252.661 285.035 253.811C284.376 254.961 284.37 256.372 285.017 257.528C290.593 268.308 296.277 279.598 305.185 288.124C314.574 297.101 326.745 301.609 339.485 303.079C353.577 304.839 367.775 300.768 378.793 291.809C389.495 283.273 398.158 270.484 396.943 256.215C396.365 249.355 392.513 248.904 386.633 249.296C382.281 249.67 377.898 249.248 373.697 248.052C370.267 246.993 366.288 244.808 366.965 240.584C367.386 237.987 369.846 237.135 371.943 236.047C374.604 234.758 377.058 233.08 379.224 231.068C400.588 210.684 387.006 174.699 364.524 161.312C352.98 154.452 335.879 152.012 324.129 159.783C312.78 167.3 306.489 181.128 304.891 194.269C304.284 199.297 312.134 199.228 312.731 194.269C314.29 181.823 322.277 166.339 335.644 163.742C352.049 160.548 367.004 170.063 375.412 183.636C383.448 196.572 385.496 216.584 371.835 226.756C367.611 229.912 361.82 230.941 359.722 236.4C357.946 240.993 358.744 246.184 361.82 250.031C365.024 253.873 370.071 255.804 374.863 256.695C377.666 257.216 380.509 257.488 383.36 257.509C384.83 257.509 389.073 256.441 390.22 256.97L388.358 254.549C392.621 266.711 380.988 280.098 372.188 286.752C361.78 294.592 349.295 296.875 336.545 294.67C325.677 292.799 316.034 288.34 308.429 280.255C301.216 272.581 296.336 263.007 291.436 253.795L288.212 259.41C297.943 258.91 308.037 257.822 317.367 254.902C322.992 253.148 325.207 250.002 325.579 244.181C326.167 235.812 324.991 229.843 319.905 223.15C313.594 214.869 311.085 204.599 311.712 194.299C311.947 190.457 306.214 190.594 305.822 194.24Z" fill="#382C80"/>
<path d="M331.861 218.191C331.267 217.873 330.762 217.411 330.391 216.849C328.764 214.438 329.087 211.027 327.108 208.724C324.883 206.127 322.276 202.844 318.993 201.61C315.406 200.277 310.614 201.825 309.536 205.53C309.15 207.245 309.27 209.035 309.879 210.684C311.287 214.972 313.146 219.098 315.426 222.993C317.876 227.344 320.15 234.567 312.417 233.381C301.52 231.696 290.367 214.859 285.859 206.088C278.829 192.488 276.751 176.865 279.979 161.9C281.014 157.102 282.74 152.481 285.105 148.18C291.592 136.655 306.665 126.708 319.493 123.847C329.773 121.553 341.131 123.729 349.344 130.315C360.467 139.252 360.251 152.443 362.192 164.889C362.789 168.75 359.771 172.425 356.165 173.915C352.558 175.404 348.521 175.238 344.62 175.032C345.807 178.378 344.795 182.109 342.079 184.395C339.363 186.681 335.513 187.043 332.419 185.302C335.48 193.735 337.267 202.577 337.721 211.537C337.917 213.087 337.718 214.661 337.143 216.114C335.967 218.534 333.654 219.152 331.861 218.191Z" fill="#382C80"/>
<path d="M333.193 215.918C331.547 214.683 331.439 210.812 330.596 209.009C329.992 207.794 329.231 206.664 328.333 205.647C325.775 202.501 322.845 199.199 318.748 198.17C315.343 197.192 311.674 198.063 309.07 200.466C306.467 202.869 305.306 206.457 306.008 209.93C306.841 214.614 309.232 219.24 311.496 223.385C312.364 224.784 313.098 226.26 313.691 227.795C314.417 230.039 314.671 230.275 312.359 229.638C304.244 227.413 298.149 218.858 293.739 212.223C282.557 195.2 278.059 173.219 286.271 153.942C293.415 137.224 315.191 123.69 333.487 127.061C344.826 129.148 353.019 136.743 355.822 147.886C356.946 152.883 357.748 157.947 358.223 163.047C359.203 171.475 351.137 171.71 344.61 171.465C343.515 171.477 342.487 171.994 341.822 172.865C341.158 173.736 340.932 174.864 341.21 175.924C342.503 180.422 338.75 184.616 334.085 182.47C331.714 181.382 328.205 183.225 329.185 186.214C330.803 190.708 332.084 195.317 333.017 200.002C333.203 200.982 335.673 216.221 332.684 215.114C328.764 213.664 327.108 219.887 330.969 221.337C337.643 223.836 341.004 217.182 340.935 211.537C340.828 202.384 338.574 193.015 335.575 184.42L330.675 188.164C340.475 192.721 350.765 184.724 347.952 174.023L344.552 178.482C355.449 179.109 367.288 175.542 365.475 162.449C364.034 152.08 363.328 141.222 356.704 132.608C342.219 113.782 315.406 117.467 297.982 129.511C288.878 135.803 281.881 144.084 278.206 154.599C274.129 166.281 273.835 179.226 276.52 191.231C278.95 202.09 284.174 212.105 290.857 220.935C296.12 227.893 303.999 237.017 313.613 237.105C325.618 237.223 319.963 224.052 316.935 218.162C315.514 215.379 312.261 210.449 312.8 207.205C313.662 201.953 319.66 205.353 321.727 207.294C324.364 209.773 325.432 211.998 326.627 215.31C327.27 217.414 328.611 219.236 330.43 220.475C333.399 222.395 335.849 217.907 333.193 215.918Z" fill="#382C80"/>
<path d="M357.9 193.103L357.704 193.162L358.223 193.093H358.027L358.546 193.162C358.455 193.154 358.366 193.131 358.282 193.093L358.742 193.289C358.683 193.26 358.627 193.224 358.576 193.182L358.968 193.485C358.92 193.442 358.874 193.396 358.831 193.348L359.134 193.73C359.106 193.698 359.083 193.662 359.066 193.623L359.262 194.083C359.257 194.038 359.257 193.992 359.262 193.946L359.33 194.465C359.321 194.397 359.321 194.328 359.33 194.26L359.262 194.769C359.274 194.703 359.29 194.637 359.311 194.573L359.115 195.034C359.145 194.972 359.181 194.913 359.223 194.857L358.88 195.22L359.027 195.083L358.644 195.387C358.676 195.358 358.713 195.335 358.752 195.318L358.301 195.504H358.429L357.929 195.563H358.066L357.566 195.494H357.704L357.253 195.298C357.32 195.325 357.383 195.361 357.439 195.406L357.057 195.112C357.097 195.14 357.134 195.173 357.165 195.21L356.871 194.828C356.914 194.886 356.95 194.948 356.978 195.014L356.792 194.563C356.797 194.609 356.797 194.655 356.792 194.701L356.724 194.211V194.348L356.792 193.848V193.926C356.673 194.407 356.739 194.914 356.978 195.347C357.355 195.988 358.078 196.342 358.815 196.246C359.552 196.149 360.16 195.622 360.359 194.906C360.74 193.69 360.14 192.382 358.969 191.877C357.798 191.373 356.435 191.834 355.812 192.946C355.206 193.95 355.338 195.233 356.136 196.092C356.854 196.837 357.927 197.121 358.919 196.827C359.409 196.683 359.828 196.362 360.095 195.926C360.361 195.475 360.437 194.937 360.304 194.431C360.172 193.925 359.842 193.493 359.389 193.231C358.935 192.958 358.388 192.887 357.88 193.035L357.9 193.103Z" fill="#382C80"/>
<path d="M377.363 191.78L377.167 191.839L377.686 191.77C377.621 191.775 377.555 191.775 377.49 191.77L378.009 191.839C377.918 191.831 377.829 191.808 377.745 191.77L378.205 191.966C378.146 191.937 378.09 191.901 378.039 191.859L378.431 192.162C378.38 192.122 378.334 192.076 378.294 192.025L378.597 192.417C378.571 192.38 378.548 192.341 378.529 192.3L378.725 192.76C378.72 192.715 378.72 192.669 378.725 192.623L378.793 193.142C378.784 193.074 378.784 193.005 378.793 192.937L378.725 193.446C378.737 193.38 378.753 193.314 378.774 193.25L378.578 193.711C378.608 193.649 378.644 193.59 378.686 193.534L378.382 193.917L378.529 193.779L378.147 194.083C378.179 194.055 378.215 194.032 378.254 194.015L377.804 194.201H377.931L377.431 194.269H377.5L377 194.201H377.137L376.686 194.005C376.754 194.031 376.816 194.067 376.873 194.113L376.49 193.819C376.531 193.846 376.567 193.879 376.598 193.917L376.304 193.544C376.349 193.597 376.386 193.656 376.412 193.721L376.226 193.28C376.231 193.322 376.231 193.365 376.226 193.407L376.157 192.917V193.054L376.226 192.564V192.633C376.106 193.113 376.173 193.621 376.412 194.054C376.789 194.694 377.512 195.048 378.248 194.952C378.985 194.856 379.593 194.329 379.793 193.613C380.174 192.396 379.573 191.088 378.403 190.584C377.232 190.079 375.869 190.541 375.246 191.653C374.64 192.656 374.771 193.94 375.569 194.799C376.285 195.548 377.36 195.832 378.352 195.534C379.121 195.33 379.691 194.682 379.794 193.893C379.897 193.104 379.514 192.332 378.823 191.937C378.369 191.664 377.822 191.593 377.314 191.741L377.363 191.78Z" fill="#382C80"/>
<path d="M374.452 183.284C370.464 184.793 366.975 187.321 366.945 192.015C366.945 194.083 367.857 196.014 368.68 197.895C369.307 199.307 370.042 200.679 370.64 202.1C371.992 205.216 371.787 204.706 369.219 205.108C367.102 205.441 368.014 208.617 370.101 208.323C372.747 207.94 375.334 207.343 374.903 204.187C374.011 197.533 364.221 189.918 375.109 185.763C376.618 185.185 375.961 182.735 374.433 183.313L374.452 183.284Z" fill="#382C80"/>
<path d="M361.888 185.881C357.87 183.484 352.7 184.411 349.765 188.056C348.697 189.428 350.01 191.633 351.725 190.624C353.029 189.859 354.097 188.713 355.538 188.193C357.116 187.607 358.865 187.692 360.379 188.429C362.064 189.242 363.544 186.831 361.868 185.881H361.888Z" fill="#382C80"/>
<path d="M346.532 233.744C350.32 236.225 354.629 237.798 359.125 238.34C363.76 238.859 367.808 237.223 371.865 235.184C376.167 233.048 372.394 226.698 368.112 228.765C365.27 230.147 362.349 231.705 359.105 231.578C355.664 231.454 352.276 230.682 349.119 229.304C347.898 228.686 346.407 229.125 345.716 230.306C345.026 231.488 345.374 233.003 346.512 233.763L346.532 233.744Z" fill="#382C80"/>
<path d="M316.828 264.8C322.512 259.988 324.462 252.775 325.707 245.71C326.412 241.701 320.317 239.947 319.533 244.014C318.386 249.992 317.426 256.46 313.143 261.105C310.84 263.604 314.28 266.985 316.828 264.8Z" fill="#382C80"/>
<path d="M401.196 445.512C406.175 454.933 411.16 464.344 416.151 473.746C418.64 478.46 420.287 482.879 420.012 488.269C419.767 493.101 418.836 497.775 419.395 502.626C419.797 506.145 425.353 506.223 424.981 502.626C424.452 497.491 425.5 492.542 425.608 487.427C425.654 482.745 424.558 478.123 422.413 473.961C417.288 463.426 411.104 453.293 405.43 443.042C403.901 440.279 399.726 442.729 401.196 445.512Z" fill="#382C80"/>
<path d="M452.96 506.066C474.686 539.563 478.322 581.075 465.239 618.453C464.465 620.667 467.856 621.51 468.699 619.433C483.595 582.144 477.519 537.769 455.273 504.773C454.293 503.352 452.019 504.665 452.96 506.125V506.066Z" fill="white"/>
<path d="M305.617 152.218C310.713 140.536 309.214 125.003 298.934 117.477C295.376 115.009 291.305 113.38 287.027 112.714C281.617 111.734 275.845 111.881 270.886 114.252C265.927 116.624 261.978 121.534 261.792 126.992C251.237 125.581 240.83 133.5 237.488 143.652C234.146 153.805 236.949 165.212 242.907 174.032C245.169 177.58 248.18 180.59 251.727 182.852C255.665 185.116 260.152 186.245 264.693 186.116C275.952 185.828 286.15 179.395 291.26 169.358" fill="#382C80"/>
<path d="M307.979 153.599C314.329 139.723 313.114 121.328 298.894 112.753C284.331 103.933 259.292 106.873 257.283 127.022L261.791 122.514C250.649 121.367 239.839 128.266 234.89 138.125C229.246 149.366 231.186 162.909 237.282 173.562C243.671 184.734 254.334 191.8 267.534 190.447C279.312 189.239 289.673 182.139 295.053 171.592C297.552 166.516 290.221 162.086 287.389 167.114C283.332 174.326 276.717 179.697 268.436 181.167C258.136 183.009 250.1 177.678 245.2 168.956C240.917 161.42 238.869 151.571 242.505 143.358C245.748 135.7 253.495 130.945 261.791 131.52C264.349 131.745 266.103 129.266 266.29 127.022C267.505 112.322 290.398 114.978 298.198 121.877C306.323 129.06 306.46 142.045 302.981 151.492C301.913 154.374 306.685 156.392 307.979 153.599Z" fill="#382C80"/>
<path d="M524.775 275.09C516.533 275.727 511.643 283.704 507.487 290.006C502.211 298.153 497.837 306.851 494.444 315.946C491.03 324.949 488.407 334.232 486.604 343.69C484.702 353.431 482.742 363.858 482.84 373.805C482.84 378.088 489.838 379.382 490.592 374.854C491.974 366.602 492.337 358.194 493.738 349.952C495.156 341.53 497.12 333.208 499.618 325.041C502.086 316.96 505.284 309.12 509.173 301.619C511.133 297.924 513.211 294.327 515.445 290.839C517.542 287.526 520.345 281.823 524.726 281.235C528.499 280.735 528.724 274.816 524.726 275.129L524.775 275.09Z" fill="#382C80"/>
<path d="M400.775 472.305C427.49 525.225 448.501 581.722 464.299 638.797C468.591 654.327 472.482 669.965 475.971 685.71C476.902 689.914 483.291 688.131 482.419 683.926C476.421 655.095 467.944 626.851 458.683 598.921C449.07 569.943 438.182 541.356 425.932 513.387C419.464 498.628 412.32 484.202 404.832 469.943C403.421 467.258 399.423 469.62 400.775 472.305Z" fill="#382C80"/>
<path d="M267.094 504.175C269.956 538.622 285.224 569.306 303.501 598.098C313.193 613.357 323.983 628.194 330.598 645.138C337.144 661.916 340.222 679.732 343.514 697.362C344.328 701.704 350.806 699.832 350.1 695.549C347.238 678.144 344.102 660.593 337.683 644.089C331.353 627.851 321.582 613.562 312.047 599.098C293.221 570.56 275.267 538.906 272.141 504.175C271.847 500.98 266.829 500.931 267.094 504.175Z" fill="#382C80"/>
<path d="M359.262 214.408C361.292 216.342 364.056 217.306 366.848 217.054C367.535 217.025 368.146 216.608 368.426 215.98C368.705 215.351 368.605 214.618 368.166 214.088C367.728 213.558 367.028 213.321 366.358 213.477C364.618 213.838 362.81 213.375 361.458 212.223C359.978 210.91 357.783 213.076 359.272 214.408H359.262Z" fill="#382C80"/>
<path d="M492.229 836.365C495.12 831.22 498.53 827.251 504.126 824.929C505.88 824.204 505.243 821.391 503.312 821.989C497.158 823.89 491.288 828.849 489.318 835.15C489.058 835.943 489.452 836.801 490.222 837.122C490.991 837.443 491.878 837.117 492.258 836.375L492.229 836.365Z" fill="white"/>
<path d="M504.557 840.795L510.153 833.935C511.436 832.357 509.173 830.084 507.899 831.681L502.342 838.61C501.097 840.158 503.322 842.383 504.557 840.815V840.795Z" fill="white"/>
<path d="M248.502 677.047C251.058 681.202 252.936 685.737 254.069 690.483C254.49 692.011 257.107 691.766 256.93 690.091C256.268 684.802 254.323 679.756 251.266 675.391C250.129 673.685 247.346 675.263 248.502 676.998V677.047Z" fill="white"/>
<path d="M238.82 682.584C240.986 686.645 242.372 691.076 242.906 695.647C243.151 697.45 245.846 697.607 245.846 695.647C245.701 690.473 244.215 685.425 241.534 680.996C241.063 680.324 240.155 680.126 239.447 680.541C238.738 680.955 238.466 681.843 238.82 682.584Z" fill="white"/>
<path d="M244.279 612.259C239.046 615.532 241.819 623.656 247.827 623.598C254.785 623.539 257.96 613.798 252.197 609.799C250.825 608.819 249.257 610.681 249.992 612.004C250.874 613.553 251.894 614.993 251.649 616.904C251.438 618.656 250.126 620.075 248.395 620.422C244.985 621.177 242.515 616.62 245.612 614.542C247.013 613.562 245.729 611.357 244.279 612.259Z" fill="white"/>
<path d="M430.096 857.563C422.207 862.149 427.058 874.576 435.976 873.008C446.698 871.106 446.404 857.23 437.652 852.849C435.545 851.791 433.683 854.907 435.79 856.034C440.759 858.69 442.944 866.471 436.613 869.029C434.203 870.009 431.302 869.509 430.067 867.069C428.801 864.741 429.494 861.833 431.674 860.326C432.424 859.891 432.678 858.93 432.243 858.18C431.807 857.431 430.846 857.176 430.096 857.612V857.563Z" fill="white"/>
<path d="M638.728 823.018C638.444 820.489 638.336 817.922 638.268 815.423C637.288 782.857 637.219 750.096 631.565 718.011C620.785 656.584 574.176 615.914 557.085 557.555C538.896 495.531 568.423 430.881 579.291 367.151C588.848 310.531 583.543 252.399 563.896 198.444C561.936 192.966 685.112 164.213 696.47 162.586C725.115 158.47 754.025 156.951 782.896 155.569C797.655 154.864 846.753 143.27 857.121 152.845C862.325 157.657 864.354 164.928 865.834 171.857C878.73 231.999 873.056 314.398 848.693 371.434C828.603 418.474 811.698 473.05 846.547 519.649C866.431 546.236 899.81 559.212 922.889 583.084C946.154 607.153 957.189 640.414 964.147 673.166C965.372 678.958 966.45 685.181 964.147 690.62C961.384 697.098 954.602 700.733 948.301 703.879L797.322 779.133C755.78 799.88 711.386 829.515 666.864 842.226C659.024 844.47 649.636 843.284 644.167 837.208C640.688 833.347 639.316 828.3 638.728 823.018Z" fill="white"/>
<path d="M641.178 823.018C639.336 803.369 640.198 783.387 639.101 763.669C638.121 745.108 636.572 726.204 632.241 708.074C625.077 677.89 608.878 651.234 593.041 624.93C576.253 597.108 559.593 568.09 555.536 535.26C550.999 498.677 560.074 462.143 568.943 426.912C577.998 390.897 586.396 355.146 587.063 317.828C587.737 280.792 582.263 243.9 570.863 208.656C570.217 206.696 569.54 204.657 568.903 202.678C568.589 201.517 568.189 200.38 567.708 199.277C566.728 197.425 568.002 197.317 567.09 199.032C566.493 200.149 566.189 200.012 567.032 199.718C568.835 199.022 570.403 198.15 572.245 197.474C578.948 195.004 585.838 193.035 592.708 191.094C612.21 185.557 631.908 180.687 651.606 175.973C666.051 172.523 680.525 168.897 695.127 166.173C710.053 163.39 725.507 162.41 740.619 161.273C756.789 160.097 773.243 160.293 789.325 158.245C800.536 156.814 811.659 154.785 822.9 153.531C828.669 152.824 834.473 152.444 840.285 152.394C844.372 152.394 849.223 152.394 853.025 154.119C859.238 157.059 861.149 165.957 862.482 171.974C864.128 179.442 865.422 187.008 866.402 194.583C868.415 210.433 869.358 226.401 869.224 242.378C869.058 275.021 865.118 307.881 856.298 339.398C847.772 369.778 832.298 397.649 826.124 428.832C819.911 460.192 823.184 492.689 842.088 519.306C860.346 544.992 889.628 558.026 912.825 578.322C938.363 600.646 951.045 632.447 958.718 664.758C960.56 672.49 964.598 683.25 960.198 690.698C956.131 697.637 946.478 700.89 939.618 704.281L885.816 731.084C850.604 748.616 814.952 765.472 780.25 784.004C747.44 801.448 715.6 821.283 680.623 834.18C673.587 836.787 665.659 840.393 658.015 839.991C648.097 839.472 642.972 832.298 641.766 822.988C641.276 819.157 635.191 819.068 635.69 822.988C636.612 830.123 638.572 837.159 644.51 841.736C649.92 845.881 657.025 847.077 663.669 846.146C672.244 844.95 680.859 841.363 688.895 838.306C697.715 834.915 706.358 831.083 714.874 826.967C732.201 818.588 749.008 809.18 765.834 799.9C782.661 790.619 799.958 781.779 817.284 773.155C854.59 754.562 891.892 735.941 929.191 717.295C937.805 713.003 946.723 709.054 955.072 704.242C961.256 700.684 966.832 695.726 968.43 688.493C970.194 680.653 967.538 672.029 965.754 664.395C963.794 656.055 961.57 647.735 958.895 639.64C953.642 623.794 946.723 608.28 936.991 594.678C927.574 581.516 915.716 571.011 902.691 561.544C889.275 551.803 875.006 543.12 862.658 531.968C849.679 520.454 839.987 505.703 834.572 489.22C824.193 456.664 832.739 422.021 844.44 391.063C850.095 376.108 856.749 361.663 861.355 346.316C866.057 330.377 869.569 314.11 871.861 297.65C876.574 264.604 877.447 230.784 873.458 197.611C872.547 190.075 871.41 182.568 869.94 175.13C868.47 167.692 866.843 159.626 862.1 153.384C855.975 145.377 845.263 145.465 836.032 145.828C823.772 146.308 811.532 148.288 799.468 150.13C785.944 152.188 772.518 152.708 758.867 153.501C733.387 154.971 707.593 156.579 682.574 162.076C663.748 166.222 645 170.73 626.312 175.434C608.397 179.952 590.287 184.342 572.814 190.389C569.403 191.565 563.268 192.897 561.24 196.269C560.735 197.16 560.568 198.204 560.769 199.209C561.259 203.334 563.896 208.107 565.17 212.096C568.09 221.242 570.609 230.52 572.725 239.928C581.416 278.468 583.076 318.26 577.625 357.39C572.245 395.542 559.642 432.184 552.782 470.09C546.285 505.949 546.344 541.552 560.279 575.695C572.392 605.37 591.208 631.447 606.584 659.407C614.424 673.705 621.284 688.581 625.714 704.32C631.016 723.264 632.77 743.187 633.946 762.748C635.161 782.779 634.377 803.094 636.327 823.057C636.582 826.124 641.472 826.164 641.178 823.018Z" fill="#382C80"/>
<path d="M671.843 167.868C671.912 172.631 674.47 177.668 678.938 179.305C683.407 180.941 689.356 177.982 689.611 173.219C691.4 176.927 695.516 178.903 699.528 177.982C703.487 176.848 706.088 173.068 705.732 168.966C707.555 173.08 712.056 175.306 716.433 174.258C720.81 173.21 723.815 169.187 723.577 164.693C725.655 170.504 738.699 169.975 742.041 165.448C743.474 163.239 744.161 160.628 744.001 158C743.814 134.48 710.24 119.309 690.179 120.289C678.363 121.02 666.931 124.768 656.977 131.177" fill="white"/>
<path d="M652.175 139.037C664.434 129.335 680.595 122.641 696.471 124.131C708.779 125.297 721.823 130.726 730.898 139.174C735.19 143.182 738.669 148.053 739.963 153.874C740.59 156.696 741.188 161.508 738.865 163.674C737.209 165.232 734.122 165.457 732.005 165.408C729.889 165.359 727.488 164.997 726.606 162.929C725.155 159.577 720.147 161.508 720.098 164.693C719.991 171.553 711.67 173.288 708.613 167.29C707.133 164.409 702.194 165.702 702.409 168.966C702.831 175.208 695.226 177.012 692.364 171.622C690.747 168.564 686.778 170.367 686.484 173.219C686.19 176.071 682.104 177.237 679.781 176.296C676.528 174.993 675.077 171.083 674.881 167.868C674.685 163.948 668.668 163.948 668.825 167.868C669.089 174.317 672.745 181.333 679.605 182.676C682.628 183.295 685.772 182.628 688.282 180.833C690.793 179.039 692.442 176.28 692.835 173.219L686.955 174.826C689.488 179.77 695.055 182.362 700.469 181.118C705.832 179.575 709.423 174.538 709.132 168.966L702.86 170.642C705.51 175.906 711.349 178.753 717.129 177.6C723.176 176.306 726.929 170.622 727.066 164.693L720.206 165.673C722.833 171.994 730.143 173.219 736.288 172.18C744.304 170.818 747.989 164.585 747.489 156.667C746.607 142.623 735.729 131.99 724.038 125.542C711.641 118.682 697.441 115.301 683.358 117.349C670.265 119.25 657.878 125.189 647.52 133.362" fill="#382C80"/>
<path d="M663.877 158.137C666.256 161.41 667.703 165.268 668.061 169.299C668.453 173.101 673.941 173.219 674.108 169.299C674.167 163.875 671.902 158.685 667.885 155.04C665.846 153.227 662.122 155.628 663.877 158.127V158.137Z" fill="#382C80"/>
<path d="M212.861 267.573C219.552 286.86 222.673 307.203 222.073 327.608C221.661 342.387 220.495 357.763 208.911 368.229C205.521 371.297 209.891 376.579 213.694 374.433C228.266 366.269 229.864 344.739 230.119 329.97C230.501 307.704 227.09 285.87 217.712 265.535C216.457 262.82 211.891 264.741 212.861 267.573Z" fill="#382C80"/>
<path d="M652.782 273.62C636.269 282.636 615.542 298.982 610.015 273.444C609.299 270.151 609.809 236.262 606.095 237.242L636.475 229.216C638.307 228.726 640.473 228.305 641.953 229.491C642.858 230.386 643.464 231.54 643.688 232.793C647.437 246.232 650.473 259.86 652.782 273.62Z" fill="#7F72FF"/>
<path d="M651.478 271.366C643.315 275.805 634.926 282.273 625.606 283.93C621.559 284.655 618.07 283.812 616.042 280.01C614.376 276.97 613.532 273.548 613.592 270.082C613.327 262.556 613.376 255.02 612.817 247.542C612.523 243.622 612.533 232.627 606.095 233.156L607.192 241.26C613.151 239.722 619.109 238.144 625.058 236.586L633.995 234.244C634.642 234.067 638.699 232.617 639.326 232.97C639.954 233.322 640.15 235.959 640.306 236.703C643.697 249.247 646.324 262.036 648.45 274.845C649.43 280.47 658.015 278.108 657.035 272.473C655.614 264.359 653.977 256.284 652.076 248.258C651.096 244.249 650.038 240.28 648.96 236.292C648.166 233.352 647.647 229.932 645.687 227.472C641.384 222.101 633.505 225.678 628.154 227.099C620.422 229.157 612.68 231.196 604.958 233.293C600.616 234.469 601.302 241.868 606.055 241.398C603.743 239.487 602.929 239.114 603.615 240.261C603.439 239.918 603.458 240.026 603.615 240.555C603.673 241.148 603.808 241.731 604.017 242.289C604.331 243.877 604.487 245.484 604.644 247.091C605.056 251.443 605.252 255.823 605.438 260.194C605.732 267.113 605.32 274.149 608.378 280.568C618.031 300.844 641.62 282.812 653.997 275.874C656.976 274.198 654.399 269.778 651.478 271.366Z" fill="#7F72FF"/>
<path d="M613.611 415.201L613.788 362.045C626.214 363.858 638.849 363.692 651.224 361.555C654.37 361.007 658.241 360.575 660.181 363.143C661.288 364.613 661.337 366.602 661.328 368.445C661.288 378.297 661.252 388.146 661.22 397.992C661.22 400.295 661.151 402.764 659.799 404.636C658.201 406.851 655.271 407.576 652.596 408.145L620.256 415.005" fill="#7F72FF"/>
<path d="M616.737 415.201C617.188 397.482 617.296 379.764 617.462 362.045L612.817 365.583C622.752 367.095 632.832 367.424 642.844 366.563C645.059 366.357 647.274 366.083 649.469 365.769C651.067 365.534 654.007 364.525 655.594 365.152C658.858 366.416 657.211 376.412 657.172 379.529L657.015 394.297C657.015 396.257 657.456 399.119 656.76 401.01C655.947 403.264 653.477 403.519 651.449 403.95C640.718 406.341 629.722 407.958 619.177 411.124C615.071 412.349 615.6 419.552 620.236 418.964C627.047 418.092 633.721 416.563 640.434 415.152C646.314 413.907 653.301 413.368 658.769 410.702C663.434 408.439 665.198 404.352 665.443 399.364C665.757 392.778 665.443 386.095 665.394 379.509C665.394 374.246 666.629 367.181 664.287 362.29C662.327 358.165 657.946 356.93 653.673 357.243C647.539 357.704 641.531 359.096 635.338 359.37C628.136 359.667 620.922 359.339 613.778 358.39C611.818 358.125 610.103 360.281 610.112 362.055C610.112 379.774 610.112 397.492 610.475 415.21C610.553 419.238 616.629 419.238 616.727 415.21L616.737 415.201Z" fill="#7F72FF"/>
<path d="M622.157 486.554C624.842 501.401 630.869 514.553 635.877 528.508C625.95 534.329 616.101 554.537 603.655 547.736C591.209 540.935 586.73 505.067 587.857 492.532C595.847 488.503 604.063 484.939 612.465 481.86C615.072 480.88 618.345 480.096 620.364 482.007C621.52 483.154 621.863 484.918 622.157 486.554Z" fill="#7F72FF"/>
<path d="M619.559 487.26C622.049 501.862 627.742 515.464 632.525 529.4L634.112 525.48C626.978 529.802 622.411 537.015 615.914 542.081C609.054 547.422 603.576 544.629 599.901 537.524C593.217 524.608 590.855 506.899 592.061 492.444L589.954 496.109C594.971 493.64 600.048 491.278 605.222 489.161C607.427 488.26 609.652 487.378 611.886 486.554C614.503 485.574 617.276 483.908 618.06 487.593C619.197 492.983 627.203 490.661 626.253 485.329C623.215 468.375 601.988 481.027 592.933 485.251C590.365 486.437 585.651 487.75 584.172 490.298C583.25 491.876 583.456 494.326 583.437 496.1C583.45 500.58 583.747 505.054 584.328 509.496C585.955 522.775 591.1 556.654 611.445 552.538C623.078 550.186 628.321 537.397 637.601 531.409C638.943 530.6 639.593 529.005 639.199 527.489C634.014 513.691 627.86 500.225 624.812 485.731C624.058 482.36 618.952 483.869 619.559 487.26Z" fill="#7F72FF"/>
<path d="M677.449 639.278C667.462 643.923 651.9 663.934 642.1 649.773C636.534 641.708 637.788 631.516 627.929 623.245C626.946 622.618 626.228 621.652 625.91 620.53C625.675 618.835 627.312 617.531 628.762 616.61C642.174 608.259 656.342 601.188 671.079 595.491L683.711 619.991C685.671 623.794 687.631 628.204 686.122 632.192C684.71 635.73 680.928 637.661 677.449 639.278Z" fill="#7F72FF"/>
<path d="M675.978 636.769C668.971 640.15 663.562 646.128 656.623 649.675C653.517 651.263 649.852 652.537 646.902 650.009C643.354 646.98 642.227 641.688 640.836 637.474C639.59 633.171 637.65 629.099 635.093 625.42C634.27 624.323 629.713 620.707 629.713 619.785C629.713 620.324 636.347 616.512 636.935 616.179C648.193 609.627 659.966 604.003 672.137 599.362L667.58 597.52C671.029 604.38 674.508 611.171 677.889 618.041C679.369 621.05 681.888 624.715 682.123 628.135C682.407 632.369 678.487 633.927 675.263 635.524C670.196 638.013 674.626 645.324 679.653 643.041C688.356 639.052 693.373 632.182 689.649 622.52C685.729 612.494 679.555 602.978 674.538 593.482C673.614 591.921 671.762 591.167 670.01 591.64C655.212 597.598 640.081 604.311 626.841 613.327C622.549 616.267 620.344 620.873 624.362 625.146C627.008 627.959 629.497 629.938 631.3 633.486C632.55 636.226 633.621 639.045 634.505 641.924C637.621 650.744 643.393 660.318 654.262 657.496C663.934 654.997 670.285 646.206 678.928 641.816C682.28 640.081 679.34 635.152 675.978 636.769Z" fill="#7F72FF"/>
<path d="M673.764 766.56L669.599 728.889C669.396 727.905 669.484 726.883 669.853 725.949C670.553 724.923 671.596 724.18 672.793 723.852L706.819 710.367C711.653 722.839 713.681 736.223 712.758 749.567C712.804 750.95 712.371 752.307 711.533 753.408C710.735 754.102 709.774 754.581 708.74 754.8L681.114 762.875" fill="#7F72FF"/>
<path d="M676.763 766.56C676.175 760.288 675.597 754.006 674.989 747.724C674.685 744.588 674.372 741.443 674.058 738.307C673.833 736.004 672.431 731.113 673.137 728.889C673.98 726.223 678.546 725.616 680.977 724.665L689.042 721.529L707.888 714.199L702.988 711.406C707.151 722.442 709.106 734.19 708.74 745.98C708.642 748.606 709.211 750.155 706.604 750.88L698.303 753.271C692.159 755.035 686.014 756.809 679.889 758.642C674.47 760.268 676.753 768.706 682.231 767.148C689.611 765.041 696.931 762.846 704.32 760.66C709.946 758.994 715.502 758.122 716.747 751.537C717.991 744.951 717.09 737.454 716.198 730.957C715.198 723.578 713.336 716.342 710.651 709.397C709.946 707.554 707.888 705.722 705.751 706.594L684.299 715.257C680.722 716.707 677.135 718.138 673.578 719.628C671.167 720.608 668.59 721.441 667.1 723.754C665.463 726.272 666.042 729.006 666.385 731.829L667.796 743.04L670.736 766.56C671.206 770.294 677.086 770.48 676.724 766.56H676.763Z" fill="#7F72FF"/>
<path d="M677.057 249.884C683.593 257.94 695.912 259.851 704.497 253.804C713.081 247.758 715.071 235.518 710.141 226.511L704.428 230.912C720.892 243.857 742.099 240.124 760.817 235.086C772.244 231.999 783.259 229.432 795.117 229.148C806.113 228.893 816.805 228.805 827.065 224.346C830.858 222.699 828.045 216.016 824.223 217.603C814.619 221.523 804.457 221.376 794.255 221.66C784.059 222.057 773.946 223.666 764.13 226.453C746.147 231.294 725.233 237.654 708.809 225.198C705.761 222.895 702.164 227.256 703.83 230.177C707.27 236.204 705.967 244.426 700.155 248.552C694.197 252.795 685.828 251.002 681.104 245.857C678.576 243.103 674.803 247.091 677.066 249.884H677.057Z" fill="#382C80"/>
<path d="M698.293 366.416C692.507 366.634 687.729 371.01 687.004 376.755C686.21 382.772 690.355 387.976 695.824 390.122C701.988 392.553 708.623 390.789 713.63 386.702C720.255 381.293 722.911 373.031 724.851 365.005L717.717 365.936C721.054 371.005 727.482 373.048 733.132 370.836C735.874 369.853 738.149 367.882 739.512 365.309C739.777 364.789 740.12 362.869 740.561 362.565C741.286 362.065 743.089 362.712 743.863 362.829C746.108 363.172 748.322 363.613 750.567 363.898C768.52 366.122 788.561 362.594 803.614 352.216C805.254 351.136 805.763 348.961 804.772 347.266C803.78 345.57 801.636 344.947 799.89 345.846C785.621 353.098 770.804 357.547 754.653 356.489C749.106 356.126 740.09 352.089 735.357 356.41C733.27 358.37 733.524 361.8 731.055 363.27C728.967 364.476 725.831 364.113 724.459 362.065C722.695 359.409 718.148 359.556 717.325 362.996C715.561 370.405 713.013 380.185 704.997 383.204C701.704 384.438 697.509 383.997 695.108 381.175C692.521 378.108 693.923 372.561 698.323 372.355C702.066 372.169 702.106 366.387 698.323 366.475L698.293 366.416Z" fill="#382C80"/>
<path d="M675.156 487.152C668.119 489.563 667.218 499.363 672.882 503.812C676.469 506.644 681.437 506.546 685.514 504.949C690.493 502.989 693.168 498.863 696.941 495.394C699.636 492.924 701.273 492.856 704.546 494.169C706.93 495.207 709.484 495.798 712.082 495.913C718.746 496.08 725.145 493.199 731.476 491.523C745.196 487.897 759.367 486.888 773.548 487.525C778.448 487.74 778.261 480.498 773.548 480.067C763.26 479.152 752.897 479.541 742.707 481.223C737.634 482.027 732.614 483.133 727.674 484.536C722.666 485.957 717.374 488.456 712.082 488.367C707.927 488.367 704.556 485.427 700.322 485.77C696.951 486.055 694.177 487.995 691.796 490.278C688.709 493.218 686.269 497.53 681.927 498.853C679.967 499.441 677.351 499.52 675.93 497.775C674.822 496.413 674.675 493.316 676.635 492.611C680.036 491.386 678.595 485.947 675.126 487.133L675.156 487.152Z" fill="#382C80"/>
<path d="M717.236 580.468C711.356 584.172 711.915 592.424 716.56 596.991C723.714 604.017 734.396 598.421 741.011 593.727C745.754 590.366 749.625 588.033 755.505 587.347C760.348 586.66 765.064 585.263 769.5 583.202C781.965 577.871 794.421 572.54 806.681 566.728C810.415 564.964 807.749 558.447 803.839 559.986C795.107 563.426 786.464 567.061 777.869 570.766C769.833 574.284 761.934 578.537 753.173 579.733C745.637 580.762 740.776 584.741 734.69 588.876C731.613 590.973 727.83 593.237 723.989 592.914C721.107 592.669 716.501 588.014 720.225 585.574C723.41 583.467 720.49 578.361 717.217 580.419L717.236 580.468Z" fill="#382C80"/>
<path d="M748.92 698.274C740.61 705.134 747.117 717.678 756.848 718.236C762.581 718.56 767.756 715.708 771.235 711.278C772.881 709.142 774.202 706.774 775.155 704.252C776.135 701.684 776.507 698.136 778.163 695.912C781.28 691.747 790.217 698.793 794.598 699.263C800.988 699.959 806.966 696.99 812.238 693.687C825.154 685.583 837.934 678.634 852.418 673.725C856.926 672.196 855.093 665.169 850.458 666.531C839.508 669.741 828.981 674.245 819.098 679.948C814.198 682.76 809.641 686.21 804.663 688.885C798.283 692.315 794.177 691.345 787.865 688.532C779.33 684.73 772.617 687.641 769.677 696.5C768.109 701.184 767.001 706.3 762.611 709.24C760.21 710.847 756.79 711.68 754.222 709.965C753.006 709.23 752.202 707.97 752.048 706.557C751.894 705.145 752.408 703.741 753.438 702.762C756.466 699.9 752.037 695.686 748.94 698.264L748.92 698.274Z" fill="#382C80"/>
<path d="M620.157 256.499C623.823 258.851 629.242 264.104 633.877 263.683C638.513 263.261 640.973 257.45 643.109 254.069C649.161 244.327 654.255 234.022 658.319 223.297C660.132 218.603 652.576 216.564 650.792 221.219C647.763 229.103 644.16 236.755 640.012 244.112C639.15 245.641 638.258 247.16 637.356 248.669C636.455 250.178 635.112 253.569 633.623 254.618L632.643 255.862C631.614 255.314 630.594 254.755 629.585 254.177L623.509 250.776C619.765 248.689 616.58 254.206 620.167 256.499H620.157Z" fill="#382C80"/>
<path d="M605.369 509.339C608.603 512.054 611.818 514.798 615.081 517.483C616.953 519.022 618.883 520.835 621.451 520.913C627.645 521.09 629.409 513.838 631.075 509.33C636.68 494.169 642.305 479.008 647.735 463.789C649.459 458.938 641.855 456.929 640.061 461.672C635.945 472.661 631.904 483.673 627.939 494.708C625.979 500.059 624.254 505.488 622.108 510.8C621.627 511.966 621.559 512.907 620.491 512.975C619.422 513.044 617.698 511.103 616.806 510.457L608.917 504.724C606.241 502.764 602.802 507.193 605.359 509.339H605.369Z" fill="#382C80"/>
<path d="M135.371 127.992C138.615 126.591 141.594 124.856 145.005 123.807C148.2 122.827 151.502 122.386 154.805 121.671C158.46 120.867 157.559 115.281 153.933 115.252C146.524 115.174 137.488 118.535 132.039 123.621C129.55 125.954 132.716 129.158 135.411 127.992H135.371Z" fill="#382C80"/>
<path d="M212.958 154.648C220.15 164.8 228.36 174.191 237.458 182.676C226.594 183.787 215.696 184.469 204.766 184.724C203.787 184.836 202.797 184.687 201.894 184.293C200.199 183.362 199.934 181.088 199.866 179.158C199.682 176.367 200.014 173.567 200.846 170.896C201.715 168.195 203.79 166.051 206.461 165.095C203.273 159.622 204.703 152.628 209.783 148.846" fill="white"/>
<path d="M211.586 155.452C218.821 165.751 227.065 175.304 236.194 183.97L237.487 180.843C229.5 181.725 221.494 182.196 213.467 182.539C210.047 182.676 203.177 184.156 201.913 180.089C200.551 175.718 202.727 168.691 207.009 166.927C207.562 166.751 208.008 166.339 208.228 165.801C208.447 165.264 208.417 164.657 208.146 164.144C205.497 159.39 206.75 153.41 211.086 150.12C212.654 148.856 210.537 146.063 208.92 147.298C203.026 151.629 201.285 159.675 204.863 166.055L206 163.272C201.756 164.997 199.316 168.319 198.415 172.798C197.729 176.198 197.043 182.088 199.698 184.95C202.854 188.34 210.478 186.478 214.398 186.292C222.101 185.91 229.775 185.204 237.458 184.509C238.938 184.371 239.996 182.549 238.751 181.382C229.75 172.999 221.563 163.782 214.3 153.854C213.115 152.227 210.38 153.766 211.556 155.452H211.586Z" fill="#382C80"/>
<path d="M228.413 183.264C228.413 182.284 228.276 181.363 228.207 180.412C228.207 179.834 228.148 179.256 228.148 178.678C228.148 178.099 228.04 178.099 228.364 178.09C228.981 178.09 230.245 179.697 230.657 180.05C231.519 180.863 232.431 181.657 233.215 182.549L234.744 178.874C232.656 178.795 230.569 178.815 228.481 178.825L230.735 181.079C230.767 180.459 230.849 179.843 230.98 179.236C231.229 178.209 230.697 177.154 229.724 176.742C228.751 176.331 227.623 176.686 227.06 177.58C226.443 178.638 226.153 179.856 226.227 181.079C226.243 182.311 227.239 183.307 228.472 183.323C230.559 183.323 232.646 183.323 234.734 183.186C235.691 183.156 236.516 182.504 236.766 181.58C237.016 180.655 236.633 179.676 235.822 179.168C233.342 177.315 230.187 172.445 226.531 174.503C223.542 176.188 224.414 180.981 225.473 183.627C226.051 185.087 228.413 185.038 228.413 183.225V183.264Z" fill="#382C80"/>
<path d="M193.191 180.069C193.209 171.311 195.444 162.701 199.688 155.04C200.668 153.266 197.924 151.679 196.974 153.462C192.583 161.645 190.328 170.803 190.418 180.089C190.478 180.81 191.081 181.364 191.804 181.364C192.528 181.364 193.13 180.81 193.191 180.089V180.069Z" fill="#382C80"/>
<path d="M187.38 881.681C179.627 874.838 174.156 865.785 171.7 855.74C170.906 852.486 167.859 838.668 174.64 840.06C178.903 840.932 181.5 846.391 185.146 848.704C187.106 849.948 188.938 847.567 188.086 845.764C184.401 838.071 188.546 829.897 194.034 824.282C196.759 821.356 200.086 819.055 203.785 817.54C206.265 816.56 209.136 815.962 211.625 817.422C214.115 818.882 215.428 821.665 213.899 824.194L217.819 826.467C221.798 818.549 230.765 812.248 239.565 817.187C250.169 823.126 243.691 836.032 239.085 843.715C238.689 844.421 238.692 845.283 239.094 845.985C239.495 846.688 240.236 847.128 241.045 847.145C247.131 847.518 255.618 843.421 260.429 848.449C264.202 852.369 264.349 859.033 260.204 862.678C259.581 863.327 259.401 864.283 259.745 865.113C260.089 865.944 260.893 866.492 261.792 866.51C269.289 866.001 278.334 865.148 284.9 869.607C290.408 873.351 293.544 882.082 288.026 887.149C285.958 889.05 289.006 892.049 291.103 890.226C297.297 884.709 296.003 875.291 291.103 869.323C284.136 860.856 271.65 861.355 261.772 862.022L263.36 865.854C268.642 861.169 268.965 853.114 265.251 847.332C259.459 838.325 249.63 843.088 241.025 842.588L242.985 846.018C248.973 835.954 254.873 820.685 241.809 813.267C231.029 807.152 218.828 813.923 213.889 824.194C212.654 826.771 216.339 829.025 217.809 826.467C220.22 822.175 218.73 817.206 214.869 814.276C209.371 810.101 202.061 812.767 196.935 816.236C186.959 822.89 178.119 836.052 184.44 847.978L187.38 845.038C182.363 842.098 179.138 834.827 172.239 836.12C167.006 837.1 166.643 842.755 166.918 847.116C167.884 861.352 174.482 874.616 185.254 883.974C186.773 885.307 189.017 883.092 187.488 881.739L187.38 881.681Z" fill="#382C80"/>
<path d="M303.02 872.949C303.147 871.449 306.156 872.028 306.989 872.273C308.328 872.705 309.532 873.474 310.487 874.507C312.383 876.42 313.263 879.116 312.859 881.779C312.588 882.723 313.135 883.708 314.079 883.979C315.024 884.249 316.009 883.703 316.279 882.759C317.935 877.761 315.074 872.351 310.605 869.891C308.496 868.664 306.011 868.25 303.618 868.725C301.53 869.235 299.355 871.057 300.227 873.36C300.437 874.022 301.092 874.437 301.779 874.345C302.467 874.253 302.99 873.681 303.02 872.988V872.949Z" fill="#382C80"/>
<path d="M279.873 847.175C278.982 836.306 279.038 825.38 280.039 814.521C281.019 804.221 282.274 792.628 286.174 782.946C286.619 781.802 287.177 780.705 287.84 779.672L289.251 777.908L292.73 778.585C293.71 779.702 292.642 785.268 292.554 786.905C292.233 792.581 291.509 798.227 290.388 803.8C288.359 813.855 283.753 823.4 283.067 833.729C282.901 836.169 286.409 836.385 287.134 834.278C289.202 828.222 292.956 816.138 300.766 815.08C306.646 814.276 301.648 821.656 300.168 823.978C297.987 827.279 295.417 830.306 292.515 832.994C290.613 834.797 293.436 837.551 295.366 835.846C299.002 832.632 315.505 814.286 305.353 810.503C301.021 808.867 295.327 812.767 292.417 815.589C287.517 820.293 285.272 826.928 283.136 833.229L287.203 833.778C287.673 826.565 290.261 819.872 292.103 812.953C293.819 806.525 295.025 799.971 295.709 793.353C296.17 788.924 299.032 766.354 288.085 774.165C284.724 776.566 283.009 780.839 281.862 784.651C279.916 791.569 278.5 798.626 277.628 805.76C275.725 819.499 275.396 833.41 276.648 847.224C276.825 849.301 280.088 849.331 279.912 847.224L279.873 847.175Z" fill="#382C80"/>
<path d="M270.043 825.282C269.745 823.01 268.177 821.108 266.005 820.382C265.269 820.18 264.489 820.497 264.104 821.156C262.813 823.7 263.201 826.774 265.084 828.917C266.348 830.427 269.004 828.388 267.847 826.781C266.864 825.561 266.617 823.904 267.201 822.449L265.133 823.625C266.271 823.959 267.172 824.831 267.544 825.958C267.858 826.479 268.479 826.728 269.067 826.569C269.654 826.409 270.064 825.88 270.072 825.272L270.043 825.282Z" fill="#382C80"/>
</svg>
