<svg width="24" height="24" viewBox="0 0 24 24" fill="none" xmlns="http://www.w3.org/2000/svg">
<path d="M7.08021 6.29395C3.717 6.29408 1.20291 9.11735 1.01367 12.2625C1.1309 12.9402 1.51588 14.2784 2.119 14.2097C2.87278 14.1238 4.77127 14.2097 6.39062 11.2034C7.57353 9.00733 10.0069 6.29381 7.08021 6.29395Z" fill="url(#paint0_radial_2225_101)"/>
<path d="M6.30241 7.46798C5.17188 9.30352 3.65001 11.9338 3.13639 12.7615C2.52584 13.7454 0.909018 13.3274 1.04296 11.9172C1.02983 12.0316 1.01962 12.1471 1.01259 12.2632C0.791523 15.9322 3.62812 18.9792 7.15803 18.9792C11.0484 18.9792 20.3267 14.0083 19.3876 9.02758C18.3979 6.1 15.6164 4.00009 12.4639 4.00009C9.31154 4.00009 7.29117 5.86255 6.30241 7.46798Z" fill="url(#paint1_radial_2225_101)"/>
<path d="M6.30241 7.46798C5.17188 9.30352 3.65001 11.9338 3.13639 12.7615C2.52584 13.7454 0.909018 13.3274 1.04296 11.9172C1.02983 12.0316 1.01962 12.1471 1.01259 12.2632C0.791523 15.9322 3.62812 18.9792 7.15803 18.9792C11.0484 18.9792 20.3267 14.0083 19.3876 9.02758C18.3979 6.1 15.6164 4.00009 12.4639 4.00009C9.31154 4.00009 7.29117 5.86255 6.30241 7.46798Z" fill="url(#paint2_radial_2225_101)"/>
<path d="M6.30241 7.46798C5.17188 9.30352 3.65001 11.9338 3.13639 12.7615C2.52584 13.7454 0.909018 13.3274 1.04296 11.9172C1.02983 12.0316 1.01962 12.1471 1.01259 12.2632C0.791523 15.9322 3.62812 18.9792 7.15803 18.9792C11.0484 18.9792 20.3267 14.0083 19.3876 9.02758C18.3979 6.1 15.6164 4.00009 12.4639 4.00009C9.31154 4.00009 7.29117 5.86255 6.30241 7.46798Z" fill="url(#paint3_radial_2225_101)"/>
<path d="M6.30241 7.46798C5.17188 9.30352 3.65001 11.9338 3.13639 12.7615C2.52584 13.7454 0.909018 13.3274 1.04296 11.9172C1.02983 12.0316 1.01962 12.1471 1.01259 12.2632C0.791523 15.9322 3.62812 18.9792 7.15803 18.9792C11.0484 18.9792 20.3267 14.0083 19.3876 9.02758C18.3979 6.1 15.6164 4.00009 12.4639 4.00009C9.31154 4.00009 7.29117 5.86255 6.30241 7.46798Z" fill="url(#paint4_radial_2225_101)"/>
<path d="M6.30241 7.46798C5.17188 9.30352 3.65001 11.9338 3.13639 12.7615C2.52584 13.7454 0.909018 13.3274 1.04296 11.9172C1.02983 12.0316 1.01962 12.1471 1.01259 12.2632C0.791523 15.9322 3.62812 18.9792 7.15803 18.9792C11.0484 18.9792 20.3267 14.0083 19.3876 9.02758C18.3979 6.1 15.6164 4.00009 12.4639 4.00009C9.31154 4.00009 7.29117 5.86255 6.30241 7.46798Z" fill="url(#paint5_radial_2225_101)"/>
<path d="M7.10132 18.9807C7.10132 18.9807 16.3905 18.9995 17.9662 18.9995C20.8256 18.9995 22.9997 16.6055 22.9997 13.8119C22.9997 11.0183 20.7819 8.63892 17.9662 8.63892C15.1504 8.63892 13.5288 10.7991 12.3109 13.1572C10.8839 15.9204 9.0632 18.9477 7.10132 18.9807Z" fill="url(#paint6_linear_2225_101)"/>
<path d="M7.10132 18.9807C7.10132 18.9807 16.3905 18.9995 17.9662 18.9995C20.8256 18.9995 22.9997 16.6055 22.9997 13.8119C22.9997 11.0183 20.7819 8.63892 17.9662 8.63892C15.1504 8.63892 13.5288 10.7991 12.3109 13.1572C10.8839 15.9204 9.0632 18.9477 7.10132 18.9807Z" fill="url(#paint7_radial_2225_101)"/>
<path d="M7.10132 18.9807C7.10132 18.9807 16.3905 18.9995 17.9662 18.9995C20.8256 18.9995 22.9997 16.6055 22.9997 13.8119C22.9997 11.0183 20.7819 8.63892 17.9662 8.63892C15.1504 8.63892 13.5288 10.7991 12.3109 13.1572C10.8839 15.9204 9.0632 18.9477 7.10132 18.9807Z" fill="url(#paint8_radial_2225_101)"/>
<defs>
<radialGradient id="paint0_radial_2225_101" cx="0" cy="0" r="1" gradientTransform="matrix(4.44274 5.45915 -8.82981 7.55705 1.4308 7.11825)" gradientUnits="userSpaceOnUse">
<stop stop-color="#4894FE"/>
<stop offset="0.695072" stop-color="#0934B3"/>
</radialGradient>
<radialGradient id="paint1_radial_2225_101" cx="0" cy="0" r="1" gradientTransform="matrix(-19.5305 23.103 -16.6937 -14.8414 20.0445 -1.06838)" gradientUnits="userSpaceOnUse">
<stop offset="0.165327" stop-color="#23C0FE"/>
<stop offset="0.534" stop-color="#1C91FF"/>
</radialGradient>
<radialGradient id="paint2_radial_2225_101" cx="0" cy="0" r="1" gradientTransform="matrix(-4.64265 -3.99698 8.92238 -10.8991 5.92982 7.52311)" gradientUnits="userSpaceOnUse">
<stop stop-color="white" stop-opacity="0.4"/>
<stop offset="0.660528" stop-color="#ADC0FF" stop-opacity="0"/>
</radialGradient>
<radialGradient id="paint3_radial_2225_101" cx="0" cy="0" r="1" gradientTransform="matrix(-5.21588 -4.52594 6.70266 -8.12346 12.5213 14.8704)" gradientUnits="userSpaceOnUse">
<stop stop-color="#033ACC"/>
<stop offset="1" stop-color="#368EFF" stop-opacity="0"/>
</radialGradient>
<radialGradient id="paint4_radial_2225_101" cx="0" cy="0" r="1" gradientTransform="matrix(5.96097 14.1069 -14.8505 6.59934 5.52859 3.52613)" gradientUnits="userSpaceOnUse">
<stop offset="0.592618" stop-color="#3464E3" stop-opacity="0"/>
<stop offset="1" stop-color="#033ACC" stop-opacity="0.6"/>
</radialGradient>
<radialGradient id="paint5_radial_2225_101" cx="0" cy="0" r="1" gradientTransform="matrix(-15.5938 15.9915 -24.4302 -25.0533 19.8041 0.5284)" gradientUnits="userSpaceOnUse">
<stop stop-color="#4BFDE8" stop-opacity="0.898039"/>
<stop offset="0.543937" stop-color="#4BFDE8" stop-opacity="0"/>
</radialGradient>
<linearGradient id="paint6_linear_2225_101" x1="15.0555" y1="18.989" x2="15.0555" y2="8.76173" gradientUnits="userSpaceOnUse">
<stop stop-color="#0086FF"/>
<stop offset="0.49" stop-color="#00BBFF"/>
</linearGradient>
<radialGradient id="paint7_radial_2225_101" cx="0" cy="0" r="1" gradientTransform="matrix(9.28921 3.77789 -6.97614 18.0393 9.84404 9.8573)" gradientUnits="userSpaceOnUse">
<stop stop-color="white" stop-opacity="0.4"/>
<stop offset="0.785262" stop-color="white" stop-opacity="0"/>
</radialGradient>
<radialGradient id="paint8_radial_2225_101" cx="0" cy="0" r="1" gradientTransform="matrix(-10.3777 9.17231 -8.97451 -10.6784 22.6889 7.83583)" gradientUnits="userSpaceOnUse">
<stop stop-color="#4BFDE8" stop-opacity="0.898039"/>
<stop offset="0.584724" stop-color="#4BFDE8" stop-opacity="0"/>
</radialGradient>
</defs>
</svg>
