<svg width="1000" height="1000" viewBox="0 0 1000 1000" fill="none" xmlns="http://www.w3.org/2000/svg">
<path d="M765.06 110.823C756.112 114.872 745.625 113.341 738.208 106.903C731.476 100.876 726.801 88.5474 732.809 80.776C739.541 72.0638 745.059 62.3128 752.467 54.0514C760.219 45.4078 769.951 38.1656 781.181 35.2452C784.621 34.3534 788.453 33.932 791.55 35.6568C794.646 37.3816 796.283 40.8802 796.665 44.3494C797.048 47.8186 796.332 51.3172 795.617 54.7276C799.272 54.1788 802.996 56.2172 805.182 59.2062C807.245 62.3088 808.359 65.9463 808.386 69.6726C808.742 77.9405 806.065 86.0538 800.86 92.487" fill="var(--color-illustration-primary, #382C80)"/>
<path d="M764.385 108.372C754.016 112.557 741.766 109.244 736.347 99.0524C734.005 94.662 732.505 88.9878 734.946 84.3524C737.601 79.3054 741.904 74.6308 745.167 69.9268C751.86 60.1954 759.279 50.8756 769.5 44.5938C774.106 41.7518 780.192 38.606 785.759 38.5766C793.932 38.5766 792.413 48.1806 791.296 53.5608C790.737 56.246 792.54 59.4408 795.647 59.2742C802.889 58.8038 804.183 67.3984 803.879 72.9942C803.506 79.4916 800.782 85.0482 797.068 90.2618C794.128 94.3582 800.841 99.5718 804.094 95.6714C810.665 87.8492 813.784 77.6975 812.738 67.5356C811.758 58.5 805.682 49.6114 795.647 50.2778L799.988 55.9912C801.478 48.7784 802.673 39.88 796.735 34.1862C791.413 29.0902 783.446 30.1878 777.135 32.383C761.082 37.9298 749.548 50.3366 740.1 63.8998C737.611 67.4866 735.2 71.1322 732.662 74.6798C730.457 77.7962 727.968 80.648 726.988 84.421C725.332 90.7616 727.213 97.7196 730.692 103.119C738.385 115.075 753.615 118.927 766.345 112.988C768.922 111.783 767.07 107.265 764.385 108.343V108.372Z" fill="var(--color-illustration-primary, #382C80)"/>
<path d="M310.311 615.542C277.579 586.446 266.368 540.258 262.213 496.658C261.037 484.388 261.341 469.737 271.484 462.721C276.433 459.3 282.705 458.575 288.683 457.958L367.994 449.706C374.942 448.981 382.204 448.295 388.731 450.784C405.508 457.184 410.487 501.372 414.926 516.807C422.609 543.473 429.371 570.452 433.546 597.912C440.406 642.992 440.181 689.904 426.275 733.357C417.376 761.15 403.088 786.954 386.771 811.15C369.67 836.502 348.551 861.473 319.562 871.047" fill="var(--color-illustration-base, #FFFFFF)"/>
<path d="M312.516 613.337C295.856 597.657 284.694 577.077 277.628 555.517C270.729 534.3 266.025 510.78 265.78 488.534C265.652 476.774 268.72 465.788 281.587 463.054C295.16 460.173 309.703 459.899 323.502 458.487C338.329 456.959 353.156 455.4 367.994 453.911C377.362 452.931 387.505 451.814 393.474 460.31C402.784 473.501 405.018 491.915 408.272 507.35C413.172 530.655 420.678 553.322 425.353 576.715C436.133 630.722 438.152 687.994 419.071 740.443C409.232 767.54 394.326 793.02 377.558 816.413C362.388 837.63 343.543 857.896 318.445 866.981C313.408 868.804 315.456 876.781 320.689 875.115C344.64 867.49 363.172 850.154 378.313 830.672C395.284 808.958 409.556 785.265 420.816 760.112C444.992 705.535 446.374 645.452 436.241 587.387C433.644 572.471 430.361 557.693 426.568 543.022C423.569 531.262 419.787 519.698 417.19 507.85C413.505 491.082 411.045 472.433 401.843 457.576C396.776 449.403 389.965 445.434 380.283 444.836C373.001 444.405 365.583 445.718 358.341 446.473L335.124 448.923C319.111 450.608 303.069 452.127 287.104 453.989C275.609 455.332 265.309 458.889 260.644 470.404C255.98 481.919 257.94 495.208 259.429 507.184C261.058 521.235 263.737 535.144 267.446 548.794C274.796 575.009 287.32 599.754 308.194 617.708C311.203 620.295 315.554 616.081 312.604 613.298L312.516 613.337Z" fill="var(--color-illustration-primary, #382C80)"/>
<path d="M254.02 463.515C240.188 512.743 242.245 565.082 259.9 613.072C273.62 650.185 296.797 684.848 299.708 724.332C301.099 743.167 297.748 761.993 294.376 780.584C284.91 833.092 273.659 885.522 265.466 938.236C261.546 963.716 287.801 961.472 308.645 963.295C338.251 965.892 368.553 964.677 397.913 965.49C398.833 965.609 399.765 965.423 400.569 964.961C401.2 964.432 401.638 963.708 401.814 962.903C403.323 957.827 401.304 952.211 397.894 948.154C394.483 944.097 389.858 941.294 385.301 938.56C356.557 921.41 351.579 905.063 358.498 874.017C365.583 842.216 372.051 810.258 376.383 777.977C387.525 694.883 387.81 608.741 365.916 527.009" fill="var(--color-illustration-base, #FFFFFF)"/>
<path d="M251.08 462.691C240.714 499.163 238.896 537.534 245.768 574.823C249.257 593.14 254.738 611.02 262.115 628.144C269.318 645.157 277.716 661.66 284.449 678.869C291.182 696.078 296.14 714.149 296.209 732.769C296.209 753.594 291.642 774.272 287.84 794.656C280.176 835.816 271.729 876.81 264.78 918.087C262.713 930.318 256.421 948.173 267.211 958.169C275.325 965.686 288.222 965.951 298.571 966.607C316.877 967.744 335.086 968.91 353.451 969.057C363.907 969.145 374.354 969.126 384.811 969.243C391.416 969.322 403.254 972.32 405.783 963.941C411.045 946.547 390.573 937.756 379.519 929.886C369.601 922.83 361.634 913.501 360.164 901.055C358.282 885.218 363.947 868.813 367.181 853.515C371.473 833.2 375.373 812.796 378.49 792.265C390.407 713.806 392.719 632.731 376.667 554.674C374.707 545.011 372.384 535.417 369.856 525.881C368.533 520.923 360.84 523.03 362.163 527.998C382.037 602.782 383.419 681.28 374.903 757.838C370.493 797.4 362.388 836.11 354.254 875.026C351.824 886.6 350.236 899.183 354.058 910.649C357.88 922.115 366.377 930.504 376.02 937.276C382.518 941.833 390.975 945.116 395.689 951.74C397.208 953.877 399.736 960.09 398.021 961.413C397.041 962.177 391.906 961.266 390.505 961.246C387.989 961.194 385.471 961.162 382.949 961.148C362.957 960.952 342.955 961.217 322.973 960.168C315.231 959.767 307.499 959.051 299.757 958.581C294.073 958.228 288.33 957.963 282.763 956.719C278.471 955.739 273.63 954.239 271.082 950.359C267.221 944.479 269.955 935.982 270.964 929.71C277.344 890.294 285.262 851.153 292.701 811.934C299.727 774.919 309.361 736.964 299.453 699.596C290.28 665.62 270.68 635.543 259.9 602.086C248.402 566.3 245.425 528.321 251.207 491.18C252.643 482.147 254.584 473.202 257.019 464.386C258.077 460.535 252.119 458.898 251.041 462.74L251.08 462.691Z" fill="var(--color-illustration-primary, #382C80)"/>
<path d="M365.946 526.979C387.839 608.711 387.555 694.853 376.412 777.948C373.796 797.548 370.385 816.952 366.534 836.316C364.623 845.92 363.074 855.838 360.458 865.285C357.655 875.369 351.226 875.193 341.152 877.29C310.326 883.673 278.322 881.196 248.846 870.146C241.123 867.206 236.88 867.049 236.507 859.366C236.145 852.006 241.466 841.295 243.436 834.121C248.209 816.756 252.971 799.37 257.528 781.946C262.321 763.679 267.132 745.167 267.211 726.282C267.377 686.69 247.003 650.332 236.164 612.259C222.283 563.045 224.293 510.705 241.907 462.701" fill="var(--color-illustration-base, #FFFFFF)"/>
<path d="M362.967 527.803C378.069 586.024 382.312 646.461 379.245 706.417C377.682 736.353 374.525 766.184 369.788 795.784C367.406 810.817 364.457 825.723 361.624 840.677C360.243 847.959 358.998 855.289 357.067 862.443C355.686 867.598 353.882 870.362 348.6 871.704C321.746 878.475 293.626 878.438 266.79 871.596C260.165 869.881 253.775 867.618 247.337 865.324C242.437 863.59 240.046 862.688 240.604 856.916C241.163 851.144 243.819 845.528 245.73 840.109C248.013 833.641 249.65 826.908 251.423 820.284C255.481 805.446 259.518 790.59 263.34 775.684C267.103 760.984 270.475 746.137 271.18 730.976C272.415 703.036 263.144 676.302 253.619 650.479C242.505 620.334 232.99 590.591 231.431 558.232C229.87 526.096 234.737 493.971 245.749 463.74C247.513 458.918 239.81 456.831 238.066 461.623C227.764 489.724 222.653 519.464 222.984 549.392C223.356 579.36 229.687 608.192 239.761 636.328C249.62 663.768 261.89 691.521 263.066 721.117C263.693 737.013 260.714 752.654 256.921 768.02C253.001 783.857 248.679 799.606 244.387 815.344C242.427 822.665 240.673 830.152 238.164 837.316C236.204 842.98 233.774 848.596 232.833 854.564C232.117 859.072 232.245 864.364 235.479 868C238.419 871.283 243.133 872.351 247.111 873.801C274.981 884.117 305.021 887.153 334.39 882.621C343.445 881.191 356.685 880.661 362.036 871.89C365.525 866.167 366.358 858.396 367.622 851.947C369.121 844.294 370.562 836.62 372.032 828.957C378.046 797.886 382.374 766.513 384.997 734.975C390.054 672.843 388.173 609.603 374.521 548.618C372.836 541.091 370.974 533.611 368.935 526.176C367.896 522.324 361.958 523.951 362.967 527.822V527.803Z" fill="var(--color-illustration-primary, #382C80)"/>
<path d="M329.813 234.714C400.01 239.144 431.968 291.672 477.95 328.049C475.99 326.482 513.671 274.6 516.444 270.651C524.774 258.754 533.137 246.879 541.532 235.028C556.781 213.419 576.195 193.3 595.334 175.032C611.161 159.911 629.32 150.532 649.528 142.438C657.162 139.238 665.125 136.892 673.273 135.44C678.076 134.666 684.053 134.911 686.357 139.204C687.709 141.752 687.17 144.937 685.857 147.494C682.24 154.541 674.038 157.608 667.57 162.194C663.365 165.324 660.222 169.668 658.564 174.64C661.082 174.64 663.709 174.572 665.982 175.62C668.922 176.992 670.765 179.991 671.568 183.098C672.372 186.204 671.99 189.409 672.225 192.574C676.723 193.055 679.781 192.682 682.397 196.788C685.847 202.227 682.25 206.216 680.937 211.694C685.837 208.989 692.923 211.616 694.883 216.888C698.42 226.433 689.434 230.363 684.338 235.851C676.988 243.75 671.901 255.686 666.492 264.977C654.957 284.773 643.854 304.863 630.879 323.777C604.076 362.8 565.973 396.169 518.551 406.616C483.398 414.358 446.139 404.352 415.053 386.193C383.968 368.034 339.182 335.488 314.388 309.39" fill="var(--color-illustration-base, #FFFFFF)"/>
<path d="M329.813 237.87C354.127 239.585 376.667 247.954 396.747 261.655C415.024 274.13 430.695 289.967 446.61 305.225C455.851 314.045 465.23 322.787 475.226 330.784C478.303 333.253 484.183 329.912 481.292 326.109L481.625 328.647C481.655 328.517 481.695 328.39 481.743 328.265C482.076 328.265 481.419 328.569 481.831 328.089C482.327 327.334 482.763 326.541 483.134 325.717C484.624 323.14 486.27 320.651 487.917 318.161C492.111 311.811 496.472 305.568 500.863 299.345C508.242 288.869 515.768 278.491 523.138 267.985C540.631 243.074 557.859 218.633 579.076 196.7C588.818 186.636 598.676 176.189 609.976 167.869C621.03 159.744 633.329 153.433 645.961 148.141C652.901 145.106 660.067 142.616 667.394 140.693C672.157 139.527 688.043 136.42 681.731 146.681C678.203 152.434 670.834 154.972 665.561 158.755C660.289 162.537 657.045 167.575 654.723 173.533C653.743 175.973 656.193 178.6 658.564 178.58C662.357 178.58 665.65 178.962 667.316 182.814C668.58 185.754 668.1 189.438 668.237 192.555C668.298 194.732 670.048 196.482 672.225 196.543C675.391 196.847 679.007 196.661 679.791 200.669C680.408 203.815 677.909 207.686 677.096 210.616C676.116 214.223 679.928 216.496 682.976 215.114C684.519 214.456 686.263 214.446 687.814 215.088C689.364 215.729 690.591 216.968 691.218 218.525C692.6 222.072 690.61 224.679 688.141 227.021C683.241 231.725 678.674 235.89 674.92 241.721C670.53 248.581 667.08 255.931 663.062 262.968C658.136 271.559 653.164 280.131 648.147 288.683C631.007 317.916 612.191 345.905 586.054 367.906C561.27 388.761 529.812 404.323 496.952 405.195C461.917 406.126 430.244 391.563 401.412 373.022C371.552 353.814 341.916 332.224 317.24 306.558C313.653 302.834 308.028 308.518 311.576 312.223C335.605 337.497 364.496 358.665 393.611 377.657C424.491 397.796 458.399 413.986 496.119 413.261C531.517 412.584 565.053 396.022 591.728 373.58C620.795 349.08 640.895 317.23 659.73 284.694C665.346 274.992 670.932 265.3 676.234 255.422C680.84 246.866 685.789 239.938 692.962 233.44C698.362 228.54 701.557 222.043 698.342 214.879C694.971 207.372 686.102 204.962 678.948 208.254L684.828 212.753C686.573 206.5 689.728 200.993 685.877 194.779C682.721 189.654 677.762 189.115 672.265 188.596L676.243 192.574C675.979 186.773 676.243 181.059 672.627 176.15C669.168 171.504 664.091 170.573 658.603 170.632L662.445 175.669C665.277 168.437 670.481 165.027 676.841 161.126C681.908 158.02 687.053 154.413 689.63 148.857C691.992 143.77 691.669 137.596 686.984 133.961C682.3 130.325 675.969 130.923 670.51 131.922C655.81 134.598 641.375 140.977 628.047 147.681C614.828 154.229 602.655 162.704 591.924 172.827C579.998 184.195 568.404 195.946 557.624 208.382C546.844 220.818 537.24 234.244 527.724 247.729C517.483 262.252 507.144 276.717 496.894 291.241C491.239 299.257 485.633 307.323 480.312 315.574C478.528 318.328 471.796 326.354 474.618 330L480.684 325.325C444.562 296.748 415.799 257.94 371.777 240.643C358.343 235.463 344.187 232.395 329.813 231.549C325.746 231.275 325.776 237.586 329.813 237.87Z" fill="var(--color-illustration-primary, #382C80)"/>
<path d="M323.542 326.285C348.326 352.382 393.122 384.928 424.198 403.088C455.274 421.247 492.543 431.253 527.705 423.56C575.128 413.113 613.22 379.773 640.023 340.711C644.815 333.723 648.843 323.59 654.723 317.661C659.672 312.692 668.267 311.83 668.443 302.569C668.58 296.17 662.054 290.143 655.87 291.789C654.302 292.306 652.791 292.982 651.362 293.808C625.813 306.695 599.079 284.596 583.742 265.319C575.784 255.353 568.258 244.68 563.338 232.852C561.269 228.334 560.525 223.321 561.192 218.397C561.378 216.349 562.094 200.825 565.043 200.757C554.731 201.178 545.522 207.334 541.19 216.701C538.103 223.64 538.074 231.558 535.634 238.751C533.556 244.837 529.832 250.198 526.128 255.411C515.896 269.974 505.499 284.439 494.934 298.806C492.896 301.579 476.902 327.226 477.951 328.049C431.969 291.671 400.041 239.143 329.814 234.714" fill="var(--color-illustration-secondary, #7F72FF)"/>
<path d="M321.298 328.5C335.135 343.043 350.698 355.94 366.564 368.21C382.637 380.696 399.374 392.303 416.701 402.98C454.539 426.108 498.678 437.653 542.004 423.776C580.312 411.496 611.966 384.644 636.015 353C642.258 344.798 647.06 336.095 652.43 327.344C654.762 323.551 657.212 320.268 661.005 317.897C664.219 315.937 667.61 314.084 669.825 310.939C674.725 304.128 672.451 294.347 665.523 289.839C656.291 283.832 647.991 292.534 638.602 293.475C615.425 295.807 595.561 274.492 582.919 257.754C578.655 252.191 574.797 246.328 571.374 240.212C568.434 234.94 565.23 229.069 565.014 222.915C565.009 219.666 565.206 216.419 565.602 213.193C565.788 211.233 565.984 209.273 566.347 207.421C566.507 206.835 566.631 206.239 566.719 205.638C566.807 203.678 568.209 204.07 566.131 204.56C570.463 203.531 569.61 196.445 565.063 196.72C553.499 197.357 542.69 203.972 537.75 214.644C534.957 220.69 534.428 227.325 532.85 233.734C531.067 241.133 526.97 247.248 522.639 253.393C509.174 272.64 494.503 291.103 482.361 311.252C480.166 314.878 477.961 318.514 476.001 322.277C474.736 324.698 473.061 327.373 474.491 330.117L480.822 325.217C444.69 296.464 416.005 257.529 372.042 239.879C358.568 234.617 344.345 231.524 329.902 230.716C324.747 230.383 324.796 238.35 329.902 238.722C354.01 240.457 376.531 248.718 396.542 262.184C414.868 274.532 430.578 290.241 446.522 305.421C455.783 314.241 465.142 322.944 475.207 330.901C478.686 333.675 483.723 330.303 481.528 326.001C483.488 329.774 481.528 328.726 482.086 328.196C482.497 327.617 482.826 326.984 483.066 326.315C483.958 324.61 484.919 322.944 485.879 321.278C488.29 317.103 490.779 312.997 493.337 308.91C499.403 299.11 506.43 290.065 513.143 280.735C518.369 273.503 523.54 266.247 528.656 258.969C533.242 252.462 537.848 245.906 540.151 238.183C542.327 230.912 542.2 222.768 546.139 216.094C550.206 209.358 557.352 205.081 565.21 204.677L564.152 196.837C558.644 198.15 558.419 206.902 557.948 211.273C557.174 218.348 556.517 225.492 559.026 232.313C562.946 242.985 569.355 252.746 576.176 261.782C581.92 269.666 588.458 276.94 595.688 283.489C609.477 295.582 628.185 305.686 646.932 299.904C651.225 298.581 656.948 293.789 661.211 296.474C665.758 299.355 665.533 305.147 661.554 308.234C659.065 310.194 656.134 311.429 653.714 313.418C650.009 316.417 647.305 320.611 644.894 324.678C639.808 333.283 634.937 341.632 628.841 349.58C622.576 357.692 615.783 365.382 608.506 372.6C594.238 386.869 577.96 399.148 559.82 408.057C541.053 417.278 520.385 422.757 499.393 422.129C476.422 421.483 453.794 414.495 433.518 403.901C413.986 393.7 395.572 380.92 377.795 367.975C359.469 354.637 341.535 340.417 325.776 324.041C322.944 321.101 318.495 325.57 321.298 328.52V328.5Z" fill="var(--color-illustration-secondary, #7F72FF)"/>
<path d="M376.608 290.545C393.317 317.76 396.689 349.345 400.295 379.725C402.137 395.19 403.99 410.703 407.665 425.922C410.712 438.525 418.582 452.382 417.141 465.475C416.426 471.924 410.467 476.775 404.401 480.087C386.693 489.711 365.27 491.778 344.621 491.974C307.616 492.337 269.681 487.153 237.096 470.944C230.304 467.563 223.307 463.192 220.965 456.469C218.289 448.805 222.474 440.789 225.502 433.263C233.234 413.996 234.871 391.044 234.43 370.621C233.568 330.755 249.571 295.729 271.229 263.174C277.423 253.864 284.4 244.044 294.955 240.34" fill="var(--color-illustration-secondary, #7F72FF)"/>
<path d="M373.963 292.093C395.082 328.187 393.72 371.316 400.472 411.369C402.161 421.444 404.702 431.358 408.067 441.004C410.742 448.678 416.367 461.476 411.115 469.052C405.862 476.627 394.455 480.224 386.046 482.576C376.166 485.18 366.025 486.666 355.813 487.005C316.143 488.897 272.19 484.702 236.782 465.289C233.254 463.329 229.413 461.084 227.041 457.723C223.739 453.058 225.013 447.698 226.786 442.709C230.246 432.988 234.068 423.884 236.018 413.662C237.786 404.064 238.798 394.342 239.046 384.586C239.34 374.864 238.733 365.142 239.536 355.431C241.32 333.929 248.425 313.114 258.205 293.994C263.3 284.163 268.937 274.623 275.091 265.418C280.52 257.225 286.498 248.091 296.014 244.299C300.914 242.339 298.895 234.42 293.799 236.282C275.541 242.936 264.948 263.33 255.834 279.236C245.377 297.493 236.861 317.191 232.706 337.898C228.413 359.253 230.971 380.842 228.227 402.324C226.918 413.045 224.199 423.546 220.142 433.556C216.163 443.219 212.302 453.764 219.064 463.211C224.885 471.355 234.989 475.559 243.907 479.342C253.768 483.516 263.955 486.872 274.365 489.377C296.141 494.649 318.72 496.678 341.103 496.6C362.781 496.521 385.566 494.836 405.127 484.644C412.82 480.645 420.513 474.638 421.493 465.426C422.62 454.871 418.308 444.532 414.868 434.791C406.273 410.477 405.195 383.988 401.658 358.635C398.267 334.331 392.338 310.017 379.265 288.996C377.177 285.645 371.954 288.663 373.963 292.093Z" fill="var(--color-illustration-secondary, #7F72FF)"/>
<path d="M609.25 184.832C613.289 184.917 617.228 183.574 620.373 181.039C624.656 177.55 627.478 171.847 632.819 170.406C637.856 169.274 642.875 172.373 644.118 177.384C644.466 179.81 644.255 182.284 643.501 184.616C641.512 192.28 637.788 197.807 633.28 204.04C635.122 205.617 639.101 205.568 641.521 206.529C644.366 207.691 647.025 209.266 649.41 211.203C653.958 214.89 657.666 219.504 660.288 224.737C662.033 228.167 663.366 232.43 661.347 235.703" fill="var(--color-illustration-base, #FFFFFF)"/>
<path d="M609.25 188.007C614.015 188.087 618.678 186.63 622.549 183.852C626.146 181.167 629.282 175.199 633.878 174.258C641.718 172.66 640.081 182.431 638.503 186.655C636.436 192.182 632.927 197.092 629.478 201.825C628.037 203.785 629.223 206.657 631.055 207.833C633.643 209.489 636.387 209.538 639.219 210.41C642.538 211.566 645.568 213.428 648.098 215.869C652.508 219.847 659.926 228.187 657.349 234.606C655.575 238.997 662.68 241.839 664.914 237.801C669.511 229.471 663.562 220.161 658.172 213.664C655.251 210.145 651.76 207.144 647.843 204.785C645.874 203.572 643.76 202.614 641.551 201.933C639.523 201.345 637.308 201.414 635.485 200.247L637.063 206.255C643.619 197.053 655.614 178.011 642.943 168.819C638.28 165.385 631.925 165.385 627.263 168.819C620.854 173.386 618.296 181.431 609.27 181.676C605.193 181.784 605.174 188.086 609.27 188.027L609.25 188.007Z" fill="var(--color-illustration-primary, #382C80)"/>
<path d="M250.708 297.492C203.776 295.454 245.2 246.532 203.982 269.121C153.11 297.022 113.949 345.218 123.622 406.468C129.433 443.365 154.472 459.771 184.862 475.882C216.535 492.669 253.717 494.796 289.565 495.56C305.186 495.884 320.994 496.011 336.213 492.473C346.993 489.964 357.646 485.486 366.289 478.449C377.304 469.482 373.923 465.533 377.069 453.469C378.451 448.216 384.155 444.845 385.174 439.504C385.781 436.319 384.566 433.085 384.37 429.851C384.066 424.716 386.33 419.806 387.232 414.749C388.349 408.683 386.585 403.803 381.675 400.167C376.364 396.247 369.67 396.815 364.163 393.464C358.283 389.897 362.203 384.301 361.938 377.088C361.801 373.305 361.428 369.032 358.479 366.661C351.285 360.879 345.886 369.552 341.064 373.09C333.4 378.705 321.64 381.145 312.458 382.89C298.532 385.545 284.283 385.496 270.2 384.516C257.823 383.664 246.288 384.017 234.077 383.732C235.753 383.732 241.133 373.932 242.28 372.511C246.135 367.775 250.071 363.113 254.089 358.527C262.125 349.38 270.478 340.495 279.148 331.871" fill="var(--color-illustration-base, #FFFFFF)"/>
<path d="M250.707 294.367C242.446 293.897 232.979 291.878 229.931 283.156C228.079 277.834 229 272.15 227.668 266.751C226.335 261.351 221.964 259.165 216.594 260.204C205.667 262.321 194.887 270.112 185.851 276.178C163.458 291.202 143.515 310.958 131.245 335.194C118.78 359.86 114.693 389.153 121.72 416.073C128.335 441.553 147.2 458.742 169.152 471.698C182.519 479.597 196.347 486.398 211.292 490.661C227.53 495.287 244.416 497.433 261.272 498.579C278.726 499.775 296.552 500.539 313.996 499.657C331.038 498.795 348.521 495.473 363.084 486.124C368.435 482.684 374.236 478.391 377.225 472.609C379.499 468.199 379.587 463.29 380.499 458.517C381.023 455.273 382.373 452.219 384.419 449.648C386.535 446.884 388.731 444.17 389.485 440.681C390.289 436.977 389.074 433.527 388.858 429.852C388.584 425.079 390.759 420.571 391.592 415.946C392.758 409.478 391.406 403.088 386.565 398.414C383.902 395.946 380.706 394.125 377.225 393.092C374.207 392.112 368.111 391.838 366.053 389.172C364.564 387.212 365.995 383.478 366.249 381.205C366.683 377.745 366.531 374.236 365.799 370.827C364.378 364.604 358.939 359.537 352.304 360.301C346.218 360.997 342.749 366.27 338.163 369.602C331.9 374.139 323.727 375.932 316.299 377.491C298.257 381.273 280.764 380.195 262.507 379.539C253.05 379.196 243.573 379.333 234.087 379.127L235.312 388.153C238.751 387.251 240.849 383.312 242.632 380.538C245.283 376.408 248.207 372.46 251.384 368.72C261.233 357.077 271.474 345.739 281.989 334.694C285.546 330.95 280.078 325.492 276.325 329.03C266.095 338.631 256.386 348.772 247.238 359.41C243.896 363.33 240.27 367.201 237.438 371.503C236.39 373.081 235.478 374.737 234.42 376.334C233.891 377.157 233.195 377.961 232.744 378.823C232.293 379.686 231.068 379.803 232.881 379.294C227.815 380.627 228.961 388.212 234.096 388.32C242.916 388.496 251.736 388.378 260.556 388.633C268.994 388.878 277.393 389.662 285.84 389.692C301.079 389.692 317.063 387.928 331.518 382.832C337.468 380.84 342.934 377.622 347.561 373.384C349.011 372.032 351.265 369.278 353.441 369.278C357.361 369.278 357.439 374.962 357.429 377.794C357.429 383.175 354.95 388.819 358.135 393.768C361.722 399.345 369.111 399.844 374.795 401.755C378.107 402.873 381.312 404.862 382.537 408.292C383.938 412.212 382.194 416.436 381.234 420.238C380.23 423.615 379.809 427.138 379.989 430.656C380.322 434.576 381.724 437.976 379.46 441.514C377.862 444.023 375.687 446.12 374.256 448.746C372.876 451.625 371.995 454.716 371.649 457.89C371.002 461.918 370.993 466.337 368.641 469.826C364.721 475.647 357.508 479.734 351.344 482.703C344.127 486.063 336.473 488.389 328.608 489.612C311.84 492.464 294.455 491.572 277.53 491.053C246.013 490.073 213.889 486.751 185.596 471.767C164.85 460.781 143.456 447.884 133.235 425.765C122.337 402.245 123.993 372.894 132.97 349.11C141.947 325.325 159.205 305.078 179.118 289.447C189.193 281.549 200.296 274.091 211.978 268.76C214.163 267.78 217.789 265.888 220.19 266.496C220.808 266.653 221.072 267.299 221.415 268.907C222.483 273.993 221.925 279.246 223.503 284.273C225.455 290.608 230.238 295.677 236.448 297.993C241.016 299.642 245.823 300.532 250.678 300.629C254.706 300.835 254.686 294.592 250.678 294.367H250.707Z" fill="var(--color-illustration-primary, #382C80)"/>
<path d="M290.123 323.541C281.45 332.126 262.144 349.364 254.108 358.537C250.09 363.11 246.154 367.772 242.299 372.522C241.152 373.923 235.772 383.782 234.096 383.743C246.307 384.027 257.842 383.674 270.219 384.527C276.393 384.958 282.577 385.213 288.771 385.124C291.622 385.124 295.219 385.487 297.973 384.752C299.041 384.468 302.118 382.224 302.971 382.361C308.959 383.282 310.811 411.271 311.722 416.004C314.825 432.752 315.911 449.811 314.956 466.817C314.456 475.823 313.633 491.111 309.292 498.991C304.392 507.938 292.387 503.891 284.282 503.293C268.779 502.127 253.491 504.116 237.869 501.823C205.768 497.152 175.457 484.127 149.973 464.054C138.311 454.773 127.659 443.905 120.446 430.851C104.589 402.167 107.52 365.554 122.68 336.497C137.841 307.44 163.84 285.253 192.26 268.877C227.752 248.42 267.336 236.081 308.165 232.744" fill="var(--color-illustration-secondary, #7F72FF)"/>
<path d="M287.908 321.327C277.726 331.294 266.956 340.633 256.93 350.727C251.305 356.401 246.15 362.536 241.084 368.7C239.548 370.627 238.137 372.65 236.86 374.757C236.125 375.923 235.4 377.089 234.616 378.226C234.175 378.863 232.597 380.588 233.195 380.431C229.422 381.411 230.255 387.026 234.096 387.124C248.012 387.458 261.87 387.634 275.776 388.359C281.656 388.673 287.536 388.81 293.416 388.751C295.517 388.824 297.615 388.536 299.619 387.899C300.617 387.592 301.553 387.111 302.383 386.478C304.274 384.616 302.569 386.948 302.03 385.841C304.97 391.779 305.842 398.483 306.685 405.019C307.665 412.732 308.91 420.405 309.88 428.118C311.481 441.314 311.875 454.628 311.056 467.896C310.517 476.971 310.821 488.976 305.921 496.982C301.413 504.362 287.565 499.413 280.578 499.07C266.711 498.394 252.756 499.824 238.957 497.884C215.024 494.429 192.029 486.201 171.337 473.688C151.1 461.477 131.285 444.964 121.416 422.983C101.649 378.951 124.356 329.814 157.47 299.503C198.326 262.125 253.902 242.829 308.175 236.685C313.173 236.126 313.418 228.394 308.175 228.688C254.912 231.628 200.757 252.208 159.342 285.93C121.514 316.76 94.4561 366.535 109.568 416.034C117.222 441.103 136.165 460.066 157.274 474.609C178.729 489.321 202.991 499.444 228.54 504.342C242.789 507.067 256.842 506.91 271.268 506.88C277.577 506.818 283.884 507.188 290.143 507.988C294.758 508.615 299.619 509.213 304.157 507.811C314.241 504.685 316.171 492.68 317.377 483.645C318.988 471.176 319.49 458.589 318.876 446.032C318.337 433.792 316.064 421.885 314.594 409.772C313.614 401.344 313.006 391.838 309.253 384.077C308.057 381.578 306.019 378.814 302.941 378.755C300.55 378.755 298.923 380.647 296.816 381.372C293.533 382.509 288.467 381.607 285.056 381.597C276.893 381.597 268.759 380.813 260.556 380.617C251.736 380.382 242.916 380.519 234.096 380.362L235.008 387.056C239.369 385.899 241.868 379.324 244.102 375.903C248.483 369.171 254.382 362.909 259.919 357.107C270.298 346.229 281.666 336.36 292.328 325.747C295.199 322.905 290.789 318.495 287.908 321.317V321.327Z" fill="var(--color-illustration-secondary, #7F72FF)"/>
<path d="M326.255 292.643C297.247 286.302 280.616 258.823 252.422 250.434C248.861 249.222 245.074 248.821 241.338 249.258C237.751 249.826 234.478 251.571 231.068 252.845C221.944 256.265 209.939 255.422 204.608 247.249C201.668 242.702 201.462 236.773 203.059 231.569C204.657 226.365 207.851 221.867 211.35 217.731C218.535 209.113 227.38 202.027 237.359 196.897C256.793 187.097 279.431 186.42 301.177 187.097C312.476 187.479 323.952 188.224 334.605 191.997C354.41 199.033 365.484 219.78 368.444 239.791C370.703 255.338 367.94 271.201 360.555 285.067" fill="var(--color-illustration-secondary, #7F72FF)"/>
<path d="M327.187 289.3C304.774 283.283 289.408 264.712 269.876 253.413C259.802 247.591 247.336 242.152 235.704 246.337C227.021 249.463 211.076 255.157 206.999 242.143C202.923 229.128 218.064 215.683 227.04 208.607C237.938 200.071 250.903 195.24 264.496 193.035C278.334 190.791 292.602 191.075 306.567 191.761C320.287 192.457 335.125 194.211 345.816 203.707C355.43 212.243 361.006 224.512 363.535 236.949C366.749 252.825 363.603 268.554 357.361 283.273C355.538 287.585 361.183 291.241 363.819 287.046C378.803 263.124 376.363 228.57 359.654 206.059C351.324 194.828 340.054 188.076 326.334 185.293C310.399 182.039 293.171 181.961 276.981 182.98C261.527 183.96 245.984 187.047 232.342 194.671C220.141 201.531 207.548 212.311 201.139 224.944C195.318 236.449 197.033 251.482 209.959 257.019C215.647 259.274 221.891 259.726 227.844 258.313C235.272 256.754 240.966 252.237 248.875 254.059C263.291 257.372 275.335 267.289 286.801 276.07C298.482 285.008 310.585 293.171 325.266 296.052C329.646 296.915 331.538 290.476 327.138 289.3H327.187Z" fill="var(--color-illustration-primary, #382C80)"/>
<path d="M287.908 321.327C277.588 331.127 266.71 340.378 256.548 350.393C250.874 356.009 245.68 362.153 240.593 368.259C239.003 370.215 237.543 372.275 236.223 374.423C235.478 375.589 234.753 376.755 233.959 377.873C233.616 378.363 233.283 378.853 232.91 379.313C232.371 379.989 231.744 380.019 232.969 379.705C228.294 380.881 229.431 387.78 234.076 387.927C242.896 388.202 251.716 388.202 260.536 388.535C269.004 388.858 277.441 389.652 285.928 389.701C291.225 389.817 296.523 389.489 301.765 388.721C304.029 388.359 306.312 388.084 308.625 387.653C309.507 387.486 310.409 387.29 311.281 387.065C311.487 387.016 313.986 386.506 312.633 386.663C316.661 386.183 318.572 379.637 313.692 378.823C309.87 378.167 305.91 378.823 302.118 379.431C297.087 380.225 292.001 380.618 286.908 380.607C278.088 380.607 269.366 379.803 260.585 379.627C251.805 379.45 242.945 379.627 234.125 379.568L235.243 387.79C239.878 386.516 242.387 379.901 244.739 376.236C249.031 369.513 254.892 363.29 260.331 357.459C270.581 346.473 281.891 336.487 292.357 325.766C295.189 322.875 290.848 318.553 287.937 321.336L287.908 321.327Z" fill="var(--color-illustration-primary, #382C80)"/>
<path d="M337.026 495.492C350.619 492.415 366.985 486.221 375.334 474.324C378.127 470.335 378.705 465.857 379.46 461.182C379.93 458.242 380.342 455.008 381.841 452.362C383.537 449.422 386.222 447.109 387.8 444.032C389.263 440.951 389.712 437.486 389.084 434.134C388.437 429.696 388.771 425.17 390.064 420.875C391.935 414.015 393.004 407.067 388.535 400.912C384.066 394.758 377.284 393.405 370.415 391.24C366.7 390.073 365.201 389.28 365.622 385.497C366.014 381.91 366.671 378.549 366.367 374.913C365.779 367.857 362.045 360.321 353.941 360.115C346.993 359.948 342.632 365.809 338.261 370.238C335.086 373.433 339.162 378.892 343.112 376.52C347.267 374.041 355.372 364.064 357.194 373.952C358.312 380.038 354.735 386.692 357.43 392.445C360.84 399.766 369.846 399.55 376.324 402.186C386.898 406.498 382.008 416.171 380.665 424.501C380.028 428.421 380.734 431.851 381.185 435.761C381.724 440.514 378.696 443.111 376.187 446.688C372.541 451.882 372.414 457.919 371.424 463.956C370.336 470.6 365.74 474.667 360.468 478.44C352.902 483.771 344.288 487.191 335.36 489.485C331.44 490.465 333.106 496.403 337.026 495.521V495.492Z" fill="var(--color-illustration-primary, #382C80)"/>
<path d="M358.037 144.26C369.846 155.52 372.639 177.403 373.835 192.809C374.168 196.984 374.285 201.276 373.021 205.265C369.934 215.065 360.654 218.651 351.461 220.043C347.11 220.7 345.846 223.62 346.11 227.883L347.09 243.338C347.551 250.697 347.541 259.204 341.916 263.976C338.437 266.916 333.527 267.642 328.97 267.21C325.899 266.97 322.903 266.134 320.15 264.751C310.487 259.664 304.98 246.699 304 236.38C302.79 221.62 302.505 206.8 303.147 192.005C303.451 183.097 304.186 174.189 304.431 165.281C304.607 158.715 306.313 153.521 311.291 148.817C319.748 140.829 331.207 136.823 342.798 137.801" fill="var(--color-illustration-base, #FFFFFF)"/>
<path d="M355.715 146.572C367.7 158.715 369.66 179.285 370.179 195.494C370.571 206.627 364.907 213.026 354.323 215.447C350.922 216.231 347.365 216.329 344.778 219.004C341.955 221.944 341.965 225.972 342.171 229.784C342.455 235.213 342.916 240.652 343.063 246.101C343.19 250.658 343.259 256.46 339.897 260.007C332.841 267.446 320.003 261.223 315.123 254.48C309.184 246.278 308.263 236.556 307.793 226.776C307.175 214.575 307.303 202.334 307.793 190.133C308.057 183.763 308.518 177.393 308.773 171.033C309.037 165.555 308.665 159.881 311.899 155.147C318.416 145.602 331.705 141.731 342.671 142.358C348.551 142.701 348.423 133.774 342.671 133.303C330.932 132.32 319.274 135.963 310.184 143.456C306.116 146.655 303.016 150.919 301.227 155.775C299.139 161.802 299.61 168.583 299.267 174.855C298.522 189.555 297.836 204.304 298.336 219.063C298.728 230.823 299.012 242.75 304.274 253.52C308.851 262.908 316.74 269.984 327.334 271.297C338.555 272.689 348.551 267.279 350.697 255.695C351.677 250.315 351.207 244.857 350.844 239.437C350.628 236.213 350.383 232.999 350.197 229.784C349.962 225.796 349.648 224.512 353.745 223.689C363.114 221.797 372.247 217.524 375.991 208.116C380.195 197.552 376.971 183.028 374.717 172.18C372.424 161.174 368.484 149.953 360.272 141.947C357.243 139.007 352.657 143.574 355.626 146.592L355.715 146.572Z" fill="var(--color-illustration-primary, #382C80)"/>
<path d="M326.374 219.387C335.59 223.357 345.735 224.664 355.657 223.16C360.086 222.513 359.057 215.045 354.598 215.32C345.691 216.019 336.729 215.405 328.001 213.497C324.081 212.566 322.836 217.907 326.374 219.377V219.387Z" fill="var(--color-illustration-primary, #382C80)"/>
<path d="M300.512 194.495C297.062 194.858 290.163 183.656 288.262 180.853C282.931 172.964 279.275 163.213 276.316 154.207C270.342 136.114 268.092 117 269.701 98.014C270.181 92.6534 271.19 86.8518 275.189 83.2454C279.187 79.639 287.008 80.2368 288.546 85.3916C291.261 80.374 295.181 75.6602 300.502 73.7002C305.824 71.7402 312.723 73.2102 315.555 78.1494C316.018 73.0202 319.9 68.8577 324.984 68.0372C330.068 67.2168 335.062 69.9473 337.115 74.6704C339.82 67.1734 351.815 65.625 356.372 72.2008C359.459 67.046 367.72 67.3008 372.052 71.4658C376.384 75.6308 377.481 82.1576 377.275 88.1258C376.932 98.0924 375.913 108.049 374.972 117.977C373.698 131.53 370.837 144.868 367.975 158.157C363.82 154.393 357.499 154.707 351.923 155.217C342.005 156.197 334.43 158.431 326.982 165.242C321.964 169.828 321.474 175.042 320.818 181.647C321.112 178.277 320.671 174.883 319.524 171.7C318.309 168.29 315.437 164.752 311.851 165.232C309.564 165.722 307.702 167.378 306.951 169.593C306.236 171.775 305.885 174.06 305.912 176.355C305.735 179.883 304.697 194.054 300.512 194.495Z" fill="var(--color-illustration-primary, #382C80)"/>
<path d="M300.512 191.427C298.463 191.29 295.376 185.547 294.377 184.048C292.417 181.107 290.457 178.099 288.761 174.992C283.44 165.251 280.01 154.167 277.501 143.397C274.651 131.544 273.334 119.374 273.581 107.186C273.728 101.786 273.581 95.5535 275.61 90.4477C276.384 88.4877 277.57 86.4003 279.677 85.6653C280.892 85.2341 283.685 84.9695 284.322 86.5571C285.645 89.8401 290.329 91.1827 292.329 87.6057C295.631 81.7257 305.882 71.0437 312.066 80.1773C313.781 82.7155 318.818 82.9213 319.406 79.1973C320.66 71.5141 329.716 69.7795 333.4 76.8551C334.782 79.5501 339.555 79.7951 340.858 76.8551C341.896 74.5079 344.089 72.8769 346.636 72.5578C349.182 72.2387 351.709 73.2784 353.294 75.2969C355.196 77.6881 358.743 76.4631 360.154 74.4149C361.869 71.9551 365.652 72.3373 367.936 73.7289C371.219 75.6889 372.444 80.0597 372.836 83.6073C373.727 91.1533 372.424 99.2873 371.767 106.833C370.259 123.742 367.69 140.54 364.074 157.127L370.738 155.373C361.615 148.121 346.238 150.473 336.086 154.549C330.686 156.745 325.178 160.243 321.591 164.908C317.818 169.808 317.132 175.688 316.515 181.715H325.012C325.374 175.571 324.208 168.456 319.582 163.997C317.635 162.015 314.939 160.954 312.164 161.075C309.389 161.197 306.796 162.49 305.029 164.634C301.492 168.818 301.884 174.346 301.433 179.471C301.262 181.656 300.957 183.83 300.521 185.978C300.306 186.958 300.012 187.938 299.747 188.918C299.532 189.722 298.63 190.623 299.394 190.427C294.171 191.799 296.376 199.767 301.619 198.503C307.773 197.023 308.802 188.555 309.459 183.41C309.851 180.47 309.959 177.531 310.223 174.59C310.38 172.826 310.272 170.523 312.37 170.22C314.163 169.955 314.643 171.102 315.398 172.797C316.613 175.551 316.662 178.726 316.486 181.676C316.172 187.193 324.443 187.017 324.982 181.676C325.384 177.629 325.707 173.336 328.285 170.014C331.009 166.496 335.351 163.84 339.447 162.174C345.846 159.587 359.047 156.186 365.074 160.959C367.24 162.674 371.042 162.429 371.738 159.204C376.638 136.302 380.391 113.429 381.371 89.9871C381.724 81.5983 380.46 71.5533 372.728 66.5945C365.985 62.2531 357.263 63.4095 352.53 69.9363H360.105C356.673 65.4295 351.093 63.1012 345.475 63.8315C339.857 64.5619 335.057 68.2394 332.891 73.4741L340.78 72.4941C333.763 59.3817 314.153 62.2041 311.644 77.0805L318.994 76.1005C315.074 70.2205 308.214 67.7215 301.266 69.1425C293.769 70.7007 288.36 76.7669 284.753 83.1565L292.77 84.2051C288.036 72.3667 272.836 75.6889 268.074 85.6751C264.987 92.1529 264.918 100.15 264.83 107.167C264.732 115.821 265.388 124.468 266.79 133.009C269.269 148.356 274.434 164.31 282.264 177.815C284.838 182.192 287.717 186.384 290.878 190.359C293.24 193.357 296.278 197.415 300.472 197.542C304.481 197.679 304.412 191.692 300.512 191.427Z" fill="var(--color-illustration-primary, #382C80)"/>
<path d="M215.095 916.176C228.08 917.47 234.744 899.389 222.612 893.146C217.82 890.676 211.655 891.078 207.735 894.949C202.296 900.329 203.041 909.091 197.7 914.461L201.14 917.117C204.835 908.463 199.307 896.341 188.9 896.537C179.433 896.752 173.308 908.561 178.404 916.401C179.756 918.489 183.245 917.205 182.52 914.667C180.374 907.189 171.328 902.456 164.155 906.425C156.981 910.394 156.246 920.537 161.372 926.388L161.832 922.781C157.785 925.907 151.052 920.527 146.103 921.37C141.968 922.085 138.841 925.29 137.283 929.063C133.02 939.147 140.596 948.065 147.269 954.817C149.347 956.915 152.561 953.7 150.503 951.583C145.035 945.929 135.117 934.58 144.114 927.319C150.131 922.419 157.922 931.601 164.694 926.339C165.674 925.545 165.429 923.928 164.694 923.095C161.479 919.449 161.969 912.746 166.526 910.296C171.083 907.846 176.905 911.149 178.286 915.813L182.402 914.079C179.07 908.983 183.098 900.653 189.556 900.937C196.534 901.231 199.582 909.698 197.249 915.343C196.387 917.43 199.484 918.94 200.905 917.47C203.61 914.686 205.011 911.345 206.197 907.67C207.588 903.407 208.725 897.87 213.37 896.066C217.692 894.371 223.739 896.615 225.13 901.27C226.973 907.327 220.867 912.893 215.183 912.491C212.88 912.334 212.939 915.833 215.183 916.058L215.095 916.176Z" fill="var(--color-illustration-primary, #382C80)"/>
<path d="M200.836 943.94C195.678 940.056 188.492 940.372 183.696 944.694C181.824 946.331 184.568 949.046 186.43 947.419C190.046 944.273 194.77 944.312 198.807 946.566C200.395 947.458 202.384 945.155 200.836 943.94Z" fill="var(--color-illustration-primary, #382C80)"/>
<path d="M326.481 516.415C328.755 524.373 322.502 530.341 317.318 535.476C312.487 540.259 307.165 545.051 304.392 551.401C300.403 560.545 302.863 571.707 303.667 581.262C304.647 592.78 305.627 604.292 306.607 615.797C310.399 660.485 315.73 705.526 313.594 750.429C312.408 775.468 308.498 800.302 300.531 824.116C299.688 826.624 303.627 827.683 304.451 825.203C319.043 782.828 319.67 737.415 316.995 693.129C315.593 669.883 313.408 646.677 311.438 623.47L308.498 588.935C308.008 583.179 307.515 577.424 307.018 571.668C306.509 565.788 305.646 559.467 307.783 553.792C312.761 540.553 334.703 531.929 329.686 515.572C329.058 513.524 325.864 514.377 326.452 516.464L326.481 516.415Z" fill="var(--color-illustration-secondary, #7F72FF)"/>
<path d="M265.486 938.236C266.545 931.454 267.645 924.686 268.789 917.93C271.177 918.321 273.507 919.005 275.727 919.969C290.832 925.65 306.79 928.732 322.924 929.083C325.039 929.286 327.172 928.969 329.137 928.162C332.675 926.398 333.959 922.115 335.35 918.411C336.948 914.128 339.27 909.943 342.838 907.131C345.778 904.838 351.138 903.152 356.264 902.701C358.341 917.009 367.044 927.623 385.33 938.559C389.887 941.274 394.513 944.087 397.923 948.154C401.334 952.221 403.343 957.826 401.843 962.903C401.668 963.707 401.23 964.431 400.599 964.961C399.795 965.422 398.862 965.608 397.943 965.49C368.543 964.676 338.281 965.892 308.675 963.295C287.82 961.472 261.527 963.716 265.486 938.236Z" fill="var(--color-illustration-primary, #382C80)"/>
<path d="M267.407 938.765C268.465 931.984 269.556 925.215 270.68 918.46L268.23 919.851C272.954 920.684 277.364 922.791 281.95 924.242C286.537 925.692 291.113 926.917 295.778 927.917C304.413 929.773 313.203 930.823 322.032 931.053C328.892 931.219 333.067 929.151 335.831 922.723C337.644 918.509 338.859 914.089 342.034 910.6C345.67 906.611 351.099 905.288 356.264 904.72L354.304 903.26C356.264 915.559 363.388 925.153 373.061 932.66C379.46 937.638 387.036 941 393.18 946.213C396.336 948.908 399.06 952.27 400.04 956.376C400.55 958.453 400.961 961.746 398.982 962.942C397.002 964.137 393.749 963.393 391.416 963.353C357.792 962.726 324.198 963.353 290.672 960.021C284.89 959.453 278.452 958.64 273.434 955.455C267.554 951.731 266.574 945.214 267.466 938.795C267.819 936.286 263.977 935.198 263.624 937.726C262.037 949.281 266.349 958.13 277.766 961.736C283.538 963.559 289.731 964.03 295.739 964.451C303.853 965.01 311.977 965.666 320.102 966.137C342.279 967.42 364.496 966.999 386.742 967.293C393.2 967.381 403 970.174 404.244 961.54C405.381 953.7 400.501 946.84 394.64 942.264C386.497 935.894 377.059 931.748 369.66 924.33C363.586 918.371 359.599 910.61 358.292 902.201C358.063 901.313 357.249 900.702 356.332 900.731C349.472 901.525 342.789 903.387 338.31 908.973C336.254 911.686 334.631 914.701 333.498 917.911C331.538 923.026 330.117 926.966 323.796 927.123C314.565 927.368 305.019 925.878 296.033 923.908C291.662 922.948 287.347 921.785 283.087 920.42C278.52 918.969 274.11 916.872 269.367 916.029C268.309 915.758 267.226 916.373 266.917 917.421C265.78 924.196 264.679 930.964 263.614 937.726C263.173 940.216 267.015 941.294 267.407 938.765Z" fill="var(--color-illustration-primary, #382C80)"/>
<path d="M371.62 912.422C366.22 917.94 362.545 925.162 360.36 932.552C359.732 934.678 363.055 935.59 363.682 933.463C365.848 926.182 369.425 920.243 373.923 914.196C374.903 912.854 372.757 911.256 371.62 912.422Z" fill="var(--color-illustration-base, #FFFFFF)"/>
<path d="M378.852 924.477C374.56 928.613 371.189 933.915 370.13 939.824C369.738 942.019 372.874 942.97 373.521 940.804C375.079 935.502 377.275 930.828 381.136 926.81C381.545 926.402 381.706 925.806 381.558 925.248C381.41 924.689 380.974 924.252 380.416 924.101C379.858 923.95 379.262 924.109 378.852 924.516V924.477Z" fill="var(--color-illustration-base, #FFFFFF)"/>
<path d="M385.086 933.16C381.502 936.187 379.152 940.423 378.48 945.067C378.265 946.693 380.872 946.958 381.293 945.449C382.229 941.561 384.271 938.028 387.173 935.276C388.604 933.963 386.487 931.876 385.046 933.15L385.086 933.16Z" fill="var(--color-illustration-base, #FFFFFF)"/>
<path d="M300.267 941.117C301.805 942.41 302.57 945.282 300.688 946.693C298.807 948.104 296.19 946.536 295.661 944.625C295.043 942.44 291.917 943.371 292.309 945.546C293.132 950.064 298.993 952.406 302.717 949.692C306.441 946.977 306.176 940.774 302.178 938.637C300.669 937.834 298.826 939.921 300.267 941.117Z" fill="var(--color-illustration-base, #FFFFFF)"/>
<path d="M355.186 180.882C355.627 182.842 356.117 184.881 356.626 186.87C357.136 188.86 358.047 190.937 358.165 192.868L358.704 191.545C357.89 192.231 356.087 192.045 355.078 192.103C354.06 192.103 353.235 192.928 353.235 193.946C353.235 194.963 354.06 195.788 355.078 195.788C357.469 195.788 362.036 195.71 361.85 192.339C361.752 190.545 360.87 188.634 360.34 186.919C359.645 184.616 358.939 182.333 358.165 180.059C357.842 179.373 357.071 179.021 356.341 179.228C355.612 179.434 355.139 180.139 355.225 180.892L355.186 180.882Z" fill="var(--color-illustration-primary, #382C80)"/>
<path d="M351.775 167.986C349.139 167.319 345.621 167.084 343.21 168.554C341.789 169.426 342.289 171.935 344.102 171.837C345.305 171.683 346.496 171.45 347.669 171.141C348.899 170.923 350.144 170.792 351.393 170.749C352.09 170.739 352.675 170.222 352.77 169.532C352.866 168.841 352.443 168.185 351.775 167.986Z" fill="var(--color-illustration-primary, #382C80)"/>
<path d="M362.722 170.504C364.434 170.646 366.155 170.646 367.867 170.504C368.931 170.459 369.782 169.607 369.827 168.544C369.797 167.474 368.937 166.615 367.867 166.584C365.989 166.67 364.121 166.909 362.281 167.299C360.321 167.691 360.939 170.455 362.722 170.582V170.504Z" fill="var(--color-illustration-primary, #382C80)"/>
<path d="M347.179 180.353C346.934 180.147 346.875 180.108 346.993 180.225C346.807 179.971 346.758 179.912 346.846 180.059C346.591 179.608 346.738 179.784 346.777 179.98L346.709 179.51C346.719 179.608 346.719 179.706 346.709 179.804L346.777 179.324V179.49C346.777 179.49 346.993 179.069 346.856 179.285C346.856 179.285 347.179 178.902 347.013 179.069C347.316 178.746 347.346 178.834 347.15 178.922L347.601 178.726C347.516 178.76 347.427 178.783 347.336 178.795L347.846 178.726C347.777 178.736 347.708 178.736 347.64 178.726L348.149 178.795L347.875 178.736L348.345 178.922C348.259 178.889 348.177 178.847 348.1 178.795L348.492 179.098L348.345 178.951L348.649 179.343C348.607 179.293 348.57 179.237 348.541 179.177L348.737 179.637C348.713 179.57 348.694 179.501 348.679 179.432L348.747 179.951V179.794L348.679 180.314C348.697 180.237 348.72 180.162 348.747 180.088L348.541 180.559L348.669 180.363L348.355 180.764C348.406 180.704 348.462 180.648 348.522 180.598L348.12 180.902L348.326 180.784L347.846 180.98C347.92 180.956 347.995 180.936 348.071 180.921L347.542 180.99C347.839 180.995 348.135 180.963 348.424 180.892C348.988 180.727 349.449 180.316 349.678 179.775C349.922 179.22 349.886 178.583 349.58 178.06C348.88 177.005 347.48 176.678 346.385 177.315C345.725 177.671 345.222 178.262 344.974 178.971C344.675 179.916 344.903 180.95 345.572 181.681C346.241 182.413 347.249 182.733 348.218 182.519C349.186 182.306 349.967 181.592 350.266 180.647C350.623 179.393 350.071 178.059 348.933 177.423C348.534 177.199 348.065 177.136 347.62 177.246C347.206 177.374 346.856 177.654 346.64 178.03C346.413 178.425 346.349 178.893 346.464 179.334C346.614 179.735 346.889 180.079 347.248 180.314L347.179 180.353Z" fill="var(--color-illustration-primary, #382C80)"/>
<path d="M366.926 179.539C366.691 179.334 366.622 179.294 366.74 179.412C366.553 179.157 366.504 179.098 366.593 179.245C366.338 178.795 366.495 178.971 366.524 179.167L366.465 178.697C366.475 178.794 366.475 178.893 366.465 178.991L366.524 178.51V178.687C366.524 178.687 366.749 178.256 366.602 178.471C366.602 178.471 366.926 178.089 366.759 178.256C367.073 177.932 367.092 178.02 366.896 178.109L367.357 177.913C367.271 177.945 367.183 177.968 367.092 177.981L367.602 177.913H367.386L367.896 177.981L367.631 177.922L368.092 178.109C368.006 178.076 367.923 178.033 367.847 177.981L368.239 178.285L368.092 178.138L368.396 178.53C368.356 178.477 368.32 178.421 368.288 178.363L368.484 178.824C368.46 178.757 368.44 178.688 368.425 178.618L368.504 179.138C368.494 179.086 368.494 179.033 368.504 178.981L368.435 179.5C368.444 179.426 368.464 179.353 368.494 179.285L368.298 179.745C368.33 179.676 368.369 179.61 368.415 179.549L368.102 179.951C368.156 179.89 368.215 179.835 368.278 179.784L367.876 180.088L368.072 179.971L367.602 180.176C367.67 180.143 367.743 180.12 367.818 180.108L367.288 180.176C367.589 180.182 367.888 180.149 368.18 180.078C368.741 179.91 369.198 179.501 369.425 178.961C369.669 178.407 369.632 177.769 369.327 177.246C368.627 176.191 367.226 175.865 366.132 176.501C365.471 176.855 364.969 177.447 364.731 178.158C364.343 179.591 365.153 181.076 366.569 181.525C367.985 181.974 369.503 181.228 370.013 179.833C370.374 178.577 369.822 177.236 368.68 176.599C368.284 176.377 367.818 176.314 367.377 176.423C366.962 176.55 366.612 176.83 366.397 177.207C366.167 177.601 366.107 178.071 366.23 178.51C366.374 178.913 366.646 179.257 367.004 179.49L366.926 179.539Z" fill="var(--color-illustration-primary, #382C80)"/>
<path d="M346.728 130.814C350.031 130.814 350.041 125.669 346.728 125.669C343.416 125.669 343.416 130.814 346.728 130.814Z" fill="var(--color-illustration-primary, #382C80)"/>
<path d="M350.884 199.913C350.002 199.169 348.924 198.718 347.944 197.953C347.03 197.188 346.211 196.316 345.504 195.356C344.777 194.634 343.604 194.634 342.877 195.356C342.182 196.09 342.182 197.24 342.877 197.973C343.762 199.068 344.821 200.008 346.013 200.756C347.152 201.571 348.482 202.077 349.874 202.226C350.426 202.216 350.92 201.88 351.132 201.37C351.344 200.861 351.235 200.274 350.854 199.874L350.884 199.913Z" fill="var(--color-illustration-primary, #382C80)"/>
<path d="M350.687 346.855C350.633 335.334 349.811 323.83 348.228 312.418C346.669 300.825 344.876 288.751 341.083 277.648C339.613 273.326 333.567 275.09 334.331 279.51C336.242 290.554 339.104 301.422 340.966 312.496C342.926 323.864 344.2 335.379 345.327 346.855C345.66 350.217 350.687 350.373 350.687 346.855Z" fill="var(--color-illustration-primary, #382C80)"/>
<path d="M391.828 353C395.441 370.385 399.067 387.773 402.706 405.165C403.549 409.203 409.752 407.498 408.89 403.46L397.718 351.383C396.885 347.531 391.025 349.168 391.838 353H391.828Z" fill="var(--color-illustration-primary, #382C80)"/>
<path d="M464.377 339.447C469.953 335.448 474.363 329.813 478.028 324.071C480.518 320.151 474.187 316.456 471.815 320.445C468.66 325.727 464.769 330.245 460.957 335.017C459.154 337.281 461.535 341.485 464.377 339.447Z" fill="var(--color-illustration-primary, #382C80)"/>
<path d="M218.897 389.515C225.502 388.074 231.882 388.466 238.566 388.182C242.133 388.025 243.221 382.547 239.438 381.694C232.147 380.058 224.316 381.469 217.251 383.537C213.399 384.664 215.006 390.397 218.897 389.515Z" fill="var(--color-illustration-primary, #382C80)"/>
<path d="M631.321 320.797C640.249 324.07 650.401 325.295 659.604 322.355C663.2 321.199 662.72 315.495 658.682 315.564C650 315.769 641.581 316.299 632.938 314.946C631.887 314.657 630.763 314.951 629.987 315.716C629.212 316.481 628.904 317.602 629.179 318.656C629.454 319.71 630.27 320.537 631.321 320.826V320.797Z" fill="var(--color-illustration-primary, #382C80)"/>
<path d="M436.839 857.445C439.642 852.751 443.405 847.929 449.109 846.881C454.813 845.832 462.515 851.692 457.106 857.19C455.146 859.209 457.615 861.943 459.958 860.895C464.446 858.876 470.336 858.043 474.383 861.492C478.058 864.638 478.499 870.44 474.707 873.635C473.041 875.046 474.452 877.77 476.431 877.79C481.331 877.79 488.005 877.672 491.768 881.455C494.463 884.16 495.208 890.549 490.661 891.784C488.074 892.49 488.534 896.616 491.308 896.527C498.168 896.302 506.988 897.929 510.594 904.681C513.534 910.189 510.976 918.323 504.361 919.244L505.665 923.977C510.192 922.556 515.945 923.095 518.885 927.29C521.825 931.484 519.738 937.923 514.593 939.108C511.447 939.824 512.78 944.645 515.925 943.94C523.295 942.293 527.205 933.748 524.412 926.858C521.266 919.107 511.672 916.823 504.361 919.244C501.284 920.224 502.597 924.418 505.665 923.977C514.357 922.723 518.405 912.58 515.916 904.808C512.711 894.724 500.726 891.402 491.308 891.696L491.945 896.439C498.325 894.724 500.167 887.286 497.678 881.661C494.12 873.654 484.017 873.007 476.431 872.929L478.146 877.074C483.448 872.615 483.468 864.246 478.979 859.15C473.57 853.015 464.338 853.388 457.576 856.818L460.438 860.522C465.681 854.956 463.143 845.822 455.979 843.274C446.179 839.825 438.27 847.988 433.948 855.75C433.491 856.547 433.761 857.564 434.554 858.03C435.347 858.495 436.367 858.234 436.839 857.445Z" fill="var(--color-illustration-primary, #382C80)"/>
<path d="M460.163 934.689C466.161 924.056 451.98 915.961 444.63 925.055L448.482 926.653C448.414 923.774 447.186 921.044 445.077 919.083C442.969 917.121 440.157 916.095 437.28 916.235C431.048 916.618 427.206 922.115 426.5 927.858C426.118 930.867 430.842 930.798 431.224 927.858C432.204 920.518 443.19 917.852 444.023 926.653C444.209 928.613 447.218 930.063 448.227 927.79C451.255 920.988 460.653 926.525 457.312 932.993C456.332 934.904 459.144 936.58 460.252 934.689H460.163Z" fill="var(--color-illustration-primary, #382C80)"/>
<path d="M564.837 198.649C558.252 223.679 569.032 248.228 586.338 266.269C595.302 275.44 605.434 283.391 616.473 289.917C626.528 295.954 640.679 302.079 652.008 295.875C655.027 294.219 653.89 288.466 650.136 288.966C644.423 289.731 639.268 290.201 633.643 288.574C628.018 286.947 622.765 284.007 617.816 280.871C608.506 275.067 599.848 268.275 591.993 260.615C576.313 245.072 564.965 222.61 570.09 200.119C570.864 196.709 565.729 195.219 564.837 198.669V198.649Z" fill="var(--color-illustration-primary, #382C80)"/>
<path d="M305.431 386.8C307.499 394.64 310.841 402.049 312.869 409.898C314.98 417.968 316.441 426.194 317.24 434.496C318.788 451.078 317.162 467.228 314.623 483.614C313.918 488.151 320.356 490.209 321.679 485.574C326.413 468.914 326.883 450.764 325.09 433.634C324.247 425.211 322.766 416.863 320.66 408.664C318.534 400.52 316.044 391.435 311.576 384.232C309.616 381.047 304.5 383.086 305.48 386.8H305.431Z" fill="var(--color-illustration-primary, #382C80)"/>
<path d="M287.34 412.779C289.966 425.519 289.653 437.848 288.908 450.705C288.683 454.459 294.974 455.419 295.572 451.607C297.679 438.2 296.18 424.324 293.308 411.133C292.465 407.213 286.527 408.889 287.34 412.779Z" fill="var(--color-illustration-primary, #382C80)"/>
<path d="M533.565 237.026C536.937 248.463 540.425 261.085 550.118 268.896C553.342 271.503 557.958 267.132 554.763 264.251C546.227 256.548 542.385 246.248 539.161 235.488C538.083 231.92 532.517 233.439 533.565 237.026Z" fill="var(--color-illustration-primary, #382C80)"/>
<path d="M752.84 238.83C756.574 244.945 765.492 248.238 772.989 250.541C782.785 253.542 792.775 255.87 802.889 257.509C805.329 223.473 807.789 188.409 798.92 155.04C790.609 123.817 759.867 102.973 733.838 86.636C720.618 78.3354 676.998 55.2172 672.48 84.9308C670.785 95.995 681.604 107.108 692.707 105.717C694.422 105.501 696.157 105.04 697.852 105.364C701.596 106.069 703.585 110.048 705.183 113.498C713.05 130.402 724.618 145.32 739.032 157.147C749.498 165.722 759.7 175.14 760.121 189.575C760.553 204.677 754.31 215.604 751.399 229.402C750.616 232.612 751.134 236.001 752.84 238.83Z" fill="var(--color-illustration-secondary, #7F72FF)"/>
<path d="M750.273 240.3C754.8 247.16 762.64 250.433 770.127 253.04C780.494 256.559 791.12 259.262 801.909 261.125C803.026 261.401 804.208 261.157 805.124 260.46C806.04 259.763 806.591 258.689 806.623 257.538C808.377 236.458 809.896 215.251 808.857 194.103C807.946 175.669 805.917 155.755 797.401 139.095C789.972 124.493 777.967 112.635 765.218 102.669C754.328 94.0739 742.803 86.3163 730.741 79.4623C715.973 71.1519 684.603 55.1877 671.618 74.2585C663.356 86.4105 669.315 103.11 682.506 108.676C685.721 110.062 689.228 110.634 692.717 110.342C695.128 110.136 696.951 109.362 698.744 111.263C700.214 112.851 701.008 115.409 701.929 117.329C705.922 125.546 710.781 133.313 716.423 140.497C722.824 148.491 730.05 155.787 737.983 162.262C744.843 168.025 752.056 174.63 754.555 183.538C757.368 193.583 753.997 204.304 751.017 213.918C748.273 222.738 744.157 232.362 748.969 241.113C751.723 246.131 759.338 241.662 756.633 236.635C754.526 232.715 756.104 228.471 757.26 224.453C758.416 220.435 759.73 216.613 760.945 212.693C763.307 205.02 765.08 196.915 764.62 188.85C763.708 172.876 752.409 162.556 740.972 152.894C727.693 141.627 716.969 127.659 709.514 111.92C706.182 104.952 702.204 99.9639 693.834 100.944C686.465 101.806 679.252 97.8275 677.321 90.2521C676.175 85.7441 677.645 79.7857 681.555 76.9535C684.838 74.5819 689.395 74.5917 693.315 74.9935C703.478 76.0421 713.425 80.6187 722.362 85.3325C732.7 90.9602 742.653 97.269 752.154 104.217C764.512 113.037 776.458 123.141 785.082 135.753C796.176 151.972 799.263 172.082 800.596 191.319C802.134 213.389 800.596 235.419 799.243 257.509L803.947 253.922C794.698 252.51 785.536 250.573 776.507 248.12C769.177 246.16 760.014 243.994 755.467 237.34C753.281 234.165 748.117 237.134 750.273 240.3Z" fill="var(--color-illustration-secondary, #7F72FF)"/>
<path d="M738.758 102.669C746.833 90.0272 758.75 80.3252 771.098 71.858C781.966 64.4394 793.55 57.7068 806.29 54.3944C819.03 51.082 833.122 51.4544 844.715 57.6676C848.498 59.706 852.173 62.5676 853.349 66.7522C854.927 72.2598 851.389 78.2182 846.411 81.1288C841.432 84.0394 835.533 84.5784 829.8 84.7646C838.679 86.2542 849.508 89.6156 850.87 98.4846C851.948 105.472 845.715 111.901 838.855 113.626C831.995 115.35 824.792 113.626 817.932 111.92C822.832 116.37 831.025 117.957 832.926 124.308C834.641 130.08 829.3 135.999 823.42 137.322C817.54 138.645 811.474 136.803 805.643 135.264C792.805 131.873 778.644 130.021 766.658 135.734" fill="var(--color-illustration-secondary, #7F72FF)"/>
<path d="M741.217 104.08C748.313 93.457 758.652 85.0388 769.069 77.826C779.663 70.4956 790.943 63.4396 803.31 59.5392C815.443 55.7172 829.388 54.9234 841.079 60.676C846.224 63.2044 851.928 67.7614 847.773 73.8668C843.912 79.5116 836.013 79.8448 829.839 80.0114C824.762 80.1584 823.145 88.312 828.584 89.2822C834.357 90.2622 846.881 92.477 846.224 100.591C845.832 105.325 840.795 108.431 836.552 109.206C830.77 110.264 824.87 108.657 819.284 107.246C814.904 106.148 810.69 112.057 814.58 115.321C816.885 117.196 819.355 118.859 821.96 120.289C824.047 121.485 827.565 122.965 828.29 125.581C829.27 129.08 825.037 131.873 822.175 132.53C817.775 133.51 813.022 131.991 808.798 130.893C793.961 127.061 778.663 124.817 764.336 131.618C759.553 133.892 763.013 142.398 767.981 140.272C777.311 136.352 787.248 136.401 797.048 138.312C806.623 140.213 817.079 145.034 826.801 141.379C834.033 138.664 839.982 130.942 837.689 122.965C835.395 114.988 827.114 113.214 821.411 108.461L816.717 116.536C824.713 118.496 833.465 120.456 841.56 117.8C848.145 115.595 854.074 110.107 855.476 103.1C858.416 88.4002 842.618 82.1184 831.123 80.0996L829.868 89.3704C837.63 88.9784 846.028 88.018 852.016 82.5104C857.044 77.8946 859.758 70.7504 857.21 64.1158C851.732 49.9058 829.849 46.9952 816.932 48.2202C799.919 49.8176 784.484 57.8438 770.647 67.4576C757.211 76.7872 745.226 87.2438 736.347 101.111C734.387 104.217 739.287 106.991 741.247 103.992L741.217 104.08Z" fill="var(--color-illustration-secondary, #7F72FF)"/>
<path d="M835.464 133.391C830.162 137.182 823.538 138.631 817.138 137.4C811.209 136.086 806.24 132.157 800.664 129.942C789.884 125.63 774.527 125.806 764.306 131.667C759.749 134.283 762.767 142.035 767.952 140.32C774.478 138.174 780.623 136.714 787.552 137.017C794.784 137.341 800.605 140.193 807.152 143.025C818.471 147.925 830.093 146.788 838.943 137.86C841.148 135.645 838.198 131.451 835.483 133.391H835.464Z" fill="var(--color-illustration-primary, #382C80)"/>
<path d="M849.046 104.383C843.872 107 839.011 110.459 832.984 110.439C827.829 110.439 823.056 107.872 817.97 107.215C812.208 106.47 812.257 114.693 816.706 116.515C829.593 121.798 844.714 120.916 852.966 108.283C854.622 105.745 851.457 103.178 849.046 104.363V104.383Z" fill="var(--color-illustration-primary, #382C80)"/>
<path d="M842.745 59.6861C847.861 63.7531 852.163 69.3783 846.489 75.0819C841.765 79.8349 834.729 79.1587 828.584 80.1975C822.959 81.1775 824.909 89.0175 829.839 89.4977C839.825 90.4091 852.222 86.4205 856.495 76.6597C860.914 66.5559 854.887 58.4513 845.519 54.9233C842.922 53.9433 840.53 57.9319 842.745 59.6861Z" fill="var(--color-illustration-primary, #382C80)"/>
<path d="M782.916 77.1391C786.012 76.0611 788.854 78.1191 788.149 81.8431C787.874 83.2837 786.61 84.5577 786.101 85.9003C785.563 86.9147 785.513 88.1176 785.963 89.1735C786.836 90.8199 789.374 91.6333 790.658 92.8975C794.048 96.2099 795.185 103.021 789.246 104.422C788.429 104.668 787.832 105.371 787.722 106.217C787.612 107.064 788.009 107.896 788.737 108.342C790.075 109.091 790.994 110.414 791.23 111.93C791.465 113.445 790.99 114.984 789.942 116.104C788.188 118.064 791.108 121.063 792.882 119.044C797.037 114.32 796.185 108.068 790.922 104.648L790.403 108.568C794.281 107.57 797.15 104.293 797.625 100.316C797.905 98.1201 797.509 95.891 796.489 93.9265C795.215 91.4177 793.049 90.3789 791.442 88.2915C789.678 85.9689 791.932 83.8815 792.088 81.1571C792.233 79.4593 791.74 77.7684 790.707 76.4139C788.591 73.7238 784.869 72.9032 781.818 74.4539C780.319 75.1203 781.377 77.6487 782.935 77.1097L782.916 77.1391Z" fill="var(--color-illustration-primary, #382C80)"/>
<path d="M762.639 103.286C765.651 103.846 767.761 106.58 767.539 109.636C767.402 111.988 771.214 112.017 771.214 109.636C771.169 104.954 767.636 101.042 762.982 100.522C761.414 100.326 761.022 102.992 762.61 103.286H762.639Z" fill="var(--color-illustration-primary, #382C80)"/>
<path d="M740.894 102.541C742.64 99.3195 744.935 96.4276 747.676 93.9951C750.753 91.2511 746.059 86.4981 743.138 89.4577C740.193 92.4321 737.745 95.86 735.886 99.6105C734.259 102.933 739.091 105.843 740.894 102.55V102.541Z" fill="var(--color-illustration-primary, #382C80)"/>
<path d="M670.314 89.7128C667.374 93.0546 664.894 96.7786 662.101 100.267C659.749 103.207 661.817 108.323 666.021 107.049C667.266 106.677 670.5 104.981 671.715 105.265C672.93 105.55 674.479 107.343 675.468 108C678.402 110.007 681.686 111.447 685.151 112.243C691.816 113.819 698.832 112.086 703.996 107.588C707.318 104.726 702.879 98.8464 699.263 101.443C693.069 105.873 685.778 104.991 679.663 100.875C677.595 99.4834 675.811 97.4646 673.254 97.0432C670.157 96.5434 666.746 98.2486 663.885 99.2188L668.471 105.187C670.892 101.365 673.459 97.7096 675.272 93.5446C676.595 90.536 672.92 86.8022 670.314 89.7128Z" fill="var(--color-illustration-primary, #382C80)"/>
<path d="M683.956 87.8703C689.022 87.8703 689.032 80.0303 683.956 80.0303C678.879 80.0303 678.869 87.8703 683.956 87.8703Z" fill="var(--color-illustration-primary, #382C80)"/>
<path d="M734.053 145.887C734.394 149.424 735.576 152.828 737.503 155.814C739.463 158.754 742.403 160.204 744.726 162.674L743.667 160.126C743.834 162.341 742.256 164.918 741.492 166.986L738.757 174.169C736.944 178.952 735.033 183.715 733.358 188.556C731.682 193.397 739.11 195.249 740.923 190.643C742.795 185.88 744.441 181.029 746.176 176.218C747.724 171.896 750.851 166.418 751.076 161.851C751.262 158.705 749.547 157.284 747.156 155.726C743.373 153.364 740.808 149.471 740.129 145.063C739.502 141.653 733.563 142.398 734.014 145.896L734.053 145.887Z" fill="var(--color-illustration-primary, #382C80)"/>
<path d="M722.773 158.136C719.539 163.036 715.6 167.486 712.552 172.493C710.68 175.561 714.933 178.746 717.452 176.286C721.823 172.043 725.096 166.486 728.399 161.439C730.702 157.891 725.057 154.628 722.754 158.136H722.773Z" fill="var(--color-illustration-primary, #382C80)"/>
<path d="M766.697 196.915C764.737 211.958 761.052 226.541 757.142 241.172C756.871 242.138 757.435 243.141 758.401 243.411C759.367 243.682 760.37 243.118 760.641 242.152C765.109 227.452 767.501 212.154 769.461 196.935C769.676 195.191 766.962 195.22 766.736 196.935L766.697 196.915Z" fill="var(--color-illustration-primary, #382C80)"/>
<path d="M781.26 211.291C781.093 222.924 779.369 234.115 777.066 245.483C776.576 247.884 780.221 248.933 780.78 246.463C783.416 234.997 784.308 222.943 784.425 211.252C784.425 209.223 781.289 209.223 781.26 211.252V211.291Z" fill="var(--color-illustration-primary, #382C80)"/>
<path d="M792.442 197.768C796.479 215.408 794.725 232.205 791.148 249.708C790.9 250.652 791.453 251.622 792.393 251.889C793.332 252.156 794.312 251.622 794.598 250.688C800.556 233.646 799.498 214.32 795.382 197.023C794.931 195.063 792.001 195.925 792.442 197.836V197.768Z" fill="var(--color-illustration-primary, #382C80)"/>
<path d="M792.04 185.282C792.929 185.215 793.616 184.474 793.616 183.582C793.616 182.69 792.929 181.949 792.04 181.882C791.151 181.949 790.464 182.69 790.464 183.582C790.464 184.474 791.151 185.215 792.04 185.282Z" fill="var(--color-illustration-primary, #382C80)"/>
<path d="M870.156 155.196C874.243 149.757 879.241 141.476 873.89 135.087C871.508 132.225 863.943 131.696 865.285 137.047C866.765 142.927 879.27 145.808 884.209 144.25C891.481 141.976 892.157 129.481 892.098 123.356C892.098 120.828 888.178 120.828 888.178 123.356C888.233 127.294 887.701 131.218 886.6 134.999C885.62 138.223 885.15 140.232 881.034 140.879C879.111 141.002 877.183 140.714 875.379 140.036C875.83 140.173 869.94 137.968 870.205 137.556C871.822 134.94 873.39 141.476 873.37 142.319C873.302 146.7 870.332 150.492 867.853 153.844C866.824 155.236 869.147 156.559 870.166 155.196H870.156Z" fill="var(--color-illustration-primary, #382C80)"/>
<path d="M826.183 209.655V218.828C826.183 219.688 826.88 220.386 827.741 220.386C828.602 220.386 829.299 219.688 829.299 218.828C829.348 215.77 829.299 212.713 829.299 209.655C829.299 208.784 828.593 208.077 827.721 208.077C826.85 208.077 826.144 208.784 826.144 209.655H826.183Z" fill="var(--color-illustration-primary, #382C80)"/>
</svg>
