<svg width="1000" height="1000" viewBox="0 0 1000 1000" fill="none" xmlns="http://www.w3.org/2000/svg">
<path d="M353.539 489.985C375.158 500.11 398.252 506.726 421.953 509.585C445.826 512.456 470.032 511.545 493.983 509.3C540.503 505.037 586.995 495.933 629.458 477.264C640.405 472.443 651.508 466.631 658.25 457.076C664.993 447.521 665.845 433.252 657.123 425.295C649.528 418.376 637.837 418.288 627.341 418.317C590.562 418.405 553.9 414.623 517.336 410.84L472.815 406.244C461.055 405.028 448.775 403.568 438.035 398.551C433.399 396.385 426.794 392.935 424.256 388.388C422.139 384.605 423.599 380.078 419.993 376.53C419.15 375.617 418.018 375.022 416.788 374.844C413.946 374.58 411.888 377.392 411.075 380.019C410.261 382.645 410.095 385.605 408.135 387.633L397.492 378.167C396.542 377.168 395.345 376.438 394.023 376.05C391.161 375.491 388.672 378.137 387.702 380.773C386.732 383.41 386.526 386.369 384.821 388.613C381.616 383.851 377.578 378.588 371.679 378.118C366.593 377.716 361.879 381.273 359.566 385.624C357.253 389.976 356.812 394.993 356.42 399.854" fill="var(--color-illustration-base, #FFFFFF)"/>
<path d="M351.843 492.885C371.698 502.508 392.877 509.114 414.681 512.485C437.799 515.993 461.241 515.827 484.516 514.102C529.008 510.799 573.696 503.322 615.522 487.387C632.574 480.9 654.428 473.363 663.66 456.233C671.941 440.847 666.855 421.864 649.479 416.259C640.551 413.378 630.771 414.073 621.53 414.005C609.28 413.897 597.03 413.387 584.809 412.613C560.975 411.104 537.22 408.585 513.465 406.126C499.902 404.714 486.368 403.078 472.815 401.627C460.966 400.353 448.863 398.864 438.093 393.405C434.173 391.445 429.146 388.985 427.715 384.458C426.167 379.558 426.284 374.785 421.374 371.718C417.915 369.466 413.369 369.845 410.33 372.639C406.469 376.167 407.125 381.4 404.195 385.261L411.437 384.33C407.89 381.185 404.411 377.941 400.794 374.864C398.442 372.904 395.894 371.12 392.66 371.375C384.085 372.031 384.34 380.685 380.9 386.271H388.868C383.635 378.597 376.02 370.767 365.848 374.393C355.009 378.245 352.647 389.662 352.177 399.873C351.912 405.538 360.154 405.244 360.801 399.873C361.487 394.14 362.222 386.153 368.249 383.409C373.913 380.832 378.137 386.908 380.9 390.955C381.751 392.34 383.259 393.184 384.884 393.184C386.509 393.184 388.018 392.34 388.868 390.955C390.21 388.799 391.396 380.851 394.297 381.42C395.767 381.704 398.472 385.124 399.628 386.153L404.95 390.877C407.37 393.033 410.34 392.386 412.192 389.946C413.242 388.535 414.031 386.949 414.524 385.261C414.838 384.281 415.093 380.616 416.053 380.116C417.807 379.195 419.336 388.995 420.306 390.7C423.991 397.188 431.792 400.902 438.387 403.666C456.517 411.251 477.744 411.231 497.04 413.064C540.425 417.19 583.721 422.511 627.38 422.521C635.73 422.521 645.598 422.06 652.762 427.127C659.681 432.027 660.534 441.219 657.917 448.687C651.959 465.749 629.37 473.187 614.17 479.008C575.754 493.708 534.878 501.333 494.022 505.155C470.1 507.389 445.904 508.398 421.992 505.556C398.949 502.796 376.455 496.568 355.273 487.083C351.353 485.339 347.943 491.003 351.883 492.885H351.843Z" fill="var(--color-illustration-primary, #382C80)"/>
<path d="M629.458 477.224C640.405 472.402 651.508 466.591 658.25 457.036C664.993 447.481 665.845 433.212 657.123 425.255C649.528 418.336 637.837 418.248 627.341 418.277C614.915 418.277 602.459 417.973 590.052 417.111C580.791 416.464 569.198 417.16 561.711 410.849C559.408 408.889 557.33 406.409 554.4 405.772C549.588 404.733 545.443 409.173 542.826 413.348C532.487 429.821 527.999 450.872 527.773 470.109C527.636 482.418 528.322 495.423 535.035 505.732C537.544 509.593 542.669 513.18 546.374 510.446C547.736 509.466 548.461 507.829 549.314 506.359C556.869 493.002 567.934 496.138 580.135 494.462C596.569 492.159 614.356 483.859 629.458 477.224Z" fill="var(--color-illustration-secondary, #7F72FF)"/>
<path d="M630.34 480.458C642.688 475.343 656.202 468.885 663.131 456.762C668.913 446.639 669.442 432.909 661.396 423.824C651.88 413.044 635.671 414.191 622.667 414.083C613.964 414.014 605.252 413.789 596.559 413.309C589.641 412.927 582.477 412.966 575.617 411.947C572.252 411.578 569 410.52 566.062 408.84C563.122 406.998 561.044 404.136 557.918 402.597C552.185 399.795 546.246 402.597 542.307 407.007C532.81 417.65 528.126 434.036 525.647 447.746C523.118 461.907 522.295 477.146 524.99 491.376C526.254 497.991 528.655 505.38 533.193 510.525C537.113 514.964 543.777 517.973 549.069 514.004C551.871 511.916 552.9 508.496 555.017 505.831C557.038 503.284 559.853 501.486 563.014 500.725C569.168 499.137 575.813 499.745 582.085 498.765C599.147 496.197 616.385 488.857 631.585 480.929C635.848 478.704 632.898 471.354 628.262 473.04C615.709 477.616 603.87 483.761 590.954 487.387C585.312 489.019 579.508 490.027 573.647 490.396C569.11 490.66 564.415 490.709 560.025 491.983C555.558 493.25 551.57 495.819 548.569 499.363C547.069 501.127 546.187 503.469 544.708 505.164C541.65 508.663 538.69 503.704 537.083 500.793C531.086 489.886 531.438 475.696 532.183 463.622C532.977 450.637 535.692 437.446 541.003 425.529C543.12 420.816 545.844 413.681 550.372 410.829C553.469 408.869 555.105 410.761 557.516 412.789C559.799 414.841 562.388 416.524 565.19 417.778C575.48 422.099 588.327 421.296 599.284 421.835C612.622 422.482 626.224 421.423 639.464 422.815C646.03 423.481 653.184 425.461 656.878 431.4C660.093 436.525 659.926 443.16 657.976 448.755C653.409 461.78 639.297 468.826 627.655 474.333C624.362 475.931 626.812 481.928 630.34 480.458Z" fill="var(--color-illustration-secondary, #7F72FF)"/>
<path d="M517.895 916.5C500.167 967.107 56.6776 949.193 40.9584 916.5C9.59845 851.3 99.8956 775.439 152.277 759.563C240.731 732.73 336.438 735.621 423.56 766.07C470.992 782.642 543.561 860.64 517.895 916.5Z" fill="var(--color-illustration-secondary, #7F72FF)"/>
<path d="M514.749 915.617C514.338 916.475 513.853 917.295 513.299 918.067C513.299 918.067 511.535 919.89 510.741 920.537C508.183 922.437 505.422 924.047 502.509 925.339C493.777 929.318 484.173 931.582 474.814 933.502C446.041 939.382 416.406 941.342 387.134 942.695C350.325 944.39 313.477 944.341 276.658 943.547C239.839 942.754 203.315 940.999 166.8 937.942C138.145 935.551 109.353 932.66 81.1187 927.083C71.9851 925.319 62.7927 923.281 54.1001 920.008C51.5963 919.106 49.2002 917.929 46.9559 916.499C50.536 918.633 55.1642 917.523 57.3875 913.998C59.6108 910.473 58.6184 905.818 55.1508 903.506C51.6831 901.195 47.0047 902.069 44.606 905.477C42.2072 908.885 42.9628 913.584 46.3091 916.068C45.9465 915.745 45.5839 915.431 45.2409 915.088C44.3491 914.108 45.6231 915.872 45.0253 914.824C44.3399 913.56 43.7439 912.25 43.2417 910.904C25.3273 866.431 64.2627 821.439 96.5831 795.626C113.243 782.377 132.187 770.46 152.561 764.031C184.607 753.917 218.27 748.224 251.786 746.273C285.66 744.302 319.65 746.275 353.069 752.153C369.548 755.061 385.851 758.889 401.902 763.619C414.054 767.216 426.186 770.901 437.29 777.094C457.468 788.364 475.128 804.476 489.592 822.4C503.812 840.04 516.513 861.717 518.65 884.718C519.746 894.815 518.214 905.024 514.2 914.353C511.966 919.341 519.345 923.702 521.59 918.675C541.866 873.409 506.645 823.301 474.412 793.852C465.758 785.84 456.359 778.67 446.345 772.439C436.28 766.275 425.687 762.1 414.485 758.484C381.11 747.736 346.592 740.931 311.634 738.208C276.731 735.474 241.627 736.895 207.059 742.442C179.305 746.891 150.669 752.898 125.62 766.109C104.043 777.559 84.4798 792.454 67.7025 810.209C51.5717 827.319 37.1559 848.007 32.0501 871.302C29.6347 881.875 29.5578 892.849 31.8247 903.456C33.1477 909.414 34.9411 917.176 39.4589 921.615C44.1825 926.309 51.5913 928.475 57.7849 930.366C82.2065 937.756 108.284 940.549 133.549 943.302C169.897 947.222 206.441 949.525 242.975 950.878C282.117 952.318 321.376 952.544 360.478 951.24C393.602 950.143 426.882 948.183 459.654 943.018C471.414 941.166 483.173 938.932 494.561 935.315C502.107 932.914 510.241 929.925 516.17 924.477C518.36 922.537 520.042 920.091 521.07 917.352C522.471 913.393 516.18 911.697 514.749 915.617Z" fill="var(--color-illustration-secondary, #7F72FF)"/>
<path d="M429.979 794.636C411.359 804.338 153.002 810.316 129.119 794.636C97.0437 773.605 112.547 725.585 136.175 705.28C173.141 673.459 229.334 666.442 276.09 666.599C322.15 666.766 370.395 674.557 408.694 701.771C431.802 718.196 472.286 772.635 429.979 794.636Z" fill="var(--color-illustration-secondary, #7F72FF)"/>
<path d="M427.892 791.06C427.049 791.491 428.872 790.746 427.892 791.06C427.608 791.158 427.333 791.275 427.049 791.354C426.187 791.589 425.344 791.824 424.472 792.03C422.129 792.569 419.748 792.941 417.376 793.294C410.889 794.274 403.509 794.921 396.61 795.489C375.374 797.234 354.068 798.175 332.773 798.88C283.606 800.517 234.214 801.085 185.077 798.537C169.534 797.734 153.394 797.185 138.194 793.529C137.077 793.265 135.969 792.971 134.872 792.628C134.166 792.402 132.079 791.56 132.804 791.912C128.272 789.51 124.407 786.022 121.554 781.76C113.41 770 113.89 754.741 117.918 741.58C128.051 708.436 159.676 690.62 191.075 681.27C226.688 670.647 265.378 668.981 302.266 671.735C322.64 673.254 342.916 676.733 362.33 683.181C379.401 688.856 397.1 696.98 410.899 708.74C421.167 717.534 429.771 728.104 436.3 739.943C442.239 750.723 447.56 765.031 442.18 777.105C439.348 783.494 433.909 787.826 427.882 791.06C423.198 793.578 427.363 800.723 432.057 798.204C444.797 791.344 453.137 779.584 452.539 764.766C451.961 750.292 444.807 736.464 436.545 724.9C415.651 695.608 383.135 679.203 348.776 670.647C309.41 660.847 266.809 660.112 226.688 665.434C207.245 668.021 188.017 672.431 169.848 680.065C153.805 686.837 137.263 696.225 125.934 709.739C107.785 731.397 96.9163 768.824 119.006 791.697C129.668 802.751 144.74 803.555 159.235 804.976C208.568 809.827 258.744 808.896 308.195 807.847C332.753 807.298 357.312 806.436 381.822 804.848C396.738 803.868 412.427 803.437 427.02 799.948C428.733 799.57 430.397 798.995 431.978 798.233C436.829 795.813 432.645 788.678 427.892 791.06Z" fill="var(--color-illustration-secondary, #7F72FF)"/>
<path d="M376.893 481.595C395.758 519.325 419.131 555.232 431.253 595.638C443.376 636.043 442.288 683.524 415.485 716.099C397.845 737.522 371.209 746.479 343.72 750.664C337.338 751.627 330.886 752.053 324.433 751.938L223.64 750.321C192.466 746.852 161.077 734.347 141.154 710.141C114.351 677.556 113.273 630.075 125.385 589.67C137.498 549.264 160.92 513.347 179.746 475.627C192.711 449.696 203.932 421.864 207.049 392.817C209.861 366.671 199.415 340.71 229.981 328C240.212 323.756 251.462 322.796 262.507 321.885L299.159 318.866C306.529 318.259 314.055 317.661 321.258 319.356C352.618 326.716 348.698 357.165 348.629 381.096C348.551 416.484 361.271 450.372 376.893 481.595Z" fill="var(--color-illustration-secondary, #7F72FF)"/>
<path d="M374.07 483.242C395.542 526.087 423.394 567.982 431.89 615.914C439.083 656.457 431.537 705.241 394.141 729.006C375.638 740.766 352.001 746.646 330.225 747.322C322.993 747.567 315.711 747.234 308.479 747.126C284.129 746.747 259.77 746.365 235.4 745.98C226.716 746.022 218.05 745.201 209.528 743.53C188.262 739.09 167.388 730.084 151.561 714.875C120.064 684.563 117.369 636.7 127.943 596.618C140.575 548.765 170.26 507.997 190.663 463.465C200.943 441.043 209.283 417.454 211.87 392.798C212.772 384.35 212.321 375.873 212.351 367.396C212.351 359.87 212.615 351.785 216.408 345.052C221.161 336.624 230.569 332.371 239.565 330.058C251.992 326.863 265.202 326.657 277.932 325.619L297.219 324.051C304.079 323.492 311.233 322.63 318.093 323.845C326.217 325.276 333.939 329.205 338.261 336.448C346.013 349.452 343.553 366.671 343.553 381.096C343.553 405.302 349.286 429.214 358.028 451.656C362.33 462.701 367.308 473.461 372.639 483.996C375.491 489.651 383.89 484.682 381.116 479.038C369.601 455.586 359.703 431.018 355.558 405.057C352.442 385.546 355.93 365.652 352.393 346.257C349.07 328.098 336.036 315.809 317.622 313.545C304.03 311.869 289.575 314.525 276.002 315.662C263.017 316.75 249.542 317.083 236.919 320.376C227.06 322.943 217.133 327.608 210.714 335.771C205.53 342.377 203.462 350.383 202.805 358.625C202.1 367.445 202.913 376.314 202.678 385.154C202.345 397.364 199.846 409.507 196.553 421.237C182.461 471.511 150.836 514.337 130.756 562.083C113.488 603.164 105.276 651.782 125.395 693.491C135.195 713.708 151.855 729.575 171.769 739.737C187.704 747.94 206.549 754.016 224.512 754.8C247.18 755.848 269.975 755.574 292.652 755.946L322.12 756.427C339.495 756.636 356.781 753.94 373.267 748.449C394.121 741.589 412.349 729.526 424.638 711.082C436.673 693.011 442.092 671.235 442.798 649.714C444.405 600.44 421.179 555.977 397.953 514.082C391.681 502.793 385.507 491.454 379.705 479.91C377.824 476.196 372.198 479.498 374.07 483.242Z" fill="var(--color-illustration-secondary, #7F72FF)"/>
<path d="M431.694 325.03C427.078 274.433 318.014 279.999 284.371 277.373C236.939 273.668 142.271 245.454 127.061 315.544C126.365 318.748 125.973 322.149 127.002 325.275C128.257 329.107 131.461 331.968 134.744 334.32C148.013 343.866 164.252 348.246 180.285 351.402C208.195 356.9 236.635 359.242 265.065 360.075C310.942 361.392 356.848 358.727 402.265 352.107C409.183 351.127 416.357 349.893 422.061 345.865C428.686 341.076 432.337 333.18 431.694 325.03Z" fill="var(--color-illustration-secondary, #7F72FF)"/>
<path d="M435.565 325.03C431.87 287.731 383.194 280.254 353.666 277.01C335.331 275.05 316.897 274.54 298.483 273.952C282.803 273.453 267.515 271.355 252.04 269.18C232.215 266.387 212.125 263.721 192.064 264.701C174.023 265.583 155.236 269.601 141.281 281.753C134.336 288.005 129.044 295.875 125.875 304.666C123.856 310.026 121.896 316.269 122.22 322.041C122.622 329.087 127.188 333.977 132.627 337.907C145.524 347.227 161.292 351.764 176.727 354.94C194.037 358.431 211.537 360.895 229.138 362.319C264.942 365.208 300.909 365.477 336.752 363.123C354.568 362.025 372.322 360.313 390.015 357.987C404.146 356.116 421.629 355.714 430.851 343.091C434.611 337.844 436.392 331.435 435.879 325.001C435.496 319.748 427.372 319.64 427.607 325.001C428.025 331.623 425.173 338.029 419.973 342.151C414.172 346.521 406.253 347.335 399.325 348.315C382.665 350.654 365.939 352.463 349.149 353.744C316.148 356.332 283.016 356.82 249.953 355.204C233.293 354.381 216.633 352.96 200.14 350.51C185.302 348.315 170.201 345.747 156.04 340.602C148.885 338.155 142.159 334.6 136.106 330.067C132.853 327.519 130.54 324.707 130.589 320.414C130.8 317.408 131.406 314.442 132.392 311.594C134.673 303.263 139.061 295.659 145.132 289.515C157.059 277.843 174.366 274.041 190.496 273.061C208.95 271.934 227.491 274.041 245.759 276.51C260.723 278.539 275.678 281.106 290.79 281.792C306.136 282.488 321.493 282.694 336.85 283.752C354.803 284.997 372.933 287.055 390.25 292.171C403.539 296.091 418.836 302.519 425.226 315.759C426.619 318.674 427.497 321.807 427.823 325.02C428.342 329.93 436.065 330.008 435.565 325.03Z" fill="var(--color-illustration-secondary, #7F72FF)"/>
<path d="M279.167 313.799C229.275 314.219 182.993 287.842 157.925 244.703C132.858 201.564 132.858 148.293 157.925 105.154C182.993 62.0151 229.275 35.6385 279.167 36.0577C451.725 36.0675 454.244 313.799 279.167 313.799Z" fill="var(--color-illustration-secondary, #7F72FF)"/>
<path d="M279.167 309.673C206.289 309.211 146.988 250.885 145.317 178.024C143.647 105.164 200.213 44.1814 272.993 40.3793C297.787 39.2915 322.973 44.3973 344.347 57.2059C362.741 68.2113 377.441 84.4107 387.643 103.188C408.282 141.212 410.859 188.712 396.11 229.206C388.858 249.119 376.941 267.367 360.909 281.293C343.465 296.443 321.473 305.508 298.659 308.497C292.194 309.319 285.683 309.724 279.167 309.713C273.845 309.713 273.836 318.003 279.167 317.984C305 317.905 330.891 311.8 352.745 297.678C372.09 285.193 387.467 267.22 397.61 246.611C418.092 205 418.925 154.049 400.775 111.478C391.769 90.3593 377.814 71.4159 359.478 57.4705C339.486 42.2511 315.192 34.1171 290.28 32.3237C215.542 26.5685 149.021 79.4486 137.772 153.559C132.402 190.172 141.202 228.137 162.919 258.214C183.999 287.428 215.78 308.262 251.217 315.201C260.427 316.99 269.785 317.909 279.167 317.945C284.488 317.974 284.498 309.703 279.167 309.673Z" fill="var(--color-illustration-secondary, #7F72FF)"/>
<path d="M578.949 611.083C673.176 789.718 837.306 859.092 859.719 879.603C868.598 887.728 880.299 895.812 887.257 905.671C896.88 919.293 892.99 932.582 891.931 947.811C891.732 950.027 891.699 952.255 891.833 954.475C891.893 956.588 892.512 958.648 893.627 960.444C896.008 963.834 900.928 964.618 904.858 963.325C908.787 962.031 911.953 959.101 914.873 956.171C934.377 936.551 949.355 912.903 958.758 886.885C960.12 883.102 961.374 879.162 961.168 875.125C960.1 854.417 925.467 835.601 911.375 823.861L850.144 772.901C838.659 763.336 827.075 753.683 817.804 741.952C809.964 732.035 803.927 720.843 797.224 710.142C782.955 687.504 765.492 667.12 747.244 647.637C738.826 638.651 729.839 630.429 721.01 622.059C712.601 614.092 708.485 604.419 702.017 594.619C694.109 582.712 683.544 570.472 669.295 569.237" fill="var(--color-illustration-base, #FFFFFF)"/>
<path d="M576.371 612.592C610.613 677.576 657.839 734.935 713.571 782.651C750.811 814.56 791.589 841.373 833.504 866.686C839.208 870.136 844.95 873.546 850.507 877.251C857.367 881.818 863.502 887.6 870.371 893.529C878.211 900.291 886.512 907.827 888.991 918.313C891.334 928.23 888.727 938.687 888.119 948.693C887.58 957.346 889.638 966.862 899.879 967.695C909.336 968.459 916.324 960.433 922.155 954.161C936.313 938.969 947.922 921.588 956.533 902.692C960.453 893.95 965.97 883.552 964.951 873.703C964.206 866.588 960.326 860.365 955.857 854.985C945.635 842.696 931.572 834.141 918.852 824.752C900.399 811.15 883.268 795.352 865.658 780.652C848.047 765.952 829.045 751.821 815.952 732.632C809.513 723.195 804.045 713.14 797.773 703.585C791.726 694.363 785.131 685.494 778.173 676.89C763.479 658.664 747.546 641.473 730.486 625.44C726.645 621.814 722.578 618.335 719.275 614.199C715.718 609.76 712.934 604.742 710.034 599.862C705.075 591.551 699.616 583.251 692.531 576.567C685.926 570.344 678.291 566.218 669.226 565.189C663.983 564.601 664.032 572.804 669.226 573.402C689.522 575.724 699.058 599.097 708.926 613.886C714.865 622.784 722.97 629.566 730.643 636.916C738.738 644.648 746.441 652.733 753.938 661.043C768.834 677.537 782.857 694.863 794.637 713.748C800.37 722.94 805.652 732.446 812.12 741.188C818.453 749.5 825.615 757.147 833.494 764.012C850.811 779.437 869.078 793.872 886.904 808.7C900.624 820.087 914.344 830.995 928.672 841.491C935.381 846.195 941.656 851.492 947.419 857.318C951.986 862.12 956.847 868.254 957.219 875.173C957.513 880.416 955.073 885.718 953.211 890.51C951.251 895.587 948.997 900.555 946.557 905.426C941.992 914.549 936.709 923.295 930.759 931.582C924.891 939.826 918.292 947.524 911.042 954.583C908.102 957.415 902.741 962.158 898.253 959.551C893.588 956.837 895.665 947.448 896.087 942.999C896.939 934.179 898.272 925.124 896.146 916.333C893.901 907.043 887.806 899.595 880.995 893.186C869.108 881.887 856.041 871.899 842.02 863.394C803.653 840.207 765.835 816.55 730.927 788.277C677.615 745.157 631.065 693.618 595.687 634.711C590.742 626.459 586.011 618.08 581.497 609.574C579.694 606.173 574.549 609.191 576.342 612.592H576.371Z" fill="var(--color-illustration-primary, #382C80)"/>
<path d="M583.084 633.819C640.316 741.982 712.101 788.551 813.6 854.927C828.819 864.883 852.535 874.634 859.219 891.49C860.875 895.655 864.354 899.938 868.823 899.546C870.584 899.272 872.259 898.602 873.723 897.586C892.833 886.003 905.838 866.716 916.843 847.322C926.741 829.956 928.779 819.049 913.188 806.24C895.92 792.04 878.79 777.663 861.62 763.385C849.86 753.644 838.1 743.785 828.614 731.888C820.617 721.794 814.453 710.406 807.573 699.548C793.01 676.518 775.184 655.781 756.544 635.955C747.96 626.812 738.787 618.443 729.781 609.927C721.206 601.822 716.992 591.944 710.406 582.046C702.331 569.923 691.541 557.477 677.008 556.213" fill="var(--color-illustration-base, #FFFFFF)"/>
<path d="M580.507 635.328C605.526 682.711 637.935 725.302 677.87 761.082C717.991 797.018 763.483 826.389 808.396 855.877C819.117 862.923 830.74 868.617 841.109 876.183C846.273 879.956 851.291 884.434 854.407 890.099C857.171 895.136 859.062 901.055 865.236 902.888C871.41 904.72 877.486 899.899 882.18 896.4C888.145 891.921 893.603 886.804 898.458 881.141C908.022 869.903 916.22 857.57 922.88 844.401C928.064 834.268 931.239 822.841 924.477 812.6C920.391 806.407 914.226 802.026 908.591 797.361C901.692 791.658 894.813 785.938 887.953 780.201C874.487 768.98 860.64 758.073 847.714 746.225C834.974 734.533 825.458 721.205 816.54 706.476C799.292 677.987 778.193 652.027 754.8 628.301C743.089 616.404 729.859 606.281 721.166 591.826C713.885 579.733 706.466 567.1 694.706 558.77C689.451 555.048 683.325 552.743 676.919 552.077C671.676 551.499 671.725 559.692 676.919 560.289C690.845 561.877 700.606 574.578 707.672 585.515C711.474 591.395 714.718 597.627 718.765 603.341C723.185 609.593 728.693 614.591 734.24 619.805C757.76 641.884 779.878 666.022 798.136 692.658C806.956 705.486 814.07 719.422 823.459 731.858C832.847 744.294 844.695 754.574 856.691 764.541C869.646 775.315 882.605 786.095 895.567 796.881C901.829 802.075 908.719 806.946 914.413 812.757C918.333 816.765 921.037 821.577 920.557 827.31C920.057 833.239 917.049 838.854 914.236 843.97C910.747 850.301 906.994 856.514 902.966 862.512C894.803 874.664 884.964 886.179 872.41 893.95C868.696 896.243 865.991 896.126 863.59 892.127C862.179 889.785 861.365 887.149 859.885 884.816C856.752 880.06 852.843 875.863 848.321 872.4C838.766 864.844 827.741 859.523 817.481 853.094C794.853 838.972 772.626 823.988 750.684 808.817C730.398 794.803 710.504 780.182 691.688 764.218C653.643 732.117 621.304 693.81 596.04 650.92C592.447 644.785 588.977 638.578 585.632 632.3C583.819 628.899 578.674 631.908 580.478 635.308L580.507 635.328Z" fill="var(--color-illustration-primary, #382C80)"/>
<path d="M685.397 679.958C724.048 731.682 770.657 777.683 820.117 819.01C834.562 831.083 849.174 843.137 864.482 854.104C866.442 855.534 869.058 852.242 867.138 850.664C841.765 829.888 815.923 809.886 791.599 787.826C768.276 766.687 746.084 744.331 725.116 720.853C712.523 706.751 700.4 692.237 688.229 677.733C686.925 676.185 684.172 678.272 685.397 679.909V679.958Z" fill="var(--color-illustration-secondary, #7F72FF)"/>
<path d="M668.148 670.618C669.144 670.618 669.952 669.811 669.952 668.815C669.952 667.819 669.144 667.012 668.148 667.012C667.153 667.012 666.345 667.819 666.345 668.815C666.345 669.811 667.153 670.618 668.148 670.618Z" fill="var(--color-illustration-primary, #382C80)"/>
<path d="M858.033 869.46L852.8 873.037C850.938 874.321 852.702 877.388 854.583 876.095L859.866 872.469C861.718 871.195 859.964 868.137 858.082 869.421L858.033 869.46Z" fill="var(--color-illustration-secondary, #7F72FF)"/>
<path d="M904.858 963.344C900.938 964.637 896.038 963.853 893.627 960.462C892.512 958.667 891.893 956.607 891.833 954.494C891.699 952.274 891.732 950.046 891.931 947.83C892.99 932.581 896.88 919.293 887.257 905.69C886.443 904.544 885.561 903.426 884.64 902.329C887.855 899.487 892.578 898.644 896.959 898.654C901.859 898.654 906.867 899.497 911.659 898.497C932.053 894.283 934.767 868.313 943.44 853.554C943.836 852.759 944.405 852.062 945.106 851.516C946.86 850.379 949.154 851.398 950.986 852.408L959.365 857.102C961.796 858.464 964.451 860.042 965.245 862.766C965.552 864.144 965.585 865.57 965.343 866.961C963.648 882.494 954.563 899.154 947.096 912.903C938.474 928.801 927.624 943.384 914.873 956.209C911.953 959.12 908.797 962.05 904.858 963.344Z" fill="var(--color-illustration-primary, #382C80)"/>
<path d="M903.76 959.355C895.645 961.541 895.675 953.701 896.067 947.831C896.459 941.96 897.4 935.884 897.664 929.877C898.369 918.787 894.747 907.855 887.56 899.379V905.259C893.823 900.359 903.74 903.809 910.973 902.79C916.397 901.993 921.471 899.633 925.575 895.998C933.767 888.874 937.54 877.937 941.382 868.127C942.284 865.834 943.175 863.521 944.195 861.267C944.704 860.13 945.233 859.003 945.812 857.906C946.997 855.603 947.262 855.407 949.732 856.465C952.613 857.68 958.473 860.336 960.414 862.884C962.579 865.726 960.561 871.214 959.708 874.507C955.729 889.893 947.458 904.622 939.304 918.176C934.698 925.862 929.532 933.199 923.85 940.128C920.982 943.604 917.993 946.981 914.883 950.261C911.629 953.671 908.238 957.64 903.74 959.385C898.84 961.286 900.967 969.293 905.935 967.362C914.197 964.157 920.155 956.994 925.869 950.486C931.867 943.645 937.388 936.398 942.391 928.799C952.329 913.668 961.933 896.528 967.029 879.074C969.096 871.988 972.076 862.286 965.843 856.534C962.726 853.662 958.424 851.82 954.749 849.801C951.319 847.92 947.419 845.724 943.528 847.763C938.628 850.33 936.384 858.425 934.444 863.257C931.984 869.411 929.798 875.703 926.515 881.475C922.968 887.737 917.931 893.147 910.571 894.528C905.102 895.557 899.497 894.156 893.989 894.666C889.511 894.99 885.232 896.646 881.7 899.419C879.818 900.889 880.426 903.721 881.7 905.299C891.676 917.451 889.217 930.984 887.972 945.479C887.443 951.545 886.688 959.012 891.079 963.932C894.822 968.136 900.751 968.832 905.935 967.411C911.12 965.99 908.915 957.964 903.76 959.355Z" fill="var(--color-illustration-primary, #382C80)"/>
<path d="M886.208 916.225C889.606 917.523 893.331 917.692 896.832 916.705C899.125 916.068 898.125 912.433 895.852 913.138C892.983 914.056 889.9 914.056 887.032 913.138C885.072 912.531 884.317 915.48 886.189 916.196L886.208 916.225Z" fill="var(--color-illustration-base, #FFFFFF)"/>
<path d="M709.201 671.039C725.743 683.446 719.981 721.45 706.261 742.177C701.998 748.616 696.764 754.672 689.934 758.269C689.178 758.748 688.301 759.003 687.405 759.004C686.363 758.79 685.411 758.259 684.681 757.485L652.508 729.457C648.97 726.37 645.226 722.969 644.207 718.383C667.803 708.78 688.496 693.204 704.252 673.185" fill="var(--color-illustration-primary, #382C80)"/>
<path d="M707.133 673.107C714.336 679.732 715.62 690.394 715.188 699.684C714.64 710.915 711.816 721.918 706.888 732.024C704.373 737.201 701.147 742 697.303 746.283C695.02 748.866 692.38 751.109 689.463 752.947C688.807 753.359 688.14 753.741 687.503 754.104C688.732 754.202 688.454 753.771 686.67 752.81C685.295 751.417 683.828 750.118 682.28 748.92L663.258 732.367C658.466 728.202 650.753 723.479 648.842 717.07L646.647 722.479C670.834 712.228 692.296 696.411 708.387 675.527C711.631 671.323 704.379 665.727 700.988 669.814C685.396 688.826 665.963 704.545 643.002 713.728C640.601 714.708 638.905 716.883 639.66 719.608C641.287 725.488 645.422 729.535 649.891 733.455L668.893 750.027L677.713 757.681C680.173 759.827 682.868 762.963 686.229 763.639C691.815 764.756 697.793 759.268 701.449 755.691C716.776 740.639 724.851 715.923 723.352 694.686C722.529 684.632 719.432 674.44 710.7 668.56C707.946 666.707 704.712 670.912 707.152 673.156L707.133 673.107Z" fill="var(--color-illustration-primary, #382C80)"/>
<path d="M886.973 924.781C890.42 927.187 894.622 928.263 898.801 927.809C900.761 927.515 900.232 924.428 898.331 924.398C894.734 924.34 891.696 924.016 888.531 922.037C886.786 920.929 885.209 923.673 886.924 924.781H886.973Z" fill="var(--color-illustration-base, #FFFFFF)"/>
<path d="M887.012 933.68C890.074 936.553 894.218 937.979 898.4 937.6C900.595 937.335 900.712 933.925 898.4 934.081C894.954 934.453 891.496 933.5 888.727 931.416C887.453 930.436 885.787 932.572 887.012 933.64V933.68Z" fill="var(--color-illustration-base, #FFFFFF)"/>
<path d="M878.28 916.5C875.703 914.795 869.646 912.835 867.255 915.932C864.482 919.538 870.959 923.488 873.36 924.879L874.34 921.087C871.249 921.015 868.518 923.088 867.756 926.085C866.994 929.083 868.404 932.208 871.155 933.621C873.906 935.034 877.268 934.359 879.26 931.994C881.063 930.034 878.202 927.192 876.32 929.054C872.723 932.749 869.293 925.399 874.429 925.134C875.424 925.099 876.249 924.353 876.385 923.366C876.52 922.379 875.926 921.438 874.977 921.136C873.782 920.774 872.672 920.174 871.714 919.372L871.018 918.735C869.842 918.186 869.764 917.902 870.783 917.882C872.459 916.951 875.399 918.255 876.79 919.097C878.486 920.077 879.936 917.549 878.329 916.471L878.28 916.5Z" fill="var(--color-illustration-primary, #382C80)"/>
<path d="M640.365 641.571C600.45 634.916 559.809 638.092 524.725 652.351C489.641 666.61 460.339 692.158 443.846 725.233C430.126 752.761 425.628 784.337 425.314 816.04C425.157 831.808 426.039 847.684 427.274 863.56C428.254 875.693 433.938 895.9 427.931 906.278C424.07 912.942 415.7 915.559 407.753 917.058C399.805 918.558 391.279 919.538 385.213 924.32C384.438 924.858 383.817 925.587 383.409 926.437C383.064 927.613 383.095 928.867 383.498 930.024C384.919 935.115 388.14 939.517 392.563 942.411C397.296 945.537 402.921 946.674 408.341 947.683C442.641 954.024 478.989 955.915 510.594 945.233C512.485 944.587 514.445 943.861 515.68 942.362C517.258 940.471 517.375 937.736 517.415 935.169C518.032 896.665 515.513 858.072 518.502 819.627C519.561 806.044 518.796 780.711 525.47 768.775C533.996 753.555 556.83 758.083 570.864 758.759C589.444 759.49 608.011 757.003 625.744 751.409C663.16 739.982 664.944 696.245 687.797 664.365" fill="var(--color-illustration-base, #FFFFFF)"/>
<path d="M641.179 638.591C572.922 627.37 497.413 644.373 454.214 701.978C432.654 730.751 424.148 766.315 422.208 801.712C421.11 821.695 421.972 841.736 423.511 861.669C424.07 868.98 425.471 876.163 426.324 883.444C427.078 889.981 428.284 898.448 424.736 904.416C420.61 911.433 410.82 912.727 403.558 914.03C396.296 915.334 386.79 916.735 381.469 922.595C376.814 927.731 380.94 935.747 384.566 940.235C389.877 946.801 397.639 949.516 405.675 951.104C424.292 954.933 443.254 956.837 462.26 956.788C471.468 956.709 480.657 955.936 489.749 954.475C498.04 953.132 507.958 951.692 515.415 947.615C523.187 943.371 521.531 933.003 521.57 925.545C521.629 915.275 521.57 904.965 521.403 894.724C521.158 874.144 520.874 853.623 521.874 833.102C522.618 817.961 522.854 802.418 524.814 787.385C525.607 781.289 526.617 773.92 530.537 768.931C534.457 763.943 540.856 762.512 546.736 762.071C553.057 761.621 559.388 762.218 565.68 762.708C574.187 763.398 582.737 763.362 591.238 762.601C607.467 761.111 626.224 758.387 640.238 749.439C662.709 735.092 669.707 707.084 680.673 684.475C683.669 678.15 687.139 672.06 691.051 666.257C693.834 662.2 687.337 658.554 684.524 662.435C669.373 683.319 664.258 709.837 648.578 730.251C640.042 741.354 628.978 746.401 615.64 749.723C598.773 753.933 581.33 755.353 564.004 753.928C552.704 753.026 539.376 751.811 529.42 758.436C519.022 765.296 517.111 778.614 515.945 790.09C514.475 804.623 514.073 819.49 513.436 834.033C512.573 853.633 512.858 873.233 513.152 892.774C513.299 902.398 513.446 912.031 513.465 921.664C513.465 926.153 513.573 930.661 513.387 935.149C513.25 938.266 512.769 940.157 509.545 941.323C507.379 942.107 505.155 942.744 502.95 943.371C485.369 948.271 466.984 949.467 448.815 948.624C439.49 948.198 430.194 947.289 420.963 945.9C412.466 944.636 401.784 944.048 394.503 939.118C391.71 937.227 388.251 933.807 387.574 930.298C386.594 925.398 393.817 923.811 397.58 922.85C404.989 920.959 412.662 920.469 419.758 917.45C433.37 911.678 435.281 898.879 433.919 885.542C433.203 878.544 431.743 871.645 431.047 864.648C430.126 855.426 429.646 846.126 429.264 836.865C427.764 800.605 429.901 762.552 445.669 729.281C458.938 701.292 481.478 678.634 508.477 663.689C539.67 646.422 575.93 640.003 611.318 641.561C620.782 641.991 630.212 642.973 639.562 644.501C643.482 645.128 645.118 639.199 641.198 638.552L641.179 638.591Z" fill="var(--color-illustration-primary, #382C80)"/>
<path d="M718.971 674.891C696.49 718.167 663.111 739.992 625.695 751.419C607.962 757.013 589.395 759.5 570.815 758.769C556.801 758.093 533.947 753.565 525.421 768.784C518.747 780.721 519.541 806.024 518.453 819.637C517.728 828.898 517.336 838.168 517.13 847.449C516.993 853.682 518.571 860.62 512.75 864.785C507.85 868.274 494.992 868.852 488.975 870.107C469.631 874.153 449.724 874.744 430.175 871.851C418.631 870.136 406.773 866.951 398.08 859.111C392.455 854.054 388.28 846.136 390.808 838.992C391.788 836.189 393.68 833.807 395.179 831.25C401.471 820.47 400.775 805.642 401.941 793.618C404.293 769.333 408.625 745.48 419.581 723.45C436.075 690.365 465.377 664.826 500.47 650.557C530.292 638.435 573.892 594.501 605.86 597.03C618.6 598.01 627.341 606.153 639.415 600.803C656.143 593.384 662.935 618.825 677.635 607.957" fill="var(--color-illustration-base, #FFFFFF)"/>
<path d="M716.315 673.333C702.341 699.793 681.957 721.705 655.399 735.808C627.163 750.755 595.252 757.343 563.406 754.8C552.45 753.918 539.474 752.771 529.821 759.171C519.698 765.923 517.856 778.967 516.66 790.08C515.161 804.437 514.7 819.088 514.034 833.494C513.818 838.129 513.593 842.774 513.544 847.41C513.544 850.781 514.112 854.505 513.25 857.798C511.515 864.403 501.784 864.57 496.266 865.315C488.328 866.373 480.518 868.117 472.55 868.95C463.352 869.923 454.088 870.133 444.855 869.578C429.244 868.598 407.321 866.5 397.306 852.584C394.885 849.223 393.151 844.901 394.366 840.756C395.405 837.081 398.286 834.023 399.942 830.574C403.117 823.812 404.195 816.354 404.842 809.014C406.341 791.511 407.664 774.223 411.878 757.074C419.457 725.459 437.451 697.313 462.966 677.164C475.08 667.792 488.413 660.111 502.597 654.33C513.906 649.587 524.157 642.629 534.261 635.779C545.972 627.841 557.526 619.609 569.864 612.661C579.958 606.967 591.424 601.156 603.351 601.205C610.76 601.205 617.335 604.537 624.46 606.046C627.476 606.734 630.582 606.935 633.662 606.644C637.239 606.252 640.189 604.458 643.639 603.772C652.331 602.038 658.682 612.141 666.6 614.15C671.255 615.326 675.724 613.984 679.546 611.21C683.368 608.437 679.81 601.94 675.734 604.684C666.914 610.652 659.72 599.313 651.704 596.442C646.04 594.403 641.581 595.903 636.122 597.618C628.743 599.94 621.579 596.207 614.562 594.315C587.975 587.161 561.642 606.761 540.866 620.824C529.508 628.527 518.326 636.681 506.164 643.129C500.01 646.392 493.424 648.774 487.191 651.861C480.164 655.348 473.392 659.327 466.925 663.768C440.465 681.966 419.885 707.593 409.105 737.944C402.941 755.28 399.981 773.577 398.188 791.844C397.355 800.311 397.502 808.935 395.934 817.324C395.297 821.277 394.037 825.105 392.2 828.663C390.24 832.23 387.633 835.405 386.683 839.443C382.978 855.221 399.344 866.883 412.084 871.469C429.195 877.633 449.148 878.27 467.092 876.918C475.667 876.271 483.987 874.585 492.444 873.223C498.853 872.194 505.625 871.93 511.691 869.431C517.758 866.932 520.511 861.845 520.864 855.583C521.384 846.763 520.992 837.777 521.482 828.898C522.275 814.355 522.177 799.38 524.363 784.964C525.294 778.83 526.558 771.685 531.076 767.079C535.417 762.66 541.973 761.435 547.932 761.121C554.223 760.798 560.505 761.425 566.767 761.885C575.225 762.511 583.72 762.406 592.159 761.572C609.157 759.837 625.823 755.7 641.659 749.283C668.589 738.503 691.825 720.99 708.858 697.343C713.626 690.677 717.91 683.678 721.676 676.4C723.518 672.882 718.207 669.765 716.355 673.284L716.315 673.333Z" fill="var(--color-illustration-primary, #382C80)"/>
<path d="M469.718 869.343C465.798 869.235 461.878 869.108 457.958 869.078C453.46 869.078 453.46 875.938 457.958 876.056C461.878 876.124 465.798 876.056 469.718 876.056C474.05 876.056 474.03 869.46 469.718 869.333V869.343Z" fill="var(--color-illustration-primary, #382C80)"/>
<path d="M464.916 849.497C460.511 815.427 465.598 780.803 479.616 749.439C485.86 735.39 494.439 722.501 504.988 711.317C510.131 705.859 515.811 700.934 521.942 696.617C528.234 692.227 535.123 689.297 541.768 685.543C547.161 682.34 552.082 678.402 556.389 673.842C561.713 668.416 567.953 663.974 574.823 660.72C577.234 659.573 575.127 656.036 572.736 657.153C566.571 659.872 560.901 663.598 555.958 668.178C551.499 672.431 547.511 676.91 542.238 680.251C535.613 684.475 528.254 687.298 521.658 691.688C515.369 695.915 509.516 700.757 504.185 706.143C481.292 729.183 467.925 760.513 462.545 792.226C459.309 811.287 459.077 830.737 461.859 849.87C462.104 851.555 465.073 851.173 464.857 849.458L464.916 849.497Z" fill="var(--color-illustration-secondary, #7F72FF)"/>
<path d="M400.873 836.199C404.538 838.546 408.726 839.953 413.064 840.295C415.622 840.482 415.573 836.562 413.064 836.375C409.411 836.086 405.875 834.952 402.735 833.063C400.697 831.828 398.864 835.023 400.873 836.238V836.199Z" fill="var(--color-illustration-secondary, #7F72FF)"/>
<path d="M430.351 886.894C432.82 886.762 435.295 886.841 437.75 887.13C445.247 888.051 452.774 891.589 456.782 897.988C459.487 902.29 460.565 907.739 464.387 911.1C469.414 915.51 477.019 914.579 483.595 913.394L517.424 907.278C517.512 916.579 517.552 925.898 517.424 935.179C517.424 937.747 517.267 940.481 515.69 942.372C514.455 943.872 512.495 944.597 510.603 945.244C478.998 955.926 442.64 954.064 408.35 947.694C402.931 946.714 397.306 945.547 392.572 942.421C388.15 939.527 384.929 935.125 383.507 930.034C383.105 928.877 383.074 927.623 383.419 926.447C383.827 925.597 384.448 924.868 385.222 924.33C391.308 919.548 399.824 918.568 407.762 917.069C415.7 915.569 424.079 912.953 427.94 906.289C430.782 901.389 431.008 894.293 430.351 886.894Z" fill="var(--color-illustration-primary, #382C80)"/>
<path d="M430.351 891.02C438.769 890.775 448.236 892.49 453.215 900.066C457.311 906.299 458.34 913.492 465.847 916.824C472.981 919.979 481.135 918.019 488.455 916.696L518.522 911.267L513.289 907.279C513.367 915.952 513.426 924.634 513.289 933.317C513.289 934.846 513.592 937.237 512.955 938.668C511.975 940.883 509.035 941.412 507.007 942.059C503.152 943.274 499.232 944.309 495.247 945.165C479.116 948.693 462.446 949.281 446.012 948.311C437.633 947.811 429.273 946.91 420.973 945.655C413.084 944.46 403.97 943.784 396.776 940.118C393.622 938.547 390.981 936.11 389.162 933.092C388.564 932.112 387.31 930.152 387.408 928.937C387.613 926.614 391.23 925.33 393.023 924.644C399.883 922.018 407.38 921.704 414.416 919.744C420.659 918 426.99 915.011 430.724 909.484C435.143 902.947 435.026 894.401 434.428 886.865C434.007 881.593 425.735 881.544 426.157 886.865C426.804 895.078 427.137 904.437 419.081 909.072C411.927 913.159 403.215 913.266 395.404 915.246C389.446 916.765 379.283 920.068 378.97 927.565C378.676 934.601 384.389 941.755 389.809 945.548C397.11 950.634 406.645 951.653 415.191 953.045C424.51 954.554 433.889 955.72 443.307 956.377C461.927 957.67 480.88 956.955 499.167 952.731C506.958 950.928 518.982 949.36 521.05 940.089C522.118 935.267 521.589 929.828 521.609 924.919C521.609 919.039 521.609 913.159 521.53 907.279C521.53 904.407 518.924 902.82 516.297 903.29L486.28 908.729C478.773 910.081 469.247 912.649 464.72 904.672C461.172 898.41 459.32 892.677 453.117 888.414C446.443 883.817 438.338 882.534 430.4 882.759C425.04 882.906 425.02 891.177 430.351 891.02Z" fill="var(--color-illustration-primary, #382C80)"/>
<path d="M435.525 905.093C432.315 901.764 427.954 899.787 423.334 899.566C421.002 899.438 420.982 903.153 423.334 903.221C427.051 903.298 430.605 904.759 433.301 907.318C433.927 907.853 434.86 907.817 435.442 907.234C436.025 906.652 436.061 905.719 435.525 905.093Z" fill="var(--color-illustration-base, #FFFFFF)"/>
<path d="M426.941 914.041C426.231 909.553 423 905.875 418.64 904.594C416.357 903.917 415.357 907.534 417.66 908.161C420.859 908.997 423.26 911.647 423.775 914.913C424.148 917.01 427.235 916.089 426.941 914.041Z" fill="var(--color-illustration-base, #FFFFFF)"/>
<path d="M415.386 916.275C415.601 913.647 414.398 911.103 412.231 909.601C410.731 908.621 409.291 910.758 410.379 911.993C411.526 913.124 412.178 914.664 412.192 916.275C412.133 918.343 415.269 918.314 415.386 916.275Z" fill="var(--color-illustration-base, #FFFFFF)"/>
<path d="M419.385 893.362C419.101 890.52 417.122 887.717 413.976 887.796C410.634 887.884 408.743 891.059 409.419 894.107L411.977 891.539C408.439 890.236 403.411 889.579 401.481 893.783C399.825 897.419 402.843 900.3 405.959 901.555C408.194 902.456 409.83 898.615 407.616 897.635C407.116 897.44 406.639 897.19 406.195 896.89C405.42 895.43 405.616 894.734 406.792 894.783C407.978 894.234 409.732 895.155 410.869 895.557C411.59 895.749 412.359 895.543 412.888 895.016C413.417 894.489 413.626 893.721 413.437 892.999C413.241 891.484 413.966 890.974 415.612 891.471C416.306 892.017 416.734 892.833 416.788 893.715C417.043 895.165 419.532 894.852 419.385 893.362Z" fill="var(--color-illustration-primary, #382C80)"/>
<path d="M651.449 331.087C642.629 327.393 630.654 331.92 629.262 341.583C627.528 353.539 624.235 365.201 625.519 377.441C625.693 379.984 626.317 382.476 627.361 384.801C630.987 392.161 640.101 394.542 648.186 396.12C648.421 396.12 646.079 410.32 645.834 411.594C644.854 416.641 644.246 416.406 647.794 420.698C652.273 426.118 662.288 429.185 668.149 426.686C674.166 424.128 675.469 418.493 676.214 412.476C678.644 392.798 678.585 372.522 677.4 352.765" fill="var(--color-illustration-base, #FFFFFF)"/>
<path d="M652.311 327.971C645.2 325.16 637.124 326.424 631.212 331.274C628.555 333.557 626.691 336.625 625.891 340.035C624.509 345.729 623.666 351.717 622.715 357.499C621.167 366.995 619.276 379.304 624.489 388.045C629.154 395.885 638.719 398.512 647.029 400.266L644.06 397.257C643.746 395.415 643.433 399.58 643.325 400.256C642.952 402.52 642.56 404.784 642.168 407.047C641.58 410.419 640.101 414.231 640.806 417.622C642.923 427.725 657.643 433.615 666.757 431.939C680.477 429.421 681.084 414.299 682.162 403.216C683.691 386.439 683.819 369.563 682.544 352.765C682.084 346.248 671.99 346.131 672.303 352.765C672.911 365.838 673.283 378.931 672.793 392.014C672.548 398.874 672.254 405.734 671.353 412.477C670.804 416.602 669.961 421.355 665.365 422.639C661.278 423.776 655.888 421.757 652.723 419.199C649.303 416.436 649.636 415.701 650.293 411.869C651.165 406.802 653.331 400.06 652.36 394.974C651.978 393.499 650.827 392.347 649.352 391.965C643.305 390.809 635.21 389.535 631.555 383.919C627.419 377.569 629.076 366.946 630.046 359.909C630.595 355.901 631.339 351.922 632.006 347.934C632.535 344.641 632.476 340.858 634.485 338.036C638.092 332.989 645.216 332.254 650.626 334.204C654.546 335.625 656.153 329.461 652.351 327.971H652.311Z" fill="var(--color-illustration-primary, #382C80)"/>
<path d="M689.463 382.067C688.471 384.574 687.06 386.894 685.289 388.927C675.557 399.844 666.6 391.367 667.649 379.245C668.237 372.179 669.54 364.603 666.208 358.331C665.907 357.692 665.461 357.131 664.905 356.695C663.131 355.48 660.622 356.95 659.622 358.851C658.623 360.752 658.486 363.016 657.555 364.956C658.25 359.38 657.77 353.108 653.811 349.119C650.391 345.67 645.177 344.749 640.326 344.66C635.475 344.572 630.526 345.101 625.822 343.857C618.237 341.838 609.956 330.931 614.062 323.042C615.144 320.76 617.296 319.171 619.795 318.808C622.265 318.602 624.901 320.513 624.93 322.993C626.449 319.857 627.998 316.662 630.369 314.114C632.741 311.566 636.102 309.704 639.572 309.968C643.041 310.233 646.432 313.114 646.373 316.603C648.727 314.332 652.173 313.608 655.242 314.739C658.311 315.871 660.463 318.659 660.779 321.915C663.964 320.239 667.404 318.504 670.99 318.896C674.577 319.288 678.017 322.816 676.87 326.266C678.135 322.483 688.464 338.349 688.797 339.192C693.397 350.889 694.3 363.716 691.384 375.942C690.902 378.03 690.26 380.078 689.463 382.067Z" fill="var(--color-illustration-primary, #382C80)"/>
<path d="M686.621 380.441C684.455 385.252 676.018 395.846 672.352 386.419C669.932 380.186 673.009 372.601 672.588 366.093C672.264 361.144 670.804 353.197 664.944 351.942C657.241 350.296 655.055 358.391 652.948 363.702L662.268 364.966C663.787 351.57 657.143 341.201 643.237 339.898C636.514 339.271 628.537 341.446 622.921 336.742C620.824 335.021 619.241 332.757 618.345 330.196C617.932 329.079 617.807 327.875 617.982 326.697C618.07 326.266 619.844 322.63 620.167 324.316C620.922 328.412 627.41 329.216 629.223 325.502C630.536 322.797 631.79 319.837 633.878 317.662C634.985 316.466 641.041 312.576 641.522 316.682C642.041 320.994 646.422 322.915 649.822 320.112C652.762 317.691 655.545 320.259 656.104 323.287C656.702 326.541 660.681 327.521 663.238 326.227C663.993 325.845 672.744 321.895 672.186 325.09C671.314 330.137 678.428 334.155 681.104 328.844C679.595 330.372 678.023 330.928 676.39 330.51C676.315 330.479 676.235 330.463 676.155 330.461C676.223 330.764 677.546 331.891 677.752 332.117C678.795 333.311 679.776 334.557 680.692 335.851C682.243 337.828 683.592 339.955 684.72 342.201C689.934 353.843 689.238 369.18 684.72 380.862C682.437 386.742 691.962 389.349 694.216 383.479C699.606 369.435 700.175 349.1 692.384 335.723C689.934 331.509 677.987 313.35 672.676 323.963L681.594 327.717C682.722 322.421 679.835 317.091 674.783 315.143C669.128 312.762 663.405 315.241 658.338 317.877L665.473 320.817C663.415 309.753 651.126 306.794 642.933 313.35L651.224 316.79C650.41 309.43 644.315 304.304 636.778 305.422C628.546 306.656 624.038 313.781 620.648 320.68L629.703 321.866C628.047 312.879 616.963 312.184 611.602 318.191C605.948 324.512 607.751 333.685 612.406 339.986C618.002 347.562 625.665 349.786 634.789 349.786C639.562 349.786 645.667 349.002 649.665 352.226C653.438 355.255 653.184 360.743 652.762 365.104C652.213 370.778 660.338 370.984 662.072 366.368C662.495 365.375 662.823 364.345 663.052 363.291C663.866 362.105 663.611 361.252 662.288 360.743C663.065 362.481 663.615 364.312 663.924 366.191C664.405 370.013 663.924 373.943 663.64 377.755C663.287 383.224 663.836 388.976 667.452 393.377C676.272 404.157 688.277 393.024 692.286 383.861C694.04 379.902 688.366 376.521 686.621 380.441Z" fill="var(--color-illustration-primary, #382C80)"/>
<path d="M609.917 465.083C603.223 477.048 599.029 490.563 596.599 504.165C592.679 525.999 592.806 548.334 591.052 570.452C590.572 576.46 589.915 582.604 587.279 588.024C585.76 591.16 583.574 594.06 582.996 597.49C579.615 617.698 616.865 622.177 629.762 623.882C661.23 628.047 690.62 623.147 720.324 611.23C727.928 608.182 735.915 604.194 739.522 596.844C742.952 589.837 741.482 581.35 738.375 574.206C735.269 567.061 730.535 560.711 727.242 553.626C720.451 539.102 719.99 522.628 717.56 507.046C714.922 489.765 709.337 473.065 701.047 457.674C695.716 447.874 689.081 437.848 689.454 426.676C689.552 423.638 690.159 420.434 688.895 417.67C686.935 413.368 681.29 412.084 676.625 412.868C671.961 413.652 667.619 415.877 662.905 416.475C654.252 417.582 644.354 413.241 637.298 418.386C628.713 424.648 631.918 439.75 623.676 446.453" fill="var(--color-illustration-secondary, #7F72FF)"/>
<path d="M606.997 463.377C595.521 484.065 591.375 507.223 589.474 530.556C588.435 543.208 588.092 555.899 587.112 568.551C586.652 574.431 586.24 580.527 583.712 585.946C581.693 590.268 578.988 593.923 578.675 598.862C577.793 612.641 591.954 619.589 603.106 623.029C617.512 627.469 633.594 629.331 648.588 629.644C672.049 630.144 695.334 625.469 717.247 617.237C726.331 613.817 736.337 609.985 742.021 601.557C747.823 592.973 746.656 582.046 742.844 572.932C738.483 562.524 731.398 553.724 728.213 542.767C725.028 531.811 724.293 520.355 722.686 509.094C721.134 497.631 718.354 486.369 714.395 475.5C710.416 464.72 704.84 454.979 699.607 444.816C696.667 439.162 694.266 433.203 694.413 426.745C694.53 421.473 695.04 416.288 690.992 412.172C681.535 402.568 669.266 412.025 658.515 411.741C648.402 411.486 637.533 408.801 630.566 418.337C625.254 425.608 626.969 436.957 620.236 443.062C615.542 447.296 622.461 454.146 627.155 449.981C632.829 444.944 634.015 437.623 635.916 430.665C636.759 427.607 637.72 424.207 640.483 422.335C644.256 419.777 649.783 420.973 654.007 421.355C657.995 421.849 662.035 421.743 665.993 421.041C670.814 420.061 676.175 416.729 681.202 417.886C686.229 419.042 684.358 424.442 684.485 428.411C684.725 433.479 685.888 438.46 687.915 443.111C691.718 452.284 697.353 460.555 701.469 469.571C705.828 479.26 709.133 489.389 711.327 499.784C715.541 519.384 714.924 540.072 724.303 558.271C728.693 566.767 735.288 574.764 736.68 584.486C738.228 595.266 731.094 601.508 722.078 605.624C702.519 614.482 681.483 619.626 660.044 620.795C644.929 621.527 629.782 620.345 614.964 617.277C606.418 615.532 588.945 612.298 587.063 601.597C586.299 597.255 589.023 593.815 590.846 590.121C592.944 585.471 594.242 580.502 594.688 575.421C596.109 563.083 596.256 550.578 596.971 538.181C598.382 513.681 600.95 488.779 612.828 466.817C614.895 462.995 609.113 459.595 606.948 463.407L606.997 463.377Z" fill="var(--color-illustration-secondary, #7F72FF)"/>
<path d="M658.427 437.927C607.153 450.284 551.46 455.684 498.687 452.235C463.652 449.951 428.607 447.825 393.582 445.375C379.519 444.395 356.342 445.375 352.118 429.107C350.707 423.717 350.834 418.023 349.08 412.731C348.788 411.673 348.251 410.7 347.512 409.889C344.572 406.949 339.515 409.507 335.292 409.203C319.612 408.086 330.627 377.412 312.673 379.205C306.793 379.793 303.804 386.016 301.893 391.337C301.06 387.417 300.178 383.331 297.846 379.969C295.513 376.608 291.358 374.089 287.203 374.775C280.892 375.834 278.275 382.978 276.854 388.956C276.256 384.056 273.836 378.891 269.073 377.01C263.752 374.913 257.421 377.853 254.059 382.321C250.698 386.79 249.6 392.415 248.581 397.835C248.238 394.807 247.846 391.641 246.014 389.152C244.181 386.663 240.418 385.232 237.723 386.8C236.445 387.685 235.446 388.915 234.842 390.348C230.5 399.06 229.648 409.105 229.52 418.846C229.207 451.745 235.351 487.534 254.118 515.709C289.8 569.227 369.758 555.144 426.402 554.792C484.467 554.429 596.658 540.582 651.44 522.177" fill="var(--color-illustration-base, #FFFFFF)"/>
<path d="M657.574 434.849C624.855 442.409 591.534 447.075 557.996 448.795C523.853 450.51 489.955 447.815 455.9 445.551C438.064 444.375 420.221 443.173 402.372 441.944C391.161 441.151 378.999 441.641 368.131 438.426C363.721 437.123 359.213 434.879 357.087 430.586C353.98 424.255 355.509 416.533 352.52 410.114C349.531 403.695 343.778 404.45 337.692 404.94C333.665 405.263 331.979 403.754 330.744 400.04C328.275 392.65 329.068 383.027 322.444 377.656C318.652 374.817 313.685 374.08 309.233 375.696C302.971 377.892 299.953 384.458 297.826 390.23H306.097C304.186 381.204 299.61 370.355 288.653 370.365C279.059 370.365 274.708 379.852 272.728 387.829H281.117C279.588 377.941 271.66 369.66 261.096 372.6C250.031 375.54 246.396 386.682 244.436 396.727L252.922 397.874C252.305 392.778 251.452 387.613 247.111 384.311C243.456 381.537 238.487 380.979 234.694 383.801C230.902 386.623 228.922 392.69 227.678 397.256C226.179 403.209 225.383 409.317 225.306 415.455C224.581 438.328 227.266 461.887 234.273 483.702C240.486 502.94 250.296 522.206 265.976 535.417C279.275 546.599 295.592 553.223 312.487 556.742C348.1 564.092 384.664 559.78 420.62 559.035C456.981 558.248 493.274 555.509 529.341 550.832C570.638 545.521 612.935 539.376 652.566 526.166C657.594 524.49 655.438 516.503 650.371 518.188C618.835 528.704 585.564 534.378 552.783 539.288C517.388 544.74 481.733 548.338 445.963 550.068C431.028 550.734 416.073 550.705 401.128 551.332C384.291 552.038 367.426 552.851 350.57 552.312C318.788 551.332 284.067 545.452 262.507 519.786C247.454 501.842 239.888 477.646 236.302 454.91C234.465 442.953 233.639 430.863 233.832 418.767C233.91 412.544 234.224 406.292 235.792 400.236C236.4 397.903 237.291 392.65 239.408 391.073C242.897 388.466 244.093 395.473 244.357 397.746C244.877 402.127 251.854 404.136 252.854 398.893C253.971 393.013 255.059 385.663 260.557 382.164C267.417 377.774 271.758 383.683 272.758 390.004C273.444 394.356 280.176 393.924 281.146 390.004C282.117 386.084 283.665 379.077 288.683 378.891C295.151 378.636 296.856 387.76 297.855 392.376C298.855 396.992 304.794 396.041 306.127 392.376C307.587 388.378 310.615 381.331 316.172 383.556C318.641 384.536 319.366 387.721 319.954 390.053C321.64 396.688 321.748 404.832 327.069 409.869C330.284 412.897 334.576 413.573 338.829 413.054C340.103 412.897 343.131 411.927 344.239 412.554C345.346 413.181 345.738 415.68 346.003 416.915C346.836 420.718 346.983 424.638 347.826 428.44C350.04 438.534 357.988 444.238 367.612 446.639C377.941 449.216 388.937 448.981 399.501 449.686C416.69 450.856 433.883 451.96 451.078 452.999C484.575 455.086 518.022 457.899 551.607 456.448C587.939 454.878 624.021 449.658 659.309 440.866C663.288 439.886 661.602 433.81 657.613 434.722L657.574 434.849Z" fill="var(--color-illustration-primary, #382C80)"/>
<path d="M658.427 437.927C627.929 445.277 596.805 451.216 565.327 451.823C557.693 451.97 550.049 451.823 542.424 451.255C535.702 450.765 523.942 446.521 517.67 447.991C505.851 450.775 503.45 469.757 501.99 480.508C499.471 498.844 497.854 517.62 501.558 535.75C502.832 541.973 504.783 548.177 508.418 553.39C516.474 564.866 524.647 565.072 535.378 558.624C570.1 537.769 638.504 555.86 673.362 535.28" fill="var(--color-illustration-secondary, #7F72FF)"/>
<path d="M657.574 434.85C620.471 442.876 582.496 450.118 544.355 447.296C533.026 446.463 519.355 439.015 509.408 447.737C501.049 455.077 499.373 468.042 497.932 478.411C495.492 495.992 493.865 513.769 496.511 531.429C498.471 544.237 503.675 561.917 517.709 566.268C529.469 569.904 539.984 559.78 550.695 556.595C563.279 552.842 576.558 551.979 589.611 551.44C605.095 550.803 620.638 550.941 636.083 549.48C649.666 548.177 663.523 545.747 675.449 538.867C680.065 536.211 675.9 529.067 671.275 531.723C650.802 543.483 624.333 542.209 601.508 542.787C578.968 543.355 553.92 543.248 533.761 554.714C528.861 557.497 523.295 560.417 517.914 557.144C511.848 553.449 508.546 545.845 506.762 539.288C502.303 522.922 503.342 505.469 505.302 488.809C506.517 478.479 506.84 464.612 513.338 455.939C516.778 451.333 521.54 451.588 526.744 452.519C532.624 453.578 538.357 455.116 544.384 455.459C583.045 457.88 622.059 450.804 659.299 440.975C663.278 439.916 661.592 433.968 657.604 434.83L657.574 434.85Z" fill="var(--color-illustration-secondary, #7F72FF)"/>
<path d="M589.484 550.47C605.201 551.525 620.981 551.197 636.641 549.49C650.048 548.108 663.611 545.57 675.449 538.817C680.065 536.171 675.91 529.017 671.275 531.673C646.471 545.864 615.728 540.023 588.641 544.198C584.888 544.766 586.142 550.185 589.484 550.44V550.47Z" fill="var(--color-illustration-primary, #382C80)"/>
<path d="M657.575 434.849C634.182 439.612 610.819 444.512 587.015 446.531C575.372 447.55 563.679 447.854 551.999 447.442C542.748 447.089 534.232 444.845 525.128 443.738C509.742 441.876 502.009 453.753 498.893 467.258C497.576 473.536 496.637 479.888 496.08 486.28C494.973 496.423 493.846 506.507 493.993 516.738C494.258 535.074 497.207 568.874 521.1 570.971C526.392 571.432 526.362 563.131 521.1 562.7C510.957 561.808 507.38 549.911 505.302 541.65C502.967 531.7 501.978 521.482 502.362 511.27C502.686 497.305 503.852 482.085 507.262 468.444C508.566 463.24 510.486 457.066 515.102 453.744C520.492 449.882 528.381 452.969 534.173 454.234C552.617 458.252 573.108 456.243 591.699 454.165C614.553 451.565 637.164 447.154 659.319 440.974C663.298 439.867 661.612 434.026 657.624 434.83L657.575 434.849Z" fill="var(--color-illustration-primary, #382C80)"/>
<path d="M600.548 949.82C608.192 947.036 611.456 936.354 605.291 930.337C598.98 924.163 588.21 928.152 585.397 935.757L589.798 936.972C590.778 930.367 585.985 925.8 579.998 923.908C576.078 922.664 565.043 922.223 567.189 929.455C567.757 931.415 569.923 933.15 572.02 932.395C574.47 931.503 575.323 927.26 575.597 925.026C576.45 918.135 573.091 911.405 567.071 907.944L567.542 911.6C576.058 904.975 571.236 891.755 561.799 889.06C548.549 885.296 538.583 896.9 533.477 907.503C532.272 910.012 535.947 912.227 537.26 909.708C541.111 902.329 546.354 894.195 555.39 893.166C559.614 892.686 564.21 893.979 566.278 898.066C568.22 901.519 567.359 905.872 564.249 908.326C563.044 909.306 563.543 911.315 564.719 911.992C567.602 913.624 569.716 916.337 570.595 919.531C571.473 922.724 571.045 926.137 569.404 929.014L571.364 927.868C576.852 927.76 586.123 928.71 585.28 936.403C584.996 939.049 589.033 939.343 589.768 937.011C591.424 931.739 599.176 929.298 602.969 933.865C606.536 938.167 604.008 944.812 599.264 946.88C597.579 947.615 598.784 950.496 600.519 949.82H600.548Z" fill="var(--color-illustration-primary, #382C80)"/>
<path d="M894.519 832.974C897.253 828.692 899.977 824.429 902.584 820.068C903.672 818.255 900.928 816.687 899.772 818.421C896.959 822.645 894.264 826.947 891.579 831.249C890.413 833.121 893.343 834.817 894.519 832.974Z" fill="var(--color-illustration-secondary, #7F72FF)"/>
<path d="M487.191 848.38C492.113 850.684 497.943 849.743 501.891 846.009C503.469 844.529 501.107 842.196 499.529 843.647C496.535 846.427 492.174 847.159 488.436 845.509C486.809 844.823 485.594 847.665 487.221 848.38H487.191Z" fill="var(--color-illustration-secondary, #7F72FF)"/>
<path d="M562.524 646.549C566.444 658.721 575.931 668.668 588.475 671.872C593.257 673.097 595.129 666.081 590.503 664.522C580.84 661.259 572.795 654.389 569.218 644.707C567.699 640.581 561.123 642.247 562.524 646.549Z" fill="var(--color-illustration-primary, #382C80)"/>
<path d="M631.555 430.91C632.816 427.643 634.084 424.377 635.358 421.11C636.7 417.7 637.964 416.465 641.757 416.151C648.548 415.602 655.477 416.739 662.239 416.514C665.251 416.435 668.252 416.124 671.216 415.583C674.587 414.946 678.164 413.231 681.633 413.525C687.209 414.005 688.689 420.267 687.69 424.971C686.621 430.028 694.207 432.194 695.53 427.117C697.117 420.787 695.745 413.486 690.826 408.909C683.505 402.118 674.166 407.321 665.816 408.223C656.584 409.203 646.422 407.008 637.445 409.781C629.262 412.319 628.204 422.276 625.901 429.381C624.705 433.066 630.252 434.428 631.604 430.959L631.555 430.91Z" fill="var(--color-illustration-primary, #382C80)"/>
<path d="M670.579 431.665C674.285 431.996 678.019 431.735 681.643 430.891C683.936 430.352 682.966 426.765 680.663 427.353C677.372 428.211 673.961 428.522 670.569 428.274C668.384 428.108 668.413 431.479 670.569 431.665H670.579Z" fill="var(--color-illustration-base, #FFFFFF)"/>
<path d="M553.587 429.519C554.743 422.051 558.751 416.975 564.425 412.29C565.895 411.075 564.014 408.831 562.465 409.713C555.547 413.633 551.568 421.473 550.578 429.107C550.353 430.822 553.351 431.244 553.616 429.519H553.587Z" fill="var(--color-illustration-primary, #382C80)"/>
<path d="M522.589 521.08C521.609 531.713 523.853 541.66 530.252 550.372C531.791 552.469 535.319 550.47 533.78 548.314C528.165 540.474 524.853 530.85 525.45 521.08C525.558 519.227 522.746 519.267 522.589 521.08Z" fill="var(--color-illustration-primary, #382C80)"/>
<path d="M526.509 448.345C528.018 439.015 531.86 429.538 536.309 421.257C538.425 417.218 541.133 413.518 544.345 410.281C547.608 407.087 551.46 405.323 555.174 402.794C558.604 400.462 556.379 395.709 552.44 396.326C542.865 397.845 534.898 407.88 530.38 415.72C524.96 425.207 520.825 436.546 521.021 447.58C521.021 450.589 525.989 451.5 526.509 448.315V448.345Z" fill="var(--color-illustration-primary, #382C80)"/>
<path d="M546.06 470.002C544.039 482.669 543.71 495.548 545.08 508.301C546.119 518.101 546.824 531.262 554.282 538.612C555.674 539.974 558.359 538.103 557.085 536.446C550.529 527.911 549.549 514.975 548.647 504.616C547.734 493.229 547.983 481.779 549.392 470.443C549.608 468.601 546.452 468.15 546.119 470.002H546.06Z" fill="var(--color-illustration-base, #FFFFFF)"/>
<path d="M525.853 466.22C523.853 476.961 523.002 487.884 523.314 498.805C523.393 501 526.774 501.02 526.735 498.805C526.46 488.18 527.186 477.552 528.9 467.063C529.243 465.103 526.205 464.211 525.853 466.22Z" fill="var(--color-illustration-base, #FFFFFF)"/>
<path d="M568.845 466.965C562.812 490.744 566.662 515.953 579.517 536.848C580.899 539.083 584.417 537.025 583.045 534.79C570.571 514.833 566.555 490.731 571.883 467.807C572.354 465.847 569.335 464.995 568.845 466.965Z" fill="var(--color-illustration-base, #FFFFFF)"/>
<path d="M595.961 475.226C597.598 494.434 599.519 515.19 612.837 530.272C614.376 532.017 616.845 529.478 615.365 527.734C603.017 513.034 600.734 493.64 599.146 475.226C598.97 473.207 595.795 473.187 595.961 475.226Z" fill="var(--color-illustration-base, #FFFFFF)"/>
<path d="M622.588 468.572C626.891 489.201 631.918 511.525 648.999 525.559C650.959 527.186 653.831 524.373 651.832 522.727C635.172 509.007 630.095 487.868 625.695 467.71C625.244 465.691 622.167 466.553 622.588 468.572Z" fill="var(--color-illustration-base, #FFFFFF)"/>
<path d="M662.543 493.67C680.124 499.628 700.596 495.483 713.454 481.723C714 480.945 713.908 479.888 713.238 479.214C712.567 478.541 711.509 478.446 710.729 478.989C698.127 490.837 680.124 495.777 663.464 490.318C661.337 489.622 660.436 492.954 662.543 493.67Z" fill="var(--color-illustration-base, #FFFFFF)"/>
<path d="M666.6 468.297C676.851 470.081 687.944 468.983 696.852 463.27C697.689 462.78 697.969 461.705 697.48 460.869C696.99 460.033 695.915 459.752 695.079 460.242C685.965 464.27 677.037 466.475 667.021 465.191C665.267 464.965 664.846 467.994 666.6 468.297Z" fill="var(--color-illustration-base, #FFFFFF)"/>
<path d="M673.293 453.421C676.429 453.685 679.565 453.999 682.711 454.156C684.936 454.273 684.818 451.02 682.711 450.765C679.585 450.393 676.439 450.167 673.293 449.912C671.049 449.726 671.069 453.225 673.293 453.421Z" fill="var(--color-illustration-base, #FFFFFF)"/>
<path d="M683.897 534.624C697.931 537.182 712.464 532.497 721.196 520.963C722.372 519.405 719.794 517.445 718.491 518.885C709.906 528.332 697.568 533.742 684.74 531.557C682.78 531.223 681.878 534.261 683.897 534.624Z" fill="var(--color-illustration-base, #FFFFFF)"/>
<path d="M603.88 574.568C640.268 580.674 680.32 582.565 711.866 559.976C714.081 558.389 711.984 554.694 709.71 556.282C678.958 577.665 640.228 577.391 604.635 571.844C602.861 571.57 602.077 574.265 603.88 574.568Z" fill="var(--color-illustration-base, #FFFFFF)"/>
<path d="M609.339 599.784C639.052 606.644 672.99 612.798 699.842 594.011C701.968 592.522 699.989 589.013 697.774 590.483C671.5 607.947 639.16 602.9 610.123 596.932C608.271 596.55 607.477 599.352 609.339 599.784Z" fill="var(--color-illustration-base, #FFFFFF)"/>
<path d="M722.715 586.525C723.5 586.525 724.136 585.888 724.136 585.104C724.136 584.319 723.5 583.683 722.715 583.683C721.93 583.683 721.294 584.319 721.294 585.104C721.294 585.888 721.93 586.525 722.715 586.525Z" fill="var(--color-illustration-base, #FFFFFF)"/>
<path d="M644.138 459.585C644.364 465.328 645.765 470.965 648.254 476.147C649.234 478.175 652.174 476.401 651.253 474.392C649.083 469.738 647.819 464.712 647.529 459.585C647.412 457.419 644.04 457.389 644.138 459.585Z" fill="var(--color-illustration-base, #FFFFFF)"/>
<path d="M568.355 438.926C569.825 431.099 573.284 423.783 578.4 417.68C579.498 416.347 577.616 414.417 576.44 415.72C570.986 422.166 567.34 429.944 565.876 438.26C565.582 439.877 568.051 440.573 568.355 438.946V438.926Z" fill="var(--color-illustration-base, #FFFFFF)"/>
<path d="M592.052 441.289C593.515 435.283 596.142 429.623 599.784 424.629C601.097 422.796 598.03 420.983 596.736 422.855C593.055 428.18 590.448 434.172 589.063 440.495C588.631 442.455 591.571 443.269 592.003 441.318L592.052 441.289Z" fill="var(--color-illustration-base, #FFFFFF)"/>
<path d="M613.376 436.712C613.714 431.402 615.103 426.212 617.463 421.444C618.443 419.425 615.414 417.651 614.434 419.68C611.859 425.01 610.373 430.8 610.064 436.712C609.946 438.839 613.239 438.819 613.376 436.712Z" fill="var(--color-illustration-base, #FFFFFF)"/>
<path d="M724.42 588.66C729.437 587.721 733.704 584.445 735.906 579.84C736.809 578.19 736.267 576.122 734.671 575.127C733.191 574.264 730.751 574.666 729.957 576.361C728.658 579.441 725.974 581.721 722.725 582.506C718.697 583.486 720.441 589.366 724.42 588.641V588.66Z" fill="var(--color-illustration-primary, #382C80)"/>
<path d="M340.985 54.2561C376.873 73.4739 400.354 109.861 405.91 149.904C409.009 173.388 407.044 197.264 400.148 219.925C397.031 230.352 392.984 240.456 386.781 249.452C380.695 258.272 372.678 265.73 364.299 272.326C344.543 287.868 321.434 301.255 295.621 301.04C290.035 301.04 290.113 309.36 295.621 309.664C319.778 311.006 342.661 299.207 361.791 285.497C380.92 271.787 396.473 255.734 404.989 233.508C421.865 189.467 419.797 136.4 394.768 95.8571C382.518 76.0023 365.093 59.2443 343.955 49.1993C340.583 47.5921 337.614 52.4627 341.015 54.2757L340.985 54.2561Z" fill="var(--color-illustration-primary, #382C80)"/>
<path d="M255.196 308.136C257.64 308.105 260.074 308.459 262.409 309.184C267.23 310.654 269.367 302.716 264.477 301.677C261.433 300.996 258.302 300.791 255.196 301.07C253.265 301.116 251.71 302.667 251.658 304.598C251.674 306.545 253.249 308.12 255.196 308.136Z" fill="var(--color-illustration-primary, #382C80)"/>
<path d="M250.1 364.76C285.311 365.603 320.337 372.551 355.548 367.308C361.124 366.475 358.743 358.037 353.216 358.841C319.014 363.81 284.449 357.861 250.1 359.204C246.533 359.331 246.503 364.672 250.1 364.76Z" fill="var(--color-illustration-primary, #382C80)"/>
<path d="M169.064 272.826C177.105 282.094 187.409 289.12 198.974 293.22C203.148 294.69 204.854 288.183 200.787 286.644C190.383 282.766 180.999 276.569 173.347 268.524C170.632 265.662 166.487 269.906 169.054 272.816L169.064 272.826Z" fill="var(--color-illustration-primary, #382C80)"/>
<path d="M199.875 750.428C239.379 756.465 279.589 761.502 319.631 758.896C354.363 756.632 391.113 748.419 420.228 728.516C424.148 725.791 420.689 719.529 416.416 721.989C385.693 739.629 352.373 748.821 317.083 751.222C278.119 753.888 239.34 748.694 200.659 744.646C197.376 744.303 196.573 749.948 199.875 750.448V750.428Z" fill="var(--color-illustration-primary, #382C80)"/>
<path d="M233.538 823.4C259.371 825.703 285.312 827.937 311.272 827.075C336.164 826.242 362.761 823.507 385.948 813.854C389.995 812.169 388.555 805.73 384.076 807.063C372.042 810.64 360.125 814.099 347.708 816.197C335.064 818.258 322.295 819.466 309.488 819.813C284.165 820.656 258.842 819.342 233.558 817.941C230.02 817.745 230.108 823.096 233.558 823.4H233.538Z" fill="var(--color-illustration-primary, #382C80)"/>
<path d="M152.1 804.78C157 806.27 161.9 807.789 166.849 809.229C171.004 810.454 172.827 803.849 168.643 802.751C163.674 801.458 158.686 800.213 153.707 798.959C149.925 797.979 148.376 803.653 152.1 804.78Z" fill="var(--color-illustration-primary, #382C80)"/>
<path d="M174.562 106.559C182.741 94.7348 194.028 85.3986 207.176 79.58C210.518 78.11 214.085 76.8556 217.721 77.081C221.357 77.3064 225.1 79.3546 226.364 82.7748C227.697 86.391 225.963 90.5364 223.228 93.2608C220.494 95.9852 216.927 97.6316 213.556 99.5034C199.582 107.347 188.527 119.509 182.049 134.166C180.775 137.106 178.188 140.732 175.336 139.34C174.257 138.662 173.457 137.619 173.082 136.4C169.562 127.948 169.633 118.428 173.278 110.029" fill="var(--color-illustration-base, #FFFFFF)"/>
<path d="M176.904 107.921C184.807 97.5848 195.174 89.394 207.059 84.097C210.626 82.5192 225.502 78.07 221.906 87.4192C219.808 92.9072 210.528 95.6414 205.971 98.6892C196.289 105.093 188.217 113.645 182.382 123.679C180.863 126.374 179.599 129.157 178.266 131.941C177.747 133.15 177.068 134.284 176.247 135.312C177.355 135.743 177.561 135.508 176.865 134.587C176.464 133.795 176.136 132.968 175.885 132.117C173.611 125.032 174.503 117.936 176.865 111.047C178.256 107.029 171.779 104.187 169.926 108.107C166.875 114.567 165.788 121.781 166.8 128.854C167.496 133.901 169.152 142.574 175.287 143.71C181.422 144.847 184.607 138.859 186.831 134.312C189.98 128.008 194.023 122.192 198.836 117.045C203.615 111.865 209.149 107.437 215.251 103.913C221.131 100.551 227.462 97.572 230.108 90.908C232.382 85.2044 230.833 78.9618 225.669 75.4534C220.161 71.7294 213.389 72.6212 207.539 75.0026C192.839 80.961 180.873 92.084 172.259 105.187C170.299 108.127 174.895 110.645 176.943 107.921H176.904Z" fill="var(--color-illustration-base, #FFFFFF)"/>
<path d="M145.289 302.265C142.859 304.96 140.34 307.831 139.634 311.388C138.929 314.946 140.859 319.287 144.436 319.846C148.013 320.404 151.189 316.778 151.169 313.192C151.149 309.605 148.729 306.42 145.818 304.323" fill="var(--color-illustration-base, #FFFFFF)"/>
<path d="M142.966 299.943C139.301 303.784 135.499 308.263 135.832 313.918C136.106 318.573 139.154 322.914 143.917 323.718C149.229 324.59 153.933 320.248 155.011 315.27C156.196 309.831 152.727 303.353 147.808 300.942C146.096 299.815 143.805 300.197 142.551 301.818C141.297 303.44 141.504 305.753 143.025 307.126C144.476 308.802 146.72 310.321 147.004 312.712C147.171 314.163 146.122 316.73 144.368 315.652C140.34 313.202 146.024 306.479 147.602 304.588C150.267 301.403 145.926 296.856 142.966 299.953V299.943Z" fill="var(--color-illustration-base, #FFFFFF)"/>
<path d="M175.15 675.704C170.436 683.897 158.059 683.25 150.395 669.618C140.997 652.88 140.34 632.3 144.819 613.68C145.897 609.201 147.367 604.605 150.562 601.263C153.756 597.921 159.097 596.255 163.115 598.529C167.418 600.969 168.535 606.663 168.437 611.612C168.29 619.873 166.085 628.154 167.339 636.328C168.554 644.217 172.896 651.243 175.424 658.868C177.874 666.071 177.355 671.853 175.15 675.704Z" fill="var(--color-illustration-base, #FFFFFF)"/>
<path d="M172.131 673.94C169.328 678.223 164.399 677.988 160.45 675.381C154.305 671.333 151.13 663.288 149.062 656.555C144.672 642.276 145.064 625.959 149.434 611.691C150.532 608.104 152.227 603.802 155.932 602.185C159.852 600.47 162.792 602.547 163.772 606.497C165.644 613.719 163.017 621.932 162.792 629.252C162.547 637.151 164.86 644.158 167.937 651.332C170.818 658.064 175.061 666.237 171.269 673.45C168.593 678.536 176.384 683.064 178.962 677.948C187.115 661.827 171.23 646.98 171.122 631.016C171.024 620.03 178.168 594.541 159.911 593.433C142.917 592.404 139.683 615.17 138.556 627.488C137.126 643.168 139.536 661.004 148.719 674.205C155.579 684.005 170.612 689.963 178.168 677.458C180.52 673.587 174.581 670.206 172.131 673.94Z" fill="var(--color-illustration-base, #FFFFFF)"/>
<path d="M160.381 567.669C160.636 567.934 160.038 567.914 160.381 567.463C160.499 567.306 160.558 567.179 160.695 567.012C161.41 566.357 162.28 565.895 163.223 565.67C163.508 565.562 163.802 565.464 164.086 565.376C165.066 565.209 164.87 564.984 163.557 564.69C163.617 564.977 163.702 565.259 163.811 565.533C164.032 566.288 164.032 567.09 163.811 567.845C163.811 567.845 163.547 568.277 163.527 568.326C163.655 568.051 163.116 568.492 163.478 568.384C162.498 568.659 163.802 568.541 162.802 568.453C163.39 568.512 162.586 568.002 162.939 568.453C163.076 568.61 163.429 569.433 163.488 569.511C163.547 569.59 163.145 569.649 163.537 569.021C164.202 567.836 164.935 566.691 165.732 565.591C167.036 563.916 167.496 561.789 166.065 559.996C164.85 558.477 162.302 557.614 160.558 558.898C157.726 560.976 155.129 563.533 154.364 567.12C153.511 570.756 155.093 574.529 158.284 576.469C164.252 579.948 171.406 575.421 172.259 569.002C172.666 565.96 171.971 562.873 170.299 560.299C167.967 556.889 164.419 556.879 160.94 558.339C157.931 559.594 155.06 561.348 153.904 564.553C152.791 567.302 153.493 570.454 155.668 572.471C158.951 575.225 163.508 570.854 160.44 567.698L160.381 567.669Z" fill="var(--color-illustration-base, #FFFFFF)"/>
<path d="M58.7844 874.703C58.4904 859.464 66.8792 845.587 74.9936 832.681C79.384 825.693 84.4604 818.177 92.4082 815.942C94.0173 815.384 95.7677 815.384 97.3768 815.942C99.0137 816.561 99.9945 818.241 99.7288 819.97C99.3147 821.09 98.5696 822.057 97.5924 822.744C82.8262 835.674 72.1667 852.642 66.9282 871.557C66.497 873.145 66.007 874.889 64.6546 875.83C63.3022 876.771 60.8718 876.114 60.8718 874.468" fill="var(--color-illustration-base, #FFFFFF)"/>
<path d="M61.8715 874.703C62.8515 862.394 68.2709 851.722 74.6115 841.383C77.2911 836.774 80.2361 832.323 83.4315 828.055C85.1136 825.789 87.1445 823.805 89.4487 822.175C90.3209 821.607 91.2617 821.195 92.1731 820.715C92.7807 820.46 96.6811 817.52 94.2801 819.48C86.3029 825.909 79.4919 834.523 74.1999 843.235C71.4112 847.863 68.9834 852.699 66.9381 857.7C65.9581 860.131 64.9781 862.6 64.1843 865.099C63.7727 866.344 63.3905 867.608 63.0279 868.872L62.6065 870.401C61.7245 872.047 62.5575 873.027 65.1055 873.341C63.4199 867.961 55.0311 870.215 56.6383 875.673C58.5983 882.386 66.9675 881.847 69.9859 876.222C71.5245 873.361 72.0831 869.833 73.1709 866.765C74.6271 862.645 76.3726 858.634 78.3943 854.76C82.0954 847.626 86.6463 840.966 91.9477 834.925C94.7505 831.74 97.8963 828.976 100.875 825.987C103.071 823.792 104.795 821.372 104.237 818.147C102.914 809.915 93.2511 810.239 87.4495 813.081C81.0403 816.217 76.5323 822.136 72.7495 828.006C63.9295 841.834 54.4333 857.69 55.6779 874.723C55.7701 876.358 57.1226 877.636 58.76 877.636C60.3973 877.636 61.7499 876.358 61.8421 874.723L61.8715 874.703Z" fill="var(--color-illustration-base, #FFFFFF)"/>
</svg>
