<svg width="1000" height="1000" viewBox="0 0 1000 1000" fill="none" xmlns="http://www.w3.org/2000/svg">
<path d="M766.56 514.906C774.669 633.058 772.906 751.68 761.288 869.539L801.928 868.755C811.526 759.793 814.145 650.329 809.768 541.033" fill="var(--color-illustration-base, #FFFFFF)"/>
<path d="M763.748 514.906C766.557 560.946 767.978 607.052 768.011 653.223C768.043 699.394 766.56 745.509 763.562 791.569C761.876 817.598 759.704 843.588 757.045 869.538C756.809 871.792 759.181 873.811 761.288 873.782C774.832 873.579 788.378 873.409 801.929 873.272C804.395 873.205 806.38 871.221 806.446 868.754C810.494 826.301 812.865 783.641 814.443 741.031C816.021 698.42 816.54 655.771 815.992 613.072C815.688 589.052 814.884 565.052 813.787 541.032C813.551 535.956 805.682 535.917 805.858 541.032C807.289 583.662 807.786 626.315 807.348 668.991C806.91 711.667 805.372 754.297 802.732 796.881C801.272 820.862 799.341 844.803 797.401 868.754L801.929 864.236C788.375 864.589 774.832 864.971 761.288 865.285L765.531 869.538C769.863 823.609 772.744 777.572 774.175 731.427C775.606 685.282 775.465 639.147 773.754 593.021C772.813 566.953 771.356 540.915 769.383 514.906C769.108 511.319 763.503 511.26 763.748 514.906Z" fill="var(--color-illustration-primary, #382C80)"/>
<path d="M390.436 366.142C393.305 363.42 397.803 363.42 400.673 366.141C403.543 368.862 403.781 373.353 401.216 376.363C404.22 375.257 407.596 376.056 409.785 378.392C411.974 380.729 412.551 384.149 411.251 387.075C409.566 390.858 405.303 392.72 401.314 393.847C397.448 394.948 393.488 395.686 389.485 396.052C388.043 396.257 386.576 396.2 385.154 395.885C381.283 394.817 379.176 390.505 378.813 386.506C378.451 382.508 379.313 378.48 379.019 374.472" fill="var(--color-illustration-primary, #382C80)"/>
<path d="M392.298 368.004C395.669 365.162 401.471 369.68 398.09 373.218C395.091 376.344 398.09 381.949 402.412 380.646C405.695 379.666 408.988 382.851 406.547 385.948C404.107 389.045 398.257 389.789 394.787 390.456C391.318 391.122 385.967 392.857 384.213 388.653C383.302 386.457 383.498 384.007 383.596 381.695C383.774 378.892 383.672 376.079 383.292 373.296C382.528 368.161 374.923 369.788 374.648 374.472C374.188 382.312 372.424 391.544 378.872 397.678C381.989 400.618 385.977 401.255 390.113 400.834C394.645 400.427 399.125 399.557 403.48 398.237C410.595 395.993 417.327 390.769 416.357 382.557C415.923 378.826 413.839 375.485 410.679 373.455C407.519 371.424 403.615 370.916 400.04 372.071L405.058 378.608C407.998 373.708 407.439 367.063 402.823 363.359C398.413 359.821 392.622 360.762 388.574 364.28C386.007 366.514 389.721 370.16 392.288 368.004H392.298Z" fill="var(--color-illustration-primary, #382C80)"/>
<path d="M582.839 458.84C563.732 472.621 543.488 484.751 522.324 495.1L553.9 558.8C573.219 547.654 592.107 535.799 610.563 523.236" fill="var(--color-illustration-secondary, #7F72FF)"/>
<path d="M581.34 456.204C561.952 469.591 541.571 481.48 520.374 491.768C518.473 492.699 517.993 495.394 518.973 497.109C524.853 507.33 529.596 518.336 534.8 528.91C540.004 539.484 545.207 550.196 550.392 560.848C551.372 562.867 554.214 563.357 556.036 562.328C565.738 556.82 575.313 551.101 584.76 545.168C594.207 539.288 603.753 533.408 612.631 526.636C616.551 523.628 613.121 517.032 608.613 519.776C599.078 525.539 589.915 531.919 580.478 537.848C571.04 543.777 561.485 549.549 551.871 555.203L557.526 556.683C552.175 546.125 546.837 535.564 541.513 525C536.221 514.465 530.321 504.038 525.715 493.179L524.314 498.52C545.427 488.013 565.532 475.594 584.378 461.417C587.416 459.144 584.574 453.979 581.34 456.214V456.204Z" fill="var(--color-illustration-primary, #382C80)"/>
<path d="M659.24 345.337L659.044 297.787C659.044 295.102 659.162 292.074 661.141 290.251C662.768 288.761 665.159 288.555 667.364 288.428C714.613 285.704 761.905 283.956 809.239 283.185C850.468 282.509 895.94 272.483 923.899 309.645C953.025 348.394 958.042 399.687 960.159 448.119C961.345 475.285 963.442 512.652 947.693 536.682C940.559 547.56 926.133 546.09 914.373 546.903C895.499 548.21 876.607 549.19 857.7 549.843C783.623 552.353 709.46 549.852 635.72 542.356" fill="var(--color-illustration-base, #FFFFFF)"/>
<path d="M662.376 345.336C662.504 329.206 662.141 312.996 662.621 296.885C662.621 295.631 662.621 293.7 663.709 292.808C664.797 291.917 667.237 292.064 668.609 291.995L681.045 291.407C688.924 291.054 696.8 290.728 704.673 290.427C737.033 289.192 769.395 288.284 801.762 287.703C814.217 287.477 826.614 286.85 839.051 286.291C850.438 285.782 861.904 285.527 873.243 286.86C883.817 288.104 894.323 291.113 903.427 296.738C913.903 303.196 921.38 312.898 927.652 323.316C941.372 346.052 948.017 372.208 951.594 398.305C954.913 423.668 956.517 449.226 956.396 474.804C956.396 487.162 955.769 499.647 952.946 511.721C951.686 517.432 949.772 522.98 947.243 528.253C944.842 533.065 942.215 537.583 937.021 539.69C932.239 541.65 926.888 541.807 921.802 542.003C914.785 542.277 907.778 542.777 900.761 543.198C884.735 544.159 868.702 544.881 852.663 545.364C820.388 546.344 788.107 546.367 755.819 545.433C723.528 544.453 691.355 542.209 659.142 539.886C651.302 539.318 643.462 538.857 635.622 538.289C630.32 537.897 630.595 545.737 635.622 546.383C669.324 550.764 703.242 552.891 737.18 554.223C770.892 555.53 804.62 555.795 838.365 555.017C855.057 554.638 871.74 554.005 888.413 553.116C897.037 552.655 905.651 552.077 914.275 551.528C920.008 551.166 925.761 551.195 931.465 550.401C937.168 549.608 942.529 547.922 946.958 544.267C951.711 540.347 954.602 534.369 956.954 528.812C962.011 516.925 964.089 504.028 964.971 491.2C965.833 478.567 965.431 465.896 964.883 453.264C964.275 439.544 963.589 425.755 962.227 412.104C959.453 384.213 954.142 356.244 941.872 330.764C936.129 318.867 928.838 306.852 919.175 297.708C910.603 289.708 900.193 283.939 888.864 280.911C865.569 274.492 840.903 277.648 817.148 278.589C801.468 279.216 785.699 279.255 769.99 279.765C753.186 280.313 736.383 280.983 719.579 281.774C702.592 282.603 685.605 283.583 668.619 284.714C665.375 284.929 662.004 285.076 659.328 287.134C656.653 289.192 655.771 292.269 655.526 295.503C654.918 303.667 655.634 312.163 655.732 320.317C655.843 328.66 655.967 337 656.104 345.336C656.173 349.384 662.357 349.394 662.386 345.336H662.376Z" fill="var(--color-illustration-primary, #382C80)"/>
<path d="M724.312 433.811C745.331 428.913 767.099 428.134 788.414 431.518C792.04 432.096 795.911 432.939 798.351 435.683C800.478 438.064 801.066 441.406 801.546 444.562C804.316 462.855 806.276 481.243 807.426 499.726C807.74 504.832 807.622 510.81 803.565 513.926C800.811 516.043 797.068 516.141 793.608 516.151L714.865 516.337" fill="var(--color-illustration-secondary, #7F72FF)"/>
<path d="M725.008 436.3C740.368 433.016 756.122 431.96 771.783 433.164C775.605 433.452 779.411 433.857 783.2 434.38C786.542 434.84 790.57 435.095 793.618 436.683C796.352 438.104 797.067 440.779 797.538 443.621C798.243 447.541 798.674 451.549 799.164 455.508C801.124 470.924 803.182 486.741 803.31 502.294C803.31 504.597 803.31 507.282 802.046 509.301C800.37 511.976 796.812 511.839 794.029 511.858C785.964 511.907 777.879 511.858 769.813 511.858H742.315C733.181 511.858 723.93 511.457 714.816 512.084C712.538 512.193 710.748 514.071 710.748 516.352C710.748 518.632 712.538 520.51 714.816 520.62C723.93 521.198 733.181 520.767 742.315 520.708L769.813 520.551C778.633 520.492 787.62 520.914 796.43 520.326C803.721 519.845 809.592 516.19 811.13 508.693C812.669 501.196 811.13 492.601 810.405 484.977C809.614 476.02 808.599 467.089 807.357 458.184C806.737 453.709 806.083 449.24 805.397 444.777C804.829 441.23 804.241 437.574 802.163 434.546C797.881 428.264 789.325 427.853 782.495 427.059C762.895 424.766 742.736 426.628 723.606 431.283C720.304 432.086 721.705 437.065 724.998 436.349L725.008 436.3Z" fill="var(--color-illustration-primary, #382C80)"/>
<path d="M662.416 308.685L674.715 258.176C675.126 256.5 675.587 254.736 676.841 253.56C679.526 251.071 683.838 252.688 687.053 254.442C703.334 263.308 719.164 272.967 734.544 283.42C739.787 286.968 745.235 290.927 747.607 296.797C750.547 304 748.097 312.144 745.647 319.524L719.736 397.62" fill="var(--color-illustration-secondary, #7F72FF)"/>
<path d="M664.944 309.38C669.03 293.612 673.058 277.824 677.233 262.076C677.948 259.41 678.056 255.216 681.682 256.147C685.083 257.019 688.326 259.44 691.335 261.184C698.175 265.104 704.937 269.171 711.621 273.385C718.154 277.468 724.599 281.676 730.956 286.007C735.856 289.349 741.825 293.014 743.912 298.934C746.391 305.999 742.932 314.055 740.717 320.729C738.15 328.412 735.592 336.102 733.044 343.798C727.223 361.34 721.156 378.823 715.649 396.473C714.002 401.726 722.029 403.823 723.822 398.727C729.888 381.479 735.415 364.035 741.168 346.679C744.039 338.006 746.95 329.333 749.782 320.65C752.262 313.036 754.682 304.608 752.075 296.689C749.772 289.673 744.088 284.929 738.228 280.862C731.221 276.011 723.979 271.474 716.668 267.025C709.357 262.576 701.733 258.205 694.128 254.02C688.542 250.972 680.153 245.426 674.322 251.08C671.225 254.069 670.912 259.42 670.04 263.34C668.962 268.171 667.844 273.003 666.747 277.834L659.887 308.018C659.142 311.291 664.081 312.683 664.934 309.41L664.944 309.38Z" fill="var(--color-illustration-primary, #382C80)"/>
<path d="M697.784 373.825C720.498 356.776 744.189 341.07 768.736 326.785C771.548 325.148 774.616 323.482 777.83 323.727C782.916 324.109 786.366 328.911 789.002 333.282C802.16 355.105 813.513 377.966 822.949 401.637C824.272 404.94 825.576 408.497 824.997 411.976C824.213 416.7 820.274 420.169 816.54 423.178C790.727 443.992 763.266 462.673 734.426 479.038" fill="var(--color-illustration-secondary, #7F72FF)"/>
<path d="M699.215 376.265C715.306 364.329 732.299 353.343 749.332 342.808C753.696 340.116 758.083 337.467 762.493 334.86C766.413 332.518 770.725 329.235 775.174 327.951C779.418 326.726 782.221 330.136 784.328 333.361C786.876 337.281 789.12 341.426 791.403 345.493C801.219 362.93 809.898 380.983 817.383 399.54C818.892 403.303 821.842 408.478 820.196 412.613C818.716 416.347 814.561 419.032 811.552 421.433C803.869 427.548 796.029 433.471 788.032 439.201C770 452.146 751.194 463.779 732.084 475.059C726.968 478.077 731.525 485.839 736.739 483.016C755.61 472.522 773.814 460.871 791.246 448.128C799.851 441.935 808.292 435.526 816.57 428.901C824.351 422.678 831.779 415.965 828.829 405.028C827.467 399.942 824.998 395.012 822.949 390.191C820.793 385.154 818.543 380.156 816.197 375.197C811.513 365.279 806.485 355.531 801.115 345.954C798.502 341.348 795.829 336.774 793.099 332.234C790.815 328.48 788.336 324.668 784.651 322.14C775.517 315.868 765.443 324.188 757.701 328.931C736.396 341.945 716.267 356.302 696.373 371.345C693.511 373.511 696.294 378.421 699.234 376.245L699.215 376.265Z" fill="var(--color-illustration-primary, #382C80)"/>
<path d="M594.55 536.818C582.202 461.78 582.506 379.656 623.95 315.897C633.398 301.373 647.265 286.928 664.591 287.281C674.391 287.467 683.466 292.514 690.914 298.845C717.315 321.277 725.714 357.88 732.436 391.866C742.129 440.866 751.517 490.17 753.016 540.091C753.105 543.237 753.016 546.755 750.782 548.96C748.998 550.724 746.323 551.136 743.844 551.44C694.041 557.508 643.554 554.624 594.766 542.924" fill="var(--color-illustration-base, #FFFFFF)"/>
<path d="M597.383 536.045C590.738 492.15 587.945 446.698 595.423 402.765C599.088 381.205 605.282 359.948 614.778 340.201C619.347 330.439 624.823 321.127 631.134 312.389C637.014 304.49 644.56 296.65 653.939 293.112C674.93 285.194 694.275 304.441 704.595 320.67C715.59 337.938 721.078 358.086 725.371 377.912C730.663 402.333 735.171 426.98 739.287 451.637C743.599 477.686 746.96 503.93 748.224 530.321C748.371 533.389 748.489 536.446 748.577 539.514C748.626 541.591 749.136 544.992 747.048 546.246C745.088 547.422 741.825 547.226 739.669 547.501C736.288 547.873 732.897 548.197 729.506 548.481C716.74 549.539 703.938 550.039 691.1 549.98C665.491 549.784 639.954 547.245 614.807 542.395C608.516 541.186 602.253 539.837 596.021 538.348C590.033 536.927 587.485 546.188 593.482 547.579C620 553.924 647.07 557.682 674.313 558.8C687.915 559.356 701.521 559.264 715.13 558.526C722.127 558.147 729.108 557.588 736.072 556.85C741.668 556.252 749.155 556.517 753.565 552.46C758.191 548.197 757.485 541.542 757.27 535.8C756.989 528.855 756.564 521.913 755.996 514.975C754.869 501.137 753.232 487.348 751.272 473.599C747.352 446.032 742.001 418.719 736.572 391.367C732.26 369.807 727.488 348.012 717.776 328.138C713.191 318.532 707.159 309.688 699.891 301.913C692.051 293.73 682.163 286.233 670.824 284.057C647.637 279.628 630.105 298.757 618.962 316.544C606.805 336.226 597.841 357.709 592.404 380.195C581.036 425.873 582.134 473.942 588.935 520.227C589.788 526.039 590.738 531.821 591.748 537.603C592.414 541.346 597.971 539.72 597.412 536.045H597.383Z" fill="var(--color-illustration-primary, #382C80)"/>
<path d="M621.001 341.897C621.419 339.412 620.336 336.915 618.237 335.522C616.138 334.129 613.416 334.102 611.29 335.452C609.163 336.802 608.03 339.277 608.398 341.769C607.496 338.065 604.341 334.743 600.558 334.605C596.775 334.468 593.09 338.476 594.345 342.073C592.933 339.633 591.258 336.967 588.533 336.193C585.809 335.419 582.34 338.31 583.702 340.779C583.584 338.114 579.537 337.31 577.508 339.045C575.48 340.779 575.039 343.69 574.745 346.346C573.402 358.341 568.571 365.485 560.309 374.433C531.438 405.734 488.612 419.513 447.296 429.842C420.277 436.594 392.866 442.464 366.887 452.725C353.47 458.017 304.578 476.666 331.607 497.403C338.202 502.47 346.993 503.41 355.293 503.773C385.742 505.106 416.19 501.088 446.188 495.708C467.474 491.895 488.74 487.358 508.908 479.655C535.28 469.62 597.02 446.982 620.775 431.782" fill="var(--color-illustration-base, #FFFFFF)"/>
<path d="M623.98 341.897C624.215 339.255 623.369 336.63 621.634 334.622C619.9 332.615 617.426 331.396 614.777 331.244C609.201 331.127 604.605 336.331 604.977 341.77L611.759 340.848C610.191 335.39 605.36 330.46 599.274 331.176C596.527 331.508 594.049 332.986 592.451 335.245C590.853 337.504 590.284 340.333 590.885 343.034L597.451 340.27C595.217 336.35 592.002 332.175 587.004 332.479C582.486 332.763 578.439 337.271 580.144 341.809C580.773 343.686 582.757 344.746 584.667 344.226C586.576 343.705 587.748 341.785 587.337 339.849C586.534 334.998 580.477 333.224 576.489 335.311C571.265 338.036 571.491 344.337 570.501 349.325C568.355 360.203 561.181 368.484 553.488 376.07C536.828 392.514 516.023 403.069 494.531 411.791C471.795 421.022 447.883 426.285 424.099 432.047C401.804 437.447 379.734 443.494 358.507 452.304C351.666 455.044 345.03 458.273 338.653 461.967C332.675 465.544 326.51 469.875 322.737 475.863C319.182 481.211 319.202 488.175 322.786 493.503C328.774 502.441 339.015 506.008 349.246 507.066C362.692 508.448 376.51 507.86 389.956 506.909C404.077 505.929 418.14 504.077 432.096 501.843C458.781 497.57 485.555 492.454 510.897 482.831C527.636 476.471 544.413 470.199 561.024 463.515C578.821 456.351 596.755 449.05 613.69 439.995C616.708 438.368 619.687 436.673 622.578 434.83C626.41 432.4 622.862 426.275 619.001 428.725C605.213 437.545 589.738 443.856 574.695 450.128C557.545 457.272 540.19 463.946 522.814 470.532C514.974 473.521 507.066 476.667 499.049 479.352C486.709 483.367 474.139 486.639 461.407 489.152C435.075 494.542 408.301 498.854 381.43 500.098C374.733 500.399 368.036 500.49 361.34 500.373C355.46 500.245 349.482 500.187 343.749 498.893C337.418 497.472 327.912 492.758 327.236 485.428C326.765 480.371 331.665 475.824 335.419 472.854C340.867 468.552 347.179 465.289 353.441 462.349C392.445 444.042 435.761 437.388 476.774 425.236C497.932 418.974 518.463 411.261 536.985 399.06C546.089 393.13 554.481 386.172 561.995 378.324C568.972 370.944 575.225 362.849 577.528 352.755C578.096 350.256 578.263 347.708 578.723 345.2C578.841 344.126 579.21 343.095 579.801 342.191C580.164 341.691 580.164 342.191 580.095 341.848L587.288 339.888C587.445 340.29 586.7 339.604 587.465 339.888C587.944 340.014 588.389 340.245 588.768 340.564C589.783 341.549 590.618 342.703 591.238 343.975C593.325 347.463 598.833 345.18 597.804 341.211C597.324 339.369 599.284 338.085 600.93 338.271C603.145 338.536 604.517 340.858 605.095 342.769C606.163 346.356 612.18 345.876 611.877 341.848C611.494 336.664 618.384 336.791 618.041 341.975C617.786 345.895 623.588 345.709 623.999 341.975L623.98 341.897Z" fill="var(--color-illustration-primary, #382C80)"/>
<path d="M351.599 610.133C340.652 645.236 315.936 674.332 289.437 699.832C262.98 725.469 233.829 748.17 202.492 767.54C172.621 785.856 140.164 799.126 108.735 814.022C93.153 821.44 89.2722 832.397 89.38 848.567C89.54 852.456 88.9716 856.342 87.7042 860.023C86.3989 863.728 83.6381 866.74 80.0602 868.363C67.6044 873.361 63.4688 860.376 60.5092 851.703C55.7589 837.859 51.9028 823.724 48.9648 809.386C46.3384 796.489 38.5572 772.813 44.8292 760.269C49.7292 750.469 66.9282 747.088 76.052 743.177C115.507 726.272 154.589 701.086 185.93 671.471C211.909 646.912 233.675 618.286 258.116 592.199C281.161 567.581 306.545 545.262 333.91 525.559" fill="var(--color-illustration-base, #FFFFFF)"/>
<path d="M348.865 609.378C339.976 637.142 322.453 660.975 302.667 682.016C281.638 704.24 258.616 724.49 233.891 742.511C207.99 761.464 180.354 777.056 151.297 790.61C136.9 797.332 122.357 803.732 107.971 810.464C97.6513 815.296 89.7231 822.822 86.9987 834.171C85.5973 839.992 85.7933 845.823 85.4307 851.752C85.0681 857.681 82.4319 865.06 75.3563 865.472C71.2109 865.727 68.8981 861.777 67.3301 858.514C64.7527 853.183 63.1553 847.214 61.4501 841.579C57.1675 827.683 54.3157 813.512 50.9641 799.39C48.3867 788.532 44.3981 775.429 47.7399 764.355C50.6799 754.555 64.3999 751.851 72.7691 748.891C85.9207 744.246 98.5921 737.582 110.803 730.888C137.87 716.161 163.048 698.2 185.783 677.4C208.96 656.085 228.658 631.448 249.483 607.977C270.382 584.404 293.206 562.612 317.72 542.826C323.646 538.051 329.673 533.399 335.801 528.871C339.721 526 336.007 519.424 331.95 522.276C305.332 541.006 280.619 562.306 258.166 585.868C235.626 609.515 215.614 635.427 192.741 658.76C170.225 681.594 144.801 701.364 117.124 717.56C103.669 725.538 89.7257 732.66 75.3759 738.885C65.3309 743.236 53.5219 745.138 45.2801 752.889C36.2053 761.386 37.8125 775.665 39.7333 786.719C40.7819 792.805 42.3009 798.793 43.7415 804.8C45.4859 812.072 46.9167 819.412 48.7787 826.654C50.8432 834.697 53.2018 842.657 55.8543 850.537C57.5007 855.437 59.0589 860.572 61.7343 865.001C64.4097 869.431 68.5943 873.057 74.0039 873.4C80.2171 873.782 86.0677 870.293 89.3801 865.178C96.3381 854.398 90.6443 840.492 96.7007 829.261C99.2781 824.478 103.375 821.029 108.069 818.432C115.282 814.443 123.033 811.248 130.521 807.809C160.43 794.04 190.114 780.133 217.623 761.886C244.51 743.945 269.682 723.56 292.818 700.989C313.957 680.409 333.861 657.692 346.542 630.85C349.618 624.387 352.237 617.716 354.382 610.887C355.47 607.389 350.031 605.919 348.914 609.378H348.865Z" fill="var(--color-illustration-primary, #382C80)"/>
<path d="M333.91 525.578C315.593 538.759 299.825 555.439 281.666 568.541C267.622 578.675 254.226 585.388 241.917 598.667C221.229 621.06 204.863 647.52 181.353 667.267C159.528 685.593 128.129 694.432 99.8561 693.158C94.9561 692.933 88.9977 693.011 86.5771 697.264C85.5383 699.097 85.4697 701.302 85.4697 703.409C85.4697 735.69 94.8189 777.389 117.506 801.527C124.013 808.455 125.346 806.368 133.892 802.428C141.859 798.773 149.846 795.127 157.764 791.354C173.082 784.208 188.011 776.259 202.492 767.54C233.831 748.158 262.982 725.444 289.437 699.793C315.897 674.313 340.652 645.197 351.599 610.093" fill="var(--color-illustration-base, #FFFFFF)"/>
<path d="M332.479 523.128C310.919 538.593 292.534 557.859 270.327 572.501C259.782 579.449 249.189 586.358 240.427 595.55C231.666 604.743 223.963 614.66 216.104 624.46C200.688 643.717 184.675 663.964 162.527 675.763C151.822 681.401 140.318 685.366 128.413 687.523C122.688 688.587 116.895 689.242 111.077 689.483C105.658 689.699 100.17 689.003 94.7797 689.424C89.3897 689.846 84.3329 691.865 82.4219 697.264C80.6383 702.262 81.5595 708.74 81.8437 713.924C82.4493 724.858 83.9869 735.72 86.4399 746.392C91.2615 767.56 99.9149 789.982 115.605 805.564C118.682 808.612 122.328 810.974 126.826 810.013C131.843 808.935 136.861 805.692 141.526 803.565C154.266 797.685 167.006 791.805 179.52 785.337C203.684 772.711 226.651 757.917 248.14 741.139C269.044 725.105 288.674 707.474 306.852 688.405C323.718 670.579 339.192 650.754 349.041 628.135C351.465 622.601 353.556 616.926 355.303 611.142C356.724 606.409 349.472 604.478 347.943 609.113C340.525 631.506 327.5 651.577 312.34 669.481C296.287 688.444 277.942 705.594 258.949 721.568C239.179 738.299 218.067 753.376 195.828 766.648C184.332 773.45 172.455 779.575 160.44 785.396C154.364 788.336 148.249 791.207 142.114 794.03C136.871 796.44 131.657 799.331 126.267 801.38C124.895 801.899 124.68 802.007 123.876 801.576C121.916 800.537 120.436 798.518 118.976 796.921C115.683 793.159 112.732 789.112 110.156 784.827C104.616 775.591 100.269 765.689 97.2199 755.359C94.0842 745.084 91.8897 734.544 90.6637 723.871C90.0757 718.795 89.6837 713.689 89.4877 708.583C89.2837 706.155 89.2607 703.714 89.4191 701.282C89.7425 698.431 91.4673 697.451 94.1329 697.039C99.1603 696.265 104.541 697.108 109.617 696.892C115.238 696.654 120.838 696.061 126.385 695.118C137.593 693.238 148.51 689.911 158.862 685.22C180.638 675.42 197.082 658.231 211.968 640.023C227.423 621.177 241.319 600.244 261.468 586.015C271.268 579.057 281.578 572.814 291.015 565.288C301.011 557.311 310.341 548.549 320.052 540.229C325.011 535.976 330.068 531.84 335.34 527.979C338.28 525.853 335.458 520.953 332.479 523.079V523.128Z" fill="var(--color-illustration-primary, #382C80)"/>
<path d="M294.082 694.521C294.082 694.521 306.127 681.702 307.185 680.467C311.174 675.803 312.908 670.373 313.388 664.18C313.731 659.691 312.869 654.938 310.096 651.44C308.492 649.566 306.643 647.918 304.598 646.54L288.526 634.633C283.4 630.83 279.755 634.633 277.746 639.827C274.13 649.127 275.129 659.74 278.647 669.08C282.166 678.419 287.977 686.632 294.082 694.521Z" fill="var(--color-illustration-primary, #382C80)"/>
<path d="M295.307 695.745C299.227 691.374 303.647 687.395 307.655 683.093C314.231 676.057 317.73 664.855 314.682 655.447C312.722 649.303 307.675 645.99 302.726 642.315L294.2 635.984C291.701 634.122 289.094 631.555 285.948 630.918C281.244 629.938 277.873 633.926 276.148 637.778C273.622 643.71 272.683 650.198 273.424 656.604C274.914 671.529 283.273 684.7 292.593 696.039C294.122 697.911 297.395 695.421 295.964 693.432C289.388 684.318 282.548 675.184 279.451 664.199C277.759 658.543 277.331 652.584 278.197 646.745C278.736 643.57 280.46 634.779 285.057 635.387C287.614 635.72 290.407 638.758 292.416 640.287L299.953 645.863C304.666 649.342 309.596 652.399 310.86 658.524C312.575 666.825 309.272 675.008 303.804 681.064C300.158 685.112 296.287 689.061 292.867 693.305C291.485 695.02 293.788 697.43 295.307 695.745Z" fill="var(--color-illustration-primary, #382C80)"/>
<path d="M89.38 848.567C89.54 852.456 88.9716 856.342 87.7042 860.023C86.3989 863.728 83.6381 866.74 80.0602 868.363C67.6044 873.361 63.4688 860.376 60.5092 851.703C55.7589 837.859 51.9028 823.724 48.9648 809.386C46.3384 796.489 38.5572 772.813 44.8292 760.269" fill="var(--color-illustration-base, #FFFFFF)"/>
<path d="M86.4987 848.566C86.3615 853.603 85.7735 859.268 82.1083 863.09C79.7759 865.53 75.6207 867.117 72.3573 865.657C66.6439 863.099 64.8211 853.838 63.2139 848.497C57.3339 828.848 52.6005 808.67 48.5825 788.551C46.8479 779.858 45.1721 769.803 48.5139 761.287C50.1015 757.21 43.6139 754.643 41.5363 758.347C36.5579 767.167 38.0377 778.104 39.7625 787.649C41.6343 798.027 44.2999 808.347 46.6225 818.617C49.669 831.224 53.5185 843.624 58.1473 855.74C60.7443 862.747 64.5565 871.42 72.9159 872.596C78.3242 873.212 83.6818 871.078 87.1847 866.912C91.4967 861.737 92.2905 855.093 92.1631 848.576C92.0945 844.93 86.5967 844.93 86.4987 848.576V848.566Z" fill="var(--color-illustration-primary, #382C80)"/>
<path d="M347.365 590.022C389.649 618.769 430.77 649.116 470.727 681.064C478.362 687.17 486.094 693.491 491.307 701.742C497.413 711.337 499.696 722.803 501.823 733.975C507.321 762.894 511.025 792.353 516.964 821.067C520.453 837.953 530.184 844.313 545.913 848.076C549.745 848.836 553.401 850.305 556.693 852.408C559.987 854.553 562.26 857.952 562.985 861.816C564.945 875.095 551.313 876.035 542.199 876.868C527.624 878.198 512.979 878.587 498.354 878.035C485.192 877.545 460.359 879.514 449.648 870.449C441.259 863.354 442.062 845.871 440.416 836.081C437.192 816.873 433.429 797.753 428.813 778.839C426.539 769.519 423.913 760.013 418.327 752.242C412.849 744.686 404.92 739.355 397.316 733.945C378.277 720.393 360.321 705.38 343.612 689.042C328.961 674.724 314.584 657.887 312.604 637.494" fill="var(--color-illustration-base, #FFFFFF)"/>
<path d="M345.934 592.473C369.833 608.878 393.383 625.78 416.583 643.178C428.454 652.064 440.214 661.083 451.863 670.236C462.368 678.498 473.775 686.436 482.889 696.285C492.003 706.134 495.375 718.413 497.864 731.202C500.657 745.5 502.921 759.896 505.204 774.322C507.507 788.875 509.781 803.438 512.574 817.912C514.475 827.712 517.425 837.022 525.598 843.392C529.159 846.101 533.129 848.224 537.358 849.684C542.728 851.644 548.843 852.173 553.714 855.299C557.487 857.72 560.721 862.855 558.398 867.353C556.879 870.293 553.008 871.205 550.039 871.812C545.41 872.591 540.735 873.072 536.045 873.253C528.74 873.769 521.433 874.05 514.122 874.096C503.019 874.164 491.856 873.919 480.802 873.635C471.982 873.41 460.898 873.322 453.362 868.03C446.149 862.973 446.188 851.056 445.463 843.206C444.277 830.388 441.543 817.648 438.976 805.045C436.232 791.472 433.733 777.419 429.097 764.346C427.067 758.291 424.015 752.63 420.071 747.607C416.151 742.707 411.251 738.787 406.224 735.122C395.336 727.086 384.36 719.285 373.933 710.622C363.506 701.959 353.353 692.806 343.729 683.182C335.174 674.617 327.069 665.317 321.621 654.38C318.943 649.083 317.183 643.37 316.417 637.485C315.839 632.712 308.322 632.585 308.783 637.485C311.272 664.101 331.519 683.995 350.158 701.185C360.703 710.9 371.695 720.099 383.135 728.781C388.751 733.064 394.513 737.131 400.236 741.257C405.489 745.049 410.761 749.156 414.642 754.408C422.688 765.296 424.873 780.114 427.755 793.011C431.067 807.828 434.252 822.812 436.428 837.846C437.858 847.646 437.408 858.053 441.935 867.167C446.463 876.281 456.547 879.535 465.994 880.887C476.323 882.367 486.692 881.936 497.07 882.2C511.714 882.679 526.373 882.31 540.974 881.093C549.098 880.358 559.761 879.966 564.837 872.44C567.64 868.284 567.846 862.571 566.091 857.965C563.788 851.928 558.428 848.165 552.597 845.911C543.424 842.412 533.477 841.903 526.686 833.877C523.579 830.202 521.864 825.605 520.806 820.98C519.071 813.542 517.738 805.976 516.386 798.44C513.652 783.328 511.319 768.138 508.742 752.997C506.38 739.13 504.587 724.577 499.687 711.308C494.983 698.568 486.31 689.425 475.941 681.026C464.456 671.726 452.754 662.671 441.014 653.694C416.88 635.237 392.301 617.382 367.279 600.127C361.157 595.9 355.006 591.712 348.825 587.563C345.787 585.515 342.945 590.405 345.964 592.463L345.934 592.473Z" fill="var(--color-illustration-primary, #382C80)"/>
<path d="M285.38 632.771C286.125 645.285 292.602 656.898 301.06 666.091C321.914 688.709 352.333 705.546 377.039 723.911C383.115 728.419 389.387 733.142 392.994 739.797C396.914 747.098 397.178 755.751 397.325 764.042C397.609 779.908 397.982 795.774 398.178 811.64C398.315 822.42 397.609 824.704 408.889 825.36C414.053 825.696 419.237 825.545 424.373 824.91C446.168 822.068 472.08 819.167 492.581 810.905C497.079 809.092 509.055 805.829 511.76 801.733C514.465 797.636 510.858 787.875 510.025 782.819C507.36 766.541 504.861 750.234 501.783 734.024C499.657 722.852 497.373 711.386 491.268 701.792C486.025 693.541 478.293 687.22 470.688 681.114C430.769 649.179 389.649 618.832 347.326 590.072" fill="var(--color-illustration-base, #FFFFFF)"/>
<path d="M282.577 632.77C283.998 654.33 299.345 670.392 315.094 683.485C331.656 697.205 349.991 708.612 367.553 721.019C375.854 726.899 386.065 732.985 390.671 742.432C393.17 747.577 393.68 753.506 393.886 759.092C394.111 765.188 394.121 771.303 394.219 777.408C394.425 789.472 394.67 801.526 394.709 813.59C394.709 819.47 394.875 825.624 401.334 827.82C405.371 829.192 410.154 829.123 414.348 829.162C420.092 829.073 425.825 828.605 431.508 827.761C442.288 826.438 453.126 825.056 463.848 823.027C474.199 821.103 484.364 818.283 494.228 814.599C500.823 812.1 509.663 810.523 514.514 804.986C520.159 798.547 515.278 788.218 514.073 780.995C511.995 768.588 510.153 756.152 507.938 743.755C505.978 732.632 504.332 721.137 500.343 710.533C496.423 700.243 490.063 691.913 481.85 684.71C472.893 676.87 463.23 669.618 453.862 662.278C444.212 654.752 434.493 647.313 424.707 639.963C404.92 625.097 384.879 610.563 364.378 596.687C359.38 593.306 354.352 589.983 349.305 586.671C345.16 583.947 341.465 590.473 345.454 593.266C383.86 620.265 421.894 647.764 458.762 676.87C467.062 683.426 475.863 689.767 482.968 697.656C490.073 705.545 493.454 715.002 495.708 725.096C500.607 746.656 502.372 768.784 507.468 790.227C508.016 792.559 509.594 797.469 508.193 799.478C506.488 801.899 501.754 803.133 499.118 804.104C491.082 807.044 483.075 810.14 474.775 812.316C464.64 814.841 454.378 816.827 444.032 818.265C433.654 819.833 423.05 821.851 412.525 821.695C409.654 821.695 405.244 822.038 402.725 820.528C402.441 820.352 402.412 820.381 402.225 819.627C401.985 818.463 401.867 817.277 401.873 816.089C401.52 805.24 401.461 794.382 401.216 783.533C400.961 772.469 401.51 760.993 399.805 750.076C398.188 739.61 392.553 731.789 384.389 725.302C368.357 712.562 350.648 702.066 334.037 690.12C325.658 684.208 317.673 677.756 310.135 670.804C302.844 663.944 296.16 656.516 292.015 647.284C289.919 642.676 288.643 637.738 288.242 632.692C287.957 629.085 282.362 629.036 282.567 632.692L282.577 632.77Z" fill="var(--color-illustration-primary, #382C80)"/>
<path d="M339.407 435.32C338.833 422.6 339.447 409.854 341.24 397.247C342.445 388.849 343.817 377.295 351.383 371.993C359.929 366.005 370.483 366.034 378.49 373.139C384.634 378.598 387.976 386.546 390.25 394.445C392.396 401.893 393.543 410.654 388.78 416.769C384.644 422.081 378.833 424.736 372.306 425.589C373.43 431.874 374.446 438.176 375.354 444.493" fill="var(--color-illustration-base, #FFFFFF)"/>
<path d="M341.985 435.32C341.742 423.297 342.522 411.275 344.317 399.384C345.464 391.965 346.14 382.469 351.589 376.736C357.978 370.033 368.974 369.984 375.746 375.962C382.694 382.087 386.261 392.426 387.633 401.353C388.388 406.253 388.084 411.447 384.566 415.23C381.048 419.013 376.236 420.708 371.179 421.424C368.7 421.777 367.769 424.726 368.131 426.794C369.239 433.066 370.473 439.299 371.689 445.551C372.502 449.765 379.646 448.874 379.235 444.571C378.598 437.839 377.765 431.165 376.549 424.511L373.502 429.881C385.075 428.176 395.228 420.316 396.247 408.115C396.728 402.373 395.267 396.483 393.513 391.063C391.8 385.346 389.129 379.962 385.614 375.138C378.5 365.868 366.818 361.222 355.577 365.652C345.013 369.807 340.74 379.039 338.976 389.662C336.516 404.762 335.792 420.094 336.82 435.359C337.036 438.652 342.044 438.721 341.985 435.359V435.32Z" fill="var(--color-illustration-primary, #382C80)"/>
<path d="M399.668 498.373C398.208 489.553 392.592 482.35 388.192 474.853C385.973 471.193 384.293 467.233 383.204 463.093C382.831 461.594 382.145 460.094 382.283 458.546C382.498 456.184 383.664 453.871 384.056 451.519C384.556 448.579 384.154 445.179 381.9 443.209C380.778 442.351 379.51 441.703 378.157 441.298C379.294 441.749 379.421 443.454 378.666 444.414C377.807 445.299 376.66 445.848 375.432 445.963C372.717 446.387 369.965 446.529 367.22 446.384C357.675 446.11 347.757 444.561 339.927 439.083C338.865 438.425 337.967 437.533 337.301 436.476C336.487 434.997 334.762 433.223 335.684 431.792C328.628 432.135 328.882 440.377 328.314 445.777C327.726 451.431 322.434 454.597 319.416 458.997C315.33 465.08 311.903 471.582 309.194 478.391C303.451 492.503 299.825 507.428 293.681 521.374C287.522 535.352 278.946 548.134 268.348 559.133C266.967 560.351 265.864 561.852 265.114 563.533C264.685 564.959 264.571 566.46 264.781 567.934C265.761 578.331 272.297 587.436 279.873 594.619C295.092 609.074 315.27 617.051 336.085 618.502C346.395 619.217 356.44 618.149 366.573 616.297C375.158 614.729 384.282 615.317 387.545 605.007C389.682 598.265 388.182 591.003 387.437 583.966C386.28 572.897 387.066 561.71 389.76 550.911C393.935 534.202 402.569 515.827 399.668 498.373Z" fill="var(--color-illustration-base, #FFFFFF)"/>
<path d="M402.471 497.599C400.442 485.79 391.691 477.244 387.771 466.239C386.957 463.965 385.624 460.849 385.811 458.399C386.007 455.596 387.565 452.979 387.771 450.108C388.192 443.855 384.742 439.945 379.166 437.809C375.109 436.251 373.443 442.121 376.422 444.306C376.422 442.63 375.971 441.974 374.991 442.346C374.619 442.442 374.238 442.505 373.855 442.532C372.847 442.666 371.833 442.741 370.817 442.758C368.955 442.817 367.093 442.758 365.231 442.65C361.939 442.513 358.663 442.123 355.431 441.484C352.235 440.863 349.128 439.853 346.179 438.475C344.633 437.772 343.165 436.908 341.799 435.898C341.279 435.486 339.006 433.311 339.221 432.703C339.947 430.606 337.996 427.881 335.723 428.097C330.029 428.636 326.668 432.36 325.59 437.897C325.129 440.288 325.1 442.709 324.766 445.11C324.355 448.05 322.424 450.069 320.464 452.146C310.449 462.828 305.255 477.509 300.658 491.15C295.582 506.232 290.858 521.246 282.489 534.907C278.683 541.159 274.331 547.062 269.485 552.547C267.299 555.017 264.585 557.271 262.811 560.074C260.714 563.366 260.919 567.198 261.556 570.903C263.908 584.623 274.404 595.687 285.076 603.752C296.292 612.072 309.233 617.765 322.944 620.412C338.192 623.411 353.118 622.225 368.318 619.687C373.541 618.805 379.166 618.56 383.802 615.698C389.074 612.435 391.455 606.673 392.092 600.704C393.023 592.012 390.603 583.211 390.564 574.489C390.587 565.272 391.923 556.105 394.533 547.265C399.158 531.095 405.92 514.7 402.627 497.599C401.981 494.247 396.208 494.962 396.6 498.412C398.217 512.593 393.347 526.224 389.211 539.572C384.958 553.292 382.42 567.228 383.576 581.643C384.135 588.611 386.154 596.089 384.341 603.007C382.939 608.358 379.274 610.475 374.139 611.484C361.35 614.003 348.1 615.885 335.066 614.836C322.08 613.806 309.473 609.964 298.12 603.576C287.272 597.421 276.56 588.533 271.102 577.067C269.79 574.339 268.914 571.422 268.505 568.423C267.985 564.395 269.857 562.867 272.425 560.123C277.092 555.11 281.377 549.754 285.243 544.1C293.181 532.487 298.747 519.727 303.275 506.458C308.44 491.287 312.83 475.735 321.67 462.191C324.982 457.115 330.656 453.479 331.773 447.158C332.293 444.218 331.401 435.81 335.693 435.398L332.185 430.802C330.362 436.094 336.252 441.209 340.26 443.542C345.602 446.518 351.475 448.42 357.547 449.138C363.614 449.99 370.346 450.666 376.393 449.373C381.881 448.207 385.291 442.023 379.97 438.181L377.226 444.688C383.419 446.991 379.499 452.94 378.96 457.585C378.421 462.23 380.871 467.669 382.831 471.756C387.3 481.066 394.817 488.73 396.875 499.127C397.6 502.842 403.098 501.244 402.471 497.599Z" fill="var(--color-illustration-primary, #382C80)"/>
<path d="M288.732 566.982C292.518 564.251 295.712 560.781 298.12 556.78C304.255 546 303.206 532.604 294.866 523.402C294.4 522.882 293.906 522.388 293.387 521.922C287.256 535.699 278.769 548.301 268.308 559.162C266.928 560.38 265.825 561.881 265.074 563.562C264.646 564.987 264.532 566.489 264.741 567.962C264.741 568.482 264.869 568.991 264.947 569.501C269.847 571.921 275.188 572.999 280.372 571.52C283.415 570.537 286.249 568.998 288.732 566.982Z" fill="var(--color-illustration-secondary, #7F72FF)"/>
<path d="M290.633 570.226C298.786 563.954 304.46 555.967 305.636 545.54C306.703 535.774 303.172 526.066 296.081 519.266C294.494 517.757 291.181 517.738 290.201 520.031C286.978 527.219 283.121 534.107 278.677 540.611C274.208 547.04 268.72 552.459 263.82 558.506C261.508 561.359 260.523 565.063 261.115 568.688C261.605 572.892 265.29 573.999 269.004 575.009C276.844 577.135 284.184 575.009 290.633 570.226C294.484 567.394 290.74 560.867 286.84 563.739C280.49 568.413 274.178 569.678 266.877 566.208L268.602 568.453C268.269 566.091 268.455 564.533 270.043 562.769C271.63 561.005 273.149 559.515 274.649 557.869C277.589 554.546 280.362 551.077 282.969 547.5C288.347 540.116 292.945 532.195 296.689 523.863L290.809 524.617C296.246 529.79 298.99 537.182 298.247 544.648C297.522 552.488 293.014 559.054 286.879 563.778C285.252 565.023 284.429 566.992 285.527 568.923C286.36 570.471 289.025 571.461 290.633 570.226Z" fill="var(--color-illustration-secondary, #7F72FF)"/>
<path d="M342.69 586.613C338.476 586.368 334.321 587.593 330.303 588.916C327.571 589.661 324.97 590.821 322.59 592.355C319.485 594.739 317.233 598.063 316.171 601.832C314.892 606.094 314.804 610.626 315.917 614.935C322.497 616.818 329.257 618.007 336.085 618.482C343.61 618.95 351.163 618.641 358.625 617.561C360.652 613.33 361.394 608.597 360.761 603.949C359.37 595.06 351.696 587.132 342.69 586.613Z" fill="var(--color-illustration-secondary, #7F72FF)"/>
<path d="M342.69 582.849C337.898 582.721 333.322 583.966 328.804 585.456C324.756 586.788 320.738 588.396 317.769 591.62C311.683 598.127 310.37 607.496 312.301 615.934C312.649 617.211 313.649 618.207 314.927 618.55C323.563 621.013 332.486 622.331 341.465 622.47C346.006 622.514 350.546 622.279 355.058 621.765C357.018 621.559 359.762 621.706 361.242 620.236C362.722 618.766 363.202 616.316 363.702 614.532C367.788 599.911 358.145 584.152 342.69 582.868C337.869 582.457 337.898 589.983 342.69 590.385C347.806 590.826 352.255 594.168 354.823 598.509C357.949 603.801 357.763 610.142 355.342 615.679L358.586 613.817C344.523 615.669 330.617 615.179 316.916 611.328L319.543 613.954C318.171 607.947 318.974 600.646 323.757 596.314C326.011 594.256 329.01 593.374 331.852 592.394C335.327 591.13 338.992 590.467 342.69 590.434C347.522 590.503 347.522 582.986 342.69 582.849Z" fill="var(--color-illustration-secondary, #7F72FF)"/>
<path d="M386.32 521.883L360.762 532.173C356.675 539.981 356.617 549.284 360.605 557.143C364.735 564.925 372.279 570.317 380.979 571.706C382.952 572.026 384.959 572.082 386.947 571.873C387.103 564.796 388.046 557.759 389.76 550.891C391.72 542.972 394.728 534.662 397.012 526.254C393.809 524.035 390.16 522.543 386.32 521.883V521.883Z" fill="var(--color-illustration-secondary, #7F72FF)"/>
<path d="M385.34 518.257L362.369 527.508C361.506 527.851 360.614 528.155 359.781 528.547C356.018 530.321 354.881 536.387 354.284 540.15C352.899 549.419 355.786 558.816 362.136 565.709C368.486 572.602 377.615 576.248 386.967 575.626C389.02 575.579 390.673 573.926 390.72 571.873C391.171 556.251 396.6 542.139 400.657 527.253C401.054 525.615 400.36 523.906 398.932 523.01C395.412 520.663 391.456 519.047 387.3 518.257C382.576 517.365 380.548 524.607 385.34 525.509C388.845 526.154 392.18 527.512 395.14 529.497L393.405 525.254C391.288 532.967 388.623 540.532 386.545 548.264C384.524 555.979 383.393 563.9 383.174 571.873L386.937 568.109C368.925 569.589 355.685 550.264 363.995 534.064L361.751 535.799L387.3 525.479C391.749 523.725 389.818 516.454 385.34 518.257Z" fill="var(--color-illustration-secondary, #7F72FF)"/>
<path d="M402.471 497.599C400.442 485.79 391.691 477.244 387.771 466.239C386.957 463.965 385.624 460.849 385.811 458.399C386.007 455.596 387.565 452.979 387.771 450.108C388.192 443.855 384.742 439.945 379.166 437.809C375.109 436.251 373.443 442.121 376.422 444.306C376.422 442.63 375.971 441.974 374.991 442.346C374.619 442.442 374.238 442.505 373.855 442.532C372.847 442.666 371.833 442.741 370.817 442.758C368.955 442.817 367.093 442.758 365.231 442.65C361.939 442.513 358.663 442.123 355.431 441.484C352.235 440.863 349.128 439.853 346.179 438.475C344.633 437.772 343.165 436.908 341.799 435.898C341.279 435.486 339.006 433.311 339.221 432.703C339.947 430.606 337.996 427.881 335.723 428.097C330.029 428.636 326.668 432.36 325.59 437.897C325.129 440.288 325.1 442.709 324.766 445.11C324.355 448.05 322.424 450.069 320.464 452.146C310.449 462.828 305.255 477.509 300.658 491.15C295.582 506.232 290.858 521.246 282.489 534.907C278.683 541.159 274.331 547.062 269.485 552.547C267.299 555.017 264.585 557.271 262.811 560.074C260.714 563.366 260.919 567.198 261.556 570.903C263.908 584.623 274.404 595.687 285.076 603.752C296.292 612.072 309.233 617.765 322.944 620.412C338.192 623.411 353.118 622.225 368.318 619.687C373.541 618.805 379.166 618.56 383.802 615.698C389.074 612.435 391.455 606.673 392.092 600.704C393.023 592.012 390.603 583.211 390.564 574.489C390.587 565.272 391.923 556.105 394.533 547.265C399.158 531.095 405.92 514.7 402.627 497.599C401.981 494.247 396.208 494.962 396.6 498.412C398.217 512.593 393.347 526.224 389.211 539.572C384.958 553.292 382.42 567.228 383.576 581.643C384.135 588.611 386.154 596.089 384.341 603.007C382.939 608.358 379.274 610.475 374.139 611.484C361.35 614.003 348.1 615.885 335.066 614.836C322.08 613.806 309.473 609.964 298.12 603.576C287.272 597.421 276.56 588.533 271.102 577.067C269.79 574.339 268.914 571.422 268.505 568.423C267.985 564.395 269.857 562.867 272.425 560.123C277.092 555.11 281.377 549.754 285.243 544.1C293.181 532.487 298.747 519.727 303.275 506.458C308.44 491.287 312.83 475.735 321.67 462.191C324.982 457.115 330.656 453.479 331.773 447.158C332.293 444.218 331.401 435.81 335.693 435.398L332.185 430.802C330.362 436.094 336.252 441.209 340.26 443.542C345.602 446.518 351.475 448.42 357.547 449.138C363.614 449.99 370.346 450.666 376.393 449.373C381.881 448.207 385.291 442.023 379.97 438.181L377.226 444.688C383.419 446.991 379.499 452.94 378.96 457.585C378.421 462.23 380.871 467.669 382.831 471.756C387.3 481.066 394.817 488.73 396.875 499.127C397.6 502.842 403.098 501.244 402.471 497.599Z" fill="var(--color-illustration-primary, #382C80)"/>
<path d="M360.487 426.5C367.416 428.842 375.824 429.744 382.292 425.579C385.301 423.619 383.429 418.101 379.725 419.493C373.845 421.688 368.072 422.923 361.947 421.208C358.517 420.228 357.165 425.373 360.487 426.5Z" fill="var(--color-illustration-primary, #382C80)"/>
<path d="M345.307 472.629C358.762 472.394 373.031 468.062 386.369 465.994C401.049 463.721 415.766 461.699 430.518 459.928C451.284 457.439 472.109 455.45 492.826 452.617C501.784 451.392 510.8 449.991 519.286 446.816C526.715 444.033 533.575 439.956 540.298 435.761C557.938 424.805 574.931 412.967 591.728 400.844C605.36 391.044 621.902 383.204 624.166 364.819C624.734 360.194 625.146 355.274 627.91 351.285C630.458 347.65 636.896 345.503 640.081 349.512C640.581 344.484 639.003 339.535 639.866 334.439C640.326 331.754 641.473 328.922 643.893 327.677C646.314 326.433 650.038 327.893 650.038 330.617C649.891 327.813 651.81 325.32 654.559 324.746C657.307 324.171 660.064 325.686 661.053 328.314C661.22 325.374 664.444 323.101 667.374 323.581C670.354 324.245 672.554 326.771 672.803 329.814C673.421 326.687 677.958 325.825 680.575 327.638C683.191 329.451 684.269 332.773 685.014 335.87C686.614 343.224 687.785 350.665 688.523 358.155C689.365 365.29 691.414 372.718 691.59 379.882C691.727 385.105 691.345 390.348 691.492 395.611C692.158 421.003 680.712 435.173 660.936 449.775C640.463 464.916 616.836 475.167 593.12 484.164C514.034 514.23 428.235 533.595 344.807 519.493" fill="var(--color-illustration-base, #FFFFFF)"/>
<path d="M345.307 475.314C356.802 475.049 367.994 472.276 379.225 470.071C391.504 467.67 403.989 466.151 416.396 464.553C440.818 461.408 465.396 459.232 489.779 456.047C501.294 454.538 512.848 452.96 523.618 448.374C534.388 443.787 544.198 437.104 553.998 430.734C564.023 424.207 573.882 417.445 583.643 410.546C591.483 404.979 599.539 399.628 607.349 393.993C614.925 388.525 621.922 382.145 625.44 373.276C627.4 368.376 627.302 363.231 628.556 358.184C629.164 355.744 630.095 353.098 632.32 351.697C634.113 350.55 636.24 350.217 637.71 351.883C639.817 354.225 643.296 352.226 643.492 349.492C643.795 345.229 642.845 341.015 643.06 336.752C643.057 335.032 643.507 333.342 644.364 331.852C644.699 331.274 645.248 330.851 645.893 330.676C646.432 330.44 646.696 331.499 646.598 330.607C647.088 334.958 653.35 335.174 653.527 330.607C653.654 327.481 656.927 327.667 658.045 330.078C659.27 332.675 664.013 332.185 664.454 329.235C664.66 327.883 665.434 326.854 666.953 327.099C668.638 327.373 669.197 329.333 669.422 330.744C669.981 334.38 675.302 333.812 676.233 330.744C676.87 328.608 679.859 331.891 680.261 332.704C681.976 336.007 682.398 340.211 683.025 343.827C684.377 351.755 684.985 359.772 686.455 367.69C687.915 375.893 687.925 383.703 687.856 392.004C687.856 398.433 687.954 404.685 686.455 410.996C683.877 421.825 677.498 430.704 669.413 438.162C659.015 447.746 646.824 455.43 634.387 462.045C606.82 476.696 576.636 487.084 546.893 496.345C516.366 505.821 485.084 513.279 453.342 517.268C417.641 521.766 381.351 521.883 345.777 516.092C341.279 515.357 339.319 522.217 343.876 522.952C412.535 534.712 482.909 523.843 548.843 503.352C565.523 498.177 582.01 492.421 598.304 486.084C613.582 480.204 628.733 473.716 643.031 465.661C665.571 452.98 690.492 435.477 694.432 407.929C695.657 399.315 695.314 390.338 695.245 381.645C695.177 371.973 692.678 362.388 691.472 352.814C690.865 347.973 690.208 343.141 689.228 338.369C688.444 334.527 687.621 330.431 685.2 327.236C681.114 321.836 671.608 321.464 669.422 328.843H676.233C675.508 324.276 671.765 320.209 666.992 320.023C662.492 319.809 658.523 322.945 657.692 327.373L664.101 326.53C659.818 317.485 646.931 321.052 646.598 330.607H653.527C652.733 323.923 644.707 321.66 640.052 326.275C633.848 332.361 637.22 341.955 636.72 349.501L642.502 347.1C639.654 344.107 635.264 343.162 631.438 344.719C627.096 346.277 624.382 349.756 622.843 354.009C621.167 358.625 621.402 363.604 620.148 368.308C619.018 372.395 616.989 376.179 614.209 379.382C608.662 385.869 601.263 390.377 594.286 395.15C584.662 401.726 575.323 408.713 565.719 415.318C555.762 422.178 545.688 428.852 535.339 435.144C525.138 441.56 513.811 445.98 501.96 448.168C477.156 452.607 451.843 454.371 426.853 457.507C413.133 459.222 399.344 461.114 385.693 463.309C372.247 465.475 359.066 469.561 345.376 469.943C341.926 470.041 341.906 475.402 345.376 475.314H345.307Z" fill="var(--color-illustration-primary, #382C80)"/>
<path d="M354.196 402.715C353.026 398.261 353.612 393.529 355.832 389.495C356.209 388.694 356.804 388.015 357.547 387.535C358.931 386.931 360.543 387.226 361.624 388.28C362.654 389.334 363.463 390.584 364.005 391.955C361.967 382.723 374.785 379.215 381.302 379.528C390.642 379.95 392.71 371.982 390.318 363.848C389.552 360.944 387.746 358.422 385.242 356.763C379.548 353.313 374.06 354.911 368.945 357.743C364.329 360.33 360.752 355.783 355.558 355.577C352.467 355.319 349.375 356.061 346.738 357.694C344.209 359.438 342.514 362.594 343.19 365.622C338.679 364.786 334.041 366.184 330.744 369.375C327.501 372.658 326.39 377.491 327.873 381.861C328.853 384.428 330.676 386.535 332.165 388.828C335.938 394.64 337.359 401.627 338.702 408.428C338.229 404.052 340.442 399.823 344.307 397.717C345.895 396.894 347.894 396.502 349.433 397.413C351.452 398.599 352.03 401.598 354.215 402.45" fill="var(--color-illustration-primary, #382C80)"/>
<path d="M357.087 401.921C356.624 399.374 356.755 396.755 357.469 394.267C357.665 393.63 358.165 391.602 358.743 391.2C359.87 390.406 360.115 391.847 360.419 392.954C361.506 396.874 368.072 396.257 367.71 391.974C367.26 389.48 368.548 386.996 370.846 385.927C373.367 384.518 376.175 383.697 379.058 383.526C382.635 383.272 386.036 383.595 389.26 381.655C392.087 379.865 394.064 377.003 394.738 373.726C396.492 365.808 393.258 356.086 385.654 352.509C381.105 350.421 375.908 350.244 371.228 352.019C369.542 352.647 367.612 354.205 365.828 354.224C364.045 354.244 362.075 352.872 360.526 352.264C350.579 348.668 337.31 354.989 339.035 366.729L344.347 361.418C333.714 359.899 322.649 366.612 322.924 378.313C323.061 384.193 326.844 387.907 329.549 392.719C330.82 395.15 331.875 397.688 332.704 400.304C333.635 402.989 334.919 405.547 335.272 408.389C335.791 412.652 342.24 412.946 342.132 408.389C342.083 405.518 343.21 402.029 346.169 400.882C347.737 400.275 347.855 401.068 348.678 402.274C349.568 403.707 350.787 404.907 352.236 405.772C356.626 408.252 360.615 401.284 356.156 399.05C353.853 397.893 353.118 394.904 350.501 393.787C347.697 392.729 344.558 393.068 342.044 394.698C337.037 397.739 334.389 403.524 335.36 409.3L342.004 407.468C340.877 403.401 341.024 399.206 339.75 395.12C338.347 391.025 336.339 387.164 333.792 383.664C331.695 380.606 330.578 377.48 332.538 374.02C334.55 370.814 338.288 369.127 342.024 369.738C345.493 370.238 347.826 367.895 347.326 364.436C346.601 359.428 354.852 359.34 357.822 360.379C362.104 361.888 365.72 363.917 370.287 361.81C374.707 359.761 379.264 356.91 383.821 360.565C386.643 362.799 387.741 367.768 387.192 371.218C386.624 374.912 384.105 375.51 380.744 375.51C377.608 375.512 374.493 376.008 371.512 376.98C364.652 379.273 358.135 384.898 360.389 392.885L367.171 390.024C365.632 387.858 364.299 385.516 361.761 384.418C359.168 383.211 356.09 383.83 354.166 385.947C350.011 390.386 349.639 397.952 351.226 403.44C352.353 407.193 357.655 405.596 357.008 401.852L357.087 401.921Z" fill="var(--color-illustration-primary, #382C80)"/>
<path d="M336.428 360.839C330.548 352.127 315.985 348.325 302.971 349.246C298.296 349.569 293.288 350.579 290.446 353.362C289.006 354.665 288.428 356.671 288.953 358.54C289.479 360.41 291.018 361.82 292.926 362.182C287.595 360.849 281.636 364.397 280.862 368.542C280.088 372.687 283.41 376.794 287.908 379.322C285.301 379.234 282.557 379.155 280.235 380.037C278.511 380.593 277.096 381.838 276.325 383.476C275.554 385.115 275.497 386.999 276.168 388.681C277.491 391.856 280.94 394.287 284.655 396.119C289.867 398.633 295.472 400.231 301.226 400.843C306.19 401.521 311.242 401.116 316.034 399.657C320.169 398.153 323.852 395.62 326.736 392.297C331.612 387.119 334.425 380.336 334.644 373.226" fill="var(--color-illustration-primary, #382C80)"/>
<path d="M338.898 359.39C331.734 348.443 317.171 345.317 304.892 345.787C298.894 346.022 290.79 346.826 286.997 352.187C283.322 357.381 286.291 363.77 291.946 365.691L293.906 358.625C287.634 357.214 279.99 359.752 277.462 366.103C274.708 373.061 280.206 379.509 285.821 382.89L287.918 375.109C282.871 374.923 277.462 375.256 273.973 379.411C271.309 382.594 270.739 387.036 272.513 390.789C276.54 399.364 288.79 403.098 297.365 404.509C307.577 406.175 317.945 405.342 326.217 398.58C333.864 392.345 338.384 383.063 338.574 373.198C338.633 368.131 330.97 368.18 330.734 373.198C330.267 379.856 327.311 386.094 322.453 390.671C317.357 395.669 310.899 397.188 303.931 396.806C296.936 396.512 290.122 394.492 284.096 390.926C282.489 389.946 279.255 387.819 280.059 385.507C281.039 382.782 285.792 383.39 287.899 383.449C292.073 383.556 293.543 377.716 290.006 375.667C287.987 374.501 283.851 371.816 284.89 368.896C285.782 366.367 289.594 365.279 291.936 365.681C296.493 366.455 298.512 359.909 293.896 358.615C288.996 357.253 296.072 353.823 297.865 353.353C302.393 352.348 307.06 352.122 311.664 352.686C319.317 353.402 329.039 355.832 333.959 362.271C336.124 365.113 340.966 362.545 338.859 359.331L338.898 359.39Z" fill="var(--color-illustration-primary, #382C80)"/>
<path d="M861.365 441.749C853.241 384.008 845.107 326.256 838.384 268.289C836.757 254.334 835.222 240.366 833.778 226.384C832.729 216.114 827.359 200.071 836.052 192.77C844.744 185.469 862.423 181.883 873.292 178.766C886.441 174.999 899.88 172.334 913.472 170.799C914.735 170.527 916.052 170.66 917.235 171.181C918.695 172.034 919.195 173.866 919.548 175.513C923.789 195.146 926.921 215.003 928.926 234.989C916.25 239.627 903.295 243.463 890.138 246.474C883.346 248.033 879.172 245.73 876.526 251.639C874.281 256.627 877.898 269.936 878.397 275.502C879.652 289.771 881.181 304.02 882.768 318.25C884.924 337.654 887.119 357.058 888.874 376.501C890.393 393.161 896.488 414.133 894.156 430.626C893.068 438.349 888.746 446.091 881.543 449.109" fill="var(--color-illustration-base, #FFFFFF)"/>
<path d="M863.864 441.749C856.407 386.252 849.164 330.735 842.745 275.149C841.177 261.429 839.681 247.67 838.257 233.872C837.698 228.472 837.11 223.092 836.209 217.751C835.435 213.106 834.602 208.323 835.023 203.6C835.235 199.515 837.545 195.83 841.128 193.858C845.455 191.312 850.093 189.336 854.927 187.978C865.511 184.715 876.487 182.049 887.267 179.648C894.744 177.992 902.3 176.65 909.905 175.728C911.516 175.39 913.158 175.222 914.805 175.229C915.785 175.327 914.628 174.797 914.805 175.042C915.041 175.609 915.196 176.206 915.265 176.816C916.138 180.609 916.814 184.46 917.539 188.282C920.499 203.786 922.753 219.397 924.301 235.116L927.702 230.648C918.382 234.009 908.837 236.841 899.282 239.36C895.185 240.428 890.942 241.8 886.718 242.3C883.562 242.643 880.279 242.417 877.379 243.927C871.273 247.092 870.519 254.168 871.165 260.283C871.881 267.3 873.38 273.915 873.998 280.569C875.879 300.639 878.241 320.67 880.446 340.711C882.514 359.547 883.925 378.432 887.12 397.11C888.698 406.322 890.305 415.652 890.06 425.031C889.805 433.145 887.316 441.779 879.456 445.552C877.339 446.532 876.82 449.55 877.908 451.432C879.182 453.676 881.681 453.892 883.788 452.98C899.84 446.101 900.36 426.334 898.792 411.605C897.88 403.059 896.293 394.611 894.97 386.125C893.509 376.785 892.902 367.338 891.941 357.94C889.981 338.203 887.62 318.495 885.571 298.767C884.591 289.653 884.219 280.383 882.769 271.327C881.945 266.202 879.829 259.283 880.809 254.471C881.377 251.874 882.769 252.217 885.16 252.051C889.637 251.606 894.064 250.76 898.39 249.522C909.166 246.729 919.79 243.38 930.22 239.487C931.974 238.84 933.836 237.125 933.621 235.028C932.072 220.145 929.939 205.341 927.221 190.615C926.584 187.194 925.918 183.755 925.193 180.374C924.517 177.14 924.213 173.386 922.488 170.485C918.833 164.145 910.424 166.771 904.593 167.653C891.177 169.682 878.261 173.229 865.217 176.855C855.133 179.648 843.921 182.314 835.346 188.615C826.526 195.093 826.84 205.638 828.32 215.487C830.211 228.149 831.583 240.83 833.053 253.55C836.464 283.238 840.266 312.866 844.46 342.436C849.125 375.756 854.055 409.076 858.964 442.396C859.366 445.15 864.237 444.523 863.864 441.73V441.749Z" fill="var(--color-illustration-primary, #382C80)"/>
<path d="M874.448 422.924C872.096 426.079 870.714 430.313 873.713 433.606C876.712 436.898 881.876 435.84 883.68 431.783C885.208 428.333 886.09 423.561 883.013 420.66C881.572 419.315 879.609 418.677 877.653 418.915C875.472 419.203 873.658 420.734 873.007 422.835C872.312 424.629 873.625 426.755 875.271 427.461C877.077 428.226 879.17 427.54 880.171 425.854C879.739 426.557 878.912 426.913 878.103 426.746C877.819 426.648 877.506 426.089 877.3 426.06C877.154 426.921 876.954 427.772 876.702 428.608C876.624 428.853 876.604 428.882 876.702 428.706C877.066 428.362 877.544 428.166 878.045 428.157C876.82 428.157 879.426 428.372 879.025 428.568C879.493 427.853 879.899 427.099 880.24 426.314C880.889 425.276 880.922 423.966 880.326 422.897C879.73 421.827 878.599 421.166 877.374 421.171C876.149 421.177 875.025 421.848 874.438 422.924H874.448Z" fill="var(--color-illustration-primary, #382C80)"/>
<path d="M926.947 491.18C920.051 491.906 913.08 491.192 906.475 489.083C905.321 488.777 904.09 489.022 903.141 489.747C902.193 490.471 901.632 491.594 901.624 492.788C901.849 501.608 901.487 509.683 898.684 518.121C898.106 520.286 899.371 522.514 901.526 523.128C910.052 525.088 920.851 525.216 928.74 520.825C933.092 518.405 933.474 514.495 933.64 509.947C933.787 504.577 933.964 499.216 933.758 493.856C933.562 488.838 926.516 488.956 926.065 493.856C925.702 497.776 925.565 501.696 925.438 505.616C925.379 507.468 925.33 509.32 925.281 511.182C925.232 513.044 925.673 513.201 924.134 513.897C917.911 516.69 910.267 516.768 903.731 515.288L906.573 520.286C909.513 511.251 910.855 501.176 909.17 491.768L905.465 496.619C912.583 497.639 919.793 497.843 926.957 497.227C930.769 496.835 930.877 490.847 926.957 491.18H926.947Z" fill="var(--color-illustration-primary, #382C80)"/>
<path d="M701.243 507.115C708.051 508.128 714.871 509.092 721.705 510.006C726.605 510.663 726.84 502.48 721.705 502.166C715.159 501.725 708.622 501.353 702.105 501C698.656 500.824 697.764 506.625 701.282 507.145L701.243 507.115Z" fill="var(--color-illustration-primary, #382C80)"/>
<path d="M699.518 522.629L708.916 523.609C711.984 523.942 715.227 524.589 718.305 524.265C722.342 523.805 723.969 517.709 719.343 516.621C716.139 515.867 712.768 516.082 709.543 516.053L699.557 515.975C695.216 515.975 695.422 522.129 699.557 522.58L699.518 522.629Z" fill="var(--color-illustration-primary, #382C80)"/>
<path d="M701.997 538.289C704.251 538.681 706.505 539.063 708.769 539.386C711.033 539.71 713.032 538.739 713.356 536.338C713.679 533.937 711.935 532.418 709.749 532.183C707.564 531.948 705.192 531.693 702.889 531.487C699.038 531.135 698.107 537.632 701.968 538.289H701.997Z" fill="var(--color-illustration-primary, #382C80)"/>
<path d="M598 309.292C591.63 300.262 586.596 290.36 583.055 279.892L580.575 284.253L618.149 269.034L627.263 265.349C628.057 265.136 628.821 264.823 629.536 264.418C629.193 264.712 628.556 262.576 629.193 264.751C629.624 266.26 630.35 267.76 630.928 269.22C633.378 275.482 635.681 281.891 638.768 287.84C640.728 291.633 646.931 289.006 645.628 284.9C643.403 277.726 640.15 270.798 637.17 263.908C636.024 261.243 635.112 258.028 632.114 256.892C628.713 255.637 624.881 258.156 621.824 259.43L578.704 277.344C577.028 278.04 575.538 279.716 576.224 281.705C580.009 292.749 585.455 303.152 592.375 312.556C594.825 315.878 600.44 312.742 598.01 309.273L598 309.292Z" fill="var(--color-illustration-primary, #382C80)"/>
<path d="M827.32 442.405C830.054 455.753 832.887 469.845 832.896 483.565L837.189 479.283C833.239 479.445 829.308 479.907 825.429 480.665C821.502 481.169 817.613 481.932 813.786 482.948C808.142 484.604 810.611 492.385 816.158 491.552C819.872 490.994 823.528 490.082 827.232 489.436C830.936 488.789 834.7 488.514 838.335 487.711C840.717 487.182 841.775 484.614 841.334 482.429C839.943 475.52 839.217 468.464 837.904 461.525C836.591 454.587 835.033 447.658 833.279 440.798C832.299 436.927 826.536 438.583 827.33 442.435L827.32 442.405Z" fill="var(--color-illustration-primary, #382C80)"/>
<path d="M345.033 655.174C356.567 652.234 362.33 640.209 364.201 629.4C364.537 628.174 364.194 626.863 363.301 625.959C362.408 625.055 361.1 624.697 359.871 625.018C358.642 625.34 357.677 626.293 357.341 627.518C354.46 635.701 352.853 646.423 343.523 649.823C340.201 651.029 341.475 656.056 344.993 655.174H345.033Z" fill="var(--color-illustration-primary, #382C80)"/>
<path d="M326.05 543.541C350.217 548.333 374.952 549.558 399.55 549.794C422.766 550.019 446.668 549.225 467.964 539.994C455.753 530.674 452.284 519.345 450.324 504.792C448.187 489.249 447.051 473.354 449.51 457.752C443.18 458.458 436.846 459.183 430.508 459.928C415.756 461.705 401.04 463.727 386.359 465.994C373.021 468.062 358.753 472.393 345.297 472.628" fill="var(--color-illustration-base, #FFFFFF)"/>
<path d="M325.05 547.167C349.962 552.067 375.373 553.361 400.716 553.557C424.236 553.743 448.021 552.577 469.894 543.218C471.972 542.336 472.433 538.7 470.659 537.338C460.692 529.576 456.4 519.266 454.44 507.056C451.892 491.238 450.735 474.716 453.146 458.771C453.47 456.644 452.166 453.714 449.52 454.018C431.772 455.978 414.054 458.154 396.385 460.731C387.751 461.995 379.186 463.436 370.64 465.21C362.271 466.954 353.882 468.669 345.307 468.894C340.476 469.012 340.456 476.529 345.307 476.411C353.755 476.186 362.085 474.637 370.336 472.942C378.843 471.188 387.339 469.61 395.934 468.336C413.75 465.7 431.625 463.524 449.52 461.535L445.894 456.772C443.268 474.128 444.414 491.787 447.188 509.055C449.334 522.363 454.499 534.202 465.347 542.649L466.102 536.769C445.208 545.697 422.002 546.285 399.589 546.069C375.295 545.844 350.932 544.629 327.069 539.964C322.336 538.984 320.317 546.275 325.109 547.206L325.05 547.167Z" fill="var(--color-illustration-primary, #382C80)"/>
<path d="M452.96 521.648C454.459 530.39 458.066 539.759 468.454 540.023C470.161 540.15 471.867 539.764 473.354 538.916C474.569 538.013 475.555 536.838 476.235 535.486C479.6 529.445 481.997 522.914 483.34 516.131C473.226 518.091 463.08 519.695 452.901 520.943L452.96 521.648Z" fill="var(--color-illustration-primary, #382C80)"/>
<path d="M449.363 522.647C451.039 532.095 455.596 542.14 466.21 543.57C472.825 544.462 477.215 541.728 480.282 536.005C483.359 530.05 485.595 523.698 486.927 517.13C487.253 515.83 486.873 514.454 485.925 513.506C484.977 512.559 483.601 512.178 482.301 512.504C472.501 514.357 462.701 515.944 452.901 517.179C450.314 517.512 448.834 519.306 449.275 521.942L449.403 522.647C450.206 527.4 457.448 525.382 456.645 520.687L456.527 519.982L452.901 524.735C463.439 523.428 473.919 521.795 484.34 519.835L479.724 515.209C478.77 519.915 477.342 524.512 475.461 528.929C474.608 530.889 473.609 533.545 472.119 535.113C470.629 536.681 468.444 536.465 466.513 536.093C459.653 534.672 457.693 526.607 456.645 520.707C455.763 515.895 448.521 517.904 449.363 522.647Z" fill="var(--color-illustration-primary, #382C80)"/>
<path d="M695.343 379.881C695.069 372.747 693.315 365.838 692.354 358.792C691.374 351.569 690.688 344.327 689.15 337.232C688.042 332.057 686.386 325.913 680.977 323.708C676.292 321.797 670.667 323.855 669.217 328.853H676.4C675.675 324.188 671.814 320.033 666.943 319.827C662.335 319.621 658.273 322.824 657.398 327.353L664.258 326.461C662.422 322.596 658.249 320.413 654.027 321.111C649.342 321.963 646.422 326.06 646.245 330.656H653.762C652.949 323.708 644.687 321.307 639.768 326.109C633.476 332.263 636.828 341.936 636.289 349.55L642.698 346.894C638.229 341.994 630.546 343.151 626.136 347.571C620.814 352.921 621.5 360.634 619.864 367.396C616.924 379.626 605.85 386.712 596.069 393.307C582.232 402.637 568.865 412.643 554.958 421.874C540.68 431.341 526.107 441.856 509.232 445.963C499.677 448.295 489.798 449.344 480.047 450.539C469.875 451.784 459.683 452.901 449.491 454.038C448.001 454.204 446.129 455.077 445.865 456.792C442.562 478.597 445.561 500.421 449.207 521.981C449.651 523.615 451.139 524.745 452.833 524.735C497.168 519.149 540.435 507.409 582.379 492.179C602.204 484.976 622.02 477.293 640.552 467.16C655.908 458.761 671.97 448.462 682.927 434.536C688.168 427.994 691.854 420.347 693.707 412.172C694.676 407.689 695.179 403.117 695.206 398.531C695.275 392.337 695.402 386.114 695.294 379.911C695.206 375.079 687.69 375.06 687.778 379.911C688.072 396.326 688.758 413.035 679.085 427.137C669.697 440.808 654.301 450.657 640.169 458.742C622.598 468.757 603.762 476.284 584.829 483.242C565.052 490.553 544.992 497.119 524.647 502.656C501.072 509.172 477.068 514.022 452.813 517.169L456.439 519.933C453.029 499.823 450.01 479.106 453.097 458.742L449.471 461.505C466.778 459.545 484.183 457.909 501.411 455.116C509.653 453.901 517.701 451.618 525.353 448.324C533.026 444.894 540.16 440.308 547.236 435.81C561.701 426.608 575.803 416.857 589.729 406.87C599.695 399.726 611.396 393.513 619.403 384.036C623.874 378.884 626.775 372.558 627.763 365.808C628.311 361.888 628.4 357.449 630.575 354.048C631.957 351.883 635.289 349.834 637.435 352.167C639.777 354.744 643.639 352.549 643.854 349.511C644.148 345.248 643.188 341.034 643.394 336.771C643.376 335.102 643.802 333.458 644.628 332.008C645.158 331.234 645.363 331.44 645.883 331.028C646.402 330.617 646.5 332.42 646.294 330.656C646.843 335.36 653.625 335.615 653.811 330.656C653.919 327.775 656.829 328.147 657.819 330.254C659.132 333.027 664.209 332.508 664.679 329.352C664.865 328.118 665.483 327.157 666.894 327.392C668.491 327.647 668.972 329.558 669.177 330.862C669.785 334.733 675.449 334.135 676.429 330.862C676.616 330.225 678.105 330.577 678.595 330.862C679.948 331.695 680.555 333.802 680.947 335.193C682.234 339.971 683.161 344.839 683.721 349.756C684.407 354.793 684.887 359.85 685.759 364.868C686.784 369.83 687.478 374.856 687.837 379.911C688.013 384.693 695.53 384.722 695.343 379.881Z" fill="var(--color-illustration-primary, #382C80)"/>
<path d="M562.965 861.816C562.24 857.952 559.967 854.553 556.673 852.408C553.381 850.305 549.725 848.836 545.893 848.076C535.721 845.646 528.057 842.118 522.971 835.336L520.894 835.816L518.326 835.728C514.033 842.921 511.73 851.126 511.652 859.503C492.513 863.508 472.854 864.402 453.43 862.149C451.647 861.953 446.394 860.189 444.875 860.973C442.856 861.953 442.69 866.196 442.827 868.078C443.139 870.675 443.826 873.213 444.865 875.614C445.064 876.302 445.443 876.925 445.963 877.417C446.552 877.793 447.226 878.015 447.923 878.064C465.043 880.524 481.302 877.368 498.295 878.005C512.919 878.567 527.564 878.188 542.14 876.868C551.293 876.035 564.886 875.095 562.965 861.816Z" fill="var(--color-illustration-primary, #382C80)"/>
<path d="M566.64 860.816C564.778 850.918 555.301 846.528 546.481 844.333C538.484 842.373 530.929 839.433 525.725 832.71C524.776 831.742 523.376 831.367 522.069 831.73C520.871 831.977 519.645 832.063 518.424 831.985C517.089 831.978 515.853 832.684 515.18 833.837C510.627 841.64 508.151 850.48 507.987 859.513L510.75 855.887C492.715 859.601 474.219 860.543 455.9 858.68C451.157 858.2 444.14 854.76 440.818 859.826C437.495 864.893 439.24 873.203 441.945 878.192C443.748 881.533 446.972 881.759 450.402 882.112C454.805 882.588 459.233 882.801 463.661 882.749C472.609 882.7 481.537 881.847 490.494 881.69C499.608 881.524 508.712 882.102 517.836 881.925C526.372 881.759 534.888 881.259 543.384 880.475C548.892 879.965 554.792 879.495 559.692 876.653C565.15 873.527 567.473 867.892 566.728 861.767C566.15 857.024 558.633 856.965 559.211 861.767C559.711 865.902 558.79 868.96 554.811 870.714C551.273 872.282 547.197 872.606 543.384 872.958C528.398 874.305 513.343 874.731 498.304 874.232C483.33 873.772 468.365 876.104 453.411 874.889C452.058 874.781 449.491 874.997 448.246 874.301C448.942 874.703 448.246 874.046 448.109 873.546C447.864 872.645 447.472 871.782 447.217 870.891C446.825 869.619 446.608 868.301 446.57 866.971C446.648 866.017 446.775 865.069 446.952 864.129L445.757 864.56H446.472C447 864.693 447.537 864.784 448.079 864.834C449.118 865.05 450.157 865.324 451.196 865.54C454.349 866.097 457.533 866.454 460.731 866.608C478.122 867.864 495.603 866.694 512.671 863.129C514.291 862.664 515.412 861.188 515.425 859.503C515.569 851.804 517.692 844.271 521.589 837.629L518.345 839.482C520.242 839.567 522.141 839.393 523.99 838.962L520.335 837.982C524.97 843.941 531.595 847.567 538.661 849.899C546.246 852.418 557.496 853.153 559.319 862.776C560.24 867.559 567.483 865.54 566.64 860.816Z" fill="var(--color-illustration-primary, #382C80)"/>
<path d="M75.66 868.764C79.3175 867.33 82.2285 864.462 83.7156 860.826C85.174 857.218 85.9419 853.368 85.9794 849.477C86.4792 839.03 88.5176 830.857 94.2016 824.595L93.349 822.635L92.957 820.087C85.0875 817.212 76.5964 816.475 68.3492 817.951C60.8682 799.889 56.332 780.745 54.9134 761.248C54.786 759.454 55.4916 753.976 54.492 752.624C53.1592 750.821 48.9452 751.438 47.1224 751.938C44.6285 752.722 42.2617 753.865 40.0958 755.329C39.455 755.653 38.9133 756.144 38.5278 756.75C38.2673 757.395 38.1762 758.097 38.2632 758.788C39.0276 776.056 45.1232 791.451 47.681 808.258C49.8634 822.731 52.9731 837.049 56.991 851.124C59.4508 859.934 62.92 873.115 75.66 868.764Z" fill="var(--color-illustration-primary, #382C80)"/>
<path d="M76.6399 872.4C85.6363 868.901 88.9487 860.111 89.6249 851.075C90.2521 842.588 90.9577 833.945 96.8377 827.261C97.9967 826.028 98.2338 824.191 97.4257 822.704C96.9773 821.55 96.6872 820.34 96.5633 819.108C96.2093 817.832 95.2125 816.835 93.9369 816.481C85.3964 813.505 76.2347 812.773 67.3299 814.355L71.9555 816.971C65.0586 800.361 60.6756 782.816 58.9509 764.914C58.7467 762.211 58.6845 759.499 58.7647 756.789C58.8137 753.849 58.6177 750.733 55.9325 748.949C50.5131 745.372 42.1537 749.214 37.5771 752.477C34.1177 754.957 34.3823 758.357 34.7155 762.277C35.0802 766.444 35.6624 770.588 36.4599 774.694C38.0573 783.093 40.3799 791.354 42.2223 799.664C44.1823 808.406 45.2211 817.304 46.9949 826.124C48.7687 834.944 50.9149 843.578 53.3355 852.183C54.9133 857.72 56.5107 863.56 60.1955 868.108C64.3311 873.164 70.4953 874.36 76.6399 872.4C81.2263 870.94 79.2663 863.688 74.6799 865.148C70.5345 866.461 67.3789 865.687 65.0465 861.904C62.8807 858.415 61.8321 854.358 60.7149 850.448C56.6623 835.879 53.4686 821.085 51.1501 806.142C48.8961 792.177 44.0647 778.702 42.4967 764.629C42.3791 763.551 41.5167 759.729 42.0361 758.808C42.5555 757.887 43.9961 757.377 44.9173 756.848C46.295 756.083 47.7877 755.547 49.3371 755.261C49.7582 755.191 50.1843 755.155 50.6111 755.153C53.1689 755.153 50.3661 755.28 51.2187 754.408C50.9835 754.643 51.2873 756.76 51.2775 757.123C51.2775 758.161 51.1697 759.2 51.1697 760.249C51.2614 763.824 51.5888 767.389 52.1497 770.921C54.203 787.417 58.4445 803.565 64.7623 818.941C65.3832 820.884 67.3905 822.026 69.3781 821.567C76.9732 820.339 84.7563 821.074 91.9867 823.704L89.3603 821.077C89.6502 822.941 90.1977 824.755 90.9871 826.467L91.5751 821.91C86.3517 827.849 83.8625 835.003 82.8433 842.765C81.8633 849.978 83.1667 861.826 74.6897 865.119C70.1523 866.873 72.0829 874.144 76.6399 872.4Z" fill="var(--color-illustration-primary, #382C80)"/>
<path d="M421.404 460.418C412.845 461.561 404.296 462.793 395.757 464.113C388.202 465.289 380.342 467.18 372.502 468.65C373.394 470.931 374.609 473.073 376.108 475.01C379.898 480.185 385.262 483.995 391.396 485.869C397.587 487.696 404.27 486.676 409.634 483.085C414.897 479.342 417.886 473.168 419.767 466.994C420.424 464.828 420.963 462.633 421.404 460.418V460.418Z" fill="var(--color-illustration-secondary, #7F72FF)"/>
<path d="M420.405 456.793C412.055 457.92 403.745 459.105 395.375 460.399C387.359 461.644 379.47 463.515 371.503 465.034C369.52 465.588 368.35 467.631 368.876 469.621C373.904 481.959 386.595 491.779 400.373 490.299C415.563 488.662 422.257 474.815 425.03 461.389C426.01 456.665 418.758 454.646 417.778 459.429C415.75 469.229 411.8 481.136 400.364 482.812C390.24 484.321 379.872 476.843 376.128 467.661L373.502 472.286C381.469 470.777 389.358 468.905 397.365 467.651C405.705 466.357 414.025 465.181 422.404 464.054C424.432 463.78 425.491 461.203 425.03 459.429C424.452 457.243 422.404 456.528 420.405 456.793Z" fill="var(--color-illustration-secondary, #7F72FF)"/>
<path d="M376.304 549.196C384.056 549.549 391.828 549.716 399.589 549.794C409.605 549.892 419.748 549.794 429.754 548.912C429.3 541.644 426.414 534.741 421.561 529.312C414.113 521.472 401.216 518.963 391.975 524.549C389.609 526.045 387.462 527.863 385.595 529.949C381.332 534.584 376.736 542.14 376.304 549.196H376.304Z" fill="var(--color-illustration-secondary, #7F72FF)"/>
<path d="M376.304 552.92C394.062 553.704 412.025 554.145 429.754 552.646C431.655 552.479 433.674 551.049 433.517 548.883C432.282 532.723 420.983 518.336 403.98 517.797C387.525 517.278 373.894 533.624 372.541 549.157C372.13 553.969 379.646 553.949 380.058 549.157C381.038 537.583 391.818 524.922 403.98 525.304C416.72 525.706 425.079 536.878 426 548.824L429.754 545.071C412.025 546.57 394.062 546.129 376.304 545.345C371.463 545.227 371.473 552.744 376.304 552.92Z" fill="var(--color-illustration-secondary, #7F72FF)"/>
<path d="M319.2 495.806C315.829 501.529 314.888 508.84 317.583 514.906C319.555 519.334 323.239 522.772 327.792 524.435C332.346 526.097 337.379 525.841 341.74 523.726C343.51 522.915 345.069 521.708 346.297 520.198C348.041 517.934 348.698 515.014 349.012 512.172C349.58 506.997 349.061 501.392 345.827 497.285C342.887 493.532 337.928 491.65 333.136 491.66C328.327 491.838 323.649 493.278 319.572 495.835" fill="var(--color-illustration-secondary, #7F72FF)"/>
<path d="M316.897 494.454C312.605 501.559 311.419 510.251 315.251 517.827C319.059 525.101 326.641 529.609 334.851 529.479C343.778 529.244 351.403 523.746 352.882 514.779C354.255 506.459 353.088 497.139 345.974 491.68C337.467 485.183 326.109 487.163 317.554 492.474C313.202 495.189 317.015 501.657 321.552 499.334C327.677 496.169 336.85 493.523 342.21 499.599C345.954 503.842 346.473 514.211 342.387 518.415C337.428 523.511 328.294 522.198 323.561 517.611C318.014 512.26 318.112 503.676 321.483 497.188C323.071 494.14 318.661 491.524 316.877 494.483L316.897 494.454Z" fill="var(--color-illustration-secondary, #7F72FF)"/>
<path d="M325.05 547.167C349.962 552.067 375.373 553.361 400.716 553.557C424.236 553.743 448.021 552.577 469.894 543.218C471.972 542.336 472.433 538.7 470.659 537.338C460.692 529.576 456.4 519.266 454.44 507.056C451.892 491.238 450.735 474.716 453.146 458.771C453.47 456.644 452.166 453.714 449.52 454.018C431.772 455.978 414.054 458.154 396.385 460.731C387.751 461.995 379.186 463.436 370.64 465.21C362.271 466.954 353.882 468.669 345.307 468.894C340.476 469.012 340.456 476.529 345.307 476.411C353.755 476.186 362.085 474.637 370.336 472.942C378.843 471.188 387.339 469.61 395.934 468.336C413.75 465.7 431.625 463.524 449.52 461.535L445.894 456.772C443.268 474.128 444.414 491.787 447.188 509.055C449.334 522.363 454.499 534.202 465.347 542.649L466.102 536.769C445.208 545.697 422.002 546.285 399.589 546.069C375.295 545.844 350.932 544.629 327.069 539.964C322.336 538.984 320.317 546.275 325.109 547.206L325.05 547.167Z" fill="var(--color-illustration-primary, #382C80)"/>
<path d="M440.014 429.89C436.3 432.762 435.369 437.338 435.114 441.778C434.791 447.177 434.791 453.734 436.81 458.79C438.24 462.367 444.346 462.348 444.111 457.81C443.875 453.273 442.68 449.088 442.415 444.659C442.219 441.288 441.651 436.819 444.571 434.437C447.805 431.801 443.229 427.401 440.024 429.89H440.014Z" fill="var(--color-illustration-primary, #382C80)"/>
<path d="M335.429 449.422L334.704 453.95C334.475 454.872 335.009 455.811 335.919 456.086C336.844 456.337 337.798 455.794 338.055 454.871L338.673 450.324C338.889 449.432 338.374 448.525 337.497 448.256C336.604 448.011 335.681 448.531 335.429 449.422Z" fill="var(--color-illustration-primary, #382C80)"/>
<path d="M344.592 452.136C343.527 454.166 343.285 456.528 343.916 458.732C344.572 461.015 348.149 460.045 347.483 457.752C347.072 456.491 347.11 455.127 347.591 453.891C348.039 453.058 347.765 452.021 346.963 451.519C346.136 451.047 345.084 451.321 344.592 452.136Z" fill="var(--color-illustration-primary, #382C80)"/>
<path d="M356.92 454.048C356.719 456.483 356.641 458.926 356.685 461.368C356.754 463.034 359.507 463.622 359.772 461.79C360.135 459.212 360.223 456.645 360.34 454.048C360.438 451.843 357.048 451.862 356.92 454.048Z" fill="var(--color-illustration-primary, #382C80)"/>
<path d="M368.729 455.792C368.974 457.693 369.17 459.595 369.484 461.496C369.797 463.397 373.257 463.034 373.031 461.016C372.806 458.997 372.482 457.213 372.198 455.322C371.914 453.43 368.464 453.813 368.729 455.792Z" fill="var(--color-illustration-primary, #382C80)"/>
<path d="M675.832 254.843C680.144 259.802 684.965 264.3 689.209 269.337C693.675 274.641 697.793 280.229 701.537 286.066C703.268 288.764 704.902 291.505 706.437 294.288C708.083 297.228 710.573 300.717 711.151 304.088C712.131 309.821 706.692 314.633 709.299 320.464C710.151 322.375 713.346 321.444 713.219 319.395C712.846 313.27 717.246 307.969 715.179 301.755C713.062 295.327 708.573 289.064 704.84 283.469C701.094 277.853 696.999 272.479 692.58 267.377C688.023 262.114 683.152 256.685 677.488 252.579C676.086 251.55 674.714 253.686 675.734 254.853L675.832 254.843Z" fill="var(--color-illustration-primary, #382C80)"/>
<path d="M778.741 329.097C773.116 344.101 768.079 359.33 762.895 374.491L755.055 397.442C754.477 399.138 754.075 401.274 753.095 402.823C751.929 404.694 750.272 404.547 748.263 404.508C744.343 404.449 740.512 404.4 736.631 404.449C733.691 404.449 733.691 408.869 736.631 408.987C740.894 409.153 745.167 409.281 749.43 409.242C752.37 409.242 755.006 408.546 756.691 405.91C758.7 402.773 759.514 398.628 760.68 395.13L765.208 381.566C770.941 364.426 776.889 347.325 782.113 330.028C782.769 327.852 779.525 327.039 778.751 329.097H778.741Z" fill="var(--color-illustration-primary, #382C80)"/>
<path d="M743.824 376.167C740.814 377.026 738.591 379.575 738.15 382.674C737.738 385.791 739.649 389.534 743.05 389.809C746.451 390.083 749.224 386.771 749.783 383.782C750.41 380.391 747.96 376.804 744.334 377C743.239 377.075 742.389 377.985 742.389 379.082C742.389 380.18 743.239 381.09 744.334 381.165C747.205 381.332 744.608 386.976 742.629 385.32C740.473 383.517 742.629 379.999 744.589 379.205C746.549 378.411 745.745 375.569 743.756 376.167H743.824Z" fill="var(--color-illustration-primary, #382C80)"/>
<path d="M532.615 509.358C538.818 511.642 545.08 513.749 551.44 515.591C557.262 517.277 563.583 519.619 569.649 520.119C575.029 520.569 578.018 517.179 580.194 512.72C583.134 506.644 586.005 500.528 588.749 494.364C589.837 491.904 586.309 489.709 585.054 492.208C582.565 497.177 580.213 502.204 577.851 507.232C576.871 509.378 575.97 511.896 574.5 513.807C572.285 516.698 568.933 515.669 565.935 514.983C555.008 512.514 544.149 509.633 533.34 506.702C531.615 506.242 530.978 508.751 532.615 509.358Z" fill="var(--color-illustration-primary, #382C80)"/>
<path d="M425.598 802.565C424.393 786.209 423.197 769.853 421.855 753.507C420.757 740.041 419.209 726.067 412.604 714.013C406.234 702.38 395.356 694.746 384.086 688.288C371.052 680.82 358.008 673.588 345.542 665.13C331.92 655.948 318.426 646.51 310.85 631.516C309.782 629.399 306.117 630.879 306.93 633.153C311.605 645.491 322.522 654.34 332.9 661.837C345.502 670.902 358.631 679.211 372.218 686.72C383.517 693.001 395.659 698.97 404.136 709.054C413.417 720.108 416.014 734.916 417.523 748.842C419.483 766.717 420.934 784.661 422.688 802.565C422.864 804.378 425.696 804.427 425.559 802.565H425.598Z" fill="var(--color-illustration-secondary, #7F72FF)"/>
<path d="M364.476 651.998C377.559 668.854 397.708 677.625 414.074 690.679C422.668 697.539 430.146 705.8 434.242 716.159C439.034 728.252 439.701 741.433 440.387 754.271C441.067 770.201 442.704 786.076 445.287 801.811C445.679 804.006 449.422 803.526 449.207 801.281C447.825 786.65 445.492 772.185 444.669 757.485C443.954 744.608 443.562 731.398 439.573 719.01C432.507 697.107 413.838 684.995 395.473 673.166C385.036 666.463 374.678 659.446 366.475 649.999C365.25 648.588 363.368 650.606 364.466 652.008L364.476 651.998Z" fill="var(--color-illustration-secondary, #7F72FF)"/>
<path d="M378.539 635.563C394.346 653.37 413.407 667.56 431.233 683.191C439.936 690.816 449.334 698.871 455.919 708.475C459.555 713.767 461.251 719.647 462.593 725.86C464.004 732.446 465.298 739.051 466.513 745.676C469.306 760.552 471.541 775.517 474.206 790.423C474.667 793 478.459 791.863 478.126 789.345C476.166 775.782 473.883 762.248 471.403 748.773C470.149 741.932 468.793 735.115 467.336 728.32C466.053 722.391 464.828 716.335 462.015 710.906C456.743 700.714 447.129 692.462 438.701 684.916C429.655 676.821 420.081 669.295 410.732 661.582C400.128 652.86 389.613 643.942 380.352 633.731C379.225 632.486 377.412 634.319 378.519 635.563H378.539Z" fill="var(--color-illustration-secondary, #7F72FF)"/>
<path d="M470.708 698.058C481.8 721.393 488.447 746.591 490.308 772.361C490.455 774.321 493.552 774.37 493.424 772.361C491.666 746.044 484.775 720.326 473.138 696.656C472.354 695.049 469.983 696.46 470.737 698.058H470.708Z" fill="var(--color-illustration-secondary, #7F72FF)"/>
<path d="M495.6 794.676C496.573 794.605 497.327 793.795 497.327 792.819C497.327 791.843 496.573 791.033 495.6 790.962C493.218 790.962 493.209 794.676 495.6 794.676Z" fill="var(--color-illustration-secondary, #7F72FF)"/>
<path d="M478.959 805.701C479.944 805.701 480.743 804.902 480.743 803.917C480.743 802.932 479.944 802.134 478.959 802.134C477.974 802.134 477.176 802.932 477.176 803.917C477.176 804.902 477.974 805.701 478.959 805.701Z" fill="var(--color-illustration-secondary, #7F72FF)"/>
<path d="M449.089 813.002C450.101 813.002 450.922 812.182 450.922 811.17C450.922 810.157 450.101 809.337 449.089 809.337C448.077 809.337 447.256 810.157 447.256 811.17C447.256 812.182 448.077 813.002 449.089 813.002Z" fill="var(--color-illustration-secondary, #7F72FF)"/>
<path d="M426.902 817.138C427.838 817.138 428.597 816.379 428.597 815.442C428.597 814.506 427.838 813.747 426.902 813.747C425.965 813.747 425.206 814.506 425.206 815.442C425.206 816.379 425.965 817.138 426.902 817.138Z" fill="var(--color-illustration-secondary, #7F72FF)"/>
<path d="M337.32 630.987C339.208 633.956 341.542 636.617 344.239 638.876C345.817 640.219 348.159 637.994 346.552 636.553C344.079 634.259 341.786 631.779 339.692 629.135C338.594 627.773 336.379 629.537 337.291 630.987H337.32Z" fill="var(--color-illustration-secondary, #7F72FF)"/>
<path d="M298.12 669.657C280.989 687.297 261.938 703.291 242.26 718.02C221.807 733.377 200.424 748.165 177.835 760.16C164.538 767.317 150.538 773.08 136.057 777.359C135.208 777.765 134.767 778.717 135.006 779.627C135.246 780.537 136.098 781.148 137.037 781.083C162.929 774.223 186.655 760.876 208.803 746.146C230.104 732.117 250.514 716.78 269.915 700.223C280.411 691.178 290.584 681.731 300.148 671.715C301.481 670.333 299.384 668.236 298.041 669.608L298.12 669.657Z" fill="var(--color-illustration-secondary, #7F72FF)"/>
<path d="M126.424 785.611C128.923 785.611 128.923 781.691 126.424 781.691C123.925 781.691 123.925 785.611 126.424 785.611Z" fill="var(--color-illustration-secondary, #7F72FF)"/>
<path d="M286.213 655.252C247.754 688.898 205.902 718.457 161.332 743.452C149.229 750.312 136.832 756.28 124.307 762.375C122.465 763.277 124.082 765.854 125.895 765.09C149.062 755.29 171.426 742.55 192.731 729.173C214.661 715.462 235.831 700.57 256.147 684.563C267.181 675.861 277.909 666.783 288.33 657.329C289.761 656.026 287.644 653.938 286.213 655.212V655.252Z" fill="var(--color-illustration-secondary, #7F72FF)"/>
<path d="M113.145 769.265C114.118 769.194 114.872 768.384 114.872 767.408C114.872 766.432 114.118 765.622 113.145 765.551C110.764 765.551 110.754 769.265 113.145 769.265Z" fill="var(--color-illustration-secondary, #7F72FF)"/>
<path d="M279.843 639.483C265.339 655.585 247.748 669.412 229.706 681.319C208.146 695.52 185.489 708.034 162.753 720.167C149.699 727.134 136.479 733.798 123.445 740.805C121.299 741.972 123.19 745.147 125.356 744.069C148.954 732.309 172.219 719.843 195.151 706.672C215.957 694.726 236.311 682.103 255.02 667.002C264.726 659.344 273.803 650.922 282.166 641.816C283.577 640.238 281.264 637.896 279.843 639.483Z" fill="var(--color-illustration-secondary, #7F72FF)"/>
<path d="M110.489 749.9C111.469 749.9 112.263 749.106 112.263 748.126C112.263 747.147 111.469 746.353 110.489 746.353C109.509 746.353 108.715 747.147 108.715 748.126C108.715 749.106 109.509 749.9 110.489 749.9Z" fill="var(--color-illustration-secondary, #7F72FF)"/>
<path d="M280.754 604.86C268.877 608.623 260.478 617.815 252.56 626.978C243.945 637.069 234.639 646.549 224.708 655.349C204.578 672.839 182.227 687.594 158.235 699.234C144.386 705.838 130.206 711.726 115.752 716.874C113.792 717.579 114.595 720.647 116.614 720C141.974 711.727 166.224 700.376 188.821 686.2C211.192 672.461 231.495 655.609 249.12 636.151C258.597 625.567 267.456 612.347 281.578 607.731C283.381 607.143 282.616 604.311 280.794 604.889L280.754 604.86Z" fill="var(--color-illustration-secondary, #7F72FF)"/>
<path d="M101.679 724.479C104.1 724.479 104.109 720.706 101.679 720.706C100.69 720.777 99.9236 721.601 99.9236 722.593C99.9236 723.584 100.69 724.408 101.679 724.479Z" fill="var(--color-illustration-secondary, #7F72FF)"/>
<path d="M245.347 598.088C247.18 599.519 249.071 600.911 250.864 602.4C252.178 603.498 251.942 602.841 251.129 604.086C250.698 604.752 250.022 605.458 249.541 606.105C247.003 609.515 245.337 613.269 243.505 617.071C239.869 624.617 232.725 629.223 224.179 628.067C221.7 627.724 220.543 631.418 223.111 631.908C233.009 633.809 242.397 628.488 246.739 619.58C247.973 617.042 249.002 614.415 250.414 611.965C251.825 609.515 253.971 607.516 255.314 605.105C256.182 603.811 256.052 602.09 255 600.94C253.04 598.833 249.639 597.324 247.238 595.736C245.817 594.756 244.014 597.059 245.386 598.137L245.347 598.088Z" fill="var(--color-illustration-primary, #382C80)"/>
<path d="M769.97 550.313C769.642 560.294 769.848 570.284 770.588 580.243C787.159 582.497 803.976 591.571 810.219 607.095C812.284 589.443 812.871 571.65 811.973 553.9C797.91 554.449 783.826 553.968 769.833 552.46" fill="var(--color-illustration-primary, #382C80)"/>
<path d="M715.688 863.718C710.876 861.385 707.142 856.583 707.152 851.056C707.152 843.128 714.816 844.755 719.892 846.666C722.019 847.469 723.185 844.588 721.94 843.157C720.245 841.197 720.314 837.787 722.538 836.238C724.763 834.69 727.82 835.827 729.094 838.022C729.58 838.799 730.474 839.221 731.383 839.103C732.291 838.985 733.047 838.348 733.318 837.473C736.709 826.85 750.772 826.615 755.358 836.415C756.632 839.129 760.582 836.758 759.367 834.073C756.472 827.632 749.808 823.739 742.775 824.38C736.2 825.222 730.739 829.858 728.84 836.209L733.063 835.66C730.388 831.191 724.136 829.447 719.804 832.72C715.472 835.993 715.453 842.363 718.951 846.136L720.99 842.628C714.355 840.296 705.026 839.688 703.595 848.655C702.419 856.083 707.515 863.482 714.091 866.462C715.923 867.295 717.54 864.619 715.688 863.727V863.718Z" fill="var(--color-illustration-primary, #382C80)"/>
<path d="M803.251 878.672C796.12 870.965 790.115 862.288 785.415 852.898C784.627 851.562 784.173 850.056 784.092 848.507C784.22 843.607 790.952 841.863 795.764 842.931C800.534 843.988 804.95 846.26 808.582 849.526C803.996 839.187 804.89 827.238 810.964 817.696C811.381 816.902 812.045 816.266 812.855 815.883C814.541 815.275 816.187 816.814 817.246 818.264C821.456 824.095 824.089 830.914 824.89 838.06C828.388 828.937 832.426 819.156 840.805 814.109C842.069 813.355 843.666 812.718 844.97 813.413C846.097 814.011 846.538 815.373 846.812 816.618C848.607 825.032 846.993 833.814 842.324 841.04C845.636 837.727 849.184 834.278 853.702 833.082C858.219 831.886 863.982 833.925 865.128 838.472C866.108 842.314 863.58 846.087 861.208 849.252C863.825 845.224 869.352 842.902 873.664 844.999C877.976 847.096 879.113 854.172 875.075 856.759C877.819 854.123 881.982 853.638 885.258 855.571C888.534 857.505 890.12 861.384 889.138 865.059C892.328 862.764 896.669 862.928 899.677 865.457C902.685 867.986 903.592 872.234 901.878 875.771" fill="var(--color-illustration-base, #FFFFFF)"/>
<path d="M804.27 877.663C797.234 870.032 791.387 861.387 786.924 852.016C785.846 849.693 785.297 847.322 787.845 845.773C789.575 844.851 791.539 844.459 793.49 844.646C798.527 844.97 803.29 847.831 806.985 851.114C808.484 852.457 811.679 851.173 810.748 848.929C807.255 840.937 807.118 831.877 810.366 823.782C810.924 822.43 812.424 818.069 814.374 818.51C815.668 818.794 817.481 822.832 818.098 823.968C820.445 828.345 821.942 833.127 822.508 838.061C822.542 839.23 823.417 840.203 824.575 840.361C825.734 840.518 826.837 839.815 827.183 838.698C830.26 830.858 833.611 821.969 840.824 816.942C841.941 816.168 843.166 814.874 844.323 816.501C844.681 817.379 844.87 818.316 844.881 819.264C845.198 821.584 845.241 823.932 845.009 826.262C844.482 831.098 842.827 835.744 840.177 839.825C838.658 842.226 842.137 844.803 844.097 842.824C847.665 839.276 852.222 834.454 857.817 835.366C859.934 835.709 862.218 836.934 862.776 839.168C863.57 842.363 860.816 845.636 859.101 847.988L863.403 850.507C865.363 847.812 869.421 845.509 872.674 847.292C874.987 848.566 876.3 852.8 873.86 854.613L876.878 858.533C878.844 856.788 881.713 856.515 883.972 857.859C886.231 859.202 887.361 861.853 886.767 864.413C886.345 866.432 888.491 868.451 890.432 867.226C896.067 863.688 901.937 869.186 899.487 875.124C898.282 878.064 903.074 879.358 904.279 876.447C908.464 866.324 896.998 857.21 887.913 862.923L891.578 865.736C892.721 861.005 890.64 856.083 886.451 853.605C882.262 851.128 876.946 851.676 873.35 854.956C871.234 856.789 874.085 860.581 876.379 858.876C881.279 855.201 881.22 847.645 876.379 843.774C870.685 839.188 862.796 842.686 859.062 847.949C857.19 850.595 861.483 853.006 863.364 850.468C866.02 846.881 868.793 842.451 867.539 837.728C866.636 834.678 864.342 832.236 861.355 831.142C853.153 827.849 846.057 833.739 840.579 839.198L844.499 842.206C848.004 836.623 849.89 830.178 849.948 823.586C849.948 819.225 849.791 810.768 843.764 810.621C838.511 810.503 833.494 816.609 830.769 820.421C827.153 825.517 824.821 831.456 822.626 837.277L827.32 838.1C826.551 831.633 824.424 825.401 821.077 819.813C818.431 815.491 813.472 810.405 809.317 816.197C802.261 825.948 801.84 840.001 806.72 850.703L810.17 847.9C805.603 844.068 799.576 840.795 793.51 840.579C789.286 840.432 783.876 842.059 782.544 846.587C781.809 849.105 782.808 851.487 783.935 853.741C785.493 856.789 787.218 859.778 789.061 862.669C792.922 868.726 797.341 874.408 802.261 879.642C803.525 880.995 805.515 878.986 804.29 877.623L804.27 877.663Z" fill="var(--color-illustration-primary, #382C80)"/>
<path d="M661.063 873.684C679.036 874.337 697.003 874.664 714.963 874.664C723.855 874.664 732.74 874.579 741.619 874.409C750.684 874.243 759.886 874.409 768.893 873.331C773.597 872.792 773.842 866.011 768.893 865.815C759.828 865.462 750.694 866.158 741.619 866.393C732.74 866.628 723.855 866.788 714.963 866.873C696.983 867.05 679.017 866.981 661.063 866.667C656.536 866.579 656.555 873.527 661.063 873.684Z" fill="var(--color-illustration-primary, #382C80)"/>
<path d="M374.109 390.103C375.631 390.867 377.089 391.752 378.47 392.749C380.283 393.984 382.145 390.858 380.195 389.809C378.676 388.986 377.108 388.368 375.53 387.692C374.846 387.308 373.98 387.533 373.57 388.202C373.372 388.528 373.314 388.92 373.41 389.29C373.506 389.659 373.748 389.974 374.08 390.162L374.109 390.103Z" fill="var(--color-illustration-primary, #382C80)"/>
<path d="M375.462 396.639C376.494 396.755 377.504 397.019 378.46 397.423C379.289 397.636 380.148 397.21 380.48 396.422C380.811 395.633 380.515 394.721 379.783 394.278C379.053 393.938 378.272 393.719 377.471 393.631C376.802 393.587 376.13 393.587 375.462 393.631C374.672 393.694 374.064 394.353 374.064 395.145C374.064 395.936 374.672 396.595 375.462 396.659V396.639Z" fill="var(--color-illustration-primary, #382C80)"/>
<path d="M382.694 397.865C382.869 399.098 383.303 400.281 383.968 401.334C384.556 402.393 384.948 402.824 383.811 403.412C383.275 403.737 382.947 404.318 382.947 404.945C382.947 405.573 383.275 406.154 383.811 406.479C385.879 407.743 388.172 405.911 388.398 403.755C388.472 402.655 388.194 401.56 387.604 400.629C386.957 399.541 386.006 398.737 385.752 397.453C385.428 395.748 382.508 396.111 382.694 397.865Z" fill="var(--color-illustration-primary, #382C80)"/>
<path d="M373.678 409.193C373.219 408.811 372.828 408.354 372.522 407.841C372.413 407.648 372.318 407.449 372.237 407.243C372.173 407.073 372.117 406.899 372.071 406.724C372.071 406.41 372.002 406.381 371.973 406.645C371.943 406.91 371.689 407.223 371.208 407.292C371.154 407.311 371.096 407.311 371.042 407.292C371.042 407.194 371.042 407.184 371.15 407.39C371.445 407.953 371.772 408.5 372.13 409.027L373.433 405.832C372.012 406.077 370.062 407.282 370.277 408.948C370.327 410.01 371.176 410.859 372.237 410.908C372.86 410.906 373.463 410.688 373.943 410.291C374.135 410.161 374.347 410.062 374.57 409.997C375.312 409.786 375.889 409.201 376.09 408.456C376.29 407.712 376.085 406.916 375.55 406.361C374.57 405.43 374.07 404.303 372.747 403.833C371.492 403.333 370.057 403.687 369.18 404.715C367.367 407.057 370.023 410.232 371.943 411.506C373.306 412.408 374.972 410.301 373.707 409.213L373.678 409.193Z" fill="var(--color-illustration-primary, #382C80)"/>
<path d="M384.948 394.063C386.267 392.95 387.352 391.588 388.143 390.055C389.123 388.34 386.79 386.448 385.379 387.918C384.13 389.11 383.13 390.54 382.439 392.122C381.939 393.455 383.782 394.955 384.968 394.082L384.948 394.063Z" fill="var(--color-illustration-primary, #382C80)"/>
<path d="M253.138 868.794C250.991 866.951 249.261 864.673 248.062 862.11C247.023 859.827 245.494 853.104 250.57 855.535C255.551 857.993 259.473 862.17 261.615 867.295C262.419 869.313 265.868 869.255 265.731 866.746C265.37 860.38 265.475 853.996 266.045 847.646L262.84 849.459C266.733 850.941 269.069 854.933 268.455 859.053C268.249 859.798 268.456 860.598 268.998 861.15C269.541 861.701 270.337 861.922 271.086 861.728C271.835 861.534 272.424 860.955 272.63 860.209C273.885 857.112 276.697 850.576 281.078 851.644C287.516 853.202 283.381 862.522 281.715 865.893C280.47 868.412 284.194 870.627 285.498 868.108C287.556 864.188 289.672 859.729 288.8 855.133C288.193 851.948 286.184 848.812 283.038 847.655C275.58 844.911 270.592 853.251 268.455 859.053L272.63 860.209C273.768 853.994 270.359 847.841 264.486 845.509C263.085 844.911 261.889 846.362 261.772 847.577C261.176 853.927 261.104 860.315 261.556 866.677L265.476 865.619C263.328 861.573 260.369 858.013 256.784 855.162C254.089 853.104 249.924 850.125 246.435 851.791C243.495 853.202 243.093 857.034 243.74 859.886C244.892 864.261 247.391 868.162 250.884 871.038C252.442 872.391 254.735 870.146 253.167 868.755L253.138 868.794Z" fill="var(--color-illustration-primary, #382C80)"/>
<path d="M522.707 260.195C492.361 221.132 464.756 180.014 440.093 137.136L439.377 139.88C449.652 135.263 458.977 128.772 466.876 120.741L463.573 120.31C479.944 158.336 498.865 195.212 520.208 230.687C523.148 235.587 526.627 240.409 529.155 245.563C531.282 249.895 532.32 256.343 527.077 258.862C524.529 260.107 526.754 263.762 529.282 262.645C537.632 258.774 535.79 248.386 532.144 241.888C526.705 232.186 520.531 222.857 514.965 213.214C503.623 193.614 493.026 173.586 483.173 153.13C477.607 141.598 472.286 129.949 467.209 118.183C466.66 116.919 464.759 116.889 463.897 117.762C456.246 125.518 447.255 131.826 437.358 136.382C436.412 136.943 436.089 138.159 436.633 139.116C461.967 181.904 490.064 222.995 520.747 262.125C521.854 263.527 523.785 261.547 522.707 260.165V260.195Z" fill="var(--color-illustration-primary, #382C80)"/>
<path d="M531.899 277.129C527.965 281.096 527.075 287.164 529.704 292.094C532.458 297.104 538.455 299.355 543.825 297.395C549.235 295.592 553.067 290.535 552.322 284.753C551.495 278.529 546.378 273.761 540.111 273.376C537.22 273.229 537.25 277.678 540.111 277.844C544.242 278.223 547.551 281.43 548.059 285.547C548.5 289.418 545.531 292.564 541.993 293.593C533.633 296.033 528.626 285.381 534.3 279.501C534.898 278.839 534.873 277.826 534.244 277.194C533.615 276.562 532.602 276.534 531.938 277.129H531.899Z" fill="var(--color-illustration-primary, #382C80)"/>
<path d="M568.6 232.744L571.158 245.739C571.609 248.013 575.078 247.052 574.647 244.759L571.961 231.804C571.501 229.599 568.169 230.539 568.6 232.725V232.744Z" fill="var(--color-illustration-primary, #382C80)"/>
<path d="M588.2 227.06C588.2 231.823 587.965 236.596 588.092 241.349C588.16 242.259 588.919 242.963 589.832 242.963C590.744 242.963 591.503 242.259 591.571 241.349C591.689 236.596 591.502 231.823 591.453 227.06C591.453 226.162 590.725 225.434 589.827 225.434C588.928 225.434 588.2 226.162 588.2 227.06Z" fill="var(--color-illustration-primary, #382C80)"/>
<path d="M606.369 234.42C605.046 238.732 603.547 243.025 602.567 247.425C602.346 248.279 602.851 249.153 603.701 249.388C604.552 249.623 605.433 249.133 605.683 248.287C607.3 244.073 608.408 239.663 609.672 235.332C610.289 233.205 607.026 232.323 606.369 234.42Z" fill="var(--color-illustration-primary, #382C80)"/>
<path d="M512.407 322.19C515.925 321.151 519.365 319.602 522.775 318.27C524.814 317.466 523.941 314.134 521.854 314.938C518.297 316.31 514.582 317.554 511.162 319.23C509.506 320.043 510.662 322.709 512.407 322.17V322.19Z" fill="var(--color-illustration-primary, #382C80)"/>
<path d="M526.205 338.692C528.038 336.419 529.822 334.106 531.595 331.832C532.762 330.303 530.165 328.285 528.92 329.764C527.146 331.891 525.382 334.018 523.657 336.183C522.985 336.9 522.985 338.015 523.657 338.731C524.364 339.429 525.499 339.429 526.205 338.731V338.692Z" fill="var(--color-illustration-primary, #382C80)"/>
<path d="M544.404 353.334C545.256 353.268 545.914 352.557 545.914 351.702C545.914 350.847 545.256 350.136 544.404 350.07C543.551 350.136 542.894 350.847 542.894 351.702C542.894 352.557 543.551 353.268 544.404 353.334Z" fill="var(--color-illustration-primary, #382C80)"/>
</svg>
