<svg width="1000" height="1000" viewBox="0 0 1000 1000" fill="none" xmlns="http://www.w3.org/2000/svg">
<path d="M658.103 203.188C664.147 200.881 670.907 201.41 676.518 204.628C682.092 207.963 685.569 213.922 685.73 220.416C685.618 223.873 684.822 227.274 683.387 230.422C679.82 238.977 673.489 246.788 664.836 250.1C661.132 251.521 656.692 251.982 653.39 249.787C650.087 247.591 648.882 243.652 648.284 239.879C647.059 232.176 647.892 224.258 649.675 216.673" fill="var(--color-illustration-primary, #382C80)"/>
<path d="M658.907 206.089C666.208 203.678 675.998 208.049 679.183 214.909C682.544 222.151 678.115 231 673.617 236.802C671.307 239.832 668.381 242.337 665.032 244.152C662.415 245.534 658.015 247.209 655.614 244.661C653.213 242.113 653.164 236.949 653.076 233.715C652.996 228.442 653.546 223.178 654.712 218.035C656.094 211.498 646.245 208.686 644.638 215.261C642.736 222.383 642.043 229.774 642.59 237.125C643.178 243.28 644.618 249.865 649.861 253.785C660.191 261.459 674.361 252.805 681.221 244.387C688.924 234.94 694.53 221.23 688.209 209.656C683.875 201.494 675.042 196.756 665.845 197.661C662.69 197.925 660.249 199.229 657.339 200.287C653.752 201.6 655.222 207.323 658.936 206.089H658.907Z" fill="var(--color-illustration-primary, #382C80)"/>
<path d="M713.708 436.536C718.942 484.918 707.828 534.692 686.896 576.558C665.963 618.424 635.622 652.792 601.92 680.32C598.98 682.702 595.932 685.22 594.511 689.14C591.267 697.911 593.325 716.816 593.453 726.616C593.737 747.617 596.794 769.099 598.353 790.041C601.449 832.312 604.252 874.605 606.761 916.922C607.114 922.802 607.437 928.819 605.859 934.385C599.499 956.876 570.187 954.113 554.566 955.152C526.068 957.046 497.487 957.373 468.953 956.132C458.869 955.7 446.413 952.907 443.64 941.294C441.425 931.886 447.56 922.371 454.724 917.598C461.888 912.825 470.149 910.905 477.176 905.897C489.563 897.077 496.207 879.613 497.756 862.453C499.304 845.294 496.403 828.065 493.836 811.092C486.77 764.728 481.664 716.816 489.769 670.687C504.135 588.975 558.182 489.759 649.205 421.091" fill="var(--color-illustration-base, #FFFFFF)"/>
<path d="M710.7 436.535C715.375 482.292 705.967 528.979 686.024 570.286C667.316 609.035 639.572 642.806 607.055 670.746C600.019 676.802 591.464 681.869 589.572 691.639C587.936 700.136 588.514 708.995 588.906 717.59C589.386 728.174 589.523 738.748 590.356 749.322C591.336 761.533 592.698 773.704 593.669 785.915C595.707 811.483 597.265 837.101 598.892 862.698C599.696 875.288 600.47 887.884 601.215 900.487C601.597 906.788 602.018 913.1 602.332 919.411C602.587 924.693 602.743 930.191 600.754 935.218C595.482 948.478 578.557 949.595 566.356 950.055C545.061 950.869 523.814 952.192 502.489 952.172C490.504 952.172 478.342 952.27 466.386 951.251C459.526 950.663 450.706 948.478 448.442 940.971C445.385 930.691 454.714 922.351 462.917 918.431C472.384 913.815 481.537 910.277 488.289 901.771C502.009 884.601 504.106 861.277 502.382 840.158C500.363 815.462 495.208 791.06 492.758 766.394C490.308 741.727 489.367 717.08 491.611 692.502C493.409 673.901 497.019 655.52 502.391 637.622C512.74 602.557 528.489 569.188 548.02 538.308C569.953 503.607 596.625 472.139 627.263 444.816C635.044 437.878 643.061 431.155 651.381 424.854C655.83 421.492 651.459 413.878 646.951 417.288C612.664 443.1 582.31 473.758 556.84 508.301C533.579 539.83 514.824 574.446 501.117 611.152C486.668 649.683 479.803 690.643 480.9 731.78C481.596 757.417 484.732 782.916 488.524 808.22C492.062 831.867 497.07 856.906 489.152 880.221C486.035 889.413 480.704 898.311 472.207 903.398C462.946 908.964 452.127 911.287 445.071 920.058C438.711 927.966 435.967 939.177 441.465 948.331C445.904 955.73 454.342 959.003 462.515 960.159C474.216 961.806 486.427 961.404 498.207 961.463C511.273 961.534 524.356 961.273 537.456 960.679C546.717 960.257 555.958 959.64 565.219 959.307C572.579 959.042 580.086 958.562 587.22 956.612C594.531 954.652 601.313 950.888 605.84 944.714C611.995 936.414 611.857 925.977 611.269 916.128C609.701 889.994 607.993 863.861 606.144 837.728C604.37 811.934 602.459 786.16 599.96 760.396C598.794 748.371 598.098 736.376 597.657 724.293C597.344 715.385 596.432 706.437 597.118 697.529C597.451 693.276 598.196 689.454 601.322 686.337C604.87 682.8 609.025 679.791 612.798 676.537C621.05 669.351 628.965 661.805 636.544 653.899C651.732 638.063 665.231 620.689 676.822 602.057C701.096 562.857 715.904 517.542 717.854 471.355C718.34 459.746 717.957 448.117 716.708 436.565C716.296 432.762 710.298 432.704 710.69 436.565L710.7 436.535Z" fill="var(--color-illustration-primary, #382C80)"/>
<path d="M649.126 421.07C558.104 489.739 504.086 588.954 489.69 670.667C481.586 716.795 478.646 751.262 485.721 797.626C488.308 814.599 493.561 829.887 498.618 852.829L562.112 849.86C586.191 848.723 614.052 855.269 615.287 822.42C615.365 820.283 615.287 818.127 615.199 815.991C614.219 799.184 611.279 782.573 608.221 766.011C604.451 745.267 600.675 724.518 596.892 703.761C595.364 695.431 592.737 689.894 598.676 683.181C604.615 676.468 612.955 671.137 619.56 665.002C646.853 639.65 670.206 609.936 686.896 576.567C707.848 534.701 718.942 484.927 713.708 436.545" fill="var(--color-illustration-secondary, #7F72FF)"/>
<path d="M647.608 418.474C595.848 457.275 553.285 507.016 522.952 564.151C509.592 589.165 499.039 615.58 491.484 642.914C487.69 657.493 484.707 672.271 482.546 687.18C479.703 704.529 477.962 722.041 477.333 739.61C476.806 760.117 478.24 780.626 481.615 800.86C484.555 818.824 490.239 836.277 494.14 854.045C494.703 856.056 496.53 857.451 498.618 857.465C520.315 856.485 542.003 855.181 563.71 854.456C575.529 854.064 587.994 855.632 599.519 852.281C612.631 848.478 618.913 837.581 619.942 824.488C620.736 814.316 619.109 803.82 617.708 793.765C616.228 783.103 614.268 772.519 612.337 761.925C608.476 740.688 605.095 719.285 600.636 698.156C600.019 695.216 599.156 692.021 600.372 689.14C602.047 685.152 606.663 681.859 609.897 679.164C617.12 673.166 624.244 667.335 630.928 660.72C658.005 633.947 680.908 602.538 696.372 567.669C714.542 526.715 723.097 481.194 718.089 436.516C717.472 430.989 708.769 430.861 709.318 436.516C716.913 513.72 685.142 589.396 632.721 645.138C626.657 651.747 620.242 658.024 613.504 663.944C606.644 669.824 598.176 674.901 593.12 682.564C588.425 689.66 590.807 697.343 592.267 705.026C594.227 715.159 595.971 725.312 597.814 735.406C601.665 756.603 606.163 777.801 608.849 799.184C609.985 808.21 611.524 818.01 610.113 827.095C609.319 832.201 607.379 837.257 603.037 840.344C598.696 843.431 592.855 844.264 587.602 844.666C580.742 845.137 573.804 844.843 566.914 844.941C544.169 845.284 521.354 847.057 498.618 848.145L503.107 851.556C499.608 835.768 494.816 820.274 491.592 804.418C488.297 787.496 486.526 770.313 486.3 753.075C485.623 720.353 489.886 686.886 497.295 655.075C510.319 599.108 537.475 546.295 572.687 501.098C595.232 472.043 621.435 446.021 650.646 423.678C653.674 421.365 650.724 416.151 647.608 418.484V418.474Z" fill="var(--color-illustration-primary, #382C80)"/>
<path d="M751.86 370.943C775.38 398.207 788.316 433.36 793.5 468.943C802.075 527.881 797.087 592.022 770.059 645.53C768.334 648.93 766.521 652.537 766.746 656.653C767.246 666.031 776.595 682.427 780.584 691.325C789.13 710.386 800.409 728.712 810.072 747.185C829.581 784.484 848.854 821.926 867.892 859.513C870.528 864.716 873.214 870.097 873.968 875.839C877.036 899.056 849.184 908.865 835.337 916.382C810.087 930.078 784.115 942.398 757.534 953.289C748.156 957.13 735.641 959.835 728.566 950.349C722.823 942.685 724.695 931.396 729.32 924.036C733.946 916.676 740.776 911.443 745.206 903.916C753.046 890.637 752.203 871.91 746.803 855.602C741.404 839.295 731.986 824.772 722.921 810.366C698.146 770.999 674.577 729.398 663.758 683.857C655.852 651.136 653.699 617.288 657.398 583.829C658.594 573.47 659.975 561.544 653.057 553.949" fill="var(--color-illustration-base, #FFFFFF)"/>
<path d="M749.724 373.07C774.018 401.706 786.258 438.26 790.815 475.049C795.48 512.818 794.608 551.666 785.915 588.827C781.799 606.942 775.6 624.519 767.442 641.208C765.541 645.05 763.346 648.852 762.66 653.135C762.207 656.855 762.595 660.629 763.796 664.179C766.011 671.647 769.598 678.723 773.008 685.739C776.84 693.579 780.368 701.537 784.367 709.259C789.12 718.452 794.167 727.458 799.184 736.533C809.513 755.339 819.157 774.547 828.986 793.618C838.982 812.963 848.88 832.341 858.68 851.751C862.816 859.925 869.166 869.127 869.46 878.574C869.546 884.206 867.347 889.633 863.364 893.617C855.24 902.28 843.706 906.612 833.435 912.061C815.099 921.772 796.626 931.102 777.663 939.501C768.902 943.421 760.023 947.84 750.811 950.584C744.373 952.495 736.337 953.377 732.015 947.086C727.546 940.608 730.055 931.514 734.024 925.526C738.924 918.117 746.205 912.551 750.302 904.505C758.426 888.56 756.486 868.941 750.723 852.565C744.236 834.141 733.083 817.951 722.911 801.477C702.115 768.01 682.731 733.103 671.608 695.079C665.786 675.008 662.171 654.361 660.828 633.505C660.134 622.945 660.032 612.354 660.524 601.783C660.965 592.306 662.484 582.879 662.758 573.363C663.013 565.111 661.553 557.261 656.065 550.823C652.39 546.521 646.206 552.783 649.862 557.016C655.457 563.553 653.909 573.794 652.988 581.634C651.726 591.954 651.006 602.334 650.832 612.729C650.659 634.333 652.808 655.892 657.241 677.037C665.502 716.874 683.358 753.8 703.928 788.63C714.13 805.917 725.87 822.449 735.033 840.315C743.383 856.593 749.733 876.506 743.991 894.685C741.149 903.682 734.191 909.611 728.556 916.794C723.391 923.331 719.804 931.151 720.128 939.657C720.451 948.164 725.028 956.425 733.191 959.826C740.188 962.766 748.195 961.541 755.182 959.159C764.894 955.857 774.361 951.319 783.7 947.096C793.265 942.803 802.738 938.321 812.12 933.65C821.283 929.093 830.25 924.193 839.325 919.469C844.519 916.765 849.85 914.315 854.946 911.394C866.255 904.916 877.28 895.714 878.643 881.857C879.564 872.478 875.291 863.952 871.175 855.838C866.255 846.123 861.316 836.424 856.357 826.742C846.237 806.946 836.032 787.192 825.742 767.481C815.785 748.391 805.329 729.594 795.117 710.641C790.501 702.086 786.454 693.305 782.181 684.573C778.81 677.713 775.125 670.853 772.665 663.542C771.685 660.602 770.588 657.319 771.117 654.125C771.94 649.166 775.331 644.325 777.389 639.807C781.281 631.298 784.687 622.575 787.591 613.68C799.517 576.656 802.908 537.113 800.203 498.432C797.587 460.908 789.659 423.197 769.902 390.72C765.201 383.009 759.874 375.696 753.977 368.856C751.439 365.916 747.234 370.179 749.724 373.11V373.07Z" fill="var(--color-illustration-primary, #382C80)"/>
<path d="M653.007 554.027C659.926 561.622 658.544 573.549 657.349 583.907C653.65 617.367 655.802 651.214 663.709 683.936C674.489 729.476 698.097 771.077 722.872 810.444C727.527 817.853 732.28 825.281 736.533 832.984L736.68 832.915L798.9 806.455C808.955 802.183 820.205 798.723 829.731 793.363C842.334 786.258 839.531 765.648 834.758 753.506C831.269 744.549 825.625 736.621 819.911 728.898C809.915 715.374 799.537 702.147 788.777 689.218C780.78 679.614 767.432 669.785 766.736 656.662C766.521 652.546 768.324 648.93 770.049 645.539C797.077 592.031 802.065 527.939 793.49 468.953C788.306 433.36 775.38 398.207 751.86 370.943" fill="var(--color-illustration-secondary, #7F72FF)"/>
<path d="M650.92 556.154C656.575 562.818 655.516 572.578 654.615 580.654C653.527 590.454 652.596 600.254 652.341 610.054C651.865 630.395 653.474 650.732 657.143 670.745C664.072 708.965 679.585 744.715 698.617 778.427C709.465 797.655 722.019 815.902 732.711 835.208C733.563 836.757 735.994 838.011 737.758 837.267C757.632 828.891 777.503 820.495 797.371 812.081C806.691 808.16 816.324 804.907 825.536 800.683C832.632 797.439 838.512 793.686 841.432 786.15C846.724 772.43 841.844 755.505 835.14 743.216C830.309 734.396 823.978 726.34 817.922 718.314C811.513 709.821 804.956 701.455 798.253 693.216C792.814 686.523 786.993 680.359 781.191 674.008C776.291 668.658 769.902 661.062 771.97 653.223C773.057 649.087 775.654 645.167 777.448 641.306C779.525 636.837 781.466 632.306 783.269 627.713C786.887 618.522 789.953 609.124 792.452 599.568C802.32 562.102 804.212 522.647 800.233 484.192C795.852 441.935 783.298 400.402 754.986 367.827C751.262 363.535 745.186 369.787 748.783 374.03C772.371 402.098 784.582 437.868 789.394 473.814C794.382 511.054 793.882 549.431 785.817 586.191C781.903 604.515 775.875 622.323 767.854 639.258C763.934 647.352 760.219 654.506 763.257 663.63C765.786 671.215 771.097 677.35 776.556 683.064C789.59 696.784 801.242 711.768 812.61 726.909C822.567 740.178 833.073 754.084 834.062 771.273C834.425 777.506 833.768 785.082 828.182 788.913C819.529 794.793 808.455 797.557 798.861 801.546C777.301 810.522 755.839 819.891 734.338 829.093L740.463 830.701C730.721 813.315 719.363 796.871 709.308 779.662C699.425 763.035 690.566 745.82 682.78 728.114C666.683 690.856 658.578 650.638 658.985 610.054C659.113 599.058 660.357 588.249 661.23 577.312C661.945 568.286 661.367 559.015 655.203 551.881C652.655 548.941 648.46 553.204 650.949 556.134L650.92 556.154Z" fill="var(--color-illustration-primary, #382C80)"/>
<path d="M531.919 533.075C542.797 530.135 550.852 521.237 558.065 512.603C585.511 479.758 610.41 444.867 632.545 408.233C647.412 383.615 661.269 357.469 664.885 328.921C667.114 311.052 665.223 292.91 659.358 275.884C654.458 261.791 645.824 247.464 632.535 239.928C617.708 231.519 609.015 240.29 597.255 250.325C573.451 270.739 556.232 297.503 537.72 322.483C489.22 387.829 432.948 447.256 374.315 503.989L407.88 550.225" fill="var(--color-illustration-base, #FFFFFF)"/>
<path d="M532.771 536.172C543.1 533.232 550.999 525.921 557.908 518.032C566.268 508.507 574.196 498.589 581.948 488.574C597.399 468.581 611.932 447.93 625.548 426.618C638.719 405.93 651.733 384.723 660.397 361.683C669.06 338.643 671.97 314.202 667.139 290.035C662.984 269.269 652.792 245.524 632.702 235.626C623.323 231.01 614.082 232.333 605.683 238.281C596.53 244.769 588.102 252.776 580.409 260.91C563.965 278.295 550.539 298.208 536.397 317.446C521.462 337.761 505.704 357.459 489.357 376.677C456.38 415.554 421.286 452.519 384.909 488.24C380.479 492.578 376.037 496.91 371.581 501.235C370.35 502.487 370.102 504.405 370.973 505.929L404.548 552.166C407.439 556.086 414.113 552.293 411.202 548.246C400.024 532.827 388.845 517.408 377.667 501.99L377.059 506.684C411.78 473.109 445.659 438.613 477.793 402.51C493.82 384.497 509.248 365.975 524.079 346.944C538.338 328.677 551.519 309.635 565.493 291.152C572.377 281.893 579.812 273.057 587.759 264.692C591.679 260.648 595.762 256.781 600.009 253.089C603.929 249.698 607.78 246.082 612.22 243.387C621.363 237.821 630.36 241.888 637.759 248.542C645.314 255.333 650.744 264.369 654.419 273.787C663.052 296.141 663.993 320.827 658.015 343.974C652.194 366.514 640.855 387.094 628.909 406.851C616.365 427.634 602.946 447.858 588.651 467.523C581.507 477.372 574.117 487.035 566.581 496.59C559.721 505.361 552.861 514.789 544.492 522.237C540.66 525.77 536.086 528.402 531.105 529.939C527.185 531.105 528.822 537.26 532.81 536.133L532.771 536.172Z" fill="var(--color-illustration-primary, #382C80)"/>
<path d="M640.728 234.42C655.575 234.116 671.667 234.969 685.436 240.967C730.516 260.567 757.466 317.946 770.225 362.251C776.017 382.381 780.888 404.529 796.871 418.053C798.684 419.591 800.674 421.051 801.771 423.158C804.545 428.45 800.517 434.771 796.038 438.721C783.063 450.157 765.502 454.528 748.685 458.527L704.82 468.973C671.206 476.96 626.616 484.849 606.016 449.373C596.167 432.39 594.315 412.026 593.864 392.396C593.414 372.767 594.08 352.765 588.523 333.929" fill="var(--color-illustration-base, #FFFFFF)"/>
<path d="M640.728 237.507C652.066 237.419 663.405 237.977 674.42 240.908C683.45 243.468 691.954 247.608 699.537 253.138C714.022 263.35 725.694 277.334 735.2 292.24C744.746 307.412 752.632 323.567 758.72 340.427C764.992 357.459 768.52 375.403 775.066 392.318C778.486 401.138 782.906 409.634 789.266 416.7C790.828 418.409 792.501 420.013 794.274 421.502C795.793 422.786 797.988 424.187 798.38 426.284C799.223 430.802 793.794 435.271 790.736 437.623C782.465 444.013 772.498 447.727 762.542 450.559C751.507 453.705 740.237 456.086 729.065 458.722C710.739 463.054 692.325 468.307 673.558 470.482C658.319 472.227 641.6 472.246 627.772 464.72C610.73 455.449 603.37 436.555 600.44 418.297C596.804 395.64 599.46 372.492 596.265 349.776C595.449 344.06 594.157 338.421 592.404 332.92C590.885 328.118 583.584 330.088 584.819 335.017C591.012 359.066 588.121 384.017 590.238 408.468C592.031 429.175 597.51 452.009 614.042 466.082C642.158 490.014 683.622 478.724 715.678 471.08C728.242 468.081 740.815 465.112 753.359 462.064C764.07 459.457 774.782 456.517 784.719 451.588C793.382 447.276 804.319 440.387 806.7 430.263C809.229 419.385 797.469 414.132 792 406.596C780.329 390.407 777.3 369.66 771.156 351.069C765.386 333.137 757.859 315.818 748.684 299.365C739.345 282.832 727.85 266.956 713.336 254.569C706.501 248.627 698.925 243.597 690.796 239.604C680.565 234.704 669.726 232.44 658.456 231.696C652.576 231.304 646.696 231.313 640.816 231.48C636.896 231.588 636.896 237.625 640.816 237.595L640.728 237.507Z" fill="var(--color-illustration-primary, #382C80)"/>
<path d="M595.285 136.803C594.025 138.416 593.108 140.271 592.59 142.252C592.105 144.273 592.723 146.401 594.217 147.847C591.53 146.908 588.552 147.355 586.259 149.043C585.208 149.765 584.466 150.857 584.182 152.101C583.916 153.359 584.526 154.64 585.671 155.227C583.535 153.051 579.399 154.443 578.155 157.187C576.91 159.931 577.919 163.312 579.674 165.811C582.574 169.828 587.053 172.414 591.982 172.916C596.902 173.361 601.812 171.964 605.761 168.996C606.281 168.631 606.743 168.192 607.133 167.692C607.562 167.031 607.877 166.302 608.064 165.536C610.386 157.796 612.025 149.867 612.964 141.84" fill="var(--color-illustration-primary, #382C80)"/>
<path d="M592.228 135.009C588.837 139.752 586.798 144.809 590.111 150.248L596.608 143.75C591.709 141.335 585.824 142.218 581.849 145.965C577.537 150.218 578.174 156.343 582.976 159.803C587.778 163.262 593.933 155.451 589.454 151.414C582.663 145.279 572.52 150.649 572.079 159.362C571.618 168.309 579.919 175.728 587.925 177.825C595.344 179.785 607.182 177.962 611.543 170.818C613.944 166.898 614.64 161.586 615.601 157.157C616.775 152.118 617.59 147.003 618.041 141.849C618.443 136.253 609.123 134.891 608.133 140.516C607.153 145.818 606.477 151.13 605.193 156.373C604.683 158.333 604.213 162.556 602.968 164.134C601.871 165.477 599.323 166.378 597.755 166.839C594.014 168.025 589.934 167.39 586.73 165.124C585.309 164.085 583.702 162.478 583.329 160.685C583.261 160.371 583.123 159.705 583.114 159.636C583.201 159.541 583.329 159.493 583.457 159.509C582.957 159.391 582.8 159.509 582.996 159.803L588.386 150.571C588.268 153.237 588.729 154.03 589.768 152.952C590.061 152.737 590.394 152.584 590.748 152.502C591.89 152.304 593.059 152.337 594.188 152.6C599.313 153.197 599.999 146.132 596.579 143.78C595.462 143.005 597.931 139.223 598.313 138.625C600.822 134.705 594.805 131.392 592.198 135.038L592.228 135.009Z" fill="var(--color-illustration-primary, #382C80)"/>
<path d="M571.599 108.597C557.966 106.668 545.34 116.129 543.365 129.756C554.017 129.481 564.543 131.853 574.94 134.215L597.872 139.409C603.373 140.553 608.807 141.996 614.15 143.73C615.503 144.201 617.531 144.358 617.835 142.966C617.899 142.508 617.827 142.041 617.629 141.623C613.592 130.775 603.174 123.827 593.217 117.917" fill="var(--color-illustration-primary, #382C80)"/>
<path d="M572.598 104.982C564.523 103.591 556.918 104.375 550.156 109.353C543.909 113.914 539.754 120.792 538.621 128.443C538.2 131.383 539.827 134.823 543.365 134.676C555.409 134.167 567.365 137.616 578.988 140.311C590.111 142.879 601.185 145.388 612.112 148.71C616.335 149.994 621.725 149.494 623.088 144.417C624.264 140.047 620.677 134.755 618.188 131.423C612.435 123.661 604.223 118.006 595.893 113.293C589.866 109.882 584.632 118.898 590.483 122.554C595.06 125.415 599.724 128.159 603.782 131.756C605.603 133.319 607.277 135.048 608.78 136.92C609.838 138.283 612.327 141.556 612.366 142.967L613.111 140.213C616.571 139.419 617.394 138.861 615.551 138.537C614.738 138.273 613.905 138.008 613.082 137.763C611.837 137.401 610.583 137.058 609.328 136.734C606.388 135.98 603.448 135.343 600.508 134.715C594.227 133.373 587.955 131.952 581.673 130.56C568.933 127.738 556.448 125.004 543.365 124.827L548.118 131.06C550.293 120.055 560.054 111.636 571.638 112.342C575.793 112.597 576.822 105.707 572.618 104.982H572.598Z" fill="var(--color-illustration-primary, #382C80)"/>
<path d="M671.5 245.915C670.049 221.543 669.785 191.368 668.334 166.996C667.933 160.234 667.354 153.05 663.327 147.631C659.465 142.476 653.125 139.879 646.961 137.988C635.779 134.568 615.042 126.943 607.555 138.419C599.48 150.806 596.383 170.416 594.325 184.783C593.217 192.525 592.796 201.021 597.088 207.558C600.94 213.438 607.986 216.545 614.964 217.299C618.256 217.652 621.961 216.613 621.824 221.307C621.618 229.147 620.305 267.955 620.099 275.795" fill="var(--color-illustration-base, #FFFFFF)"/>
<path d="M674.685 245.915C673.274 218.475 673.989 190.957 671.853 163.595C671.363 157.362 670.344 150.914 666.61 145.71C663.15 140.888 658.015 137.978 652.596 135.841C643.413 132.235 633.064 128.981 623.196 128.403C618.619 128.139 613.758 128.697 609.711 131C605.262 133.538 602.714 138.135 600.617 142.633C595.325 153.981 592.904 166.417 590.993 178.707C589.141 190.555 587.073 204.559 596.726 213.791C601.187 217.87 606.781 220.502 612.769 221.337C614.57 221.703 616.41 221.851 618.247 221.778C617.267 221.876 617.963 220.631 617.522 221.944C617.428 222.537 617.409 223.14 617.463 223.738C616.924 241.093 616.306 258.449 615.846 275.805C615.699 281.352 624.303 281.342 624.45 275.805C624.832 261.105 625.43 246.405 625.91 231.705C626.087 225.825 628.243 215.711 620.854 213.546C618.952 212.987 616.934 213.232 614.974 213.016C612.551 212.738 610.182 212.101 607.947 211.125C602.672 208.892 598.952 204.057 598.147 198.385C597.216 192.632 598.274 186.625 599.127 180.951C599.98 175.277 600.911 169.72 602.165 164.183C603.35 158.549 605.046 153.035 607.232 147.709C608.907 143.789 610.838 139.056 615.072 137.341C623.137 134.048 633.78 137.997 641.532 140.398C646.118 141.8 650.842 143.015 655.007 145.445C660.573 148.689 663.023 153.844 663.974 160.057C664.954 166.613 665.003 173.415 665.306 180.03C665.649 187.35 665.934 194.671 666.286 201.991C666.884 216.642 667.413 231.293 668.374 245.925C668.638 250.002 674.969 250.051 674.754 245.925L674.685 245.915Z" fill="var(--color-illustration-primary, #382C80)"/>
<path d="M636.328 208.675C630.82 212.36 625.244 212.341 618.933 212.958C615.111 213.33 613.612 219.201 617.953 220.151C625.587 221.827 633.329 218.348 639.513 214.075C642.776 211.802 639.719 206.421 636.357 208.675H636.328Z" fill="var(--color-illustration-primary, #382C80)"/>
<path d="M651.822 148.111C649.302 147.817 646.757 147.817 644.237 148.111C643.151 148.166 642.092 148.468 641.14 148.993C640.485 149.439 639.922 150.008 639.484 150.669C638.68 151.81 638.083 153.084 637.72 154.432C637.122 156.676 634.78 156.843 634.456 159.42C634.188 161.15 634.426 162.92 635.142 164.516C635.893 166.125 637.418 167.235 639.18 167.456C636.496 169.484 634.912 172.648 634.897 176.012C634.897 177.325 635.299 178.824 636.485 179.393C637.671 179.961 639.072 179.549 639.758 180.51C640.444 181.47 639.69 182.666 639.298 183.724C638.446 186.239 639.504 189.005 641.816 190.31C642.104 190.503 642.462 190.56 642.796 190.467C643.316 190.241 643.325 189.536 643.286 188.977C642.95 185.715 643.697 182.433 645.413 179.638C647.183 176.834 650.261 175.127 653.576 175.11C656.914 175.23 659.742 177.606 660.436 180.872C660.769 183.019 659.966 185.224 660.289 187.37C660.769 190.574 663.749 192.975 666.904 193.691C667.733 193.913 668.602 193.939 669.442 193.769C670.469 193.468 671.394 192.892 672.118 192.103C674.496 189.737 675.981 186.621 676.322 183.283C677.209 184.52 678.791 185.046 680.242 184.587C681.662 184.077 682.817 183.017 683.447 181.647C684.891 178.741 684.508 175.26 682.467 172.738C683.919 173.159 685.48 172.636 686.387 171.425C687.248 170.205 687.644 168.718 687.504 167.231C687.19 163.731 685.41 160.526 682.604 158.411C679.806 156.353 676.602 154.913 673.206 154.187C669.019 153.14 664.711 152.665 660.397 152.776" fill="var(--color-illustration-primary, #382C80)"/>
<path d="M651.822 144.789C647.51 144.259 643.002 142.829 638.896 145.132C637.132 146.255 635.666 147.788 634.623 149.6C633.969 150.856 633.25 152.076 632.467 153.256C626.959 159.234 629.243 170.455 637.857 172.17L635.681 163.908C631.761 167.142 629.253 172.503 630.086 177.628C630.387 180.129 631.836 182.347 634.006 183.626C634.515 183.9 636.269 184.753 636.946 184.508C635.894 180.836 635.097 180.124 634.554 182.372C634.33 183.094 634.192 183.841 634.143 184.596C633.859 188.898 636.505 194.083 641.003 195.161C643.29 195.748 645.698 194.833 647.02 192.877C648.657 190.574 647.814 188.242 648.176 185.664C648.49 183.508 649.284 181.343 651.263 180.206C652.743 179.343 654.85 179.402 655.664 181.186C656.134 182.166 655.575 183.695 655.526 184.763C655.388 186.38 655.517 188.009 655.909 189.584C656.549 191.601 657.696 193.42 659.241 194.867C662.671 198.179 668.551 199.972 672.961 197.562C677.498 195.063 680.311 189.526 681.016 184.577L673.039 186.684C676.753 191.005 683.113 189.976 686.465 185.86C689.967 181.327 690.066 175.029 686.71 170.386L681.281 177.442C686.103 178.564 690.927 175.583 692.08 170.768C693.423 165.996 691.473 160.802 688.415 157.137C681.977 149.434 668.668 146.357 659.143 148.111C654.517 148.963 654.399 156.813 659.143 157.578C664.533 158.44 670.001 158.362 675.215 160.204C677.252 160.838 679.112 161.943 680.644 163.428C681.327 164.122 681.881 164.932 682.28 165.819C682.459 166.298 682.6 166.789 682.702 167.289C682.418 168.269 682.78 168.573 683.809 168.162C680.164 167.466 675.665 171.533 678.38 175.227C679.205 176.094 679.643 177.257 679.595 178.452C679.551 178.931 679.389 179.392 679.125 179.794C678.899 180.157 679.125 180.206 679.762 179.922C677.586 177.393 672.275 178.52 671.775 182.029C671.53 183.812 670.579 188.565 668.247 189.006C665.914 189.447 665.14 186.272 665.179 184.753C665.346 178.961 664.072 174.051 658.202 171.533C653.233 169.396 647.353 170.964 643.561 174.698C641.699 176.54 640.275 178.778 639.396 181.245C638.92 182.687 638.617 184.18 638.494 185.694C638.414 186.416 638.378 187.143 638.386 187.869C638.386 189.281 638.386 189.32 638.602 187.987L642.806 185.576C645.824 185.38 642.982 186.341 644.031 185.008C644.542 184.142 644.826 183.161 644.854 182.156C645.1 180.007 644.25 177.879 642.59 176.492C641.851 175.819 640.955 175.344 639.984 175.11C637.436 174.561 639.621 176.09 639.876 175.992C639.601 176.06 640.532 173.307 640.572 173.228C641.107 172.329 641.816 171.546 642.659 170.925C645.442 168.593 643.962 163.379 640.483 162.674C638.974 162.36 640.121 162.517 639.347 161.498V160.449C638.886 160.89 638.847 160.919 639.219 160.547C640.033 159.067 641.493 158.185 642.159 156.48C642.737 155.01 642.718 153.197 644.286 152.384C646.03 151.482 649.95 151.315 651.812 151.472C656.124 151.845 655.967 145.328 651.812 144.818L651.822 144.789Z" fill="var(--color-illustration-primary, #382C80)"/>
<path d="M655.438 128.364C626.861 118.662 597.745 108.862 567.571 108.117C564.807 108.197 562.087 108.834 559.574 109.989C558.781 110.332 557.889 110.891 557.869 111.753C557.92 112.354 558.227 112.904 558.712 113.262C561.338 115.663 565.19 115.947 568.679 116.673C582.947 119.613 594.825 131.137 605.193 140.673C609.633 144.74 614.111 148.856 619.354 151.825C631.448 158.685 654.821 161.204 666.532 152.325" fill="var(--color-illustration-secondary, #7F72FF)"/>
<path d="M656.261 125.356C638.925 118.849 621.461 112.616 603.341 108.451C594.213 106.321 584.95 104.821 575.617 103.963C571.354 103.59 567.022 103.091 562.798 103.963C559.202 104.737 554.566 106.148 553.4 110.088C550.764 118.908 564.111 120.329 569.521 121.848C576.949 123.916 583.486 128.443 589.356 133.304C601.204 143.104 611.132 155.56 626.273 160.332C640.228 164.723 658.025 165.36 669.991 155.824C674.391 152.326 668.658 144.956 663.983 148.043C654.908 154.031 642.423 153.688 632.221 151.209C619.178 148.033 610.612 138.469 600.861 129.923C595.878 125.358 590.455 121.298 584.672 117.8C578.596 114.302 572.451 112.714 565.689 111.215C564.788 111.019 562.847 109.862 562.063 109.892L561.877 114.096C562.436 113.871 562.994 113.675 563.563 113.508C564.322 113.255 565.098 113.055 565.885 112.91C569.805 112.283 574.352 112.91 578.331 113.273C586.214 113.969 594.046 115.153 601.783 116.82C619.677 120.535 637.131 126.121 654.605 131.432C658.525 132.618 659.965 126.787 656.261 125.405V125.356Z" fill="var(--color-illustration-primary, #382C80)"/>
<path d="M636.298 141.379C629.664 130.632 619.636 122.404 607.8 117.996C606.345 117.609 605.002 116.884 603.88 115.88C599.499 111.127 615.366 99.1315 619.041 97.0343C626.842 92.6145 635.897 90.9311 644.766 92.2519C651.065 93.0701 656.968 95.776 661.7 100.013C667.511 105.482 669.707 113.939 670.275 121.662C670.985 131.494 669.682 141.368 666.443 150.679" fill="var(--color-illustration-secondary, #7F72FF)"/>
<path d="M638.876 139.869C633.378 130.893 626.596 123.209 617.316 117.996C615.08 116.754 612.769 115.651 610.397 114.693C609.76 114.429 607.085 112.851 606.771 112.968C606.771 112.968 607.33 113.684 607.212 113.782C606.918 114.017 607.153 113.703 607.32 113.586C607.976 113.076 608.633 111.332 609.28 110.587C610.45 109.217 611.714 107.931 613.063 106.736C619.325 101.022 626.498 96.9357 635.113 96.0635C646.069 94.9561 658.544 98.8369 663.229 109.607C668.648 122.082 665.61 136.988 661.955 149.454C660.25 155.265 668.815 157.353 670.863 151.904C675.763 139.056 676.743 122.504 672.196 109.382C667.649 96.2595 655.908 89.0663 642.365 87.8903C630.899 86.9103 619.981 90.6931 611.063 97.6903C606.056 101.61 595.501 110.117 600.068 117.555C601.832 120.446 605.33 121.289 608.261 122.455C611.517 123.786 614.638 125.427 617.58 127.355C623.995 131.309 629.494 136.584 633.711 142.829C635.779 146.053 640.904 143.113 638.876 139.811V139.869Z" fill="var(--color-illustration-primary, #382C80)"/>
<path d="M667.453 147.259C668.404 147.624 669.319 148.077 670.187 148.611L668.227 146.112C668.423 144.221 668.374 143.79 668.09 144.809C667.981 145.106 667.892 145.411 667.825 145.72C667.668 146.298 667.472 146.896 667.374 147.484C667.276 148.072 667.227 147.994 667.443 147.484C667.992 146.791 668.814 146.369 669.697 146.328C669.115 146.244 668.524 146.244 667.943 146.328C665.463 146.345 663.374 148.183 663.043 150.64C662.739 152.884 664.16 155.677 666.6 156.098C670.187 156.716 673.872 155.775 675.567 152.276C676.148 150.888 676.48 149.409 676.547 147.906C676.694 146.69 676.998 145.211 676.547 144.035C675.97 142.211 674.312 140.945 672.402 140.869C671.343 140.81 670.295 140.654 669.246 140.546C665.689 140.154 664.258 145.799 667.413 147.308L667.453 147.259Z" fill="var(--color-illustration-primary, #382C80)"/>
<path d="M597.098 647.254C597.039 650.194 596.981 653.134 596.932 656.074C596.932 657.721 596.667 659.632 594.629 660.553C593.469 660.97 592.245 661.186 591.012 661.19C507.066 666.345 422.58 671.5 338.623 666.747C326.412 666.061 314.035 665.139 302.667 662.062C299.394 661.18 296.091 660.043 294.004 658.142C291.769 656.094 291.23 653.458 290.789 650.939C280.588 589.905 286.154 529.85 285.115 468.718C335.134 462.838 385.415 459.107 435.957 457.526C482.654 456.047 532.056 453.744 578.194 460.153C582.447 460.741 586.838 461.407 590.307 463.161C595.785 465.935 597.814 470.776 598.99 475.313C601.93 486.505 601.645 497.942 601.253 509.29C599.627 555.497 598.059 601.057 597.098 647.254Z" fill="var(--color-illustration-primary, #382C80)"/>
<path d="M592.796 647.255C592.796 648.931 592.728 650.616 592.698 652.302C592.698 652.968 593.061 656.222 592.493 656.702C591.924 657.182 588.347 657.055 587.475 657.114L580.399 657.545C572.141 658.054 563.88 658.551 555.615 659.034C539.282 659.995 522.975 660.88 506.694 661.69C474.079 663.248 441.435 664.326 408.782 664.317C392.448 664.317 376.141 664.026 359.86 663.444C343.808 662.837 327.363 662.641 311.527 659.662C308.088 659.08 304.695 658.254 301.374 657.192C297.748 655.977 295.876 654.546 295.112 650.734C293.495 642.717 292.632 634.466 291.78 626.332C290.094 610.279 289.3 594.158 288.987 578.028C288.281 541.581 289.967 505.145 289.418 468.709L285.116 473.011C349.149 465.524 413.437 462.064 477.872 460.535C509.114 459.8 540.513 459.84 571.579 463.583C577.891 464.348 587.259 464.328 591.748 469.64C595.834 474.54 596.383 482.791 596.844 488.828C598.059 504.508 596.55 520.629 596.011 536.378C594.737 573.324 593.571 610.289 592.796 647.255C592.679 652.792 601.283 652.792 601.401 647.255C602.106 613.366 603.145 579.488 604.292 545.619C604.86 528.959 606.075 512.299 605.762 495.639C605.527 483.036 604.723 464.985 591.415 458.948C584.555 455.831 576.323 455.508 568.924 454.665C561.084 453.783 553.244 453.114 545.404 452.656C529.283 451.676 513.122 451.47 496.982 451.608C464.142 451.911 431.243 453.068 398.443 454.793C360.549 456.753 322.761 459.957 285.076 464.406C282.793 464.671 280.735 466.161 280.774 468.709C281.333 503.283 279.794 537.857 280.255 572.432C280.48 589.719 281.235 607.016 282.92 624.225C283.783 632.829 284.88 641.424 286.262 649.96C286.772 653.164 287.291 656.359 289.202 659.093C291.299 662.131 294.494 663.836 297.885 665.081C305.411 667.854 313.732 668.883 321.66 669.756C330.117 670.677 338.614 671.088 347.14 671.5C364.603 672.343 382.083 672.807 399.58 672.892C434.595 673.117 469.61 672.049 504.587 670.393C523.971 669.471 543.346 668.374 562.72 667.217C572.52 666.629 582.506 666.453 592.297 665.404C595.981 665.012 599.451 663.533 600.695 659.74C601.94 655.947 601.342 651.204 601.42 647.255C601.509 641.718 592.914 641.718 592.796 647.255Z" fill="var(--color-illustration-primary, #382C80)"/>
<path d="M489.054 647.255C488.995 650.195 488.936 653.135 488.887 656.075C488.887 657.722 488.622 659.633 486.584 660.554C485.424 660.971 484.201 661.187 482.968 661.191C399.06 666.346 314.574 671.5 230.579 666.747C218.368 666.061 205.99 665.14 194.622 662.063C191.349 661.181 188.047 660.044 185.959 658.143C183.725 656.095 183.186 653.459 182.745 650.94C172.553 589.906 178.109 529.851 177.071 468.719C227.09 462.839 277.37 459.108 327.912 457.527C374.609 456.047 424.011 453.744 470.149 460.154C474.412 460.742 478.803 461.408 482.272 463.162C487.74 465.936 489.769 470.777 490.945 475.314C493.836 486.506 493.611 497.942 493.209 509.291C491.582 555.498 490.014 601.058 489.054 647.255Z" fill="var(--color-illustration-base, #FFFFFF)"/>
<path d="M484.751 647.255C484.751 648.931 484.683 650.616 484.653 652.302C484.653 652.968 485.016 656.222 484.448 656.702C483.879 657.182 480.302 657.055 479.43 657.114L472.354 657.545C464.09 658.054 455.828 658.551 447.57 659.034C431.276 659.995 414.969 660.88 398.649 661.69C366.034 663.248 333.39 664.326 300.737 664.317C284.404 664.317 268.1 664.026 251.825 663.444C235.763 662.837 219.318 662.641 203.482 659.662C200.043 659.08 196.65 658.254 193.329 657.192C189.713 655.977 187.841 654.546 187.067 650.734C185.45 642.717 184.587 634.466 183.735 626.332C182.059 610.279 181.255 594.158 180.942 578.028C180.246 541.581 181.922 505.145 181.373 468.709L177.071 473.011C241.104 465.524 305.392 462.064 369.827 460.535C401.069 459.8 432.468 459.84 463.544 463.583C469.846 464.348 479.224 464.328 483.703 469.64C487.789 474.54 488.338 482.791 488.799 488.828C490.014 504.508 488.505 520.629 487.966 536.378C486.692 573.324 485.526 610.289 484.751 647.255C484.634 652.792 493.238 652.792 493.356 647.255C494.071 613.366 495.1 579.488 496.247 545.619C496.815 528.959 498.03 512.299 497.717 495.639C497.482 483.036 496.678 464.985 483.37 458.948C476.51 455.831 468.278 455.508 460.879 454.665C453.078 453.783 445.238 453.114 437.359 452.656C421.238 451.676 405.077 451.47 388.937 451.608C356.097 451.911 323.198 453.068 290.408 454.793C252.514 456.753 214.722 459.957 177.031 464.406C174.748 464.671 172.69 466.161 172.729 468.709C173.288 503.283 171.749 537.857 172.21 572.432C172.435 589.719 173.19 607.016 174.875 624.225C175.738 632.829 176.835 641.424 178.217 649.96C178.737 653.164 179.246 656.359 181.157 659.093C183.254 662.131 186.449 663.836 189.84 665.081C197.366 667.854 205.687 668.883 213.615 669.756C222.072 670.677 230.579 671.088 239.095 671.5C256.558 672.343 274.038 672.807 291.535 672.892C326.55 673.117 361.565 672.049 396.542 670.393C415.926 669.471 435.301 668.374 454.675 667.217C464.475 666.629 474.461 666.453 484.252 665.404C487.936 665.012 491.415 663.533 492.66 659.74C493.905 655.947 493.297 651.204 493.375 647.255C493.473 641.718 484.869 641.718 484.751 647.255Z" fill="var(--color-illustration-primary, #382C80)"/>
<path d="M489.681 444.63C489.628 447.498 489.583 450.376 489.544 453.263C489.544 454.871 489.318 456.742 487.584 457.634C486.598 458.042 485.543 458.255 484.477 458.261C412.604 463.289 340.26 468.316 268.367 463.74C257.911 463.063 247.327 462.162 237.586 459.153C234.783 458.291 231.96 457.193 230.167 455.312C228.374 453.43 227.795 450.735 227.423 448.275C218.681 388.603 223.444 329.891 222.523 270.131C265.362 264.401 308.413 260.755 351.677 259.194C391.671 257.753 433.997 255.499 473.472 261.752C477.117 262.33 480.871 262.987 483.85 264.692C488.534 267.406 490.269 272.14 491.268 276.569C493.748 287.506 493.552 298.688 493.228 309.791C491.856 354.96 490.514 399.471 489.681 444.63Z" fill="var(--color-illustration-primary, #382C80)"/>
<path d="M485.378 444.63C485.378 446.277 485.32 447.913 485.3 449.53C485.3 450.736 485.623 452.47 485.222 453.646C484.82 454.822 486.143 453.333 484.967 453.872C484.108 454.08 483.221 454.149 482.34 454.078L475.961 454.528C468.617 455.038 461.28 455.541 453.95 456.038C439.021 457.037 424.092 457.952 409.164 458.782C379.548 460.369 349.893 461.379 320.239 461.153C305.303 461.045 290.378 460.614 275.472 459.781C268.308 459.389 261.125 458.997 254 458.105C247.885 457.341 240.741 456.439 235.204 453.578C232.47 452.157 232.029 449.913 231.568 447.051C230.951 443.229 230.51 439.368 230.059 435.526C229.197 428.052 228.504 420.562 227.981 413.055C227.001 398.61 226.531 384.125 226.394 369.651C226.09 336.448 227.325 303.256 226.854 270.053L222.552 274.355C279.745 266.731 337.34 263.164 395.032 261.988C409.134 261.704 423.256 261.704 437.349 262.39C444.326 262.733 451.304 263.242 458.252 263.977C464.906 264.683 471.972 265.173 478.401 267.025C484.683 268.838 486.437 273.787 487.603 279.696C488.853 286.854 489.372 294.121 489.151 301.384C489.004 316.015 488.318 330.656 487.877 345.278C486.897 378.382 486.071 411.49 485.398 444.601C485.3 450.138 493.904 450.138 494.002 444.601C494.571 414.084 495.322 383.576 496.256 353.079C496.697 337.928 497.236 322.787 497.628 307.636C497.975 300.001 497.772 292.35 497.021 284.743C496.315 278.746 495.492 272.092 492.18 266.868C488.769 261.478 483.173 259.028 477.097 257.94C470.237 256.657 463.201 255.863 456.243 255.167C441.808 253.736 427.304 253.207 412.8 253.207C383.311 253.148 353.715 254.412 324.276 256.078C290.257 258.038 256.356 261.263 222.572 265.751C220.298 266.055 218.24 267.476 218.27 270.053C218.72 301.629 217.623 333.185 217.78 364.751C217.858 380.627 218.26 396.512 219.357 412.349C219.887 420.091 220.592 427.817 221.474 435.526C221.905 439.191 222.376 442.857 222.885 446.522C223.366 449.971 223.748 453.548 225.737 456.518C229.344 461.898 236.733 463.535 242.652 464.848C249.846 466.317 257.137 467.27 264.467 467.7C280.147 468.846 295.964 469.415 311.722 469.66C343.749 470.169 375.785 469.15 407.762 467.464C425.775 466.484 443.777 465.338 461.78 464.113L474.52 463.231C478.656 462.937 483.144 463.103 487.201 462.202C495.365 460.379 493.855 450.971 493.963 444.562C494.12 439.093 485.486 439.093 485.378 444.63Z" fill="var(--color-illustration-primary, #382C80)"/>
<path d="M384.36 444.63C384.314 447.498 384.268 450.376 384.223 453.264C384.223 454.871 384.007 456.743 382.351 457.634C381.424 458.041 380.423 458.255 379.411 458.262C311.115 463.289 242.397 468.316 174.062 463.691C164.125 463.015 154.06 462.113 144.809 459.104C142.143 458.242 139.458 457.144 137.753 455.263C136.048 453.381 135.499 450.686 135.146 448.226C130.795 417.895 130.021 387.133 130.04 356.538C130.04 341.279 130.324 326.011 130.481 310.752C130.609 299.276 127.639 284.037 133.656 273.61C140.722 261.37 175.796 264.506 188.674 263.32C210.155 261.36 231.682 259.968 253.256 259.145C291.25 257.705 331.44 255.451 368.984 261.703C372.443 262.281 376.02 262.938 378.843 264.643C383.292 267.358 384.938 272.091 385.899 276.521C388.251 287.457 388.064 298.639 387.741 309.743C386.457 354.96 385.183 399.471 384.36 444.63Z" fill="var(--color-illustration-base, #FFFFFF)"/>
<path d="M380.097 444.629C380.097 446.276 380.038 447.912 380.019 449.529C380.019 450.803 380.391 452.861 379.931 454.047C379.931 453.979 381.734 453.067 379.45 453.93C378.517 454.104 377.567 454.173 376.618 454.135L370.964 454.557C363.424 455.106 355.881 455.648 348.335 456.184C332.998 457.262 317.652 458.261 302.275 459.124C272.072 460.741 241.819 461.652 211.567 461.025C196.582 460.711 181.539 460.182 166.604 458.82C159.46 458.163 152.208 457.144 145.397 454.772C142.036 453.606 140.242 452.254 139.566 448.677C138.841 444.894 138.468 441.013 138.027 437.191C134.597 407.585 134.205 377.725 134.392 348.011C134.48 333.586 135.303 319.033 134.646 304.617C134.382 298.737 133.882 292.759 134.362 286.84C134.705 282.694 135.489 277.04 138.811 274.149C144.339 269.386 153.845 269.023 160.734 268.553C169.133 267.984 177.551 268.259 185.949 267.867C199.728 267.21 213.487 265.583 227.266 264.77C241.966 263.898 256.666 263.359 271.298 262.81C300.325 261.712 329.568 260.909 358.449 264.545C361.794 264.969 365.12 265.463 368.425 266.024C371.493 266.554 375.06 267.004 377.549 269.043C382.077 272.728 382.557 280.93 383.076 286.222C384.546 301.089 383.253 316.279 382.831 331.175C381.956 361.424 381.182 391.673 380.509 421.923C380.346 429.521 380.199 437.113 380.068 444.698C379.97 450.235 388.574 450.235 388.672 444.698C389.241 412.054 390.074 379.42 390.985 346.796C391.446 330.557 392.347 314.26 392.239 298.012C392.335 290.106 391.529 282.215 389.838 274.492C388.447 268.719 385.487 263.3 380.038 260.468C374.011 257.332 366.367 256.959 359.752 256.097C351.981 255.117 344.18 254.411 336.35 253.97C320.768 253.098 305.137 253.177 289.526 253.588C257.754 254.431 225.953 255.823 194.27 258.576C185.107 259.38 175.993 259.331 166.83 259.654C157.431 259.978 147.347 260.478 138.635 264.329C128.727 268.71 126.052 278.951 125.63 289.054C125.366 295.307 126.003 301.54 126.16 307.782C126.365 315.691 126.042 323.648 125.944 331.557C125.562 363.554 125.405 395.649 128.404 427.548C129.139 435.388 129.805 443.306 131.265 451.019C132.667 458.408 138.204 461.662 144.985 463.759C159.685 468.238 175.836 468.365 191.045 469.051C223.621 470.531 256.245 470.031 288.81 468.502C305.117 467.748 321.405 466.758 337.693 465.66C345.944 465.098 354.199 464.517 362.457 463.916L373.766 463.083C377.138 462.838 381.499 463.2 384.546 461.456C390.054 458.291 388.594 450.019 388.682 444.737C388.8 439.092 380.195 439.092 380.097 444.629Z" fill="var(--color-illustration-primary, #382C80)"/>
<path d="M519.179 240.858C518.372 244.873 516.762 248.683 514.445 252.059C512.262 255.154 509.184 257.507 505.625 258.802C503.216 259.518 500.72 259.904 498.207 259.948C470.953 261.428 443.983 257.43 416.445 258.351C386.065 259.331 355.597 259.39 325.247 257.44C316.093 256.852 306.823 256.058 298.306 253.422C295.847 252.667 293.406 251.707 291.809 250.07C290.212 248.433 289.731 246.062 289.408 243.906C281.764 191.691 285.929 140.31 285.155 88.0171C322.63 82.9995 360.37 79.8047 398.168 78.4425C433.164 77.1783 470.179 75.2085 504.743 80.6867C507.938 81.1865 511.231 81.7647 513.828 83.2641C517.924 85.6357 519.443 89.7811 520.325 93.6619C522.491 103.227 522.285 113.017 522.021 122.729C521.302 145.994 520.626 169.266 519.992 192.544C519.698 205.078 522.609 225.786 519.179 240.858Z" fill="var(--color-illustration-primary, #382C80)"/>
<path d="M515.033 239.712C513.808 244.769 511.888 249.953 507.478 253.108C502.636 256.558 495.59 255.872 489.936 255.97C477.254 256.195 464.593 255.451 451.931 254.814C425.834 253.481 399.825 254.872 373.708 254.765C360.644 254.706 347.571 254.382 334.508 253.706C322.591 253.099 309.772 253.04 298.404 248.983C295.553 248.003 294.318 246.885 293.74 243.887C293.112 240.653 292.76 237.34 292.407 234.087C291.623 227.54 291.015 220.974 290.535 214.398C289.604 201.57 289.192 188.703 289.065 175.845C288.771 146.582 289.878 117.329 289.467 88.0665L285.184 92.3197C336.958 85.4597 389.201 82.1179 441.416 81.4025C454.107 81.2261 466.808 81.4025 479.469 82.2159C485.722 82.6373 491.974 83.1959 498.187 84.0387C502.93 84.6659 510.633 84.6561 513.867 88.8407C517.101 93.0253 517.307 99.7579 517.66 104.678C518.024 111.163 518.05 117.662 517.738 124.15C517.327 137.452 516.925 150.751 516.533 164.046C516.16 177.09 515.396 190.192 515.964 203.246C516.494 215.31 517.64 227.746 515.063 239.682C513.897 245.082 522.187 247.385 523.354 241.976C525.755 230.892 525.314 219.436 524.794 208.215C524.245 196.308 524.559 184.508 524.892 172.601C525.284 158.836 525.693 145.063 526.117 131.285C526.529 118.064 527.744 104.099 524.157 91.1731C522.854 86.4397 520.345 82.1081 516.013 79.5601C510.81 76.5123 504.018 76.2085 498.177 75.4441C485.22 73.8308 472.181 72.9507 459.124 72.8079C432.233 72.3767 405.224 73.6115 378.353 75.0325C347.189 76.6855 316.129 79.583 285.174 83.7251C282.891 84.0289 280.833 85.4499 280.872 88.0273C281.264 116.124 280.265 144.211 280.441 172.307C280.529 186.096 280.911 199.894 281.891 213.654C282.391 220.7 283.048 227.736 283.9 234.753C284.596 240.466 284.4 248.091 288.418 252.658C292.162 256.921 298.698 258.234 304.01 259.302C310.162 260.455 316.381 261.215 322.63 261.576C336.781 262.556 350.962 263.075 365.142 263.261C393.161 263.643 421.14 261.86 449.148 263.261C464.563 264.026 480.008 265.045 495.443 264.408C502.499 264.114 508.967 263.32 514.436 258.459C519.247 254.186 521.825 248.13 523.256 241.995C524.628 236.625 516.327 234.322 515.033 239.712Z" fill="var(--color-illustration-primary, #382C80)"/>
<path d="M425.922 240.8L425.804 248.356C425.804 249.757 425.618 251.394 424.168 252.178C423.356 252.538 422.478 252.725 421.59 252.727C361.81 257.127 301.697 261.547 241.897 257.48C233.195 256.892 224.395 256.098 216.3 253.462C213.967 252.707 211.615 251.747 210.126 250.11C208.636 248.473 208.166 246.102 207.842 243.946C204.03 217.407 203.354 190.487 203.374 163.713C203.374 150.356 203.619 136.998 203.766 123.641C203.864 113.606 201.276 100.268 206.539 91.1442C212.723 80.4328 243.407 83.1768 254.686 82.138C273.483 80.4132 292.318 79.1947 311.193 78.4826C344.445 77.2184 379.617 75.2486 412.466 80.7268C415.495 81.2266 418.621 81.8048 421.09 83.3042C425.01 85.6758 426.431 89.8211 427.264 93.702C429.332 103.267 429.165 113.057 428.881 122.769C427.725 162.302 426.608 201.277 425.922 240.8Z" fill="var(--color-illustration-base, #FFFFFF)"/>
<path d="M421.6 240.799C421.6 243.504 421.434 246.229 421.473 248.943C421.473 248.679 422.796 248.277 421.885 248.385C421.316 248.453 420.738 248.483 420.16 248.532C418.278 248.679 416.396 248.806 414.505 248.943C407.919 249.433 401.327 249.91 394.729 250.374C381.518 251.305 368.269 252.167 355.107 252.883C328.696 254.314 302.246 255.137 275.806 254.627C262.752 254.372 249.669 253.892 236.655 252.785C230.56 252.383 224.523 251.348 218.642 249.698C216.143 248.943 213.341 248.228 212.488 245.503C211.508 242.387 211.41 238.781 211.018 235.547C207.921 209.586 207.529 183.391 207.676 157.274C207.755 144.534 208.48 131.667 207.941 118.927C207.725 113.644 207.265 108.352 207.637 103.07C207.902 99.4246 208.548 94.3776 211.488 91.8786C216.222 87.841 224.532 87.5764 230.402 87.1942C237.664 86.714 244.955 86.9394 252.217 86.5964C264.095 86.0378 275.963 84.6364 287.84 83.921C300.747 83.1468 313.673 82.6764 326.589 82.1864C351.658 81.2064 376.893 80.5302 401.863 83.5192C405.019 83.9014 408.165 84.3424 411.301 84.8716C413.809 85.293 416.71 85.6164 418.905 87.0178C423.335 89.8696 423.747 97.2784 424.217 101.943C425.54 114.958 424.393 128.266 424.021 141.31C423.257 167.816 422.577 194.325 421.982 220.837C421.845 227.494 421.718 234.148 421.6 240.799C421.502 246.336 430.107 246.336 430.205 240.799C430.704 212.134 431.439 183.479 432.243 154.814C432.645 140.447 433.498 126.022 433.321 111.694C433.194 101.12 433.233 84.7834 422.286 79.1092C417.004 76.3652 410.33 76.0418 404.519 75.2872C397.659 74.3954 390.671 73.7878 383.723 73.3958C370.121 72.6412 356.479 72.7098 342.867 73.0724C314.849 73.8172 286.821 75.0324 258.901 77.502C250.973 78.188 243.084 78.0998 235.146 78.3938C226.904 78.6878 218.084 79.1778 210.459 82.598C201.639 86.518 199.297 95.8084 198.944 104.805C198.719 110.42 199.327 116.026 199.425 121.631C199.552 128.491 199.297 135.41 199.219 142.29C198.876 170.818 198.758 199.453 201.581 227.873C202.218 234.38 202.433 241.515 204.187 247.826C205.942 254.137 211.645 256.744 217.584 258.39C230.393 261.948 244.22 262.105 257.421 262.683C285.959 263.947 314.545 263.457 343.063 262.134C357.469 261.468 371.855 260.586 386.242 259.606C393.304 259.122 400.373 258.622 407.449 258.106L417.337 257.381C420.199 257.165 423.737 257.381 426.324 255.931C431.381 252.991 430.126 245.699 430.244 240.839C430.322 235.262 421.718 235.253 421.6 240.799Z" fill="var(--color-illustration-primary, #382C80)"/>
<path d="M656.143 92.3201C656.04 92.0029 655.981 91.6732 655.967 91.3401C655.967 91.3401 656.094 90.6737 655.967 90.9775C655.84 91.2813 655.889 91.1637 656.075 90.8109C655.8 91.1441 655.81 91.1441 656.124 90.8109C655.797 91.089 655.386 91.2479 654.958 91.2617C654.416 91.2547 653.902 91.0241 653.537 90.6247C652.789 89.7541 652.646 88.517 653.174 87.4985C652.88 88.3217 653.635 87.0673 653.027 87.6945C652.694 88.0473 652.38 88.4295 652.047 88.7823C650.496 90.3807 650.355 92.8759 651.717 94.6385C653.078 96.4012 655.528 96.8956 657.466 95.7991C660.134 94.51 661.815 91.7938 661.778 88.8313C661.572 85.758 659.187 83.2776 656.124 82.9513C653.375 82.6039 650.699 83.9929 649.401 86.4401C648.088 88.9097 648.529 91.6145 649.303 94.1723C649.823 96.0666 651.779 97.181 653.674 96.6615C655.568 96.1419 656.683 94.185 656.163 92.2907L656.143 92.3201Z" fill="var(--color-illustration-primary, #382C80)"/>
<path d="M652.008 146.495C657.486 147.847 663.641 148.455 669.09 146.671C673.656 145.181 671.755 138.782 667.13 139.576C662.504 140.37 658.437 140.938 653.831 139.889C649.548 138.909 647.716 145.436 652.008 146.495Z" fill="var(--color-illustration-primary, #382C80)"/>
<path d="M611.024 164.986C609.603 167.152 608.192 169.337 606.81 171.533C605.556 173.493 603.576 175.884 602.988 178.197C601.93 182.371 607.183 183.361 610.211 182.901C612.876 182.489 611.985 178.638 609.613 178.461C609.27 178.461 607.261 178.461 607.016 178.079L607.251 179.843C607.81 177.501 609.348 175.129 610.436 172.983C611.524 170.837 612.72 168.74 613.935 166.652C615.023 164.761 612.21 163.154 610.995 164.957L611.024 164.986Z" fill="var(--color-illustration-primary, #382C80)"/>
<path d="M620.775 331.754C616.346 310.929 613.602 286.37 627.224 267.544C632.241 260.596 638.935 255.079 645.55 249.63L667.247 231.774C671.265 228.472 675.312 225.13 678.546 221.063C681.045 217.927 683.035 214.389 685.828 211.508C688.905 215.8 691.953 220.181 693.932 225.081C695.912 229.981 696.764 235.498 695.334 240.584C692.178 251.796 682.427 254.804 674.332 261.057C664.944 268.299 655.82 276.737 649.215 286.605C646.083 282.215 643.373 277.54 641.12 272.64" fill="var(--color-illustration-base, #FFFFFF)"/>
<path d="M623.725 330.94C619.403 309.429 617.972 283.635 633.525 266.103C641.973 256.568 652.713 248.934 662.513 240.868C667.472 236.782 672.862 232.901 677.213 228.128C681.31 223.708 684.377 218.485 688.434 214.065L682.643 213.32C687.454 220.024 692.913 228.275 691.845 236.958C691.002 243.926 685.857 248.169 680.3 251.658C666.649 260.233 654.232 270.748 645.02 284.106H653.419C650.344 279.67 647.643 274.985 645.344 270.102C642.659 264.398 634.191 269.367 636.867 275.06C639.168 279.963 641.903 284.65 645.04 289.065C647.206 292.103 651.302 292.259 653.439 289.065C658.75 281.117 665.532 274.365 672.813 268.181C678.546 263.349 685.171 259.772 690.845 254.912C696.889 249.912 700.321 242.428 700.165 234.586C699.812 224.963 694.412 217.201 689.042 209.645C687.729 207.803 684.985 207.019 683.24 208.901C678.85 213.644 675.89 219.318 670.873 223.512C665.483 228.007 660.083 232.493 654.673 236.968C644.393 245.435 632.976 253.451 624.832 264.133C609.505 284.253 612.759 309.498 617.855 332.567C618.707 336.418 624.529 334.772 623.735 330.94H623.725Z" fill="var(--color-illustration-primary, #382C80)"/>
<path d="M619.492 279.019C616.277 275.158 611.985 273.571 607.271 273.228C602.557 272.885 597.128 282.832 597.471 287.536C592.404 272.973 590.787 256.176 598.863 243.004C600.333 240.613 607.418 230.157 609.388 228.177C612.766 224.792 617.045 222.448 621.716 221.425L619.492 279.019Z" fill="var(--color-illustration-base, #FFFFFF)"/>
<path d="M621.775 276.737C617.6 271.768 608.652 267.094 602.42 270.994C597.206 274.257 593.168 281.392 593.257 287.536L601.636 286.409C597.441 273.405 595.158 258.117 602.478 245.749C607.437 237.37 612.906 228.178 622.951 225.728L617.306 221.426C616.548 240.62 615.803 259.819 615.071 279.02C614.846 284.704 623.686 284.694 623.891 279.02C624.643 259.825 625.414 240.627 626.204 221.426C626.322 218.486 623.264 216.467 620.559 217.123C608.055 220.161 600.959 230.775 594.746 241.241C586.24 255.628 587.945 273.581 593.394 288.673C594.923 292.926 602.008 292.642 601.763 287.536C601.825 283.912 603.257 280.446 605.771 277.834C608.868 274.894 614.973 278.971 617.188 281.294C620.118 284.4 624.401 279.873 621.775 276.737Z" fill="var(--color-illustration-primary, #382C80)"/>
<path d="M657.104 308.106C638.635 342.843 617.329 375.994 593.404 407.224C599.656 411.986 605.732 417.308 610.838 420.581C643.707 441.622 691.806 469.581 699.205 511.525C698.225 505.949 712.258 486.653 715.081 480.508C721.852 465.808 726.341 449.667 730.467 434.036C738.813 402.468 743.592 370.062 744.716 337.428" fill="var(--color-illustration-base, #FFFFFF)"/>
<path d="M653.39 305.959C634.884 340.674 613.581 373.823 589.69 405.076C588.161 407.085 589.572 409.692 591.228 410.956C599.735 417.473 607.986 423.873 617.041 429.625C624.999 434.682 632.947 439.778 640.689 445.178C656.369 456.105 671.931 468.512 682.907 484.378C688.918 492.836 693.048 502.483 695.02 512.671C695.882 517.374 704.036 516.355 703.468 511.524C703.396 510.573 703.575 509.62 703.987 508.76C704.624 507.103 705.38 505.495 706.251 503.949C708.328 500.029 710.68 496.236 713.023 492.453C718.068 484.222 722.198 475.464 725.341 466.336C734.553 440.199 740.786 412.632 744.706 385.231C746.977 369.384 748.403 353.426 748.979 337.427C749.185 331.89 740.58 331.9 740.374 337.427C739.378 365.762 735.607 393.931 729.114 421.53C723.744 444.325 718.011 468.031 705.594 488.112C703.046 492.228 700.469 496.354 698.264 500.665C696.657 503.811 694.432 507.849 694.863 511.524L703.311 510.377C695.951 470.374 657.065 444.982 625.303 424.706C621.05 421.991 616.747 419.355 612.563 416.581C606.604 412.661 601.214 407.85 595.55 403.508L597.098 409.388C620.989 378.135 642.293 344.986 660.798 310.271C663.386 305.371 655.967 301.03 653.37 305.93L653.39 305.959Z" fill="var(--color-illustration-primary, #382C80)"/>
<path d="M682.79 518.707C688.503 518.541 694.648 516.6 697.755 511.798C703.017 503.664 696.931 493.1 690.601 485.769C687.543 482.241 684.387 478.815 681.134 475.489C674.529 488.236 667.571 500.78 660.26 513.121C667.414 516.551 674.93 518.933 682.79 518.707Z" fill="var(--color-illustration-primary, #382C80)"/>
<path d="M682.79 523.01C693.903 522.481 705.124 515.807 703.958 503.244C702.791 490.68 692.394 480.929 684.181 472.452C683.231 471.522 681.907 471.079 680.589 471.249C679.27 471.419 678.102 472.184 677.419 473.324C670.808 486.058 663.85 498.602 656.545 510.956C655.438 512.818 655.987 515.856 658.084 516.836C665.924 520.521 674.048 523.108 682.79 523.01C688.317 522.942 688.336 514.337 682.79 514.406C675.606 514.484 668.883 512.446 662.435 509.408L663.974 515.288C671.284 502.94 678.242 490.396 684.848 477.656L678.095 478.528C684.181 484.81 691.678 491.641 694.559 500.147C695.775 503.763 695.98 507.742 693.148 510.682C690.522 513.416 686.425 514.22 682.79 514.396C677.272 514.7 677.243 523.275 682.79 523.01Z" fill="var(--color-illustration-primary, #382C80)"/>
<path d="M610.799 420.62C605.693 417.347 599.617 412.025 593.365 407.263C584.27 419.232 574.872 430.946 565.17 442.405C528.91 485.29 488.965 524.951 447.756 562.436C441.964 567.708 436.094 572.971 429.45 576.91C418.141 583.604 386.957 584.966 394.395 606.311C398.844 619.051 417.798 611.21 419.601 621.99C420.316 626.293 418.209 630.654 415.681 634.25C408.713 644.374 398.511 651.342 388.427 658.025C380.322 663.396 367.455 670.687 378.99 681.398C383.556 685.642 390.544 686.543 396.541 684.838C401.794 696.52 418.484 701.135 428.989 693.815C430.165 692.991 431.351 692.021 432.782 691.923C434.467 691.816 435.947 692.903 437.349 693.883C448.403 701.361 465.043 698.783 473.344 688.356C480.028 691.453 487.917 689.748 494.796 687.131C507.095 682.437 515.788 674.587 526.156 667.031C535.26 660.426 543.042 655.193 551.009 646.824C577.469 619.021 605.889 592.708 628.566 561.417C639.826 545.854 650.332 529.714 660.171 513.142C667.495 500.82 674.453 488.276 681.045 475.51C660.338 454.136 635.857 436.623 610.799 420.62Z" fill="var(--color-illustration-base, #FFFFFF)"/>
<path d="M612.974 416.867C606.849 412.849 601.332 407.958 595.53 403.509C593.57 401.98 590.905 403.401 589.65 405.058C546.06 462.231 495.315 514.102 441.807 561.985C436.574 566.669 430.978 571.785 424.422 574.588C420.502 576.234 416.337 577.312 412.309 578.655C404.205 581.35 394.317 584.868 390.495 593.247C388.418 597.924 388.414 603.26 390.484 607.94C392.554 612.62 396.505 616.206 401.363 617.816C405.234 619.07 410.34 618.678 413.868 620.756C419.003 623.784 411.486 633.055 409.066 635.857C403.274 642.57 396.061 647.764 388.731 652.664C383.135 656.418 376.608 659.867 372.668 665.522C368.425 671.598 370.189 678.448 375.079 683.534C380.959 689.659 389.779 691.031 397.717 688.973L392.866 687.013C396.334 693.892 402.641 698.906 410.124 700.733C414.024 701.739 418.093 701.903 422.06 701.214C423.791 700.906 425.481 700.403 427.098 699.714C428.871 698.979 430.802 697.117 432.546 696.627C434.065 696.196 436.202 698.323 437.662 699.067C450.817 705.639 466.751 702.493 476.421 691.414L472.236 692.521C481.478 696.441 491.836 693.344 500.48 689.414C509.124 685.485 516.483 679.703 524 674.058C531.517 668.413 539.592 663.062 546.824 656.849C554.596 650.165 561.426 642.316 568.59 634.995C582.82 620.481 597.177 606.075 610.583 590.787C624.185 575.063 636.68 558.416 647.98 540.964C661.343 520.503 673.657 499.376 684.877 477.666C685.821 475.97 685.551 473.856 684.21 472.452C663.052 450.843 638.376 433.144 613.004 416.867C608.329 413.868 604.007 421.306 608.662 424.295C633.446 440.191 657.466 457.429 678.125 478.538L677.448 473.324C658.446 509.888 637.004 546.158 610.416 577.773C597.863 592.679 584.28 606.653 570.658 620.54C557.3 634.152 544.698 648.401 529.194 659.603C521.021 665.483 513.181 672.029 504.625 677.36C496.07 682.692 484.555 688.395 474.53 684.22C473.037 683.776 471.422 684.204 470.345 685.328C465.975 690.635 459.501 693.765 452.627 693.893C449.404 693.994 446.196 693.42 443.209 692.207C439.857 690.796 437.143 687.758 433.321 687.68C429.499 687.601 427.235 690.355 424.001 691.757C421.078 692.957 417.889 693.359 414.759 692.923C408.506 692.209 403.051 688.35 400.295 682.692C399.287 681.012 397.283 680.21 395.395 680.732C389.681 682.202 381.194 680.977 378.96 674.42C377.441 669.981 384.036 666.13 387.016 664.13C399.001 656.085 411.604 648.245 419.728 635.965C423.217 630.693 425.892 623.225 422.335 617.345C420.022 613.494 415.632 612.083 411.476 611.279C407.694 610.554 402.411 610.407 399.716 607.271C397.452 604.306 396.906 600.372 398.276 596.902C401.441 590.042 412.202 587.798 418.621 585.75C422.61 584.584 426.503 583.11 430.263 581.34C436.77 578.067 442.503 572.912 447.903 568.09C473.194 545.446 497.641 521.867 521.246 497.354C548.203 469.531 573.526 440.17 597.088 409.419L591.208 410.967C597.02 415.406 602.518 420.297 608.652 424.315C613.268 427.333 617.6 419.885 612.974 416.867Z" fill="var(--color-illustration-primary, #382C80)"/>
<path d="M206.333 271.033C207.892 277.481 208.891 284.429 208.068 291.064C208.068 292.162 208.802 293.125 209.861 293.416C220.075 295.638 230.679 295.301 240.731 292.436C241.823 292.124 242.581 291.132 242.593 289.996C242.26 282.489 242.152 274.943 241.486 267.456C241.192 264.261 236.38 264.134 236.41 267.456C236.478 274.963 237.115 282.489 237.527 289.996L239.389 287.546C230.209 290.211 220.518 290.598 211.155 288.673L212.948 291.025C212.507 283.832 212.047 276.942 210.126 269.945C209.46 267.505 205.745 268.524 206.333 270.994V271.033Z" fill="var(--color-illustration-primary, #382C80)"/>
<path d="M304.559 470.482C305.245 478.322 306.45 486.309 306.372 494.159C306.387 495.169 307.058 496.051 308.028 496.335C319.102 498.06 331.087 496.776 342.073 494.992C343.176 494.68 343.942 493.679 343.955 492.532C344.592 483.82 345.454 475.088 345.64 466.357C345.709 463.142 341.103 463.309 340.74 466.357C339.76 475.03 339.388 483.81 338.829 492.532L340.711 490.063C335.305 491.023 329.846 491.651 324.364 491.944C319.102 492.209 313.869 491.807 308.616 491.944L310.782 493.591C309.165 486.084 308.753 478.136 307.842 470.512C307.597 468.434 304.343 468.356 304.529 470.512L304.559 470.482Z" fill="var(--color-illustration-primary, #382C80)"/>
<path d="M304.323 80.7652C304.5 90.1928 305.225 99.6204 305.793 109.038C305.799 110.407 306.904 111.517 308.273 111.527C313.976 111.155 319.67 110.547 325.364 110.057C329.058 109.734 335.889 110.498 338.721 107.519C341.553 104.54 340.377 99.3166 340.279 95.818C340.103 89.6636 340.015 83.4994 339.603 77.3548C339.397 74.2482 334.762 74.1796 334.703 77.3548C334.654 82.0882 334.821 86.8216 334.958 91.555L335.134 97.9446C335.134 99.3754 335.811 102.786 334.664 103.825C333.517 104.863 330.303 104.481 328.784 104.628L321.924 105.265C317.367 105.696 312.8 106.049 308.253 106.578L310.742 109.058C309.831 99.4734 309.057 89.8596 307.802 80.3144C307.528 78.3544 304.313 78.8346 304.353 80.7848L304.323 80.7652Z" fill="var(--color-illustration-primary, #382C80)"/>
<path d="M241.701 236.949C241.456 227.756 240.104 218.564 239.741 209.352C239.379 200.14 239.849 190.889 239.545 181.667C239.457 179.001 235.733 179.099 235.478 181.667C234.498 190.987 235.086 200.698 235.478 210.087C235.909 219.132 236.194 228.609 238.134 237.527C238.565 239.487 241.75 239.075 241.691 237.037L241.701 236.949Z" fill="var(--color-illustration-primary, #382C80)"/>
<path d="M223.219 196.778L230.784 190.222C232.744 188.507 235.733 184.656 238.281 184.273C239.114 183.666 239.781 183.852 240.241 184.842L242.201 186.674L245.073 189.438C247.014 191.522 249.151 193.415 251.453 195.093C253.168 196.21 255.529 193.946 254.334 192.221C252.09 188.987 248.875 186.469 245.965 183.842C244.191 182.245 241.584 178.942 238.82 179.04C236.057 179.138 233.244 183.058 231.402 184.783L220.984 194.583C219.475 195.994 221.7 198.15 223.229 196.827L223.219 196.778Z" fill="var(--color-illustration-primary, #382C80)"/>
<path d="M290.457 236.949C290.212 227.756 288.859 218.564 288.497 209.352C288.134 200.14 288.604 190.889 288.301 181.667C288.212 179.001 284.488 179.099 284.234 181.667C283.254 190.987 283.842 200.698 284.234 210.087C284.665 219.132 284.949 228.609 286.889 237.527C287.321 239.487 290.506 239.075 290.447 237.037L290.457 236.949Z" fill="var(--color-illustration-primary, #382C80)"/>
<path d="M271.974 196.778L279.5 190.222C281.46 188.507 284.4 184.656 286.997 184.273C287.83 183.666 288.487 183.852 288.957 184.842L290.917 186.674L293.789 189.438C295.73 191.522 297.867 193.415 300.168 195.093C301.883 196.21 304.245 193.946 303.05 192.221C300.805 188.987 297.591 186.469 294.68 183.842C292.897 182.245 290.29 178.942 287.536 179.04C284.782 179.138 281.96 183.058 280.118 184.783L269.7 194.534C268.191 195.945 270.416 198.101 271.944 196.778H271.974Z" fill="var(--color-illustration-primary, #382C80)"/>
<path d="M187.664 410.104C185.206 389.817 185.163 369.309 187.537 349.011C187.948 345.522 188.517 341.828 190.781 339.143C194.377 334.87 200.767 334.654 206.343 334.791L278.706 336.457C285.196 336.484 291.678 336.89 298.12 337.673C299.874 337.918 301.775 338.3 302.951 339.633C304.127 340.965 304.255 343.21 304.216 345.14L303.236 401.784C303.349 403.089 303.002 404.393 302.256 405.469C301.276 406.576 299.639 406.733 298.159 406.812C262.487 408.647 226.779 408.935 191.035 407.674" fill="var(--color-illustration-secondary, #7F72FF)"/>
<path d="M189.458 410.104C188.236 398.572 187.71 386.977 187.88 375.382C187.965 369.816 188.23 364.263 188.674 358.722C189.095 353.479 188.831 346.688 191.437 341.945C193.789 337.652 198.905 336.996 203.335 336.898C208.587 336.78 213.86 337.084 219.113 337.201L254.589 338.044C266.349 338.328 278.109 338.289 289.82 339.024C292.132 339.171 294.445 339.348 296.738 339.661C298.502 339.896 300.776 339.985 301.766 341.876C302.236 342.758 302.06 344.199 302.06 345.169C302.06 351.294 301.834 357.438 301.727 363.573C301.511 375.372 301.292 387.175 301.07 398.981C301.07 399.961 301.374 401.921 300.972 402.793C299.992 404.91 298.473 404.567 296.758 404.635C293.906 404.763 291.045 404.861 288.193 404.959C282.479 405.155 276.766 405.302 271.053 405.429C244.387 406.066 217.721 406.027 191.055 405.164C187.792 405.057 187.802 410.113 191.055 410.231C217.937 411.211 244.887 411.397 271.768 410.417C278.432 410.172 285.096 409.839 291.76 409.437C295.631 409.222 302.021 410.055 304.441 406.174C305.627 404.273 305.421 401.783 305.421 399.647L305.588 389.729C305.705 382.889 305.82 376.045 305.931 369.198C306.042 362.593 306.153 355.985 306.264 349.373C306.333 345.277 307.244 339.72 303.216 337.064C299.002 334.271 291.809 334.761 287.007 334.546C280.451 334.252 273.875 334.193 267.319 334.046L227.59 333.154L207.01 332.684C202.57 332.586 197.876 332.537 193.74 334.389C189.183 336.417 186.822 340.504 185.9 345.267C184.811 352.005 184.176 358.808 183.999 365.631C183.243 380.473 183.844 395.352 185.793 410.084C186.087 412.328 189.634 412.416 189.389 410.084L189.458 410.104Z" fill="var(--color-illustration-primary, #382C80)"/>
<path d="M186.968 330.548C189.722 335.095 192.202 339.946 195.249 344.268C196.817 346.512 200.345 344.562 198.973 342.093C196.396 337.438 193.093 333.086 190.222 328.618C188.919 326.599 185.714 328.431 186.968 330.519V330.548Z" fill="var(--color-illustration-primary, #382C80)"/>
<path d="M298.267 346.659C301.666 345.049 304.941 343.192 308.067 341.102C310.321 339.583 308.185 335.898 305.931 337.447C302.824 339.563 299.659 341.592 296.405 343.483C294.337 344.689 296.15 347.668 298.267 346.659Z" fill="var(--color-illustration-primary, #382C80)"/>
<path d="M296.493 402.715C298.527 405.769 301.1 408.426 304.088 410.555C306.107 411.976 308.675 408.693 306.754 407.105C304.192 405.036 301.8 402.765 299.6 400.314C298.13 398.648 295.229 400.843 296.493 402.705V402.715Z" fill="var(--color-illustration-primary, #382C80)"/>
<path d="M183.911 416.405C188.37 412.652 192.446 408.066 194.847 402.685C195.886 400.363 192.799 398.432 191.378 400.657C188.53 405.42 185.114 409.82 181.206 413.759C179.403 415.484 182.058 418.013 183.911 416.454V416.405Z" fill="var(--color-illustration-primary, #382C80)"/>
<path d="M202.648 361.221C208.695 365.337 215.81 359.967 214.134 353.058C213.614 350.931 210.733 351.598 210.547 353.538C210.372 356.786 212.771 359.603 216.006 359.947C219.779 360.506 222.866 357.791 225.188 355.136H222.434C227.481 360.467 236.85 359.056 243.514 360.036C251.923 361.192 260.556 362.691 268.808 359.879C271.562 358.899 270.425 354.606 267.593 355.479C260.243 357.733 252.893 356.831 245.396 355.841C241.956 355.39 238.536 354.959 235.057 354.861C231.578 354.763 227.756 355.008 225.188 352.45C224.425 351.697 223.198 351.697 222.434 352.45C221.538 353.669 220.437 354.723 219.181 355.567C217.338 356.655 213.977 356.615 214.193 353.607L210.616 354.097C211.733 358.115 207.774 360.898 204.177 358.673C202.501 357.644 201.061 360.202 202.648 361.29V361.221Z" fill="var(--color-illustration-primary, #382C80)"/>
<path d="M207.538 370.052C208.9 371.414 210.78 372.127 212.703 372.012C213.567 371.834 214.416 371.588 215.241 371.277C217.035 370.845 217.868 372.08 219.504 372.541C222.278 373.325 225.512 372.286 228.324 372.286C232.038 372.286 235.713 372.854 239.408 373.197C241.564 373.393 242.074 369.787 239.918 369.385C234.653 368.246 229.24 367.958 223.885 368.533C222.07 368.854 220.202 368.643 218.505 367.925C217.913 367.644 217.287 367.443 216.643 367.327C214.075 367.033 212.34 369.914 209.841 367.69C208.264 366.279 205.921 368.582 207.509 370.032L207.538 370.052Z" fill="var(--color-illustration-primary, #382C80)"/>
<path d="M252.491 374.001H253.06C253.305 374.001 253.305 374.001 253.06 374.001L253.334 374.06L253.873 374.217L254.138 374.315C253.951 374.236 253.961 374.246 254.138 374.315C255.097 374.834 256.295 374.497 256.844 373.554C257.392 372.611 257.092 371.403 256.166 370.826C255.003 370.251 253.72 369.959 252.423 369.973C251.324 369.973 250.433 370.864 250.433 371.963C250.433 373.061 251.324 373.952 252.423 373.952L252.491 374.001Z" fill="var(--color-illustration-primary, #382C80)"/>
<path d="M217.495 391.602C222.266 392.299 227.08 392.659 231.901 392.68C234.332 392.68 234.332 388.868 231.901 388.907C227.243 388.958 222.587 388.69 217.966 388.103C216.006 387.848 215.506 391.318 217.495 391.602Z" fill="var(--color-illustration-primary, #382C80)"/>
<path d="M363.104 198.758C375.393 199.45 387.695 199.741 400.011 199.63C400.408 199.544 400.822 199.656 401.122 199.931C401.422 200.206 401.57 200.608 401.52 201.012C402.587 208.448 402.932 215.971 402.549 223.473C402.605 224.525 402.297 225.563 401.677 226.413C400.834 227.305 399.452 227.393 398.227 227.393H363.163C362.415 227.471 361.663 227.306 361.016 226.923C360.036 226.217 360.036 224.796 360.183 223.601L362.388 199.601" fill="var(--color-illustration-secondary, #7F72FF)"/>
<path d="M363.104 200.335C373.502 201.031 383.919 201.501 394.336 201.482C395.516 201.369 396.704 201.369 397.884 201.482C399.668 201.854 399.648 202.324 400.03 203.843C400.628 206.225 400.501 209.106 400.608 211.556C400.716 214.006 400.755 216.711 400.697 219.298C400.638 221.885 401.089 225.305 397.521 225.237C387.48 225.041 377.431 224.972 367.377 225.031C366.21 225.144 365.035 225.144 363.868 225.031C362.477 224.747 362.731 224.717 362.467 223.561C361.928 221.268 363.016 217.475 363.231 215.094C363.702 209.919 364.211 204.745 364.544 199.561C364.74 196.748 360.546 196.856 360.232 199.561C359.409 206.607 358.831 213.673 358.165 220.739C357.635 226.393 358.165 229.559 364.564 229.676C371.11 229.784 377.657 229.676 384.164 229.676C387.898 229.676 391.641 229.676 395.375 229.568C397.453 229.568 400.079 229.794 401.951 228.716C403.411 227.813 404.34 226.255 404.44 224.541C404.804 220.916 404.841 217.265 404.548 213.634C404.411 210.351 404.136 207.068 403.705 203.834C403.49 202.236 403.607 199.776 402.225 198.591C400.422 197.052 396.434 197.865 394.297 197.856C390.978 197.856 387.663 197.836 384.35 197.797C377.255 197.732 370.16 197.536 363.065 197.209C361.026 197.121 361.056 200.227 363.065 200.364L363.104 200.335Z" fill="var(--color-illustration-primary, #382C80)"/>
<path d="M368.945 211.076C374.031 210.704 379.117 210.459 384.203 210.047C386.614 209.861 386.653 206.068 384.203 206.255C379.107 206.627 374.031 207.156 368.945 207.568C366.71 207.744 366.681 211.243 368.945 211.076Z" fill="var(--color-illustration-primary, #382C80)"/>
<path d="M369.591 217.897C371.72 218.516 373.984 218.493 376.099 217.828C377.001 217.551 377.578 216.669 377.471 215.731C377.352 214.786 376.55 214.077 375.599 214.075C373.953 214.29 372.286 214.29 370.64 214.075C368.18 213.604 367.092 217.279 369.591 217.877V217.897Z" fill="var(--color-illustration-primary, #382C80)"/>
<path d="M386.732 219.631L388.3 219.249C389.45 218.932 390.126 217.743 389.809 216.593C389.492 215.443 388.303 214.767 387.153 215.084L385.585 215.476C384.441 215.8 383.768 216.983 384.076 218.132C384.417 219.262 385.588 219.923 386.732 219.631Z" fill="var(--color-illustration-primary, #382C80)"/>
<path d="M205.843 643.53C203.641 633.202 202.596 622.661 202.727 612.102C202.649 610.564 202.886 609.027 203.423 607.584C204.648 604.909 207.5 604.291 209.979 603.968C224.718 602.073 239.49 600.574 254.295 599.47C255.389 599.255 256.524 599.465 257.47 600.058C258.92 601.185 259.106 603.644 259.126 605.761C259.263 617.972 258.894 630.17 258.019 642.354C258.038 643.346 257.773 644.322 257.254 645.167C256.511 645.882 255.461 646.183 254.451 645.971L205.138 643.031" fill="var(--color-illustration-secondary, #7F72FF)"/>
<path d="M207.558 643.081C206.091 635.604 205.193 628.026 204.873 620.413C204.736 617.042 204.011 612.475 205.04 609.212C206.157 605.645 211.135 605.909 214.124 605.547C221.494 604.645 228.876 603.845 236.272 603.146C239.97 602.799 243.665 602.473 247.356 602.166C249.208 602.019 251.051 601.862 252.903 601.744C255.069 601.597 256.215 601.411 256.823 603.92C257.597 607.036 256.97 611.035 256.94 614.23C256.901 617.993 256.81 621.749 256.666 625.5C256.519 629.253 256.343 633.006 256.078 636.75C255.97 638.181 256.294 641.131 255.627 642.375C254.588 644.335 251.991 643.355 250.208 643.277C235.184 642.297 220.151 641.199 205.128 640.425C201.786 640.249 201.825 645.374 205.128 645.599C220.141 646.638 235.184 647.393 250.208 648.187C252.707 648.314 255.813 649.01 258.048 647.569C260.282 646.129 260.312 643.394 260.449 640.964C260.88 633.712 261.135 626.431 261.252 619.169C261.311 615.641 261.341 612.123 261.311 608.595C261.311 605.851 261.586 602.568 260.174 600.078C259.199 598.351 257.366 597.287 255.382 597.295C251.854 597.138 248.101 597.834 244.602 598.148C237.213 598.801 229.827 599.556 222.444 600.412C218.753 600.83 215.065 601.277 211.38 601.754C209.165 602.038 206.823 602.215 204.824 603.322C199.071 606.507 200.6 614.984 200.904 620.404C201.323 628.354 202.415 636.255 204.167 644.022C204.667 646.276 208.029 645.305 207.597 643.042L207.558 643.081Z" fill="var(--color-illustration-primary, #382C80)"/>
<path d="M278.128 608.614C288.83 608.183 299.639 607.761 310.301 606.654C312.908 606.389 313.026 602.371 310.301 602.489C299.58 602.959 288.8 604.106 278.128 605.233C276.021 605.458 275.923 608.682 278.128 608.594V608.614Z" fill="var(--color-illustration-primary, #382C80)"/>
<path d="M279.99 624.284C283.283 625.44 287.154 625.029 290.614 625.097C294.534 625.176 298.385 625.293 302.266 625.225C303.397 625.148 304.276 624.208 304.276 623.074C304.276 621.939 303.397 620.999 302.266 620.923C298.346 620.854 294.494 620.923 290.614 621.05C287.154 621.119 283.283 620.707 279.99 621.863C279.457 622.024 279.091 622.516 279.091 623.074C279.091 623.631 279.457 624.123 279.99 624.284Z" fill="var(--color-illustration-primary, #382C80)"/>
<path d="M280.882 639.719L284.537 639.013C285.66 638.694 286.318 637.534 286.017 636.406C285.685 635.299 284.542 634.648 283.42 634.927L279.765 635.681C279.009 635.851 278.409 636.422 278.203 637.168C277.996 637.914 278.217 638.713 278.778 639.247C279.338 639.78 280.147 639.962 280.882 639.719Z" fill="var(--color-illustration-primary, #382C80)"/>
<path d="M606.82 195.857C607.355 195.88 607.887 195.769 608.369 195.534C608.712 195.367 609.182 194.76 609.545 194.73C610.162 194.681 611.26 196.151 612.004 196.504C612.964 196.97 614.083 196.97 615.042 196.504C615.504 196.246 615.908 195.896 616.228 195.475C617.13 194.436 616.64 194.711 617.737 195.475C619.756 196.965 622.363 193.603 620.432 191.976C619.1 190.849 617.492 189.83 615.67 190.222C614.913 190.414 614.23 190.826 613.71 191.408C613.474 191.691 613.258 191.989 613.063 192.3C613.455 192.408 613.494 192.378 613.19 192.202C611.995 191.927 611.358 190.683 609.917 190.673C609.259 190.685 608.618 190.889 608.075 191.261C607.555 191.604 607.095 192.535 606.418 192.633C604.586 192.907 605.076 195.818 606.85 195.818L606.82 195.857Z" fill="var(--color-illustration-primary, #382C80)"/>
<path d="M616.885 167.33C615.552 169.29 617.747 172.455 620.021 171.171C620.897 170.664 621.418 169.713 621.373 168.702C621.339 167.477 620.52 166.413 619.345 166.065C618.505 165.837 617.611 166.138 617.081 166.828C616.55 167.517 616.488 168.458 616.924 169.211C617.231 169.672 617.683 170.017 618.208 170.191H618.276L617.757 169.976C617.888 170.041 617.858 170.012 617.669 169.887C617.494 169.781 617.351 169.628 617.257 169.446C617.257 169.505 617.336 169.564 617.365 169.633L617.149 169.123C617.179 169.192 617.199 169.264 617.208 169.339L617.14 168.77C617.149 168.868 617.149 168.967 617.14 169.064L617.208 168.515C617.217 168.561 617.217 168.607 617.208 168.653C617.275 168.406 617.403 168.18 617.581 167.996L619.002 167.408H618.923L619.452 167.477C619.119 167.477 619.521 167.526 619.629 167.575C619.913 167.81 619.982 167.869 619.844 167.731C620.031 168.016 620.099 168.084 620.021 167.957C619.942 167.829 620.021 167.957 620.129 168.221C620.129 168.097 620.129 168.127 620.129 168.31C620.129 168.496 620.129 168.525 620.129 168.398C620.07 168.741 620.06 168.829 620.129 168.653C620.368 167.812 619.95 166.924 619.149 166.575C618.338 166.238 617.402 166.542 616.944 167.29L616.885 167.33Z" fill="var(--color-illustration-primary, #382C80)"/>
<path d="M602.244 168.869L603.224 168.633L600.97 167.722C600.774 167.301 601.029 167.83 600.97 167.987V167.722V168.045C600.97 167.742 600.97 167.673 600.97 167.84C600.97 168.006 600.784 168.212 600.97 167.938C601.156 167.663 600.97 167.938 600.911 168.016C600.704 168.337 600.555 168.692 600.47 169.065C600.273 169.842 600.487 170.667 601.038 171.25C601.608 171.824 602.444 172.045 603.224 171.828C605.909 170.907 606.164 167.036 604.125 165.301C603.48 164.674 602.499 164.546 601.715 164.988L600.891 165.576C600.12 166.036 599.804 166.994 600.152 167.822C600.5 168.651 601.404 169.097 602.273 168.869H602.244Z" fill="var(--color-illustration-primary, #382C80)"/>
<path d="M613.984 162.263C616.872 162.115 619.734 162.876 622.167 164.439C624.254 165.644 626.008 162.557 624.039 161.234C621.046 159.348 617.497 158.545 613.984 158.96C611.936 159.176 611.867 162.351 613.984 162.224V162.263Z" fill="var(--color-illustration-primary, #382C80)"/>
<path d="M602.273 162.361C603.469 162.518 604.664 162.714 605.86 162.91C606.537 163.087 607.256 162.857 607.706 162.321C608.156 161.784 608.257 161.036 607.965 160.4C607.673 159.763 607.04 159.352 606.34 159.343C604.978 159.255 603.625 159.157 602.273 159.02C601.351 159.02 600.603 159.764 600.597 160.686C600.623 161.6 601.358 162.336 602.273 162.361Z" fill="var(--color-illustration-primary, #382C80)"/>
<path d="M712.209 511.673C716.875 520.298 726.35 525.183 736.082 523.981L733.73 520.904C726.615 556.341 720.775 592.503 722.509 628.704C724.097 661.853 731.105 694.518 743.256 725.401C750.184 742.972 758.534 760.22 769.138 775.881C770.745 778.242 774.498 776.135 773.058 773.617C756.27 745.069 742.913 715.326 735.249 683.006C727.592 650.39 725.442 616.724 728.889 583.399C730.976 562.819 734.975 542.562 738.464 522.188C738.662 521.358 738.42 520.485 737.823 519.876C737.225 519.267 736.357 519.007 735.524 519.189C727.579 520.355 719.714 516.618 715.6 509.722C714.989 508.972 713.923 508.78 713.089 509.269C712.255 509.759 711.902 510.783 712.258 511.682L712.209 511.673Z" fill="var(--color-illustration-primary, #382C80)"/>
<path d="M546.746 656.889C540.494 669.159 537.72 682.732 535.417 696.207C533.078 709.928 531.602 723.784 530.998 737.69C530.386 751.831 530.658 765.997 531.811 780.105C532.958 794.138 534.065 809.269 538.504 822.686C539.259 824.94 543.13 824.734 542.895 822.088C541.699 808.495 538.651 795.108 537.456 781.467C536.244 767.592 535.845 753.659 536.26 739.738C536.673 725.813 537.886 711.923 539.896 698.137C541.856 684.78 544.081 671.021 549.882 658.722C550.862 656.634 547.824 654.802 546.756 656.889H546.746Z" fill="var(--color-illustration-primary, #382C80)"/>
<path d="M544.874 839.59C547.344 839.59 547.354 835.748 544.874 835.748C543.961 835.934 543.304 836.737 543.304 837.669C543.304 838.601 543.961 839.404 544.874 839.59Z" fill="var(--color-illustration-primary, #382C80)"/>
<path d="M775.9 795.96C776.933 795.96 777.771 795.122 777.771 794.089C777.771 793.055 776.933 792.217 775.9 792.217C774.866 792.217 774.028 793.055 774.028 794.089C774.028 795.122 774.866 795.96 775.9 795.96Z" fill="var(--color-illustration-primary, #382C80)"/>
<path d="M868.48 859.219C866.94 856.262 865.215 853.404 863.316 850.664C858.974 844.48 854.574 844.186 847.636 846.617C836.669 850.468 822.009 864.257 810.19 863.502C808.684 863.248 807.283 862.567 806.152 861.542C798.185 855.544 790.472 848.753 780.996 845.607C769.03 841.638 756.064 844.108 744.197 848.89C745.098 851.115 745.951 853.369 746.705 855.652C752.105 871.959 752.938 890.687 745.108 903.966C740.678 911.493 733.848 916.706 729.222 924.086C724.597 931.465 722.725 942.706 728.468 950.399C735.543 959.846 748.068 957.141 757.436 953.339C784.017 942.448 809.989 930.128 835.239 916.432C849.086 908.915 876.938 899.105 873.87 875.899C873.919 871.175 871.42 864.796 868.48 859.219Z" fill="var(--color-illustration-primary, #382C80)"/>
<path d="M872.194 857.053C868.215 849.605 863.09 840.188 853.28 840.952C844.803 841.609 837.316 846.881 830.28 851.173C826.568 853.589 822.668 855.703 818.618 857.494C816.833 858.261 814.96 858.804 813.041 859.111C810.572 859.454 809.357 858.592 807.416 857.151C798.978 850.772 790.756 843.814 780.319 840.952C767.912 837.532 754.839 840.158 743.079 844.794C741.119 845.578 739.159 847.734 740.08 850.086C744.402 860.866 747.176 872.224 746.49 883.896C746.268 889.289 744.979 894.585 742.697 899.478C740.198 904.554 736.405 908.631 732.681 912.825C725.694 920.665 719.824 929.809 720.696 940.824C721.519 951.075 728.458 959.561 738.865 960.933C749.488 962.325 759.622 957.141 769.088 953.093C781.247 947.932 793.275 942.467 805.172 936.698C816.54 931.19 827.653 925.232 838.845 919.381C845.489 915.912 852.339 912.855 858.68 908.817C866.226 903.995 873.272 897.812 876.604 889.286C880.818 878.506 877.222 866.863 872.175 857.053C869.646 852.153 862.218 856.475 864.746 861.395C868.666 869.009 871.851 878.221 868.441 886.64C865.893 892.941 860.238 897.567 854.721 901.163C848.841 904.946 842.549 907.886 836.346 911.032C826.722 915.932 817.295 921.155 807.622 925.957C796.816 931.328 785.882 936.45 774.821 941.324C769.118 943.839 763.385 946.286 757.622 948.664C753.753 950.411 749.676 951.656 745.49 952.368C736.102 953.603 729.006 947.978 729.281 938.207C729.575 927.849 737.209 921.047 743.412 913.707C759.21 894.901 757.083 869.411 748.41 847.822L745.412 853.114C757.858 848.214 771.872 845.45 784.376 851.683C790.109 854.535 795.156 858.543 800.233 862.404C802.369 864.041 804.486 866.02 806.995 867.04C809.49 867.933 812.186 868.109 814.776 867.549C825.037 865.922 833.759 858.857 842.569 853.829C846.028 851.869 850.781 849.027 854.936 849.517C859.836 850.086 862.776 857.69 864.785 861.395C867.373 866.275 874.811 861.934 872.194 857.053Z" fill="var(--color-illustration-primary, #382C80)"/>
<path d="M607.8 924.517C607.744 921.181 607.479 917.853 607.006 914.55C605.889 907.083 602.106 904.848 594.845 903.927C583.3 902.477 564.024 908.259 553.802 902.281C552.563 901.393 551.61 900.164 551.058 898.743C546.031 888.668 541.258 877.526 529.498 873.792C526.829 873.072 524.11 872.548 521.364 872.224C517.385 871.587 513.446 870.587 509.408 870.47C497.08 870.097 498.687 878.574 494.708 887.62C490.955 896.146 485.408 904.28 477.47 909.376C470.14 914.129 461.692 915.756 454.264 920.264C446.835 924.772 440.112 933.984 441.818 943.45C443.925 955.073 456.322 958.248 466.425 959.013C495.07 961.168 523.809 961.77 552.518 960.816C568.267 960.287 597.598 963.972 605.213 941.853C607.349 937.629 607.947 930.808 607.8 924.517Z" fill="var(--color-illustration-primary, #382C80)"/>
<path d="M612.132 924.516C611.945 917.588 611.985 908.709 606.252 903.74C601.352 899.477 593.835 899.193 587.7 899.448C580.487 899.742 573.304 900.908 566.081 900.732C563.23 900.663 559.221 900.595 556.683 898.968C554.145 897.341 553.018 892.99 551.626 890.285C548.275 883.788 544.218 877.476 538.102 873.253C531.242 868.5 522.04 867.725 513.975 866.608C507.33 865.628 499.902 866.02 495.864 872.194C492.513 877.349 491.895 884.023 489.004 889.491C485.182 896.812 479.93 903.211 472.589 907.229C465.073 911.306 456.429 913.109 449.51 918.293C437.456 927.358 431.576 946.292 445.306 956.739C450.392 960.6 456.713 962.178 462.946 962.962C472.452 964.167 482.164 964.402 491.729 964.814C511.976 965.686 532.213 965.657 552.489 965.118C565.082 964.775 578.282 966.039 590.356 961.619C596.602 959.508 602.023 955.482 605.85 950.114C610.995 942.637 612.161 933.356 612.073 924.516C612.014 918.979 603.41 918.97 603.468 924.516C603.596 936.659 600.421 948.703 588.073 953.319C578.469 956.905 567.875 956.455 557.8 956.445C541.885 956.445 526.009 957.111 510.094 956.788C500.686 956.598 491.281 956.242 481.88 955.72C474.569 955.318 466.915 955.357 459.732 953.76C454.665 952.613 449.03 950.447 446.806 945.351C443.954 938.834 447.629 931.69 452.343 927.143C457.723 921.949 465.279 919.92 471.992 917.029C478.996 914.147 485.175 909.57 489.975 903.711C494.403 898.263 497.828 892.071 500.088 885.424C501.225 882.014 501.607 876.222 505.694 875.066C509.222 874.086 513.406 875.154 516.885 875.791C520.805 876.526 525.019 876.771 528.841 878.123C535.064 880.279 539.122 885.581 542.267 891.098C545.727 897.165 547.471 904.603 554.498 907.366C561.054 909.934 568.492 909.522 575.382 908.993C582.271 908.464 589.631 907.033 596.442 908.542C598.784 909.062 600.911 909.797 601.949 912.119C603.576 915.765 603.361 920.636 603.468 924.526C603.674 930.034 612.279 930.063 612.132 924.516Z" fill="var(--color-illustration-primary, #382C80)"/>
<path d="M792.393 479.528C788.238 480.508 784.093 481.488 780.006 482.703C777.203 483.546 774.998 484.663 774.381 487.731C773.597 491.651 774.557 496.502 774.743 500.471L775.361 513.897C775.763 522.491 775.743 531.243 776.596 539.808C776.87 542.63 778.017 544.532 780.751 545.551C784.855 546.95 789.054 548.057 793.314 548.863C794.598 549.179 795.9 548.416 796.251 547.141C796.601 545.866 795.873 544.544 794.608 544.159C791.668 543.179 788.63 542.464 785.631 541.66C783.064 540.974 782.113 540.612 781.525 537.907C781.338 536.504 781.269 535.088 781.319 533.673L780.339 513.191C780.019 506.593 779.692 500 779.359 493.415C779.3 492.229 778.693 489.848 779.163 488.779C779.898 487.113 782.309 486.761 783.808 486.251C787.003 485.186 790.221 484.19 793.461 483.262C795.882 482.566 794.873 478.95 792.423 479.499L792.393 479.528Z" fill="var(--color-illustration-primary, #382C80)"/>
<path d="M733.945 905.72C742.844 910.934 750.752 918.636 755.054 928.123C755.573 929.009 756.623 929.435 757.612 929.162C775.52 922.01 793 913.83 809.964 904.662C827.153 895.528 844.264 885.787 860.091 874.448C862.325 872.851 860.316 869.186 857.896 870.685C841.461 880.838 825.173 891.108 808.131 900.232C791.089 909.356 773.557 917.274 755.868 925.046L758.965 925.859C753.143 916.128 745.803 908.16 735.572 902.976C733.739 902.045 732.152 904.691 733.945 905.749V905.72Z" fill="var(--color-illustration-base, #FFFFFF)"/>
<path d="M742.628 890.715C746.616 890.779 750.532 891.786 754.055 893.655C754.948 894.178 756.096 893.877 756.618 892.984C757.14 892.091 756.84 890.944 755.947 890.421C751.94 888.005 747.3 886.848 742.628 887.099C740.316 887.178 740.306 890.686 742.628 890.696V890.715Z" fill="var(--color-illustration-base, #FFFFFF)"/>
<path d="M744.392 878.28C747.518 878.28 750.586 878.593 753.683 878.877C755.78 879.083 756.28 875.526 754.182 875.183C750.938 874.708 747.653 874.587 744.382 874.82C742.177 874.938 742.138 878.289 744.382 878.28H744.392Z" fill="var(--color-illustration-base, #FFFFFF)"/>
<path d="M741.688 866.049C744.815 864.646 748.404 864.7 751.488 866.196C753.585 867.176 755.408 864.285 753.33 863.051C749.213 860.659 744.122 860.697 740.041 863.149C738.13 864.227 739.806 866.961 741.737 866.089L741.688 866.049Z" fill="var(--color-illustration-base, #FFFFFF)"/>
<path d="M459.026 906.043C469.933 912.305 470.012 926.359 472.501 937.207C472.932 939.069 473.275 941.48 474.804 942.852C476.333 944.224 478.636 944.126 480.625 944.126C487.289 944.126 493.963 943.95 500.637 943.842C527.312 943.411 553.988 942.708 580.664 941.735C583.3 941.627 583.319 937.531 580.664 937.619C554.942 938.435 529.217 939.089 503.489 939.579C497.295 939.696 491.088 939.801 484.869 939.892C483.242 939.892 480.704 940.431 479.155 939.981C477.107 939.383 476.774 937.913 476.333 936.061C475.617 933.121 475.118 930.083 474.539 927.094C472.717 917.725 469.639 907.895 460.702 903.015C458.742 901.957 457.076 904.867 458.987 905.955L459.026 906.043Z" fill="var(--color-illustration-base, #FFFFFF)"/>
<path d="M476.588 896.998C481.143 898.194 484.374 902.238 484.535 906.945C484.604 909.356 488.455 909.336 488.259 906.945C487.877 900.75 483.406 895.573 477.332 894.293C475.578 893.931 474.824 896.547 476.588 896.998Z" fill="var(--color-illustration-base, #FFFFFF)"/>
<path d="M483.947 890.128C485.221 889.569 487.446 892.411 488.191 893.224C489.397 894.589 490.488 896.051 491.454 897.595C492.865 899.751 496.236 897.83 494.933 895.557C492.895 891.97 487.191 884.777 482.399 887.472C480.625 888.452 482.183 890.892 483.947 890.128Z" fill="var(--color-illustration-base, #FFFFFF)"/>
<path d="M486.427 880.641C489.72 880.876 492.209 882.601 494.473 884.904C495.992 886.413 498.618 884.463 497.472 882.591C495.178 878.828 490.729 876.996 486.427 877.182C485.522 877.25 484.823 878.004 484.823 878.912C484.823 879.819 485.522 880.573 486.427 880.641Z" fill="var(--color-illustration-base, #FFFFFF)"/>
<path d="M729.703 863.864C725.998 860.12 718.923 855.269 714.738 861.473C709.975 868.617 720.069 871.155 724.754 872.713L726.028 868.107C720.481 866.51 712.308 870.146 713.288 876.927C714.346 884.767 727.988 881.484 732.496 879.23C734.946 878.015 733.201 874.33 730.683 874.928C727.145 875.8 723.705 876.722 720.02 876.555C716.953 876.428 718.629 874.193 720.304 873.194C721.668 872.411 723.299 872.244 724.793 872.733C727.733 873.546 728.997 869.048 726.067 868.127C724.548 867.647 718.06 866.579 718.227 864.403C718.58 859.689 726.351 865.383 727.331 866.304C728.01 866.903 729.038 866.871 729.678 866.23C730.318 865.59 730.35 864.563 729.752 863.884L729.703 863.864Z" fill="var(--color-illustration-primary, #382C80)"/>
<path d="M477.46 874.526C475 869.626 471.453 863.982 465.171 864.089C463.329 864.089 461.006 864.746 460.153 866.53C458.86 869.234 461.261 872.086 462.907 873.978L465.21 870.058C461.114 869.509 454.499 870.724 454.185 876.006C453.911 880.74 460.761 883.934 464.573 884.473C465.764 884.804 466.997 884.106 467.327 882.915C467.657 881.724 466.96 880.492 465.769 880.161C464.024 879.554 461.427 878.75 460.173 877.27C458.115 874.85 462.77 874.546 464.583 874.703C466.69 874.879 467.601 872.037 466.249 870.665C465.142 869.548 463.387 867.941 466.69 868.607C468.087 868.944 469.36 869.668 470.365 870.695C471.96 872.386 473.309 874.292 474.373 876.359C475.539 878.319 478.479 876.604 477.46 874.556V874.526Z" fill="var(--color-illustration-primary, #382C80)"/>
<path d="M500.872 372.296C528.783 388.427 543.012 418.356 558.83 444.973C561.662 449.726 568.63 445.541 566.199 440.661C551.705 411.868 532.762 382.968 504.146 366.69C500.51 364.623 497.286 370.199 500.872 372.296Z" fill="var(--color-illustration-primary, #382C80)"/>
<path d="M132.216 45.7305L148.121 61.7927C149.993 63.6939 152.933 60.7441 151.061 58.8527L134.979 42.9767C133.196 41.2127 130.452 43.9567 132.216 45.7305Z" fill="var(--color-illustration-primary, #382C80)"/>
<path d="M122.436 91.4674L143.702 99.5916C146.054 100.493 147.112 96.6516 144.74 95.8088L123.406 87.9688C121.181 87.1554 120.26 90.6736 122.426 91.5066L122.436 91.4674Z" fill="var(--color-illustration-primary, #382C80)"/>
<path d="M179.697 36.8714L182.353 47.524C182.951 49.9152 186.645 48.9058 186.048 46.544L183.382 35.9012C182.784 33.5198 179.109 34.5292 179.697 36.8812V36.8714Z" fill="var(--color-illustration-primary, #382C80)"/>
<path d="M148.121 661.063L171.994 682.476C173.748 684.054 176.365 681.496 174.591 679.879L150.659 658.515C148.944 656.986 146.396 659.495 148.121 661.063Z" fill="var(--color-illustration-primary, #382C80)"/>
<path d="M417.151 669.089L419.768 668.236C421.502 667.757 422.52 665.963 422.041 664.228C421.562 662.493 419.768 661.475 418.033 661.954L415.426 662.836C413.738 663.343 412.763 665.106 413.232 666.806C413.701 668.505 415.441 669.519 417.151 669.089Z" fill="var(--color-illustration-primary, #382C80)"/>
<path d="M447.609 680.252C452.509 680.252 452.568 672.559 447.609 672.559C442.65 672.559 442.65 680.252 447.609 680.252Z" fill="var(--color-illustration-primary, #382C80)"/>
<path d="M481.537 676.4C485.947 676.4 485.957 669.54 481.537 669.54C477.117 669.54 477.117 676.4 481.537 676.4Z" fill="var(--color-illustration-primary, #382C80)"/>
</svg>
