<svg width="1000" height="1000" viewBox="0 0 1000 1000" fill="none" xmlns="http://www.w3.org/2000/svg">
<path d="M444.277 428.46C462.044 443.385 485.966 448.177 508.81 452.313C520.717 454.479 533.663 456.458 544.394 450.863C550.333 447.766 554.929 442.65 560.25 438.603C582.584 421.6 614.66 425.373 640.561 436.172C666.463 446.972 689.796 463.848 716.678 471.903C727.034 475.006 737.751 476.739 748.557 477.058C755.623 477.274 762.826 476.852 769.431 474.353C779.662 470.492 787.502 461.966 793.167 452.617C805.476 432.272 808.778 407.821 810.336 384.085C811.071 372.835 811.414 361.202 807.396 350.667C803.859 341.348 797.195 333.615 790.658 326.089C779.476 313.212 768.02 300.109 753.32 291.475C746.529 287.487 739.041 284.498 731.201 283.724C723.361 282.949 715.521 284.38 707.985 286.664C688.483 292.455 668.06 304.255 651.204 315.515C631.545 328.647 613.68 344.317 596.794 360.84C587.671 369.758 577.694 379.46 565.003 380.695C559.123 381.253 553.341 379.92 547.638 378.539C531.899 374.726 516.121 370.542 499.951 369.591C483.781 368.641 466.925 371.169 453.273 379.901C439.622 388.633 429.802 404.322 431.018 420.473" fill="var(--color-illustration-base, #FFFFFF)"/>
<path d="M441.955 430.812C453.45 440.475 467.278 446.384 481.645 450.412C489.171 452.509 496.845 454.028 504.518 455.469C511.947 456.861 519.463 458.35 527.058 458.458C534.849 458.556 542.738 456.988 549.285 452.637C555.38 448.599 560.28 443.023 566.523 439.172C578.743 431.645 593.404 430.048 607.448 431.518C639.258 434.86 665.66 454.509 693.962 467.513C709.485 474.657 725.665 479.577 742.756 480.91C751.184 481.566 760.034 481.655 768.236 479.185C775.249 476.964 781.608 473.05 786.748 467.788C809.19 445.414 813.326 409.968 814.874 379.911C815.296 371.708 815.217 363.378 813.336 355.333C811.513 347.571 807.661 340.544 802.899 334.214C793.403 321.572 782.436 309.057 770.48 298.689C758.524 288.32 743.815 279.5 727.517 279.216C710.906 278.971 694.334 286.213 679.791 293.553C649.499 308.861 622.638 330.049 598.206 353.441C587.975 363.241 576.773 376.883 561.25 376.461C552.773 376.236 544.218 373.188 536.015 371.238C527.138 369.042 518.148 367.328 509.085 366.103C479.234 362.33 443.356 369.66 430.42 400.295C427.662 406.639 426.456 413.55 426.902 420.454C427.284 425.746 435.497 425.834 435.232 420.454C434.546 406.9 441.612 394.18 452.176 385.958C463.985 376.765 479.528 373.639 494.199 373.717C511.133 373.796 527.646 378.098 543.983 382.077C551.97 384.037 560.055 385.997 568.287 384.576C574.882 383.41 580.909 380.097 586.191 376.109C592.071 371.659 597.275 366.407 602.587 361.291C608.251 355.813 614.033 350.442 619.952 345.239C632.036 334.555 644.889 324.774 658.408 315.976C671.941 307.234 686.142 299.081 701.292 293.436C708.711 290.682 716.531 288.291 724.479 287.899C732.303 287.602 740.069 289.341 747.019 292.946C760.661 299.806 771.46 310.87 781.496 322.12C791.531 333.371 802.664 344.66 805.564 359.89C807.044 367.622 806.642 375.668 806.152 383.478C805.672 391.132 805.045 398.786 803.947 406.371C801.762 421.365 797.901 436.359 790.227 449.491C782.622 462.486 771.607 471.913 756.104 472.844C739.65 473.824 722.911 470.336 707.604 464.426C679.184 453.47 654.409 434.242 624.705 426.53C611.544 423.119 597.687 421.796 584.231 424.148C577.907 425.236 571.786 427.285 566.082 430.224C559.633 433.556 554.498 438.407 548.951 442.964C543.474 447.65 536.556 450.317 529.351 450.52C521.688 450.794 514.103 449.334 506.596 447.982C492.415 445.414 477.901 442.641 464.622 436.869C458.166 434.104 452.113 430.478 446.63 426.089C443.396 423.462 438.731 428 441.994 430.734L441.955 430.812Z" fill="var(--color-illustration-primary, #382C80)"/>
<path d="M639.601 426.804C659.544 429.058 676.057 444.503 684.994 462.466C695.559 483.683 706.074 524.039 698.538 547.608C691.002 571.177 657.035 586.289 635.142 591.708C608.505 598.304 580.262 596.265 553.802 589.033C534.378 583.731 515.758 575.705 496.266 570.697C468.65 563.602 443.052 565.415 418.278 579.772C383.713 599.803 349.678 620.785 315.485 641.434C297.192 652.475 278.899 663.487 260.605 674.469C238.84 687.445 224.404 687.621 207.186 665.747L165.369 612.7C156.882 601.92 147.072 588.131 145.416 574.059C144.544 566.718 146.906 558.526 153.07 554.459C158.088 551.146 164.673 551.136 170.485 552.695C176.296 554.253 181.608 557.202 187.145 559.555C210.87 569.629 228.099 567.336 248.826 553.39C290.103 525.627 332.782 499.49 378.833 480.694C424.883 461.898 501.568 439.093 561.661 458.899" fill="var(--color-illustration-base, #FFFFFF)"/>
<path d="M639.601 429.96C677.321 434.683 691.806 480.341 696.196 512.28C698.332 527.852 698.773 545.6 688.062 558.34C677.664 570.678 662.17 578.518 647.206 583.82C628.008 590.68 607.692 592.64 587.426 590.925C564.219 588.906 542.552 581.193 520.688 573.677C500.108 566.581 478.754 560.486 456.723 562.652C446.403 563.669 436.305 566.291 426.794 570.423C416.19 575 406.351 581.438 396.414 587.299C354.901 611.799 313.859 637.102 272.522 661.906C263.869 667.09 255.206 673.303 245.631 676.704C239.33 678.948 232.676 679.644 226.453 676.792C217.966 672.872 212.223 664.836 206.608 657.692L184.068 629.037C176.953 620.001 169.505 611.132 162.87 601.724C156.99 593.433 151.11 583.869 149.964 573.549C148.984 564.465 153.746 556.115 163.595 556.282C168.74 556.36 173.621 558.428 178.217 560.525C183.113 562.891 188.135 564.988 193.26 566.807C202.202 569.928 211.738 570.963 221.141 569.835C230.627 568.541 239.506 564.67 247.601 559.663C257.146 553.783 266.329 547.226 275.776 541.17C285.223 535.114 294.876 529.106 304.598 523.354C339.878 502.48 376.785 484.546 415.906 472.188C453.323 460.379 493.326 452.647 532.605 457.096C542.075 458.143 551.416 460.143 560.486 463.064C565.787 464.789 568.061 456.449 562.789 454.734C522.854 441.749 479.557 446.09 439.426 455.949C399.295 465.808 360.84 481.831 324.492 501.451C303.696 512.681 283.538 525.049 263.732 537.956C246.562 549.157 229.559 563.553 207.705 560.77C196.808 559.388 187.38 554.243 177.325 550.196C167.78 546.335 156.049 545.178 147.925 552.665C140.663 559.339 139.615 570.041 141.614 579.125C144.005 589.994 150.111 599.862 156.618 608.731C171.151 628.557 186.998 647.529 202.188 666.835C208.068 674.283 214.536 681.653 223.434 685.455C230.634 688.393 238.645 688.674 246.033 686.249C255.833 683.309 264.477 677.429 273.159 672.245C283.841 665.836 294.514 659.407 305.176 652.959C326.658 639.993 348.071 626.91 369.542 613.915C380.375 607.382 391.227 600.875 402.098 594.394C412.3 588.357 422.433 581.575 433.507 577.254C454.45 569.071 476.715 569.894 498.187 575.705C521.501 582.026 543.669 591.983 567.493 596.511C590.523 600.891 614.533 601.234 637.337 595.315C653.37 591.14 669.393 584.241 682.594 574.127C689.042 569.227 694.981 563.347 698.979 556.203C702.978 549.059 704.477 540.739 704.859 532.556C705.653 513.75 701.194 494.336 694.863 476.774C688.709 459.654 679.693 443.895 664.483 433.243C657.122 428.029 648.583 424.722 639.63 423.619C635.603 423.119 635.652 429.43 639.63 429.93L639.601 429.96Z" fill="var(--color-illustration-primary, #382C80)"/>
<path d="M277.452 596.187C265.917 575.157 254.098 553.165 253.059 529.195C252.736 521.658 254.872 512.319 262.183 510.418C267.024 509.163 271.905 511.888 276.815 512.887C290.838 515.739 308.047 501.951 319.67 495.747C335.728 487.118 352.22 479.323 369.082 472.394C404.146 458.086 441.308 447.188 479.145 443.895C499.265 442.141 519.796 442.602 539.533 447.159C548.843 449.305 555.958 452.059 565.464 449.011C574.117 446.238 581.487 440.348 590.562 438.672C597.921 437.31 605.605 439.005 612.357 442.22C634.309 452.696 645.99 481.939 635.063 503.675C626.89 519.904 608.995 529.214 591.169 532.752C573.343 536.29 554.958 535.075 536.809 536.074C485.408 538.877 436.79 559.153 389.348 579.194C370.512 587.132 351.53 595.149 334.674 606.722C326.638 612.24 318.994 618.61 309.831 621.961C300.668 625.313 289.319 624.901 282.459 617.983" fill="var(--color-illustration-base, #FFFFFF)"/>
<path d="M280.186 594.589C272.669 580.869 265.359 567.022 260.782 551.998C258.415 544.612 257.044 536.943 256.705 529.194C256.578 524.598 256.999 517.914 261.164 514.974C263.859 513.063 267.27 514.131 270.141 514.974C273.28 516.089 276.546 516.806 279.863 517.11C285.792 517.385 291.623 515.444 296.964 513.083C302.825 510.337 308.499 507.208 313.947 503.714C319.827 500.127 325.942 496.932 332.106 493.816C360.958 479.233 391.161 467.13 422.394 458.712C453.283 450.382 485.839 445.276 517.856 448.246C526.005 449.031 534.084 450.429 542.022 452.43C549.167 454.204 556.174 455.694 563.582 454.224C570.991 452.754 577.146 448.638 583.8 445.659C590.288 442.606 597.673 442.048 604.546 444.091C626.449 450.461 640.316 476.734 632.437 498.324C628.204 509.937 617.737 518.061 606.849 523.039C593.521 529.115 578.606 530.301 564.161 530.732C547.863 531.203 531.732 531.291 515.553 533.565C499.963 535.837 484.566 539.28 469.493 543.864C438.966 552.978 409.566 565.552 380.313 577.998C366.034 584.074 351.785 590.434 338.574 598.637C326.912 605.84 315.662 617.6 301.57 619.295C295.837 619.991 289.81 618.942 285.517 614.885C281.47 611.083 275.413 617.1 279.412 621C289.78 631.124 305.45 629.634 317.475 623.548C324.453 620.01 330.597 615.091 337.016 610.691C343.774 606.103 350.822 601.959 358.116 598.284C372.816 590.767 388.211 584.564 403.441 578.213C419.121 571.677 434.801 565.317 450.814 559.682C466.681 553.991 482.901 549.339 499.373 545.756C515.972 542.334 532.858 540.494 549.804 540.258C578.802 539.699 613.504 539.356 633.466 514.474C649.695 494.247 645.54 464.808 627.322 447.168C617.198 437.368 602.302 431.321 588.22 434.428C580.742 436.104 574.362 440.484 567.375 443.395C559.535 446.688 552.479 445.58 544.443 443.61C511.123 435.418 476.255 437.868 442.886 444.728C409.879 451.519 377.814 463.171 347.296 477.342C333.179 483.834 319.438 491.114 306.136 499.147C300.374 502.655 294.435 506.203 287.938 508.143C285.204 509.048 282.328 509.444 279.451 509.31C275.619 509.025 272.052 507.242 268.269 506.605C253.834 504.155 248.767 518.571 249.512 530.37C250.492 546.471 256.205 561.73 263.281 576.028C266.907 583.368 270.817 590.561 274.757 597.735C276.717 601.302 282.166 598.127 280.215 594.55L280.186 594.589Z" fill="var(--color-illustration-primary, #382C80)"/>
<path d="M639.601 426.804C659.544 429.058 676.057 444.503 684.994 462.466C695.559 483.683 706.074 524.039 698.538 547.608C691.002 571.177 657.035 586.289 635.142 591.708C608.505 598.304 580.262 596.265 553.802 589.033C534.378 583.731 515.758 575.705 496.266 570.697C468.65 563.602 443.052 565.415 418.278 579.772C383.713 599.803 349.678 620.785 315.485 641.434" fill="var(--color-illustration-base, #FFFFFF)"/>
<path d="M639.601 429.959C656.564 432.096 670.48 444.767 678.869 459.056C686.709 472.393 691.247 488.103 694.245 503.156C697.087 517.415 699.449 534.868 693.569 548.716C688.052 561.74 674.773 570.491 662.68 576.685C629.242 593.766 590.738 594.325 554.997 584.594C534.75 579.076 515.454 570.56 495.041 565.66C476.568 561.24 457.144 560.564 438.779 565.915C427.666 569.159 417.768 574.676 407.84 580.478C397.492 586.521 387.179 592.636 376.902 598.823C355.59 611.609 334.373 624.574 313.251 637.719C308.547 640.659 312.79 648 317.612 645.177C337.212 633.76 356.479 621.941 375.873 610.25C385.764 604.298 395.679 598.386 405.616 592.512C414.867 587.063 424.03 581.066 434.104 577.224C452.724 570.119 472.707 569.894 491.993 574.421C513.445 579.449 533.663 588.602 554.978 594.129C592.355 603.841 632.015 602.381 666.756 584.623C679.937 577.89 693.599 568.326 700.272 554.655C707.338 540.2 705.839 522.55 703.212 507.174C697.832 475.725 684.465 438.691 651.958 426.598C647.967 425.132 643.815 424.145 639.591 423.658C635.563 423.158 635.612 429.469 639.591 429.969L639.601 429.959Z" fill="var(--color-illustration-primary, #382C80)"/>
<path d="M648.833 456.136C668.864 454.969 687.768 467.366 699.646 483.576C713.66 502.676 730.908 540.651 727.497 565.161C724.087 589.67 693.197 610.358 672.558 619.423C647.431 630.438 619.217 633.28 591.895 630.634C571.854 628.674 552.146 623.98 532.115 622.373C503.695 620.09 478.783 626.293 456.811 644.609C426.167 670.236 396.218 696.716 366.044 722.892C349.913 736.886 333.756 750.854 317.573 764.796C298.345 781.3 284.145 783.936 263.448 765.316L213.272 720.157C203.07 710.965 191.045 699.068 187.017 685.485C184.92 678.4 185.841 669.923 191.222 664.905C195.602 660.789 202.09 659.652 208.078 660.201C214.065 660.75 219.838 662.749 225.669 664.121C250.766 670.001 267.348 664.807 285.449 647.53C321.385 613.141 358.949 580.096 401.157 553.734C443.366 527.372 515.004 491.817 577.557 501.088" fill="var(--color-illustration-base, #FFFFFF)"/>
<path d="M648.832 459.301C668.432 458.389 686.073 470.375 697.107 485.927C707.292 500.456 715.029 516.555 720.01 533.585C722.421 541.787 724.214 550.303 724.106 558.888C723.959 566.606 721.531 574.108 717.129 580.448C707.721 594.57 692.491 604.889 677.605 612.484C658.917 622.03 637.994 626.508 617.11 627.184C593.59 627.959 570.766 623 547.53 619.727C527.371 616.885 506.919 616.071 487.299 622.451C478.158 625.413 469.503 629.706 461.613 635.191C452.313 641.679 443.856 649.47 435.241 656.8C398.521 688.042 362.398 719.971 325.883 751.448C313.339 762.228 297.463 779.937 279.294 770.921C269.278 765.952 261.291 757.201 253.079 749.773L225.982 725.39C218.064 718.256 209.861 711.327 202.834 703.281C196.954 696.49 190.477 687.601 190.516 678.193C190.516 674.166 191.819 669.991 195.102 667.413C198.836 664.473 204.148 664.219 208.665 664.748C214.369 665.424 219.867 667.433 225.463 668.668C230.275 669.768 235.168 670.479 240.094 670.794C257.822 671.823 273.247 664.552 286.154 652.851C302.54 638.053 318.278 622.618 335.085 608.27C366.093 581.81 399.315 557.987 435.535 539.151C470.208 521.129 508.379 506.488 547.726 504.175C557.246 503.529 566.806 503.841 576.263 505.106C578.596 505.439 580.879 504.528 581.575 502.087C582.163 500.059 580.869 497.099 578.557 496.766C536.799 490.759 495.257 502.078 457.125 518.62C419.395 535.143 384.419 557.34 352.02 582.712C333.713 597.03 316.211 612.347 299.159 628.145C285.233 641.051 271.895 657.545 252.207 661.112C242.965 662.788 233.361 661.328 224.355 659.015C213.85 656.31 202.531 652.968 192.27 658.456C183.244 663.288 180.245 673.832 181.804 683.397C183.43 693.403 189.849 702.409 196.366 709.857C203.834 718.403 212.605 725.743 221.023 733.318L249.12 758.632C263.379 771.47 279.892 788.698 300.913 780.78C310.928 777.017 318.876 769.696 326.863 762.826C336.297 754.699 345.722 746.552 355.136 738.385C374.253 721.797 393.343 705.17 412.407 688.503C421.789 680.336 431.201 672.212 440.641 664.13C449.667 656.408 458.507 648.019 468.434 641.463C485.398 630.271 505.145 625.783 525.323 626.381C549.568 627.126 573.225 633.711 597.412 635.309C620.373 636.818 643.972 634.446 665.669 626.489C682.691 620.266 698.989 610.691 712.18 598.176C718.54 592.12 724.42 585.084 727.977 576.989C731.176 569.464 732.39 561.244 731.505 553.116C729.849 534.192 722.411 515.7 713.473 499.108C704.653 482.752 693.138 467.523 676.116 459.095C667.696 454.749 658.302 452.636 648.832 452.96C644.785 453.156 644.766 459.467 648.832 459.281V459.301Z" fill="var(--color-illustration-primary, #382C80)"/>
<path d="M672.559 619.393C693.207 610.328 724.087 589.621 727.498 565.131C730.908 540.64 713.64 502.646 699.646 483.546C687.768 467.366 668.864 454.969 648.833 456.106" fill="var(--color-illustration-base, #FFFFFF)"/>
<path d="M674.146 622.118C699.225 611.113 730.741 591.581 732.378 561.025C733.211 545.394 728.174 529.528 722.235 515.279C716.296 501.029 709.044 486.937 698.94 475.304C686.602 461.114 668.159 450.197 648.833 451.784C643.374 452.235 643.188 460.477 648.833 460.418C664.513 460.271 678.723 467.592 689.513 478.666C699.205 488.613 706.065 501.49 711.759 514.044C717.639 527.029 722.656 541.425 723.352 555.782C723.999 569.335 718.119 580.439 708.897 590.082C698.036 601.244 685.166 610.254 670.961 616.64C667.247 618.306 670.471 623.706 674.146 622.089V622.118Z" fill="var(--color-illustration-primary, #382C80)"/>
<path d="M570.452 486.133C507.869 476.863 436.192 512.417 394.052 538.779C370.855 553.273 348.972 569.835 328.118 587.465C319.298 594.913 309.939 606.634 299.168 610.623C289.496 614.2 278.275 611.074 276.971 626.42C276.158 636.005 281.411 644.962 286.654 653.037C293.605 663.758 300.88 674.264 308.478 684.554C321.748 702.508 341.887 718.854 359.615 732.574C391.837 702.851 423.07 672.843 456.801 644.629C478.773 626.264 503.685 620.129 532.105 622.393C594.678 627.42 664.483 648.686 714.777 596.785C743.373 567.228 754.104 521.56 741.629 482.36" fill="var(--color-illustration-base, #FFFFFF)"/>
<path d="M571.295 483.095C539.563 478.499 507.438 484.075 477.284 494.208C448.942 503.724 421.904 517.091 396.365 532.566C366.68 550.449 338.952 571.395 313.634 595.06C308.675 599.725 303.226 604.86 296.572 606.82C291.584 608.339 286.223 608.408 281.499 610.74C267.358 617.777 272.523 637.573 278.481 648.294C283.626 657.584 289.947 666.336 296.043 675.018C301.678 683.035 307.362 691.041 313.947 698.323C326.873 712.65 342.044 724.783 357.263 736.543C358.9 737.797 361.467 737.082 362.839 735.818C393.651 707.398 423.962 678.36 455.998 651.283C469.552 639.827 484.271 631.467 501.872 628.194C518.267 625.136 534.927 627.038 551.333 628.949C582.81 632.604 614.817 638.229 646.549 634.319C662.229 632.359 677.439 628.165 691.316 620.599C705.941 612.474 718.604 601.237 728.409 587.681C750.429 557.516 757.26 516.846 745.794 481.272C744.099 476.01 735.837 478.215 737.464 483.575C746.872 514.563 741.952 549.186 724.724 576.577C707.496 603.968 679.193 620.677 647.48 624.97C616.346 629.154 584.702 623.696 553.802 620.07C537.426 618.11 521.031 616.258 504.596 618.521C488.015 620.774 472.277 627.201 458.86 637.2C449.687 644.06 441.132 651.9 432.537 659.427C423.942 666.953 415.622 674.44 407.253 682.114C390.181 697.735 373.345 713.64 356.342 729.32L361.908 728.605C348.982 718.638 336.223 708.319 324.815 696.627C312.693 684.201 302.961 669.638 293.406 655.213C289.075 648.666 284.185 641.934 282.136 634.25C280.872 629.517 280.265 621.51 285.429 618.747C289.457 616.581 294.592 616.728 298.924 615.376C305.353 613.367 310.831 609.29 315.829 604.89C321.395 599.99 326.432 594.521 332.097 589.719C338.669 584.146 345.35 578.697 352.138 573.373C365.913 562.536 380.222 552.397 395.013 542.993C418.326 528.052 443.041 515.422 468.807 505.282C500.451 493.013 535.545 484.32 569.58 489.22C573.559 489.789 575.274 483.713 571.266 483.134L571.295 483.095Z" fill="var(--color-illustration-primary, #382C80)"/>
<path d="M771.558 296.503C786.895 311.007 795.744 331.313 798.998 351.922C802.252 372.531 800.135 393.533 796.166 413.887C789.472 448.187 777.908 484.83 759.014 514.455C742.05 541.023 693.07 514.553 672.245 503.724C643.972 489.024 599.911 470.237 588.69 437.202C586.269 430.077 587.014 421.669 591.63 415.769C599.323 406.018 612.445 400.775 620.961 391.269C630.399 380.763 641.728 372.022 651.822 362.271C662.376 352.079 669.05 338.555 679.84 328.559" fill="var(--color-illustration-base, #FFFFFF)"/>
<path d="M769.216 298.845C783.68 313.349 792.089 332.273 795.264 352.373C798.89 375.354 795.519 398.854 790.57 421.365C785.925 442.523 779.682 463.505 770.852 483.311C766.582 493.009 761.61 502.383 755.976 511.358C752.769 516.655 747.391 520.268 741.276 521.237C727.272 523.785 711.729 517.66 699.136 512.172C686.239 506.556 673.901 499.726 661.367 493.366C646.422 485.78 631.291 477.98 618.012 467.65C611.593 462.824 605.851 457.158 600.94 450.804C596.403 444.699 591.787 436.937 591.777 429.107C591.777 419.307 599.617 413.427 606.967 408.253C610.887 405.509 614.807 402.843 618.502 399.834C622.422 396.649 625.626 392.818 629.184 389.27C637.024 381.43 645.696 374.443 653.752 366.808C661.19 359.752 666.923 351.324 673.058 343.171C676.063 339.12 679.337 335.276 682.858 331.666C686.827 327.638 680.898 321.866 676.704 325.511C668.462 332.753 662.758 342.171 655.996 350.668C648.872 359.635 639.934 366.838 631.496 374.482C623.392 381.812 616.444 390.407 607.526 396.787C599.803 402.304 590.297 407.763 585.779 416.485C576.832 433.772 589.699 453.176 601.773 465.181C614.513 477.833 630.36 487.045 646.157 495.326C659.691 502.421 673.323 509.555 687.141 516.102C701.684 522.962 717.589 529.684 733.916 530.125C740.972 530.312 748.459 529.028 754.388 525C762.013 519.816 766.266 510.849 770.46 502.93C781.162 482.772 788.806 461.016 794.48 438.956C805.603 395.728 812.659 344.386 784.357 305.95C781.254 301.697 777.742 297.758 773.871 294.19C770.735 291.309 766.148 295.837 769.176 298.875L769.216 298.845Z" fill="var(--color-illustration-primary, #382C80)"/>
<path d="M304.088 621.785C306.336 626.201 308.622 630.608 310.948 635.005C312.154 637.308 315.701 635.26 314.447 632.957C312.056 628.599 309.645 624.264 307.214 619.952C306.068 617.914 303.04 619.717 304.088 621.785Z" fill="var(--color-illustration-primary, #382C80)"/>
<path d="M325.354 619.178C338.8 603.773 356.146 592.091 372.649 580.243C388.711 568.708 405.087 557.585 422.178 547.619C439.691 537.397 457.958 528.352 477.058 521.59C496.609 514.73 516.954 510.291 537.456 507.37C561.368 503.97 585.476 502.637 609.584 501.079C612.269 500.902 612.298 496.718 609.584 496.874C566.836 499.197 523.226 502 482.252 515.347C443.65 527.931 408.909 549.559 376.099 573.06C357.655 586.26 337.673 599.353 323.09 616.944C321.807 618.492 323.972 620.727 325.315 619.178H325.354Z" fill="var(--color-illustration-secondary, #7F72FF)"/>
<path d="M320.846 649.822C351.75 619.387 386.631 593.275 424.54 572.197C463.305 550.516 505.148 534.869 548.627 525.794C576.303 520.1 604.017 518.012 632.182 517.032C633.265 517.032 634.142 516.155 634.142 515.072C634.142 513.99 633.265 513.112 632.182 513.112C607.388 512.515 582.143 515.445 557.781 519.835C534.607 524.023 511.822 530.13 489.661 538.093C448.594 552.952 409.892 573.671 374.756 599.607C354.954 614.274 336.281 630.408 318.896 647.872C317.632 649.127 319.582 651.067 320.856 649.832L320.846 649.822Z" fill="var(--color-illustration-secondary, #7F72FF)"/>
<path d="M332.253 671.598C365.505 640.699 403.95 615.924 444.767 596.256C486.703 576.16 530.953 561.303 576.518 552.019C601.461 546.981 626.708 543.592 652.096 541.876C654.595 541.699 654.634 537.819 652.096 537.956C606.173 540.367 560.319 549.647 516.552 563.573C472.139 577.705 429.205 597.089 390.024 622.373C368.594 636.11 348.487 651.809 329.96 669.266C328.431 670.716 330.725 672.99 332.253 671.569V671.598Z" fill="var(--color-illustration-secondary, #7F72FF)"/>
<path d="M347.296 695.755C388.907 660.475 432.007 625.656 482.957 604.792C506.928 594.992 532.82 587.152 558.78 585.309C578.997 583.878 599.283 586.034 619.54 584.966C643.217 583.702 666.894 577.91 684.485 561.113C686.19 559.496 683.642 556.977 681.917 558.545C648.323 589.151 602.067 578.959 560.877 581.281C535.642 582.702 510.486 589.856 487.054 599.019C462.312 608.81 438.775 621.407 416.905 636.563C391.69 653.87 368.278 673.617 345.169 693.599C343.68 694.883 345.836 697.01 347.316 695.755H347.296Z" fill="var(--color-illustration-secondary, #7F72FF)"/>
<path d="M299.56 590.16C342.572 547.04 395.806 513.181 452.597 491.278C468.457 485.217 484.634 480.022 501.058 475.716C503.616 475.04 502.538 471.11 499.96 471.796C440.416 486.613 384.056 515.092 336.183 553.381C322.684 564.253 309.809 575.878 297.62 588.2C297.079 588.742 297.079 589.619 297.62 590.16C298.161 590.702 299.039 590.702 299.58 590.16H299.56Z" fill="var(--color-illustration-secondary, #7F72FF)"/>
<path d="M527.028 469.62C527.906 469.553 528.585 468.821 528.585 467.939C528.585 467.058 527.906 466.326 527.028 466.259C526.149 466.326 525.471 467.058 525.471 467.939C525.471 468.821 526.149 469.553 527.028 469.62Z" fill="var(--color-illustration-secondary, #7F72FF)"/>
<path d="M291.652 556.625C328.576 526.064 370.418 501.989 415.397 485.428C428.137 480.753 441.141 476.784 454.283 473.315C456.733 472.668 455.694 468.895 453.234 469.512C406.105 481.498 361.525 501.892 321.64 529.714C310.566 537.479 299.902 545.813 289.692 554.684C288.349 555.85 290.29 557.732 291.652 556.644V556.625Z" fill="var(--color-illustration-secondary, #7F72FF)"/>
<path d="M481.997 463.241C482.834 463.175 483.479 462.477 483.479 461.638C483.479 460.799 482.834 460.102 481.997 460.036C481.161 460.102 480.516 460.799 480.516 461.638C480.516 462.477 481.161 463.175 481.997 463.241Z" fill="var(--color-illustration-secondary, #7F72FF)"/>
<path d="M289.956 535.986C304.078 524.334 319.69 514.848 336.075 506.723C337.839 505.851 336.291 503.382 334.556 504.126C317.504 511.437 301.971 521.864 288.075 534.105C286.771 535.241 288.653 537.045 289.956 535.986Z" fill="var(--color-illustration-secondary, #7F72FF)"/>
<path d="M365.387 492.533C366.356 492.533 367.141 491.747 367.141 490.779C367.141 489.81 366.356 489.024 365.387 489.024C364.418 489.024 363.633 489.81 363.633 490.779C363.633 491.747 364.418 492.533 365.387 492.533Z" fill="var(--color-illustration-secondary, #7F72FF)"/>
<path d="M216.349 667.1C220.269 669.893 215.555 676.135 213.879 678.742C212.752 680.487 213.379 683.534 215.369 684.436C222.365 687.477 226.402 694.881 225.169 702.409C224.247 707.642 232.127 709.975 233.254 704.634C235.566 693.697 229.853 681.868 219.534 677.243L221.033 682.946C225.296 676.282 228.344 665.963 219.818 661.102C215.898 658.848 212.723 664.552 216.309 667.1H216.349Z" fill="var(--color-illustration-primary, #382C80)"/>
<path d="M174.091 557.261C174.885 563.857 169.945 568.943 165.604 573.255C163.644 575.215 164.408 578.008 166.417 579.517C172.611 584.182 172.297 591.277 170.612 597.971C169.544 602.283 174.934 604.037 177.374 600.822C184.048 592.002 178.481 578.361 170.435 572.628L171.239 578.89C177.168 572.677 182.891 565.435 180.853 556.35C180.02 552.636 173.62 553.41 174.091 557.261Z" fill="var(--color-illustration-primary, #382C80)"/>
<path d="M173.425 664.983C165.83 663.886 159.529 669.305 158.196 676.743C156.677 685.22 161.9 693.06 166.114 699.92C174.801 714.191 184.53 727.801 195.22 740.639C205.831 753.447 217.706 765.152 230.667 775.576C243.309 785.641 257.529 795.852 272.934 801.144C281.588 804.084 291.054 804.682 299.453 800.654C307.156 796.96 312.654 789.874 313.085 781.241C313.349 776.017 305.431 776.125 305.019 781.241C304.539 787.121 299.669 791.697 294.455 793.785C287.83 796.44 280.529 795.088 274.042 792.697C261.184 787.963 249.052 779.398 238.291 771.058C216.192 753.908 197.572 732.495 181.922 709.407C177.531 702.919 173.19 696.314 169.368 689.473C167.476 686.083 165.448 681.957 166.095 677.929C166.634 674.764 169.172 671.922 172.504 672.157C176.541 672.441 177.561 665.581 173.484 664.983H173.425Z" fill="var(--color-illustration-primary, #382C80)"/>
<path d="M138.655 553.577C134.708 551.595 129.973 552.056 126.483 554.763C122.22 557.85 120.603 563.093 120.681 568.179C120.681 573.5 122.102 578.88 123.357 584.025C124.691 589.524 126.326 594.945 128.257 600.264C131.966 610.555 136.739 620.431 142.496 629.733C148.376 639.199 155.236 648.774 163.39 656.389C167.418 660.132 172.857 654.527 169.358 650.411C163.478 643.482 157.49 636.759 152.414 629.174C147.394 621.63 142.987 613.696 139.233 605.448C135.462 597.179 132.439 588.589 130.197 579.782C129.1 575.499 127.718 570.884 128.012 566.415C128.218 563.151 131.128 557.017 135.489 558.977C139.086 560.594 142.281 555.419 138.645 553.577H138.655Z" fill="var(--color-illustration-primary, #382C80)"/>
<path d="M453.754 432.38C489.151 439.534 525.392 442.827 561.25 447.981C564.788 448.481 568.463 449.059 571.422 450.667C577.302 453.901 579.507 461.662 579.566 466.631C579.625 471.599 573.588 470.384 568.512 470.218C562.906 470.028 557.301 469.741 551.695 469.355C540.121 468.561 528.567 467.395 517.052 465.955C494.287 463.103 471.668 459.202 449.334 454.43" fill="var(--color-illustration-secondary, #7F72FF)"/>
<path d="M452.96 435.321C488.416 442.828 524.5 446.287 560.27 451.608C563.856 452.138 568.11 452.51 570.981 454.901C573.323 456.861 574.578 459.801 575.273 462.692C575.376 463.781 575.536 464.864 575.754 465.936C575.979 466.524 575.489 467.102 576.283 466.357C575.955 466.498 575.6 466.561 575.244 466.544C571.736 466.259 568.168 466.132 564.65 465.897C546.471 464.662 528.39 463.241 510.348 460.762C490.249 458.008 470.413 454.029 450.47 450.393C445.247 449.413 442.924 457.185 448.246 458.478C467.846 463.261 488.024 466.387 508.026 469.092C527.832 471.767 547.863 474.05 567.865 474.286C573.304 474.354 581.585 475.471 583.192 468.406C584.515 462.408 581.163 454.333 576.969 450.148C570.736 443.935 560.23 444.033 552.057 442.935C542.198 441.622 532.33 440.427 522.461 439.221C499.755 436.467 477.038 433.694 454.557 429.421C450.745 428.696 449.079 434.478 452.94 435.301L452.96 435.321Z" fill="var(--color-illustration-secondary, #7F72FF)"/>
<path d="M471.492 320.592C473.452 344.612 476.343 368.553 478.567 392.544C479.733 405.068 480.753 417.612 481.36 430.166C481.605 435.203 485.025 458.89 479.831 460.546C478.136 461.075 476.313 460.663 474.579 460.291C464.083 458.037 453.293 457.351 442.866 454.803C433.468 452.48 424.295 450.413 414.612 448.756C403.254 446.796 389.681 446.248 378.852 442.288C370.454 439.211 370.463 437.526 368.592 428.666C359.105 383.714 354.186 337.477 352.51 291.594L458.262 307.274C462.182 307.852 466.513 308.656 468.983 311.762C470.913 314.212 471.247 317.495 471.492 320.592Z" fill="var(--color-illustration-secondary, #7F72FF)"/>
<path d="M469.228 320.592C470.864 350.246 474.598 379.715 476.793 409.331C477.538 419.405 478.097 429.479 478.91 439.554C479.302 443.592 479.449 447.65 479.351 451.706C479.349 453.232 479.178 454.754 478.842 456.243C478.714 456.723 478.557 457.115 478.401 457.547C478.185 458.135 478.175 457.89 478.273 457.713C479.155 457.331 479.175 457.233 478.352 457.4C477.738 457.509 477.108 457.476 476.509 457.302C469.816 456.459 463.083 454.979 456.4 453.96C449.108 452.843 442.023 451.02 434.84 449.354C421.698 446.267 408.576 444.248 395.267 442.082C389.466 441.102 383.448 440.024 378.049 437.604C374.726 436.104 374.129 434.546 373.335 431.047C370.395 417.474 367.955 403.745 365.848 390.015C360.953 357.407 357.972 324.54 356.92 291.584L351.393 295.798C372.58 298.966 393.774 302.115 414.975 305.245L446.394 309.88C451.294 310.605 456.302 311.007 461.094 312.203C465.886 313.398 466.768 316.025 467.18 320.562C467.679 326.06 476.294 326.148 475.853 320.562C475.49 316.015 474.873 311.311 471.433 307.93C468.228 304.745 463.75 303.716 459.447 303.03C447.638 301.188 435.79 299.522 423.971 297.758C400.543 294.282 377.114 290.803 353.686 287.321C351.03 286.929 348.041 288.408 348.159 291.535C349.288 322.621 352.065 353.626 356.479 384.419C358.713 399.766 361.379 415.044 364.681 430.195C365.554 434.252 366.279 438.642 369.376 441.671C372.864 445.091 378.48 446.571 383.096 447.747C396.678 451.196 410.996 451.667 424.785 454.156C432.272 455.518 439.593 457.654 447.06 459.056C454.528 460.457 462.358 461.271 469.963 462.652C474.392 463.456 480.929 465.886 483.977 461.124C485.79 458.311 485.937 454.499 486.025 451.265C486.26 443.278 484.986 435.35 484.555 427.392C482.595 391.612 477.617 356.107 473.775 320.503C473.452 317.72 469.061 317.632 469.228 320.592Z" fill="var(--color-illustration-secondary, #7F72FF)"/>
<path d="M740.355 279.431C772.597 278.882 801.115 300.207 816.981 327.089C830.838 350.609 836.434 378.049 838.639 405.244C842.559 453.205 837.032 510.633 790.335 535.897C756.035 554.517 705.839 545.942 672.029 530.507C643.461 517.431 618.323 497.896 598.598 473.442C588.073 460.369 576.479 444.493 559.692 444.424C555.615 444.424 551.352 445.404 547.589 443.797C543.826 442.19 541.709 436.408 545.07 434.154C542.052 438.074 537.936 441.69 533.006 441.876C528.077 442.062 523.01 437.025 524.853 432.448C521.638 436.368 517.914 440.582 512.887 441.161C507.86 441.739 502.45 435.839 505.419 431.743C502.254 435.849 495.727 440.014 492.797 435.731C491.817 434.232 491.817 432.262 492.042 430.459C494.071 412.172 505.547 396.531 520.266 386.085C536.074 374.883 552.802 365.965 572.314 363.927C605.272 360.477 638.67 369.405 668.119 384.615C697.568 399.824 723.44 421.08 747.842 443.493" fill="var(--color-illustration-base, #FFFFFF)"/>
<path d="M740.354 282.587C760.043 282.518 778.653 290.799 793.274 303.774C809.111 317.867 819.568 336.467 825.908 356.547C832.249 376.627 834.836 397.982 835.571 419.061C836.169 436.3 835.326 453.744 831.455 470.6C827.731 486.779 821.116 502.597 809.954 515.092C797.635 528.89 781.162 537.357 763.032 540.503C743.432 543.894 722.852 541.65 703.742 536.75C684.176 531.675 665.57 523.443 648.656 512.377C630.684 500.652 614.71 486.12 601.341 469.335C595.324 461.819 589.405 454.077 581.741 448.118C573.725 441.866 565.307 439.377 555.213 439.867C553.459 439.945 550.675 440.386 549.176 439.249C548.754 438.915 548.432 438.471 548.245 437.966C548.039 437.417 547.373 438.397 548.451 437.525L541.708 430.782C539.69 433.32 537.171 436.329 533.868 436.995C531.908 437.387 528.782 436.064 529.498 433.712C530.84 429.361 524.598 425.343 521.54 429.077C519.423 431.654 516.944 435.084 513.622 436.153C512.592 436.588 511.408 436.442 510.515 435.77C510.027 435.444 509.643 434.985 509.408 434.447C509.221 433.859 509.251 434.712 509.594 434.144C512.299 429.636 505.605 424.099 502.116 428.371C500.976 429.915 499.532 431.209 497.873 432.174C497.461 432.389 496.354 432.821 496.383 432.821C497.069 433.115 496.726 432.203 496.766 431.556C497.133 426.917 498.225 422.364 500 418.062C503.411 409.822 508.582 402.427 515.15 396.394C522.197 389.73 530.693 384.379 539.17 379.734C547.915 374.827 557.386 371.346 567.228 369.424C587.984 365.583 610.289 368.631 630.369 374.481C650.949 380.489 670.226 390.161 688.189 401.833C708.406 414.985 726.644 430.704 744.598 446.746C748.988 450.666 755.456 444.326 751.115 440.239C716.109 407.311 675.919 376.725 628.762 364.172C606.036 358.125 580.409 355.577 557.467 361.937C546.493 365.148 536.046 369.945 526.46 376.177C517.444 381.87 508.82 388.221 501.96 396.531C494.502 405.665 489.151 416.396 487.505 428.146C486.691 433.938 487.652 440.945 494.58 442.121C500.058 443.052 505.419 439.181 508.712 435.104L501.234 429.342C497.314 435.908 502.214 443.62 509.074 445.531C516.914 447.756 523.637 441.327 528.175 435.819L520.217 431.184C518.13 437.975 523.206 444.777 529.86 446.305C537.279 448.011 544.031 442.993 548.402 437.485C552.234 432.674 546.442 426.862 541.659 430.743C537.818 433.85 537.945 439.377 540.287 443.346C543.071 448.05 548.314 449.49 553.488 449.422C558.662 449.353 563.357 448.863 568.286 450.931C572.632 452.912 576.58 455.668 579.938 459.065C587.621 466.425 593.658 475.255 600.685 483.222C608.285 491.855 616.605 499.825 625.557 507.046C659.495 534.427 702.879 552.126 746.96 550.803C767.677 550.166 787.855 544.56 804.388 531.732C818.852 520.501 828.888 504.909 834.944 487.769C841.128 470.325 843.313 451.558 843.548 433.134C843.95 411.803 841.842 390.498 837.267 369.66C832.18 347.267 822.959 325.56 807.592 308.204C794.058 292.955 775.762 281.117 755.495 277.52C750.498 276.638 745.428 276.235 740.354 276.315C736.297 276.383 736.287 282.645 740.354 282.626V282.587Z" fill="var(--color-illustration-primary, #382C80)"/>
<path d="M704.124 189.496C700.214 188.212 696.025 188.036 692.021 188.987C688.559 189.693 685.445 191.569 683.201 194.298C681.094 197.082 680.359 201.051 681.937 204.177C682.808 205.764 684.04 207.124 685.534 208.146C690.21 211.479 695.99 212.883 701.674 212.066C707.342 211.213 712.546 208.446 716.423 204.226" fill="var(--color-illustration-primary, #382C80)"/>
<path d="M705.084 186.027C697.695 183.695 688.855 184.283 682.672 189.34C676.988 193.995 675.096 202.501 679.908 208.45C689.659 220.504 710.004 218.416 719.324 207.137C722.636 203.119 717.52 197.817 713.551 201.364C706.75 207.421 697.313 210.478 688.973 205.431C684.602 202.785 683.799 198.003 688.189 194.779C692.579 191.555 698.283 191.584 703.163 192.976C707.642 194.25 709.494 187.419 705.123 186.027H705.084Z" fill="var(--color-illustration-primary, #382C80)"/>
<path d="M755.829 221.552C755.35 230.272 754.2 238.941 752.389 247.483C750.85 254.627 749.527 261.203 750.86 268.534C751.322 270.982 751.908 273.406 752.614 275.795C753.369 278.402 755.182 281.577 753.967 284.223C752.565 287.281 748.949 290.29 746.627 292.671C743.878 295.478 740.959 298.113 737.885 300.56C735.609 302.505 733.052 304.095 730.3 305.274C727.5 306.457 724.365 306.582 721.48 305.627C716.58 303.794 713.944 298.237 713.473 293.004C713.003 287.771 714.13 282.528 714.198 277.265C714.343 274.88 713.917 272.495 712.954 270.307C710.68 265.77 704.389 265.182 700.361 262.791C695.881 260.138 692.211 256.313 689.747 251.727C684.367 241.584 685.063 228.951 689.679 218.407C691.588 214.122 694.025 210.093 696.931 206.411C706.557 193.936 722.975 188.84 737.973 193.671C747.999 196.974 756.809 204.638 755.829 221.552Z" fill="var(--color-illustration-base, #FFFFFF)"/>
<path d="M752.575 221.553C751.487 232.911 748.606 243.818 746.911 255.059C746.059 260.294 746.135 265.638 747.136 270.847C747.585 273.193 748.177 275.51 748.91 277.785C749.606 279.912 750.87 281.764 749.37 283.763C746.715 287.409 742.657 290.692 739.296 293.671C735.935 296.65 731.642 300.795 726.928 301.658C715.56 303.735 718.108 286.821 718.54 280.549C718.912 275.649 718.834 270.21 715.6 266.182C713.071 263.026 709.347 261.674 705.692 260.302C697.391 257.087 692.168 249.375 690.815 240.702C688.022 222.797 700.439 202.305 718.069 197.523C726.164 195.318 735.366 196.239 742.569 200.767C749.772 205.294 751.791 213.419 751.458 221.572C751.223 227.246 759.974 227.207 760.278 221.572C760.738 212.243 758.455 202.511 751.252 196.092C744.627 190.212 735.425 187.38 726.654 187.37C704.29 187.37 686.053 205.99 682.28 227.403C680.32 238.536 682.123 250.355 689.414 259.292C692.7 263.324 696.941 266.47 701.752 268.446C703.682 269.057 705.546 269.858 707.319 270.837C709.573 272.317 709.729 274.757 709.72 277.305C709.72 288.085 706.358 301.432 717.256 308.459C728.153 315.486 739.796 305.47 747.224 298.257C751.085 294.523 757.024 289.947 758.347 284.478C759.023 281.538 758.053 278.794 757.103 276.08C755.928 272.821 755.101 269.447 754.633 266.015C753.741 258.567 755.789 251.315 757.044 244.044C758.278 236.619 758.976 229.116 759.131 221.592C759.19 217.299 752.967 217.456 752.575 221.553Z" fill="var(--color-illustration-primary, #382C80)"/>
<path d="M752.575 221.553C751.487 232.911 748.606 243.818 746.911 255.059C746.059 260.294 746.135 265.638 747.136 270.847C747.585 273.193 748.177 275.51 748.91 277.785C749.606 279.912 750.87 281.764 749.37 283.763C746.715 287.409 742.657 290.692 739.296 293.671C735.935 296.65 731.642 300.795 726.928 301.658C715.56 303.735 718.108 286.821 718.54 280.549C718.912 275.649 718.834 270.21 715.6 266.182C713.071 263.026 709.347 261.674 705.692 260.302C697.391 257.087 692.168 249.375 690.815 240.702C688.022 222.797 700.439 202.305 718.069 197.523C726.164 195.318 735.366 196.239 742.569 200.767C749.772 205.294 751.791 213.419 751.458 221.572C751.223 227.246 759.974 227.207 760.278 221.572C760.738 212.243 758.455 202.511 751.252 196.092C744.627 190.212 735.425 187.38 726.654 187.37C704.29 187.37 686.053 205.99 682.28 227.403C680.32 238.536 682.123 250.355 689.414 259.292C692.7 263.324 696.941 266.47 701.752 268.446C703.682 269.057 705.546 269.858 707.319 270.837C709.573 272.317 709.729 274.757 709.72 277.305C709.72 288.085 706.358 301.432 717.256 308.459C728.153 315.486 739.796 305.47 747.224 298.257C751.085 294.523 757.024 289.947 758.347 284.478C759.023 281.538 758.053 278.794 757.103 276.08C755.928 272.821 755.101 269.447 754.633 266.015C753.741 258.567 755.789 251.315 757.044 244.044C758.278 236.619 758.976 229.116 759.131 221.592C759.19 217.299 752.967 217.456 752.575 221.553Z" fill="var(--color-illustration-primary, #382C80)"/>
<path d="M695.02 222.17C697.284 222.337 700.067 222.591 700.263 225.698C700.341 227.08 699.283 228.638 698.46 229.618C697.284 231.088 695.618 232.333 694.814 234.048C692.952 237.968 697.313 239.928 700.371 240.908C702.664 241.672 704.291 237.968 702.046 236.988C701.302 236.684 700.586 236.351 699.881 236.008C698.597 235.714 698.499 235.341 699.567 234.861C699.93 233.95 701.125 232.979 701.713 232.156C703.163 230.314 703.96 228.042 703.977 225.698C703.781 220.68 699.293 219.191 695.02 219.093C693.06 219.093 693.06 222.033 695.02 222.17Z" fill="var(--color-illustration-primary, #382C80)"/>
<path d="M712.836 227.05C712.165 227.075 711.541 227.4 711.138 227.937C710.735 228.473 710.595 229.163 710.758 229.814C710.94 230.415 711.389 230.899 711.976 231.123C712.563 231.348 713.221 231.288 713.757 230.96C714.707 230.371 715.241 229.294 715.135 228.181C715.028 227.068 714.299 226.112 713.255 225.714C712.21 225.316 711.029 225.545 710.209 226.305C709.319 227.239 709.007 228.584 709.396 229.814C709.783 231.21 711.026 232.196 712.473 232.254C713.868 232.148 715.058 231.206 715.482 229.873C715.647 229.254 715.47 228.595 715.017 228.142C714.565 227.689 713.905 227.512 713.287 227.677L712.973 227.795C712.493 227.991 712.356 228.04 712.591 227.962L712.414 228.03C712.245 228.089 712.084 228.168 711.934 228.265C711.817 228.324 711.817 228.324 711.934 228.265C712.063 228.207 712.206 228.186 712.346 228.207C712.61 228.207 712.718 228.207 712.885 228.363C713.051 228.52 713.159 229 713.091 228.599C713.091 228.383 713.091 228.461 713.091 228.53C713.091 228.599 713.002 228.785 712.904 228.893C712.723 229.096 712.434 229.166 712.179 229.068C711.924 228.97 711.756 228.725 711.758 228.452C711.758 228.452 711.836 228.099 711.758 228.314C711.758 228.207 711.924 228.011 711.758 228.207C711.591 228.403 711.542 228.412 711.679 228.324C711.993 228.138 711.905 227.864 712.512 227.932L713.345 228.158C714.159 228.53 713.198 230.49 713.865 229.686C714.296 229.238 714.422 228.577 714.188 228.001C713.966 227.414 713.405 227.025 712.777 227.021L712.836 227.05Z" fill="var(--color-illustration-primary, #382C80)"/>
<path d="M691.796 225.159C691.125 225.183 690.501 225.509 690.098 226.045C689.695 226.582 689.555 227.271 689.718 227.922C689.897 228.526 690.346 229.012 690.933 229.238C691.52 229.465 692.179 229.406 692.717 229.079C693.618 228.464 694.104 227.402 693.982 226.319C693.859 225.236 693.147 224.31 692.132 223.912C691.117 223.515 689.966 223.712 689.14 224.424C688.25 225.357 687.938 226.702 688.327 227.932C688.713 229.328 689.957 230.314 691.404 230.372C692.8 230.269 693.991 229.326 694.413 227.991C694.576 227.372 694.398 226.713 693.947 226.26C693.495 225.806 692.837 225.626 692.217 225.786L691.904 225.904C691.424 226.1 691.286 226.158 691.522 226.07C691.757 225.982 691.62 226.07 691.345 226.149C691.179 226.21 691.018 226.285 690.865 226.374C690.747 226.443 690.757 226.443 690.865 226.374C690.994 226.315 691.137 226.295 691.277 226.315C691.541 226.315 691.649 226.315 691.825 226.472C692.002 226.629 692.09 227.099 692.021 226.697C692.021 226.482 692.021 226.57 692.021 226.639C692.021 226.707 691.933 226.893 691.835 227.001C691.653 227.205 691.364 227.275 691.109 227.177C690.855 227.079 690.687 226.833 690.689 226.56C690.689 226.511 690.767 226.207 690.689 226.413C690.689 226.315 690.855 226.119 690.689 226.305C690.522 226.492 690.483 226.521 690.62 226.433C690.924 226.247 690.836 225.972 691.443 226.041L692.276 226.266C693.09 226.639 692.129 228.589 692.796 227.795C693.226 227.342 693.352 226.679 693.119 226.1C692.892 225.516 692.334 225.129 691.708 225.12L691.796 225.159Z" fill="var(--color-illustration-primary, #382C80)"/>
<path d="M754.869 245.043C755.604 246.739 756.378 248.963 755.368 250.629C754.825 251.604 753.837 252.25 752.727 252.357C751.616 252.465 750.523 252.021 749.802 251.168C747.842 248.983 747.656 245.7 748.205 242.809C748.753 239.918 749.9 237.145 750.165 234.224C750.429 231.304 749.645 227.982 747.166 226.384C744.912 224.953 741.835 225.404 739.62 226.855C737.405 228.305 733.524 232.568 733.27 235.449C732.423 232.129 732.549 228.635 733.632 225.385C734.612 222.543 736.258 219.955 736.984 217.035C737.62 214.841 737.341 212.483 736.209 210.498C734.661 208.195 732.956 209.665 730.623 209.675C728.521 209.667 726.46 209.084 724.665 207.99C723.685 207.402 720.529 205.05 720.745 203.678C719.647 209.842 713.718 211.312 708.338 211.694C697.686 212.458 686.69 210.596 677.4 205.314C668.109 200.032 660.681 191.173 658.162 180.814C657.264 177.472 657.15 173.967 657.829 170.573C659.211 164.507 664.111 159.538 669.971 157.431C675.941 155.456 682.437 155.806 688.16 158.411C693.842 161.049 698.755 165.098 702.429 170.171C704.849 165.742 711.484 165.036 715.688 167.829C718.16 169.576 720.032 172.044 721.049 174.895C722.107 177.619 721.872 179.952 724.371 181.755C725.665 176.855 729.173 172.808 734.347 171.759C739.415 170.869 744.576 172.708 747.94 176.6C751.209 180.529 752.565 185.705 751.645 190.732C754.943 188.522 759.046 187.873 762.866 188.958C766.7 190.117 769.576 193.306 770.333 197.239C770.964 201.226 768.877 205.149 765.217 206.853C768.642 207.747 771.423 210.24 772.685 213.546C773.947 216.852 773.535 220.564 771.578 223.513C769.324 226.923 765.257 228.834 761.19 229.275C763.612 231.192 765.296 233.89 765.952 236.909C766.563 239.971 765.49 243.126 763.14 245.181C760.688 247.07 757.256 247.013 754.869 245.043Z" fill="var(--color-illustration-primary, #382C80)"/>
<path d="M751.595 245.945C751.833 246.547 752.036 247.162 752.203 247.787C752.075 248.699 752.203 248.904 752.585 248.424C752.34 247.091 751.811 246.239 751.948 244.779C752.222 241.976 753.477 239.33 754.006 236.566C754.898 231.95 754.27 226.894 750.566 223.62C742.726 216.702 730.525 225.629 729.006 234.283H737.62C735.66 225.522 744.725 218.377 740.835 209.626C739.051 205.598 735.935 204.54 731.858 205.01C730.174 205.331 728.431 205.024 726.958 204.148C726.623 203.871 726.27 203.619 725.899 203.393C724.694 202.903 725.096 201.433 725.272 203.697C724.91 198.973 717.677 197.298 716.511 202.511C715.531 206.794 710.974 207.166 707.221 207.411C701.671 207.77 696.099 207.278 690.698 205.951C680.241 203.305 670.863 197.327 665.463 187.792C660.367 178.805 659.583 166.232 670.706 161.596C681.995 156.882 692.805 164.683 699.439 173.229C701.233 175.532 704.918 174.454 706.231 172.357C708.367 168.956 713.218 170.671 715.247 173.19C718.187 176.796 717.648 181.696 721.372 184.812C723.841 186.88 727.634 186.224 728.614 182.852C730.094 177.835 734.396 174.63 739.708 176.179C745.392 177.835 748.332 183.862 747.499 189.516C746.969 193.044 750.321 196.533 753.869 194.416C757.416 192.3 761.846 191.79 764.649 195.161C765.685 196.334 766.099 197.932 765.762 199.461C765.424 200.989 764.377 202.265 762.943 202.893C759.278 204.687 760.552 210.077 764.031 211.155C767.421 212.058 769.482 215.49 768.686 218.907C767.706 222.905 763.678 224.424 760.033 224.983C756.838 225.473 755.789 230.265 758.073 232.274C760.033 233.999 761.993 236.439 761.513 239.281C761.062 241.79 759.102 242.613 757.083 241.133C752.399 237.703 747.881 245.533 752.536 248.924C758.181 253.06 766.177 250.649 769.196 244.494C772.449 237.821 769.382 230.774 764.296 226.1L761.219 233.548C769.059 232.568 776.379 228.177 777.673 219.779C778.898 211.851 773.949 204.785 766.452 202.443L767.53 210.704C775.056 207.029 777.055 197.19 772.253 190.536C766.912 183.137 756.926 182.431 749.478 186.919L755.858 191.819C757.328 181.5 752.585 170.926 741.991 167.858C732.113 164.997 723.057 171.053 720.245 180.54L727.497 178.629C726.242 177.58 726.184 176.531 725.723 175.003C725.199 173.236 724.465 171.538 723.538 169.946C721.797 166.892 719.135 164.467 715.933 163.017C709.759 160.371 702.379 162.135 698.753 167.917L705.545 167.045C698.685 158.166 687.905 151.443 676.272 152.08C665.845 152.659 655.281 159.852 653.585 170.7C651.831 181.961 657.633 193.603 665.443 201.404C673.518 209.459 684.063 214.144 695.343 215.653C705.506 217.005 722.156 217.701 725.096 204.873L716.344 203.687C716.854 210.861 727.124 215.653 733.475 213.82L734.22 213.673C732.848 212.978 732.367 213.144 732.789 214.173C732.485 214.849 732.563 216.133 732.318 216.927C731.642 219.063 730.476 221.033 729.692 223.14C728.126 227.476 727.877 232.178 728.977 236.654C729.957 240.79 736.817 241.045 737.591 236.654C738.022 234.175 743.471 227.011 745.725 231.127C746.989 233.42 745.411 237.007 744.872 239.261C744.058 242.032 743.818 244.94 744.167 247.807C744.96 252.707 749.067 257.528 754.457 255.794C760.239 253.951 759.847 247.787 757.798 243.318C756.211 239.859 750.282 242.329 751.595 245.945Z" fill="var(--color-illustration-primary, #382C80)"/>
<path d="M727.742 260.752C724.361 261.753 720.859 262.284 717.334 262.33C713.796 262.389 710.474 261.35 707.015 260.997C702.918 260.566 701.546 266.789 704.947 268.602C712.787 272.797 722.91 270.748 730.162 266.495C733.171 264.721 731.211 259.635 727.742 260.752Z" fill="var(--color-illustration-primary, #382C80)"/>
<path d="M718.755 222.268C715.943 219.583 712.199 219.544 708.602 220.494C706.505 221.053 706.848 224.65 709.132 224.414C711.65 224.13 714.551 223.278 716.883 224.699C717.549 225.054 718.373 224.878 718.835 224.282C719.298 223.687 719.264 222.844 718.755 222.288V222.268Z" fill="var(--color-illustration-primary, #382C80)"/>
<path d="M706.604 247.072C709.897 246.582 713.689 245.572 714.042 241.652C714.209 239.79 711.337 239.075 710.524 240.672C709.495 242.701 707.947 243.534 705.8 244.141C703.84 244.68 704.732 247.326 706.604 247.081V247.072Z" fill="var(--color-illustration-primary, #382C80)"/>
<path d="M738.209 374.776C742.459 393.36 742.278 412.684 737.679 431.185C736.415 436.173 744.196 438.3 745.363 433.302C750.133 413.47 749.765 392.75 744.294 373.1C743.177 369.18 737.327 370.827 738.209 374.776Z" fill="var(--color-illustration-primary, #382C80)"/>
<path d="M652.654 379.744C647.642 409.266 636.292 437.35 619.383 462.064C615.875 467.19 611.916 472.335 606.34 475.069C602.282 477.029 600.989 475 597.52 472.462C597.191 472.137 596.735 471.975 596.275 472.021C595.775 472.148 595.55 472.707 595.393 473.187C594.413 476.382 593.433 479.861 594.58 482.987C597.186 490.435 606.496 490.416 612.269 493.914C617.806 497.266 622.412 500.706 628.38 503.597" fill="var(--color-illustration-base, #FFFFFF)"/>
<path d="M649.411 378.853C643.962 403.863 635.22 427.853 621.971 449.766C618.815 454.989 615.562 460.418 611.563 465.054C609.847 467.148 607.802 468.948 605.507 470.385C604.527 470.983 603.929 471.306 603.341 471.169C602.106 470.875 600.92 469.209 599.862 468.552C593.296 464.436 590.405 472.472 589.768 477.578C588.968 482.912 591.181 488.252 595.521 491.455C599.352 494.326 604.056 495.091 608.261 497.041C614.503 499.912 619.834 504.616 626.048 507.635C631.359 510.212 636.053 502.362 630.712 499.648C623.274 495.875 616.738 490.289 608.849 487.476C606.154 486.496 602.969 485.849 600.705 484.036C599.654 483.229 598.935 482.065 598.686 480.763C598.49 479.783 598.686 475.863 599.49 475.246L596.275 476.579C594.972 476.187 594.874 476.324 596.001 477L597.667 478.294C598.317 478.775 599.013 479.192 599.744 479.538C601.86 480.498 604.26 480.628 606.467 479.901C611.299 478.421 615.483 474.393 618.619 470.601C625.479 462.202 631.114 452.48 636.044 442.818C646.291 423.105 653.042 401.765 655.996 379.745C656.467 375.982 650.185 375.178 649.381 378.853H649.411Z" fill="var(--color-illustration-primary, #382C80)"/>
<path d="M658.191 460.614C653.505 468.064 648.078 475.022 641.992 481.38C636.112 487.505 629.566 493.993 621.775 497.619C617.159 499.765 621.187 506.351 625.695 504.391C634.132 500.755 640.953 493.121 646.872 486.31C653 479.257 658.411 471.611 663.023 463.486C664.836 460.31 660.083 457.606 658.123 460.634L658.191 460.614Z" fill="var(--color-illustration-primary, #382C80)"/>
<path d="M670.696 424.08L670.442 426.402C670.433 427.29 670.787 428.143 671.422 428.764C672.048 429.391 672.897 429.744 673.783 429.744C674.672 429.741 675.523 429.389 676.155 428.764C676.745 428.114 677.092 427.279 677.135 426.402L677.37 424.08C677.367 423.197 677.015 422.352 676.39 421.728C675.766 421.1 674.918 420.747 674.033 420.747C673.148 420.747 672.3 421.1 671.676 421.728L671.157 422.404C670.859 422.913 670.7 423.491 670.696 424.08Z" fill="var(--color-illustration-primary, #382C80)"/>
<path d="M471.58 310.655C474 333.489 476.166 356.352 477.744 379.255C479.322 402.158 479.704 425.178 481.056 448.129C481.213 450.805 485.202 450.844 485.251 448.129C485.643 425.001 483.928 401.638 482.134 378.549C480.351 355.696 477.959 332.891 474.686 310.194C474.431 308.45 471.393 308.842 471.58 310.616V310.655Z" fill="var(--color-illustration-primary, #382C80)"/>
<path d="M513.298 455.596C514.811 456.228 516.442 456.525 518.081 456.469C518.841 456.404 519.608 456.473 520.344 456.674C520.727 456.831 521.52 457.772 521.638 457.654L523.137 457.037L519.217 456.625L517.257 456.429L516.601 456.361C515.379 456.015 515.186 456.772 516.023 458.634C517.738 457.752 517.13 455.332 515.523 454.793C512.181 453.666 510.936 458.576 513.563 460.183C514.866 460.977 516.748 460.83 518.208 460.928C519.668 461.026 522.471 461.712 523.961 461.075C526.901 459.83 525.548 455.753 523.706 454.215C520.874 451.882 517.698 453.617 514.553 452.656C512.838 452.137 511.613 454.852 513.308 455.596H513.298Z" fill="var(--color-illustration-primary, #382C80)"/>
<path d="M538.71 458.478C538.436 457.901 538.436 457.232 538.71 456.655L536.838 458.066C539.249 458.39 541.64 458.694 544.051 458.988L542.238 455.822C541.897 456.438 541.738 457.138 541.777 457.841C541.804 458.171 541.853 458.498 541.924 458.821L541.993 459.125C542.081 459.772 542.199 459.536 542.356 458.419L543.336 457.831C542.57 457.907 541.796 457.844 541.052 457.645C540.08 457.491 539.096 457.422 538.112 457.439C537.055 457.474 536.178 458.267 536.038 459.316C535.897 460.364 536.534 461.36 537.544 461.673C538.978 462.007 540.436 462.223 541.905 462.32C542.986 462.577 544.123 462.46 545.129 461.986C546.023 461.427 546.565 460.444 546.56 459.389C546.56 458.948 546.031 457.567 546.089 457.429C546.628 456.057 545.296 454.881 544.071 454.774C541.67 454.568 539.269 454.382 536.858 454.195C535.991 454.205 535.234 454.783 534.996 455.616C534.522 457.033 534.721 458.588 535.535 459.84C536.515 461.457 539.592 460.409 538.779 458.468L538.71 458.478Z" fill="var(--color-illustration-primary, #382C80)"/>
<path d="M407.282 385.869C400.873 384.321 396.051 377.471 397.266 370.983C398.482 364.495 405.969 359.801 412.192 361.996C417.837 363.956 420.914 370.542 420.483 376.52C420.429 378.952 419.54 381.292 417.964 383.145C415.583 385.654 411.819 386.085 408.37 386.447" fill="var(--color-illustration-base, #FFFFFF)"/>
<path d="M407.655 384.497C402.804 382.949 398.835 378.078 399.031 372.845C399.409 367.55 403.846 363.465 409.154 363.525C414.27 363.721 417.474 368.563 418.209 373.198C418.611 375.785 418.454 378.833 416.876 381.038C414.916 383.723 411.418 384.027 408.37 384.37C405.753 384.674 405.655 388.78 408.37 388.555C412.29 388.231 416.592 387.653 419.483 384.684C422.198 381.891 422.923 377.579 422.58 373.835C421.953 367.034 417.317 360.115 410.026 359.468C402.753 359.039 396.348 364.214 395.238 371.414C394.327 378.892 399.873 385.497 406.9 387.261C407.658 387.469 408.441 387.024 408.649 386.266C408.858 385.509 408.412 384.725 407.655 384.517V384.497Z" fill="var(--color-illustration-base, #FFFFFF)"/>
<path d="M726.733 575.352C723.313 572.353 719.873 569.413 716.217 566.689C714.414 565.346 711.621 566.434 710.573 568.178C705.03 577.438 697.249 585.155 687.944 590.62C683.564 593.178 678.252 594.756 675.204 599.087C672.157 603.419 672.068 608.966 672.509 614.081C672.931 619.04 680.349 619.207 680.349 614.081C680.349 609.181 680.349 604.281 685.024 601.655C689.316 599.244 693.638 597.216 697.637 594.295C705.734 588.407 712.555 580.94 717.687 572.343L712.033 573.823C715.482 576.253 719.089 578.4 722.715 580.536C725.87 582.398 729.575 577.88 726.713 575.352H726.733Z" fill="var(--color-illustration-primary, #382C80)"/>
<path d="M607.927 504.743C601.361 516.072 603.214 534.094 615.238 541.248C619.217 543.62 622.627 538.406 619.932 535.162C616.738 531.321 614.052 527.567 612.896 522.628C611.771 517.876 612.228 512.886 614.199 508.418C616.159 504.243 610.279 500.578 607.927 504.743Z" fill="var(--color-illustration-primary, #382C80)"/>
<path d="M445.532 708.848C443.856 707.466 444.278 704.82 445.052 702.791C450.04 689.865 464.72 681.457 478.372 683.691C476.187 669.672 479.858 655.372 488.525 644.138C497.639 632.447 509.173 631.594 520.561 624.303C530.361 618.051 528.058 609.603 532.233 599.509C540.543 579.38 564.132 566.561 585.535 571.403C608.016 576.499 624.47 600.46 621.148 623.274C631.724 616.212 645.375 615.704 656.447 621.962C667.518 628.219 674.124 640.176 673.529 652.88C682.143 638.513 700.704 630.918 716.923 635.132C733.142 639.346 745.657 655.016 746.186 671.764" fill="var(--color-illustration-base, #FFFFFF)"/>
<path d="M447.893 706.486C446.502 704.889 450.833 699.205 451.764 697.999C453.828 695.422 456.321 693.221 459.134 691.492C464.539 688.017 471.001 686.573 477.372 687.415C480.478 687.886 482.556 685.749 482.115 682.672C479.782 666.394 486.603 647.49 501.156 638.856C507.791 634.936 515.288 632.712 521.873 628.664C528.234 624.744 531.673 619.325 533.349 612.141C535.025 604.958 536.74 598.647 541.121 592.698C545.436 586.983 551.044 582.371 557.487 579.243C570.481 572.794 585.828 573.363 597.882 581.614C611.372 590.942 618.55 607.002 616.502 623.274C616.022 626.841 620.834 629.086 623.568 627.331C632.966 621.314 645.314 620.707 654.928 626.587C664.022 632.133 668.971 642.404 668.648 652.89C668.501 657.858 675.263 659.319 677.713 655.35C685.504 642.766 701.703 636.024 716.08 639.983C731.397 644.187 739.669 658.064 742.04 672.921C742.844 677.948 750.155 676.312 750.468 671.774C751.742 652.988 735.768 634.995 718.207 630.428C699.675 625.626 679.301 634.28 669.314 650.44L678.36 652.88C678.642 638.917 671.573 625.831 659.74 618.413C647.353 610.887 630.947 611.426 618.835 619.207L625.91 623.274C628.056 607.075 621.01 590.317 609.172 579.311C597.082 567.881 579.979 563.443 563.857 567.551C548.03 571.599 534.192 583.124 528.057 598.323C525.48 604.733 525.891 613.729 520.648 618.737C514.602 624.529 505.253 626.577 498.108 630.556C479.234 640.973 471.57 664.228 474.765 684.701L479.498 679.957C469.843 678.533 460.029 681.18 452.401 687.268C446.678 691.825 436.535 703.928 443.258 711.18C446.198 714.355 450.755 709.681 447.972 706.466L447.893 706.486Z" fill="var(--color-illustration-primary, #382C80)"/>
<path d="M254.02 470.884C236.3 458.016 214.188 452.727 192.564 456.184C172.131 459.418 153.883 471.266 141.545 487.72C135.442 495.899 130.928 505.15 128.237 514.994C127.257 518.443 126.757 521.325 123.141 522.834C120.936 523.765 118.172 524.069 115.849 524.657C109.763 526.157 103.771 528.019 97.9056 530.233C78.5898 537.7 62.4688 550.264 56.7456 570.854C51.1106 591.159 55.4814 613.974 66.4672 631.692L70.9948 625.812C53.3548 623.058 38.988 637.513 35.4208 653.919C30.854 674.979 44.1722 694.883 55.599 711.258L56.2556 706.231C41.2594 724.682 34.5658 748.516 37.763 772.077C40.9186 794.98 54.0114 815.197 72.8078 828.417C83.3512 835.853 95.4798 840.735 108.235 842.676L105.295 837.463C101.884 852.084 107.039 866.784 116.565 878.015C126.816 890.089 141.672 897.155 156.147 902.78C181.117 912.492 209.694 918.175 236.262 912.217C250.648 908.993 263.849 901.76 273.561 890.579L266.201 887.531C267.103 917.372 295.885 936.384 321.875 943.861C349.05 951.701 378.832 949.408 404.822 938.501C419.565 932.375 432.933 923.362 444.14 911.992L437.28 911.11C453.148 932.734 477.283 946.8 503.92 949.947C530.105 953.093 556.33 943.959 576.028 926.672C587.062 916.921 595.675 904.735 601.185 891.078L593.835 893.039C609.858 911.776 634.75 922.252 659.338 921.174C683.926 920.096 705.966 907.17 720.264 887.433C728.333 876.219 733.394 863.125 734.964 849.399L727.389 852.535C747.291 867.944 773.011 873.71 797.586 868.274C821.587 862.952 841.794 845.95 852.319 823.87C858.382 811.347 861.19 797.497 860.483 783.602L853.74 787.463C870.89 799.125 895.175 794.519 911.56 783.622C929.2 771.862 935.384 751.977 936.717 731.613C937.315 720.96 936.779 710.273 935.12 699.734C934.747 697.254 934.326 694.833 933.826 692.325C933.326 689.816 932.062 686.935 932.346 684.485C932.63 682.035 935.796 679.418 937.452 677.36C939.281 675.106 941.049 672.797 942.754 670.432C956.15 651.812 967.656 627.312 965.206 603.792C962.56 578.312 944.626 556.408 921.037 547.206L918.616 556.026C933.12 560.672 930.2 529.096 929.808 522.461C929.403 514.89 928.615 507.344 927.446 499.853C926.182 492.101 921.85 484.624 916.607 478.861C907.787 469.149 895.047 465.759 882.307 465.141L886.894 469.737C886.894 464.739 891.059 460.094 893.068 455.665C895.168 451.104 896.711 446.306 897.664 441.376C899.408 431.89 899.085 421.776 895.586 412.741C889.344 396.571 874.35 384.624 856.798 384.036C850.918 383.84 850.918 392.994 856.798 393.19C872.341 393.709 885.002 406.214 888.442 420.924C890.402 429.342 889.55 438.211 886.884 446.404C884.307 454.244 877.643 461.241 877.711 469.767C877.758 472.285 879.789 474.316 882.307 474.363C894.254 474.882 905.827 478.43 912.815 488.74C916.96 494.816 918.528 500.568 919.371 507.663C920.45 516.285 921.006 524.964 921.037 533.653C921.137 537.261 920.897 540.87 920.322 544.433C920.126 545.413 919.342 547.549 919.342 547.696C919.41 548.147 920.439 547.059 920.998 547.236C915.314 545.423 913.226 553.929 918.577 556.056C938.057 563.836 952.138 581.122 955.817 601.773C959.424 623.382 948.467 646.333 936.56 663.65C933.816 667.629 930.842 671.445 927.652 675.077C923.556 679.751 922.536 683.583 923.908 689.591C925.999 698.466 927.278 707.512 927.73 716.619C928.505 734.102 927.24 755.956 914.569 769.461C901.251 783.651 875.369 791.432 858.199 779.79C855.446 777.928 851.271 780.378 851.457 783.71C853.025 811.356 838.413 838.982 814.139 852.613C789.237 866.608 756.113 863.864 733.602 846.371C730.417 843.901 726.497 845.508 726.027 849.507C722.773 876.878 702.301 901.594 675.88 909.61C648.803 917.833 618.286 908.278 600.009 886.923C597.617 884.13 593.776 886.1 592.649 888.883C583.907 910.326 565.777 927.809 544.247 936.247C521.936 944.824 497.036 943.553 475.715 932.748C463.477 926.651 452.87 917.721 444.777 906.7C443.169 904.485 440.063 903.642 437.917 905.818C402.842 941.637 340.034 952.466 297.473 923.271C285.448 915.02 275.246 902.692 274.786 887.531C274.678 884.042 269.994 881.533 267.426 884.483C251.501 902.829 227.246 907.435 203.971 905.563C191.842 904.475 179.883 901.968 168.338 898.095C155.471 893.96 142.3 888.658 131.422 880.367C119.132 870.969 109.744 855.642 113.448 839.736C113.919 837.717 112.831 834.836 110.508 834.523C84.6756 830.681 61.5574 813.6 51.1596 789.482C40.2522 764.286 44.8974 733.357 62.1356 712.121C63.2332 710.768 63.8996 708.691 62.7922 707.093C53.247 693.461 41.7124 677.507 42.8002 659.965C43.6038 647.137 54.4622 631.359 68.878 633.574C72.0924 634.064 75.4342 630.928 73.4154 627.694C64.3014 613.082 59.9894 594.756 63.2136 577.714C67.0258 557.496 81.3338 544.933 99.9342 537.632C105.065 535.662 110.299 533.974 115.614 532.575C120.22 531.321 125.845 530.791 129.736 527.802C133.411 524.98 134.43 520.609 135.616 516.356C136.874 511.681 138.604 507.146 140.781 502.822C149.601 485.398 165.281 471.462 183.901 465.367C206.529 458.007 231.754 462.348 251.011 476.147C254.206 478.45 257.195 473.207 254.078 470.894L254.02 470.884Z" fill="var(--color-illustration-primary, #382C80)"/>
<path d="M241.192 452.343C244.975 438.29 255.755 426.343 269.014 420.473C283.489 414.054 300.776 415.759 314.251 423.766C318.426 426.245 322.159 419.846 318.043 417.269C302.436 407.715 283.107 406.526 266.446 414.093C251.256 421.022 240.692 435.095 236.576 451.069C235.812 454.058 240.388 455.322 241.192 452.343Z" fill="var(--color-illustration-primary, #382C80)"/>
<path d="M202.59 801.458C213.242 786.758 238.419 786.483 249.444 800.85C248.042 780.858 262.928 762.728 280.666 753.389C284.88 751.174 289.437 749.283 294.2 749.322C301.766 749.381 308.626 754.428 312.703 760.807C316.779 767.187 318.524 774.753 319.817 782.211C332.812 777.193 348.688 776.625 359.654 785.219C370.621 793.814 372.62 813.296 361.026 821.038" fill="var(--color-illustration-base, #FFFFFF)"/>
<path d="M204.481 803.35C213.702 791.403 236.458 789.894 245.425 803.203C247.836 806.77 254.363 805.77 254.098 800.851C253.187 783.514 264.878 768.511 279.068 759.789C286.801 755.016 295.542 751.419 303.568 757.662C311.595 763.905 313.368 774.175 315.054 783.534C315.788 786.178 318.523 787.73 321.169 787.003C332.782 782.632 348.825 780.868 358.36 790.668C364.701 797.185 366.955 811.043 358.801 817.128C354.313 820.509 358.399 828.114 363.319 824.87C376.627 816.099 376.333 797.166 366.984 785.543C355.567 771.343 334.174 771.509 318.523 777.38L324.638 780.849C322.6 769.265 318.66 757.064 308.88 749.744C298.786 742.178 287.379 744.167 276.952 749.979C258.792 760.092 243.504 779.114 244.817 800.811L252.765 797.519C238.575 782.309 212.781 783.122 200.325 800.076C198.552 802.497 202.658 805.702 204.51 803.31L204.481 803.35Z" fill="var(--color-illustration-primary, #382C80)"/>
<path d="M812.032 593.1C815.609 583.858 826.105 577.312 836.022 579.105C845.646 580.85 852.486 589.209 854.015 598.588C854.711 602.89 862.09 601.929 861.689 597.549C860.345 584.142 849.911 573.444 836.542 571.765C823.292 570.207 810.484 579.046 806.436 591.561C805.27 595.167 810.709 596.52 812.032 593.1Z" fill="var(--color-illustration-primary, #382C80)"/>
<path d="M789.394 107.559C785.7 91.7712 796.352 73.9156 812.248 70.1132C828.437 66.252 845.666 78.3256 848.929 94.2604C849.674 97.906 855.613 97.9452 856.338 94.2604C859.092 80.266 875.477 74.3076 888.227 74.484C895.087 74.5722 902.741 76.6596 907.014 82.324C910.777 87.3514 911.865 94.7406 907.749 99.8954L914.471 103.815C914.079 104.795 914.364 104.168 915.324 104.296C916.128 104.403 916.902 104.433 917.706 104.59C920.035 105.059 922.328 105.698 924.566 106.501C928.648 107.9 932.444 110.028 935.767 112.782C942.245 118.319 945.146 126.796 940.667 134.568C936.521 141.83 928.339 146.083 920.959 149.376C911.56 153.592 901.794 156.938 891.785 159.372C880.201 162.125 867.696 162.89 856.749 157.48C855.475 156.843 853.643 156.5 852.398 157.48C843.578 164.193 832.191 166.859 821.44 163.752C811.356 160.812 803.506 153.296 798.959 143.976C797.695 141.389 794.421 141.634 792.54 143.153C789.051 145.965 783.142 145.24 779.8 142.663C775.38 139.36 775.38 133.264 777.556 128.58C783.563 115.742 799.537 115.958 811.63 115.409C816.04 115.213 815.913 109.068 811.63 108.647C795.078 107.03 772.773 110.803 768.794 130.275C767.266 137.802 769.823 145.456 776.419 149.699C782.866 153.815 791.129 153.757 797.518 149.552L791.521 147.2C796.246 159.251 806.248 168.462 818.647 172.18C831.779 175.942 845.916 173.279 856.779 164.997H852.428C864.688 170.975 878.035 170.955 891.138 168.035C903.577 165.132 915.629 160.77 927.045 155.04C936.09 150.561 945.606 143.946 948.723 133.823C951.947 123.366 946.762 113.155 938.658 106.628C933.938 102.919 928.605 100.066 922.9 98.2C918 96.5536 909.787 94.5152 907.122 100.768C905.524 104.521 910.258 109.529 913.443 105.668C919.127 98.7096 918.832 89.3506 914.746 81.638C910.336 73.3276 901.447 68.898 892.412 67.7808C875.605 65.6934 852.477 73.5334 848.929 92.2808H856.338C853.045 76.7674 839.159 64.782 823.616 62.6358C807.799 60.3818 792.755 69.5644 786.16 83.892C782.38 91.7561 781.482 100.698 783.622 109.156C784.602 112.92 790.325 111.332 789.433 107.559H789.394Z" fill="var(--color-illustration-primary, #382C80)"/>
<path d="M845.508 121.72C848.683 119.848 852.731 122.504 853.279 125.865C853.926 129.785 860.473 128.893 860.267 124.885C859.796 116.065 849.35 110.411 841.823 115.379C837.903 117.947 841.421 124.091 845.508 121.681V121.72Z" fill="var(--color-illustration-primary, #382C80)"/>
<path d="M469.316 279.579C471.854 242.515 474.02 205.432 476.176 168.349C476.154 166.126 474.361 164.328 472.138 164.301C449.752 164.333 427.447 161.614 405.723 156.206L407.595 163.292C433.977 133.774 460.352 104.253 486.72 74.7293L496.589 63.6259C498.618 61.3523 501.763 56.4621 505.223 58.4809C508.682 60.4997 511.691 64.1649 514.523 66.8599C517.639 69.8064 520.694 72.8248 523.686 75.9151C535.535 88.1001 546.352 101.248 556.026 115.223C566.802 130.822 576.06 147.417 583.672 164.782L591.188 160.381C588.944 156.461 583.76 155.815 579.664 155.668C573.568 155.452 567.404 156.354 561.396 157.226C554.84 158.206 548.333 159.401 541.796 160.636C539.239 161.126 536.681 161.616 534.113 162.077C533.045 162.273 531.977 162.449 530.909 162.626C530.762 162.626 529.439 162.841 530.605 162.684L529.429 162.812C527.626 162.968 525.568 164.046 525.195 166.036C521.902 183.607 522.03 201.512 520.922 219.289C520.57 224.846 529.096 224.767 529.527 219.289C530.869 202.325 530.507 185.156 533.662 168.329L529.429 171.553C539.425 170.671 549.323 167.957 559.211 166.33C564.831 165.315 570.51 164.66 576.214 164.37C578.083 164.314 579.954 164.354 581.82 164.488C582.584 164.615 583.309 164.909 584.064 165.056C583.873 165.041 583.706 164.92 583.633 164.742C586.465 169.721 593.354 165.35 591.149 160.342C576.513 127.475 556.238 97.4222 531.242 71.5443C525.133 65.0219 518.671 58.8387 511.887 53.0223C508.878 50.5233 505.419 48.7887 501.411 49.6021C497.001 50.4939 493.874 53.9239 491.003 57.1187C477.081 72.7464 463.155 88.3513 449.226 103.933L401.588 157.294C399.54 159.587 400.206 163.586 403.46 164.39C425.925 169.916 448.994 172.603 472.128 172.386L468.081 168.349C466.18 205.412 464.298 242.486 462.779 279.579C462.612 283.803 469.031 283.744 469.316 279.579Z" fill="var(--color-illustration-secondary, #7F72FF)"/>
<path d="M526.176 259.087L527.401 249.728C527.636 247.924 525.686 246.366 524.039 246.366C522.079 246.366 520.894 247.915 520.668 249.728L519.512 259.087C519.296 260.88 521.207 262.419 522.844 262.419C524.804 262.419 525.941 260.88 526.176 259.087Z" fill="var(--color-illustration-secondary, #7F72FF)"/>
<path d="M447.021 206.412C446.62 216.947 446.218 227.482 446.041 238.027C445.983 242.054 452.029 241.947 452.264 238.027C452.872 227.492 453.244 216.957 453.627 206.412C453.774 202.159 447.188 202.168 447.021 206.412Z" fill="var(--color-illustration-secondary, #7F72FF)"/>
<path d="M181.216 423.786C183.724 381.989 183.607 340.084 185.665 298.267C185.638 296.012 183.814 294.192 181.559 294.171C162.568 294.192 143.673 291.483 125.454 286.125L127.992 292.368C150.101 263.17 172.203 233.966 194.299 204.756L202.462 193.976C203.604 192.318 204.861 190.742 206.225 189.262C207.803 187.704 208.371 187.625 210.047 189.262C215.58 194.883 220.814 200.79 225.727 206.961C235.504 219 244.334 231.778 252.138 245.181C261.206 260.667 268.905 276.915 275.149 293.74L283.116 290.378C279.196 282.362 263.918 286.056 257.42 287.164C251.874 288.144 246.376 289.32 240.888 290.555C238.624 291.064 236.37 291.535 234.106 292.054C233.195 292.25 232.283 292.446 231.362 292.613L230.382 292.779C229.196 292.985 230.951 292.73 230.186 292.779C228.432 292.965 226.266 293.994 225.953 296.003C223.15 313.643 223.228 331.479 222.317 349.257C222.033 354.813 230.549 354.754 230.931 349.257C232.087 332.293 231.754 315.162 234.42 298.297L230.186 301.521C238.644 300.619 246.954 297.983 255.284 296.356C259.946 295.372 264.671 294.717 269.425 294.396C271.058 294.294 272.697 294.321 274.325 294.475C274.659 294.533 276.403 295.023 275.492 294.71C275.962 294.876 276.187 295.386 275.639 294.71C275.198 293.926 276.178 295.366 275.639 294.71C277.785 299.081 285.341 296.003 283.606 291.348C271.664 259.3 254.661 229.373 233.244 202.707C227.952 196.141 222.464 189.664 216.505 183.646C213.732 180.824 210.331 178.56 206.196 179.589C202.491 180.52 199.963 183.509 197.748 186.449C185.645 202.247 173.679 218.152 161.674 234.018L120.759 288.095C119.044 290.359 120.926 293.642 123.298 294.337C142.253 299.86 161.915 302.574 181.657 302.393L177.56 298.287C175.786 340.103 176.09 381.979 174.777 423.805C174.64 428.029 181.059 427.98 181.314 423.805L181.216 423.786Z" fill="var(--color-illustration-secondary, #7F72FF)"/>
<path d="M227.883 389.015L228.922 379.656C229.118 377.843 227.227 376.285 225.561 376.285C223.718 376.332 222.236 377.814 222.19 379.656L221.21 389.015C221.014 390.809 222.876 392.347 224.542 392.347C226.364 392.306 227.832 390.838 227.874 389.015H227.883Z" fill="var(--color-illustration-secondary, #7F72FF)"/>
<path d="M159.783 336.341C159.44 346.876 159.097 357.411 158.99 367.955C158.941 371.973 164.997 371.924 165.203 367.955C165.752 357.42 166.075 346.885 166.389 336.341C166.516 332.087 159.93 332.097 159.783 336.341Z" fill="var(--color-illustration-secondary, #7F72FF)"/>
<path d="M175.061 450.256C174.169 467.455 172.729 484.908 173.101 502.127C173.219 507.027 180.304 506.939 180.657 502.127C181.911 484.957 181.343 467.474 181.314 450.256C181.314 446.189 175.238 446.238 175.032 450.256H175.061Z" fill="var(--color-illustration-secondary, #7F72FF)"/>
<path d="M868.627 300.757L855.809 298.61L850.037 297.63C848.968 297.454 847.89 297.317 846.832 297.121C845.94 296.954 845.205 296.405 845.333 297.327C845.215 296.503 848.518 293.671 849.027 293.113C850.193 291.819 851.34 290.506 852.447 289.193C855.015 286.096 857.465 282.881 859.739 279.569C864.01 273.347 867.685 266.735 870.715 259.822C872.087 256.696 873.135 253.413 874.556 250.326C875.046 249.277 875.82 247.298 876.889 246.749C877.957 246.2 878.584 247.013 879.427 247.817C885.444 253.579 890.716 260.41 896.028 266.809C901.483 273.375 906.753 280.095 911.835 286.968C912.278 287.694 912.779 288.383 913.335 289.026L914.089 290.055C916.049 287.997 916.334 287.291 914.932 287.909C913.276 287.909 911.012 289.261 909.385 289.81C905.309 291.211 901.016 292.368 897.086 294.151C888.933 297.856 891.108 307.421 891.412 314.731C892.275 334.929 892.912 355.147 894.117 375.325C894.46 380.97 903.123 381.077 902.986 375.325C902.506 354.676 901.438 334.028 900.605 313.389C900.497 310.694 900.32 307.999 900.271 305.304C900.271 303.148 900.085 302.932 901.996 302.148C906.798 300.188 911.855 298.728 916.696 296.944C920.616 295.533 924.33 293.201 923.282 288.428C922.782 286.155 920.94 284.244 919.587 282.44C918.078 280.441 916.556 278.449 915.02 276.462C909.042 268.747 902.836 261.233 896.4 253.922C893.304 250.424 890.168 246.955 886.963 243.564C884.15 240.575 881.083 237.743 876.663 238.154C868.451 238.919 866.354 248.934 863.727 255.138C860.222 263.326 855.807 271.094 850.566 278.295C847.499 282.333 844.228 286.213 840.766 289.918C837.826 293.25 835.18 297.817 838.502 301.913C841.354 305.441 846.773 305.216 850.87 305.676C856.465 306.323 862.061 306.94 867.657 307.577C871.469 307.999 872.381 301.482 868.568 300.835L868.627 300.757Z" fill="var(--color-illustration-secondary, #7F72FF)"/>
<path d="M692.855 309.488C703.88 329.999 731.663 333.988 748.391 318.072C751.978 314.672 746.588 309.321 742.982 312.663C736.571 318.606 727.819 321.334 719.167 320.085C710.515 318.837 702.891 313.746 698.421 306.234C696.275 302.677 690.895 305.832 692.855 309.488Z" fill="var(--color-illustration-primary, #382C80)"/>
<path d="M759.583 311.271L760.465 310.164C760.8 309.853 761.05 309.462 761.19 309.027C761.413 308.609 761.518 308.138 761.494 307.665C761.487 306.733 761.118 305.84 760.465 305.175C759.804 304.517 758.909 304.147 757.976 304.146L756.996 304.274C756.411 304.437 755.877 304.747 755.447 305.175L754.33 306.067C753.641 306.756 753.254 307.69 753.252 308.664C753.257 309.641 753.644 310.577 754.33 311.271C755.021 311.962 755.959 312.35 756.937 312.349C757.917 312.362 758.859 311.972 759.544 311.271H759.583Z" fill="var(--color-illustration-primary, #382C80)"/>
<path d="M663.592 784.454C664.453 773.297 671.205 763.448 681.301 758.622C691.875 753.722 704.821 756.113 713.807 763.13C717.375 765.903 722.402 761.326 718.933 758.014C708.231 747.812 691.689 745.548 678.341 751.615C665.601 757.387 657.369 770.666 656.781 784.454C656.595 788.845 663.279 788.776 663.573 784.454H663.592Z" fill="var(--color-illustration-primary, #382C80)"/>
<path d="M160.823 116.82C155.041 109.392 148.181 99.8661 153.081 90.2131C154.737 86.9399 157.981 83.9411 161.901 84.5291C165.076 85.0093 169.074 88.0375 168.153 91.6145C167.016 96.0735 173.876 99.4545 175.895 94.8779C179.217 87.4299 183.206 78.0709 191.653 75.2779C197.533 73.3179 207.196 78.3551 204.472 85.3817C202.825 89.6251 209.019 92.8199 211.939 89.7231C217.594 83.7255 226.639 82.1477 234.254 85.1759C242.261 88.4001 247.21 96.4851 248.435 104.678C248.876 107.618 249.738 114.194 246.357 115.605C244.652 116.32 242.437 115.987 240.604 115.987L231.334 115.938C219.427 115.879 207.49 115.556 195.593 116.026C190.027 116.242 190.036 124.395 195.593 124.66C207.265 125.219 218.986 125.003 230.677 125.042C239.664 125.042 253.129 127.443 256.735 116.546C259.469 108.294 257.137 97.9257 252.962 90.5757C248.64 82.9905 241.281 77.0811 232.617 75.3955C222.896 73.5041 212.547 76.1011 205.658 83.4315L213.125 87.7729C217.672 76.0129 204.56 65.1055 193.466 65.9679C180.295 66.9479 171.906 80.2857 168.192 91.6145L176.365 93.8685C178.619 78.9627 159.539 71.1619 149.69 81.9517C138.567 94.1429 146.113 111.352 156.217 121.377C159.274 124.405 163.331 119.985 160.823 116.781V116.82Z" fill="var(--color-illustration-primary, #382C80)"/>
</svg>
