<svg width="1000" height="1000" viewBox="0 0 1000 1000" fill="none" xmlns="http://www.w3.org/2000/svg">
<path d="M353.167 258.567C333.508 261.321 313.232 262.164 293.387 262.82C270.906 263.555 248.424 263.065 225.963 262.281C180.657 260.723 135.264 258.93 90.1152 254.755C77.581 253.598 64.6352 252.873 52.4244 249.855C47.9556 248.738 41.8992 247.268 39.2532 243.063C35.8722 237.673 43.4476 234.498 47.3676 232.989C51.905 231.245 50.1802 224.12 45.3096 225.541C46.858 225.09 45.8192 226.962 45.7212 224.904C45.5231 223.826 45.2446 222.765 44.8882 221.729C44.3064 218.494 44.0047 215.215 43.9866 211.929C43.8984 208.901 43.9278 205.863 44.0552 202.834C44.0552 201.805 44.1336 200.776 44.2316 199.747C44.3296 198.718 43.9474 201.423 44.3002 199.297C44.5354 197.915 44.8294 196.543 45.192 195.19C51.4934 171.445 81.3148 163.634 102.757 168.299C106.677 169.162 108.823 164.84 106.491 161.88C89.9682 140.957 108.706 109.46 128.453 98.5037C134.098 95.3677 140.762 93.3293 147.269 94.1721C154.413 95.0933 160.313 99.5621 165.36 104.403C175.351 114.08 182.473 126.33 185.94 139.801C186.743 142.829 191.82 144.025 193.231 140.781C202.786 118.456 218.711 95.9361 244.24 91.6437C255.725 89.6837 268.426 91.9573 277.285 99.8855C286.948 108.539 290.809 121.641 294.318 133.676C295.298 136.969 300.198 137.88 301.883 134.656C310.517 118.466 329.892 108.97 347.453 116.722C356.058 120.524 363.133 127.953 365.24 137.302C367.602 147.719 361.585 157.157 356.793 165.908C355.979 167.398 356.019 169.74 357.44 170.916C363.633 176.051 372.728 179.03 377.402 185.753C383.223 194.112 379.558 207.313 368.964 209.175C363.996 210.047 365.926 216.662 370.042 217.201C377.824 218.181 386.751 220.474 391.073 227.687C394.317 233.087 393.161 239.094 388.986 243.534C380.264 252.824 364.701 255.294 352.775 257.411C347.698 258.302 349.913 265.839 354.892 265.074C370.023 262.781 391.936 258.596 399.227 243.014C402.755 235.468 401.285 227.06 396.091 220.67C389.682 212.83 379.686 210.273 370.042 209.028L371.13 217.054C384.164 214.761 390.809 200.218 387.437 188.164C383.958 175.737 372.257 172.484 363.28 165.075L363.927 170.083C369.748 159.45 375.981 148.523 373.404 135.92C371.032 124.327 362.379 114.605 351.795 109.676C330.313 99.6797 305.598 110.156 294.739 130.501L302.305 131.481C298.267 117.643 293.485 102.727 282.078 93.1039C272.121 84.7151 258.773 81.6575 245.994 83.0981C216.653 86.4203 197.278 111.381 186.341 136.763L193.633 137.743C190.387 125.271 184.333 113.707 175.934 103.933C167.859 94.5739 157.314 86.0381 144.309 86.1557C120.162 86.3615 99.5918 110.038 94.2802 132.059C91.2618 144.544 92.9964 157.157 101.023 167.339L104.815 160.92C78.071 155.04 43.1242 166.016 37.1266 195.867C35.6272 203.344 33.2556 237.115 47.3872 232.969L45.3292 225.521C38.1262 228.295 29.6492 232.969 30.7958 242.044C32.0208 251.344 42.5558 255.294 50.3958 257.273C62.0578 260.213 74.3568 260.978 86.2932 262.124C99.1018 263.349 111.94 264.339 124.778 265.172C150.464 266.838 176.198 267.622 201.914 268.543C227.629 269.465 253.275 270.425 278.971 269.876C304.059 269.337 329.853 268.024 354.627 263.849C358.106 263.242 356.577 258.087 353.167 258.567Z" fill="var(--color-illustration-primary, #382C80)"/>
<path d="M779.722 300.08C767.197 301.445 755.029 305.099 743.824 310.86C732.231 316.74 722.539 325.285 712.072 332.841C701.292 340.612 690.659 348.521 680.291 356.861C674.986 361.108 669.759 365.439 664.611 369.856C661.808 372.266 659.018 374.7 656.242 377.157C654.194 378.97 650.127 384.134 647.422 384.644L650.362 385.026C647.706 383.703 645.207 379.852 643.159 377.696C640.937 375.363 638.716 373.024 636.495 370.679L620.442 353.774L589.817 321.434C581.223 312.369 572.971 303.549 562.671 296.405C557.624 292.906 552.969 288.908 547.276 286.448C541.668 284.125 535.699 282.799 529.636 282.528C517.327 281.812 504.891 284.409 492.886 286.85C482.498 288.966 471.688 292.093 464.368 300.266C451.873 314.211 452.059 335.752 457.008 352.774C459.654 361.859 464.289 369.17 472.247 374.452C476.5 377.274 481.361 378.921 485.663 381.625C490.779 384.85 494.62 389.554 497.903 394.552C504.009 403.842 509.252 413.436 516.376 422.05C523.058 430.097 530.618 437.371 538.916 443.738C574.005 470.668 619.231 480.65 662.396 470.992C710.661 459.996 752.056 425.539 774.293 381.684C776.341 377.647 770.294 374.079 768.197 378.127C745.226 422.531 702.116 456.527 652.439 465.033C602.9 473.54 550.147 453.401 519.365 413.632C511.986 404.097 507.037 392.886 499.285 383.654C495.339 378.963 490.416 375.19 484.859 372.6C479.891 370.248 474.863 367.7 471.041 363.691C463.819 356.038 461.761 343.111 461.535 332.988C461.3 322.6 463.574 311.379 471.335 303.96C481.028 294.739 497.452 293.396 510.065 291.407C524.765 289.104 539.465 289.094 551.98 298.022C557.801 302.157 563.828 306.126 569.051 310.997C574.275 315.867 579.361 321.493 584.418 326.824L618.384 362.613C624.153 368.703 629.926 374.788 635.701 380.871C638.357 383.674 640.934 386.574 643.678 389.309C645.364 390.984 646.844 392.249 649.352 391.906C652.136 391.543 654.076 389.211 656.075 387.417C659.29 384.53 662.53 381.668 665.797 378.832C671.625 373.789 677.527 368.827 683.505 363.946C695.804 353.882 708.691 344.67 721.265 334.987C733.368 325.648 744.912 316.955 759.289 311.34C766.111 308.683 773.218 306.822 780.467 305.793C783.691 305.332 782.966 299.697 779.683 300.04L779.722 300.08Z" fill="var(--color-illustration-primary, #382C80)"/>
<path d="M779.721 303.02C766.854 304.47 754.604 308.9 743.245 315.054C732.661 320.758 723.734 328.96 713.934 335.987C704.134 343.013 692.05 349.638 685.69 359.997C679.431 370.502 676.243 382.551 676.488 394.777C676.645 410.281 681.584 425.461 688.904 439.132C692.187 445.247 696.686 451.646 703.497 452.979C707.309 453.734 711.239 452.734 714.914 451.49C725.061 448.038 734.474 442.72 742.667 435.81" fill="var(--color-illustration-secondary, #7F72FF)"/>
<path d="M779.721 300.08C760.327 301.285 742.403 309.625 727.066 321.228C719.863 326.677 712.807 332.253 705.329 337.32C698.469 341.965 691.345 346.738 685.994 353.157C674.685 366.74 671.186 386.163 673.254 403.343C674.432 412.797 676.946 422.035 680.721 430.783C683.857 438.211 687.513 446.463 693.657 451.99C700.988 458.536 709.739 457.537 718.373 454.303C728.177 450.558 737.256 445.14 745.205 438.289C748.704 435.349 743.696 430.498 740.217 433.301C733.686 438.547 726.422 442.809 718.657 445.953C711.062 449.04 703.359 451.402 697.195 444.522C692.129 438.877 688.875 430.9 686.229 423.942C683.222 416.236 681.321 408.142 680.584 399.903C679.369 384.605 682.809 367.092 693.873 355.803C698.94 350.619 705.084 346.659 711.043 342.602C717.422 338.261 723.43 333.488 729.545 328.804C744.467 317.209 761.935 309.334 780.505 305.833C783.729 305.225 783.014 299.874 779.721 300.08Z" fill="var(--color-illustration-primary, #382C80)"/>
<path d="M532.458 346.453C526.646 349.56 519.718 352.608 513.289 351.726C508.183 351.02 500.078 350.609 496.266 346.924C490.514 341.367 489.935 325.011 488.299 317.524C486.986 311.487 485.81 305.411 484.604 299.345C482.478 288.712 476.95 279.353 476.284 268.367C476.142 267.519 476.284 266.648 476.686 265.888C477.219 265.248 477.933 264.783 478.734 264.555C490.342 260.041 502.334 256.584 514.563 254.226C518.052 253.559 521.913 253.04 524.951 254.872C527.989 256.705 529.42 260.586 530.498 264.104C537.093 285.566 543.473 308.812 543.473 331.538C543.716 333.412 543.614 335.316 543.169 337.153C542.042 340.858 538.465 343.18 535.084 345.062C534.241 345.493 533.32 345.973 532.458 346.453Z" fill="var(--color-illustration-secondary, #7F72FF)"/>
<path d="M531.046 344.042C527.273 346.098 523.223 347.6 519.022 348.501C515.16 349.178 510.995 348.423 507.164 347.766C504.126 347.237 500.421 346.62 498.226 344.248C496.335 342.19 495.57 339.054 494.914 336.408C493.473 330.656 493.042 324.717 492.062 318.876C490.739 310.948 489.239 302.824 487.299 295.033C485.339 287.016 481.664 279.431 480.439 271.219C479.969 268.024 480.508 268.014 483.261 266.936C485.28 266.142 487.368 265.476 489.435 264.8C493.865 263.336 498.344 262.029 502.871 260.88C507.075 259.811 511.348 258.743 515.611 258.038C520.874 257.175 524.02 257.812 525.96 263.134C528.796 271.401 531.21 279.807 533.192 288.32C535.792 298.239 537.581 308.353 538.543 318.562C539.059 323.566 539.292 328.595 539.239 333.625C539.102 338.643 534.055 340.485 530.331 342.847C525.686 345.738 529.723 352.314 534.555 350.069C538.553 348.207 542.649 345.924 545.335 342.229C548.118 338.378 547.941 334.144 547.785 329.617C547.286 317.733 545.678 305.922 542.983 294.337C540.576 283.032 537.49 271.882 533.741 260.948C530.448 251.619 523.863 248.502 514.288 250.168C502.698 252.276 491.334 255.482 480.351 259.743C476.509 261.193 472.971 262.428 472.462 266.995C471.913 271.954 473.942 277.902 475.48 282.518C477.087 287.32 479.047 292.014 480.38 296.904C481.978 302.784 482.928 308.811 484.202 314.74C485.858 322.492 486.446 330.489 488.485 338.153C490.709 346.463 494.776 351.696 503.479 353.47C508.153 354.45 513.475 355.273 518.179 354.734C523.804 354.087 528.959 351.53 533.859 348.854C537.054 347.12 534.3 342.445 531.046 344.042Z" fill="var(--color-illustration-secondary, #7F72FF)"/>
<path d="M525.059 330.98C518.003 334.527 508.536 336.546 501.078 332.44C495.992 329.637 495.727 321.101 495.012 316.005C494.032 309.322 492.709 302.677 491.307 296.082C490.523 292.66 489.542 289.286 488.367 285.978C487.27 282.724 484.986 278.02 485.427 274.512C484.859 273.003 485.512 272 487.387 271.503C488.485 271.102 489.592 270.7 490.71 270.308C492.376 269.726 494.051 269.177 495.737 268.661C499.657 267.44 503.629 266.378 507.654 265.476C510.133 264.908 513.005 263.997 515.494 264.016C519.061 264.016 520.737 265.878 521.932 269.122C523.344 272.983 524.373 277.089 525.49 281.058C528.085 289.848 529.976 298.83 531.144 307.92C531.725 312.203 531.984 316.524 531.919 320.846C531.83 323.326 531.919 325.217 529.9 327.06C528.279 328.32 526.54 329.419 524.706 330.343C522.354 331.734 524.412 335.145 526.823 333.969C533.31 330.784 536.476 327.275 536.231 319.925C535.881 310.734 534.667 301.596 532.605 292.632C530.645 284.047 528.685 274.835 525.294 266.672C522.579 260.086 517.268 259.41 510.839 260.665C502.244 262.331 492.523 264.428 484.643 268.358C479.253 271.033 481.703 277.628 483.203 282.352C485.79 290.711 488.171 298.708 489.975 307.293C491.239 313.291 491.729 319.484 493.267 325.413C494.806 331.342 497.354 335.145 503.41 336.566C511.858 338.526 518.845 337.457 526.47 333.361C528.067 332.548 526.656 330.176 525.059 330.98Z" fill="var(--color-illustration-base, #FFFFFF)"/>
<path d="M726.292 473.736C697.999 535.006 676.782 608.124 682.388 676.067C686.416 724.803 708.064 762.807 744.079 795.539C756.182 806.544 768.128 818.383 781.162 828.3C793.353 837.571 805.143 844.343 805.525 861.405C805.741 871.107 802.977 880.613 801.958 890.276C801.389 895.607 801.37 901.144 803.242 906.181C816.06 940.804 857.269 882.445 866.216 872.498C876.996 860.523 888.541 846.038 885.679 830.172C883.788 819.686 875.928 811.444 868.48 803.82C850.184 785.102 830.691 769.001 814.962 748.117C797.845 725.361 781.711 701.913 766.56 677.772C764.159 673.96 761.719 669.932 761.592 665.385C761.474 661.161 763.414 657.192 765.247 653.39C792.926 595.503 804.309 531.168 798.175 467.298" fill="var(--color-illustration-base, #FFFFFF)"/>
<path d="M723.753 472.257C707.583 507.35 694.432 544.012 686.396 581.86C678.673 618.247 675.018 656.898 681.437 693.786C687.013 725.832 702.017 755.065 723.4 779.418C735.944 793.687 750.448 806.466 764.658 819.039C771.332 824.919 778.32 830.378 785.444 835.699C791.324 840.09 797.39 844.96 800.223 851.928C807.563 869.96 793.098 889.678 800.223 907.984C803.398 916.118 809.954 921.91 819.088 920.077C828.221 918.245 836.061 911.11 842.51 904.887C849.763 897.651 856.574 889.983 862.903 881.926C870.645 872.391 879.691 863.59 885.159 852.457C888.619 845.431 890.432 837.757 889.187 829.917C887.874 821.715 883.15 814.698 877.809 808.534C865.275 794.069 850.457 781.662 837.1 767.991C822.518 753.056 810.375 736.229 798.41 719.177C792.53 710.815 786.793 702.367 781.201 693.835C778.489 689.699 775.801 685.541 773.135 681.359C770.274 676.871 766.138 671.883 765.384 666.483C764.707 661.583 767.481 657.094 769.5 652.763C771.616 648.268 773.638 643.724 775.566 639.131C779.329 630.213 782.726 621.151 785.758 611.946C798.069 574.589 804.012 535.428 803.339 496.1C803.143 486.437 802.49 476.801 801.379 467.19C800.909 463.074 794.46 462.917 794.793 467.19C797.733 505.41 795.45 543.865 786.64 581.262C782.367 599.531 776.636 617.428 769.5 634.78C766.109 642.982 760.885 651.165 758.622 659.76C756.299 668.58 760.787 675.607 765.325 682.761C786.16 715.64 808.014 749.273 835.699 776.841C848.497 789.581 862.815 801.341 874.262 815.384C880.142 822.567 883.924 831.064 881.984 840.472C880.24 849.086 874.948 856.72 869.46 863.384C857.455 877.986 845.636 894.058 830.877 905.985C826.183 909.778 817.157 916.765 810.993 912.022C806.044 908.219 804.966 900.399 805.113 894.735C805.377 885.023 808.288 875.605 808.866 865.913C809.846 850.37 802.398 840.06 790.501 831.015C775.487 819.578 761.748 807.093 747.832 794.373C723.734 772.342 703.732 746.353 693.442 715.071C682.407 681.398 682.946 644.511 687.709 609.741C692.834 572.393 703.634 535.917 717.697 500.961C721.199 492.278 724.913 483.687 728.839 475.187C730.407 471.767 725.341 468.778 723.763 472.247L723.753 472.257Z" fill="var(--color-illustration-primary, #382C80)"/>
<path d="M823.929 763.11C819.768 762.754 815.594 763.605 811.904 765.56C805.475 769.049 801.585 775.733 796.91 781.348C792.236 786.963 785.278 792.04 778.163 790.354C773.616 789.266 770.107 785.611 765.727 783.965C755.192 779.986 748.469 786.905 745.401 795.911C748.753 798.831 752.085 801.771 755.397 804.731C770.362 818.157 803.976 840.295 804.103 862.002C804.152 871.714 801.242 881.171 800.056 890.814C799.399 896.135 799.301 901.672 801.036 906.739C813.296 941.568 855.455 883.905 864.569 874.105C875.536 862.345 887.325 848.008 884.728 832.102C883.003 821.587 875.281 813.218 867.96 805.466C853.927 790.589 839.001 776.762 823.929 763.11Z" fill="var(--color-illustration-primary, #382C80)"/>
<path d="M823.929 759.524C814.942 759.191 807.533 762.827 801.692 769.559C795.979 776.135 788.766 789.973 778.094 786.552C773.753 785.161 770.352 781.731 765.971 780.271C762.545 779.059 758.828 778.936 755.329 779.918C748.322 782.015 744.313 788.463 741.942 794.961C741.586 796.205 741.939 797.544 742.863 798.45C753.143 807.417 763.678 816.011 774.027 824.91C783.386 832.936 794.137 842.197 798.792 853.957C804.779 869.088 794.509 885.895 796.293 901.565C797.204 909.503 801.428 919.009 810.013 921.028C817.127 922.704 824.487 918.745 830.103 914.785C837.796 909.366 844.489 902.614 850.79 895.675C855.906 890.04 860.639 884.023 865.696 878.28C874.124 868.598 883.444 859.131 887.256 846.499C892.499 828.947 882.023 815.061 870.596 802.958C856.592 788.14 841.627 774.283 826.496 760.592C823.086 757.495 818 762.552 821.43 765.659C833.778 776.85 846.028 788.199 857.748 800.008C867.764 810.141 882.552 822.479 881.543 838.228C880.651 852.016 869.94 862.787 861.296 872.528C857.053 877.31 853.084 882.328 848.86 887.13C843.215 893.757 837.058 899.93 830.446 905.593C825.859 909.386 818.901 915.05 812.453 914.237C802.28 912.953 802.888 896.43 803.878 889.541C805.71 876.801 810.503 863.355 805.22 850.801C800.144 838.737 789.893 829.241 780.181 820.784C769.539 811.552 758.621 802.703 747.979 793.432L748.9 796.921C751.585 789.551 757.249 784.102 765.383 787.738C772.528 790.923 777.457 796.058 785.885 793.618C802.202 788.846 805.299 766.09 823.968 766.776C828.535 766.864 828.535 759.7 823.929 759.524Z" fill="var(--color-illustration-primary, #382C80)"/>
<path d="M754.496 554.057C730.584 605.84 721.284 662.68 713.287 718.716C709.289 746.715 705.623 774.782 700.547 802.624C696.98 822.42 695.765 862.6 677.38 874.125C669.138 879.27 659.554 881.739 650.734 885.787C645.834 888.021 641.081 890.834 637.7 895.008C614.464 923.693 685.72 929.377 698.803 931.994C714.6 935.149 732.946 937.697 745.127 927.143C753.193 920.165 756.26 909.199 759.024 898.899C774.027 842.863 778.202 785.386 797.244 729.712C808.866 695.814 823.321 662.856 832.984 628.35C841.343 598.484 846.039 567.711 846.969 536.711C847.498 519.071 846.42 500.196 836.101 485.868" fill="var(--color-illustration-base, #FFFFFF)"/>
<path d="M751.958 552.577C719.314 623.754 713.503 702.605 701.282 778.957C698.921 793.735 696.431 808.445 694.305 823.263C692.482 836.003 690.542 849.723 684.319 861.169C676.479 875.585 659.476 877.231 646.099 884.278C637.876 888.599 627.978 897.635 629.87 908.092C631.193 915.363 637.974 919.989 644.217 922.929C652.772 926.947 662.092 929.211 671.334 931.024C679.174 932.562 687.072 933.601 694.952 934.855C707.692 936.894 720.637 940.098 733.524 936.815C749.587 932.778 756.956 919.175 761.19 904.25C766.541 885.454 770.441 866.255 774.096 847.067C781.554 807.955 787.816 768.442 800.772 730.653C813.6 693.266 829.829 657.025 839.413 618.58C844.131 599.614 847.407 580.318 849.213 560.858C850.86 543.11 852.359 524.343 848.625 506.762C847.018 498.653 843.722 490.974 838.953 484.222C836.513 480.841 830.887 483.967 833.269 487.544C842.794 501.833 843.794 519.237 843.304 535.917C842.757 555.058 840.765 574.131 837.346 592.973C830.564 630.301 817.099 665.493 803.849 700.861C797.283 718.373 790.952 735.945 786.082 754.016C781.054 772.636 777.262 791.54 773.655 810.484C770.225 828.761 767.04 847.087 763.258 865.295C761.298 874.723 759.171 884.121 756.78 893.45C754.82 901.29 752.938 909.473 749.008 916.588C736.268 939.706 705.585 929.612 684.583 926.339C675.631 925.059 666.772 923.193 658.064 920.753C651.342 918.793 642.473 916.157 638.102 910.208C632.222 902.241 643.492 893.323 649.519 890.158C661.935 883.631 677.753 881.651 686.759 869.891C693.923 860.503 696.833 848.194 698.93 836.806C701.077 825.135 702.086 813.286 704.144 801.615C717.1 728.115 720.804 652.145 746.47 581.428C749.645 572.654 753.177 564.027 757.064 555.546C758.632 552.136 753.565 549.137 751.988 552.606L751.958 552.577Z" fill="var(--color-illustration-primary, #382C80)"/>
<path d="M747.94 342.328C733.181 352.304 726.331 371.728 731.662 388.466C733.867 395.375 737.875 401.687 740.149 408.576C746.215 426.951 733.73 444.777 725.351 460.761C715.07 480.361 702.605 498.795 692.305 518.424C684.024 534.192 649.136 597.677 673.969 610.936C676.909 612.475 680.163 613.014 683.191 614.268C695.451 619.335 702.448 635.642 715.727 635.769C723.253 635.848 729.741 630.34 737.169 629.096C754.917 626.156 769.598 647.618 787.443 645.364C799.439 643.845 809.444 631.712 821.273 634.162C825.134 634.966 828.486 637.279 832.131 638.749C840.519 642.044 850.002 640.911 857.376 635.73C867.617 628.38 868.93 615.15 870.41 603.606C873.034 582.866 872.05 561.829 867.5 541.425C860.826 511.417 850.624 483.713 852.643 452.392C854.603 421.326 864.824 389.486 856.347 358.567C851.11 340.161 839.542 324.196 823.684 313.487C812.904 306.166 785.611 297.689 772.949 303.687" fill="var(--color-illustration-secondary, #7F72FF)"/>
<path d="M746.431 339.799C734.847 347.859 727.638 360.82 726.9 374.913C726.527 382.41 728.428 389.436 731.437 396.247C735.151 404.646 739.346 412.359 738.424 421.845C737.542 430.89 733.279 439.299 729.016 447.168C724.753 455.038 720.608 462.76 716.218 470.404C707.084 486.339 697.176 501.823 688.562 518.061C678.899 536.26 669.236 555.047 664.111 575.107C661.837 584.006 659.966 594.413 663.131 603.331C664.436 607.173 666.897 610.517 670.177 612.906C675.94 617.002 683.103 617.433 688.66 622.157C698.127 630.193 706.3 641.904 720.343 639.003C728.017 637.416 734.495 631.8 742.668 632.721C749.273 633.466 755.222 637.318 760.847 640.561C766.472 643.805 772.509 647.421 779.055 648.725C785.856 650.087 792.119 648.725 798.312 645.785C804.506 642.845 811.287 637.298 818.608 637.7C822.93 637.945 826.664 640.699 830.574 642.286C834 643.679 837.656 644.424 841.354 644.481C857.122 644.746 868.206 633.584 871.734 618.952C875.811 602.224 876.428 583.947 875.134 566.865C872.253 529.018 854.741 493.493 856.377 455.145C857.945 418.278 871.734 380.665 855.456 345.042C843.31 318.364 817.613 300.405 788.385 298.169C782.505 297.708 776.546 298.169 771.068 300.59C766.864 302.461 770.51 308.498 774.655 306.734C785.592 302.089 800.978 307.361 811.278 311.507C824.38 316.74 835.16 326.687 842.824 338.3C862.943 368.847 854.094 405.175 850.007 438.917C847.847 456.158 848.346 473.629 851.487 490.719C854.574 507.575 859.543 524.039 863.335 540.699C867.427 558.613 868.769 577.046 867.314 595.364C866.226 608.702 865.628 628.057 851.575 634.564C843.618 638.268 836.248 636.377 828.712 632.829C822.283 629.791 816.197 629.154 809.465 631.653C803.242 633.956 797.852 638.082 791.609 640.336C785.043 642.708 778.81 641.316 772.705 638.376C762.189 633.26 751.978 624.45 739.6 625.048C732.094 625.401 726.223 629.948 719.109 631.594C712.435 633.123 707.251 629.399 702.576 625.087C698.235 621.079 694.246 616.63 689.268 613.327C684.289 610.025 677.282 609.917 673 605.732C667.414 600.283 668.384 590.464 669.599 583.516C673.098 563.543 682.496 544.629 691.757 526.783C705.732 499.892 722.303 474.471 736.161 447.501C743.119 433.938 747.921 419.395 741.943 404.558C739.003 397.149 734.553 390.25 733.26 382.253C732.182 375.184 733.113 367.955 735.945 361.389C738.793 354.716 743.446 348.97 749.381 344.797C752.438 342.651 749.528 337.575 746.441 339.75L746.431 339.799Z" fill="var(--color-illustration-primary, #382C80)"/>
<path d="M771.961 839.168C770.092 835.461 767.197 832.368 763.621 830.26C757.28 826.614 749.558 826.81 742.316 825.772C735.073 824.733 727.106 821.469 724.823 814.521C723.362 810.082 724.636 805.182 723.745 800.586C721.598 789.531 712.151 787.454 702.91 789.541C702.185 793.925 701.427 798.302 700.636 802.673C696.981 822.42 695.766 862.6 677.381 874.125C669.139 879.27 659.555 881.739 650.735 885.787C645.835 888.021 641.082 890.834 637.701 895.009C614.465 923.693 685.721 929.377 698.804 931.994C714.601 935.149 732.947 937.697 745.128 927.143C753.194 920.165 756.261 909.199 759.025 898.899C764.287 879.123 768.237 859.16 771.961 839.168Z" fill="var(--color-illustration-primary, #382C80)"/>
<path d="M775.057 837.355C770.51 829.251 763.297 824.948 754.213 823.527C746.284 822.302 733.535 823.194 728.899 814.972C726.371 810.484 728.115 804.506 727.155 799.586C726.492 795.909 724.713 792.524 722.059 789.894C716.62 784.749 708.839 784.612 701.91 786.033C700.681 786.349 699.722 787.311 699.411 788.541C697.206 801.713 695.413 814.903 693.355 828.104C691.483 840.178 689.258 853.378 682.506 863.825C674 876.996 655.683 877.927 643.169 885.699C635.829 890.265 627.655 899.164 629.802 908.66C631.389 915.677 638.014 920.165 644.129 923.037C652.43 926.957 661.436 929.162 670.393 930.955C678.174 932.513 686.073 933.591 693.913 934.787C705.673 936.6 717.345 939.52 729.37 937.727C737.347 936.551 744.942 933.131 750.351 927.006C756.026 920.587 758.975 912.404 761.288 904.279C767.227 883.18 771.402 861.62 775.381 840.119C776.223 835.611 769.314 833.67 768.521 838.208C765.13 856.357 761.563 874.468 757.006 892.382C753.35 906.7 749.695 924.399 733.662 929.446C721.706 933.199 709.26 930.063 697.304 928.113C690.581 927.015 683.839 926.153 677.136 924.957C668.534 923.573 660.072 921.425 651.852 918.538C646.756 916.647 638.906 913.56 637.005 907.827C633.751 898.027 648.559 890.501 655.242 887.708C667.365 882.641 680.722 879.397 688.415 867.872C695.422 857.377 698 844.107 699.979 831.867C702.224 818.079 704.017 804.231 706.33 790.443L703.841 792.951C710.701 791.53 718.443 792.765 720.099 800.791C721.03 805.339 719.942 810.052 721.079 814.59C721.974 817.897 723.858 820.851 726.479 823.057C739.091 833.837 759.877 825.017 768.854 840.971C771.127 844.96 777.341 841.383 775.057 837.355Z" fill="var(--color-illustration-primary, #382C80)"/>
<path d="M700.645 832.142C704.779 834.655 709.621 835.746 714.434 835.248C716.394 835.072 716.492 832.034 714.434 832.102C710.069 832.176 705.742 831.272 701.772 829.456C700.184 828.79 699.302 831.289 700.645 832.142Z" fill="var(--color-illustration-base, #FFFFFF)"/>
<path d="M699.145 849.713C702.213 852.416 706.364 853.539 710.376 852.751C712.218 852.378 711.826 849.213 709.925 849.429C706.804 849.88 703.631 849.073 701.105 847.184C699.655 846.087 697.753 848.537 699.145 849.713Z" fill="var(--color-illustration-base, #FFFFFF)"/>
<path d="M695.931 860.64C697.754 862.39 699.978 863.669 702.408 864.364C704.515 865.04 705.348 861.836 703.31 861.081C701.397 860.286 699.568 859.301 697.851 858.141C697.164 857.698 696.253 857.849 695.745 858.491C695.238 859.132 695.301 860.054 695.891 860.621L695.931 860.64Z" fill="var(--color-illustration-base, #FFFFFF)"/>
<path d="M795.323 828.075C799.637 827.104 803.506 824.725 806.318 821.313C807.494 819.814 805.515 817.687 804.172 819.167C801.639 822.109 798.295 824.24 794.558 825.292C793.79 825.503 793.338 826.297 793.549 827.066C793.76 827.834 794.554 828.286 795.323 828.075Z" fill="var(--color-illustration-base, #FFFFFF)"/>
<path d="M804.338 838.384C807.914 837.325 811.024 835.083 813.158 832.024C814.138 830.515 811.747 828.594 810.61 830.064C808.838 832.515 806.409 834.414 803.603 835.542C801.859 836.199 802.554 838.982 804.387 838.394L804.338 838.384Z" fill="var(--color-illustration-base, #FFFFFF)"/>
<path d="M813.031 851.3L817.628 844.92C818.823 843.264 816.04 841.618 814.884 843.313L810.464 849.801C809.376 851.398 811.924 852.829 813.031 851.3Z" fill="var(--color-illustration-base, #FFFFFF)"/>
<path d="M919.205 826.517C918.499 823.577 921.165 811.562 925.918 815.423C929.485 818.314 929.74 826.33 929.426 830.358C929.318 831.828 931.014 832.465 932.141 831.916C938.021 829.065 943.293 836.758 937.511 840.736C935.786 841.942 936.776 844.931 939.011 844.294C946.39 842.187 955.161 846.518 957.092 854.231C959.267 862.914 951.692 870.548 943.519 871.42L944.038 875.242C957.003 869.989 967.685 884.66 961.776 896.273C960.708 898.36 963.824 900.193 964.932 898.115C968.489 891.393 968.126 882.984 963.03 877.075C957.934 871.165 950.202 869.921 942.999 871.489C940.814 871.959 941.363 875.281 943.519 875.311C954.024 875.477 963.021 864.756 961.159 854.407C959.297 844.059 947.831 837.747 937.982 840.54L939.481 844.098C948.703 837.297 940.784 823.518 930.328 828.751L933.033 830.309C933.518 823.277 931.291 816.326 926.81 810.886C926.381 810.444 925.743 810.277 925.153 810.454C918.137 812.846 914.099 820.078 916.48 827.222C916.689 827.975 917.468 828.416 918.22 828.207C918.972 827.999 919.413 827.22 919.205 826.468V826.517Z" fill="var(--color-illustration-primary, #382C80)"/>
<path d="M911.297 876.702C914.472 879.25 917.627 881.798 920.881 884.238C922.292 885.297 924.135 882.925 922.782 881.778C919.842 879.23 916.716 876.8 913.658 874.35C911.992 873.027 909.621 875.33 911.297 876.702Z" fill="var(--color-illustration-primary, #382C80)"/>
<path d="M733.377 679.428C736.699 680.947 739.982 682.554 743.393 683.868C746.489 685.063 748.606 679.948 745.656 678.497C742.707 677.047 739.453 675.704 736.346 674.352C734.935 673.589 733.173 674.052 732.319 675.41C731.502 676.812 731.976 678.61 733.377 679.428Z" fill="var(--color-illustration-primary, #382C80)"/>
<path d="M475.765 311.35C481.234 308.153 488.254 309.899 491.59 315.284C494.925 320.669 493.361 327.731 488.064 331.204C491.748 330.597 496.051 330.175 498.697 332.802C500.735 334.811 501.029 338.123 500.049 340.799C498.914 343.441 497.098 345.734 494.786 347.443C500.499 346.74 505.938 350.084 507.89 355.498C509.842 360.913 507.787 366.958 502.94 370.061" fill="var(--color-illustration-base, #FFFFFF)"/>
<path d="M476.539 314.123C480.606 312.82 485.28 312.418 488.161 316.318C490.817 319.935 489.582 325.207 486.045 327.745C482.223 330.489 484.624 335.732 489.132 335.076C491.738 334.703 496.531 333.978 496.442 338.016C496.384 340.74 493.659 342.916 491.778 344.474C488.965 346.836 491.248 351.892 494.786 351.726C504.478 351.295 506.909 361.604 500.098 367.298C496.648 370.189 501.078 375.873 504.89 373.501C519.237 364.466 511.583 342.141 494.786 343.219L497.795 350.481C502.695 346.208 506.703 339.701 503.724 333.125C500.666 326.363 493.355 326.354 487.005 327.373L490.092 334.703C496.58 329.803 499.265 320.709 494.698 313.506C490.66 307.136 480.606 304.235 474.314 308.89C471.874 310.683 473.167 315.24 476.539 314.153V314.123Z" fill="var(--color-illustration-primary, #382C80)"/>
<path d="M556.066 312.722C551.654 310.785 547.019 309.399 542.268 308.596C539.171 308.077 535.907 307.822 532.967 308.92C530.027 310.017 527.519 312.781 527.626 315.917C527.744 319.533 531.017 322.14 534.085 324.061C538.271 326.68 542.632 329.008 547.138 331.029C543.573 341.939 547.501 353.902 556.84 360.576" fill="var(--color-illustration-base, #FFFFFF)"/>
<path d="M557.555 310.174C548.735 305.382 531.399 299.139 524.941 310.733C518.159 322.914 536.887 330.842 545.041 334.605L543.12 329.931C539.2 342.014 543.414 357.371 554.958 363.79C558.565 365.75 562.661 360.909 559.476 357.91C552.097 351.05 547.971 342.151 551.107 332.106C551.602 330.295 550.823 328.376 549.206 327.422C545.991 325.962 528.626 319.063 532.438 313.976C536.358 308.724 550.411 314.055 555.252 315.544C558.447 316.524 560.486 311.752 557.536 310.145L557.555 310.174Z" fill="var(--color-illustration-primary, #382C80)"/>
<path d="M829.28 432.792C824.297 452.699 815.292 471.375 802.82 487.672C795.339 497.668 786.268 506.369 775.968 513.426C743.285 535.241 695.148 534.986 663.641 511.594C638.357 492.817 622.667 463.378 614.641 432.929C609.133 412.006 606.909 390.397 605.703 368.847C604.655 350.041 604.566 331.333 603.234 312.546C603.067 310.302 602.93 307.96 603.822 305.902C605.125 302.883 608.477 301.129 611.76 301.002C615.064 301.009 618.304 301.91 621.138 303.608C618.198 300.257 622.118 294.641 626.577 294.367C631.036 294.093 634.907 297.052 638.337 299.835C638.2 296.033 642.032 293.034 645.824 292.672C649.921 292.289 663.817 298.071 655.781 287.977C653.869 285.795 651.42 284.15 648.676 283.205C645.138 281.813 640.552 279.902 640.836 276.11C641.077 274.487 641.965 273.031 643.296 272.072C647.079 268.946 652.322 268.358 657.222 268.377C671.138 268.446 679.762 272.072 690.895 279.843C695.667 283.185 700.499 286.703 703.909 291.388C708.329 297.513 709.956 305.176 711.288 312.615C714.954 333.146 715.365 354.676 717.413 375.413C718.766 389.133 720.138 402.853 721.882 416.573C722.578 422.041 722.294 433.439 726.41 437.231C737.905 427.431 746.47 409.213 755.486 396.846C765.757 382.753 776.266 368.84 787.013 355.107" fill="var(--color-illustration-base, #FFFFFF)"/>
<path d="M826.507 432.047C819.196 460.643 803.222 488.789 779.545 506.968C759.044 522.648 732.123 528.802 706.663 525.176C648.441 516.895 620.824 459.036 612.935 406.596C610.182 388.329 609.251 369.817 608.594 351.373C608.28 342.318 608.026 333.263 607.614 324.207C607.389 319.641 606.33 314.545 606.83 310.007C607.604 302.892 614.67 304.411 619.296 306.763C622.373 308.322 626.479 305.009 624.333 301.726C622.314 298.629 627.753 297.973 629.409 298.482C631.771 299.198 633.868 300.923 635.76 302.402C638.308 304.441 641.806 303.147 642.071 299.786C642.561 293.592 652.919 297.826 656.33 297.62C661.592 297.316 663.062 292.72 660.701 288.457C658.942 285.37 656.351 282.84 653.223 281.156C650.46 279.666 642.443 278.216 646.363 274.365C649.519 271.317 656.526 271.944 660.485 272.14C664.904 272.35 669.271 273.178 673.46 274.6C681.947 277.54 690.532 283.214 697.029 289.3C704.614 296.444 706.496 306.44 708.113 316.309C711.719 338.29 712.151 360.742 714.375 382.88C715.561 394.738 717.227 406.576 718.295 418.444C718.942 425.559 718.53 434.252 723.734 439.838C725.211 441.261 727.55 441.261 729.026 439.838C740.786 429.489 747.646 414.965 756.231 402.196C766.756 386.594 778.673 371.816 790.139 356.91C792.638 353.656 786.983 349.237 784.396 352.49C772.94 366.906 761.562 381.547 751.008 396.59C742.129 409.33 735.514 424.079 723.734 434.487H729.026C726.459 431.723 726.429 426.539 726.145 423.011C725.763 418.327 725.243 413.691 724.685 409.017C723.293 397.198 722.078 385.359 720.961 373.511C718.795 350.315 719.001 326.275 713.219 303.569C710.913 294.002 705.257 285.578 697.274 279.823C689.885 274.227 681.878 269.043 672.853 266.544C664.532 264.251 653.752 263.104 645.579 266.427C638.572 269.278 633.584 277.334 640.679 283.087C644.599 286.291 650.166 286.605 653.37 290.809C653.706 291.411 654.076 291.993 654.478 292.553C656.79 290.77 657.186 289.976 655.663 290.172H654.997C653.561 289.816 652.1 289.574 650.626 289.447C643.09 288.153 635.289 291.181 634.623 299.766L640.934 297.159C635.936 293.171 629.419 288.535 622.784 291.564C617.561 293.945 614.601 300.335 617.884 305.391L622.922 300.354C616.934 297.326 609.545 295.513 603.792 300.099C597.402 305.205 599.647 314.143 600.029 321.248C601.009 340.172 601.205 359.135 602.577 378.088C604.968 410.83 610.642 443.875 626.508 473.02C640.228 498.304 661.602 519.757 689.611 528.292C716.365 536.436 746.901 533.594 771.372 519.943C802.732 502.45 823.214 467.493 831.897 433.546C832.798 430.018 827.35 428.509 826.438 432.047H826.507Z" fill="var(--color-illustration-primary, #382C80)"/>
<path d="M842.216 446.1C835.64 462.76 823.596 478.617 812.267 492.366C804.78 501.461 795.96 509.183 783.504 508.428C780.495 508.242 777.722 506.841 775.125 505.312C746.767 488.612 731.981 455.878 738.199 423.56C740.649 411.114 749.87 402 758.053 392.837C768.539 381.077 777.31 367.504 787.022 355.098" fill="var(--color-illustration-secondary, #7F72FF)"/>
<path d="M839.492 445.355C832.632 462.26 820.783 477.431 808.955 491.131C803.996 496.874 798.175 502.479 790.58 504.332C781.652 506.527 774.341 501.274 767.756 495.806C754.832 485.115 745.842 470.421 742.207 454.048C740.107 444.623 739.917 434.873 741.648 425.373C743.256 416.886 747.95 409.997 753.487 403.539C759.494 396.541 765.698 389.819 771.303 382.439C777.712 374.021 783.896 365.417 790.178 356.9C792.618 353.598 787.062 349.266 784.435 352.481C777.908 360.458 772.126 369.033 765.903 377.255C759.68 385.477 752.183 393.043 745.676 401.196C739.943 408.341 735.592 415.985 734.142 425.118C732.555 435.092 732.808 445.272 734.886 455.155C738.834 473.602 749.067 490.105 763.836 501.842C770.362 507.027 777.83 512.417 786.532 511.946C794.666 511.505 801.811 507.624 807.73 502.215C815.403 495.188 821.714 486.143 827.751 477.715C834.684 468.146 840.46 457.79 844.96 446.864C846.322 443.493 840.854 442.023 839.501 445.355H839.492Z" fill="var(--color-illustration-primary, #382C80)"/>
<path d="M523.04 341.103C521.828 341.292 520.854 342.2 520.58 343.396C520.252 344.325 520.252 345.338 520.58 346.267C520.92 347.206 521.779 347.858 522.775 347.933C524.147 347.933 525.186 346.64 525.558 345.317C525.945 344.295 525.766 343.145 525.088 342.288C524.343 341.514 522.736 341.71 522.511 342.759" fill="var(--color-illustration-base, #FFFFFF)"/>
<path d="M523.04 339.652C519.904 339.584 518.14 343.014 518.493 345.807C518.875 348.835 522.119 350.932 524.912 349.286C527.362 347.845 528.528 344.062 527.029 341.573C525.529 339.084 521.354 339.221 520.59 342.24C520.08 344.288 523.207 345.817 524.138 343.739C524.138 343.739 523.53 343.827 523.618 343.739C523.618 343.739 523.687 344.337 523.677 344.425C523.677 344.778 523.256 346.081 522.756 346.013C521.413 345.836 522.413 342.769 523.422 342.524C524.11 342.322 524.547 341.649 524.452 340.939C524.356 340.229 523.756 339.695 523.04 339.682V339.652Z" fill="var(--color-illustration-base, #FFFFFF)"/>
<path d="M516.542 250.315C516.167 249.827 515.906 249.261 515.778 248.659C515.734 248.469 515.705 248.275 515.69 248.081C515.675 247.833 515.675 247.584 515.69 247.336C515.748 246.826 515.69 246.983 515.396 247.816L513.818 248.737C511.956 247.591 511.348 247.503 512.015 248.453C512.072 248.716 512.164 248.969 512.289 249.208C512.524 249.815 512.769 250.423 513.014 251.031C513.488 252.605 514.146 254.118 514.974 255.539C515.998 257.042 517.943 257.609 519.615 256.893C521.286 256.176 522.216 254.377 521.834 252.599C521.452 251.232 520.909 249.917 520.217 248.679C519.678 247.503 519.237 246.248 518.561 245.121C517.218 242.71 514.641 240.78 511.779 241.868C506.34 243.945 509.045 251.795 512.044 254.735C515.043 257.675 518.904 253.383 516.454 250.325L516.542 250.315Z" fill="var(--color-illustration-secondary, #7F72FF)"/>
<path d="M763.748 213.448C756.192 216.751 751.194 224.111 747.735 231.608C747.563 232.107 747.254 232.549 746.843 232.882C746.362 233.14 745.821 233.266 745.275 233.244C739.395 233.548 734.024 234.92 731.006 240.251C728.723 244.279 727.478 249.071 728.497 253.589C730.457 262.282 740.875 267.544 749.018 267.926C757.637 268.288 765.945 264.676 771.558 258.126" fill="var(--color-illustration-primary, #382C80)"/>
<path d="M762.258 210.9C757.302 213.088 753.009 216.542 749.812 220.915C748.067 223.238 746.931 226.188 745.088 228.373C743.246 230.558 745.088 228.892 742.609 229.353C741.403 229.588 740.169 229.637 738.963 229.912C728.497 232.303 722.44 243.632 724.4 253.892C726.282 263.82 736.18 270.092 745.549 271.66C756.221 273.424 768.589 269.19 774.518 259.9C776.772 256.352 771.95 253.392 769.088 255.705C762.444 261.076 754.741 265.437 745.902 263.418C737.777 261.566 730.222 255.48 732.877 246.385C734.063 242.26 736.327 239.251 740.541 238.095C743.746 237.222 747.862 237.918 750.184 235.155C752.36 232.567 753.222 228.628 755.084 225.717C757.557 221.65 761.059 218.307 765.237 216.025C768.677 214.271 765.658 209.41 762.297 210.919L762.258 210.9Z" fill="var(--color-illustration-primary, #382C80)"/>
<path d="M775.311 257.411C772.964 256.005 770.068 255.869 767.599 257.048C765.864 257.852 767.109 260.909 768.912 260.174C770.59 259.419 772.497 259.352 774.224 259.988C775.713 260.606 776.703 258.156 775.311 257.411Z" fill="var(--color-illustration-primary, #382C80)"/>
<path d="M773.469 261.614C771.976 260.855 770.21 260.855 768.716 261.614C768.016 262.041 767.733 262.917 768.052 263.673C768.371 264.429 769.196 264.837 769.99 264.633C770.402 264.515 770.843 264.358 771.245 264.28C771.743 264.226 772.246 264.226 772.744 264.28C773.389 264.273 773.949 263.838 774.118 263.216C774.287 262.595 774.022 261.936 773.469 261.605V261.614Z" fill="var(--color-illustration-primary, #382C80)"/>
<path d="M754.879 263.614C755.79 263.418 756.506 264.035 757.427 264.251C758.348 264.466 759.671 263.555 759.211 262.457C758.822 261.403 757.884 260.649 756.77 260.497C755.762 260.333 754.728 260.509 753.83 260.997C752.341 261.761 753.409 263.937 754.928 263.594L754.879 263.614Z" fill="var(--color-illustration-primary, #382C80)"/>
<path d="M782.054 320.523C773.94 317.583 772.597 307.519 772.725 299.492C772.803 295.112 772.225 290.28 769.04 287.262C767.4 285.939 765.615 284.808 763.718 283.891C757.532 280.234 753.047 274.275 751.243 267.319C747.323 251.747 755.957 234.852 769.589 227.492C778.193 222.847 788.993 221.808 798.116 225.532C810.543 230.559 817.716 243.613 816.972 256.755C816.629 263.056 814.247 268.946 811.562 274.591C807.221 283.695 806.78 290.388 807.279 300.443C807.485 303.819 807.387 307.208 806.985 310.566C805.8 319.494 793.265 321.925 785.778 321.346C784.505 321.242 783.252 320.965 782.054 320.523Z" fill="var(--color-illustration-base, #FFFFFF)"/>
<path d="M783.377 318.249C776.155 315.025 776.076 306.352 776.135 299.492C776.204 290.878 773.685 285.537 766.208 281.205C750.665 272.189 751.008 251.55 761.592 238.732C772.636 225.355 794.833 221.896 806.672 236.223C811.869 242.641 814.128 250.95 812.895 259.116C811.454 268.142 805.741 275.698 804.075 284.674C803.334 289.02 803.091 293.435 803.35 297.836C803.555 302.109 804.82 308.322 802.634 312.222C799.4 317.975 788.571 318.769 782.897 317.338C778.722 316.289 777.193 322.238 781.143 323.718C788.003 326.246 797.303 325.011 803.526 321.15C812.189 315.77 810.994 305.97 810.925 297.003C810.732 291.832 811.371 286.664 812.816 281.695C814.62 276.08 817.716 271.003 819.324 265.3C821.982 255.969 820.928 245.971 816.384 237.399C806.329 218.593 781.26 214.644 764.287 226.58C749.587 236.909 741.747 257.744 750.136 274.473C752.582 279.245 756.23 283.298 760.72 286.233C763.493 288.065 766.6 288.996 768.109 292.22C769.353 294.896 769.246 297.836 769.334 300.717C769.618 309.939 772.019 319.337 781.349 323.071C784.102 324.159 786.102 319.464 783.377 318.249Z" fill="var(--color-illustration-primary, #382C80)"/>
<path d="M802.507 281.254C803.35 285.056 805.447 288.222 809.975 288.878C814.336 289.506 818.089 285.938 820.755 282.391C823.45 278.833 825.828 275.046 827.86 271.072C829.35 268.132 830.682 265.055 830.722 261.791C830.761 258.528 829.232 255.049 826.292 253.618C830.702 248.571 833.564 241.623 831.927 235.116C830.29 228.608 822.999 223.512 816.708 225.815C814.846 215.31 804.712 207.725 794.168 205.902C787.066 204.719 779.774 205.635 773.186 208.538C768.188 210.723 761.573 213.389 758.907 218.514C756.055 223.983 763.425 230.421 767.806 233.009C772.852 235.809 778.5 237.352 784.27 237.507C784.705 237.48 785.138 237.594 785.504 237.83C785.783 238.096 785.981 238.436 786.073 238.81C788.366 245.347 790.796 251.825 790.796 258.871C790.473 254.951 792.688 249.071 796.147 246.885C800.067 244.337 805.242 247.081 805.565 252.148C805.928 257.675 802.899 264.055 802.341 269.788C802.047 272.983 801.665 277.442 802.507 281.254Z" fill="var(--color-illustration-primary, #382C80)"/>
<path d="M799.802 281.999C800.948 286.899 803.977 290.868 809.151 291.848C815.247 293.004 820.176 288.555 823.675 284.145C830.535 275.531 841.315 258.606 828.173 250.394L828.927 256.274C834.425 249.629 838.355 240.486 834.807 231.97C831.681 224.58 823.606 220.004 815.766 222.287L820.284 224.865C818.089 214.771 810.102 207.332 800.615 203.853C789.776 199.933 778.555 202.07 768.275 206.627C760.19 210.223 750.567 217.407 756.211 227.207C758.613 231.026 761.927 234.189 765.855 236.409C771.872 239.986 777.987 239.947 784.475 241.632L782.123 239.819C785.19 245.111 786.758 252.863 786.944 258.88C787.091 263.849 794.784 263.869 794.676 258.88C794.608 256.372 795.745 249.806 799.253 249.757C803.487 249.698 801.311 256.92 800.792 259.057C798.832 266.897 797.313 274.198 798.783 282.293C799.665 287.193 807.015 285.076 806.211 280.244C804.908 272.404 807.603 265.417 808.945 257.861C809.847 252.824 809.651 247.14 805.025 243.945C795.059 237.036 786.748 249.982 786.934 258.88H794.667C794.465 253.644 793.504 248.465 791.815 243.504C790.56 239.633 789.855 234.733 785.317 233.704C779.437 232.411 774.116 232.479 768.873 229.049C765.59 226.913 760.18 222.699 763.483 218.681C766.423 215.182 771.578 213.154 775.704 211.507C780.878 209.412 786.495 208.651 792.04 209.292C801.84 210.488 811.042 216.789 813.13 226.795C813.687 228.737 815.694 229.878 817.648 229.363C822.41 228.02 827.036 231.509 828.281 236.115C829.711 241.397 826.899 247.003 823.626 250.982C822.827 251.812 822.447 252.959 822.594 254.102C822.74 255.245 823.397 256.26 824.38 256.862C831.24 261.154 822.989 272.708 820.117 277.226C818.324 280.029 816.07 283.949 812.836 285.262C808.7 286.928 806.231 284.194 805.182 280.529C804.212 277.04 798.988 278.52 799.802 281.999Z" fill="var(--color-illustration-primary, #382C80)"/>
<path d="M758.662 247.16C762.778 247.395 763.856 251.785 762.484 255C761.67 256.96 760.141 258.361 759.691 260.458C759.427 261.45 760.007 262.471 760.994 262.752C763.702 263.354 766.509 263.354 769.216 262.752C770.089 262.477 770.638 261.615 770.517 260.708C770.396 259.801 769.64 259.113 768.726 259.077C766.325 258.93 763.895 259.165 761.494 259.077L763.297 261.438C763.66 259.478 765.257 258.018 765.904 256.176C766.689 254.21 766.843 252.049 766.345 249.992C765.48 246.518 762.231 244.177 758.662 244.455C757.967 244.515 757.434 245.096 757.434 245.793C757.434 246.49 757.967 247.071 758.662 247.13V247.16Z" fill="var(--color-illustration-primary, #382C80)"/>
<path d="M771.461 249.061C772.343 248.953 773.176 248.65 774.077 248.591C774.969 248.539 775.863 248.615 776.733 248.816C778.781 249.267 779.673 246.2 777.605 245.661C775.332 245.063 772.382 245.22 770.51 246.778C770.138 247.17 770.035 247.746 770.248 248.242C770.461 248.739 770.95 249.061 771.49 249.061H771.461Z" fill="var(--color-illustration-primary, #382C80)"/>
<path d="M773.127 251.079C772.076 251.697 771.662 253.008 772.166 254.118C772.67 255.227 773.931 255.777 775.087 255.391C776.362 255.037 777.131 253.741 776.831 252.451C776.651 251.818 776.247 251.271 775.694 250.913C775.001 250.433 774.093 250.395 773.362 250.815C772.773 251.178 772.452 251.853 772.543 252.539C772.634 253.225 773.12 253.793 773.783 253.99C773.911 254.039 774.058 254.049 774.195 254.098L773.764 253.921C773.831 253.951 773.894 253.991 773.95 254.039L773.587 253.755L773.744 253.921L773.46 253.559C773.507 253.617 773.544 253.684 773.568 253.755L773.391 253.324C773.396 253.373 773.396 253.422 773.391 253.471L773.323 253C773.332 253.072 773.332 253.144 773.323 253.216L773.391 252.745C773.395 252.788 773.395 252.831 773.391 252.873L773.568 252.451L773.479 252.608L773.754 252.255C773.699 252.322 773.637 252.381 773.568 252.432L773.92 252.157C773.855 252.215 773.778 252.258 773.695 252.285L774.107 252.108C774.049 252.132 773.99 252.152 773.93 252.167L774.401 252.059H774.205L774.655 252.118L774.401 252.059L774.802 252.226L774.695 252.167C774.783 252.167 775.145 252.657 775.087 252.559C775.028 252.461 774.979 252.344 775.087 252.608C775.087 252.696 775.194 252.873 775.087 252.608L775.145 253.03C775.136 252.945 775.136 252.86 775.145 252.775L775.087 253.196C775.087 253.03 775.194 252.981 775.008 253.324C775.126 253.118 774.734 253.618 774.92 253.431C775.348 252.884 775.352 252.116 774.931 251.563C774.509 251.011 773.768 250.812 773.127 251.079Z" fill="var(--color-illustration-primary, #382C80)"/>
<path d="M758.534 251.08C757.922 251.276 757.398 251.682 757.055 252.226C756.5 253.167 756.718 254.373 757.567 255.06C758.416 255.747 759.641 255.709 760.445 254.97C761.351 253.908 761.237 252.317 760.191 251.393C759.797 250.979 759.237 250.764 758.667 250.807C758.097 250.851 757.577 251.149 757.251 251.619C757.006 252.048 756.956 252.562 757.113 253.03C757.307 253.566 757.686 254.014 758.182 254.294L757.819 254.02C757.923 254.098 758.018 254.186 758.103 254.284L757.829 253.932C757.877 253.987 757.917 254.05 757.946 254.118L757.78 253.706C757.784 253.771 757.784 253.837 757.78 253.902L757.721 253.451C757.731 253.493 757.731 253.537 757.721 253.579L757.78 253.128V253.255L757.946 252.863C757.829 253.069 758.142 252.638 758.201 252.599C758.269 252.523 758.358 252.469 758.456 252.442C758.613 252.383 758.642 252.364 758.534 252.383L758.966 252.324C758.924 252.334 758.88 252.334 758.838 252.324L759.269 252.383C759.269 252.383 759.152 252.383 759.142 252.383L759.407 252.491C759.309 252.432 759.328 252.491 759.407 252.55C759.691 252.765 759.338 252.422 759.554 252.697C759.622 252.755 759.67 252.834 759.691 252.922C759.75 253.079 759.759 253.099 759.691 252.971L759.75 253.383C759.745 253.344 759.745 253.304 759.75 253.265C759.75 253.148 759.75 253.265 759.75 253.481C759.75 253.481 759.848 253.177 759.75 253.481C759.652 253.785 759.691 253.618 759.75 253.549C759.808 253.481 759.75 253.5 759.642 253.677L759.701 253.618C759.808 253.52 759.779 253.549 759.603 253.687C760.2 253.33 760.443 252.588 760.171 251.947C759.899 251.307 759.196 250.965 758.525 251.148L758.534 251.08Z" fill="var(--color-illustration-primary, #382C80)"/>
<path d="M770.883 270.886C774.254 271.719 777.792 268.975 778.997 265.986C779.703 264.271 776.969 263.232 776.057 264.751C775.543 265.686 774.818 266.488 773.94 267.093C772.974 267.586 771.941 267.932 770.873 268.122C770.27 268.301 769.856 268.855 769.856 269.484C769.856 270.113 770.27 270.667 770.873 270.847L770.883 270.886Z" fill="var(--color-illustration-primary, #382C80)"/>
<path d="M770.363 191.79C774.959 191.79 774.969 184.646 770.363 184.646C765.757 184.646 765.757 191.79 770.363 191.79Z" fill="var(--color-illustration-base, #FFFFFF)"/>
<path d="M815.795 231.951C811.875 224.483 814.972 214.134 822.361 210.067C829.75 206 840.168 208.921 844.362 216.251C843.637 211.88 846.116 207.5 849.497 204.638C852.878 201.777 857.553 200.013 861.894 201.061C866.236 202.11 869.813 206.51 869.019 210.861C874.056 206.226 882.298 206.265 888.09 209.881C893.882 213.497 897.38 220.073 898.674 226.796C899.428 230.716 899.487 234.94 897.89 238.625C895.832 243.387 891.343 246.612 886.924 249.336C884.042 251.12 880.769 252.854 877.437 252.276C877.3 250.061 880.652 249.022 882.337 250.434C884.023 251.845 884.209 254.452 883.66 256.598C881.847 263.722 874.409 267.819 867.382 270.004C859.317 272.523 850.664 273.64 842.363 272.033C834.062 270.426 826.144 265.878 821.518 258.803" fill="var(--color-illustration-primary, #382C80)"/>
<path d="M818.402 231.235C816.011 225.071 817.589 216.996 823.596 213.419C829.398 209.959 837.806 212.272 840.874 218.319C842.697 221.886 848.557 220.21 848.4 216.28C848.285 211.673 851.061 207.484 855.348 205.794C859.582 203.981 865.511 205.343 864.903 210.929C864.58 213.869 868.725 216.319 871.107 214.487C880.417 207.343 890.648 214.663 893.794 224.424C895.548 229.853 895.813 235.89 891.834 240.378C888.551 244.073 882.436 248.287 877.447 248.081L881.701 252.334C881.514 254.441 878.437 259.077 876.801 260.655C874.981 262.298 872.897 263.624 870.636 264.575C865.387 266.827 859.787 268.153 854.084 268.495C843.069 269.249 831.926 265.819 825.008 256.803C821.97 252.883 815.208 256.352 818.089 260.841C829.663 279.245 855.192 280.147 873.4 272.062C880.583 268.877 888.698 262.203 887.806 253.442C887.012 245.602 875.37 242.495 873.341 251.207C872.665 254.147 874.654 256.303 877.447 256.597C885.111 257.401 894.009 250.962 898.694 245.269C904.201 238.556 904.211 229.451 901.506 221.533C896.606 207.313 879.27 196.327 866.119 208.019L873.155 210.959C873.704 201.414 864.6 195.279 855.691 197.102C846.352 199.062 839.178 207.813 840.482 217.378L847.861 214.271C841.501 206.029 830.358 201.531 820.598 207.088C811.425 212.292 808.397 224.355 813.473 233.371C814.933 235.968 819.539 234.214 818.373 231.294L818.402 231.235Z" fill="var(--color-illustration-primary, #382C80)"/>
<path d="M785.102 282.333C779.421 283.386 773.586 283.269 767.952 281.99C766.13 281.486 764.246 282.555 763.743 284.376C763.239 286.197 764.308 288.082 766.129 288.585C773.025 291.006 780.616 290.467 787.101 287.096C789.884 285.694 787.846 281.813 785.141 282.333H785.102Z" fill="var(--color-illustration-primary, #382C80)"/>
<path d="M761.925 320.591C761.484 327.882 768.129 333.439 774.293 336.046C781.379 339.007 789.407 338.71 796.255 335.232C798.391 334.154 796.509 330.94 794.373 332.008C789.213 334.597 783.274 335.174 777.713 333.625C771.98 332.057 764.15 327.353 764.336 320.591C764.336 319.033 762.023 319.062 761.925 320.591Z" fill="var(--color-illustration-primary, #382C80)"/>
<path d="M807.034 329.059C807.819 329.059 808.455 328.423 808.455 327.638C808.455 326.853 807.819 326.217 807.034 326.217C806.249 326.217 805.613 326.853 805.613 327.638C805.613 328.423 806.249 329.059 807.034 329.059Z" fill="var(--color-illustration-primary, #382C80)"/>
<path d="M378.657 458.154C330.215 475.49 273.277 463.054 233.989 429.832C194.701 396.61 173.151 344.572 173.582 293.141C153.006 293.087 132.529 290.286 112.694 284.811C146.073 257.607 178.282 229.043 209.322 199.12C233.548 225.378 256.669 252.605 278.687 280.803C279.833 282.273 281.039 283.998 280.715 285.831C280.255 288.447 277.138 289.496 274.541 290.035L246.739 295.846C244.779 296.258 242.819 296.718 241.378 298.11C239.281 300.197 239.418 303.559 239.624 306.499C240.741 320.219 241.907 334.115 246.611 347.041C255.853 372.414 278.334 391.543 303.598 401.069C328.863 410.594 356.705 411.398 383.517 408.193" fill="var(--color-illustration-base, #FFFFFF)"/>
<path d="M377.912 455.459C340.535 468.199 298.532 463.622 263.693 445.424C228.854 427.225 202.678 395.444 188.929 358.772C181.08 337.776 177.122 315.527 177.247 293.112C177.221 291.097 175.597 289.469 173.582 289.437C153.368 289.155 133.276 286.266 113.802 280.843L115.605 287.703C148.964 260.472 181.17 231.905 212.223 202.002H206.461C224.944 222.052 242.77 242.681 259.939 263.889C264.082 269.004 268.188 274.152 272.258 279.333C273.16 280.48 274.649 281.832 275.247 283.185C276.031 284.959 276.227 284.684 274.571 285.694C272.219 287.173 266.937 287.311 264.163 287.879C257.754 289.212 251.247 290.329 244.896 291.887C239.742 293.151 236.223 296.082 235.43 301.481C234.675 306.587 235.773 312.144 236.292 317.25C236.876 323.594 237.805 329.901 239.075 336.144C241.401 347.316 245.929 357.914 252.393 367.318C264.33 384.458 281.793 397.08 301.109 404.666C327.736 415.112 356.509 415.446 384.478 411.614C388.398 411.075 387.516 404.274 383.498 404.656C338.81 408.86 286.066 402.225 258.92 361.82C252.687 352.308 248.495 341.606 246.611 330.391C245.494 324.276 244.877 318.092 244.338 311.909C244.122 309.41 243.515 306.479 243.769 303.951C244.191 299.698 247.964 300.031 251.551 299.237L270.082 295.317C274.62 294.337 280.353 293.926 283.352 289.878C286.086 286.193 284.743 282.097 282.283 278.726C278.363 273.395 274.081 268.299 269.926 263.154C251.482 240.195 232.241 217.878 212.204 196.2C210.601 194.636 208.044 194.636 206.441 196.2C175.441 226.097 143.228 254.67 109.803 281.921C107.353 283.881 108.823 288.016 111.607 288.781C131.826 294.151 152.661 296.856 173.582 296.826L169.917 293.161C169.76 334.262 182.843 375.393 208.137 407.958C233.523 440.721 270.732 462.237 311.791 467.895C334.567 471.038 357.766 468.631 379.411 460.878C382.763 459.663 381.371 454.303 377.922 455.479L377.912 455.459Z" fill="var(--color-illustration-secondary, #7F72FF)"/>
<path d="M588.895 232.274C597.921 205.5 594.589 176.09 581.673 151.149C568.306 125.326 544.541 106.442 517.434 96.5732C501.695 90.85 485.211 88.6254 468.522 88.645L472.315 92.4376C472.413 84.5976 473.755 76.3754 471.384 68.7608C470.345 65.4386 468.287 62.1458 464.651 61.3618C458.898 60.1172 453.949 64.6546 449.951 68.0944C437.191 79.1227 424.451 90.1575 411.731 101.199C407.978 104.452 401 108.274 399.893 113.596C399.177 117.045 400.873 120.338 402.833 123.023C408.017 129.972 415.631 134.989 422.54 140.046C433.673 148.19 444.1 157.304 455.145 165.614C459.428 168.848 465.69 174.13 470.237 168.074C471.805 165.977 472.148 163.35 472.618 160.832L474.912 148.543C475.166 147.18 475.176 143.848 476.019 142.8C476.725 141.908 477.685 142.182 478.861 142.202C483.016 142.29 487.23 142.672 491.356 143.133C498.843 143.976 506.262 145.691 512.916 149.248C544.1 165.82 549.98 203.844 548.167 235.743C547.902 240.378 554.723 240.143 555.252 235.743C558.476 209.195 555.154 181.196 538.122 159.607C531.055 150.439 521.685 143.308 510.966 138.939C504.658 136.606 498.066 135.129 491.366 134.548C485.937 133.941 478.165 132.167 472.903 134.421C467.228 136.851 467.199 143.643 466.248 148.915C465.611 152.433 465.004 155.961 464.337 159.479C464.181 160.283 462.858 163.145 464.965 162.498C464.151 162.743 460.065 158.96 459.369 158.411C448.795 150.503 438.73 141.898 428.126 134.048C422.031 129.531 415.386 125.287 410.398 119.466C409.614 118.545 408.242 117.183 408.017 115.948C407.772 114.556 407.458 115.683 409.546 113.841C415.269 108.794 421.09 103.845 426.862 98.8566L447.08 81.3734C450.441 78.4334 453.744 75.4934 457.183 72.6318C458.33 71.6518 461.995 68.7902 462.74 69.2704C465.21 70.8678 464.7 78.4726 464.7 80.903C464.759 84.7446 464.524 88.596 464.7 92.4376C464.721 94.5363 466.423 96.2294 468.522 96.24C523.402 93.3686 576.538 130.648 586.122 185.822C588.789 200.807 587.892 216.21 583.505 230.784C582.447 234.253 587.768 235.684 588.905 232.274H588.895Z" fill="var(--color-illustration-secondary, #7F72FF)"/>
<path d="M273.884 211.057C277.579 205.049 286.183 203.589 291.985 207.46C298.345 211.713 299.825 220.278 298.031 227.236L305.558 226.256L305.078 225.629L305.499 228.814C305.636 227.932 312.712 227.579 313.506 227.579C316.443 227.442 319.351 228.212 321.836 229.784C323.748 231.123 325.026 233.188 325.373 235.496C325.719 237.805 325.103 240.154 323.668 241.995C320.924 245.602 326.608 249.296 329.656 246.611C338.662 238.663 332.214 224.571 322.463 220.798C316.73 218.573 310.115 218.838 304.254 220.543C299.296 221.944 295.091 226.423 299.09 231.254C301.05 233.626 305.332 232.303 305.95 229.432C308.351 218.652 304.97 206.019 294.503 200.737C285.576 196.2 273.669 199.14 268.72 208.048C266.858 211.409 271.856 214.33 273.874 211.057H273.884Z" fill="var(--color-illustration-primary, #382C80)"/>
<path d="M533.506 466.2L555.389 474.628C559.015 476.02 560.632 470.15 556.996 468.797L535.044 460.604C531.536 459.301 530.066 464.867 533.506 466.2Z" fill="var(--color-illustration-primary, #382C80)"/>
<path d="M134.558 216.652C133.087 214.67 132.676 212.094 133.456 209.752C134.237 207.41 136.111 205.596 138.478 204.892C145.289 203.04 150.679 210.067 153.433 215.192C155.304 218.691 161.439 216.28 159.979 212.429C156.324 202.746 144.417 193.387 133.921 199.424C126.914 203.452 122.719 216.3 131.108 221.18C134.117 222.934 136.449 219.112 134.568 216.692L134.558 216.652Z" fill="var(--color-illustration-primary, #382C80)"/>
<path d="M651.488 173.2C645.099 169.368 643.932 158.431 650.234 153.806C657.28 148.641 667.707 155.648 667.629 163.674L674.969 162.694C672.921 149.249 683.848 136.724 697.284 135.989C703.507 135.656 710.288 137.841 713.414 143.614C716.237 148.808 715.659 155.295 711.151 159.294L716.678 164.821C723.822 158.51 734.965 158.853 741.07 166.428C742.863 168.653 746.774 175.424 744.794 178.384C743.667 180.06 738.689 179.629 736.807 179.854C733.985 180.187 731.159 180.481 728.33 180.736C706.301 182.62 684.137 182.262 662.18 179.668C656.849 179.06 656.947 187.341 662.18 187.978C677.855 189.885 693.655 190.56 709.436 189.997C717.001 189.723 724.567 189.213 732.103 188.419C737.503 187.861 746.872 188.419 750.723 183.852C757.661 175.748 749.165 161.548 742.128 156.638C732.505 149.925 719.588 151.64 711.141 159.294C707.397 162.665 712.934 168.172 716.668 164.821C722.95 159.156 724.214 150.033 721.176 142.349C717.726 133.647 709.151 128.914 700.077 128.394C681.359 127.316 662.837 145.574 667.737 164.713C668.785 168.78 675.145 167.967 675.077 163.733C674.851 150.376 658.417 140.017 646.745 147.945C636.171 155.129 637.474 172.563 648.235 178.776C651.802 180.834 654.987 175.375 651.459 173.259L651.488 173.2Z" fill="var(--color-illustration-primary, #382C80)"/>
<path d="M731.486 453.656C729.437 445.512 727.703 437.241 725.459 429.156C724.312 425.03 718.706 426.892 719.245 430.861C720.537 439.194 722.739 447.361 725.811 455.214C727.115 458.712 732.417 457.389 731.486 453.656Z" fill="var(--color-illustration-primary, #382C80)"/>
<path d="M612.827 870.656C610.328 862.139 603.106 838.561 590.179 845.274C581.026 850.027 580.536 863.894 588.357 870.058L589.797 866.579C583.29 865.863 575.283 865.422 570.668 871.028C567.355 875.056 566.904 880.593 570.442 884.542L572.559 880.906C561.328 878.28 546.726 884.307 548.02 897.88C549.245 911.051 564.592 914.609 575.048 910.473C577.42 909.493 576.538 905.808 573.97 906.553C566.189 908.817 554.458 908.317 552.636 898.233C550.676 887.453 563.033 883.16 571.442 885.091C572.385 885.319 573.366 884.901 573.855 884.062C574.343 883.223 574.223 882.163 573.559 881.455C569.952 877.535 574.225 872.282 578.204 871.008C581.918 869.823 586.044 870.303 589.836 870.646C591.493 870.793 592.659 868.235 591.277 867.167C585.632 862.806 584.711 851.242 592.571 848.361C601.459 845.097 608.015 865.511 609.897 871.459C610.495 873.341 613.435 872.557 612.837 870.646L612.827 870.656Z" fill="var(--color-illustration-primary, #382C80)"/>
<path d="M621.284 862.198C623.175 861.218 624.587 860.728 626.654 861.728C628.437 862.472 629.597 864.216 629.594 866.148C629.496 868.343 632.672 868.216 632.926 866.148C633.358 862.708 631.055 859.827 628.026 858.543C625.292 857.396 621.117 857.436 619.402 860.287C619.023 860.848 619.094 861.599 619.573 862.077C620.051 862.556 620.802 862.627 621.362 862.247L621.284 862.198Z" fill="var(--color-illustration-primary, #382C80)"/>
<path d="M838.942 616.276C836.639 616.57 833.739 616.404 832.857 613.336C831.602 608.956 839.501 605.781 840.148 611.759L843.764 610.779C842.729 608.829 842.963 606.449 844.357 604.738C845.752 603.027 848.035 602.318 850.154 602.939C855.21 604.242 856.112 609.671 854.799 613.934C854.005 616.502 858.013 617.59 858.827 615.042C861.218 607.525 856.994 598.274 848.154 598.597C841.147 598.842 836.541 606.702 840.412 612.739C841.657 614.699 844.274 613.366 843.96 611.249C842.98 604.546 833.954 602.096 830.397 608.309C826.967 614.307 832.974 620.961 839.315 618.913C840.687 618.462 840.55 616.022 838.942 616.227V616.276Z" fill="var(--color-illustration-base, #FFFFFF)"/>
<path d="M774.479 565.434C766.991 560.182 753.497 561.73 753.771 573.216C753.967 581.369 764.453 584.378 769.255 578.116L765.629 577.635C767.011 584.064 774.714 587.328 780.564 584.495C787.718 581.095 788.404 571.804 785.063 565.513L783.348 568.453C789.296 569.08 795.49 566.875 796.088 560.133C796.646 553.802 791.932 548.725 785.866 547.775C782.515 547.255 779.584 548.059 776.439 549.059C771.656 550.578 769.03 547.755 764.316 547.236C758.23 546.55 751.85 551.381 753.967 557.908C754.771 560.378 758.622 559.349 757.887 556.83C756.182 550.95 763.493 550.881 766.933 552.018C768.54 552.547 770.069 553.674 771.705 554.125C774.782 554.978 776.723 553.057 779.545 552.224C783.945 550.921 789.502 551.558 791.511 556.252C794.108 562.308 788.738 565.14 783.367 564.494C781.77 564.298 781.054 566.287 781.662 567.434C783.72 571.442 783.877 577.371 779.761 580.174C776.076 582.712 770.461 580.869 769.471 576.41C769.059 574.558 766.786 574.686 765.845 575.93C764.365 577.89 761.288 577.939 759.436 576.548C757.084 574.784 757.26 571.971 758.397 569.688C761.337 563.808 768.422 564.846 773.097 567.728C774.684 568.708 776.037 566.297 774.547 565.248L774.479 565.434Z" fill="var(--color-illustration-base, #FFFFFF)"/>
<path d="M685.533 562.877L690.698 562.955C691.171 564.401 690.973 565.982 690.159 567.267C689.331 568.981 688.187 570.524 686.788 571.814L690.002 573.147C690.936 570.161 692.671 569.969 695.206 572.569C695.976 573.485 696.661 574.469 697.254 575.509C698.655 577.831 700.272 580.683 700.057 583.486C699.606 589.67 694.833 587.122 691.051 588.141C688.983 588.7 688.581 589.778 687.807 591.561C687.785 593.017 687.053 594.371 685.847 595.187C683.819 595.301 681.941 594.122 681.162 592.247C679.918 589.866 679.986 586.985 679.947 584.407C679.908 581.83 675.821 581.742 675.812 584.407C675.812 590.601 678.124 601.763 686.993 599.333C690.502 598.353 690.649 596.108 692.011 593.453C692.56 592.365 692.109 592.571 693.716 592.286C694.588 592.13 695.676 592.463 696.529 592.384C698.063 592.269 699.524 591.684 700.713 590.709C707.074 585.583 702.967 576.283 698.94 571.109C696.98 568.619 694.373 566.571 691.1 567.189C688.141 567.567 686.012 570.216 686.278 573.186C686.425 574.646 688.326 575.881 689.492 574.519C692.942 570.521 697.087 563.866 692.197 559.153C688.993 556.066 683.377 557.653 682.77 562.093C682.515 563.906 685.249 564.739 685.572 562.867L685.533 562.877Z" fill="var(--color-illustration-base, #FFFFFF)"/>
<path d="M814.727 505.879C813.139 511.151 811.992 519.393 819.117 521.157C825.389 522.715 826.957 515.718 826.879 511.044L823.478 511.965C827.614 518.825 838.178 518.462 840.54 510.24C842.823 502.194 833.788 495.462 826.761 499.94C825.095 501.008 826.153 504.154 828.192 503.331C832.112 501.763 837.414 503.037 836.884 508.3C836.316 513.984 829.378 514.532 826.624 510.132C825.703 508.662 823.145 509.152 823.223 511.044C823.341 513.719 822.106 520.589 817.961 516.502C815.393 513.974 816.657 509.721 817.549 506.702C817.69 505.952 817.233 505.219 816.498 505.015C815.762 504.811 814.993 505.203 814.727 505.918V505.879Z" fill="var(--color-illustration-base, #FFFFFF)"/>
<path d="M833.592 566.248C833.987 565.789 834.466 565.409 835.003 565.131C835.209 565.054 835.423 565.002 835.64 564.974C835.709 564.974 836.013 565.052 835.797 564.974C835.954 565.052 835.895 565.042 835.974 565.189C835.856 564.974 836.091 565.689 836.042 565.366C836.042 565.503 836.13 565.503 836.042 565.562C835.954 565.621 836.444 565.229 836.042 565.395C834.484 566.12 835.582 568.688 837.208 568.169C839.511 567.424 839.688 564.562 838.1 562.994C836.14 561.034 833.141 562.563 831.603 564.317C830.427 565.64 832.318 567.581 833.563 566.277L833.592 566.248Z" fill="var(--color-illustration-base, #FFFFFF)"/>
<path d="M774.478 613.679C774.44 613.404 774.572 613.133 774.811 612.993C774.93 612.905 775.068 612.844 775.213 612.817C775.105 612.817 775.488 612.817 775.36 612.817C775.233 612.817 775.007 612.719 775.439 612.817C775.311 612.817 775.439 612.817 775.497 612.885C775.39 612.758 775.497 612.885 775.497 612.964C775.497 613.042 775.605 613.199 775.546 613.032C775.546 613.14 775.605 613.268 775.635 613.375C775.635 613.199 775.635 613.375 775.635 613.454V613.601C775.635 613.601 775.527 613.924 775.576 613.807C775.37 614.032 775.625 613.689 775.576 613.807C774.135 615.424 776.419 617.727 777.977 616.208C778.852 615.289 779.253 614.017 779.061 612.762C778.869 611.508 778.107 610.413 776.997 609.798C775.731 609.237 774.266 609.363 773.115 610.132C771.964 610.901 771.288 612.207 771.323 613.591C771.47 615.551 774.547 615.649 774.488 613.591L774.478 613.679Z" fill="var(--color-illustration-base, #FFFFFF)"/>
<path d="M723.685 562.23C723.008 561.581 722.54 560.745 722.342 559.829C722.244 559.309 722.195 558.31 722.773 558.016C723.084 557.937 723.413 557.979 723.694 558.133C723.835 558.205 723.967 558.294 724.086 558.398C724.086 558.339 724.214 557.898 724.086 558.486C723.489 560.446 726.536 561.769 727.389 559.878C728.967 556.379 724.998 553.547 721.764 554.792C717.569 556.418 719.118 561.985 721.636 564.327C722.216 564.906 723.155 564.906 723.734 564.327C724.313 563.748 724.313 562.809 723.734 562.23H723.685Z" fill="var(--color-illustration-base, #FFFFFF)"/>
<path d="M783.475 488.367C782.289 487.641 780.035 486.818 779.555 485.427C781.378 482.291 782.685 482.186 783.475 485.113C783.719 485.827 783.896 486.562 784.004 487.308L787.581 485.799C786.092 482.751 788.787 477.714 792.569 478.939C795.637 479.968 796.313 483.996 794.745 486.465C793.589 488.298 796.382 490.552 797.803 488.827C801.821 483.927 798.998 475.48 792.403 474.705C785.611 473.902 780.937 482.065 784.2 487.739C785.298 489.631 788.434 488.376 787.777 486.23C786.925 483.418 785.817 480.419 782.965 479.125C780.972 478.129 778.566 478.503 776.968 480.056C772.773 484.476 778.173 489.67 782.515 490.709C783.135 490.861 783.773 490.538 784.018 489.948C784.262 489.359 784.04 488.679 783.495 488.347L783.475 488.367Z" fill="var(--color-illustration-base, #FFFFFF)"/>
<path d="M753.006 414.288C750.654 418.208 748.489 427.293 754.966 428.626C762.248 430.115 763.492 421.011 762.953 416.062L759.749 417.385C767.442 425.794 779.349 414.935 772.165 406.213L769.5 408.918C771.038 410.711 773.461 411.476 775.749 410.889C778.038 410.302 779.794 408.467 780.28 406.154C781.485 399.873 775.321 396.433 769.902 397.697C767.442 398.275 768.49 401.931 770.931 401.45C772.396 400.705 774.189 401.239 775.007 402.666C777.732 404.312 776.794 405.495 772.195 406.213C770.548 404.351 767.932 407.056 769.48 408.918C773.508 413.749 766.795 419.463 762.434 414.739C761.454 413.622 759.053 414.426 759.229 416.062C759.386 417.177 759.484 418.299 759.523 419.424C760.2 422.197 759.18 423.138 756.485 422.256C754.124 423.236 753.193 422.707 753.712 420.747C753.861 418.943 754.378 417.188 755.231 415.592C755.575 414.976 755.363 414.198 754.754 413.843C754.145 413.488 753.363 413.686 752.997 414.288H753.006Z" fill="var(--color-illustration-base, #FFFFFF)"/>
<path d="M790.384 434.114C788.63 435.087 787.756 437.122 788.257 439.063C788.742 441.165 790.628 442.643 792.785 442.611C795.046 442.579 797.078 441.225 797.979 439.152C798.944 436.732 798.471 433.976 796.754 432.017C795.451 430.371 793.04 432.458 793.951 434.173C794.745 435.653 795.313 438.23 793.177 438.858C791.952 439.22 790.845 437.672 792.07 436.996C793.951 435.947 792.285 433.164 790.384 434.114Z" fill="var(--color-illustration-base, #FFFFFF)"/>
<path d="M834.287 388.632C828.407 388.23 818.686 389.553 819.832 397.834C820.548 403.067 827.976 404.822 830.612 400.127L826.937 398.579C825.555 403.381 828.437 408.879 833.562 409.771C838.913 410.751 843.695 405.772 843.186 400.568C843.186 399.486 842.308 398.608 841.226 398.608C840.143 398.608 839.266 399.486 839.266 400.568C839.168 403.273 836.767 406.448 833.709 405.557C831.2 404.851 830.152 401.931 830.769 399.677C831.386 397.423 828.299 396.119 827.163 398.079C826.026 400.039 823.684 398.079 823.625 396.609C823.566 395.139 824.801 393.836 825.791 393.14C828.231 391.405 831.416 391.435 834.287 391.592C836.247 391.699 836.188 388.74 834.287 388.652V388.632Z" fill="var(--color-illustration-base, #FFFFFF)"/>
<path d="M820.234 351.294C818.216 354.136 816.314 358.663 819.882 361.241C823.037 363.514 827.633 359.996 825.644 356.429C824.664 354.704 821.606 355.89 822.381 357.801C822.508 358.105 822.479 358.428 821.969 358.33C821.459 358.232 821.224 357.478 821.156 357.105C820.832 355.557 822.008 354.008 822.792 352.783C823.831 351.166 821.322 349.765 820.234 351.294Z" fill="var(--color-illustration-base, #FFFFFF)"/>
<path d="M755.29 374.109C753.991 373.659 752.827 372.887 751.909 371.864C751.403 371.344 751.152 370.627 751.223 369.904C751.066 369.297 751.34 368.993 752.046 369.003C752.604 368.474 752.889 368.464 752.908 369.003C753.026 371.345 756.544 371.374 756.573 369.003C756.478 367.437 757.357 365.975 758.784 365.323C760.211 364.672 761.891 364.966 763.012 366.063C764.766 367.543 767.226 365.2 765.57 363.515C763.429 361.33 760.164 360.689 757.357 361.904C754.55 363.118 752.781 365.937 752.908 368.993L756.505 368.503C755.868 364.583 750.282 364.073 748.528 367.474C746.254 371.874 750.586 375.314 754.172 376.794C755.682 377.401 756.789 374.834 755.29 374.138V374.109Z" fill="var(--color-illustration-base, #FFFFFF)"/>
</svg>
