<svg width="1000" height="1000" viewBox="0 0 1000 1000" fill="none" xmlns="http://www.w3.org/2000/svg">
<path d="M326.814 412.476C362.212 454.175 408.86 487.456 461.78 501.157C515.603 514.833 572.587 508.04 621.687 482.096C667.159 457.86 702.713 418.562 733.632 377.353C746.921 359.635 759.778 340.917 765.443 319.533C767.168 313.026 768.187 306.078 766.423 299.59C756.162 262.193 695.353 301.139 678.987 313.653C657.123 330.382 638.65 351.06 618.962 370.297C599.274 389.535 577.724 407.733 552.146 417.906C549.862 418.807 547.442 419.67 545.002 419.385C542.718 419.131 540.67 417.906 538.71 416.71C496.897 391.23 455.756 364.705 415.289 337.134" fill="white"/>
<path d="M324.511 414.74C367.631 466.083 427.147 504.401 494.865 511.084C530.251 514.555 565.958 509.72 599.147 496.962C631.487 484.428 660.054 464.24 684.916 440.201C697.513 427.902 709.365 414.865 720.412 401.158C731.555 387.438 742.56 373.414 752.066 358.518C761.317 344.033 770.245 326.981 771.509 309.518C772.293 298.532 767.795 286.527 757.25 281.803C748.185 277.746 737.493 279.471 728.32 282.235C717.344 285.537 706.898 290.751 697.029 296.503C672.843 310.606 652.851 329.961 633.329 349.766C620.432 362.82 607.575 375.972 593.375 387.634C586.299 393.484 578.816 398.822 570.982 403.608C567.395 405.783 563.72 407.805 559.956 409.674C555.84 411.712 549.235 416.044 544.512 414.819C540.2 413.702 535.692 409.772 531.968 407.469C527.636 404.803 523.308 402.128 518.983 399.443C510.313 394.092 501.699 388.682 493.14 383.214C476.245 372.466 459.464 361.536 442.798 350.423C434.343 344.778 425.873 339.156 417.386 333.557C412.927 330.617 408.958 337.644 413.231 340.652C444.944 362.967 477.656 383.91 510.555 404.421C518.914 409.635 527.293 414.829 535.721 419.925C538.896 421.885 542.12 423.688 545.933 423.698C550.264 423.698 554.341 421.689 558.232 419.993C573.765 413.221 587.798 403.48 600.783 392.681C642.639 357.842 676.047 307.019 730.643 290.545C738.356 288.213 748.822 285.831 756.025 290.868C768.246 299.414 762.023 318.544 757.662 329.647C751.253 345.984 741.002 360.566 730.516 374.531C720.353 388.124 709.73 401.393 698.391 414.035C676.018 438.995 650.665 461.624 621.089 477.735C559.956 510.638 486.867 512.706 423.972 483.311C394.484 469.591 368.631 450.04 345.336 427.51C339.662 422.022 334.331 416.171 329.157 410.213C326.393 407.018 321.885 411.634 324.551 414.809L324.511 414.74Z" fill="#382C80"/>
<path d="M97.22 228.334L99.9738 190.32C100.173 186.211 100.684 182.122 101.503 178.09C105.785 159.548 124.699 153.59 139.723 144.642C156.468 134.627 173.265 124.699 190.114 114.86C224.532 94.7899 259.158 75.069 293.994 55.6977C297.405 53.7965 300.933 51.8659 304.774 51.4543C310.243 50.8663 315.554 53.3555 320.376 55.9329C336.585 64.5569 350.187 77.2283 366.093 85.9209C380.575 93.6867 394.511 102.432 407.802 112.097C428.212 127.123 447.919 143.029 466.925 159.813C482.184 173.327 503.254 185.724 502.283 208.048C500.735 243.681 497.736 282.832 472.687 308.224C460.3 320.778 443.846 328.383 427.451 334.88C376.726 354.95 322.11 366.848 267.711 363.584C249.228 362.477 230.412 359.488 214.212 350.521C198.287 341.701 185.939 327.736 174.385 313.663C158.627 294.481 143.731 274.639 129.697 254.138" fill="#382C80"/>
<path d="M100.797 228.335L102.924 199.787C103.541 191.487 103.188 182.147 106.54 174.395C111.734 162.341 125.16 156.755 135.94 150.964C151.541 142.565 166.575 132.971 181.872 124.014C198.271 114.41 214.715 104.887 231.206 95.4467C247.696 86.006 264.199 76.6666 280.715 67.4284C284.635 65.2267 288.555 63.0315 292.475 60.8428C296.454 58.628 300.639 55.7371 305.264 55.2568C313.398 54.4238 322.306 61.1368 328.784 65.3704C335.958 70.0548 342.769 75.2488 349.805 80.1292C356.665 84.9018 363.868 88.9492 371.14 93.0751C386.314 101.763 400.901 111.437 414.809 122.034C429.587 133.206 443.924 144.914 457.821 157.157C468.189 166.301 479.998 174.572 489.112 185.019C493.287 189.801 496.639 195.407 497.756 201.679C498.981 208.539 497.756 216.134 497.315 223.023C496.335 237.929 494.63 252.874 490.514 267.28C486.496 281.294 479.949 294.671 469.61 305.118C458.066 316.789 442.856 323.973 427.803 329.97C394.483 343.259 359.488 353.108 323.816 357.234C306.084 359.324 288.208 359.927 270.376 359.037C253.403 358.155 235.851 355.921 220.396 348.385C205.422 341.093 193.691 329.157 183.019 316.623C171.259 302.795 160.116 288.369 149.395 273.709C144.084 266.45 138.873 259.116 133.764 251.708C130.305 246.69 122.004 251.423 125.522 256.519C136.427 272.493 147.86 288.069 159.822 303.246C170.916 317.328 182.137 331.921 195.916 343.514C224.414 367.495 262.713 369.974 298.463 368.455C336.448 366.838 374.001 358.655 409.82 346.121C441.465 335.047 474.628 321.895 490.69 290.31C497.824 276.266 501.47 260.831 503.518 245.308C504.547 237.664 505.223 229.971 505.694 222.268C506.145 214.987 507.115 207.353 505.841 200.12C503.381 186.126 492.562 175.885 482.125 167.212C468.963 156.275 456.018 145.084 442.709 134.313C427.784 122.23 412.604 110.245 396.551 99.6704C381.577 89.8018 365.417 81.9618 350.785 71.5935C343.327 66.3211 336.017 60.8134 328.245 56.0604C321.307 51.8464 313.212 46.9562 304.774 47.652C296.336 48.3478 288.3 54.512 281.117 58.53C272.147 63.5803 263.19 68.6371 254.245 73.7004C218.867 93.7447 183.702 114.145 148.748 134.901C141.751 139.057 134.793 143.212 127.6 147.034C121.642 150.199 115.693 153.453 110.45 157.755C105.548 161.67 101.735 166.779 99.376 172.592C96.1714 180.775 96.3282 190.232 95.701 198.837L93.5646 228.335C93.2216 232.98 100.425 232.96 100.797 228.335Z" fill="#382C80"/>
<path d="M156.432 236.546C154.408 217.273 154.879 197.82 157.833 178.668L156.02 180.089C246.35 181.219 336.654 183.287 426.931 186.292C432.409 186.478 438.378 186.086 443.728 187.39C450.441 189.016 451.951 194.544 452.196 200.767C452.676 213.232 452.666 225.747 452.901 238.222C452.95 240.966 457.213 240.976 457.164 238.222C456.929 226.217 456.802 214.202 456.468 202.197C456.272 195.073 455.224 187.723 448.05 184.401C444.512 182.764 440.504 182.568 436.672 182.441C430.185 182.176 423.687 182 417.19 181.784C405.495 181.392 393.804 181.023 382.116 180.677C334.05 179.239 285.975 178.116 237.889 177.305C210.599 176.848 183.31 176.502 156.02 176.267C155.153 176.277 154.396 176.854 154.158 177.688C151.06 197.173 150.671 216.993 153.002 236.586C153.266 238.751 156.696 238.83 156.471 236.586L156.432 236.546Z" fill="white"/>
<path d="M270.68 294.2C311.84 309.586 352.265 280.862 387.976 262.291C421.28 244.997 453.664 225.986 484.996 205.333C500.951 194.798 508.722 193.985 511.838 214.771C513.583 226.394 512.564 238.163 512.662 249.855C512.838 272.14 511.544 294.729 510.457 316.985C508.947 347.806 512.74 390.514 500.088 419.64C498.995 422.554 497.329 425.22 495.188 427.48C492.861 429.479 490.169 431.01 487.26 431.988C455.283 444.365 409.997 437.456 375.991 437.799C333.831 438.23 291.691 437.577 249.571 435.839C209.505 434.131 169.553 430.366 129.874 424.559C119.672 423.08 108.823 421.149 101.375 414.22C90.948 404.518 90.7324 388.682 91.2714 374.668C92.7545 336.252 94.4793 297.849 96.4458 259.459C97.269 243.387 96.2792 227.119 96.9554 211.057C97.2788 203.217 88.1354 165.908 108.539 177.874C147.739 200.816 179.462 233.793 215.418 261.086C229.236 271.66 249.708 286.36 270.68 294.2Z" fill="#7F72FF"/>
<path d="M269.847 297.218C312.144 312.702 352.431 284.959 388.427 266.133C410.232 254.735 431.762 242.897 452.832 230.177C463.286 223.878 473.608 217.404 483.8 210.753C487.828 208.127 496.991 200.169 502.42 202.207C504.488 202.982 505.36 205.628 506.056 207.509C507.85 212.742 508.34 218.466 508.594 223.944C509.133 235.704 508.594 247.621 508.447 259.39C508.173 283.302 506.066 307.136 505.723 331.038C505.429 351.285 506.017 371.757 502.94 391.798C501.489 401.314 499.422 411.545 494.855 420.12C490.2 428.862 477.215 430.783 468.238 432.38C447.364 436.114 425.794 434.722 404.744 433.732C381.831 432.664 358.948 433.017 336.026 432.87C285.537 432.556 234.959 431.194 184.695 426.245C172.02 424.991 159.371 423.54 146.749 421.894C135.655 420.453 123.386 419.836 112.89 415.622C91.9475 407.214 95.8381 381.126 96.5437 362.947C98.5037 312.212 102.09 261.468 101.708 210.684C101.64 201.59 97.9059 191.457 100.503 182.5C100.993 180.804 101.316 180.295 101.787 180.314C103.619 180.314 106.961 182.627 108.931 183.823C118.704 189.77 128.148 196.241 137.223 203.207C171.935 229.569 202.717 261.203 240.182 283.861C249.487 289.568 259.307 294.388 269.514 298.257C274.708 300.217 276.834 291.995 271.787 290.015C250.345 281.607 231.215 267.691 213.213 253.559C194.299 238.712 176.492 222.523 157.882 207.323C148.709 199.826 139.36 192.545 129.648 185.763C124.954 182.49 120.171 179.334 115.301 176.345C111.832 174.219 108.225 171.759 104.168 170.955C90.7715 168.339 89.7915 184.597 90.3893 193.75C90.7225 198.954 91.6829 204.118 91.9377 209.322C92.4865 220.769 91.8201 232.519 91.8005 243.995C91.7515 271.258 89.4681 298.61 88.2529 325.844C87.6453 339.518 87.0671 353.189 86.5183 366.857C86.1361 377.5 85.3619 388.28 87.6257 398.795C89.6641 408.213 94.7405 416.573 102.992 421.747C112.243 427.549 123.572 428.734 134.117 430.224C187.272 437.711 240.584 441.122 294.229 442.298C321.473 442.899 348.714 443.033 375.951 442.699C397.511 442.464 418.954 444.454 440.475 444.003C451.368 443.911 462.23 442.842 472.932 440.808C482.134 438.936 494.071 436.359 500.147 428.587C506.223 420.816 508.712 409.585 510.515 400.167C512.421 389.596 513.538 378.898 513.857 368.161C514.768 345.993 514.386 323.825 515.415 301.658C516.023 288.536 516.581 275.413 516.728 262.272C516.875 249.13 517.454 236.027 516.728 223.072C515.993 210.606 512.681 188.899 495.09 195.377C485.623 198.866 477.293 205.775 468.885 211.174C457.804 218.23 446.616 225.094 435.32 231.764C413.603 244.592 391.22 256.156 369.16 268.367C349.158 279.441 328.245 291.329 305.254 294.523C293.911 296.14 282.346 294.976 271.552 291.133C267.681 289.761 266.064 295.837 269.847 297.218Z" fill="#7F72FF"/>
<path d="M750.096 571.216C753.222 600.166 779.29 604.007 771.146 631.976C761.63 664.591 758.916 698.881 756.329 732.858C751.507 796.215 750.537 860.591 744.235 923.585C743.892 926.956 743.412 930.592 741.217 933.072C739.355 935.169 736.601 936.012 733.985 936.717C707.642 943.675 680.085 943.136 653.301 939.265C646.676 938.285 639.483 936.796 635.299 931.268C633.614 929.278 632.897 926.645 633.339 924.075C633.917 922.313 634.893 920.706 636.19 919.381C643.403 910.845 655.732 901.859 660.553 891.716C666.923 878.339 664.846 858.121 664.199 843.764C661.361 780.223 662.726 716.564 668.285 653.203C673.313 595.903 672.294 567.59 709.034 525.117" fill="white"/>
<path d="M747.283 571.217C748.548 581.713 752.742 590.513 758.867 599.01C764.159 606.36 769.882 613.524 769.431 623.079C769.108 630.037 766.217 636.877 764.531 643.59C762.571 651.43 761.033 659.27 759.729 667.179C757.103 683.094 755.447 699.156 754.075 715.199C748.371 782.035 747.391 849.194 741.08 915.981C740.727 919.774 740.766 923.919 739.649 927.594C738.316 932.014 734.22 932.651 730.212 933.631C722.162 935.584 713.969 936.895 705.712 937.551C689.158 938.751 672.523 938.133 656.104 935.708C650.165 934.885 640.944 934.082 637.817 927.976C635.122 922.694 646.432 914.472 649.842 911.159C659.172 902.075 666.1 892.99 668.05 879.799C670.001 866.609 668.629 853.134 668.05 839.845C667.351 822.669 666.959 805.489 666.874 788.307C666.698 753.909 667.753 719.54 670.04 685.201C671.863 657.761 673.342 629.86 677.272 602.626C680.359 581.154 687.317 561.378 699.714 543.483C703.468 538.073 707.554 532.919 711.778 527.891C715.041 523.971 709.553 518.375 706.153 522.256C690.316 540.288 677.958 560.662 672.245 584.124C666.247 608.78 665.385 634.77 663.337 659.956C660.403 695.85 658.812 731.819 658.564 767.864C658.446 786.033 658.665 804.192 659.221 822.342C659.701 837.797 661.318 853.388 660.857 868.843C660.661 875.811 660.005 883.239 657.006 889.639C654.007 896.038 648.597 901.124 643.59 906.005C639.18 910.307 633.692 914.678 630.644 920.126C627.361 926.006 630.124 932.563 634.917 936.62C640.013 940.932 646.677 942.255 653.066 943.166C661.337 944.332 669.658 945.214 678.007 945.646C694.994 946.697 712.044 945.465 728.703 941.98C734.583 940.677 741.942 939.54 745.363 933.895C749.047 927.888 748.528 918.999 749.126 912.237C750.713 894.499 751.919 876.732 752.938 858.955C754.986 823.596 756.368 788.209 758.583 752.86C760.788 717.874 762.797 682.418 770.451 648.118C773.077 636.358 778.585 624.098 774.194 612.063C770.931 603.126 763.796 596.501 758.936 588.494C755.711 583.243 753.649 577.362 752.889 571.246C752.448 567.709 746.833 567.65 747.264 571.246L747.283 571.217Z" fill="#382C80"/>
<path d="M653.301 939.246C646.676 938.266 639.483 936.776 635.299 931.249C633.614 929.259 632.897 926.625 633.339 924.056C633.917 922.293 634.893 920.687 636.19 919.361C643.403 910.826 655.732 901.839 660.553 891.696C666.923 878.319 664.846 858.102 664.199 843.745C663.689 832.259 663.317 820.767 663.082 809.268C676.615 808.621 689.875 812.375 703.644 811.532C720.304 810.552 737.532 809.307 752.203 800.752C750.115 841.843 748.283 882.994 744.206 923.585C743.863 926.956 743.383 930.592 741.188 933.072C739.326 935.169 736.572 936.012 733.955 936.717C707.642 943.656 680.075 943.117 653.301 939.246Z" fill="#7F72FF"/>
<path d="M736.053 570.256C737.552 580.056 742.521 588.318 748.999 595.736C754.751 602.293 762.405 608.476 765.227 616.983C766.815 621.804 766.305 626.597 765.07 631.428C763.012 639.513 761.249 647.647 759.857 655.869C757.301 671.777 755.551 687.804 754.614 703.889C750.086 771.97 751.321 840.266 747.333 908.366C747.097 912.521 746.836 916.673 746.549 920.822C746.274 924.742 746.549 929.74 742.844 932.043C739.904 933.895 735.494 934.503 732.143 935.316C727.958 936.296 723.724 937.168 719.471 937.835C703.105 940.422 686.357 940.442 669.864 939.099C662.935 938.531 654.801 938.54 648.509 935.179C644.482 933.043 642.041 929.554 644.923 925.477C646.992 922.815 649.259 920.312 651.704 917.99C660.681 908.709 669.628 899.83 672.137 886.63C674.646 873.429 673.019 860.062 672.02 846.861C670.726 829.839 669.815 812.777 669.168 795.705C667.861 761.347 667.789 726.965 668.952 692.56C669.932 664.444 669.638 635.103 680.35 608.604C688.729 587.857 703.438 570.521 717.59 553.489C721.98 548.197 726.41 542.895 730.653 537.515C733.799 533.595 728.33 527.92 725.028 531.88C709.093 550.96 691.541 569.649 679.34 591.444C666.13 615.042 662.68 640.679 661.426 667.306C659.649 703.598 659.25 739.927 660.23 776.292C660.72 794.761 661.566 813.224 662.768 831.681C663.748 846.587 666.002 861.748 665.209 876.702C664.836 883.896 663.484 891.001 659.476 897.106C655.467 903.211 649.989 908.18 644.991 913.413C641.071 917.549 635.191 922.733 635.279 928.946C635.368 935.453 640.905 940.51 646.442 942.941C652.851 945.743 660.23 946.096 667.11 946.714C675.701 947.501 684.326 947.847 692.952 947.752C709.612 947.517 727.556 945.89 743.314 940.187C749.537 937.943 752.83 933.65 753.702 927.114C754.829 918.715 754.937 910.071 755.368 901.634C756.349 883.327 756.897 865.001 757.328 846.675C758.211 810.601 758.593 774.518 760.063 738.464C761.503 703.184 763.101 667.649 771.49 633.192C773.92 623.225 772.587 614.131 766.403 605.83C760.68 598.079 752.84 592.12 747.421 584.133C744.323 579.516 742.291 574.267 741.472 568.767C740.913 565.19 735.514 566.719 736.053 570.256Z" fill="#382C80"/>
<path d="M808.749 501.646C812.836 521.727 816.736 542.64 811.689 562.504C805.711 586.152 788.081 604.801 781.711 628.233C777.624 643.256 776.164 658.946 775.615 674.46C775.194 686.455 778.781 703.125 773.753 714.385C764.081 736.062 715.933 736.249 696.774 735.631C685.014 735.259 652.831 736.954 647.333 721.568C644.55 713.787 651.4 707.848 654.291 701.547C657.78 693.932 657.408 685.044 657.3 676.831C656.8 641.12 661.533 604.86 672.313 570.746C675.899 559.227 680.362 548 685.661 537.162C688.726 530.936 692.132 524.883 695.863 519.032" fill="#7F72FF"/>
<path d="M804.692 502.763C809.18 524.921 813.188 547.843 805.044 569.668C798.331 587.661 786.081 602.988 779.564 621.108C772.704 640.199 770.529 662.856 771.587 683.044C772.067 692.207 773.694 702.487 770.46 711.327C768.402 716.962 763.659 720.568 758.465 723.185C746.411 729.251 731.878 730.613 718.599 731.28C707.632 731.829 696.607 731.525 685.631 731.28C678.824 731.279 672.035 730.566 665.375 729.153C660.328 727.948 653.468 725.86 651.4 720.47C649.793 716.296 652.713 712.356 654.859 708.995C657.455 705.156 659.334 700.88 660.406 696.372C662.562 686.406 661.386 675.871 661.533 665.767C662.356 616.13 672.607 563.621 699.479 521.187C702.419 516.601 695.108 512.367 692.207 516.944C666.835 557.006 656.006 605.899 653.566 652.792C652.958 664.444 653.674 676.125 653.046 687.758C652.932 693.119 651.44 698.36 648.715 702.977C646.373 706.79 643.668 710.474 642.835 714.953C639.679 731.054 658.76 737.023 670.873 738.63C682.985 740.237 695.735 740.1 708.034 740.021C722.636 739.923 737.728 738.953 751.791 734.769C765.051 730.849 777.271 723.342 779.858 708.779C781.662 698.793 780.094 688.699 779.858 678.644C779.7 666.716 780.684 654.8 782.798 643.06C784.874 630.789 788.922 618.935 794.784 607.957C800.213 597.755 806.407 587.945 810.993 577.312C821.773 552.293 818.069 526.45 812.826 500.558C811.748 495.247 803.623 497.491 804.701 502.793L804.692 502.763Z" fill="#7F72FF"/>
<path d="M696.911 706.3C683.335 707.743 669.637 705.077 657.594 698.646C652.811 696.059 648.538 703.418 653.34 705.917C666.942 713.171 682.633 715.497 697.754 712.503C701.194 711.817 700.478 705.957 696.911 706.3Z" fill="#382C80"/>
<path d="M636.22 919.361C643.433 910.825 655.761 901.839 660.583 891.696C665.11 882.18 665.365 869.156 664.904 857.347C669.151 857.039 673.417 857.138 677.644 857.641C681.27 858.023 685.19 858.572 687.738 861.325C693.687 867.774 687.248 879.7 691.472 887.56C694.412 893.097 701.409 894.263 707.417 894.067C719.892 893.666 732.319 889.951 744.735 891.186C745.517 891.227 746.287 891.389 747.019 891.666C746.215 902.329 745.313 912.962 744.255 923.565C743.912 926.937 743.432 930.572 741.237 933.052C739.375 935.149 736.621 935.992 734.004 936.697C707.662 943.655 680.104 943.116 653.321 939.245C646.696 938.265 639.503 936.776 635.318 931.248C633.634 929.258 632.916 926.625 633.358 924.055C633.939 922.292 634.918 920.686 636.22 919.361Z" fill="#382C80"/>
<path d="M639.16 922.38C647.069 913.236 657.78 905.926 663.572 895.067C669.618 883.709 669.53 869.901 669.079 857.386L664.865 861.59C669.942 861.267 675.645 861.13 680.545 862.345C685.308 863.521 686.21 866.745 686.092 871.253C685.877 878.848 684.269 887.217 690.355 893.127C696.235 898.87 705.31 898.674 712.895 897.939C718.207 897.429 723.469 896.537 728.771 895.91C734.073 895.283 740.531 894.254 745.764 895.763L742.677 891.706C742.207 897.965 741.697 904.227 741.149 910.492C740.848 913.929 740.521 917.362 740.169 920.792C739.914 923.458 739.963 926.672 738.659 929.054C736.229 933.581 727.311 934.061 722.803 934.934C716.225 936.196 709.574 937.043 702.889 937.472C690.592 938.227 678.253 937.952 666.002 936.649C661.004 936.1 629.928 933.581 639.16 922.38C642.58 918.234 636.651 912.247 633.202 916.431C622.912 928.907 635.162 940 647.843 942.617C663.905 945.939 681.094 946.792 697.45 946.174C705.838 945.869 714.194 944.985 722.46 943.528C728.997 942.372 737.993 941.568 743.197 936.982C748.401 932.395 748.381 924.457 748.998 917.95C749.831 909.199 750.547 900.428 751.213 891.667C751.203 889.775 749.945 888.118 748.126 887.6C738.267 884.748 726.674 887.845 716.766 889.06C708.74 890.04 694.54 892.372 694.148 880.72C693.903 873.331 696.47 865.04 691.1 858.827C685.279 852.084 672.931 852.614 664.924 853.133C662.614 853.17 660.751 855.037 660.72 857.347C661.122 868.705 661.7 881.847 655.673 891.98C650.048 901.506 640.424 908.111 633.26 916.392C629.713 920.469 635.642 926.447 639.16 922.38Z" fill="#382C80"/>
<path d="M741.952 827.918C720.917 833.108 699.057 834.044 677.655 830.672C674.999 830.25 673.784 834.239 676.518 834.788C698.575 839.1 721.366 837.728 742.746 830.799C743.478 830.53 743.883 829.745 743.675 828.993C743.468 828.241 742.719 827.773 741.952 827.918Z" fill="white"/>
<path d="M672.48 888.923C668.725 885.033 663.248 883.323 657.947 884.386C655.987 884.797 656.388 888.139 658.427 887.924C662.601 887.336 666.822 888.628 669.952 891.452C671.637 893 674.126 890.55 672.48 888.923Z" fill="white"/>
<path d="M663.66 900.595C661.155 897.774 657.765 895.89 654.046 895.254C651.704 894.891 650.646 898.39 653.066 898.87C656.131 899.419 658.94 900.933 661.083 903.192C662.719 904.907 665.267 902.329 663.68 900.595H663.66Z" fill="white"/>
<path d="M651.586 905.926L645.638 903.761C643.59 903.016 642.698 906.299 644.736 907.034L650.704 909.141C652.733 909.866 653.576 906.671 651.586 905.946V905.926Z" fill="white"/>
<path d="M691.668 518.62C672.901 542.542 665.836 573.01 659.74 602.233C656.279 618.446 654.09 634.905 653.194 651.459C652.419 667.041 655.497 684.838 647.725 699.067C644.325 705.29 639.944 711.445 640.365 718.883C640.738 725.233 644.099 730.643 650.165 732.789C655.35 734.592 657.584 726.37 652.429 724.577C643.952 721.637 651.841 709.014 654.252 704.781C658.195 697.741 660.515 689.91 661.043 681.858C661.818 672.382 661.151 662.817 661.514 653.311C661.894 643.605 662.78 633.926 664.17 624.313C666.796 606.104 671.03 588.151 675.802 570.413C680.32 553.557 686.043 536.534 696.216 522.187C698.117 519.502 693.668 516.013 691.619 518.639L691.668 518.62Z" fill="#382C80"/>
<path d="M804.986 572.07C811.228 600.49 837.571 601.47 832.494 630.174C826.614 663.631 827.594 698.009 828.702 732.094C830.779 795.598 836.806 859.7 837.365 923.008C837.365 926.398 837.306 930.064 835.405 932.808C833.778 935.091 831.132 936.238 828.604 937.218C803.183 947.018 775.684 949.438 748.675 948.497C741.991 948.262 734.671 947.517 729.918 942.5C728.193 940.667 726.88 938.129 727.223 935.561C727.599 933.744 728.394 932.039 729.545 930.583C735.788 921.312 747.068 911.042 750.762 900.438C755.662 886.444 751.38 866.569 749.185 852.418C739.478 789.561 733.933 726.131 732.583 662.543C731.368 605.037 727.291 576.999 759.2 530.792" fill="white"/>
<path d="M802.271 572.823C804.623 582.888 809.847 591.1 816.667 598.715C822.616 605.34 829.162 611.778 829.809 621.177C830.309 628.34 828.143 635.71 827.212 642.737C826.167 650.681 825.422 658.662 824.978 666.678C824.076 683.083 824.213 699.518 824.615 715.923C826.262 783.063 832.592 850.016 833.435 917.176C833.435 920.527 834.033 924.477 833.249 927.77C832.181 932.209 828.016 933.258 824.145 934.63C816.764 937.239 809.205 939.312 801.526 940.833C785.883 943.786 769.968 945.045 754.055 944.586C747.685 944.469 738.914 945.135 733.75 940.598C729.937 937.246 731.682 934.179 734.191 930.739C736.268 927.887 738.571 925.202 740.825 922.487C749.332 912.246 756.005 902.554 756.897 888.913C757.789 875.271 754.682 861.688 752.664 848.321C750.168 831.583 747.94 814.782 745.98 797.92C742.178 764.737 739.532 731.449 738.042 698.058C736.768 669.638 735.318 640.953 736.082 612.553C736.68 590.326 741.384 569.374 752.115 549.784C755.329 543.904 758.906 538.239 762.63 532.683C765.502 528.39 758.71 524.509 755.77 528.665C741.658 548.774 731.897 570.805 728.899 595.305C725.625 622.147 727.811 649.959 728.683 676.89C729.826 712.209 732.263 747.453 735.994 782.622C737.83 799.909 739.973 817.157 742.423 834.366C744.588 849.624 748.077 865.001 748.851 880.426C749.214 887.55 749.008 895.126 745.911 901.672C742.815 908.219 737.758 913.805 733.171 919.371C729.506 923.83 723.705 929.455 723.254 935.531C722.803 941.852 727.84 947.076 733.211 949.526C739.434 952.368 746.49 952.407 753.203 952.534C761.337 952.691 769.471 952.534 777.585 951.927C794.118 950.702 810.621 947.771 826.252 942.127C831.946 940.088 837.826 938.011 840.109 931.886C842.716 924.908 841.167 915.853 841.011 908.562C840.619 890.922 839.864 873.282 838.953 855.583C837.11 820.175 834.66 784.807 833.073 749.39C831.524 714.737 829.809 679.643 833.729 645.089C835.111 632.927 838.982 620.687 832.994 609.162C828.643 600.802 820.754 595.089 815.207 587.602C811.617 582.749 809.068 577.208 807.72 571.324C806.887 567.806 801.477 569.295 802.291 572.823H802.271Z" fill="#382C80"/>
<path d="M748.665 948.429C741.982 948.193 734.661 947.449 729.908 942.431C728.183 940.598 726.87 938.06 727.213 935.493C727.589 933.675 728.384 931.97 729.536 930.514C735.778 921.243 747.058 910.973 750.753 900.369C755.653 886.375 751.37 866.501 749.175 852.349C747.424 840.995 745.79 829.613 744.275 818.206C757.662 816.089 771.254 818.383 784.847 816.05C801.262 813.238 818.294 810.17 831.946 800.057C834.327 841.128 836.953 882.239 837.316 923.027C837.316 926.418 837.257 930.083 835.356 932.827C833.729 935.11 831.083 936.257 828.555 937.237C803.173 946.88 775.703 949.369 748.665 948.429Z" fill="#7F72FF"/>
<path d="M795.225 571.589C797.499 581.262 802.996 589.131 810.043 595.981C816.177 601.949 824.008 607.33 827.741 615.277C829.839 619.707 830.025 624.509 829.28 629.282C828.035 637.367 826.742 645.393 825.958 653.537C824.521 670.198 823.994 686.925 824.38 703.644C825.291 771.715 831.897 839.56 833.308 907.611C833.393 911.78 833.458 915.941 833.504 920.097C833.504 923.458 834.278 928.348 831.789 931.063C829.505 933.552 824.723 934.512 821.616 935.551C817.618 936.891 813.574 938.07 809.484 939.089C793.71 942.856 777.544 944.731 761.327 944.675C754.271 944.675 746.519 945.234 739.639 943.411C736.258 942.509 731.3 940.265 731.456 936.169C731.584 932.827 735.298 929.309 737.336 926.819C745.666 916.578 754.643 907.004 756.495 893.421C758.318 880.015 755.574 866.461 753.477 853.241C750.802 836.444 748.577 819.568 746.617 802.683C742.625 768.873 739.835 734.955 738.248 700.929C736.925 672.558 734.161 642.894 742.628 615.326C749.39 593.335 763.032 574.441 776.135 555.831C780.055 550.254 783.975 544.668 787.787 539.024C790.727 534.741 783.867 530.87 780.927 535.006C766.295 555.674 749.861 576.058 739.649 599.421C728.369 625.215 727.889 652.037 728.869 679.781C730.104 715.714 732.678 751.589 736.592 787.405C738.486 804.692 740.688 821.937 743.197 839.139C745.402 854.299 749.126 869.734 749.077 885.12C749.077 892.47 747.734 899.281 743.814 905.583C739.796 912.051 734.514 917.607 729.849 923.595C726.096 928.407 721.803 933.63 723.969 940.069C726.066 946.184 732.309 949.869 738.307 951.231C745.461 952.897 753.193 952.613 760.484 952.564C768.921 952.543 777.351 952.075 785.739 951.163C801.419 949.418 818.079 946.459 832.534 939.716C838.639 936.855 841.05 931.749 841.285 925.202C841.589 916.5 841.079 907.68 840.824 898.978C840.295 880.975 839.433 862.982 838.443 844.999C836.483 809.288 834.023 773.606 832.651 737.866C831.279 702.125 830.319 666.492 835.797 631.046C837.306 621.246 835.14 612.68 828.731 605.115C822.528 597.804 814.247 592.59 808.151 585.162C804.549 580.773 802.01 575.612 800.733 570.08C799.89 566.562 794.48 568.051 795.303 571.579L795.225 571.589Z" fill="#382C80"/>
<path d="M835.454 472.972C857.092 494.855 869.646 525.647 865.295 556.732C861.924 580.879 846.42 601.332 842.628 625.332C840.197 640.718 840.442 656.457 841.579 671.951C842.461 683.917 847.831 700.096 844.058 711.837C836.797 734.436 789.002 739.835 769.843 741.305C758.083 742.217 726.302 747.382 719.157 732.681C715.551 725.253 721.725 718.628 723.91 712.033C726.547 704.075 725.224 695.285 724.214 687.131C719.863 651.694 720.588 615.101 727.605 580.046C729.929 568.21 733.15 556.566 737.238 545.217C739.612 538.696 742.34 532.31 745.412 526.088" fill="#7F72FF"/>
<path d="M832.475 475.951C846.959 490.807 857.259 509.467 860.767 530.027C862.573 540.395 862.383 551.012 860.209 561.309C857.886 571.981 853.447 581.996 849.184 592.002C845.176 601.4 841.187 610.897 839.149 620.951C836.885 632.143 836.375 643.756 836.571 655.144C836.727 665.523 837.67 675.875 839.394 686.112C840.815 694.481 843.157 704.947 839.06 712.924C833.112 724.498 816.736 728.947 805.162 731.78C792.697 734.837 780.055 736.121 767.305 737.317C755.065 738.463 738.816 741.638 727.497 735.357C718.246 730.172 724.724 721.715 727.497 714.502C731.3 704.536 729.163 693.736 728.007 683.495C722.195 631.898 725.9 575.489 749.057 528.243C751.439 523.392 744.157 519.12 741.795 523.99C719.834 568.776 714.571 621.363 718.364 670.588C718.834 676.674 719.481 682.74 720.226 688.797C720.97 694.853 721.95 701.537 720.716 707.721C718.756 717.442 710.181 725.361 715.953 735.631C723.166 748.42 742.805 747.675 755.28 746.852C768.539 746.081 781.75 744.635 794.862 742.52C809.68 739.943 826.017 736.18 838.1 726.615C853.349 714.62 849.497 696.294 846.744 679.34C842.892 655.643 843.696 629.272 852.212 606.702C856.759 594.629 862.708 583.084 866.451 570.707C870.005 558.97 871.149 546.636 869.813 534.447C867.108 509.947 855.505 487.564 838.453 470.041C834.67 466.121 828.712 472.109 832.504 476L832.475 475.951Z" fill="#7F72FF"/>
<path d="M766.266 712.219C752.86 715.041 738.916 713.767 726.243 708.563C721.264 706.525 718.971 714.727 724.008 716.678C738.033 722.239 753.542 722.816 767.942 718.314C771.862 717.079 770.235 711.395 766.266 712.219Z" fill="#382C80"/>
<path d="M729.536 930.514C735.778 921.243 747.058 910.973 750.753 900.369C754.222 890.422 753.065 877.496 751.321 865.746C755.505 864.991 759.75 864.626 764.002 864.658C767.638 864.658 771.607 864.766 774.429 867.236C781.044 872.998 775.939 885.562 780.986 892.912C784.543 898.086 791.599 898.498 797.548 897.655C809.905 895.891 821.852 890.863 834.327 890.736C835.109 890.696 835.892 890.775 836.65 890.971C837.015 901.653 837.254 912.322 837.365 922.978C837.365 926.369 837.306 930.034 835.405 932.778C833.778 935.061 831.132 936.208 828.604 937.188C803.183 946.988 775.684 949.409 748.675 948.468C741.991 948.233 734.671 947.488 729.918 942.47C728.193 940.638 726.88 938.099 727.223 935.532C727.59 933.701 728.382 931.982 729.536 930.514Z" fill="#382C80"/>
<path d="M733.162 932.64C740.071 922.664 749.822 914.305 754.31 902.809C759.014 890.794 757.191 877.045 755.388 864.589L752.448 869.773C757.348 868.911 763.453 868.078 768.402 869.038C773.185 870.018 773.792 873.938 774.028 878.143C774.449 885.463 774.224 893.47 780.584 898.448C786.944 903.427 795.637 902.368 803.065 900.918C808.337 899.879 813.522 898.419 818.745 897.184C823.968 895.949 830.27 894.068 835.523 894.989L832.445 891.02C832.661 897.605 832.837 904.198 832.975 910.796C833.043 914.246 833.102 917.656 833.131 921.145C833.131 923.654 833.543 926.77 832.563 929.142C830.554 934.042 820.803 935.58 816.334 936.923C810.281 938.702 804.134 940.142 797.92 941.235C785.528 943.381 772.972 944.44 760.396 944.4C754.516 944.4 724.802 945.38 733.162 932.64C736.151 928.103 728.859 923.879 725.9 928.387C722.137 934.11 722.068 940.235 726.88 945.41C731.388 950.202 737.954 951.79 744.265 952.387C760.298 953.897 777.075 952.779 792.991 950.506C801.328 949.342 809.571 947.584 817.657 945.243C824.008 943.391 832.583 941.637 837.424 936.766C842.451 931.719 841.55 923.811 841.461 917.333C841.334 908.513 841.099 899.752 840.815 890.971C840.756 889.266 839.56 887.227 837.718 886.904C827.634 885.14 816.589 889.138 806.897 891.471C799.135 893.342 784.749 897.625 782.867 886.11C781.691 878.878 783.602 870.43 777.781 864.668C771.058 858.082 758.436 860.238 750.155 861.728C747.724 862.159 746.911 864.844 747.215 866.912C748.861 878.26 750.684 891.569 745.353 902.192C740.453 911.992 732.005 919.479 725.851 928.377C722.803 932.856 730.104 937.08 733.162 932.64Z" fill="#382C80"/>
<path d="M824.88 828.093C804.369 835.568 782.573 838.876 760.768 837.825C757.985 837.697 758.064 841.853 760.768 842.098C783.128 843.939 805.589 840.06 826.036 830.828C827.565 830.122 826.477 827.525 824.88 828.093Z" fill="white"/>
<path d="M762.375 896.458C758.093 893.097 752.762 891.607 747.479 893.332C746.548 893.624 746.018 894.604 746.283 895.543C746.549 896.482 747.513 897.04 748.459 896.801C752.55 895.85 756.853 896.75 760.219 899.261C761.836 900.447 763.973 897.712 762.385 896.458H762.375Z" fill="white"/>
<path d="M754.957 909.012C752.043 906.357 748.3 904.792 744.363 904.582C741.923 904.475 741.992 908.12 744.363 908.336C747.304 908.568 750.1 909.713 752.36 911.609C754.144 913.108 756.741 910.629 754.957 909.012Z" fill="white"/>
<path d="M743.53 915.52L737.376 914.001C735.259 913.481 734.357 916.764 736.474 917.274L742.648 918.724C744.726 919.214 745.588 916.039 743.53 915.52Z" fill="white"/>
<path d="M716.266 309.595C697.901 343.454 700.479 368.16 696.862 405.635C695.383 421.041 693.922 436.496 690.826 451.646C688.287 464.19 681.643 477.93 682.986 491.023C683.632 497.452 688.758 502.322 693.981 505.654C709.171 515.346 727.497 517.522 745.176 517.845C776.811 518.404 809.219 513.455 836.983 497.481C842.775 494.149 848.743 489.817 850.703 483.144C852.957 475.509 849.321 467.464 846.704 459.986C839.972 440.739 838.453 417.846 838.717 397.492C839.119 366.132 833.043 323.825 805.966 303.578C804.261 302.304 802.408 301.05 801.448 299.149C799.312 294.905 802.497 289.77 801.546 285.115C800.772 281.293 797.175 278.471 793.353 277.677C789.531 276.883 785.513 277.775 781.887 279.186" fill="white"/>
<path d="M713.473 307.92C703.595 325.746 698.273 344.611 695.97 364.76C693.413 387.182 692.658 409.752 689.591 432.135C687.936 443.825 685.397 455.374 681.996 466.68C679.271 475.941 675.802 487.701 679.8 497.06C683.72 506.282 693.667 511.76 702.487 515.386C712.287 519.473 722.891 521.344 733.485 522.246C755.931 524.156 778.538 522.482 800.458 517.287C811.343 514.663 821.91 510.864 831.975 505.958C840.638 501.715 850.595 496.511 854.623 487.191C859.287 476.411 853.76 465.798 850.516 455.537C847.147 444.44 845.075 432.989 844.342 421.414C842.882 402.235 844.215 383.135 841.402 364.045C838.462 344.445 832.053 324.413 818.862 309.165C815.676 305.614 812.158 302.375 808.357 299.492C805.417 297.14 805.348 295.954 805.887 292.171C806.336 289.868 806.458 287.512 806.25 285.174C804.466 272.718 790.286 271.395 780.691 275.012C775.488 276.972 777.614 285.321 783.034 283.479C786.954 282.146 794.127 280.235 796.548 285.164C798.273 288.702 795.45 293.916 796.087 297.836C797.322 305.509 806.348 309.596 811.189 314.996C821.969 326.991 827.398 342.945 830.495 358.478C833.749 374.825 833.435 391.073 833.719 407.625C833.861 417.881 834.689 428.115 836.199 438.26C837.776 448.53 840.775 458.085 844.039 467.895C845.587 472.511 847.253 477.754 845.401 482.536C843.666 487.005 839.521 489.935 835.601 492.336C827.036 497.455 817.898 501.547 808.376 504.528C789.051 510.741 768.765 513.005 748.528 512.956C738.395 512.956 728.183 512.485 718.256 510.28C708.985 508.222 698.371 504.743 691.521 497.815C684.054 490.269 688.219 477.95 690.776 469.042C693.691 459.234 695.927 449.237 697.47 439.122C700.714 416.651 702.086 393.984 703.585 371.346C704.996 350.129 709.259 330.186 719.069 311.203C720.97 307.518 715.502 304.265 713.473 307.93V307.92Z" fill="#382C80"/>
<path d="M782.936 554.948C779.241 563.768 775.174 577.488 786.434 583.045C788.757 584.182 792.432 584.094 794.274 585.985C795.891 587.641 795.98 590.885 796.117 593.061C796.37 598.332 796.314 603.613 795.95 608.878C795.156 623.646 793.598 638.278 793.138 653.086C792.667 668.53 791.775 684.23 792.589 699.675C792.663 700.754 793.56 701.591 794.642 701.591C795.723 701.591 796.62 700.754 796.695 699.675C797.851 684.544 797.342 669.207 797.783 654.036C798.204 639.513 799.527 625.156 800.488 610.671C800.821 605.634 800.919 600.528 800.801 595.471C800.723 591.747 800.664 586.985 798.371 583.829C795.313 579.615 789.365 580.948 785.935 577.39C780.329 571.579 783.553 562.24 786.033 555.83C786.787 553.87 783.71 553.096 782.926 554.968L782.936 554.948Z" fill="#382C80"/>
<path d="M472.883 917.617C460.716 911.905 451.867 900.896 448.903 887.786L445.463 889.746C452.538 895.302 459.536 900.957 466.562 906.563C467.344 907.309 468.525 907.45 469.46 906.907C470.395 906.365 470.86 905.27 470.6 904.22C469.149 896.753 465.935 888.08 466.435 880.436C466.758 875.35 470.845 872.684 475.255 876.045C478.861 878.809 479.596 883.885 480.4 888.05C480.968 890.99 485.231 890.099 485.378 887.374C486.022 874.38 489.359 861.662 495.178 850.026C496.629 847.184 498.471 843.402 502.264 845.195C505.282 846.626 506.468 851.075 507.301 854.015C509.204 860.848 509.621 868.009 508.526 875.016C508.134 877.594 511.936 879.916 513.2 876.976C517.228 867.755 528.253 858.67 538.808 863.452C546.52 866.941 550.362 878.593 543.904 884.895C541.944 886.776 543.982 889.736 546.413 889.207C550.97 888.227 556.095 886.992 560.681 888.531C565.091 890.01 568.61 895.136 565.532 899.418C563.621 902.094 568.031 904.632 569.933 901.996C573.666 896.831 571.52 889.844 566.806 886.041C560.681 881.092 552.106 882.709 545.041 884.228L547.559 888.55C556.105 880.201 552.312 865.393 542.591 859.611C529.723 851.937 514.043 862.286 508.781 874.399L513.455 876.359C514.808 867.323 514.357 857.974 511.162 849.34C509.104 843.774 503.949 837.051 497.217 839.991C490.778 842.804 487.946 853.045 485.819 859.052C482.649 868.175 480.807 877.707 480.351 887.355L485.329 886.688C484.261 881.249 482.869 875.271 478.136 871.822C474.324 869.038 468.944 868.372 465.171 871.586C461.398 874.801 461.251 879.789 461.731 884.219C462.534 891.343 464.494 898.487 466.023 905.485L469.571 902.75C462.387 897.341 455.184 891.97 448.011 886.492C446.502 885.346 444.61 887.247 445.002 888.815C448.525 902.782 458.175 914.407 471.256 920.439C473.216 921.341 474.892 918.479 472.942 917.558L472.883 917.617Z" fill="#382C80"/>
<path d="M509.192 915.274C509.418 909.394 517.865 906.611 521.766 910.786C523.51 912.658 526.264 909.874 524.568 907.983C518.355 901.123 505.635 906.17 505.429 915.274C505.38 917.705 509.104 917.695 509.192 915.274Z" fill="#382C80"/>
<path d="M434.213 781.26C458.713 810.866 473.119 845.764 480.449 883.18C480.998 885.993 485.065 884.738 484.673 882.014C479.214 844.147 460.8 808.102 436.3 779.143C435.075 777.693 433.027 779.78 434.222 781.221L434.213 781.26Z" fill="#382C80"/>
<path d="M472.56 835.238C472.88 832.135 473.483 829.067 474.363 826.075C475.068 824.292 475.907 822.566 476.872 820.91C477.636 819.45 477.852 817.215 477.803 820.224C477.71 824.065 477.267 827.89 476.48 831.651C475.951 834.16 475.382 839.265 473.599 841.137L475.617 840.608L475.274 840.49C473.314 839.873 472.05 842.45 473.314 843.803L473.569 844.077C474.242 844.736 475.27 844.868 476.088 844.401C479.802 841.872 480.459 833.474 481.096 829.367C481.644 825.82 483.663 818.293 480.949 815.304C478.009 812.061 474.775 816.559 473.363 818.862C470.531 823.478 468.63 829.358 469.277 834.787C469.483 836.463 472.217 837.276 472.56 835.238Z" fill="#382C80"/>
<path d="M460.496 817.049C456.713 814.383 441.964 808.043 440.749 816.814C440.269 820.273 443.581 822.39 446.58 822.899C451.168 823.606 455.842 822.366 459.477 819.479C460.927 818.225 459.389 815.696 457.615 816.275C455.371 817.01 453.283 818.078 450.931 818.47C449.607 818.762 448.237 818.786 446.903 818.538C445.678 818.078 445.081 817.274 446.345 816.637C447.854 815.873 451.304 817.147 452.803 817.617C455.028 818.235 457.125 819.136 459.281 819.94C461.055 820.606 461.848 817.98 460.496 817.078V817.049Z" fill="#382C80"/>
<path d="M450.922 797.008C450.336 794.304 450.283 791.511 450.765 788.786C451.049 787.326 452.019 782.73 453.764 782.906C455.508 783.082 455.038 787.708 454.744 789.139C454.29 791.375 453.353 793.486 452 795.323C450.451 797.547 454.018 799.527 455.586 797.42C458.133 793.99 459.348 789.752 459.007 785.493C458.791 782.808 458.027 778.143 454.616 777.859C451.039 777.555 449.256 781.877 448.354 784.621C446.941 788.896 446.808 793.491 447.972 797.841C448.491 799.733 451.235 798.919 450.912 797.038L450.922 797.008Z" fill="#382C80"/>
<path d="M809.611 404.822C778.046 458.624 713.336 487.505 650.969 486.907C581.614 486.28 513.387 451.676 471.845 396.12C463.299 384.693 455.665 372.227 445.13 362.457C435.986 353.98 422.159 352.784 413.819 344.934C407.478 338.966 410.732 328.5 414.387 320.601C409.566 323.727 402.862 318.033 403.166 312.29C403.47 306.548 408.164 302.02 413.054 299.002C406.665 298.021 403.431 289.946 405.263 283.743C407.096 277.54 412.359 273.012 417.602 269.229C412.084 269.7 408.497 262.428 410.516 257.273C412.535 252.118 417.876 249.12 423.06 247.16C451.48 236.468 483.056 245.709 513.426 246.787C515.053 246.846 516.885 246.787 518.022 245.641C518.865 244.567 519.277 243.219 519.179 241.858C519.286 235.331 518.199 226.452 524.402 224.502C527.832 223.434 531.409 225.609 534.114 227.991C544.982 237.536 550.774 251.413 556.301 264.8C565.503 287.222 573.363 305.499 588.455 324.707C606.239 347.365 624.832 369.352 644.236 390.671C645.657 392.229 647.176 393.856 649.234 394.395C651.469 394.992 653.811 394.14 655.977 393.297C699.65 376.16 741.54 354.786 781.044 329.48" fill="white"/>
<path d="M806.74 403.137C774.478 456.204 710.886 483.624 650.205 482.703C585.711 481.723 522.677 451.078 481.645 401.422C469.522 386.722 460.3 367.553 444.552 356.342C437.574 351.363 429.097 349.374 421.708 345.17C417.788 342.916 414.73 340.436 414.75 335.595C414.75 331.244 416.533 326.834 418.307 322.934C420.081 319.033 416.347 314.682 412.182 316.809C408.84 318.494 407.39 312.889 408.037 310.782C409.085 307.293 412.476 304.813 415.377 302.942C418.454 300.982 418.229 295.65 414.299 294.739C410.036 293.759 408.566 288.908 409.644 284.998C411.055 279.912 415.867 276.178 419.924 273.169C423.364 270.651 422.423 264.849 417.651 264.79C414.603 264.79 414.044 260.576 415.024 258.352C416.455 255.078 420.444 253.148 423.55 251.854C431.527 248.542 440.328 247.14 448.913 246.739C466.631 245.906 484.193 249.042 501.833 250.6C507.781 251.119 517.748 253.628 522.001 247.964C525.833 242.858 521.854 235.949 524.431 230.569C527.518 224.13 538.73 239.722 540.503 242.466C544.747 249.12 548.02 256.45 550.96 263.82C556.958 278.344 562.847 292.946 570.687 306.597C579.047 321.16 589.866 334.037 600.47 347.032C611.975 361.085 623.797 374.867 635.936 388.378C641.198 394.258 645.873 400.863 654.654 398.599C662.69 396.532 670.638 392.337 678.262 389.084C714.679 373.511 750.125 355.087 783.122 333.224C787.669 330.205 783.534 322.924 778.81 325.834C746.784 345.562 713.865 363.604 679.399 378.754C670.824 382.508 662.014 386.937 653.037 389.623C648.382 391.014 644.511 384.399 641.728 381.293C638.173 377.333 634.645 373.348 631.144 369.337C618.377 354.715 605.964 339.786 593.904 324.551C583.444 311.159 574.706 296.508 567.894 280.941C561.103 265.721 556.134 249.012 546.393 235.312C542.101 229.285 536.142 221.592 528.459 220.053C521.972 218.74 516.699 223.189 515.249 229.255C514.648 232.247 514.408 235.301 514.533 238.35C514.533 239.095 515.023 241.672 514.533 242.182C513.759 243.024 509.241 242.182 507.928 242.103C498.589 241.515 489.308 240.329 479.988 239.33C460.055 237.193 438.828 235.802 419.905 243.671C413.152 246.484 405.783 251.688 405.352 259.714C404.969 266.946 409.977 273.777 417.474 273.865L415.21 265.486C408.282 270.562 400.824 277.07 400.197 286.272C399.668 293.886 404.029 301.687 411.741 303.471L410.82 295.18C404.038 299.561 396.718 307.077 399.138 315.966C401.226 323.6 409.487 328.167 416.68 324.521L410.555 318.396C407.488 325.168 404.391 333.096 406.351 340.652C408.311 348.208 415.573 352.412 422.257 355.352C430.293 358.949 438.142 361.663 444.483 368.033C451.343 374.893 456.87 382.87 462.486 390.73C482.674 419.003 507.82 442.719 538.053 460.026C596.53 493.483 668.952 501.499 731.711 475.255C765.031 461.31 794.284 438.015 812.522 406.498C814.688 402.774 808.994 399.462 806.76 403.127L806.74 403.137Z" fill="#382C80"/>
<path d="M750.194 197.464C751.364 201.695 751.018 206.202 749.214 210.204C746.754 215.614 741.776 224.012 735.288 224.394C725.315 225.018 715.305 224.136 705.594 221.778C702.272 221.092 699.135 219.706 696.392 217.711C693.756 215.594 691.865 212.311 692.159 208.891C692.619 203.687 698.039 202.354 702.351 201.639C703.086 201.521 705.085 201.639 705.643 201.168C706.878 200.188 706.173 200.6 705.467 199.071C703.919 195.72 702.664 192.887 702.576 189.075C702.447 186.396 702.983 183.726 704.134 181.304C705.859 177.923 711.729 172.053 724.538 169.857" fill="#382C80"/>
<path d="M746.519 198.483C747.871 204.657 745.402 210.243 741.766 215.143C737.63 220.729 733.044 220.445 726.517 220.19C719.854 219.995 713.233 219.052 706.78 217.378C703.536 216.505 699.136 215.329 697.411 212.105C695.892 209.263 696.853 207.813 699.626 206.813C702.978 205.608 707.397 206.617 709.71 203.315C712.474 199.395 707.868 194.975 707.094 190.986C704.928 179.677 716.747 175.522 725.576 173.65C730.584 172.582 728.389 165.251 723.489 166.065C715.492 167.388 706.829 170.524 701.762 177.247C696.598 184.107 697.294 195.749 702.448 202.55L701.998 199.14C702.429 196.2 705.428 197.239 702.341 197.18C701.188 197.239 700.047 197.433 698.94 197.758C697.057 198.142 695.24 198.803 693.55 199.718C689.708 201.822 687.419 205.948 687.67 210.322C688.258 223.12 703.517 226.394 713.571 227.805C723.371 229.177 737.091 231.372 744.873 223.885C752.125 216.917 756.26 206.333 753.889 196.445C752.742 191.653 745.48 193.691 746.539 198.473L746.519 198.483Z" fill="#382C80"/>
<path d="M735.906 199.65C725.341 209.734 722.852 229.315 721.774 243.113C721.48 246.847 721.372 250.679 722.499 254.256C725.263 262.987 733.573 266.231 741.796 267.476C745.716 268.074 746.823 270.68 746.588 274.453L745.735 288.32C745.324 294.906 745.333 302.53 750.361 306.793C753.477 309.439 757.877 310.076 761.954 309.733C764.684 309.505 767.345 308.757 769.794 307.528C778.428 303.03 783.406 291.427 784.249 282.195C785.337 268.988 785.592 255.725 785.014 242.486C784.739 234.509 784.034 226.541 783.867 218.564C783.71 212.684 782.181 208.058 777.762 203.864C770.197 196.711 759.941 193.124 749.567 194.005" fill="white"/>
<path d="M733.456 197.18C726.899 203.589 723.332 212.233 721.137 221.004C718.893 229.941 717.001 240.28 717.599 249.522C718.207 259.204 724.097 266.27 733.044 269.602C735.11 270.336 737.23 270.906 739.385 271.307C742.031 271.846 742.325 271.807 742.325 274.433C742.325 280.49 741.227 286.536 741.198 292.593C741.198 302.677 745.245 312.134 756.123 313.937C766.207 315.603 775.664 310.997 781.505 302.893C787.581 294.465 788.982 284.645 789.629 274.551C790.384 261.387 790.384 248.191 789.629 235.028C789.041 223.62 790.609 210.381 782.367 201.296C774.233 192.378 761.484 188.095 749.626 189.085C743.559 189.595 743.412 198.983 749.626 198.66C758.563 198.18 767.795 200.865 774.322 207.235C780.848 213.605 779.222 224.698 779.741 233.185C780.339 243.495 780.643 253.824 780.476 264.153C780.329 273.228 780.643 283.097 777.154 291.652C774.018 299.345 767.834 305.813 758.877 305.186C747.636 304.412 749.959 290.976 750.4 283.077C750.772 276.511 752.771 267.26 745.147 264.055C738.052 261.115 729.536 262.007 726.458 253.148C724.959 248.846 725.714 243.867 726.076 239.428C726.439 234.988 726.929 230.735 727.723 226.433C729.359 217.672 732.015 208.617 738.385 202.09C741.511 198.885 736.68 194.054 733.485 197.19L733.456 197.18Z" fill="#382C80"/>
<path d="M762.64 261.165C754.842 262.654 746.885 263.144 738.963 262.625C734.308 262.38 733.083 270.181 737.846 270.896C747.117 272.357 756.613 271.02 765.119 267.054C768.628 265.486 766.011 260.479 762.64 261.174V261.165Z" fill="#382C80"/>
<path d="M719.804 185.763C724.008 197.523 730.486 209.352 741.619 214.908C742.832 215.609 744.207 215.98 745.608 215.986C748.008 215.672 749.979 213.937 750.596 211.596C751.16 209.292 751.037 206.873 750.243 204.638C752.203 206.598 754.281 208.558 756.966 209.097C759.651 209.636 762.934 207.793 762.846 205.069C765.472 205.745 766.423 208.93 766.874 211.615C768.067 218.822 768.865 226.088 769.265 233.381C768.931 230.287 769.303 227.158 770.353 224.228C771.44 221.17 774.008 218.005 777.213 218.436C779.272 218.864 780.946 220.358 781.603 222.356C782.26 224.308 782.591 226.354 782.583 228.413C782.838 233.861 783.351 239.291 784.122 244.7C784.288 245.906 784.759 247.395 785.964 247.513C786.484 247.529 786.995 247.37 787.414 247.062C789.982 245.484 791.501 242.701 792.853 240.006C797.528 230.725 802.565 222.699 805.005 212.311C805.78 208.989 806.348 205.451 805.231 202.198C804.07 198.971 801.016 196.813 797.587 196.798C797.802 185.969 782.024 179.912 773.792 176.58C762.172 172.006 749.84 169.501 737.356 169.181C727.664 168.848 717.178 169.907 709.838 176.257" fill="#382C80"/>
<path d="M716.678 186.625C720.373 197.65 725.635 208.616 735.131 215.78C739.336 218.955 744.637 221.964 749.831 219.2C755.711 216.084 756.025 209.136 754.624 203.432L747.068 207.832C750.272 210.998 753.996 214.046 758.779 213.712C762.944 213.399 766.707 210.567 767.393 206.333L760.533 209.126C763.238 210.273 763.081 216.966 763.414 219.485C764.012 224.11 764.394 228.755 764.727 233.41H773.89C773.675 231.068 773.293 227.53 774.586 225.404C777.379 220.876 778.006 225.531 778.153 228.422C778.438 234.185 778.398 240.3 779.614 245.964C780.466 249.992 783.651 253.059 787.944 251.795C792.628 250.423 795.137 245.592 797.185 241.544C803.163 229.784 822.998 195.161 797.597 192.495L801.909 196.807C801.311 180.951 780.064 173.581 767.442 169.612C756.683 166.28 745.483 164.592 734.22 164.605C724.244 164.605 714.463 166.565 706.662 173.111C702.243 176.815 708.534 182.813 712.925 179.373C719.373 174.297 727.85 173.493 735.768 173.621C745.087 173.739 754.348 175.1 763.306 177.668C769.754 179.455 776.02 181.84 782.024 184.793C786.738 187.203 793.098 190.78 793.216 196.778C793.216 199.336 795.176 200.806 797.538 201.1C805.985 202.148 798.518 218.544 796.558 222.787C794.931 226.305 793.069 229.716 791.256 233.146C789.825 235.87 787.934 242.015 784.69 242.946L788.287 243.426C788.169 243.357 787.64 235.978 787.512 234.704C787.199 231.568 787.111 228.393 786.709 225.267C786.16 220.935 784.288 216.672 780.025 214.859C769.128 210.233 764.345 225.463 764.688 233.342C764.943 239.222 774.077 239.222 773.851 233.342C773.548 226.543 772.861 219.767 771.793 213.046C771.097 208.362 770.059 203.05 765.208 200.992C762.826 200.012 758.798 200.453 758.348 203.785C758.044 206.049 754.045 202.011 753.448 201.404C751.983 200.012 749.775 199.753 748.028 200.769C746.282 201.786 745.415 203.833 745.902 205.794C746.441 207.901 747.303 211.272 744.059 211.282C742.893 211.282 740.933 209.694 739.914 209.018C737.162 207.142 734.701 204.87 732.613 202.276C728.379 197.141 725.39 191.006 722.94 184.861C721.431 181.078 715.335 182.548 716.688 186.586L716.678 186.625Z" fill="#382C80"/>
<path d="M735.553 231.637C734.896 233.518 734.289 235.41 733.711 237.321C733.022 239.053 732.516 240.853 732.201 242.691C731.966 245.915 736.298 246.131 738.562 246.082C739.644 246.082 740.522 245.204 740.522 244.122C740.522 243.039 739.644 242.162 738.562 242.162C737.778 242.162 736.141 242.28 735.524 241.75L736.102 243.152C736.2 241.417 737.023 239.536 737.454 237.86C737.885 236.184 738.326 234.283 738.709 232.48C738.912 231.621 738.399 230.756 737.548 230.523C736.696 230.291 735.814 230.774 735.553 231.617V231.637Z" fill="#382C80"/>
<path d="M742.266 225.658C743.356 225.495 744.456 225.4 745.559 225.374C746.667 225.451 747.78 225.415 748.881 225.266C750.841 224.845 750.419 222.326 748.881 221.679C746.509 220.699 743.256 221.797 741.119 222.934C739.502 223.796 740.717 225.874 742.266 225.658Z" fill="#382C80"/>
<path d="M732.348 222.464C731.122 221.525 729.81 220.705 728.428 220.014C727.421 219.455 726.152 219.788 725.547 220.769C724.972 221.774 725.307 223.055 726.302 223.65C727.788 224.479 729.35 225.165 730.967 225.698C731.809 225.934 732.698 225.517 733.054 224.718C733.38 223.904 733.074 222.974 732.329 222.513L732.348 222.464Z" fill="#382C80"/>
<path d="M724.871 230.95C724.678 232.098 725.161 233.254 726.113 233.922C727.066 234.591 728.318 234.652 729.331 234.08C730.344 233.508 730.938 232.405 730.859 231.244C730.953 229.447 729.579 227.91 727.781 227.805C726.921 227.775 726.086 228.097 725.469 228.696C725.122 229.048 724.866 229.478 724.724 229.951C724.504 230.621 724.571 231.351 724.91 231.97C725.27 232.594 725.944 232.97 726.664 232.95C727.379 232.948 728.042 232.578 728.418 231.97C728.561 231.732 728.667 231.474 728.732 231.205C728.801 230.999 728.732 231.088 728.624 231.45C728.732 231.274 728.673 231.352 728.448 231.676C728.595 231.529 728.516 231.587 728.213 231.842C728.389 231.734 728.301 231.774 727.928 231.94C728.232 231.852 727.301 231.94 727.781 231.94C727.37 231.862 727.262 231.852 727.478 231.94C727.115 231.774 727.027 231.734 727.213 231.842C726.929 231.597 726.86 231.548 727.017 231.685C727.174 231.823 727.115 231.783 726.87 231.489C727.037 231.744 726.703 230.911 726.811 231.372C726.919 231.832 726.752 230.754 726.811 231.244C726.811 231.568 726.948 230.656 726.811 231.127C726.674 231.597 727.017 230.764 726.86 231.029C726.703 231.293 727.272 230.647 726.929 230.931C727.242 230.705 727.321 230.647 727.154 230.754C727.517 230.617 727.605 230.578 727.409 230.637C727.801 230.637 727.899 230.637 727.693 230.637C728.056 230.705 728.144 230.715 727.938 230.637C728.124 230.686 728.293 230.784 728.428 230.921C728.291 230.784 728.32 230.833 728.516 231.068C728.48 231.011 728.447 230.952 728.418 230.892C728.526 231.166 728.556 231.215 728.487 231.029C728.483 230.957 728.483 230.885 728.487 230.813C728.487 231.117 728.487 231.166 728.487 230.97C728.487 229.98 727.684 229.177 726.694 229.177C725.703 229.177 724.9 229.98 724.9 230.97L724.871 230.95Z" fill="#382C80"/>
<path d="M742.413 231.646C742.3 232.515 742.552 233.392 743.109 234.068C743.666 234.744 744.479 235.159 745.353 235.214C747.073 235.114 748.406 233.672 748.371 231.95C748.461 230.149 747.084 228.611 745.284 228.501C744.426 228.473 743.593 228.799 742.981 229.402C742.632 229.753 742.373 230.184 742.227 230.657C742.007 231.326 742.074 232.057 742.413 232.675C742.773 233.3 743.447 233.676 744.167 233.655C744.881 233.652 745.544 233.282 745.921 232.675C746.064 232.438 746.17 232.18 746.235 231.911C746.304 231.705 746.235 231.784 746.127 232.156C746.245 231.98 746.127 232.048 745.951 232.372C746.098 232.234 746.019 232.283 745.716 232.538C745.892 232.44 745.804 232.479 745.431 232.646C745.735 232.558 744.804 232.646 745.284 232.646C744.873 232.577 744.765 232.568 744.981 232.646C744.618 232.479 744.54 232.45 744.716 232.548C744.432 232.303 744.363 232.254 744.52 232.401C744.677 232.548 744.618 232.489 744.373 232.205C744.54 232.46 744.206 231.627 744.314 232.087C744.422 232.548 744.255 231.46 744.314 231.96C744.314 232.283 744.451 231.372 744.314 231.842C744.177 232.313 744.52 231.48 744.314 231.744C744.108 232.009 744.726 231.362 744.383 231.646C744.696 231.421 744.775 231.362 744.608 231.47C744.967 231.333 745.056 231.294 744.873 231.352C745.265 231.352 745.353 231.303 745.147 231.303C745.51 231.362 745.598 231.372 745.392 231.303C745.581 231.351 745.752 231.453 745.882 231.597C745.745 231.46 745.774 231.509 745.97 231.744C745.932 231.686 745.899 231.623 745.872 231.558C745.98 231.842 746.01 231.882 745.941 231.695C745.872 231.509 745.941 231.558 745.941 231.48C745.941 231.784 745.941 231.833 745.941 231.637C745.941 230.646 745.138 229.843 744.148 229.843C743.157 229.843 742.354 230.646 742.354 231.637L742.413 231.646Z" fill="#382C80"/>
<path d="M744.079 251.452C746.898 251.534 749.621 250.428 751.586 248.404C752.928 246.885 751.203 244.279 749.322 245.464C747.599 246.683 745.67 247.58 743.628 248.11C741.737 248.512 742.178 251.482 744.079 251.452Z" fill="#382C80"/>
<path d="M733.475 516.846C729.019 525.631 725.334 534.786 722.46 544.208C718.883 555.645 717.364 568.659 723.352 579.488C724.783 582.075 728.722 579.772 727.321 577.165C721.127 565.709 723.176 553.587 727.154 541.768C729.717 533.816 732.751 526.025 736.239 518.434C737.111 516.582 734.406 514.945 733.456 516.807L733.475 516.846Z" fill="#382C80"/>
<path d="M741.149 529.959C728.608 557.755 720.788 587.448 718.011 617.816C716.577 633.247 716.397 648.768 717.472 664.229C718.589 680.193 722.979 696.774 716.325 712.053C713.63 718.227 710.661 724.499 712.043 731.417C713.179 737.101 716.943 742.07 722.754 743.403C728.095 744.628 730.369 736.415 725.018 735.19C716.727 733.23 721.264 721.931 723.371 717.1C726.782 709.26 728.683 701.684 728.546 693.06C728.409 684.015 726.792 675.028 726.066 666.012C725.331 656.81 725.086 647.569 725.194 638.337C725.982 601.986 733.194 566.061 746.499 532.223C747.695 529.155 742.511 526.94 741.149 529.959Z" fill="#382C80"/>
<path d="M866.824 562.063C862.404 562.485 853.172 562.612 850.742 567.061C849.546 569.247 849.595 572.236 848.841 574.617C847.526 578.42 845.852 582.088 843.843 585.574C841.001 590.836 836.346 597.206 837.051 603.527C837.335 607.828 840.829 611.216 845.136 611.367C847.949 611.495 847.831 607.369 845.136 607.075C835.542 606.026 849.644 584.368 851.399 580.272C852.741 577.116 853.006 573.412 854.339 570.393C855.897 566.826 863.835 566.62 867.284 565.405C868.941 564.817 868.843 561.916 866.834 562.103L866.824 562.063Z" fill="#382C80"/>
<path d="M885.757 912.815C881.931 909.31 879.871 904.277 880.142 899.095C880.377 895.341 882.455 891.255 886.855 893.127C889.364 894.195 890.657 896.743 891.922 899.007C893.186 901.27 896.733 900.251 896.626 897.733C896.077 885.365 895.038 871.586 901.712 860.493C902.437 859.297 903.672 856.847 905.524 857.837C906.416 858.307 906.818 861.757 907.072 862.854C907.985 866.633 908.578 870.482 908.846 874.36C909.34 881.716 908.753 889.106 907.102 896.292C906.854 897.35 907.327 898.446 908.267 898.991C909.207 899.537 910.393 899.404 911.188 898.664C914.207 896.174 919.656 892.029 922.772 896.41C924.242 898.458 924.115 900.555 926.369 902.084C928.799 903.72 931.563 904.132 933.728 906.376C936.384 909.246 937.812 913.041 937.707 916.95C937.707 919.969 942.137 919.89 942.352 916.95C942.704 912.429 941.327 907.943 938.501 904.397C935.404 900.477 930.249 899.31 927.868 895.087C922.909 886.267 914.07 889.991 907.729 895.204L911.816 897.586C914.008 888.156 914.463 878.406 913.158 868.813C912.482 863.913 911.453 850.506 903.525 852.153C896.871 853.584 893.725 864.893 892.5 870.567C890.618 879.456 890.942 888.717 891.579 897.723L896.283 896.449C893.784 892.989 891.108 889.138 886.698 888.089C883.318 887.183 879.741 888.586 877.878 891.549C873.164 899.163 877.153 909.845 883.239 915.324C884.964 916.872 887.482 914.344 885.797 912.766L885.757 912.815Z" fill="#382C80"/>
<path d="M955.298 903.652C956.814 902.741 958.674 902.61 960.303 903.3C961.931 903.99 963.131 905.418 963.53 907.141C964.069 909.698 968.029 908.62 967.45 906.053C966.118 900.016 958.483 896.87 953.299 900.261C951.192 901.643 953.142 905.024 955.259 903.652H955.298Z" fill="#382C80"/>
<path d="M701.596 370.845C729.369 393.248 729.839 430.939 730.408 463.534C730.516 469.345 739.483 469.365 739.453 463.534C739.316 428.607 736.053 388.309 705.261 366.092C702.497 364.132 698.911 368.68 701.596 370.845Z" fill="#382C80"/>
<path d="M171.455 386.996C198.49 369.14 225.887 351.798 253.648 334.968C267.511 326.546 281.463 318.272 295.503 310.144C309.449 302.099 324.492 295.092 337.643 285.87C340.681 283.753 338.898 277.736 334.909 279.372C320.317 285.39 306.656 294.347 293.034 302.265C278.732 310.563 264.545 319.056 250.472 327.745C222.582 345.032 195.295 363.182 168.613 382.194C165.732 384.232 168.397 388.995 171.416 386.996H171.455Z" fill="#382C80"/>
<path d="M341.946 335.605C366.573 359.125 391.553 382.968 418.464 403.92C422.119 406.772 427.372 401.872 423.697 398.687C397.825 376.235 371.346 354.656 346.277 331.234C343.337 328.519 339.025 332.841 341.906 335.605H341.946Z" fill="#382C80"/>
<path d="M292.965 112.547C305.96 136.949 337.32 108.245 318.337 88.596C304.323 74.1116 285.076 97.7296 292.965 112.547Z" fill="white"/>
<path d="M290.055 114.253C294.2 121.867 301.187 127.277 310.223 125.523C318.298 123.955 324.805 117.31 327.461 109.696C330.578 100.758 327.647 90.7817 320.748 84.4117C313.232 77.4635 302.991 78.1985 295.503 84.7351C287.017 92.1341 283.538 104.835 288.741 115.027C291.632 120.691 299.835 115.723 297.199 110.127C294.131 103.541 297.689 94.8487 303.353 90.8209C310.37 85.8425 317.887 92.4183 319.494 99.6409C320.885 105.893 317.691 112.381 312.438 115.87C305.989 120.123 299.541 117.163 295.886 110.881C293.69 107.089 287.987 110.44 290.055 114.253Z" fill="white"/>
<path d="M210.978 214.614C218.985 220.915 230.03 213.742 226.551 203.834C226.305 203.137 225.688 202.637 224.955 202.542C224.221 202.447 223.497 202.772 223.081 203.383C217.917 210.684 224.738 219.916 232.597 221.023C239.457 222.003 244.044 218.24 249.933 215.898C254.686 214.016 256.793 216.613 260.713 218.436C263.279 219.579 266.001 220.332 268.789 220.67C275.002 221.523 281.274 220.768 287.487 220.259C295.17 219.605 302.863 219.2 310.566 219.044C326.621 218.77 342.679 219.395 358.664 220.915C361.389 221.16 361.33 216.995 358.664 216.682C332.587 213.84 306.793 214.81 280.705 216.682C275.07 217.103 269.092 217.329 263.712 215.32C259.988 213.928 256.705 210.067 252.452 210.557C250.198 210.812 248.375 212.233 246.454 213.32C243.211 215.173 239.722 216.858 235.939 217.103C230.01 217.476 221.856 211.821 226.364 205.275L222.895 204.824C225.277 211.39 218.515 216.113 213.027 211.978C211.508 210.841 209.479 213.448 210.978 214.634V214.614Z" fill="white"/>
<path d="M380.528 218.289H388.104C389.116 218.289 389.936 217.469 389.936 216.457C389.936 215.445 389.116 214.624 388.104 214.624C385.585 214.624 383.057 214.624 380.528 214.624C379.516 214.624 378.696 215.445 378.696 216.457C378.696 217.469 379.516 218.289 380.528 218.289Z" fill="white"/>
<path d="M260.762 250.1C276.238 252.587 291.941 253.365 307.587 252.423C310.047 252.266 310.066 248.414 307.587 248.571C292.25 249.649 276.842 249.12 261.615 246.993C259.596 246.699 258.675 249.777 260.762 250.1Z" fill="white"/>
<path d="M330.323 253.314C331.27 253.245 332.003 252.456 332.003 251.506C332.003 250.557 331.27 249.768 330.323 249.698C329.376 249.768 328.643 250.557 328.643 251.506C328.643 252.456 329.376 253.245 330.323 253.314Z" fill="white"/>
<path d="M162.419 413.633C160.979 447.61 134.921 480.116 99.817 480.116C43.81 480.116 15.0078 413.76 49.298 370.836C68.7608 346.464 110.822 334.821 136.871 356.313C153.15 369.946 162.532 390.106 162.478 411.34C162.478 412.104 162.459 412.869 162.419 413.633Z" fill="white"/>
<path d="M158.215 413.632C156.843 440.024 139.879 466.778 113.508 474.059C90.7619 480.331 65.7033 470.717 51.7677 452.068C38.6926 434.521 35.2711 411.594 42.6537 390.994C51.4737 366.906 75.6503 350.403 101.091 349.305C116.771 348.619 130.579 354.509 141.104 366.161C152.727 379.182 158.871 396.189 158.254 413.632C158.068 419.052 166.486 419.042 166.673 413.632C167.76 381.929 146.984 346.855 113.87 341.641C85.1367 337.124 54.4137 352.147 39.8901 377.206C26.9737 399.501 27.4343 427.774 40.3213 449.971C53.4729 472.618 79.0803 486.662 105.393 484.055C140.673 480.556 164.909 447.521 166.673 413.632C166.918 408.213 158.49 408.232 158.215 413.632Z" fill="#382C80"/>
<path d="M87.8023 392.415C93.1531 387.515 99.3663 382.243 106.207 379.567L100.709 374.069C99.2291 384.497 98.8175 395.139 97.8865 405.635C96.9065 416.337 95.3189 427.136 94.9465 437.877C94.7603 443.248 103.678 444.688 104.541 439.171C106.158 428.753 106.501 418.042 107.353 407.527C108.176 396.835 109.48 385.967 109.48 375.255C109.48 372.178 105.56 369.267 102.747 371.394C95.8873 376.627 88.8999 381.194 82.7651 387.388C79.5311 390.651 84.4311 395.492 87.7925 392.415H87.8023Z" fill="#382C80"/>
<path d="M86.2442 442.405C95.7796 440.445 104.933 447.874 114.233 445.13C116.181 444.53 117.511 442.729 117.511 440.69C117.511 438.652 116.181 436.851 114.233 436.251C109.068 434.722 103.13 434.164 97.7886 433.311C92.4476 432.458 87.9102 432.605 83.0004 434.683C78.3846 436.643 81.8538 443.268 86.2442 442.376V442.405Z" fill="#382C80"/>
</svg>
