<svg width="1000" height="1000" viewBox="0 0 1000 1000" fill="none" xmlns="http://www.w3.org/2000/svg">
<path d="M766.56 891.823C757.878 841.732 747.695 791.971 736.014 742.54C732.692 728.585 729.281 714.659 725.655 700.782C724.146 694.981 715.238 697.431 716.678 703.252C728.909 752.526 740.365 801.948 751.459 851.487C754.582 865.461 757.607 879.462 760.533 893.489C761.357 897.458 767.237 895.734 766.56 891.823Z" fill="var(--color-illustration-primary, #382C80)"/>
<path d="M844.098 240.192C858.415 242.348 873.243 241.633 887.09 245.876C912.923 253.795 918.372 276.57 920.057 300.227C922.262 331.038 923.977 361.967 923.977 392.818C924.075 448.815 918.813 504.655 911.865 560.172C908.699 585.525 906.21 611.309 900.105 636.034C895.744 653.674 894.871 676.537 880.299 689.532C872.655 696.392 862.492 699.489 852.614 702.164C801.839 715.896 749.385 722.414 696.794 721.529C643.874 720.628 602.312 698.009 554.292 677.214" fill="var(--color-illustration-base, #FFFFFF)"/>
<path d="M843.372 242.809C866.108 246.259 895.42 243.387 908.464 266.643C913.148 275.002 914.981 284.753 915.912 294.19C917.313 308.332 917.872 322.61 918.578 336.82C921.518 397.316 918.862 457.586 912.462 517.797C909.346 547.109 906.132 576.597 901.565 605.693C899.526 618.668 896.312 631.33 893.803 644.207C891.735 654.791 890.148 665.983 885.15 675.675C879.456 686.729 869.568 692.335 858.004 695.873C844.372 700.067 830.309 703.184 816.324 705.996C787.709 711.738 758.687 715.218 729.526 716.404C715.326 716.982 700.978 717.384 686.798 716.355C673.645 715.362 660.62 713.084 647.911 709.553C622.637 702.694 598.745 691.757 574.882 681.134C568.845 678.439 562.789 675.753 556.713 673.137C554.351 672.157 551.666 672.451 550.235 674.832C549.039 676.792 549.588 680.301 551.93 681.31C577.165 692.266 601.91 704.438 627.998 713.385C640.63 717.803 653.608 721.166 666.796 723.44C680.967 725.802 695.157 726.38 709.504 726.311C739.974 726.102 770.378 723.434 800.419 718.334C815.335 715.806 830.129 712.676 844.803 708.946C857.543 705.702 871.263 702.595 881.779 694.187C890.794 686.984 895.626 676.155 898.507 665.238C901.506 653.919 903.407 642.227 905.906 630.791C912.433 601.116 915.128 570.501 918.646 540.357C925.859 477.96 929.661 415.505 926.957 352.696C926.303 337.016 925.375 321.362 924.173 305.735C923.37 294.847 922.517 283.773 918.979 273.395C915.824 264.095 910.551 255.755 902.584 249.875C892.372 242.329 879.417 240.437 867.088 239.487C859.67 238.918 852.232 238.624 844.862 237.605C841.452 237.145 839.962 242.329 843.411 242.848L843.372 242.809Z" fill="var(--color-illustration-primary, #382C80)"/>
<path d="M615.522 397.198C636.867 389.191 661.582 396.296 679.859 409.869C701.488 425.892 732.946 461.3 737.474 489.034C742.001 516.768 715.443 549.588 696.088 566.366C672.568 586.779 642.855 599.294 612.337 605.634C589.954 610.289 566.983 611.769 544.659 616.757C513.063 623.823 488.103 638.866 470.433 666.179C445.786 704.271 422.178 743.06 398.227 781.593C385.428 802.193 372.59 822.773 359.713 843.333C344.386 867.696 329.872 875.34 301.168 862.071L231.588 829.927C217.427 823.38 200.394 814.502 191.408 801.115C186.753 794.137 184.91 784.631 189.046 777.34C192.417 771.401 199.071 767.991 205.755 766.56C212.439 765.129 219.338 765.384 226.159 764.914C255.363 762.865 271.611 751.654 285.39 726.85C312.83 677.468 342.534 628.997 379.47 586.23C416.406 543.463 482.193 480.831 553.214 469.875" fill="var(--color-illustration-base, #FFFFFF)"/>
<path d="M616.384 400.304C638.728 392.219 662.689 400.628 680.555 414.857C696.933 427.918 710.937 443.705 721.95 461.525C726.977 469.728 731.378 478.548 733.308 488.044C735.239 497.54 733.004 507.556 729.251 516.464C721.225 535.486 706.711 552.273 690.923 565.346C672.117 580.928 649.42 591.434 625.979 597.912C599.813 605.144 572.588 606.349 546.089 611.886C525.391 616.208 505.644 624.313 489.249 637.886C470.502 653.419 458.722 675.714 445.923 696C415.68 743.971 386.241 792.432 355.989 840.393C351.363 847.743 346.091 855.475 338.545 860.101C332.028 864.089 324.599 864.53 317.269 862.845C305.293 860.081 294.121 853.662 283.037 848.537L244.514 830.711C233.596 825.673 222.483 820.911 212.379 814.296C203.657 808.612 193.759 800.576 191.799 789.717C189.506 776.977 201.403 771.401 212.115 770.401C223.395 769.343 234.557 769.598 245.601 766.599C263.79 761.699 277.334 749.469 287.016 733.593C293.582 722.813 299.433 711.562 305.803 700.655C312.401 689.359 319.19 678.177 326.167 667.109C351.343 627.4 379.871 589.807 413.573 556.84C445.061 526.058 481.429 497.687 523.177 482.419C533.288 478.655 543.741 475.885 554.39 474.147C560.025 473.256 557.633 464.69 552.028 465.572C505.615 472.903 464.582 499.255 429.528 529.341C394.042 559.721 363.466 595.511 336.839 633.829C321.316 656.173 307.067 679.379 293.494 702.958C283.165 720.911 274.492 742.226 255.372 752.605C247.091 757.103 237.634 759.18 228.314 759.994C215.907 761.072 202.315 759.719 191.731 767.589C181.539 775.164 179.971 787.992 184.998 799.135C189.781 809.739 199.875 817.628 209.498 823.635C220.063 830.23 231.617 835.101 242.897 840.295L283.302 858.915C301.324 867.235 322.806 879.858 342.445 868.715C350.501 864.158 356.528 856.651 361.614 849.115C369.522 837.355 376.755 825.105 384.242 813.08C399.883 787.953 415.465 762.8 430.988 737.62C438.625 725.272 446.299 712.944 454.008 700.635C461.505 688.699 468.787 676.508 476.842 664.944C489.248 647.337 506.758 633.962 527.008 626.626C552.185 617.306 579.419 616.061 605.634 611.338C630.673 606.83 655.251 598.598 677.056 585.348C696.372 573.578 712.975 557.85 725.772 539.2C737.601 521.903 746.048 501.058 739.325 480.184C732.74 459.702 718.412 441.582 703.644 426.284C688.414 410.536 670.608 396.424 648.597 392.072C637.268 389.828 625.587 390.112 614.669 394.101C610.749 395.502 612.464 401.725 616.384 400.314V400.304Z" fill="var(--color-illustration-primary, #382C80)"/>
<path d="M336.458 755.398C313.918 740.071 290.633 723.91 277.217 700.194C272.993 692.737 270.357 682.182 276.756 676.498C281.019 672.725 287.36 672.97 292.838 671.441C308.518 667.09 318.808 644.266 327.363 631.996C339.158 614.978 351.823 598.581 365.309 582.869C393.415 550.313 425.393 520.149 461.976 497.256C481.429 485.104 502.45 474.981 524.765 469.404C535.3 466.778 543.924 465.886 551.96 457.909C559.29 450.647 563.72 440.877 572.03 434.497C578.773 429.332 587.416 427.078 595.913 426.853C623.529 426.128 650.44 449.697 650.587 477.323C650.695 497.962 637.386 516.611 621.187 529.38C604.988 542.15 585.75 550.421 567.904 560.74C517.336 590.14 478.597 635.701 440.916 680.398C425.942 698.156 410.869 716.061 399.756 736.464C394.474 746.186 390.015 756.593 382.488 764.698C374.962 772.803 363.241 778.261 352.736 774.792" fill="var(--color-illustration-base, #FFFFFF)"/>
<path d="M338.085 752.615C324.178 743.128 310.38 733.466 298.434 721.519C292.492 715.7 287.231 709.223 282.754 702.213C279.383 696.823 274.826 688.954 277.315 682.359C279.941 675.401 290.447 676.724 296.219 674.519C302.315 672.147 307.342 667.727 311.546 662.808C320.758 652.028 327.226 639.141 335.527 627.645C357.028 597.745 381.175 569.61 408.233 544.59C434.37 520.423 463.672 498.589 496.433 484.154C504.861 480.43 513.555 477.341 522.442 474.912C529.645 472.952 537.142 471.864 544.002 468.905C551.538 465.671 556.928 460.085 561.809 453.627C566.689 447.168 571.08 440.142 578.302 436.085C604.39 421.385 639.435 442.523 645.138 470.002C648.294 485.183 641.581 500.794 632.026 512.338C621.118 525.5 606.546 534.447 591.699 542.522C576.019 551.048 560.28 559.182 545.639 569.472C531.831 579.261 518.732 590.012 506.439 601.646C481.086 625.381 458.654 651.998 436.3 678.527C424.481 692.541 412.672 706.682 402.745 722.137C397.845 729.742 393.827 737.738 389.584 745.706C385.664 753.066 381.244 760.621 374.462 765.727C368.582 770.176 361.203 772.675 353.931 770.549C348.424 768.932 346.091 777.409 351.569 779.114C369.141 784.582 384.889 771.705 393.651 757.701C398.551 749.861 402.314 741.364 407.008 733.407C411.982 725.08 417.447 717.056 423.374 709.377C434.85 694.344 447.335 680.046 459.634 665.679C471.492 651.802 483.566 638.102 496.266 624.98C521.482 598.951 549.118 576.068 581.125 558.859C610.936 542.836 648.049 524.275 654.438 487.143C659.838 455.783 635.054 426.765 604.311 422.639C596.093 421.449 587.709 422.26 579.87 425.001C571.344 428.137 565.023 433.723 559.545 440.847C554.537 447.355 550.137 454.871 542.777 459.017C535.849 462.937 527.47 463.77 519.894 465.877C483.262 475.931 450.197 497.237 421.159 521.247C392.122 545.257 366.279 573.402 343.288 603.273C332.783 616.904 323.257 630.958 314.084 645.491C310.262 651.538 306.186 657.574 300.825 662.376C298.642 664.41 296.109 666.03 293.348 667.159C289.428 668.639 285.204 668.707 281.245 669.913C273.699 672.206 268.955 678.331 269.132 686.298C269.308 694.266 273.277 701.459 277.599 707.858C287.174 722.058 300.07 733.338 313.79 743.442C320.65 748.518 327.746 753.379 334.841 758.201C338.281 760.543 341.505 754.957 338.094 752.634L338.085 752.615Z" fill="var(--color-illustration-primary, #382C80)"/>
<path d="M615.522 397.198C636.866 389.191 661.582 396.296 679.859 409.869C701.488 425.892 732.946 461.3 737.473 489.034C742.001 516.768 715.443 549.588 696.088 566.366C672.568 586.779 642.854 599.294 612.337 605.634C589.954 610.289 566.983 611.769 544.658 616.757C513.063 623.823 488.102 638.866 470.433 666.179C445.786 704.271 422.178 743.06 398.227 781.593" fill="var(--color-illustration-base, #FFFFFF)"/>
<path d="M616.385 400.304C655.683 386.114 692.345 421.169 713.719 450.098C723.626 463.505 734.475 480.37 733.485 497.765C732.437 516.18 720.5 533.575 708.74 547.04C680.604 579.478 640.846 596.334 599.166 603.253C576.019 607.104 552.215 608.633 529.753 615.855C512.113 621.51 495.776 630.653 482.546 643.668C475.383 650.714 469.522 658.77 464.093 667.188C457.331 677.674 450.634 688.202 444.003 698.773C430.606 720.098 417.249 741.462 404.195 763.002C400.903 768.432 397.649 773.89 394.395 779.329C391.455 784.229 398.992 788.62 402.069 783.818C416.132 761.836 429.773 739.58 443.582 717.432C450.422 706.456 457.311 695.51 464.25 684.593C470.306 675.077 476.01 665.169 483.458 656.614C495.916 642.402 511.937 631.767 529.871 625.802C552.587 618.041 576.822 616.434 600.372 612.602C643.492 605.585 684.995 588.102 714.287 554.782C727.027 540.288 739.042 522.687 741.815 503.185C744.432 484.829 735.857 467.542 725.802 452.734C715.016 436.741 701.88 422.465 686.837 410.389C670.726 397.649 650.489 388.672 629.527 390.789C624.454 391.273 619.461 392.382 614.66 394.091C610.74 395.493 612.455 401.716 616.375 400.304H616.385Z" fill="var(--color-illustration-primary, #382C80)"/>
<path d="M640.003 422.119C659.671 410.595 685.191 413.388 705.555 423.638C729.594 435.741 766.629 465.269 775.821 491.827C785.013 518.385 764.433 555.243 748.214 575.078C728.487 599.205 701.38 616.6 672.392 628.057C651.126 636.455 628.743 641.835 607.604 650.597C577.665 662.945 555.664 682.025 542.924 711.945C525.137 753.683 508.477 795.931 491.454 837.982C482.347 860.464 473.2 882.932 464.014 905.387C453.068 932.004 440.063 942 409.517 933.807L335.448 914.001C320.386 909.963 302.079 904.123 290.995 892.441C285.223 886.355 281.783 877.3 284.616 869.411C286.919 862.982 292.906 858.484 299.247 855.946C305.588 853.408 312.428 852.477 319.063 850.84C347.483 843.853 361.595 830.035 370.944 803.241C389.564 749.91 410.565 697.078 439.652 648.646C468.738 600.215 522.952 527.273 591.022 504.371" fill="var(--color-illustration-base, #FFFFFF)"/>
<path d="M641.63 424.903C662.592 412.947 687.945 417.788 708.074 429.009C726.744 439.381 743.438 452.966 757.387 469.14C763.542 476.363 769.432 484.595 772.313 493.748C775.361 503.45 774.185 513.877 771.519 523.53C765.894 543.894 753.938 563.122 739.679 578.586C723.381 596.226 703.056 609.711 681.241 619.629C656.438 630.899 629.537 636.465 604.458 647.02C585.201 655.134 567.463 666.943 554.42 683.466C547.752 692.028 542.26 701.445 538.093 711.465C532.461 724.695 526.908 737.964 521.433 751.272C510.447 777.987 499.736 804.81 488.897 831.632C483.487 844.999 478.071 858.363 472.648 871.724C467.592 884.15 462.976 896.91 457.223 909.033C453.96 915.893 449.854 923.223 443.366 927.525C437.192 931.622 429.989 932.317 422.786 931.622C417.337 931.102 412.006 929.662 406.763 928.201L385.605 922.537L343.945 911.394C332.655 908.376 321.17 905.514 310.625 900.428C301.335 895.92 290.28 888.943 288.506 877.888C286.458 865.148 300.374 859.974 310.272 857.71C320.925 855.28 331.372 852.947 341.172 847.91C358.067 839.227 368.425 823.92 374.825 806.446C384.056 781.25 392.925 755.996 403.431 731.3C421.62 688.493 443.611 647.304 471.218 609.78C496.482 575.48 526.784 543.022 564.014 521.648C572.958 516.43 582.387 512.091 592.169 508.693C597.559 506.87 595.246 498.275 589.807 500.128C546.854 514.7 511.76 545.541 482.88 579.684C453.225 614.709 428.98 654.076 409.193 695.412C397.09 720.686 386.506 746.686 376.765 772.95C372.287 785.014 368.631 797.558 363.486 809.337C359.841 817.697 354.98 825.488 348.188 831.642C341.397 837.796 333.106 841.707 324.512 844.382C312.556 848.106 299.032 848.547 288.781 856.446C278.687 864.227 276.443 876.614 282.019 887.894C287.144 898.253 298.11 905.113 308.312 909.699C319.582 914.766 331.519 917.813 343.416 920.998L387.065 932.67C405.754 937.668 429.685 947.615 447.884 935.816C455.067 931.161 460.163 924.056 464.034 916.53C470.081 904.77 474.491 892.098 479.459 879.897C490.847 851.902 502.159 823.871 513.397 795.803C524.481 768.207 535.378 740.492 547.285 713.238C555.922 693.296 570.465 676.482 588.955 665.062C611.495 651.087 637.69 645.099 662.455 636.387C686.69 627.851 709.671 616.16 729.536 599.715C747.194 585.112 761.494 566.871 771.46 546.237C780.692 527.019 786.689 504.587 777.007 484.399C767.54 464.857 749.9 449.187 732.76 436.496C714.875 423.227 694.736 412.133 672 411.418C660.288 410.895 648.66 413.636 638.415 419.336C634.809 421.394 638.053 426.961 641.669 424.903H641.63Z" fill="var(--color-illustration-primary, #382C80)"/>
<path d="M576.166 492.905C508.056 515.807 453.872 588.749 424.795 637.18C408.802 663.817 395.238 691.835 383.184 720.48C378.098 732.573 374.688 749.263 365.838 758.847C357.9 767.461 344.935 770.078 351.53 786.287C355.656 796.411 365.593 802.761 375.05 808.229C387.614 815.495 400.393 822.354 413.388 828.809C436.085 840.138 464.897 846.322 489.897 851.006C507.164 804.319 523.285 757.838 542.875 711.846C555.615 681.927 577.656 662.846 607.555 650.498C628.694 641.786 651.077 636.406 672.343 627.958C701.332 616.502 728.438 599.107 748.166 574.98C764.385 555.144 784.955 518.267 775.772 491.729C766.59 465.19 729.546 435.643 705.506 423.54C685.142 413.289 659.623 410.496 639.954 422.021" fill="var(--color-illustration-base, #FFFFFF)"/>
<path d="M575.303 489.798C542.688 500.863 514.366 521.688 490.043 545.727C466.866 568.669 446.854 594.776 429.234 622.167C419.058 638.039 409.687 654.412 401.157 671.226C391.67 689.846 382.233 709.005 375.363 728.771C372.511 736.964 369.924 745.539 364.936 752.742C361.163 758.201 355.273 761.131 350.697 765.737C337.751 778.722 350.177 796.568 361.859 805.231C369.865 811.17 378.93 815.805 387.643 820.578C397.178 825.801 406.792 831.083 416.719 835.513C435.075 843.696 454.665 848.674 474.284 852.741C479.057 853.721 483.83 854.652 488.612 855.564C491.113 856.154 493.645 854.713 494.414 852.261C503.635 827.32 512.602 802.281 521.932 777.37C526.505 765.126 531.206 752.928 536.034 740.776C540.64 729.212 544.982 717.325 550.734 706.261C559.52 689.345 572.764 675.152 589.033 665.218C609.113 652.841 632.153 646.814 654.389 639.493C676.625 632.173 697.901 623.069 717.109 609.76C734.647 597.78 749.726 582.551 761.532 564.896C772.449 548.383 781.818 528.94 782.779 508.859C783.69 489.544 772.979 473.325 760.386 459.624C746.841 444.971 731.117 432.495 713.767 422.639C695.412 412.192 673.45 406.636 652.576 412.104C647.384 413.499 642.399 415.571 637.748 418.268C632.78 421.11 637.249 428.793 642.227 425.951C660.847 415.309 684.641 418.425 703.144 427.745C719.588 436.026 734.739 447.502 747.851 460.379C759.905 472.207 772.9 487.241 773.331 505.028C773.763 524.216 764.345 543.15 754.163 558.859C743.023 575.853 728.643 590.486 711.846 601.92C693.06 614.846 672.244 623.676 650.626 630.762C629.007 637.847 606.604 643.933 586.818 655.507C570.539 664.899 556.803 678.127 546.804 694.04C541.003 703.409 537.004 713.64 532.8 723.852C527.92 735.723 523.193 747.672 518.62 759.7C509.447 783.681 500.744 807.838 491.924 831.946C489.755 837.885 487.573 843.823 485.378 849.762L491.189 846.469C471.932 842.883 452.626 838.865 434.095 832.416C415.004 825.772 397.1 815.56 379.665 805.535C372.296 801.331 364.289 796.999 359.017 790.149C355.518 785.611 352.088 778.281 356.224 773.156C359.977 768.501 365.74 765.835 369.66 761.288C375.138 754.928 378.333 747.039 381.126 739.228C384.134 730.79 387.006 722.441 390.563 714.209C394.712 704.565 399.06 695.007 403.607 685.534C412.089 667.821 421.46 650.548 431.684 633.78C447.815 607.467 466.111 582.33 487.113 559.672C512.083 532.732 541.816 508.007 577.018 495.972C580.938 494.64 579.252 488.417 575.303 489.759V489.798Z" fill="var(--color-illustration-primary, #382C80)"/>
<path d="M669.412 215.673C634.347 220.217 599.982 229.105 567.11 242.133C549.47 249.149 532.124 257.078 515.043 265.427C506.448 269.631 497.912 273.953 489.396 278.324C485.261 280.451 468.356 286.164 466.65 290.143C477.43 255.549 482.938 234.881 489.004 207.911C495.178 180.471 502.028 152.825 506.017 124.925C508.702 106.158 508.565 86.3127 500.627 69.0647C492.689 51.8167 475.5 38.0085 456.576 38.3515C452.705 38.4201 447.942 39.9097 447.413 43.7415C446.57 49.8077 455.91 52.7771 451.166 59.4215C449.5 61.7637 446.815 63.1259 444.199 64.3215C436.719 67.7432 428.962 70.5233 421.012 72.6319C417.561 73.7189 413.99 74.3771 410.379 74.5919C406.739 74.5256 403.116 75.1029 399.677 76.2971C395.383 77.9464 392.012 81.3733 390.434 85.6945C388.856 90.0156 389.225 94.8083 391.445 98.8371C392.67 101.062 393.866 100.983 393.787 103.59C393.709 106.403 392.572 109.539 391.916 112.263C390.544 117.918 388.976 123.504 387.241 129.06C383.801 140.428 380.028 151.708 377.343 163.282C371.849 186.978 366.981 210.805 362.741 234.763C360.301 248.542 358.066 262.419 357.753 276.403C357.037 308.106 366.681 340.289 386.398 365.123C406.116 389.956 436.133 406.851 467.738 408.821" fill="var(--color-illustration-base, #FFFFFF)"/>
<path d="M669.412 212.223C637.917 216.184 606.959 223.629 577.106 234.42C546.726 245.504 517.532 259.783 488.74 274.502C484.251 276.795 479.459 278.422 474.853 280.5C471.021 282.215 465.504 284.292 463.446 288.281L470.237 291.143C477.489 267.907 484.241 244.534 489.837 220.828C496.315 193.329 502.969 165.722 507.703 137.851C512.073 112.087 514.827 83.2062 499.863 60.1076C493.826 50.7976 485.231 42.8988 474.99 38.4692C467.219 35.1176 452.313 31.1192 445.914 39.1748C442.974 42.889 444.003 47.4264 446.531 51.0132C447.393 52.248 449.108 53.816 449.295 55.3742C449.618 58.1378 446.1 59.9802 444.14 60.9602C437.68 64.1681 430.947 66.7919 424.02 68.8002C420.868 69.817 417.658 70.6449 414.407 71.2796C410.839 71.9166 407.204 71.6716 403.627 72.2596C391.867 74.2196 383.409 85.6954 387.711 97.524C388.456 99.582 390.544 101.552 390.877 103.561C391.112 104.962 390.318 106.922 389.956 108.255C389.436 110.215 388.976 112.116 388.437 114.047C386.594 121.152 384.409 128.169 382.223 135.166C373.335 163.586 367.347 192.692 361.888 221.925C356.714 249.659 351.922 277.432 356.763 305.578C365.22 354.735 400.461 398.335 450.167 409.742C455.97 411.058 461.869 411.914 467.807 412.3C472.325 412.604 472.305 405.577 467.807 405.273C444.718 403.715 422.443 394.072 404.832 379.147C386.349 363.467 373.374 342.289 366.612 319.102C359.135 293.475 360.379 267.632 364.779 241.584C369.483 213.732 374.687 185.665 381.773 158.284C385.261 144.799 389.916 131.657 393.484 118.192C394.277 115.252 395.032 112.224 395.796 109.235C396.424 106.805 397.188 103.933 396.522 101.395C395.963 99.2978 394.15 97.9258 393.356 95.907C392.152 92.8482 392.12 89.4522 393.268 86.3716C395.845 79.6488 402.656 77.6986 409.213 77.3948C415.769 77.091 421.835 75.4348 428.038 73.4748C434.264 71.6072 440.354 69.3151 446.266 66.6148C450.5 64.6548 455.214 61.4502 455.665 56.3542C456.027 52.2186 453.215 49.798 451.411 46.466C448.814 41.6444 456.017 41.6444 459.134 41.8306C469.845 42.4774 479.714 48.0536 487.083 55.6388C504.87 73.8962 505.772 101.385 502.303 125.219C498.265 152.904 491.523 180.099 485.359 207.382C480.589 228.511 475.101 249.447 468.895 270.19C467.006 276.508 465.073 282.813 463.093 289.104C461.858 293.024 467.944 295.729 469.884 291.966C471.1 289.614 476.744 287.683 479.4 286.507C483.163 284.861 487.054 283.489 490.768 281.744C504.792 275.12 518.453 267.73 532.516 261.164C560.681 247.964 589.572 236.537 619.736 228.824C636.409 224.58 653.308 221.279 670.353 218.936C674.156 218.407 673.293 211.655 669.432 212.155L669.412 212.223Z" fill="var(--color-illustration-primary, #382C80)"/>
<path d="M554.174 406.724C551.028 423.579 542.049 438.789 528.812 449.687C527.401 450.843 525.872 452.156 525.676 453.979C525.549 455.606 526.656 457.066 527.705 458.301C533.118 464.528 539.641 469.695 546.942 473.54C550.119 465.447 555.462 458.384 562.387 453.127C573.725 444.542 591.395 441.739 597.383 427.558" fill="var(--color-illustration-secondary, #7F72FF)"/>
<path d="M551.068 405.92C547.479 420.956 539.279 434.494 527.616 444.64C525.029 446.884 522.109 448.825 521.197 452.333C520.139 456.4 522.559 459.732 525.117 462.633C530.591 468.842 537.133 474.02 544.433 477.921C547.559 479.616 550.578 477.921 551.812 474.922C554.371 468.759 558.298 463.259 563.298 458.84C567.443 455.165 572.441 452.686 577.361 450.236C587.396 445.238 597.255 439.809 601.273 428.676C602.831 424.364 596.04 421.571 593.894 425.569C588.572 435.477 577.322 439.172 567.894 444.032C556.144 449.942 546.977 459.967 542.14 472.198L549.529 469.199C543.3 465.931 537.633 461.69 532.742 456.635C532.082 456.002 531.466 455.324 530.899 454.607C530.399 453.911 530.38 455.057 530.576 454.469C530.899 453.489 533.094 452.245 533.859 451.529C536.486 449.209 538.93 446.69 541.17 443.993C549.784 433.549 555.373 420.944 557.33 407.547C557.918 403.558 552.097 401.667 551.117 405.832L551.068 405.92Z" fill="var(--color-illustration-secondary, #7F72FF)"/>
<path d="M774.959 461.173C762.154 462.277 749.52 457.639 740.472 448.511C725.968 433.684 724.234 411.016 717.168 391.514C710.687 373.693 699.432 357.996 684.632 346.14C674.969 338.437 663.709 332.254 656.545 322.189C646.373 307.891 646.549 288.869 648.264 271.396C649.097 262.879 650.224 254.206 654.027 246.533C657.888 238.693 664.258 232.352 671.098 226.933C681.447 218.691 689.542 213.448 702.801 213.683C718.005 213.948 733.168 215.34 748.165 217.848C777.467 222.748 806.211 232.46 831.269 248.65C872.077 275.022 902.231 320.837 901.134 369.415C900.35 404.039 883.768 437.466 858.533 461.173C820.999 496.453 753.301 518.12 702.625 504.097C679.84 497.795 658.848 478.47 658.623 454.842C658.564 448.354 661.563 440.436 668.06 439.985C673.244 439.622 677.292 444.454 679.389 449.207C681.486 453.96 682.75 459.369 686.572 462.927C685.056 456.181 685.394 449.151 687.552 442.582C688.094 440.45 689.265 438.531 690.914 437.074C695.441 433.635 702.145 437.702 704.634 442.798C707.123 447.894 707.574 453.921 710.573 458.723C709.818 452 710.877 445.199 713.64 439.025C714.62 436.731 716.07 434.409 718.344 433.341C722.45 431.381 727.321 434.575 729.585 438.505C731.848 442.435 732.525 447.09 734.671 451.108C734.161 445.924 733.691 440.544 735.455 435.653C737.219 430.763 741.972 426.52 747.146 427.108C751.527 427.608 754.839 431.243 757.348 434.869C759.857 438.495 762.248 442.513 766.08 444.62C769.912 446.727 775.939 445.679 777.173 441.445" fill="var(--color-illustration-base, #FFFFFF)"/>
<path d="M646.461 100.817C642.15 99.0177 637.424 98.4511 632.81 99.1802C628.83 99.685 625.145 101.543 622.373 104.443C619.737 107.383 618.57 111.842 620.08 115.517C620.93 117.388 622.209 119.033 623.813 120.319C628.815 124.514 635.242 126.62 641.757 126.199C648.251 125.723 654.385 123.031 659.133 118.574" fill="var(--color-illustration-primary, #382C80)"/>
<path d="M647.441 97.269C639.699 94.133 629.908 94.0644 622.784 98.886C616.365 103.237 613.033 111.94 617.159 118.986C626.194 134.45 650.88 133.686 662.082 121.524C665.12 118.231 661.023 112.038 657.035 114.978C652.448 118.349 647.548 121.299 641.757 121.74C636.052 122.25 630.387 120.405 626.077 116.634C621.725 112.606 623.725 107.128 628.625 104.56C633.868 101.826 640.13 102.336 645.51 104.364C649.979 106.04 651.772 99.0134 647.47 97.269H647.441Z" fill="var(--color-illustration-primary, #382C80)"/>
<path d="M702.252 141.565C700.954 151.399 698.907 161.12 696.127 170.642C693.765 178.599 691.697 185.949 692.57 194.338C692.884 197.153 693.342 199.949 693.942 202.717C694.559 205.745 696.343 209.489 694.745 212.38C692.893 215.722 688.542 218.828 685.7 221.317C682.348 224.268 678.817 227.007 675.126 229.52C672.367 231.533 669.317 233.113 666.08 234.204C662.814 235.292 659.266 235.167 656.084 233.852C650.665 231.343 648.244 224.836 648.107 218.867C647.97 212.899 649.763 206.98 650.292 201.1C650.66 198.411 650.381 195.673 649.479 193.113C647.303 187.772 640.218 186.576 635.877 183.519C631.031 180.127 627.203 175.479 624.803 170.073C619.589 158.117 621.471 143.878 627.596 132.363C630.127 127.678 633.232 123.326 636.837 119.407C648.811 106.091 667.855 101.723 684.436 108.49C695.5 113.067 704.82 122.504 702.252 141.565Z" fill="var(--color-illustration-base, #FFFFFF)"/>
<path d="M699.048 140.683C696.98 153.08 693.256 164.84 690.12 176.972C688.48 182.813 687.902 188.901 688.415 194.945C688.709 197.729 689.14 200.512 689.699 203.256C690.179 205.608 691.855 208.832 690.473 211.037C689.18 213.085 686.759 214.722 684.917 216.231C682.702 218.044 680.546 219.935 678.272 221.68C674.039 224.924 669.09 228.951 663.739 230.078C658.388 231.205 654.723 228.265 653.331 223.287C651.871 218.064 653.204 212.595 654.056 207.382C654.987 201.698 656.016 195.279 653.076 189.957C650.911 186.037 646.902 183.901 642.992 182.049C633.62 177.764 627.31 168.734 626.509 158.46C624.627 137.419 640.229 114.987 661.093 110.646C670.55 108.686 681.428 110.567 689.229 116.447C697.265 122.514 698.774 132.078 697.647 141.565C697.353 144.015 699.94 146.073 702.174 146.092C704.869 146.092 706.388 143.985 706.702 141.565C708.045 130.961 706.026 119.936 698.284 112.106C691.198 104.923 680.791 101.326 670.844 100.709C645.364 99.1994 623.431 120.015 618.208 144.083C615.523 156.471 617.297 169.848 625.313 179.961C628.914 184.428 633.521 187.978 638.759 190.32C640.621 191.212 642.943 192.064 644.345 193.652C646.305 195.916 645.834 199.591 645.521 202.364C644.198 213.948 640.248 228.559 651.793 236.595C663.337 244.631 677.165 234.283 686.093 226.844C690.865 222.866 698.352 218.024 699.519 211.507C700.156 207.921 698.676 204.461 697.931 201.021C697.012 197.143 696.558 193.169 696.579 189.183C696.755 181.039 699.715 173.297 701.645 165.467C703.485 157.603 704.795 149.624 705.565 141.584C705.967 137.88 699.675 136.998 699.048 140.683Z" fill="var(--color-illustration-primary, #382C80)"/>
<path d="M699.048 140.683C696.98 153.08 693.256 164.84 690.12 176.972C688.48 182.813 687.902 188.901 688.415 194.945C688.709 197.729 689.14 200.512 689.699 203.256C690.179 205.608 691.855 208.832 690.473 211.037C689.18 213.085 686.759 214.722 684.917 216.231C682.702 218.044 680.546 219.935 678.272 221.68C674.039 224.924 669.09 228.951 663.739 230.078C658.388 231.205 654.723 228.265 653.331 223.287C651.871 218.064 653.204 212.595 654.056 207.382C654.987 201.698 656.016 195.279 653.076 189.957C650.911 186.037 646.902 183.901 642.992 182.049C633.62 177.764 627.31 168.734 626.509 158.46C624.627 137.419 640.229 114.987 661.093 110.646C670.55 108.686 681.428 110.567 689.229 116.447C697.265 122.514 698.774 132.078 697.647 141.565C697.353 144.015 699.94 146.073 702.174 146.092C704.869 146.092 706.388 143.985 706.702 141.565C708.045 130.961 706.026 119.936 698.284 112.106C691.198 104.923 680.791 101.326 670.844 100.709C645.364 99.1994 623.431 120.015 618.208 144.083C615.523 156.471 617.297 169.848 625.313 179.961C628.914 184.428 633.521 187.978 638.759 190.32C640.621 191.212 642.943 192.064 644.345 193.652C646.305 195.916 645.834 199.591 645.521 202.364C644.198 213.948 640.248 228.559 651.793 236.595C663.337 244.631 677.165 234.283 686.093 226.844C690.865 222.866 698.352 218.024 699.519 211.507C700.156 207.921 698.676 204.461 697.931 201.021C697.012 197.143 696.558 193.169 696.579 189.183C696.755 181.039 699.715 173.297 701.645 165.467C703.485 157.603 704.795 149.624 705.565 141.584C705.967 137.88 699.675 136.998 699.048 140.683Z" fill="var(--color-illustration-primary, #382C80)"/>
<path d="M633.094 136.802C637.014 137.361 640.934 139.409 638.367 143.927C636.936 146.426 634.231 147.788 632.624 150.12C629.605 154.491 634.584 157.157 638.063 158.627C640.395 159.607 641.983 155.687 639.778 154.55C638.543 153.903 636.514 153.276 637.034 151.894C637.445 150.816 639.268 149.581 639.974 148.65C641.747 146.69 642.786 144.176 642.914 141.536C642.914 136.028 638.122 134.176 633.427 133.696C631.683 133.529 631.252 136.528 633.006 136.783L633.094 136.802Z" fill="var(--color-illustration-primary, #382C80)"/>
<path d="M652.959 144.26C652.254 144.272 651.591 144.601 651.156 145.156C650.72 145.712 650.558 146.434 650.715 147.122C650.896 147.752 651.359 148.263 651.97 148.505C652.58 148.747 653.267 148.692 653.831 148.356C654.829 147.797 655.443 146.739 655.434 145.596C655.424 144.452 654.793 143.404 653.787 142.861C652.78 142.318 651.558 142.366 650.597 142.986C649.455 143.857 648.903 145.298 649.171 146.708C649.439 148.119 650.48 149.258 651.861 149.65C653.359 149.866 654.827 149.101 655.507 147.749C656.242 146.426 655.017 144.534 653.449 145.064L652.616 145.367C652.376 145.437 652.146 145.536 651.93 145.661C651.567 145.955 652.91 145.416 652.832 145.661C652.959 145.661 652.91 145.661 652.704 145.583L652.998 145.887C652.998 145.887 653.126 146.063 653.077 146.112C653.028 146.161 653.018 145.652 653.077 145.652C653.058 145.756 653.029 145.858 652.988 145.955C652.812 146.249 652.518 146.191 652.214 146.151C651.969 145.848 652.097 146.151 652.214 146.151C652.214 146.073 652.097 146.034 652.057 145.936C652.023 145.814 652.023 145.685 652.057 145.563C652.057 145.456 652.224 145.24 652.057 145.456C651.891 145.671 651.959 145.603 652.057 145.456C652.126 145.367 652.155 145.309 652.057 145.456C651.989 145.544 651.999 145.524 652.057 145.456C652.675 145.015 653.331 145.318 654.017 146.387L653.782 147.229C653.733 147.256 653.687 147.289 653.645 147.327C653.806 147.22 653.957 147.099 654.096 146.965C654.529 146.507 654.653 145.837 654.411 145.255C654.17 144.673 653.609 144.287 652.979 144.27L652.959 144.26Z" fill="var(--color-illustration-primary, #382C80)"/>
<path d="M629.292 140.34C628.587 140.352 627.924 140.681 627.489 141.237C627.053 141.792 626.891 142.514 627.048 143.202C627.229 143.832 627.692 144.343 628.303 144.585C628.913 144.827 629.6 144.772 630.164 144.436C631.162 143.877 631.776 142.819 631.767 141.676C631.757 140.532 631.126 139.484 630.12 138.941C629.113 138.398 627.891 138.446 626.93 139.066C625.788 139.937 625.236 141.378 625.504 142.789C625.772 144.199 626.813 145.338 628.194 145.73C629.692 145.946 631.16 145.181 631.84 143.829C632.575 142.506 631.35 140.614 629.782 141.144L628.949 141.447C628.707 141.516 628.476 141.619 628.263 141.751C627.9 142.035 629.243 141.496 629.165 141.751C629.292 141.751 629.253 141.751 629.047 141.673L629.331 141.977C629.331 141.977 629.459 142.163 629.41 142.202C629.361 142.241 629.351 141.741 629.41 141.741C629.395 141.85 629.365 141.955 629.321 142.055C629.145 142.339 628.851 142.28 628.557 142.241C628.312 141.937 628.43 142.241 628.557 142.241C628.508 142.163 628.439 142.124 628.4 142.026C628.371 141.903 628.371 141.776 628.4 141.653C628.4 141.545 628.567 141.33 628.4 141.545C628.234 141.761 628.302 141.692 628.4 141.545C628.479 141.457 628.498 141.398 628.4 141.545C628.322 141.634 628.341 141.614 628.4 141.545C629.018 141.104 629.674 141.408 630.36 142.476L630.125 143.319L629.988 143.417C630.151 143.313 630.302 143.191 630.439 143.055C630.872 142.597 630.996 141.927 630.754 141.345C630.513 140.762 629.952 140.377 629.321 140.36L629.292 140.34Z" fill="var(--color-illustration-primary, #382C80)"/>
<path d="M699.146 168.084C699.832 170.044 700.518 172.621 699.224 174.464C698.523 175.52 697.348 176.164 696.08 176.187C694.813 176.211 693.614 175.611 692.874 174.581C690.826 171.945 690.914 168.211 691.786 164.987C692.658 161.763 694.197 158.725 694.726 155.432C695.255 152.139 694.667 148.317 691.992 146.318C689.571 144.505 686.053 144.721 683.417 146.201C680.781 147.68 676.018 152.149 675.469 155.393C674.801 151.556 675.247 147.607 676.753 144.015C678.086 140.879 680.203 138.135 681.271 134.852C682.186 132.424 682.072 129.728 680.957 127.385C679.409 124.641 677.341 126.16 674.715 125.964C672.332 125.78 670.046 124.943 668.109 123.543C667.061 122.788 663.68 119.878 664.072 118.329C662.308 125.189 655.458 126.365 649.372 126.336C637.239 126.336 624.95 123.22 614.886 116.448C604.821 109.676 597.167 98.9941 595.217 87.0479C594.485 83.1874 594.653 79.2102 595.707 75.4251C597.804 68.6729 603.782 63.4691 610.593 61.5973C617.528 59.8745 624.857 60.8335 631.114 64.2825C637.315 67.7474 642.529 72.7359 646.265 78.7767C649.391 73.9649 656.957 73.7395 661.485 77.2675C664.134 79.4589 666.041 82.4166 666.943 85.7347C667.923 88.9001 667.433 91.5363 670.109 93.7805C672.01 88.3219 676.322 84.0491 682.27 83.3239C688.077 82.7553 693.755 85.2782 697.225 89.9683C700.571 94.7046 701.647 100.679 700.165 106.285C704.098 104.068 708.805 103.688 713.042 105.246C717.273 106.905 720.245 110.759 720.775 115.272C721.142 119.841 718.446 124.103 714.16 125.728C717.951 127.032 720.879 130.086 722.022 133.929C723.165 137.771 722.383 141.929 719.922 145.093C717.07 148.768 712.298 150.581 707.652 150.728C710.232 153.108 711.908 156.308 712.396 159.783C712.819 163.31 711.324 166.794 708.476 168.917C705.551 170.844 701.683 170.499 699.146 168.084Z" fill="var(--color-illustration-primary, #382C80)"/>
<path d="M695.794 169.005C695.921 169.426 696.823 172.082 696.215 172.327C695.813 172.494 695.304 170.25 695.235 170.005C694.853 166.859 696.548 163.615 697.587 160.753C699.547 155.452 700.253 149.121 696.372 144.466C688.434 134.96 673.509 144.466 671.049 154.168H679.869C678.428 144.289 689.159 137.194 685.837 127.139C684.514 123.131 681.329 120.848 677.115 121.191C675.148 121.508 673.132 121.163 671.382 120.211C670.734 119.841 670.14 119.382 669.618 118.849C668.912 118.182 668.638 117.163 668.638 118.319C668.756 113.067 661.102 112.204 659.632 117.094C658.593 120.573 655.3 121.465 651.968 121.71C647.173 121.997 642.362 121.668 637.65 120.73C627.929 118.898 618.462 114.85 611.239 107.99C604.722 101.797 599.832 93.1824 599.117 84.0978C598.421 74.3468 604.86 66.2324 614.66 65.0172C626.557 63.557 636.308 71.642 642.472 80.9814C644.432 83.9214 648.156 83.7156 650.155 80.9814C652.733 77.4436 658.358 79.6976 660.494 82.4318C663.954 86.8712 662.817 92.81 667.011 96.8966C669.569 99.3858 673.303 98.0138 674.459 94.9366C676.654 89.0566 682.544 86.1166 688.464 88.5078C695 91.2126 697.44 98.543 695.931 105.07C695.51 106.808 696.152 108.632 697.57 109.723C698.987 110.814 700.914 110.969 702.487 110.117C706.525 108.088 711.827 108.098 714.776 111.969C716.932 114.791 716.737 119.721 712.983 121.21C708.603 122.935 708.583 128.453 712.983 130.177C716.7 131.653 718.71 135.691 717.648 139.546C716.433 143.937 711.934 145.916 707.72 146.22C703.947 146.485 701.674 150.973 704.555 153.874C706.731 156.069 708.534 159.097 707.711 162.302C707.132 164.585 704.663 166.741 702.448 164.82C697.96 160.9 691.374 167.457 695.892 171.377C701.929 176.61 710.905 175.502 715.09 168.486C719.382 161.292 716.197 153.119 710.896 147.533L707.72 155.187C716.413 154.766 724.978 150.091 726.811 140.957C728.585 132.137 723.557 124.405 715.463 121.21V130.177C724.283 126.718 728.33 116.369 723.136 108.059C717.667 99.3074 706.691 97.9844 697.979 102.404L704.545 107.451C707.093 96.1126 702.184 84.1762 690.894 80.0112C680.026 75.9638 669.736 82.3338 665.865 92.5944L673.313 90.6344C671.921 89.282 671.999 87.4004 671.568 85.5874C671.096 83.7055 670.402 81.8863 669.5 80.168C667.787 76.6982 665.005 73.8708 661.562 72.1026C654.82 68.8392 646.862 70.466 642.472 76.542H650.155C643.04 65.762 632.064 57.3242 618.795 56.5892C607.035 55.9326 594.06 63.3218 591.287 75.415C588.474 87.7238 593.835 100.797 601.596 110.205C609.956 120.328 622.01 126.865 634.799 129.393C646.196 131.696 664.267 133.764 668.599 119.593L659.593 118.378C659.485 122.151 662.68 125.238 665.473 127.277C667.355 128.681 669.507 129.682 671.794 130.217C673.205 130.53 676.498 131.246 677.958 130.432C677.105 129.57 676.841 129.452 677.154 130.187C677.342 130.667 677.389 131.191 677.291 131.696C677.193 132.716 676.918 133.711 676.478 134.636C675.498 137.077 673.891 139.282 672.832 141.712C670.815 146.413 670.215 151.601 671.108 156.637C671.803 161.243 678.948 160.793 679.928 156.637C680.614 153.835 687.601 146.406 690.139 150.846C691.541 153.296 690.139 156.726 689.336 159.156C688.258 162.37 687.082 165.585 687.111 169.025C687.111 174.356 690.345 180.422 696.421 180.03C703.222 179.589 704.369 172.396 702.458 167.192C700.968 163.047 694.539 164.654 695.794 169.005Z" fill="var(--color-illustration-primary, #382C80)"/>
<path d="M666.904 183.95C663.15 184.815 659.293 185.144 655.448 184.93C651.528 184.773 648.107 183.342 644.325 182.676C639.758 181.872 636.984 187.576 641.11 190.291C649.45 195.71 660.994 193.73 669.373 189.85C672.745 188.291 670.353 183.107 666.904 183.97V183.95Z" fill="var(--color-illustration-primary, #382C80)"/>
<path d="M659.995 139.203C657.055 136.009 652.783 135.783 648.755 136.557C646.501 136.989 647.03 140.605 649.294 140.536C652.234 140.458 655.517 139.752 658.114 141.673C659.603 142.78 661.162 140.468 660.074 139.203H659.995Z" fill="var(--color-illustration-primary, #382C80)"/>
<path d="M643.972 166.084C647.392 165.81 652.145 165.212 652.919 161.086C653.301 159.019 650.538 157.598 649.391 159.597C648.088 161.851 646.03 162.537 643.57 163.066C641.884 163.389 642.237 166.222 643.972 166.084Z" fill="var(--color-illustration-primary, #382C80)"/>
<path d="M717.698 257.567C734.22 310.419 734.22 343.582 741.08 398.952C742.06 406.89 742.942 415.416 739.767 422.609C737.717 426.864 734.659 430.554 730.859 433.36C714.336 446.423 692.894 447.188 672.833 447.168C644.805 447.168 615.797 446.257 590.513 432.644C589.049 432.008 587.805 430.955 586.936 429.616C586.025 427.98 586.093 425.892 586.191 423.952C589.239 365.573 591.826 318.925 613.867 263.536" fill="var(--color-illustration-base, #FFFFFF)"/>
<path d="M714.433 258.469C718.853 274.08 722.891 289.731 725.772 305.705C728.3 319.709 730.015 333.841 731.505 347.992C733.151 363.672 734.612 379.352 736.405 395.032C737.385 403.048 739.188 412.064 736.278 419.875C733.632 426.951 726.625 431.792 720.176 435.134C707.034 441.935 691.697 442.689 677.193 442.778C661.092 442.876 644.755 442.778 628.821 440.259C620.905 439.051 613.119 437.106 605.565 434.448C601.971 433.135 598.463 431.6 595.06 429.851C593.884 429.254 591.718 428.568 590.953 427.352C590.032 425.853 590.953 421.649 591.032 420.051C591.914 403.705 592.835 387.349 594.325 371.051C595.819 353.599 598.372 336.254 601.969 319.111C605.996 300.491 612.023 282.636 618.276 264.663C619.922 259.929 612.161 256.548 610.093 261.213C595.902 293.073 589.346 328.294 585.838 362.81C584.074 380.126 583.094 397.511 582.192 414.897C581.986 419.003 581.359 423.305 581.8 427.401C582.3 431.958 584.966 434.693 588.856 436.77C596.501 440.817 604.596 443.948 612.974 446.1C629.722 450.431 647.176 451.343 664.404 451.509C680.339 451.666 696.891 451.999 712.326 447.442C727.526 442.964 743.686 432.87 745.803 415.857C746.871 407.223 745.088 398.442 744.069 389.887C743.01 381.067 742.05 372.306 741.129 363.505C737.209 327.353 732.75 291.289 720.98 256.685C719.588 252.599 713.257 254.255 714.453 258.489L714.433 258.469Z" fill="var(--color-illustration-primary, #382C80)"/>
<path d="M683.662 461.643C672.323 467.386 658.966 466.994 646.275 466.219C625.401 464.936 604.39 462.927 584.378 456.851C564.367 450.775 545.237 440.328 531.635 424.442C524.275 415.838 517.915 406.312 507.135 401.539C497.658 397.325 488.054 398.335 484.761 386.095C483.33 380.754 483.781 375.089 484.585 369.611C486.789 354.515 491.495 339.892 498.511 326.344C499.383 324.668 500.392 322.904 502.078 322.042C503.631 321.42 505.32 321.214 506.978 321.444C516.699 322.003 527.176 324.276 536.378 320.66C545.835 316.956 553.763 309.958 562.152 304.431C579.978 292.671 600.891 287.066 621.853 284.233C639.964 281.793 661.494 278.451 679.536 280.735C705.389 284.018 731.476 289.476 754.173 302.295C776.87 315.113 795.99 336.193 801.291 361.712C806.348 386.016 798.175 412.055 782.377 431.204C766.58 450.353 743.805 462.985 719.834 469.424" fill="var(--color-illustration-secondary, #7F72FF)"/>
<path d="M682.162 459.075C670.226 464.651 656.447 463.622 643.668 462.76C629.615 461.78 615.562 460.486 601.744 457.664C577.547 452.764 553.439 442.895 536.417 424.393C528.577 415.886 522.324 405.714 512.034 399.893C507.732 397.443 503.028 396.179 498.363 394.64C494.267 393.297 490.768 391.367 489.102 387.153C486.603 380.812 487.789 373.433 488.946 366.916C490.133 360.268 491.81 353.717 493.963 347.316C496.095 340.783 498.77 334.44 501.96 328.353C503.606 325.276 504.9 325.285 508.242 325.521C511.584 325.756 514.857 326.148 518.169 326.403C524.647 326.902 531.38 326.883 537.534 324.55C543.298 322.19 548.74 319.111 553.733 315.387C564.435 307.841 574.96 300.981 587.377 296.532C599.793 292.083 612.426 289.672 625.322 287.957C638.219 286.242 651.253 284.39 664.326 284.233C677.4 284.076 690.326 286.242 703.046 288.829C716.002 291.475 728.918 295.052 740.992 300.482C762.042 309.948 781.005 325.138 791.325 346.159C801.889 367.719 799.802 393.013 788.639 413.887C777.34 435.124 757.74 450.588 735.759 459.82C730.262 462.104 724.629 464.045 718.893 465.631C713.993 467.003 716.09 474.5 720.98 473.197C745.48 466.68 769.167 453.999 785.601 434.301C802.261 414.318 810.954 387.437 805.985 361.585C801.33 337.388 784.602 317.073 764.61 303.5C741.364 287.702 713.17 281.038 685.71 277.275C672.083 275.515 658.289 275.459 644.648 277.109C630.879 278.608 616.924 280.264 603.4 283.322C589.876 286.379 576.391 291.162 564.366 298.296C553.087 304.999 542.395 316.808 528.812 318.406C521.56 319.258 514.288 317.769 507.046 317.426C500.088 317.122 496.874 320.689 493.973 326.569C487.619 339.406 483.276 353.142 481.096 367.298C479.351 378.774 478.95 393.758 491.072 399.716C495.355 401.833 500.088 402.656 504.508 404.401C510.3 406.694 515.014 410.761 519.208 415.298C523.549 420.022 527.332 425.216 531.723 429.871C536.03 434.415 540.762 438.537 545.854 442.18C556.378 449.579 567.981 455.31 580.252 459.173C594.247 463.73 608.839 466.17 623.451 467.719C637.582 469.208 652.468 470.953 666.659 469.492C673.099 468.894 679.373 467.106 685.161 464.22C688.621 462.476 685.592 457.468 682.162 459.075Z" fill="var(--color-illustration-secondary, #7F72FF)"/>
<path d="M682.162 459.075C667.56 465.239 651.175 463.191 635.838 461.868C619.276 460.437 602.665 458.095 586.71 453.303C573.216 449.246 560.25 443.238 548.922 434.683C543.433 430.519 538.441 425.738 534.045 420.434C529.625 415.152 525.519 409.546 520.384 404.911C515.053 400.147 508.674 396.709 501.764 394.875C495.629 393.151 490.749 391.602 488.632 385.007C487.103 380.215 479.763 382.175 481.066 387.094C482.683 393.16 486.182 397.874 491.915 400.618C497.472 403.235 503.597 404.225 508.879 407.478C515.053 411.261 519.757 416.984 524.333 422.482C528.956 428.267 534.132 433.588 539.788 438.368C565.474 459.271 598.412 466.17 630.663 468.748C648.235 470.13 669.109 473.158 685.21 464.22C688.67 462.26 685.632 457.625 682.211 459.075H682.162Z" fill="var(--color-illustration-primary, #382C80)"/>
<path d="M901.134 369.405C900.35 404.029 883.768 437.456 858.533 461.163C820.999 496.443 753.301 518.11 702.625 504.087C679.84 497.785 658.848 478.46 658.623 454.832C658.564 448.344 661.563 440.426 668.06 439.975C673.245 439.612 677.292 444.444 679.389 449.197C681.486 453.95 682.751 459.359 686.573 462.917C685.056 456.171 685.394 449.141 687.553 442.572C688.094 440.44 689.266 438.521 690.914 437.064C695.442 433.625 702.145 437.692 704.634 442.788C707.123 447.884 707.574 453.911 710.573 458.713C709.82 451.994 710.879 445.196 713.64 439.024C714.62 436.731 716.071 434.409 718.344 433.34C722.45 431.38 727.321 434.575 729.585 438.505C731.849 442.435 732.525 447.09 734.671 451.108C734.161 445.924 733.691 440.543 735.455 435.653C737.219 430.763 741.972 426.52 747.146 427.108C751.527 427.607 754.839 431.243 757.348 434.869C759.857 438.495 762.248 442.513 766.08 444.62C769.912 446.727 775.939 445.679 777.174 441.445" fill="var(--color-illustration-base, #FFFFFF)"/>
<path d="M691.835 216.545C739.365 216.545 788.541 225.1 829.035 251.247C864.315 274.002 892.49 312.202 896.772 354.725C901.202 398.688 878.848 441.945 843.852 467.895C811.081 492.16 768.03 506.184 727.164 503.44C707.24 502.107 687.395 496.237 673.92 480.684C667.766 473.579 663.493 464.348 663.513 454.832C663.513 451.833 664.208 446.433 667.433 445.032C671.353 443.425 674.293 449.746 675.39 452.392C677.458 457.419 679.085 462.387 683.034 466.327C686.68 469.973 692.295 466.21 691.305 461.515C690.328 457.038 690.285 452.408 691.178 447.913C691.678 445.532 692.364 439.759 695.911 440.955C699.047 442.013 700.498 445.394 701.419 448.266C702.82 452.676 703.83 457.086 706.192 461.163C708.553 465.239 716.05 463.779 715.56 458.624C715.096 454.48 715.368 450.287 716.364 446.237C716.893 444.179 718.059 438.603 720.519 437.809C722.979 437.015 725.174 440.749 725.929 442.425C727.654 446.1 728.536 450.02 730.3 453.646C732.446 457.997 740.1 456.047 739.678 451.108C739.139 445.482 737.846 437.231 743.04 433.252C748.234 429.273 752.31 436.192 754.878 439.857C758.141 444.522 762.042 449.246 767.99 450.196C773.939 451.147 779.505 448.442 781.71 442.689C783.915 436.937 774.782 434.595 772.665 440.2C772.234 441.337 769.411 440.896 768.52 440.484C765.962 439.299 764.227 436.339 762.718 434.105C759.21 428.921 755.054 423.472 748.469 422.345C742.079 421.267 736.229 424.854 732.789 430.048C728.643 436.221 729.016 444.022 729.692 451.088L739.071 448.55C736.581 443.493 735.846 437.701 732.083 433.301C728.673 429.381 723.263 426.657 717.952 428.137C712.444 429.685 709.72 434.997 707.897 439.995C705.76 445.954 704.98 452.315 705.613 458.615L714.982 456.086C711.778 450.647 711.68 443.875 708.122 438.593C705.045 434.056 699.743 430.371 694.059 430.753C679.604 431.684 679.761 454.116 681.897 464.142L690.169 459.33C686.141 455.322 685.396 449.236 682.613 444.444C679.83 439.652 675.047 435.202 669.118 434.997C657.574 434.605 653.252 447.844 653.938 457.262C655.584 480.077 673.538 497.785 693.844 506.027C714.149 514.269 737.757 514.239 759.053 511.319C781.872 508.112 803.966 500.987 824.36 490.259C844.332 479.812 862.355 465.827 876.212 447.952C891.137 428.695 901.133 405.812 904.142 381.577C909.934 334.968 886.502 289.31 851.624 259.488C812.776 226.237 761.091 213.183 710.945 211.184C704.614 210.929 698.273 210.861 691.933 210.929C688.356 210.929 688.346 216.496 691.933 216.496L691.835 216.545Z" fill="var(--color-illustration-primary, #382C80)"/>
<path d="M893.489 398.188C885.287 426.843 866.618 452.49 842.284 470.012C825.351 482.017 806.535 491.115 786.61 496.933C766.805 502.813 745.94 505.802 725.272 504.126C705.398 502.509 685.729 496.286 672.578 480.479C666.58 473.276 662.444 464.015 662.572 454.528C662.572 451.177 663.464 446.061 666.796 444.336C671.274 442.014 674.792 448.668 676.135 451.863C678.193 456.763 679.673 461.761 683.563 465.583C684.842 466.85 686.801 467.129 688.383 466.268C689.964 465.408 690.794 463.611 690.423 461.849C689.314 456.837 689.337 451.641 690.492 446.639C691.139 443.934 692.07 438.848 695.882 439.995C699.439 441.063 701.174 444.591 702.223 447.835C703.604 452.176 704.535 456.655 706.887 460.575C708.769 463.74 715.031 463.074 714.6 458.732C714.134 454.587 714.389 450.393 715.355 446.335C715.982 443.856 717.315 437.8 720.255 436.888C722.871 436.085 725.39 439.358 726.38 441.269C728.34 445.003 729.114 449.236 730.995 453.029C732.701 456.478 739.11 455.332 738.708 451.186C738.13 445.11 736.964 436.8 742.442 432.488C747.753 428.313 752.301 434.526 755.064 438.564C758.396 443.415 762.208 448.472 768.431 449.344C773.704 450.099 778.917 447.668 780.779 442.484C782.455 437.829 775.115 435.624 773.449 440.22C772.871 441.827 770.411 441.886 769.039 441.524C766.56 440.867 764.727 438.515 763.286 436.545C759.553 431.4 756.201 425.167 749.566 423.413C743.285 421.737 737.297 424.962 733.69 430.067C729.427 436.104 729.839 443.876 730.505 450.863L738.228 449.021C735.748 444.032 735.004 438.309 731.368 433.899C728.242 430.116 722.989 427.51 718.059 428.931C712.807 430.45 710.219 435.732 708.544 440.485C706.526 446.234 705.8 452.357 706.417 458.419L714.13 456.576C711.072 451.441 710.827 445.169 707.838 439.995C705.163 435.369 699.998 431.459 694.5 431.547C688.071 431.655 684.7 437.114 683.142 442.67C681.227 449.541 681.032 456.777 682.574 463.74L689.434 460.006C685.278 455.92 684.534 449.834 681.721 444.934C678.908 440.034 674.116 435.634 668.109 435.849C656.349 436.281 653.83 450.471 654.898 459.644C657.427 481.4 675.625 498.177 695.216 505.704C715.423 513.456 738.835 513.367 759.964 510.359C782.314 507.094 803.947 500.055 823.939 489.544C843.872 479.107 861.747 465.191 875.614 447.404C886.162 433.901 894.098 418.55 899.016 402.137" fill="var(--color-illustration-primary, #382C80)"/>
<path d="M570.061 310.86C568.022 294.363 565.242 277.984 561.721 261.723C565.112 261.037 568.581 262.262 571.746 263.624C581.35 267.73 590.474 273.336 597.452 281.107C604.429 288.879 609.104 298.992 609.104 309.439" fill="var(--color-illustration-secondary, #7F72FF)"/>
<path d="M573.412 310.86C572.484 302.746 571.396 294.648 570.148 286.566C568.865 278.275 566.826 270.023 565.738 261.723L561.72 265.731C567.316 265.564 573.03 269.014 577.783 271.68C582.688 274.368 587.218 277.689 591.258 281.558C595.178 285.34 598.387 289.794 600.734 294.71C603.125 299.776 603.86 305.147 605.125 310.537C606.026 314.457 612.288 314.564 613.092 310.537C615.748 297.248 606.928 283.097 597.579 274.433C592.577 269.842 586.972 265.955 580.919 262.879C574.784 259.724 567.718 256.019 560.672 257.852C558.565 258.457 557.322 260.629 557.869 262.752C560.26 270.592 561.495 279.039 562.965 287.134C564.435 295.229 565.719 303.5 566.885 311.722C567.385 315.427 573.892 314.594 573.471 310.831L573.412 310.86Z" fill="var(--color-illustration-secondary, #7F72FF)"/>
<path d="M561.74 261.703C565.131 261.017 568.6 262.242 571.766 263.605C581.37 267.711 590.493 273.316 597.471 281.088C604.449 288.859 609.123 298.973 609.123 309.42" fill="var(--color-illustration-secondary, #7F72FF)"/>
<path d="M561.74 265.055C567.492 264.349 573.441 268.103 578.253 270.876C583.089 273.797 587.51 277.357 591.395 281.46C595.288 285.281 598.476 289.76 600.812 294.69C603.184 299.815 603.302 305.343 605.124 310.566C605.659 312.318 607.276 313.516 609.108 313.516C610.94 313.516 612.557 312.318 613.092 310.566C615.101 304.176 612.327 296.65 609.593 290.848C606.645 284.686 602.517 279.162 597.441 274.59C592.541 270.161 586.348 266.662 580.438 263.712C574.352 260.664 567.786 257.411 560.838 258.518C557.153 259.096 557.977 265.564 561.73 265.104L561.74 265.055Z" fill="var(--color-illustration-primary, #382C80)"/>
<path d="M562.612 427.362C559.458 444.217 550.477 459.426 537.24 470.326C535.829 471.482 534.3 472.795 534.104 474.608C533.976 476.245 535.084 477.695 536.132 478.94C541.545 485.165 548.069 490.329 555.37 494.169C558.552 486.076 563.898 479.014 570.824 473.756C582.153 465.181 599.823 462.378 605.81 448.197" fill="var(--color-illustration-secondary, #7F72FF)"/>
<path d="M559.505 426.5C555.912 441.534 547.713 455.071 536.054 465.22C533.466 467.464 530.546 469.404 529.635 472.913C528.576 476.98 530.997 480.302 533.555 483.203C539.025 489.418 545.568 494.599 552.87 498.501C555.997 500.196 559.015 498.501 560.26 495.502C562.819 489.342 566.743 483.844 571.735 479.42C575.881 475.755 580.879 473.275 585.798 470.825C595.834 465.827 605.692 460.398 609.71 449.265C611.269 444.944 604.477 442.151 602.331 446.149C597.01 456.067 585.759 459.751 576.332 464.622C564.558 470.532 555.375 480.573 550.538 492.826L557.917 489.828C551.702 486.557 546.045 482.32 541.159 477.274C540.502 476.638 539.887 475.96 539.317 475.245C538.817 474.549 538.798 475.686 538.994 475.108C539.327 474.128 541.512 472.883 542.277 472.168C544.905 469.846 547.352 467.326 549.597 464.632C558.206 454.184 563.791 441.581 565.748 428.186C566.336 424.197 560.514 422.306 559.534 426.471L559.505 426.5Z" fill="var(--color-illustration-primary, #382C80)"/>
<path d="M570.432 284.096C572.534 292.55 573.555 301.237 573.47 309.948C573.47 314.407 580.634 314.368 580.33 309.948C579.779 300.703 578.225 291.545 575.695 282.636C574.715 279.225 569.531 280.676 570.393 284.096H570.432Z" fill="var(--color-illustration-primary, #382C80)"/>
<path d="M550.813 326.765C550.754 326.251 550.831 325.731 551.038 325.256C551.27 324.606 551.81 324.114 552.479 323.943L546.648 321.561C546.793 322.389 546.736 323.24 546.481 324.041C546.036 324.985 545.462 325.862 544.776 326.648C542.228 330.097 547.196 334.782 550.656 332.528C555.213 329.46 556.33 323.335 553.949 318.543C553.067 316.779 550.146 315.887 548.51 317.122C544.864 319.856 542.698 324.051 544.139 328.657C545.481 332.978 551.704 331.175 550.852 326.804L550.813 326.765Z" fill="var(--color-illustration-primary, #382C80)"/>
<path d="M504.135 384.468C508.547 385.551 513.109 385.882 517.63 385.448C522.001 384.929 522.285 378.343 517.63 378.412C513.745 378.576 509.854 378.287 506.037 377.549C501.548 376.569 499.627 383.429 504.135 384.409V384.468Z" fill="var(--color-illustration-primary, #382C80)"/>
<path d="M498.755 347.629C499.049 346.375 499.402 345.121 499.735 343.886C499.973 343.026 500.477 342.265 501.175 341.71L494.58 337.869C493.617 340.327 492.856 342.861 492.306 345.444C492.003 347.404 492.63 349.364 494.609 350.148C496.285 350.824 498.765 350.354 499.588 348.521C500.692 345.747 501.564 342.885 502.195 339.966C502.615 338.253 501.857 336.467 500.333 335.579C498.809 334.692 496.882 334.913 495.599 336.124C492.659 338.917 492.003 342.867 492.13 346.738C492.238 350.403 497.814 351.432 498.716 347.629H498.755Z" fill="var(--color-illustration-primary, #382C80)"/>
<path d="M511.759 350.658C512.076 348.155 513.031 345.776 514.533 343.749L507.447 341.789C507.692 344.249 506.967 345.895 506.046 348.129C505.272 349.982 506.722 352.285 508.418 352.961C510.305 353.751 512.486 353.037 513.543 351.285C515.503 348.257 515.581 344.2 514.915 340.779C514.249 337.359 509.574 337.261 507.967 339.878C506.08 342.811 505.161 346.263 505.34 349.746C505.359 351.371 506.563 352.738 508.173 352.961C509.623 353.127 511.524 352.245 511.759 350.619V350.658Z" fill="var(--color-illustration-primary, #382C80)"/>
<path d="M643.923 292.103C666.629 290.486 691.09 290.055 710.641 299.541C712.473 300.287 714.112 301.44 715.433 302.912C716.646 304.276 716.603 306.343 715.335 307.655C712.866 309.929 708.191 308.41 704.732 307.067C689.179 301.05 671.069 302.167 653.83 301.854C650.498 301.795 646.843 301.57 644.452 299.727C642.061 297.885 642.492 293.926 645.736 293.475" fill="var(--color-illustration-primary, #382C80)"/>
<path d="M643.922 294.964C656.025 294.817 668.217 294.739 680.261 295.944C686.157 296.51 691.989 297.612 697.685 299.237C700.651 300.071 703.555 301.109 706.378 302.344C707.714 302.902 709.008 303.557 710.249 304.304C710.249 304.304 713.64 306.773 712.268 304.059C712.268 304.127 709.837 303.667 709.769 303.647C708.502 303.297 707.256 302.878 706.035 302.393C703.234 301.359 700.374 300.495 697.47 299.805C691.504 298.495 685.44 297.689 679.34 297.395C673.126 297.052 666.903 297.061 660.72 297.022C657.711 297.022 654.653 297.12 651.655 296.875C651.116 296.826 648.107 295.895 647.842 296.052C647.578 296.209 647.901 297.816 647.078 298.071C653.027 296.238 650.518 287.81 644.54 288.869C639.12 289.849 636.553 296.111 639.179 300.825C642.119 306.175 649.067 306.705 654.526 306.763C667.776 306.999 681.329 306.175 694.373 309.057C700.086 310.321 705.956 313.78 711.876 313.653C717.795 313.525 722.538 308.665 720.48 302.736C718.589 297.297 711.474 294.896 706.623 293.092C700.781 290.953 694.726 289.451 688.561 288.614C673.675 286.477 658.858 287.33 644.001 289.241C640.463 289.692 640.198 295.013 644.001 294.964H643.922Z" fill="var(--color-illustration-primary, #382C80)"/>
<path d="M806.877 368.68C810.611 367.524 817.088 364.035 820.812 366.72C821.661 367.241 822.188 368.155 822.214 369.15C822.214 369.415 821.459 369.67 821.822 369.846C821.214 369.562 822.439 367.553 822.861 367.161C825.722 364.486 831.465 363.133 835.258 362.996C839.05 362.859 843.225 364.397 844.293 368.494C845.646 373.737 853.593 371.522 852.388 366.259C850.016 355.881 838.394 353.265 829.329 355.479C821.626 357.39 809.934 363.006 814.158 372.963C818.147 382.4 831.984 376.941 829.711 367.367C828.672 362.986 824.703 359.929 820.401 359.184C815.021 358.263 810.101 360.722 805.181 362.496C801.369 363.858 802.908 369.885 806.877 368.641V368.68Z" fill="var(--color-illustration-primary, #382C80)"/>
<path d="M769.431 334.184C774.126 334.184 774.135 326.893 769.431 326.893C764.727 326.893 764.727 334.184 769.431 334.184Z" fill="var(--color-illustration-base, #FFFFFF)"/>
<path d="M759.7 339.633C764.218 339.633 764.228 332.596 759.7 332.596C755.173 332.596 755.163 339.633 759.7 339.633Z" fill="var(--color-illustration-base, #FFFFFF)"/>
<path d="M772.548 352.392C776.968 352.392 776.968 345.532 772.548 345.532C768.128 345.532 768.118 352.392 772.548 352.392Z" fill="var(--color-illustration-base, #FFFFFF)"/>
<path d="M633.839 320.905L637.534 320.277C639.047 319.831 639.938 318.27 639.553 316.74C639.106 315.217 637.532 314.323 635.995 314.721L632.291 315.348C630.768 315.795 629.875 317.369 630.272 318.905C630.715 320.437 632.297 321.337 633.839 320.934V320.905Z" fill="var(--color-illustration-base, #FFFFFF)"/>
<path d="M553.439 293.563C552.945 287.673 551.384 281.921 548.833 276.589C547.471 273.796 545.52 271.444 544.031 268.749C542.718 266.397 545.128 267.132 546.736 267.416C548.343 267.701 549.852 268.2 551.459 268.445C554.86 268.965 556.83 264.888 553.831 262.82C548.225 258.959 534.456 258.665 536.749 268.828C537.661 272.885 541.257 276.236 543.159 279.902C545.374 284.169 546.836 288.788 547.48 293.553C547.97 297.248 553.801 297.473 553.439 293.553V293.563Z" fill="var(--color-illustration-primary, #382C80)"/>
<path d="M773.479 300.168C779.584 289.476 788.776 281.695 797.714 273.424C802.202 269.268 806.789 265.221 811.542 261.36C813.913 259.439 816.35 257.613 818.853 255.882C821.508 254.059 824.478 252.569 826.8 250.335C829.995 247.267 826.732 241.515 822.43 242.828C816.324 244.729 810.67 249.923 805.77 253.902C800.6 258.203 795.651 262.762 790.942 267.563C782.308 276.177 771.401 285.723 767.873 297.816C766.893 301.128 771.724 303.167 773.439 300.168H773.479Z" fill="var(--color-illustration-primary, #382C80)"/>
<path d="M513.014 269.445C518.424 274.394 521.139 282.91 523.647 289.584C526.587 297.375 527.94 305.862 531.282 313.457C532.879 317.083 538.681 315.162 538.563 311.497C538.279 302.442 533.937 292.877 530.439 284.674C527.499 277.814 524.235 267.799 516.787 264.575C513.847 263.281 510.172 266.858 513.014 269.475V269.445Z" fill="var(--color-illustration-primary, #382C80)"/>
<path d="M446.796 123.994C440.152 124.846 433.439 122.132 428.176 118.055C417.614 109.777 411.954 96.7202 413.133 83.3529C414.597 70.0103 422.709 58.3132 434.693 52.2673C440.62 49.2265 447.362 48.1522 453.94 49.1999C460.516 50.4151 466.426 54.1783 471.12 58.9313C481.449 69.4075 486.153 85.3913 482.302 99.5621C478.45 113.733 465.818 125.375 451.226 127.198" fill="var(--color-illustration-secondary, #7F72FF)"/>
<path d="M446.796 120.407C432.733 121.681 421.316 107.432 418.376 95.0444C415.518 82.5599 419.772 69.5167 429.44 61.1168C434.575 56.4638 441.143 53.6987 448.06 53.2768C454.92 53.0318 461.251 55.962 466.288 60.5288C475.99 69.3488 481.252 83.3922 478.489 96.3576C475.48 110.489 463.906 120.417 450.137 123.572C446.051 124.552 446.874 131.187 451.117 130.961C467.268 130.099 480.851 117.673 485.829 102.639C490.974 87.1358 486.26 69.3684 475.578 57.334C469.698 50.6798 461.623 45.574 452.685 44.5352C444.052 43.4866 435.045 46.0934 427.891 50.9248C414.74 59.7742 406.9 75.7188 408.723 91.6438C410.888 110.264 426.519 129.707 446.796 127.571C451.313 127.1 451.411 119.985 446.796 120.407Z" fill="var(--color-illustration-secondary, #7F72FF)"/>
<path d="M416.004 83.5002C415.024 93.2045 418.14 102.877 424.599 110.186C427.539 113.498 430.479 117.271 434.624 119.006C438.938 120.873 443.545 121.971 448.237 122.249C466.533 123.229 481.116 106.089 481.086 88.5374C481.086 78.5218 476.951 68.1142 469.375 61.4502C468.642 60.706 467.444 60.6972 466.7 61.4306C465.956 62.164 465.947 63.3618 466.68 64.106C473.129 71.7402 477.46 80.9522 476.627 91.1148C475.712 100.869 470.162 109.588 461.712 114.547C457.135 117.203 451.807 118.267 446.561 117.575C441.661 117.046 435.859 115.674 432.419 111.989C428.98 108.304 425.559 104.962 423.266 100.562C420.518 95.3142 419.263 89.4122 419.64 83.5002C419.807 81.1972 416.249 81.2266 416.053 83.5002H416.004Z" fill="var(--color-illustration-base, #FFFFFF)"/>
<path d="M490.2 127.218C487.425 119.741 482.372 113.324 475.754 108.872C473.816 107.428 471.544 106.498 469.149 106.168C466.706 105.868 464.302 106.972 462.936 109.019C462.259 110.435 461.965 112.002 462.083 113.567C462.128 118.074 462.913 122.544 464.406 126.797C450.47 122.877 434.261 130.031 427.715 142.937" fill="var(--color-illustration-base, #FFFFFF)"/>
<path d="M493.14 126.405C489.925 116.428 482.007 104.227 470.923 101.993C465.582 100.915 459.751 103.384 458.085 108.853C456.301 114.733 458.085 122.328 459.976 128.002L465.621 122.357C449.716 118.163 431.164 125.581 423.873 140.673C421.413 145.76 428.656 150.179 431.556 145.162C437.858 134.235 450.764 127.992 463.181 131.207C466.405 132.04 469.982 128.972 468.826 125.562C467.394 121.717 466.654 117.65 466.64 113.547C466.689 112.008 466.562 110.921 468.248 110.607C469.933 110.293 472.168 111.675 473.598 112.567C479.747 116.473 484.608 122.104 487.573 128.757C488.994 131.902 494.188 129.668 493.14 126.405Z" fill="var(--color-illustration-primary, #382C80)"/>
<path d="M451.196 63.1258C445.483 61.009 439.808 63.753 436.418 68.5158C433.233 72.9944 430.988 80.0896 435.624 84.431C437.605 86.1041 440.221 86.8209 442.778 86.391C446.051 86.0676 449.559 83.8822 452.862 84.3526C458.379 85.1366 456.713 91.2126 453.94 94.0154C451.022 96.889 447.228 98.7065 443.16 99.18C440.436 99.5524 440.338 103.884 443.16 103.561C448.913 102.924 454.567 100.415 458.213 95.7794C461.329 91.8006 462.28 85.558 458.027 81.9516C452.823 77.5416 447.09 82.3142 441.474 82.226C435.594 82.1182 437.221 75.366 439.132 71.9948C441.425 67.967 445.551 64.929 450.334 66.4382C452.48 67.1144 453.274 63.8706 451.245 63.1062L451.196 63.1258Z" fill="var(--color-illustration-primary, #382C80)"/>
<path d="M436.055 61.2048C436.431 63.2103 437.043 65.1642 437.878 67.026C439.005 69.4368 442.68 67.3298 441.474 64.919C440.672 63.4269 439.981 61.8776 439.406 60.2836C439.152 59.3581 438.195 58.8141 437.27 59.0684C436.344 59.3228 435.8 60.2793 436.055 61.2048Z" fill="var(--color-illustration-primary, #382C80)"/>
<path d="M452.813 99.1015C453.131 100.73 453.682 102.305 454.45 103.776C455.557 105.736 458.85 104.423 458.135 102.218C457.684 100.807 457.047 99.4739 456.596 98.0627C456.41 97.3869 455.878 96.8615 455.201 96.6844C454.523 96.5072 453.802 96.7052 453.309 97.2038C452.817 97.7023 452.628 98.4257 452.813 99.1015Z" fill="var(--color-illustration-primary, #382C80)"/>
<path d="M454.254 55.139L454.793 55.5114C455.138 55.7244 455.555 55.7884 455.948 55.6887C456.342 55.589 456.678 55.3341 456.88 54.9822C457.272 54.2677 457.035 53.3708 456.341 52.9438L455.812 52.5616C455.47 52.3624 455.063 52.3073 454.681 52.4084C454.298 52.5095 453.972 52.7585 453.773 53.1006C453.384 53.8132 453.616 54.7056 454.303 55.139H454.254Z" fill="var(--color-illustration-base, #FFFFFF)"/>
<path d="M401.216 99.6309C399.599 100.356 397.159 99.7779 395.728 98.9253C391.759 96.5537 388.427 102.502 392.151 105.06C396.228 107.863 400.971 107.02 404.587 104.002C405.576 103.014 405.669 101.443 404.803 100.346C403.942 99.2643 402.426 98.9619 401.216 99.6309Z" fill="var(--color-illustration-primary, #382C80)"/>
<path d="M636.592 228.256C633.395 235.089 634.663 243.18 639.797 248.708C645.226 254.814 653.713 257.528 661.68 257.734C679.663 258.175 695.265 245.847 702.683 230.118C703.928 227.491 700.135 225.169 698.763 227.805C692.08 240.3 681.398 250.58 666.962 252.854C660.102 253.941 652.556 252.942 646.578 249.169C640.248 245.18 636.112 237.115 639.277 229.824C640.061 228.02 637.464 226.423 636.592 228.256Z" fill="var(--color-illustration-secondary, #7F72FF)"/>
<path d="M659.603 673.136C664.042 635.485 654.938 594.981 671.676 560.975C674.45 555.321 678.115 549.794 683.573 546.658C687.915 544.178 692.991 543.424 697.93 542.738C743.964 536.309 790.204 531.824 836.649 529.282" fill="var(--color-illustration-base, #FFFFFF)"/>
<path d="M662.856 674.028C667.756 639.964 660.103 603.762 672.147 570.844C674.724 563.788 678.301 555.321 684.887 551.078C688.434 548.784 692.727 548.059 696.872 547.471C701.772 546.785 706.613 546.217 711.484 545.629C730.927 543.267 750.38 541.052 769.882 539.259C792.118 537.23 814.374 535.77 836.659 534.408C843.225 534.016 843.304 523.794 836.659 524.128C795.323 526.166 753.918 530.243 712.934 535.946C703.605 537.25 693.197 537.612 684.446 541.317C676.684 544.6 671.539 551.391 667.923 558.771C659.877 575.166 657.496 593.414 656.986 611.475C656.398 632.055 657.966 652.635 656.251 673.137C655.928 676.87 662.327 677.801 662.866 674.028H662.856Z" fill="var(--color-illustration-primary, #382C80)"/>
<path d="M703.762 569.923C711.278 575.627 717.08 586.279 713.846 595.481C711.288 602.763 706.819 609.574 705.134 617.13C704.438 620.295 704.526 623.235 707.221 625.362C712.072 629.213 719.402 627.469 725.018 626.959C739.835 625.652 754.65 624.303 769.461 622.912C786.114 621.363 802.751 619.678 819.372 617.855C824.321 617.316 824.468 609.554 819.372 610.015C790.619 612.377 761.915 615.16 733.22 618.08C726.556 618.756 719.598 620.119 712.934 619.589C710.896 619.433 713.17 619.374 712.572 620.383C712.748 620.079 712.621 619.58 712.64 619.501C713.022 617.959 713.483 616.438 714.022 614.944C716.59 607.967 720.667 601.136 722.009 593.766C724.067 582.487 715.806 570.433 707.162 564.141C703.624 561.564 700.371 567.385 703.762 569.962V569.923Z" fill="var(--color-illustration-primary, #382C80)"/>
<path d="M612.494 920.626C626.302 868.431 637.974 815.678 648.215 762.66C651.155 747.675 654.095 732.681 656.486 717.58C657.289 712.533 649.694 710.249 648.646 715.433C643.422 741.805 638.846 768.353 633.573 794.686C628.242 821.283 622.633 847.822 616.747 874.301C613.425 889.217 610.2 904.152 606.839 919.058C606.026 922.703 611.494 924.252 612.464 920.606L612.494 920.626Z" fill="var(--color-illustration-primary, #382C80)"/>
<path d="M879.809 906.083C871.263 855.966 861.316 806.201 849.664 756.76C846.381 742.795 843.01 728.86 839.423 714.973C837.923 709.162 829.015 711.621 830.446 717.443C842.539 766.746 853.858 816.197 864.815 865.766C867.898 879.754 870.884 893.761 873.772 907.788C874.595 911.767 880.475 910.042 879.809 906.132V906.083Z" fill="var(--color-illustration-primary, #382C80)"/>
<path d="M834.827 559.957C837.756 563.574 839.268 568.134 839.08 572.785C839.08 577.303 845.94 577.293 846.077 572.785C846.11 566.361 843.716 560.162 839.374 555.429C836.65 552.293 832.191 556.84 834.837 559.957H834.827Z" fill="var(--color-illustration-primary, #382C80)"/>
<path d="M465.17 493.953C466.474 487.515 463.612 482.115 460.809 476.509C457.713 470.335 456.782 464.132 463.25 459.732C469.718 455.332 479.116 455.42 486.662 455.106C495.942 454.724 505.223 455.194 514.484 455.655C520.589 455.969 520.599 446.414 514.484 446.149C504.351 445.728 494.159 445.238 484.026 445.982C475.117 446.639 465.082 447.756 457.85 453.499C451.803 458.301 448.775 465.965 451.284 473.462C453.479 479.998 459.986 485.878 459.124 493.14C458.712 496.57 464.475 497.334 465.161 493.953H465.17Z" fill="var(--color-illustration-primary, #382C80)"/>
<path d="M319.396 86.7341C329.107 78.6868 336.715 68.3984 341.564 56.7559L362.32 93.3001C349.022 100.66 343.269 112.9 338.8 126.679C335.057 118.349 333.009 91.7811 319.534 86.3813" fill="var(--color-illustration-secondary, #7F72FF)"/>
<path d="M321.641 88.9681C331.621 80.8207 339.507 70.4042 344.641 58.5881H338.497L359.077 95.2793L360.439 90.0951C346.719 97.8077 339.741 111.224 334.959 125.679L342.299 124.699C339.565 118.29 338.595 109.548 336.164 102.463C333.332 94.2013 329.108 86.0281 320.621 82.5785C316.476 80.8929 313.438 88.0077 317.554 89.8697C324.522 93.0253 327.354 101.306 329.392 108.098C331.431 114.889 332.509 122.18 335.361 128.746C336.84 132.147 341.75 130.706 342.711 127.766C346.768 115.193 352.393 103.443 364.271 96.5925C366.048 95.5087 366.646 93.2113 365.623 91.3985L344.631 54.9621C342.956 52.0221 339.241 53.1491 338.134 55.8049C333.475 66.8676 326.293 76.6873 317.162 84.4797C314.055 87.1551 318.524 91.4965 321.631 88.9485L321.641 88.9681Z" fill="var(--color-illustration-secondary, #7F72FF)"/>
<path d="M524.726 67.418C528.508 65.6246 530.851 61.7732 532.507 57.9316C534.163 54.09 535.447 49.9838 537.936 46.6616C540.445 53.8709 543.906 60.7129 548.226 67.0064C544.522 67.5258 542.532 71.5242 541.18 75.013L538.014 83.1176C537.017 77.6774 533.553 73.0076 528.636 70.4756" fill="var(--color-illustration-secondary, #7F72FF)"/>
<path d="M526.186 69.9073C535.006 65.8697 535.986 55.6777 541.238 48.5923L534.241 47.6711C536.789 55.3445 540.484 62.2143 544.384 69.2311L547.04 62.7239C538.632 64.5467 536.329 75.0523 533.653 81.9123H542.375C541.055 75.3484 536.796 69.753 530.821 66.7321C525.921 64.2331 521.589 71.3871 526.45 74.2095C530.219 76.3555 532.853 80.0506 533.653 84.3133C534.633 89.1251 540.915 88.0765 542.375 84.3133C543.473 81.5007 544.502 78.6489 545.668 75.8657C546.452 74.0135 547.285 71.7791 549.402 71.2891C552.949 70.4757 553.322 66.2911 551.362 63.8607C547.089 58.5981 544.022 51.9537 541.63 45.6425C541.161 44.2103 539.911 43.1743 538.417 42.9779C536.922 42.7814 535.447 43.4592 534.623 44.7213C530.409 50.8953 530.017 60.7639 523.275 64.9289C520.061 66.8889 522.863 71.4165 526.215 69.9073H526.186Z" fill="var(--color-illustration-secondary, #7F72FF)"/>
<path d="M526.755 127.208C527.96 124.424 528.999 120.642 530.9 118.26L525.755 116.898C527.277 122.208 529.913 127.132 533.487 131.343L534.291 125.081C531.067 127.117 528.464 129.998 526.764 133.411H533.83C532.497 131.333 531.194 129.256 529.773 127.237C526.833 122.974 519.875 126.816 522.688 131.373C523.981 133.47 525.383 135.498 526.764 137.537C528.332 139.869 532.429 140.477 533.83 137.537C534.803 135.314 536.353 133.392 538.319 131.97C540.377 130.5 541.072 127.658 539.122 125.708C535.952 122.422 533.331 118.646 531.361 114.526C529.822 111.498 525.961 113.37 525.618 116.085C525.236 119.083 523.236 122.464 522.09 125.248C520.943 128.031 525.588 129.844 526.725 127.208H526.755Z" fill="var(--color-illustration-secondary, #7F72FF)"/>
<path d="M376.785 767.422C381.358 770.735 385.932 774.001 390.505 777.222C392.671 778.761 394.778 775.155 392.592 773.655C387.947 770.473 383.292 767.318 378.627 764.188C376.667 762.846 374.874 766.001 376.765 767.373L376.785 767.422Z" fill="var(--color-illustration-primary, #382C80)"/>
<path d="M396.64 753.82C402.442 730.516 414.545 708.995 425.531 687.807C435.902 667.439 447.291 647.605 459.654 628.38C472.198 609.172 486.114 590.826 502.137 574.353C518.572 557.428 537.064 542.659 556.429 529.273C578.107 514.279 600.862 500.98 623.481 487.554C625.872 486.133 623.706 482.409 621.295 483.82C580.449 507.546 539.093 532.075 505.058 565.229C471.689 597.726 447.149 637.749 425.756 678.84C419.615 690.6 413.653 702.474 407.871 714.463C401.922 726.85 396.523 739.522 393.494 752.967C393.034 754.986 396.091 755.849 396.601 753.83L396.64 753.82Z" fill="var(--color-illustration-secondary, #7F72FF)"/>
<path d="M407.88 787.14C423.725 739.55 446.054 694.372 474.236 652.88C502.783 610.676 537.662 573.123 577.646 541.542C601.793 522.559 627.734 506.84 654.586 492.052C656.84 490.817 654.86 487.544 652.626 488.641C628.057 500.499 604.782 515.778 583.046 532.173C562.089 547.926 542.444 565.352 524.304 584.28C489.365 620.955 460.04 662.595 437.28 707.848C424.588 733.187 413.842 759.455 405.136 786.424C404.568 788.159 407.283 788.894 407.851 787.179L407.88 787.14Z" fill="var(--color-illustration-secondary, #7F72FF)"/>
<path d="M430.656 803.31C465.158 709.071 524.202 625.755 601.685 561.975C623.58 544.121 646.757 527.901 671.03 513.446C673.235 512.123 671.246 508.693 669.002 509.986C625.392 535.221 585.506 567.424 550.637 603.723C515.837 639.913 486.047 680.606 462.065 724.714C448.515 749.671 436.951 775.656 427.481 802.428C426.765 804.447 429.96 805.299 430.685 803.31H430.656Z" fill="var(--color-illustration-secondary, #7F72FF)"/>
<path d="M458.34 819.999C488.152 748.881 521.276 674.959 582.682 625.273C598.533 612.519 615.997 601.912 634.622 593.727C636.514 592.884 635.142 589.542 633.192 590.336C561.583 619.511 514.612 687.983 482.83 755.417C472.952 776.35 464.083 797.724 455.39 819.117C454.636 820.979 457.634 821.763 458.389 819.95L458.34 819.999Z" fill="var(--color-illustration-secondary, #7F72FF)"/>
<path d="M712.954 528.694C714.337 527.668 715.609 526.498 716.747 525.205C718.001 523.97 719.246 522.716 720.451 521.422C722.195 519.56 719.412 516.758 717.638 518.61C716.413 519.894 715.228 521.197 714.061 522.53C712.827 523.736 711.723 525.07 710.769 526.509C710.42 527.136 710.53 527.918 711.037 528.425C711.545 528.933 712.327 529.042 712.954 528.694Z" fill="var(--color-illustration-secondary, #7F72FF)"/>
<path d="M355.578 737.777C376.815 671.95 413.104 610.377 459.184 558.976C472.185 544.537 485.975 530.829 500.491 517.914C502.529 516.091 499.511 513.151 497.492 514.974C444.856 560.76 402.432 618.736 373.767 682.27C365.788 700.136 358.816 718.435 352.883 737.081C352.325 738.806 355.029 739.541 355.578 737.826V737.777Z" fill="var(--color-illustration-secondary, #7F72FF)"/>
<path d="M522.834 498.598C523.734 498.531 524.429 497.781 524.429 496.879C524.429 495.976 523.734 495.227 522.834 495.159C521.935 495.227 521.239 495.976 521.239 496.879C521.239 497.781 521.935 498.531 522.834 498.598Z" fill="var(--color-illustration-secondary, #7F72FF)"/>
<path d="M330.137 708.27C351.764 658.08 381.783 611.942 418.905 571.834C429.382 560.564 440.465 549.862 451.912 539.621C453.872 537.897 451.01 535.084 449.07 536.779C407.585 573.225 373.01 616.85 347.003 665.561C339.817 679.095 333.334 692.99 327.579 707.192C326.981 708.642 329.539 709.73 330.137 708.27Z" fill="var(--color-illustration-secondary, #7F72FF)"/>
<path d="M474.02 515.376C474.924 515.376 475.657 514.643 475.657 513.74C475.657 512.836 474.924 512.103 474.02 512.103C473.117 512.103 472.384 512.836 472.384 513.74C472.384 514.643 473.117 515.376 474.02 515.376Z" fill="var(--color-illustration-secondary, #7F72FF)"/>
<path d="M317.789 688.258C326.218 669.151 336.865 651.103 349.512 634.485C350.551 633.103 348.208 631.281 347.091 632.623C333.709 649.036 322.982 667.445 315.3 687.18C314.732 688.591 317.172 689.64 317.789 688.228V688.258Z" fill="var(--color-illustration-secondary, #7F72FF)"/>
<path d="M371.062 605.173C372.052 605.173 372.855 604.37 372.855 603.38C372.855 602.389 372.052 601.586 371.062 601.586C370.071 601.586 369.269 602.389 369.269 603.38C369.269 604.37 370.071 605.173 371.062 605.173Z" fill="var(--color-illustration-secondary, #7F72FF)"/>
<path d="M310.488 858.16C317.024 859.14 315.623 867.343 315.143 871.998C314.917 874.232 317.299 876.388 319.425 876.28C328.287 875.842 336.306 881.503 338.859 890C340.466 895.292 348.659 893.087 347.179 887.707C343.916 875.604 331.891 867.049 319.425 867.676L323.718 871.959C324.6 863.139 322.287 851.712 311.429 851.153C307.509 850.947 306.529 857.553 310.449 858.121L310.488 858.16Z" fill="var(--color-illustration-primary, #382C80)"/>
<path d="M212.233 769.333C216.545 775.585 213.997 783.612 211.831 790.207C211.194 792.167 212.576 794.852 214.673 795.215C218.796 795.841 222.555 797.928 225.267 801.095C228.07 804.427 228.874 808.288 229.736 812.433C230.471 815.942 236.429 816.128 237.017 812.433C238.909 800.536 228.197 789.002 216.839 787.316L219.681 792.324C222.455 783.131 224.415 773.008 217.721 765.021C215.193 761.983 209.881 766.001 212.204 769.284L212.233 769.333Z" fill="var(--color-illustration-primary, #382C80)"/>
<path d="M266.515 879.152C258.999 881.641 255.824 889.677 257.441 897.106C259.234 905.357 266.751 910.63 273.434 914.854C290.301 925.609 307.997 935.004 326.354 942.95C344.207 950.744 362.809 956.694 381.871 960.708C391.773 962.736 401.792 964.14 411.869 964.912C421.248 965.627 430.793 965.97 440.093 964.255C449.677 962.491 458.576 957.954 464.319 949.918C469.758 942.313 471.267 932.886 467.367 924.301C465.406 920.106 458.047 923.144 459.83 927.476C462.398 933.679 460.81 940.304 456.89 945.586C452.314 951.692 445.13 954.642 437.8 955.984C429.901 957.425 421.65 956.964 413.682 956.464C405.372 955.899 397.101 954.865 388.908 953.368C355.588 947.272 323.826 934.287 294.387 917.705C286.703 913.374 278.354 909.121 271.484 903.535C268.622 901.212 265.604 898.125 265.094 894.303C264.722 891.549 265.575 887.512 268.466 886.336C272.778 884.581 271.141 877.604 266.506 879.152H266.515Z" fill="var(--color-illustration-primary, #382C80)"/>
<path d="M173.826 784.2C165.34 784.2 160.175 792.755 161.341 800.556C162.743 809.993 170.828 818.108 176.953 824.938C189.92 839.383 205.144 851.629 222.033 861.198C231.607 866.618 241.838 871.655 252.413 874.732C257.93 876.33 259.753 868.401 254.725 866.353C244.925 862.345 235.263 858.435 226.031 853.231C217.003 848.144 208.418 842.309 200.365 835.787C192.309 829.283 184.836 822.088 178.031 814.286C174.571 810.366 170.377 805.985 168.877 800.811C167.78 797.028 168.877 790.766 173.777 790.57C177.864 790.413 177.903 784.2 173.777 784.19L173.826 784.2Z" fill="var(--color-illustration-primary, #382C80)"/>
<path d="M104.57 415.906C104.57 388.466 104.57 361.003 104.57 333.518C104.57 326.599 104.544 319.677 104.492 312.751C104.492 307.518 103.512 299.864 110.078 298.365C113.155 297.659 116.565 297.826 119.701 297.65L129.854 297.081L150.14 295.964C162.557 295.278 175.512 294.082 187.576 297.836C190.232 298.659 194.436 299.649 195.416 302.657C196.396 305.666 195.544 309.586 195.416 312.585L194.867 333.4L193.74 374.305L193.162 395.101L192.888 404.803C192.79 408.341 193.27 412.447 192.584 415.896C192.094 418.386 191.29 418.836 188.733 418.787C186.9 418.729 185.058 418.65 183.225 418.572L171.465 418.111L148.719 417.21C133.137 416.592 117.428 415.357 101.846 415.632C98.9058 415.681 99.043 419.816 101.846 420.071C117.144 421.512 132.667 421.473 148.023 422.031L170.779 422.864L181.804 423.266C185.175 423.384 188.899 423.991 192.251 423.472C198.582 422.492 197.288 415.112 197.415 410.35L198.043 386.781L199.268 341.024L199.905 317.455C200.003 313.761 200.15 310.066 200.199 306.362C200.199 303.716 200.15 300.982 198.542 298.747C195.367 294.337 187.851 292.867 182.862 291.975C176.415 290.892 169.871 290.501 163.341 290.809C148.543 291.25 133.745 292.436 118.957 293.289C113.763 293.592 107.001 293.004 103.169 297.287C99.631 301.256 100.023 307.136 100.052 312.075C100.261 346.702 100.588 381.329 101.032 415.955C101.032 416.913 101.809 417.69 102.767 417.69C103.725 417.69 104.502 416.913 104.502 415.955L104.57 415.906Z" fill="var(--color-illustration-primary, #382C80)"/>
<path d="M114.801 400.961L114.39 321.434C114.39 318.347 114.566 314.799 117.006 312.898C118.623 311.644 120.799 311.477 122.886 311.36L153.08 309.645C162.792 309.096 172.915 308.616 181.833 312.496C183.009 312.907 184.048 313.636 184.832 314.603C185.753 315.917 185.744 317.641 185.695 319.239L183.46 402C183.507 402.704 183.343 403.407 182.99 404.019C182.314 404.92 181.03 404.999 179.883 404.92L114.066 402.421" fill="var(--color-illustration-secondary, #7F72FF)"/>
<path d="M112.117 380.704L121.348 369.562L125.543 364.495C126.116 363.644 126.772 362.853 127.503 362.133C128.934 361.006 129.247 361.32 130.374 362.065C132.256 363.319 133.922 365.985 135.46 367.66L140.576 373.227L145.241 378.284C146.427 379.567 147.612 381.332 149.376 381.851C152.757 382.831 154.933 379.352 156.952 377.255C160.098 373.961 163.524 370.948 167.193 368.248C170.682 365.7 172.896 365.534 176.199 368.317C178.61 370.355 180.727 372.668 183.667 373.952C186.607 375.236 188.998 371.179 186.136 369.728C180.844 367.033 176.914 359.791 170.094 361.183C166.536 361.908 163.469 364.779 160.744 367.014C158.784 368.591 156.971 370.257 155.207 371.992C153.943 373.237 151.483 377.01 149.67 377.294L151.542 377.539C149.239 376.49 147.044 373.237 145.319 371.414L139.175 364.936C136.666 362.3 133.059 356.518 128.914 356.802C124.994 357.067 122.417 362.045 120.241 364.76L109.549 378.137C108.109 379.94 110.608 382.517 112.117 380.704Z" fill="var(--color-illustration-base, #FFFFFF)"/>
<path d="M153.081 337.408C149.719 337.82 147.701 342.24 149.376 345.189C151.052 348.139 155.57 348.796 158.196 346.659C160.272 344.922 160.999 342.05 160 339.535C158.888 337.06 156.228 335.668 153.561 336.164" fill="var(--color-illustration-base, #FFFFFF)"/>
<path d="M153.081 335.957C149.161 335.83 146.387 340.181 146.828 343.797C147.328 347.953 151.473 350.491 155.452 350.069C157.654 349.796 159.655 348.653 161.009 346.895C162.362 345.136 162.955 342.909 162.655 340.71C162.328 338.494 161.099 336.511 159.261 335.231C157.422 333.951 155.136 333.487 152.943 333.948C150.425 334.468 150.983 338.79 153.561 338.496C155.57 338.27 157.765 339.064 158.128 341.318C158.289 342.323 158.043 343.35 157.446 344.174C156.848 344.997 155.948 345.55 154.943 345.708C150.278 346.336 149.523 340.475 153.473 338.848C154.151 338.634 154.576 337.962 154.479 337.257C154.383 336.552 153.792 336.02 153.081 335.997V335.957Z" fill="var(--color-illustration-base, #FFFFFF)"/>
<path d="M121.837 295.572C129.953 289.066 137.375 281.739 143.985 273.708C147.131 269.867 150.189 265.868 152.943 261.772C153.923 260.243 155.099 258.665 154.805 256.725C154.707 256.1 154.488 255.501 154.158 254.961C153.844 254.559 153.531 254.148 153.178 253.756C152.972 253.07 153.266 253.089 154.05 253.834C153.158 254.769 153.158 256.241 154.05 257.176C160.351 264.408 166.908 271.425 173.346 278.53L182.548 288.693C185.851 292.348 189.016 296.533 192.799 299.737C194.602 301.256 197.856 299.277 196.317 297.023C193.652 293.103 190.045 289.78 186.89 286.292L177.217 275.639C170.622 268.367 164.124 260.939 157.392 253.834V257.176C160.097 253.854 158.558 247.611 153.472 248.052C151.365 248.317 149.606 249.788 148.974 251.815C148.092 254.481 150.777 256.441 149.895 258.626C148.65 261.674 145.622 264.79 143.633 267.397C141.183 270.592 138.605 273.669 135.949 276.688C130.784 282.519 125.256 288.018 119.397 293.152C117.721 294.631 120.132 296.925 121.808 295.572H121.837Z" fill="var(--color-illustration-primary, #382C80)"/>
<path d="M105.756 221.964C89.0078 214.653 82.0008 193.378 78.5512 176.884C74.4156 157.147 74.1902 133.441 86.2834 116.32C97.8768 99.9149 121.838 95.0933 139.135 105.207C149.611 111.342 155.011 122.563 158.382 133.794C162.218 146.118 163.306 159.135 161.567 171.925C157.833 197.053 139.909 219.945 113.998 224.257C110.754 224.806 112.126 229.755 115.36 229.206C139.723 225.09 158.48 204.804 164.634 181.461C168.143 168.192 167.937 154.099 165.085 140.732C162.439 128.345 157.686 114.821 148.043 106.109C132.461 92.0455 106.795 92.3885 90.7914 105.521C72.5438 120.466 70.2604 147.661 73.3768 169.407C74.8955 180.749 78.1547 191.79 83.0396 202.139C87.675 211.713 94.4468 220.7 104.502 224.924C106.197 225.639 107.442 222.67 105.756 221.935V221.964Z" fill="var(--color-illustration-primary, #382C80)"/>
<path d="M108.304 209.273C92.8297 202.923 86.0775 177.325 84.9309 162.625C83.7941 148.249 85.9599 132.5 95.9559 122.132C107.951 109.666 130.658 109.392 142.163 122.328C146.171 126.826 148.729 132.422 150.611 138.135C155.442 152.835 155.971 169.28 150.013 183.558C144.054 197.837 131.079 209.479 115.84 211.88" fill="var(--color-illustration-secondary, #7F72FF)"/>
<path d="M219.828 268.396C219.681 256.176 218.848 243.896 219.21 231.646L216.878 233.44C229.204 235.862 241.754 236.966 254.314 236.733C260.723 236.684 267.142 236.145 273.541 236.478C276.7 236.608 279.835 237.081 282.891 237.889C285.35 238.575 286.125 239.222 286.615 241.809C286.795 243.315 286.877 244.83 286.86 246.346L287.399 256.048C287.536 258.538 287.996 261.38 287.291 263.82C286.311 267.26 283.322 267.328 280.294 267.554C276.942 267.808 273.581 268.004 270.229 268.142C257.011 268.678 243.773 268.35 230.598 267.162C227.491 266.877 227.511 271.738 230.598 272.013C242.879 273.089 255.213 273.416 267.534 272.993C273.022 272.797 278.784 272.836 284.194 271.856C288.035 271.34 291.107 268.407 291.799 264.594C292.779 259.782 291.799 254.451 291.466 249.61C291.279 246.807 291.123 243.994 290.917 241.192C290.77 239.183 290.603 237.223 288.957 235.831C285.635 233.038 279.568 232.685 275.423 232.362C269.719 231.901 263.996 232.293 258.283 232.46C244.563 232.852 230.99 231.568 217.358 229.853C216.34 229.853 215.516 230.678 215.516 231.695C216.496 243.877 216.378 256.195 216.888 268.445C216.966 270.317 219.828 270.337 219.828 268.445V268.396Z" fill="var(--color-illustration-primary, #382C80)"/>
<path d="M234.998 235.557C239.574 231.57 243.746 227.141 247.454 222.337C248.933 220.377 250.57 218.191 250.256 215.594C250.125 214.585 249.711 213.633 249.061 212.85C248.355 211.949 246.954 211.331 247.022 210.047C246.885 209.126 247.434 208.607 248.698 208.489C249.794 209.144 250.278 210.48 249.855 211.684C249.808 212.959 249.884 214.236 250.08 215.496C250.799 217.655 251.964 219.639 253.5 221.317C257.616 226.306 262.222 230.941 266.789 235.518C268.935 237.674 272.287 234.332 270.131 232.176C267.406 229.471 264.738 226.717 262.124 223.914C259.635 221.249 256.176 218.358 254.833 214.898C253.726 212.037 255.294 208.969 253.187 206.372C251.693 204.543 249.307 203.693 246.993 204.167C242.72 205.147 241.25 210.88 244.141 214.016C245.121 214.996 245.337 214.683 245.876 216.055C246.415 217.427 245.876 218.113 245.004 219.455C243.756 221.225 242.415 222.926 240.986 224.551C238.418 227.629 235.664 230.559 232.812 233.371C231.382 234.783 233.518 236.87 234.998 235.567V235.557Z" fill="var(--color-illustration-primary, #382C80)"/>
<path d="M93.8289 103.424C100.16 95.319 106.334 87.087 112.508 78.8648L117.486 72.2204C118.466 70.9366 120.054 69.4078 120.015 67.6438C119.968 66.703 119.518 65.8282 118.78 65.2428C118.345 64.913 117.863 64.6519 117.349 64.4686C117.085 64.3454 116.814 64.2406 116.536 64.155C115.771 63.8904 115.644 63.8316 116.144 64.008C116.144 64.2432 118.104 62.8908 118.535 62.636C119.711 61.9892 122.141 61.0288 123.317 62.3812C124.493 63.7336 123.886 66.9382 124.16 68.5748C124.885 72.8574 127.041 76.699 129.236 80.3348C134.672 89.4814 140.147 98.6052 145.661 107.706C147.219 110.303 151.296 107.932 149.718 105.335C143.505 95.0936 136.724 85.0192 131.098 74.4744C129.595 71.8102 128.629 68.8768 128.256 65.8406C128.22 64.0558 127.827 62.2964 127.1 60.6662C125.287 57.3832 121.651 56.9422 118.427 58.2652C116.036 59.2452 111.42 61.6952 112.096 64.9292C112.408 66.1288 113.303 67.0905 114.478 67.487C114.683 67.585 116.144 67.928 116.202 68.1338C116.046 67.5752 113.586 71.015 113.351 71.3286C106.001 81.354 98.6015 91.35 91.4475 101.513C90.4675 102.924 92.7803 104.756 93.8583 103.375L93.8289 103.424Z" fill="var(--color-illustration-primary, #382C80)"/>
<path d="M88.8901 186.233C89.0339 180.454 91.6018 175.002 95.9657 171.21C98.2121 169.263 100.863 167.84 103.727 167.045C106.148 166.349 108.627 165.908 110.813 164.516C115.046 161.792 115.899 157.098 113.106 153.011C111.616 150.816 109.813 149.091 109.705 146.249C109.599 143.122 111.178 140.178 113.841 138.537C119.309 135.273 126.14 138.341 128.855 143.672C131.569 149.003 128.923 154.873 131.677 160.097C133.882 164.311 137.949 167.025 141.075 170.475C145.375 175.243 147.189 181.752 145.975 188.056C145.417 190.996 149.974 192.309 150.542 189.31C152.502 178.962 148.298 170.69 140.899 163.752C139.096 162.237 137.502 160.49 136.156 158.558C134.343 155.618 134.999 152.609 134.784 149.356C134.533 144.902 132.677 140.689 129.56 137.498C123.386 131.402 112.038 131.412 107.383 139.36C105.27 142.859 105 147.169 106.658 150.904C107.638 153.031 110.323 154.932 110.715 157.274C111.479 161.763 104.433 162.537 101.562 163.527C92.0043 166.902 85.7565 176.105 86.1461 186.233C86.1461 186.991 86.7604 187.605 87.5181 187.605C88.2759 187.605 88.8901 186.991 88.8901 186.233Z" fill="var(--color-illustration-base, #FFFFFF)"/>
</svg>
