<svg width="1000" height="1000" viewBox="0 0 1000 1000" fill="none" xmlns="http://www.w3.org/2000/svg">
<path d="M794.284 344.337C783.504 324.61 773.263 303.079 756.182 288.369C745.167 278.883 732.554 270.396 722.176 260.292C714.836 253.138 710.092 244.063 702.154 236.988C683.926 220.7 661.7 209.754 639.66 199.669C600.94 181.971 565.052 165.134 522.207 160.048C495.316 156.863 467.876 154.883 441.278 160.048C412.398 165.644 369.15 182.676 377.578 219.22C381.094 234.216 389.994 247.398 402.588 256.264C434.507 278.52 474.52 267.642 510.221 268.25C562.798 269.151 619.981 282.95 658.045 320.974C676.769 339.685 696.095 357.77 716.021 375.227" fill="var(--color-illustration-base, #FFFFFF)"/>
<path d="M797.518 342.445C790.217 329 783.426 315.172 774.4 302.755C769.922 296.463 764.744 290.699 758.965 285.576C752.781 280.215 746.225 275.315 739.796 270.239C733.367 265.163 726.576 259.724 721.176 253.344C716.276 247.562 712.16 241.104 706.721 235.782C695.02 224.316 680.32 215.535 665.934 207.96C651.234 200.238 636.004 193.505 620.854 186.723C605.703 179.942 590.65 173.542 575.058 168.25C542.503 157.206 507.438 152.335 473.138 152.874C447.482 153.286 419.983 158.019 397.737 171.602C388.75 177.09 380.332 184.499 375.883 194.24C370.709 205.598 371.875 218.044 376.412 229.422C381.873 243.148 391.653 254.723 404.274 262.399C417.112 270.239 431.939 273.493 446.796 274.365C461.839 275.237 476.882 273.747 491.876 272.934C506.436 272.148 521.035 272.475 535.545 273.914C564.582 276.785 593.58 283.714 619.442 297.522C632.284 304.288 644.084 312.87 654.477 323.002C667.286 335.664 680.095 348.316 693.403 360.448C699.936 366.4 706.528 372.28 713.179 378.088C717.099 381.469 722.754 375.844 718.863 372.404C705.64 360.722 692.632 348.799 679.84 336.634C668.335 325.697 657.506 313.957 644.805 304.372C622.431 287.477 595.619 276.883 568.365 270.778C540.239 264.467 511.75 263.222 483.105 265.035C455.145 266.799 423.266 269.053 400.52 249.355C390.348 240.535 382.38 227.609 380.861 214.075C379.715 203.932 383.556 194.652 390.661 187.468C405.714 172.17 429.489 165.585 450.138 162.655C467.503 160.185 485.212 160.636 502.656 162.086C519.561 163.497 536.319 165.693 552.753 169.926C583.8 177.982 613.014 191.702 642.012 205.138C656.496 211.841 670.853 219.014 684.093 227.981C690.669 232.431 697.254 237.272 702.713 243.064C707.917 248.581 711.954 255.049 717.06 260.645C727.987 272.63 742.187 281.176 754.3 291.877C765.384 301.677 773.41 314.28 780.623 327.069C784.21 333.42 787.61 339.809 791.129 346.228C793.461 350.452 799.949 346.689 797.597 342.445H797.518Z" fill="var(--color-illustration-primary, #382C80)"/>
<path d="M192.162 570.746C210.498 575.421 281.646 572.706 288.741 572.246C322.061 570.07 355.773 565.297 387.927 556.095C444.816 539.808 498.991 509.055 532.183 458.801C550.656 430.822 559.574 397.12 560.603 363.829C561.162 346.307 558.957 328.549 555.615 311.37C552.894 297.548 548.888 284.011 543.649 270.935C530.782 238.595 513.985 208.411 489.945 182.96C465.641 157.245 434.712 140.673 401.745 128.756C372.571 118.202 341.799 111.42 311.154 106.883C298.316 104.982 174.042 101.61 174.934 112.459C176.894 137.175 162.988 152.286 164.977 177.002C184.577 176.443 202.325 181.637 221.66 181.902C245.767 182.088 269.84 183.725 293.749 186.802L282.812 185.332C320.052 190.418 357.89 198.503 392.631 213.095L382.831 208.95C397.043 214.843 410.451 222.512 422.737 231.774L414.407 225.345C425.223 233.892 434.934 243.752 443.317 254.696L436.888 246.376C448.976 262.365 458.995 279.816 466.709 298.316L462.564 288.516C470.194 306.522 475.464 325.44 478.244 344.797L476.774 333.861C478.874 349.116 478.976 364.58 477.078 379.862L478.548 368.925C476.879 381.435 473.585 393.674 468.748 405.332L472.893 395.532C468.175 406.495 462.09 416.818 454.783 426.255L461.212 417.925C452.727 428.665 442.952 438.319 432.106 446.668L440.426 440.24C424.89 451.988 407.92 461.71 389.926 469.169L399.726 465.024C371.012 477.068 340.534 484.134 309.753 488.328L320.689 486.858C272.571 493.326 225.904 484.732 178.276 487.662L187.899 568.335C188.017 569.266 189.556 570.08 192.162 570.746Z" fill="var(--color-illustration-secondary, #7F72FF)"/>
<path d="M191.075 574.715C202.482 577.538 214.967 577.303 226.639 577.479C241.172 577.704 255.725 577.479 270.259 577.067C306.822 576.029 343.465 571.873 378.95 562.789C418.67 552.616 457.115 535.868 489.553 510.525C523.05 484.32 548.383 449.04 558.8 407.547C570.393 361.154 564.494 311.154 546.599 267.123C530.106 226.561 506.527 187.743 471.364 160.724C435.261 133.02 390.211 118.153 346.16 108.912C332.116 105.972 317.847 102.983 303.49 102.12C293.347 101.513 283.185 101.238 273.022 101.023C247.621 100.484 221.974 100.141 196.641 102.395C189.644 103.012 180.549 103.139 174.336 106.942C169.554 109.882 171.239 115.017 171.043 119.819C170.632 129.511 167.476 138.684 164.801 147.906C162.047 157.412 160.234 167.065 160.94 177.002C160.976 179.26 162.798 181.081 165.056 181.118C175.708 180.883 186.224 182.274 196.749 183.705C207.033 185.101 217.389 185.906 227.766 186.116C249.858 186.477 271.912 188.067 293.828 190.879C298.375 191.486 299.512 183.421 294.915 182.804L282.891 181.187C278.344 180.569 277.207 188.635 281.793 189.262C319.268 194.426 356.597 202.413 391.612 217.035C395.875 218.809 399.08 211.322 394.787 209.518L384.007 204.952C379.754 203.158 376.549 210.636 380.832 212.468C394.978 218.421 408.34 226.086 420.62 235.292C424.305 238.105 429.303 231.686 425.608 228.834L416.445 221.759C412.79 218.926 407.792 225.326 411.457 228.217C422.241 236.818 431.948 246.69 440.367 257.617C441.749 259.381 444.738 259.038 446.188 257.617C447.942 255.902 447.541 253.55 446.188 251.796L439.759 243.475C436.937 239.82 430.459 244.74 433.291 248.464C445.342 264.479 455.362 281.925 463.123 300.404C463.995 302.462 466.994 302.883 468.748 301.883C470.884 300.668 471.08 298.287 470.218 296.258L466.072 286.458C464.289 282.215 456.762 285.312 458.556 289.624C466.137 307.65 471.406 326.564 474.236 345.915C474.549 348.13 477.352 349.296 479.293 348.786C481.684 348.159 482.468 345.915 482.174 343.72L480.704 332.793C480.086 328.245 472.031 329.274 472.619 333.88C474.663 349.14 474.769 364.596 472.932 379.882C472.354 384.439 480.39 385.566 481.008 380.979L482.478 370.042C482.781 367.828 481.948 365.652 479.606 364.986C477.646 364.427 474.853 365.662 474.549 367.857C472.825 380.353 469.533 392.582 464.749 404.254C462.985 408.527 470.463 411.722 472.266 407.429L476.833 396.649C478.626 392.396 471.168 389.201 469.316 393.474C464.553 404.417 458.468 414.734 451.196 424.197C448.383 427.872 454.802 432.88 457.654 429.185L464.72 419.934C467.552 416.279 461.163 411.281 458.262 414.956C449.736 425.656 439.965 435.302 429.156 443.689C427.392 445.071 427.735 448.06 429.156 449.511C430.871 451.265 433.223 450.863 434.967 449.511L443.297 443.082C446.953 440.25 442.033 433.772 438.309 436.614C422.751 448.333 405.786 458.055 387.81 465.553C385.752 466.435 385.34 469.424 386.34 471.178C387.555 473.315 389.926 473.521 391.965 472.658L401.765 468.513C406.008 466.719 402.902 459.193 398.59 460.986C369.846 472.962 339.407 480.057 308.616 484.301C304.078 484.918 305.107 492.993 309.713 492.376L321.738 490.759C326.285 490.151 325.246 482.076 320.65 482.684C273.287 488.907 225.708 480.665 178.237 483.477C176.218 483.605 173.846 485.281 174.121 487.593L179.893 535.996L182.705 559.516C183.097 562.799 182.882 567.238 184.234 570.296C185.44 572.971 188.419 574.01 191.094 574.745C196.2 576.176 198.376 568.238 193.28 566.807C191.937 566.434 191.065 565.523 191.859 566.954C191.192 565.739 191.388 562.975 191.222 561.574L189.938 550.794L187.449 529.949L182.402 487.593L178.286 491.709C225.757 488.887 273.346 497.139 320.699 490.906V482.684L308.645 484.32L310.831 492.248C341.622 488.015 372.061 480.92 400.814 468.944L398.619 461.006L387.839 465.573L391.994 472.678C409.969 465.176 426.934 455.454 442.494 443.738L437.476 437.28L429.156 443.709L434.967 449.53C445.782 441.142 455.556 431.493 464.083 420.787L457.625 415.808L451.186 424.129L458.291 428.284C465.561 418.82 471.646 408.502 476.411 397.561L469.306 393.406L464.74 404.186L472.678 406.381C477.46 394.705 480.753 382.473 482.478 369.974L474.52 367.798L472.903 379.823H481.125C482.97 364.538 482.868 349.081 480.821 333.822L472.736 334.919L474.206 345.856L482.144 343.661C479.313 324.314 474.045 305.403 466.464 287.379L458.938 290.555L463.093 300.355L470.188 296.209C462.434 277.729 452.417 260.282 440.367 244.269L433.909 249.248L440.338 257.578L446.159 251.756C437.74 240.844 428.033 230.989 417.249 222.405L411.428 228.217L420.591 235.292L424.746 228.187C412.429 218.973 399.027 211.308 384.84 205.363L380.685 212.468L391.465 217.035L393.65 209.097C358.635 194.475 321.317 186.498 283.832 181.334L281.646 189.262L293.681 190.879V182.657C271.765 179.845 249.711 178.255 227.619 177.894C217.143 177.677 206.689 176.856 196.308 175.434C185.881 174.013 175.453 172.651 164.948 172.886L169.054 177.002C167.692 157.627 177.766 140.487 179.07 121.446C179.227 118.835 179.227 116.217 179.07 113.606C179.07 113.371 179.148 112.41 178.981 112.204C179.197 112.469 178.57 113.812 178.658 113.596C178.511 113.968 178.511 114.017 178.109 114.174C178.521 114.008 178.942 113.704 179.354 113.498C178.374 113.968 179.746 113.371 180.334 113.194C181.03 112.969 181.735 112.792 182.441 112.616C184.107 112.214 185.802 111.91 187.488 111.636C196.925 110.146 208.166 109.676 218.328 109.362C231.274 108.931 244.23 108.872 257.185 108.98C268.798 109.088 280.421 109.323 292.024 109.784C296.121 109.941 300.217 110.117 304.304 110.372C305.735 110.47 307.165 110.558 308.586 110.685C309.076 110.685 309.566 110.793 310.047 110.832L310.693 110.901C308.792 110.685 311.477 111.028 311.977 111.107C356.753 117.869 402.323 129.06 442.102 151.375C460.427 161.524 476.947 174.633 490.994 190.173C505.243 206.118 516.954 224.169 526.656 243.201C547.589 284.263 559.976 330.421 555.654 376.736C553.616 398.492 547.971 420.179 538.259 439.799C529.292 457.929 516.787 474.167 502.381 488.309C474.52 515.68 439.397 534.771 402.588 547.217C364.456 560.113 323.737 566.719 283.557 568.385C257.92 569.453 231.97 570.286 206.353 568.483C201.947 568.304 197.565 567.734 193.26 566.777C188.125 565.503 185.93 573.441 191.075 574.715Z" fill="var(--color-illustration-secondary, #7F72FF)"/>
<path d="M154.932 102.855C156.892 127.571 158.878 152.287 160.891 177.002C160.937 179.256 162.753 181.071 165.007 181.118C175.659 180.883 186.175 182.275 196.7 183.705C206.984 185.101 217.34 185.906 227.717 186.116C249.809 186.477 271.863 188.067 293.779 190.879C298.326 191.487 299.463 183.421 294.866 182.804L282.842 181.187C278.295 180.569 277.158 188.635 281.744 189.262C319.219 194.427 356.548 202.414 391.563 217.035C395.826 218.809 399.031 211.322 394.738 209.519L383.958 204.952C379.705 203.158 376.5 210.636 380.783 212.468C394.946 218.418 408.325 226.083 420.62 235.293C424.305 238.105 429.303 231.686 425.608 228.834L416.445 221.759C412.79 218.927 407.792 225.326 411.457 228.217C422.241 236.819 431.948 246.69 440.367 257.617C441.749 259.381 444.738 259.038 446.188 257.617C447.942 255.902 447.541 253.55 446.188 251.796L439.759 243.476C436.937 239.82 430.459 244.74 433.291 248.464C445.342 264.479 455.362 281.925 463.123 300.404C463.995 302.462 466.994 302.883 468.748 301.884C470.884 300.668 471.08 298.287 470.218 296.258L466.072 286.458C464.289 282.215 456.762 285.312 458.556 289.624C466.137 307.651 471.406 326.565 474.236 345.915C474.549 348.13 477.352 349.296 479.293 348.786C481.684 348.159 482.468 345.915 482.174 343.72L480.704 332.793C480.086 328.246 472.031 329.275 472.619 333.881C474.663 349.14 474.769 364.596 472.932 379.882C472.354 384.439 480.39 385.566 481.008 380.979L482.478 370.043C482.781 367.828 481.948 365.652 479.606 364.986C477.646 364.427 474.853 365.662 474.549 367.857C472.825 380.353 469.533 392.582 464.749 404.254C462.985 408.527 470.463 411.722 472.266 407.43L476.833 396.65C478.626 392.396 471.168 389.202 469.316 393.474C464.553 404.417 458.468 414.735 451.196 424.197C448.383 427.872 454.802 432.88 457.654 429.186L464.72 419.934C467.552 416.279 461.163 411.281 458.262 414.956C449.736 425.656 439.965 435.302 429.156 443.69C427.392 445.071 427.735 448.06 429.156 449.511C430.871 451.265 433.223 450.863 434.967 449.511L443.297 443.082C446.953 440.25 442.033 433.772 438.309 436.614C422.751 448.333 405.786 458.055 387.81 465.553C385.752 466.435 385.34 469.424 386.34 471.179C387.555 473.315 389.926 473.521 391.965 472.658L401.765 468.513C406.008 466.72 402.902 459.193 398.59 460.987C369.846 472.962 339.407 480.057 308.616 484.301C304.078 484.918 305.107 492.993 309.713 492.376L321.738 490.759C326.285 490.151 325.246 482.076 320.65 482.684C273.287 488.907 225.708 480.665 178.237 483.478C176.218 483.605 173.846 485.281 174.121 487.594L179.893 535.996L182.705 559.516C183.097 562.799 182.882 567.238 184.234 570.296C185.44 572.971 188.419 574.01 191.094 574.745C196.2 576.176 198.376 568.238 193.28 566.807C191.937 566.435 191.065 565.523 191.859 566.954C191.192 565.739 191.388 562.975 191.222 561.574L189.938 550.794L187.449 529.949L182.402 487.594L178.286 491.71C225.757 488.887 273.346 497.139 320.699 490.906V482.684L308.645 484.32L310.831 492.249C341.622 488.015 372.061 480.92 400.814 468.944L398.619 461.006L387.839 465.573L391.994 472.678C409.969 465.176 426.934 455.454 442.494 443.739L437.476 437.28L429.156 443.709L434.967 449.53C445.782 441.142 455.556 431.493 464.083 420.787L457.625 415.809L451.186 424.129L458.291 428.284C465.561 418.82 471.646 408.502 476.411 397.561L469.306 393.406L464.74 404.186L472.678 406.381C477.46 394.705 480.753 382.473 482.478 369.974L474.52 367.798L472.903 379.823H481.125C482.97 364.538 482.868 349.081 480.821 333.822L472.736 334.919L474.206 345.856L482.144 343.661C479.313 324.314 474.045 305.403 466.464 287.38L458.938 290.555L463.093 300.355L470.188 296.209C462.434 277.729 452.417 260.283 440.367 244.269L433.909 249.248L440.338 257.578L446.159 251.757C437.74 240.844 428.033 230.989 417.249 222.406L411.428 228.217L420.591 235.293L424.746 228.188C412.429 218.973 399.027 211.308 384.84 205.363L380.685 212.468L391.465 217.035L393.65 209.097C358.635 194.476 321.317 186.498 283.832 181.334L281.646 189.262L293.681 190.879V182.657C271.765 179.845 249.711 178.255 227.619 177.894C217.143 177.677 206.689 176.856 196.308 175.434C185.881 174.013 175.453 172.651 164.948 172.886L169.054 177.002C167.094 152.287 165.111 127.571 163.105 102.855C162.684 97.6124 154.452 97.5634 154.873 102.855H154.932Z" fill="var(--color-illustration-primary, #382C80)"/>
<path d="M677.929 667.051C681.532 678.253 679.193 690.518 671.722 699.609C664.251 708.699 652.67 713.369 640.983 712.004C636.22 711.445 631.33 709.72 628.311 706.006C625.538 702.576 624.734 697.98 624.274 693.599C622.627 677.704 625.175 659.76 637.425 649.499C645.533 642.859 656.4 640.658 666.453 643.619" fill="var(--color-illustration-primary, #382C80)"/>
<path d="M675.342 667.767C680.536 688.16 663.082 708.927 642.022 706.859C637.504 706.408 632.8 704.664 630.948 700.205C629.095 695.746 628.988 690.287 628.988 685.505C628.86 676.136 630.409 666.355 635.848 658.496C642.472 648.911 654.223 645.55 665.248 648.157C671.196 649.568 673.509 640.973 667.756 639.053C655.095 634.799 640.179 639.053 631.124 648.725C622.431 658.035 619.139 671.02 618.796 683.466C618.619 689.679 618.796 696.637 620.756 702.576C622.936 709.215 628.309 714.312 635.054 716.139C647.578 719.873 662.278 715.767 671.637 706.859C682.613 696.422 685.514 680.301 680.555 666.316C679.418 663.092 674.518 664.356 675.381 667.747L675.342 667.767Z" fill="var(--color-illustration-primary, #382C80)"/>
<path d="M748.156 580.742C723.215 620.785 707.309 629.468 674.224 663.062C666.002 671.422 657.564 679.575 650.156 688.68C635.936 706.261 626.253 726.9 617.816 747.705C609.378 768.51 598.617 788.081 588.71 808.347C567.444 851.84 547.177 895.861 524.03 938.403C522.442 941.343 520.629 944.411 517.709 945.802C515.239 946.988 512.436 946.714 509.869 946.341C483.516 942.617 458.909 931.641 436.241 918.039C430.645 914.668 424.736 910.581 423.07 904.015C422.318 901.587 422.677 898.951 424.05 896.812C425.234 895.441 426.72 894.364 428.391 893.666C438.133 888.707 452.637 885.287 460.829 877.986C471.609 868.353 477.431 849.36 482.291 836.189C527.979 712.523 585.436 596.197 675.234 498.148" fill="var(--color-illustration-base, #FFFFFF)"/>
<path d="M745.784 579.38C738.123 591.735 729.369 603.379 719.628 614.17C711.219 623.402 701.988 631.81 692.884 640.365C680.879 651.616 669.05 663.101 657.702 675.018C645.719 687.639 635.598 701.904 627.645 717.383C619.462 733.201 613.406 749.959 605.742 766.021C597.716 782.848 589.004 799.341 580.85 816.128C564.337 850.085 548.265 884.268 530.772 917.735C528.511 922.066 526.225 926.382 523.912 930.681C522.089 934.071 520.355 938.932 517.366 941.519C514.377 944.106 509.526 942.587 505.949 941.96C501.539 941.186 497.129 940.206 492.836 939.02C475.814 934.473 459.693 927.152 444.434 918.44C438.407 915.001 429.45 911.081 427.019 903.966C425.481 899.487 428.391 897.909 431.919 896.233C435.271 894.665 438.779 893.391 442.2 892.049C448.962 889.422 455.92 886.757 461.682 882.249C467.17 877.996 471.188 872.076 474.422 865.991C481.419 852.712 485.721 837.973 491.033 823.988C497.011 808.23 503.218 792.566 509.653 776.997C522.393 746.431 536.113 716.296 551.283 686.837C581.869 627.4 618.061 570.56 661.484 519.669C666.874 513.348 672.372 507.115 677.919 500.931C681.241 497.227 675.851 491.748 672.411 495.433C625.44 545.835 586.338 603.537 553.802 664.14C537.632 694.265 522.991 725.194 509.526 756.623C502.764 772.394 496.273 788.286 490.053 804.3C484.124 819.519 478.783 834.964 472.874 850.193C470.139 857.249 466.994 864.452 462.358 870.499C457.88 876.379 451.745 879.74 445.051 882.553C438.358 885.365 430.704 887.453 424.471 891.373C417.259 895.94 417.611 904.877 422.188 911.296C426.765 917.715 433.997 921.39 440.563 925.114C448.348 929.565 456.374 933.583 464.602 937.148C472.734 940.698 481.104 943.675 489.651 946.057C493.973 947.242 498.344 948.252 502.744 949.056C506.87 949.81 511.309 950.878 515.484 950.32C524.069 949.163 527.46 940.01 531.037 933.307C535.643 924.683 540.151 916.01 544.561 907.288C553.381 889.854 561.926 872.263 570.403 854.642C579.027 836.718 587.524 818.706 596.432 800.919C604.86 784.063 613.611 767.344 620.765 749.9C627.527 733.416 634.779 717.09 644.628 702.174C654.732 686.876 668.001 674.146 680.888 661.2C700.057 641.904 720.921 624.362 737.072 602.302C741.844 595.775 746.284 589.004 750.557 582.144C752.438 579.125 747.685 576.371 745.813 579.37L745.784 579.38Z" fill="var(--color-illustration-primary, #382C80)"/>
<path d="M436.163 918.068C430.567 914.697 424.658 910.61 422.992 904.044C422.24 901.616 422.598 898.98 423.972 896.841C425.156 895.47 426.642 894.393 428.313 893.695C438.054 888.736 452.558 885.316 460.751 878.015C471.531 868.382 477.352 849.389 482.213 836.218C486.133 825.687 490.154 815.197 494.277 804.75C506.713 809.288 517.228 817.706 529.949 822.165C545.305 827.555 561.309 833.014 577.773 830.858C560.309 867.069 543.042 903.378 523.99 938.432C522.403 941.372 520.59 944.44 517.669 945.831C515.2 947.017 512.397 946.743 509.829 946.37C483.438 942.646 458.84 931.709 436.163 918.068Z" fill="var(--color-illustration-secondary, #7F72FF)"/>
<path d="M428.323 893.695C438.064 888.737 452.568 885.316 460.761 878.015C468.444 871.155 473.589 859.582 477.676 848.723C481.606 850.047 485.403 851.74 489.014 853.78C492.131 855.505 495.463 857.484 496.707 860.924C499.647 868.99 489.298 877.29 490.122 885.963C490.7 892.078 496.531 895.763 502.009 897.87C513.406 902.241 525.99 903.613 536.711 909.424C537.395 909.765 538.026 910.204 538.583 910.728C533.82 920.031 528.959 929.256 524 938.403C522.413 941.343 520.6 944.41 517.679 945.802C515.21 946.988 512.407 946.713 509.839 946.341C483.487 942.617 458.879 931.641 436.212 918.039C430.616 914.667 424.707 910.581 423.041 904.015C422.289 901.587 422.647 898.951 424.021 896.812C425.197 895.457 426.669 894.39 428.323 893.695Z" fill="var(--color-illustration-primary, #382C80)"/>
<path d="M430.42 897.243C440.926 892.01 452.96 889.53 462.27 882.102C472.207 874.203 477.303 861.336 481.664 849.811L476.598 852.692C481.272 854.28 486.398 856.406 490.318 859.405C493.493 861.786 493.522 864.55 492.14 868.009C489.259 875.271 483.712 882.102 487.005 890.295C490.298 898.487 499.392 901.623 507.076 903.956C511.809 905.387 516.621 906.523 521.374 907.876C525.95 909.199 531.899 910.581 535.672 913.638L535.035 908.65C531.853 914.844 528.636 921.011 525.382 927.152C523.745 930.22 522.128 933.287 520.482 936.325C519.443 938.207 518.375 940.598 516.493 941.784C513.916 943.401 510.055 942.274 507.281 941.784C504.067 941.245 500.862 940.598 497.687 939.824C491.751 938.429 485.895 936.711 480.145 934.679C468.205 930.383 456.666 925.048 445.659 918.734C440.475 915.794 417.915 903.662 430.44 897.174C435.144 894.734 430.988 887.629 426.284 890.069C421.149 892.735 418.003 896.929 418.699 902.937C419.268 907.837 422.031 912.149 425.559 915.432C429.479 919.038 434.222 921.694 438.819 924.35C443.934 927.29 449.138 930.102 454.45 932.709C465.336 938.138 476.691 942.57 488.377 945.949C494.062 947.563 499.833 948.852 505.664 949.81C511.201 950.712 517.042 951.711 521.805 947.968C526.568 944.224 529.086 937.639 531.87 932.415C535.352 925.882 538.775 919.348 542.14 912.815C542.895 911.326 542.944 909.003 541.493 907.827C533.761 901.574 522.609 899.722 513.25 897.145C506.85 895.381 492.601 892.539 494.394 883.19C495.874 875.457 502.891 869.528 501.009 861.051C498.961 851.879 486.594 847.4 478.773 844.734C476.529 843.97 474.461 845.636 473.707 847.606C469.787 857.906 465.132 870.146 455.733 876.741C446.845 882.945 435.869 885.326 426.245 890.118C421.512 892.5 425.667 899.605 430.42 897.243Z" fill="var(--color-illustration-primary, #382C80)"/>
<path d="M558.418 851.477C547.942 849.635 537.769 847.557 527.754 843.853C517.704 840.019 508.075 835.162 499.02 829.358C496.697 827.918 494.679 831.485 496.903 832.994C514.416 844.931 536.809 852.996 558.006 854.348C559.633 854.456 560.025 851.771 558.398 851.477H558.418Z" fill="var(--color-illustration-base, #FFFFFF)"/>
<path d="M745.784 579.38C738.123 591.735 729.369 603.379 719.628 614.17C711.219 623.402 701.988 631.81 692.884 640.365C680.879 651.616 669.05 663.101 657.702 675.018C645.719 687.639 635.598 701.904 627.645 717.383C619.462 733.201 613.406 749.959 605.742 766.021C597.716 782.848 589.004 799.341 580.85 816.128C564.337 850.085 548.265 884.268 530.772 917.735C528.511 922.066 526.225 926.382 523.912 930.681C522.089 934.071 520.355 938.932 517.366 941.519C514.377 944.106 509.526 942.587 505.949 941.96C501.539 941.186 497.129 940.206 492.836 939.02C475.814 934.473 459.693 927.152 444.434 918.44C438.407 915.001 429.45 911.081 427.019 903.966C425.481 899.487 428.391 897.909 431.919 896.233C435.271 894.665 438.779 893.391 442.2 892.049C448.962 889.422 455.92 886.757 461.682 882.249C467.17 877.996 471.188 872.076 474.422 865.991C481.419 852.712 485.721 837.973 491.033 823.988C497.011 808.23 503.218 792.566 509.653 776.997C522.393 746.431 536.113 716.296 551.283 686.837C581.869 627.4 618.061 570.56 661.484 519.669C666.874 513.348 672.372 507.115 677.919 500.931C681.241 497.227 675.851 491.748 672.411 495.433C625.44 545.835 586.338 603.537 553.802 664.14C537.632 694.265 522.991 725.194 509.526 756.623C502.764 772.394 496.273 788.286 490.053 804.3C484.124 819.519 478.783 834.964 472.874 850.193C470.139 857.249 466.994 864.452 462.358 870.499C457.88 876.379 451.745 879.74 445.051 882.553C438.358 885.365 430.704 887.453 424.471 891.373C417.259 895.94 417.611 904.877 422.188 911.296C426.765 917.715 433.997 921.39 440.563 925.114C448.348 929.565 456.374 933.583 464.602 937.148C472.734 940.698 481.104 943.675 489.651 946.057C493.973 947.242 498.344 948.252 502.744 949.056C506.87 949.81 511.309 950.878 515.484 950.32C524.069 949.163 527.46 940.01 531.037 933.307C535.643 924.683 540.151 916.01 544.561 907.288C553.381 889.854 561.926 872.263 570.403 854.642C579.027 836.718 587.524 818.706 596.432 800.919C604.86 784.063 613.611 767.344 620.765 749.9C627.527 733.416 634.779 717.09 644.628 702.174C654.732 686.876 668.001 674.146 680.888 661.2C700.057 641.904 720.921 624.362 737.072 602.302C741.844 595.775 746.284 589.004 750.557 582.144C752.438 579.125 747.685 576.371 745.813 579.37L745.784 579.38Z" fill="var(--color-illustration-primary, #382C80)"/>
<path d="M472.56 880.24C470.6 875.34 466.68 871.479 461.368 870.499C459.173 870.087 458.232 873.233 460.437 873.89C464.414 874.994 467.691 877.815 469.375 881.583C470.169 883.366 473.295 882.073 472.56 880.24Z" fill="var(--color-illustration-base, #FFFFFF)"/>
<path d="M460.251 887.414C459.04 883.759 456.594 880.64 453.332 878.594C451.304 877.349 449.54 880.456 451.49 881.759C453.901 883.351 455.755 885.657 456.792 888.354C457.595 890.481 461.025 889.589 460.251 887.374V887.414Z" fill="var(--color-illustration-base, #FFFFFF)"/>
<path d="M742.922 525.48C733.299 503.202 709.383 490.715 685.602 495.551C674.93 497.677 670.902 502.734 663.915 510.75C650.038 526.613 636.837 543.045 624.313 560.044C613.161 575.156 603.929 591.404 592.443 606.104C591.605 607.303 590.575 608.356 589.396 609.221C587.004 610.789 583.937 610.661 581.124 611.181C575.615 612.18 570.854 615.621 568.179 620.54C565.719 625.126 565.023 631.702 567.679 636.279C575.979 634.436 580.135 638.425 588.014 639.885C597.353 641.61 606.359 643.315 615.101 647.225C623.436 651.147 631.253 656.084 638.376 661.925C648.597 670.02 658.417 679.82 661.769 692.423C662.749 696.186 664.101 701.017 667.982 701.37C670.549 701.596 672.696 699.518 674.43 697.607C700.253 669.187 724.675 639.464 749.077 609.789" fill="var(--color-illustration-secondary, #7F72FF)"/>
<path d="M745.294 524.088C738.75 508.95 725.745 497.557 709.877 493.062C700.657 490.486 690.915 490.442 681.672 492.934C675.077 494.806 669.912 498.814 665.336 503.793C651.939 518.414 639.474 533.986 627.469 549.755C615.277 565.748 604.929 582.977 593.022 599.147C591.444 601.283 589.748 604.478 587.485 606.007C585.681 607.192 583.231 607.075 581.183 607.379C576.748 608.033 572.607 609.991 569.286 613.004C562.426 619.217 560.045 629.938 564.337 638.239C565.233 639.742 567.016 640.47 568.708 640.022C575.646 638.69 582.673 642.845 589.405 644.129C597.833 645.726 606.359 647.519 614.18 651.175C621.802 654.857 628.963 659.426 635.514 664.787C641.473 669.52 647.353 674.734 651.743 680.996C653.842 683.904 655.552 687.073 656.829 690.424C657.956 693.55 658.446 696.921 660.034 699.881C663.582 706.525 670.696 706.868 675.998 701.978C682.574 695.922 688.258 688.503 694.148 681.79C700.263 674.825 706.306 667.792 712.278 660.691C725.635 644.795 738.944 628.811 751.831 612.543C754.869 608.702 749.626 603.184 746.333 607.045C722.813 634.574 700.038 662.719 675.91 689.728C674.861 690.904 670.03 697.774 668.286 697.225C666.541 696.676 665.747 691.208 665.287 689.767C662.93 682.775 659.123 676.36 654.115 670.941C643.507 659.122 630.5 649.701 615.963 643.305C607.3 639.591 598.235 637.984 589.053 636.122C585.456 635.387 582.114 633.995 578.606 632.976C574.714 631.861 570.609 631.72 566.65 632.565L571.021 634.338C567.414 627.478 572.001 618.776 578.665 615.885C582.124 614.395 586.005 614.905 589.445 613.455C593.129 611.945 595.325 608.623 597.598 605.556C608.476 591.13 617.522 575.431 628.243 560.897C639.278 545.942 650.848 531.412 662.954 517.307C667.247 512.289 671.5 506.243 677.106 502.607C683.476 498.442 691.747 497.707 699.165 498.148C717.06 499.187 733.191 510.662 740.512 526.94C741.962 530.174 746.666 527.371 745.255 524.167L745.294 524.088Z" fill="var(--color-illustration-secondary, #7F72FF)"/>
<path d="M447.403 887.541L442.876 883.327C441.318 881.877 438.956 884.229 440.534 885.669L445.11 889.834C446.649 891.245 448.942 888.972 447.403 887.541Z" fill="var(--color-illustration-base, #FFFFFF)"/>
<path d="M776.154 577.528C794.108 599.597 817.52 588.866 825.713 616.11C835.268 647.911 851.271 677.458 867.226 706.682C896.969 761.17 930.416 814.482 958.748 869.44C960.267 872.38 961.805 875.624 961.325 878.829C960.914 881.534 959.11 883.729 957.337 885.689C939.452 905.397 916.559 919.626 892.559 930.69C886.63 933.425 879.917 936.012 873.556 933.709C871.244 932.866 868.98 931.229 868.147 928.809C867.682 927.058 867.629 925.223 867.99 923.448C869.352 912.609 874.683 898.693 873.243 887.806C871.342 873.458 858.886 857.994 850.703 846.567C814.583 795.998 781.845 743.096 752.703 688.209C726.341 638.562 710.455 615.905 717.972 561.544" fill="var(--color-illustration-base, #FFFFFF)"/>
<path d="M774.214 579.468C781.299 588.014 790.462 592.718 800.674 596.608C809.749 600.078 817.677 604.007 821.479 613.572C824.262 620.579 826.066 628.027 828.712 635.132C831.358 642.237 834.258 649.136 837.365 655.996C843.784 670.216 851.007 684.054 858.396 697.793C888.991 754.633 923.331 809.396 953.123 866.677C954.779 869.862 957.807 873.939 957.689 877.643C957.582 880.818 954.318 883.474 952.299 885.581C947.319 890.784 941.989 895.64 936.345 900.114C925.068 908.896 912.917 916.495 900.085 922.792C893.744 925.986 886.287 930.632 878.986 930.7C876.251 930.7 872.184 929.946 871.675 926.712C871.165 923.478 872.655 919.313 873.311 916.167C876.173 903.27 879.613 890.746 874.713 877.878C869.872 865.138 861.248 854.476 853.447 843.51C844.3 830.691 835.398 817.716 826.742 804.584C809.363 778.313 792.876 751.484 777.281 724.097C769.51 710.435 762.062 696.657 754.643 682.76C748.283 670.892 741.688 659.132 735.729 647.059C725.567 626.479 719.549 605.174 720.206 582.036C720.402 575.176 721.039 568.316 721.892 561.564C722.421 557.261 714.885 556.193 714.248 560.584C710.553 585.789 711.837 610.652 721.176 634.525C725.851 646.025 731.188 657.245 737.16 668.129C744.549 682.025 751.929 695.931 759.543 709.7C775.406 738.395 792.259 766.518 810.101 794.069C819.019 807.828 828.166 821.427 837.541 834.866C845.901 846.842 855.328 858.386 862.629 871.018C865.922 876.732 869.048 883.131 869.489 889.824C869.94 896.89 868.068 903.936 866.549 910.767C865.197 916.647 862.277 924.908 864.834 930.779C867.627 937.198 875.546 939.04 881.877 938.197C889.325 937.217 896.332 933.297 902.966 929.946C909.601 926.594 916.069 923.086 922.36 919.166C935.109 911.393 946.833 902.053 957.258 891.363C962.099 886.306 966.696 881.151 964.638 873.664C963.599 869.881 961.423 866.353 959.62 862.884C957.66 859.18 955.7 855.488 953.74 851.81C945.724 836.846 937.413 822.038 928.975 807.299C912.315 778.134 895.136 749.224 878.672 719.922C862.678 691.502 846.332 662.729 834.68 632.153C830.28 620.618 828.31 606.497 818.02 598.461C810.366 592.473 800.517 590.934 791.991 586.652C786.648 583.975 781.924 580.21 778.124 575.597C775.85 572.873 771.999 576.773 774.204 579.517L774.214 579.468Z" fill="var(--color-illustration-primary, #382C80)"/>
<path d="M892.559 930.661C886.63 933.395 879.917 935.982 873.556 933.679C871.244 932.837 868.98 931.2 868.147 928.779C867.682 927.028 867.629 925.194 867.99 923.419C869.352 912.58 874.683 898.664 873.243 887.776C871.342 873.429 858.886 857.965 850.703 846.538C844.169 837.391 837.75 828.173 831.446 818.882C842.226 811.15 855.064 807.171 865.903 799.155C878.986 789.482 892.5 779.31 899.958 764.482C920.097 799.272 940.481 833.984 958.758 869.411C960.277 872.351 961.815 875.595 961.335 878.799C960.923 881.504 959.12 883.699 957.346 885.659C939.452 905.367 916.559 919.597 892.559 930.661Z" fill="var(--color-illustration-secondary, #7F72FF)"/>
<path d="M767.54 581.487C774.282 589.601 783.504 593.953 793.432 596.873C801.879 599.352 811.787 600.93 817.873 607.918C821.881 612.524 823.018 618.698 824.87 624.293C827.32 631.761 830.103 639.131 833.151 646.383C839.227 660.828 846.224 674.861 853.545 688.719C884.072 746.539 918.891 801.889 949.428 859.66C951.277 863.162 953.106 866.664 954.916 870.166C956.621 873.478 958.836 877.026 956.602 880.612C954.877 883.386 952.123 885.777 949.83 888.07C947.073 890.821 944.218 893.467 941.265 896.008C930.197 905.336 918.132 913.411 905.289 920.087C898.85 923.507 892.147 927.251 885.199 929.495C881.7 930.632 877.692 931.455 874.223 929.73C870.754 928.005 871.675 924.624 872.263 921.459C874.576 908.366 879.828 895.175 876.075 881.828C872.4 868.813 863.707 857.7 855.907 846.92C846.744 834.249 837.904 821.332 829.241 808.318C811.411 781.564 794.516 754.225 778.555 726.302C770.647 712.464 762.875 698.509 755.525 684.367C749.41 672.607 744.412 660.269 741.599 647.284C736.562 623.931 740.218 600.068 743.667 576.724C744.647 569.864 745.676 562.926 746.607 555.997C747.156 551.695 739.62 550.637 738.973 554.968C735.131 580.556 729.359 606.908 731.309 632.859C732.243 645.295 734.98 657.529 739.434 669.177C745.059 683.877 752.918 697.597 760.533 711.317C776.755 740.561 794 769.206 812.267 797.254C821.218 810.974 830.404 824.547 839.825 837.973C848.302 850.036 858.112 861.679 864.825 874.879C867.882 880.877 869.891 887.149 869.529 893.931C869.127 901.281 866.961 908.444 865.452 915.618C864.119 921.939 862.149 929.554 867.598 934.503C873.047 939.452 881.367 938.922 887.884 936.688C895.067 934.228 901.986 930.475 908.68 926.888C915.373 923.301 921.939 919.46 928.28 915.246C940.236 907.239 952.231 897.89 961.404 886.708C963.452 884.199 965.049 881.426 965.216 878.113C965.431 874.056 963.579 870.362 961.776 866.853C957.856 859.229 953.809 851.673 949.712 844.147C941.519 829.28 933.16 814.58 924.654 799.811C907.562 770.117 890.099 740.639 873.488 710.631C857.514 681.8 841.295 652.664 830.799 621.285C828.839 615.493 827.398 609.672 823.547 604.791C820.601 601.158 816.818 598.293 812.522 596.442C803.516 592.404 793.451 591.542 784.465 587.494C779.413 585.219 774.946 581.824 771.401 577.567C769.128 574.852 765.276 578.753 767.481 581.487H767.54Z" fill="var(--color-illustration-primary, #382C80)"/>
<path d="M787.228 489.308C801.252 503.597 815.56 518.62 822.028 537.612C829.701 560.152 825.174 584.829 832.416 607.428C837.061 621.922 844.176 635.554 852.016 648.588C858.053 658.642 869.852 670.402 871.724 682.299C875.33 705.212 836.003 730.947 819.931 740.659C810.072 746.627 784.651 765.159 771.911 755.427C765.492 750.527 767.991 742.031 767.011 735.318C765.815 727.213 760.788 720.137 756.329 713.464C736.944 684.456 721.48 652.214 712.229 618.541C709.043 607.19 706.73 595.611 705.31 583.908C704.505 577.178 704.076 570.409 704.026 563.631" fill="var(--color-illustration-secondary, #7F72FF)"/>
<path d="M784.318 492.209C797.665 505.821 811.758 520.266 818.059 538.7C824.792 558.476 822.116 579.86 826.271 600.117C828.32 610.132 832.289 619.717 836.669 628.958C840.799 637.964 845.653 646.62 851.183 654.84C856.308 662.219 862.688 669.216 866.118 677.635C868.508 683.291 868.187 689.728 865.246 695.118C858.896 707.75 846.714 717.423 835.474 725.498C825.821 732.456 815.58 738.845 805.309 744.872C798.586 748.792 774.929 762.307 771.754 747.567C771.029 744.128 771.538 740.502 771.274 737.013C770.832 732.219 769.457 727.559 767.226 723.293C762.777 714.365 756.446 706.339 751.233 697.813C726.988 657.78 708.544 610.916 708.064 563.553C708.064 558.261 699.783 558.241 699.832 563.553C700.283 608.26 716.306 652.547 737.905 691.237C743.099 700.527 748.783 709.485 754.673 718.344C757.613 722.734 760.553 727.272 762.111 732.368C763.336 736.435 763.003 740.453 763.208 744.627C763.61 752.634 767.491 759.592 775.703 761.611C782.71 763.336 790.109 761.17 796.568 758.465C808.573 753.428 819.735 745.843 830.613 738.728C843.353 730.398 856.181 721 865.765 709.053C870.077 703.683 874.037 697.578 875.448 690.727C877.065 682.887 874.742 675.498 870.852 668.668C866.079 660.298 859.523 653.125 854.613 644.844C848.9 635.511 843.923 625.746 839.727 615.64C835.663 605.425 833.15 594.66 832.269 583.702C831.348 572.804 831.122 561.848 829.447 551.028C826.164 529.89 814.805 512.808 800.586 497.324C797.175 493.62 793.667 490.014 790.139 486.417C786.425 482.624 780.603 488.446 784.318 492.228V492.209Z" fill="var(--color-illustration-secondary, #7F72FF)"/>
<path d="M803.908 716.943C793.735 725.146 781.33 730.101 768.304 731.162C763.032 731.564 763.042 739.884 768.304 739.394C783.396 737.993 797.41 731.995 808.269 721.304C811.209 718.452 806.936 714.512 803.908 716.943Z" fill="var(--color-illustration-primary, #382C80)"/>
<path d="M867.99 923.448C869.352 912.61 874.683 898.694 873.243 887.806C871.89 877.604 865.197 866.834 858.543 857.357C861.857 854.853 865.401 852.667 869.127 850.83C872.302 849.223 875.801 847.577 879.358 848.488C887.659 850.605 888.727 863.815 896.371 868.01C901.751 870.95 908.131 868.216 912.903 864.864C922.909 857.886 931.122 848.204 941.951 842.647C942.615 842.269 943.332 841.992 944.077 841.824C949.095 850.971 953.995 860.176 958.777 869.441C960.296 872.381 961.835 875.624 961.355 878.829C960.943 881.534 959.14 883.729 957.366 885.689C939.481 905.397 916.588 919.626 892.588 930.691C886.659 933.425 879.946 936.012 873.586 933.709C871.273 932.866 869.009 931.23 868.176 928.809C867.702 927.06 867.638 925.226 867.99 923.448Z" fill="var(--color-illustration-primary, #382C80)"/>
<path d="M871.949 924.546C873.517 913.011 878.26 901.604 877.545 889.824C876.771 877.006 869.225 865.481 862.061 855.279L860.591 860.905C864.727 857.788 869.607 854.456 874.595 852.859C878.515 851.624 880.72 853.339 882.739 856.485C886.463 862.277 888.923 869.411 895.773 872.253C905.142 876.173 914.344 869.235 921.253 863.609C925.114 860.464 928.789 857.092 932.631 853.927C936.237 850.987 940.598 847.165 945.145 845.793L940.5 843.902C943.832 850.01 947.125 856.139 950.379 862.286C951.796 864.972 953.204 867.663 954.602 870.362C956.023 873.125 958.189 876.418 956.798 879.583C955.7 882.092 953.083 884.238 951.221 886.169C949.359 888.1 947.37 890.089 945.341 891.892C940.893 896.019 936.215 899.89 931.327 903.486C921.716 910.47 911.556 916.668 900.947 922.017C895.646 924.722 890.167 927.721 884.483 929.456C881.347 930.436 877.741 931.063 874.605 929.71C871.665 928.427 871.714 926.339 872.057 923.448C872.684 918.205 864.452 918.244 863.835 923.448C862.286 936.492 875.438 940.598 886.071 937.57C891.588 935.992 896.851 933.229 901.967 930.71C907.082 928.191 912.404 925.32 917.48 922.38C927.208 916.738 936.443 910.287 945.087 903.094C949.569 899.346 953.839 895.351 957.876 891.128C961.364 887.463 965.245 883.552 965.51 878.202C965.853 871.528 961.11 864.932 958.121 859.268C954.678 852.735 951.182 846.221 947.635 839.727C946.679 838.134 944.784 837.366 942.989 837.845C933.807 840.619 926.094 848.733 918.979 854.819C913.472 859.542 902.447 870.273 895.704 862.041C891.422 856.818 889.893 849.497 883.719 845.871C874.899 840.668 863.462 848.517 856.465 853.79C854.809 855.034 853.594 857.426 854.985 859.415C861.385 868.529 869.068 879.26 869.391 890.824C869.685 901.526 865.471 911.835 864.05 922.341C863.747 924.556 864.58 926.731 866.922 927.398C868.803 927.966 871.655 926.741 871.949 924.546Z" fill="var(--color-illustration-primary, #382C80)"/>
<path d="M906.073 792.197C898.478 799.978 890.873 807.377 881.955 813.678C873.271 819.643 864.021 824.738 854.339 828.888C852.192 829.868 853.741 833.612 855.965 832.73C875.683 824.958 895.165 811.091 908.141 794.265C909.258 792.824 907.425 790.805 906.073 792.197Z" fill="var(--color-illustration-base, #FFFFFF)"/>
<path d="M881.573 879.26C876.359 878.192 871.048 879.348 867.226 883.18C865.579 884.807 867.99 887.1 869.715 885.659C872.753 883.119 876.74 882.015 880.652 882.631C882.827 883.004 883.797 879.691 881.573 879.27V879.26Z" fill="var(--color-illustration-base, #FFFFFF)"/>
<path d="M880.622 893.48C876.899 892.478 872.944 892.786 869.421 894.352C867.549 895.185 868.901 898.468 870.832 897.703C873.619 896.529 876.705 896.261 879.652 896.939C881.886 897.458 882.847 894.058 880.632 893.48H880.622Z" fill="var(--color-illustration-base, #FFFFFF)"/>
<path d="M873.488 904.24L867.5 905.622C865.432 906.092 866.304 909.307 868.382 908.807L874.409 907.366C876.438 906.886 875.575 903.77 873.537 904.24H873.488Z" fill="var(--color-illustration-base, #FFFFFF)"/>
<path d="M690.12 326.883C672.137 359.958 669.658 393.18 666.12 429.851C664.669 444.904 663.18 459.996 660.24 474.804C657.76 487.064 651.263 500.48 652.547 513.279C653.174 519.561 658.182 524.314 663.327 527.567C678.174 537.044 696.078 539.17 713.307 539.484C744.226 540.033 775.88 535.192 803.016 519.58C808.671 516.327 814.492 512.103 816.413 505.576C818.608 498.128 815.06 490.298 812.493 482.948C805.927 464.142 804.437 441.788 804.653 421.894C804.956 397.943 801.017 373.531 790.394 352.314" fill="var(--color-illustration-base, #FFFFFF)"/>
<path d="M687.347 325.286C678.737 340.97 672.539 357.862 668.962 375.393C665.228 392.906 663.689 410.84 661.906 428.627C659.946 448.031 658.084 467.435 652.41 486.163C649.881 494.512 647.176 503.273 647.725 512.113C648.274 520.953 653.772 527.107 660.847 531.713C675.606 541.317 693.736 543.855 710.984 544.375C728.911 545.053 746.853 543.492 764.394 539.729C773.337 537.73 782.081 534.929 790.521 531.36C798.116 528.136 805.868 524.5 812.346 519.306C819.206 513.818 822.881 506.106 821.763 497.246C820.646 488.387 816.324 480.087 814.168 471.414C811.718 461.087 810.258 450.55 809.807 439.946C809.278 429.871 809.739 419.787 809.219 409.713C808.151 389.015 803.731 368.661 794.157 350.178C791.56 345.18 784.357 349.57 786.66 354.558C793.892 369.856 797.891 386.791 799.282 403.617C800.693 420.63 799.341 437.682 801.37 454.685C802.289 463.178 803.928 471.577 806.27 479.793C808.475 487.182 814.021 496.394 811.581 504.293C809.523 510.957 801.938 514.602 796.225 517.591C788.847 521.413 781.131 524.543 773.175 526.94C757.196 531.671 740.651 534.219 723.989 534.516C707.887 534.947 691.129 534.467 675.91 528.636C669.609 526.225 661.053 522.305 658.035 515.788C654.85 508.928 658.28 498.942 660.22 492.141C662.73 483.84 664.727 475.393 666.198 466.847C667.658 457.664 668.678 448.413 669.579 439.172C673.225 401.451 675.067 362.839 692.795 328.5C694.648 324.894 689.326 321.728 687.327 325.305L687.347 325.286Z" fill="var(--color-illustration-primary, #382C80)"/>
<path d="M615.846 611.573C611.255 609.409 606.403 607.851 601.41 606.937C596.687 606.212 590.826 605.271 586.26 607.035C583.32 608.182 582.163 613.709 586.26 614.258C590.719 614.856 595.266 613.984 599.784 614.258C604.489 614.51 609.141 615.376 613.621 616.835C616.669 617.874 618.874 612.857 615.846 611.553V611.573Z" fill="var(--color-illustration-primary, #382C80)"/>
<path d="M749.351 571.971C749.959 580.497 750.978 590.493 759.974 594.305C761.534 594.986 763.222 595.321 764.923 595.285C767.481 595.207 770.568 593.531 773.028 594.433C776.066 595.54 778.016 600.313 779.359 602.969C783.641 611.426 787.071 620.158 790.56 628.948C794.657 639.258 799.478 649.293 804.212 659.328C809.739 671.02 814.864 683.329 821.528 694.422C822.655 696.294 826.046 695.069 825.193 692.874C821.273 682.652 815.776 672.882 811.052 662.994C806.328 653.105 801.546 643.051 797.136 632.917C793.079 623.598 789.825 613.994 785.376 604.86C782.985 599.96 780.094 591.816 774.263 590.111C771.881 589.415 769.471 590.111 767.138 590.591C764.277 591.366 761.217 590.693 758.945 588.788C754.045 584.799 753.065 577.881 752.546 571.991C752.35 570.031 749.253 569.952 749.39 571.991L749.351 571.971Z" fill="var(--color-illustration-primary, #382C80)"/>
<path d="M633.692 623.892C645.002 600.503 658.474 578.222 673.93 557.34C675.44 555.301 672.029 553.341 670.54 555.38C655.103 576.291 641.881 598.749 631.085 622.392C630.281 624.146 632.849 625.685 633.692 623.921V623.892Z" fill="var(--color-illustration-primary, #382C80)"/>
<path d="M299.178 924.575C287.268 919.018 278.612 908.247 275.747 895.42L272.385 897.38C279.245 902.829 286.105 908.356 292.965 913.834C293.74 914.566 294.904 914.699 295.824 914.162C296.744 913.625 297.2 912.546 296.944 911.512C296.062 906.886 295.082 902.28 294.131 897.664C293.406 894.078 292.25 890.079 293.093 886.404C294.073 882.082 298.483 881.445 301.658 884.121C304.833 886.796 305.676 891.745 306.44 895.734C306.989 898.615 311.213 897.753 311.34 895.067C312.016 882.043 315.26 868.411 321.709 856.985C323.355 854.045 325.776 851.712 328.784 854.535C331.009 856.612 331.959 859.885 332.704 862.718C334.512 869.317 334.896 876.225 333.831 882.984C333.439 885.522 337.222 887.796 338.447 884.944C342.298 875.899 353.392 866.902 363.643 871.802C370.944 875.301 374.756 886.61 368.406 892.647C366.446 894.479 368.504 897.419 370.885 896.9C375.785 895.832 382.116 894.274 386.771 897.106C390.064 899.125 392.063 903.515 389.534 906.837C387.574 909.424 391.945 911.914 393.876 909.375C397.561 904.564 395.454 897.87 391.24 894.117C385.36 888.844 376.54 890.471 369.533 891.99L372.012 896.243C380.558 888.119 376.52 873.223 366.887 867.774C354.343 860.65 339.123 870.538 334.086 882.396L338.702 884.356C340.146 875.704 339.443 866.83 336.654 858.513C334.694 852.937 329.607 845.685 322.747 848.821C319.582 850.262 317.798 853.427 316.309 856.406C314.412 860.232 312.775 864.18 311.409 868.225C308.474 876.902 306.769 885.947 306.342 895.097L311.242 894.43C310.243 889.06 308.9 883.18 304.186 879.828C300.472 877.163 295.141 876.467 291.505 879.662C287.869 882.857 287.663 887.855 288.212 892.255C289.065 899.115 290.868 905.975 292.377 912.776L295.876 910.091C288.859 904.789 281.813 899.546 274.825 894.225C273.336 893.088 271.484 894.95 271.885 896.488C275.314 910.147 284.754 921.512 297.552 927.388C299.443 928.26 301.099 925.428 299.198 924.575H299.178Z" fill="var(--color-illustration-primary, #382C80)"/>
<path d="M334.654 922.292C334.87 916.559 343.122 913.825 346.934 917.902C348.649 919.734 351.334 917.01 349.678 915.167C343.602 908.425 331.175 913.394 330.979 922.292C330.921 924.664 334.566 924.654 334.654 922.292Z" fill="var(--color-illustration-primary, #382C80)"/>
<path d="M261.39 791.305C273.137 805.58 282.947 821.344 290.564 838.189C298.277 855.113 303 872.724 306.548 890.913C307.087 893.686 311.095 892.451 310.713 889.766C305.431 852.8 287.389 817.52 263.418 789.277C262.223 787.856 260.214 789.894 261.39 791.305Z" fill="var(--color-illustration-primary, #382C80)"/>
<path d="M298.884 844.078C299.443 841.06 299.619 838.061 300.648 835.131C301.236 833.486 301.991 831.906 302.902 830.417C303.294 829.76 303.735 829.123 304.176 828.506L304.029 827.722V829.584C303.926 833.134 303.516 836.669 302.804 840.148C302.471 841.765 302.079 843.382 301.628 844.97C301.403 845.754 300.795 849.203 300.139 849.576L302.579 849.889L302.393 849.713C301.759 849.131 300.82 849.03 300.077 849.465C299.335 849.899 298.962 850.767 299.159 851.604L299.208 851.849C299.46 852.723 300.258 853.326 301.168 853.329C303.128 853.143 303.716 852.006 304.343 850.232C305.427 847.099 306.275 843.888 306.881 840.628C307.378 838.004 307.725 835.354 307.92 832.69C308.087 830.476 308.763 827.026 307.44 825.017C304.676 820.803 300.884 826.105 299.512 828.408C296.826 832.945 294.915 838.796 295.778 844.088C296.042 845.666 298.639 845.636 298.924 844.088L298.884 844.078Z" fill="var(--color-illustration-primary, #382C80)"/>
<path d="M287.075 826.34C283.371 823.724 268.955 817.52 267.76 826.105C267.289 829.506 270.533 831.583 273.473 832.073C277.628 832.779 282.93 831.564 286.076 828.731C286.658 828.125 286.767 827.207 286.344 826.481C285.921 825.755 285.067 825.397 284.253 825.605C282.048 826.272 280.019 827.35 277.716 827.722C276.428 828.009 275.094 828.032 273.796 827.791C272.611 827.35 272.023 826.585 273.248 825.968C274.727 825.223 278.079 826.458 279.549 826.869C281.725 827.477 283.783 828.359 285.89 829.143C287.624 829.79 288.398 827.271 287.075 826.34Z" fill="var(--color-illustration-primary, #382C80)"/>
<path d="M277.716 806.74C277.14 804.097 277.087 801.367 277.56 798.704C277.834 797.273 278.785 792.824 280.5 792.932C282.215 793.04 281.744 797.616 281.48 799.027C281.036 801.212 280.12 803.272 278.794 805.064C277.285 807.24 280.754 809.17 282.303 807.112C284.798 803.765 285.986 799.622 285.645 795.46C285.429 792.834 284.665 788.287 281.352 788.002C278.04 787.718 276.119 791.922 275.237 794.598C273.861 798.779 273.732 803.27 274.865 807.524C275.364 809.366 278.05 808.582 277.707 806.74H277.716Z" fill="var(--color-illustration-primary, #382C80)"/>
<path d="M751.86 279.608C784.2 302.53 803.8 342.397 802.154 382.008C799.351 449.922 739.786 499.442 687.709 534.751C657.819 555.008 625.969 573.343 591.071 582.487C531.615 598.059 466.19 586.319 412.711 557.565C411.604 556.977 410.428 556.233 410.105 555.027C409.94 554.045 410.135 553.036 410.653 552.185C413.015 547.383 417.513 544.032 422.07 541.17C432.968 534.31 444.953 529.038 454.92 520.864C470.551 508.046 478.44 486.329 462.378 470.502C458.072 466.187 455.687 460.319 455.763 454.224C455.841 450.049 458.517 443.67 463.201 443.052C465.994 442.68 468.758 443.768 471.374 444.807C518.698 463.505 566.434 468.562 616.414 457.733C621.984 456.696 627.399 454.95 632.525 452.539C639.082 449.207 644.56 444.121 649.95 439.113C677.39 413.584 724.9 380.019 752.321 354.49" fill="var(--color-illustration-base, #FFFFFF)"/>
<path d="M750.194 282.44C777.154 302.148 794.98 334.057 797.851 367.318C800.644 399.609 788.737 430.244 769.823 455.93C750.909 481.615 725.723 502.597 699.871 521.08C669.873 542.532 637.925 562.848 602.684 574.461C567.091 586.221 528.841 587.759 492.091 580.919C473.56 577.468 455.447 572.064 438.054 564.798C434.095 563.138 430.175 561.381 426.294 559.525C422.257 557.565 417.758 555.782 414.054 553.253L414.417 554.439C414.729 553.803 415.083 553.187 415.475 552.597C416.053 551.744 416.709 550.947 417.435 550.215C418.951 548.715 420.616 547.372 422.404 546.207C426.324 543.552 430.518 541.239 434.654 538.916C449.559 530.576 465.23 521.727 472.315 505.302C475.51 498.308 476.319 490.457 474.618 482.958C473.656 479.128 471.973 475.516 469.659 472.315C467.16 468.856 463.681 466.151 461.819 462.231C460.289 459.207 459.79 455.765 460.398 452.431C460.673 450.988 461.31 449.639 462.25 448.511C463.838 446.874 465.808 447.649 467.778 448.305C477.088 451.432 486.123 455.165 495.58 457.919C514.773 463.516 534.565 466.806 554.537 467.719C574.374 468.488 594.231 466.866 613.68 462.888C623.225 460.928 632.594 458.517 640.63 452.803C647.549 447.904 653.478 441.759 659.828 436.143C685.308 413.721 712.905 393.876 738.865 372.042C744.471 367.328 749.861 362.418 755.221 357.44C759.22 353.735 753.261 347.767 749.243 351.471C723.685 375.187 694.844 395.356 667.903 417.484C661.582 422.688 655.33 427.97 649.283 433.478C642.659 439.485 636.298 446.12 627.91 449.658C618.404 453.676 607.398 455.136 597.255 456.518C586.834 458.004 576.324 458.78 565.797 458.84C545.404 458.891 525.088 456.319 505.351 451.186C495.453 448.617 485.704 445.505 476.147 441.867C471.658 440.161 466.886 437.682 461.937 438.701C458.095 439.485 455.155 442.357 453.411 445.767C449.579 453.264 451.127 462.652 455.733 469.483C458.115 473.001 461.476 475.647 463.622 479.352C465.462 482.451 466.512 485.954 466.68 489.553C467.366 507.831 450.618 519.63 436.574 527.646C428.538 532.242 419.797 536.319 412.78 542.444C409.781 545.07 406.469 548.824 405.724 552.881C404.744 558.398 409.379 560.878 413.564 563.034C430.554 571.888 448.417 578.955 466.866 584.124C504.185 594.561 543.982 597.059 582.026 589.151C621.01 581.056 656.271 561.25 688.934 539.171C716.374 520.551 743.216 500.186 765.119 475.128C786.591 450.549 802.83 421.12 805.799 388.163C808.906 353.657 796.185 318.298 772.479 293.103C766.745 287.037 760.4 281.579 753.546 276.815C750.076 274.385 746.911 280.01 750.253 282.45L750.194 282.44Z" fill="var(--color-illustration-primary, #382C80)"/>
<path d="M718.226 226.413C719.355 230.534 719.009 234.919 717.246 238.81C714.836 244.093 709.975 252.305 703.634 252.668C693.889 253.279 684.106 252.42 674.616 250.12C671.372 249.46 668.305 248.117 665.62 246.18C663.052 244.112 661.2 240.908 661.484 237.615C661.925 232.529 667.237 231.225 671.441 230.529C672.157 230.412 674.107 230.529 674.656 230.069C675.871 229.089 675.175 229.51 674.489 228.011C672.98 224.738 671.745 221.974 671.667 218.211C671.539 215.596 672.061 212.99 673.186 210.626C674.871 207.323 680.614 201.58 693.119 199.434" fill="var(--color-illustration-primary, #382C80)"/>
<path d="M714.62 227.403C715.747 232.235 714.404 236.419 711.974 240.604C710.288 243.544 707.956 247.258 704.565 248.366C702.429 249.071 699.577 248.699 697.333 248.66C694.556 248.601 691.786 248.434 689.022 248.16C683.636 247.703 678.315 246.658 673.156 245.043C670.589 244.191 664.503 241.241 665.973 237.448C666.884 235.106 671.431 234.949 673.509 234.734C677.498 234.322 681.163 231.078 678.977 226.894C676.939 222.974 675.126 218.995 676.273 214.379C678.037 207.284 687.758 204.501 694.158 203.178C699.058 202.198 696.902 194.995 692.109 195.769C684.397 197.004 676.086 200.052 671.088 206.392C668.652 209.65 667.363 213.624 667.423 217.692C667.396 220.363 667.844 223.017 668.746 225.532C669.187 226.757 669.726 227.991 670.236 229.177C670.363 229.452 671.931 232.372 671.549 231.598V227.188C673.058 226.267 673.205 225.914 672.01 226.129C671.432 226.168 670.856 226.237 670.285 226.335C669.383 226.472 668.482 226.649 667.6 226.864C665.568 227.324 663.631 228.133 661.876 229.256C658.141 231.808 656.324 236.368 657.28 240.79C659.544 252.276 672.96 254.892 682.76 256.225C688.864 257.058 695.032 257.314 701.184 256.99C705.947 256.754 709.72 255.569 713.189 252.168C720.108 245.386 724.273 235.047 721.862 225.502C720.686 220.837 713.581 222.807 714.669 227.462L714.62 227.403Z" fill="var(--color-illustration-primary, #382C80)"/>
<path d="M704.271 228.54C693.942 238.34 691.531 257.518 690.453 270.993C690.169 274.649 690.071 278.392 691.169 281.881C693.873 290.417 701.949 293.592 710.024 294.807C713.826 295.386 714.924 297.934 714.708 301.667L713.865 315.172C713.473 321.61 713.473 329.058 718.393 333.223C721.441 335.811 725.733 336.428 729.712 336.056C732.395 335.841 735.01 335.109 737.415 333.9C745.853 329.509 750.713 318.161 751.537 309.145C752.606 296.241 752.858 283.282 752.291 270.347C752.027 262.556 751.38 254.765 751.174 246.974C751.007 241.231 749.518 236.713 745.206 232.577C737.807 225.596 727.786 222.093 717.648 222.944" fill="var(--color-illustration-base, #FFFFFF)"/>
<path d="M701.88 226.149C695.471 232.333 691.982 240.849 689.855 249.365C687.69 258.068 685.818 268.123 686.367 277.119C686.974 286.968 692.972 293.926 702.105 297.14C704.185 297.835 706.314 298.369 708.475 298.738C710.435 299.11 710.543 299.179 710.533 301.188C710.533 306.989 709.553 312.791 709.426 318.593C709.201 328.393 712.817 338.33 723.607 340.202C733.955 341.995 743.393 337.311 749.273 328.902C755.153 320.494 756.241 310.919 756.848 301.109C757.542 288.706 757.542 276.273 756.848 263.869C756.26 252.227 757.956 238.527 749.077 229.569C740.787 221.385 729.322 217.254 717.717 218.27C711.749 218.809 711.592 228.07 717.717 227.717C726.106 227.217 734.69 229.677 741.031 235.351C748.028 241.623 746.519 251.433 747.019 260.008C747.636 270.602 747.999 281.206 747.813 291.819C747.666 300.502 747.93 309.802 744.775 318.034C741.835 325.6 736.16 331.754 727.595 331.754C717.315 331.754 717.883 321.484 718.295 313.889C718.687 306.833 721.803 294.485 712.885 291.349C709.681 290.231 706.221 290.192 703.085 288.85C699.726 287.6 696.99 285.085 695.461 281.843C693.501 277.197 694.412 271.592 694.834 266.721C695.16 262.57 695.703 258.438 696.461 254.344C698.058 245.975 700.645 237.233 706.79 231.03C709.857 227.923 705.134 223.19 701.988 226.237L701.88 226.149Z" fill="var(--color-illustration-primary, #382C80)"/>
<path d="M730.418 288.644C723.028 290.466 714.826 290.476 707.29 290.035C702.674 289.761 701.508 297.483 706.182 298.208C710.558 298.92 715.012 299.006 719.412 298.463C724.106 297.885 727.781 296.503 732.093 294.72C735.739 293.22 734.465 287.644 730.418 288.644Z" fill="var(--color-illustration-primary, #382C80)"/>
<path d="M688.532 214.977C692.639 226.414 698.969 238.017 709.847 243.446C711.038 244.14 712.39 244.509 713.767 244.514C716.116 244.202 718.048 242.509 718.667 240.222C719.215 237.966 719.096 235.6 718.324 233.411C720.216 235.302 722.244 237.272 724.9 237.772C727.556 238.272 730.731 236.508 730.663 233.852C733.24 234.518 734.161 237.635 734.583 240.251C735.752 247.291 736.53 254.391 736.915 261.517C736.596 258.496 736.961 255.441 737.983 252.58C739.051 249.64 741.55 246.494 744.696 246.915C746.699 247.341 748.329 248.789 748.989 250.727C749.605 252.626 749.91 254.612 749.89 256.607C750.145 261.929 750.645 267.25 751.399 272.523C751.566 273.699 752.017 275.149 753.193 275.276C753.702 275.288 754.201 275.133 754.614 274.835C757.123 273.297 758.602 270.563 759.925 267.975C764.492 258.91 769.422 251.061 771.803 240.918C772.567 237.664 773.116 234.195 772.019 231.039C770.886 227.884 767.903 225.774 764.551 225.757C764.767 215.173 749.351 209.264 741.305 206.01C729.953 201.532 717.902 199.08 705.702 198.768C696.225 198.454 685.984 199.483 678.821 205.687" fill="var(--color-illustration-primary, #382C80)"/>
<path d="M685.485 215.8C688.934 226.169 693.864 236.635 702.595 243.603C706.731 246.915 712.474 250.63 717.815 247.758C723.548 244.661 724.067 237.85 722.578 232.206L715.12 236.547C718.354 239.761 722.215 242.858 727.066 242.251C731.467 241.802 734.903 238.246 735.2 233.832L729.32 238.282C730.3 238.654 730.859 246.68 731.055 248.18C731.613 252.609 731.917 257.049 732.299 261.498H741.345C740.933 258.868 741.165 256.178 742.021 253.658C742.844 251.59 744.206 249.924 745.118 252.952C745.823 255.285 745.441 258.146 745.578 260.577C745.755 263.68 746.013 266.777 746.352 269.867C746.833 274.11 747.607 279.667 753.095 279.873C757.72 280.02 761.16 275.1 763.042 271.513C769 260.185 790.09 223.621 764.453 221.445L768.706 225.698C768.491 217.751 762.64 212.223 756.211 208.362C749.247 204.278 741.809 201.062 734.063 198.788C723.817 195.753 713.184 194.221 702.497 194.24C692.844 194.24 683.201 196.2 675.694 202.561C671.373 206.255 677.566 212.194 681.878 208.744C687.935 203.893 696.078 203.06 703.556 203.129C719.627 203.333 735.446 207.152 749.841 214.301C754.281 216.594 760.249 220.044 760.268 225.718C760.268 228.207 762.228 229.726 764.522 229.981C773.342 230.961 764.571 248.993 762.562 253.089C760.484 257.333 758.21 261.488 756.015 265.673C755.133 267.348 753.742 268.809 752.879 270.406C751.181 271.406 752.216 271.941 755.986 272.013L755.829 271.298C756.152 270.151 755.319 267.78 755.172 266.574C754.192 258.901 755.839 244.269 745.225 242.77C735.484 241.388 731.986 254.128 732.368 261.478C732.662 267.26 741.599 267.358 741.413 261.478C741.131 254.83 740.46 248.203 739.404 241.633C738.601 236.302 737.336 231.5 731.839 229.364C728.82 228.197 726.223 231.128 725.959 233.813C726.027 232.95 726.703 233.323 725.959 233.235C725.507 233.208 725.061 233.116 724.636 232.96C723.377 232.262 722.258 231.338 721.333 230.236C718.158 227.149 712.689 230.236 713.875 234.587C714.228 235.851 715.1 238.507 713.875 239.654C712.65 240.8 711.121 239.497 709.955 238.86C706.968 237.184 704.285 235.017 702.017 232.451C697.264 227.208 694.011 220.691 691.423 214.115C689.953 210.42 684.005 211.851 685.318 215.8H685.485Z" fill="var(--color-illustration-primary, #382C80)"/>
<path d="M703.918 259.793C703.281 261.635 702.693 263.487 702.125 265.359C701.449 267.05 700.953 268.807 700.645 270.602C700.42 273.748 704.644 273.963 706.858 273.914C707.74 273.703 708.362 272.915 708.362 272.008C708.362 271.102 707.74 270.313 706.858 270.102C706.104 270.102 704.497 270.21 703.918 269.7L704.477 271.063C704.759 269.304 705.202 267.576 705.8 265.898C706.241 264.154 706.653 262.409 707.025 260.645C707.177 259.825 706.677 259.025 705.873 258.802C705.069 258.58 704.228 259.01 703.938 259.793H703.918Z" fill="var(--color-illustration-primary, #382C80)"/>
<path d="M710.484 253.951C711.549 253.796 712.623 253.704 713.699 253.677C714.784 253.754 715.875 253.718 716.952 253.569C718.912 253.167 718.452 250.629 716.952 250.071C714.63 249.149 711.445 250.178 709.357 251.296C707.78 252.138 708.975 254.167 710.484 253.951Z" fill="var(--color-illustration-primary, #382C80)"/>
<path d="M700.792 250.835C699.617 249.892 698.338 249.087 696.98 248.434C695.99 247.901 694.756 248.226 694.158 249.179C693.609 250.164 693.938 251.407 694.902 251.991C696.338 252.824 697.868 253.483 699.459 253.951C700.289 254.183 701.161 253.763 701.498 252.971C701.813 252.177 701.516 251.27 700.792 250.815V250.835Z" fill="var(--color-illustration-primary, #382C80)"/>
<path d="M693.481 259.126C693.429 260.176 693.941 261.175 694.824 261.745C695.708 262.316 696.828 262.372 697.764 261.892C698.7 261.413 699.309 260.47 699.361 259.42C699.445 257.66 698.101 256.159 696.343 256.049C695.503 256.025 694.69 256.343 694.089 256.931C693.753 257.277 693.501 257.696 693.354 258.156C693.148 258.807 693.215 259.515 693.54 260.116C693.893 260.728 694.549 261.102 695.255 261.096C695.958 261.088 696.607 260.717 696.97 260.116C697.109 259.883 697.214 259.632 697.284 259.371C697.343 259.165 697.284 259.243 697.176 259.606C697.284 259.439 697.225 259.508 697 259.822C697.147 259.684 697.068 259.733 696.764 259.988C696.941 259.89 696.853 259.92 696.49 260.086C696.794 259.998 695.873 260.086 696.343 260.086C695.941 260.018 695.843 260.008 696.049 260.086C695.696 259.92 695.618 259.89 695.794 259.988C695.51 259.743 695.451 259.704 695.598 259.841C695.745 259.978 695.696 259.929 695.461 259.645C695.618 259.9 695.294 259.087 695.402 259.528C695.51 259.969 695.343 258.92 695.402 259.41C695.402 259.724 695.539 258.832 695.402 259.292C695.265 259.753 695.598 258.94 695.402 259.194C695.206 259.449 695.804 258.822 695.481 259.096C695.784 258.881 695.853 258.822 695.696 258.93C696.049 258.793 696.137 258.753 695.951 258.812C696.333 258.812 696.421 258.763 696.225 258.763C696.578 258.832 696.657 258.832 696.461 258.763C696.646 258.812 696.813 258.914 696.941 259.057C696.804 258.92 696.833 258.969 697.029 259.194C696.993 259.138 696.96 259.079 696.931 259.018C697.039 259.292 697.058 259.332 697 259.155C696.995 259.083 696.995 259.011 697 258.94C697 259.234 697 259.292 697 259.096C697 258.128 696.214 257.342 695.245 257.342C694.277 257.342 693.491 258.128 693.491 259.096L693.481 259.126Z" fill="var(--color-illustration-primary, #382C80)"/>
<path d="M710.622 259.812C710.54 261.436 711.791 262.818 713.415 262.899C715.038 262.98 716.42 261.73 716.502 260.106C716.585 258.346 715.241 256.845 713.483 256.735C712.643 256.711 711.83 257.029 711.229 257.617C710.893 257.963 710.641 258.382 710.494 258.842C710.288 259.493 710.355 260.201 710.68 260.802C711.034 261.414 711.689 261.788 712.395 261.782C713.099 261.776 713.749 261.405 714.11 260.802C714.249 260.569 714.354 260.318 714.424 260.057C714.483 259.851 714.424 259.929 714.316 260.292C714.424 260.125 714.365 260.194 714.14 260.508C714.287 260.37 714.208 260.419 713.905 260.674C714.081 260.576 713.993 260.606 713.63 260.772C713.934 260.684 713.013 260.772 713.483 260.772C713.081 260.704 712.983 260.694 713.189 260.772C712.836 260.606 712.758 260.576 712.934 260.674C712.66 260.429 712.591 260.38 712.738 260.527C712.885 260.674 712.836 260.615 712.601 260.331C712.758 260.576 712.435 259.773 712.542 260.214C712.65 260.655 712.484 259.606 712.542 260.096C712.542 260.41 712.68 259.518 712.542 259.978C712.405 260.439 712.738 259.616 712.542 259.88C712.346 260.145 712.954 259.508 712.621 259.782C712.925 259.567 712.993 259.508 712.836 259.616C713.189 259.479 713.277 259.439 713.091 259.498C713.473 259.498 713.562 259.498 713.366 259.498C713.718 259.567 713.797 259.567 713.601 259.498C713.786 259.547 713.953 259.649 714.081 259.792C713.944 259.655 713.973 259.704 714.169 259.929C714.133 259.873 714.1 259.814 714.071 259.753C714.179 260.027 714.199 260.067 714.14 259.89C714.081 259.714 714.14 259.743 714.14 259.675C714.14 259.969 714.14 260.018 714.14 259.831C714.14 258.863 713.354 258.077 712.386 258.077C711.417 258.077 710.631 258.863 710.631 259.831L710.622 259.812Z" fill="var(--color-illustration-primary, #382C80)"/>
<path d="M712.248 279.157C714.999 279.252 717.663 278.185 719.589 276.217C720.902 274.738 719.206 272.19 717.374 273.356C715.689 274.544 713.803 275.417 711.807 275.933C709.965 276.325 710.396 279.226 712.248 279.197V279.157Z" fill="var(--color-illustration-primary, #382C80)"/>
<path d="M689.14 549.323C689.052 563.181 689.659 577.332 692.139 590.993C694.099 602.106 698.548 613.533 708.27 620.001C710.71 621.628 712.954 617.718 710.563 616.081C700.88 609.486 697.039 598.715 695.265 587.592C693.421 574.934 692.439 562.164 692.325 549.372C692.26 548.552 691.575 547.919 690.752 547.919C689.929 547.919 689.244 548.552 689.179 549.372L689.14 549.323Z" fill="var(--color-illustration-primary, #382C80)"/>
<path d="M486.888 167.064C475.716 173.719 467.033 181.608 465.827 195.622C465.406 200.522 466.807 206.568 471.56 208.058C475.167 209.195 478.95 207.078 481.948 204.775C485.802 201.803 489.28 198.374 492.307 194.563C491.102 196.082 513.553 208.205 515.66 209.077C524.676 212.781 532.683 214.771 542.12 212.997" fill="var(--color-illustration-base, #FFFFFF)"/>
<path d="M485.378 164.487C479.273 168.054 473.354 171.72 468.914 177.345C464.35 183.057 461.748 190.088 461.496 197.396C461.339 204.726 465.465 212.87 473.736 212.87C482.478 212.87 490.484 204.05 495.561 197.807L488.348 192.28C486.182 196.896 490.357 199.718 493.718 201.972C497.805 204.726 502.117 207.156 506.458 209.548C517.905 215.898 530.194 220.043 543.424 217.466C549.353 216.31 546.756 207.597 540.954 208.509C530.939 210.087 521.276 206.921 512.534 202.227C509.016 200.336 505.517 198.385 502.087 196.347C500.608 195.455 499.147 194.554 497.707 193.574C497.481 193.427 495.855 192.398 496.639 192.829C496.511 192.76 496.119 192.27 496.041 192.3C496.923 192.025 495.061 199.679 496.286 196.935C497.266 194.828 497.031 192.496 495.1 191.055C493.454 189.781 490.514 189.624 489.073 191.408C487.052 193.947 484.84 196.328 482.458 198.532C480.302 200.492 477.323 203.521 474.236 203.893C469.208 204.491 469.865 195.759 470.375 192.78C472.109 182.519 479.871 175.022 488.407 169.74C491.67 167.721 488.72 162.625 485.388 164.585L485.378 164.487Z" fill="var(--color-illustration-primary, #382C80)"/>
<path d="M684.426 412.691C692.266 415.886 699.126 423.177 704.644 429.351C710.252 435.649 715.098 442.586 719.079 450.02C727.135 464.945 731.035 481.174 732.221 498.04C732.623 503.812 741.374 503.92 741.315 498.04C741.119 479.527 734.955 460.849 725.635 445.012C720.9 437.025 715.228 429.633 708.74 422.991C702.35 416.435 694.942 409.477 686.043 406.684C682.123 405.459 680.771 411.231 684.387 412.691H684.426Z" fill="var(--color-illustration-primary, #382C80)"/>
<path d="M741.511 447.687C743.087 451.28 744.219 455.052 744.882 458.918C745.647 463.21 752.389 461.437 751.478 457.095C750.542 452.708 749.07 448.453 747.097 444.424C745.265 440.651 739.845 443.953 741.511 447.687Z" fill="var(--color-illustration-primary, #382C80)"/>
<path d="M650.097 311.448C650.381 292.377 660.416 276.54 669.324 260.4C671.725 256.039 665.297 252.305 662.66 256.48C652.419 272.797 642.688 291.672 643.217 311.419C643.335 315.838 650.077 315.858 650.077 311.419L650.097 311.448Z" fill="var(--color-illustration-primary, #382C80)"/>
<path d="M701.929 569.041C703.155 598.253 709.205 627.062 719.834 654.301C725.127 667.91 731.443 681.1 738.728 693.755C742.305 699.939 746.225 705.898 750.086 711.915C753.947 717.932 757.691 724.145 759.367 731.142C761.209 738.806 759.455 747.156 763.15 754.398C766.335 760.631 773.018 764.962 780.074 763.139C785.307 761.777 783.093 753.653 777.83 755.015C771.548 756.642 769.333 747.646 769.01 743.255C768.471 736.395 768.324 729.927 765.815 723.44C761.101 711.199 752.517 700.792 745.941 689.541C732.297 666.049 722.08 640.728 715.6 614.346C711.817 599.464 709.153 584.32 707.633 569.041C707.299 565.444 701.753 565.307 701.909 569.041H701.929Z" fill="var(--color-illustration-primary, #382C80)"/>
<path d="M716.462 644.589C714.444 646.755 713.091 649.489 711.474 651.998C709.857 654.507 708.005 657.143 706.241 659.691C702.687 664.794 698.914 669.739 694.922 674.528C686.926 683.991 678.143 692.761 668.668 700.743C664.522 704.271 670.432 709.847 674.548 706.623C684.607 698.717 693.731 689.688 701.743 679.712C705.623 674.923 709.241 669.928 712.582 664.748C714.365 661.974 716.002 659.132 717.58 656.241C719.059 653.507 720.921 650.646 721.666 647.617C722.411 644.589 718.648 642.227 716.462 644.589Z" fill="var(--color-illustration-primary, #382C80)"/>
<path d="M677.174 655.82C680.575 665.208 682.378 675.087 683.681 684.965C684.407 690.433 692.002 689.512 691.227 683.985C689.797 673.705 686.572 663.964 682.878 654.301C681.545 650.792 675.871 652.262 677.174 655.869V655.82Z" fill="var(--color-illustration-primary, #382C80)"/>
<path d="M825.625 541.64C823.047 543.269 820.593 545.087 818.284 547.079C816.324 548.598 814.11 550.019 813.914 552.636C813.688 555.576 815.315 558.702 815.678 561.632C816.048 565.285 816.14 568.961 815.952 572.628C815.805 578.135 814.737 584.966 817.461 590.052C819.656 594.149 824.321 596.197 828.584 594.07C831.073 592.826 828.888 589.376 826.438 590.405C817.794 594.07 820.48 570.08 820.372 566.317C820.318 564.458 820.171 562.604 819.931 560.76C819.754 559.535 819.558 558.31 819.274 557.095C818.99 555.88 818.294 554.704 818.294 553.645C818.294 551.685 820.803 550.333 822.146 549.186C824.09 547.665 825.921 546.005 827.624 544.218C828.158 543.63 828.197 542.745 827.716 542.113C827.236 541.481 826.372 541.282 825.664 541.64H825.625Z" fill="var(--color-illustration-primary, #382C80)"/>
<path d="M377.549 219.2C381.065 234.196 389.965 247.378 402.559 256.244C415.674 265.054 430.741 270.527 446.453 272.189C451.774 272.65 457.38 272.032 461.907 269.249C466.435 266.466 469.63 261.056 468.767 255.784C467.905 250.511 462.201 246.219 457.096 247.807C460.388 246.729 461.996 242.72 461.378 239.32C460.761 235.919 458.272 233.136 455.567 230.98C451.196 227.491 445.081 225.208 440.024 227.589C443.415 223.287 440.024 216.3 434.84 214.516C429.656 212.732 423.913 214.771 419.248 217.662C414.583 220.553 410.428 224.326 405.44 226.55" fill="var(--color-illustration-base, #FFFFFF)"/>
<path d="M372.394 213.605C373.136 220.828 375.199 227.854 378.48 234.332C388.407 254.804 408.164 267.23 429.567 273.14C439.916 275.992 452.323 278.451 462.378 273.434C471.511 268.877 476.735 256.205 469.052 247.954C465.776 244.333 460.78 242.798 456.037 243.955L458.125 251.55C466.425 248.111 467.16 238.438 462.045 231.843C456.929 225.247 447.227 220.308 438.946 223.64L443.493 229.52C449.069 221.504 441.906 211.184 433.291 209.92C421.237 208.117 413.27 218.309 403.411 223.013C398.727 225.237 402.813 232.117 407.459 229.951C414.26 226.786 419.63 220.71 426.882 218.524C429.685 217.682 433.144 217.348 435.447 219.504C437.182 221.141 437.937 223.424 436.545 225.482C434.673 228.207 437.848 232.734 441.092 231.362C445.532 229.52 450.049 231.362 453.568 234.302C455.332 235.802 460.428 242.035 456.057 243.857C451.5 245.749 453.068 252.677 458.144 251.452C462.77 250.325 465.769 255.48 464.681 259.479C463.358 264.379 458.664 267.064 453.989 267.916C444.189 269.72 432.605 265.868 423.531 262.399C404.695 255.186 388.75 241.819 382.723 222.072C381.857 219.288 381.266 216.426 380.959 213.526" fill="var(--color-illustration-primary, #382C80)"/>
<path d="M205.481 110.097C206.336 125.562 206.663 141.042 206.461 156.539C206.402 161.439 208.636 174.395 205.775 178.472C202.59 183.039 194.191 179.452 188.517 178.825C156.882 175.375 125.072 179.805 93.3588 179.373C92.4318 179.461 91.5018 179.241 90.7128 178.746C90.0255 178.019 89.6953 177.025 89.8112 176.032C89.4388 160.169 89.0697 144.306 88.7038 128.443C88.4 116.82 85.2444 104.08 101.189 103.502C134.243 102.172 167.347 102.803 200.326 105.393C201.825 105.521 203.491 105.717 204.471 106.755C205.195 107.713 205.553 108.899 205.481 110.097Z" fill="var(--color-illustration-base, #FFFFFF)"/>
<path d="M202.658 110.097C203.024 123.523 203.024 136.953 202.658 150.385C202.541 154.913 202.531 159.284 202.825 163.792C202.952 165.879 203.08 167.966 203.07 170.054C203.07 171.504 203.334 174.199 202.521 175.522C201.031 177.943 195.338 175.767 193.103 175.297C187.159 174.221 181.14 173.608 175.101 173.464C162.155 172.817 149.18 173.209 136.234 173.758C123.288 174.307 110.313 174.983 97.3474 174.964C96.455 174.865 95.5546 174.865 94.6622 174.964H93.9958C92.9374 174.777 93.0158 175.14 94.2114 176.051C94.2114 176.051 94.1134 171.426 94.1134 171.289L93.8782 161.097L93.4666 141.32C93.349 135.715 93.3098 130.099 93.0158 124.494C92.8394 121.034 92.4082 117.369 93.0158 113.929C93.496 111.175 94.672 109.392 97.3866 108.559C99.6994 107.834 102.218 107.951 104.609 107.883C108.01 107.775 111.401 107.687 114.801 107.608C129.746 107.295 144.701 107.304 159.636 107.736C166.888 107.951 174.13 108.278 181.363 108.716C185.204 108.938 189.046 109.189 192.888 109.47L198.317 109.892C198.993 109.892 199.669 109.99 200.345 110.058C201.237 110.146 200.806 109.235 200.875 110.058C201.365 115.938 210.528 116.036 210.126 110.058C209.949 107.275 209.361 104.747 207.117 102.894C204.471 100.709 200.894 100.738 197.641 100.484C189.957 99.8891 182.268 99.4154 174.571 99.0626C159.195 98.3668 143.79 98.1414 128.394 98.2884C120.691 98.3668 112.988 98.5334 105.285 98.7882C99.9542 98.9646 94.3584 98.994 89.8798 102.316C82.52 107.785 83.696 117.692 84.088 125.709C84.8132 140.193 84.8426 154.736 85.1954 169.231C85.2738 172.465 84.6662 176.659 86.0578 179.677C87.4494 182.696 90.213 183.656 93.349 183.813C100.905 184.185 108.588 183.715 116.144 183.431C131.344 182.853 146.524 181.873 161.743 181.873C169.338 181.873 176.933 182.088 184.499 182.735C189.997 183.205 195.622 185.293 201.159 184.979C214.31 184.234 211.292 168.27 210.586 159.342C209.998 151.845 210.243 144.241 209.959 136.724C209.616 127.835 209.038 118.966 208.332 110.097C208.029 106.52 202.55 106.413 202.658 110.097Z" fill="var(--color-illustration-primary, #382C80)"/>
<path d="M232.911 496.257C233.754 512.231 234.08 528.221 233.891 544.228C233.773 553.048 238.173 563.083 229.069 568.267C219.132 573.922 197.935 572.707 186.606 573.059C175.649 573.399 164.683 573.131 153.756 572.256C145.544 571.599 128.276 572.256 121.328 567.885C111.734 561.799 116.428 527.284 116.124 515.21C115.82 503.136 112.684 490.024 128.619 489.436C161.677 488.07 194.788 488.724 227.766 491.396C229.265 491.523 230.921 491.729 231.901 492.807C232.623 493.807 232.98 495.025 232.911 496.257Z" fill="var(--color-illustration-primary, #382C80)"/>
<path d="M230.079 496.257C230.49 512.025 230.402 527.793 229.922 543.561C229.765 548.745 231.392 554.145 230.608 559.241C229.824 564.337 224.728 565.827 220.435 566.817C209.891 569.227 198.797 568.394 188.095 568.6C174.64 568.855 161.361 568.002 147.915 567.512C142.559 567.455 137.21 567.101 131.892 566.454C129.614 566.191 127.376 565.651 125.228 564.847C124.259 564.553 123.413 563.951 122.818 563.132C121.044 560.535 120.544 556.811 120.191 553.665C119.736 548.858 119.592 544.026 119.76 539.2C119.927 530.949 120.867 522.668 120.622 514.406C120.446 508.33 117.486 496.198 125.709 494.316C129.256 493.503 133.186 493.807 136.812 493.699C141.34 493.581 145.87 493.49 150.405 493.424C159.46 493.3 168.518 493.317 177.58 493.473C186.642 493.63 195.694 493.957 204.736 494.453C209.028 494.689 213.324 494.956 217.623 495.257C219.887 495.424 222.141 495.6 224.404 495.786C225.54 495.807 226.672 495.902 227.795 496.07C228.677 496.257 228.226 495.188 228.315 496.276C228.795 502.156 237.958 502.254 237.576 496.276C237.34 492.689 236.253 489.544 232.832 487.878C229.412 486.212 224.747 486.496 221.014 486.221C211.978 485.568 202.933 485.072 193.877 484.732C175.767 484.075 157.617 484.075 139.527 484.575C132.774 484.761 124.484 483.85 118.457 487.574C114.017 490.318 112.047 495.012 111.459 500.01C110.871 505.008 111.557 510.163 111.665 515.229C111.753 519.443 111.45 523.677 111.244 527.891C110.734 538.426 109.999 549.451 112.224 559.819C113.047 563.739 114.507 567.806 117.526 570.521C121.446 574.069 127.473 574.843 132.5 575.421C138.38 576.146 144.378 576.205 150.326 576.401C158.058 576.724 165.751 577.381 173.493 577.499C180.608 577.587 187.713 577.312 194.818 577.254C201.319 577.316 207.819 577.035 214.291 576.411C220.622 575.686 227.638 574.657 232.911 570.766C238.977 566.278 239.457 559.192 238.654 552.264C237.674 543.816 237.83 535.329 237.556 526.833C237.223 516.601 236.576 506.39 235.802 496.188C235.459 492.67 229.981 492.572 230.079 496.257Z" fill="var(--color-illustration-primary, #382C80)"/>
<path d="M614.141 923.997C610.044 920.277 608.04 914.781 608.78 909.297C609.241 906.151 610.74 902.976 614.493 904.299C617.326 905.279 618.747 908.082 620.148 910.512C621.353 912.609 624.881 911.757 624.783 909.258C624.284 896.92 623.255 883.376 630.066 872.39C630.908 871.038 632.026 869.068 633.584 870.656C634.407 871.518 634.564 873.821 634.877 874.938C635.781 878.609 636.374 882.35 636.651 886.12C637.188 893.418 636.623 900.756 634.975 907.886C634.715 908.935 635.18 910.03 636.115 910.573C637.05 911.115 638.231 910.975 639.013 910.228C641.59 908.092 646.245 904.27 649.705 906.955C650.979 907.935 650.891 909.522 651.508 910.875C652.008 912.032 652.867 912.997 653.958 913.629C656.702 915.314 659.436 915.824 661.631 918.46C663.825 921.179 664.979 924.591 664.885 928.084C664.885 931.024 669.207 931.024 669.462 928.084C669.827 923.852 668.613 919.634 666.051 916.245C664.872 914.639 663.438 913.236 661.808 912.09C659.76 910.669 656.839 910.277 655.673 908.003C654.791 906.288 654.624 904.818 653.047 903.456C651.635 902.292 649.909 901.572 648.088 901.388C643.188 900.81 639.17 903.868 635.593 906.818L639.63 909.16C641.737 900.171 642.211 890.877 641.032 881.72C640.395 876.898 639.317 862.522 631.173 864.854C627.87 865.834 625.861 869.47 624.391 872.302C622.577 875.87 621.28 879.678 620.54 883.611C618.913 892.029 619.178 900.791 619.815 909.297L624.45 908.043C622.079 904.632 619.354 900.889 615.081 899.869C611.544 898.921 607.821 900.549 606.114 903.789C602.194 911.277 605.673 921.253 611.651 926.506C613.347 927.995 615.826 925.526 614.15 924.007L614.141 923.997Z" fill="var(--color-illustration-primary, #382C80)"/>
<path d="M682.094 915.05C683.573 914.162 685.388 914.036 686.976 914.711C688.563 915.385 689.732 916.779 690.12 918.46C690.639 920.959 694.51 919.911 693.962 917.402C692.658 911.522 685.2 908.435 680.134 911.738C678.076 913.09 679.977 916.393 682.094 915.06V915.05Z" fill="var(--color-illustration-primary, #382C80)"/>
<path d="M73.5432 191.898C64.8267 185.267 54.3156 181.415 43.3788 180.843L44.9174 184.567C52.3614 176.729 55.5815 165.789 53.5708 155.167C52.3066 148.827 49.3568 142.81 46.946 136.851C44.3327 130.351 41.7193 123.847 39.106 117.339L36.8716 120.279C46.4756 120.387 55.0702 114.311 59.4116 105.952C64.8898 95.5246 63.4296 83.0688 59.1666 72.5142L57.04 75.3562C70.4386 75.1731 81.4874 64.8043 82.52 51.4442L78.7078 53.0318C88.2628 60.5778 94.1036 73.7392 106.148 77.9924C108.941 78.9724 110.146 74.5428 107.373 73.5628C101.855 71.6028 97.6806 66.6146 93.9076 62.3712C90.1346 58.1278 86.44 53.4336 81.8928 49.8664C81.2443 49.2576 80.2994 49.0849 79.4775 49.4251C78.6556 49.7652 78.1091 50.5552 78.0806 51.4442C77.4632 62.234 67.82 71.1422 57.04 70.8286C56.3294 70.8251 55.6581 71.1539 55.2253 71.7175C54.7926 72.281 54.6481 73.0145 54.835 73.7C58.2944 82.8042 60.127 93.5352 55.815 102.698C52.3556 110.097 45.182 115.683 36.8422 115.644C35.4898 115.644 34.0296 117.153 34.6078 118.584C39.0962 129.531 44.202 140.438 47.9554 151.659C51.5962 161.973 49.2396 173.454 41.8304 181.5C41.238 182.135 41.0717 183.059 41.4052 183.861C41.7388 184.663 42.5105 185.196 43.3788 185.224C53.5882 185.59 63.4674 188.936 71.7988 194.848C73.602 196.122 75.1994 193.211 73.504 191.908L73.5432 191.898Z" fill="var(--color-illustration-primary, #382C80)"/>
<path d="M64.292 225.208C71.397 222.209 78.5314 219.328 85.4992 215.986C87.2436 215.153 85.9892 212.066 84.1664 212.831C76.8556 215.712 69.7114 218.985 62.528 222.18C60.4602 223.101 62.2536 226.1 64.292 225.208Z" fill="var(--color-illustration-primary, #382C80)"/>
<path d="M90.0562 461.496C81.9677 473.506 70.8798 483.191 57.8926 489.593C56.2266 490.406 56.5108 492.758 57.8926 493.65C72.5044 503.009 76.1696 525.51 64.9682 538.887C64.2835 539.62 64.0906 540.686 64.4747 541.612C64.8589 542.539 65.7492 543.155 66.7518 543.189C74.4056 544.169 78.5706 552.832 78.3452 559.849C78.0414 569.139 72.0046 577.293 66.8106 584.555C65.3602 586.583 67.7906 588.622 69.7506 588.308C86.1656 585.75 102.355 600.313 102.091 616.728C102.091 618.757 105.031 620.344 106.442 618.531C110.055 613.886 113.648 609.231 117.222 604.566C118.947 602.322 115.036 599.274 113.302 601.519C109.793 605.974 106.301 610.443 102.826 614.925L107.177 616.728C107.471 596.707 87.9492 580.282 68.3394 583.408L71.2304 587.162C77.571 578.273 84.7054 567.895 83.2354 556.39C82.0888 547.413 76.0716 539.328 66.7518 538.191L68.5354 542.493C81.6478 526.607 77.767 500.706 60.2642 489.632V493.689C73.894 486.931 85.2834 476.382 93.0648 463.309C94.2114 461.349 91.3106 459.722 90.0562 461.555V461.496Z" fill="var(--color-illustration-primary, #382C80)"/>
<path d="M111.116 448.472C114.69 455.142 118.283 461.796 121.896 468.434C123.19 470.796 126.796 468.679 125.503 466.327C121.805 459.735 118.071 453.159 114.301 446.6C113.116 444.522 109.97 446.375 111.097 448.472H111.116Z" fill="var(--color-illustration-primary, #382C80)"/>
<path d="M142.77 620.628C143.091 614.852 144.253 609.154 146.22 603.714C146.798 602.018 144.084 600.832 143.28 602.479C140.66 608.173 139.28 614.36 139.233 620.628C139.174 622.882 142.653 622.873 142.741 620.628H142.77Z" fill="var(--color-illustration-primary, #382C80)"/>
<path d="M119.564 52.5226C120.552 57.2288 121 62.0326 120.897 66.8404C120.897 68.6142 123.837 69.1434 124.101 67.2716C124.774 62.0053 124.408 56.6582 123.023 51.5328C122.465 49.2886 119.103 50.2392 119.564 52.5128V52.5226Z" fill="var(--color-illustration-primary, #382C80)"/>
<path d="M225.708 128.639C225.56 137.265 226.179 145.887 227.56 154.403C227.962 156.941 231.852 155.873 231.48 153.335C230.129 145.169 229.392 136.914 229.275 128.639C229.206 127.723 228.444 127.016 227.526 127.016C226.608 127.016 225.845 127.723 225.776 128.639H225.708Z" fill="var(--color-illustration-primary, #382C80)"/>
<path d="M255.784 513.024C255.96 524.588 256.254 536.368 258.185 547.785C258.528 549.804 261.85 549.333 261.752 547.305C261.223 535.868 259.929 524.48 259.488 513.005C259.4 510.633 255.745 510.604 255.784 513.005V513.024Z" fill="var(--color-illustration-primary, #382C80)"/>
</svg>
