<svg width="1000" height="1000" viewBox="0 0 1000 1000" fill="none" xmlns="http://www.w3.org/2000/svg">
<path d="M247.875 504.077C276.922 537.985 297.091 578.175 303.627 619.452C310.164 660.73 302.745 702.968 280.911 737.405C262.742 766.06 235.478 788.306 205.716 806.681C190.918 815.825 175.414 824.047 159.656 831.907C147.651 837.924 125.356 844.068 118.937 855.652C114.85 863.1 117.153 872.488 120.269 880.858C123.386 889.227 127.325 897.831 126.277 906.338C126.219 907.388 125.881 908.403 125.297 909.278C124.382 910.268 123.184 910.952 121.867 911.238C116.255 912.745 110.288 912.178 105.06 909.64C99.4053 906.945 95.1227 902.29 91.0753 897.733C65.5365 868.96 43.0553 835.709 35.0879 799.733C34.6077 797.577 34.1863 795.304 34.8919 793.285C35.7837 790.717 38.3023 789.051 40.7033 787.552C76.7183 765.012 114.605 745.412 149.209 720.637C161.439 711.896 185.802 698.166 193.26 685.063C202.776 668.325 185.469 649.333 176.835 636.475C165.418 619.56 157.49 600.45 152.492 580.576C141.947 538.72 144.848 493.356 161.929 453.587" fill="var(--color-illustration-base, #FFFFFF)"/>
<path d="M245.661 506.301C293.102 562.161 319.161 640.463 290.496 711.278C276.776 745.186 250.59 771.675 220.994 792.344C205.167 803.398 188.36 812.982 171.249 821.891C163.958 825.683 156.667 829.437 149.072 832.573C142.447 835.307 135.714 837.933 129.472 841.471C124.19 844.47 118.692 848.331 115.752 853.741C111.832 860.934 112.812 869.509 115.036 877.074C116.369 881.573 118.261 885.895 119.819 890.305C121.181 894.225 123.739 900.418 122.631 904.603C121.181 909.904 112.949 908.395 109.068 907.102C104.482 905.583 100.787 902.378 97.4845 898.958C72.6121 873.184 50.3465 840.638 40.8111 805.858C39.6645 801.673 36.8911 795.676 40.8797 792.53C44.8683 789.384 49.4449 787.12 53.6687 784.562C61.9791 779.545 70.3287 774.625 78.7567 769.735C95.7695 759.749 112.9 749.9 129.462 739.208C143.486 730.221 157.265 720.725 170.985 711.278C181.99 703.693 196.945 694.05 199.855 679.918C202.874 665.218 192.995 651.674 184.979 640.473C174.371 625.834 166.106 609.633 160.479 592.453C148.685 556.312 147.441 517.557 156.892 480.733C159.21 471.816 162.123 463.064 165.614 454.538C167.26 450.539 160.332 447.57 158.578 451.598C142.898 487.417 138.527 527.117 144.858 565.64C147.954 584.631 153.835 603.06 162.312 620.334C166.398 628.549 171.15 636.415 176.522 643.854C181.177 650.352 186.165 656.937 189.262 664.375C192.358 671.814 192.486 679.075 187.605 685.661C182.98 691.864 176.384 696.745 170.161 701.223C156.206 711.249 141.79 720.941 127.394 730.31C110.078 741.57 92.2317 751.968 74.4741 762.424C65.5757 767.657 56.6773 772.9 47.8769 778.29C41.3109 782.299 30.4525 786.601 30.4035 795.705C30.3545 804.3 34.4509 814.041 37.4791 821.949C40.7961 830.537 44.7127 838.881 49.1999 846.92C58.4413 863.58 69.7799 878.966 82.1377 893.45C87.8903 900.212 93.7703 907.925 101.679 912.296C108.382 915.99 118.055 917.588 125.199 914.021C133.108 910.1 130.413 898.341 128.355 891.628C125.552 882.425 119.76 873.008 120.671 863.07C121.416 855.005 128.511 850.458 134.999 846.969C141.487 843.48 148.582 840.805 155.432 837.875C173.454 830.162 190.937 820.087 207.588 809.778C238.33 790.727 267.446 767.011 286.144 735.562C305.558 702.909 312.526 663.748 307.949 626.204C303.451 589.396 288.516 554.351 267.377 524.049C262.017 516.346 256.235 508.947 250.139 501.813C247.513 498.726 243.093 503.195 245.7 506.262L245.661 506.301Z" fill="var(--color-illustration-primary, #382C80)"/>
<path d="M161.9 453.587C144.819 493.336 141.918 538.72 152.463 580.576C157.461 600.45 165.389 619.58 176.786 636.553C185.42 649.411 202.727 668.403 193.211 685.142C185.753 698.244 161.39 711.974 149.16 720.716C140.83 726.674 132.294 732.339 123.68 737.827C117.878 741.511 110.421 743.981 109.813 751.85C109.303 758.456 116.095 770.941 118.339 777.33C125.558 797.917 136.357 817.066 150.238 833.896C158.441 843.823 168.211 853.202 180.53 856.965C188.517 859.405 198.356 858.788 203.677 852.359C205.765 849.841 206.931 846.695 208.499 843.823C215.075 831.74 229.491 823.939 240.182 815.982C261.742 799.91 281.833 782.221 296.385 759.279C318.22 724.832 325.639 682.604 319.102 641.316C313.545 606.242 298.404 573.089 277.795 544.296C269.563 532.82 260.272 525.088 258.44 510.633C255.911 490.612 256.48 469.757 258.332 449.697" fill="var(--color-illustration-secondary, #7F72FF)"/>
<path d="M259.655 401.892C418.905 557.712 453.558 765.982 468.199 796.136C474.001 808.082 478.871 822.988 487.103 833.455C498.471 847.919 513.759 847.978 530.223 851.663C532.628 852.135 534.994 852.79 537.299 853.623C539.512 854.353 541.493 855.655 543.042 857.396C545.874 860.983 545.158 866.432 542.552 870.136C539.945 873.84 535.858 876.3 531.84 878.476C504.956 892.924 475.237 901.319 444.767 903.074C440.338 903.329 435.781 903.417 431.596 901.937C410.036 894.381 401.02 851.82 393.053 833.2L358.41 752.448C351.912 737.287 345.346 722.009 335.87 708.514C327.853 697.098 317.906 687.19 308.724 676.694C289.271 654.487 273.208 629.595 258.352 604.174C251.492 592.414 245.612 580.35 239.565 568.384C233.783 556.997 224.806 549.578 216.555 539.68C206.441 527.567 196.827 512.544 200.012 497.089" fill="var(--color-illustration-base, #FFFFFF)"/>
<path d="M257.499 404.048C315.672 461.329 361.379 529.92 395.904 603.694C419.875 654.86 437.809 708.27 453.489 762.454C457.546 776.488 461.574 790.129 467.493 803.487C475.412 821.332 482.311 841.128 501.931 848.91C510.653 852.379 520.09 853.29 529.184 855.358C534.437 856.554 542.708 858.229 540.592 865.423C538.935 871.018 532.262 873.919 527.528 876.379C506.044 887.548 482.753 894.827 458.732 897.88C449.256 899.076 436.986 901.663 428.548 895.989C422.374 891.834 418.239 885.032 414.828 878.564C407.527 864.55 403.695 849.164 397.904 834.562C388.878 811.64 378.558 789.188 368.866 766.56C359.292 744.206 350.648 720.843 335.683 701.4C328.578 692.168 320.484 683.76 312.781 675.097C304.846 666.064 297.391 656.62 290.447 646.804C276.237 626.884 263.465 605.976 252.227 584.241C247.033 574.157 242.603 563.602 235.459 554.684C228.599 546.109 220.435 538.671 214.036 529.675C207.637 520.678 201.992 509.692 204.04 498.177C204.971 492.915 196.925 490.651 195.975 495.953C191.849 519.1 208.92 537.75 223.415 553.498C231.794 562.642 237.017 572.589 242.593 583.565C248.365 594.923 254.53 606.007 261.115 616.885C273.796 637.867 287.575 658.28 303.53 676.92C311.477 686.21 320.19 694.883 327.765 704.448C335.605 714.307 341.73 725.312 347.061 736.69C358.37 760.817 368.317 785.69 378.833 810.131C383.253 820.431 388.074 830.642 391.886 841.187C394.64 848.802 397.09 856.514 399.942 864.1C405.214 878.163 411.869 895.224 425.422 903.417C434.399 908.866 445.414 907.337 455.351 906.269C479.36 903.728 502.756 897.099 524.529 886.669C533.222 882.533 545.266 877.722 548.187 867.49C551.352 856.426 542.581 850.664 533.134 848.331C523.52 845.96 513.299 845.391 504.067 841.55C485.212 833.778 478.744 810.327 471.09 793.275C470.965 793.041 470.857 792.799 470.767 792.55C470.541 791.981 470.326 791.423 470.11 790.854C469.64 789.61 469.199 788.355 468.777 787.101C467.709 783.965 466.719 780.79 465.759 777.615C450.549 727.566 435.712 677.782 415.152 629.566C383.341 554.91 340.809 484.526 285.909 424.501C278.076 416.034 270.059 407.779 261.86 399.736C259.047 397.002 254.745 401.295 257.548 404.048H257.499Z" fill="var(--color-illustration-primary, #382C80)"/>
<path d="M262.174 393.935C358.537 488.485 418.356 611.387 456.625 739.571C462.358 758.789 465.22 786.944 480.939 799.351C484.859 802.408 488.25 807.436 486.427 812.091C485.581 813.868 484.341 815.43 482.801 816.658C464.544 833.22 440.063 840.903 416.083 846.479C394.601 851.477 382.42 850.213 373.786 829.692C364.221 806.956 354.401 784.318 344.709 761.631C338.104 746.176 331.43 730.594 321.797 716.835C313.643 705.104 303.53 695.02 294.2 684.299C274.424 661.661 258.097 636.279 243.005 610.338C236.037 598.382 230.069 586.044 223.905 573.843C218.025 562.23 208.911 554.674 200.512 544.58C190.232 532.232 180.461 516.915 183.705 501.147" fill="var(--color-illustration-secondary, #7F72FF)"/>
<path d="M415.269 843.451C406.528 845.411 395.669 847.89 387.506 842.873C383.674 840.531 381.018 836.777 378.941 832.887C375.187 825.86 372.531 818.108 369.444 810.768C363.564 796.734 357.547 782.73 351.599 768.706C345.807 755.055 340.299 741.198 333.194 728.154C319.259 702.586 296.768 683.074 279.647 659.779C262.093 635.672 246.59 610.135 233.303 583.437C229.628 576.117 226.286 568.659 221.317 562.093C216.868 556.213 211.655 550.98 206.764 545.433C196.533 533.908 184.842 518.63 187.723 502.215C188.703 496.962 180.618 494.689 179.658 499.99C177.119 514.151 182.598 527.215 190.683 538.632C199.071 550.46 210.782 559.829 218.299 572.246C226.57 585.966 232.725 600.881 240.839 614.69C248.953 628.498 257.313 641.943 266.437 654.997C275.196 667.577 284.727 679.601 294.974 691.002C305.637 702.821 316.534 714.287 324.649 728.085C332.43 741.296 338.251 755.525 344.327 769.569C351.187 785.347 358.047 801.115 364.819 816.913C369.66 828.124 373.58 842.589 385.095 848.88C394.826 854.162 406.655 851.742 416.886 849.37C420.708 848.478 419.091 842.638 415.269 843.49V843.451Z" fill="var(--color-illustration-primary, #382C80)"/>
<path d="M201.335 517.052C204.991 516.2 209.028 514.671 212.743 514.367C217.545 513.965 218.201 517.572 220.69 520.708C224.767 525.862 230.157 529.626 235.126 533.84C240.094 538.054 245.377 543.032 246.729 549.569C247.983 555.664 245.083 562.838 238.556 564.131C235.528 564.729 236.811 569.355 239.84 568.767C246.308 567.503 250.473 561.907 251.443 555.556C252.638 547.805 248.503 540.749 243.309 535.339C236.449 528.273 227.207 523.579 221.925 515.053C220.151 512.191 218.76 509.732 215.065 509.898C210.273 510.124 205.01 512.338 200.365 513.544C198.101 514.142 199.062 517.591 201.345 517.052H201.335Z" fill="var(--color-illustration-primary, #382C80)"/>
<path d="M309.655 500.196C312.201 505.364 313.356 511.106 313.006 516.856C312.604 522.579 309.87 527.46 308.498 532.928C306.43 541.189 308.498 549.461 312.32 556.879C316.603 565.219 322.483 572.834 327.52 580.732C333.694 590.415 339.724 600.189 345.611 610.054C367.803 647.229 387.937 685.595 405.92 724.979C416.357 747.822 425.657 771.097 435.202 794.314C436.271 796.901 440.485 795.891 439.505 793.128C425.05 752.252 406.43 712.493 386.585 673.96C366.553 634.985 343.896 597.843 320.248 560.995C317.387 556.526 314.672 551.862 313.271 546.717C311.615 540.582 312.575 534.957 314.476 529.077C317.867 518.502 318.112 508.369 312.761 498.373C311.634 496.266 308.577 498.118 309.586 500.225L309.655 500.196Z" fill="var(--color-illustration-primary, #382C80)"/>
<path d="M460.555 793.843L466.053 789.404C466.756 788.7 466.756 787.56 466.053 786.856C465.342 786.169 464.215 786.169 463.505 786.856L458.027 791.305C457.33 792.008 457.33 793.141 458.027 793.843C458.734 794.518 459.847 794.518 460.555 793.843Z" fill="var(--color-illustration-primary, #382C80)"/>
<path d="M123.925 798.773C126.14 802.487 128.345 806.201 130.638 809.857C133.059 813.777 139.184 810.19 136.783 806.27C134.519 802.585 132.177 798.959 129.844 795.313C127.512 791.668 121.651 794.961 123.964 798.773H123.925Z" fill="var(--color-illustration-primary, #382C80)"/>
<path d="M152.815 791.286C201.159 771.186 241.074 731.711 261.282 683.348C262.193 681.173 258.342 679.546 257.43 681.731C236.663 729.236 198.923 767.287 151.59 788.444C149.993 789.149 151.159 791.972 152.786 791.286H152.815Z" fill="var(--color-illustration-primary, #382C80)"/>
<path d="M202.531 837.845C198.908 835.958 195.782 833.241 193.407 829.917C191.898 827.849 188.409 829.819 189.918 831.955C192.677 835.844 196.362 838.983 200.639 841.089C202.786 842.167 204.687 838.962 202.531 837.845Z" fill="var(--color-illustration-primary, #382C80)"/>
<path d="M542.542 870.215C545.149 866.461 545.864 861.013 543.032 857.475C541.483 855.734 539.502 854.432 537.289 853.702C534.984 852.869 532.619 852.214 530.213 851.742C513.759 848.057 498.471 847.998 487.093 833.533C486.113 832.318 485.231 831.034 484.359 829.711C480.341 832.21 477.96 836.944 476.588 841.579C475.059 846.783 474.363 852.359 471.796 857.112C460.927 877.339 432.596 872.047 414.27 876.575C413.304 876.739 412.389 877.121 411.594 877.692C409.84 879.182 410.193 881.936 410.693 884.18L413.015 894.519C413.691 897.518 414.573 900.83 417.161 902.496C418.521 903.251 420.016 903.734 421.561 903.917C438.525 907.014 458.997 902.643 475.892 899.076C495.414 894.964 514.248 888.08 531.821 878.633C535.848 876.379 539.935 873.968 542.542 870.215Z" fill="var(--color-illustration-primary, #382C80)"/>
<path d="M546.187 872.341C549.519 866.941 550.431 859.601 546.011 854.446C541.111 848.841 532.428 847.733 525.578 846.42C510.584 843.539 497.158 841.011 488.005 827.506C486.809 825.742 484.193 824.566 482.233 825.987C474.275 831.612 472.756 840.256 470.316 849.086C468.111 857.024 463.211 862.727 455.547 865.746C442.043 871.146 426.99 868.588 413.162 872.38C402.745 875.252 406.831 886.1 408.576 893.784C409.438 897.576 410.301 901.702 413.182 904.564C416.377 907.719 421.257 908.121 425.491 908.601C445.287 910.836 466.484 905.916 485.584 901.045C496.721 898.178 507.611 894.426 518.15 889.824C528.008 885.542 539.474 881.073 546.187 872.312C549.48 868.01 542.16 863.805 538.906 868.059C533.869 874.625 523.628 878.192 516.307 881.485C507.809 885.275 499.06 888.474 490.122 891.059C473.099 896.018 454.685 900.114 436.927 900.604C432.691 900.778 428.447 900.578 424.246 900.007C422.286 899.722 419.993 899.526 418.719 897.988C417.445 896.449 417.151 893.539 416.7 891.569L415.348 885.532C414.818 883.17 413.809 881.681 415.916 880.416C418.023 879.152 422.296 879.27 424.736 879.015C436.859 877.751 449.638 877.829 460.908 872.586C467.084 869.797 472.185 865.074 475.441 859.131C479.616 851.291 478.695 838.737 486.496 833.239L480.723 831.73C487.819 842.236 497.276 848.655 509.555 851.732C515.523 853.221 521.629 854.094 527.646 855.377C534.506 856.838 544.404 859.141 538.906 868.059C536.044 872.714 543.336 876.957 546.187 872.341Z" fill="var(--color-illustration-primary, #382C80)"/>
<path d="M135.93 842.314C134.644 839.906 133.155 837.611 131.481 835.454C126.346 828.898 118.741 823.812 110.382 823.694C104.766 823.596 99.0037 825.654 93.6529 823.988C86.6263 821.734 83.1669 814.031 80.5601 807.132C76.0521 795.326 71.5474 783.514 67.0459 771.695C58.2259 776.919 49.4059 782.181 40.7035 787.63C38.3025 789.13 35.8035 790.796 34.8921 793.363C34.1865 795.382 34.6079 797.656 35.0881 799.812C43.0163 835.748 65.5367 869 91.0755 897.812C95.1229 902.369 99.4055 907.023 105.06 909.719C110.317 912.238 116.307 912.77 121.926 911.218C123.243 910.932 124.441 910.248 125.356 909.258C125.94 908.383 126.278 907.368 126.336 906.318C127.385 897.851 123.396 889.237 120.329 880.838C117.261 872.439 114.909 863.08 118.996 855.632C121.985 850.174 128.58 845.94 135.93 842.314Z" fill="var(--color-illustration-primary, #382C80)"/>
<path d="M139.566 840.187C135.646 833.102 130.285 826.614 122.965 822.822C119.517 820.986 115.733 819.866 111.842 819.529C107.098 819.157 102.453 820.695 97.7394 820.391C88.2824 819.774 85.3522 807.985 82.5788 800.703C78.7503 790.662 74.9217 780.62 71.0932 770.578C70.1132 768.089 67.428 766.57 64.8996 768.059C55.3348 773.704 45.1526 779.006 36.1856 785.572C28.3946 791.266 30.3056 799.027 32.5498 807.25C37.5478 825.752 46.0934 843.235 56.3736 859.356C66.6538 875.477 78.698 891.618 92.2416 905.269C98.6214 911.698 106.51 916.343 115.762 916.275C119.28 916.275 123.464 915.696 126.473 913.727C130.119 911.335 130.716 906.935 130.648 902.947C130.452 891.304 123.621 881.289 121.455 870.087C120.358 864.423 120.956 858.866 125.023 854.535C128.58 850.762 133.421 848.282 138.008 845.989C142.908 843.568 138.596 836.297 133.754 838.717C127.443 841.863 120.887 845.577 116.683 851.457C112.077 857.827 111.9 865.736 113.498 873.164C115.35 881.749 119.848 889.521 121.622 898.125C121.985 899.918 122.671 902.751 122.19 904.662C121.377 907.905 118.515 907.866 115.762 907.905C111.208 907.902 106.775 906.443 103.11 903.74C96.5438 899.076 91.3498 891.98 86.2146 885.826C80.5992 879.113 75.2386 872.204 70.221 865.04C60.3426 850.977 51.601 835.915 45.4466 819.823C43.7904 815.491 42.3204 811.091 41.066 806.632C39.8704 802.389 36.8226 795.852 40.8504 792.618C49.298 785.895 59.8232 780.858 69.1038 775.4L62.92 772.822C66.7551 782.857 70.5836 792.896 74.4056 802.938C77.3456 810.552 79.8936 819.304 86.4204 824.674C94.0938 831.005 102.228 827.33 111.067 827.928C120.867 828.574 127.796 836.483 132.255 844.441C134.94 849.174 142.222 844.96 139.566 840.187Z" fill="var(--color-illustration-primary, #382C80)"/>
<path d="M495.227 835.631C495.284 838.979 494.294 842.261 492.395 845.019C491.043 847.028 494.355 848.939 495.649 846.92C497.774 843.557 498.757 839.597 498.452 835.631C498.305 833.582 495.188 833.524 495.227 835.631Z" fill="var(--color-illustration-base, #FFFFFF)"/>
<path d="M504.126 840.06C505.233 843.98 504.635 847.371 503.547 851.183C503.018 853.065 505.929 854.417 506.781 852.555C508.683 848.38 508.526 843.529 507.262 839.198C506.674 837.238 503.557 838.041 504.126 840.06Z" fill="var(--color-illustration-base, #FFFFFF)"/>
<path d="M514.024 843.137C515.358 846.744 515.277 850.721 513.798 854.27C513.103 856.152 516.278 857.524 517.081 855.652C518.922 851.262 518.768 846.289 516.66 842.02C515.984 840.56 513.446 841.599 514.024 843.137Z" fill="var(--color-illustration-base, #FFFFFF)"/>
<path d="M114.938 851.046C118.942 852.111 122.399 854.644 124.621 858.141C125.914 860.16 129.178 858.249 127.835 856.269C125.051 852.061 120.757 849.083 115.84 847.949C113.88 847.489 112.988 850.497 114.987 851.046H114.938Z" fill="var(--color-illustration-base, #FFFFFF)"/>
<path d="M113.165 864.374C116.577 862.982 120.489 863.727 123.151 866.275C124.925 867.941 127.62 865.237 125.816 863.61C122.155 860.252 116.891 859.295 112.283 861.15C110.323 861.944 111.136 865.139 113.165 864.374Z" fill="var(--color-illustration-base, #FFFFFF)"/>
<path d="M118.447 876.114C119.991 875.183 121.843 874.907 123.592 875.35C125.209 875.673 126.532 873.292 124.797 872.508C122.179 871.335 119.136 871.637 116.8 873.302C115.085 874.468 116.653 877.222 118.447 876.114Z" fill="var(--color-illustration-base, #FFFFFF)"/>
<path d="M504.449 826.585C504.097 825.203 503.469 820.411 505.204 819.51C505.406 818.856 505.612 818.925 505.821 819.715C506.2 820.392 506.528 821.096 506.801 821.822C507.227 822.953 507.446 824.152 507.448 825.36C507.448 827.8 510.751 828.055 511.525 825.919C512.299 823.782 514.808 822.665 516.523 824.537C518.238 826.409 517.238 828.457 515.298 829.437C512.897 830.691 515.014 834.249 517.405 833.053C519.62 832.012 521.157 829.919 521.486 827.493C521.814 825.068 520.89 822.641 519.032 821.048C514.886 817.579 509.026 819.911 507.517 824.821H511.525C510.849 821.95 508.722 813.894 504.165 815.727C500.245 817.314 500.451 824.233 501.431 827.418C501.753 828.101 502.521 828.451 503.248 828.248C503.976 828.044 504.45 827.346 504.371 826.595L504.449 826.585Z" fill="var(--color-illustration-primary, #382C80)"/>
<path d="M137.184 858.915C138.135 858.387 139.285 858.357 140.262 858.837C141.487 859.66 141.506 861.571 139.87 861.934C139.139 862.13 138.568 862.699 138.366 863.428C138.165 864.156 138.364 864.937 138.89 865.481C140.017 866.402 141.487 867.441 142.035 868.813C143.084 871.498 140.262 871.195 138.684 870.107C136.332 868.48 134.264 872.233 136.469 873.89C139.468 876.134 144.231 876.663 146.093 872.684C148.053 868.539 144.966 864.923 141.898 862.482L140.918 866.03C142.483 865.597 143.767 864.476 144.406 862.983C145.044 861.49 144.969 859.787 144.201 858.357C142.545 855.417 138.831 855.103 136.067 856.446C134.705 857.102 135.675 859.484 137.106 858.915H137.184Z" fill="var(--color-illustration-primary, #382C80)"/>
<path d="M223.983 244.22C210.008 246.523 199.777 258.528 192.456 270.68C177.962 294.69 178.736 318.945 180.99 346.032C181.787 355.832 182.588 365.632 183.391 375.432C183.989 382.733 184.577 390.132 182.97 397.316C180.598 407.802 171.533 415.799 170.112 426.265C166.633 451.853 230.872 454.175 246.121 453.832C267.407 453.352 290.221 449.501 305.421 434.605C310.135 429.989 314.055 424.129 314.623 417.563C315.162 411.32 312.663 405.264 310.37 399.423C297.878 367.46 290.737 333.658 289.231 299.375" fill="var(--color-illustration-base, #FFFFFF)"/>
<path d="M223.062 240.937C205.422 244.181 192.956 260.243 185.341 275.443C176.659 292.759 174.953 311.987 175.767 331.087C176.218 341.602 177.217 352.088 178.05 362.574C178.903 373.354 181.255 385.448 178.736 396.149C175.639 409.281 160.361 421.237 167.202 435.771C171.543 445.002 182.548 449.393 191.702 452.127C203.373 455.616 215.692 457.115 227.805 458.007C255.676 459.967 289.447 458.546 309.997 437.025C317.504 429.185 321.238 419.483 318.817 408.683C317.465 402.686 314.76 396.992 312.663 391.23C310.566 385.467 308.655 379.685 306.901 373.825C299.728 349.591 295.474 324.587 294.229 299.345C293.906 292.965 283.988 292.906 284.253 299.345C285.078 319.358 287.808 339.247 292.406 358.743C294.726 368.543 297.516 378.235 300.776 387.819C302.354 392.435 304.049 396.992 305.832 401.539C307.616 406.086 309.753 410.908 309.753 415.847C309.654 424.667 302.246 431.88 295.425 436.496C288.382 441.091 280.551 444.347 272.326 446.1C260.566 448.834 248.336 449.393 236.282 449.04C225.902 448.803 215.555 447.768 205.333 445.943C196.308 444.257 185.371 442.023 178.305 435.712C168.75 427.127 180.196 414.906 184.293 406.38C188.154 398.335 188.713 389.72 188.154 380.949C187.497 370.532 186.429 360.134 185.547 349.736C183.881 330.068 182.117 309.831 187.948 290.652C193.23 273.306 205.539 251.403 224.894 247.601C229.255 246.738 227.393 240.172 223.062 240.956V240.937Z" fill="var(--color-illustration-primary, #382C80)"/>
<path d="M219.642 336.497C220.308 322.728 224.689 309.057 232.921 297.964C241.153 286.87 253.324 278.638 266.858 276.002C282.019 273.062 296.209 276.678 309.096 285.175C311.232 286.586 313.526 288.624 313.202 291.162C312.879 293.701 310.174 295.082 307.753 294.896C304.715 294.7 301.462 292.77 298.483 291.956C294.151 290.79 289.986 289.173 285.596 288.164C277.011 286.204 267.956 285.429 259.371 287.997C247.052 291.701 241.672 318.044 239.398 328.99C235.576 347.424 234.949 367.299 242.77 384.439" fill="var(--color-illustration-secondary, #7F72FF)"/>
<path d="M222.817 336.497C224.434 315.76 234.577 295.631 253.246 285.4C261.92 280.646 271.818 278.599 281.666 279.52C286.649 280.016 291.533 281.241 296.16 283.155C298.359 284.071 300.5 285.122 302.569 286.301C303.598 286.879 310.233 290.319 306.627 290.221C304.549 290.172 301.629 288.369 299.669 287.732C297.542 287.046 295.386 286.438 293.25 285.772C287.931 284.068 282.455 282.899 276.903 282.283C268.955 281.47 258.95 281.636 252.403 286.909C242.162 295.18 238.791 310.987 236.116 323.169C231.5 344.18 229.638 366.612 238.977 386.653C241.045 391.112 248.914 387.888 247.003 383.272C238.634 362.996 240.663 341.848 245.69 321.003C247.493 313.506 249.61 305.784 253.589 299.11C255.137 296.503 257.117 293.7 259.998 292.426C265.643 289.937 273.307 290.466 279.226 291.378C284.268 292.305 289.236 293.596 294.092 295.239C298.992 296.728 304.872 300.139 310.145 299.071C313.996 298.267 317.309 295.229 317.573 291.162C317.867 286.791 314.633 283.665 311.301 281.362C293.465 269.083 269.583 267.123 250.424 277.491C228.864 289.163 217.456 312.565 216.467 336.458C216.29 340.574 222.503 340.485 222.817 336.458V336.497Z" fill="var(--color-illustration-secondary, #7F72FF)"/>
<path d="M157.373 463.044C165.311 442.543 165.575 432.537 167.29 419.395C168.643 409.056 170.162 389.544 168.868 379.274C167.588 369.029 167.296 358.685 167.996 348.384C168.368 342.798 167.663 329.255 172.896 325.462C178.129 321.67 189.693 327.54 195.299 329C204.236 331.323 213.438 333.263 222.67 331.538C225.238 331.048 228.08 330.401 230.324 331.744C232.793 333.224 233.45 336.468 233.646 339.339C234.41 350.393 232.205 362.33 237.713 371.934C244.926 384.517 268.358 392.739 281.254 385.566C288.83 381.342 293.25 373.737 296.18 365.838C298.963 358.331 298.365 346.052 309.714 347.747C313.526 348.326 316.897 350.55 319.837 353.059C329.97 361.722 336.203 374.021 341.495 386.271C345.787 396.228 349.668 406.538 350.668 417.337C353.167 444.209 335.36 471.639 309.792 480.283" fill="var(--color-illustration-secondary, #7F72FF)"/>
<path d="M159.989 463.74C171.641 435.781 174.689 403.451 172.141 373.473C171.318 363.878 171.769 354.402 172.082 344.808C172.21 340.633 171.328 329.392 176.698 328.148C179.765 327.432 183.842 329.275 186.684 330.255C190.389 331.529 193.975 332.822 197.797 333.743C202.323 334.89 206.934 335.663 211.586 336.056C214.035 336.252 216.497 336.252 218.946 336.056C221.072 335.87 225.953 334.096 227.766 335.076C230.578 336.478 229.726 343.171 229.726 345.768C229.6 350.566 229.714 355.368 230.069 360.154C230.863 367.71 233.313 374.737 238.732 380.205C248.189 389.731 264.036 395.18 277.266 391.965C292.073 388.418 299.178 373.286 302.53 359.831C303.049 357.724 303.51 354.304 305.401 352.893C308.43 350.639 313.241 353.873 315.603 355.705C322.943 361.389 328.079 369.543 332.263 377.706C341.593 395.934 349.844 416.798 343.876 437.349C338.839 454.695 325.55 469.571 308.479 475.745C302.863 477.784 305.215 486.77 310.978 484.801C327.209 479.143 340.599 467.384 348.306 452.02C356.92 434.958 357.283 416.475 351.246 398.492C345.209 380.509 336.458 359.762 320.866 347.953C314.898 343.445 305.46 340.27 299.169 345.993C294.435 350.315 293.955 356.96 292.24 362.761C289.888 370.709 284.723 379.725 276.452 382.577C269.367 385.017 260.772 383.135 254.177 380.127C246.552 376.667 240.457 371.307 238.634 362.849C236.674 353.608 239.614 343.573 236.87 334.508C233.695 323.865 223.326 328.118 215.241 328.138C205.01 328.138 195.857 324.62 186.273 321.709C180.157 319.857 172.474 318.769 168.192 324.649C164.154 330.186 164.35 338.3 164.164 344.827C163.654 356.489 163.949 368.172 165.046 379.794C166.026 389.162 165.399 398.727 164.713 408.106C163.341 426.608 160.851 444.719 154.736 462.31C153.56 465.681 158.656 466.896 159.969 463.76L159.989 463.74Z" fill="var(--color-illustration-secondary, #7F72FF)"/>
<path d="M251.237 160.205C260.772 156.843 273.179 162.38 274.061 172.69C275.159 185.43 277.932 197.984 275.815 210.851C275.477 213.531 274.664 216.13 273.414 218.525C269.122 226.09 259.292 228.04 250.678 229.216C250.423 229.216 252.031 244.367 252.217 245.739C252.932 251.139 253.599 250.933 249.581 255.255C244.514 260.704 233.714 263.33 227.668 260.331C221.464 257.254 220.426 251.208 220.014 244.798C218.652 223.836 219.965 202.374 222.444 181.549" fill="var(--color-illustration-base, #FFFFFF)"/>
<path d="M252.109 163.38C257.783 161.694 264.849 162.919 268.524 167.966C270.699 170.906 270.484 174.64 270.846 178.138C271.297 182.666 271.885 187.184 272.248 191.721C272.846 199.326 273.943 210.459 269.386 217.113C265.466 222.846 257.048 223.973 250.678 224.826C248.718 225.08 247.023 226.011 246.444 228.05C245.807 230.323 246.444 233.224 246.699 235.508C246.974 238.712 247.248 241.927 247.611 245.121C248.12 249.482 249.041 249.796 245.455 252.814C241.868 255.833 236.115 257.714 231.558 256.587C226.315 255.313 225.355 250.159 225.031 245.474C224.551 238.438 224.551 231.382 224.688 224.336C224.982 210.028 226.158 195.778 227.628 181.549C228.344 174.816 218.034 175.012 217.191 181.549C214.861 198.814 213.936 216.24 214.428 233.655C214.849 245.974 214.555 263.447 230.186 265.995C236.168 266.818 242.252 265.617 247.473 262.585C251.472 260.321 256.558 256.009 257.195 251.139C257.626 247.787 256.47 243.71 256.088 240.359C255.833 238.118 255.591 235.874 255.362 233.626C255.274 232.724 255.245 231.803 255.108 230.911C255 230.225 255.323 228.638 254.882 230.353L251.844 233.44C260.664 232.127 270.366 229.971 275.884 222.307C282.361 213.311 280.911 199.355 279.745 188.987C278.765 180.236 279.431 168.505 272.669 161.851C266.887 156.157 257.969 154.53 250.364 157.01C246.356 158.323 248.022 164.585 252.109 163.36V163.38Z" fill="var(--color-illustration-primary, #382C80)"/>
<path d="M211.88 207.47C214.387 209.496 217.667 210.3 220.827 209.665C231.166 208.097 227.844 201.227 231.539 194.759C235.645 187.566 241.829 181.902 242.74 195.69C242.348 189.752 243.25 183.146 247.64 179.168C256.832 170.916 275.462 178.188 281.46 167.251C287.604 156 273.551 143.878 263.908 141.908C254.265 139.938 244.308 142.81 235.243 146.573C224.296 151.11 213.222 157.696 208.391 168.515C204.638 176.953 202.844 200.012 211.88 207.47Z" fill="var(--color-illustration-primary, #382C80)"/>
<path d="M210.165 210.371C217.093 215.526 228.893 214.115 232.225 205.471C233.616 201.894 233.9 198.346 236.145 195.093C236.488 194.593 239.369 191.849 239.359 191.584C239.359 190.761 237.654 190.977 237.399 191.232C237.144 191.486 238.056 195.318 238.075 195.691C238.448 201.571 247.395 201.639 247.248 195.691C247.042 187.615 249.345 181.559 257.803 180.079C263.732 179.05 269.974 179.521 275.746 177.61C290.446 172.71 290.446 156.05 280.852 146.112C268.171 133.059 250.247 135.185 234.694 141.477C220.974 147.024 206.578 155.589 202.305 170.759C198.905 182.833 198.042 201.816 208.244 211.028C213.036 215.349 220.171 208.254 215.349 203.923C208.313 197.592 209.567 183.607 211.429 175.307C214.271 162.704 226.021 155.707 237.213 151.052C249.718 145.887 266.005 142.633 275.354 155.128C278.294 159.048 279.186 164.83 274.178 167.427C269.994 169.593 264.437 169.191 259.87 169.721C254.245 170.367 248.365 171.681 244.112 175.699C238.673 180.863 237.546 188.546 238.056 195.691H247.228C246.738 191.251 246.023 184.852 240.947 183.225C237.174 182.01 233.802 184.558 231.519 187.292C228.572 190.801 226.55 194.992 225.639 199.483C225.237 201.365 225.149 203.58 223.571 204.893C220.798 207.196 216.133 206.49 213.487 204.569C210.028 202.021 206.745 207.833 210.165 210.371Z" fill="var(--color-illustration-primary, #382C80)"/>
<path d="M221.984 270.729C217.077 268.921 212.494 266.333 208.411 263.065C203.011 258.753 203.677 249.179 206.147 243.348C206.697 241.815 207.652 240.461 208.911 239.428C211.096 237.85 214.085 238.066 216.751 238.556C228.824 240.79 240.104 247.287 252.374 247.376C255.372 247.376 258.381 247.052 261.36 247.376C264.339 247.699 267.446 248.855 269.2 251.296C271.768 254.961 270.023 259.88 272.14 263.8C273.326 265.834 274.754 267.717 276.393 269.406" fill="var(--color-illustration-base, #FFFFFF)"/>
<path d="M223.787 267.652C219.495 265.79 214.634 263.526 211.165 260.312C208.225 257.607 207.931 253.54 208.489 249.777C208.66 247.849 209.209 245.974 210.106 244.259C211.694 241.878 213.889 242.143 216.496 242.633C221.424 243.722 226.27 245.153 231 246.915C235.472 248.526 240.058 249.804 244.72 250.737C249.747 251.629 254.52 251.149 259.606 251.433C262.017 251.57 264.633 252.011 265.927 254.216C266.985 256.019 266.672 258.42 266.907 260.449C267.466 265.349 270.033 268.975 273.316 272.581C277.109 276.746 283.116 270.621 279.461 266.427C276.599 263.115 275.413 261.174 274.923 256.823C274.6 253.961 274.198 251.296 272.444 248.895C269.269 244.553 263.82 243.319 258.724 243.221C251.119 243.083 244.543 242.691 237.164 240.408C230.765 238.399 224.424 235.871 217.819 234.704C212.831 233.832 207.803 234.116 204.461 238.379C201.59 242.025 200.541 247.278 200.355 251.825C199.973 264.379 210.361 270.523 221.043 274.179C224.816 275.472 227.531 269.279 223.797 267.652H223.787Z" fill="var(--color-illustration-primary, #382C80)"/>
<path d="M551.754 167.437C558.821 166.185 566.047 166.112 573.137 167.222C576.577 167.77 580.311 168.809 582.222 171.72C584.368 174.973 583.32 179.56 580.703 182.5C578.086 185.44 574.284 186.89 570.511 187.909C566.738 188.929 562.847 189.575 559.3 191.212C562.495 192.417 564.572 195.72 565.033 199.052C565.337 202.474 564.69 205.913 563.161 208.989C560.927 213.977 557.056 218.711 551.724 219.916" fill="var(--color-illustration-base, #FFFFFF)"/>
<path d="M551.754 170.318C556.489 169.765 561.267 169.656 566.023 169.995C569.531 170.25 577.449 170.446 579.066 174.375C582.643 183.048 562.71 185.038 558.104 186.841C554.792 188.135 553.204 193.172 557.026 195.102C562.083 197.69 560.76 203.707 558.633 207.97C556.771 211.788 553.6 214.81 549.696 216.486C546.197 218.103 547.804 224.463 551.724 223.973C566.699 222.082 578.469 194.828 561.583 187.302V195.142C568.139 192.202 575.695 192.084 581.467 187.38C585.789 183.862 588.494 178.011 586.769 172.455C582.732 159.44 560.75 162.655 550.989 164.703C547.873 165.369 548.5 170.74 551.754 170.357V170.318Z" fill="var(--color-illustration-primary, #382C80)"/>
<path d="M225.032 346.454C230.304 346.454 230.314 338.261 225.032 338.261C219.75 338.261 219.75 346.454 225.032 346.454Z" fill="var(--color-illustration-primary, #382C80)"/>
<path d="M182.558 318.611C176.816 315.034 169.818 318.082 166.878 323.796C162.958 331.312 163.938 341.769 163.997 349.932C164.056 370.257 164.86 390.338 162.743 410.614C160.432 431.553 156.537 452.288 151.091 472.638C146.102 491.768 142.653 510.858 142.574 530.674C142.427 567.992 152.12 606.614 172.788 637.954C180.099 649.038 194.181 663.101 191.496 677.625C190.242 684.485 184.636 689.62 179.589 693.951C173.352 699.085 166.807 703.83 159.989 708.161C152.619 713.061 145.387 718.138 138.076 723.126C130.236 728.477 121.916 733.171 114.086 738.502C98.4058 749.145 109.333 764.962 114.615 778.369C116.399 782.877 123.66 781.103 122.043 776.32C119.936 770.068 116.859 764.159 114.997 757.828C114.174 755.015 113.37 751.948 114.997 749.263C116.624 746.577 120.015 744.97 122.72 743.383C136.626 735.474 149.395 725.684 162.733 716.923C174.091 709.416 186.665 701.635 194.877 690.531C203.697 678.614 200.169 664.689 193.142 652.86C189.526 646.774 185.136 641.227 181.128 635.416C176.404 628.54 172.226 621.306 168.633 613.778C160.829 597.231 155.439 579.65 152.629 561.573C149.53 542.299 149.299 522.673 151.943 503.332C154.521 484.594 160.45 466.493 164.076 447.952C168.315 426.97 170.673 405.653 171.122 384.252C171.279 373.472 170.681 362.643 170.534 351.843C170.475 347.58 169.074 317.68 179.422 324.041C182.882 326.167 186.028 320.748 182.598 318.611H182.558Z" fill="var(--color-illustration-primary, #382C80)"/>
<path d="M269.612 461.359C261.935 462.587 254.069 461.717 246.846 458.84C242.525 457.213 240.555 464.25 244.886 465.798C253.345 468.74 262.462 469.236 271.19 467.229C275.11 466.376 273.385 460.682 269.563 461.349L269.612 461.359Z" fill="var(--color-illustration-primary, #382C80)"/>
<path d="M269.034 185.763C261.88 189.252 269.269 199.718 271.248 204.246L273.306 200.649C270.853 200.606 268.408 200.936 266.054 201.629C263.712 202.413 263.977 206.186 266.662 206.108C268.887 206.049 271.101 205.657 273.306 205.451C274.153 205.433 274.928 204.974 275.35 204.24C275.773 203.507 275.782 202.606 275.374 201.864C274.12 199.63 267.74 190.545 270.621 188.507C271.293 188.035 271.491 187.128 271.077 186.419C270.662 185.711 269.774 185.438 269.034 185.792V185.763Z" fill="var(--color-illustration-primary, #382C80)"/>
<path d="M255.372 189.693C256.98 189.066 258.44 189.311 260.125 189.35C260.905 189.329 261.579 188.799 261.782 188.047C261.985 187.294 261.671 186.497 261.007 186.086C258.783 184.861 256.186 185.4 254.02 186.488C252.276 187.37 253.501 190.408 255.372 189.693Z" fill="var(--color-illustration-primary, #382C80)"/>
<path d="M257.685 195.347C257.186 195.335 256.728 195.069 256.47 194.642L256.529 194.73C256.627 194.926 256.597 194.857 256.441 194.524C256.392 194.378 256.392 194.22 256.441 194.073C256.441 193.868 256.441 193.868 256.441 194.073L256.382 194.269L256.323 194.465C256.495 193.883 256.96 193.433 257.548 193.28H258.734C260.243 193.574 260.047 195.171 259.9 194.26L259.988 194.867C259.973 194.737 259.973 194.605 259.988 194.475L259.91 195.093C259.917 195.032 259.933 194.972 259.959 194.916L259.724 195.475C259.724 195.367 259.929 195.142 259.665 195.475C259.528 195.651 259.488 195.7 259.567 195.612C259.645 195.524 259.567 195.563 259.263 195.857C260.291 195.27 260.713 194.003 260.243 192.917C259.786 191.852 258.62 191.282 257.499 191.574C255.794 191.917 255.186 193.75 255.539 195.269C255.66 195.867 255.945 196.42 256.362 196.866C257.163 197.691 258.419 197.872 259.42 197.307C260.583 196.429 261.089 194.927 260.694 193.525C260.507 192.715 259.952 192.039 259.194 191.698C258.436 191.357 257.562 191.391 256.833 191.79C256.101 192.24 255.747 193.114 255.96 193.946C256.204 194.765 256.949 195.331 257.803 195.347H257.685Z" fill="var(--color-illustration-primary, #382C80)"/>
<path d="M263.428 208.852C261.811 208.499 260.645 207.539 259.214 206.794C258.415 206.346 257.41 206.546 256.843 207.264C256.276 207.99 256.339 209.024 256.99 209.675C258.64 210.873 260.584 211.605 262.615 211.792C263.425 211.985 264.246 211.518 264.496 210.724C264.704 209.914 264.231 209.085 263.428 208.852Z" fill="var(--color-illustration-primary, #382C80)"/>
<path d="M241.182 228.952C246.357 231.431 252.589 231.725 257.284 228.05C259.175 226.56 257.088 223.797 255.088 224.277C250.874 225.257 247.072 226.306 242.711 225.316C240.624 224.836 239.046 227.932 241.182 228.952Z" fill="var(--color-illustration-primary, #382C80)"/>
<path d="M848.145 347.12C816.158 348.002 787.934 335.938 757.113 330.294L745 262.84C744.294 258.92 799.331 237.674 804.074 234.969C811.493 230.755 818.519 225.698 826.614 222.905C834.709 220.112 844.254 219.965 851.055 225.12C856.994 229.648 859.601 237.213 861.669 244.387C867.643 265.269 871.581 286.681 873.429 308.322C874.027 315.28 874.409 322.405 872.615 329.167C870.822 335.929 866.569 342.357 860.15 345.121C856.445 346.718 852.31 347.003 848.302 347.081L848.145 347.12Z" fill="var(--color-illustration-base, #FFFFFF)"/>
<path d="M848.145 342.876C817.197 343.494 788.247 331.822 758.23 326.216L761.17 329.156L754.241 290.642L750.086 267.544C749.822 266.064 749.871 263.389 749.106 262.075C748.597 261.203 748.989 265.113 748.518 264.81C748.518 264.81 749.89 263.83 750.586 263.408C765.07 254.696 781.75 249.061 797.283 242.515C805.378 239.104 812.424 234.518 820.166 230.363C827.026 226.658 835.395 223.601 843.274 225.923C851.32 228.295 854.642 235.929 856.906 243.328C862.653 262.407 866.565 281.991 868.588 301.814C869.568 310.987 871.048 321.12 867.921 330.038C864.678 339.319 857.524 342.631 848.135 342.896C842.716 343.043 842.696 351.481 848.135 351.324C855.975 351.099 863.619 349.629 869.293 343.719C874.664 338.123 877.133 330.724 877.868 323.139C878.848 313.339 877.29 303.177 876.036 293.494C874.781 283.812 873.164 274.345 871.136 264.878C869.176 255.705 867.069 246.317 863.874 237.438C861.326 230.392 857.475 223.473 850.644 219.798C834.523 211.145 817.863 221.876 804.163 229.961C797.822 233.714 790.678 236.164 783.906 238.996C774.194 243.063 764.463 247.111 754.957 251.629C750.468 253.765 740.512 257.038 740.855 263.32C741.139 268.465 742.717 273.826 743.628 278.882L753.056 331.342C753.43 332.782 754.555 333.907 755.996 334.282C786.768 340.034 816.413 351.922 848.116 351.255C853.555 351.197 853.574 342.769 848.145 342.876Z" fill="var(--color-illustration-primary, #382C80)"/>
<path d="M766.383 383.988C754.163 390.534 737.797 390.779 724.077 393.249L658.035 405.117L570.491 420.855C552.666 424.065 535.613 412.22 532.399 394.395L513.181 287.468C509.971 269.64 521.815 252.584 539.641 249.365L625.773 233.881L690.728 222.209C707.074 219.269 730.712 210.92 747.009 215.124C750.407 215.996 753.557 217.643 756.211 219.936C762.758 225.639 766.158 234.087 768.833 242.339C777.654 269.485 781.103 298.032 783.867 326.432C785.239 340.603 786.346 355.48 780.682 368.572C777.866 375.225 772.806 380.68 766.383 383.988Z" fill="var(--color-illustration-secondary, #7F72FF)"/>
<path d="M737.042 136.234C739.799 151.546 736.358 167.325 727.476 180.099C718.595 192.873 705.002 201.595 689.689 204.344C665.287 208.734 642.257 202.168 629.125 179.03C619.05 161.302 619.08 138.645 627.684 120.152C635.358 103.668 651.106 92.075 668.932 88.8704C684.245 86.1169 700.025 89.5605 712.799 98.4432C725.572 107.326 734.293 120.92 737.042 136.234Z" fill="var(--color-illustration-secondary, #7F72FF)"/>
<path d="M712.258 140.889C714.885 157.284 705.183 173.748 689.071 178.589C674.454 183.049 658.733 176.46 651.665 162.909C644.942 150.395 646.392 133.745 656.153 123.161C663.876 114.772 675.851 111.851 686.808 114.409C699.835 117.328 709.862 127.741 712.288 140.869C712.807 143.525 716.864 142.398 716.355 139.742C710.965 112.155 674.469 98.5234 653.899 119.456C642.786 130.765 640.463 148.699 647.039 162.9C653.806 177.979 669.969 186.517 686.239 183.607C706.819 179.844 719.638 159.969 716.404 139.742C715.894 137.096 711.837 138.223 712.258 140.889Z" fill="var(--color-illustration-base, #FFFFFF)"/>
<path d="M606.575 173.964C609.829 195.289 598.5 218.525 574.51 222.837C551.465 226.972 529.429 211.649 525.284 188.605C519.042 153.845 558.428 123.19 589.063 144.927C598.615 151.813 604.94 162.302 606.575 173.964Z" fill="var(--color-illustration-secondary, #7F72FF)"/>
<path d="M585.544 178.295C587.044 188.85 582.477 200.424 571.462 203.393C562.923 205.56 553.923 202.326 548.716 195.22C541.464 185.175 543.973 171.053 553.43 163.321C558.51 158.988 565.482 157.617 571.824 159.705C579.606 162.4 584.045 170.7 585.544 178.325C586.074 180.981 590.131 179.854 589.611 177.198C587.093 164.458 576.93 152.874 562.975 154.658C551.215 156.167 542.13 166.81 540.435 178.178C537.632 197.484 557.536 214.301 575.891 206.225C587.191 201.257 591.199 188.654 589.611 177.139C589.229 174.503 585.172 175.62 585.544 178.295Z" fill="var(--color-illustration-base, #FFFFFF)"/>
<path d="M496.799 314.914C495.377 307.001 500.639 299.433 508.552 298.01C516.465 296.588 524.034 301.85 525.456 309.763L535.002 362.871C536.424 370.784 531.162 378.352 523.249 379.775C515.336 381.197 507.768 375.935 506.345 368.022L496.799 314.914Z" fill="var(--color-illustration-secondary, #7F72FF)"/>
<path d="M680.947 140.536C674.783 140.046 670.305 148.102 674.303 152.962C678.164 157.666 686.435 155.697 688.15 150.022C688.983 147.239 684.701 146.102 683.819 148.827C683.074 151.11 679.419 152.022 677.733 150.228C675.616 147.974 678.252 144.025 680.947 144.015C683.211 144.015 683.152 140.712 680.947 140.536Z" fill="var(--color-illustration-primary, #382C80)"/>
<path d="M565.719 179.667C561.142 179.305 559.564 186.145 562.377 188.948C565.699 192.26 572.177 189.399 571.883 184.695C571.883 183.52 570.931 182.568 569.756 182.568C568.582 182.568 567.63 183.52 567.63 184.695C567.561 185.616 565.885 186.596 565.111 185.831C564.004 184.724 565.621 183.225 566.552 182.764C568.159 181.98 567.208 179.824 565.719 179.667Z" fill="var(--color-illustration-primary, #382C80)"/>
<path d="M572.696 393.513C563.631 361.741 555.86 329.734 550.607 297.14C549.98 293.22 548.52 288.133 551.117 284.684C553.714 281.234 559.065 281.215 563.043 280.45C565.807 279.921 568.061 279.235 570.825 279.852C573.765 280.509 573.275 281.597 573.843 284.341C574.751 288.783 575.666 293.223 576.587 297.659L586.995 348.09C588.909 357.282 590.807 366.478 592.688 375.677C593.668 380.42 595.628 386.8 590.807 390.083C587.73 392.151 583.271 392.043 579.703 392.278C578.519 392.356 577.598 393.34 577.598 394.527C577.598 395.714 578.519 396.698 579.703 396.776C585.672 397.139 593.051 396.443 596.785 391.082C601.587 384.222 597.02 373.139 595.481 365.857C590.967 344.643 586.485 323.41 582.036 302.157C580.971 297.081 579.899 292.011 578.821 286.948C578.145 283.704 578.037 278.706 575.578 276.168C573.118 273.629 569.531 274.845 566.601 275.413C561.809 276.334 556.419 276.716 551.901 278.559C545.119 281.322 544.992 288.3 545.913 294.582C547.442 305.048 549.363 315.475 551.44 325.844C555.987 349.071 561.877 372.016 569.08 394.561C569.835 396.864 573.412 395.914 572.736 393.581L572.696 393.513Z" fill="var(--color-illustration-primary, #382C80)"/>
<path d="M647.304 268.72C654.164 305.215 661.612 341.534 672.784 376.981C673.764 380.048 678.527 378.774 677.625 375.648C667.335 340.084 657.114 304.333 650.048 267.956C649.695 266.133 646.931 266.907 647.265 268.72H647.304Z" fill="var(--color-illustration-primary, #382C80)"/>
<path d="M651.43 328.804L648.402 315.407C647.422 310.958 646.442 306.195 648.108 301.961C649.774 297.728 655.379 294.807 659.074 297.463C661.171 298.972 662.014 301.667 662.641 304.157C664.157 309.808 665.672 315.456 667.188 321.101C667.61 322.688 667.992 324.541 666.973 325.824C666.151 326.661 665.069 327.193 663.905 327.334C660.965 328.01 657.957 328.549 654.938 328.931" fill="var(--color-illustration-primary, #382C80)"/>
<path d="M653.086 328.353C651.969 323.021 650.802 317.68 649.881 312.32C649.313 309.027 648.695 304.97 650.508 301.932C652.851 298.012 658.005 297.718 659.779 302.236C661.739 307.194 662.651 312.79 663.983 317.916C664.728 320.787 666.414 323.58 663.248 324.913C660.612 326.02 657.074 326.059 654.272 326.471C651.469 326.883 652.125 331.783 654.938 331.42C661.161 330.626 671.235 330.322 669.726 321.679C668.746 316.22 666.737 310.771 665.277 305.43C664.297 301.961 663.484 297.973 660.377 295.728C655.261 291.985 648.333 295.944 646.138 301.109C642.541 309.537 647.745 320.973 649.764 329.235C650.283 331.381 653.507 330.469 653.066 328.323L653.086 328.353Z" fill="var(--color-illustration-primary, #382C80)"/>
<path d="M685.102 265.055C690.443 282.058 695.422 299.178 699.91 316.436C702.119 324.929 704.183 333.442 706.104 341.975C708.064 350.707 709.132 360.056 711.915 368.553C712.65 370.816 716.462 370.581 716.276 367.955C715.678 359.135 712.964 350.158 710.955 341.603C708.946 333.047 706.819 324.58 704.536 316.123C699.799 298.594 694.311 281.28 688.072 264.183C687.405 262.35 684.505 263.085 685.132 265.006L685.102 265.055Z" fill="var(--color-illustration-primary, #382C80)"/>
<path d="M697.303 329.059C699.783 325.54 703.301 321.562 707.515 322.473C710.818 323.188 712.689 326.609 714.091 329.676C715.757 333.312 717.413 337.085 717.55 341.083C717.687 345.082 715.933 349.403 712.337 351.167C707.642 353.47 701.733 350.432 699.058 345.934C696.382 341.436 696.118 335.958 695.931 330.725" fill="var(--color-illustration-primary, #382C80)"/>
<path d="M698.47 330.225C699.832 328.5 701.351 326.452 703.311 325.325C707.074 323.237 709.642 325.923 711.239 329.078C713.493 333.518 716.247 339.339 714.689 344.405C712.827 350.491 706.29 350.393 702.429 346.228C698.568 342.063 698.715 335.83 698.313 330.695C698.068 327.687 693.55 327.589 693.55 330.695C693.55 338.8 694.726 348.227 702.488 352.667C705.46 354.498 709.114 354.844 712.377 353.604C715.64 352.364 718.142 349.679 719.148 346.336C721.568 339.133 717.795 328.441 712.611 323.13C706.417 316.789 699.685 322.493 695.833 328.206C694.853 329.735 697.254 331.675 698.421 330.166L698.47 330.225Z" fill="var(--color-illustration-primary, #382C80)"/>
<path d="M723.038 243.24C727.631 243.359 732.213 242.727 736.601 241.368C738.816 240.682 737.895 237.252 735.621 237.899C731.522 239.082 727.275 239.673 723.009 239.653C720.696 239.653 720.696 243.2 723.009 243.24H723.038Z" fill="var(--color-illustration-primary, #382C80)"/>
<path d="M730.094 257.068C732.829 256.558 735.582 256.088 738.317 255.509C740.767 254.99 739.708 251.325 737.337 251.776C734.593 252.285 731.868 252.893 729.144 253.461C726.782 253.961 727.791 257.509 730.124 257.068H730.094Z" fill="var(--color-illustration-primary, #382C80)"/>
<path d="M735.367 268.72C737.235 268.393 739.066 267.884 740.835 267.201C743.305 266.417 742.217 262.467 739.757 263.281C737.928 263.764 736.15 264.421 734.445 265.241C732.985 266.083 733.465 268.857 735.367 268.641V268.72Z" fill="var(--color-illustration-primary, #382C80)"/>
<path d="M832.416 243.014C831.83 257.432 833.081 271.866 836.14 285.968C837.646 292.844 839.57 299.622 841.903 306.263C844.245 312.908 846.646 320.032 851.075 325.589C853.614 328.764 858.435 325.285 857.543 321.826C855.887 315.377 852.33 309.36 849.968 303.137C847.577 296.826 845.558 290.379 843.921 283.831C840.622 270.473 838.902 256.774 838.796 243.014C838.796 238.888 832.573 238.908 832.416 243.014Z" fill="var(--color-illustration-primary, #382C80)"/>
<path d="M245.543 339.349C242.691 324.394 247.993 308.459 257.166 295.798C259.27 292.644 261.926 289.895 265.006 287.683C269.455 284.743 274.874 283.763 280.137 283.528C299.894 282.548 318.984 290.692 330.783 305.725C362.251 345.827 377.255 398.923 396.443 445.62C397.296 447.678 398.403 449.961 400.55 450.608C402.304 451.128 404.215 450.383 405.94 449.628C425.618 441.389 444.372 431.094 461.888 418.915C475.539 409.242 491.513 399.913 498.216 383.939C500.774 377.843 502.754 370.464 508.859 367.739C512.779 365.985 517.522 366.877 521.031 369.17C524.539 371.463 527.028 374.982 529.037 378.637C532.722 385.301 530.243 394.003 534.643 400.364C539.043 406.724 545.08 404.568 551.94 404.94C573.745 406.048 593.639 406.9 615.209 400.716C620.334 399.256 625.45 397.522 630.732 397.228C636.014 396.934 641.63 398.315 645.02 402.206C651.194 409.282 647.431 420.336 643.423 429.087C650.832 426.863 659.622 428.617 664.179 434.556C668.736 440.495 667.374 450.549 660.612 454.362C663.611 452.676 669.04 458.595 670.324 460.663C672.667 464.596 673.22 469.341 671.843 473.707C670.187 479.224 666.139 483.85 661.504 487.427C650.185 496.149 635.661 499.187 622.02 503.293C574.705 517.699 535.976 550.656 488.916 565.17C455.303 575.404 419.377 575.206 385.879 564.602C353.725 554.38 333.243 532.869 314.535 505.87C295.827 478.871 285.135 447.335 276.315 415.799C271.758 399.521 267.691 383.106 263.183 366.799" fill="var(--color-illustration-base, #FFFFFF)"/>
<path d="M248.865 338.437C247.042 327.755 249.434 316.828 254.275 307.244C259.371 297.169 265.898 288.496 277.795 287.262C297.486 285.278 316.814 293.559 328.961 309.184C354.137 341.73 367.916 381.459 382.322 419.503C385.752 428.577 389.182 437.672 392.915 446.609C394.268 449.834 395.993 453.166 399.619 454.214C404.029 455.498 408.86 452.509 412.731 450.804C432.527 442.062 450.853 431.204 468.66 418.954C475.98 413.917 483.438 408.88 489.818 402.647C496.198 396.414 500.255 389.427 503.597 381.253C505.135 377.48 506.997 372.433 511.329 371.13C517.209 369.356 522.256 374.795 524.853 379.342C529.331 387.182 526.195 397.365 532.693 404.46C535.741 407.762 539.719 409.017 544.12 409.134C549.167 409.262 554.194 409.134 559.261 409.409C571.834 409.987 584.447 410.193 596.961 408.585C602.838 407.861 608.659 406.741 614.386 405.234C620.569 403.588 627.028 400.844 633.545 401.392C648.245 402.657 643.825 417.817 639.719 426.951C638.268 430.155 640.699 434.105 644.452 433.105C649.94 431.645 657.006 432.125 660.7 437.025C663.876 441.268 662.905 447.805 658.407 450.686C654.575 453.126 656.957 460.026 661.641 458.36C662.925 457.909 665.943 461.682 666.6 462.73C669.393 467.131 668.344 472.531 665.738 476.745C661.102 484.183 652.449 488.759 644.521 491.817C635.75 495.208 626.557 497.275 617.629 500.167C609.417 502.864 601.362 506.018 593.502 509.614C560.241 524.608 530.057 546.089 495.502 558.379C458.83 571.442 416.935 572.157 380.371 558.094C349.462 546.207 326.569 519.188 310.292 491.229C287.869 452.587 279.5 408.174 267.132 365.74C265.633 360.595 257.734 362.751 259.096 367.955C269.965 409.448 279.235 452.46 299.933 490.455C316.936 521.668 341.867 551.558 375.393 565.376C413.995 581.281 459.673 580.497 498.657 566.424C536.603 552.704 569.355 528.204 606.702 513.21C626.518 505.253 651.077 503.116 667.257 488.054C674.244 481.546 678.938 471.805 675.655 462.26C673.695 456.498 666.394 447.884 659.466 450.343L662.709 458.017C670.716 452.813 673.343 442.307 668.727 433.948C663.493 424.775 651.812 422.541 642.267 425.069L647 431.223C650.646 423.129 654.546 413.397 651.155 404.548C647.617 395.316 637.435 392.229 628.38 393.298C622.833 393.954 617.6 395.787 612.22 397.217C605.766 398.944 599.181 400.138 592.532 400.785C580.262 401.98 567.914 401.578 555.625 401.01C551.479 400.814 547.079 401.392 542.983 400.922C536.358 400.158 536.123 392.621 535.466 387.388C534.369 378.098 529.586 368.464 520.629 364.466C512.191 360.713 503.626 364.26 499.177 372.051C497.011 375.844 495.855 380.097 493.973 384.027C491.655 388.717 488.56 392.981 484.82 396.639C477.774 403.715 469.326 409.115 461.202 414.818C451.615 421.604 441.638 427.822 431.322 433.438C426.095 436.267 420.783 438.939 415.387 441.455C412.983 442.578 410.568 443.676 408.145 444.747C405.126 446.08 402.265 448.54 400.305 445.042C397.717 440.357 396.11 434.752 394.17 429.763C392.229 424.775 390.25 419.62 388.339 414.534C380.616 394.16 373.002 373.727 363.78 353.98C354.901 334.968 344.533 314.506 329.921 299.169C315.505 284.047 289.535 274.776 269.083 281.862C258.175 285.635 251.345 296.562 246.846 306.617C241.969 317.115 240.371 328.839 242.26 340.26C243.015 344.621 249.639 342.769 248.904 338.437H248.865Z" fill="var(--color-illustration-primary, #382C80)"/>
<path d="M324.139 294.415C341.015 305.45 357.923 316.443 374.864 327.392L399.452 343.298C405.793 347.394 412.868 353.529 420.414 348.541C428.176 343.406 435.114 336.291 442.2 330.293L464.514 311.438C479.773 298.551 496.139 286.223 510.104 271.924C512.926 269.033 509.183 263.673 505.635 266.133C490.504 276.648 476.784 289.525 462.74 301.413L421.139 336.693C419.552 338.045 417.896 339.907 416.083 340.936C413.652 342.318 412.545 341.465 410.291 340.211C406.371 337.996 402.519 335.448 398.658 333.076L375.373 318.817C359.295 308.978 343.19 299.178 327.059 289.417C323.845 287.457 321.032 292.357 324.119 294.425L324.139 294.415Z" fill="var(--color-illustration-primary, #382C80)"/>
<path d="M625.518 228.471C628.99 230.432 631.265 233.984 631.594 237.958C631.849 241.535 631.428 246.582 634.956 247.219C635.885 247.318 636.823 247.162 637.67 246.768C642.725 244.677 646.243 240.003 646.853 234.567C649.793 237.634 653.527 240.447 657.79 240.623C662.053 240.8 666.61 237.37 666.228 233.116C669.855 237.224 675.734 238.492 680.731 236.244C685.729 233.996 688.68 228.756 688.013 223.316" fill="var(--color-illustration-base, #FFFFFF)"/>
<path d="M624.009 231.059C629.125 234.695 627.224 239.565 628.341 244.71C629.037 247.915 631.055 250.59 634.427 251.129C642.698 252.491 649.705 242.711 650.793 235.655L643.933 237.458C648.186 241.721 653.811 245.651 660.161 244.632C665.989 243.87 670.402 238.991 670.579 233.117L663.101 236.214C673.979 247.503 693.756 239.35 692.384 223.356C691.904 217.799 683.387 217.623 683.564 223.356C683.848 231.49 675.332 235.949 669.266 230.02C667.997 228.816 666.138 228.471 664.521 229.14C662.905 229.81 661.834 231.368 661.788 233.117C661.788 240.506 651.704 233.666 649.685 231.676C647.666 229.687 643.305 230.304 642.825 233.479C642.56 236.357 641.278 239.047 639.209 241.065C638.592 241.623 636.749 243.417 635.661 242.672C635.034 242.241 635.22 239.291 635.122 238.517C634.657 233.21 631.592 228.479 626.939 225.884C623.539 223.924 620.824 228.824 623.921 231.059H624.009Z" fill="var(--color-illustration-primary, #382C80)"/>
<path d="M293.602 145.554C274.521 154.119 253.981 158.686 233.597 162.949C226.325 164.468 218.573 168.094 211.057 167.212C204.834 166.487 198.454 162.9 201.188 155.726C204.442 147.21 199.806 134.382 208.94 128.61C210.85 127.538 212.928 126.796 215.084 126.414C242.593 120.123 271.924 119.476 298.678 128.374C301.697 129.354 305.195 131.158 305.362 134.333C305.349 135.705 304.892 137.036 304.059 138.125C301.628 141.693 297.561 143.78 293.602 145.554Z" fill="var(--color-illustration-secondary, #7F72FF)"/>
<path d="M292.652 142.094C277.892 147.7 262.764 152.285 247.376 155.814C239.751 157.549 232.097 159.009 224.571 161.155C220.259 162.39 207.911 166.192 204.971 160.116C203.991 158.068 205.824 154.658 206.157 152.433C206.487 149.891 206.68 147.333 206.735 144.769C207.019 138.36 207.509 132.804 214.575 130.736C229.745 126.287 246.846 125.395 262.595 126.179C271.782 126.603 280.901 127.969 289.81 130.256C291.77 130.755 300.315 132.01 300.942 134.372C301.766 137.508 293.485 140.84 291.417 141.79C286.321 144.123 290.75 151.649 295.827 149.326C302.109 146.435 311.948 140.506 309.4 132.029C306.979 124.013 294.543 122.337 287.761 120.818C266.985 116.193 245.523 116.624 224.649 120.318C216.408 121.779 206.029 122.67 201.463 130.765C197.984 136.929 199.228 144.103 198.258 150.796C197.768 154.168 196.092 157.186 196.69 160.685C197.346 164.112 199.504 167.064 202.57 168.73C210.273 173.268 219.514 171.092 227.521 168.73C250.306 162.155 273.983 159.548 295.396 148.621C298.982 146.837 296.493 140.644 292.652 142.094Z" fill="var(--color-illustration-secondary, #7F72FF)"/>
<path d="M209.097 155.158C216.584 159.607 227.119 159.293 235.253 157.118C237.997 156.373 236.84 152.218 234.087 152.874C225.629 154.766 218.74 153.374 210.42 152.041C208.597 151.747 207.323 154.119 209.097 155.177V155.158Z" fill="var(--color-illustration-primary, #382C80)"/>
<path d="M289.437 450.206C322.885 445.855 355.499 430.087 378.108 404.685C382.263 400.021 375.677 393.288 371.189 397.776C348.276 420.659 320.386 436.584 288.447 442.925C284.42 443.729 285.272 450.765 289.427 450.206H289.437Z" fill="var(--color-illustration-primary, #382C80)"/>
<path d="M874.213 210.567C883.484 205.993 892.745 201.391 901.996 196.759C906.2 194.652 902.505 188.35 898.301 190.447C889.05 195.06 879.818 199.708 870.606 204.393C866.49 206.48 870.107 212.586 874.213 210.567Z" fill="var(--color-illustration-primary, #382C80)"/>
<path d="M927.721 178.874L949.575 167.114C953.818 164.811 950.026 158.294 945.782 160.626L924.036 172.602C919.91 174.876 923.585 181.148 927.721 178.913V178.874Z" fill="var(--color-illustration-primary, #382C80)"/>
<path d="M884.425 371.052C895.205 377.304 906.739 382.528 918.94 385.389C923.664 386.497 925.516 379.666 920.9 378.147C909.63 374.413 898.566 370.307 888.041 364.799C883.925 362.624 880.328 368.719 884.385 371.052H884.425Z" fill="var(--color-illustration-primary, #382C80)"/>
<path d="M947.86 404.734C952.841 408.166 958.538 410.419 964.52 411.32C965.943 411.664 967.437 411.164 968.368 410.034C969.299 408.904 969.502 407.341 968.891 406.011C968.281 404.68 966.964 403.815 965.5 403.784C960.495 403.074 955.719 401.231 951.535 398.394C947.556 395.777 943.959 402.088 947.83 404.734H947.86Z" fill="var(--color-illustration-primary, #382C80)"/>
<path d="M575.382 813.6C571.324 805.378 563.533 790.227 575.244 784.024C580.713 781.084 586.201 785.249 588.347 790.296C590.875 796.254 589.258 803.036 587.916 809.063C587.658 810.14 588.218 811.245 589.238 811.675C590.259 812.105 591.441 811.734 592.032 810.797C595.472 805.486 601.959 800.282 608.692 802.526C613.915 804.261 616.836 810.954 613.592 815.56C612.279 817.452 614.876 819.99 616.757 818.726C622.823 814.639 633.074 810.719 639.415 816.648C643.335 820.352 644.403 829.388 638.435 831.681C635.563 832.798 636.788 837.463 639.719 836.346C649.117 832.779 660.553 836.091 665.59 845.166C670.628 854.241 666.933 866.412 658.495 872.067C655.967 873.762 658.299 877.849 660.896 876.183C671.363 869.47 675.949 855.24 670.402 843.843C664.856 832.446 650.185 827.065 638.435 831.701L639.719 836.366C648.009 832.975 649.362 822.371 644.481 815.413C637.445 805.417 622.921 809.024 614.444 814.757L617.6 817.912C622.177 811.317 618.423 802.075 611.504 798.773C602.537 794.49 592.747 801.037 588.092 808.573L592.208 810.307C593.766 802.565 595.393 793.824 591.032 786.66C587.926 781.554 582.055 777.84 575.96 779.604C570.374 781.192 566.611 786.807 565.66 792.344C564.249 800.409 568.463 808.661 572.677 815.247C573.107 815.98 574.05 816.226 574.784 815.795C575.517 815.365 575.763 814.422 575.333 813.688L575.382 813.6Z" fill="var(--color-illustration-primary, #382C80)"/>
<path d="M603.39 872.969L612.935 869.833C615.336 869.049 614.297 865.217 611.887 866.04L602.371 869.284C600.058 870.068 601.038 873.733 603.351 872.969H603.39Z" fill="var(--color-illustration-primary, #382C80)"/>
<path d="M686.964 857.945C691.24 855.617 696.36 855.432 700.792 857.445C703.095 858.494 705.104 855.074 702.752 854.035C697.074 851.392 690.476 851.61 684.985 854.623C682.799 855.799 684.74 859.111 686.945 857.945H686.964Z" fill="var(--color-illustration-primary, #382C80)"/>
</svg>
