<svg width="1000" height="1000" viewBox="0 0 1000 1000" fill="none" xmlns="http://www.w3.org/2000/svg">
<path d="M631.212 273.071C654.919 263.046 679.232 254.579 703.154 245.014C705.683 244.001 708.208 242.975 710.73 241.937C712.69 241.123 717.178 238.203 719.138 239.193C720.931 240.104 722.656 243.426 723.793 245.024C725.508 247.454 727.125 249.924 728.615 252.53C731.723 257.646 734.036 263.204 735.475 269.014C736.565 273.967 735.964 279.142 733.769 283.714C728.752 295.151 719.942 304.696 711.955 314.094C703.311 324.422 693.803 333.996 683.535 342.71C661.955 360.677 636.949 374.07 610.035 382.077C581.424 390.619 551.617 394.458 521.776 393.445C493.699 392.465 465.093 386.81 439.946 373.933C401.834 354.411 376.628 318.641 363.241 278.696C349.619 238.075 346.581 194.132 349.805 151.6C350.384 143.995 351.217 136.41 352.206 128.845C352.834 124.092 344.513 122.965 343.769 127.708C336.389 174.836 337.732 224.64 350.883 270.66C363.212 313.78 387.702 354.088 426.941 377.48C451.716 392.278 480.528 399.658 509.104 402.108C540.486 404.624 572.068 401.864 602.538 393.944C631.66 386.581 658.966 373.33 682.77 355.009C694.184 346.207 704.69 336.285 714.13 325.393C722.754 315.388 731.819 305.156 738.385 293.641C741.325 288.487 743.952 282.773 744.549 276.805C745.147 270.837 743.569 264.918 741.345 259.518C738.927 253.64 735.881 248.041 732.26 242.819C729.428 238.673 725.733 232.137 720.5 230.931C717.198 230.177 714.14 231.794 711.21 233.058C708.28 234.322 705.095 235.665 702.027 236.929C695.892 239.447 689.738 241.897 683.584 244.347C670.501 249.581 657.369 254.686 644.384 260.027C638.817 262.311 633.261 264.633 627.724 267.054C623.598 268.867 627.175 274.806 631.252 273.081L631.212 273.071Z" fill="var(--color-illustration-primary, #382C80)"/>
<path d="M451.138 142.212L451.471 136.126C451.691 134.033 451.595 131.918 451.187 129.854C450.768 127.759 449.434 125.961 447.551 124.954C446.512 124.474 445.042 123.915 445.258 122.788C445.405 122.043 446.238 121.7 447.022 121.514C450.024 120.767 453.101 120.36 456.194 120.299C458.899 120.299 462.006 120.701 463.486 122.964C463.854 123.48 464.037 124.105 464.005 124.738C463.878 126.198 462.359 127.041 461.349 128.109C459.722 129.854 459.389 132.441 459.438 134.822C459.487 137.204 459.869 139.634 459.33 141.967" fill="var(--color-illustration-secondary, #7F72FF)"/>
<path d="M453.94 142.212C454.224 137.821 455.214 133.392 454.401 128.982C454.129 127.296 453.497 125.688 452.549 124.268C451.392 122.622 449.609 122.053 448.325 120.662L449.53 123.602C447.57 125.464 447.547 126.025 449.462 125.287C450.393 125.091 451.333 124.925 452.284 124.817C453.907 124.588 455.547 124.513 457.184 124.591C457.311 124.591 459.33 125.042 459.458 124.993C460.281 125.738 460.34 125.356 459.654 123.856C459.183 124.239 458.723 124.631 458.282 125.042C453.715 129.668 455.979 135.205 455.038 140.83C454.097 146.455 462.79 148.984 463.77 143.231C464.348 139.821 463.525 136.371 464.103 133.01C464.593 130.168 467.66 128.903 468.209 125.954C469.522 119.005 461.78 116.085 456.263 116.154C451.549 116.222 439.515 116.751 441.426 124.317C442.337 127.914 446.041 127.433 447.688 130.109C449.52 133.049 448.609 138.87 448.462 142.251C448.305 145.808 453.734 145.759 453.96 142.251L453.94 142.212Z" fill="var(--color-illustration-secondary, #7F72FF)"/>
<path d="M628.831 616.914C628.958 631.908 630.497 647.206 636.289 660.847C644.462 680.075 660.475 694.373 677.89 704.212C721.931 729.114 764.032 720.872 809.964 710.808C837.12 704.82 882.2 698.479 904.387 725.655C910.013 732.515 917.186 739.247 925.487 739.688C934.562 740.168 942.147 732.583 944.92 723.636C947.694 714.688 946.625 704.653 944.999 695.059C940.241 667.191 931.21 640.224 918.225 615.111C915.657 610.142 912.629 604.938 907.827 602.508C905.024 601.087 901.947 600.773 898.88 600.548C865.158 598 831.985 602.586 799.371 608.574C768.687 614.209 739.708 615.895 707.917 612.788" fill="var(--color-illustration-primary, #382C80)"/>
<path d="M626.008 616.914C626.135 630.232 626.537 643.707 630.732 656.476C634.471 667.635 640.54 677.871 648.538 686.504C664.796 704.31 687.817 716.56 711.199 721.901C735.454 727.438 760.356 725.38 784.641 721.147C804.819 717.638 824.556 711.905 845.116 710.935C863.06 710.082 883.454 712.15 896.998 725.272C901.025 729.192 904.191 733.798 908.522 737.405C912.854 741.011 917.979 744 923.752 744.755C935.227 746.244 944.949 738.042 949.143 727.909C954.122 715.874 951.976 702.213 949.712 689.806C947.281 676.571 943.861 663.536 939.481 650.812C935.086 637.995 929.784 625.508 923.614 613.445C921.047 608.427 918.215 603.331 913.716 599.783C908.601 595.726 902.446 595.197 896.145 594.795C867.725 592.972 839.187 596.177 811.15 600.891C797.577 603.174 784.102 605.791 770.391 607.192C756.629 608.566 742.793 609.063 728.967 608.682C721.93 608.496 714.914 608.055 707.916 607.418C705.025 607.163 702.546 610.073 702.546 612.788C702.546 615.934 705.016 617.864 707.916 618.158C734.027 620.746 760.357 620.124 786.316 616.306C799.625 614.395 812.776 611.661 826.114 609.691C839.203 607.694 852.384 606.367 865.608 605.712C872.141 605.405 878.698 605.317 885.277 605.448C888.465 605.513 891.647 605.641 894.822 605.83C897.889 606.016 901.3 605.928 904.23 606.996C908.738 608.643 911.09 613.464 913.217 617.453C916.157 623.107 918.901 628.889 921.449 634.75C926.426 646.302 930.576 658.193 933.865 670.334C937.08 682.28 940.157 694.706 941 707.064C941.597 716.394 940.284 729.604 930.151 733.661C920.273 737.679 912.197 726.449 906.631 720.225C893.96 706.27 874.899 701.243 856.72 700.518C838.795 699.802 821.116 703.154 803.692 706.956C780.77 711.954 757.475 716.815 733.886 715.776C710.246 714.711 687.42 706.821 668.168 693.06C659.141 686.774 651.376 678.849 645.275 669.697C638.63 659.456 635.24 647.941 633.25 635.985C632.235 629.684 631.698 623.315 631.643 616.933C631.594 613.317 625.979 613.298 626.008 616.933V616.914Z" fill="var(--color-illustration-primary, #382C80)"/>
<path d="M814.374 491.572C820.44 482.429 825.869 472.109 826.134 460.888C826.428 445.708 816.834 431.861 804.809 423.874C751.419 388.417 698.165 424.06 662.15 468.954C626.959 512.799 609.23 571.07 611.279 628.694C611.847 644.305 613.856 660.269 620.187 674.656C629.105 694.942 645.892 710.357 664.003 721.176C709.808 748.548 752.663 741.374 799.38 732.427C813.355 729.751 825.095 729.937 838.658 731.064C854.005 732.338 854.162 719.393 855.857 704.408C858.905 677.488 857.817 648.323 850.399 622.235C842.706 595.119 820.577 604.664 799.439 608.515C768.755 614.15 739.776 615.836 707.985 612.729" fill="var(--color-illustration-secondary, #7F72FF)"/>
<path d="M816.805 492.993C826.037 478.999 833.132 463.133 827.232 446.345C821.734 430.724 808.465 420.052 793.912 413.251C779.829 406.561 764.123 404.048 748.656 406.008C732.976 408.076 718.276 414.407 705.046 422.894C677.155 440.818 654.086 467.494 637.808 496.159C620.697 526.205 610.623 560.064 607.193 594.404C603.782 628.566 604.831 667.061 626.538 695.402C647.275 722.46 680.193 740.032 713.758 744.608C730.81 746.941 747.97 746.147 764.973 743.893C773.793 742.727 782.534 741.257 791.266 739.64C800.361 737.964 809.298 736.19 818.579 735.935C822.714 735.818 826.85 735.935 830.976 736.121C835.102 736.307 839.139 737.033 843.167 736.582C849.296 736.063 854.665 732.269 857.201 726.664C859.954 720.628 860.415 713.856 861.121 707.339C862.101 698.372 862.845 689.414 862.983 680.389C863.406 661.55 861.299 642.739 856.72 624.46C854.956 617.6 852.614 610.74 847.567 605.625C843.294 601.273 837.767 599.127 831.75 598.451C819.206 597.03 806.172 601.871 793.932 603.988C775.124 607.269 756.066 608.909 736.974 608.888C727.282 608.888 717.6 608.369 707.947 607.477C705.056 607.212 702.576 610.133 702.576 612.847C702.576 615.993 705.046 617.924 707.947 618.218C742.144 621.553 776.654 619.466 810.2 612.034C818.785 610.152 831.201 606.379 838.62 612.436C843.059 616.052 844.627 622.147 845.989 627.43C848.153 635.778 849.696 644.275 850.605 652.851C852.353 670.028 852.238 687.344 850.262 704.497C849.664 709.955 849.517 715.924 847.508 721.108C845.852 725.361 842.883 725.9 837.973 725.537C829.439 724.763 820.859 724.645 812.307 725.185C803.781 725.871 795.441 727.644 787.052 729.183C771.294 732.123 755.428 734.553 739.385 734.926C707.31 735.68 675.881 726.106 650.881 705.594C639.484 696.255 629.811 684.74 624.166 671.02C617.62 655.115 616.326 637.494 616.258 620.481C616.032 557.301 640.003 494.15 685.71 449.961C706.398 429.94 733.289 412.545 763.13 413.77C790.953 414.917 828.457 435.604 821.852 468.356C820.235 476.363 816.325 483.487 811.895 490.239C809.935 493.277 814.767 496.119 816.795 493.081L816.805 492.993Z" fill="var(--color-illustration-secondary, #7F72FF)"/>
<path d="M741.256 504.097C698.822 600.362 679.516 712.925 662.308 816.285C657.662 844.166 649.94 882.984 622.5 890.932C614.807 893.157 606.653 897.047 603.057 905.201C599.137 914.129 602.185 925.575 608.231 932.856C614.278 940.138 622.686 944.068 630.967 947.223C654.625 956.287 679.814 960.686 705.143 960.179C710.102 960.071 715.443 959.61 719.255 955.984C721.531 953.72 723.264 950.969 724.322 947.939C755.594 862.679 752.174 793.569 774.782 721.559C782.985 695.412 799.929 675.499 810.582 650.469C821.636 624.46 838.404 601.92 850.223 576.44C868.725 536.525 874.468 489.945 866.295 446.228" fill="var(--color-illustration-primary, #382C80)"/>
<path d="M738.826 502.676C730.868 520.698 723.146 538.808 716.648 557.418C710.151 576.029 704.349 594.933 699.077 613.955C688.463 652.312 680.084 691.247 672.617 730.32C668.854 750.008 665.316 769.735 661.837 789.482C659.034 805.564 656.721 821.822 652.938 837.689C649.822 850.732 645.657 864.874 636.788 875.281C632.893 880.086 627.729 883.702 621.882 885.718C614.473 888.1 607.114 890.961 602.018 897.145C590.013 911.708 597.735 932.611 611.396 942.901C618.952 948.585 628.115 951.908 636.994 954.897C646.946 958.259 657.151 960.821 667.511 962.56C677.38 964.222 687.356 965.172 697.362 965.402C706.427 965.608 716.962 966.225 723.822 959.062C726.83 955.906 728.585 952.113 730.094 948.086C732.054 942.95 733.759 937.756 735.454 932.553C738.688 922.622 741.596 912.6 744.176 902.486C753.398 866.501 758.161 829.692 764.286 793.108C767.226 775.468 770.597 757.966 775.115 740.698C777.229 731.981 779.87 723.4 783.024 715.002C786.463 706.28 791.04 698.009 795.764 689.895C800.487 681.78 805.407 673.597 809.778 665.199C814.148 656.8 817.618 647.872 821.998 639.386C831.083 621.657 842.118 605.017 851.183 587.269C869.175 552.065 877.44 512.694 875.124 473.227C874.524 463.689 873.333 454.197 871.557 444.807C870.283 438.015 859.993 440.887 861.208 447.658C867.863 485.025 864.519 523.486 851.516 559.143C844.881 577.273 835.12 593.874 825.418 610.485C820.518 618.894 815.618 627.341 811.257 636.054C807.2 644.178 803.868 652.616 799.635 660.652C791.06 676.763 780.711 691.865 773.625 708.74C766.765 724.989 762.796 742.589 759.17 759.788C751.977 793.941 747.989 828.663 741.462 862.943C737.924 881.563 733.7 900.046 728.359 918.225C725.527 927.868 722.852 938.011 718.804 947.233C717.246 950.781 715.031 953.338 711.219 954.309C706.838 955.416 701.831 955.083 697.362 955.014C677.33 954.627 657.486 951.078 638.562 944.499C624.038 939.501 604.448 930.71 606.565 911.943C607.427 904.348 613.425 899.644 620.177 897.145C626.772 894.695 632.731 892.755 638.307 888.237C648.881 879.672 654.967 866.53 659.063 853.878C663.552 840.158 665.816 825.831 668.109 811.591C671.117 792.971 674.165 774.351 677.37 755.731C690.492 679.683 707.083 604.468 733.318 531.772C736.523 522.952 739.923 514.132 743.696 505.527C745.137 502.244 740.296 499.373 738.796 502.685L738.826 502.676Z" fill="var(--color-illustration-primary, #382C80)"/>
<path d="M735.661 462.26C683.26 566.914 656.634 708.956 639.425 812.316C638.445 818.402 637.974 824.449 634.672 829.505C631.369 834.562 626.832 835.131 626.43 841.667C625.969 848.802 633.221 855.456 637.994 858.994C663.728 878.162 694.799 888.829 726.88 889.511C742.834 889.766 753.056 879.613 755.026 862.972C757.289 843.794 760.817 825.34 764.884 806.338C770.441 780.447 776.223 754.555 784.132 729.349C792.334 703.193 799.929 675.449 810.592 650.43C821.636 624.46 838.404 601.92 850.223 576.44C861.164 552.629 867.664 527.019 869.401 500.872C870.734 481.605 873.253 446.227 859.768 430.792C849.86 419.473 838.159 409.556 824.625 402.98C811.091 396.404 795.656 393.347 780.8 395.679" fill="var(--color-illustration-secondary, #7F72FF)"/>
<path d="M733.24 460.8C717.053 493.128 703.266 526.604 691.991 560.956C680.378 596.236 670.814 632.182 662.435 668.374C654.467 702.742 647.548 737.356 641.227 772.067C639.757 780.143 638.356 788.237 636.974 796.322C635.592 804.407 634.75 812.59 632.848 820.47C631.99 824.282 629.929 827.718 626.968 830.27C624.283 832.769 622.245 835.552 621.549 839.227C619.903 848.047 625.881 855.73 632.241 861.002C646.725 872.988 664.532 881.72 682.368 887.384C691.419 890.23 700.708 892.26 710.121 893.45C718.608 894.538 727.85 895.694 736.278 893.636C743.137 891.954 749.183 887.904 753.349 882.2C758.141 875.693 759.582 868.058 760.621 860.238C763.463 839.001 767.932 818.01 772.538 797.097C781.656 755.682 793.224 714.846 807.181 674.802C813.986 655.541 822.631 636.979 832.994 619.374C843.068 602.028 853.309 584.848 860.61 566.101C868.033 546.814 872.72 526.583 874.536 505.997C875.908 491.111 876.81 475.892 875.408 460.996C874.732 453.803 873.625 446.502 871.067 439.72C868.205 432.174 863.648 426.49 858.033 420.777C844.411 406.939 827.496 395.738 808.347 391.484C798.834 389.367 789.012 389.035 779.378 390.504C776.516 390.936 774.909 394.562 775.625 397.11C776.487 400.197 779.339 401.275 782.23 400.863C801.016 398.168 819.842 404.891 835.081 415.563C842.433 420.835 849.142 426.95 855.073 433.781C858.993 438.221 861.051 443.679 862.433 449.373C865.804 463.26 865.246 478.028 864.393 492.179C863.413 509.819 861.061 527.175 856.21 544.227C850.879 562.994 842.617 580.36 832.955 597.245C823.292 614.131 813.07 630.369 805.515 648.205C797.753 666.443 791.795 685.337 785.973 704.271C780.035 723.695 773.929 743.05 769.039 762.777C764.041 782.955 759.631 803.329 755.731 823.753C753.771 834.049 752.108 844.395 750.742 854.789C749.762 862.129 749.478 869.685 745.068 875.947C741.744 880.546 736.634 883.528 730.995 884.16C722.803 885.208 713.679 883.778 705.594 882.406C687.328 879.267 669.792 872.803 653.86 863.335C647.147 859.336 639.601 854.966 634.573 848.831C632.741 846.606 630.653 843.196 631.947 840.207C633.015 837.786 636.131 835.993 637.827 833.915C643.403 826.879 643.805 817.383 645.216 808.857C646.477 801.252 647.764 793.65 649.077 786.052C654.722 753.193 660.573 720.392 667.491 687.768C682.113 618.903 700.811 550.96 728.016 485.888C731.162 478.352 734.523 470.943 738.159 463.632C739.776 460.408 734.925 457.546 733.259 460.79L733.24 460.8Z" fill="var(--color-illustration-secondary, #7F72FF)"/>
<path d="M749.146 217.632C758.564 211.135 771.441 217.015 781.701 216.564C792.481 216.094 803.663 213.84 813.395 220.024C823.126 226.207 830.564 239.055 836.376 248.924C850.027 272.071 858.141 298.13 863.424 324.384C868.069 347.473 868.549 371.091 871.803 394.375C873.44 406.325 876.103 418.113 879.76 429.606C882.847 439.22 883.494 449.206 869.676 448.128C862.561 447.57 859.366 442.317 854.251 438.123C846.127 431.468 836.121 427.784 826.125 424.902C803.218 418.191 779.073 416.85 755.565 420.982C732.584 425.187 708.221 430.586 686.563 439.436C685.286 440.123 683.827 440.397 682.388 440.22C679.252 439.455 678.88 435.163 679.448 431.988C681.614 418.934 685.71 406.645 687.739 393.533C690.493 375.726 689.307 357.929 689.474 339.985C689.67 318.288 693.305 294.847 708.701 279.549" fill="var(--color-illustration-base, #FFFFFF)"/>
<path d="M750.822 220.504C759.485 215.026 770.284 219.789 779.683 220.073C789.963 220.386 800.958 217.133 810.474 222.601C818.912 227.433 824.518 236.556 829.388 244.671C835.072 253.94 840.063 263.616 844.323 273.62C852.978 294.782 858.88 316.968 861.885 339.633C865.168 363.702 865.55 388.143 870.705 411.957C872.012 417.837 873.55 423.661 875.321 429.43C876.301 432.703 877.634 436.222 877.389 439.72C877.212 442.347 876.056 443.581 873.4 443.944C868.774 444.591 865.266 442.66 862.022 439.593C854.685 432.597 845.961 427.218 836.415 423.805C814.622 416.093 791.442 413.087 768.403 414.985C757.005 416.024 745.706 418.415 734.534 420.865C723.191 423.234 711.975 426.178 700.93 429.685C695.53 431.449 690.287 433.605 684.956 435.565C684.662 435.663 683.701 436.173 683.398 436.084C683.486 436.084 684.005 436.565 683.682 436.084C683.372 435.3 683.293 434.443 683.456 433.615C683.76 430.816 684.274 428.045 684.995 425.324C687.484 413.799 690.797 402.48 692.325 390.769C693.893 378.715 693.844 366.553 693.727 354.421C693.531 334.135 693.1 312.379 703.096 294.024C705.403 289.796 708.293 285.913 711.68 282.489C715.453 278.638 709.554 272.738 705.8 276.609C690.542 292.054 686.142 314.133 685.416 335.095C684.966 347.953 685.691 360.83 685.289 373.688C684.858 387.124 682.506 399.922 679.331 412.947C677.851 419.013 676.302 425.108 675.411 431.292C674.783 435.477 675.146 440.641 679.027 443.219C683.829 446.404 689.591 442.719 694.246 441.004C700.038 438.858 705.918 436.966 711.886 435.242C723.823 431.792 735.965 429.068 748.146 426.686C760.72 424.236 773.166 422.56 786.004 422.874C798.597 423.202 811.103 425.068 823.244 428.431C834.543 431.537 845.784 435.604 854.417 443.826C857.857 447.109 861.336 450.432 866.05 451.715C870.264 452.872 875.634 452.833 879.574 450.735C886.708 446.972 886.503 438.427 884.797 431.616C883.337 425.804 881.328 420.14 879.897 414.299C878.382 408.021 877.144 401.677 876.183 395.267C874.223 382.224 873.302 369.043 871.989 355.93C869.47 330.774 864.698 305.95 856.113 282.087C852.054 270.672 846.991 259.64 840.982 249.12C835.807 240.124 830.427 230.804 823.165 223.297C815.11 214.967 805.378 211.743 793.902 212.203C788.483 212.429 783.034 213.36 777.615 212.958C772.195 212.556 767.139 211.341 761.827 211.165C756.785 210.844 751.767 212.09 747.46 214.732C743.893 217.054 747.186 222.778 750.822 220.475V220.504Z" fill="var(--color-illustration-primary, #382C80)"/>
<path d="M767.403 494.512C763.757 503.753 768.383 512.946 770.784 521.864C772.416 527.354 772.396 533.202 770.725 538.681C768.932 544.649 766.805 550.519 764.845 556.438C757.005 580.233 749.652 604.171 742.785 628.253C728.86 676.723 716.629 725.665 705.761 774.9C699.616 802.742 693.442 830.691 688.836 858.837C688.425 861.336 692.149 862.473 692.707 859.905C698.107 835.131 702.782 810.199 708.172 785.425C713.516 760.879 719.2 736.412 725.224 712.023C737.343 663.141 751.063 614.696 766.384 566.689C768.52 560.038 770.693 553.397 772.901 546.766C774.929 540.69 777.252 534.623 776.527 528.146C775.331 517.444 766.933 506.37 770.882 495.512C771.686 493.297 768.226 492.415 767.393 494.532L767.403 494.512Z" fill="var(--color-illustration-base, #FFFFFF)"/>
<path d="M786.062 500.314C786.186 505.145 787.711 509.837 790.452 513.818C791.971 515.994 795.578 513.818 793.99 511.75C791.391 508.436 789.723 504.488 789.159 500.314C788.924 498.354 785.964 498.275 786.062 500.314Z" fill="var(--color-illustration-base, #FFFFFF)"/>
<path d="M654.997 838.492C652.361 836.591 649.724 834.699 647.049 832.857C644.844 831.338 642.864 834.876 644.971 836.404C647.598 838.364 650.254 840.187 652.919 842.039C655.105 843.568 657.123 840.021 654.997 838.492Z" fill="var(--color-illustration-secondary, #7F72FF)"/>
<path d="M833.2 716.58C834.303 712.092 834.827 707.481 834.758 702.86C834.69 701.945 833.927 701.237 833.009 701.237C832.091 701.237 831.328 701.945 831.26 702.86C831.191 707.147 830.685 711.416 829.75 715.6C829.241 717.834 832.69 718.785 833.2 716.58Z" fill="var(--color-illustration-base, #FFFFFF)"/>
<path d="M843.402 549.715C838.796 545.893 832.622 543.728 826.898 542.209C825.389 541.807 823.517 543.306 824.154 544.953C826.722 551.587 820.234 558.878 817.294 564.435C814.069 570.625 811.38 577.081 809.258 583.731C807.177 590.176 805.678 596.795 804.78 603.508C804.084 608.751 803.741 616.14 808.18 619.972C808.971 620.697 810.169 620.748 811.019 620.092C811.868 619.436 812.122 618.264 811.62 617.316C810.15 614.258 809.209 611.798 809.239 608.31C809.349 605.118 809.746 601.943 810.425 598.823C811.739 591.926 813.658 585.157 816.158 578.596C818.686 572.152 821.734 565.925 825.272 559.976C828.143 555.027 830.838 549.431 828.476 543.747L825.732 546.491C831.426 547.853 836.336 550.411 841.716 552.626C843.323 553.273 844.734 550.784 843.421 549.686L843.402 549.715Z" fill="var(--color-illustration-base, #FFFFFF)"/>
<path d="M728.664 440.22C722.842 451.51 716.776 462.701 711.239 474.128C708.809 479.165 707.094 484.193 707.055 489.808C707.055 496.08 708.407 502.234 707.731 508.526C707.28 512.622 713.611 512.544 714.111 508.526C714.797 502.881 713.67 497.364 713.425 491.739C713.16 485.555 714.993 480.547 717.707 475.079C723.009 464.406 728.232 453.695 733.495 442.993C735.073 439.789 730.32 436.957 728.664 440.171V440.22Z" fill="var(--color-illustration-primary, #382C80)"/>
<path d="M675.538 510.966C651.508 549.098 645.089 600.087 661.161 642.521C662.082 644.952 665.943 643.981 665.081 641.433C651.243 598.784 654.644 551.273 678.144 512.514C679.124 510.819 676.547 509.3 675.498 510.966H675.538Z" fill="var(--color-illustration-base, #FFFFFF)"/>
<path d="M729.32 471.08C699.362 532.222 676.773 597.02 658.995 662.68C654.174 680.467 649.852 698.411 646.373 716.521C645.393 721.313 652.743 723.381 653.733 718.55C667.474 652.088 687.133 586.989 712.474 524.03C719.256 507.125 726.194 490.259 733.936 473.775C735.396 470.678 730.829 467.944 729.301 471.061L729.32 471.08Z" fill="var(--color-illustration-primary, #382C80)"/>
<path d="M870.685 451C872.096 472.707 872.312 494.649 869.705 516.288C867.049 538.602 859.817 559.868 850.105 580.066C840.393 600.264 828.134 619.001 816.785 638.327C810.513 649.009 804.741 659.985 801.046 671.833C794.774 691.962 789.757 712.513 784.631 732.956C778.013 759.435 771.63 785.99 765.482 812.62C761.258 830.936 756.848 849.252 753.477 867.745C753.301 868.725 753.134 869.705 752.968 870.744C752.154 875.644 759.671 877.77 760.494 872.821C763.228 856.23 767.53 839.786 771.274 823.42C777.33 797.045 783.573 770.712 790.002 744.422C795.402 722.362 800.782 700.243 807.122 678.429C816.011 647.911 836.434 622.49 850.938 594.541C861.091 574.941 869.803 554.214 874.007 532.467C878.212 510.721 878.476 488.71 877.379 466.807C877.124 461.545 876.8 456.292 876.399 451.049C876.154 447.364 870.401 447.335 870.636 451.049L870.685 451Z" fill="var(--color-illustration-primary, #382C80)"/>
<path d="M639.356 889.981C637.396 882.955 631.104 877.143 624.333 874.899C622.48 874.282 621.167 877.28 622.99 878.084C625.87 879.343 628.494 881.12 630.732 883.327C633.113 885.718 634.466 888.462 636.034 891.383C637.014 893.215 639.954 891.951 639.356 889.981Z" fill="var(--color-illustration-base, #FFFFFF)"/>
<path d="M625.695 894.303L619.815 886.365C618.433 884.503 615.268 886.365 616.679 888.197L622.667 896.106C624.029 897.909 627.126 896.106 625.744 894.303H625.695Z" fill="var(--color-illustration-base, #FFFFFF)"/>
<path d="M893.332 706.78C890.032 711.834 887.958 717.589 887.276 723.587C887.1 725.478 890.079 725.812 890.539 724.028C891.96 718.579 893.548 713.473 896.488 708.622C897.713 706.604 894.528 704.781 893.332 706.78Z" fill="var(--color-illustration-base, #FFFFFF)"/>
<path d="M903.759 713.169C900.862 718.303 899.277 724.073 899.144 729.966C899.144 732.201 902.231 732.044 902.505 729.966C903.075 724.757 904.547 719.687 906.856 714.982C907.905 712.934 904.896 711.131 903.759 713.169Z" fill="var(--color-illustration-base, #FFFFFF)"/>
<path d="M899.419 636.935C902.564 639.219 900.163 644.775 896.253 643.589C894.526 643.023 893.303 641.48 893.147 639.669C892.921 637.533 893.96 635.887 894.891 634.083C895.655 632.604 893.911 630.359 892.372 631.555C886.434 635.965 889.06 647 896.9 647.323C903.819 647.568 906.533 638.101 900.947 634.338C899.321 633.241 897.89 635.818 899.428 636.935H899.419Z" fill="var(--color-illustration-base, #FFFFFF)"/>
<path d="M700.733 918.803C705.692 922.105 702.223 931.219 696.088 929.083C688.855 926.564 691.08 917.097 696.47 913.932C698.812 912.56 696.735 909.032 694.343 910.296C684.867 915.294 684.396 931.788 696.568 933.473C706.456 934.845 710.66 920.733 702.546 915.706C700.586 914.481 698.822 917.529 700.733 918.803Z" fill="var(--color-illustration-base, #FFFFFF)"/>
<path d="M725.714 78.3158C715.747 76.6106 702.056 76.787 694.834 85.117C690.394 90.2326 688.523 97.0044 686.161 103.355C683.799 109.705 680.467 116.252 674.46 119.388C670.236 121.593 665.11 121.857 661.2 124.572C653.791 129.717 654.154 140.908 657.28 149.356C663.876 166.996 678.409 170.485 694.951 165.291C702.429 162.949 711.072 163.929 718.834 162.449C737.964 158.803 756.515 150.552 770.774 136.694" fill="var(--color-illustration-primary, #382C80)"/>
<path d="M726.429 75.6601C718.589 74.2587 710.984 73.1807 703.154 75.5621C694.442 78.2081 689.208 84.5291 685.739 92.7023C682.593 100.121 680.653 110.548 673.136 114.978C669.344 117.212 664.679 117.447 660.739 119.427C656.871 121.4 653.851 124.712 652.243 128.747C646.529 142.584 654.556 162.39 667.815 168.995C674.675 172.406 682.25 172.729 689.689 171.455C693.844 170.74 697.774 169.162 701.968 168.652C706.799 168.064 711.68 168.162 716.511 167.565C727.261 166.058 737.716 162.908 747.509 158.225C757.122 153.776 766.854 147.749 774.037 139.88C778.045 135.489 772.077 129.697 767.589 133.431C761.023 138.929 754.476 143.996 746.823 147.955C739.655 151.598 732.092 154.402 724.283 156.314C715.659 158.48 706.995 158.166 698.293 159.607C691.649 160.714 685.641 163.39 678.693 162.547C666.365 161.057 658.348 147.347 659.906 135.528C661.053 126.797 669.118 126.826 675.655 123.68C682.672 120.309 686.66 113.41 689.375 106.432C692.403 98.7293 694.02 88.9195 701.684 84.2841C708.083 80.4327 717.628 79.7859 724.88 80.8737C728.271 81.3833 729.78 76.2579 726.321 75.6405L726.429 75.6601Z" fill="var(--color-illustration-primary, #382C80)"/>
<path d="M725.645 232.597C725.988 222.493 728.183 210.567 726.625 200.6C725.243 191.662 720.078 192.848 713.336 189.379C708.102 186.712 703.697 182.666 700.596 177.678C693.844 166.633 693.736 152.384 698.215 140.242C700.07 135.295 702.532 130.598 705.545 126.257C713.807 114.206 727.664 107.223 742.266 107.755C755.79 108.372 768.03 122.347 772.969 134.097C773.588 135.581 774.131 137.095 774.596 138.635C777.565 148.478 777.311 159.012 773.871 168.701C771.146 176.276 768.226 180.637 768.402 189.036C768.567 197.026 770.295 204.907 773.488 212.233" fill="var(--color-illustration-base, #FFFFFF)"/>
<path d="M729.006 232.597C729.8 222.327 732.025 212.096 730.907 201.757C730.506 198.062 729.702 194.309 727.046 191.526C724.743 189.095 721.519 188.115 718.471 186.988C700.028 180.128 696.549 158.098 702.723 141.467C708.897 124.837 723.783 111.234 742.324 112.44C750.605 112.969 757.701 119.231 762.571 125.493C768.012 132.364 771.275 140.705 771.94 149.444C772.327 155.149 771.611 160.876 769.833 166.31C768.226 171.21 765.727 175.777 764.619 180.824C762.16 192.016 765.178 204.226 769.627 214.526C771.587 219.191 779.927 215.781 777.928 211.018C773.841 201.286 771.176 189.575 774.772 179.315C776.419 174.601 778.692 170.132 779.839 165.262C781.172 159.895 781.651 154.352 781.26 148.837C779.839 130.452 767.706 110.048 749.292 104.276C740.541 101.532 730.427 103.355 722.176 106.893C713.296 110.777 705.786 117.236 700.616 125.434C689.698 142.339 685.916 166.173 699.116 183.019C702.461 187.33 706.735 190.831 711.621 193.26C714.365 194.603 719.147 195.22 721.225 197.562C722.656 199.199 722.783 202.07 722.969 204.128C723.2 207.21 723.239 210.303 723.087 213.389C722.832 219.789 722.303 226.188 722.293 232.597C722.293 236.968 728.683 236.86 729.006 232.597Z" fill="var(--color-illustration-primary, #382C80)"/>
<path d="M432.38 215.29C443.513 214.369 454.656 213.33 465.896 211.85L567.444 198.258L645.04 187.87L683.819 182.676C690.277 181.813 696.755 181.02 703.213 180.079C706.32 179.628 712.366 176.923 707.692 172.954C705.928 171.455 703.39 171.396 701.077 171.406L662.974 171.661C659.682 171.661 656.389 171.661 653.096 171.661C593.316 171.386 533.634 164.928 474.618 155.422C463.348 153.599 452.078 149.807 440.867 149.307C425.765 148.64 410.487 149.963 395.307 149.454C368.308 148.562 342.897 143.731 316.446 140.379C288.964 136.9 263.069 125.566 241.868 107.735C228.707 96.6318 217.76 83.2352 205.02 71.6418C199.042 66.1832 192.28 60.9598 184.333 59.578C177.923 58.4706 171.279 59.9896 165.34 62.6454C151.816 68.6822 141.389 80.403 134.676 93.6036C127.963 106.804 124.69 121.485 122.524 136.136C116.918 174.179 118.692 213.879 132.324 249.816C136.597 261.115 142.183 272.209 150.885 280.578C159.588 288.947 171.867 294.298 183.794 292.338C194.338 290.623 203.158 283.714 211.92 277.638C261.214 243.24 321.043 229.52 379.568 220.7C397.326 217.995 414.858 216.78 432.38 215.29Z" fill="var(--color-illustration-secondary, #7F72FF)"/>
<path d="M432.38 218.544C457.34 216.819 482.115 213.644 506.919 210.381L582.633 200.345C608.022 196.974 633.41 193.58 658.799 190.163L696.196 185.185C700.625 184.597 705.643 184.538 709.534 182.059C713.101 179.775 714.59 175.649 712.199 171.935C709.396 167.574 704.359 167.241 699.626 167.27L681.3 167.388C669.118 167.466 656.937 167.613 644.765 167.447C619.697 167.094 594.658 165.663 569.688 163.439C544.717 161.214 519.639 158.127 494.747 154.432C482.644 152.639 470.707 150.512 458.761 147.945C446.59 145.279 434.634 144.907 422.207 145.171C409.565 145.436 396.982 145.74 384.36 144.828C372.217 143.956 360.154 142.388 348.1 140.644C325.658 137.4 302.882 135.45 281.705 126.806C261.125 118.398 243.828 104.982 228.383 89.1742C220.455 81.05 212.703 72.5142 203.883 65.3112C195.406 58.3924 185.88 53.9432 174.718 55.619C154.707 58.6374 138.782 75.7776 130.354 93.3C120.407 113.939 117.31 137.782 115.957 160.43C114.576 183.578 116.212 207.039 121.769 229.589C126.757 249.816 134.509 273.022 151.433 286.497C159.43 292.887 169.475 297.189 179.853 296.846C190.633 296.493 199.963 290.966 208.577 284.968C226.688 272.326 245.582 261.497 266.103 253.216C286.702 245.075 307.935 238.637 329.588 233.969C351.689 228.953 374.051 225.161 396.57 222.611C408.497 221.308 420.463 220.406 432.409 219.416C437.633 218.985 437.682 210.782 432.409 211.223C388.456 214.849 344.758 220.475 302.187 232.421C282.077 237.943 262.508 245.274 243.72 254.324C234.129 258.997 224.837 264.26 215.898 270.082C207.303 275.698 199.159 282.95 189.438 286.654C168.574 294.621 150.395 278.079 141.418 260.713C131.363 241.27 126.414 218.662 124.474 197.013C122.554 174.764 123.565 152.359 127.482 130.373C131.069 109.999 137.87 89.1546 153.766 74.9838C160.959 68.5648 170.739 63.018 180.657 63.3218C191.212 63.655 199.551 72.034 206.637 78.9332C221.974 93.888 235.586 110.401 253.677 122.181C271.058 133.425 290.623 140.863 311.085 144.005C333.753 147.465 356.694 150.797 379.548 152.678C391.641 153.593 403.774 153.871 415.896 153.511C427.656 153.237 439.661 152.531 451.313 154.805C462.789 157 474.089 159.597 485.613 161.381C497.373 163.184 509.133 164.856 520.893 166.398C568.178 172.562 615.806 176.198 663.503 175.875L698.891 175.64C700.242 175.551 701.597 175.551 702.948 175.64C703.134 175.64 705.447 176.394 705.241 176.522C705.594 176.296 705.055 175.012 705.133 175.042C705.026 174.993 704.467 175.473 704.33 175.493C703.644 175.61 702.958 175.934 702.262 176.071C696.176 177.315 689.826 177.756 683.642 178.58C659.632 181.774 635.628 184.989 611.632 188.223C563.376 194.691 515.062 200.884 466.895 208.009C455.4 209.704 443.855 210.949 432.292 212.076C428.313 212.429 428.195 218.838 432.38 218.544Z" fill="var(--color-illustration-secondary, #7F72FF)"/>
<path d="M755.231 168.348C755.79 167.89 756.228 167.301 756.505 166.633C757.73 163.781 756.701 160.273 758.318 157.46C760.131 154.295 762.238 150.316 765.404 148.376C768.892 146.249 774.224 146.916 776.095 150.542C776.842 152.261 777.081 154.159 776.781 156.01C776.162 160.791 775.036 165.492 773.42 170.034C771.725 175.1 770.784 183.127 778.663 180.324C789.747 176.404 798.057 156.471 801.027 146.367C805.67 130.693 804.714 113.892 798.322 98.8466C796.268 94.0164 793.529 89.5077 790.188 85.4598C781.064 74.6798 763.297 67.271 749.234 66.8398C737.993 66.4968 726.517 71.0538 719.226 79.5798C709.357 91.2222 712.229 105.06 712.66 118.456C712.807 122.621 716.717 125.875 720.794 126.718C724.871 127.561 729.085 126.561 733.132 125.571C732.515 129.335 734.313 133.084 737.634 134.96C740.955 136.836 745.093 136.441 747.999 133.97C746.488 143.429 746.393 153.06 747.715 162.547C747.821 164.208 748.343 165.815 749.234 167.221C750.998 169.524 753.555 169.74 755.231 168.348Z" fill="var(--color-illustration-primary, #382C80)"/>
<path d="M757.367 170.475C759.143 168.618 760.187 166.181 760.307 163.615C760.634 160.52 761.811 157.576 763.708 155.108C765.188 153.021 767.148 150.738 769.96 151.002C773.39 151.316 772.9 154.638 772.45 157.255C771.568 162.772 769.147 167.937 768.383 173.454C767.853 177.247 768.187 181.823 771.852 184.009C780.417 189.114 790.286 177.482 794.333 171.396C799.79 162.995 803.745 153.711 806.024 143.956C811.904 119.456 805.436 89.8796 784.229 74.572C765.609 61.097 737.444 57.2162 719.285 73.5332C708.505 83.1862 707.201 96.6514 708.024 110.244C708.416 116.692 707.828 123.307 713.424 127.717C719.52 132.5 727.262 131.226 734.22 129.452L729.124 125.532C728.144 136.635 740.962 143.976 749.939 137.204L744.373 132.921C742.874 142.427 742.715 152.096 743.902 161.645C744.363 165.251 745.01 168.809 748.067 171.151C750.673 173.217 754.318 173.356 757.073 171.494C760.993 168.897 757.348 162.517 753.359 165.124C751.154 166.555 750.645 153.736 750.605 152.306C750.427 146.497 750.784 140.683 751.674 134.94C752.115 132.118 749.077 128.443 746.107 130.657C741.629 134.009 736.542 131.108 737.179 125.532C737.483 122.798 734.367 121.112 732.083 121.612C727.85 122.592 719.735 124.728 717.246 119.466C716.374 117.623 716.737 114.958 716.609 112.929C716.433 109.989 716.227 107.118 716.168 104.207C715.943 93.4272 718.834 83.4508 728.163 77.0318C744.823 65.5854 769.274 71.7398 783.524 84.519C800.37 99.6208 802.947 126.659 796.332 147.131C793.794 154.971 790.295 163.046 785.219 169.612C783.054 172.664 780.086 175.055 776.644 176.521C776.383 176.586 776.118 176.635 775.85 176.668C775.409 177.296 776.438 176.384 776.252 177.002C776.066 177.619 776.33 176.698 776.37 176.58C776.86 175.306 776.713 173.415 777.124 172.013C779.721 163.311 786.062 145.485 771.852 143.446C766.442 142.672 761.993 145.475 758.926 149.738C757.253 151.999 755.88 154.466 754.839 157.078C753.859 159.656 754.937 164.115 753.085 166.153C750.507 169.073 754.594 173.219 757.367 170.475Z" fill="var(--color-illustration-primary, #382C80)"/>
<path d="M703.066 143.045C708.27 143.927 710.837 146.778 709.612 152.247C708.936 155.295 707.505 158.264 707.182 161.38C706.741 165.555 709.887 165.918 713.258 165.781C715.698 165.673 715.718 161.861 713.258 161.978C712.004 161.978 711.455 162.429 711.014 161.233C710.671 160.253 711.857 157.598 712.111 156.627C712.768 154.021 713.66 151.296 713.346 148.582C712.748 143.437 708.534 141.026 703.84 140.252C702.017 139.948 701.224 142.731 703.066 143.045Z" fill="var(--color-illustration-primary, #382C80)"/>
<path d="M719.147 143.133C720.476 142.082 722.153 141.571 723.842 141.702C725.684 141.888 727.203 143.006 728.928 143.584C729.74 143.785 730.588 143.426 731.008 142.701C731.428 141.977 731.319 141.063 730.741 140.458C726.869 136.952 720.971 136.952 717.099 140.458C715.659 141.683 717.599 144.24 719.147 143.104V143.133Z" fill="var(--color-illustration-primary, #382C80)"/>
<path d="M739.668 182.98C736.755 184.956 733.532 186.433 730.133 187.35C726.38 188.448 722.783 187.282 719.137 186.302C713.786 184.871 711.523 193.093 716.854 194.593C721.754 195.965 726.703 196.719 731.554 194.896C735.915 193.332 739.888 190.849 743.206 187.615C745.441 185.302 742.451 180.98 739.629 182.98H739.668Z" fill="var(--color-illustration-primary, #382C80)"/>
<path d="M782.75 221.533C777.654 217.77 775.38 211.36 773.126 205.696C771.411 201.404 764.394 203.207 766.07 207.656C768.912 215.143 772.43 222.679 779.79 226.697C783.22 228.589 785.817 223.757 782.799 221.552L782.75 221.533Z" fill="var(--color-illustration-primary, #382C80)"/>
<path d="M769.5 93.8878C761.797 82.657 760.249 66.0656 769.5 56.1088C772.739 52.8087 776.682 50.2829 781.034 48.7196C786.513 46.6224 792.598 45.6032 798.273 47.0928C803.947 48.5824 809.053 52.9728 810.376 58.6568C821.156 55.0602 833.66 61.2734 839.197 71.191C844.734 81.1086 844.097 93.6624 839.619 104.109C837.982 108.281 835.457 112.046 832.22 115.144C828.543 118.302 824.067 120.388 819.284 121.171C807.422 123.145 795.431 118.466 788.041 108.98" fill="var(--color-illustration-primary, #382C80)"/>
<path d="M772.205 92.3198C766.433 82.804 764.267 68.0256 772.714 59.2938C780.094 51.6792 801.664 45.5738 805.397 60.0484C806.192 62.7898 809.026 64.3984 811.787 63.6744C819.696 61.3224 828.202 64.9288 833.112 71.3968C839.158 79.3642 838.874 90.4774 835.797 99.5326C832.553 109.068 825.576 115.948 815.139 116.369C805.838 116.741 797.499 112.39 791.619 105.354C787.934 100.944 780.113 106.863 783.583 111.557C795.46 127.639 821.509 133.117 836.679 118.104C851.046 103.903 853.163 75.7186 838.129 61.3322C830.466 54.0018 819.284 50.3954 808.984 53.6588L815.374 57.2848C809.572 36.3716 782.054 39.1548 768.785 50.5424C755.515 61.93 757.162 82.2258 766.766 95.4754C769.079 98.6702 774.302 95.8282 772.166 92.3198H772.205Z" fill="var(--color-illustration-primary, #382C80)"/>
<path d="M733.808 232.578C716.207 245.867 698.456 258.956 680.555 271.846C672.401 277.726 664.326 284.586 655.281 288.898C652.939 290.025 633.956 304.49 634.495 304.814C631.712 303.187 630.399 299.914 629.321 296.876C613.729 253.011 606.359 206.314 587.631 163.684C584.339 156.187 577.714 143.731 568.855 141.693C560.574 139.782 555.732 149.297 551.43 154.746C549.382 157.343 545.952 159.127 542.767 158.274C538.916 157.245 536.956 153.061 535.505 149.346L526.244 125.64C523.559 118.78 520.668 111.587 515.072 106.775C511.28 103.522 503.41 99.6016 498.216 101.375C493.267 103.071 492.993 109.872 493.101 114.194L493.718 140.654C491.758 137.145 489.641 133.549 486.368 131.216C483.095 128.884 478.293 128.188 475.118 130.658C471.266 133.666 471.492 139.478 472.089 144.309C470.257 140.987 468.326 137.547 465.229 135.381C462.133 133.216 457.458 132.784 454.753 135.44C451.46 138.674 452.715 144.103 452.078 148.68C449.53 144.152 446.247 139.145 441.092 138.459C437.505 137.978 433.899 139.899 431.596 142.692C429.415 145.602 427.966 148.993 427.372 152.58C425.549 161.234 426.039 170.22 427.656 178.844C429.048 186.283 429.381 193.593 430.9 201.071C439.348 242.701 455.694 284.871 479.096 320.562C503.896 358.138 540.352 386.526 582.859 401.363C599.058 406.959 616.179 410.516 633.27 410.036C650.675 409.536 667.756 404.891 683.887 398.335C732.583 378.549 774.88 338.555 788.296 287.762" fill="var(--color-illustration-base, #FFFFFF)"/>
<path d="M732.084 229.638C713.65 243.132 695.069 256.421 676.655 269.935C672.529 272.954 668.482 276.099 664.278 279C660.583 281.548 656.692 283.528 652.831 285.772C648.539 288.281 644.589 291.652 640.65 294.592C637.847 296.738 629.399 301.266 630.664 305.823L636.544 301.334C634.701 300.09 633.927 297.777 633.212 295.778C632.045 292.534 630.958 289.261 629.889 285.978C627.929 279.823 626.028 273.63 624.235 267.417C620.707 255.176 617.483 242.858 614.16 230.559C607.683 206.608 600.96 182.323 590.484 159.744C586.818 151.855 581.605 142.663 573.383 138.811C563.534 134.195 556.291 140.928 550.794 148.503C548.834 151.267 545.315 156.853 541.895 152.561C540.337 150.601 539.553 147.974 538.661 145.701L534.967 136.42C530.89 126.003 527.646 113.596 519.669 105.354C513.181 98.6411 497.589 91.5263 491.249 102.071C488.554 106.52 488.838 112.057 488.956 117.045L489.504 140.693L497.433 138.547C493.326 131.255 487.074 123.406 477.627 125.121C468.336 126.796 466.964 136.557 467.827 144.348L475.765 142.192C471.904 135.175 465.877 127.6 456.88 129.658C447.59 131.794 448.668 141.418 447.884 148.67L455.724 146.534C451.147 138.566 443.582 130.854 433.733 135.754C424.207 140.448 422.316 152.972 422.051 162.459C421.987 168.341 422.519 174.215 423.639 179.991C424.619 185.616 425.158 191.3 426 196.955C427.657 208.136 430.646 219.24 433.772 230.088C445.64 271.376 464.436 312.928 492.925 345.493C519.198 375.54 554.537 398.217 593.1 408.801C615.856 415.044 639.16 415.74 662.024 409.889C681.7 404.72 700.441 396.489 717.56 385.497C748.724 365.681 774.753 337.006 787.905 302.197C789.564 297.813 790.995 293.361 792.197 288.839C793.559 283.753 785.68 281.587 784.357 286.664C775.38 320.072 753.82 348.757 726.439 369.503C695.922 392.621 656.3 409.448 617.473 405.312C579.988 401.314 543.483 381.998 515.759 356.998C486.447 330.538 466.357 295.513 452.157 258.998C443.846 237.615 436.477 214.732 433.586 191.888C432.047 179.736 428.882 167.241 431.136 154.981C431.949 150.512 433.625 143.643 438.976 142.682C443.621 141.849 446.502 147.494 448.393 150.806C450.647 154.726 455.841 152.58 456.233 148.67C456.537 145.955 455.253 138.507 459.026 137.89C463.632 137.086 466.602 143.329 468.346 146.475C470.306 149.964 476.784 148.65 476.284 144.329C475.912 141.075 474.716 133.774 479.646 133.392C484.781 132.99 487.907 139.135 489.985 142.819C492.062 146.504 498.021 144.897 497.923 140.673L497.452 121.201C497.354 117.016 496.286 111.185 498.05 107.177C499.814 103.169 505.606 105.981 508.271 107.402C512.498 109.738 515.916 113.302 518.071 117.624C523.667 127.933 527.058 139.634 531.409 150.503C533.114 154.756 535.123 159.215 539.367 161.479C543.777 163.821 548.941 162.615 552.636 159.519C557.33 155.599 561.681 142.8 569.57 146.396C576.96 149.758 581.203 159.43 584.27 166.408C593.992 188.566 600.548 211.998 606.879 235.302C610.456 248.424 613.925 261.566 617.835 274.6C619.795 281.205 621.912 287.781 624.166 294.298C626.009 299.6 627.606 304.99 632.486 308.263C635.426 310.223 639.229 306.979 638.317 303.775L637.925 306.842C637.328 308.008 637.367 307.401 637.867 307.028C638.366 306.656 638.602 306.372 638.964 306.048C640.101 305.068 641.267 304.157 642.433 303.236C645.158 301.08 647.931 298.963 650.714 296.895C657.124 292.142 664.238 288.673 670.716 283.988C692.786 268.014 714.699 251.746 736.219 234.988C739.238 232.636 735.24 227.344 732.084 229.638Z" fill="var(--color-illustration-primary, #382C80)"/>
<path d="M719.324 241.192C735.661 226.05 753.423 212.522 772.362 200.796C775.733 198.709 779.222 196.641 783.083 195.779C784.513 195.341 786.053 195.428 787.424 196.024C788.65 196.849 789.58 198.044 790.08 199.434C792.55 204.804 795.784 209.538 796.764 215.535C797.202 217.625 797.111 219.791 796.499 221.837C795.519 224.63 793.05 226.629 790.619 228.275C773.254 239.879 751.262 241.104 731.016 246.219" fill="var(--color-illustration-base, #FFFFFF)"/>
<path d="M721.637 243.495C739.09 228.628 757.475 213.791 777.497 202.531C779.212 201.551 782.602 199.355 784.729 199.728C786.493 200.032 787.444 203.648 788.267 205.226C790.374 209.332 794.539 216.006 792.461 220.749C790.638 224.953 783.837 227.668 779.966 229.481C775.226 231.62 770.307 233.338 765.266 234.616C753.594 237.732 741.521 239.016 729.82 242.044C724.42 243.446 726.703 251.697 732.123 250.394C744.412 247.454 756.936 245.435 769.118 242.044C775.191 240.414 781.082 238.168 786.699 235.341C791.746 232.744 797.743 229.402 800.076 223.924C802.673 217.828 800.233 210.792 797.567 205.147C795.46 200.678 793.245 193.387 788.012 191.819C781.936 189.957 775.272 194.152 770.264 197.229C764.443 200.825 758.739 204.628 753.144 208.587C740.261 217.643 728.173 227.781 717.011 238.889C714.012 241.897 718.471 246.19 721.627 243.495H721.637Z" fill="var(--color-illustration-primary, #382C80)"/>
<path d="M651.223 329.538C647.999 324.158 644.442 318.994 641.511 313.437C638.581 307.88 636.219 302.04 633.848 296.091C631.8 291.064 623.871 292.867 625.469 298.404C629.075 310.938 636.788 324.413 646.549 333.145C648.989 335.33 653.036 332.557 651.223 329.538Z" fill="var(--color-illustration-primary, #382C80)"/>
<path d="M848.958 408.105C852.515 409.051 855.821 410.767 858.641 413.133C863.051 416.906 868.245 410.33 863.541 406.772C859.821 403.944 855.431 402.127 850.801 401.5C846.577 400.922 844.587 406.919 848.978 408.105H848.958Z" fill="var(--color-illustration-primary, #382C80)"/>
<path d="M662.984 290.339C669.844 296.219 676.517 301.932 681.8 309.4C687.091 316.976 691.153 325.34 693.834 334.184C696.488 342.913 698.345 351.864 699.381 360.928C700.527 370.238 700.694 379.656 701.87 388.946C702.517 394.042 710.082 394.415 710.102 388.946C710.102 379.048 708.936 368.954 707.623 359.145C706.446 349.348 704.332 339.687 701.311 330.293C695.333 312.555 684.083 294.141 667.296 284.753C663.895 282.852 659.828 287.614 662.984 290.339Z" fill="var(--color-illustration-primary, #382C80)"/>
<path d="M408.242 152.992C408.35 150.963 409.84 140.193 409.957 138.164C410.168 136.074 410.072 133.965 409.673 131.902C409.249 129.807 407.912 128.011 406.027 127.002C404.989 126.522 403.528 125.963 403.744 124.846C403.891 124.092 404.724 123.749 405.498 123.562C408.503 122.814 411.584 122.409 414.681 122.357C417.386 122.357 420.492 122.749 421.962 125.013C422.332 125.532 422.518 126.16 422.491 126.796C422.354 128.257 420.835 129.099 419.836 130.168C418.199 131.902 417.876 134.489 417.925 136.881C417.974 139.272 418.346 141.683 417.817 144.015" fill="var(--color-illustration-secondary, #7F72FF)"/>
<path d="M410.987 152.991C411.339 148.621 412.329 144.269 413.025 139.938C413.535 136.782 414.25 133.489 413.397 130.324C412.944 128.618 412.106 127.04 410.947 125.708C410.372 125.045 409.713 124.459 408.987 123.964L408.096 123.435C407.116 122.807 407.008 122.915 407.723 123.748L407.302 126.953C406.178 127.75 406.368 127.867 407.87 127.306C408.85 127.11 409.742 126.953 410.683 126.835C412.306 126.612 413.946 126.537 415.583 126.61C415.7 126.61 417.729 127.051 417.856 127.012C418.689 127.756 418.738 127.355 418.003 125.796C417.533 126.179 417.072 126.571 416.631 126.982C412.114 131.608 414.377 137.223 413.437 142.819C412.496 148.415 421.198 150.973 422.168 145.23C422.53 142.867 422.639 140.472 422.492 138.086C422.423 136.233 422.266 134.538 423.384 132.99C424.501 131.441 425.892 130.618 426.48 128.776C427.078 126.791 426.781 124.644 425.667 122.896C423.707 119.73 420.032 118.456 416.504 118.211C412.437 117.917 406.861 118.28 403.127 120.054C399.687 121.68 398.315 125.934 401.167 128.874C402.451 130.167 404.352 130.491 405.371 132.029C406.39 133.568 406.557 136.557 406.577 138.517C406.577 143.348 405.744 148.219 405.45 153.04C405.244 156.588 410.673 156.539 410.947 153.04L410.987 152.991Z" fill="var(--color-illustration-secondary, #7F72FF)"/>
<path d="M370.826 144.26L371.16 138.164C371.375 136.074 371.279 133.964 370.875 131.902C370.451 129.807 369.114 128.011 367.23 127.002C366.25 126.522 364.731 125.963 364.946 124.846C365.093 124.092 365.926 123.749 366.701 123.562C369.706 122.814 372.787 122.409 375.883 122.357C378.588 122.357 381.695 122.749 383.174 125.013C383.541 125.533 383.724 126.161 383.694 126.796C383.557 128.257 382.038 129.099 381.038 130.168C379.401 131.902 379.078 134.489 379.127 136.881C379.176 139.272 379.558 141.683 379.019 144.015" fill="var(--color-illustration-secondary, #7F72FF)"/>
<path d="M373.58 144.26C373.874 139.86 374.854 135.44 374.04 131.03C373.774 129.339 373.142 127.727 372.188 126.306C371.042 124.66 369.248 124.091 367.974 122.7L369.17 125.64C367.21 127.492 367.21 128.051 369.101 127.316C370.042 127.12 370.983 126.963 371.924 126.845C373.547 126.62 375.187 126.548 376.824 126.63C376.961 126.63 378.98 127.08 379.107 127.031C379.92 127.766 379.989 127.394 379.303 125.895C378.833 126.267 378.372 126.659 377.921 127.071C373.354 131.696 375.628 137.233 374.687 142.858C373.746 148.484 382.4 150.973 383.38 145.24C383.968 141.82 383.135 138.38 383.713 135.009C384.203 132.176 387.27 130.912 387.829 127.953C389.142 121.004 381.4 118.084 375.883 118.153C371.169 118.221 359.125 118.76 361.046 126.316C361.957 129.922 365.652 129.432 367.298 132.108C369.14 135.097 368.278 140.928 368.072 144.26C367.925 147.807 373.345 147.768 373.57 144.26H373.58Z" fill="var(--color-illustration-secondary, #7F72FF)"/>
<path d="M502.607 97.5533C503.107 89.5173 502.411 76.1011 493.434 72.5535C488.946 70.7699 484.428 72.6417 480.919 75.5719C479.126 77.0615 477.627 78.8451 475.872 80.3739C474.324 81.7165 474.402 81.6773 472.932 80.3151C467.856 75.6601 464.495 69.0745 458.909 64.8801C450.726 58.7649 440.514 55.2467 430.489 53.5905C409.311 50.0723 387.369 53.6395 367.867 62.4105C358.433 66.5876 349.681 72.1609 341.906 78.9431C334.733 85.2641 327.52 93.3001 324.668 102.63C321.846 111.793 327.265 120.044 336.428 122.112C347.904 124.66 357.9 118.545 366.72 111.92L360.36 110.254C367.004 125.327 388.937 124.739 397.031 111.499L390.593 113.184C396.698 117.447 403.558 121.779 411.3 121.671C417.739 121.583 422.08 117.634 426.98 114.037L421.198 113.292C431.488 123.621 452.294 117.536 451.265 101.532C450.892 95.8579 442.229 95.7403 442.337 101.532C442.484 109.029 432.694 111.234 427.95 106.511C426.578 105.148 423.844 104.551 422.159 105.766C418.954 108.137 415.534 111.95 411.31 112.146C405.43 112.42 399.913 108.226 395.356 105.021C393.239 103.561 390.152 104.668 388.917 106.716C384.154 114.556 372.11 113.89 368.396 105.531C367.416 103.414 363.888 102.473 362.036 103.865C355.754 108.598 348.384 114.478 339.966 113.214C337.761 112.881 335.017 112.008 333.812 109.97C332.371 107.53 333.812 104.306 334.958 102.032C342.406 86.6753 359.458 75.6503 374.697 69.3195C391.357 62.4595 410.31 59.3235 428.186 62.0479C436.917 63.227 445.301 66.2322 452.793 70.8679C457.488 73.8765 461.114 79.4821 465.181 83.7059C467.141 85.7541 469.522 88.2041 472.344 88.9979C476.941 90.2915 480.684 86.4107 483.507 83.3727C486.701 79.9525 490.886 76.4441 493.914 82.0399C496.374 86.5773 496.55 92.4377 496.354 97.4651C496.207 101.503 502.362 101.454 502.617 97.4651L502.607 97.5533Z" fill="var(--color-illustration-primary, #382C80)"/>
<path d="M177.325 90.8992C199.316 131.373 203.932 180.432 190.281 224.405C186.342 236.829 181.027 248.774 174.434 260.018C171.661 264.81 178.893 268.995 181.823 264.34C207.362 223.67 212.968 170.465 198.973 124.807C195.029 111.859 189.489 99.4511 182.48 87.871C180.471 84.5782 175.463 87.4986 177.306 90.8992H177.325Z" fill="var(--color-illustration-primary, #382C80)"/>
<path d="M201.737 186.4C200.908 200.361 198.053 214.127 193.26 227.266C191.006 233.401 188.537 241.172 184.284 246.249C178.198 253.501 174.797 244.543 172.524 238.712C165.36 220.024 163.125 199.679 164.135 179.697C164.909 164.321 167.771 149.101 171.544 134.195C173.425 126.738 175.562 119.348 177.835 111.998C179.335 107.157 182.304 99.0526 186.155 107.53C188.282 112.214 189.37 117.908 191.389 122.808C194.166 129.581 196.41 136.56 198.102 143.682C201.401 157.666 202.626 172.059 201.737 186.4Z" fill="var(--color-illustration-primary, #382C80)"/>
<path d="M198.739 186.4C197.937 196.574 196.081 206.637 193.202 216.427C190.781 224.62 188.008 233.568 183.559 240.927C182.873 242.045 181.275 245.151 179.776 245.298C180.334 245.239 180.501 245.484 180.07 245.249C179.56 244.825 179.145 244.297 178.855 243.701C176.816 240.526 175.67 236.459 174.513 232.921C171.606 223.944 169.687 214.678 168.79 205.285C166.83 185.371 168.849 165.428 173.141 145.936C175.385 135.773 178.159 125.728 181.207 115.781C181.716 114.135 182.187 112.479 182.784 110.881C183.137 110.221 183.435 109.532 183.676 108.823C183.735 107.736 185.46 107.775 182.784 107.912C180.638 108.02 181.648 108.177 182.383 109.794C182.871 110.942 183.296 112.117 183.657 113.312C184.441 115.703 185.087 118.143 185.881 120.534C189.292 130.883 193.192 140.703 195.221 151.493C197.307 163.004 198.057 174.717 197.455 186.4C197.2 191.927 205.648 191.859 206.01 186.4C206.835 174.373 206.176 162.291 204.05 150.424C202.966 144.386 201.49 138.425 199.631 132.579C197.886 127.1 195.515 121.799 193.809 116.36C192.32 111.577 191.173 105.462 187.606 101.66C186.348 100.271 184.547 99.5018 182.675 99.5527C180.802 99.6035 179.045 100.47 177.865 101.924C175.091 104.982 174.053 109.568 172.896 113.41C171.064 119.476 169.339 125.572 167.781 131.706C161.901 154.825 158.226 178.795 160.46 202.668C161.445 214.279 163.895 225.718 167.751 236.713C169.809 242.417 173.22 254.353 181.471 252.462C186.371 251.364 189.458 245.7 191.428 241.555C193.754 236.392 195.767 231.094 197.455 225.688C201.661 212.986 204.108 199.767 204.727 186.4C204.932 182.48 199.043 182.578 198.739 186.4Z" fill="var(--color-illustration-primary, #382C80)"/>
<path d="M174.581 80.913C178.423 80.913 178.423 74.9546 174.581 74.9546C170.74 74.9546 170.74 80.913 174.581 80.913Z" fill="var(--color-illustration-primary, #382C80)"/>
<path d="M381.596 120.142C384.144 121.818 385.408 124.748 384.105 127.639C383.125 129.805 380.812 130.795 380.185 133.186C379.617 135.323 380.038 137.782 380.116 139.968C380.214 143.035 380.283 146.112 380.479 149.18C380.675 152.247 385.212 152.237 385.193 149.18C385.193 145.446 384.948 141.712 384.801 137.988C384.713 135.597 384.634 134.597 386.104 132.765C387.008 131.771 387.743 130.635 388.28 129.403C390.099 124.69 387.871 119.382 383.233 117.379C382.477 117.001 381.558 117.273 381.129 118.001C380.701 118.729 380.909 119.665 381.606 120.142H381.596Z" fill="var(--color-illustration-primary, #382C80)"/>
<path d="M418.239 119.76C420.41 119.934 422.301 121.307 423.139 123.317C424.119 125.356 423.943 126.257 422.6 127.943C421.258 129.629 419.876 131.206 419.356 133.49C418.729 136.253 419.004 139.291 418.994 142.094C418.994 145.534 418.994 148.954 419.141 152.414C419.268 155.461 423.904 155.491 423.894 152.414C423.894 147.68 423.786 142.957 423.806 138.223C423.806 135.812 423.806 133.97 425.295 131.941C426.283 130.84 427.148 129.634 427.873 128.345C430.264 122.955 423.59 116.32 418.239 116.879C416.436 117.065 416.348 119.74 418.239 119.76Z" fill="var(--color-illustration-primary, #382C80)"/>
<path d="M458.429 119.447C460.536 119.966 463.329 120.515 464.809 122.21C467.171 124.866 464.054 127.933 462.427 130.05C460.673 132.275 463.407 135.283 465.612 133.235C468.846 130.207 471.679 125.307 469.091 120.995C467.004 117.536 462.584 116.614 458.88 116.203C456.979 115.987 456.626 119.055 458.429 119.496V119.447Z" fill="var(--color-illustration-primary, #382C80)"/>
<path d="M375.021 163.713C386.899 165.594 398.914 166.898 410.948 166.476C413.486 166.388 413.496 162.458 410.948 162.556C399.188 162.899 387.428 162.743 375.786 160.979C373.992 160.704 373.198 163.458 375.021 163.742V163.713Z" fill="var(--color-illustration-primary, #382C80)"/>
<path d="M238.957 120.446C240.005 124.943 240.511 129.549 240.467 134.166C240.467 136.567 244.249 136.577 244.21 134.166C244.071 129.249 243.34 124.366 242.035 119.623C241.515 117.663 238.467 118.466 238.957 120.466V120.446Z" fill="var(--color-illustration-primary, #382C80)"/>
<path d="M241.417 150.042C242.343 149.973 243.059 149.202 243.059 148.273C243.059 147.345 242.343 146.573 241.417 146.504C240.491 146.573 239.775 147.345 239.775 148.273C239.775 149.202 240.491 149.973 241.417 150.042Z" fill="var(--color-illustration-primary, #382C80)"/>
<path d="M230.755 249.463C227.815 260.655 221.935 269.828 214.281 278.363C213.808 278.838 213.625 279.528 213.799 280.175C213.974 280.821 214.48 281.326 215.127 281.498C215.774 281.67 216.464 281.484 216.937 281.009C225.757 273.169 231.47 261.801 234.028 250.365C234.498 248.248 231.313 247.346 230.755 249.463Z" fill="var(--color-illustration-primary, #382C80)"/>
<path d="M108.921 93.4862C89.6643 88.4882 70.3093 83.8822 50.9641 79.2272C49.8857 78.9655 48.7634 79.4435 48.2048 80.4024C47.6462 81.3613 47.784 82.5733 48.5435 83.3824C61.4893 96.3968 74.6017 109.264 87.4201 122.386L87.9297 118.398C72.4903 127.051 59.3295 139.251 49.5333 153.991C49.0703 154.797 49.0695 155.788 49.5313 156.595C49.9931 157.402 50.8481 157.903 51.7775 157.911C61.593 157.971 71.3858 156.959 80.9815 154.893L78.4629 150.571C68.5495 162.189 61.3158 175.847 57.2753 190.575C56.5893 192.995 59.1667 194.495 61.1953 193.583C71.6029 188.86 82.0889 184.264 92.4083 179.364C95.4561 177.923 92.8003 173.611 89.8015 174.905C79.3057 179.432 68.9275 184.283 58.5101 188.987L62.4301 191.996C66.395 178.21 73.0977 165.364 82.1379 154.227C83.7059 152.267 82.3045 149.327 79.6291 149.905C70.4991 151.961 61.1539 152.905 51.7971 152.717L54.0413 156.637C63.4638 142.727 75.9398 131.152 90.5169 122.798C91.1869 122.393 91.6353 121.703 91.7345 120.927C91.8337 120.15 91.5731 119.37 91.0265 118.809C77.9141 105.942 65.0565 92.8198 52.0519 79.8642L49.6411 84.0194C69.0549 88.4588 88.4589 92.9374 107.941 97.0338C110.244 97.514 111.224 94.0938 108.921 93.4862Z" fill="var(--color-illustration-primary, #382C80)"/>
<path d="M89.841 55.2269C91.2816 56.7165 92.9672 57.9807 94.4568 59.4409C95.9464 60.9011 97.3968 62.4495 98.7198 64.0371C100.543 66.1735 103.62 63.0571 101.787 60.9697C99.1118 57.7945 95.77 54.2959 92.0656 52.3457C91.2703 51.9096 90.2758 52.1173 89.7215 52.8352C89.1672 53.5532 89.2179 54.5678 89.841 55.2269Z" fill="var(--color-illustration-primary, #382C80)"/>
<path d="M132.382 53.6493C129.236 48.1907 126.982 42.8693 126.502 36.5091L123.562 38.2241C127.672 40.1047 131.472 42.5996 134.832 45.6231C136.792 47.3381 139.585 44.6431 137.772 42.6831C134.211 39.0706 129.889 36.2984 125.12 34.5687C124.523 34.3944 123.879 34.5141 123.384 34.8911C122.889 35.2681 122.602 35.8576 122.612 36.4797C123.258 43.1731 125.238 50.0135 129.354 55.4329C130.716 57.2165 133.646 55.6779 132.461 53.6199L132.382 53.6493Z" fill="var(--color-illustration-primary, #382C80)"/>
<path d="M101.356 240.232C86.0038 249.062 73.1616 261.668 64.0474 276.854C63.5898 277.684 63.668 278.707 64.2465 279.457C64.825 280.208 65.7937 280.545 66.713 280.314C73.4358 278.295 80.2076 276.462 87.0676 274.992C88.7826 274.62 90.5074 274.277 92.2322 273.944C92.8006 273.836 96.3972 272.826 96.6618 273.081C97.0832 273.473 95.8974 277.246 95.7406 277.864C95.329 279.579 94.8292 281.274 94.2902 282.96C90.527 294.798 84.5588 306.293 85.6564 319.073C85.823 321.033 88.4004 322.65 89.9096 320.837L102.091 306.137L108.177 298.816C109.157 297.591 110.196 296.366 111.225 295.151C112.479 293.651 113.263 292.397 115.145 293.681C117.026 294.965 118.467 299.179 119.515 301.197C120.985 304.02 122.433 306.852 123.857 309.694C126.718 315.378 129.472 321.111 132.167 326.873C133.147 329.029 136.185 328.157 136.842 326.266C138.4 321.817 139.89 317.358 141.35 312.879C142.33 309.851 137.694 308.655 136.636 311.576C135.009 316.005 133.435 320.448 131.912 324.904L136.587 324.296C133.164 317.109 129.642 309.981 126.023 302.912C123.69 298.346 121.005 289.614 115.331 288.056C109.451 286.448 105.041 294.788 102.022 298.424C96.7957 304.703 91.5691 310.988 86.3424 317.279L90.5858 319.033C89.2138 303.461 98.8864 290.074 101.229 275.1C101.591 272.777 101.64 270.2 99.2686 268.867C96.6912 267.476 92.8888 268.867 90.2624 269.357C81.8696 271.003 73.5782 273.13 65.4292 275.727L68.085 279.196C76.6865 264.573 88.7559 252.291 103.228 243.436C104.113 242.919 104.411 241.783 103.894 240.898C103.377 240.013 102.241 239.715 101.356 240.232Z" fill="var(--color-illustration-primary, #382C80)"/>
<path d="M165.938 317.161L166.918 323.394C167.31 325.775 170.956 324.776 170.554 322.414L169.496 316.191C169.094 313.819 165.507 314.829 165.899 317.171L165.938 317.161Z" fill="var(--color-illustration-primary, #382C80)"/>
<path d="M64.8801 223.826C69.7475 221.102 74.605 218.358 79.4527 215.594C81.5303 214.408 79.6585 211.194 77.5711 212.39C72.743 215.16 67.9247 217.963 63.1161 220.798C62.3297 221.307 62.0821 222.344 62.5536 223.154C63.0251 223.963 64.0494 224.259 64.8801 223.826Z" fill="var(--color-illustration-primary, #382C80)"/>
<path d="M723.578 146.798C721.229 146.789 718.958 147.636 717.188 149.18C715.767 150.513 717.58 152.786 719.236 151.845C720.547 150.975 722.026 150.39 723.578 150.13C724.485 150.105 725.214 149.372 725.234 148.464C725.224 147.552 724.49 146.814 723.578 146.798Z" fill="var(--color-illustration-primary, #382C80)"/>
<path d="M702.419 151.953C703.287 151.793 704.182 151.976 704.918 152.463C706.878 153.658 708.642 150.601 706.702 149.405C705.155 148.458 703.271 148.236 701.547 148.798C700.676 149.038 700.164 149.94 700.405 150.811C700.646 151.683 701.548 152.194 702.419 151.953Z" fill="var(--color-illustration-primary, #382C80)"/>
<path d="M710.475 172.533C710.72 172.533 710.965 174.66 710.965 174.944C711.05 175.704 710.836 176.466 710.368 177.071C708.878 178.707 710.926 181.833 712.886 180.334C715.081 178.639 715.581 176.198 714.905 173.562C714.346 171.426 712.729 168.388 710.005 169.348C708.408 169.917 708.496 172.729 710.436 172.533H710.475Z" fill="var(--color-illustration-primary, #382C80)"/>
<path d="M686.318 171.7C687.592 174.743 687.933 178.096 687.298 181.334C686.897 183.382 690.052 184.274 690.444 182.196C691.206 178.29 690.611 174.242 688.759 170.72C688.082 169.397 685.76 170.328 686.318 171.749V171.7Z" fill="var(--color-illustration-primary, #382C80)"/>
</svg>
