<svg width="1000" height="1000" viewBox="0 0 1000 1000" fill="none" xmlns="http://www.w3.org/2000/svg">
<path d="M112.038 65.1837C74.2978 54.4037 43.2514 93.7997 33.912 125.748C23.72 160.577 32.7262 199.444 60.96 223.199C75.7286 235.615 94.7602 243.642 114.292 242.495C120.701 242.113 120.809 232.352 114.292 232.43C83.5784 232.813 55.4916 212.478 44.5842 183.93C33.2358 154.128 40.5074 118.172 60.96 93.9859C72.72 80.0797 91.1636 67.4377 110.254 71.6713C114.458 72.6513 116.222 66.3793 112.038 65.1837Z" fill="var(--color-illustration-primary, #382C80)"/>
<path d="M712.013 206.539C686.533 211.821 663.366 224.865 640.904 238.046C591.463 267.064 544.139 300.991 488.406 317.053C486.299 317.651 484.075 318.269 481.948 317.72C478.195 316.74 476.274 312.683 474.843 309.076C462.319 277.324 448.726 245.798 437.201 213.673C432.537 200.659 432.654 186.586 432.635 172.944C432.635 159.93 430.675 146.857 430.88 133.931C431.057 123.062 428.862 119.691 423.374 109.529C417.601 98.827 412.407 85.9106 402.578 78.786C387.3 67.6826 368.386 61.832 349.482 61.2636C328.49 60.6462 306.362 67.1436 292.465 82.8236C285.243 91.0164 280.637 101.199 277.403 111.636C273.277 124.983 275.256 136.92 274.463 150.375C270.121 225.041 287.604 313.369 341.495 367.817C405.498 432.497 512.867 437.299 594.188 405.802C616.835 397.031 638.131 384.242 655.83 367.582C674.45 350.011 682.152 330.038 706.79 318.582" fill="var(--color-illustration-base, #FFFFFF)"/>
<path d="M711.033 203.001C686.2 208.097 663.738 220.288 642.041 232.94C620.657 245.406 599.793 258.724 578.478 271.287C557.555 283.626 536.113 295.298 513.514 304.264C507.902 306.499 502.224 308.557 496.482 310.438C493.473 311.418 490.435 312.477 487.358 313.241C483.526 314.221 481.478 313.78 479.606 310.105C476.725 304.411 474.706 298.081 472.344 292.152C469.731 285.69 467.118 279.235 464.504 272.787C459.506 260.458 454.518 248.12 449.726 235.714C444.934 223.307 439.152 210.527 437.584 197.111C436.065 184.165 436.966 171.053 436.084 158.058C435.663 151.865 435.153 145.681 435.006 139.438C434.879 133.98 435.271 128.492 434.026 123.131C431.821 113.654 425.559 104.511 421.041 96.0439C415.886 86.4399 409.84 78.3647 400.53 72.3965C381.281 60.3157 358.499 55.1325 335.918 57.6965C314.633 60.1955 294.611 70.0641 282.998 88.6057C276.889 98.334 272.883 109.233 271.238 120.603C269.621 132.725 270.386 145.289 269.896 157.509C268.22 199.189 273.042 241.789 286.056 281.479C298.796 320.287 320.033 357.253 351.99 383.321C382.958 408.586 421.296 422.521 460.702 427.303C500.529 432.203 541.709 427.823 579.909 415.681C600.803 409.036 620.951 399.922 638.934 387.261C648.614 380.607 657.536 372.914 665.541 364.319C672.245 356.979 678.056 348.884 684.651 341.456C691.452 333.538 699.735 327.026 709.034 322.287C714.042 319.797 709.661 312.545 704.683 314.848C685.465 323.747 674.479 340.142 660.984 355.587C646.226 372.482 627.282 385.575 607.153 395.306C571.52 412.554 530.605 420.444 491.16 420.238C452.47 420.032 413.27 411.525 379.695 391.818C344.974 371.424 319.837 339.525 303.667 303C286.918 265.153 279.421 223.277 278.324 182.068C278.059 171.984 278.216 161.9 278.726 151.825C279.323 140.065 277.853 127.943 280.568 116.408C285.978 93.3979 300.766 75.2483 323.766 68.5843C345.17 62.3711 369.415 65.2817 389.181 75.4443C399.844 80.9029 407.115 87.7825 412.888 98.2587C415.318 102.678 417.503 107.216 419.885 111.655C422.158 115.899 424.785 120.113 426.02 124.826C427.254 129.54 426.755 134.626 426.872 139.526C427.039 146.386 427.656 153.158 428.107 159.969C428.94 172.65 428.107 185.449 429.626 198.052C431.155 210.459 435.859 221.866 440.308 233.469C444.953 245.592 449.804 257.646 454.704 269.671C459.702 281.989 464.759 294.298 469.679 306.646C473.324 315.819 477.303 324.051 488.71 321.13C511.387 315.319 533.33 304.97 553.949 294.082C596.432 271.65 635.289 242.142 678.899 221.915C689.824 216.788 701.267 212.845 713.032 210.155C717.668 209.116 715.688 202.129 711.072 203.07L711.033 203.001Z" fill="var(--color-illustration-primary, #382C80)"/>
<path d="M788.934 561.328C815.864 526.979 845.676 495.757 870.274 460.045C870.683 458.915 871.641 458.072 872.815 457.81C873.988 457.548 875.214 457.903 876.065 458.752C906.102 476.558 932.151 493.209 954.289 520.188C958.699 525.558 962.933 531.321 964.726 538.034C966.519 544.747 965.392 552.626 960.306 557.35C955.22 562.073 947.311 562.642 940.402 561.358C933.493 560.074 926.908 557.291 919.95 556.458C902.437 554.263 885.65 564.445 873.067 576.812C860.483 589.18 850.468 604.105 836.905 615.385" fill="var(--color-illustration-secondary, #7F72FF)"/>
<path d="M791.119 563.504C809.562 540.533 829.907 519.149 848.488 496.266C852.519 491.321 856.475 486.319 860.356 481.262C862.551 478.401 864.72 475.523 866.863 472.629C867.931 471.178 868.999 469.689 870.048 468.258C870.626 467.454 873.39 462.437 874.213 462.378C872.361 462.544 876.555 464.475 876.594 464.495L880.877 467.092C883.216 468.522 885.551 469.966 887.884 471.423C893.764 475.118 899.644 478.91 905.387 482.879C915.927 490.084 925.837 498.168 935.012 507.046C943.734 515.592 955.092 526.029 959.002 537.965C960.649 543.022 960.639 549.637 956.376 553.459C952.113 557.281 945.322 556.791 940.137 555.684C933.346 554.223 926.868 551.666 919.93 550.891C913.669 550.228 907.339 550.821 901.31 552.636C870.714 561.642 855.671 591.836 833.229 611.72C828.182 616.199 835.464 623.127 840.54 619.031C862.766 601.048 877.398 569.315 907.307 562.573C922.007 559.261 935.022 568.767 949.594 567.365C962.55 566.111 971.693 556.115 970.929 542.865C970.116 528.832 959.492 517.385 950.349 507.693C940.685 497.614 930.086 488.476 918.695 480.4C907.16 472.021 894.989 464.563 882.719 457.321C877.339 454.146 871.724 450.804 867.039 456.782C862.139 462.946 857.925 469.718 853.182 476.01C831.681 504.537 808.102 531.468 786.317 559.77C784.2 562.524 788.972 566.258 791.168 563.514L791.119 563.504Z" fill="var(--color-illustration-secondary, #7F72FF)"/>
<path d="M574.96 807.112C560.838 837.492 552.949 880.769 514.092 887.757C508.154 888.825 502.048 888.786 496.119 889.913C483.987 892.216 473.266 899.958 466.445 910.14C463.583 914.422 458.605 922.458 459.163 927.878C459.996 935.924 459.928 932.778 466.896 934.248C487.407 938.452 507.752 943.46 528.391 946.988C548.579 950.486 568.375 955.141 588.994 956.102C591.934 956.239 594.933 956.298 597.559 955.053C601.91 952.995 603.919 948.027 605.556 943.499L628.253 880.505C631.575 871.263 634.025 862.13 637.729 852.937L650.322 821.577" fill="var(--color-illustration-secondary, #7F72FF)"/>
<path d="M571.922 805.338C561.044 826.898 555.458 853.202 537.534 870.42C533.305 874.51 528.345 877.768 522.912 880.024C515.425 883.092 507.615 883.297 499.696 884.258C483.918 886.218 470.531 894.812 461.76 908.023C458.027 913.648 454.028 920.361 454.077 927.319C454.077 931.749 454.94 937.364 459.957 938.579C462.054 939.089 464.338 938.932 466.474 939.324C471.776 940.304 477.029 941.558 482.291 942.715C491.895 944.822 501.49 947.007 511.113 948.987C530.282 952.907 549.647 956.827 569.031 959.483C577.459 960.649 587.024 962.589 595.491 961.158C602.978 959.904 607.045 954.083 609.701 947.438C617.963 926.858 624.881 905.563 632.437 884.669C636.063 874.634 638.974 864.334 642.884 854.407C647.01 843.941 651.165 833.513 655.075 822.969C657.035 817.755 648.215 813.982 646.01 819.147C631.624 852.29 620.373 886.531 608.163 920.518C605.223 928.691 602.782 937.315 599.186 945.214C597.794 948.281 596.148 950.555 592.62 950.878C588.376 951.27 583.868 950.594 579.645 950.182C561.622 948.467 543.796 944.547 525.99 941.362C507.556 938.07 489.338 933.728 471.012 929.916C468.581 929.416 465.533 928.387 463.015 928.701C459.624 929.132 465.367 929.514 464.563 930.543C464.838 930.19 464.142 927.162 464.171 926.741C464.544 920.802 469.444 914.001 473.109 909.601C477.682 903.957 483.618 899.572 490.357 896.861C498.099 893.862 506.429 894.126 514.514 892.784C526.023 890.841 536.594 885.227 544.649 876.78C562.632 858.062 568.59 831.299 578.322 808.053C579.86 804.388 573.676 801.81 571.893 805.348L571.922 805.338Z" fill="var(--color-illustration-secondary, #7F72FF)"/>
<path d="M767.736 404.391C713.7 442.679 667.934 491.464 633.172 547.834C611.916 582.251 594.462 625.332 609.809 662.964C618.511 684.299 636.641 700.204 656.251 711.278C678.791 724.018 714.591 738.914 739.786 727.654C791.256 704.643 844.882 679.957 879.75 634.485C909.15 596.167 850.35 553.43 823.233 533.055" fill="var(--color-illustration-base, #FFFFFF)"/>
<path d="M765.962 401.373C718.782 434.117 677.792 474.981 644.903 522.06C614.523 565.386 579.194 628.233 613.543 679.252C628.027 700.812 650.949 715.198 674.43 725.253C686.415 730.388 698.93 734.406 711.964 735.759C718.35 736.451 724.802 736.223 731.123 735.083C737.297 733.926 742.883 731.261 748.567 728.713C798.126 706.565 849.85 681.673 883.474 637.337C912.746 598.725 864.021 558.467 836.052 537.181C832.553 534.516 829.015 531.889 825.487 529.263C820.93 525.882 816.599 533.497 821.048 536.858C836.375 548.432 851.751 560.221 864.619 574.578C876.183 587.485 888.423 605.938 880.71 623.843C876.202 634.299 866.667 643.335 858.67 651.155C849.614 659.959 839.836 667.988 829.437 675.156C808.259 689.856 785.199 701.694 761.875 712.601C751.095 717.619 739.816 724.44 728.026 726.459C715.61 728.575 702.615 725.831 690.786 721.99C668.344 714.679 645.706 702.458 629.438 685.093C588.072 640.807 616.835 580.233 645.001 537.456C678.334 486.969 720.511 442.917 769.5 407.42C773.096 404.813 769.706 398.786 765.962 401.373Z" fill="var(--color-illustration-primary, #382C80)"/>
<path d="M869.607 368.543C890.736 379.735 897.194 406.538 896.351 430.998C895.509 455.459 884.16 478.156 871.42 498.726C839.57 549.98 797.391 593.531 765.08 644.413C731.202 697.764 708.897 757.926 686.857 817.52C673.686 853.143 664.964 877.428 623.029 879.378C607.271 880.113 591.611 876.585 576.46 872.038C568.512 869.656 560.574 866.961 553.371 862.737C538.25 853.917 518.297 834.896 520.943 815.354C523.765 794.451 542.287 768.187 551.47 749.371C574.264 702.626 599.656 657.194 627.528 613.288C655.644 569.002 683.388 528.224 730.967 477.686" fill="var(--color-illustration-base, #FFFFFF)"/>
<path d="M867.784 371.62C881.759 379.548 888.364 394.484 890.942 409.762C893.94 427.706 891.49 445.826 885.062 462.75C878.055 481.174 867.039 498.03 855.946 514.249C844.666 530.713 832.485 546.54 820.176 562.269C795.676 593.492 770.872 624.519 750.949 658.937C730.653 693.991 714.689 731.368 700.087 769.089C693.06 787.209 686.367 805.476 679.565 823.675C675.195 835.297 670.667 847.655 662.69 857.367C641.257 883.455 601.205 875.007 573.51 866.118C557.036 860.836 541.356 851.242 531.693 836.503C527.273 829.77 524.559 822.234 526.058 814.149C527.558 806.064 530.87 798.351 534.486 791.011C542.14 775.468 551.303 760.739 558.986 745.206C568.329 726.331 578.096 707.672 588.288 689.228C624.166 624.313 664.307 560.613 713.277 504.704C720.226 496.776 727.331 489.024 734.494 481.253C738.836 476.559 731.897 469.552 727.458 474.207C672.803 531.478 628.89 597.873 589.768 666.434C578.714 685.798 568.133 705.421 558.026 725.302C549.392 742.266 540.592 758.995 531.487 775.704C523.892 789.629 513.955 806.985 516.229 823.459C518.551 840.354 532.124 854.113 545.521 863.463C561.769 874.801 583.359 880.299 602.753 883.063C619.109 885.385 636.788 884.876 651.988 877.731C678.056 865.491 686.024 833.367 695.108 808.69C709.926 768.589 725.086 728.507 744.373 690.306C763.659 652.106 788.14 617.59 814.462 583.918C839.942 551.352 867.382 518.797 886.12 481.723C895.038 464.083 900.977 445.336 900.614 425.432C900.32 409.752 897.194 392.974 887.874 379.98C883.583 373.927 877.952 368.947 871.42 365.427C867.333 363.241 863.727 369.347 867.774 371.65L867.784 371.62Z" fill="var(--color-illustration-primary, #382C80)"/>
<path d="M672.48 285.468C671.608 335.693 696.284 389.27 715.923 434.898C716.982 437.348 718.128 439.906 720.265 441.494C722.793 443.375 726.145 443.542 729.31 443.562C773.714 443.895 815.305 430.028 854.162 409.409C866.569 402.823 879.917 394.032 886.081 380.891C890.001 372.639 889.266 367.876 884.924 360.311C880.132 351.902 874.772 343.837 869.489 335.732C849.38 304.941 835.464 287.712 815.237 250.021" fill="var(--color-illustration-base, #FFFFFF)"/>
<path d="M669.177 285.468C667.051 320.935 678.821 356.205 691.6 388.77C697.999 405.058 704.859 421.198 711.905 437.221C715.188 444.689 720.284 447.933 728.467 448.227C737.521 448.458 746.579 448.006 755.564 446.874C791.05 442.709 825.144 430.342 856.504 413.486C869.695 406.4 883.435 397.208 890.05 383.243C893.245 376.491 894.244 369.768 891.285 362.751C887.815 354.49 882.298 346.885 877.427 339.408C857.651 309.028 836.199 279.735 818.98 247.748C816.295 242.77 808.71 247.199 811.385 252.188C825.105 277.668 840.913 301.491 857.083 325.492C861.571 332.156 865.991 338.888 870.371 345.631C874.752 352.373 880.348 359.507 883.111 367.102C888.011 380.685 870.587 394.062 860.826 400.168C833.788 417.073 801.928 429.038 770.666 435.016C762.248 436.638 753.739 437.744 745.186 438.329C741.377 438.584 737.565 438.753 733.75 438.838C729.781 438.917 724.283 439.818 721.676 436.192C719.843 433.625 718.854 430.165 717.599 427.284C715.923 423.433 714.238 419.581 712.572 415.73C709.279 408.145 706.025 400.56 702.899 392.916C688.826 358.547 677.106 322.875 675.753 285.468C675.606 281.254 669.481 281.294 669.236 285.468H669.177Z" fill="var(--color-illustration-primary, #382C80)"/>
<path d="M500.167 896.606C501.393 902.214 500.856 908.064 498.628 913.354C497.207 916.481 498.902 919.715 502.421 919.969C511.035 920.587 519.561 923.341 527.979 925.193C536.397 927.045 544.639 928.74 552.949 930.328C569.737 933.523 586.603 936.208 603.537 938.413C609.133 939.148 609.074 930.357 603.537 929.593C586.145 927.3 568.832 924.471 551.597 921.106C543.26 919.492 534.944 917.748 526.646 915.873C518.63 914.06 510.672 911.737 502.44 911.149L506.674 916.716C508.026 909.268 508.212 902.261 506.341 894.881C505.361 890.863 499.402 892.578 500.186 896.577L500.167 896.606Z" fill="var(--color-illustration-primary, #382C80)"/>
<path d="M521.893 862.433C525.412 864.805 526.166 868.509 527.499 872.233C528.038 873.998 529.775 875.114 531.604 874.871C533.433 874.628 534.819 873.098 534.878 871.253C535.143 865.099 530.125 859.797 525.078 856.975C521.492 855.015 518.542 860.179 521.893 862.433Z" fill="var(--color-illustration-primary, #382C80)"/>
<path d="M508.703 866.805C510.019 868.539 510.863 870.585 511.153 872.743C511.515 874.782 513.995 875.928 515.857 875.419C517.719 874.909 519.257 872.655 518.532 870.705C517.336 867.575 515.549 864.704 513.269 862.248C512.011 860.986 509.969 860.984 508.708 862.243C507.446 863.501 507.444 865.543 508.703 866.805Z" fill="var(--color-illustration-primary, #382C80)"/>
<path d="M498.217 869.715C499.03 872.057 499.559 874.674 501.029 876.692C501.772 877.882 503.195 878.459 504.557 878.123C505.906 877.743 506.842 876.516 506.85 875.115C506.833 874.35 506.741 873.588 506.576 872.841C506.343 872.172 506.072 871.518 505.763 870.881C505.351 869.901 504.959 868.921 504.567 867.941C504.042 866.222 502.266 865.211 500.52 865.638C498.773 866.129 497.746 867.933 498.217 869.685V869.715Z" fill="var(--color-illustration-primary, #382C80)"/>
<path d="M584.564 909.405C580.086 910.228 576.656 900.085 580.027 898.547C583.947 896.753 588.719 901.487 589.317 904.917C590.15 909.738 597.304 907.641 596.599 902.957C595.207 893.666 580.595 885.993 573.373 893.98C569.756 897.988 571.413 905.171 573.696 909.523C576.107 914.099 581.075 916.902 586.211 915.403C590.131 914.295 588.445 908.69 584.564 909.405Z" fill="var(--color-illustration-primary, #382C80)"/>
<path d="M905.014 564.749C903.466 570.972 902.976 578.302 909.473 581.919C914.373 584.633 918.548 577.411 913.834 574.451C911.531 573.001 912.119 569.022 912.433 566.787C912.717 564.739 911.933 562.662 909.748 562.064C907.705 561.539 905.613 562.726 905.014 564.749Z" fill="var(--color-illustration-primary, #382C80)"/>
<path d="M917.911 565.346C916.931 570.57 918.715 576.371 924.066 578.263C926.78 579.243 929.71 575.607 927.986 573.196C926.408 571.021 924.634 569.119 924.781 566.268C924.997 562.348 918.676 561.456 917.921 565.346H917.911Z" fill="var(--color-illustration-primary, #382C80)"/>
<path d="M933.435 566.719C932.087 570.56 933.281 574.833 936.424 577.42C938.384 578.959 941.039 579.184 942.725 576.999C943.455 576.041 943.745 574.818 943.52 573.635C943.296 572.452 942.579 571.419 941.549 570.795C942.392 571.374 940.873 569.894 941.441 570.717C941.343 570.58 940.804 569.531 940.941 569.864C941.177 570.433 940.657 568.541 940.804 569.6C940.804 569.374 940.922 568.071 940.804 568.747C941.203 567.422 940.852 565.985 939.887 564.993C938.923 564 937.496 563.609 936.16 563.969C934.824 564.33 933.789 565.386 933.454 566.728L933.435 566.719Z" fill="var(--color-illustration-primary, #382C80)"/>
<path d="M930.328 557.644C933.454 551.117 937.551 544.051 943.401 539.602C945.145 538.503 945.74 536.242 944.763 534.427C934.346 514.974 910.228 502.95 890.491 495.306C886.179 493.63 883.396 500.539 887.375 502.705C896.724 507.82 906.494 512.034 915.501 517.777C924.507 523.52 931.935 530.733 938.825 539.014V533.663C933.484 540.347 928.299 546.491 924.664 554.331C922.909 558.124 928.495 561.466 930.328 557.644Z" fill="var(--color-illustration-primary, #382C80)"/>
<path d="M872.763 513.015C877.751 514.171 873.439 521.335 870.656 522.501C865.011 524.863 868.235 532.84 873.948 530.341C883.347 526.186 886.414 508.193 873.605 506.821C870.019 506.419 869.293 512.289 872.763 513.093V513.015Z" fill="var(--color-illustration-primary, #382C80)"/>
<path d="M754.8 509.428C708.324 577.674 669.001 650.526 637.455 726.831C628.508 748.469 620.021 770.343 612.749 792.609C611.113 797.636 618.835 799.635 620.589 794.774C634.633 756.035 649.323 717.648 666.551 680.193C683.662 643.038 702.582 606.755 723.313 571.344C734.975 551.378 747.218 531.778 760.043 512.544C762.219 509.271 756.976 506.272 754.79 509.477L754.8 509.428Z" fill="var(--color-illustration-primary, #382C80)"/>
<path d="M603.233 835.053C608.496 835.053 608.496 826.879 603.233 826.879C597.97 826.879 597.97 835.053 603.233 835.053Z" fill="var(--color-illustration-primary, #382C80)"/>
<path d="M763.1 658.927C782.824 653.212 800.997 643.103 816.256 629.36C819.813 626.165 814.56 620.942 811.013 624.117C796.676 636.984 779.662 646.51 761.199 652.008C756.779 653.321 758.651 660.22 763.1 658.927Z" fill="var(--color-illustration-primary, #382C80)"/>
<path d="M732.329 408.723C739.189 420.406 748.826 430.215 760.386 437.28C768.148 442.014 777.546 445.493 786.238 442.837C794.931 440.181 800.86 431.988 804.251 423.56C810.533 407.88 810.356 390.064 805.152 374.041C799.949 358.018 789.953 343.779 777.644 332.273" fill="var(--color-illustration-primary, #382C80)"/>
<path d="M729.614 410.31C736.474 421.894 744.961 432.292 756.074 440.004C766.913 447.501 781.025 452.47 793.314 445.306C804.957 438.525 810.846 424.275 812.914 411.565C815.302 396.915 813.69 381.892 808.249 368.082C802.432 352.998 793.047 339.548 780.898 328.882C776.301 324.962 769.892 331.136 774.175 335.605C784.533 346.385 793.932 358.027 799.135 372.267C804.692 387.516 805.456 404.303 799.998 419.689C797.803 425.892 794.314 432.341 788.659 436.026C782.27 440.181 774.479 438.73 767.864 435.928C754.214 429.904 742.726 419.86 734.936 407.135C732.848 403.676 727.448 406.812 729.506 410.301L729.614 410.31Z" fill="var(--color-illustration-primary, #382C80)"/>
<path d="M835.728 606.144C840.628 606.144 840.628 598.559 835.728 598.559C830.828 598.559 830.828 606.144 835.728 606.144Z" fill="var(--color-illustration-primary, #382C80)"/>
<path d="M662.171 898.929C665.248 896.618 668.897 895.188 672.725 894.793L671 893.813C673.023 897.886 673.134 902.646 671.304 906.808C670.52 908.641 671.814 910.875 673.989 910.307C681.624 908.347 690.101 910.562 694.824 917.167C696.993 920.264 698.203 923.932 698.303 927.712C698.303 929.24 697.166 939.795 693.727 937.237C691.473 935.561 688.542 939.334 690.708 941.157C694.863 944.617 699.695 941.628 701.763 937.237C704.203 932.073 703.938 925.477 702.037 920.146C697.764 908.278 684.691 902.124 672.725 905.691L675.665 908.631C677.792 903.114 677.343 896.936 674.44 891.785C673.965 891.019 673.051 890.647 672.176 890.864C667.704 891.469 663.475 893.259 659.926 896.048C658.29 897.322 660.446 900.134 662.151 898.929H662.171Z" fill="var(--color-illustration-primary, #382C80)"/>
<path d="M626.224 165.82C633.084 164.173 641.336 162.488 644.089 156.255C645.824 152.335 645.226 147.915 643.58 143.976C640.943 137.713 635.122 137.057 628.243 136.469C618.874 135.672 609.518 134.777 600.176 133.784C581.34 131.824 562.553 129.511 543.786 127.1C506.654 122.376 469.62 117.114 432.38 112.772C386.193 107.373 340.358 99.2974 294.857 89.6738C271.111 84.6562 247.503 79.0898 223.885 73.543C206.931 69.5544 185.116 72.563 171.455 59.7446C168.985 57.422 166.957 54.678 164.536 52.326C143.309 31.746 115.536 52.1398 106.863 73.9742C88.3144 120.464 84.8316 171.605 96.9063 220.18C100.464 234.4 107.618 250.453 124.062 254.765C145.818 260.458 164.183 243.073 183.244 237.664C210.145 230.029 242.044 229.167 270.072 224.61L459.212 193.848C514.426 184.861 571.952 178.942 626.224 165.82Z" fill="var(--color-illustration-secondary, #7F72FF)"/>
<path d="M627.175 169.319C634.603 167.574 643.57 165.673 647.314 158.186C650.822 151.169 648.578 140.487 641.943 136.018C634.73 131.118 623.392 132.03 615.14 131.207C603.243 130.021 591.356 128.688 579.478 127.287C530.703 121.554 482.125 114.233 433.36 108.422C385.026 102.669 337.075 94.1919 289.506 83.9215C277.648 81.3539 265.819 78.6916 254.02 75.9345C242.877 73.3571 231.715 70.1133 220.435 68.2415C211.243 66.7225 201.815 66.5853 192.711 64.7233C188.502 63.9741 184.424 62.6139 180.608 60.6857C175.767 58.0887 172.69 54.1981 168.956 50.3075C156.402 37.2539 138.38 36.2445 123.572 46.2601C107.314 57.3145 100.797 74.9545 95.407 93.0649C82.9218 135.019 81.3734 181.5 93.0844 223.787C97.3572 239.271 106.246 254.883 122.837 259.234C141.8 264.212 158.48 253.217 174.993 245.71C194.201 236.998 216.907 235.645 237.605 233.372C260.557 230.853 283.263 227.168 306.048 223.464L452.715 199.601C499.451 192.006 546.55 186.508 593.1 177.58C604.605 175.378 616.058 172.912 627.459 170.181C633.084 168.829 630.703 160.166 625.068 161.508C581.82 171.808 537.701 177.492 493.748 183.882C448.256 190.506 402.98 198.288 357.606 205.667L288.124 216.966C266.946 220.406 245.788 222.974 224.502 225.522C205.677 227.786 186.282 230.177 168.985 238.262C153.864 245.337 135.665 257.323 118.927 247.65C104.364 239.32 100.934 219.25 98.2 204.207C94.4362 183.44 93.5066 162.258 95.4364 141.242C97.4228 119.77 102.325 98.6695 110.009 78.5217C115.438 64.2137 128.178 48.2495 145.005 48.3181C154.57 48.3181 160.401 54.6685 166.486 61.1365C172.366 67.3497 179.981 71.0737 188.223 73.0141C196.465 74.9545 204.716 75.3465 212.978 76.2971C223.209 77.4633 233.215 80.3739 243.22 82.7063C287.624 93.0453 332.244 102.444 377.284 109.607C422.325 116.771 467.846 121.485 513.103 127.434C535.848 130.423 558.594 133.372 581.389 135.96C592.326 137.194 603.272 138.321 614.229 139.341C619.364 139.811 624.499 140.203 629.634 140.664C633.839 141.036 638.082 141.438 640.071 145.652C645.461 157.128 633.77 160.303 625.293 162.38C620.775 163.498 622.676 170.367 627.175 169.319Z" fill="var(--color-illustration-secondary, #7F72FF)"/>
<path d="M720.323 209.459C745.705 200.375 762.875 198.748 786.405 214.722C804.451 227.173 817.942 245.171 824.831 265.986C836.208 300.384 830.181 338.741 815.187 371.728C800.595 403.842 777.085 432.595 746.078 449.402C704.389 472.011 651.812 470.737 609.044 450.245C561.652 427.529 529.4 381.831 508.614 334.948C499.607 314.51 492.393 293.328 487.054 271.64C481.036 247.83 476.522 223.664 473.54 199.287C470.982 177.541 466.886 155.138 454.351 137.184C449.912 130.814 439.142 119.917 446.56 112.184C450.226 108.362 456.223 107.598 461.349 108.921C466.474 110.244 470.943 113.311 475.294 116.33C476.842 110.264 484.045 106.873 490.19 108.039C496.335 109.205 501.313 113.919 504.586 119.24C507.43 113.671 513.422 110.441 519.638 111.124C525.853 111.808 530.999 116.263 532.565 122.318C537.923 114.978 546.714 110.953 555.772 111.694C564.783 112.607 572.834 117.723 577.488 125.493C581.408 132.02 583.368 140.595 590.13 144.015C592.394 145.152 594.942 145.544 597.343 146.347C610.142 150.63 610.916 162.605 614.493 173.552C624.293 203.53 631.653 234.312 642.59 263.918C654.203 295.376 672.392 323.149 688.307 352.5C708.488 319.833 728.663 287.167 748.832 254.5" fill="var(--color-illustration-base, #FFFFFF)"/>
<path d="M721.157 212.478C733.769 208.029 747.166 204.177 760.602 206.892C774.508 209.704 787.062 218.221 797.048 228.05C818.5 249.198 827.879 278.687 826.859 308.41C824.968 364.123 790.746 422.492 740.384 447.678C688.444 473.648 623.196 462.123 579.174 425.824C534.721 389.152 508.369 333.135 493.669 278.51C489.357 262.448 485.829 246.17 482.84 229.785C480.018 214.105 478.567 198.219 475.912 182.5C473.53 168.388 469.718 154.325 462.75 141.732C459.761 136.332 455.89 131.755 452.421 126.669C449.265 121.965 446.071 115.272 453.95 113.37C460.878 111.695 467.542 116.761 472.883 120.446C475.529 122.269 478.979 120.319 479.861 117.604C481.164 113.596 485.741 112.038 489.602 112.802C494.375 113.782 497.952 117.761 500.461 121.622C501.331 123.058 502.888 123.934 504.567 123.934C506.246 123.934 507.803 123.058 508.673 121.622C513.397 113.419 525.068 114.35 527.959 123.582C529.273 127.786 534.251 127.933 536.652 124.719C542.55 117.137 552.752 114.372 561.671 117.937C570.874 121.612 574.01 129.609 578.273 137.723C579.879 141.046 582.178 143.986 585.015 146.347C588.572 149.131 592.747 149.591 596.775 151.247C604.331 154.315 606.212 162.174 608.212 169.299C613.994 189.948 620.501 210.459 626.675 231.039C632.908 251.786 639.846 272.199 649.362 291.73C659.916 313.29 672.656 333.792 684.171 354.891C685.906 358.086 690.522 357.831 692.325 354.891C712.464 322.199 732.603 289.516 752.438 256.637C755.27 251.942 748.018 247.758 745.118 252.354C724.596 284.821 704.389 317.475 684.171 350.119H692.325C681.3 329.764 669.168 310.017 658.848 289.3C648.009 267.534 640.63 244.514 633.77 221.249C630.379 209.753 627.106 198.219 623.617 186.743C620.775 177.374 618.345 167.594 614.876 158.431C611.877 150.503 606.771 144.564 598.588 141.771C593.962 140.183 590.581 139.634 587.808 135.283C585.358 131.432 583.888 127.012 581.565 123.102C569.805 103.502 542.189 101.542 528.42 119.936L537.113 121.073C531.821 104.149 509.388 101.316 500.441 116.859H508.653C504.087 109.784 497.148 103.404 488.279 103.139C480.379 102.724 473.169 107.619 470.639 115.115L477.617 112.273C471.57 108.098 465.22 104.119 457.684 103.668C451.02 103.267 443.807 106.197 440.651 112.351C434.663 124.033 447.884 135.381 453.274 144.446C461.633 158.499 465.279 174.767 467.611 190.781C470.179 208.421 472.295 225.992 475.823 243.465C488.563 306.44 511.535 370.973 557.163 417.905C577.9 439.211 603.312 455.479 631.957 463.789C662.063 472.521 695.059 472.834 724.949 463.015C783.132 443.915 824.076 385.683 832.749 326.354C837.287 295.317 832.553 262.458 813.767 236.664C797.107 213.84 770.647 195.504 741.374 200.336C733.925 201.733 726.613 203.78 719.52 206.451C715.767 207.784 717.374 213.82 721.186 212.478H721.157Z" fill="var(--color-illustration-primary, #382C80)"/>
<path d="M720.323 209.459C745.705 200.375 762.875 198.748 786.405 214.722C838.913 250.364 846.636 327.245 821.097 381.038C815.687 392.425 813.531 401.843 811.65 414.093C810.209 423.462 806.808 435.094 796.656 438.26C802.173 418.532 797.43 396.737 786.366 379.509C775.301 362.28 758.367 349.335 739.855 340.564C725.86 333.929 708.701 329.715 695.373 337.624C693.099 328.755 695.843 319.092 701.556 312.095C707.044 305.372 716.002 304.666 720.98 298.237C731.495 284.674 739.796 269.112 748.812 254.51" fill="var(--color-illustration-base, #FFFFFF)"/>
<path d="M721.156 212.478C731.633 208.803 742.854 205.687 754.065 206.265C765.443 206.853 775.831 211.959 785.043 218.368C800.576 229.148 812.483 244.583 820.029 261.841C834.944 295.749 834.033 336.321 820.675 370.621C816.226 381.998 811.013 392.435 808.612 404.558C806.71 414.113 806.505 429.813 795.401 433.733L801.213 439.544C809.268 409.399 796.313 378.206 774.018 357.655C763.069 347.636 750.43 339.636 736.689 334.027C722.675 328.294 706.731 325.854 692.962 333.498L699.988 336.36C698.205 328.451 700.655 318.926 706.848 313.457C711.866 309.057 718.775 307.577 723.43 302.618C729.173 296.464 733.651 288.565 738.042 281.421C743.04 273.287 747.636 264.918 752.438 256.656C755.202 251.913 748.077 247.836 745.117 252.374C739.58 260.9 734.435 269.641 729.026 278.236C724.253 285.831 719.481 295.317 711.386 299.727C704.418 303.51 698.479 306.901 694.432 314.055C690.127 321.579 688.811 330.448 690.747 338.898C691.443 341.985 695.186 343.19 697.774 341.76C709.749 335.096 724.165 338.731 735.994 344.033C747.93 349.313 758.897 356.554 768.441 365.456C787.689 383.694 799.047 410.605 792.099 436.996C791.246 440.259 794.411 444.052 797.91 442.798C807.975 439.201 812.992 430.136 815.246 420.15C818.098 407.488 819.578 395.287 825.046 383.341C833.642 364.711 838.531 344.587 839.442 324.09C841.177 283.381 826.84 240.663 793.667 215.31C783.249 207.343 771.313 200.904 758.112 199.434C744.716 197.935 731.936 202.002 719.481 206.451C715.727 207.794 717.334 213.811 721.147 212.478H721.156Z" fill="var(--color-illustration-primary, #382C80)"/>
<path d="M111.293 49.2001C89.8307 83.5001 80.5599 124.66 82.3337 164.928C83.1688 184.935 86.7973 204.727 93.1137 223.728C96.1298 233.03 99.9227 242.061 104.452 250.727C108.852 258.94 115.232 266.829 124.699 269.239C135.626 272.032 143.152 266.819 149.199 258.283C150.61 256.323 151.865 254.275 154.383 253.746C156.294 253.344 158.421 253.746 160.361 253.677C165.085 253.501 168.819 252.119 171.514 248.091C174.718 243.309 167.055 237.223 163.429 241.858C161.792 243.946 157.784 242.838 155.373 242.917C151.488 242.955 147.737 244.341 144.76 246.837C139.193 251.639 137.312 260.655 128.276 258.949C119.672 257.332 115.134 248.307 111.685 241.162C107.712 232.891 104.326 224.35 101.551 215.604C90.8167 181.522 88.9615 145.264 96.1615 110.264C100.373 90.12 107.248 70.6264 116.604 52.2969C118.388 48.7885 113.409 45.8289 111.293 49.2001Z" fill="var(--color-illustration-primary, #382C80)"/>
<path d="M154.129 225.933C148.249 220.925 146.74 210.253 144.927 203.119C142.535 193.853 140.813 184.427 139.772 174.914C137.845 156.389 138.465 137.686 141.614 119.329C142.535 113.88 134.254 111.489 133.235 117.016C129.456 137.603 128.949 158.658 131.736 179.403C133.031 189.35 135.105 199.18 137.939 208.803C140.37 216.966 142.673 226.237 149.787 231.578C153.021 234.008 157.235 228.569 154.129 225.943V225.933Z" fill="var(--color-illustration-primary, #382C80)"/>
<path d="M139.458 93.2118C144.358 93.2118 144.358 85.5874 139.458 85.5874C134.558 85.5874 134.558 93.2118 139.458 93.2118Z" fill="var(--color-illustration-primary, #382C80)"/>
<path d="M669.236 102.659C664.368 101.518 659.277 101.755 654.536 103.345C650.433 104.575 646.876 107.176 644.462 110.715C642.218 114.312 641.767 119.182 644.001 122.789C645.226 124.615 646.864 126.126 648.784 127.199C654.789 130.74 661.929 131.828 668.717 130.237C675.478 128.592 681.47 124.676 685.69 119.143" fill="var(--color-illustration-primary, #382C80)"/>
<path d="M670.265 98.9156C661.445 97.0144 651.224 98.2296 644.266 104.57C638.092 110.195 635.897 120.25 641.669 126.963C647.441 133.676 657.721 136.244 666.218 135.283C675.861 134.196 683.76 129.002 689.503 121.367C692.443 117.447 685.867 112.283 682.643 116.036C675.038 124.797 662.68 129.756 651.763 123.768C646.206 120.721 645.422 114.821 650.185 110.44C654.948 106.06 662.21 105.256 668.246 106.393C673.146 107.314 675.224 99.974 670.304 98.9156H670.265Z" fill="var(--color-illustration-primary, #382C80)"/>
<path d="M735.2 135.793C735.567 146.382 735.118 156.985 733.857 167.505C732.779 176.325 731.897 184.42 734.279 193.113C735.113 196.022 736.094 198.888 737.219 201.698C738.405 204.775 740.943 208.411 739.757 211.743C738.405 215.584 734.357 219.583 731.809 222.738C728.791 226.43 725.548 229.932 722.097 233.224C719.545 235.826 716.61 238.024 713.395 239.741C710.146 241.464 706.384 241.955 702.801 241.123C696.647 239.437 692.893 233.009 691.757 226.737C690.62 220.465 691.423 213.997 690.933 207.636C690.845 204.736 690.069 201.898 688.67 199.355C685.436 194.122 677.762 194.093 672.647 191.643C666.943 188.923 662.091 184.698 658.613 179.422C651.018 167.741 650.499 152.394 654.928 139.242C656.77 133.858 659.278 128.725 662.396 123.964C672.662 107.837 691.941 99.8829 710.592 104.08C723.068 106.941 734.543 115.252 735.2 135.793Z" fill="var(--color-illustration-base, #FFFFFF)"/>
<path d="M731.692 135.793C731.692 149.592 729.604 163.027 728.615 176.728C728.115 182.603 728.592 188.521 730.026 194.24C731.31 199.14 736.7 207.382 734.602 212.018C733.436 214.585 730.82 216.81 728.997 218.936C726.9 221.367 724.812 223.836 722.568 226.1C718.648 230.157 713.66 235.851 707.672 236.674C693.844 238.556 696.196 217.329 695.814 209.332C695.579 204.315 694.834 198.827 691.365 194.917C688.278 191.487 683.907 190.095 679.605 188.86C668.825 185.763 661.22 177.757 658.29 166.898C652.547 145.623 664.738 119.123 685.299 110.666C694.883 106.746 706.525 106.403 716.012 110.862C726.008 115.556 729.967 125.17 730.496 135.754C730.8 141.752 740.12 141.801 739.865 135.754C739.404 124.7 736.092 113.743 727.184 106.589C718.903 99.9741 707.466 97.3771 696.98 98.2003C670.001 100.366 650.714 123.778 647.627 149.778C646.089 162.782 649.215 176.591 657.976 186.577C662.162 191.359 667.488 195.006 673.46 197.18C679.497 199.297 684.975 199.278 685.955 206.833C687.611 219.573 683.995 234.411 696.186 243.093C708.691 252.051 722.088 240.428 730.33 231.333C734.945 226.267 741.453 220.073 743.726 213.488C746.186 206.363 740.306 198.621 738.483 191.859C735.965 182.52 737.503 173.151 738.385 163.713C739.182 154.401 739.274 145.041 738.66 135.715C738.434 131.324 731.702 131.246 731.692 135.793Z" fill="var(--color-illustration-primary, #382C80)"/>
<path d="M731.692 135.793C731.692 149.592 729.604 163.027 728.615 176.728C728.115 182.603 728.592 188.521 730.026 194.24C731.31 199.14 736.7 207.382 734.602 212.018C733.436 214.585 730.82 216.81 728.997 218.936C726.9 221.367 724.812 223.836 722.568 226.1C718.648 230.157 713.66 235.851 707.672 236.674C693.844 238.556 696.196 217.329 695.814 209.332C695.579 204.315 694.834 198.827 691.365 194.917C688.278 191.487 683.907 190.095 679.605 188.86C668.825 185.763 661.22 177.757 658.29 166.898C652.547 145.623 664.738 119.123 685.299 110.666C694.883 106.746 706.525 106.403 716.012 110.862C726.008 115.556 729.967 125.17 730.496 135.754C730.8 141.752 740.12 141.801 739.865 135.754C739.404 124.7 736.092 113.743 727.184 106.589C718.903 99.9741 707.466 97.3771 696.98 98.2003C670.001 100.366 650.714 123.778 647.627 149.778C646.089 162.782 649.215 176.591 657.976 186.577C662.162 191.359 667.488 195.006 673.46 197.18C679.497 199.297 684.975 199.278 685.955 206.833C687.611 219.573 683.995 234.411 696.186 243.093C708.691 252.051 722.088 240.428 730.33 231.333C734.945 226.267 741.453 220.073 743.726 213.488C746.186 206.363 740.306 198.621 738.483 191.859C735.965 182.52 737.503 173.151 738.385 163.713C739.182 154.401 739.274 145.041 738.66 135.715C738.434 131.324 731.702 131.246 731.692 135.793Z" fill="var(--color-illustration-primary, #382C80)"/>
<path d="M661.7 142.918C666.884 142.82 670.579 145.858 667.58 151.15C666.345 153.345 664.081 155.168 663.229 157.559C661.543 162.283 666.541 164.007 670.226 164.909C671.423 165.165 672.612 164.445 672.939 163.266C673.266 162.087 672.618 160.857 671.461 160.46C668.942 159.627 667.394 159.882 668.805 157.304C669.667 155.736 670.853 154.364 671.618 152.737C672.675 150.69 673.068 148.365 672.745 146.083C671.765 140.546 666.629 139.282 661.7 139.605C659.593 139.743 659.554 142.957 661.7 142.918Z" fill="var(--color-illustration-primary, #382C80)"/>
<path d="M683.554 147.357C682.831 147.539 682.229 148.04 681.919 148.718C681.608 149.397 681.622 150.179 681.957 150.846C682.302 151.446 682.905 151.853 683.591 151.949C684.277 152.045 684.969 151.818 685.465 151.336C686.399 150.528 686.808 149.268 686.527 148.066C686.245 146.863 685.319 145.916 684.124 145.607C682.928 145.298 681.659 145.677 680.83 146.593C679.912 147.682 679.657 149.182 680.163 150.513C680.66 152.071 682.105 153.132 683.74 153.139C685.313 152.954 686.62 151.84 687.053 150.317C687.66 148.661 685.602 147.377 684.23 148.151C683.976 148.288 683.721 148.425 683.476 148.572C683.314 148.651 683.166 148.753 683.035 148.876C682.819 148.994 682.956 148.984 683.427 148.876C683.897 148.768 684.044 148.876 683.789 148.778C683.535 148.68 683.878 148.876 683.946 148.955C684.015 149.033 684.113 149.229 684.123 149.102C684.105 148.993 684.072 148.887 684.025 148.788C684.025 148.788 683.956 149.102 683.946 149.121C683.833 149.293 683.635 149.388 683.43 149.37C683.225 149.352 683.047 149.222 682.966 149.033C682.952 148.893 682.952 148.752 682.966 148.612C682.966 148.661 682.819 148.984 682.966 148.768C683.113 148.553 682.898 148.837 682.888 148.876C682.829 148.955 682.878 148.915 682.888 148.876C683.28 148.259 683.985 148.278 684.985 148.925L685.23 149.817C684.858 150.434 684.818 150.601 685.103 150.297L685.475 149.817C685.816 149.234 685.762 148.501 685.338 147.975C684.928 147.445 684.242 147.21 683.593 147.377L683.554 147.357Z" fill="var(--color-illustration-primary, #382C80)"/>
<path d="M657.917 147.357C657.194 147.538 656.592 148.039 656.283 148.719C655.974 149.398 655.991 150.181 656.33 150.846C656.673 151.445 657.275 151.852 657.959 151.948C658.643 152.044 659.334 151.818 659.828 151.336C660.785 150.535 661.212 149.266 660.935 148.05C660.658 146.834 659.724 145.876 658.515 145.568C657.306 145.261 656.027 145.656 655.203 146.592C654.282 147.679 654.023 149.18 654.527 150.512C655.024 152.071 656.468 153.131 658.104 153.139C659.68 152.957 660.992 151.843 661.426 150.316C662.024 148.66 659.975 147.376 658.594 148.151L657.849 148.572C657.684 148.65 657.532 148.753 657.398 148.876C657.192 148.993 657.32 148.984 657.8 148.876C658.28 148.768 658.417 148.876 658.162 148.778C657.908 148.68 658.241 148.876 658.319 148.954C658.398 149.033 658.486 149.229 658.486 149.101C658.473 148.992 658.439 148.885 658.388 148.788C658.388 148.788 658.329 149.101 658.319 149.121C658.206 149.292 658.008 149.388 657.803 149.37C657.598 149.351 657.42 149.222 657.339 149.033C657.32 148.893 657.32 148.751 657.339 148.611C657.339 148.66 657.182 148.984 657.339 148.768C657.496 148.552 657.271 148.837 657.261 148.876C657.251 148.915 657.261 148.954 657.261 148.876C657.653 148.258 658.349 148.278 659.358 148.925L659.603 149.817C659.231 150.434 659.182 150.601 659.466 150.297C659.593 150.14 659.721 149.983 659.838 149.817C660.177 149.234 660.126 148.504 659.711 147.974C659.298 147.443 658.608 147.208 657.957 147.376L657.917 147.357Z" fill="var(--color-illustration-primary, #382C80)"/>
<path d="M727.713 177.051C726.963 172.605 726.71 168.088 726.958 163.586C727.33 156.991 733.338 146.759 725.272 142.594C722.401 141.105 718.726 141.948 716.207 143.976C713.689 146.005 709.455 151.552 709.455 155.06C708.073 151.136 707.848 146.897 708.808 142.849C710.406 136.185 713.081 134.49 707.77 129.482C704.653 126.542 699.93 125.699 695.784 125.562C687.356 125.248 679.212 129.002 670.882 129.825C656.712 131.217 629.967 131.785 626.655 113.537C625.675 107.912 627.566 101.67 632.065 98.1416C636.563 94.6136 643.57 94.3882 647.892 98.1416C649.166 99.249 650.469 100.748 652.155 100.572C658.946 99.837 667.629 82.0696 674.695 78.6592C684.191 74.0826 697.166 76.6992 703.477 85.3232C701.997 83.3044 726.468 83.03 728.957 83.8924C735.277 86.2623 741.039 89.9123 745.882 94.6136C755.682 103.747 763.522 117.154 777.408 120.544C785.876 122.612 794.754 120.143 802.967 117.222C818.431 111.734 833.347 104.6 848.88 99.445C864.413 94.2902 881.141 91.1542 897.311 93.9962C903.828 95.1428 910.345 97.3576 915.334 101.699C925.751 110.784 926.28 128.933 916.402 138.596C909.934 144.917 900.722 147.259 892.509 151.101C881.965 156.06 876.986 162.861 876.898 174.052C876.79 187.704 873.429 198.611 863.825 208.872C842.794 231.333 808.131 236.694 778.202 229.56C758.602 224.895 741.942 212.733 733.122 194.28C730.52 188.819 728.699 183.019 727.713 177.051Z" fill="var(--color-illustration-primary, #382C80)"/>
<path d="M731.368 177.051C730.388 169.299 731.143 163.106 732.868 155.658C734.024 150.601 734.269 144.927 730.31 140.958C720.206 130.913 706.133 144.26 704.977 155.04L713.797 153.855C712.366 149.092 712.817 145.035 714.355 140.38C715.228 137.714 715.982 135.097 715.198 132.295C713.238 125.17 705.29 121.76 698.607 121.015C689.365 119.976 680.967 123.602 671.931 124.866C666.192 125.625 660.393 125.832 654.615 125.484C644.511 124.935 626.743 120.525 631.908 106.295C633.132 102.494 636.738 99.974 640.728 100.131C644.53 100.376 646.285 103.914 649.734 104.923C655.614 106.658 660.691 101.15 664.052 97.1616C667.903 92.5752 671.588 85.4016 677.106 82.6478C685.004 78.669 695.01 81.9324 700.263 88.5278C703.056 92.0558 709.71 88.2338 707.985 84.0394L705.408 89.008L705.8 88.8806C706.192 88.9492 706.721 88.6258 707.123 88.6062C707.956 88.6062 708.809 88.4004 709.632 88.3318C712.493 88.0868 715.365 87.979 718.236 87.93C724.626 87.8124 727.742 87.6458 732.868 90.429C747.715 98.5042 755.045 115.752 770.588 122.769C788.855 130.991 809.376 119.672 826.252 112.753C846.038 104.639 866.54 96.5344 888.335 97.5732C897.459 98.0044 908.817 99.935 914.795 107.657C919.332 113.537 920.185 122.21 917.402 129.051C911.061 144.613 888.884 143.467 878.662 155.589C873.762 161.401 872.625 168.202 872.361 175.571C872.067 184.019 870.244 192.104 865.599 199.268C856.24 213.703 839.531 222.063 823.155 225.63C805.309 229.55 784.876 228.344 767.961 221.171C748.871 213.076 736.062 196.044 732.417 175.767C731.319 169.691 722.048 172.259 723.146 178.325C726.675 197.971 738.538 215.127 755.672 225.365C771.685 235.097 791.589 238.252 810.082 237.066C828.574 235.881 846.626 229.942 860.944 217.996C868.157 211.978 874.154 204.609 877.702 195.877C879.334 191.755 880.431 187.44 880.965 183.039C881.573 178.325 881.083 173.386 882.112 168.751C884.072 159.774 892.304 156.011 900.105 152.796C908.591 149.347 917.431 145.809 922.909 138.037C932.709 124.072 928.358 103.483 913.746 94.7998C894.029 83.0398 867.255 88.6062 846.93 95.4466C835.689 99.2392 824.821 104.002 813.816 108.402C803.29 112.616 790.296 118.947 778.683 116.242C768.412 113.822 761.582 104.717 754.839 97.3184C748.234 90.0762 739.571 81.6384 729.663 79.4138C725.018 78.3456 695.118 76.5914 699.107 86.5286L706.78 82.0304C697.274 69.8 677.135 67.9282 666.414 79.4628C663.983 82.0696 661.857 84.9508 659.642 87.7438C657.682 90.2526 655.369 93.81 652.508 95.3976C651.322 96.0542 652.194 96.015 651.253 94.7704C650.312 93.5258 647.882 92.3988 646.353 91.8304C642.464 90.3756 638.192 90.3098 634.26 91.6442C618.07 97.142 618.472 119.437 630.938 128.424C641.502 136.048 656.722 135.891 669.158 134.764C679.311 133.784 691.561 127.434 701.606 131.226C706.633 133.128 706.388 134.823 705.134 139.066C703.359 144.659 703.359 150.663 705.134 156.256C706.711 161.244 713.473 160.029 713.954 155.07C714.218 152.13 717.58 147.739 720.333 146.632C725.939 144.388 725.341 150.846 724.724 154.051C723.008 161.936 722.832 170.079 724.204 178.031C724.89 182.03 731.897 181.148 731.368 177.051Z" fill="var(--color-illustration-primary, #382C80)"/>
<path d="M705.937 186.518C697.529 190.016 689.757 189.889 680.908 189.291C675.694 188.938 675.332 196.347 679.742 197.925C689.258 201.326 700.616 198.307 708.544 192.702C711.406 190.673 709.74 184.94 705.937 186.518Z" fill="var(--color-illustration-primary, #382C80)"/>
<path d="M690.443 140.928C686.758 138.067 682.535 138.39 678.281 139.821C677.142 140.135 676.473 141.313 676.787 142.452C677.101 143.592 678.279 144.261 679.418 143.947C682.28 143.29 685.602 142.095 688.434 143.535C690.002 144.329 692.001 142.153 690.443 140.928Z" fill="var(--color-illustration-primary, #382C80)"/>
<path d="M678.252 171.818C681.937 170.897 686.524 169.358 686.622 164.821C686.671 162.41 683.388 162.224 682.623 164.282C681.731 166.692 679.683 167.829 677.39 168.692C676.594 168.982 676.154 169.835 676.38 170.652C676.605 171.469 677.42 171.976 678.252 171.818Z" fill="var(--color-illustration-primary, #382C80)"/>
<path d="M314.927 84.9504C325.893 90.1444 324.286 109.98 327.775 120.113C329.333 124.65 331.646 129.501 336.095 131.314C340.544 133.127 346.934 129.276 345.522 124.689C347.796 130.569 353.274 135.371 359.576 136.028C365.877 136.685 372.57 132.686 374.276 126.591C377.931 131.677 382.762 136.44 388.907 137.665C395.052 138.89 402.431 135.146 403.176 128.923C402.901 131.422 431.106 139.36 429.048 118.78C425.402 82.3142 381.88 62.185 349.482 61.2246" fill="var(--color-illustration-base, #FFFFFF)"/>
<path d="M308.969 74.7585C315.418 71.0486 322.424 68.4013 329.715 66.9185C355.362 61.5677 385.183 68.8001 405.489 85.4405C415.122 93.3393 422.521 103.727 424.736 116.144C425.412 119.936 426 124.964 422.149 127.208C419.317 128.884 415.446 128.796 412.3 128.345C410.632 128.105 408.991 127.705 407.4 127.149C406.665 126.885 407.312 126.904 406.42 126.708C406.332 126.708 405.881 126.336 405.842 126.365C406.42 125.934 407.165 130.285 407.116 128.884C406.959 124.699 400.256 123.308 399.442 127.845C398.678 132.235 394.219 134.489 389.966 133.872C384.752 133.108 380.597 128.6 377.647 124.591C375.687 121.916 371.669 122.171 370.562 125.571C368.976 129.906 364.671 132.629 360.076 132.206C355.244 131.775 351.069 128.041 349.237 123.68C347.404 119.319 340.779 120.74 341.828 125.718C342.23 127.62 338.731 128.1 337.516 127.737C334.821 126.924 333.184 123.445 332.185 121.063C330.293 116.546 329.754 111.597 329.029 106.795C327.667 97.6905 325.952 86.3715 316.789 81.7851C312.585 79.6879 308.88 85.9109 313.085 88.1355C318.396 90.9383 319.739 97.5925 320.758 103.022C321.856 108.902 322.15 115.076 323.992 120.809C326.04 127.169 330.186 135.028 337.712 135.567C344.435 136.048 350.658 130.579 349.207 123.68L341.799 125.718C344.993 133.353 351.481 139.438 360.046 139.928C368.13 140.329 375.488 135.285 378.029 127.6L370.944 128.521C375.736 135.048 382.204 141.398 390.799 141.751C398.021 142.055 405.655 137.351 406.959 129.942L399.295 128.903C399.55 136.263 413.809 136.802 418.738 136.244C423.413 135.714 427.95 133.813 430.636 129.785C433.997 124.748 433.233 118.329 432.076 112.714C426.245 84.6565 398.247 67.3301 372.345 60.5975C357.723 56.7426 342.417 56.2534 327.579 59.1667C319.803 60.7246 312.32 63.4924 305.401 67.3693" fill="var(--color-illustration-primary, #382C80)"/>
<path d="M192.28 89.7719C178.011 133.098 180.441 181.804 200.933 222.768C203.177 227.256 209.753 223.326 207.636 218.848C188.771 179.138 184.753 133.431 198.464 91.4477C199.757 87.5277 193.564 85.8323 192.28 89.7425V89.7719Z" fill="var(--color-illustration-primary, #382C80)"/>
<path d="M255.578 113.126C247.797 143.437 249.62 176.287 262.32 205.02C264.094 209.028 271.14 206.108 269.474 202.002C257.871 174.18 254.265 144.182 261.37 114.723C262.271 110.97 256.538 109.372 255.578 113.126Z" fill="var(--color-illustration-primary, #382C80)"/>
<path d="M315.211 150.836C313.604 166.594 317.877 183.176 328.539 195.161C331.479 198.425 337.3 194.064 334.684 190.428C326.158 178.58 321.169 165.585 322.394 150.836C322.777 146.2 315.681 146.298 315.211 150.836Z" fill="var(--color-illustration-primary, #382C80)"/>
<path d="M374.873 157.647C373.97 165.098 376.214 172.589 381.067 178.315C384.242 182.235 389.887 176.639 386.633 172.758C383.192 168.526 381.691 163.041 382.498 157.647C383.076 152.747 375.501 152.864 374.873 157.647Z" fill="var(--color-illustration-primary, #382C80)"/>
<path d="M413.535 163.654L416.269 167.761C417.369 169.511 419.659 170.072 421.444 169.03C423.23 167.988 423.866 165.718 422.884 163.899L420.15 159.793C419.049 158.043 416.759 157.481 414.974 158.524C413.189 159.566 412.552 161.836 413.535 163.654Z" fill="var(--color-illustration-primary, #382C80)"/>
<path d="M623.843 146.338C624.823 150.669 625.283 155.393 627.351 159.352C628.978 162.478 633.554 160.832 633.682 157.637C633.858 153.198 632.202 148.592 631.193 144.309C630.066 139.517 622.823 141.555 623.843 146.338Z" fill="var(--color-illustration-primary, #382C80)"/>
<path d="M499.549 344.964C492.015 333.725 485.342 321.931 479.587 309.684C477.676 305.607 470.659 308.498 472.247 312.781C477.19 326.169 484.749 338.438 494.483 348.874C496.952 351.501 501.607 348.041 499.549 344.954V344.964Z" fill="var(--color-illustration-primary, #382C80)"/>
<path d="M358.88 929.377C349.08 928.534 345.248 915.588 353.745 910.13C361.732 905.004 371.081 910.453 374.325 918.43C375.559 921.449 380.371 920.39 379.372 917.039C377.167 909.767 375.844 900.585 381.038 894.185C385.016 889.285 393.082 887.325 397.825 892.225C398.88 893.226 400.533 893.226 401.588 892.225C408.87 886.286 421.796 880.798 429.763 888.629C436.721 895.489 435.036 907.327 433.771 916.069C433.35 919.009 437.691 920.371 438.338 917.323C440.573 906.131 442.19 891.529 431.998 883.572C421.443 875.34 406.998 881.004 397.825 888.472H401.588C395.483 882.268 385.526 883.15 379.156 888.589C370.542 895.92 371.149 908.66 374.295 918.46L379.078 916.441C373.59 905.132 358.498 898.478 348.57 908.738C339.887 917.715 346.973 932.258 358.841 932.866C361.085 932.983 361.036 929.593 358.841 929.406L358.88 929.377Z" fill="var(--color-illustration-primary, #382C80)"/>
<path d="M344.67 817.746C352.716 850.536 362.222 883.219 375.863 914.178C376.843 916.402 380.763 914.795 379.832 912.502C367.514 881.142 355.832 849.645 347.678 816.913C347.198 814.953 344.19 815.795 344.67 817.746Z" fill="var(--color-illustration-primary, #382C80)"/>
<path d="M360.409 853.976C360.829 850.066 363.335 846.691 366.955 845.156L364.27 844.45C367.656 849.656 366.831 856.539 362.31 860.797C360.35 862.698 363.29 865.608 365.319 863.805C371.38 858.332 372.402 849.196 367.7 842.52C367.135 841.614 365.963 841.305 365.025 841.814C360.504 844.067 357.448 848.473 356.92 853.496C356.665 855.456 360.154 855.975 360.448 853.976H360.409Z" fill="var(--color-illustration-primary, #382C80)"/>
<path d="M349.266 833.563C345.023 829.555 338.114 830.623 333.929 834.043C333.451 834.525 333.221 835.201 333.307 835.875C333.394 836.549 333.786 837.146 334.37 837.493C339.024 839.975 344.042 841.705 349.237 842.618C352 843.098 353.157 838.865 350.403 838.375C345.578 837.56 340.913 835.982 336.585 833.7L337.036 837.15C340.084 834.308 343.641 834.68 347.159 836.307C348.845 837.081 350.805 835.023 349.266 833.563Z" fill="var(--color-illustration-primary, #382C80)"/>
<path d="M70.2214 103.365C74.4256 105.854 68.1536 118.369 67.5068 122.259C66.3014 129.492 63.479 136.293 63.8416 143.76C63.9644 144.428 63.8125 145.117 63.4202 145.671C62.9969 146.007 62.4568 146.159 61.9208 146.093C59.2106 145.843 56.8052 144.254 55.5116 141.859C54.2774 139.482 53.6068 136.854 53.5516 134.176C52.7676 123.053 56.0898 112.057 64.8314 104.776C66.3308 103.512 68.5064 102.346 70.2214 103.365Z" fill="var(--color-illustration-secondary, #7F72FF)"/>
<path d="M67.7025 105.884C69.4959 107.422 64.8899 117.163 64.2823 119.192C62.275 125.547 60.8514 132.071 60.0291 138.684C59.9605 139.253 59.3137 146.093 60.7739 142.8C62.2047 141.987 62.0381 141.35 60.2643 140.84C59.4059 139.984 58.8049 138.904 58.5297 137.724C57.4909 134.353 57.6771 130.119 58.1181 126.62C58.5409 123.023 59.6416 119.538 61.3619 116.35C62.2733 114.704 66.7617 107.06 69.0353 107.638C74.6213 109.059 76.8753 100.778 71.4069 99.0334C59.5881 95.2898 51.3365 113.537 49.6999 122.485C48.0143 131.775 48.1907 149.503 61.2639 150.17C67.7809 150.503 67.5947 145.201 67.8985 140.37C68.2807 134.362 70.0643 127.855 71.5931 122.044C73.2787 115.615 79.1391 105.384 72.0243 100.288C68.8001 97.926 64.6253 103.247 67.7025 105.884Z" fill="var(--color-illustration-secondary, #7F72FF)"/>
<path d="M56.3834 160.244C55.2578 161.511 54.6493 163.155 54.6782 164.85C54.7812 166.809 55.742 168.623 57.3046 169.809C58.0025 170.368 58.8212 170.758 59.6958 170.946C61.531 171.36 63.4364 170.639 64.537 169.113C65.2939 168.143 65.6734 166.931 65.6052 165.703C65.5279 163.933 64.5719 162.319 63.0572 161.4C60.9575 160.193 58.277 160.895 57.04 162.978C55.8718 165.08 56.5676 167.729 58.6178 168.986L57.383 167.78C57.0647 167.298 56.9551 166.708 57.0792 166.144C56.9213 165.558 57.0897 164.934 57.5202 164.507C58.0592 163.801 58.167 163.596 57.8338 163.89L60.7738 162.645C60.0486 162.645 61.8616 162.9 61.1756 162.733C60.4896 162.567 62.0086 163.135 61.6068 162.9C61.205 162.665 62.3614 163.615 61.9302 163.145C61.499 162.674 62.381 163.988 62.1164 163.39C61.8028 162.704 62.0478 163.233 62.1164 163.39C62.2046 163.468 62.43 164.076 62.1164 163.39C62.185 164.076 62.2144 164.262 62.1948 163.958C62.1752 163.654 62.1948 163.841 62.0968 164.497L61.8616 165.036C61.9142 164.926 61.9765 164.821 62.0478 164.723C62.951 163.144 62.5299 161.139 61.0678 160.058C59.7644 159.078 57.4516 158.931 56.3148 160.332L56.3834 160.244Z" fill="var(--color-illustration-secondary, #7F72FF)"/>
</svg>
