<svg width="1000" height="1000" viewBox="0 0 1000 1000" fill="none" xmlns="http://www.w3.org/2000/svg">
<path d="M836.14 213.693C842.441 229.696 847.968 246.415 847.9 263.673C847.782 292.985 822.606 329.568 789.649 312.781C780.486 308.116 773.224 300.472 766.579 292.612C760.171 285.035 754.162 277.129 748.577 268.926C746.074 265.461 743.948 261.739 742.236 257.822C738.983 249.601 739.1 240.429 742.56 232.293" fill="var(--color-illustration-primary, #382C80)"/>
<path d="M833.543 214.418C839.874 230.716 845.43 248.297 844.323 266.015C843.503 278.191 838.933 289.813 831.24 299.286C824.066 307.949 813.649 314.251 802.046 312.34C786.542 309.782 775.586 296.542 766.315 284.978C760.121 277.266 753.869 269.181 748.949 260.566C744.137 252.326 743.47 242.305 747.146 233.499C749.106 228.55 740.57 224.894 738.473 229.843C734.681 238.791 733.867 248.728 737.219 257.979C740.57 267.23 747.225 275.521 753.222 283.332C764.071 297.463 776.252 313.261 793.765 319.239C823.165 329.284 846.214 300.501 850.507 274.267C853.956 253.187 846.44 232.284 838.747 212.968C837.473 209.734 832.2 211.125 833.474 214.418H833.543Z" fill="var(--color-illustration-primary, #382C80)"/>
<path d="M446.776 504.4C407.517 573.608 368.21 642.789 328.853 711.945C309.174 746.519 289.483 781.09 269.778 815.658C260.713 831.564 252.864 849.076 239.947 862.355C224.208 878.545 207.117 879.28 185.881 880.897C178.148 881.485 169.221 884.944 167.594 892.51C165.693 901.144 174.248 908.19 181.882 912.678C204.109 925.673 260.958 962.609 286.507 945.734C300.844 936.267 310.194 913.168 318.847 899.076C331.685 878.27 344.249 857.269 355.489 835.542C369.836 807.789 382.566 779.339 400.785 753.693C419.669 727.096 443.277 704.183 463.025 678.233C495.56 635.336 516.952 585.041 525.284 531.85" fill="var(--color-illustration-base, #FFFFFF)"/>
<path d="M444.385 503.009C400.893 579.468 357.306 655.885 313.624 732.26C302.674 751.455 291.717 770.65 280.755 789.845C275.414 799.204 269.975 808.524 264.741 817.951C260.331 825.909 256.176 834.013 251.404 841.765C242.123 856.838 230.481 869.813 212.772 874.223C204.981 876.183 196.955 876.712 188.987 877.31C181.657 877.859 173.797 878.966 168.407 884.464C163.017 889.962 162.821 898.184 167.124 904.417C171.044 910.179 177.09 913.805 182.97 917.304C193.633 923.644 204.256 930.044 215.31 935.777C227.727 942.235 240.79 948.262 254.412 951.535C265.094 954.083 277.472 955.23 287.35 949.448C300.521 941.735 308.126 926.124 315.113 913.188C324.316 896.224 334.958 880.073 344.513 863.335C364.692 828.114 379.94 789.835 403.382 756.515C426.187 724.175 455.694 697.186 477.774 664.219C499.173 632.428 514.719 597.069 523.677 559.809C525.794 550.862 527.45 541.817 528.763 532.712C529.4 528.332 522.756 526.352 521.991 530.85C515.847 567.574 503.671 603.029 485.957 635.779C476.866 652.438 466.326 668.264 454.46 683.074C442.357 698.166 429.225 712.386 416.798 727.174C404.253 741.915 393.01 757.717 383.194 774.4C373.237 791.579 364.682 809.504 355.754 827.193C346.493 845.44 336.428 863.237 325.893 880.779C321.258 888.482 316.358 896.038 312.007 903.907C308.136 910.914 304.5 918.058 300.247 924.85C293.73 935.296 285.625 945.724 272.454 946.488C260.194 947.194 247.827 942.852 236.674 938.227C224.062 932.984 212.017 926.378 200.218 919.518C195.593 916.823 191.016 914.07 186.41 911.345C180.834 908.043 173.592 904.279 171.269 897.762C168.486 889.922 177.071 885.748 183.323 884.601C191.163 883.16 199.424 883.366 207.382 882.102C222.887 879.856 236.974 871.842 246.827 859.66C258.509 845.519 266.221 828.555 275.247 812.708C285.955 793.879 296.66 775.05 307.362 756.221C349.547 682.042 391.589 607.8 433.488 533.496L449.168 505.802C450.912 502.695 446.149 499.922 444.385 503.009Z" fill="var(--color-illustration-primary, #382C80)"/>
<path d="M446.776 504.4C407.517 573.608 368.21 642.789 328.853 711.945C304.647 754.477 288.839 782.23 269.778 815.658C263.379 826.889 254.343 835.092 265.8 845.352C285.715 863.162 309.556 876.016 335.38 882.867C345.591 885.562 352.922 886.257 359.801 878.613C367.749 869.793 373.09 855.299 378.529 844.774C392.886 817.02 405.616 788.571 423.834 762.924C442.719 736.327 466.327 713.415 486.074 687.464C518.612 644.569 540.004 594.273 548.334 541.082" fill="var(--color-illustration-secondary, #7F72FF)"/>
<path d="M444.385 503.009C411.144 561.397 377.824 619.75 344.425 678.066C329.065 704.983 313.712 731.901 298.365 758.818L279.657 791.589L270.19 808.141C267.035 813.669 263.497 818.97 260.39 824.498C257.803 829.064 255.961 834.219 257.627 839.452C259.636 845.724 265.8 850.007 270.71 853.937C281.618 862.686 293.543 870.086 306.225 875.977C312.618 878.939 319.182 881.514 325.884 883.69C332.067 885.699 338.545 887.757 345.072 888.178C358.145 889.06 365.74 878.28 371.248 867.892C374.384 862.012 377.02 855.965 379.921 850.007C383.145 843.392 386.604 836.885 389.917 830.309C396.826 816.589 403.696 802.791 411.349 789.453C419.033 776.013 427.742 763.186 437.398 751.086C446.972 739.14 457.213 727.762 467.249 716.208C486.623 693.942 504.253 670.598 518.081 644.432C531.701 618.95 541.773 591.725 548.02 563.514C549.549 556.399 550.774 549.216 551.793 542.003C552.411 537.632 545.796 535.633 545.012 540.141C535.31 596.089 512.446 649.038 476.755 693.334C458.37 716.159 437.711 737.121 420.738 761.082C403.598 785.288 391.161 812.306 377.745 838.649C371.934 850.066 367.387 862.649 359.841 873.086C356.587 877.574 352.618 881.191 346.816 881.24C340.574 881.298 334.155 879.025 328.275 877.163C315.157 872.975 302.609 867.178 290.917 859.905C284.95 856.211 279.228 852.136 273.787 847.704C269.622 844.284 262.781 839.942 263.859 833.68C264.761 828.388 268.955 823.625 271.699 819.147C274.943 813.757 277.952 808.21 281.058 802.742L299.041 771.097C313.323 745.97 327.595 720.84 341.858 695.706C373.825 639.376 405.701 583 437.486 526.578C441.406 519.646 445.326 512.72 449.246 505.802C450.99 502.695 446.228 499.922 444.464 503.009H444.385Z" fill="var(--color-illustration-primary, #382C80)"/>
<path d="M584.554 498.951C612.533 571.285 628.899 647.539 639.307 724.234C644.481 762.336 648.205 800.615 651.214 838.894C652.596 856.465 652.537 875.33 659.622 891.814C668.785 913.099 693.158 913.609 705.457 931.219C718.667 950.124 693.168 956.317 678.997 957.405C651.557 959.512 622.314 954.318 595.795 947.801C589.778 946.321 583.506 944.518 579.135 940.137C572.765 933.748 571.716 924.124 570.648 915.637C563.524 859.474 557.212 803.966 555.272 747.342C555.086 741.932 554.919 736.464 553.626 731.211C551.969 724.488 548.539 718.354 545.305 712.229C512.397 649.94 528.832 674.685 532.83 604.272" fill="var(--color-illustration-base, #FFFFFF)"/>
<path d="M581.889 499.687C608.349 568.571 624.254 640.914 634.662 713.836C640.091 751.899 643.962 790.168 647.069 828.496C648.441 845.401 648.401 862.796 652.145 879.456C653.801 886.816 656.212 894.44 660.73 900.575C664.468 905.431 669.077 909.548 674.322 912.717C684.465 919.185 696.98 923.782 703.497 934.562C705.8 938.364 706.78 942.558 703.409 945.988C700.204 949.242 695.392 950.82 691.09 951.957C677.37 955.592 662.278 954.838 648.245 953.603C630.17 951.888 612.273 948.642 594.746 943.901C586.985 941.853 580.34 938.599 577.322 930.681C574.451 923.125 574.117 914.521 573.128 906.583C570.815 887.963 568.61 869.284 566.64 850.605C564.68 831.534 562.877 812.385 561.515 793.304C560.861 783.713 560.286 774.116 559.79 764.512C559.339 755.114 559.555 745.529 558.369 736.19C557.261 727.37 553.596 719.736 549.549 711.984C546.06 705.349 542.561 698.734 539.2 692.08C535.447 684.564 531.36 676.773 529.645 668.472C528.665 663.66 529.233 658.437 530.213 653.302C531.919 644.315 533.683 635.377 534.702 626.273C535.515 618.972 535.995 611.632 536.309 604.292C536.505 599.745 529.606 599.823 529.282 604.292C528.424 617.058 526.827 629.764 524.5 642.345C523.255 648.872 521.472 655.497 521.325 662.171C521.178 668.844 523.226 675.332 525.784 681.477C530.939 693.844 537.544 705.624 543.737 717.462C545.977 721.433 547.843 725.603 549.314 729.918C550.667 734.792 551.372 739.824 551.411 744.883C551.803 754.477 552.185 764.061 552.744 773.646C553.88 793.246 555.497 812.846 557.418 832.357C559.339 851.869 561.583 871.41 563.965 890.893C565.141 900.467 566.297 910.052 567.581 919.607C568.561 926.918 570.021 934.395 574.637 940.363C579.625 946.802 587.259 949.379 594.893 951.271C603.645 953.427 612.475 955.347 621.353 956.945C639.542 960.218 658.143 962.237 676.625 961.08C686.876 960.443 698.852 958.807 707.005 952.025C716.805 943.891 711.611 931.876 704.065 924.183C695.245 915.148 682.888 911.238 673.078 903.545C660.338 893.529 657.584 876.369 656.163 861.111C654.419 842.422 653.38 823.675 651.655 804.986C649.839 785.386 647.755 765.835 645.403 746.333C636.171 671.049 621.726 596.099 596.824 524.314C593.786 515.553 590.591 506.854 587.24 498.217C585.966 494.934 580.625 496.355 581.908 499.687H581.889Z" fill="var(--color-illustration-primary, #382C80)"/>
<path d="M497.178 562.475C495.191 592.278 496.727 622.212 501.754 651.655C505.674 674.656 512.534 695.285 520.247 717.462C522.53 723.999 526.911 729.712 528.567 736.445C529.861 741.698 530.027 747.156 530.214 752.576C530.919 773.188 531.984 793.768 533.408 814.316C534.702 833.151 535.29 852.673 540.18 871.038C541.16 874.615 567.071 876.791 570.786 877.173C581.736 878.306 592.77 878.372 603.733 877.369C616.473 876.203 649.872 874.537 653.321 859.013C655.026 851.33 651.44 841.06 650.773 833.288C649.734 821.362 648.813 809.425 647.647 797.509C645.334 773.009 642.62 748.597 639.307 724.244C628.9 647.549 612.534 571.295 584.555 498.961" fill="var(--color-illustration-secondary, #7F72FF)"/>
<path d="M494.414 562.475C492.392 592.732 493.938 623.122 499.02 653.017C501.588 667.452 505.138 681.695 509.643 695.647C511.838 702.615 514.171 709.534 516.572 716.443C518.708 722.597 522.285 728.036 524.529 734.083C527.146 741.168 526.881 748.989 527.146 756.427C527.411 763.865 527.714 771.333 528.077 778.791C528.812 794.128 529.841 809.445 530.792 824.762C531.693 839.335 532.752 854.015 536.044 868.274C537.024 872.283 537.779 874.439 541.689 875.918C545.189 877.096 548.802 877.908 552.469 878.339C571.742 881.353 591.312 881.991 610.74 880.24C619.433 879.456 628.233 878.447 636.632 875.977C643.903 873.831 652.243 870.254 655.644 862.963C657.898 858.141 657.408 852.565 656.673 847.449C655.693 840.932 654.409 834.602 653.86 828.026C652.566 812.61 651.253 797.205 649.705 781.819C646.637 751.439 642.845 721.059 638.111 690.826C628.909 632.624 616.287 574.137 595.971 518.708C593.414 511.76 590.719 504.9 587.945 498.04C586.279 493.944 579.586 495.6 581.164 499.912C600.829 553.703 615.91 609.061 626.244 665.395C631.506 694.011 635.72 722.803 639.17 751.694C640.94 766.511 642.538 781.352 643.962 796.215C644.687 803.712 645.344 811.219 645.991 818.755C646.579 825.566 646.892 832.475 648.068 839.198C649.558 847.675 653.566 858.798 645.128 864.678C638.435 869.362 629.536 870.901 621.608 872.096C602.976 874.862 584.069 875.26 565.337 873.282C558.232 872.547 550.47 872.106 543.718 869.607C543.403 869.427 543.075 869.27 542.738 869.137C542.679 869.137 542.885 869.225 543.13 869.705C544.002 871.391 542.767 867.745 542.777 867.745C541.947 864.335 541.238 860.892 540.65 857.416C539.435 850.331 538.69 843.177 538.151 836.013C535.848 806.75 534.702 777.458 533.251 748.156C532.918 741.56 532.026 735.23 529.331 729.163C526.636 723.097 523.628 717.472 521.433 711.171C516.885 698.117 512.524 684.975 509.104 671.579C501.872 643.247 498.991 613.71 499.187 584.506C499.236 577.156 499.51 569.806 499.971 562.485C500.196 558.928 494.679 558.947 494.443 562.485L494.414 562.475Z" fill="var(--color-illustration-primary, #382C80)"/>
<path d="M496.374 355.274C525.48 334.841 560.378 324.727 593.913 312.82C612.86 306.11 631.539 298.741 649.95 290.711C659.181 286.683 668.393 282.479 676.704 276.795C684.064 271.768 690.6 265.662 697.117 259.586C715.022 242.858 732.995 226.07 748.822 207.313C756.348 198.395 765.629 188.272 770.568 177.609C775.223 167.584 774.625 154.168 774.821 143.309C774.968 135.548 771.989 116.849 778.879 111.842C780.171 110.822 781.744 110.22 783.387 110.117C786.327 110.117 788.786 112.263 790.541 114.605C796.666 122.778 797.499 133.588 800.341 143.398C800.654 144.505 801.213 145.799 802.301 145.965C803.388 146.132 804.261 145.201 804.878 144.378C806.701 142.137 808.514 139.883 810.317 137.616C816.465 129.913 822.413 122.073 828.163 114.096C832.739 107.726 838.11 102.992 843.843 97.6121C845.734 95.8285 847.763 94.0645 850.232 93.2805C852.702 92.4965 855.76 92.9571 857.337 95.0151C859.562 97.9551 857.925 102.081 856.191 105.305C850.044 116.752 843.309 127.874 836.013 138.625C843.868 128.477 852.705 119.129 862.394 110.715C866.216 107.392 870.734 104.031 875.781 104.501C876.477 104.501 877.147 104.768 877.653 105.246C878.427 106.118 878.045 107.481 877.594 108.549C874.761 114.872 871.266 120.877 867.167 126.463C861.296 134.86 854.972 142.931 848.223 150.64C859.138 139.9 870.669 129.805 882.759 120.407C884.376 119.152 886.11 117.859 888.149 117.643C890.187 117.428 892.529 118.751 892.637 120.789C892.593 121.811 892.275 122.803 891.716 123.66C883.7 138.453 873.412 151.895 861.228 163.497C871.655 157.568 879.221 147.21 890.138 142.222C892.47 141.153 895.038 140.33 897.586 140.761C900.134 141.193 902.545 143.162 902.731 145.72C902.917 148.278 901.124 150.326 899.409 152.12C889.843 162.154 879.401 171.314 868.206 179.491C868.247 179.002 868.493 178.553 868.883 178.255C869.273 177.956 869.771 177.836 870.254 177.923C871.449 194.152 822.048 336.301 533.467 399.285" fill="var(--color-illustration-base, #FFFFFF)"/>
<path d="M497.942 357.949C530.409 336.291 568.316 326.295 604.576 313.065C623.891 306.009 643.197 298.365 661.768 289.486C670.48 285.431 678.681 280.358 686.2 274.375C694.148 267.956 701.478 260.743 708.926 253.795C723.783 239.849 738.326 225.61 751.566 210.067C757.534 203.041 763.718 196.122 768.853 188.448C773.81 181.214 776.923 172.877 777.918 164.164C778.797 156.055 779.029 147.889 778.614 139.742C778.349 133.519 777.565 127.002 778.614 120.838C779.006 118.633 779.594 115.938 781.622 114.684C785.807 112.146 789.149 119.231 790.442 122.191C792.004 125.918 793.215 129.783 794.059 133.735C795.039 137.861 795.48 143.3 797.832 146.926C800.772 151.453 805.427 149.337 808.131 145.946C811.571 141.683 814.923 137.332 818.274 133C825.232 124.004 831.406 114.311 839.638 106.403C841.598 104.551 843.558 102.757 845.518 100.954C847.165 99.435 848.958 97.4358 851.183 96.7988C858.043 94.8388 852.32 104.541 851.124 106.697C845.42 116.954 839.253 126.927 832.622 136.616C830.172 140.213 835.993 144.809 838.727 141.32C843.922 134.7 849.508 128.398 855.456 122.445C858.572 119.329 861.786 116.301 865.118 113.41C866.515 112.153 868.017 111.019 869.607 110.019C870.526 109.434 871.513 108.963 872.547 108.618C873.125 108.451 874.673 108.539 875.007 108.265C875.673 108.363 875.585 108.098 874.752 107.451C874.232 106.285 873.899 106.373 873.772 107.687C873.228 108.552 872.79 109.48 872.468 110.45C871.488 112.41 870.381 114.37 869.234 116.33C867.029 119.995 864.589 123.523 862.11 127.022C856.965 134.294 851.555 141.389 845.714 148.121C842.774 151.483 847.449 156.285 850.663 153.021C856.935 146.73 863.403 140.605 870.097 134.754C873.36 131.902 876.692 129.109 880.054 126.375C881.818 124.935 883.572 123.435 885.414 122.112C886.14 121.458 886.999 120.97 887.933 120.681C889.55 120.466 889.442 120.681 889.011 122.004C887.845 125.532 884.836 129.207 882.817 132.304C880.622 135.666 878.309 138.949 875.869 142.104C870.675 148.831 864.943 155.123 858.729 160.92C855.789 163.674 859.542 168.358 862.962 166.408C869.097 162.9 874.291 158.127 879.691 153.668C882.254 151.466 884.984 149.464 887.854 147.68C890.246 146.25 894.822 143.261 897.654 144.848C900.487 146.436 895.283 150.542 893.979 151.855C891.111 154.743 888.171 157.559 885.159 160.303C879.071 165.8 872.703 170.978 866.079 175.816L872.223 180.54L870.263 182.029L866.098 177.864C866.133 178.344 866.133 178.825 866.098 179.305C866.098 180.001 865.775 181.716 866.098 180.089C865.804 181.765 865.481 183.411 865.05 185.058C864.491 187.214 863.815 189.34 863.09 191.447C862.659 192.692 862.188 193.927 861.708 195.152C861.453 195.798 861.189 196.435 860.934 197.112C860.836 197.357 860.336 198.542 860.806 197.455L860.277 198.64C853.478 213.477 844.831 227.396 834.542 240.065C818.745 259.743 800.115 277.099 779.996 292.309C751.958 313.526 720.833 330.637 688.856 345.111C645.177 364.829 599.391 379.46 552.92 390.691C546.106 392.331 539.278 393.899 532.438 395.395C527.41 396.493 529.498 404.215 534.564 403.108C583.829 392.328 632.564 378.078 678.997 358.165C712.954 343.582 745.715 325.923 775.635 304.157C797.253 288.428 817.657 270.837 835.101 250.541C846.743 236.978 857.308 222.513 865.285 206.284C869.323 198.062 873.909 188.644 874.428 179.276C874.453 178.812 874.453 178.348 874.428 177.884C874.392 175.603 872.554 173.761 870.273 173.719C867.414 173.642 864.884 175.561 864.187 178.335C863.207 181.598 867.314 185.283 870.342 183.058C878.848 176.831 886.925 170.037 894.518 162.723C899.879 157.559 911.747 148.376 904.426 140.183C897.87 132.873 887.335 138.537 881.034 143.172C873.605 148.631 867.421 155.648 859.474 160.401L863.707 165.879C871.305 158.486 878.195 150.398 884.287 141.722C887.136 137.658 889.788 133.467 892.245 129.149C894.205 125.621 897.537 120.995 894.401 117.153C887.884 109.166 876.878 121.005 871.861 125.082C862.832 132.425 854.126 140.125 845.744 148.18L850.693 153.08C857.984 144.891 864.806 136.296 871.126 127.336C874.207 123.028 876.965 118.498 879.377 113.782C881.21 110.068 883.915 104.629 879.377 101.689C875.653 99.3076 870.303 100.934 866.726 102.816C862.423 105.07 858.748 108.696 855.201 111.93C847.241 119.268 839.917 127.268 833.308 135.842L839.413 140.556C845.365 131.684 850.948 122.586 856.161 113.263C859.728 106.863 866.941 95.1622 857.259 90.2916C848.498 85.8914 840.599 95.5836 835.111 100.993C827.829 108.167 822.243 116.673 816.079 124.758C812.656 129.266 809.157 133.706 805.583 138.076C804.79 139.056 804.015 140.036 803.222 140.948C803.045 141.154 802.173 141.928 802.163 142.212L801.889 142.516H803.849C804.074 142.173 803.153 139.791 803.035 139.321C802.741 138.067 802.467 136.812 802.193 135.548C800.301 126.836 798.449 117.134 792.04 110.45C786.356 104.57 777.065 105.55 773.204 112.939C770.098 118.888 770.352 126.375 770.617 132.892C771.264 149.219 772.93 167.192 764.1 181.667C758.926 190.163 752.173 197.572 745.754 205.138C738.894 213.223 731.652 220.965 724.194 228.491C716.737 236.018 708.995 243.24 701.262 250.531C693.53 257.823 686.17 265.231 677.742 271.445C669.314 277.658 660.191 282.117 650.792 286.262C640.79 290.672 630.686 294.857 620.481 298.816C601.087 306.401 581.369 313.055 561.759 320.072C543.139 326.746 524.568 334.155 507.458 344.21C503.087 346.767 498.883 349.629 494.786 352.608C491.621 354.901 494.551 360.184 497.912 357.949H497.942Z" fill="var(--color-illustration-primary, #382C80)"/>
<path d="M544.453 426.775C697.039 406.538 784.386 351.462 832.524 302.432C832.524 302.432 789.913 304.765 766.776 257.852C751.35 225.718 748.822 207.323 748.822 207.323C732.995 226.08 715.022 242.868 697.117 259.596C690.6 265.672 684.064 271.778 676.704 276.805C668.393 282.489 659.181 286.693 649.95 290.721C631.539 298.738 612.86 306.104 593.913 312.82C560.378 324.717 525.509 334.831 496.374 355.264" fill="var(--color-illustration-base, #FFFFFF)"/>
<path d="M544.453 429.871C596.04 424.814 647.696 412.006 696 393.18C715.343 385.717 734.165 376.969 752.34 366.994C767.816 358.355 782.675 348.656 796.812 337.967C810.399 327.954 823.242 316.969 835.238 305.097C837.482 302.834 835.905 298.424 832.533 298.58C831.642 298.58 830.74 298.58 829.848 298.58C827.641 298.499 825.443 298.253 823.272 297.845C815.519 296.496 808.044 293.867 801.154 290.064C777.232 276.746 765.021 250.678 757.054 225.629C755.574 220.984 754.231 216.29 753.202 211.527C752.928 210.292 752.693 209.048 752.467 207.793C752.36 207.195 752.193 205.833 752.379 207.323C752.046 204.608 748.616 202.295 746.391 204.834C733.21 219.867 718.589 233.401 704.251 247.297C697.489 253.853 690.796 260.527 683.671 266.75C676.254 273.134 668.014 278.493 659.171 282.685C623.97 299.903 586.073 310.429 549.529 324.227C530.243 331.508 511.309 340.005 494.335 351.824C490.151 354.764 494.139 361.673 498.373 358.684C529.733 336.889 566.875 327.187 602.155 313.917C620.775 306.93 639.13 299.384 657.221 291.24C666.041 287.261 674.675 282.881 682.456 277.06C690.237 271.238 697.274 264.623 704.477 258.136C721.279 243.218 736.925 227.047 751.282 209.763L745.402 208.215C746.415 213.713 747.87 219.121 749.753 224.385C751.86 230.764 754.398 236.978 756.887 243.22C760.053 251.119 763.336 259.126 767.559 266.525C778.526 285.752 796.959 300.589 818.931 304.901C823.377 305.9 827.93 306.341 832.484 306.215L829.78 299.698C819.703 310.175 808.896 319.924 797.44 328.872C783.955 339.29 769.412 348.394 754.643 356.881C717.07 378.441 676.243 394.121 634.417 405.273C604.517 413.231 574.107 418.591 543.62 423.756C540.219 424.334 540.974 430.165 544.443 429.832L544.453 429.871Z" fill="var(--color-illustration-primary, #382C80)"/>
<path d="M830.858 177.031C827.153 163.468 818.196 149.836 805.152 143.544C803.489 142.681 801.441 143.274 800.495 144.891C799.549 146.509 800.037 148.584 801.605 149.61C806.809 153.325 811.709 157.009 815.756 162.037C819.788 166.991 822.94 172.599 825.076 178.618C826.311 182.244 831.936 180.794 830.858 177.031Z" fill="var(--color-illustration-primary, #382C80)"/>
<path d="M163.86 219.475C157.549 235.478 152.031 252.197 152.1 269.406C152.218 298.727 177.394 335.301 210.351 318.513C219.514 313.849 226.776 306.205 233.42 298.355C239.824 290.77 245.833 282.861 251.423 274.658C253.927 271.196 256.049 267.473 257.754 263.555C261.015 255.336 260.902 246.162 257.44 238.026" fill="var(--color-illustration-primary, #382C80)"/>
<path d="M161.185 218.74C154.187 236.38 146.984 255.657 148.807 275.012C150.028 288.888 155.562 302.034 164.634 312.604C173.866 323.081 187.106 328.902 201.071 326.324C218.76 323.11 231.509 308.165 242.182 294.896C249.11 286.282 256.823 277.138 261.399 267.005C265.889 257.02 265.925 245.598 261.497 235.586C259.42 230.686 250.825 234.244 252.815 239.251C255.911 247.003 256.205 255.559 252.648 263.232C248.973 271.141 243.122 278.393 237.879 285.311C228.55 297.63 217.603 312.369 202.149 317.073C177.1 324.688 159.303 297.473 156.089 276.06C153.276 257.195 159.705 237.517 166.447 220.2C167.721 216.917 162.449 215.516 161.175 218.75L161.185 218.74Z" fill="var(--color-illustration-primary, #382C80)"/>
<path d="M503.616 361.056C474.491 340.633 439.622 330.509 406.087 318.622C387.14 311.899 368.458 304.526 350.04 296.503C340.819 292.485 331.607 288.271 323.296 282.587C315.936 277.56 309.4 271.454 302.883 265.378C284.968 248.66 267.005 231.862 251.178 213.105C243.652 204.187 234.371 194.064 229.422 183.401C224.777 173.376 225.375 159.96 225.179 149.101C225.032 141.34 228.001 122.641 221.121 117.634C219.83 116.613 218.257 116.014 216.613 115.919C213.673 115.919 211.204 118.055 209.45 120.397C203.334 128.57 202.501 139.38 199.65 149.199C199.336 150.307 198.777 151.591 197.641 151.757C196.504 151.924 195.681 150.993 195.063 150.179C193.24 147.925 191.427 145.671 189.624 143.417C183.476 135.702 177.528 127.862 171.778 119.897C167.192 113.537 161.831 108.794 156.098 103.414C154.207 101.63 152.178 99.8662 149.709 99.0822C147.239 98.2982 144.182 98.7588 142.604 100.817C140.379 103.757 142.006 107.883 143.741 111.107C149.895 122.552 156.633 133.673 163.929 144.427C156.073 134.279 147.236 124.931 137.547 116.516C133.725 113.194 129.207 109.833 124.16 110.303C123.464 110.303 122.794 110.57 122.288 111.048C121.504 111.92 121.887 113.282 122.347 114.36C125.183 120.679 128.678 126.681 132.774 132.265C138.644 140.666 144.968 148.74 151.718 156.451C140.804 145.708 129.272 135.61 117.183 126.209C115.566 124.954 113.831 123.661 111.793 123.445C109.754 123.229 107.412 124.552 107.304 126.591C107.347 127.613 107.665 128.605 108.225 129.462C116.258 144.245 126.566 157.672 138.772 169.25C128.335 163.311 120.779 152.963 109.862 147.965C107.578 146.753 104.986 146.245 102.414 146.504C99.8758 146.926 97.4552 148.905 97.2592 151.473C97.0632 154.041 98.8762 156.069 100.591 157.863C110.154 167.9 120.597 177.06 131.794 185.234C131.753 184.745 131.507 184.296 131.117 183.998C130.727 183.699 130.229 183.579 129.746 183.666C128.58 199.895 177.952 342.044 466.533 405.028" fill="var(--color-illustration-base, #FFFFFF)"/>
<path d="M505.184 358.39C472.56 334.684 432.38 324.374 395.062 310.527C375.011 303.079 354.46 295.582 335.536 285.547C317.083 275.747 302.334 259.929 287.418 245.582C272.391 231.2 258.228 215.941 245.004 199.885C238.928 192.466 232.783 184.371 230.647 174.846C228.687 166.183 228.922 156.863 229.01 148.023C229.128 137.371 233.313 116.84 219.544 112.567C210.204 109.627 204.128 120.27 201.443 127.473C199.917 131.996 198.718 136.624 197.856 141.32C197.621 142.398 197.386 143.486 197.131 144.564C196.964 145.299 196.151 147.053 196.337 147.759L196.19 148.288H198.15C197.851 147.902 197.523 147.538 197.17 147.2C196.239 146.093 195.338 144.966 194.416 143.848C187.449 135.342 180.902 126.532 174.405 117.653C171.531 113.774 168.349 110.133 164.889 106.765C161.626 103.561 158.352 99.9052 154.521 97.367C147.386 92.6336 136.655 96.0244 137.968 105.815C138.596 110.568 141.545 114.929 143.848 119.035C146.396 123.608 149.039 128.126 151.777 132.588C154.619 137.233 157.559 141.807 160.597 146.308L166.702 141.604C160.104 133.035 152.794 125.039 144.848 117.702C141.291 114.439 137.625 110.842 133.323 108.588C129.756 106.697 124.386 105.08 120.671 107.461C116.085 110.401 118.79 115.85 120.622 119.554C123.031 124.272 125.789 128.802 128.874 133.108C135.196 142.069 142.018 150.668 149.307 158.862L154.207 153.913C145.844 145.897 137.158 138.23 128.149 130.912C123.151 126.845 112.136 115.007 105.609 122.984C102.581 126.689 105.54 131.04 107.481 134.48C110.009 138.968 112.753 143.326 115.713 147.553C121.808 156.23 128.697 164.32 136.293 171.72L140.526 166.232C132.578 161.479 126.404 154.472 118.966 149.003C112.655 144.378 102.13 138.703 95.5638 146.014C88.253 154.158 100.111 163.35 105.481 168.554C113.082 175.86 121.158 182.653 129.658 188.889C132.676 191.104 136.783 187.449 135.803 184.156C135.112 181.383 132.583 179.465 129.727 179.55C127.448 179.591 125.609 181.426 125.562 183.705C125.081 191.78 129.54 200.865 132.755 207.94C139.781 223.346 149.415 237.34 159.842 250.286C175.914 270.21 194.936 287.663 215.251 303.206C243.671 324.913 274.678 342.945 307.146 357.851C351.246 378.098 397.815 392.915 444.963 404.254C451.771 405.887 458.598 407.452 465.445 408.948C470.463 410.046 472.609 402.333 467.572 401.236C418.915 390.583 371.022 376.402 325.099 357.018C291.476 342.828 258.861 325.736 229.01 304.686C207.359 289.583 187.682 271.831 170.436 251.844C159.074 238.749 149.428 224.259 141.732 208.724C141.02 207.254 140.33 205.768 139.664 204.265C139.517 203.952 139.38 203.638 139.242 203.285C139.576 204.069 139.331 203.472 139.164 203.06C138.89 202.384 138.605 201.708 138.341 201.031C137.41 198.67 136.557 196.278 135.812 193.858C135.244 191.996 134.725 190.114 134.333 188.213C134.176 187.458 134.058 186.714 133.931 185.959C134.176 187.39 133.931 185.959 133.931 185.126C133.901 184.663 133.901 184.198 133.931 183.734L129.766 187.899L127.806 186.42L133.95 181.686C127.322 176.826 120.95 171.625 114.86 166.104C111.992 163.491 109.189 160.819 106.452 158.088C105.08 156.716 99.3466 152.384 102.336 150.65C105.021 149.101 109.431 151.884 111.704 153.217C114.742 155.062 117.623 157.153 120.319 159.47C125.718 163.978 130.912 168.75 137.047 172.21C140.428 174.17 144.231 169.495 141.281 166.731C135.263 161.09 129.693 154.989 124.621 148.484C122.132 145.279 119.77 141.957 117.545 138.566C116.389 136.809 115.268 135.035 114.184 133.245C113.204 131.618 111.567 129.619 111.038 127.786C110.734 126.718 110.234 126.522 111.655 126.424C112.569 126.528 113.428 126.911 114.115 127.522C115.986 128.839 117.786 130.255 119.505 131.765C122.876 134.502 126.202 137.292 129.482 140.134C136.342 146.102 142.966 152.365 149.385 158.813C152.6 162.037 157.225 157.235 154.285 153.864C148.582 147.288 143.29 140.369 138.253 133.284C135.656 129.629 133.088 125.934 130.775 122.092C129.727 120.348 128.727 118.574 127.835 116.761C127.4 115.621 126.876 114.517 126.267 113.459L125.865 112.4C124.278 113.596 123.984 114.135 124.993 114.027C125.803 114.206 126.625 114.324 127.453 114.38C128.331 114.659 129.173 115.041 129.962 115.517C131.734 116.569 133.395 117.797 134.921 119.182C138.106 121.926 141.173 124.817 144.152 127.786C150.259 133.864 155.989 140.308 161.312 147.082C164.017 150.532 169.897 146.014 167.417 142.378C161.537 133.722 155.984 124.846 150.757 115.752C149.513 113.566 148.258 111.391 147.092 109.166C146.387 107.814 144.681 105.05 145.436 103.443C147.396 99.3662 153.903 106.158 155.363 107.51C158.686 110.568 162.027 113.625 165.075 116.967C168.721 120.985 171.729 125.532 174.973 129.874C177.704 133.552 180.481 137.194 183.303 140.801C186.488 144.887 189.487 149.621 193.172 153.305C195.857 155.971 200.032 155.981 202.168 152.639C204.51 149.013 204.932 143.574 205.931 139.448C206.931 135.322 211.508 116.212 218.426 120.397C222.797 123.053 221.974 131.785 221.886 136.077C221.739 142.937 221.386 149.65 221.474 156.481C221.582 165.134 221.847 174.258 224.973 182.451C228.344 191.271 234.41 198.944 240.388 206.167C252.885 221.234 266.211 235.593 280.304 249.179C287.761 256.362 295.337 263.438 302.942 270.474C309.998 277.011 317.279 283.361 325.482 288.389C334.164 293.69 343.553 297.718 352.922 301.726C362.29 305.735 371.64 309.615 381.106 313.32C421.649 329.274 465.367 339.28 502.058 363.78C505.419 366.014 508.35 360.732 505.184 358.439V358.39Z" fill="var(--color-illustration-primary, #382C80)"/>
<path d="M455.537 432.556C302.961 412.319 215.614 357.253 167.476 308.224C167.476 308.224 210.086 310.556 233.224 263.634C248.649 231.5 251.178 213.105 251.178 213.105C267.005 231.862 284.968 248.659 302.883 265.378C309.4 271.454 315.936 277.56 323.296 282.587C331.606 288.271 340.818 292.485 350.04 296.503C368.464 304.519 387.146 311.892 406.086 318.622C439.622 330.509 474.49 340.632 503.616 361.056" fill="var(--color-illustration-base, #FFFFFF)"/>
<path d="M456.36 429.577C405.479 420.963 355.146 410.82 306.94 391.975C287.939 384.608 269.446 375.994 251.58 366.191C236.196 357.879 221.39 348.537 207.264 338.232C194.063 328.334 181.675 317.395 170.22 305.519L167.515 312.036C179.687 312.752 192.74 308.342 203.109 302.364C228.422 287.781 239.722 260.224 248.992 233.891C251.246 227.472 253.54 220.788 254.598 214.036L248.718 215.585C261.405 231.002 275.187 245.485 289.956 258.92C304.382 272.111 318.376 285.38 336.173 294.004C353.97 302.628 372.306 309.88 390.632 316.995C408.605 323.943 426.941 329.843 445.012 336.517C464.818 343.837 484.212 352.412 501.607 364.515C505.841 367.455 509.839 360.527 505.635 357.606C474.951 336.232 438.436 325.737 403.499 313.565C384.526 306.95 365.73 299.747 347.375 291.544C338.555 287.624 329.901 283.165 322.159 277.344C314.417 271.523 307.302 264.261 300.266 257.421C284.468 242.064 268.2 227.217 253.657 210.626C251.423 208.068 248.003 210.391 247.669 213.105C247.816 211.861 247.748 212.605 247.669 213.282C247.483 214.262 247.307 215.33 247.091 216.349C246.297 220.2 245.278 224.003 244.151 227.766C240.055 241.486 234.694 255.206 227.295 267.564C216.515 285.527 199.63 298.865 178.981 303.206C175.229 304.127 171.367 304.529 167.505 304.402C164.134 304.245 162.547 308.655 164.801 310.919C187.687 333.678 213.474 353.32 241.495 369.337C279.715 391.259 321.15 406.949 363.594 418.337C393.699 426.422 424.53 432.606 455.567 435.644C459.006 435.977 459.83 430.146 456.39 429.568L456.36 429.577Z" fill="var(--color-illustration-primary, #382C80)"/>
<path d="M174.914 184.44C177.052 178.398 180.204 172.764 184.234 167.78C188.282 162.762 193.191 159.078 198.385 155.354C199.953 154.327 200.441 152.252 199.495 150.634C198.549 149.017 196.501 148.424 194.838 149.287C181.804 155.589 172.847 169.211 169.132 182.774C168.152 186.527 173.68 187.997 174.914 184.371V184.44Z" fill="var(--color-illustration-primary, #382C80)"/>
<path d="M434.007 532.703C444.232 542.024 455.083 550.636 466.484 558.477C469.761 560.9 473.33 562.902 477.107 564.435C486.035 567.669 495.874 565.837 505.36 566.013C516.346 566.209 527.136 569.169 538.122 569.443C560.662 569.992 582.036 559.212 599.587 545.149C594.957 530.449 589.562 516.001 583.427 501.862C540.455 521.142 492.703 527.144 446.296 519.101" fill="var(--color-illustration-primary, #382C80)"/>
<path d="M431.86 534.839C441.065 543.625 450.827 551.808 461.084 559.339C465.788 562.779 470.531 566.317 476.039 568.365C481.919 570.56 488.377 570.746 494.6 570.541C500.924 570.186 507.265 570.297 513.573 570.874C520.08 571.619 526.528 572.834 533.065 573.451C545.005 574.462 557.021 572.812 568.247 568.62C580.899 563.935 592.296 556.791 602.841 548.451C604.036 547.298 604.493 545.577 604.027 543.983C599.271 528.902 593.73 514.08 587.426 499.579C586.377 497.168 583.114 496.943 581.095 497.923C560.662 507.801 537.446 513.485 514.974 516.062C503.556 517.391 492.058 517.918 480.566 517.64C469.071 517.336 457.723 515.827 446.266 514.7C441.229 514.191 440.288 522.246 445.081 523.442C456.615 526.303 468.689 527.166 480.537 527.46C492.428 527.761 504.324 527.148 516.121 525.627C540.013 522.511 562.436 515.553 584.633 506.37L579.409 504.253C585.338 518.032 590.562 532.125 595.089 546.393L596.275 541.925C579.615 555.272 558.702 566.042 536.789 565.16C524.608 564.67 512.779 561.485 500.529 561.858C494.825 562.034 488.965 562.652 483.281 561.858C477.597 561.064 473.011 558.291 468.365 555.213C457.092 547.711 446.312 539.492 436.094 530.606C433.154 528.077 428.95 532.174 431.802 534.888L431.86 534.839Z" fill="var(--color-illustration-primary, #382C80)"/>
<path d="M437.956 382.596L423.913 460.104C420.346 479.773 417.053 501.607 426.588 518.728C434.712 533.379 450.304 540.788 465.416 545.051C502.684 555.403 542.439 551.922 577.342 535.251C582.908 532.605 588.543 529.459 592.306 524.216C598.872 515.043 598.274 502.058 596.726 490.494C590.689 445.414 579.811 410.82 571.246 377.059" fill="var(--color-illustration-base, #FFFFFF)"/>
<path d="M434.957 381.773L424.971 435.986C421.933 452.47 418.003 469.101 417.063 485.878C416.22 500.843 418.738 516.101 428.558 527.91C437.378 538.504 450.539 544.57 463.505 548.353C495.054 557.411 528.598 556.772 559.78 546.521C567.46 544.046 574.932 540.966 582.124 537.309C588.582 533.977 594.531 529.42 597.804 522.765C604.762 508.693 601.087 491.621 598.725 476.872C593.257 442.69 583.663 409.526 574.96 376.089C573.716 371.297 566.366 373.325 567.551 378.127C574.304 405.371 582.193 432.321 587.622 459.879C589.164 467.68 590.523 475.5 591.699 483.34C592.806 490.71 593.953 498.158 593.727 505.625C593.521 512.573 591.855 519.669 586.759 524.686C581.663 529.704 574.578 532.526 568.188 535.143C539.606 546.996 508.16 550.15 477.793 544.208C464.877 541.611 451.392 537.75 440.788 529.586C429.254 520.707 424.266 507.399 423.844 493.15C423.315 475.637 427.647 458.085 430.704 440.955L440.955 383.38C441.651 379.46 435.683 377.794 434.957 381.734V381.773Z" fill="var(--color-illustration-primary, #382C80)"/>
<path d="M474.52 395.816C466.574 383.883 463.672 369.291 466.445 355.225C467.601 349.511 469.865 343.749 474.285 339.946C477.342 337.31 481.194 335.821 484.986 334.458C491.298 332.195 497.795 330.156 504.498 329.97C511.201 329.784 518.218 331.675 523.001 336.35C528.204 341.416 530.135 348.953 530.841 356.175C531.703 364.78 531.125 373.707 527.734 381.655C524.343 389.603 517.924 396.512 509.663 399.06" fill="var(--color-illustration-base, #FFFFFF)"/>
<path d="M477.029 394.375C471.158 385.113 468.261 374.276 468.728 363.319C468.983 358.008 469.953 352.353 472.491 347.639C475.206 342.573 479.626 340.025 484.878 338.104C495.139 334.36 508.947 330.519 518.679 337.692C527.254 344.013 527.881 357.772 527.185 367.425C526.342 379.127 520.413 391.455 508.653 395.473C504.067 397.041 506.007 404.293 510.672 402.794C523.128 398.678 531.35 387.457 533.976 374.883C536.554 362.545 535.936 346.257 527.812 335.958C518.649 324.403 502.803 324.962 490.082 329.147C483.712 331.234 476.637 333.341 471.599 337.967C466.993 342.19 464.553 348.364 463.348 354.372C460.369 369.267 463.521 384.734 472.089 397.276C474.147 400.275 479.008 397.541 476.989 394.395L477.029 394.375Z" fill="var(--color-illustration-primary, #382C80)"/>
<path d="M479.018 342.22V368.808C479.018 377.912 480.919 387.967 493.169 389.799C498.694 390.63 504.302 388.948 508.457 385.213C511.001 382.614 512.819 379.394 513.73 375.873C517.532 362.996 513.935 349.364 515.337 336.125" fill="var(--color-illustration-base, #FFFFFF)"/>
<path d="M476.274 342.22C476.274 349.315 475.922 356.4 475.794 363.486C475.716 368.386 475.471 373.286 476.461 378.068C478.303 386.986 485.134 392.827 494.179 393.748C506.076 394.944 515.092 386.78 518.022 375.765C519.718 369.385 519.816 362.702 519.6 356.165C519.385 349.629 519.414 342.778 518.787 336.154C518.434 332.39 513.103 331.254 511.927 335.232C507.889 349.129 519.679 387.104 494.689 386.192C487.113 385.898 483.37 380.469 482.517 373.452C481.958 368.876 482.184 364.162 482.115 359.556C482.027 353.803 481.772 348.041 481.753 342.279C481.753 338.741 476.274 338.731 476.255 342.279L476.274 342.22Z" fill="var(--color-illustration-primary, #382C80)"/>
<path d="M472.678 322.62C466.254 320.835 460.42 317.375 455.773 312.594C453.029 309.713 450.726 306.175 450.726 302.334C450.726 298.492 453.734 294.494 457.86 294.239C455.43 291.642 452.96 288.977 451.598 285.782C450.236 282.587 450.187 278.677 452.402 275.923C454.616 273.169 459.467 272.277 462.113 274.678C473.109 253.118 497.256 237.938 522.824 236.458C530.263 236.047 538.034 236.791 544.384 240.378C550.735 243.965 555.419 250.825 554.322 257.695C552.95 266.28 543.806 271.68 535.3 275.217C541.464 273.718 547.824 278.912 548.814 284.772C549.804 290.633 546.668 296.532 542.444 300.962C538.22 305.392 520.08 321.738 515.425 325.805" fill="var(--color-illustration-primary, #382C80)"/>
<path d="M473.54 319.68C468.085 317.934 463.138 314.887 459.124 310.801C457.164 308.841 455.057 306.293 454.675 303.431C454.391 301.285 455.449 298.443 457.909 298.139C461.153 297.738 463.074 294.219 460.634 291.564C458.193 288.908 454.754 285.625 454.636 281.675C454.509 278.49 457.302 275.795 460.251 278C461.819 279.196 464.583 278.304 465.436 276.648C473.187 261.448 487.241 250.002 503.244 244.308C511.498 241.282 520.262 239.888 529.047 240.202C537.515 240.594 548.647 244.053 550.607 253.618C552.567 263.183 540.749 269.112 533.546 272.169C529.567 273.855 532.566 279.372 536.309 278.716C539.475 278.147 542.189 280.029 543.806 282.636C545.698 285.693 545.227 289.27 543.738 292.436C541.611 296.905 537.701 300.168 534.134 303.461C526.999 310.046 519.728 316.407 512.848 323.247C509.908 326.138 513.916 331.763 517.366 329.127C526.777 321.758 535.691 313.777 544.051 305.235C549.618 299.639 554.341 292.034 552.705 283.822C551.068 275.609 542.473 270.249 534.408 271.866L536.309 278.775C544.972 275.119 555.086 269.955 557.673 260.076C560.427 249.531 552.626 239.81 543.355 235.86C533.105 231.49 521.051 232.254 510.388 234.577C500.142 236.821 490.444 241.082 481.86 247.111C472.277 253.743 464.391 262.539 458.84 272.787L464.789 272.022C462.059 269.848 458.461 269.094 455.088 269.988C451.715 270.882 448.963 273.319 447.668 276.56C444.464 284.468 450.02 291.564 455.136 297.032L457.86 290.456C448.001 291.711 444.366 302.108 449.236 310.252C454.107 318.396 463.064 323.325 471.855 325.668C475.716 326.697 477.264 320.924 473.491 319.699L473.54 319.68Z" fill="var(--color-illustration-primary, #382C80)"/>
<path d="M497.854 347.267C513.357 347.198 526.058 336.369 530.125 324.639C533.967 313.574 535.319 299.07 529.273 288.545C521.237 274.551 502.225 271.562 487.564 274.766C474.687 277.579 465.396 282.822 462.691 296.718C459.359 313.829 464.387 332.165 479.253 342.239" fill="var(--color-illustration-base, #FFFFFF)"/>
<path d="M497.854 350.334C513.808 350.089 528.469 339.78 533.575 324.57C538.475 309.87 538.808 290.515 526.205 279.441C515.357 269.906 499.334 268.455 485.731 271.542C479.077 273.051 472.384 275.541 467.317 280.264C462.25 284.988 459.644 291.74 458.634 298.59C455.949 316.612 462.035 334.919 477.372 345.454C481.292 348.178 484.986 341.769 481.125 339.035C470.277 331.352 465.161 318.357 465.445 305.333C465.592 299.453 466.523 293.083 469.992 288.153C473.148 283.665 478.195 281.127 483.311 279.539C494.149 276.187 506.948 275.756 517.121 281.43C529.861 288.555 531.732 303.843 528.881 316.975C527.303 324.217 524.441 330.548 518.934 335.654C513.183 340.974 505.686 344.006 497.854 344.18C493.934 344.268 493.885 350.393 497.854 350.324V350.334Z" fill="var(--color-illustration-primary, #382C80)"/>
<path d="M493.14 312.408C495.648 313.357 498.449 313.135 500.774 311.801C502.235 310.978 505.851 307.704 506.409 311.673C506.474 313.082 505.839 314.431 504.714 315.28C502.662 317.061 499.908 317.808 497.237 317.308C495.1 316.897 492.925 315.26 493.003 313.094" fill="var(--color-illustration-primary, #382C80)"/>
<path d="M492.748 313.859C496.56 315.368 499.941 314.133 503.254 312.163C503.577 311.967 504.557 311.36 504.704 311.448C504.851 311.536 504.096 313.359 503.91 313.594C503.392 314.184 502.749 314.653 502.029 314.966C500.069 315.946 494.992 316.367 494.679 313.094C494.483 310.987 491.2 310.928 491.337 313.094C491.866 321.522 505.488 320.679 507.869 313.731C508.742 311.203 507.419 307.704 504.332 308.135C503.037 308.455 501.827 309.05 500.784 309.88C498.675 311.35 496.002 311.755 493.552 310.977C491.641 310.438 490.994 313.192 492.748 313.917V313.859Z" fill="var(--color-illustration-primary, #382C80)"/>
<path d="M491.297 289.3C490.464 291.466 490.445 293.984 490.21 296.278C490.033 298.061 489.504 300.198 490.21 301.903C491.19 304.441 494.62 305.117 496.09 302.657C497.324 300.57 494.13 298.737 492.865 300.766C493.437 300.023 493.735 299.106 493.708 298.169C493.787 297.062 493.875 295.964 493.953 294.857C494.193 293.012 494.193 291.144 493.953 289.3C493.679 287.879 491.797 288.193 491.376 289.3H491.297Z" fill="var(--color-illustration-primary, #382C80)"/>
<path d="M501.823 284.4C503.732 283.731 505.749 283.422 507.771 283.488C508.685 283.511 509.596 283.602 510.496 283.763C510.976 283.851 513.132 284.743 512.662 283.086C511.794 282.958 510.936 282.771 510.094 282.528C509.313 282.142 508.487 281.856 507.634 281.675C505.929 281.381 504.185 281.744 502.489 281.391C500.451 280.979 499.549 284.027 501.617 284.537C503.214 284.828 504.836 284.952 506.458 284.909C508.026 284.988 509.31 285.889 510.849 286.154C512.681 286.448 515.386 286.33 515.21 283.812C515.033 281.469 512.524 280.872 510.643 280.666C507.418 280.248 504.14 280.614 501.088 281.734C499.432 282.332 500.108 284.978 501.823 284.4Z" fill="var(--color-illustration-primary, #382C80)"/>
<path d="M502.362 291.338C503.97 291.471 505.564 291.747 507.124 292.162C508.069 292.41 509.039 291.857 509.306 290.917C509.572 289.978 509.038 288.997 508.104 288.712C506.25 288.149 504.328 287.843 502.391 287.801C500.108 287.722 500.137 291.182 502.391 291.338H502.362Z" fill="var(--color-illustration-primary, #382C80)"/>
<path d="M487.26 281.714C484.053 280.584 480.62 280.247 477.254 280.734C475.696 280.921 473.266 281.097 473.403 283.243C473.53 285.105 475.637 285.605 477.156 285.772C480.422 285.971 483.697 285.929 486.956 285.644C489.044 285.556 489.073 282.381 486.956 282.381C484.467 282.381 481.978 282.459 479.489 282.538C478.869 282.577 478.247 282.577 477.627 282.538C477.324 282.529 477.022 282.496 476.725 282.44C476.245 282.234 476.176 282.283 476.539 282.587L476.382 283.812C476.186 284.164 477.411 283.812 477.715 283.812C478.532 283.673 479.357 283.578 480.184 283.527C482.347 283.409 484.513 283.705 486.564 284.4C488.26 284.968 488.965 282.322 487.299 281.734L487.26 281.714Z" fill="var(--color-illustration-primary, #382C80)"/>
<path d="M485.957 287.801C484.02 287.843 482.097 288.149 480.243 288.712C479.309 288.997 478.775 289.978 479.042 290.917C479.309 291.857 480.279 292.41 481.223 292.162C482.783 291.746 484.377 291.47 485.986 291.338C488.23 291.182 488.269 287.722 485.986 287.801H485.957Z" fill="var(--color-illustration-primary, #382C80)"/>
<path d="M489.22 403.872C492.974 403.872 492.983 397.992 489.22 397.992C485.457 397.992 485.447 403.872 489.22 403.872Z" fill="var(--color-illustration-primary, #382C80)"/>
<path d="M479.871 551.568C479.528 567.424 479.871 583.31 480.851 599.137C481.321 606.781 481.939 614.435 482.899 622.039C483.34 625.509 483.82 628.517 486.417 631.055C488.514 633.104 491.68 634.231 492.905 637.014C494.59 640.816 501.313 638.053 499.706 634.152C498.432 631.095 496.462 629.301 493.826 627.429C490.886 625.381 490.269 623.745 489.759 620.148C488.701 612.622 487.975 605.046 487.378 597.471C486.172 582.202 485.525 566.885 485.545 551.568C485.545 547.932 479.959 547.932 479.89 551.568H479.871Z" fill="var(--color-illustration-primary, #382C80)"/>
<path d="M547.118 576.646C554.155 586.446 567.541 594.178 579.84 590.621C583.623 589.533 582.918 583.761 578.86 583.761C568.766 583.761 559.006 582.085 552.4 573.559C550.029 570.491 544.698 573.402 547.059 576.685L547.118 576.646Z" fill="var(--color-illustration-primary, #382C80)"/>
<path d="M411.516 570.354C418.808 573.339 426.897 573.757 434.458 571.54C438.956 570.168 437.104 563.426 432.498 564.494C426.159 566.112 419.493 565.915 413.26 563.925C409.125 562.563 407.606 568.825 411.496 570.335L411.516 570.354Z" fill="var(--color-illustration-primary, #382C80)"/>
<path d="M735.651 248.14L741.394 243.514C742.864 242.329 742.628 239.8 741.394 238.565C740.01 237.24 737.828 237.24 736.445 238.565L730.878 243.367C729.574 244.691 729.574 246.816 730.878 248.14C732.212 249.418 734.317 249.418 735.651 248.14Z" fill="var(--color-illustration-primary, #382C80)"/>
<path d="M744.549 267.034C747.646 266.284 750.467 264.669 752.683 262.379C755.839 259.184 750.909 254.255 747.783 257.479C746.389 258.881 744.652 259.894 742.746 260.419C738.512 261.644 740.286 268.034 744.569 267.015L744.549 267.034Z" fill="var(--color-illustration-primary, #382C80)"/>
<path d="M759.7 297.306C763.394 296.267 766.511 293.239 768.373 289.986C769.085 288.899 769.139 287.508 768.515 286.368C767.891 285.228 766.689 284.526 765.39 284.54C764.09 284.555 762.905 285.285 762.307 286.438C760.964 288.398 759.112 289.486 756.966 290.828C753.614 292.916 755.731 298.423 759.7 297.306Z" fill="var(--color-illustration-primary, #382C80)"/>
<path d="M783.808 318.964C785.405 317.416 787.003 315.877 788.561 314.29C789.85 312.891 789.807 310.725 788.463 309.379C787.12 308.033 784.954 307.986 783.553 309.272C781.966 310.84 780.427 312.438 778.879 314.035C777.783 315.424 777.9 317.412 779.15 318.663C780.401 319.914 782.39 320.031 783.779 318.935L783.808 318.964Z" fill="var(--color-illustration-primary, #382C80)"/>
<path d="M253.824 247.219L257.548 251.972C258.655 253.393 261.243 253.226 262.389 251.972C263.675 250.618 263.675 248.494 262.389 247.14L258.567 242.466C257.256 241.16 255.135 241.16 253.824 242.466C252.563 243.799 252.563 245.885 253.824 247.219Z" fill="var(--color-illustration-primary, #382C80)"/>
<path d="M246.239 271.777L250.865 277.52C252.031 278.971 254.677 278.824 255.872 277.52C257.216 276.118 257.216 273.905 255.872 272.503L251.07 266.936C249.729 265.62 247.581 265.62 246.239 266.936C244.942 268.29 244.942 270.424 246.239 271.777Z" fill="var(--color-illustration-primary, #382C80)"/>
<path d="M231.754 297.571C233.558 299.531 235.38 301.491 237.331 303.304C238.897 304.871 241.438 304.871 243.005 303.304C244.572 301.737 244.572 299.197 243.005 297.63C241.182 295.67 239.242 293.857 237.272 292.054C235.713 290.773 233.437 290.884 232.011 292.31C230.585 293.737 230.474 296.013 231.754 297.571Z" fill="var(--color-illustration-primary, #382C80)"/>
<path d="M206.529 317.142L209.352 319.974C210.241 320.953 211.597 321.364 212.88 321.042C214.163 320.72 215.164 319.718 215.486 318.435C215.808 317.152 215.398 315.796 214.418 314.907L211.586 312.085C210.179 310.752 207.967 310.782 206.597 312.152C205.226 313.522 205.196 315.735 206.529 317.142Z" fill="var(--color-illustration-primary, #382C80)"/>
<path d="M288.124 49.2586C288.282 48.7078 288.652 48.2423 289.153 47.965C290.133 47.573 291.064 48.553 291.662 49.4056L306.803 71.1714C307.197 71.8356 307.736 72.4019 308.381 72.8276C309.038 73.1443 309.758 73.3085 310.488 73.3078C318.602 73.9154 326.903 72.2396 335.223 72.6806C337.379 72.7982 340.054 73.3372 340.623 75.4344C340.779 76.1996 340.739 76.9921 340.505 77.7374C339.692 81.0106 324.962 100.454 325.119 100.689C327.246 103.845 328.481 107.5 329.696 111.097C331.656 116.977 334.782 122.857 335.831 128.972C335.953 129.441 335.953 129.933 335.831 130.403C335.341 131.755 333.41 131.637 332.028 131.255C323.581 128.942 315.878 125.189 307.675 122.661C306.271 122.064 304.714 121.924 303.226 122.259C302.058 122.797 301.046 123.623 300.286 124.66C294.094 131.66 286.882 137.686 278.893 142.535C278.505 142.828 278.036 142.996 277.55 143.015C276.345 142.937 275.992 141.359 275.982 140.163L275.512 110.94C275.577 110.083 275.404 109.225 275.012 108.46C274.573 107.89 274.01 107.427 273.365 107.108L255.559 96.5436C247.719 91.9278 257.078 90.2128 261.537 89.0662C265.996 87.9196 270.357 86.6946 274.728 85.3618C275.6 85.1383 276.436 84.7883 277.207 84.323C279.363 82.8824 279.931 80.0208 280.382 77.463C282.054 67.9106 284.62 58.5365 288.046 49.4644C288.076 49.3975 288.102 49.3287 288.124 49.2586Z" fill="var(--color-illustration-secondary, #7F72FF)"/>
<path d="M434.105 36.5385C434.388 36.0487 434.859 35.695 435.408 35.5585C436.437 35.4017 437.133 36.5385 437.505 37.5185L447.158 62.2047C447.39 62.9354 447.781 63.6052 448.305 64.1647C448.879 64.6302 449.548 64.9647 450.265 65.1447C458.017 67.6241 466.474 67.9279 474.461 70.2995C476.539 70.9169 479.008 72.0635 479.077 74.2195C479.046 75.001 478.82 75.7623 478.42 76.4343C476.872 79.4331 458.017 94.8975 458.115 95.1719C459.448 98.7293 459.791 102.571 460.134 106.364C460.682 112.557 462.348 118.957 461.937 125.17C461.945 125.657 461.823 126.137 461.584 126.561C460.79 127.757 458.948 127.198 457.664 126.503C449.991 122.279 443.376 116.84 435.986 112.469C434.761 111.559 433.279 111.058 431.753 111.038C430.491 111.287 429.314 111.854 428.333 112.685C420.676 118.051 412.255 122.234 403.352 125.091C402.905 125.285 402.409 125.337 401.931 125.238C400.785 124.886 400.814 123.278 401.079 122.093L407.468 93.5451C407.732 92.7302 407.762 91.8579 407.557 91.0265C407.263 90.3848 406.824 89.8209 406.273 89.3801L391.406 74.9741C384.879 68.6629 394.346 69.1725 398.972 69.0941C403.597 69.0157 408.105 68.8491 412.692 68.5649C413.593 68.5589 414.489 68.4168 415.348 68.1435C417.778 67.2419 418.993 64.5861 420.022 62.2145C423.876 53.3022 428.558 44.7715 434.007 36.7345L434.105 36.5385Z" fill="var(--color-illustration-secondary, #7F72FF)"/>
<path d="M576.44 35.4112C576.76 34.9349 577.258 34.6067 577.822 34.4998C578.86 34.4312 579.458 35.6464 579.782 36.646L587.445 62.028C587.616 62.7811 587.95 63.4871 588.425 64.0958C588.96 64.5937 589.595 64.9713 590.287 65.2032C597.814 68.2902 606.222 69.2605 613.993 72.2593C616.022 73.0335 618.384 74.376 618.286 76.5418C618.194 77.3192 617.908 78.0608 617.453 78.6978C615.64 81.5398 595.638 95.4852 595.716 95.7694C596.765 99.4249 596.804 103.276 596.843 107.079C596.902 113.302 598.049 119.819 597.147 125.973C597.114 126.455 596.959 126.92 596.696 127.325C595.805 128.462 594.011 127.757 592.776 126.963C585.456 122.151 579.301 116.183 572.285 111.283C571.04 110.411 569.688 109.499 568.178 109.529C566.898 109.676 565.677 110.148 564.631 110.901C556.574 115.64 547.848 119.138 538.749 121.279C538.286 121.42 537.791 121.42 537.328 121.279C536.211 120.838 536.348 119.221 536.72 118.074L545.354 90.1246C545.675 89.3298 545.774 88.4624 545.638 87.6158C545.405 86.9374 545.016 86.3231 544.502 85.8224C539.928 80.648 535.355 75.4704 530.782 70.2894C524.764 63.4294 534.182 64.7426 538.788 65.0268C543.394 65.3111 547.912 65.507 552.508 65.5854C553.406 65.6466 554.308 65.5739 555.184 65.3698C557.683 64.6642 559.104 62.126 560.319 59.8328C564.875 51.2626 570.23 43.1416 576.312 35.5778C576.361 35.5288 576.44 35.4798 576.44 35.4112Z" fill="var(--color-illustration-secondary, #7F72FF)"/>
<path d="M709.377 57.863C709.741 57.4214 710.267 57.1457 710.837 57.0986C711.876 57.0986 712.347 58.402 712.552 59.4212L717.658 85.4598C717.751 86.2246 718.015 86.9583 718.432 87.606C718.911 88.1604 719.507 88.6021 720.177 88.8996C727.36 92.7118 735.622 94.5248 743.06 98.2684C745.02 99.2484 747.225 100.816 746.901 102.963C746.735 103.725 746.377 104.434 745.863 105.021C743.805 107.696 722.499 119.564 722.548 119.848C723.234 123.592 722.891 127.433 722.548 131.216C721.99 137.419 722.49 144.015 720.98 150.052C720.897 150.529 720.695 150.977 720.392 151.355C719.412 152.384 717.678 151.512 716.561 150.6C709.701 145.083 704.213 138.556 697.725 132.96C696.578 131.98 695.324 130.922 693.805 130.804C692.523 130.812 691.264 131.149 690.15 131.784C681.662 135.7 672.633 138.317 663.366 139.546C662.893 139.659 662.396 139.622 661.945 139.438C660.877 138.889 661.191 137.302 661.651 136.194L673.019 109.244C673.425 108.487 673.612 107.632 673.558 106.775C673.387 106.072 673.051 105.42 672.578 104.874L660.534 88.0568C655.222 80.6774 664.454 82.8726 669.021 83.6076C673.588 84.3426 678.047 84.9894 682.584 85.5676C683.472 85.7111 684.376 85.7276 685.269 85.6166C687.827 85.1658 689.493 82.7648 690.934 80.6088C696.307 72.5373 702.43 64.9906 709.22 58.0688C709.265 57.9947 709.317 57.9257 709.377 57.863Z" fill="var(--color-illustration-secondary, #7F72FF)"/>
<path d="M509.8 551.254C508.576 571.735 509.407 592.286 512.279 612.602C514.876 631.535 518.943 650.626 526.401 668.295C530.733 678.536 536.946 687.954 540.484 698.528C544.159 709.514 544.707 721.352 545.452 732.828C546.863 754.388 547.157 776.085 548.765 797.675C550.725 823.615 554.262 849.919 563.239 874.458C564.151 876.957 568.139 875.947 567.267 873.35C560.277 851.04 555.719 828.04 553.674 804.75C551.607 782.936 551.048 761.033 549.754 739.179C549.127 728.477 548.618 717.619 546.599 707.044C544.433 695.725 539.112 685.857 533.859 675.684C525.137 658.701 520.217 640.081 516.924 621.363C512.829 598.233 511.425 574.707 512.74 551.254C512.857 549.362 509.927 549.372 509.8 551.254Z" fill="var(--color-illustration-primary, #382C80)"/>
<path d="M532.34 551.254C531.242 597.941 546.883 642.57 559.711 686.798C562.354 695.492 564.514 704.325 566.179 713.258C568.521 726.89 569.119 740.698 569.825 754.526C570.854 774.214 572.608 793.863 574.499 813.482C576.597 835.131 578.753 856.818 581.663 878.368C582.006 880.916 586.495 880.328 586.191 877.761C581.575 839.541 577.263 801.262 574.921 762.865C573.51 739.639 572.667 716.707 566.522 694.138C560.907 673.48 553.782 653.252 548 632.633C540.572 606.173 534.78 578.89 535.152 551.293C535.091 550.562 534.48 550 533.746 550C533.012 550 532.401 550.562 532.34 551.293V551.254Z" fill="var(--color-illustration-primary, #382C80)"/>
<path d="M576.165 535.545C583.025 553.694 587.994 572.52 592.561 591.346C598.186 614.591 602.939 638.062 607.182 661.612C616.002 710.719 622.951 760.317 626.929 810.062C628.625 831.279 629.801 852.604 629.301 873.889C629.242 876.702 633.544 876.692 633.662 873.889C634.436 855.27 633.348 836.581 631.976 818.03C630.212 794.235 627.625 770.499 624.548 746.842C618.07 697.009 609.613 647.245 597.784 598.382C592.58 576.91 586.769 555.448 578.821 534.819C578.194 533.183 575.538 533.839 576.165 535.545Z" fill="var(--color-illustration-primary, #382C80)"/>
<path d="M495.306 636.494C473.334 672.833 440.044 700.459 415.426 734.828C392.425 766.942 374.972 802.448 357.459 837.728C350.089 852.584 342.965 868.206 333.224 881.7C331.499 884.091 335.438 886.336 337.144 884.003C345.817 872.243 352.079 858.406 358.586 845.391C366.279 830.015 373.766 814.551 381.734 799.331C391.681 780.309 402.314 761.562 414.348 743.795C426.382 726.027 440.475 709.926 454.734 693.864C470.414 676.175 485.496 658.211 497.717 637.876C498.106 637.205 497.878 636.345 497.207 635.955C496.536 635.566 495.676 635.794 495.286 636.465L495.306 636.494Z" fill="var(--color-illustration-primary, #382C80)"/>
<path d="M484.134 608.329C472.57 626.195 461.672 644.364 447.619 660.436C433.732 676.312 419.277 691.384 407.223 708.769C395.591 725.567 385.075 743.167 374.315 760.533C363.372 778.166 352.543 795.855 341.828 813.6C330.068 833.122 318.308 852.692 307.528 872.753C306.166 875.281 309.958 877.516 311.379 875.007C331.633 839.387 352.539 804.156 374.099 769.314C384.781 752.007 395.238 734.524 406.439 717.56C412.284 708.59 418.597 699.934 425.353 691.629C432.213 683.319 439.583 675.479 446.678 667.384C454.272 658.843 461.282 649.8 467.66 640.316C474.295 630.33 480.312 619.952 486.76 609.848C487.799 608.212 485.212 606.712 484.163 608.329H484.134Z" fill="var(--color-illustration-primary, #382C80)"/>
<path d="M481.007 559.447C453.332 595.707 427.656 633.368 402.686 671.471C375.246 713.323 348.786 755.79 323.306 798.871C316.884 809.755 310.546 820.695 304.294 831.691C298.629 841.648 292.74 851.575 287.634 861.865C286.438 864.305 289.907 866.402 291.319 864.011C302.099 845.891 311.948 827.193 322.581 808.984C335.02 787.888 347.636 766.903 360.428 746.029C386.614 703.419 413.564 661.239 441.768 619.942C455.371 600.038 469.208 580.252 483.732 561.044C484.967 559.417 482.213 557.849 480.998 559.447H481.007Z" fill="var(--color-illustration-primary, #382C80)"/>
<path d="M450.285 542.816C426.386 580.67 402.99 618.844 380.097 657.339C354.8 699.806 329.999 742.599 305.695 785.719C294.131 806.299 282.43 826.81 271.572 847.743C270.268 850.271 274.022 852.496 275.404 849.987C297.062 810.787 318.729 771.587 341.015 732.799C365.632 689.914 390.632 647.248 416.014 604.801C428.117 584.544 440.24 564.298 452.764 544.306C453.744 542.728 451.264 541.287 450.285 542.855V542.816Z" fill="var(--color-illustration-primary, #382C80)"/>
<path d="M556.203 547.128C568.482 586.495 575.274 627.763 581.957 668.374C589.699 715.414 595.952 762.66 601.165 810.023C602.42 821.371 603.599 832.726 604.703 844.088C605.683 854.015 606.251 864.011 607.565 873.89C607.908 876.428 611.759 876.634 611.69 873.89C611.23 855.162 608.584 836.277 606.555 817.667C604.066 794.755 601.286 771.888 598.215 749.067C591.924 702.027 584.809 654.987 574.94 608.525C570.501 587.602 565.542 566.748 558.937 546.393C558.378 544.668 555.664 545.413 556.203 547.148V547.128Z" fill="var(--color-illustration-primary, #382C80)"/>
<path d="M707.152 929.534C700.527 923.193 691.472 918.46 684.054 914.226C674.342 908.679 664.865 902.633 660.269 891.833C658.631 887.944 657.32 883.925 656.349 879.818C644.799 884.996 632.769 889.03 620.432 891.863C621.461 897.341 622.392 903.319 619.824 908.229C615.993 915.481 606.477 916.97 598.343 917.156C594.207 917.254 590.065 917.254 585.916 917.156C583.515 917.088 574.058 915.118 572.412 916.686C568.992 919.969 574.813 940.304 575.901 944.528C576.626 947.35 577.537 950.28 579.605 952.309C581.405 953.872 583.546 954.99 585.858 955.572C600.019 960.1 615.258 960.561 630.026 960.982C642.355 961.335 654.595 962.325 666.913 961.266C681.613 959.992 697.548 960.482 709.808 952.103C711.717 950.951 713.281 949.305 714.336 947.34C715.904 943.959 714.796 939.873 712.885 936.668C711.302 934.045 709.373 931.645 707.152 929.534Z" fill="var(--color-illustration-primary, #382C80)"/>
<path d="M709.984 926.711C701.164 918.44 690.09 913.55 679.967 907.111C675.385 904.411 671.29 900.959 667.854 896.9C663.738 891.696 661.798 885.14 660.24 878.779C659.573 876.045 656.623 875.389 654.36 876.388C643.103 881.37 631.398 885.272 619.403 888.04C617.169 888.56 616.228 890.902 616.61 892.94C617.472 897.595 618.678 903.505 615.552 907.64C613.141 910.796 608.907 911.992 605.183 912.629C596.834 914.05 588.053 913.344 579.703 912.374C576.763 912.041 573.029 911.472 570.442 913.207C567.855 914.941 567.502 917.901 567.394 920.635C567.218 927.162 569.08 933.944 570.677 940.235C572.432 947.144 573.882 954.641 581.007 957.964C590.807 962.53 602.714 963.549 613.347 964.275C636.107 965.998 658.965 965.972 681.721 964.196C692.609 963.275 704.085 961.433 713.081 954.69C723.861 946.625 717.844 934.463 710.014 926.76C706.339 923.144 700.674 928.799 704.359 932.415C707.231 935.237 711.013 939.128 711.141 943.45C711.268 947.771 705.623 950.31 702.262 951.789C693.971 955.474 684.622 956.052 675.714 956.689C654.723 957.971 633.668 957.804 612.7 956.19C607.681 955.867 602.685 955.259 597.735 954.367C593.237 953.524 587.024 952.799 583.221 950.065C579.419 947.33 578.655 939.412 577.616 935.051C576.92 932.111 576.263 929.171 575.803 926.162C575.625 924.908 575.511 923.646 575.46 922.38C575.549 921.33 575.582 920.277 575.558 919.224L575.666 918.832C575.541 919.295 575.213 919.677 574.774 919.871C574.774 920.341 573.676 919.508 575.274 920.008C576.528 920.41 578.4 920.165 579.733 920.322C583.044 920.778 586.378 921.062 589.719 921.174C598.676 921.311 609.319 921.792 617.159 916.705C626.381 910.747 626.116 900.447 624.323 890.784L621.53 895.684C634.19 892.714 646.538 888.543 658.407 883.229L652.527 880.837C654.124 887.345 656.202 894.116 660.073 899.673C663.499 904.407 667.732 908.501 672.578 911.766C682.897 919.028 695.01 923.624 704.33 932.346C708.083 935.874 713.748 930.22 709.984 926.711Z" fill="var(--color-illustration-primary, #382C80)"/>
<path d="M177.874 881.955C186.508 878.956 196.621 878.417 205.079 877.662C216.143 876.682 227.207 875.114 235.87 867.225C238.968 864.371 241.824 861.263 244.406 857.935C252.61 867.438 261.736 876.104 271.65 883.807C268.426 888.344 265.055 893.372 265.329 898.909C265.731 907.092 273.669 912.394 280.901 915.951C284.586 917.761 288.32 919.469 292.103 921.076C294.298 922.056 303.628 924.154 304.441 926.261C306.146 930.661 292.367 946.703 289.633 950.084C287.791 952.348 285.713 954.632 283.028 955.612C280.756 956.276 278.36 956.4 276.031 955.974C261.399 954.191 247.464 948.262 234.038 942.509C222.797 937.697 211.38 933.513 200.718 927.427C187.978 920.145 173.493 913.971 165.987 901.271C164.75 899.427 164.032 897.284 163.909 895.067C163.909 891.343 166.633 888.099 169.701 885.983C172.232 884.279 174.981 882.925 177.874 881.955Z" fill="var(--color-illustration-primary, #382C80)"/>
<path d="M178.942 885.816C191.172 881.719 204.197 882.464 216.77 880.191C222.516 879.255 228.039 877.262 233.058 874.311C238.653 870.861 243.181 865.873 247.238 860.767H241.584C249.816 870.243 258.939 878.907 268.828 886.639L268.2 881.788C263.095 889.02 258.861 897.468 263.3 906.151C267.054 913.54 275.06 917.636 282.254 921.008C285.697 922.75 289.248 924.269 292.887 925.555C293.68 925.81 301.158 928.681 301.266 928.563C300.864 928.965 300.785 927.319 300.629 927.211C300.472 927.103 300.825 927.113 300.462 927.789C300.011 928.652 299.707 929.592 299.227 930.465C297.644 933.224 295.876 935.872 293.935 938.393C292.348 940.519 290.691 942.577 289.035 944.626C287.222 946.84 285.429 949.682 282.989 951.201C279.353 953.465 273.777 951.711 269.906 950.898C264.694 949.764 259.564 948.284 254.549 946.468C244.916 943.048 235.596 938.795 226.129 934.894C216.946 931.108 207.984 926.805 199.287 922.007C191.094 917.48 182.48 913.334 175.62 906.866C172.768 904.161 167.78 899.33 167.907 895.106C168.025 890.108 175.061 887.266 178.922 885.855C183.724 884.111 181.647 876.378 176.796 878.142C168.035 881.318 156.882 888.383 160.665 899.399C163.605 908.023 171.621 914.716 178.962 919.596C196.513 931.278 216.064 939.196 235.37 947.438C245.866 951.897 256.489 956.258 267.71 958.649C272.806 959.727 278.98 961.237 284.086 959.502C288.075 958.15 290.77 954.994 293.357 951.858C297.521 947.026 301.368 941.929 304.872 936.599C307.812 931.954 311.164 925.163 305.019 921.556C301.775 919.655 297.943 918.901 294.415 917.705C289.415 915.903 284.584 913.66 279.98 911.002C276.06 908.816 271.513 905.896 269.876 901.466C267.789 895.802 272.013 890.245 275.109 885.865C276.028 884.297 275.77 882.306 274.482 881.024C264.594 873.292 255.471 864.628 247.238 855.152C245.925 853.642 242.858 853.535 241.584 855.152C237.86 859.836 233.744 864.638 228.569 867.725C223.669 870.665 218.113 872.017 212.536 872.86C200.61 874.673 188.389 874.271 176.815 878.142C171.955 879.72 174.042 887.452 178.942 885.816Z" fill="var(--color-illustration-primary, #382C80)"/>
<path d="M221.161 866.765C225.512 871.293 226.815 875.713 226.992 881.906C227.015 882.801 227.684 883.547 228.571 883.666C229.458 883.785 230.3 883.243 230.559 882.386C232.352 875.771 228.775 867.882 223.219 864.09C221.582 862.982 219.847 865.413 221.161 866.765Z" fill="var(--color-illustration-base, #FFFFFF)"/>
<path d="M210.008 872.4C213.282 875.439 215.157 879.693 215.192 884.16C215.192 885.194 216.03 886.032 217.064 886.032C218.098 886.032 218.936 885.194 218.936 884.16C219.269 878.466 216.349 873.38 211.9 869.97C210.488 868.901 208.724 871.234 210.008 872.41V872.4Z" fill="var(--color-illustration-base, #FFFFFF)"/>
<path d="M200.737 874.36C202.497 877.543 203.663 881.02 204.177 884.621C204.55 887.071 208.381 886.061 207.94 883.582C207.251 879.692 205.748 875.992 203.53 872.723C203.079 871.952 202.087 871.693 201.316 872.145C200.544 872.597 200.286 873.589 200.737 874.36Z" fill="var(--color-illustration-base, #FFFFFF)"/>
<path d="M165.732 892.264C194.451 916.817 227.975 935.111 264.163 945.978C274.645 949.118 285.316 951.59 296.111 953.377C299.051 953.867 300.374 949.34 297.366 948.82C249.973 940.539 205.059 920.753 167.702 890.285C166.33 889.158 164.35 891.088 165.742 892.245L165.732 892.264Z" fill="var(--color-illustration-base, #FFFFFF)"/>
<path d="M707.642 941C685.267 946.44 662.368 949.444 639.346 949.957C616.324 950.259 593.332 948.157 570.746 943.685C568.58 943.274 567.63 946.527 569.825 947.027C615.052 957.444 663.689 955.965 708.436 943.969C709.146 943.668 709.523 942.887 709.317 942.143C709.112 941.4 708.387 940.923 707.623 941.029L707.642 941Z" fill="var(--color-illustration-base, #FFFFFF)"/>
<path d="M664.562 896.057C661.007 899.945 658.294 904.526 656.594 909.512C655.889 911.59 659.201 912.452 659.877 910.424C661.315 905.945 663.682 901.821 666.825 898.321C668.188 896.792 665.953 894.528 664.562 896.057Z" fill="var(--color-illustration-base, #FFFFFF)"/>
<path d="M672.754 904.74C669.928 907.843 668.104 911.726 667.521 915.882C667.306 917.921 670.334 918.097 670.932 916.343C671.857 913.104 673.361 910.06 675.371 907.356C676.841 905.524 674.303 902.897 672.754 904.74Z" fill="var(--color-illustration-base, #FFFFFF)"/>
<path d="M682.202 911.032C679.979 913.704 678.403 916.853 677.596 920.234C677.066 922.606 680.614 923.605 681.241 921.214C681.98 918.316 683.246 915.579 684.975 913.139C686.131 911.532 683.456 909.434 682.202 911.002V911.032Z" fill="var(--color-illustration-base, #FFFFFF)"/>
<path d="M679.722 898.919C679.358 895.16 679.724 891.366 680.8 887.747C681.124 886.698 681.937 883.062 683.27 885.395C684.074 886.786 682.447 890.746 681.839 892.078C681.409 892.862 681.548 893.837 682.182 894.468C682.816 895.1 683.791 895.236 684.573 894.803C685.717 894.194 686.941 893.748 688.209 893.48C689.108 893.295 690.026 893.213 690.943 893.235C691.404 893.137 691.326 893.343 690.698 893.862C690.061 895.94 686.455 897.713 684.691 898.537C682.212 899.693 684.377 903.437 686.857 902.231C690.012 900.693 697.059 895.9 695.226 891.51C693.266 886.933 685.553 889.775 682.555 891.363L685.289 894.087C686.739 890.716 689.562 877.741 681.761 880.171C678.987 881.024 677.978 884.307 677.263 886.767C676.15 890.715 675.817 894.843 676.283 898.919C676.518 901.085 679.909 901.143 679.722 898.919Z" fill="var(--color-illustration-primary, #382C80)"/>
<path d="M207.039 865.462C205.068 863.821 203.606 861.652 202.825 859.209C202.56 858.347 201.933 856.642 202.325 855.799C204.099 851.879 205.981 856.779 206.402 858.073C206.638 858.838 207.3 859.396 208.095 859.499C208.89 859.603 209.672 859.233 210.097 858.553C210.861 857.387 212.654 853.418 213.321 856.465C213.742 858.425 213.242 860.924 212.988 862.855C212.615 865.697 217.084 865.668 217.456 862.855C217.927 859.317 219.044 852.8 214.752 851.095C210.704 849.468 207.029 853.271 206.402 856.975L210.097 856.495C208.95 853.957 207.558 851.311 204.638 850.615C202.373 849.97 199.982 851.107 199.052 853.271C196.818 858.308 200.708 864.874 204.55 867.971C206.284 869.352 208.774 866.991 207.039 865.491V865.462Z" fill="var(--color-illustration-primary, #382C80)"/>
<path d="M790.854 950.957C781.554 948.801 773.548 941.784 770.902 932.494C769.285 926.849 771.989 922.292 777.948 921.714C783.348 921.194 788.375 924.654 792.648 927.594C794.559 928.868 797.048 926.329 795.803 924.438C790.394 916.157 789.316 903.319 799.723 898.37C803.82 896.41 808.749 896.773 811.817 900.33C814.531 903.495 815.276 907.798 812.963 911.345L817.461 911.933C813.463 899.193 817.932 881.896 832.916 879.456C838.796 878.476 845.744 880.191 849.468 885.189C854.574 892.049 852.81 901.614 851.369 909.375C851.136 910.356 851.501 911.383 852.301 911.997C853.101 912.61 854.187 912.697 855.074 912.217C863.894 907.602 875.585 909.023 882.788 916.137C889.991 923.252 891.608 934.855 887.277 943.832C885.924 946.606 890.011 949.046 891.442 946.272C897.086 935.355 895.264 921.263 886.385 912.541C877.506 903.819 863.414 902.192 852.526 907.905L856.23 910.747C857.945 901.281 859.592 890.256 853.29 882.053C848.596 875.977 840.55 873.566 833.122 874.478C814.708 876.751 807.72 897.351 812.738 913.286C813.029 914.215 813.833 914.891 814.799 915.018C815.765 915.144 816.716 914.697 817.236 913.874C820.411 908.974 819.5 902.623 816.099 898.115C812.449 893.31 806.181 891.304 800.419 893.098C785.455 897.37 783.994 915.559 791.795 926.78L794.951 923.625C789.443 920.175 783.269 916.451 776.488 917.647C770.882 918.627 766.247 922.801 766.207 928.74C766.139 941.284 778.585 951.819 789.992 954.083C791.952 954.485 792.863 951.466 790.845 950.996L790.854 950.957Z" fill="var(--color-illustration-primary, #382C80)"/>
<path d="M746.245 942.823C744.594 939.54 745.276 935.565 747.925 933.019C750.575 930.473 754.574 929.95 757.789 931.729C759.837 932.846 761.709 929.701 759.622 928.603C755.076 925.904 749.282 926.606 745.513 930.313C741.744 934.02 740.946 939.801 743.569 944.391C744.471 946.174 747.136 944.606 746.245 942.823Z" fill="var(--color-illustration-primary, #382C80)"/>
<path d="M411.486 951.319C407.129 937.884 404.887 923.853 404.842 909.728L403.862 911.414C408.223 908.611 412.76 920.234 413.848 922.801C415.983 928.003 417.376 933.48 417.984 939.069C418.317 941.931 422.58 942.107 422.58 939.069C422.527 931.863 423.772 924.706 426.255 917.941C427.578 914.396 429.256 910.995 431.263 907.788C432.125 906.386 433.223 904.083 434.801 903.407C436.378 902.731 437.084 904.103 437.692 905.475C438.917 908.209 438.672 911.13 438.397 914.021C438.058 918.192 437.502 922.343 436.731 926.457C435.255 934.267 433.071 941.926 430.204 949.34C429.117 952.172 433.683 953.407 434.752 950.594C438.406 941.013 440.945 931.043 442.317 920.881C443.16 914.53 445.345 903.721 438.711 899.399C431.469 894.666 425.971 907.092 423.756 911.953C419.849 920.442 417.883 929.696 418.003 939.04L422.511 938.432C421.451 930.834 419.073 923.478 415.485 916.696C413.299 912.551 408.752 904.789 402.853 907.464C399.854 908.817 400.991 912.688 401.128 915.363C401.324 919.283 401.716 923.203 402.255 927.123C403.431 935.644 405.4 944.037 408.135 952.192C408.84 954.279 412.133 953.397 411.447 951.28L411.486 951.319Z" fill="var(--color-illustration-primary, #382C80)"/>
<path d="M403.549 941.98C401.393 940.865 399.308 939.618 397.306 938.246C396.218 937.443 394.925 938.374 394.523 939.383C393.455 942.351 393.699 945.632 395.195 948.409C396.691 951.186 399.297 953.195 402.363 953.936C404.774 954.436 405.783 950.927 403.343 950.222C401.354 949.612 399.689 948.236 398.715 946.398C397.741 944.56 397.537 942.41 398.149 940.422L395.826 941.745C397.922 942.624 399.961 943.632 401.932 944.763C403.735 945.743 405.322 943.029 403.529 942.019L403.549 941.98Z" fill="var(--color-illustration-primary, #382C80)"/>
<path d="M772.842 392.964C809.445 390.103 843.863 370.885 865.07 340.858C866.354 339.035 863.394 337.359 862.13 339.123C841.256 367.69 808.151 386.702 772.862 389.779C770.833 389.956 770.804 393.121 772.862 392.964H772.842Z" fill="var(--color-illustration-primary, #382C80)"/>
<path d="M140.771 335.487C151.471 347.371 164.82 356.567 179.736 362.329C181.363 362.957 182.049 360.369 180.452 359.723C166.008 354.047 153.076 345.101 142.673 333.586C141.516 332.302 139.615 334.203 140.771 335.487Z" fill="var(--color-illustration-primary, #382C80)"/>
</svg>
