<svg width="1000" height="1000" viewBox="0 0 1000 1000" fill="none" xmlns="http://www.w3.org/2000/svg">
<path d="M662.523 330.715C670.18 331.932 676.833 336.649 680.514 343.473C684.196 350.296 684.487 358.446 681.3 365.514C694.373 364.329 709.602 363.966 718.158 373.913C725.694 382.674 724.43 396.639 717.785 406.096C711.141 415.553 700.341 421.227 689.444 425.089C693.452 428.862 693.148 435.712 689.973 440.21C686.798 444.708 681.506 447.227 676.253 448.795C657.297 454.218 636.885 449.804 621.863 437.035C622.196 442.846 616.826 447.913 611.083 448.628C605.34 449.344 599.568 446.56 595.246 442.66C585.221 433.595 581.742 418.817 583.898 405.469C586.054 392.121 593.149 380.058 601.538 369.425C615.999 351.036 634.388 336.113 655.359 325.746" fill="#382C80"/>
<path d="M661.622 333.998C674.705 336.457 683.564 350.589 677.302 363.172C675.812 366.181 677.586 370.248 681.3 370.14C694.677 369.748 716.257 367.778 718.403 386.124C720.529 404.293 702.889 415.142 688.16 420.424C684.75 421.639 683.368 425.745 686.024 428.509C690.326 432.987 685.632 439.073 681.486 441.494C675.871 444.777 668.883 446.031 662.455 446.286C648.898 446.849 635.613 442.377 625.156 433.732C622.216 431.233 617.061 432.752 617.12 437.064C617.179 441.376 613.014 444.169 608.986 444.101C603.586 444.012 598.804 440.259 595.501 436.261C588.984 428.421 586.955 417.317 588.269 407.39C589.788 395.953 595.53 385.428 602.185 376.196C608.968 366.901 616.816 358.432 625.567 350.961C635.376 342.657 646.005 335.374 657.29 329.225C661.906 326.667 657.849 320.248 653.233 322.296C628.38 333.282 606.575 352.451 591.561 375.069C583.908 386.594 578.224 400.138 578.547 414.181C578.821 426.588 583.584 439.397 593.463 447.305C599.343 451.98 607.388 455.057 614.817 452.529C621.5 450.245 626.577 444.267 626.577 437.045L618.541 440.377C632.388 452.261 650.654 457.66 668.736 455.214C677.037 454.077 686.376 451.47 692.158 445.061C697.94 438.652 699.273 428.244 692.903 421.649L690.767 429.734C701.047 426.029 711.347 421.012 718.716 412.662C725.469 404.969 729.202 394.846 727.821 384.575C726.439 374.305 719.667 366.485 710.122 362.839C700.841 359.301 689.797 359.585 680.114 361.026L685.808 366.72C691.904 349.589 681.672 330.519 663.444 327.422C659.181 326.697 657.31 333.165 661.631 333.978L661.622 333.998Z" fill="#382C80"/>
<path d="M607.192 391.22C632.839 387.006 659.25 393.954 682.652 405.312C706.055 416.671 727.017 432.312 748.616 446.786C752.409 449.334 756.976 451.951 761.288 450.432C765.1 449.089 767.119 445.012 768.598 441.239C777.467 418.562 784.171 395.091 790.158 371.493C792.824 360.889 796.234 352.01 795.176 340.887C794 328.618 789.776 316.868 787.209 304.872C785.827 298.424 785.964 289.878 792.109 287.409C795.901 285.88 800.282 287.713 803.388 290.349C805.211 291.907 810.611 299.894 813.1 298.983C815.06 298.267 816.305 287.125 816.736 285.429C820.088 272.232 823.681 259.093 827.516 246.014C828.496 242.731 829.535 239.291 832.004 236.929C834.474 234.567 838.864 233.793 841.226 236.233C842.863 237.899 843.118 240.447 843.186 242.789C843.716 253.76 843.234 264.757 841.746 275.639C843.598 268.897 852.643 267.554 859.542 268.779C938.011 282.283 907.2 389.633 892.078 439.025C879.632 479.655 858.66 521.658 820.176 539.661C781.456 557.761 734.073 546.138 699.234 521.384C664.395 496.629 639.454 460.624 615.317 425.344" fill="white"/>
<path d="M607.957 394.013C642.423 388.829 676.047 403.597 704.663 421.394C719.363 430.537 733.201 440.994 747.783 450.324C753.84 454.244 761.562 456.439 767.168 450.51C769.092 448.293 770.587 445.737 771.578 442.974C773.381 438.573 774.998 434.095 776.585 429.616C782.563 412.79 787.503 395.61 791.971 378.323C794.039 370.326 796.656 362.3 798.008 354.137C799.361 345.973 798.635 338.035 796.969 329.97C795.205 321.405 792.559 313.055 790.737 304.49C789.894 300.57 788.551 290.887 794.725 290.466C800.38 290.084 803.545 296.728 807.054 299.943C810.974 303.549 815.746 303.618 817.765 298.159C819.725 292.936 820.058 287.026 821.469 281.626C823.965 272.042 826.578 262.494 829.309 252.981C830.436 249.061 831.269 242.407 834.562 239.633C838.551 236.282 839.168 241.074 839.296 244.014C839.714 254.231 839.238 264.465 837.875 274.6C837.218 279.5 843.823 281.626 845.43 276.677C846.714 272.757 851.938 272.238 855.456 272.316C859.597 272.572 863.685 273.387 867.608 274.737C874.273 276.668 880.488 279.903 885.895 284.253C896.126 292.749 901.898 304.715 904.701 317.524C911.12 346.787 904.701 378.284 897.38 406.812C888.452 441.651 877.78 478.234 854.946 506.772C841.334 523.784 823.4 536.946 802.065 542.14C779.614 547.608 755.849 544.345 734.445 536.26C687.984 518.62 656.496 478.038 628.674 438.867C625.094 433.83 621.543 428.773 618.021 423.697C615.64 420.287 610.015 423.481 612.386 426.99C640.806 469.179 671.853 514.288 718.903 537.299C740.678 547.951 765.413 553.959 789.727 551.509C812.963 549.085 834.631 538.653 851.016 522.001C879.642 493.336 892.461 453.107 902.77 414.926C911.041 384.301 918.156 350.893 912.825 319.151C910.453 305.019 904.769 290.897 894.205 280.931C888.592 275.703 882.019 271.613 874.85 268.886C866.726 265.701 856.612 262.889 847.969 265.368C843.157 266.74 839.403 269.837 837.855 274.659L845.558 275.697C846.789 266.424 847.306 257.071 847.106 247.718C846.949 240.907 846.557 230.98 837.306 230.97C829.202 230.97 825.644 238.369 823.674 245.072C821.009 254.177 818.52 263.34 816.099 272.512C814.443 278.775 813.061 284.968 811.836 291.309C811.63 292.416 811.405 293.524 811.111 294.602C810.871 295.131 810.697 295.687 810.591 296.258C809.837 297.414 810.729 297.238 813.267 295.64C813.081 295.17 811.562 294.268 811.17 293.867C810.19 292.838 809.21 291.72 808.288 290.623C804.368 285.919 798.332 281.93 791.873 283.684C785.415 285.439 782.818 292.171 782.779 298.384C782.73 305.979 785.503 313.643 787.424 320.924C789.737 329.656 792.177 338.741 791.648 347.855C791.148 356.41 788.159 364.75 786.062 373.011C783.877 381.665 781.583 390.299 779.104 398.874C776.517 407.841 773.734 416.749 770.676 425.569C769.206 429.783 767.736 433.977 766.09 438.142C764.943 441.141 763.6 445.894 760.298 447.217C756.711 448.667 752.566 445.473 749.763 443.611C745.99 441.092 742.246 438.534 738.503 435.976C731.015 430.861 723.538 425.735 715.963 420.806C683.495 399.775 646.079 381.959 606.389 388.515C602.714 389.123 604.301 394.64 607.927 394.091L607.957 394.013Z" fill="#382C80"/>
<path d="M607.192 391.22C632.839 387.006 659.25 393.954 682.652 405.312C696.686 412.172 711.847 417.347 726.272 423.727C732.152 426.304 738.14 429.019 742.442 433.742C751.458 443.65 754.134 461.31 755.27 474.197C756.946 492.964 758.906 509.712 752.536 528.038C749.959 535.456 746.274 544.394 738.816 548.167C731.545 551.852 722.783 548.912 715.296 545.668C692.522 535.754 670.985 523.21 651.126 508.291" fill="white"/>
<path d="M607.957 394.013C632.065 390.74 656.536 396.855 678.292 407.086C689.444 412.329 700.773 417.014 712.17 421.698C717.58 423.923 722.95 426.177 728.281 428.695C733.181 431.067 738.023 433.84 741.286 438.378C746.892 446.159 748.989 456.282 750.273 465.602C751.762 476.431 753.115 487.534 753.213 498.471C753.527 510.088 751.403 521.642 746.98 532.389C745.216 536.534 742.893 540.905 739.218 543.669C734.671 547.089 729.026 546.609 723.871 545.051C717.501 543.169 711.425 540.102 705.467 537.211C699.358 534.251 693.351 531.105 687.445 527.773C675.503 520.939 663.924 513.491 652.753 505.459C649.813 503.332 645.893 508.291 648.833 510.584C669.527 526.917 692.423 540.246 716.845 550.176C727.938 554.635 739.992 555.164 748.048 545.011C754.986 536.26 758.299 523.971 759.73 513.103C761.425 500.196 760.22 487.103 759.24 474.187C758.426 463.534 756.692 452.705 752.478 442.827C750.558 438.004 747.681 433.62 744.02 429.94C739.493 425.628 733.799 423.011 728.134 420.551C715.796 415.201 703.105 410.751 690.816 405.283C677.41 399.334 664.434 393.229 650.048 389.946C635.662 386.663 621.011 385.82 606.448 388.437C602.734 389.113 604.4 394.503 607.986 394.013H607.957Z" fill="#382C80"/>
<path d="M414.926 460.8C413.023 468.994 413.806 477.584 417.161 485.3C419.013 489.523 421.747 493.532 425.716 495.864C430.675 498.804 437.025 498.696 442.376 496.599C447.727 494.502 452.235 490.631 456.096 486.319C470.596 469.694 476.184 447.094 471.1 425.627" fill="#382C80"/>
<path d="M412.251 460.104C409.821 470.688 409.811 481.233 415.191 491.033C420.365 500.411 430.352 504.518 440.671 502.068C450.471 499.745 458.115 491.925 463.887 484.055C469.608 476.135 473.653 467.132 475.775 457.595C478.185 446.815 478.489 435.055 475.392 424.432C473.756 418.768 465.592 421.178 466.67 426.843C470.355 446.531 466.455 467.229 452.999 482.595C447.119 489.279 436.761 497.422 427.519 491.64C418.758 486.123 415.534 471.06 417.504 461.584C418.219 458.115 412.957 456.615 412.153 460.114L412.251 460.104Z" fill="#382C80"/>
<path d="M593.845 384.978C561.985 379.627 529.459 384.978 497.324 388.349C479.188 390.263 460.996 391.547 442.748 392.2C433.605 392.524 424.412 392.671 415.377 391.269C407.39 390.025 399.638 387.584 391.925 385.144C370.699 378.451 349.403 371.728 329.098 362.545C319.445 358.175 307.881 353.51 299.698 346.709C291.965 340.319 287.203 329.069 282.802 320.249C279.647 313.947 274.776 297.464 267.171 296.052C265.713 295.72 264.187 295.843 262.801 296.405C260.39 297.513 259.214 300.276 258.685 302.883C257.332 309.674 258.685 317.132 260.89 323.541C259.538 325.043 257.332 325.421 255.558 324.453C247.571 320.19 240.466 313.918 231.676 311.713C220.004 308.841 207.372 314.094 199.101 322.816C190.829 331.538 186.361 343.23 183.734 354.96C181.304 365.936 180.383 377.667 184.224 388.28C189.497 402.814 199.855 407.096 213.428 407.518C230.862 408.057 242.27 423.805 256.813 433.811C342.475 492.768 485.77 498.305 575.313 440.063" fill="white"/>
<path d="M594.639 382.116C565.572 376.569 535.701 380.283 506.605 383.635C491.974 385.33 477.323 386.722 462.623 387.614C447.923 388.506 432.556 389.848 417.847 387.918C403.617 386.056 389.711 380.626 376.118 376.207C362.526 371.787 348.678 367.014 335.409 361.271C324.041 356.371 310.909 351.746 301.55 343.445C297.042 339.457 293.847 334.263 291.005 329.029C288.663 324.708 286.291 320.307 284.361 315.78C281.146 308.244 277.501 295.121 268.299 292.818C261.321 291.064 256.372 295.945 255.157 302.462C253.785 309.861 255.069 317.416 257.362 324.482L258.342 320.964C257.117 322.013 253.158 318.798 252.011 318.024C249.639 316.515 247.317 314.947 244.916 313.506C240.565 310.88 235.841 308.518 230.794 307.626C221.288 305.98 211.429 308.734 203.579 314.192C186.243 326.227 179.079 349.727 178.609 369.964C178.364 379.999 180.432 390.799 186.635 398.943C191.261 405.038 198.101 408.566 205.549 409.86C209.802 410.605 214.203 410.389 218.387 411.428C222.683 412.595 226.733 414.527 230.343 417.131C237.997 422.374 244.445 429.185 251.835 434.771C280.137 456.214 315.535 468.875 349.942 476.333C386.555 484.271 424.775 486.79 462.015 482.468C498.226 478.264 534.084 468.15 565.944 450.128C569.792 447.952 573.572 445.666 577.283 443.268C581.409 440.602 577.567 433.958 573.412 436.643C544.012 455.675 510.359 467.111 475.931 472.854C440.163 478.851 403.648 478.891 367.867 472.972C333.684 467.229 300.168 455.685 270.366 437.868C262.871 433.402 255.735 428.36 249.022 422.786C242.319 417.239 235.655 411.193 227.658 407.567C223.758 405.742 219.569 404.611 215.281 404.225C211.263 403.901 207.352 403.931 203.423 402.892C196.04 400.95 190.059 395.546 187.38 388.398C183.186 377.902 184.44 366.054 187.057 355.342C189.467 345.405 193.211 335.282 199.924 327.393C205.931 320.347 214.624 315.045 224.032 314.731C234.44 314.388 242.485 321.072 250.992 326.06C255.343 328.608 259.332 329.706 263.457 326.06C264.401 325.154 264.76 323.796 264.388 322.542C262.428 316.662 260.841 310.027 262.095 303.775C262.615 301.158 263.849 298.424 267.064 299.492C268.493 300.158 269.709 301.211 270.572 302.53C275.737 309.184 278.197 318.21 281.774 325.756C286.674 336.154 291.809 345.895 301.501 352.569C311.487 359.429 323.277 364.055 334.409 368.759C347.238 374.188 360.389 378.794 373.609 383.096C386.585 387.31 399.746 392.23 413.231 394.523C427.059 396.865 441.259 395.924 455.185 395.209C469.271 394.484 483.317 393.415 497.325 392.004C529.165 388.76 561.025 383.439 593.061 387.82C596.736 388.319 598.461 382.822 594.639 382.096V382.116Z" fill="#382C80"/>
<path d="M593.845 384.977C561.985 379.626 529.459 384.977 497.325 388.348C483.951 389.76 470.558 390.818 457.145 391.524C453.088 391.739 442.739 389.564 442.768 395.169C442.768 397.58 446.404 402.029 447.462 404.303C449.089 407.762 450.549 411.31 451.833 414.916C456.894 429.07 459.238 444.052 458.742 459.075C458.213 474.441 449.138 494.277 433.429 499.431C443.229 502.322 453.783 501.499 463.897 499.872C482.801 496.834 501.137 491.111 519.649 486.476C527.097 484.614 536.231 484.124 542.875 480.086C549.167 476.274 555.439 472.099 561.632 468.091" fill="white"/>
<path d="M594.639 382.116C574.157 377.431 552.744 378.96 532.036 380.93C510.819 382.949 489.7 385.722 468.434 387.153C463.985 387.457 459.487 388.133 455.028 388.133C452.24 387.948 449.442 387.975 446.659 388.211C443.905 388.594 441.239 389.711 439.985 392.337C438.603 395.228 439.789 398.217 441.22 400.853C443.271 404.318 445.082 407.92 446.639 411.633C448.449 416.378 450.003 421.216 451.294 426.128C453.925 435.93 455.386 446.009 455.645 456.155C456.018 471.492 447.942 490.455 432.37 495.786C428.901 496.982 428.587 502.087 432.37 503.156C443.875 506.399 455.606 504.92 467.17 502.803C478.734 500.686 490.249 497.815 501.686 494.963C507.566 493.493 513.514 491.944 519.443 490.484C524.108 489.328 528.871 488.671 533.555 487.603C544.776 485.055 554.037 477.587 563.533 471.433C567.659 468.758 563.818 462.113 559.613 464.808C550.725 470.571 541.973 477.823 531.468 480.204C526.783 481.272 522.021 481.939 517.366 483.144C511.838 484.545 506.36 486.084 500.882 487.652C489.926 490.798 478.959 493.855 467.719 495.815C456.723 497.775 445.257 498.804 434.399 495.815V503.185C448.364 498.285 456.704 484.643 459.967 470.786C464.054 453.46 462.182 434.105 456.547 417.347C455.022 412.842 453.249 408.425 451.235 404.117C450.546 402.643 449.75 401.221 448.854 399.864C448.04 398.609 446.541 396.924 446.227 395.473C446.139 395.022 445.855 395.052 447.07 394.866C448.404 394.681 449.753 394.619 451.098 394.679C454.175 394.768 457.154 395.052 460.251 394.964C481.351 394.425 502.391 391.485 523.334 389.152C546.854 386.516 570.217 385.654 593.835 388.015C597.177 388.349 597.863 382.919 594.629 382.135L594.639 382.116Z" fill="#382C80"/>
<path d="M577.753 316.975C585.338 313.82 591.806 307.362 593.61 299.335C595.129 292.613 592.845 284.861 587.445 280.441C580.38 274.649 569.805 280.147 563.925 285.223C561.397 287.419 559.123 291.25 556.526 292.456C552.499 294.328 548.275 291.476 544.218 295.68C540.866 299.149 540.876 305.333 544.796 308.322C541.856 309.488 538.23 311.017 537.377 314.349C536.26 318.759 539.67 324.208 542.512 327.216C546.971 331.93 552.94 334.89 558.849 337.565C566.245 340.917 573.758 343.994 581.389 346.797" fill="#382C80"/>
<path d="M578.645 320.209C586.838 316.975 593.57 311.037 596.599 302.569C599.464 294.34 597.532 285.2 591.581 278.834C585.074 272.111 575.656 273.248 568.061 277.393C564.408 279.383 561.14 282.008 558.408 285.145C557.212 286.517 556.017 288.389 554.194 288.928C552.136 289.526 549.715 288.928 547.579 289.379C537.779 291.339 534.408 304.735 541.964 311.164L543.767 304.353C538.455 306.48 533.183 309.537 533.134 316.005C533.134 321.964 536.966 327.706 541.209 331.577C546.217 336.154 552.352 339.084 558.486 341.828C565.67 345.052 572.932 348.041 580.399 350.54C585.299 352.187 587.053 344.817 582.487 342.975C572.363 338.898 561.662 335.184 552.263 329.568C548.343 327.216 544.59 324.218 542.463 320.053C541.719 318.602 540.709 316.427 541.581 314.849C542.356 313.457 544.521 312.761 545.933 312.213C548.5 311.184 550.313 307.597 547.726 305.402C545.423 303.442 545.119 299.453 548.079 297.767C549.578 296.905 551.44 297.307 553.087 297.219C555.135 297.186 557.147 296.68 558.967 295.739C562.465 293.779 564.425 290.025 567.453 287.536C570.406 285.038 573.883 283.236 577.626 282.264C585.691 280.412 590.366 288.604 590.189 295.719C590.003 304.147 583.192 310.625 576.038 314.026C572.657 315.643 575.058 321.562 578.625 320.16L578.645 320.209Z" fill="#382C80"/>
<path d="M538.612 532.34C502.96 595.184 467.265 658.005 431.527 720.804C413.659 752.203 395.777 783.596 377.882 814.982C369.65 829.417 362.526 845.362 350.805 857.386C336.507 872.086 320.993 872.753 301.697 874.213C294.68 874.752 286.615 877.898 285.096 884.767C283.371 892.607 291.142 899.026 298.071 903.084C318.259 914.844 369.876 948.418 393.072 933.101C406.096 924.497 414.583 903.525 422.472 890.726C434.124 871.831 445.541 852.761 455.792 833.033C468.816 807.837 480.38 782.005 496.952 758.71C514.102 734.563 535.535 713.757 553.469 690.179C583.015 651.229 602.44 605.56 610.005 557.261" fill="white"/>
<path d="M536.319 531.007C496.805 600.45 457.207 669.847 417.523 739.198C407.625 756.551 397.724 773.9 387.819 791.246C383.076 799.547 378.255 807.818 373.6 816.167C369.415 823.694 365.495 831.377 360.967 838.707C352.569 852.339 342.014 864.021 325.991 867.99C319.023 869.715 311.84 870.214 304.715 870.753C298.042 871.243 291.123 872.184 286.017 876.976C280.715 881.945 280.431 889.716 284.4 895.538C288.026 900.898 293.622 904.25 299.1 907.494C308.714 913.207 318.308 918.979 328.235 924.154C339.427 929.975 351.158 935.414 363.466 938.413C373.266 940.814 384.703 941.931 393.846 936.619C405.851 929.642 412.79 915.412 419.16 903.662C427.48 888.335 437.094 873.733 445.777 858.582C464.23 826.389 478.117 791.373 499.677 760.984C520.531 731.525 547.412 706.946 567.444 676.831C586.594 648.213 600.529 616.431 608.604 582.957C610.564 574.754 612.053 566.473 613.259 558.133C613.866 553.929 607.496 552.028 606.751 556.34C601.17 589.633 590.134 621.778 574.088 651.478C566.123 666.114 556.917 680.039 546.57 693.099C535.417 707.162 523.226 720.343 511.682 734.073C500.134 747.569 489.786 762.046 480.753 777.34C471.776 792.824 464.044 808.984 455.959 824.938C447.462 841.736 438.211 858.102 428.519 874.232C424.344 881.171 419.924 887.952 416.014 895.067C412.633 901.192 409.448 907.425 405.783 913.383C399.815 923.085 392.376 932.983 380.136 933.601C368.994 934.199 357.743 930.23 347.61 925.996C336.441 921.152 325.599 915.587 315.152 909.336C310.88 906.857 306.646 904.309 302.412 901.79C297.297 898.762 290.28 895.224 288.467 889.05C286.331 881.818 294.788 878.329 300.452 877.555C307.469 876.575 314.584 876.575 321.601 875.399C336.043 873.198 349.085 865.527 358.027 853.976C368.474 840.922 375.55 825.448 383.772 810.983L412.133 761.111C450.556 693.53 488.874 625.858 527.087 558.094C531.693 549.96 536.296 541.823 540.895 533.682C542.581 530.742 537.955 528.038 536.319 531.007Z" fill="#382C80"/>
<path d="M538.612 532.34C515.092 573.846 491.533 615.333 467.934 656.8C446.208 695.02 426.539 734.22 400.981 770.284C394.964 778.761 388.672 787.159 380.842 794C375.099 799.017 368.249 803.623 365.887 810.866C362.114 822.439 373.413 839.923 381.567 848.027C392.915 859.366 410.663 868.058 425.971 872.282C442.327 876.8 462.378 880.896 472.913 864.56C486.407 843.588 483.418 813.404 501.666 796.411C513.24 785.631 531.605 782.269 539.425 768.52C544.747 759.151 543.522 747.587 545.56 737.003C548.04 724.057 555.625 713.071 566.042 705.202C576.058 697.636 589.092 695.578 598.382 687.562C604.723 682.084 609.28 674.822 612.994 667.296C627.36 637.891 630.056 604.136 620.54 572.824" fill="#7F72FF"/>
<path d="M536.319 531.007C503.822 588.082 471.149 645.05 439.103 702.38C431.518 715.972 423.766 729.477 415.524 742.687C407.439 755.643 399.08 768.716 389.338 780.515C384.743 785.954 379.658 790.96 374.148 795.47C369.493 799.39 365.015 803.692 362.937 809.562C359.125 820.342 365.877 832.945 371.924 841.52C386.3 861.836 411.261 873.037 435.026 877.966C445.404 880.122 457.213 881.093 466.67 875.33C476.647 869.245 481.184 857.053 484.379 846.391C487.799 834.974 489.641 822.871 494.767 812.022C497.13 806.824 500.52 802.157 504.733 798.302C509.163 794.382 514.533 791.57 519.747 788.767C530.037 783.21 540.258 777.124 544.59 765.629C547.05 759.092 547.344 751.978 548 745.098C548.657 738.218 550.019 731.79 553.155 725.714C556.151 719.989 560.193 714.877 565.072 710.641C570.197 706.133 576.185 703.242 582.398 700.547C588.612 697.852 594.874 695.147 600.185 690.747C605.204 686.457 609.438 681.327 612.7 675.587C627.322 650.989 632.653 620.432 628.566 592.287C627.548 585.38 625.951 578.572 623.794 571.932C622.471 567.826 616.091 569.521 617.286 573.725C625.103 600.868 623.896 629.815 613.847 656.212C609.25 668.099 602.773 681.065 591.591 687.984C586.044 691.414 579.831 693.619 573.951 696.392C568.105 699.113 562.745 702.775 558.085 707.231C548.926 716.012 543.047 727.663 541.425 740.247C540.523 747.107 540.582 754.085 538.749 760.749C537.206 766.309 533.898 771.217 529.322 774.733C520.639 781.662 509.78 785.2 501.147 792.275C492.327 799.488 487.495 809.994 484.242 820.695C480.9 831.642 479.008 843.069 474.687 853.711C472.599 858.856 469.885 864.325 465.553 867.941C461.672 870.996 456.925 872.745 451.99 872.939C441.053 873.664 429.528 870.401 419.307 866.804C407.008 862.473 394.807 856.103 385.222 847.136C377.559 839.952 370.238 829.584 368.562 819.01C366.602 806.27 380.322 799.557 387.878 791.736C397.894 781.417 405.949 769.049 413.789 757.044C421.982 744.51 429.626 731.623 437.035 718.609C452.176 691.992 466.719 665.022 481.772 638.347C497.57 610.338 513.384 582.336 529.214 554.341C533.095 547.481 536.972 540.621 540.846 533.761C542.532 530.821 537.906 528.116 536.27 531.086L536.319 531.007Z" fill="#382C80"/>
<path d="M673.058 534.417C691.1 602.498 698.215 672.96 699.92 743.226C700.773 778.124 700.302 813.041 699.195 847.929C698.675 863.923 696.745 880.945 701.488 896.518C707.623 916.647 729.575 919.548 738.914 936.698C748.949 955.082 725.312 958.111 712.454 957.679C687.494 956.846 661.602 949.232 638.317 940.696C633.035 938.736 627.537 936.502 624.048 932.111C618.933 925.712 618.952 916.921 618.835 909.169C618.031 857.768 617.855 807.044 621.775 755.741C622.147 750.841 622.539 745.941 621.902 741.041C621.079 734.808 618.59 728.938 616.287 723.077C592.816 663.493 605.174 687.513 615.816 624.362" fill="white"/>
<path d="M670.52 535.123C687.582 600.254 694.648 667.423 696.657 734.592C697.705 769.392 697.372 804.172 696.333 839.002C695.863 854.829 693.981 870.999 696.157 886.767C697.068 893.382 698.626 900.114 702.252 905.818C705.155 910.197 708.784 914.048 712.983 917.206C721.343 923.801 731.603 929.181 736.503 939.099C738.101 942.323 738.973 946.096 736.258 948.899C733.544 951.702 729.036 952.77 725.322 953.456C713.728 955.622 701.233 953.838 689.787 951.78C673.656 948.84 657.917 944.067 642.521 938.53C636.004 936.178 628.566 933.915 625.107 927.358C621.824 921.126 622.363 913.384 622.275 906.563C622.03 889.423 621.863 872.263 621.912 855.142C622 820.676 623.519 786.385 625.724 751.997C626.309 744.061 625.19 736.092 622.441 728.624C619.825 721.441 616.865 714.385 614.18 707.231C611.318 699.567 607.918 691.071 606.898 683.191C606.242 678.144 607.026 674.254 608.564 669.109C610.926 661.181 613.513 653.36 615.356 645.285C616.865 638.631 618.051 631.908 619.09 625.175C619.736 620.961 613.386 619.07 612.582 623.382C610.421 635.242 607.571 646.966 604.047 658.495C602.224 664.375 599.999 670.255 599.333 676.38C598.637 682.878 600.264 689.395 602.185 695.559C606.105 708.23 611.847 720.255 616.11 732.799C618.992 741.315 618.58 749.39 617.943 758.21C617.306 767.03 616.777 775.978 616.355 784.876C615.513 802.585 615.081 820.313 614.925 838.041C614.768 855.769 614.866 873.537 615.091 891.285C615.199 899.526 615.091 907.827 615.571 916.059C616.003 922.919 617.531 929.936 622.255 935.228C626.979 940.52 634.211 942.803 640.699 945.116C648.539 947.928 656.496 950.535 664.522 952.809C680.202 957.258 696.608 960.6 713.003 960.972C721.402 961.168 731.564 960.482 738.65 955.475C747.803 949.007 744.726 938.207 738.875 930.524C732.015 921.488 721.578 916.647 713.395 909.023C702.615 898.958 701.488 883.984 701.635 869.999C701.753 852.849 702.84 835.699 703.164 818.529C703.51 800.654 703.598 782.776 703.428 764.894C702.693 695.765 697.117 626.391 681.868 558.849C679.961 550.421 677.893 542.029 675.665 533.673C674.793 530.38 669.687 531.772 670.559 535.084L670.52 535.123Z" fill="#382C80"/>
<path d="M582.849 582.722C580.585 591.12 579.752 599.891 577.116 608.202C575.568 613.102 573.147 617.639 572.285 622.725C569.452 639.317 574.95 659.475 579.497 675.351C581.977 684.015 588.504 694.187 589.542 702.889C590.464 710.553 582.898 717.491 580.585 724.508C577.557 733.701 580.732 743.755 584.927 752.477C588.562 760.033 593.08 767.589 593.315 775.997C593.57 785.062 588.778 793.383 585.867 801.967C583.172 809.92 582.047 818.321 582.555 826.703C583.025 834.415 584.701 843.951 589.415 850.291C591.963 853.692 595.452 856.475 596.559 860.738C597.931 866.03 594.776 871.342 599.166 875.928C601.312 878.162 604.242 879.436 607.143 880.534C634.147 890.697 663.86 891.068 691.11 881.583C695.725 879.956 700.292 878.015 704.124 874.977C721.48 861.257 713.365 836.13 708.583 818.578C702.321 795.607 701.4 771.656 701.253 748.018C701.125 725.684 698.489 702.537 696.735 680.075C692.903 631.075 685.612 582.144 673.019 534.535" fill="#7F72FF"/>
<path d="M580.291 582.016C578.527 588.719 577.577 595.589 575.94 602.322C574.402 608.662 571.256 614.513 569.864 620.883C567.336 632.525 569.257 645.05 571.726 656.535C573.03 662.621 574.666 668.638 576.332 674.636C577.939 680.32 580.429 685.612 582.761 691.021C584.848 695.853 587.788 701.929 586.122 707.26C584.535 712.356 580.742 716.472 578.586 721.323C573.304 733.201 578.361 746.097 583.741 756.946C586.524 762.571 589.699 768.451 590.17 774.841C590.64 781.23 588.21 787.483 585.799 793.382C580.84 805.73 578.214 818.098 579.831 831.446C580.378 837.063 581.855 842.551 584.202 847.684C585.428 850.102 586.956 852.354 588.749 854.387C590.709 856.681 593.041 858.954 593.649 862.031C594.629 867.5 592.375 872.488 596.265 877.319C599.94 881.876 606.33 883.719 611.671 885.473C636.379 893.491 662.953 893.724 687.797 886.139C698.666 882.788 709.573 877.888 714.738 867.088C723.842 848.027 713.326 826.026 709.475 807.014C703.879 779.388 705.722 751.242 703.918 723.283C702.076 694.863 699.734 666.286 696.323 638.023C692.913 609.76 688.483 581.575 681.751 553.949C680.085 547.089 678.252 540.327 676.341 533.565C675.165 529.38 668.805 531.134 669.844 535.358C676.38 562.063 681.888 589.062 685.984 616.257C690.081 643.452 692.345 671.01 694.804 698.499C696.01 712.101 697.205 725.723 697.656 739.375C698.097 752.693 697.921 766.001 698.911 779.3C699.761 792.66 701.871 805.909 705.212 818.872C707.623 827.82 710.465 836.777 711.219 846.048C711.974 855.318 710.475 864.873 703.232 871.4C698.744 875.457 692.786 877.584 687.111 879.407C668.982 885.248 649.717 886.666 630.928 883.542C624.81 882.515 618.778 881.024 612.886 879.083C607.771 877.388 600.078 875.585 600.038 869.019C600.038 863.276 600.352 858.797 596.697 853.937C593.237 849.34 589.837 845.754 588.082 840.109C584.554 828.07 584.79 815.24 588.759 803.339C592.541 791.765 598.686 781.289 595.383 768.745C592.189 756.76 583.418 746.862 582.496 734.22C582.055 728.124 584.074 723.361 587.151 718.275C589.67 714.1 592.424 709.632 592.571 704.555C592.718 699.479 590.415 694.157 588.425 689.493C586.152 684.21 583.594 679.085 581.977 673.548C578.576 661.876 575.293 649.959 574.451 637.788C574.049 631.908 574.039 625.822 575.646 620.148C577.342 614.17 580.007 608.623 581.399 602.508C582.839 596.138 583.761 589.67 585.407 583.339C586.269 580.036 581.164 578.625 580.291 581.928V582.016Z" fill="#382C80"/>
<path d="M527.019 558.036C536.301 566.505 546.153 574.328 556.507 581.448C559.48 583.651 562.72 585.468 566.15 586.858C574.255 589.798 583.192 588.122 591.806 588.288C601.783 588.475 611.583 591.16 621.559 591.405C641.973 591.905 661.426 582.114 677.419 569.345C673.202 555.997 668.296 542.877 662.719 530.037C623.698 547.549 580.335 553.009 538.191 545.717" fill="#382C80"/>
<path d="M524.961 560.094C533.403 568.157 542.363 575.66 551.783 582.555C556.272 585.838 560.819 589.229 566.199 590.915C571.334 592.532 576.852 592.571 582.183 592.385C587.975 592.063 593.783 592.177 599.558 592.728C605.507 593.423 611.397 594.56 617.375 595.07C628.019 595.914 638.72 594.433 648.735 590.728C660.299 586.485 670.716 579.948 680.34 572.334C681.439 571.275 681.858 569.692 681.428 568.228C677.113 554.527 672.082 541.063 666.355 527.891C665.375 525.676 662.435 525.46 660.534 526.372C641.992 535.368 620.864 540.494 600.46 542.826C590.29 544.004 580.051 544.489 569.815 544.276C559.192 544.022 548.716 542.61 538.152 541.601C533.526 541.16 532.664 548.52 537.064 549.637C547.697 552.312 558.879 553.077 569.815 553.322C580.433 553.564 591.054 553.001 601.587 551.636C623.294 548.804 643.629 542.444 663.807 534.143L659.005 532.183C664.385 544.688 669.129 557.487 673.274 570.462L674.362 566.346C659.201 578.459 640.228 588.288 620.344 587.445C609.427 586.985 598.784 584.133 587.838 584.447C582.791 584.594 577.655 585.123 572.628 584.447C567.267 583.751 562.769 581.164 558.349 578.233C548.118 571.436 538.331 563.992 529.047 555.948C526.245 553.528 522.187 557.438 524.941 560.054L524.961 560.094Z" fill="#382C80"/>
<path d="M550.352 410.653C536.76 418.983 529.214 436.133 532.271 451.813C533.438 457.831 536.005 463.505 537.171 469.522C540.347 486.231 532.389 502.744 528.283 519.257C527.303 523.246 526.509 527.381 527.136 531.448C530.174 551.048 560.182 564.014 576.714 567.708C602.757 573.42 629.864 571.916 655.114 563.357C660.416 561.554 665.836 559.319 669.814 554.988C676.674 547.403 677.547 535.623 677.37 525.029C676.694 483.712 673.068 468.385 668.923 437.035" fill="white"/>
<path d="M548.853 408.076C537.723 415.154 530.361 426.858 528.802 439.956C527.881 447.433 529.449 454.401 531.674 461.516C534.192 469.61 535.329 477.254 533.967 485.702C532.624 493.973 529.812 501.931 527.342 509.918C525 517.542 522.246 525.735 524 533.761C526.391 544.639 535.672 552.744 544.698 558.408C568.022 573.059 597.383 576.852 624.342 573.892C632.431 573.023 640.437 571.509 648.284 569.365C655.418 567.405 663.082 565.209 669.06 560.672C680.986 551.607 681.378 535.555 681.084 521.893C680.771 506.586 679.889 491.298 678.056 476.088C676.449 462.692 674.283 449.373 672.431 436.026C671.863 431.949 664.669 432.87 665.189 437.006C668.031 459.546 671.716 481.89 672.852 504.626C673.215 511.897 673.47 519.189 673.509 526.48C673.509 532.762 673.235 539.22 671.137 545.178C668.854 551.656 664.081 555.752 657.839 558.33C650.791 561.106 643.497 563.209 636.053 564.612C610.397 569.825 581.712 568.62 557.722 557.389C548.52 553.077 538.602 547.226 533.281 538.24C529.87 532.487 530.037 526.588 531.566 520.198C533.389 512.583 536.005 505.194 538.014 497.658C540.141 489.671 541.728 481.292 540.846 473.001C539.964 464.71 536.054 457.321 534.966 449.148C533.114 435.232 540.082 420.728 551.862 413.28C555.086 411.232 552.116 406.087 548.853 408.135V408.076Z" fill="#382C80"/>
<path d="M572.334 428.744C565.665 415.648 564.45 400.446 568.953 386.457C570.815 380.773 573.804 375.177 578.753 371.835C582.183 369.523 586.279 368.454 590.307 367.523C597 365.975 603.86 364.672 610.711 365.289C617.561 365.906 624.431 368.65 628.792 373.991C633.476 379.764 634.544 387.711 634.417 395.11C634.27 403.93 632.614 412.995 628.213 420.688C623.813 428.381 616.395 434.634 607.633 436.28" fill="white"/>
<path d="M574.696 427.363C569.515 416.523 568.061 404.275 570.56 392.524C571.746 387.163 573.647 381.518 577.342 377.334C581.036 373.149 586.446 371.708 591.797 370.474C602.41 368.092 616.493 366.554 624.911 375.119C632.594 382.959 631.555 397.482 629.331 407.312C626.675 419.072 619.148 430.097 606.791 432.743C602.204 433.723 604.154 440.7 608.751 439.76C621.618 437.133 630.879 426.637 635.103 414.623C639.327 402.608 640.669 385.419 633.545 374.139C625.705 361.801 610.387 360.272 597.285 362.692C590.63 363.917 582.996 365.201 577.273 369.053C571.824 372.728 568.453 378.568 566.385 384.644C561.315 399.66 562.655 416.101 570.09 430.097C571.746 433.252 576.332 430.479 574.823 427.333L574.696 427.363Z" fill="#382C80"/>
<path d="M583.3 374.677L580.095 401.745C578.998 411.016 579.743 421.482 592.002 424.804C597.528 426.312 603.437 425.269 608.114 421.962C611.015 419.619 613.249 416.554 614.591 413.074C620.001 400.422 617.963 386.114 620.971 372.806" fill="white"/>
<path d="M580.634 374.678C579.4 384.801 577.283 394.905 576.577 405.058C576.126 411.535 577.224 418.542 582.065 423.276C588.024 429.097 597.647 430.665 605.311 427.705C614.258 424.246 618.649 415.416 620.677 406.528C621.761 401.186 622.446 395.771 622.725 390.328C623.147 384.448 624.097 378.627 624.284 372.786C624.411 368.719 619.06 368.66 617.718 371.904C612.024 385.712 619.932 424.932 594.443 421.571C586.22 420.483 582.908 414.221 582.937 406.547C583.114 401.848 583.526 397.161 584.172 392.504C584.78 386.555 585.231 380.597 585.907 374.658C586.299 371.287 581.007 371.336 580.634 374.658V374.678Z" fill="#382C80"/>
<path d="M601.842 382.096C617.629 383.87 631.849 374.364 637.396 362.908C642.629 352.128 645.736 337.506 640.836 326.06C634.319 310.85 615.356 305.549 600.019 307.058C586.563 308.381 576.499 312.614 572.069 326.432C566.64 343.465 569.57 362.692 583.496 374.756" fill="white"/>
<path d="M601.842 385.046C617.776 386.663 633.995 377.784 640.718 363.143C647.441 348.502 650.058 329.059 638.219 316.103C628.547 305.529 612.465 302.217 598.715 303.775C592.12 304.539 585.26 305.96 579.684 309.88C573.657 314.104 570.09 320.347 568.09 327.334C563.024 344.974 566.777 364.888 580.977 377.314C584.407 380.313 589.454 375.354 586.015 372.267C575.627 362.928 571.56 348.963 573.647 335.292C574.568 329.284 576.313 322.777 580.585 318.24C584.417 314.173 589.65 312.262 595.031 311.213C606.487 308.988 619.531 310.233 629.331 317.093C641.649 325.727 641.718 341.593 637.416 354.637C635.034 361.899 631.32 368.269 625.068 372.855C618.378 377.755 610.112 380.007 601.861 379.176C598.069 378.823 598.118 384.703 601.861 385.056L601.842 385.046Z" fill="#382C80"/>
<path d="M592.894 334.38C591.961 336.577 591.302 338.881 590.934 341.24C590.532 343.063 589.699 345.278 590.15 347.12C590.387 348.394 591.363 349.402 592.629 349.68C593.894 349.958 595.203 349.452 595.952 348.394C597.177 346.787 594.443 344.66 593.139 346.218C594.119 345.033 594.227 342.298 594.531 340.691C595.001 338.829 595.244 336.918 595.256 334.997C595.187 333.812 593.472 333.135 592.865 334.351L592.894 334.38Z" fill="#382C80"/>
<path d="M589.788 435.624C593.394 435.624 593.394 430.019 589.788 430.019C586.181 430.019 586.171 435.624 589.788 435.624Z" fill="#382C80"/>
<path d="M631.506 601.156C636.985 610.858 648.509 618.796 660.024 616.787C664.091 616.061 662.553 610.583 659.123 610.162C649.989 609.054 641.708 606.457 636.583 598.157C634.623 594.903 629.576 597.824 631.457 601.156H631.506Z" fill="#382C80"/>
<path d="M506.547 592.404C513.185 595.127 520.551 595.518 527.44 593.512C531.762 592.189 529.978 585.74 525.578 586.75C519.855 588.199 513.842 588.026 508.213 586.25C504.234 584.956 502.783 590.925 506.517 592.404H506.547Z" fill="#382C80"/>
<path d="M851.065 937.756C842.831 935.871 836.128 929.914 833.288 921.958C832.377 919.283 831.808 916.079 833.876 913.785C835.298 912.368 837.177 911.5 839.178 911.335C844.078 910.786 848.762 914.011 852.653 916.627C854.407 917.813 856.691 915.471 855.593 913.687C850.693 906.112 849.713 894.391 859.327 889.991C862.972 888.325 867.226 888.648 869.989 891.745C872.537 894.587 873.243 898.605 871.126 901.81L875.281 902.359C871.645 890.746 875.771 874.919 889.511 872.88C894.969 872.057 901.183 873.723 904.485 878.398C908.866 884.601 907.288 893.098 906.004 900.026C905.782 900.931 906.115 901.883 906.853 902.451C907.592 903.02 908.596 903.099 909.415 902.653C917.451 898.487 928.035 899.761 934.542 906.181C941.049 912.599 942.558 923.135 938.619 931.278C937.374 933.836 941.137 936.09 942.46 933.522C947.586 923.585 945.939 910.796 937.864 902.849C929.789 894.901 916.98 893.45 907.072 898.644L910.483 901.271C912.002 892.892 913.501 883.17 908.219 875.791C904.054 869.911 896.577 867.5 889.599 868.304C872.743 870.264 866.324 889.05 870.891 903.583C871.153 904.446 871.896 905.075 872.789 905.192C873.683 905.308 874.563 904.889 875.036 904.123C877.859 899.762 877.133 894.078 874.154 889.981C870.896 885.531 865.192 883.609 859.905 885.179C846.185 888.952 844.803 905.602 851.918 915.843L854.858 912.903C849.791 909.738 844.078 906.318 837.884 907.504C832.69 908.484 828.545 912.492 828.702 917.98C829.015 929.289 839.903 938.56 850.321 940.667C852.281 941.039 853.074 938.158 851.134 937.727L851.065 937.756Z" fill="#382C80"/>
<path d="M810.66 930.407C809.172 927.467 809.772 923.901 812.139 921.61C814.507 919.319 818.09 918.837 820.979 920.42C822.939 921.489 824.703 918.46 822.734 917.422C818.572 914.953 813.269 915.597 809.819 918.99C806.368 922.383 805.635 927.674 808.034 931.877C808.906 933.592 811.464 932.082 810.601 930.367L810.66 930.407Z" fill="#382C80"/>
<path d="M489.397 947.096C485.435 934.906 483.392 922.174 483.34 909.356L482.419 910.963C486.339 908.484 490.543 919.225 491.523 921.616C493.4 926.219 494.626 931.061 495.169 936.002C495.473 938.629 499.393 938.786 499.393 936.002C499.34 929.394 500.492 922.832 502.793 916.638C504.033 913.38 505.595 910.254 507.458 907.308C508.183 906.171 509.604 903.202 511.162 903.31C512.27 903.388 512.975 905.201 513.269 906.005C514.2 908.572 513.877 911.267 513.642 913.933C513.316 917.644 512.802 921.337 512.103 924.997C510.745 931.929 508.777 938.727 506.223 945.312C505.243 947.919 509.428 949.066 510.408 946.469C513.7 937.86 516.002 928.904 517.268 919.774C518.062 913.894 520.09 904.094 514.132 900.027C507.625 895.577 502.656 906.544 500.598 910.934C496.907 918.769 495.047 927.342 495.159 936.002L499.304 935.434C498.346 928.595 496.235 921.968 493.062 915.834C491.102 912.022 486.898 904.789 481.449 907.2C478.666 908.435 479.616 911.698 479.744 914.207C479.92 917.814 480.273 921.391 480.724 924.987C481.805 932.807 483.62 940.508 486.143 947.988C486.819 949.948 489.975 949.144 489.328 947.116L489.397 947.096Z" fill="#382C80"/>
<path d="M482.135 938.579C480.177 937.566 478.285 936.43 476.47 935.179C475.431 934.395 474.197 935.306 473.805 936.257C471.6 941.696 475.275 948.389 480.968 949.604C483.291 950.094 484.261 946.664 481.948 946.027C480.145 945.5 478.632 944.264 477.755 942.602C476.878 940.94 476.711 938.994 477.293 937.207L475.059 938.472C476.96 939.259 478.809 940.166 480.596 941.186C482.321 942.078 483.84 939.53 482.125 938.56L482.135 938.579Z" fill="#382C80"/>
<path d="M584.182 333.763C584.468 332.906 584.398 331.97 583.986 331.166C583.433 330.22 582.327 329.747 581.262 330C579.547 330.392 578.488 332.94 578.87 334.527C579.069 335.498 579.753 336.298 580.68 336.646C581.608 336.995 582.649 336.842 583.437 336.242C584.213 335.617 584.661 334.671 584.652 333.675C584.608 332.631 584.198 331.636 583.496 330.862C582.833 330.192 581.799 330.059 580.987 330.539C580.173 331.007 579.772 331.962 580.007 332.871C580.144 333.224 580.291 333.567 580.448 333.92C580.376 333.737 580.376 333.717 580.448 333.861C580.52 334.005 580.52 333.975 580.448 333.773C580.507 333.243 580.683 333.145 581.173 332.949C581.381 332.786 581.647 332.714 581.909 332.749C582.171 332.784 582.407 332.923 582.565 333.136C582.673 333.241 582.751 333.373 582.79 333.518C582.79 333.684 582.732 334.125 582.79 333.763C582.849 333.4 582.879 333.528 582.79 333.763L582.967 333.43C583.339 332.714 582.967 333.812 581.987 333.792C581.581 333.779 581.21 333.556 581.007 333.204C581.007 333.106 580.958 333.204 581.007 333.381C581.041 334.158 581.627 334.8 582.399 334.904C583.17 335.007 583.905 334.543 584.143 333.802L584.182 333.763Z" fill="#382C80"/>
<path d="M606.35 333.4C604.917 333.489 603.819 334.709 603.88 336.144C603.869 336.807 604.038 337.461 604.37 338.035C604.913 338.896 605.932 339.329 606.928 339.123C608.525 338.744 609.512 337.143 609.133 335.546C608.754 333.95 607.153 332.962 605.556 333.341C604.684 333.598 604.081 334.392 604.066 335.301C604.09 336.207 604.69 336.996 605.556 337.261C604.87 337.036 605.674 337.261 605.919 337.398C605.659 337.307 605.438 337.131 605.291 336.899C605.196 336.721 605.152 336.521 605.164 336.32V336.438C605.153 336.244 605.205 336.052 605.311 335.889C605.223 336.026 605.233 336.026 605.311 335.889C605.674 335.301 606.291 335.272 607.271 335.801C607.408 335.987 607.447 336.017 607.379 335.899V335.987C607.35 335.914 607.327 335.839 607.31 335.762C607.31 335.634 607.31 335.664 607.31 335.86C607.31 336.056 607.31 336.105 607.31 335.987C607.31 335.87 607.31 335.909 607.31 336.105C607.203 336.299 607.023 336.444 606.81 336.507C607.571 336.311 608.064 335.578 607.959 334.8C607.854 334.022 607.184 333.446 606.399 333.459L606.35 333.4Z" fill="#382C80"/>
<path d="M666.737 309.468C664.574 304.15 660.706 299.7 655.742 296.817C651.831 294.776 647.547 293.552 643.149 293.22C641.126 293.147 639.124 292.79 637.2 292.162C635.093 291.309 633.407 289.702 631.663 288.242C625.783 283.342 618.747 280.059 611.593 277.373C603.596 274.375 594.276 272.179 586.838 276.393C579.811 280.313 575.274 291.093 576.969 299.031C578.665 306.969 588.778 312.947 595.423 316.172C603.331 320.023 611.534 320.66 619.844 322.914C620.765 323.169 621.461 323.718 622.412 323.972C623.362 324.227 624.627 323.972 625.107 325.08C625.25 325.471 625.297 325.891 625.244 326.305C625.038 330.578 624.97 334.821 624.911 339.094C624.911 340.75 623.931 345.033 624.911 346.444C627.184 349.59 632.623 340.309 636.475 340.505C638.599 340.775 640.409 342.179 641.198 344.17C641.943 346.139 642.254 348.245 642.11 350.344C642.041 354.264 639.797 359.997 640.444 363.623C641.228 368.072 644.001 364.878 645.922 362.81C651.586 356.724 657.682 351.51 662.092 344.337C666.806 336.742 669.746 327.794 669.011 318.857C668.757 315.626 667.989 312.457 666.737 309.468Z" fill="#382C80"/>
<path d="M668.923 308.195C664.023 297.013 654.409 291.672 642.649 290.241C639.653 289.979 636.829 288.727 634.623 286.684C632.397 284.733 630.028 282.951 627.537 281.352C622.156 278.082 616.431 275.414 610.466 273.395C599.96 269.7 587.22 268.622 579.38 278.069C573.275 285.459 570.197 297.121 575.754 305.656C581.311 314.192 592.414 320.023 602.008 322.816C608.114 324.6 614.474 325.354 620.462 327.52C620.975 327.762 621.525 327.918 622.088 327.981L622.471 328.04C623.617 328.304 623.196 327.716 621.206 326.295C620.736 326.677 621.04 330.313 621.02 330.95C620.922 334.027 621.02 337.154 620.765 340.221C620.413 344.141 619.785 349.707 624.783 351.001C628.703 351.981 631.888 348.433 634.534 346.101C634.975 345.719 635.828 344.798 636.494 344.66C637.337 344.474 636.494 344.553 636.494 344.562C635.975 344.504 636.926 344.915 637.033 345.131C638.307 347.659 638.209 350.374 637.67 353.137C636.788 357.665 634.515 364.388 638.219 368.278C642.894 373.178 648.019 366.563 651.126 363.378C655.83 358.537 660.7 353.843 664.542 348.257C672.774 336.281 676.096 321.121 670.02 307.538C668.266 303.618 661.592 306.421 663.062 310.478C666.982 321.258 664.434 332.665 658.515 342.21C655.662 346.518 652.342 350.498 648.617 354.078C646.873 355.872 645.118 357.645 643.403 359.468C642.753 360.053 642.15 360.689 641.6 361.369C642.237 360.389 640.963 362.065 640.953 361.938L644.521 362.849C644.491 362.441 644.491 362.032 644.521 361.624C645.216 359.939 645.265 357.175 645.618 355.333C646.122 352.996 646.33 350.606 646.236 348.218C645.932 343.318 643.688 338.065 638.494 336.683C634.574 335.644 631.516 337.918 628.762 340.329C627.705 341.123 626.704 341.987 625.763 342.916C624.96 343.896 627.988 345.405 628.566 344.376C628.919 343.729 628.684 342.073 628.762 341.279C629.277 336.194 629.453 331.08 629.291 325.972C629.105 320.846 623.882 319.817 619.785 318.73C614.239 317.25 608.506 316.544 602.998 314.888C598.495 313.473 594.208 311.445 590.258 308.861C586.906 306.715 583.339 304.039 581.438 300.413C579.537 296.787 580.272 292.515 581.526 288.84C582.859 284.988 585.387 281.156 589.072 279.236C593.796 276.756 599.46 277.413 604.439 278.687C610.505 280.267 616.354 282.587 621.853 285.596C624.5 287.017 627.024 288.656 629.399 290.496C631.506 292.152 633.456 293.945 635.975 294.955C638.494 295.964 641.061 295.935 643.648 296.229C646.995 296.49 650.272 297.318 653.341 298.679C658.584 301.158 662.161 305.539 664.503 310.762C665.904 313.732 670.216 311.144 668.923 308.195Z" fill="#382C80"/>
<path d="M199.062 322.835C190.781 331.557 186.322 343.249 183.695 354.979C179.344 374.579 181.549 395.767 201.865 405.165C203.643 406.121 205.649 406.575 207.666 406.478C210.68 405.972 213.118 403.749 213.899 400.794C214.6 397.865 214.117 394.776 212.556 392.2C216.195 393.133 220.05 391.943 222.53 389.121C225.009 386.299 225.693 382.323 224.299 378.834C222.905 375.346 219.669 372.936 215.928 372.6C220.71 372.815 225.669 370.062 227.403 365.603C229.138 361.144 226.923 355.362 222.425 353.735C226.58 354.597 231.96 354.93 233.989 351.197C235.851 347.767 233.136 343.494 229.804 341.446C226.472 339.397 222.454 338.506 219.446 336.026" fill="white"/>
<path d="M200.728 316.799C195.371 321.187 190.949 326.606 187.723 332.734C176.943 352.824 172.2 384.615 190.869 401.716C195.455 405.92 203.256 411.222 209.754 409.272C217.731 406.871 219.015 397.423 215.634 390.838L212.115 395.581C219.328 397.286 227.403 392.112 228.56 384.693C229.736 377.069 223.768 369.993 216.31 369.013L215.467 376.206C222.082 376.285 228.873 372.904 230.98 366.23C232.947 359.877 229.836 353.06 223.748 350.383L221.964 357.351C228.53 358.635 238.076 357.547 238.154 348.855C238.154 345.052 235.9 341.583 232.989 339.3C229.55 336.595 225.051 335.781 221.592 333.135C217.878 330.284 213.507 336.075 217.221 338.937C219.321 340.448 221.595 341.702 223.993 342.671C226.325 343.651 228.893 344.631 230.275 346.944C233.215 351.726 225.159 350.599 222.807 350.138C218.701 349.345 217.339 355.558 221.014 357.116C223.694 358.373 224.97 361.47 223.954 364.25C222.866 367.279 219.358 369.043 216.271 369.013C211.723 369.013 210.694 375.638 215.428 376.206C218.985 376.638 222.131 380.126 221.386 383.841C220.641 387.555 216.427 389.554 212.87 388.809C210.42 388.29 208.176 391.377 209.352 393.552C210.685 396.042 211.674 399.236 209.734 401.716C207.48 404.577 203.991 402.794 201.375 401.422C197.094 399.21 193.419 395.983 190.673 392.024C185.283 384.184 184.538 374.197 185.557 364.985C186.851 353.421 190.232 341.152 196.749 331.401C199.088 327.877 201.897 324.689 205.099 321.924" fill="#382C80"/>
<path d="M593.404 355.783C595.766 355.94 597.324 355.313 599.509 354.803C602.188 354.231 604.812 353.424 607.349 352.393C607.525 352.687 607.604 353.03 607.575 353.373C607.575 355.685 607.418 358.273 605.232 360.046C602.865 361.737 599.837 362.206 597.069 361.311C594.73 360.649 593.027 358.632 592.767 356.215" fill="#382C80"/>
<path d="M593.404 357.352C598.157 357.518 603.488 355.823 607.869 354.118L605.674 352.873C608.29 359.733 595.619 362.869 594.756 356.254C594.78 355.476 594.341 354.759 593.639 354.425C592.936 354.091 592.103 354.204 591.515 354.713C590.927 355.222 590.695 356.03 590.925 356.773C591.689 362.291 597.785 364.613 602.753 363.339C607.379 362.163 611.034 356.695 609.113 351.922C608.79 351.119 607.888 350.276 606.918 350.678C602.871 352.344 597.824 354.265 593.404 354.216C591.385 354.216 591.444 357.283 593.404 357.352Z" fill="#382C80"/>
<path d="M589.954 325.354C585.853 322.901 580.965 322.118 576.303 323.169C573.755 323.767 574.843 327.628 577.381 327.089C581.039 326.201 584.892 326.603 588.288 328.226C590.18 329.206 591.826 326.422 589.954 325.364V325.354Z" fill="#382C80"/>
<path d="M599.754 328.245C603.605 328.227 607.434 328.813 611.103 329.98C613.425 330.705 614.337 327.177 612.083 326.374C607.996 324.923 603.59 324.618 599.343 325.492C597.765 325.795 598.157 328.245 599.715 328.245H599.754Z" fill="#382C80"/>
<path d="M563.7 584.143C561.789 595.217 557.948 605.889 556.321 617.022C554.631 627.976 555.568 639.174 559.055 649.695C560.378 653.615 566.503 651.979 565.268 647.99C562.026 637.595 561.278 626.584 563.083 615.846C564.778 605.448 567.826 595.344 569.139 584.878C569.531 581.801 564.239 581.066 563.7 584.143Z" fill="#382C80"/>
<path d="M566.454 665.385C570.472 665.385 570.472 659.152 566.454 659.152C562.436 659.152 562.436 665.385 566.454 665.385Z" fill="#382C80"/>
<path d="M721.676 919.685C719.187 920.195 713.944 925.202 712.023 926.819C708.338 929.936 706.77 936.237 702.507 938.413C701.439 938.878 700.281 939.102 699.117 939.069C694.633 939.219 690.148 938.851 685.749 937.972C679.731 936.596 673.832 934.741 668.109 932.425L617.149 913.423C617.698 919.548 616.63 925.095 615.944 931.122C615.719 933.082 616.003 934.846 615.944 936.757C615.836 939.069 614.464 941.902 614.964 944.175C615.253 945.032 615.797 945.781 616.522 946.321C618.776 948.36 621.246 950.31 624.186 951.065C627.126 951.819 630.634 951.114 632.388 948.644C633.368 947.243 633.741 945.439 634.789 944.077C636.336 942.32 638.633 941.412 640.963 941.637C643.254 941.878 645.491 942.487 647.588 943.44L666.816 950.957C673.686 953.794 680.715 956.232 687.866 958.258C703.144 962.266 719.226 962.442 734.906 960.316C736.888 960.137 738.831 959.658 740.669 958.895C746.549 956.151 748.509 948.242 746.274 942.235C744.314 937.031 740.159 933.493 735.622 930.563C733.299 929.054 731.29 926.888 729.193 925.095C727.713 923.83 724.244 919.773 722.137 919.695C721.984 919.671 721.829 919.668 721.676 919.685Z" fill="#382C80"/>
<path d="M720.657 915.991C717.374 916.922 714.64 919.47 712.111 921.655C709.586 923.696 707.376 926.101 705.555 928.789C704.599 930.507 703.508 932.145 702.292 933.689C700.851 935.287 699.352 935.228 697.284 935.238C691.821 935.212 686.39 934.41 681.153 932.856C670.618 929.818 660.397 925.457 650.136 921.626L618.149 909.689C616.995 909.379 615.762 909.622 614.812 910.348C613.862 911.073 613.303 912.198 613.298 913.394C613.519 917.722 613.312 922.061 612.68 926.349C612.132 930.72 612.357 935.169 611.485 939.432C610.711 943.215 610.897 946.184 613.768 949.007C616.414 951.614 619.864 954.024 623.568 954.818C626.612 955.537 629.815 955.09 632.545 953.564C634.101 952.606 635.375 951.253 636.24 949.644C637.151 948.017 637.337 946.037 639.395 945.518C642.904 944.616 647.941 947.615 651.096 948.85L664.64 954.211C672.686 957.356 680.741 960.551 689.14 962.541C698.163 964.61 707.401 965.597 716.658 965.481C721.117 965.481 725.586 965.177 730.026 964.716C733.887 964.314 738.022 964.089 741.639 962.57C747.773 960.002 751.105 953.427 750.958 946.949C750.772 938.854 745.412 932.68 739.091 928.241C735.869 925.922 732.837 923.349 730.026 920.548C727.84 918.421 724.988 915.51 721.656 915.834C716.756 916.294 716.756 923.968 721.656 923.497C722.538 923.419 724.939 926.339 725.841 927.192C728.15 929.462 730.612 931.571 733.211 933.503C737.797 936.747 742.834 940.432 743.265 946.537C743.487 948.969 742.838 951.4 741.433 953.397C739.551 955.867 736.533 956.239 733.652 956.631C726.008 957.664 718.289 958.028 710.582 957.719C695.059 957.092 680.986 952.407 666.649 946.802C659.475 943.999 652.184 940.363 644.736 938.413C641.879 937.55 638.82 937.619 636.004 938.609C632.643 939.922 631.32 942.294 629.772 945.351C628.223 948.409 624.93 947.674 622.402 946.126C621.675 945.668 620.981 945.161 620.324 944.607C619.923 944.273 618.462 942.647 618.639 943.293C618.286 941.951 619.256 940.02 619.482 938.658C619.694 936.706 619.753 934.74 619.658 932.778C619.762 930.621 619.987 928.471 620.334 926.339C620.967 922.052 621.171 917.712 620.942 913.384L616.091 917.078L649.264 929.456C659.818 933.376 670.383 938.05 681.32 940.853C686.725 942.289 692.298 942.997 697.891 942.96C702.576 942.892 705.967 941.529 708.848 937.766C711.151 934.767 712.631 931.445 715.492 928.946C717.452 927.172 720.049 924.203 722.695 923.448C727.438 922.027 725.4 914.628 720.657 915.991Z" fill="#382C80"/>
<path d="M314.859 873.586C316.623 875.419 318.112 882.514 318.779 884.934C320.062 889.589 317.799 895.714 320.072 899.879C320.69 900.866 321.521 901.703 322.503 902.329C326.113 904.993 330.02 907.229 334.145 908.993C339.898 911.267 345.823 913.079 351.863 914.413L380.558 921.557C387.516 923.282 396.453 924.291 403.558 923.517C403.95 923.517 404.401 923.448 404.646 923.742C404.829 924.082 404.829 924.491 404.646 924.83C403.068 929.652 399.815 934.081 397.335 938.482C394.395 943.725 391.828 949.173 388.907 954.426C388.622 955.019 388.234 955.557 387.761 956.014C386.704 956.731 385.42 957.034 384.154 956.866C381.259 956.903 378.399 956.23 375.824 954.906C372.277 952.946 371.218 950.32 372.071 946.674C372.982 942.803 372.718 939.618 369.013 937.345C366.988 936.254 364.801 935.493 362.536 935.091L342.426 930.416C335.155 928.872 327.979 926.909 320.935 924.536C306.068 919.195 292.681 910.238 280.97 899.634C279.448 898.359 278.127 896.863 277.05 895.195C273.787 889.629 276.599 881.965 281.882 878.251C286.429 875.046 291.868 874.497 297.268 874.644C300.031 874.713 302.912 874.056 305.656 873.762C307.616 873.557 312.752 872.175 314.535 873.302C314.653 873.385 314.761 873.48 314.859 873.586Z" fill="#382C80"/>
<path d="M312.144 876.32C313.869 878.408 314.319 882.906 314.966 885.532C315.995 889.736 314.633 894.117 315.515 898.37C316.593 903.554 320.964 906.21 325.227 908.768C329.775 911.427 334.616 913.552 339.652 915.099C350.736 918.617 362.271 920.979 373.56 923.791C378.56 925.134 383.631 926.191 388.75 926.957C391.269 927.28 393.797 927.515 396.345 927.594C397.747 927.643 399.158 927.643 400.559 927.594C401.236 927.594 401.912 927.515 402.578 927.457C403.842 927.457 403.891 927.339 402.706 927.065L400.942 924.771C400.461 923.115 400.834 924.301 400.373 925.399C400.011 926.261 399.589 927.104 399.138 927.937C398.345 929.417 397.472 930.877 396.6 932.288C394.483 935.767 392.523 939.305 390.652 942.921L388.456 947.194C387.8 948.458 386.732 951.623 385.624 952.496C383.664 954.064 377.99 952.564 376.363 950.614C374.883 948.86 376.246 946.204 376.363 944.146C376.573 941.327 375.657 938.539 373.815 936.394C369.199 931.259 360.438 930.7 354.127 929.23C339.584 925.849 324.727 923.047 311.301 916.236C304.91 912.955 298.826 909.108 293.122 904.74C290.456 902.721 287.869 900.575 285.351 898.36C283.048 896.332 280.049 894.176 279.539 890.932C278.344 883.229 286.566 879.005 292.946 878.515C297.228 878.192 301.374 878.143 305.686 877.535C306.871 877.379 308.038 877.183 309.214 876.977C309.802 876.879 310.39 876.771 310.987 876.712C311.967 876.624 313.339 877.192 312.183 876.222C315.946 879.368 321.405 873.968 317.602 870.803C313.996 867.784 309.292 869.303 305.098 869.931C298.708 870.911 291.877 870.038 285.703 872.096C275.58 875.458 267.426 887.865 274.316 897.89C277.716 902.859 283.302 906.71 288.036 910.356C293.083 914.311 298.419 917.881 304 921.038C315.76 927.535 328.392 931.092 341.416 934.121C348.12 935.679 354.823 937.208 361.526 938.795C363.662 939.305 367.132 939.775 368.386 941.863C369.64 943.95 367.945 947.047 368.004 949.222C368.151 954.75 372.855 958.444 377.804 959.836C380.661 960.691 383.669 960.922 386.624 960.512C390.005 959.914 391.583 957.572 393.121 954.759C396.394 948.703 399.364 942.5 402.921 936.61C405.067 933.082 411.653 924.419 406.959 920.714C404.822 919.029 402.01 919.862 399.511 919.92C396.272 919.987 393.032 919.814 389.819 919.401C383.38 918.597 377.079 916.745 370.807 915.177C356.018 911.502 339.633 909.209 326.707 900.624C325.629 899.909 324.041 899.095 323.355 897.939C322.669 896.783 322.787 894.901 322.816 893.558C322.894 890.275 323.179 887.149 322.453 883.915C321.473 879.535 320.493 874.409 317.553 870.881C314.417 867.069 309.018 872.528 312.144 876.32Z" fill="#382C80"/>
<path d="M370.121 887.394C373.003 890.955 377.387 892.959 381.965 892.811C386.544 892.663 390.789 890.379 393.435 886.64C394.65 885.003 391.877 882.837 390.593 884.445C385.791 890.413 377.559 890.922 372.267 885.238C370.914 883.788 368.896 885.905 370.121 887.394Z" fill="#382C80"/>
<path d="M640.042 903.996C640.275 907.285 642.324 910.169 645.354 911.473C649.274 913.306 653.595 912.384 657.594 911.473C659.887 910.944 658.917 907.445 656.614 907.955C652.478 908.866 643.942 910.415 643.247 904.035C643.021 902.075 639.895 901.947 640.032 904.035L640.042 903.996Z" fill="#382C80"/>
<path d="M382.684 803.644C388.113 816.402 398.019 826.736 410.536 832.701C412.584 833.681 414.387 830.623 412.32 829.633C400.31 823.989 390.733 814.21 385.34 802.085C384.527 800.263 381.9 801.85 382.675 803.644H382.684Z" fill="#382C80"/>
<path d="M430.489 843.324C433.007 843.324 433.007 839.404 430.489 839.404C427.97 839.404 427.97 843.324 430.489 843.324Z" fill="#382C80"/>
<path d="M440.22 802.399C438.985 788.218 453.509 780.633 463.867 774.577C469.189 771.47 474.412 768.07 478.479 763.375C482.037 759.164 484.853 754.379 486.809 749.224C491.327 737.719 491.454 725.704 493.326 713.729C494.306 707.437 496.443 701.518 501.931 697.813C507.105 694.325 513.142 692.472 518.208 688.768C529.086 680.83 536.26 669.168 543.071 657.761C544.316 655.693 541.111 653.841 539.857 655.879C533.32 666.796 526.46 678.36 515.935 685.887C510.839 689.532 504.773 691.375 499.647 694.942C495.214 698.106 492.064 702.755 490.768 708.045C489.23 713.689 489.073 719.609 488.426 725.391C487.799 731.887 486.515 738.303 484.594 744.54C482.806 750.487 479.843 756.015 475.882 760.798C471.423 765.972 465.602 769.412 459.781 772.832C449.001 779.134 436.153 788.199 437.525 802.399C437.692 804.085 440.347 804.114 440.2 802.399H440.22Z" fill="#382C80"/>
<path d="M629.36 667.708C622.775 681.281 632.839 694.168 638.651 705.82C642.263 712.665 643.189 720.612 641.248 728.105C639.68 734.465 637.034 740.512 635.456 746.882C633.986 752.83 633.555 759.102 635.809 764.914C637.945 770.431 641.885 774.9 645.609 779.359C649.852 784.367 654.076 789.698 654.703 796.48C655.448 804.496 652.126 812.287 650.136 819.892C646.216 834.925 649.156 850.546 659.858 862.12C661.583 863.982 664.307 861.218 662.631 859.347C652.704 848.253 650.469 833.945 654.311 819.872C656.212 812.924 658.848 805.937 658.819 798.636C658.709 792.823 656.764 787.194 653.262 782.554C649.862 777.781 645.589 773.685 642.335 768.834C638.719 763.554 637.383 757.039 638.631 750.763C640.826 738.611 648.108 727.311 645.658 714.571C642.786 699.714 624.548 685.171 631.751 669.158C632.477 667.531 630.115 666.091 629.311 667.737L629.36 667.708Z" fill="#382C80"/>
<path d="M303.5 278.138L333.4 300.325C339.192 304.637 345.327 309.39 347.532 316.28C349.208 321.533 348.316 327.226 347.199 332.616C342.72 354.265 334.89 375.09 325.805 395.229C319.445 409.331 312.33 423.188 303.402 435.85C296.621 445.463 285.86 456.998 273.944 460.065C270.624 460.807 267.212 461.055 263.82 460.8C224.297 459.125 194.387 433.184 163.096 411.487" fill="#7F72FF"/>
<path d="M301.374 280.255C311.174 287.957 321.055 295.572 331.019 303.098C334.939 306.038 339.192 309.214 341.907 313.398C345.18 318.445 344.847 324.178 343.759 329.843C339.241 353.284 330.48 375.903 320.435 397.463C315.639 408.05 310.088 418.278 303.824 428.068C298.14 436.77 291.535 445.394 282.822 451.265C278.638 454.087 274.002 456.312 268.916 456.547C263.596 456.726 258.273 456.325 253.04 455.351C242.904 453.53 233.067 450.321 223.807 445.816C202.737 435.712 184.607 420.806 165.154 408.027C160.832 405.185 157.137 411.947 161.155 414.887C179.08 428.029 196.818 441.896 216.741 451.951C226.516 457.048 236.937 460.796 247.719 463.093C258.812 465.298 270.925 466.739 281.45 461.721C291.299 457.017 299.149 448.452 305.519 439.789C312.83 429.822 318.857 418.856 324.267 407.762C335.419 384.919 345.013 360.879 350.433 335.997C351.893 329.304 353.373 322.012 351.187 315.299C349.335 309.625 345.307 305.088 340.74 301.393C329.333 292.142 316.985 283.969 304.98 275.58C302.226 273.62 298.659 278.187 301.344 280.284L301.374 280.255Z" fill="#7F72FF"/>
<path d="M319.533 322.562C327.373 303.079 337.085 271.719 323.698 252.541C313.32 237.664 304.382 226.571 301.825 207.715C299.345 189.399 302.187 170.76 306.333 152.747C308.293 144.241 310.547 135.607 309.812 126.914C309.077 118.222 304.627 109.274 296.65 105.737C291.75 103.59 286.184 103.698 280.97 104.668C268.839 106.94 257.903 113.432 250.1 122.994C234.734 141.977 234.42 169.201 222.131 190.281C214.477 203.354 208.627 200.836 196.171 196.7C183.156 192.378 171.034 185.842 158.304 180.814C141.644 174.239 122.416 170.407 106.217 177.992C91.2716 185.009 82.0204 200.307 75.6602 215.575C65.8602 239.32 61.019 264.8 59.3432 290.28C57.8144 313.497 58.1868 340.015 66.3404 362.095C77.973 393.572 106.599 407.518 135.44 420.424C156.814 429.979 179.913 436.467 203.315 436.104C221.465 435.85 239.967 431.204 254.491 420.424C274.728 405.283 284.812 381.881 295.788 359.988" fill="#7F72FF"/>
<path d="M322.306 323.326C327.726 309.929 332.293 295.886 333.302 281.352C333.898 274.484 333.207 267.564 331.264 260.949C328.961 253.697 324.257 247.895 320.003 241.711C315.75 235.528 311.487 228.922 308.753 221.768C305.838 213.725 304.313 205.245 304.245 196.69C304.086 186.713 304.953 176.747 306.832 166.947C308.557 157.412 311.379 148.063 312.712 138.459C314.78 124.043 310.86 105.511 294.572 101.326C279.363 97.4064 261.537 106.089 250.992 116.693C239.653 128.1 234.822 143.702 230.412 158.725C228.236 166.065 226.119 173.484 223.052 180.501C220.867 185.508 217.633 193.966 211.929 195.994C207.137 197.69 200.502 194.289 196.092 192.77C187.507 189.83 179.305 185.91 171.034 182.186C155.011 175.013 137.606 168.28 119.701 170.426C84.5878 174.601 70.2406 212.811 62.675 242.584C58.2347 260.674 55.657 279.172 54.982 297.787C54.2078 315.104 54.7468 332.704 58.5786 349.668C61.94 364.76 68.4864 378.706 79.1782 390.064C89.086 400.599 101.581 408.38 114.39 414.887C144.995 430.44 179.07 443.356 214.007 439.387C230.667 437.515 246.641 431.92 259.733 421.257C272.346 410.987 281.293 397.012 288.683 382.724C292.269 375.815 295.543 368.768 298.806 361.703C300.668 357.694 294.945 354.157 292.779 358.175C285.507 371.669 279.167 385.752 270.239 398.286C261.135 411.026 249.179 421.394 234.293 426.765C201.541 438.574 165.487 429.607 134.881 415.808C110.068 404.627 83.9998 391.436 72.0242 365.476C65.1642 350.707 63.2042 333.724 62.724 317.622C62.2207 300.576 63.2703 283.519 65.86 266.662C68.5354 249.267 72.9062 231.96 79.8054 215.702C85.46 202.57 93.3784 189.056 106.432 182.157C121.289 174.317 139.223 177.757 154.246 183.245C170.005 188.997 184.705 197.18 200.806 202.08C205.706 203.57 210.978 204.609 215.771 202.286C221.2 199.66 224.591 193.799 227.197 188.654C234.057 175.287 236.86 160.45 241.799 146.387C246.964 131.687 255.372 118.947 269.729 111.999C276.472 108.725 285.243 106.207 292.71 108.079C299.904 109.892 304.147 116.458 305.764 123.327C307.724 131.599 305.705 140.252 303.853 148.347C301.686 157.402 299.976 166.56 298.728 175.787C296.65 192.515 296.768 210.283 303.52 226.012C306.373 232.369 309.852 238.426 313.908 244.093C317.985 250.022 322.934 255.647 325.168 262.595C329.431 275.845 326.716 290.672 323.012 303.755C321.238 309.875 319.144 315.897 316.74 321.797C315.358 325.237 320.915 326.697 322.287 323.326H322.306Z" fill="#7F72FF"/>
<path d="M203.324 439.015C221.062 438.897 238.761 435.408 253.765 425.452C268.2 415.867 278.383 401.853 286.605 386.84C288.878 382.684 291.025 378.451 293.141 374.207C295.258 369.964 298.09 365.515 299.159 360.909C299.894 357.763 295.709 354.676 293.328 357.508C290.143 361.301 288.29 366.279 286.095 370.679C283.9 375.08 281.499 379.735 279.02 384.174C274.031 393.102 268.367 401.755 261.331 409.223C246.327 425.148 224.924 432.606 203.324 433.262C199.64 433.38 199.61 439.044 203.324 439.015Z" fill="#382C80"/>
<path d="M322.306 323.326C327.461 310.782 331.989 298.12 333.086 284.488C334.242 271.316 331.199 258.115 324.394 246.778C310.674 223.699 302.657 196.729 306.901 169.76C308.145 161.92 310.458 154.266 312.379 146.543C314.3 138.821 316.211 130.667 314.809 122.818C314.064 118.623 308.361 120.172 307.949 123.749C307.146 130.775 306.479 137.547 304.754 144.446C303.03 151.345 301.06 157.98 299.776 164.84C297.352 177.885 297.299 191.26 299.619 204.324C301.883 217.201 306.714 229.667 312.81 241.211C315.985 247.238 320.121 252.844 322.61 259.204C324.973 265.234 326.254 271.633 326.393 278.108C326.785 293.053 322.149 308.018 316.73 321.787C315.368 325.256 320.895 326.687 322.277 323.316L322.306 323.326Z" fill="#382C80"/>
<path d="M122.7 199.542C134.107 212.625 148.729 221.582 165.232 226.766C179.442 231.235 197.347 234.695 202.648 250.796C205.392 259.146 204.893 268.191 204.256 276.844C203.63 285.631 202.478 294.372 200.806 303.02C197.424 320.99 191.532 338.395 183.303 354.725C178.821 363.766 173.395 372.307 167.114 380.205C161.616 386.898 154.011 394.092 144.691 392.847C140.585 392.298 139.713 399.168 143.711 400.06C162.998 404.342 176.051 383.939 184.381 369.846C194.233 353.009 201.466 334.772 205.833 315.76C208.024 306.339 209.66 296.797 210.733 287.183C211.821 277.697 212.821 267.868 211.713 258.342C210.733 249.581 207.695 241.163 201.169 234.969C195.289 229.412 187.762 226.227 180.206 223.748C170.936 220.72 161.439 218.554 152.678 214.124C143.138 209.301 134.559 202.775 127.365 194.867C124.503 191.731 119.976 196.347 122.729 199.513L122.7 199.542Z" fill="#382C80"/>
<path d="M307.861 345.983C312.389 345.983 312.398 338.937 307.861 338.937C303.324 338.937 303.324 345.983 307.861 345.983Z" fill="#382C80"/>
<path d="M839.295 291.191C838.58 295.111 837.806 299.178 839.374 302.951C840.613 306.257 843.561 308.619 847.057 309.106C853.398 309.772 862.129 303.637 863.511 297.424L855.612 296.356C856.347 303.216 857.719 311.115 864.432 314.751C870.401 317.985 878.231 315.407 880.112 308.665L871.724 307.528C872.547 314.006 876.398 319.572 882.788 321.669C888.95 323.597 895.663 321.551 899.703 316.515C902.79 312.595 897.547 306.891 894.028 310.84C889.814 315.554 881.112 314.76 880.259 307.528C879.73 302.961 873.341 301.462 871.871 306.391C871.096 308.998 867.882 307.371 866.677 306.117C864.315 303.569 863.982 299.649 863.619 296.317C863.149 292.181 856.759 290.437 855.72 295.249C855.113 298.022 851.418 300.521 848.86 301.403C844.048 303.049 844.803 295.366 845.254 292.808C845.94 288.888 840.001 287.222 839.276 291.162L839.295 291.191Z" fill="#382C80"/>
<path d="M94.2798 218.191C94.7839 219.174 95.3673 220.115 96.0242 221.004L97.8372 223.767C98.8062 225.35 100.852 225.886 102.473 224.982C104.073 224.027 104.614 221.965 103.688 220.347L101.728 217.456C101.035 216.338 100.252 215.28 99.3856 214.291C98.24 213.16 96.435 213.051 95.1618 214.036C93.9113 215.034 93.5599 216.787 94.3288 218.191H94.2798Z" fill="#382C80"/>
<path d="M84.8228 274.747L86.6652 276.56C87.2617 277.14 88.0578 277.47 88.8898 277.481C90.1623 277.482 91.3095 276.715 91.7965 275.539C92.2835 274.364 92.0143 273.011 91.1144 272.111L89.272 270.278C88.0434 269.05 86.0514 269.05 84.8228 270.278C83.5942 271.507 83.5942 273.499 84.8228 274.728V274.747Z" fill="#382C80"/>
<path d="M80.6285 332.077L81.5399 331.989C82.4452 331.955 83.311 331.609 83.9899 331.009C84.6458 330.362 85.0152 329.48 85.0152 328.559C85.0152 327.638 84.6458 326.755 83.9899 326.109L83.2941 325.57C82.761 325.26 82.1564 325.095 81.5399 325.09L80.6285 325.001C79.192 325.003 77.8973 325.868 77.3465 327.195C76.7957 328.521 77.0968 330.049 78.1099 331.068C78.7739 331.741 79.6828 332.116 80.6285 332.106V332.077Z" fill="#382C80"/>
<path d="M253.961 444.993C266.782 442.94 278.408 436.264 286.644 426.226C289.182 423.07 284.821 418.542 282.136 421.708C274.56 430.857 264.094 437.155 252.462 439.563C248.875 440.289 250.443 445.581 253.961 444.993Z" fill="#382C80"/>
<path d="M290.878 74.9934C296.836 68.3 302.697 61.538 308.567 54.776C311.438 51.4734 314.29 48.1512 317.171 44.8682C319.729 41.9282 322.326 39.047 326.305 38.3022L323.825 36.4598C322.181 52.6836 319.354 68.7657 315.368 84.5778C315.178 85.3219 315.395 86.1111 315.938 86.6541C316.481 87.1972 317.27 87.4137 318.014 87.2238C336.241 81.351 356.032 82.7557 373.247 91.1438L373.796 86.9984C365.319 89.8404 356.959 93.045 348.717 96.5044C344.974 98.0724 341.23 99.6698 337.545 101.404C335.066 102.561 333.194 104.54 334.272 107.471C335.448 110.656 339.231 113.057 341.691 115.193C344.957 117.996 348.27 120.72 351.628 123.366C358.253 128.55 365.123 133.333 372.159 137.939L372.727 133.529C360.474 137.468 347.649 139.333 334.782 139.046C331.665 139.046 331.724 143.642 334.782 143.858C348.096 144.608 361.426 142.678 373.982 138.184C374.893 137.899 375.557 137.111 375.681 136.164C375.805 135.217 375.367 134.284 374.56 133.774C362.681 126.283 351.47 117.781 341.054 108.362C340.319 107.706 338.653 106.579 339.015 105.863C339.378 105.148 342.877 104.099 343.778 103.698C347.306 102.123 350.857 100.604 354.431 99.1406C361.203 96.3672 368.063 93.829 375.011 91.3986C376.677 90.8106 377.451 88.1548 375.55 87.2434C357.246 78.4025 336.248 76.9257 316.887 83.1176L319.533 85.7636C323.329 69.5234 326.069 53.0543 327.736 36.4598C327.873 35.0976 326.383 34.3626 325.266 34.5782C317.485 36.058 312.301 44.6624 307.508 50.2582C301.119 57.6768 294.71 65.0954 288.408 72.5924C286.987 74.2878 289.388 76.7574 290.878 75.062V74.9934Z" fill="#382C80"/>
<path d="M322.365 163.38C326.354 164.81 330.332 166.32 334.35 167.633C336.693 168.417 337.682 164.742 335.33 163.948C331.332 162.566 327.285 161.302 323.257 160.028C321.101 159.332 320.238 162.645 322.326 163.399L322.365 163.38Z" fill="#382C80"/>
<path d="M260.488 82.118C253.569 74.278 246.768 66.1146 239.31 58.6764C233.254 52.62 226.217 47.2104 217.534 45.8482C216.809 45.6725 216.045 45.888 215.518 46.4167C214.991 46.9455 214.779 47.7107 214.957 48.4354C218.172 65.1531 224.302 81.1752 233.067 95.7694L234.42 92.3198C219.434 96.8958 205.601 104.624 193.848 114.987C192.437 116.222 193.338 118.368 194.887 118.907C204.16 122.063 213.849 123.827 223.64 124.14C226.58 124.238 226.58 119.632 223.64 119.525C214.291 119.188 205.044 117.467 196.2 114.419L197.229 118.339C208.488 108.661 221.584 101.355 235.733 96.8572C236.422 96.6538 236.981 96.1477 237.252 95.4821C237.523 94.8165 237.476 94.0638 237.125 93.437C228.294 79.3365 222.16 63.7182 219.034 47.377L216.447 49.9544C225.188 51.2774 231.94 56.8732 237.938 63.008C244.798 70.0444 251.335 77.4532 258.106 84.568C259.625 86.1752 261.958 83.7938 260.517 82.1474L260.488 82.118Z" fill="#382C80"/>
<path d="M267.397 56.5498C268.632 60.5972 269.867 64.6446 271.199 68.6724C271.876 70.7304 275.119 69.8778 274.473 67.7708C273.267 63.7038 271.974 59.676 270.69 55.6384C270.023 53.551 266.77 54.433 267.397 56.5498Z" fill="#382C80"/>
</svg>
