<svg width="1000" height="1000" viewBox="0 0 1000 1000" fill="none" xmlns="http://www.w3.org/2000/svg">
<path d="M545.198 951.868C488.867 951.486 432.547 951.123 376.216 951.123H273.159C241.28 951.123 201.129 957.846 170.073 951.123C154.864 947.85 157.902 949.565 156.549 934.297C155.873 926.662 156.402 918.715 156.343 911.051C156.2 893.058 156.079 875.065 155.981 857.073C155.491 767.853 155.259 678.631 155.285 589.405C155.167 416.514 155.383 243.622 155.932 70.7304C155.932 61.1068 480.655 70.0738 509.643 70.5442C516.67 70.6618 524.03 70.8578 530.223 74.1114C548.706 83.9114 540.278 140.34 540.445 158.127C540.758 191.447 541.042 224.793 541.297 258.165C541.951 338.427 542.529 418.689 543.032 498.951C544.012 644.609 544.786 790.276 546.472 935.923C546.53 940.98 546.592 946.04 546.658 951.104" fill="var(--color-illustration-secondary, #7F72FF)"/>
<path d="M214.82 465.808C214.82 410.673 215.8 355.529 215.751 300.394C215.751 272.954 215.731 245.514 215.692 218.074L215.633 176.551V155.785C215.633 152.718 215.447 149.582 215.633 146.514C215.8 143.702 217.407 143.398 220.024 143.27C233.352 142.643 246.944 143.653 260.282 143.868C273.62 144.084 287.222 144.348 300.697 144.525L305.499 144.593C306.087 144.593 308.929 144.329 309.478 144.897C310.39 145.877 309.664 150.895 309.664 152.198L309.713 172.915C309.713 186.733 309.775 200.548 309.9 214.36C310.262 269.377 310.762 324.394 310.958 379.411C311.056 406.851 311.125 434.203 310.958 461.594C310.958 463.201 311.017 464.828 310.958 466.425C310.958 466.817 311.066 467.797 310.811 468.101C311.076 467.788 309.831 468.101 310.115 467.954C307.067 469.032 302.991 468.875 299.766 469.218C293.004 469.944 286.223 470.525 279.422 470.963C266.054 471.845 252.661 472.126 239.242 471.806C232.434 471.636 225.629 471.309 218.828 470.826C213.046 470.424 213.066 479.43 218.828 479.822C247.622 481.818 276.541 481.001 305.176 477.382C310.439 476.706 317.455 476.627 319.161 470.365C319.984 467.366 319.533 463.936 319.494 460.869C319.448 457.197 319.412 453.516 319.386 449.824L319.053 406.312C318.504 348.1 318.7 289.81 318.7 231.568C318.7 217.074 318.7 202.57 318.7 188.066L318.592 165.967C318.592 159.195 319.023 152.247 318.426 145.475C317.877 139.243 313.829 136.087 307.793 135.675C300.658 135.244 293.416 135.519 286.233 135.46L243.113 135.136C236.027 135.078 228.952 134.96 221.876 134.95C216.907 134.95 211.165 135.705 208.626 140.615C207.431 142.918 207.382 145.515 207.382 148.072V159.832V181.285C207.434 210.587 207.499 239.885 207.578 269.181C207.744 327.55 207.725 385.938 208.862 444.297C208.999 451.441 209.116 458.595 209.146 465.749C209.146 469.365 214.761 469.365 214.761 465.749L214.82 465.808Z" fill="var(--color-illustration-primary, #382C80)"/>
<path d="M385.075 469.306C385.075 414.171 386.055 359.027 386.006 303.892C386.006 276.452 385.987 249.012 385.948 221.572L385.879 180.049V159.283C385.879 156.216 385.693 153.08 385.879 150.022C386.046 147.2 387.663 146.896 390.279 146.778C403.597 146.141 417.19 147.151 430.528 147.366C443.866 147.582 457.478 147.847 470.953 148.033L475.745 148.092C476.333 148.092 479.185 147.827 479.734 148.395C480.635 149.375 479.91 154.393 479.92 155.696V176.414C479.92 190.232 479.982 204.046 480.106 217.858C480.469 272.875 480.968 327.892 481.164 382.909C481.262 410.3 481.321 437.701 481.164 465.092C481.164 466.699 481.223 468.326 481.164 469.924C481.164 470.316 481.272 471.296 481.017 471.599C481.272 471.296 480.037 471.55 480.322 471.452C477.264 472.53 473.187 472.374 469.973 472.717C463.201 473.452 456.419 474.02 449.628 474.471C436.254 475.346 422.861 475.624 409.448 475.304C402.634 475.14 395.826 474.814 389.025 474.324C383.243 473.932 383.272 482.928 389.025 483.32C417.822 485.316 446.744 484.499 475.382 480.88C480.635 480.204 487.662 480.125 489.367 473.873C490.18 470.864 489.73 467.434 489.69 464.367C489.69 460.692 489.612 457.007 489.583 453.322L489.22 409.84C488.779 351.608 489.014 293.357 488.985 235.116C488.985 220.621 488.985 206.117 488.985 191.613L488.877 169.514C488.877 162.743 489.308 155.794 488.72 149.023C488.171 142.79 484.124 139.634 478.077 139.272C470.943 138.85 463.711 139.115 456.566 139.056L413.397 138.733C406.322 138.674 399.236 138.556 392.161 138.546C387.192 138.546 381.449 139.301 378.911 144.211C377.725 146.514 377.667 149.111 377.667 151.669V163.429V184.881C377.725 214.183 377.791 243.485 377.863 272.787C378.029 331.146 378.019 389.534 379.156 447.893C379.293 455.047 379.411 462.191 379.431 469.345C379.431 472.962 385.056 472.971 385.056 469.345L385.075 469.306Z" fill="var(--color-illustration-primary, #382C80)"/>
<path d="M214.82 847.841C214.82 792.706 215.8 737.572 215.751 682.427C215.751 654.987 215.731 627.547 215.692 600.107L215.633 558.575V537.818C215.633 534.741 215.447 531.615 215.633 528.547C215.8 525.725 217.407 525.431 220.024 525.304C233.352 524.667 246.944 525.676 260.282 525.901C273.62 526.127 287.222 526.382 300.697 526.558L305.499 526.617C306.087 526.617 308.929 526.352 309.478 526.921C310.39 527.901 309.664 532.918 309.664 534.231L309.713 554.949C309.713 568.753 309.775 582.565 309.9 596.383C310.262 651.4 310.762 706.417 310.958 761.435C311.056 788.875 311.125 816.226 310.958 843.617C310.958 845.225 311.017 846.851 310.958 848.459C310.958 848.841 311.066 849.831 310.811 850.125C311.076 849.821 309.831 850.125 310.115 849.978C307.067 851.056 302.991 850.909 299.766 851.252C293.004 851.977 286.213 852.545 279.422 852.996C266.054 853.865 252.661 854.143 239.242 853.829C232.431 853.672 225.62 853.339 218.828 852.849C213.046 852.457 213.066 861.453 218.828 861.845C247.622 863.847 276.542 863.029 305.176 859.405C310.439 858.729 317.455 858.651 319.161 852.398C319.984 849.399 319.533 845.96 319.494 842.902C319.448 839.217 319.412 835.532 319.386 831.848L319.053 788.345C318.602 730.104 318.837 671.863 318.808 613.621C318.808 599.117 318.808 584.613 318.808 570.109L318.563 548.02C318.563 541.258 318.994 534.3 318.396 527.528C317.847 521.305 313.8 518.14 307.763 517.728C300.629 517.307 293.387 517.571 286.203 517.522L243.083 517.189C235.998 517.14 228.922 517.023 221.847 517.003C216.878 517.003 211.135 517.767 208.597 522.667C207.401 524.97 207.352 527.567 207.352 530.135V541.895V563.357C207.405 592.652 207.47 621.951 207.548 651.253C207.715 709.622 207.695 768.001 208.832 826.36C208.969 833.514 209.087 840.658 209.116 847.812C209.116 851.428 214.732 851.438 214.732 847.812L214.82 847.841Z" fill="var(--color-illustration-primary, #382C80)"/>
<path d="M385.075 851.349C385.075 796.205 386.055 741.07 386.006 685.925C386.006 658.485 385.987 631.045 385.948 603.605L385.879 562.073V541.317C385.879 538.239 385.693 535.113 385.879 532.046C386.046 529.223 387.663 528.929 390.279 528.802C403.597 528.175 417.19 529.174 430.528 529.4C443.866 529.625 457.478 529.88 470.953 530.056L475.745 530.125C476.333 530.125 479.185 529.851 479.734 530.419C480.635 531.399 479.91 536.417 479.92 537.73V558.447C479.92 572.258 479.982 586.07 480.106 599.881C480.469 654.899 480.968 709.916 481.164 764.943C481.262 792.383 481.321 819.725 481.164 847.116C481.164 848.723 481.223 850.35 481.164 851.957C481.164 852.339 481.272 853.329 481.017 853.623C481.272 853.319 480.037 853.623 480.322 853.476C477.264 854.554 473.187 854.456 469.973 854.75C463.204 855.475 456.423 856.057 449.628 856.494C436.254 857.37 422.861 857.647 409.448 857.327C402.637 857.171 395.826 856.837 389.025 856.347C383.243 855.955 383.272 864.952 389.025 865.344C417.821 867.345 446.745 866.528 475.382 862.904C480.635 862.227 487.662 862.149 489.367 855.897C490.18 852.898 489.73 849.458 489.69 846.4C489.69 842.716 489.612 839.031 489.583 835.346L489.22 791.834C488.779 733.593 489.014 675.351 488.985 617.11C488.985 602.606 488.985 588.102 488.985 573.598L488.877 551.499C488.877 544.737 489.308 537.779 488.72 531.007C488.171 524.784 484.124 521.619 478.077 521.256C470.943 520.835 463.711 521.099 456.566 521.05L413.397 520.717C406.322 520.717 399.236 520.55 392.161 520.531C387.192 520.531 381.449 521.295 378.911 526.195C377.725 528.498 377.667 531.095 377.667 533.663V545.423V566.885C377.725 596.187 377.791 625.485 377.863 654.781C378.029 713.15 378.019 771.528 379.156 829.887C379.293 837.041 379.411 844.186 379.431 851.349C379.431 854.956 385.056 854.966 385.056 851.349H385.075Z" fill="var(--color-illustration-primary, #382C80)"/>
<path d="M689.316 616.62C721.549 587.985 732.583 542.513 736.67 499.589C737.826 487.515 737.532 473.129 727.546 466.19C722.646 462.819 716.502 462.104 710.612 461.496L632.545 453.372C625.685 452.656 618.551 451.98 612.122 454.43C595.609 460.732 590.709 504.234 586.328 519.424C578.772 545.678 572.118 572.236 568.002 599.264C561.24 643.668 561.466 689.826 575.156 732.603C583.917 759.965 597.98 785.366 614.043 809.18C630.879 834.141 651.616 858.719 680.202 868.147" fill="var(--color-illustration-base, #FFFFFF)"/>
<path d="M691.619 618.874C709.789 603.321 721.627 582.437 729.124 559.956C732.947 548.292 735.844 536.345 737.787 524.225C739.679 512.779 741.707 500.833 741.443 489.2C741.217 478.42 738.052 466.66 727.86 461.231C722.137 458.154 715.58 457.585 709.24 456.909L686.641 454.528L640.757 449.687C629.566 448.511 615.336 445.384 605.673 452.999C599.333 457.987 595.873 465.964 593.159 473.344C589.954 482.115 587.867 491.278 585.917 500.392C581.017 523.422 573.853 545.874 568.884 568.913C556.84 624.93 553.273 684.857 572.52 739.747C581.722 766.001 595.432 790.472 611.063 813.404C624.783 833.592 640.924 853.388 662.572 865.501C667.803 868.376 673.317 870.705 679.026 872.449C684.632 874.213 686.866 865.697 681.427 863.746C659.73 855.906 642.619 839.246 628.792 821.312C613.269 801.189 600.088 779.365 589.503 756.26C566.885 706.594 564.543 651.106 572.941 597.804C575.137 583.868 577.998 570.04 581.301 556.32C584.339 543.678 588.082 531.252 591.307 518.669C595.285 503.106 597.049 486.809 603.439 471.942C605.987 466.062 609.495 459.653 615.64 457.997C621.99 456.302 628.87 457.438 635.299 458.105L656.526 460.28L699.646 464.71C710.367 465.808 725.478 464.847 730.525 476.617C734.583 486.094 732.662 497.677 731.505 507.546C730.266 518.855 728.348 530.08 725.763 541.16C720.569 563.004 712.043 584.456 698.117 602.243C694.728 606.541 691.02 610.577 687.023 614.317C683.946 617.257 688.474 621.598 691.619 618.913V618.874Z" fill="var(--color-illustration-primary, #382C80)"/>
<path d="M744.726 466.915C758.339 515.376 756.313 566.898 738.934 614.14C725.38 650.675 702.605 684.808 699.734 723.665C698.362 742.207 701.694 760.748 704.977 779.045C714.297 830.73 725.38 882.347 733.397 934.238C737.317 959.326 711.415 957.111 690.884 958.914C661.749 961.462 631.928 960.276 603.018 961.07C602.112 961.186 601.193 961.004 600.401 960.551C599.784 960.031 599.356 959.321 599.186 958.532C597.686 953.524 599.676 948.007 603.027 943.999C606.379 939.99 610.936 937.227 615.424 934.561C643.717 917.676 648.617 901.584 641.806 871.028C634.828 839.668 628.468 808.259 624.166 776.448C613.2 694.647 612.916 609.848 634.476 529.39" fill="var(--color-illustration-base, #FFFFFF)"/>
<path d="M741.609 467.778C751.301 503.031 752.733 540.044 745.794 575.94C742.221 593.763 736.696 611.139 729.32 627.753C722.46 643.433 714.738 658.809 708.27 674.705C701.802 690.6 696.804 707.153 695.588 724.342C694.216 744.001 697.931 763.591 701.41 782.848C708.485 822.048 716.502 861.012 723.43 900.212C725.096 909.673 726.69 919.146 728.213 928.633C729.095 934.169 731.153 941.372 727.507 946.4C724.998 949.908 720.441 951.3 716.433 952.192C711.043 953.215 705.58 953.815 700.096 953.985C682.564 955.044 665.13 956.19 647.549 956.337C637.631 956.425 627.704 956.406 617.776 956.504C615.532 956.504 613.298 956.553 611.054 956.592C609.094 956.592 606.154 956.2 604.36 956.729H603.027C603.488 957.709 603.508 957.562 603.096 956.278C603.096 955.543 602.978 954.897 603.096 954.142C603.344 951.913 604.165 949.786 605.477 947.968C609.956 941.441 618.217 938.227 624.597 933.836C629.913 930.314 634.709 926.066 638.846 921.214C645.951 912.492 649.136 902.055 648.931 890.834C648.688 884.097 647.799 877.399 646.275 870.832C644.207 861.228 642.051 851.634 640.062 842.01C636.142 822.979 632.594 803.869 629.772 784.651C618.747 709.554 617.032 631.947 632.31 557.291C634.152 548.285 636.23 539.337 638.572 530.439C639.915 525.255 631.957 523.06 630.546 528.224C609.887 603.988 608.927 683.917 618.031 761.464C620.357 781.247 623.336 800.912 626.969 820.46C630.546 839.737 635.367 858.798 638.866 878.084C640.826 889.178 641.404 901.163 635.426 911.189C632.359 916.042 628.434 920.296 623.843 923.742C617.561 928.642 610.191 932.043 604.007 937.109C597.824 942.176 592.933 950.3 594.786 958.669C595.648 962.59 598.029 965.186 602.145 965.461C606.859 965.784 611.749 965.275 616.473 965.226C636.798 964.991 657.133 965.304 677.449 964.246C685.416 963.824 693.374 963.109 701.351 962.599C707.197 962.373 713.017 961.689 718.756 960.551C729.888 958.062 738.258 950.82 738.12 938.756C738.12 934.836 737.229 930.916 736.611 927.084C735.775 921.897 734.916 916.716 734.034 911.541C732.302 901.402 730.493 891.275 728.605 881.161C724.9 861.14 720.98 841.148 717.119 821.156C713.199 800.997 709.142 780.839 706.006 760.553C702.997 741.119 702.478 721.882 707.299 702.733C716.021 668.05 736.053 637.543 746.548 603.439C760.284 558.78 760.733 511.09 747.842 466.18C746.695 462.192 740.502 463.877 741.609 467.905V467.778Z" fill="var(--color-illustration-primary, #382C80)"/>
<path d="M634.554 529.4C612.994 609.858 613.278 694.658 624.244 776.458C626.832 795.715 630.183 814.864 633.976 833.916C635.857 843.373 637.376 853.143 639.954 862.434C642.717 872.371 649.048 872.234 658.956 874.262C689.302 880.539 720.804 878.099 749.822 867.226C757.436 864.354 761.582 864.178 761.983 856.593C762.336 849.341 757.083 838.796 755.123 831.74C750.429 814.639 745.745 797.538 741.247 780.378C736.543 762.395 731.799 744.118 731.721 725.577C731.554 686.612 751.615 650.822 762.287 613.337C775.945 564.89 773.966 513.369 756.633 466.112" fill="var(--color-illustration-base, #FFFFFF)"/>
<path d="M631.438 528.537C615.199 587.955 610.858 650.057 614.052 711.376C615.67 742.089 619.011 772.687 624.058 803.026C626.636 818.51 629.625 833.945 632.633 849.35C633.878 855.74 634.711 863.276 638.102 868.95C640.454 872.87 644.276 875.212 648.627 876.437C661.053 879.916 674.567 881.484 687.425 881.867C702.176 882.291 716.919 880.785 731.28 877.388C738.258 875.673 745.129 873.553 751.86 871.038C756.045 869.519 760.866 868.411 763.698 864.687C770.705 855.505 762.718 841.51 759.778 832.269C755.123 817.422 751.478 802.163 747.499 787.13C743.52 772.097 739.169 756.907 737.14 741.413C733.269 711.886 741.835 684.054 751.899 656.633C756.927 643.08 762.15 629.556 766.178 615.64C778.363 573.255 778.776 528.352 767.373 485.751C765.472 478.714 763.238 471.786 760.67 464.965C758.818 460.065 750.87 462.093 752.654 467.17C762.273 493.881 767.103 522.08 766.923 550.47C766.687 578.576 761.043 605.693 751.654 632.123C742.393 658.348 731.123 684.21 728.134 712.121C724.959 741.58 734.112 770.509 741.668 798.635C745.392 812.473 748.528 826.683 753.428 840.158C755.27 845.205 758.014 851.055 757.632 856.553C757.348 860.699 753.938 861.12 750.488 862.355C724.087 871.782 696.588 875.879 668.668 871.655C662.984 870.793 657.172 869.813 651.596 868.401C647.431 867.353 645.256 865.461 644.021 861.267C641.904 854.074 640.659 846.567 639.268 839.246C637.876 831.926 636.328 824.282 634.946 816.785C629.495 787.526 625.56 758.005 623.157 728.34C618.423 669.471 620.266 609.848 632.535 551.94C634.074 544.658 635.799 537.416 637.661 530.213C638.709 526.185 632.525 524.48 631.438 528.498V528.537Z" fill="var(--color-illustration-primary, #382C80)"/>
<path d="M670.118 241.672C601.028 246.043 569.56 297.757 524.294 333.567C525.823 332.361 465.965 248.052 460.486 240.271C451.451 227.442 442.915 212.762 430.351 203.031C418.272 193.873 403.729 188.539 388.594 187.713C362.369 186.155 328.157 196.357 312.859 219.191C307.44 227.266 306.332 238.928 314.545 245.759C319.004 249.473 324.698 251.315 329.637 254.353C330.655 254.934 331.583 255.66 332.391 256.509C333.273 257.618 333.989 258.85 334.517 260.165C355.048 304.755 385.967 346.405 423.335 378.519C440.975 393.68 461.613 405.9 484.33 410.859C518.934 418.484 555.615 408.625 586.25 390.75C616.885 372.874 660.945 340.838 685.347 315.143" fill="var(--color-illustration-base, #FFFFFF)"/>
<path d="M670.118 238.34C645.925 239.897 622.548 247.693 602.263 260.968C583.192 273.356 566.914 289.33 550.49 304.912C541.091 313.82 531.576 322.61 521.403 330.637L527.185 336.419C530.213 332.626 526.078 327.883 523.99 324.61C519.894 318.191 515.592 311.87 511.25 305.617C500.274 289.584 489.112 273.669 477.93 257.783C467.964 243.632 458.536 228.834 447.923 215.193C437.731 202.1 424.873 192.329 408.968 187.223C395.14 182.784 380.489 182.49 366.23 184.734C352.824 186.851 339.456 191.437 328.01 198.856C317.328 205.804 306.087 216.329 304.49 229.657C303.533 236.426 305.841 243.247 310.713 248.042C313.724 250.661 317.106 252.82 320.748 254.451C324.58 256.353 328.588 257.774 330.548 261.792C337.648 276.898 345.687 291.545 354.617 305.647C372.512 333.616 394.289 358.901 419.297 380.744C444.336 402.422 474.667 417.69 508.35 417.768C541.474 417.847 572.05 404.891 599.686 387.575C625.665 371.297 650.812 353.02 673.558 332.44C678.615 327.866 683.515 323.113 688.258 318.181C692.07 314.192 686.024 308.116 682.202 312.124C662.464 332.802 639.082 350.393 615.669 366.632C591.169 383.615 565.631 399.589 536.133 406.097C520.698 409.487 504.488 410.34 488.897 407.439C473.56 404.577 459.154 398.355 445.982 390.054C432.811 381.753 420.953 371.267 409.83 360.291C398.671 349.3 388.282 337.555 378.735 325.139C369.089 312.579 360.296 299.388 352.412 285.655C348.597 279.023 345.003 272.268 341.632 265.388C339.995 262.046 338.692 258.254 336.624 255.157C334.556 252.06 330.999 250.12 327.628 248.405C321.562 245.328 314.163 242.525 312.928 234.979C311.948 228.883 314.809 223.082 318.504 218.456C326.344 208.578 337.771 201.865 349.521 197.66C375.52 188.37 407.047 188.997 429.087 207.372C440.661 217.025 448.325 230.275 456.89 242.446C459.451 246.085 462.015 249.711 464.583 253.324C474.723 267.698 484.817 282.071 494.865 296.444C503.107 308.322 511.76 320.102 519.208 332.508C519.58 333.126 519.904 333.792 520.286 334.4C520.668 335.007 520.08 334.939 520.217 334.145C520.498 332.939 520.871 331.756 521.335 330.607C518.071 334.743 522.971 339.692 527.117 336.389C561.279 309.076 588.563 271.376 630.017 254.187C642.783 248.943 656.317 245.809 670.089 244.906C674.303 244.612 674.342 238.046 670.089 238.311L670.118 238.34Z" fill="var(--color-illustration-primary, #382C80)"/>
<path d="M617.394 288.584C603.439 315.28 600.734 346.316 597.892 376.177C596.422 391.386 594.952 406.645 591.924 421.61C589.425 433.997 582.859 447.56 584.153 460.486C584.78 466.837 589.846 471.639 595.001 474.931C609.995 484.506 628.096 486.691 645.559 486.966C676.792 487.524 708.789 482.634 736.209 466.866C741.923 463.573 747.803 459.3 749.743 452.705C751.968 445.179 748.381 437.26 745.823 429.842C739.189 410.839 737.679 388.231 737.983 368.102C738.297 343.896 734.308 319.229 723.567 297.826" fill="var(--color-illustration-base, #FFFFFF)"/>
<path d="M614.66 286.967C597.373 319.111 595.922 356.146 591.904 391.612C590.817 401.255 589.533 410.898 587.524 420.385C585.672 429.107 582.291 437.427 580.517 446.159C578.87 454.302 578.047 463.348 583.114 470.472C587.896 477.195 595.619 481.429 603.067 484.555C618.747 491.121 636.044 492.179 652.802 492.052C670.491 491.925 688.336 489.955 705.408 485.192C713.762 482.865 721.897 479.816 729.722 476.078C736.582 472.775 744.265 469.002 749.43 463.191C755.496 456.331 756.584 447.923 754.33 439.259C752.076 430.596 748.381 422.276 746.49 413.358C744.534 403.646 743.38 393.79 743.04 383.889C742.599 373.717 743.04 363.515 742.413 353.343C741.1 333.243 736.631 313.574 727.321 295.621C724.665 290.486 717.227 294.994 719.638 300.109C726.633 315.354 730.905 331.705 732.26 348.423C733.73 364.77 732.446 381.185 734.073 397.541C734.85 405.984 736.275 414.355 738.336 422.58C740.384 430.479 744.922 438.505 745.333 446.698C745.706 454.057 740.267 458.458 734.475 461.927C727.615 465.926 720.397 469.275 712.915 471.933C697.604 477.298 681.62 480.504 665.424 481.458C649.744 482.487 633.241 482.634 617.816 479.008C610.266 477.363 603.073 474.376 596.579 470.188C593.884 468.385 591.14 466.023 589.719 463.005C588.151 459.614 588.582 455.233 589.062 451.637C590.15 443.356 593.218 435.457 595.285 427.401C597.432 418.993 598.559 410.281 599.637 401.676C604.272 364.436 603.116 324.609 620.128 290.211C621.941 286.546 616.571 283.351 614.601 286.977L614.66 286.967Z" fill="var(--color-illustration-primary, #382C80)"/>
<path d="M384.252 208.842C378.599 208.994 373.025 210.204 367.818 212.409C363.329 214.418 358.086 217.388 355.519 221.749C352.951 226.11 354.088 231.441 357.479 235.018C361.399 239.232 367.23 240.055 372.708 240.535L371.444 231.48C362.134 234.214 354.989 241.28 350.864 249.934C347.267 257.558 343.024 270.416 350.609 276.982C352.349 278.724 355.172 278.727 356.915 276.987C358.658 275.247 358.66 272.423 356.92 270.68C355.156 268.612 355.94 264.898 356.459 262.517C357.16 259.155 358.325 255.906 359.919 252.864C362.976 247.131 367.592 242.329 373.923 240.379C378.98 238.82 377.912 231.559 372.688 231.284C369.885 231.137 366.161 231.284 363.947 229.207C361.418 226.894 363.378 225.051 365.436 223.327C370.779 218.877 377.34 216.144 384.262 215.487C388.486 215.193 388.545 208.627 384.262 208.862L384.252 208.842Z" fill="var(--color-illustration-primary, #382C80)"/>
<path d="M354.637 206.765C354.637 211.665 354.931 217.545 359.037 220.847C362.859 223.954 368.2 218.956 364.564 215.31C362.251 212.988 361.996 209.891 361.82 206.765C361.555 202.188 354.666 202.11 354.637 206.765Z" fill="var(--color-illustration-primary, #382C80)"/>
<path d="M338.418 209.92C335.683 220.249 341.162 231.02 351.785 233.666C356.979 234.969 359.194 226.953 354 225.649C347.541 224.042 343.073 218.417 344.562 211.616C345.434 207.637 339.476 205.932 338.418 209.92Z" fill="var(--color-illustration-primary, #382C80)"/>
<path d="M321.464 220.279C320.304 227.223 323.038 234.244 328.588 238.575C333.204 242.397 340.397 245.602 346.101 242.309C348.796 240.761 348.404 236.165 345.199 235.449C341.201 234.557 337.536 234.842 333.959 232.441C329.509 229.501 327.834 225.502 328.079 220.269C328.294 215.898 322.003 216.182 321.454 220.269L321.464 220.279Z" fill="var(--color-illustration-primary, #382C80)"/>
<path d="M649.479 278.01C647.069 278.196 645.795 275.207 645.618 272.797C645.04 264.849 648.441 256.989 653.458 250.805C654.707 249.143 656.248 247.722 658.005 246.611C659.661 245.745 661.424 245.103 663.248 244.7C677.625 240.858 693.089 242.289 707.995 242.466C772.577 243.269 896.253 258.9 880.72 351.422C877.555 370.297 868.617 387.731 858.317 403.862C847.618 420.829 835.325 436.738 821.607 451.372C814.546 458.968 806.909 466.005 798.763 472.423C791.648 477.911 780.496 481.017 779.79 491.562C779.212 500.264 787.983 513.798 774.537 518.11C768.03 520.198 761.542 515.268 756.476 510.672C758.039 514.103 756.871 518.162 753.722 520.237C750.481 522.124 746.377 521.606 743.706 518.973C740.766 515.964 740.149 510.927 736.592 508.653C737.047 510.868 737.047 513.152 736.592 515.366C735.974 517.532 734.21 519.531 731.956 519.688C730.055 519.825 728.311 518.649 726.89 517.375C723.892 514.696 721.52 511.39 719.941 507.693C719.941 511.672 718.726 516.719 714.787 517.307C711.67 517.767 709.103 515.004 707.319 512.407C700.069 501.809 695.432 489.645 693.785 476.911C692.198 464.7 694.226 461.799 684.965 453.646C682.221 451.235 681.29 447.256 681.741 443.63C682.192 440.004 683.848 436.643 685.573 433.428C707.329 392.768 749.273 366.788 784.553 339.113C778.908 338.476 774.067 334.997 769.137 332.194C753.271 323.149 734.955 320.434 716.511 319.513" fill="var(--color-illustration-base, #FFFFFF)"/>
<path d="M649.479 274.747C648.421 274.678 648.921 268.916 648.999 268.279C649.407 265.284 650.315 262.379 651.684 259.684C654.183 254.686 657.506 249.884 663.082 248.267C675.361 244.759 688.336 245.445 700.949 245.827C714.767 246.239 728.536 246.552 742.315 247.836C770.382 250.433 799.155 255.5 825.105 267.005C848.312 277.314 870.058 294.033 876.193 319.876C880.113 336.409 877.32 353.97 871.42 369.66C862.992 392.082 848.361 412.78 833.367 431.312C825.795 440.714 817.61 449.605 808.867 457.928C804.705 462.011 800.268 465.802 795.588 469.277C792.285 471.619 788.63 473.403 785.327 475.735C777.859 480.998 774.331 487.965 775.762 497.109C776.556 502.185 780.496 511.025 773.802 513.534C768.579 515.494 763.326 510.594 759.749 507.409C756.691 504.665 750.116 507.291 752.046 511.907C753.604 515.631 749.763 518.551 746.803 515.445C745.402 513.975 744.784 511.711 743.785 509.966C742.584 507.858 740.943 506.033 738.973 504.616C736.278 502.656 731.505 505.262 731.937 508.653C732.123 510.192 732.554 512.093 732.152 513.632C731.603 515.699 731.172 514.837 729.81 513.632C727.309 511.283 725.335 508.431 724.018 505.262C722.009 500.745 715.277 503.302 715.198 507.654C715.289 509.099 715.041 510.545 714.473 511.878C713.944 512.789 714.14 512.936 713.179 511.975C710.337 509.133 708.358 505.282 706.506 501.744C702.552 494.114 699.902 485.876 698.666 477.372C697.862 471.933 698.274 465.965 696.333 460.712C695.336 458.15 693.874 455.794 692.021 453.764C689.669 451.078 686.563 449.481 686.455 445.551C686.347 441.621 688.474 438.093 690.257 434.83C692.158 431.341 694.177 427.97 696.431 424.648C700.817 418.124 705.696 411.945 711.023 406.165C721.568 394.611 733.465 384.38 745.725 374.697C759.631 363.711 774.067 353.411 788.032 342.504C790.795 340.338 789.345 334.811 785.866 334.301C780.094 333.449 775.556 330.009 770.568 327.275C765.078 324.277 759.283 321.875 753.281 320.111C741.374 316.593 728.879 315.485 716.521 315.142C710.945 314.986 711.092 323.286 716.521 323.717C728.458 324.698 740.374 326.285 751.801 329.94C757.318 331.687 762.629 334.03 767.638 336.928C772.538 339.799 777.438 342.916 783.249 343.788L781.084 335.585C752.958 357.616 722.284 377.392 699.165 405.018C693.553 411.653 688.492 418.736 684.034 426.196C679.418 434.036 673.989 443.768 678.487 452.872C681.153 458.262 686.984 460.584 687.964 466.778C689.326 475.363 689.581 483.761 692.227 492.16C693.801 497.131 695.807 501.955 698.225 506.576C700.547 511.015 703.232 516.091 707.162 519.316C711.092 522.54 716.453 523.157 720.304 519.678C723.656 516.64 724.596 511.966 724.655 507.634L715.835 510.025C718.471 515.905 724.185 524.176 731.378 524.304C739.943 524.461 742.158 515.415 741.286 508.624L734.22 512.74C736.827 514.651 737.65 519.169 739.796 521.638C742.447 524.63 746.32 526.247 750.312 526.029C759.406 525.558 763.747 516.229 760.445 508.389L753.203 513.975C757.73 518.012 762.807 522.099 768.99 523C774.271 523.754 779.587 521.89 783.24 518.003C789.325 511.143 785.307 502.264 784.376 494.384C783.318 485.398 792.481 482.056 798.694 477.95C809.2 471.002 818.353 461.447 826.85 452.235C844.49 433.095 860.581 411.271 872.39 388.015C881.828 369.395 888.07 348.364 885.64 327.353C884.045 313.052 878.248 299.544 868.98 288.535C859.709 277.501 847.42 269.2 834.503 262.938C806.368 249.218 774.723 243.553 743.746 240.751C728.213 239.339 712.68 239.124 697.098 238.791C690.237 238.524 683.366 238.639 676.518 239.134C670.295 239.682 663.513 240.486 657.78 243.054C652.723 245.347 649.068 250.57 646.53 255.343C643.72 260.321 642.251 265.944 642.267 271.66C642.423 276.246 644.354 280.95 649.479 281.274C653.684 281.548 653.644 275.041 649.479 274.747Z" fill="var(--color-illustration-primary, #382C80)"/>
<path d="M693.403 439.563C687.67 447.178 685.622 458.85 689.62 467.621C691.325 471.345 697.392 469.443 697.215 465.563C697.039 461.682 696.441 457.723 696.794 453.705C697.291 449.777 698.344 445.939 699.92 442.307C701.517 438.23 695.618 436.633 693.423 439.563H693.403Z" fill="var(--color-illustration-primary, #382C80)"/>
<path d="M650.548 170.593C651.691 174.757 651.345 179.191 649.568 183.127C647.137 188.468 642.227 196.759 635.848 197.131C626 197.753 616.114 196.884 606.526 194.554C603.247 193.874 600.15 192.505 597.441 190.536C594.844 188.439 592.973 185.205 593.267 181.882C593.717 176.737 599.078 175.424 603.321 174.719C604.047 174.601 606.026 174.719 606.575 174.248C607.8 173.268 607.094 173.69 606.399 172.18C604.88 168.868 603.635 166.075 603.557 162.312C603.428 159.667 603.953 157.032 605.085 154.638C606.791 151.306 612.592 145.505 625.234 143.329" fill="var(--color-illustration-primary, #382C80)"/>
<path d="M646.912 171.602C648.049 176.502 646.696 180.716 644.246 184.93C642.531 187.87 640.179 191.663 636.749 192.77C634.583 193.476 631.712 193.093 629.448 193.044C626.636 192.976 623.833 192.809 621.04 192.515C615.602 192.044 610.233 190.979 605.027 189.34C602.469 188.487 596.363 185.547 597.804 181.765C598.706 179.422 603.292 179.266 605.36 179.05C609.446 178.629 613.2 175.306 610.956 170.994C608.898 167.016 607.036 163.047 608.212 158.392C609.956 151.228 619.756 148.396 626.234 147.053C631.183 146.073 629.007 138.792 624.166 139.566C616.473 140.81 608.153 143.809 603.076 150.042C600.48 153.381 599.097 157.504 599.156 161.733C599.127 164.422 599.578 167.093 600.489 169.622C600.94 170.877 601.469 172.121 602.008 173.327C602.126 173.591 603.753 176.62 603.331 175.777V171.249C604.906 170.302 605.079 169.936 603.851 170.152C603.263 170.191 602.675 170.259 602.087 170.357C601.175 170.495 600.274 170.671 599.372 170.896C597.312 171.359 595.348 172.178 593.57 173.317C589.763 175.919 587.917 180.573 588.906 185.077C591.199 196.71 604.821 199.365 614.65 200.757C620.82 201.585 627.055 201.828 633.27 201.482C638.092 201.227 641.904 200.022 645.412 196.582C652.39 189.722 656.614 179.295 654.174 169.632C652.978 164.928 645.804 166.918 646.902 171.641L646.912 171.602Z" fill="var(--color-illustration-primary, #382C80)"/>
<path d="M636.445 172.758C626.008 182.705 623.549 202.08 622.5 215.663C622.216 219.348 622.108 223.14 623.225 226.668C625.95 235.292 634.152 238.497 642.276 239.722C646.118 240.31 647.245 242.887 647.01 246.582L646.157 260.233C645.755 266.74 645.765 274.267 650.734 278.481C653.811 281.088 658.152 281.715 662.17 281.333C664.879 281.116 667.521 280.381 669.952 279.167C678.487 274.727 683.397 263.261 684.23 254.147C685.307 241.11 685.563 228.017 684.995 214.947C684.72 207.107 684.073 199.209 683.858 191.329C683.701 185.528 682.192 180.951 677.831 176.786C670.344 169.719 660.197 166.182 649.94 167.065" fill="var(--color-illustration-base, #FFFFFF)"/>
<path d="M634.025 170.328C627.537 176.581 624.019 185.205 621.873 193.848C619.678 202.668 617.786 212.801 618.345 221.886C618.943 231.853 625.009 238.879 634.24 242.143C636.339 242.843 638.488 243.384 640.669 243.76C642.629 244.132 642.747 244.181 642.727 246.21C642.727 252.09 641.747 257.97 641.6 263.85C641.365 273.787 645.03 283.832 655.957 285.733C666.443 287.566 675.998 282.793 681.957 274.296C687.837 265.917 689.022 256.108 689.62 246.18C690.326 233.633 690.326 221.056 689.62 208.509C689.022 196.749 690.737 182.862 681.78 173.758C673.385 165.41 661.734 161.189 649.94 162.224C643.825 162.782 643.668 172.278 649.94 171.906C658.407 171.406 667.061 173.866 673.46 179.599C680.526 185.92 678.997 195.828 679.497 204.471C680.124 215.173 680.477 225.894 680.3 236.615C680.153 245.386 680.418 254.785 677.233 263.075C674.293 270.7 668.56 276.903 659.926 276.884C649.587 276.884 650.126 266.535 650.577 258.891C650.969 251.747 654.105 239.291 645.069 236.096C641.835 234.969 638.337 234.93 635.122 233.577C631.731 232.312 628.968 229.773 627.42 226.502C625.46 221.817 626.351 216.153 626.773 211.233C627.11 207.04 627.66 202.866 628.419 198.729C630.036 190.271 632.653 181.441 638.856 175.209C641.963 172.063 637.19 167.3 634.015 170.309L634.025 170.328Z" fill="var(--color-illustration-primary, #382C80)"/>
<path d="M662.866 233.489C655.418 235.321 647.088 235.272 639.493 234.822C634.76 234.547 633.564 242.466 638.356 243.21C642.784 243.93 647.291 244.02 651.743 243.475C656.467 242.897 660.22 241.397 664.552 239.624C668.246 238.114 666.953 232.479 662.866 233.489Z" fill="var(--color-illustration-primary, #382C80)"/>
<path d="M620.54 159.038C624.695 170.602 631.085 182.323 642.1 187.811C643.292 188.502 644.642 188.873 646.02 188.889C648.382 188.569 650.318 186.854 650.92 184.548C651.476 182.276 651.356 179.892 650.577 177.688C652.537 179.589 654.566 181.608 657.221 182.088C659.877 182.568 663.101 180.804 663.043 178.109C665.649 178.775 666.58 181.921 667.021 184.577C668.205 191.692 668.993 198.867 669.383 206.068C669.062 203.011 669.431 199.92 670.461 197.023C671.539 194.005 674.068 190.878 677.243 191.31C679.267 191.74 680.916 193.203 681.584 195.161C682.213 197.09 682.521 199.11 682.496 201.139C682.75 206.523 683.257 211.886 684.015 217.231C684.181 218.416 684.642 219.877 685.837 220.004C686.351 220.016 686.854 219.858 687.268 219.553C689.806 218.005 691.306 215.251 692.639 212.595C697.254 203.422 702.233 195.494 704.634 185.243C705.408 181.96 705.967 178.452 704.859 175.257C703.712 172.073 700.698 169.944 697.313 169.926C697.529 159.234 681.947 153.266 673.793 149.963C662.32 145.445 650.144 142.971 637.817 142.653C628.253 142.329 617.894 143.378 610.652 149.65" fill="var(--color-illustration-primary, #382C80)"/>
<path d="M617.453 159.94C620.952 170.426 625.94 180.98 634.74 188.056C638.925 191.427 644.736 195.2 650.165 192.29C655.987 189.163 656.516 182.225 655.007 176.512L647.363 180.961C650.636 184.224 654.566 187.35 659.485 186.733C663.981 186.291 667.495 182.657 667.786 178.148L661.808 182.705C661.729 182.705 662.376 185.204 662.504 185.861C662.925 188.105 663.219 190.379 663.484 192.642C664.042 197.121 664.356 201.609 664.738 206.108H674.019C673.608 203.478 673.84 200.788 674.695 198.268C675.518 196.219 676.802 194.563 677.703 197.552C678.409 199.904 678.027 202.795 678.164 205.245C678.327 208.381 678.589 211.507 678.948 214.624C679.428 218.955 680.232 224.63 685.808 224.806C690.502 224.953 693.991 219.975 695.912 216.319C701.949 204.834 723.273 167.819 697.284 165.634L701.645 169.995C701.41 161.939 695.481 156.343 688.983 152.423C681.954 148.258 674.435 144.98 666.6 142.662C656.215 139.579 645.436 138.021 634.603 138.037C624.803 138.037 615.081 139.997 607.486 146.465C603.047 150.257 609.397 156.343 613.827 152.805C619.923 147.905 628.145 147.082 635.681 147.151C644.91 147.221 654.088 148.52 662.974 151.012C669.684 152.837 676.197 155.322 682.417 158.431C686.896 160.743 692.913 164.193 692.923 169.916C692.923 172.474 694.932 174.022 697.294 174.287C706.114 175.267 697.294 193.456 695.255 197.542C693.148 201.825 690.855 206.029 688.64 210.282C687.748 211.978 686.357 213.448 685.485 215.065C683.75 216.045 684.838 216.633 688.728 216.711L688.572 215.986C688.885 214.82 688.052 212.458 687.905 211.233C686.925 203.442 688.572 188.634 677.801 187.105C667.913 185.704 664.336 198.611 664.728 206.088C665.032 212.017 674.195 212.086 674.009 206.088C673.717 199.361 673.036 192.656 671.97 186.008C671.157 180.588 669.863 175.728 664.277 173.572C661.181 172.376 658.525 175.375 658.299 178.129L658.77 177.276L658.397 177.482C658.339 177.423 657.31 177.266 657.114 177.198C655.83 176.737 654.732 175.385 653.791 174.473C650.538 171.298 644.922 174.473 646.147 178.922C646.49 180.187 647.372 182.842 646.216 183.979C645.06 185.116 643.472 183.832 642.296 183.205C639.275 181.525 636.561 179.345 634.27 176.757C629.468 171.445 626.175 164.82 623.558 158.215C622.079 154.481 616.061 155.941 617.384 159.92L617.453 159.94Z" fill="var(--color-illustration-primary, #382C80)"/>
<path d="M537.593 323.904C554.683 346.294 563.636 373.84 562.975 402C562.779 408.674 573.157 408.674 573.333 402C574.214 371.39 563.142 341.639 542.463 319.053C539.386 315.701 534.966 320.533 537.563 323.953L537.593 323.904Z" fill="var(--color-illustration-primary, #382C80)"/>
<path d="M598.617 453.039C608.888 456.743 620.589 457.988 631.418 458.801C642.526 459.72 653.703 459.391 664.738 457.821C668.354 457.282 667.531 451.128 663.866 451.412C653.294 452.367 642.67 452.622 632.065 452.176C621.197 451.588 610.818 449.236 600.107 447.639C599.141 447.373 598.106 447.642 597.392 448.346C596.679 449.05 596.395 450.081 596.647 451.051C596.9 452.021 597.651 452.782 598.617 453.048V453.039Z" fill="var(--color-illustration-secondary, #7F72FF)"/>
<path d="M608.437 424.158C628.478 429.776 649.538 430.744 670.01 426.99C674.558 426.186 672.647 419.15 668.05 420.032C648.759 423.592 628.954 423.292 609.78 419.15C606.526 418.444 605.154 423.246 608.398 424.158H608.437Z" fill="var(--color-illustration-secondary, #7F72FF)"/>
<path d="M609.927 389.868C627.637 393.914 645.822 395.484 663.964 394.532C681.947 393.601 700.381 390.681 717.384 384.615C721.48 383.155 719.853 376.775 715.561 378.01C698.607 382.91 681.643 386.634 663.964 387.623C646.402 388.565 628.791 387.407 611.504 384.174C607.81 383.488 606.183 389.005 609.927 389.868Z" fill="var(--color-illustration-secondary, #7F72FF)"/>
<path d="M614.866 359.076C632.018 365.217 650.162 368.118 668.374 367.632C686.18 367.269 704.898 364.349 721.294 357.038C724.939 355.411 722.352 349.472 718.599 350.629C701.851 355.774 685.426 359.899 667.805 360.38C650.439 360.731 633.123 358.39 616.473 353.441C612.808 352.383 611.436 357.812 614.915 359.076H614.866Z" fill="var(--color-illustration-secondary, #7F72FF)"/>
<path d="M799.243 324.443C794.725 326.668 790.55 329.823 786.503 332.763C782.456 335.703 778.232 338.594 774.743 342.191C771.45 345.591 775.723 351.569 779.917 348.904C784.112 346.238 787.924 342.808 791.834 339.662C795.744 336.517 799.968 333.518 803.594 329.98C806.534 327.04 802.82 322.728 799.321 324.443H799.243Z" fill="var(--color-illustration-primary, #382C80)"/>
<path d="M773.42 328.804C775.042 309.021 781.905 290.027 793.304 273.777C795.115 271.214 797.058 268.748 799.125 266.388C801.428 263.752 804.114 261.351 805.731 258.205C806.514 256.689 806.227 254.84 805.02 253.633C803.813 252.426 801.964 252.139 800.448 252.923C794.412 255.784 789.806 262.948 786.033 268.24C773.373 285.884 766.638 307.089 766.795 328.804C766.795 333.116 773.097 333.018 773.42 328.804Z" fill="var(--color-illustration-primary, #382C80)"/>
<path d="M622.784 334.9C638.512 338.428 654.599 340.102 670.716 339.888C678.741 339.742 686.751 339.133 694.706 338.065C702.625 337.016 710.955 335.968 718.462 333.165C721.225 332.185 721.137 327.109 717.707 327.55C710.132 328.53 702.713 330.441 695.167 331.47C687.286 332.524 679.352 333.139 671.402 333.312C655.627 333.697 639.856 332.383 624.362 329.392C620.805 328.696 619.256 334.086 622.853 334.87L622.784 334.9Z" fill="var(--color-illustration-secondary, #7F72FF)"/>
<path d="M629.664 306.734C653.321 314.574 681.173 315.554 704.761 306.734C708.515 305.333 707.084 299.561 703.076 300.629C691.188 303.765 679.556 306.137 667.188 306.284C654.996 306.394 642.85 304.771 631.114 301.462C627.714 300.482 626.351 305.627 629.664 306.725V306.734Z" fill="var(--color-illustration-secondary, #7F72FF)"/>
<path d="M774.155 255.078C760.737 273.04 752.287 294.22 749.655 316.485C749.224 320.454 756.035 321.385 756.672 317.465C760.092 296.18 767.383 276.168 779.584 258.303C781.917 254.892 776.497 251.893 774.116 255.108L774.155 255.078Z" fill="var(--color-illustration-secondary, #7F72FF)"/>
<path d="M720.226 250.894C711.321 266.501 707.396 284.455 708.975 302.353C709.416 307.018 716.815 307.057 716.315 302.353C714.597 285.704 717.912 268.922 725.831 254.177C727.791 250.502 722.284 247.248 720.226 250.894Z" fill="var(--color-illustration-secondary, #7F72FF)"/>
<path d="M736.67 275.11C732.025 285.831 727.85 297.904 727.644 309.694C727.566 313.232 733.299 314.192 733.955 310.556C734.935 304.921 735.533 299.257 736.827 293.671C738.152 288.109 739.901 282.658 742.06 277.364C743.275 274.316 738.032 272.072 736.719 275.11H736.67Z" fill="var(--color-illustration-secondary, #7F72FF)"/>
<path d="M742.785 262.84C745.647 262.84 745.657 258.391 742.785 258.391C739.914 258.391 739.914 262.84 742.785 262.84Z" fill="var(--color-illustration-secondary, #7F72FF)"/>
<path d="M556.252 318.769C564.616 327.456 571.18 337.711 575.568 348.943C580.076 360.272 581.448 371.689 582.585 383.694C582.683 385.568 584.231 387.036 586.108 387.036C587.984 387.036 589.532 385.568 589.631 383.694C590.797 371.101 587.093 357.646 582.193 346.16C577.057 334.135 569.511 323.924 560.201 314.8C557.624 312.291 553.714 316.192 556.281 318.72L556.252 318.769Z" fill="var(--color-illustration-secondary, #7F72FF)"/>
<path d="M576.362 306.45C579.429 311.413 582.053 316.637 584.202 322.062C586.279 327.373 587.612 332.92 589.601 338.251C591.071 342.171 596.393 340.603 595.805 336.546C594.129 324.943 587.622 313.281 581.507 303.461C579.547 300.247 574.411 303.187 576.401 306.45H576.362Z" fill="var(--color-illustration-secondary, #7F72FF)"/>
<path d="M589.611 293.465C592.708 298.287 595.785 303.108 598.96 307.881C601.489 311.703 607.731 308.008 605.095 304.294C601.773 299.61 598.363 294.974 594.962 290.339C592.659 287.183 587.406 290.045 589.611 293.465Z" fill="var(--color-illustration-secondary, #7F72FF)"/>
<path d="M600.832 282.264C602.39 284.517 604.095 286.665 605.938 288.692C607.075 290.094 609.476 289.868 610.652 288.692C611.916 287.379 611.916 285.302 610.652 283.988C609.11 282.065 607.44 280.248 605.654 278.549C604.565 277.453 602.83 277.338 601.606 278.281C600.382 279.224 600.05 280.931 600.832 282.264Z" fill="var(--color-illustration-secondary, #7F72FF)"/>
<path d="M628.262 273.483C631.781 281.666 635.74 290.564 644.001 294.916C647.921 296.983 651.449 290.868 647.48 288.967C639.924 285.341 636.298 278.001 633.055 270.68C631.614 267.407 626.871 270.249 628.262 273.483Z" fill="var(--color-illustration-secondary, #7F72FF)"/>
<path d="M686.514 267.172C684.733 273.931 681.321 280.149 676.576 285.282C673.636 288.467 678.536 293.24 681.28 289.996C686.51 283.856 690.211 276.565 692.08 268.72C692.952 265.123 687.474 263.604 686.543 267.191L686.514 267.172Z" fill="var(--color-illustration-secondary, #7F72FF)"/>
<path d="M571.814 200.316C572.964 172.641 574.059 144.962 575.097 117.28C575.587 104.148 576.136 91.0066 576.558 77.8648C576.871 67.957 576.734 56.7556 570.433 48.4648C561.936 37.381 545.472 35.4798 532.536 34.7546C516.925 33.8726 501.382 35.4994 485.81 36.1658C475.804 36.597 465.749 36.107 455.753 35.9894C441.726 35.826 427.705 35.6823 413.691 35.5582C386.291 35.323 358.89 35.1792 331.489 35.127C276.126 35.029 220.769 35.3556 165.418 36.107C154.178 36.2442 141.398 35.2152 131.255 41.007C124.964 44.6036 121.063 50.6012 118.515 57.2358C112.577 72.8472 113.615 91.0948 114.409 107.461C116.722 155.04 115.389 202.874 115.321 250.541C115.255 361.104 115.216 471.674 115.203 582.251C115.203 692.815 115.095 803.388 115.428 913.952L115.546 954.132C115.546 959.816 124.366 959.826 124.366 954.132C124.758 846.332 124.889 738.506 124.758 630.653C124.758 523.128 124.712 415.602 124.621 308.077C124.621 254.144 124.598 200.211 124.552 146.279C124.552 129.148 123.357 112.145 123.063 95.0344C122.925 86.8122 123.063 78.4528 124.415 70.3188C125.513 63.8998 127.237 56.7458 131.824 51.8458C139.135 44.0058 152.002 45.221 161.724 45.074C175.11 44.8649 188.504 44.6885 201.904 44.5448C228.69 44.2312 255.457 44.009 282.205 43.8784C336.392 43.604 390.58 43.6595 444.767 44.045C463.328 44.1822 481.733 44.4958 500.245 43.3002C515.592 42.3202 531.674 41.1246 546.844 44.2802C552.724 45.5346 559.143 47.4848 563.386 52.0124C570.354 59.4506 569.178 71.779 568.904 81.1576C568.11 107.618 567.208 134.078 566.522 160.587L565.542 200.296C565.435 204.363 571.677 204.344 571.844 200.296L571.814 200.316Z" fill="var(--color-illustration-primary, #382C80)"/>
<path d="M574.48 865.609C575.137 890.677 575.254 915.834 576.656 940.873C576.881 944.891 582.986 944.959 582.957 940.873C582.732 915.785 581.232 890.677 580.262 865.609C580.125 861.904 574.382 861.875 574.48 865.609Z" fill="var(--color-illustration-primary, #382C80)"/>
<path d="M783.053 908.915C777.771 909.375 772.273 904.475 773.175 898.88C773.92 894.421 778.967 891.892 783.151 892.539C788.218 893.313 789.884 898.419 791.227 902.643C792.569 906.867 793.843 910.865 796.999 914.021C799.008 915.981 801.664 913.491 800.674 911.179C798.351 905.789 802.34 897.635 808.71 897.802C814.649 897.958 818.431 905.642 815.188 910.453L819.578 912.306C820.832 907.641 826.801 904.466 831.191 907.2C835.219 909.709 835.719 915.912 832.612 919.283C831.673 920.249 831.673 921.786 832.612 922.752C835.415 925.095 838.492 925.144 841.863 924.193C845.685 923.125 849.938 920.773 853.319 924.056C861.042 931.563 851.898 941.755 846.528 947.282C844.343 949.536 847.773 952.976 849.987 950.741C856.789 943.881 864.393 934.679 859.591 924.546C857.886 920.959 854.74 918.019 850.713 917.46C848.385 917.256 846.041 917.574 843.853 918.391C841.706 919.058 838.149 920.988 836.091 919.283V922.752C841.265 917.088 840.491 907.072 833.661 903.015C826.585 898.752 817.001 903.329 814.962 911.032C814.237 913.746 817.902 915.099 819.353 912.884C824.635 905.044 818.128 893.147 808.729 893.039C798.508 892.911 792.844 904.975 796.656 913.54L800.321 910.708C795.421 905.926 795.744 898.135 791.57 892.804C787.924 888.149 781.711 887.022 776.38 889.354C771.048 891.686 767.873 897.106 769.373 902.858C770.921 908.846 776.85 913.374 783.093 912.658C785.415 912.384 785.503 908.738 783.093 908.944L783.053 908.915Z" fill="var(--color-illustration-primary, #382C80)"/>
<path d="M799.135 942.549C803.055 940.363 807.671 940.304 811.189 943.382C813.149 945.077 816.001 942.245 814.041 940.54C809.278 936.375 802.065 935.787 797.018 939.805C795.431 941.079 797.459 943.48 799.135 942.549Z" fill="var(--color-illustration-primary, #382C80)"/>
<path d="M670.128 518.091C665.669 532.075 682.358 541.16 688.993 550.96C695.02 559.917 692.55 570.991 691.688 581.105C690.643 593.022 689.627 604.961 688.64 616.924C684.857 661.553 679.477 706.574 681.859 751.429C683.142 775.733 686.925 799.968 694.902 823.018C695.824 825.664 700.038 824.537 699.136 821.852C685.2 780.368 684.436 736.347 687.053 693.07C688.376 670.873 690.453 648.715 692.335 626.557L695.275 591.454C695.765 585.724 696.248 579.991 696.725 574.255C697.147 569.149 697.705 564.004 696.902 558.908C695.52 550.392 689.287 544.355 683.397 538.583C678.135 533.418 671.049 527.185 673.47 518.983C674.107 516.817 670.775 515.915 670.099 518.052L670.128 518.091Z" fill="var(--color-illustration-primary, #382C80)"/>
<path d="M733.446 934.238C732.407 927.574 731.326 920.91 730.202 914.246C727.844 914.616 725.54 915.275 723.342 916.206C708.47 921.803 692.757 924.838 676.87 925.183C674.792 925.382 672.697 925.073 670.765 924.281C667.276 922.537 666.012 918.323 664.65 914.677C663.072 910.463 660.818 906.337 657.27 903.564C654.389 901.32 649.107 899.644 644.05 899.213C642.002 913.295 633.486 923.713 615.444 934.493C610.956 937.158 606.399 939.932 603.047 943.93C599.695 947.929 597.706 953.456 599.205 958.464C599.359 959.299 599.799 960.055 600.45 960.6C601.242 961.053 602.161 961.236 603.067 961.119C631.977 960.326 661.798 961.511 690.933 958.963C711.464 957.111 737.346 959.326 733.446 934.238Z" fill="var(--color-illustration-primary, #382C80)"/>
<path d="M735.455 933.689C734.41 927.019 733.325 920.355 732.201 913.697C731.878 912.604 730.747 911.963 729.643 912.247C725.194 912.943 721.019 914.991 716.756 916.373C712.68 917.68 708.551 918.816 704.369 919.783C695.195 921.914 685.818 923.048 676.4 923.164C671.186 923.164 669.148 920.606 667.384 916.03C666.061 912.59 664.787 909.17 662.582 906.23C658.133 900.164 651.351 897.998 644.099 897.214C643.179 897.233 642.382 897.855 642.139 898.743C639.611 914.991 627.39 925.036 614.003 933.043C607.065 937.208 599.754 942.117 597.392 950.33C596.51 953.387 596.216 957.415 597.765 960.326C599.852 964.246 604.782 963.089 608.476 963.021C629.674 962.599 650.891 963.021 672.088 962.168C680.8 961.806 689.473 961.002 698.166 960.473C704.406 960.255 710.626 959.633 716.786 958.611C722.186 957.562 727.899 955.671 731.662 951.437C736.062 946.537 736.386 939.922 735.504 933.68C735.122 931.034 731.113 932.161 731.486 934.777C732.221 939.922 731.868 945.557 727.889 949.369C724.449 952.643 719.5 953.917 714.943 954.74C709.383 955.594 703.778 956.121 698.156 956.318C690.365 956.788 682.594 957.523 674.783 957.886C656.271 958.758 637.739 958.542 619.207 958.709C614.738 958.748 610.266 958.817 605.791 958.915C602.635 958.993 600.94 958.63 600.891 955.249C600.873 952.649 601.568 950.094 602.9 947.86C607.153 940.549 615.875 937.08 622.578 932.533C634.25 924.585 643.825 914.236 646.098 899.86L644.06 901.34C648.392 901.8 653.311 902.859 656.673 905.808C660.034 908.758 661.769 913.002 663.337 917.137C664.434 920.077 665.64 923.017 668.109 925.026C670.824 927.221 674.166 927.378 677.527 927.3C686.497 927.061 695.425 925.981 704.193 924.076C708.805 923.089 713.365 921.869 717.854 920.42C722.127 919.038 726.302 916.99 730.751 916.294L728.193 914.844C729.323 921.495 730.405 928.156 731.437 934.826C731.848 937.423 735.857 936.306 735.455 933.689Z" fill="var(--color-illustration-primary, #382C80)"/>
<path d="M626.626 910.62C630.987 916.618 634.554 922.38 636.681 929.574C637.327 931.779 640.797 930.848 640.14 928.594C638.013 921.4 634.387 914.08 629.017 908.749C627.831 907.563 625.577 909.15 626.626 910.591V910.62Z" fill="var(--color-illustration-base, #FFFFFF)"/>
<path d="M619.56 923.027C623.353 926.947 625.44 931.563 627.028 936.747C627.704 939.05 630.948 938.06 630.565 935.767C629.536 929.887 626.185 924.693 621.951 920.626C621.279 920.046 620.273 920.082 619.645 920.71C619.017 921.338 618.98 922.345 619.56 923.017V923.027Z" fill="var(--color-illustration-base, #FFFFFF)"/>
<path d="M613.562 931.386C616.405 934.092 618.414 937.553 619.354 941.363C619.795 942.911 622.51 942.686 622.294 940.961C621.643 936.375 619.327 932.188 615.787 929.201C614.278 927.878 612.073 930.044 613.572 931.416L613.562 931.386Z" fill="var(--color-illustration-base, #FFFFFF)"/>
<path d="M697.284 934.561C693.266 936.668 693.099 942.98 696.735 945.606C700.371 948.232 706.329 945.998 707.143 941.461C707.544 939.207 704.301 938.227 703.654 940.481C703.134 942.294 700.528 943.715 698.842 942.441C697.156 941.167 697.862 938.354 699.283 937.119C700.704 935.884 698.871 933.689 697.323 934.532L697.284 934.561Z" fill="var(--color-illustration-base, #FFFFFF)"/>
<path d="M636.093 204.334C635.446 206.196 634.848 208.068 634.27 209.949C633.591 211.66 633.091 213.437 632.78 215.251C632.545 218.436 636.818 218.652 639.062 218.593C639.975 218.407 640.632 217.604 640.632 216.672C640.632 215.74 639.975 214.937 639.062 214.751C638.288 214.702 636.671 214.859 636.063 214.35L636.632 215.722C636.73 214.016 637.543 212.154 637.964 210.498C638.386 208.842 638.827 206.97 639.209 205.187C639.401 204.342 638.894 203.497 638.059 203.269C637.224 203.04 636.357 203.51 636.093 204.334Z" fill="var(--color-illustration-primary, #382C80)"/>
<path d="M644.452 224.443C645.752 223.433 647.242 222.693 648.833 222.268C651.479 221.592 650.332 217.368 647.706 218.181C645.603 218.777 643.704 219.94 642.218 221.543C641.574 222.201 641.511 223.232 642.071 223.963C642.627 224.706 643.652 224.913 644.452 224.443Z" fill="var(--color-illustration-primary, #382C80)"/>
<path d="M642.717 198.425C643.812 198.271 644.915 198.183 646.02 198.16C647.115 198.237 648.215 198.201 649.303 198.052C651.263 197.641 650.822 195.112 649.303 194.514C646.961 193.534 643.746 194.622 641.63 195.749C640.042 196.602 641.238 198.689 642.766 198.434L642.717 198.425Z" fill="var(--color-illustration-primary, #382C80)"/>
<path d="M632.927 195.278C631.595 194.213 630.133 193.321 628.576 192.623C627.561 192.34 626.495 192.863 626.097 193.838C625.694 194.806 626.061 195.923 626.959 196.464C628.413 197.307 629.967 197.966 631.585 198.424C632.419 198.657 633.298 198.239 633.643 197.444C633.963 196.641 633.661 195.725 632.927 195.269V195.278Z" fill="var(--color-illustration-primary, #382C80)"/>
<path d="M644.393 201.835C643.261 202.455 642.714 203.782 643.08 205.02C643.294 205.709 643.775 206.284 644.416 206.616C645.057 206.947 645.804 207.008 646.49 206.784C647.171 206.568 647.749 206.111 648.117 205.5C648.558 204.687 648.558 203.706 648.117 202.893C647.757 202.203 647.131 201.689 646.383 201.472C645.936 201.355 645.467 201.355 645.02 201.472C644.649 201.561 644.31 201.751 644.04 202.021C643.796 202.31 643.61 202.642 643.492 203.001L643.413 203.53C643.4 203.8 643.461 204.067 643.59 204.305C643.75 204.712 644.039 205.056 644.413 205.285C644.834 205.491 645.296 205.598 645.765 205.598L645.216 205.53C645.272 205.522 645.328 205.522 645.383 205.53L644.883 205.314C644.971 205.314 645.197 205.51 644.883 205.314C644.781 205.256 644.697 205.171 644.638 205.069C644.521 204.899 644.501 204.88 644.579 205.01L644.374 204.52C644.401 204.601 644.424 204.682 644.442 204.765L644.364 204.226V204.314L644.442 203.775C644.334 204.109 644.442 203.873 644.442 203.775C644.549 203.484 644.758 203.24 645.03 203.089C644.805 203.207 645.295 202.991 645.305 202.991C645.314 202.991 645.099 203.04 645.079 203.04L645.618 202.972H645.383L645.912 203.04H645.775C645.893 202.982 646.294 203.325 646.373 203.403C646.196 203.236 646.52 203.589 646.53 203.609L646.657 203.922C646.657 203.795 646.657 203.824 646.657 204.02C646.716 204.432 646.716 203.873 646.657 204.275C646.598 204.677 646.657 204.403 646.657 204.324V204.432C646.633 204.534 646.578 204.626 646.5 204.697C646.304 204.942 646.5 204.765 646.5 204.697C646.83 204.363 647.014 203.911 647.01 203.442C647.006 202.811 646.668 202.23 646.121 201.915C645.574 201.6 644.901 201.6 644.354 201.913L644.393 201.835Z" fill="var(--color-illustration-primary, #382C80)"/>
<path d="M626.939 201.1C625.808 201.726 625.263 203.053 625.626 204.294C625.84 204.986 626.323 205.563 626.966 205.895C627.609 206.226 628.359 206.285 629.046 206.058C629.724 205.838 630.299 205.378 630.663 204.765C631.104 203.955 631.104 202.977 630.663 202.168C630.298 201.48 629.674 200.965 628.929 200.737C628.482 200.624 628.014 200.624 627.567 200.737C627.196 200.833 626.858 201.026 626.587 201.296C626.346 201.586 626.16 201.918 626.038 202.276L625.969 202.805C625.954 203.073 626.012 203.34 626.136 203.579C626.297 203.986 626.586 204.33 626.959 204.559C627.38 204.764 627.843 204.871 628.311 204.873L627.763 204.794H627.929L627.429 204.588C627.518 204.588 627.743 204.784 627.429 204.588C627.322 204.533 627.234 204.448 627.175 204.343C627.057 204.18 627.037 204.16 627.116 204.285L626.91 203.795C626.946 203.872 626.97 203.955 626.979 204.04L626.91 203.501V203.589L626.979 203.04C626.871 203.383 626.979 203.148 626.979 203.04C627.08 202.745 627.29 202.499 627.567 202.354C627.341 202.472 627.841 202.246 627.841 202.256C627.841 202.266 627.645 202.305 627.616 202.305L628.155 202.236H627.919L628.458 202.305C628.458 202.305 628.321 202.256 628.311 202.305C628.302 202.354 628.831 202.589 628.909 202.668C628.733 202.501 629.056 202.854 629.066 202.873L629.203 203.187C629.203 203.05 629.203 203.089 629.203 203.285C629.252 203.697 629.252 203.138 629.203 203.54C629.154 203.942 629.203 203.667 629.203 203.54C629.203 203.412 629.203 203.54 629.203 203.648C629.179 203.75 629.124 203.842 629.046 203.912C628.85 204.157 629.046 203.981 629.046 203.912C629.375 203.581 629.561 203.134 629.566 202.668C629.554 202.277 629.42 201.9 629.184 201.59C628.637 200.899 627.669 200.708 626.9 201.139L626.939 201.1Z" fill="var(--color-illustration-primary, #382C80)"/>
<path d="M525.264 433.428C519.296 433.801 512.27 432.635 506.537 434.546C500.421 436.564 500.039 442.258 499.961 447.785C499.758 461.59 499.65 475.398 499.637 489.21C499.624 503.021 499.709 516.833 499.892 530.644C500.069 544.237 499.755 558.084 500.627 571.599C501.088 578.821 506.037 581.056 512.622 581.105C520.178 581.163 527.734 581.105 535.29 581.105C541.415 581.105 541.425 571.569 535.29 571.589L518.63 571.638C516.043 571.638 513.426 571.755 510.839 571.638C510.055 571.638 509.859 571.814 509.702 571.559C509.163 570.844 509.526 568.1 509.477 567.189C508.977 555.703 508.879 544.178 508.683 532.673C508.31 509.427 508.206 486.182 508.369 462.936C508.369 459.473 508.402 456.021 508.467 452.578C508.467 449.873 507.86 446.129 508.634 443.552C509.241 441.513 512.995 441.758 514.847 441.494C518.326 441.004 521.776 440.455 525.274 440.112C529.508 439.7 529.645 433.125 525.274 433.389L525.264 433.428Z" fill="var(--color-illustration-primary, #382C80)"/>
<path d="M529.037 461.427C533.771 461.888 539.249 461.427 542.169 457.664C544.384 454.812 544.776 450.432 547.932 448.648C551.087 446.865 555.184 448.952 557.457 451.804C562.063 457.576 562.22 465.592 562.171 472.972C562.171 477.568 562.073 482.341 560.045 486.466C558.996 488.603 557.105 490.661 554.723 490.661C552.107 490.661 550.235 488.27 548.187 486.633C543.43 482.985 536.849 482.87 531.968 486.349" fill="var(--color-illustration-secondary, #7F72FF)"/>
<path d="M529.037 465.21C537.103 466.19 544.306 463.946 547.853 456.204C548.334 455.136 549.059 452.657 550.401 452.402C551.744 452.147 553.488 453.921 554.233 454.901C556.693 458.154 557.291 462.613 557.497 466.553C557.799 470.798 557.727 475.061 557.281 479.293C557.056 480.979 556.703 483.683 555.497 485.026C554.165 486.525 553.733 485.144 552.312 483.928C545.952 478.489 536.632 477.284 529.508 482.155C524.363 485.683 529.233 494.13 534.408 490.573C538.23 487.956 542.346 488.035 545.942 490.994C550.127 494.434 554.625 497.168 559.849 493.768C568.443 488.172 567.355 473.266 566.444 464.436C565.533 455.606 560.78 442.827 549.715 443.68C544.59 444.072 542.111 448.06 540.219 452.304C537.985 457.321 534.231 457.88 529.018 457.664C524.03 457.459 524.324 464.652 529.018 465.23L529.037 465.21Z" fill="var(--color-illustration-primary, #382C80)"/>
<path d="M527.087 517.042C521.266 517.16 517.444 524.059 521.697 528.646C525.774 533.056 533.653 530.978 534.339 524.794C535.025 518.61 527.185 514.994 523.157 519.796C521.08 522.295 521.785 525.225 522.952 527.92C524.343 531.135 523.932 534.232 524.853 537.456C525.715 540.396 530.409 541.484 531.889 538.377C533.369 535.27 533.006 532.183 532.311 529.008C531.975 527.625 531.519 526.274 530.948 524.971C530.351 523.52 530.537 523.461 528.734 523.011C526.93 522.56 526.666 522.452 527.499 522.815C527.923 522.899 528.09 523.203 527.999 523.726C531.585 522.589 531.076 516.866 527.087 516.993V517.042Z" fill="var(--color-illustration-primary, #382C80)"/>
</svg>
