<svg width="1000" height="1000" viewBox="0 0 1000 1000" fill="none" xmlns="http://www.w3.org/2000/svg">
<path d="M822.038 256.833L851.438 260.958C853.662 261.272 856.014 261.635 857.778 263.036C859.738 264.633 860.63 267.25 861.277 269.739C870.381 304.862 858.974 342.083 843.255 374.785C834.043 393.974 814.737 425.883 790.492 427.617C777.752 428.529 766.05 419.924 758.642 409.536C751.233 399.148 746.96 386.879 740.884 375.658" fill="var(--color-illustration-primary, #382C80)"/>
<path d="M821.146 260.066C826.634 260.87 832.073 261.889 837.522 262.948C842.422 263.928 848.302 264.124 852.898 265.888C856.975 267.446 857.239 274.12 857.906 277.922C858.786 283.166 859.251 288.471 859.297 293.788C859.63 315.084 853.809 335.928 845.94 355.577C839.815 370.865 832.347 385.957 822.42 399.217C814.109 410.369 800.801 424.403 785.376 422.06C761.944 418.483 755.848 390.005 744.461 373.55C741.952 369.934 734.935 372.051 736.787 376.784C744.676 396.914 753.614 420.943 775.007 430.136C793.314 437.976 811.16 428.029 823.615 414.573C836.493 400.667 845.538 383.556 853.015 366.269C862.649 343.954 869.862 320.042 869.675 295.513C869.621 289.27 869.048 283.041 867.96 276.893C866.98 271.483 866.069 264.633 862.08 260.488C858.092 256.342 851.379 256.362 845.91 255.843C838.237 255.117 830.554 254.588 822.92 253.559C818.706 253.001 816.844 259.439 821.136 260.037L821.146 260.066Z" fill="var(--color-illustration-primary, #382C80)"/>
<path d="M653.507 358.576C616.767 360.036 584.349 391.955 548.02 386.242C525.862 382.763 508.35 365.828 494.502 348.178C481.311 331.371 469.522 311.428 471.08 290.123C472.344 272.767 482.262 257.401 491.866 242.887C508.83 217.25 526.019 191.359 548.579 170.475C571.138 149.591 599.921 133.882 630.644 132.951C657.721 132.137 683.387 142.927 705.437 157.931C716.979 165.902 727.835 174.822 737.895 184.597C747.519 193.799 757.23 199.689 765.335 210.822C773.44 221.954 781.662 232.46 795.607 236.38C803.192 238.516 811.415 238.595 818.461 242.142C826.948 246.405 832.465 255.284 834.503 264.555C836.542 273.826 835.483 283.528 833.602 292.838C825.762 330.93 802.301 369.876 771.617 393.445C764.13 399.187 755.849 404.597 746.48 405.655C742.217 406.136 737.66 405.655 734.063 403.333C728.418 399.766 726.086 392.857 722.303 387.339C713.258 374.109 693.795 369.337 679.654 376.892" fill="var(--color-illustration-base, #FFFFFF)"/>
<path d="M653.507 355.293C623.911 356.489 599.46 375.011 571.187 381.234C556.556 384.448 542.062 382.498 529.106 374.864C515.758 367.024 505.018 354.99 495.786 342.691C486.133 329.755 476.98 314.731 475.725 298.248C474.422 281.294 482.468 266.221 491.405 252.393C509.771 223.836 529.106 194.642 554.635 171.916C578.616 150.571 609.701 135.558 642.433 138.596C675.92 141.663 705.653 162.008 729.712 184.185C735.67 189.673 741.717 194.965 747.871 200.257C753.985 205.651 759.502 211.687 764.326 218.26C773.018 229.677 783.093 239.203 797.518 242.368C805.358 244.103 814.178 244.328 820.548 249.963C825.958 254.775 828.917 261.772 829.927 268.838C832.2 284.782 826.673 302.246 821.019 317.005C809.984 345.836 790.844 373.286 765.609 391.416C759.004 396.159 750.968 401.157 742.481 400.52C733.995 399.883 731.701 392.034 727.781 385.928C720.602 374.957 708.406 368.308 695.294 368.22C688.965 368.145 682.716 369.65 677.115 372.6C671.314 375.54 676.41 384.203 682.211 381.322C694.373 375.276 710.494 379.362 718.119 390.691C722.362 396.992 725.067 404.499 732.084 408.38C739.336 412.388 748.342 411.683 755.888 408.89C771.186 403.225 784.543 390.662 795.323 378.745C806.589 366.252 816.101 352.283 823.596 337.222C831.142 322.081 837.032 305.794 839.697 289.045C842.216 273.179 841.099 255.402 829.035 243.426C816.569 231.049 797.381 235.488 784.161 224.483C778.34 219.632 773.93 213.478 769.412 207.47C764.296 200.669 758.142 195.093 751.654 189.644C737.572 177.835 724.724 164.889 709.563 154.364C695.481 144.564 679.948 136.567 663.395 131.932C629.595 122.455 595.099 130.589 566.375 149.885C536.525 169.926 515.072 199.297 495.414 228.844C485.555 243.662 474.471 258.646 469.15 275.884C464.024 292.426 466.739 309.273 474.099 324.678C481.253 339.662 492.033 353.51 503.646 365.319C514.543 376.403 527.822 386.105 543.228 389.574C574.686 396.669 602.361 376.354 630.761 366.72C638.105 364.116 645.765 362.507 653.537 361.938C657.721 361.683 657.79 355.195 653.537 355.362L653.507 355.293Z" fill="var(--color-illustration-primary, #382C80)"/>
<path d="M193.721 363.231L375.021 207.46C390.042 194.555 410.148 189.242 429.584 193.043C449.02 196.844 465.643 209.339 474.696 226.953L583.966 439.515L193.721 363.231Z" fill="var(--color-illustration-secondary, #7F72FF)"/>
<path d="M465.965 165.82C511.329 185.783 599.078 229.324 639.748 282.783C664.023 369.023 522.599 516.778 522.599 516.778L411.418 505.88C411.418 505.88 195.984 397.041 194.044 363.29C192.486 336.105 351.442 216.898 413.319 171.573C428.577 160.381 448.65 158.187 465.965 165.82Z" fill="var(--color-illustration-secondary, #7F72FF)"/>
<path d="M395.944 492.013C398.452 479.861 413.682 468.003 421.992 459.918C440.289 442.121 459.751 425.51 479.312 409.124C521.197 374.021 564.229 340.279 607.584 307.018C612.484 303.255 617.384 299.502 622.284 295.758C629.037 290.613 635.122 282.891 643.198 290.544C645.912 293.112 647.578 296.728 649.47 299.962C654.043 307.724 658.577 315.499 663.072 323.286C675.636 344.944 688.049 366.684 700.312 388.505C726.106 434.35 752.252 480.469 773.89 528.479C777.507 536.505 790.972 558.859 786.091 568.306C775.517 588.729 389.476 523.343 395.944 492.013Z" fill="var(--color-illustration-base, #FFFFFF)"/>
<path d="M400.344 493.228C402.97 482.35 413.211 474.275 421.081 467.033C431.185 457.742 441.004 448.168 451.304 439.073C473.001 419.914 495.404 401.49 517.856 383.262C540.572 364.858 563.504 346.728 586.652 328.872C598.294 319.856 609.966 310.883 621.667 301.952C625.45 299.071 630.066 293.837 634.623 292.289C640.856 290.153 645.118 301.521 647.51 305.597C677.037 356.058 706.221 406.812 733.897 458.33C747.039 482.83 758.808 507.801 770.951 532.761C774.802 540.69 779.271 548.441 781.613 556.977C782.148 558.77 782.477 560.618 782.593 562.485C782.593 563.465 781.975 565.248 782.132 566.101C782.132 565.954 783.112 565.278 782.338 565.729C781.975 565.934 780.927 566.336 782.456 565.729C782.071 565.893 781.674 566.031 781.27 566.14C780.29 566.385 779.31 566.63 778.33 566.826C777.5 567.037 776.648 567.146 775.792 567.15C774.292 567.287 772.793 567.395 771.294 567.463C763.452 567.742 755.602 567.618 747.773 567.091C724.528 565.787 701.341 563.024 678.262 559.927C619.884 552.087 561.691 541.709 504.293 528.489C480.939 523.108 457.566 517.317 434.82 509.731C427.128 507.303 419.599 504.383 412.28 500.99C409.62 499.749 407.05 498.325 404.587 496.727C404.068 496.374 403.549 496.021 403.039 495.639C402.755 495.433 403.47 496.06 402.627 495.296C401.89 494.652 401.203 493.955 400.569 493.209C401.873 494.826 399.315 491.17 400.481 493.052C399.874 492.072 401.01 492.287 400.393 493.13C400.814 492.552 400.393 492.591 400.295 493.228C401.363 487.476 392.553 485.016 391.475 490.798C389.26 502.773 407.88 509.232 416.132 512.613C436.878 521.109 458.86 526.803 480.577 532.213C540.18 547.04 600.803 558.036 661.504 566.738C687.425 570.452 713.444 573.814 739.561 575.695C748.685 576.352 757.838 576.871 767.001 576.734C772.558 576.646 778.604 576.607 783.945 574.892C794.48 571.511 792.177 559.074 789.198 550.637C786.219 542.199 781.927 534.721 778.193 526.783C771.95 513.514 765.835 500.225 759.23 487.123C731.604 432.331 700.684 379.078 669.952 325.981C666.084 319.311 662.206 312.637 658.319 305.96C654.742 299.835 651.616 292.24 646.461 287.34C636.396 277.609 627.057 286.429 618.531 292.965C594.648 311.291 570.776 329.617 547.138 348.267C522.703 367.54 498.53 387.156 474.618 407.116C452.784 425.422 431.831 444.522 410.977 463.956C402.99 471.394 394.15 479.861 391.504 490.857C390.152 496.521 398.972 498.951 400.344 493.228Z" fill="var(--color-illustration-primary, #382C80)"/>
<path d="M370.709 469.885C398.864 439.162 427.549 408.968 457.811 380.273C488.073 351.579 519.786 324.521 552.528 298.679C561.897 291.289 571.37 284.028 580.948 276.893C590.072 270.092 600.195 263.859 608.476 256.049C611.818 252.903 607.575 247.924 603.743 249.904C594.501 254.677 586.103 261.752 577.743 267.946C569.384 274.139 561.181 280.421 552.998 286.781C536.564 299.58 520.502 312.859 504.733 326.471C473.187 353.706 442.797 382.331 413.897 412.319C397.394 429.44 381.42 447.08 366.191 465.367C363.594 468.473 367.886 472.962 370.709 469.885Z" fill="var(--color-illustration-primary, #382C80)"/>
<path d="M321.905 439.122C381.381 381.949 441.396 325.442 503.636 271.258C521.06 256.098 538.916 241.407 556.125 225.992C560.29 222.258 554.302 216.711 550.117 219.985C517.689 245.327 487.035 273.277 456.459 300.815C425.883 328.353 395.699 356.538 366.063 385.222C349.452 401.304 333.273 417.807 317.259 434.477C314.319 437.535 318.847 442.062 321.905 439.122Z" fill="var(--color-illustration-primary, #382C80)"/>
<path d="M281.46 408.057C311.693 381.842 340.632 354.059 369.435 326.295C398.024 298.738 426.32 270.883 454.322 242.731C470.228 226.737 486.133 210.734 501.529 194.26C505.292 190.232 499.402 184.293 495.472 188.194C467.052 216.378 439.23 245.151 410.761 273.287C382.518 301.197 354.016 328.84 325.256 356.215C308.9 371.787 292.436 387.173 276.384 402.98C273.071 406.244 277.991 411.016 281.431 408.037L281.46 408.057Z" fill="var(--color-illustration-primary, #382C80)"/>
<path d="M245.455 368.563C300.472 316.113 357.077 265.222 416.641 217.966C433.615 204.511 451.128 191.731 467.944 178.1C471.61 175.16 466.798 168.878 462.878 171.534C431.4 192.927 401.775 217.76 372.6 242.152C343.426 266.545 314.653 291.829 287.017 318.132C271.337 333.077 256.039 348.453 241.035 364.094C238.223 367.034 242.554 371.375 245.504 368.563H245.455Z" fill="var(--color-illustration-primary, #382C80)"/>
<path d="M383.997 191.888C389.378 207.568 408.203 216.143 423.325 208.695L416.778 204.942C417.974 215.193 422.355 224.718 431.557 230.138C440.759 235.557 453.234 235.567 461.937 229.452L455.675 226.904C460.761 248.562 479.498 265.888 502.715 263.869L498.04 259.126C499.276 271.324 506.438 282.133 517.189 288.026C522.241 290.897 527.907 292.513 533.712 292.74C536.819 292.838 539.925 292.231 543.022 292.368C547.697 292.574 549.333 295.033 552.146 298.248C557.781 304.677 565.268 310.184 572.344 314.908C578.302 318.828 587.602 324.963 594.884 320.651C598.333 318.612 596.069 312.507 592.061 313.967C589.827 314.78 586.74 312.987 584.77 312.007C580.989 310.086 577.382 307.84 573.99 305.294C567.762 300.85 562.187 295.556 557.428 289.565C554.198 285.306 549.171 282.793 543.826 282.764C538.034 282.578 532.693 283.901 526.989 282.215C516.581 278.944 508.998 269.956 507.526 259.146C507.252 256.833 505.566 254.099 502.793 254.412C485.986 256.284 465.426 243.985 464.132 225.796C464.097 224.285 463.276 222.902 461.965 222.148C460.655 221.395 459.046 221.381 457.723 222.112C450.784 225.708 442.974 226.806 435.879 222.817C429.538 219.25 425.216 212.263 425.52 204.962C425.638 202.355 422.58 199.728 420.012 200.757C409.448 204.932 396.051 200.993 391.592 189.821C389.77 185.224 382.341 187.037 384.017 191.908L383.997 191.888Z" fill="var(--color-illustration-primary, #382C80)"/>
<path d="M322.62 244.034C325.384 260.057 342.269 268.955 357.234 264.614L351.648 260.351C351.824 282.323 371.13 300.296 392.386 301.991L387.427 298.208C393.16 319.318 413.662 334.468 435.555 333.655L430.489 329.794C435.389 351.511 460.457 365.427 481.507 357.998L475.03 354.323C479.93 368.533 493.855 382.047 509.741 381.685C515.023 381.567 516.278 373.776 511.005 372.355C499.324 369.209 489.308 363.672 485.182 351.52C484.32 348.972 481.527 346.856 478.705 347.845C462.848 353.402 444.405 343.406 440.632 326.991C439.989 324.716 437.919 323.141 435.555 323.13C417.98 323.769 402.224 312.368 397.335 295.474C396.675 293.273 394.674 291.747 392.376 291.691C374.962 290.408 362.575 275.776 360.311 259.185C359.88 256.039 356.077 255.569 353.823 256.539C343.602 260.968 331.283 252.06 329.323 242.143C328.451 237.713 321.856 239.624 322.61 243.995L322.62 244.034Z" fill="var(--color-illustration-primary, #382C80)"/>
<path d="M251.472 298.884C252.344 317.563 272.934 329.343 289.692 322.042L282.636 319.17C286.732 333.478 293.004 347.963 305.274 357.106C316.593 365.534 332.469 368.092 344.876 360.556L337.163 357.42C342.975 374.785 359.076 387.594 377.549 388.29L372.169 382.91C374.687 406.185 396.218 427.392 420.551 425.344L415.965 422.717C421.062 433.504 430.223 441.834 441.445 445.884C447.727 448.236 450.471 438.152 444.218 435.83C435.398 432.547 428.921 425.902 425.167 417.366C424.229 415.728 422.479 414.724 420.591 414.74C402.451 414.622 384.987 401.735 382.959 382.91C382.857 379.987 380.511 377.64 377.588 377.539C364.025 376.442 351.824 367.602 347.326 354.627C346.868 353.072 345.727 351.81 344.225 351.2C342.724 350.589 341.026 350.697 339.613 351.491C329.862 357.106 317.504 354.225 309.292 347.13C300.207 339.29 295.405 327.814 291.946 316.622C290.966 313.437 287.732 312.438 284.89 313.751C274.463 318.553 260.478 310.145 259.332 298.884C258.832 293.984 251.276 293.779 251.492 298.884H251.472Z" fill="var(--color-illustration-primary, #382C80)"/>
<path d="M541.846 486.035C545.296 465.289 556.987 446.58 569.688 430.371C578.429 419.209 588.102 408.537 599.539 402.128C610.975 395.718 624.509 394.18 634.211 401.148C641.982 406.734 646.441 417.082 648.019 428.049C649.597 439.015 648.597 450.657 647.216 462.113C645.069 479.871 642.031 497.609 638.121 515.2C637.808 516.601 637.406 518.14 636.367 518.993C635.483 519.593 634.402 519.828 633.349 519.649C602.383 517.944 572.11 509.818 544.453 495.786" fill="var(--color-illustration-secondary, #7F72FF)"/>
<path d="M545.394 487.015C549.921 465.592 561.74 446.884 575.46 430.116C586.916 416.093 606.82 394.386 627.4 402.52C636.69 406.195 640.944 416.289 642.786 425.442C645.207 437.457 643.864 450.05 642.404 462.104C640.908 474.386 638.948 486.604 636.524 498.756C636.034 501.284 635.544 503.803 634.995 506.321C634.73 507.556 634.015 514.563 632.986 515.278C634.495 514.249 632.006 514.612 631.634 514.514C630.181 514.264 628.707 514.153 627.233 514.181C624.019 513.906 620.814 513.56 617.62 513.142C605.322 511.518 593.185 508.849 581.34 505.165C569.07 501.362 557.722 495.502 545.658 491.268C540.405 489.426 537.887 496.992 542.062 499.824C552.763 507.066 566.307 511.378 578.596 515.102C591.037 518.84 603.769 521.528 616.659 523.138C622.363 523.873 628.586 525 634.299 524.667C641.1 524.275 642.492 518.307 643.678 512.75C646.703 498.501 649.169 484.154 651.077 469.708C654.017 447.168 658.603 415.269 638.445 398.747C618.962 382.763 593.227 398.188 578.665 413.162C559.898 432.459 542.111 457.909 538.21 485.055C537.554 489.602 544.306 491.749 545.305 487.015H545.394Z" fill="var(--color-illustration-secondary, #7F72FF)"/>
<path d="M556.84 453.352C570.981 455.773 585.26 457.194 599.45 459.33C613.337 461.427 627.302 465.426 641.296 466.386C646.794 466.758 647.01 459.114 642.512 457.409C629.399 452.401 614.15 451.108 600.303 449.236C586.24 447.335 572.001 445.816 557.791 446.296C553.949 446.423 552.675 452.627 556.811 453.342L556.84 453.352Z" fill="var(--color-illustration-primary, #382C80)"/>
<path d="M615.836 397.992C611.544 406.155 609.956 416.612 607.692 425.559C605.428 434.507 603.067 443.591 600.636 452.578C598.206 461.565 595.648 470.512 592.865 479.401C589.925 488.858 586.181 498.099 583.271 507.576C581.781 512.476 589.435 515.896 591.659 511.113C599.705 493.758 604.478 474.383 609.368 455.949C611.838 446.646 614.186 437.316 616.414 427.96C617.571 423.139 618.629 418.288 619.717 413.447C620.697 408.968 622.157 404.313 622.157 399.727C622.157 396.453 617.433 394.974 615.836 398.012V397.992Z" fill="var(--color-illustration-primary, #382C80)"/>
<path d="M471.159 842.559C442.18 860.081 189.34 864.648 168.76 842.559C148.18 820.47 168.76 559.212 168.76 559.212L434.271 540.18C455.452 538.661 476.7 542.013 496.384 549.98C558.888 575.225 695.686 633.858 698.146 664.375C704.604 744.363 490.533 830.838 471.159 842.559Z" fill="var(--color-illustration-primary, #382C80)"/>
<path d="M395.748 664.326C395.748 664.326 442.209 954.524 395.748 947.674C349.286 940.823 168.76 842.559 168.76 842.559C168.76 842.559 149.719 832.661 168.76 559.211L395.748 664.326Z" fill="var(--color-illustration-secondary, #7F72FF)"/>
<path d="M698.146 947.674C669.197 965.196 416.318 969.763 395.748 947.674C375.177 925.584 395.748 664.326 395.748 664.326H698.146C698.146 664.326 727.086 930.151 698.146 947.674Z" fill="var(--color-illustration-secondary, #7F72FF)"/>
<path d="M572.461 753.438C562.563 738.209 479.538 754.967 465.063 753.438C450.588 751.909 464.994 960.747 464.994 960.747L508.673 962.374C533.242 962.805 559.241 962.531 583.898 961.649C583.633 935.12 581.575 767.462 572.461 753.438Z" fill="var(--color-illustration-primary, #382C80)"/>
<path d="M683.868 856.651L629.164 859.444C614.248 860.199 612.112 790.58 624.685 771.832C637.259 753.085 658.682 754.006 679.389 769.039C700.096 784.072 698.783 855.887 683.868 856.651Z" fill="var(--color-illustration-base, #FFFFFF)"/>
<path d="M295.964 812.855C283.106 812.11 258.165 799.811 245.298 799.066C232.431 798.322 237.693 728.859 250.384 711.484C263.075 694.108 281.323 697.186 297.552 714.228C313.78 731.27 308.831 813.6 295.964 812.855Z" fill="var(--color-illustration-base, #FFFFFF)"/>
<path d="M468.709 957.797C468.787 923.781 466.905 889.707 466.484 855.691C466.268 838.508 466.148 821.326 466.121 804.143C466.121 795.715 466.121 787.287 466.121 778.859C466.121 774.733 466.121 770.617 466.19 766.501C466.268 763.149 466.19 759.131 469.816 757.681C472.942 756.427 477.097 756.701 480.41 756.495L493.718 755.515C501.95 754.862 510.185 754.209 518.424 753.555C526.793 752.869 535.162 752.085 543.551 751.487C549.431 751.066 555.909 750.703 561.544 752.859C568.355 755.476 570.246 761.964 570.815 768.667C571.511 776.811 571.795 785.013 572.265 793.167C573.271 810.343 574.274 827.529 575.274 844.725C577.528 883.317 579.814 921.903 582.134 960.482C582.516 966.901 592.551 966.95 592.169 960.482C589.954 923.197 587.736 885.908 585.515 848.615C584.398 830.132 583.277 811.65 582.153 793.167C581.614 784.229 581.428 775.194 580.419 766.305C579.645 759.553 577.753 752.85 572.491 748.175C561.583 738.483 544.904 741.56 531.703 742.658C513.645 744.167 495.593 745.735 477.548 747.362C470.688 747.979 463.172 748.185 459.32 754.868C455.802 760.964 456.841 769.216 456.811 775.938C456.733 794.741 456.775 813.544 456.939 832.347C457.115 853.104 457.442 873.854 457.919 894.597C458.379 915.628 458.428 936.805 459.957 957.797C460.359 963.324 468.66 963.471 468.669 957.797H468.709Z" fill="var(--color-illustration-primary, #382C80)"/>
<path d="M556.84 848.968C552.322 851.536 551.313 857.661 553.645 862.041C554.293 863.206 555.194 864.211 556.281 864.981C557.469 865.811 558.856 866.311 560.299 866.432C563.062 866.619 565.774 865.629 567.767 863.707C570.199 861.504 571.287 858.18 570.629 854.966C570.114 853.15 568.237 852.085 566.415 852.574C564.619 853.115 563.563 854.968 564.014 856.788C564.014 856.926 564.014 857.063 564.082 857.19L563.965 856.279C564.019 856.721 564.019 857.169 563.965 857.612L564.092 856.7C564.012 857.178 563.877 857.645 563.69 858.092L564.043 857.278C563.818 857.767 563.543 858.23 563.22 858.66L563.759 857.964C563.391 858.427 562.97 858.845 562.504 859.209L563.2 858.68C562.698 859.074 562.148 859.403 561.564 859.66L562.387 859.317C561.89 859.518 561.37 859.656 560.838 859.728L561.75 859.611C561.272 859.674 560.787 859.674 560.309 859.611L561.221 859.738C560.822 859.671 560.431 859.562 560.054 859.415L560.878 859.758C560.477 859.585 560.098 859.365 559.751 859.101L560.446 859.63C560.119 859.368 559.823 859.069 559.564 858.739L560.103 859.434C559.8 859.039 559.546 858.608 559.349 858.151L559.692 858.964C559.451 858.39 559.287 857.787 559.202 857.171L559.329 858.082C559.251 857.457 559.251 856.825 559.329 856.2L559.202 857.112C559.289 856.535 559.44 855.97 559.653 855.426L559.31 856.249C559.504 855.792 559.754 855.361 560.054 854.966L559.525 855.661C559.785 855.332 560.084 855.035 560.417 854.779L559.721 855.309L560.309 854.926C561.934 853.961 562.483 851.872 561.544 850.232C560.562 848.629 558.49 848.088 556.85 849.007L556.84 848.968Z" fill="var(--color-illustration-base, #FFFFFF)"/>
<path d="M631.006 856.622C621.852 840.846 617.748 822.645 619.246 804.467C620.618 788.022 627.331 768.706 645.706 765.365C663.787 762.082 678.34 775.037 684.73 790.845C688.336 799.743 689.767 809.386 690.865 818.863C691.384 823.381 691.845 827.898 692.305 832.416C692.825 837.424 694.011 842.785 693.913 847.812C693.913 848.018 693.726 849.478 694.216 848.87C694.53 848.478 692.256 849.38 691.766 849.547C688.826 850.468 685.886 851.281 682.946 852.046C677.89 853.352 672.797 854.476 667.668 855.417C656.328 857.388 644.87 858.599 633.368 859.043C626.959 859.366 626.871 869.176 633.368 869.078C645.479 868.793 657.543 867.481 669.432 865.158C675.169 864.1 680.853 862.812 686.484 861.297C691.071 860.072 697.793 859.249 701.4 855.819C704.722 852.643 704.016 848.263 703.634 844.147C703.046 837.816 702.455 831.482 701.86 825.145C700.782 813.61 699.597 801.879 695.775 790.845C689.12 771.656 673.96 755.506 652.508 755.143C631.055 754.781 617.345 771.058 612.69 790.482C606.996 814.296 611.867 839.619 625.195 860.013C627.586 863.678 633.349 860.395 631.075 856.554L631.006 856.622Z" fill="var(--color-illustration-primary, #382C80)"/>
<path d="M644.364 761.954C645.452 777.516 648.049 792.932 650.097 808.386C652.106 823.537 652.831 839.256 655.977 854.221C656.957 859.121 664.689 857.955 664.601 853.055C664.336 837.835 661.23 822.234 659.181 807.161C657.084 791.707 655.134 776.154 651.341 761.013C650.361 757.23 644.109 757.916 644.393 761.993L644.364 761.954Z" fill="var(--color-illustration-primary, #382C80)"/>
<path d="M623.48 824.38C644.756 819.304 666.512 816.021 687.523 809.798C693.099 808.152 690.757 799.998 685.142 801.154C663.67 805.408 642.894 812.611 621.726 818.01C617.6 819.059 619.344 825.36 623.48 824.38Z" fill="var(--color-illustration-primary, #382C80)"/>
<path d="M466.131 729.183C497.56 725.586 529.38 723.675 561.015 724.616C563.068 724.593 564.864 723.227 565.435 721.255C567.012 715.871 567.6 710.246 567.169 704.653C566.816 700.547 566.385 695.334 562.759 692.707C559.133 690.081 553.518 691.218 549.412 691.384C543.002 691.645 536.593 692.002 530.184 692.452C505.073 694.161 480.082 697.309 455.332 701.88C453.254 702.262 451.784 704.555 451.764 706.555C451.698 711.958 452.819 717.311 455.047 722.235C457.174 726.997 465.308 723.607 463.524 718.658C462.043 714.817 461.343 710.718 461.466 706.604L457.909 711.278C478.391 707.887 498.951 704.977 519.649 703.036C529.89 702.056 540.131 701.223 550.401 700.596C551.94 700.508 555.978 699.518 557.33 700.234C557.046 699.42 557.085 699.616 557.428 700.822C557.72 702.114 557.929 703.423 558.055 704.742C558.456 709.51 557.968 714.312 556.615 718.903L561.034 715.541C528.832 714.561 496.923 716.756 465.318 723.107C461.898 723.793 462.603 729.683 466.151 729.271L466.131 729.183Z" fill="var(--color-illustration-primary, #382C80)"/>
<path d="M244.573 797.852C242.337 788.173 241.232 778.267 241.28 768.334C241.202 758.769 241.192 748.95 242.672 739.483C245.112 723.724 255.225 703.517 274.257 705.653C292.632 707.711 301.697 726.615 303.579 742.991C304.617 752.37 303.98 761.856 303.402 771.245C302.804 780.8 302.765 790.217 302.726 799.772C302.726 802.712 302.844 808.024 299.864 809.719C296.405 811.679 287.703 808.2 284.184 807.142C273.277 803.888 262.732 800.145 252.168 795.941C247.327 793.981 243.897 802.124 248.601 804.398C259.459 809.617 270.939 813.427 282.763 815.737C290.976 817.334 302.746 821.617 308.518 813.012C313.81 805.172 311.458 793.334 311.918 784.445C312.565 772.283 314.212 760.161 313.477 747.96C312.252 727.742 304.02 706.672 283.734 698.96C264.437 691.629 245.935 704.565 238.654 722.294C233.832 733.946 233.224 746.794 232.989 759.23C232.734 772.95 233.362 786.67 237.507 799.812C238.928 804.339 245.768 802.487 244.632 797.852H244.573Z" fill="var(--color-illustration-primary, #382C80)"/>
<path d="M269.592 707.358C269.05 723.437 268.354 739.512 267.505 755.584C266.662 771.627 264.761 787.669 264.153 803.712C263.957 808.769 272.434 810.121 273.169 804.937C275.423 788.983 275.766 772.597 276.501 756.466C277.246 740.11 277.589 723.734 277.413 707.358C277.354 702.311 269.759 702.331 269.573 707.358H269.592Z" fill="var(--color-illustration-primary, #382C80)"/>
<path d="M244.396 752.242C248.316 753.408 252.55 753.31 256.607 753.722C261.262 754.192 265.917 754.702 270.553 755.398C279.314 756.652 288.026 758.21 296.787 759.475C302.079 760.239 304.559 752.615 299.061 751.213C290.071 749.041 280.926 747.573 271.709 746.823C263.085 746.039 252.883 744.255 244.396 746.088C241.192 746.774 241.515 751.39 244.396 752.242Z" fill="var(--color-illustration-primary, #382C80)"/>
<path d="M227.942 817.324C237.37 823.351 249.355 826.81 260.174 829.28C271.459 831.929 283.048 833.05 294.631 832.612C300.158 832.367 300.227 823.919 294.631 823.978C283.511 824.226 272.395 823.329 261.458 821.303C250.619 819.157 240.77 815.011 230.333 811.64C226.884 810.533 225.061 815.472 227.942 817.324Z" fill="var(--color-illustration-primary, #382C80)"/>
<path d="M393.562 667.413C381.175 740.913 377.01 815.393 379.568 889.873C380.273 910.62 380.783 931.71 383.674 952.28C384.399 957.415 392.788 956.131 392.651 951.065C392.161 932.572 390.269 914.109 389.544 895.616C388.825 877.427 388.499 859.229 388.564 841.02C388.741 804.31 390.469 767.648 393.748 731.035C395.601 710.083 397.404 689.14 399.971 668.315C400.412 664.669 394.091 663.797 393.513 667.443L393.562 667.413Z" fill="var(--color-illustration-primary, #382C80)"/>
<path d="M454.009 573.588C450.517 596.152 448.299 618.895 447.364 641.708C447.198 646.716 455.018 646.716 455.145 641.708C455.56 619.203 457.17 596.736 459.967 574.402C460.408 571.04 454.508 570.207 454.009 573.588Z" fill="var(--color-illustration-base, #FFFFFF)"/>
<path d="M733.828 854.045C734.079 848.957 735.31 843.966 737.454 839.345C739.1 835.895 742.285 829.339 746.323 828.271C753.516 826.369 753.065 839.139 753.281 843.206C753.523 848.251 753.323 853.307 752.683 858.317H758.112C758.338 855.26 761.974 853.545 764.727 854.231C767.481 854.917 769.245 857.857 769.951 860.415C771.607 866.432 768.363 872.567 765.717 877.78C765.083 878.972 765.402 880.447 766.472 881.27C767.543 882.093 769.051 882.022 770.039 881.102C774.38 877.29 781.848 877.868 785.366 882.602C789.815 888.59 785.641 896.89 781.446 901.653C779.751 903.613 781.338 907.259 784.151 906.298C791.579 903.76 799.361 909.65 800.811 917.078C802.497 925.898 796.372 934.258 789.757 939.285C786.964 941.412 789.678 946.204 792.55 944.067C801.468 937.403 809.347 926.026 805.887 914.344C803.036 904.73 792.608 897.557 782.701 900.957L785.405 905.602C791.707 898.419 796.313 886.571 789.012 878.358C783.132 871.734 772.646 871.498 766.168 877.241L770.48 880.573C774.929 871.753 779.731 859.199 770.627 851.408C764.09 845.813 753.34 849.546 752.703 858.337C752.448 861.845 757.809 861.777 758.132 858.337C758.961 849.946 758.575 841.48 756.985 833.2C756.005 828.3 753.869 822.489 747.744 823.233C741.972 823.929 738.003 829.799 735.465 834.454C732.204 840.496 730.351 847.196 730.045 854.054C729.918 856.495 733.681 856.475 733.828 854.054V854.045Z" fill="var(--color-illustration-primary, #382C80)"/>
<path d="M732.681 918.146C735.935 914.716 741.247 916.5 743.648 920.106C746.147 923.83 746.137 928.789 746.284 933.101C746.392 936.129 751.125 936.139 750.998 933.101C750.743 926.849 750.018 919.381 744.706 915.148C740.551 911.874 733.681 911.061 730.104 915.598C728.683 917.382 731.015 919.91 732.681 918.176V918.146Z" fill="var(--color-illustration-primary, #382C80)"/>
<path d="M143.613 756.29C143.054 748.668 140.147 741.406 135.293 735.504C131.04 730.408 123.876 724.91 116.957 728.271C102.904 735.131 113.802 757.534 119.966 765.737L123.023 761.748C103.012 754.888 83.99 774.635 91.7908 794.392L94.4662 790.884C85.8814 790.786 75.9638 793.824 72.2202 802.31C69.1724 809.239 71.3774 818.137 78.3746 821.607L79.0508 816.452C70.5957 817.914 64.278 825.033 63.8314 833.602C63.5766 842.147 69.8682 849.674 77.9924 851.693C81.589 852.584 83.1178 847.106 79.5212 846.136C66.1246 842.5 67.3692 824.694 80.5012 821.891C82.7846 821.411 83.3628 817.765 81.1774 816.736C76.0128 814.296 75.1406 807.514 78.1688 803.016C81.687 797.783 88.5372 796.391 94.4172 796.45C96.0636 796.45 97.7688 794.637 97.0926 792.932C90.801 777.075 105.246 761.572 121.534 767.011C123.631 767.716 126.052 764.914 124.601 763.012C119.701 756.623 110.999 742.57 117.045 734.426C121.72 728.134 129.629 735.406 132.931 739.571C136.739 744.392 139.095 750.198 139.723 756.309C139.987 758.72 143.78 758.789 143.564 756.309L143.613 756.29Z" fill="var(--color-illustration-primary, #382C80)"/>
<path d="M133.774 818.951C129.972 816.393 124.719 818.324 121.691 821.195C118.3 824.419 117.016 829.113 119.025 833.416C120.123 835.758 124.209 834.082 123.249 831.632C122.295 829.115 122.961 826.27 124.934 824.439C127.041 822.263 129.403 821.861 132.245 822.567C133.244 822.989 134.396 822.522 134.818 821.523C135.24 820.525 134.773 819.373 133.774 818.951Z" fill="var(--color-illustration-primary, #382C80)"/>
<path d="M866.618 639.728C855.916 645.608 844.166 639.728 836.934 631.242C833.465 627.175 830.005 622.01 828.388 616.875C827.359 613.602 826.771 609.309 829.368 606.575C831.162 604.684 835.101 603.312 837.002 605.801L840.854 602.861C829.721 593.561 825.595 577.9 830.182 564.17C835.17 549.265 850.399 539.435 865.687 538.328C873.047 537.799 879.779 540.004 886.473 535.917C893.333 531.693 898.997 528.724 907.249 531.419C925.251 537.299 927.241 558.32 921.547 573.716C920.743 575.891 923.634 578.057 925.526 576.773C935.179 570.227 948.526 572.53 954.152 583.192C956.915 588.445 956.317 593.247 955.71 598.872C955.043 605.154 958.13 607.026 961.139 611.887C968.126 623.166 955.151 633.613 945.724 636.779C933.199 640.983 919.518 641.051 906.7 638.268C903.495 637.572 902.114 642.414 905.338 643.168C920.038 646.814 936.512 646.579 950.624 640.669C961.59 636.063 971.645 624.921 967.284 612.249C966.304 609.309 964.167 607.604 962.54 605.066C959.747 600.715 962.001 596.628 961.913 591.973C961.767 586.003 959.55 580.269 955.641 575.754C947.39 566.258 932.993 565.062 922.792 572.069L926.77 575.127C931.563 561.907 931.533 545.501 921.576 534.574C913.482 525.696 899.487 521.962 888.766 528.204C884.924 530.449 881.906 533.418 877.202 533.506C873.341 533.585 869.568 532.859 865.687 533.144C859.092 533.61 852.658 535.403 846.773 538.416C835.248 544.296 826.193 555.076 823.9 567.953C821.371 582.036 826.046 597.255 837.385 606.291C838.345 607.221 839.873 607.21 840.819 606.266C841.766 605.322 841.781 603.794 840.854 602.831C836.934 598.372 830.074 599.382 826.154 603.351C820.088 609.505 823.861 619.168 827.526 625.489C835.65 639.474 852.153 652.488 868.539 642.982C870.636 641.757 868.764 638.552 866.638 639.728H866.618Z" fill="var(--color-illustration-primary, #382C80)"/>
<path d="M876.124 583.427C877.058 605.34 878.038 627.246 879.064 649.146C879.525 658.603 879.858 668.158 881.955 677.429C882.92 681.812 884.383 686.07 886.316 690.12C888.648 694.961 892.127 699.214 894.097 704.222C897.949 714.022 896.263 726.252 896.214 736.562L896.028 769.882L895.665 836.463C895.528 861.943 895.244 887.423 895.567 912.835C895.567 915.775 900.105 915.775 900.173 912.835C901.222 867.813 900.957 822.753 901.153 777.722L901.32 744.402C901.379 733.74 902.192 722.754 901.065 712.14C900.085 702.458 894.744 696.01 890.638 687.562C886.051 678.125 884.856 667.521 884.15 657.182C882.465 632.613 881.21 608.015 879.593 583.447C879.446 581.222 875.997 581.183 876.095 583.447L876.124 583.427Z" fill="var(--color-illustration-primary, #382C80)"/>
<path d="M921.106 647.314C920.792 655.722 921.567 664.258 921.939 672.657C922.148 677.23 922.351 681.78 922.547 686.308C922.752 690.62 923.105 694.462 920.469 698.205C916.549 703.723 911.463 708.221 907.729 713.885C903.812 719.722 900.836 726.137 898.909 732.897C898.282 735.181 901.849 736.876 902.829 734.563C905.867 727.576 909.091 720.696 913.472 714.414C917.392 708.73 924.252 703.723 926.692 697.127C929.23 690.179 927.006 680.761 926.516 673.607C925.908 664.719 925.692 655.654 924.36 646.843C924.075 644.883 921.165 645.491 921.106 647.284V647.314Z" fill="var(--color-illustration-primary, #382C80)"/>
<path d="M854.682 652.498C855.867 660.769 858.602 670.393 865.158 676.096C870.42 680.702 878.535 683.289 884.758 679.183C886.718 677.89 885.542 674.362 883.072 675.175C876.936 677.368 870.083 675.433 866.001 670.353C861.434 664.983 860.297 657.996 858.229 651.498C857.484 649.156 854.309 650.175 854.633 652.478L854.682 652.498Z" fill="var(--color-illustration-primary, #382C80)"/>
<path d="M880.24 619.56C895.822 618.58 905.847 600.94 902.29 586.612C901.673 584.133 897.86 585.182 898.468 587.661C901.741 601.156 892.382 612.974 879.848 616.689C878.319 617.139 878.535 619.678 880.24 619.56Z" fill="var(--color-illustration-primary, #382C80)"/>
<path d="M867.98 904.858C861.698 898.292 855.025 888.668 859.905 881.004C862.283 877.264 866.795 875.474 871.09 876.566C875.386 877.658 878.495 881.385 878.799 885.806C881.994 878.809 886.963 870.665 894.646 871.038C899.428 871.273 903.466 875.075 905.348 879.446C907.229 883.817 907.504 888.727 907.719 893.509C915.559 885.973 929.681 886.443 937.051 894.489C943.803 901.849 941.725 913.815 937.844 922.213C949.359 921.694 958.895 935.424 954.387 946.027" fill="var(--color-illustration-base, #FFFFFF)"/>
<path d="M869.195 903.652C864.942 898.987 859.043 892.118 860.444 885.258C862.267 876.33 875.222 876.634 876.359 885.806C876.624 887.923 879.721 889.481 880.897 887.041C883.366 881.955 887.443 873.831 894.019 873.743C903.711 873.625 904.671 886.649 904.975 893.509C904.998 894.605 905.665 895.584 906.676 896.008C907.686 896.432 908.852 896.221 909.65 895.469C916.324 889.589 927.564 889.246 934.15 895.538C941.059 902.104 938.873 913.07 935.434 920.841C934.62 922.684 935.551 924.997 937.815 924.987C947.958 924.987 955.2 935.963 951.731 945.332C950.506 948.624 955.749 950.016 956.984 946.772C961.805 934.032 951.27 919.46 937.815 919.479L940.196 923.625C944.851 913.119 946.968 899.056 937.08 890.775C928.064 883.209 914.383 883.915 905.72 891.598L910.395 893.558C909.944 883.866 907.945 870.773 896.361 868.617C886.179 866.716 880.171 876.8 876.634 884.63L881.083 885.209C879.583 875.262 867.539 870.44 859.993 877.594C850.752 886.414 860.101 899.154 866.706 906.122C868.245 907.729 870.626 905.318 869.137 903.701L869.195 903.652Z" fill="var(--color-illustration-primary, #382C80)"/>
<path d="M654.967 214.82C656.309 222.718 656.792 230.739 656.408 238.742C655.065 267.162 620.932 287.742 608.653 311.742C604.958 318.974 602.616 327.765 606.095 335.105C609.133 341.534 616.199 345.424 623.284 346.11C630.369 346.796 637.465 344.729 643.962 341.838C656.134 336.408 666.776 328.118 678.311 321.483C689.846 314.848 703.066 309.723 716.257 311.556" fill="var(--color-illustration-base, #FFFFFF)"/>
<path d="M651.273 214.82C651.998 224.238 653.233 234.342 651.077 243.642C649.43 250.698 645.853 256.999 641.63 262.83C632.614 275.257 620.903 285.488 611.544 297.65C602.185 309.811 592.63 328.765 604.468 342.553C617.845 358.145 640.199 350.834 655.301 342.367C664.905 336.977 673.774 330.372 683.446 325.09C693.495 319.535 704.775 316.587 716.257 316.515C721.754 316.397 723.117 308.204 717.57 306.773C699.646 302.109 681.114 312.771 666.61 322.071C653.674 330.352 632.016 347.973 616.022 337.967C600.773 328.431 616.64 307.587 624.421 298.424C633.75 287.428 644.256 277.324 652.037 265.104C661.984 249.424 662.974 231.647 658.564 213.84C657.584 209.92 650.979 210.596 651.312 214.82H651.273Z" fill="var(--color-illustration-primary, #382C80)"/>
<path d="M778.104 310.125C788.615 295.721 796.891 279.813 802.653 262.938C804.29 258.146 796.401 254.687 794.372 259.44C787.564 275.433 779.943 291.068 771.538 306.284C769.108 310.654 775.262 313.996 778.104 310.125Z" fill="var(--color-illustration-primary, #382C80)"/>
<path d="M583.026 224.258C589.771 218.311 596.941 212.864 604.478 207.96C608.398 205.412 604.772 199.052 600.764 201.61C592.633 206.735 585.057 212.689 578.155 219.377C574.96 222.533 579.703 227.129 583.055 224.277L583.026 224.258Z" fill="var(--color-illustration-primary, #382C80)"/>
<path d="M615.983 244.788C618.844 241.516 622.441 238.97 626.479 237.36C628.448 236.746 629.605 234.711 629.125 232.705C628.635 230.921 626.371 229.275 624.47 230.059C619.234 232.128 614.599 235.474 610.985 239.79C608.163 243.25 612.945 248.228 615.983 244.788Z" fill="var(--color-illustration-primary, #382C80)"/>
<path d="M131.638 449.275C120.525 440.887 103.022 436.859 91.5165 446.894C82.3633 454.871 80.1975 469.434 88.4687 478.705L91.0461 474.295C75.5719 469.336 57.9221 476.823 49.0727 490.063C44.8587 496.364 42.6635 504.106 44.5157 511.623C46.1915 518.434 51.2189 524.735 58.8139 524.089L58.0789 518.62C40.1645 522.168 27.3167 542.297 32.9909 560.025C38.4985 577.205 59.3333 586.828 76.0619 580.36L72.7985 576.107C65.4191 589.063 76.1109 603.704 88.7529 607.918C105.893 613.631 123.053 600.137 134.813 589.376C137.479 586.946 133.578 583.163 130.893 585.456C121.014 593.835 108.412 604.605 94.4467 603.155C83.8529 602.048 71.6029 589.984 77.7867 579.037C78.9235 577.028 76.9929 573.824 74.5233 574.794C60.8033 580.203 43.1633 573 38.4691 558.536C33.6475 543.6 44.5941 527.029 59.5587 524.02C62.5967 523.412 61.9597 518.277 58.8139 518.552C51.9539 519.149 49.1609 511.162 49.3275 505.459C49.4843 499.579 52.6203 493.767 56.5011 489.465C64.775 480.148 77.58 476.266 89.6349 479.42C90.7797 479.699 91.9715 479.192 92.566 478.175C93.1604 477.158 93.0167 475.871 92.2123 475.01C85.0093 467.66 88.4001 454.969 96.0245 449.266C106.187 441.671 120.407 445.669 129.805 452.421C131.765 453.803 133.47 450.667 131.638 449.275Z" fill="var(--color-illustration-primary, #382C80)"/>
<path d="M131.892 529.792C131.285 566.777 132.353 603.87 132.872 640.855C133.392 677.841 133.059 714.983 134.97 751.929C135.117 754.653 139.184 754.692 139.233 751.929C139.997 714.943 138.517 677.841 137.851 640.855C137.184 603.87 137.086 566.748 135.313 529.792C135.313 528.856 134.554 528.097 133.617 528.097C132.681 528.097 131.922 528.856 131.922 529.792H131.892Z" fill="var(--color-illustration-primary, #382C80)"/>
<path d="M104.404 539.014C99.5035 549.333 109.098 561.358 120.162 559.819C122.994 559.427 121.789 555.125 118.976 555.517C111.068 556.615 105.041 547.422 107.667 540.386C108.373 538.504 105.266 537.181 104.404 539.014Z" fill="var(--color-illustration-primary, #382C80)"/>
<path d="M153.697 469.042C170.25 470.022 183.019 486.819 180.089 503.038C179.599 505.733 183.695 506.899 184.224 504.185C187.88 485.29 172.807 466.533 153.697 465.475C151.404 465.347 151.414 468.905 153.697 469.042Z" fill="var(--color-illustration-primary, #382C80)"/>
<path d="M548.892 37.93C553.224 55.3446 557.448 72.7788 561.77 90.1836C562.416 92.8002 566.474 91.6928 565.807 89.0664C561.436 71.6714 556.987 54.3058 552.587 36.9108C551.989 34.5196 548.295 35.5388 548.892 37.8908V37.93Z" fill="var(--color-illustration-primary, #382C80)"/>
<path d="M474.834 64.6743C479.126 71.9459 483.34 79.2763 487.809 86.4401C489.406 88.9979 493.385 86.6949 491.866 84.0685C487.633 76.7577 483.144 69.5743 478.744 62.3615C477.225 59.8723 473.344 62.1263 474.824 64.6547L474.834 64.6743Z" fill="var(--color-illustration-primary, #382C80)"/>
<path d="M392.425 86.2438C399.469 95.7831 408.441 103.733 418.758 109.578C421.286 111.008 423.55 107.137 421.032 105.658C411.385 100.177 402.937 92.8154 396.189 84.0094C394.523 81.8142 390.74 83.9506 392.425 86.2046V86.2438Z" fill="var(--color-illustration-primary, #382C80)"/>
<path d="M624.46 46.0838C620.442 57.2754 617.6 69.0256 614.288 80.4622C613.523 83.0984 617.639 84.2352 618.394 81.5892C621.687 70.1624 625.509 58.6866 628.027 47.0638C628.298 46.0868 627.725 45.0755 626.748 44.8049C625.771 44.5343 624.76 45.1068 624.489 46.0838H624.46Z" fill="var(--color-illustration-primary, #382C80)"/>
<path d="M189.507 371.483C237.762 412.29 287.271 452.558 346.307 476.676C362.418 483.261 379.97 487.867 393.69 499.059C399.158 503.518 407.037 495.874 401.53 491.219C389.711 481.194 375.422 475.794 361.085 470.433C346.311 464.922 331.907 458.464 317.965 451.098C289.545 436.084 262.84 417.827 237.017 398.766C222.444 387.986 208.019 377.069 193.623 366.083C190.536 363.731 186.469 369.023 189.448 371.492L189.507 371.483Z" fill="var(--color-illustration-primary, #382C80)"/>
</svg>
