<svg width="1000" height="1000" viewBox="0 0 1000 1000" fill="none" xmlns="http://www.w3.org/2000/svg">
<path d="M206.901 117.937C204.491 125.395 195.22 129.785 187.919 126.914C187.293 126.587 186.596 126.418 185.89 126.424C184.087 126.649 183.675 129.001 182.823 130.609C181.069 133.931 176.619 134.529 172.856 134.607C166.535 134.783 159.548 134.607 154.893 130.344C150.845 126.64 149.64 120.72 149.689 115.232C149.738 109.588 153.011 105.178 153.325 99.8365C153.648 94.3485 151.669 89.3505 152.786 83.5783C153.531 79.6583 154.795 75.8167 157.323 72.7983C163.331 65.6149 174.326 65.4483 183.479 67.4279C182.499 60.5679 187.684 54.4429 193.123 50.1897C200.6 44.3097 209.616 40.0271 219.102 39.7723C228.589 39.5175 238.497 43.8981 243.24 52.1399C250.786 41.5755 263.173 33.9021 276.119 34.4999C289.065 35.0977 301.599 45.6033 302.128 58.5491C310.803 48.2025 324.191 43.0484 337.565 44.9075C352.931 47.2399 356.038 65.8599 353.794 78.7469C358.488 75.3463 364.005 72.8669 369.797 72.6709C375.589 72.4749 381.635 75.0033 384.801 79.8543C387.966 84.7053 387.535 91.9083 383.135 95.6813C390.24 93.2999 397.57 100.082 399.256 107.363C401.902 118.79 394.66 131.05 384.154 136.244C373.648 141.438 360.84 140.34 350.119 135.636" fill="#7F72FF"/>
<path d="M203.384 116.977C201.282 121.927 195.997 124.725 190.722 123.68C186.557 122.788 183.294 121.602 180.628 126.032C179.188 128.423 178.835 129.952 175.669 130.432C172.767 130.812 169.83 130.855 166.918 130.559C160.274 130.04 155.442 127.051 154.178 120.171C152.963 113.694 156.05 108.656 157.118 102.531C158.186 96.5437 155.824 90.6441 156.746 84.6857C158.853 71.0637 170.72 69.1233 182.363 71.4753C184.813 71.9751 187.89 70.3287 187.655 67.4377C186.773 56.2167 201.767 48.0043 210.9 45.2799C221.328 42.1733 233.607 44.4763 239.663 54.2077C241.437 57.0497 244.985 56.6871 246.817 54.2077C253.677 44.9565 264.918 37.6065 276.854 39.0275C287.242 40.2623 297.199 47.5437 298.052 58.6275C298.297 61.8223 302.511 64.4095 304.99 61.5087C312.83 52.2673 329 44.2705 341.054 50.3073C350.335 54.9721 350.952 68.7019 349.394 77.5709C348.757 81.1381 352.491 85.1463 356.087 82.7257C361.477 79.0997 368.435 75.8657 375.001 78.1393C380.94 80.1679 385.017 87.3317 379.843 92.4277C376.471 95.7401 379.921 101.326 384.36 100.199C390.789 98.5723 394.895 106.148 395.14 111.538C395.415 117.584 392.475 123.464 388.28 127.659C378.314 137.606 363.369 135.871 351.256 131.51C346.679 129.864 343.524 137.253 347.924 139.409C365.368 147.935 388.388 145.691 399.55 128.335C404.176 121.142 406.018 111.596 402.833 103.482C399.521 95.0247 391.073 88.9193 381.891 91.2321L386.409 99.0035C394.307 91.2517 392.406 78.5411 383.704 72.2495C373.629 64.9681 360.85 68.1041 351.481 74.8465L358.185 80.0013C360.047 67.1633 358.126 49.9055 345.209 43.2023C330.137 35.3623 309.479 43.8099 299.238 55.7561L306.186 58.6275C305.137 44.6037 293.367 32.3733 279.373 30.4623C263.546 28.3161 248.728 37.7927 239.663 50.0623H246.817C238.772 37.2145 222.758 33.1769 208.695 37.3223C195.955 41.0659 178.1 52.2379 179.295 67.4671L184.597 63.4393C170.573 60.5287 155.04 62.9199 149.915 78.1687C148.619 82.0434 148.125 86.1413 148.465 90.2129C148.827 94.7699 149.709 98.8467 148.465 103.355C146.269 111.195 144.3 117.937 147.347 125.895C149.993 132.823 155.726 136.91 162.939 138.086C169.084 139.066 177.963 139.624 183.313 135.793C184.521 134.937 185.524 133.827 186.253 132.539C187.518 130.305 186.126 131 188.076 131.02C191.349 131.02 194.054 131.853 197.396 130.971C203.485 129.349 208.372 124.811 210.44 118.858C212.057 114.419 205.099 112.635 203.413 116.898L203.384 116.977Z" fill="#7F72FF"/>
<path d="M247.895 125.973C257.029 137.361 271.415 133.97 279.765 123.788C282.872 119.995 284.028 114.125 281.068 110.225C278.109 106.324 272.689 105.844 267.995 106.569C263.301 107.294 257.989 109.784 257.019 114.497C254.54 112.773 251.365 111.381 248.581 112.537C246.184 113.72 244.734 116.23 244.906 118.898C245.116 121.516 246.165 123.997 247.895 125.973Z" fill="white"/>
<path d="M246.797 127.081C251.893 133.059 259.145 135.989 266.946 134.146C274.031 132.471 282.028 126.796 284.145 119.535C289.368 101.62 259.459 99.0623 254.97 113.939L258.087 112.665C254.01 110.048 248.463 108.421 244.876 112.782C241.289 117.143 243.122 122.886 246.189 126.973C247.689 128.933 251.089 127.061 249.61 125.013C248.13 122.965 246.317 120.319 247.297 117.584C248.855 113.204 252.981 114.497 255.94 116.369C256.51 116.696 257.198 116.742 257.806 116.496C258.415 116.249 258.876 115.736 259.057 115.105C260.791 109.225 269.004 107.628 274.286 108.666C283.106 110.401 281.479 119.446 276.648 124.533C268.7 132.872 256.754 133.95 249.002 124.905C247.689 123.337 245.494 125.552 246.797 127.081Z" fill="#382C80"/>
<path d="M355.94 136.949C346.601 138.135 334.978 133.852 328.098 127.757C326.001 125.895 323.845 123.964 322.689 121.416C321.532 118.868 321.621 115.536 323.669 113.576C325.057 112.523 326.695 111.848 328.422 111.616C331.019 111.018 333.988 110.489 336.125 112.077C337.194 113.033 338.072 114.184 338.712 115.468C338.927 115.83 339.221 116.222 339.643 116.242C342.191 116.408 344.131 109.793 346.914 109.058C349.238 108.518 351.658 109.436 353.039 111.381C354.362 113.346 354.622 115.839 353.735 118.035C357.508 114.978 363.81 116.291 366.475 120.377C369.141 124.464 367.945 130.373 364.29 133.578C361.904 135.507 358.997 136.68 355.94 136.949Z" fill="white"/>
<path d="M355.94 135.44C348.98 135.852 342.05 134.238 335.988 130.795C332.068 128.629 317.093 117.29 327.736 114.135C329.257 113.614 330.852 113.339 332.46 113.321C336.193 113.723 335.537 115.438 337.193 117.182C338.068 118.318 339.559 118.788 340.927 118.358C342.358 117.966 343.328 116.653 344.19 115.546C344.766 114.593 345.401 113.676 346.091 112.802C349.394 109.47 352.657 113.566 351.511 117.496C350.962 119.358 353.216 121.269 354.921 120.113C356.932 118.646 359.594 118.428 361.816 119.547C364.039 120.667 365.448 122.936 365.466 125.424C365.544 131.304 360.311 133.862 355.294 134.715C352.226 135.244 353.549 139.83 356.577 139.37C364.829 138.096 372.463 131.294 369.807 122.21C368.742 118.77 366.114 116.036 362.72 114.833C359.325 113.631 355.562 114.102 352.569 116.104L355.98 118.731C357.116 114.723 356.332 110.489 352.687 108.078C349.716 105.932 345.595 106.422 343.21 109.205C342.681 109.793 339.369 114.487 340.643 114.419C339.431 112.84 338.121 111.337 336.723 109.921C333.342 108.019 328.177 108.941 324.816 110.499C314.849 115.026 321.876 125.62 327.667 130.177C335.507 136.312 346.033 139.781 355.97 138.595C357.822 138.272 357.9 135.244 355.94 135.44Z" fill="#382C80"/>
<path d="M170.485 116.604C172.666 119.93 176.59 121.673 180.52 121.063C179.056 122.49 177.872 124.179 177.031 126.042C176.204 127.947 176.407 130.142 177.57 131.863C184.303 140.526 201.933 138.017 209.283 132.059C216.202 126.453 219.142 115.977 215.055 108.069C214.497 106.858 213.598 105.836 212.468 105.129C211.476 104.668 210.404 104.405 209.312 104.354C205.471 103.913 201.296 103.541 197.983 105.53C197.611 105.808 197.183 106.002 196.729 106.099C196.167 106.11 195.617 105.938 195.161 105.609C189.859 102.551 182.97 98.3373 176.472 100.65C170.406 102.767 166.986 111.038 170.485 116.604Z" fill="white"/>
<path d="M169.044 117.447C171.563 121.251 175.98 123.349 180.52 122.896L179.246 119.76C176.306 122.974 173.219 127.277 175.326 131.814C177.1 135.734 181.794 137.998 185.733 138.919C194.328 140.928 205.333 138.919 211.978 132.804C219.024 126.277 222.817 112.606 215.702 104.707C212.399 101.042 205.265 101.022 200.757 101.983C199.532 102.247 198.032 103.355 196.837 103.453C195.641 103.551 194.73 102.59 193.809 102.081C190.954 100.371 187.881 99.0521 184.675 98.1607C179.177 96.8475 173.454 98.1607 169.906 102.767C166.443 106.976 165.985 112.903 168.76 117.594C170.142 119.77 173.18 117.878 172.16 115.634C169.985 110.803 172.278 104.394 177.541 102.757C183.793 100.797 188.673 105.266 193.975 107.598C197.778 109.274 200.159 106.481 204.167 106.354C207.372 106.246 211.027 106.354 212.987 109.294C214.359 111.41 214.614 114.566 214.496 117.016C214.046 126.277 207.048 132.5 198.503 134.509C190.722 136.342 171.484 134.186 181.843 122.377C182.764 121.318 182.254 119.054 180.549 119.26C177.252 119.823 173.919 118.472 171.945 115.771C170.661 114.066 167.78 115.673 169.044 117.447Z" fill="#382C80"/>
<path d="M683.417 371.757C682.765 355.961 679.012 340.447 672.372 326.099C668.256 317.23 662.709 308.518 654.252 303.608C646.529 299.12 637.19 298.287 628.272 298.894C614.983 299.815 593.903 304.333 585.015 315.505C576.959 325.629 581.977 337.222 580.115 349.952C575.078 384.252 563.523 418.131 548.167 449.089C541.473 462.574 533.78 478.264 540.19 491.886C542.904 497.658 547.843 502.058 552.93 505.86C584.378 529.135 628.39 534.133 664.277 518.502" fill="#7F72FF"/>
<path d="M686.778 371.757C686.172 354.28 681.936 337.119 674.342 321.366C666.972 306.372 655.399 296.317 638.376 294.719C624.725 293.426 609.544 296.238 597.01 301.658C591.336 304.108 585.75 307.43 581.781 312.261C576.822 318.308 575.489 325.56 575.597 333.194C575.725 341.573 575.597 349.256 574.078 357.547C572.402 366.71 570.276 375.785 567.767 384.752C562.686 402.915 556.083 420.618 548.03 437.672C540.905 452.725 530.115 468.905 532.977 486.358C535.584 502.264 551.176 512.456 564.435 519.375C596.326 535.939 633.968 537.313 666.982 523.118C672.431 520.747 668.452 511.084 662.896 513.416C637.312 524.108 608.663 524.888 582.536 515.602C570.119 511.192 554.527 503.793 546.785 492.65C537.456 479.253 547.765 461.858 553.802 449.305C567.698 420.159 578.4 389.26 583.692 357.41C584.885 350.382 585.331 343.247 585.025 336.124C584.75 329.46 584.682 322.689 589.396 317.416C597.236 308.596 611.21 305.431 622.431 303.814C630.017 302.726 638.043 302.344 645.491 304.421C653.88 306.754 660.044 312.624 664.611 319.837C674.293 335.144 679.066 353.823 680.046 371.777C680.281 376.079 686.906 376.128 686.778 371.777V371.757Z" fill="#7F72FF"/>
<path d="M723.029 526.94C719.795 594.678 688.15 657.917 687.651 725.949C687.141 796.029 686.729 866.706 682.035 936.757C681.771 940.677 681.359 944.851 678.919 947.782C676.861 950.261 673.735 951.349 670.746 952.241C640.748 961.227 609.006 961.649 578.126 958.209C570.492 957.366 562.162 955.896 557.144 949.702C555.331 947.448 554.047 944.43 554.665 941.51C555.256 939.463 556.312 937.582 557.752 936.012C565.719 925.918 579.547 915.138 584.711 903.29C591.522 887.678 588.367 864.531 587.093 848.057C581.437 775.149 580.605 701.947 584.604 628.929C588.2 562.887 597.52 492.65 638.18 442.454" fill="white"/>
<path d="M720.265 526.94C718.413 561.946 708.711 595.962 699.97 629.713C691.228 663.464 684.339 696.882 684.025 731.741C683.672 769.794 683.388 807.848 682.369 845.891C681.872 864.923 681.16 883.951 680.232 902.976C679.775 912.312 679.246 921.645 678.645 930.975C678.4 934.806 678.645 939.383 677.263 943.029C675.509 947.595 670.403 948.438 666.209 949.595C648.812 954.214 630.876 956.492 612.877 956.367C603.714 956.367 594.541 955.916 585.437 955.092C577.881 954.397 568.013 954.318 561.917 949.065C557.742 945.459 557.997 941.725 561.378 937.688C563.769 934.748 566.376 932.082 568.983 929.387C574.138 924.056 579.39 918.784 583.732 912.727C592.375 900.693 593.326 885.561 592.777 871.214C592.14 854.447 590.229 837.698 589.22 820.95C588.076 801.912 587.26 782.854 586.77 763.777C585.796 725.609 586.123 687.441 587.75 649.274C590.464 586.71 594.61 518.934 627.861 464.054C631.803 457.518 636.143 451.231 640.856 445.228C643.923 441.308 638.533 435.761 635.319 439.691C593.845 490.504 584.477 559.251 580.713 622.588C576.065 700.794 577.11 779.234 583.84 857.289C585.133 872.361 587.426 890.687 579.675 904.456C575.647 911.61 569.6 917.431 563.995 923.292C559.34 928.113 552.127 934.072 550.823 941C549.52 947.929 554.949 954.426 560.731 957.66C567.376 961.315 575.274 961.884 582.673 962.56C601.195 964.363 619.913 964.716 638.445 962.56C647.888 961.511 657.242 959.778 666.434 957.376C673.039 955.622 680.379 953.926 683.653 947.262C687.171 940.089 686.25 930.014 686.7 922.272C687.275 912.296 687.778 902.313 688.21 892.323C689.925 852.339 690.562 812.316 690.914 772.293C691.091 752.752 690.493 733.093 691.63 713.562C692.698 695.138 695.903 676.919 699.911 658.927C707.751 623.833 718.531 589.347 723.313 553.616C724.509 544.757 725.335 535.858 725.793 526.921C725.969 523.363 720.442 523.383 720.256 526.921L720.265 526.94Z" fill="#382C80"/>
<path d="M557.752 936.012C565.719 925.918 579.547 915.138 584.711 903.29C589.553 892.196 589.357 877.271 588.377 863.658C593.239 863.153 598.137 863.107 603.008 863.521C607.183 863.825 611.72 864.305 614.768 867.373C621.844 874.556 614.895 888.511 620.04 897.38C623.666 903.633 631.712 904.711 638.611 904.24C652.939 903.26 667.031 898.576 681.379 899.517C682.279 899.538 683.171 899.697 684.025 899.987C683.508 912.27 682.855 924.52 682.065 936.737C681.8 940.657 681.388 944.832 678.948 947.762C676.89 950.241 673.764 951.329 670.775 952.221C640.777 961.208 609.035 961.629 578.155 958.189C570.521 957.346 562.191 955.876 557.173 949.683C555.36 947.429 554.077 944.41 554.694 941.49C555.279 939.454 556.326 937.579 557.752 936.012Z" fill="#382C80"/>
<path d="M560.682 938.942C569.414 928.162 581.497 919.342 587.701 906.651C594.129 893.509 593.502 877.869 592.522 863.659L588.377 867.804C594.278 867.09 600.247 867.146 606.134 867.971C612.181 868.951 613.974 872.655 614.033 878.359C614.112 887.032 612.387 896.753 619.56 903.3C626.548 909.679 637.112 908.797 645.736 907.661C651.773 906.867 657.741 905.701 663.749 904.721C669.756 903.741 676.969 902.447 682.908 903.956L679.86 899.968C679.513 907.723 679.135 915.481 678.723 923.243C678.507 927.104 678.272 930.968 678.017 934.836C677.812 937.864 678.017 941.902 676.165 944.538C674.313 947.174 670.795 947.919 667.884 948.762C664.356 949.781 660.795 950.686 657.202 951.476C649.52 953.165 641.74 954.373 633.908 955.093C619.295 956.355 604.602 956.388 589.984 955.191C582.32 954.593 549.98 952.76 561.329 938.06C564.582 933.846 557.409 929.711 554.175 933.885C549.177 940.363 549.412 947.703 555.155 953.701C560.123 958.846 567.238 960.826 574.098 961.815C592.685 964.459 611.504 965.071 630.223 963.638C639.415 962.966 648.552 961.685 657.575 959.806C664.856 958.278 674.46 957.043 680.34 952.064C686.406 946.929 686.053 938.178 686.514 930.936C687.167 920.619 687.7 910.297 688.111 899.968C688.095 898.106 686.854 896.478 685.064 895.969C673.95 893.147 660.975 896.871 649.94 898.674C641.473 900.056 624.392 903.741 622.285 891.442C620.825 882.886 624.637 873.292 618.776 865.756C612.289 857.416 597.618 858.553 588.338 859.474C586.24 859.69 584.035 861.209 584.202 863.619C585.094 876.595 586.25 891.814 579.861 903.682C573.736 915.06 562.809 923.105 554.782 933.082C551.509 937.198 557.33 943.088 560.682 938.942Z" fill="#382C80"/>
<path d="M598.059 899.928C593.677 895.681 587.449 893.931 581.497 895.273C579.223 895.812 580.242 899.007 582.477 898.684C587.189 897.936 591.991 899.298 595.609 902.408C597.304 903.878 599.774 901.428 598.098 899.928H598.059Z" fill="white"/>
<path d="M588.445 913.668C585.364 910.458 581.268 908.411 576.851 907.876C574.813 907.621 574.313 911.169 576.361 911.502C579.964 912.015 583.306 913.671 585.897 916.225C586.603 916.929 587.746 916.927 588.45 916.221C589.153 915.514 589.151 914.371 588.445 913.668Z" fill="white"/>
<path d="M574.901 920.263L567.973 917.989C565.934 917.323 565.033 920.557 567.091 921.204L574.029 923.419C576.038 924.056 576.891 920.92 574.901 920.263Z" fill="white"/>
<path d="M745.382 454.567C760.082 453.969 773.714 463.946 781.299 476.578C800.507 508.575 796.382 556.399 794.902 592.012C793.187 633.231 789.286 674.9 797.264 715.747C810.69 784.523 824.331 853.927 833.651 923.507C834.17 927.378 834.631 931.572 832.789 934.924C831.26 937.766 828.418 939.451 825.664 940.921C798.048 955.69 767.06 962.403 736.082 965.176C728.428 965.862 719.971 966.078 713.826 961.002C711.592 959.159 709.74 956.454 709.759 953.475C709.942 951.349 710.613 949.293 711.719 947.468C717.521 935.992 728.928 922.674 731.633 910.051C735.21 893.391 727.517 871.332 722.989 855.446C707.871 802.349 695.422 748.587 685.642 694.157C676.322 642.306 664.327 595.442 672.333 541.963" fill="white"/>
<path d="M745.382 457.331C778.702 456.821 789.482 498.275 791.883 524.451C794.696 554.703 791.756 585.564 790.217 615.826C789.286 633.946 788.463 652.086 788.943 670.226C789.521 688.393 791.609 706.481 795.186 724.302C802.271 760.709 809.327 797.126 815.766 833.651C819 852.094 822.041 870.567 824.89 889.07C826.301 898.314 827.647 907.566 828.927 916.823C829.506 921.057 830.809 925.898 830.221 930.2C829.564 934.992 825.223 936.806 821.401 938.775C806.18 946.41 790.041 952.058 773.381 955.582C764.822 957.47 756.185 958.94 747.47 959.992C739.934 960.913 731.584 962.472 724.009 961.168C720.579 960.58 716.09 958.963 714.385 955.621C712.425 951.839 716.531 946.801 718.462 943.567C722.539 936.825 727.145 930.396 730.761 923.379C737.621 910.12 737.356 896.478 734.406 882.141C731.143 866.245 725.812 850.712 721.568 835.052C716.753 817.294 712.239 799.455 708.025 781.534C699.685 746.117 693.08 710.406 686.279 674.714C679.752 640.414 672.921 606.026 673.823 570.962C674.067 561.608 674.823 552.274 676.087 543.002C676.753 538.102 669.315 535.917 668.541 540.925C662.847 577.724 666.884 614.425 673.333 650.881C680.046 688.807 687.053 726.733 695.51 764.316C703.693 800.733 713.748 836.522 723.675 872.488C728.174 888.815 731.437 905.181 723.068 920.783C719.236 927.946 714.434 934.503 710.328 941.568C706.643 947.948 703.536 954.71 708.603 961.305C718.119 973.673 738.003 969.195 751.096 967.44C769.147 965.01 787.032 961.109 804.124 954.759C812.178 951.822 820.012 948.311 827.565 944.253C834.239 940.608 838.159 935.61 837.855 927.721C837.502 918.352 835.435 908.777 834.063 899.516C832.606 889.618 831.074 879.737 829.466 869.871C823.155 831.005 815.864 792.314 808.357 753.663C804.516 733.896 799.753 714.091 797.675 694.04C795.715 674.734 795.764 655.291 796.421 635.916C797.577 602.243 801.164 568.227 799.263 534.525C797.714 506.997 791.727 471.119 764.894 456.664C758.888 453.386 752.135 451.721 745.294 451.833C741.737 451.901 741.727 457.419 745.294 457.37L745.382 457.331Z" fill="#382C80"/>
<path d="M711.68 947.429C717.481 935.953 728.888 922.635 731.593 910.012C734.141 898.164 730.986 883.552 727.32 870.44C731.98 868.974 736.767 867.954 741.619 867.392C745.774 866.863 750.311 866.412 753.888 868.833C762.257 874.468 758.22 889.53 765.031 897.194C769.823 902.594 777.928 902.094 784.631 900.242C798.488 896.478 811.395 889.03 825.614 887.119C826.503 886.976 827.409 886.969 828.3 887.1C830.26 899.245 832.05 911.384 833.67 923.517C834.189 927.388 834.65 931.582 832.808 934.934C831.279 937.776 828.437 939.461 825.683 940.931C798.067 955.7 767.079 962.413 736.101 965.186C728.447 965.872 719.99 966.088 713.845 961.011C711.611 959.169 709.759 956.464 709.778 953.485C709.936 951.346 710.587 949.273 711.68 947.429Z" fill="#382C80"/>
<path d="M715.277 949.526C721.696 937.188 731.731 926.202 735.279 912.512C738.934 898.37 735.112 883.033 731.359 869.333L728.468 874.429C734.348 872.616 741.051 870.842 747.235 871.136C752.948 871.41 754.555 875.458 755.565 880.377C757.221 888.374 757.525 897.625 765.071 902.623C773.509 908.209 784.436 904.966 793.148 901.898C798.861 899.889 804.447 897.518 810.151 895.479C815.854 893.441 822.293 890.893 828.31 891.187L824.312 888.149C825.527 895.812 826.693 903.479 827.81 911.149C828.369 914.981 828.918 918.813 829.427 922.655C829.908 926.32 830.907 931.024 828.291 934.13C826.419 936.345 822.979 937.658 820.451 938.942C817.302 940.543 814.11 942.045 810.876 943.45C803.925 946.441 796.8 949.013 789.541 951.153C775.792 955.207 761.725 958.095 747.49 959.787C740.63 960.63 707.535 965.314 715.297 949.526C717.639 944.754 710.495 940.549 708.143 945.342C704.615 952.525 705.124 959.385 711.759 964.54C717.854 969.283 725.743 969.959 733.201 969.508C751.272 968.373 769.179 965.388 786.641 960.6C795.42 958.208 804.033 955.242 812.424 951.721C819.549 948.723 828.614 945.645 834.122 939.961C840.256 933.66 837.934 924.34 836.856 916.598C835.445 906.357 833.916 896.136 832.269 885.924C831.985 884.092 829.957 882.984 828.281 882.886C816.746 882.328 804.682 888.766 794.167 892.686C785.621 895.881 769.922 902.486 765.855 890.03C763.395 882.504 764.463 873.37 758.505 867.265C750.665 859.219 735.524 863.531 726.233 866.403C724.034 867.023 722.729 869.284 723.293 871.499C726.782 884.16 730.79 898.684 726.831 911.679C723.107 923.968 713.934 934.023 708.074 945.293C705.663 950.065 712.817 954.26 715.277 949.526Z" fill="#382C80"/>
<path d="M743.942 904.005C738.781 900.746 732.326 900.308 726.772 902.839C724.969 903.662 726.253 906.759 728.144 906.073C732.732 904.294 737.873 904.653 742.168 907.053C743.004 907.542 744.079 907.262 744.569 906.425C745.059 905.589 744.778 904.514 743.942 904.024V904.005Z" fill="white"/>
<path d="M737.258 919.381C733.73 916.935 729.478 915.754 725.194 916.029C722.852 916.196 722.803 919.802 725.194 919.714C728.817 919.53 732.404 920.505 735.435 922.497C737.395 923.771 739.169 920.675 737.258 919.381Z" fill="white"/>
<path d="M725.263 928.583L718.021 927.731C715.904 927.486 715.904 930.837 718.021 931.063L725.263 931.856C727.351 932.082 727.321 928.828 725.263 928.583Z" fill="white"/>
<path d="M299.041 348.169C305.725 348.757 312.928 351.442 319.503 352.961C335.438 356.636 351.373 360.321 367.474 363.045C467.523 380.028 581.781 363.319 666.051 309.145" fill="white"/>
<path d="M299.041 351.452C305.735 352.245 312.066 354.705 318.563 356.352C325.861 358.246 333.191 360.014 340.554 361.653C353.745 364.593 367.014 367.298 380.391 369.141C404.3 372.431 428.428 373.866 452.558 373.433C501.255 372.561 550.166 364.417 596.04 347.894C621.246 338.81 645.687 327.314 668.158 312.683C672.617 309.743 668.521 302.638 663.954 305.499C582.614 356.567 482.39 373.413 387.761 361.849C373.227 360.076 358.792 357.557 344.455 354.588C336.448 352.931 328.432 351.305 320.454 349.511C313.31 347.904 306.352 345.591 299.041 344.846C294.827 344.396 294.906 350.922 299.041 351.422V351.452Z" fill="#382C80"/>
<path d="M316.329 347.718C323.953 348.806 330.637 353.167 337.546 356.538C348.326 361.85 360.017 364.976 371.63 368.063C406.459 377.314 441.465 386.604 477.333 390.093C516.857 394.073 556.777 390.565 595.002 379.754C611.858 374.923 628.478 368.504 642.835 358.42C657.023 348.314 668.77 335.161 677.214 319.925C685.534 305.088 690.826 287.722 689.336 270.582C688.778 264.114 688.033 253.687 681.692 251.266C671.5 247.346 655.076 254.589 644.923 256.715C630.721 259.687 616.753 263.679 603.126 268.661C585.76 275.012 568.963 282.96 551.186 288.075C546.002 289.565 540.67 290.819 535.28 290.751C529.273 290.672 523.432 288.967 517.64 287.272C464.054 271.513 405.078 255.823 358.185 224.62C350.933 219.799 343.377 214.82 334.763 213.527C328.706 212.547 317.691 214.448 317.838 222.601C317.968 223.552 317.925 224.518 317.711 225.453C316.78 228.011 313.075 227.56 310.478 226.737C288.791 219.818 254.618 218.084 245.72 243.907" fill="white"/>
<path d="M315.446 350.883C324.09 352.402 331.244 357.449 339.094 361.026C346.79 364.411 354.731 367.209 362.849 369.395C380.656 374.462 398.57 379.274 416.592 383.527C452.058 391.886 488.132 397.247 524.627 395.424C558.869 393.768 594.55 387.398 625.812 372.884C654.948 359.36 678.478 334.37 688.954 303.814C693.726 289.868 695.481 273.963 691.972 259.488C690.708 254.284 688.052 249.228 682.79 247.268C676.723 245.014 669.756 246.062 663.611 247.405C657.123 248.826 650.871 251.109 644.374 252.589C635.926 254.549 627.527 256.509 619.227 258.949C601.871 264.124 585.368 271.434 568.463 277.834C560.241 280.95 551.803 284.125 543.11 285.801C533.536 287.663 524.794 285.007 515.67 282.332C500.225 277.804 484.761 273.375 469.395 268.612C437.711 258.812 406.155 247.62 377.147 231.313C370.209 227.393 363.564 223.081 356.871 218.759C350.178 214.438 343.151 210.518 335.311 209.4C330.224 208.574 325.005 209.37 320.395 211.674C318.266 212.785 316.47 214.443 315.192 216.476C314.588 217.522 314.152 218.657 313.898 219.837C313.731 220.572 313.731 221.317 313.624 222.052C313.408 223.375 314.604 222.621 313.437 223.032C311.869 223.61 307.107 221.298 305.411 220.876C302.648 220.223 299.861 219.668 297.052 219.21C291.477 218.282 285.825 217.905 280.176 218.083C269.396 218.524 258.263 221.445 250.267 229.049C246.376 232.889 243.442 237.588 241.701 242.769C239.869 247.816 247.875 249.953 249.718 244.974C257.685 223.414 285.919 224.659 304.216 229.294C308.949 230.51 314.819 233.322 319.278 229.971C321.63 228.197 321.777 225.962 322.091 223.258C322.453 220.2 323.6 219.053 326.628 218.132C339.839 214.114 353.333 226.678 363.672 233.028C389.662 248.992 418.229 260.468 447.07 270.111C461.692 275.011 476.47 279.461 491.258 283.831C498.648 286.007 506.047 288.143 513.446 290.309C520.845 292.475 528.381 294.935 536.182 294.837C552.361 294.631 568.825 286.654 583.555 280.715C599.137 274.433 614.748 268.485 631.016 264.192C638.19 262.301 645.501 260.978 652.576 258.93C658.819 257.136 665.159 254.941 671.657 254.353C674.293 254.118 678.125 253.794 680.477 255.225C682.829 256.656 683.515 259.802 684.054 262.242C685.416 268.914 685.769 275.752 685.102 282.528C682.407 313.369 660.887 342.612 635.005 358.517C607.202 375.599 572.383 382.802 540.288 385.957C505.723 389.358 471.119 386.712 437.113 379.999C420.042 376.628 403.147 372.433 386.291 368.131C369.934 363.946 352.863 360.487 337.683 352.882C330.999 349.531 324.58 345.767 317.103 344.493C312.967 343.788 311.223 350.099 315.348 350.824L315.446 350.883Z" fill="#382C80"/>
<path d="M487.839 384.282C527.497 386.562 567.229 381.352 604.958 368.925C621.618 363.378 637.935 356.263 651.852 345.581C665.601 334.885 676.782 321.247 684.574 305.666C692.257 290.496 696.804 272.914 694.589 255.853C693.756 249.414 703.155 221.043 696.716 218.897C686.367 215.447 649.088 224.424 645.629 236.155C641.542 250.071 621.775 252.031 608.389 257.587C596.09 262.683 584.153 268.612 571.844 273.698C563.103 277.305 552.901 283.822 543.512 285.321C532.037 287.154 518.033 280.813 507.4 277.207C494.601 272.885 482.057 267.828 469.523 262.791L428.608 246.327C425.807 245.044 422.837 244.169 419.788 243.73C413.633 243.122 407.557 246.151 403.128 250.433C376.55 275.913 363.016 321.473 376.276 356.734C378.343 362.241 381.313 367.749 386.281 370.914C397.63 378.137 417.935 374.697 431.146 377.108C449.874 380.686 468.809 383.082 487.839 384.282Z" fill="#7F72FF"/>
<path d="M487.839 387.565C523.765 389.525 560.025 386.114 594.659 376.206C626.332 367.151 656.212 353.206 676.518 326.354C686.269 313.457 693.854 298.424 697.284 282.567C699.126 274.37 699.684 265.936 698.94 257.568C698.529 253.344 699.323 249.483 700.136 245.327C701.116 240.271 702.174 235.214 702.772 230.088C703.213 226.296 703.752 221.641 701.792 218.162C697.872 211.302 684.73 214.173 678.596 215.222C668.443 216.986 657.359 220.122 648.882 226.188C645.539 228.512 642.972 231.786 641.512 235.586C639.17 241.113 634.231 244.034 628.861 246.229C622.981 248.659 616.709 250.149 610.701 252.285C602.675 255.157 594.953 258.93 587.181 262.448C579.273 266.035 571.158 269.249 563.348 273.052C556.017 276.609 548.226 281.274 539.828 281.46C531.988 281.636 524.275 278.834 517.003 276.237C508.958 273.355 500.873 270.592 492.886 267.564C475.569 260.978 458.439 253.844 441.259 246.984C433.419 243.828 424.678 238.703 415.965 239.673C408.87 240.457 403.078 244.445 398.188 249.424C388.491 259.529 380.826 271.403 375.609 284.4C370.153 297.49 367.208 311.489 366.926 325.668C366.73 338.966 368.886 353.99 375.746 365.613C383.282 378.353 397.443 379.793 410.938 380.205C418.288 380.42 425.511 380.469 432.772 381.783C441.592 383.37 450.412 384.781 459.35 385.908C468.804 387.104 478.277 387.963 487.77 388.486C493.131 388.78 493.091 380.499 487.77 380.166C470.068 378.97 452.448 376.765 434.997 373.56C422.198 371.287 408.9 373.159 396.248 370.356C389.29 368.817 384.645 365.23 381.548 358.762C378.749 352.629 376.895 346.106 376.05 339.417C374.332 326.345 375.299 313.06 378.892 300.374C382.374 287.471 388.226 275.328 396.15 264.565C399.942 259.459 404.539 253.569 410.085 250.306C418.229 245.514 425.765 249.728 433.654 252.903C449.775 259.381 465.867 265.947 482.037 272.317C496.227 277.893 510.79 283.851 525.539 287.791C532.233 289.574 539.191 290.515 546.031 289.084C553.038 287.614 559.584 284.126 565.964 280.99C573.118 277.481 580.537 274.522 587.808 271.19C595.697 267.622 603.488 263.742 611.642 260.704C621.854 256.891 633.496 255.098 642.179 248.052C646.216 244.779 647.402 241.133 649.754 236.792C651.459 233.646 655.193 231.725 658.261 230.167C667.322 225.726 677.161 223.089 687.229 222.405C689.084 222.237 690.949 222.221 692.806 222.356C694.07 222.484 695.207 223.336 694.442 222.072C696.059 224.826 694.383 230.706 693.893 233.607C692.433 242.26 690.071 250.472 690.757 259.273C692.012 275.443 687.357 291.564 679.821 305.744C664.817 333.968 639.866 352.049 610.241 362.878C578.842 374.252 545.811 380.477 512.427 381.312C504.195 381.547 495.973 381.4 487.75 380.999C483.615 380.783 483.634 387.3 487.839 387.565Z" fill="#7F72FF"/>
<path d="M675.792 244.396C661.004 244.583 647.49 253.971 638.905 266.015C630.32 278.059 625.891 292.524 622.245 306.852C616.799 328.024 613.024 349.592 610.955 371.355C609.289 388.603 607.614 405.91 604.184 422.874C601.351 436.927 593.903 452.274 595.364 466.974C596.089 474.177 601.822 479.626 607.672 483.36C624.685 494.208 645.206 496.648 665.002 497.011C700.429 497.638 736.709 492.111 767.804 474.206C774.282 470.473 780.956 465.631 783.161 458.154C785.68 449.608 781.613 440.641 778.673 432.223C771.146 410.663 769.431 385.036 769.725 362.251C770.088 334.811 765.56 306.832 753.389 282.558" fill="white"/>
<path d="M675.792 241.211C656.29 241.584 640.356 254.931 631.026 271.248C619.805 290.907 615.268 314.858 611.299 336.908C606.918 361.232 605.781 385.908 601.793 410.33C599.98 421.404 596.893 431.89 593.835 442.67C591.228 451.951 588.239 463.593 591.953 472.962C595.472 481.86 604.174 487.662 612.455 491.65C621.833 496.03 631.833 498.93 642.1 500.245C663.66 503.283 685.984 502.519 707.446 499.451C729.359 496.315 751.056 489.651 770.245 478.489C777.84 474.069 785.268 468.238 787.885 459.457C791.001 448.824 785.778 438.417 782.544 428.529C774.508 404.029 775.076 378.882 774.39 353.47C773.704 328.059 768.687 303.04 757.074 280.362C754.526 275.374 747.274 279.755 749.616 284.723C758.436 303.422 763.13 324.1 764.482 344.69C765.815 364.878 764.482 384.938 767.334 405.077C768.654 415.02 770.952 424.809 774.194 434.301C777.281 443.121 782.279 453.675 775.488 462.025C770.049 468.728 760.602 472.707 752.948 476.196C743.416 480.456 733.499 483.797 723.332 486.172C703.732 490.896 683.466 492.464 663.307 492.052C644.511 491.621 624.107 489.259 608.319 478.038C604.987 475.657 601.714 472.531 600.479 468.522C599.049 463.887 599.98 458.085 600.881 453.43C602.753 443.768 606.389 434.556 608.427 424.922C612.925 403.607 613.945 381.802 616.512 360.242C619.354 336.32 623.862 311.928 631.771 289.124C638.631 269.377 652.88 248.718 675.792 247.64C679.869 247.454 679.918 241.192 675.792 241.27V241.211Z" fill="#382C80"/>
<path d="M391.22 958.522C377.521 952.121 367.55 939.745 364.211 924.997L360.83 926.957C368.68 933.16 376.52 939.51 384.439 945.773C385.214 946.491 386.367 946.618 387.28 946.086C388.193 945.554 388.651 944.488 388.408 943.46C387.477 938.687 386.448 933.934 385.468 929.171C384.566 924.801 383.223 920.204 383.782 915.706C384.478 910.052 389.887 908.013 394.268 911.698C398.188 914.971 399.041 920.449 399.952 925.173C400.501 928.054 404.705 927.192 404.852 924.516C405.656 909.562 409.331 894.225 416.612 881.034C418.866 876.947 422.443 874.272 426.128 878.545C428.284 881.053 429.283 884.327 430.146 887.463C432.207 895.054 432.641 902.996 431.42 910.767C431.038 913.305 434.781 915.569 436.026 912.727C440.593 902.153 453.607 891.686 465.573 897.615C474.109 901.839 478.313 914.942 470.953 922.017C469.042 923.86 471.041 926.78 473.423 926.261C478.891 925.075 485.359 923.517 490.71 925.967C495.267 928.064 498.55 933.689 495.218 938.207C493.307 940.814 497.648 943.303 499.549 940.735C503.675 935.159 501.264 927.672 496.296 923.478C489.593 917.803 479.871 919.675 472.07 921.361L474.54 925.604C484.007 916.471 479.704 900.124 469.091 893.764C454.871 885.218 437.447 896.802 431.675 910.189L436.271 912.149C437.899 902.353 437.112 892.308 433.978 882.886C431.91 876.918 426.961 869.166 419.513 871.498C411.771 873.88 408.449 886.012 406.067 892.745C402.483 902.995 400.4 913.709 399.883 924.556L404.783 923.889C403.637 918.009 402.157 911.482 397.09 907.611C392.984 904.475 387.006 903.574 382.831 907.102C378.657 910.63 378.451 916.343 379.068 921.292C380.048 929.132 382.136 937.031 383.821 944.763L387.31 942.078C379.284 935.992 371.218 929.955 363.222 923.83C361.732 922.694 359.87 924.565 360.282 926.114C364.185 941.695 374.939 954.668 389.525 961.394C391.436 962.276 393.102 959.434 391.191 958.552L391.22 958.522Z" fill="#382C80"/>
<path d="M431.684 955.7C431.939 948.909 441.68 945.626 446.208 950.487C447.923 952.329 450.638 949.585 448.962 947.723C442.161 940.197 428.215 945.763 427.98 955.7C427.931 958.091 431.596 958.082 431.684 955.7Z" fill="#382C80"/>
<path d="M348.1 805.466C375.54 838.541 391.965 877.731 400.04 919.675C400.579 922.429 404.588 921.204 404.196 918.529C397.973 876.183 377.647 835.866 350.168 803.418C348.963 801.987 346.944 804.045 348.12 805.466H348.1Z" fill="#382C80"/>
<path d="M390.74 866.03C391.239 862.532 391.543 859.17 392.7 855.76C393.477 853.643 394.461 851.607 395.64 849.684C396.551 848.155 396.796 846.048 397.061 849.145C397.394 853.065 396.492 857.357 395.747 861.14C395.355 863.1 394.209 871.763 392.455 872.636L394.895 872.949L394.699 872.734C394.067 872.129 393.111 872.017 392.355 872.458C391.6 872.899 391.229 873.787 391.445 874.635L391.524 874.909C391.849 875.958 392.936 876.572 394.003 876.311C395.963 876.036 396.365 874.351 396.943 872.694C398.119 869.28 399.049 865.785 399.726 862.238C400.393 858.799 400.825 855.318 401.02 851.82C401.147 849.645 401.774 846.362 400.442 844.343C397.658 840.168 393.709 845.225 392.2 847.636C388.966 852.81 386.78 859.396 387.476 865.56C387.662 867.216 390.416 868 390.71 866.001L390.74 866.03Z" fill="#382C80"/>
<path d="M377.304 845.94C373.237 843.167 356.9 836.013 355.587 845.538C355.078 849.262 358.704 851.497 361.908 852.026C366.941 852.754 372.055 851.418 376.089 848.321C377.539 847.136 375.981 844.558 374.256 845.166C371.767 846.048 369.415 847.224 366.779 847.665C365.701 847.841 363.28 848.184 362.114 847.733C360.624 847.155 359.987 845.852 361.487 845.048C363.182 844.147 367.171 845.626 368.866 846.107C371.355 846.812 373.707 847.831 376.108 848.762C377.833 849.439 378.666 846.871 377.304 845.94Z" fill="#382C80"/>
<path d="M366.494 823.341C365.822 820.277 365.756 817.111 366.298 814.021C366.661 812.11 367.651 807.161 369.895 807.367C372.139 807.573 371.62 812.63 371.286 814.511C370.779 817.041 369.718 819.427 368.18 821.499C366.661 823.684 370.14 825.644 371.718 823.567C374.55 819.772 375.908 815.077 375.54 810.356C375.304 807.504 374.56 802.369 370.865 802.065C367.014 801.742 365.093 806.505 364.123 809.435C362.535 814.185 362.375 819.295 363.662 824.135C364.162 825.997 366.886 825.203 366.524 823.351L366.494 823.341Z" fill="#382C80"/>
<path d="M654.271 508.585C651.959 529.469 650.4 550.548 649.009 571.511C648.46 579.772 649.793 586.652 654.33 593.6C658.721 600.332 664.493 606.34 666.521 614.278C667.207 617.002 671.167 615.826 670.667 613.141C669.324 605.928 664.953 600.46 660.739 594.668C658.294 591.591 656.279 588.195 654.752 584.574C652.958 579.762 653.301 574.686 653.615 569.658C654.918 549.314 656.751 528.969 657.535 508.585C657.613 506.458 654.516 506.556 654.301 508.585H654.271Z" fill="#382C80"/>
<path d="M670.628 138.213C671.918 142.936 671.523 147.961 669.511 152.423C666.747 158.48 661.171 167.888 653.919 168.309C642.747 169.007 631.534 168.016 620.658 165.369C616.992 164.389 613.308 163.184 610.358 160.812C607.408 158.441 605.291 154.775 605.615 151.012C606.134 145.181 612.22 143.692 617.032 142.888C617.855 142.751 620.089 142.888 620.716 142.359C622.108 141.242 621.304 141.722 620.52 140.007C618.796 136.253 617.384 133.088 617.286 128.825C617.145 125.825 617.744 122.836 619.031 120.123C620.991 116.34 627.537 109.754 641.875 107.294" fill="#382C80"/>
<path d="M667.002 139.213C668.57 146.122 665.924 152.316 661.965 157.882C660.26 160.264 657.986 163.057 655.105 163.968C652.224 164.879 648.304 164.37 645.197 164.282C637.329 164.13 629.505 163.064 621.883 161.106C618.306 160.126 614.396 158.999 611.916 156.079C609.692 153.482 609.172 150.258 612.485 148.592C616.405 146.632 622.657 148.337 625.225 143.966C626.283 142.143 625.695 140.497 624.921 138.743C623.431 135.401 621.814 132.588 621.609 128.825C620.972 117.173 633.653 112.959 642.982 111.028C647.882 110.048 645.756 102.767 640.924 103.571C632.104 105.041 622.373 108.529 616.826 116.026C611.279 123.523 612.142 136.214 617.747 143.604L617.316 140.252C619.541 138.713 619.747 138.106 617.943 138.449L617.11 138.517C615.943 138.589 614.787 138.782 613.661 139.096C611.349 139.56 609.126 140.39 607.075 141.555C602.928 144.052 600.695 148.803 601.421 153.59C603.185 167.173 619.423 170.201 630.478 171.7C641.258 173.16 656.046 175.493 664.552 167.182C672.392 159.548 676.949 147.974 674.352 137.214C673.206 132.52 666.052 134.509 667.11 139.174L667.002 139.213Z" fill="#382C80"/>
<path d="M654.634 140.663C642.795 151.943 640.002 173.876 638.797 189.32C638.474 193.505 638.356 197.797 639.62 201.806C642.717 211.606 652.017 215.212 661.18 216.613C665.531 217.27 666.805 220.2 666.541 224.453L665.561 239.937C665.1 247.307 665.11 255.843 670.745 260.625C674.234 263.565 679.163 264.29 683.72 263.859C686.792 263.617 689.787 262.782 692.54 261.399C702.223 256.362 707.789 243.367 708.73 233.028C709.958 218.241 710.246 203.39 709.592 188.566C709.288 179.638 708.553 170.71 708.308 161.782C708.132 155.197 706.417 150.022 701.448 145.279C692.974 137.273 681.489 133.26 669.873 134.244" fill="white"/>
<path d="M652.214 138.252C644.991 145.299 641.061 154.844 638.641 164.497C636.122 174.512 633.976 186.165 634.672 196.523C635.407 207.46 642.198 215.212 652.361 218.74C654.47 219.439 656.624 219.992 658.809 220.396C661.857 221.013 662.425 221.209 662.386 224.424C662.288 231.284 661.171 238.036 661.142 244.857C661.142 255.382 665.13 265.613 676.469 267.906C687.317 270.102 698.029 265.378 704.556 256.734C711.563 247.473 713.327 236.566 714.071 225.286C714.942 210.819 714.975 196.314 714.169 181.843C713.523 168.897 715.502 153.207 706.065 142.907C697.088 133.107 683.015 128.413 669.962 129.501C664.003 130.001 663.856 139.301 669.962 138.919C680.163 138.341 690.659 141.457 698.097 148.719C705.536 155.981 703.791 168.378 704.34 178.031C705.026 189.908 705.379 201.815 705.153 213.703C704.948 224.061 705.271 235.331 700.949 244.984C697.029 253.726 689.424 260.782 679.174 259.42C667.806 257.91 669.658 244.416 670.138 236.056C670.52 228.706 673.46 216.78 664.64 213.252C661.044 211.831 657.006 211.821 653.36 210.312C648.852 208.518 645.138 205.412 643.56 200.688C641.806 195.563 642.737 189.624 643.198 184.332C643.596 179.476 644.25 174.644 645.158 169.857C647.02 160.185 650.058 150.257 657.133 143.025C660.22 139.889 655.458 135.126 652.302 138.203L652.214 138.252Z" fill="#382C80"/>
<path d="M684.71 209.92C675.967 211.799 666.999 212.403 658.083 211.713C653.497 211.429 652.331 219.161 656.986 219.847C666.949 221.376 677.142 220.055 686.386 216.035C690.041 214.497 688.797 208.969 684.7 209.92H684.71Z" fill="#382C80"/>
<path d="M636.603 125.111C641.307 138.223 648.559 151.571 661.024 157.745C662.384 158.529 663.924 158.948 665.493 158.96C668.129 158.793 670.305 156.569 671.069 154.06C671.711 151.465 671.575 148.738 670.677 146.22C672.853 148.386 675.205 150.64 678.213 151.218C681.222 151.796 684.897 149.758 684.819 146.7C687.759 147.464 688.837 151.032 689.336 154.04C690.674 162.109 691.567 170.246 692.012 178.413C691.642 174.948 692.058 171.444 693.227 168.162C694.452 164.732 697.324 161.184 700.93 161.674C703.203 161.978 704.997 163.899 705.83 166.035C706.55 168.226 706.901 170.521 706.869 172.827C707.163 178.922 707.731 185.018 708.593 191.065C708.789 192.417 709.309 194.073 710.651 194.22C711.238 194.232 711.812 194.053 712.288 193.711C715.16 191.947 716.855 188.811 718.374 185.812C723.607 175.414 729.252 166.427 731.976 154.795C732.848 151.071 733.486 147.092 732.231 143.476C730.908 139.664 727.537 137.596 723.666 137.429C723.911 125.297 706.241 118.525 697.029 114.791C684.02 109.662 670.212 106.855 656.232 106.5C645.374 106.138 633.633 107.314 625.421 114.429" fill="#382C80"/>
<path d="M633.525 125.954C637.622 138.076 643.462 150.297 653.939 158.176C658.466 161.577 664.562 165.203 670.148 161.959C676.194 158.45 676.518 151.091 674.969 145.064L667.58 149.385C671.128 152.894 675.263 156.245 680.565 155.726C684.779 155.285 688.689 152.276 689.287 147.945L683.603 151.12C685.681 151.963 685.896 161.665 686.112 163.36C686.739 168.368 687.092 173.376 687.504 178.403H696.52C696.216 175.11 696.186 171.543 697.715 168.515C698.862 166.261 700.351 165.526 701.9 167.858C702.782 169.191 702.439 171.269 702.507 172.817C702.841 179.226 702.831 185.979 704.154 192.29C705.006 196.327 708.26 199.826 712.729 198.513C717.403 197.141 720.196 192.074 722.245 188.066C728.683 175.493 751.723 135.95 723.675 133.186L727.929 137.439C727.644 128.756 721.49 122.739 714.463 118.417C706.397 113.643 697.764 109.897 688.768 107.265C676.767 103.664 664.291 101.9 651.763 102.032C641.101 102.149 630.664 104.374 622.363 111.361C618.031 115.007 624.205 120.936 628.517 117.516C635.495 111.969 644.638 110.862 653.272 110.871C663.894 110.894 674.463 112.358 684.691 115.223C692.23 117.264 699.552 120.034 706.555 123.494C712.033 126.277 719.295 130.481 719.442 137.439C719.442 139.938 721.402 141.418 723.685 141.692C735.367 143.045 723.528 166.192 720.824 171.524C718.442 176.188 716.08 180.932 713.493 185.489C712.905 186.469 711.69 187.625 711.278 188.693L709.995 189.761C712.608 191.721 713.67 191.924 713.18 190.369C713.415 189.654 712.503 185.988 712.454 185.626C712.268 184.107 712.092 182.588 711.935 181.059C711.122 173.141 712.209 158.392 700.939 157.539C690.473 156.726 687.151 170.544 687.513 178.442C687.778 184.215 696.755 184.254 696.529 178.442C696.171 170.485 695.34 162.556 694.04 154.697C693.158 149.14 691.58 144.525 686.034 142.29C682.966 141.055 680.516 144.113 680.212 146.72C680.212 146.641 678.35 146.563 677.655 146.298C676.194 145.74 674.891 144.152 673.813 143.104C672.37 141.737 670.199 141.485 668.481 142.484C666.764 143.484 665.91 145.496 666.385 147.425C666.835 149.111 668.08 153.305 665.718 154.383C663.856 155.207 660.71 152.904 659.25 151.963C656.264 149.998 653.577 147.611 651.273 144.877C646.099 138.88 642.541 131.579 639.66 124.297C638.19 120.573 632.173 122.043 633.515 125.993L633.525 125.954Z" fill="#382C80"/>
<path d="M645.775 169.622C656.046 170.083 650.969 181.686 649.529 187.262C648.363 191.79 652.067 192.329 656.026 192.358C658.506 192.358 658.486 188.634 656.026 188.517C653.282 188.399 653.214 188.595 654.007 186.018C654.38 184.783 654.772 183.558 655.076 182.303C655.824 179.738 656.031 177.045 655.683 174.395C654.965 169.553 650.661 166.066 645.775 166.369C644.934 166.434 644.284 167.136 644.284 167.981C644.284 168.825 644.934 169.527 645.775 169.593V169.622Z" fill="#382C80"/>
<path d="M642.512 175.708C642.274 176.903 642.751 178.127 643.735 178.844C644.719 179.562 646.03 179.643 647.095 179.052C648.16 178.461 648.784 177.305 648.695 176.09C648.815 174.422 647.7 172.916 646.069 172.543C645.048 172.334 643.988 172.625 643.217 173.327C642.383 174.056 642.047 175.202 642.355 176.267C642.58 177.026 643.227 177.585 644.011 177.698C644.803 177.801 645.578 177.413 645.971 176.718C646.107 176.465 646.216 176.199 646.294 175.924C646.353 175.718 646.294 175.787 646.196 176.13C646.314 175.953 646.255 176.012 646.04 176.316C646.196 176.172 646.128 176.221 645.834 176.463C646.02 176.355 645.932 176.384 645.589 176.551C645.893 176.453 645.001 176.551 645.501 176.551C645.109 176.482 645.02 176.482 645.226 176.551C644.893 176.394 644.824 176.365 645.011 176.473C644.746 176.247 644.687 176.208 644.844 176.345C645.001 176.482 644.942 176.453 644.717 176.179C644.893 176.433 644.579 175.64 644.717 176.12C644.795 176.453 644.658 175.532 644.717 176.051C644.717 176.375 644.854 175.502 644.717 175.992C644.579 176.482 644.903 175.679 644.717 175.992C644.53 176.306 645.118 175.64 644.717 175.934C645.011 175.718 645.079 175.669 644.913 175.777C645.256 175.649 645.324 175.61 645.138 175.669C645.51 175.669 645.589 175.62 645.383 175.62C645.716 175.679 645.785 175.679 645.579 175.62C645.746 175.664 645.898 175.752 646.02 175.875C645.883 175.738 645.902 175.777 646.089 175.992C646.042 175.928 646.003 175.859 645.971 175.787C646.069 176.035 646.089 176.064 646.03 175.875C646.025 175.796 646.025 175.718 646.03 175.64C646.03 175.904 646.03 175.943 646.03 175.747C646.014 174.78 645.233 173.999 644.266 173.983C643.321 174.013 642.557 174.764 642.512 175.708Z" fill="#382C80"/>
<path d="M662.16 178.06C661.921 179.254 662.397 180.478 663.38 181.196C664.362 181.915 665.673 181.998 666.738 181.409C667.804 180.82 668.43 179.666 668.344 178.452C668.464 176.781 667.35 175.272 665.718 174.895C664.692 174.683 663.626 174.979 662.856 175.688C662.04 176.429 661.707 177.564 661.994 178.628C662.236 179.375 662.882 179.919 663.66 180.03C664.449 180.12 665.218 179.735 665.62 179.05C665.76 178.801 665.866 178.534 665.933 178.256C666.002 178.05 665.933 178.119 665.835 178.462C665.953 178.285 665.904 178.354 665.688 178.648C665.838 178.511 665.77 178.56 665.482 178.795C665.659 178.697 665.58 178.726 665.237 178.883C665.541 178.795 664.64 178.883 665.139 178.883C664.757 178.815 664.659 178.805 664.875 178.883C664.542 178.726 664.463 178.697 664.649 178.795C664.385 178.57 664.326 178.53 664.483 178.677C664.64 178.824 664.591 178.775 664.365 178.511C664.532 178.766 664.218 177.972 664.365 178.442C664.512 178.913 664.306 177.854 664.365 178.383C664.365 178.707 664.502 177.835 664.365 178.325C664.228 178.815 664.551 178.001 664.365 178.276C664.179 178.55 664.757 177.923 664.365 178.217C664.659 178.011 664.718 177.962 664.551 178.06C664.894 177.933 664.973 177.903 664.777 177.952C665.149 177.952 665.228 177.903 665.022 177.952C665.365 178.011 665.433 178.011 665.228 177.952C665.394 177.992 665.544 178.081 665.659 178.207C665.522 178.07 665.551 178.099 665.727 178.315L665.61 178.109C665.718 178.364 665.737 178.393 665.678 178.207C665.65 178.128 665.63 178.046 665.62 177.962C665.62 178.236 665.62 178.276 665.62 178.07C665.62 177.096 664.83 176.306 663.856 176.306C662.881 176.306 662.092 177.096 662.092 178.07L662.16 178.06Z" fill="#382C80"/>
<path d="M256.96 359.566C257.822 355.136 258.694 350.628 258.361 346.12C257.92 339.986 255.294 334.243 252.726 328.637C238.124 296.826 223.967 264.813 210.253 232.597C203.256 216.153 196.582 199.561 189.604 183.107C187.409 177.923 173.376 154.971 189.928 159.342C197.583 161.377 204.655 165.176 210.576 170.436C210.975 170.899 211.537 171.19 212.144 171.249C212.648 171.171 213.11 170.926 213.458 170.553C218.358 166.281 223.13 161.018 229.569 160.028C237.232 158.842 244.171 164.105 251.011 167.751C270.611 178.168 270.229 160.793 286.958 158.813C293.896 157.99 299.639 163.664 305.734 167.074C315.456 172.513 326.726 172.033 337.261 169.671C344.297 168.103 362.614 156.637 364.338 169.23C364.77 172.396 363.75 175.571 362.712 178.589C345.738 227.883 319.464 273.375 292.769 318.151C288.712 324.962 284.576 331.95 283.145 339.711C282.058 345.591 282.606 351.706 283.302 357.684C286.869 388.061 294.425 417.835 305.774 446.237C307.518 450.618 309.39 455.136 309.184 459.84C308.978 464.544 305.979 469.502 301.344 470.286C294.484 471.453 289.731 463.701 287.105 457.213C288.216 463.997 284.065 470.536 277.453 472.417C270.842 474.299 263.87 470.925 261.242 464.573C257.842 468.914 253.696 473.04 248.385 474.51C243.073 475.98 236.448 473.844 234.479 468.689C233.087 465.073 234.224 461.025 235.361 457.321C245.2 425.295 250.541 392.553 256.96 359.566Z" fill="white"/>
<path d="M260.155 360.448C261.449 354.264 262.488 348.178 261.302 341.887C260.067 335.38 256.961 329.333 254.266 323.345C248.248 309.998 242.287 296.604 236.381 283.165C224.199 255.48 212.576 227.58 201.042 199.61C197.318 190.565 193.427 181.686 189.282 172.827C188.055 170.015 187.04 167.116 186.244 164.154C185.881 162.939 186.871 162.38 185.793 163.017C186.675 162.498 189.488 163.586 190.291 163.821C196.808 165.781 202.277 169.191 207.539 173.405C211.92 176.904 215.017 174.797 218.701 171.494C223.219 167.457 227.835 163.076 234.381 164.379C240.614 165.604 245.838 170.152 251.541 172.729C259.381 176.277 266.535 175.943 273.395 170.671C280.569 165.154 286.772 160.371 295.759 165.771C301.119 169.005 305.931 172.562 312.095 174.179C318.227 175.665 324.585 175.977 330.833 175.101C339.29 174.121 346.258 170.103 354.431 168.241C358.665 167.261 360.38 167.76 359.616 172.651C358.577 179.354 355 186.322 352.501 192.594C347.287 205.706 341.456 218.573 335.272 231.245C322.758 256.872 308.518 281.617 293.936 306.117C285.969 319.513 276.962 332.351 277.394 348.61C277.805 364.094 281.127 380.019 284.538 395.081C288.019 410.585 292.604 425.821 298.258 440.671C300.541 446.619 306.441 455.782 303.775 462.319C300.11 471.315 293.064 460.036 291.349 455.959C289.634 451.882 281.99 451.627 282.597 457.145C283.822 468.297 269.857 472.521 264.957 462.29C263.821 459.938 259.773 459.291 258.097 461.408C255.255 464.975 251.796 469.071 247.17 470.228C241.79 471.57 237.508 468.385 238.419 462.74C239.291 457.311 241.516 451.911 242.976 446.61C244.564 440.847 246.024 435.046 247.415 429.234C252.835 406.557 256.872 383.586 261.4 360.722C262.556 354.842 253.56 352.392 252.443 358.263C246.945 387.408 242.261 416.7 234.323 445.267C231.569 455.263 224.405 470.09 236.283 477.058C246.857 483.271 257.686 475.921 264.34 467.68L257.48 466.798C261.155 474.51 270.298 479.018 278.648 476.696C286.998 474.373 292.476 465.69 291.584 457.233L282.833 458.419C286.753 467.719 295.661 480.429 307.146 472.874C319.837 464.514 311.547 447.923 307.666 437.241C302.187 422.324 297.689 407.066 294.201 391.563C290.908 376.726 286.988 360.37 287.713 345.091C288.085 337.251 291.564 330.333 295.455 323.639C299.346 316.946 303.413 310.203 307.352 303.461C315.192 290.104 322.836 276.658 330.157 263.016C344.68 235.968 358.675 207.735 367.671 178.286C370.611 168.838 367.789 157.941 356.107 158.989C347.101 159.803 339.3 165.271 330.314 166.526C323.003 167.506 315.32 167.182 308.665 163.742C302.991 160.802 298.179 156.089 291.731 154.805C282.127 152.904 275.13 158.842 268.025 164.144C258.96 170.916 249.522 161.106 241.045 157.627C235.361 155.305 229.413 154.844 223.729 157.421C220.987 158.744 218.441 160.439 216.163 162.459C214.897 163.331 213.742 164.355 212.723 165.506L212.155 166.016C211.273 166.506 211.43 166.82 212.606 166.996C213.792 167.633 213.929 167.613 213.017 166.918C212.625 166.575 212.224 166.232 211.802 165.938C206.742 161.819 201.005 158.609 194.848 156.451C190.928 155.069 185.783 153.452 181.804 155.648C175.131 159.323 178.218 168.319 180.481 173.738C184.401 183.215 189.017 192.427 192.967 201.923C199.114 216.682 205.377 231.382 211.753 246.023C218.326 261.207 224.999 276.344 231.775 291.436C238.321 306.019 245.495 320.376 251.747 335.086C255.177 343.131 255.304 350.236 253.795 358.723C253.041 362.8 259.273 364.642 260.155 360.448Z" fill="#382C80"/>
<path d="M661.622 170.72C664.336 169.936 666.639 170.465 669.325 171.014C671.089 171.377 672.382 168.887 670.608 167.956C667.619 166.398 663.925 166.722 660.808 167.819C658.995 168.456 659.721 171.259 661.602 170.759L661.622 170.72Z" fill="#382C80"/>
<path d="M663.455 198.993C665.902 199.555 668.426 198.432 669.648 196.239C670.805 194.122 667.551 192.231 666.424 194.358C665.948 195.295 664.94 195.838 663.896 195.72C662.043 195.543 661.612 198.66 663.455 198.993Z" fill="#382C80"/>
<path d="M685.053 246.298C683.477 247.951 682.191 249.86 681.251 251.942C680.487 253.203 679.99 254.608 679.79 256.068C679.814 257.453 680.069 258.824 680.545 260.125C681.292 262.33 681.549 264.671 681.3 266.985C680.898 269.592 679.075 271.19 677.86 273.385C676.338 276.3 675.1 279.356 674.165 282.509C672.167 289.322 670.831 296.312 670.177 303.383C662.444 370.395 673.479 438.623 695.235 502.519C696.627 506.615 698.175 510.829 701.115 513.945C706.691 519.727 715.658 520.188 723.655 520.041C748.479 519.6 770.832 516.121 794.568 510.133C815.658 504.802 837.12 496.609 848.938 477.019C849.81 475.856 850.262 474.434 850.222 472.981C849.968 471.861 849.447 470.819 848.703 469.943C830.675 444.938 817.239 416.924 809.023 387.212C801.183 358.743 799.37 327.971 784.523 301.815C782.877 298.914 781.194 296.029 779.476 293.161C771.46 279.872 762.493 266.858 751.36 255.921C746.989 251.639 742.079 248.356 737.071 245.014C732.436 241.917 732.573 234.714 730.809 229.843C728.539 223.722 723.776 218.852 717.707 216.447C718.383 222.895 716.491 229.736 711.983 234.391C709.182 237.113 705.845 239.223 702.183 240.584C698.741 241.984 695.161 243.016 691.501 243.661C689.978 243.836 688.485 244.215 687.062 244.788C686.32 245.187 685.643 245.696 685.053 246.298Z" fill="#7F72FF"/>
<path d="M682.642 243.877C679.389 246.817 675.89 251.492 675.665 256.068C675.508 259.214 677.38 262.174 677.105 265.28C676.831 268.387 673.803 271.258 672.519 274.1C667.296 285.537 665.953 298.385 664.679 310.762C662.066 338.517 662.381 366.471 665.62 394.16C668.708 421.454 674.017 448.451 681.496 474.883C683.24 481.089 685.092 487.266 687.052 493.414C689.071 499.775 690.786 506.752 694.089 512.613C699.783 522.726 710.817 525.088 721.617 525.117C747.812 525.186 774.282 520.962 799.556 514.21C819.999 508.742 842.529 499.04 853.368 479.616C855.759 475.353 855.818 471.59 853.133 467.493C849.389 461.77 845.352 456.272 841.794 450.422C834.9 439.115 828.9 427.286 823.851 415.044C814.1 391.308 809.494 366.534 803.77 341.661C800.674 328.206 796.675 314.839 790.227 302.559C783.665 290.072 776.001 278.196 767.324 267.074C762.846 261.112 757.809 255.593 752.281 250.59C749.939 248.561 747.44 246.67 744.912 244.896C742.579 243.24 739.531 241.956 738.169 239.33C735.67 234.489 735.974 228.795 733.093 223.944C730.082 218.901 725.544 214.947 720.137 212.654C717.295 211.439 713.042 212.752 713.277 216.574C713.885 224.806 710.739 231.411 703.281 235.273C696.421 238.801 687.836 238.262 681.849 243.113C677.331 246.797 683.809 253.167 688.258 249.522C690.12 248.003 693.236 248.081 695.48 247.562C697.893 247.003 700.264 246.276 702.576 245.386C706.59 243.951 710.332 241.843 713.64 239.153C720.186 233.587 722.93 224.924 722.303 216.525L715.443 220.445C719.882 222.337 723.636 225.267 725.811 229.696C727.83 233.822 727.86 238.595 729.731 242.789C731.603 246.984 735.121 249.169 738.865 251.756C744.024 255.351 748.758 259.52 752.977 264.183C760.794 272.954 767.757 282.451 773.773 292.544C780.074 302.795 785.709 313.124 789.453 324.639C796.656 346.561 798.841 369.719 805.133 391.837C811.755 414.733 821.475 436.616 834.023 456.88C836.852 461.453 839.831 465.968 842.961 470.424C844.921 473.187 845.401 473.53 843.46 476.451C841.933 478.758 840.205 480.925 838.296 482.928C831.279 490.357 822.234 495.541 812.767 499.216C791.599 507.438 768.02 511.731 745.49 513.867C739.486 514.435 733.462 514.811 727.419 514.994C721.94 515.17 716.1 515.553 710.759 513.945C705.084 512.24 702.478 508.134 700.527 502.773C698.234 496.511 696.264 490.102 694.314 483.722C686.878 459.646 681.218 435.058 677.38 410.154C673.096 382.114 671.649 353.714 673.058 325.384C673.754 311.556 674.45 297.052 678.556 283.753C679.474 280.488 680.79 277.348 682.476 274.404C683.956 271.954 685.347 269.935 685.641 267.015C685.984 263.644 684.544 260.9 684.191 257.666C683.838 254.432 685.484 251.168 687.454 248.708C690.179 245.327 685.974 240.868 682.642 243.877Z" fill="#7F72FF"/>
<path d="M696.285 289.702C656.212 312.487 621.344 324.374 575.186 335.879C568.649 337.506 561.966 339.123 555.243 338.653C549.579 338.261 544.14 336.409 538.769 334.556C494.898 319.373 451.517 302.867 408.625 285.037C387.222 276.119 365.93 266.881 344.749 257.323C328.716 250.071 306.529 236.4 288.075 242.505C283.616 243.975 279.353 247.777 277.942 252.305C277.491 253.775 278.844 268.083 281.323 266.74C273.914 270.758 265.016 271.101 256.666 269.974C248.317 268.847 240.193 266.368 231.863 265.074C228.521 264.545 225.003 264.222 221.818 265.408C204.854 271.738 226.561 290.113 233.754 292.965C226.318 296.129 221.597 303.543 221.875 311.619C222.153 319.695 227.373 326.767 235.008 329.411C227.952 331.793 225.208 341.23 228.148 348.031C231.088 354.833 238.311 359.017 245.573 360.644C239.213 364.054 237.733 373.159 240.849 379.656C248.689 395.836 277.942 399.07 293.465 399.805C304.922 400.344 316.437 399.158 327.765 400.599C340.711 402.255 353.637 405.146 366.446 407.625C392.23 412.623 417.916 418.082 443.709 423.011C494.875 432.811 546.874 440.563 599.118 438.103C636.162 436.359 673.852 429.117 705.457 409.683C737.062 390.25 761.778 357.165 764.11 320.16C766.07 289.614 742.609 280.392 719.481 263.751" fill="white"/>
<path d="M694.52 286.683C667.401 301.837 638.68 313.926 608.888 322.728C601.048 325.06 593.208 327.249 585.368 329.294C576.813 331.528 567.845 334.547 558.908 334.801C550.392 335.046 542.316 331.636 534.408 328.872C525.706 325.821 517.019 322.718 508.35 319.562C474.265 307.149 440.495 293.939 407.037 279.931C389.829 272.745 372.708 265.323 355.676 257.666C342.142 251.59 328.941 244.004 314.741 239.565C301.58 235.449 281.245 234.028 274.561 249.316C272.287 254.49 273.581 273.375 282.479 270.876L279.167 263.036C266.799 269.249 252.834 264.996 240.134 262.223C231.47 260.361 218.779 257.695 212.929 266.691C205.53 278.079 222.209 292.74 231.549 296.738V289.153C222.837 293.249 216.898 302.569 217.505 312.291C218.123 322.199 224.797 330.137 233.832 333.674V325.119C225.46 328.556 220.872 337.611 223.052 346.395C225.336 356.518 234.989 362.594 244.455 364.946L243.387 356.753C235.263 361.732 232.921 372.169 236.527 380.724C239.732 388.3 246.778 393.356 254.089 396.571C271.729 404.352 291.789 404.479 310.723 404.352C324.913 404.254 338.565 406.635 352.442 409.409C366.162 412.143 379.882 414.828 393.553 417.592C421.09 423.168 448.619 428.862 476.353 433.438C529.165 442.17 583.927 447.57 637.073 438.77C682.79 431.214 727.566 410.095 752.713 369.591C759.19 359.25 763.902 347.904 766.658 336.017C769.089 325.237 770.382 313.398 766.932 302.697C760.2 281.793 738.444 271.729 721.637 260.145C717.119 257.038 713.111 264.251 717.384 267.417C730.575 277.168 748.362 285.478 756.055 300.737C764.385 317.299 757.25 340.24 749.528 355.744C729.987 394.944 690.424 417.484 648.95 426.99C600.93 437.986 549.853 434.83 501.421 428.088C450.941 421.081 401.138 409.703 351.148 399.932C337.702 397.306 324.443 395.209 310.713 395.307C299.992 395.385 289.33 395.463 278.697 393.905C270.063 392.651 261.057 390.681 253.462 386.183C246.758 382.204 238.154 370.503 247.876 364.466C251.061 362.506 250.659 357.224 246.807 356.273C241.104 354.872 234.891 352.059 232.362 346.346C230.51 342.161 231.451 335.566 236.194 333.606C240.339 331.93 240.437 326.746 236.194 325.05C222.935 319.896 223.895 302.373 235.978 296.63C238.771 295.317 238.918 290.309 235.978 289.045C231.157 286.997 212.223 272.65 223.787 269.239C228.687 267.789 234.734 269.798 239.585 270.866C244.877 272.023 250.149 273.287 255.529 274.032C265.173 275.364 274.688 274.786 283.499 270.347C287.889 268.132 284.822 261.194 280.186 262.507C281.225 262.213 283.224 264.467 283.714 263.663C283.631 263.513 283.571 263.351 283.538 263.183C283.646 262.487 282.979 261.007 282.842 260.243C282.508 258.297 282.286 256.334 282.176 254.363C282.038 252.55 282.519 251.707 284.381 249.728C286.987 246.954 290.623 245.808 294.298 245.376C308.018 243.632 321.738 250.845 333.704 256.627C363.271 270.954 393.846 283.489 424.305 295.827C455.541 308.475 487.048 320.425 518.826 331.675C533.594 336.908 548.892 344.307 564.886 341.955C579.86 339.77 594.874 334.87 609.349 330.529C640.254 321.311 670.009 308.604 698.039 292.652C701.959 290.427 698.44 284.41 694.51 286.615L694.52 286.683Z" fill="#382C80"/>
<path d="M687.994 283.714C652.283 300.622 615.961 316.146 579.028 330.284C573.344 332.469 567.473 334.645 561.388 334.576C555.968 334.527 550.745 332.694 545.639 330.891L498.138 314.123C470.022 304.196 441.69 294.171 416.014 279C403.676 271.709 377.696 251.746 362.771 259.4C360.639 260.58 358.691 262.066 356.989 263.81C348.11 272.356 343.191 281.901 338.536 292.985C326.06 322.738 315.016 354.049 315.016 386.702C315.016 392.425 315.427 398.374 318.152 403.362C320.876 408.35 326.501 412.27 332.146 411.281C335.145 410.761 337.752 408.987 340.496 407.664C349.874 403.137 357.097 405.783 366.426 407.586C392.21 412.584 417.896 418.043 443.69 422.972C494.855 432.772 546.854 440.524 599.098 438.064C636.142 436.32 673.833 429.077 705.438 409.644C737.043 390.211 769.853 362.428 770.549 321.013C771.059 290.417 751.39 263.065 728.262 246.415" fill="#7F72FF"/>
<path d="M686.2 280.696C666.907 289.699 647.425 298.336 627.753 306.607C618.214 310.592 608.639 314.512 599.029 318.367C589.288 322.238 579.429 326.795 569.315 329.529C558.457 332.469 548.559 327.775 538.465 324.198L508.34 313.496C489.043 306.636 469.62 300.011 450.823 291.868C435.435 285.083 420.595 277.114 406.439 268.034C395.767 261.301 382.645 252.854 369.464 253.481C353.96 254.226 343.621 271.738 337.741 284.224C329.368 301.945 322.566 320.368 317.416 339.28C312.653 356.92 308.488 377.324 311.222 395.659C312.408 403.617 316.416 411.29 324.168 414.524C333.429 418.395 339.182 411.447 347.816 409.928C352.265 409.144 356.685 410.095 361.046 411.016C366.21 412.104 371.404 413.084 376.588 414.113C386.944 416.184 397.302 418.275 407.664 420.385C428.626 424.638 449.598 428.823 470.688 432.419C512.122 439.495 554.174 444.395 596.275 442.729C633.701 441.239 672.137 434.507 704.879 415.426C731.554 399.873 758.132 378.754 769.794 349.256C782.534 317.181 771.754 282.773 748.714 258.42C743.168 252.601 737.037 247.37 730.417 242.809C725.909 239.653 721.97 246.866 726.174 250.071C751.507 269.337 770.901 300.227 764.629 333.077C758.916 362.986 735.082 384.752 710.729 400.804C680.516 420.728 646.049 429.959 610.25 432.782C570.785 435.888 530.997 432.615 491.934 426.735C452.127 420.738 412.799 412.084 373.354 404.342C365.181 402.735 356.469 399.922 348.07 400.883C344.181 401.404 340.417 402.619 336.957 404.47C332.684 406.606 329.117 408.184 324.962 404.715C318.102 398.933 319.307 387.378 319.67 379.411C320.156 369.917 321.448 360.482 323.531 351.207C327.598 332.714 334.135 314.868 341.348 297.385C344.542 289.623 347.972 281.891 352.872 275.021C356.792 269.553 362.261 262.389 369.532 261.899C381.949 261.056 394.885 270.504 404.812 276.815C418.412 285.466 432.7 292.985 447.531 299.296C464.671 306.626 482.281 312.781 499.863 318.955L528.194 328.902C537.485 332.165 547.04 336.575 556.82 338.065C565.973 339.456 574.372 336.252 582.771 332.998C591.839 329.49 600.871 325.896 609.868 322.218C627.828 314.881 645.654 307.175 663.346 299.1C672.186 295.069 681.006 290.956 689.806 286.762C693.873 284.802 690.326 278.834 686.278 280.725L686.2 280.696Z" fill="#7F72FF"/>
<path d="M686.2 280.696C649.391 297.689 611.936 314.614 573.598 327.883C568.62 329.608 563.622 330.872 558.33 330.137C553.038 329.402 548.04 327.295 543.061 325.531L513.857 315.133C495.492 308.596 477.019 302.275 458.977 294.916C442.709 288.291 426.804 280.686 412.006 271.19C401.02 264.134 389.162 255.98 376.02 253.677C360.84 251.08 350.658 261.801 343.043 273.816C338.496 280.99 335.272 288.898 332.058 296.729C328.392 305.617 324.913 314.594 321.856 323.708C314.996 344.2 310.096 365.76 310.292 387.467C310.36 396.287 311.87 405.734 319.033 411.653C326.873 418.151 334.606 415.838 342.661 411.31C347.463 408.615 343.249 401.843 338.408 404.048C334.998 405.597 331.499 407.88 327.697 406.263C323.649 404.538 321.601 400.383 320.66 396.316C318.769 388.104 319.788 378.764 320.66 370.474C322.522 352.383 327.599 334.704 333.743 317.642C339.339 302.099 344.945 284.596 355.744 271.768C360.007 266.721 364.564 261.899 371.581 262.233C377.539 262.517 383.429 265.173 388.672 267.789C400.05 273.552 410.32 281.215 421.541 287.281C436.82 295.553 452.901 302.246 469.169 308.332C486.564 314.849 504.155 320.817 521.678 326.952C538.504 332.832 556.105 342.357 574.108 336.468C593.659 330.078 612.739 321.366 631.634 313.271C651.234 304.895 670.615 296.049 689.777 286.733C693.844 284.773 690.297 278.834 686.249 280.696H686.2Z" fill="#382C80"/>
<path d="M709.515 402.255C695.064 411.814 679.849 420.163 664.023 427.216C659.652 429.176 663.435 435.653 667.796 433.674C683.561 426.452 698.586 417.715 712.66 407.586C715.845 405.313 712.896 400.021 709.544 402.255H709.515Z" fill="#382C80"/>
<path d="M679.086 264.359C680.066 258.136 680.723 250.404 685.123 245.504C690.023 240.094 698.176 241.202 704.537 239.046C715.317 235.371 723.245 223.817 719.952 212.331C718.492 207.245 710.779 209.391 712.024 214.516C713.582 220.935 709.868 227.482 704.184 230.481C698.774 233.313 692.277 232.823 686.701 235.263C675.421 240.163 673.177 252.579 673.598 263.604C673.716 266.613 678.616 267.632 679.125 264.359H679.086Z" fill="#382C80"/>
<path d="M681.143 267.103C693.344 266.652 705.143 262.566 713.905 253.775C715.649 252.011 713.081 249.61 711.239 251.11C702.527 258.156 692.443 263.262 681.143 264.32C679.389 264.487 679.32 267.172 681.143 267.103Z" fill="#382C80"/>
<path d="M720.559 249.12C721.537 249.049 722.295 248.234 722.295 247.253C722.295 246.272 721.537 245.457 720.559 245.386C719.58 245.457 718.822 246.272 718.822 247.253C718.822 248.234 719.58 249.049 720.559 249.12Z" fill="#382C80"/>
<path d="M642.923 229.52C640.117 234.595 638.953 240.416 639.591 246.18C639.876 248.797 644.001 248.846 643.727 246.18C643.153 241.137 644.037 236.036 646.275 231.48C647.382 229.265 644.119 227.305 642.923 229.52Z" fill="#382C80"/>
<path d="M718.785 460.614C726.077 473.128 742.07 479.587 755.359 472.374C757.162 471.394 755.947 468.336 753.948 469.012C741.59 473.207 728.654 470.757 721.608 458.987C721.128 458.266 720.169 458.043 719.421 458.48C718.672 458.917 718.394 459.861 718.785 460.633V460.614Z" fill="#382C80"/>
<path d="M350.922 395.699C350.579 377.686 352.441 360.487 358.645 343.465C359.458 341.24 355.95 340.319 355.117 342.485C348.737 359.145 345.317 377.814 347.277 395.689C347.532 397.943 350.932 398.07 350.883 395.689L350.922 395.699Z" fill="#382C80"/>
<path d="M362.183 329.186C363.179 329.186 363.986 328.379 363.986 327.383C363.986 326.387 363.179 325.58 362.183 325.58C361.187 325.58 360.38 326.387 360.38 327.383C360.38 328.379 361.187 329.186 362.183 329.186Z" fill="#382C80"/>
<path d="M590.004 323.718C596.011 310.083 603.182 296.991 611.436 284.586C612.72 282.626 609.594 280.843 608.339 282.773C600.177 295.407 593.156 308.742 587.358 322.62C586.721 324.11 589.318 325.237 590.004 323.737V323.718Z" fill="#382C80"/>
<path d="M213.84 193.613C225.472 218.446 228.334 246.641 242.26 270.484C243.583 272.748 247.111 270.7 245.778 268.426C231.882 244.641 228.452 216.702 216.378 192.104C215.525 190.359 212.977 191.888 213.791 193.613H213.84Z" fill="#382C80"/>
<path d="M260.88 217.525L263.595 248.767C263.81 251.188 267.622 251.207 267.397 248.767L264.575 217.525C264.359 215.183 260.655 215.153 260.88 217.525Z" fill="#382C80"/>
<path d="M309.626 246.729C317.926 227.903 326.452 209.156 334.312 190.134C335.047 188.35 331.98 187.037 331.156 188.811C322.591 207.353 314.673 226.198 306.549 244.936C305.647 247.013 308.695 248.856 309.626 246.729Z" fill="#382C80"/>
<path d="M337.32 183.46C339.878 183.46 339.878 179.491 337.32 179.491C334.762 179.491 334.772 183.46 337.32 183.46Z" fill="#382C80"/>
<path d="M257.343 411.389C257.5 421.532 256.265 431.312 254.883 441.328C254.599 443.288 257.47 444.268 258.019 442.19C260.626 432.204 261.067 421.659 260.577 411.389C260.479 409.321 257.313 409.301 257.343 411.389Z" fill="#382C80"/>
<path d="M276.502 415.553L278.325 422.913C278.903 425.226 282.48 424.246 281.902 421.933L280.059 414.583C279.481 412.28 275.924 413.26 276.502 415.563V415.553Z" fill="#382C80"/>
<path d="M219.994 123.68C212.902 123.388 206.419 119.59 202.697 113.547C198.888 107.286 198.165 99.6232 200.737 92.761C204.167 83.941 212.566 78.5118 221.101 75.6208C226.335 73.8568 231.881 72.8278 237.369 73.7882C243.03 74.6677 248.009 78.0131 250.962 82.9218C252.487 85.8856 253.438 89.1109 253.765 92.4278C254.372 97.0044 254.402 101.806 252.716 106.05C250.207 112.361 244.396 116.33 238.908 119.927" fill="#7F72FF"/>
<path d="M219.994 121.936C207.695 121.073 199.493 109.411 201.463 97.4943C203.325 86.1949 214.007 79.4819 224.316 76.7869C236.801 73.5333 249.061 77.5709 251.374 91.3987C252.354 97.2787 252.256 103.668 248.748 108.686C245.896 112.753 241.545 115.673 237.683 118.702C236.047 119.985 238.134 122.426 239.839 121.495C245.514 118.398 251.139 114.488 254.128 108.539C257.381 102.061 256.98 93.7507 254.99 86.9789C250.776 72.5141 235.39 69.1037 222.356 73.1903C210.381 76.9437 198.748 85.3815 197.464 98.7879C196.151 112.508 206.088 124.846 220.004 125.513C222.297 125.62 222.268 122.122 220.004 121.965L219.994 121.936Z" fill="#382C80"/>
<path d="M251.492 121.936C239.732 133.029 216.8 140.693 204.099 126.071C201.473 123.043 199.542 118.927 200.238 114.909C200.935 111.094 203.913 108.105 207.725 107.392C211.536 106.929 215.277 108.684 217.358 111.91C216.222 108.47 217.496 104.58 219.701 101.826C222.249 98.6311 226.257 96.5731 230.177 97.2199C234.362 97.9759 237.412 101.611 237.429 105.864C239.663 103.237 241.996 100.611 244.945 99.0035C247.895 97.3963 251.619 96.8573 254.579 98.5527C258.499 100.777 259.9 106.246 258.842 110.744C257.783 115.242 254.755 118.868 251.492 121.936Z" fill="white"/>
<path d="M250.158 120.603C242.318 127.688 231.391 132.745 220.641 131.902C214.856 131.553 209.455 128.89 205.656 124.513C203.108 121.485 201.207 117.173 203.099 113.361C205.754 107.99 212.222 108.617 215.535 112.978C216.926 114.811 219.935 113.821 219.386 111.352C217.034 100.826 234.723 93.9174 235.252 105.864C235.331 107.628 237.653 108.902 238.966 107.412C242.759 103.09 251.344 95.015 255.842 103.198C259.292 109.45 254.117 116.144 249.854 120.299C247.718 122.386 250.981 125.65 253.128 123.572C259.439 117.467 265.064 107.579 258.841 99.3368C251.903 90.1444 241.26 97.9256 235.889 104.325L239.604 105.864C239.143 98.837 233.057 93.643 225.952 95.2796C218.322 97.1628 213.597 104.801 215.319 112.469L218.847 110.421C213.947 104.119 204.5 103.218 199.806 110.293C194.661 118.055 200.786 127.433 207.401 131.912C221.709 141.614 241.338 133.872 252.824 123.268C254.607 121.622 251.951 118.986 250.158 120.603Z" fill="#382C80"/>
<path d="M204.922 93.3002C207.42 97.0306 209.6 100.964 211.439 105.06C212.419 107.275 215.819 105.354 214.741 103.1C212.763 99.0583 210.469 95.1786 207.881 91.497C206.627 89.7134 203.677 91.3696 204.941 93.2218L204.922 93.3002Z" fill="#382C80"/>
<path d="M215.8 81.9222C218.228 86.3778 219.885 91.2121 220.7 96.2204C221.17 98.8664 225.09 97.71 224.698 95.113C223.791 89.7789 221.789 84.6905 218.818 80.168C218.505 79.6288 217.928 79.2978 217.304 79.2996C216.68 79.3014 216.105 79.6357 215.795 80.1767C215.485 80.7176 215.486 81.383 215.8 81.9222Z" fill="#382C80"/>
<path d="M231.284 79.58C231.995 84.5513 232.297 89.5728 232.185 94.5936C232.126 97.024 235.948 97.0338 235.968 94.5936C236.014 89.2708 235.355 83.9654 234.008 78.8156C233.528 76.983 230.99 77.8356 231.244 79.58H231.284Z" fill="#382C80"/>
<path d="M240.897 103.247C241.339 97.2949 243.753 91.6598 247.757 87.234C249.404 85.274 246.777 82.5496 244.945 84.4214C240.199 89.5321 237.602 96.2734 237.693 103.247C237.693 105.315 240.75 105.276 240.888 103.247H240.897Z" fill="#382C80"/>
<path d="M232.636 134.823C233.667 143.139 233.644 151.551 232.567 159.862C232.293 162.214 235.958 162.174 236.242 159.862C237.305 151.245 237.179 142.523 235.87 133.941C235.556 131.804 232.352 132.725 232.636 134.823Z" fill="#382C80"/>
<path d="M291.26 120.387C284.499 118.183 279.281 112.755 277.344 105.913C275.409 98.8465 276.821 91.2831 281.176 85.3914C286.87 77.8846 296.454 74.9152 305.451 74.4742C310.968 74.2096 316.623 74.7584 321.601 77.1594C326.807 79.5522 330.681 84.1335 332.175 89.6642C332.835 92.9308 332.869 96.2931 332.273 99.572C331.607 104.149 330.313 108.774 327.54 112.39C323.394 117.771 316.76 120.005 310.458 121.965" fill="#7F72FF"/>
<path d="M291.692 118.682C280.226 114.576 275.384 101.169 280.431 90.2619C285.243 79.8837 297.307 76.2381 307.94 76.4145C320.317 76.6301 331.627 83.3333 330.313 97.0631C329.774 102.737 328.265 108.823 324.012 112.88C320.17 116.546 314.8 118.27 309.988 120.23C309.041 120.501 308.493 121.488 308.763 122.435C309.034 123.382 310.021 123.931 310.968 123.66C317.279 122.23 323.767 120.005 328.255 115.085C332.744 110.166 334.557 102.875 334.91 96.2301C335.733 80.6775 322.268 72.1809 307.969 72.3867C294.926 72.5827 280.863 77.6983 276.129 90.9577C271.572 103.698 277.864 117.771 290.829 122.083C293.005 122.808 293.897 119.427 291.809 118.662L291.692 118.682Z" fill="#382C80"/>
<path d="M321.992 127.306C307.616 134.744 283.498 135.852 275.276 118.31C273.58 114.684 272.845 110.195 274.619 106.55C276.332 103.067 280.015 101.002 283.88 101.356C287.671 101.955 290.786 104.669 291.897 108.343C291.759 104.717 294.043 101.326 296.914 99.2781C300.246 96.9065 304.656 96.0147 308.253 97.7199C312.065 99.5889 314.005 103.909 312.869 108C315.73 106.04 318.69 104.188 321.983 103.423C325.275 102.659 328.99 103.178 331.371 105.619C334.487 108.823 334.389 114.439 332.135 118.506C329.881 122.573 325.971 125.248 321.992 127.306Z" fill="white"/>
<path d="M321.042 125.64C311.762 130.226 300.149 132.069 290.192 128.58C284.87 126.859 280.412 123.162 277.736 118.251C275.776 114.595 274.6 109.362 277.579 105.873C281.499 101.277 287.86 103.658 289.869 108.813C290.177 109.798 291.15 110.417 292.172 110.278C293.194 110.14 293.968 109.286 294.004 108.255C294.21 104.001 297.571 100.483 301.599 99.3268C306.862 97.8176 312.115 101.669 310.762 107.353C310.351 109.107 312.301 110.881 313.967 109.813C318.867 106.638 331.019 101.14 331.45 111.685C331.724 118.27 325.991 122.465 320.827 125.238C318.2 126.659 320.533 130.638 323.159 129.236C330.999 125.052 339.251 116.79 335.096 107.118C330.656 96.7788 318.573 101.444 311.762 106.05L314.966 108.509C316.495 101.346 311.566 94.4856 303.961 94.5738C296.366 94.7134 290.175 100.708 289.79 108.294L293.936 107.735C290.839 100.023 281.617 95.9752 274.973 102.404C268.328 108.833 272.15 119.789 277.697 125.777C289.045 138.027 309.38 135.773 322.944 128.903C325.109 127.835 323.208 124.601 321.042 125.64Z" fill="#382C80"/>
<path d="M285.047 87.0378C286.423 91.3197 287.439 95.709 288.085 100.16C288.428 102.561 292.201 101.581 291.77 99.18C290.965 94.7448 289.812 90.3801 288.32 86.1264C287.595 84.0684 284.331 84.921 285.008 87.0378H285.047Z" fill="#382C80"/>
<path d="M298.6 79.0703C299.69 84.0175 299.942 89.1123 299.345 94.1427C299.081 96.8181 303.167 96.7299 303.491 94.1427C304.081 88.7618 303.554 83.3168 301.942 78.1491C301.659 77.2621 300.726 76.7567 299.829 77.0042C298.931 77.2516 298.389 78.1636 298.6 79.0703Z" fill="#382C80"/>
<path d="M314.202 80.6481C313.507 85.7561 312.389 90.7976 310.86 95.7205C310.144 98.0529 313.8 99.0721 314.515 96.7005C316.026 91.6059 316.853 86.3331 316.975 81.0205C316.975 79.4525 314.378 79.0605 314.162 80.6383L314.202 80.6481Z" fill="#382C80"/>
<path d="M316.917 106.412C318.966 100.793 322.85 96.0284 327.942 92.8884C330.068 91.487 328.177 88.155 325.933 89.4486C319.97 93.0558 315.639 98.8345 313.849 105.57C313.281 107.53 316.25 108.333 316.917 106.412Z" fill="#382C80"/>
<path d="M300.394 134.117C299.022 143.917 296.474 153.433 297.209 163.419C297.385 165.761 301.04 165.791 300.884 163.419C300.247 153.619 302.432 144.182 303.686 134.558C303.922 132.706 300.658 132.245 300.394 134.117Z" fill="#382C80"/>
<path d="M263.154 169.74C262.683 157.876 263.234 145.994 264.8 134.225C265.153 131.696 261.282 130.609 260.929 133.157C259.181 145.268 258.711 157.53 259.528 169.74C259.694 172.043 263.232 172.092 263.154 169.74Z" fill="#382C80"/>
<path d="M331.694 168.554C333.108 157.164 336.73 146.159 342.357 136.155C342.761 135.313 342.451 134.302 341.645 133.83C340.838 133.359 339.805 133.586 339.27 134.352C333.121 144.784 329.434 156.482 328.49 168.554C328.313 170.642 331.43 170.563 331.714 168.554H331.694Z" fill="#382C80"/>
<path d="M331.176 156.265C331.509 152.881 330.6 149.492 328.618 146.73C327.177 144.77 324.698 142.525 322.218 144.417C319.739 146.308 321.14 149.66 322.434 151.845C324.455 155.328 326.989 158.486 329.951 161.214C331.911 162.958 334.684 160.234 332.822 158.343C330.014 155.704 327.503 152.766 325.335 149.581C325.198 149.366 324.061 147.621 324.953 147.553C325.433 147.504 326.687 149.738 326.913 150.081C327.907 151.982 328.329 154.13 328.128 156.265C328.01 158.225 331.068 158.225 331.205 156.265H331.176Z" fill="#382C80"/>
<path d="M302.51 150.718C303.449 149.164 304.593 147.743 305.911 146.494C306.579 145.814 307.389 145.289 308.282 144.956C309.762 144.613 308.616 145.573 308.047 146.122C305.342 148.729 301.53 150.179 299.021 152.894C298.411 153.524 298.293 154.482 298.733 155.241C299.173 155.999 300.063 156.374 300.913 156.157C304.215 155.324 307.293 152.365 309.792 150.15C311.81 148.347 314.505 145.465 312.447 142.663C308.371 137.086 300.883 145.603 299.57 149.474C298.953 151.287 301.53 152.149 302.51 150.718Z" fill="#382C80"/>
<path d="M261.565 152.678C260.512 149.525 258.568 146.745 255.97 144.671C253.941 143.074 250.344 141.026 248.394 143.907C246.66 146.484 249.08 149.787 250.648 151.796C252.829 154.567 255.669 156.747 258.91 158.137C259.609 158.513 260.461 158.46 261.109 158.001C261.756 157.541 262.086 156.753 261.961 155.969C261.835 155.185 261.275 154.54 260.517 154.305C258.687 153.57 256.999 152.522 255.529 151.208C254.823 150.591 254.168 149.92 253.569 149.199C252.961 148.464 252.589 147.396 251.922 146.72C251.922 146.122 251.687 145.975 251.266 146.269C251.707 146.396 252.124 146.595 252.5 146.857C253.356 147.362 254.146 147.971 254.852 148.67C256.283 150.053 257.405 151.723 258.145 153.57C258.949 155.628 262.291 154.795 261.526 152.639L261.565 152.678Z" fill="#382C80"/>
<path d="M204.804 145.387C206.823 153.227 208.95 161.015 211.184 168.75C211.581 169.63 212.56 170.09 213.491 169.833C214.422 169.577 215.028 168.68 214.918 167.721C212.814 159.933 210.599 152.172 208.273 144.436C207.982 143.505 207.002 142.975 206.062 143.24C205.123 143.505 204.565 144.47 204.804 145.416V145.387Z" fill="#382C80"/>
<path d="M252.364 475.265C250.992 480.233 250.855 485.682 250.228 490.808C249.483 496.923 248.679 503.028 247.768 509.124C246.161 519.904 243.525 530.733 242.309 541.581C242.045 543.953 245.779 544.325 246.386 542.14C249.395 531.262 250.522 519.512 252.051 508.35C252.717 503.45 253.344 498.55 253.903 493.65C254.579 487.77 255.765 481.537 255.275 475.667C255.304 474.899 254.745 474.234 253.983 474.133C253.221 474.031 252.507 474.526 252.335 475.275L252.364 475.265Z" fill="#382C80"/>
<path d="M266.446 475.627C266.152 501.637 266.23 527.656 266.034 553.675C266.034 556.193 269.954 556.193 269.954 553.675C269.758 527.656 269.837 501.637 269.552 475.627C269.488 474.817 268.812 474.193 267.999 474.193C267.186 474.193 266.51 474.817 266.446 475.627Z" fill="#382C80"/>
<path d="M277.353 473.893C280.058 486.78 283.057 499.598 285.997 512.426C288.937 525.254 290.956 538.494 295.13 550.832C295.748 552.655 298.992 552.508 298.717 550.352C297.071 537.553 293.161 524.872 290.25 512.26C287.192 499.128 284.213 485.976 280.911 472.913C280.332 470.59 276.873 471.58 277.353 473.893Z" fill="#382C80"/>
<path d="M292.995 477.225C294.681 488.972 298.106 500.403 303.157 511.143C304.079 513.103 307.469 511.682 306.627 509.682C301.995 498.962 298.579 487.756 296.444 476.274C296.043 473.991 292.662 474.981 292.995 477.254V477.225Z" fill="#382C80"/>
<path d="M296.944 489.044C301.442 493.607 307.359 496.503 313.722 497.256C315.927 497.53 315.917 494.051 313.722 493.797C308.219 493.15 303.081 490.712 299.1 486.858C298.487 486.318 297.56 486.347 296.982 486.925C296.404 487.503 296.375 488.43 296.915 489.044H296.944Z" fill="#382C80"/>
<path d="M253.04 489.465C248.043 491.42 244.255 495.607 242.809 500.774C242.142 503.156 245.837 504.165 246.513 501.754C247.656 497.7 250.554 494.371 254.412 492.679C256.225 491.866 254.912 488.661 253.04 489.426V489.465Z" fill="#382C80"/>
<path d="M243.24 54.1687C248.709 52.595 254.597 54.2795 258.406 58.5078C262.215 62.7361 263.278 68.7672 261.144 74.0431C260.164 76.5421 264.202 77.6201 265.133 75.1505C267.655 68.5096 266.178 61.0125 261.327 55.8237C256.475 50.6349 249.094 48.6586 242.299 50.7289C241.349 50.9995 240.798 51.9889 241.069 52.9388C241.34 53.8886 242.329 54.4393 243.279 54.1687H243.24Z" fill="#382C80"/>
<path d="M180.128 83.6077C184.606 89.7033 187.096 96.2595 188.948 103.551C189.506 105.775 192.662 104.795 192.319 102.62C191.123 95.1129 187.419 87.9981 182.872 82.0397C181.666 80.4717 178.952 81.9809 180.157 83.6273L180.128 83.6077Z" fill="#382C80"/>
<path d="M166.055 91.8984C169.798 94.0348 172.278 97.455 174.081 101.306C174.865 102.972 177.648 101.796 177.021 100.052C175.332 95.3846 171.934 91.532 167.515 89.272C167.055 89.0042 166.486 89.0023 166.024 89.2671C165.562 89.5319 165.276 90.0232 165.274 90.5558C165.273 91.0885 165.555 91.5816 166.016 91.8494L166.055 91.8984Z" fill="#382C80"/>
<path d="M193.368 81.2853C194.916 85.034 195.505 89.1095 195.083 93.1433C194.897 95.2405 198.493 95.7599 198.807 93.6431C199.57 88.8234 198.572 83.8901 195.994 79.7467C194.936 78.0317 192.623 79.5311 193.368 81.2853Z" fill="#382C80"/>
<path d="M357.969 88.6253C363.408 92.5453 366.357 98.9741 367.612 105.442C368.827 111.694 369.68 120.142 365.652 125.493C364.397 127.169 367.151 129.256 368.592 127.727C373.854 121.955 372.6 112.449 371.228 105.364C369.709 97.5236 365.965 90.8989 359.419 86.2145C357.949 85.1561 356.567 87.5767 358.008 88.6253H357.969Z" fill="#382C80"/>
<path d="M327.686 69.6034C330.135 67.2471 333.991 67.1914 336.506 69.476C337.234 70.1878 338.401 70.1746 339.113 69.4466C339.825 68.7187 339.812 67.5516 339.084 66.8398C337.235 65.0264 334.729 64.0435 332.14 64.1174C329.552 64.1914 327.105 65.3158 325.364 67.2318C323.962 68.7998 326.177 71.0636 327.706 69.5642L327.686 69.6034Z" fill="#382C80"/>
<path d="M379.764 115.085C381.635 115.406 383.117 116.842 383.498 118.702C383.978 120.583 387.222 120.25 386.987 118.231C386.559 114.524 383.493 111.682 379.764 111.538C378.784 111.538 377.99 112.332 377.99 113.312C377.99 114.291 378.784 115.085 379.764 115.085Z" fill="#382C80"/>
<path d="M273.973 66.7615C277.274 65.8999 280.779 66.331 283.773 67.9669C285.791 69.0547 287.585 66.0069 285.576 64.8799C281.754 62.7083 277.221 62.161 272.993 63.3609C270.807 63.9587 271.728 67.2809 273.973 66.7615Z" fill="#382C80"/>
<path d="M187.037 67.673C187.194 66.4676 188.782 66.0854 189.752 66.154C191.226 66.3716 192.636 66.903 193.887 67.7122C196.004 68.8392 197.886 65.6248 195.769 64.4978C193.29 63.1846 190.516 61.8616 187.664 62.724C185.389 63.338 183.75 65.3227 183.578 67.673C183.392 69.927 186.773 69.8388 187.037 67.673Z" fill="#382C80"/>
<path d="M795.617 182.108C792.84 174.696 791.083 166.942 790.393 159.058C790.119 155.54 790.05 152.01 790.187 148.484C790.256 146.749 790.256 137.782 791.393 137.155L788.169 137.577C789.531 137.861 791.716 146.191 792.196 147.749C793.325 151.576 794.173 155.48 794.735 159.431C795.538 164.889 803.408 163.027 803.8 158.206C804.405 152.569 808.006 147.697 813.217 145.466C815.266 144.584 820.401 143.123 822.037 145.466C823.674 147.808 820.646 152.698 819.666 154.658C813.884 166.153 803.986 174.336 794.274 182.353C790.54 185.43 795.489 191.927 799.497 189.115C807.891 183.358 815.342 176.337 821.587 168.3C826.555 161.714 833.523 151.277 830.505 142.604C827.378 133.608 815.648 133.97 808.504 137.4C800.435 141.323 795.109 149.29 794.568 158.245L803.633 157.02C802.192 149.111 799.713 140.36 795.479 133.5C792.294 128.296 785.483 128.08 783.719 134.597C781.642 142.143 782.102 151.414 782.896 159.097C783.772 167.63 785.803 176.004 788.933 183.989C790.54 188.096 797.194 186.39 795.646 182.147L795.617 182.108Z" fill="#7F72FF"/>
<path d="M764.237 100.278C761.85 94.5825 760.375 88.5468 759.866 82.3926C759.787 81.2068 759.748 80.021 759.738 78.845C759.738 77.9532 759.738 77.0614 759.797 76.1794C760.013 75.0622 759.797 74.9936 759.297 75.9638C758.435 76.6106 758.592 77.2476 759.787 77.9238L760.532 79.3252C761.068 80.7024 761.231 82.1967 761.003 83.6568C760.287 88.3608 766.157 91.438 768.96 87.0182C770.195 85.0582 773.096 80.9814 775.771 81.1382L772.635 79.8446C772.459 79.6976 771.734 82.7846 771.361 83.8234C770.695 85.5827 769.872 87.2784 768.901 88.89C766.801 92.1608 764.262 95.1283 761.355 97.71C757.984 100.954 762.502 107.187 766.481 104.345C770.781 101.247 774.347 97.2425 776.928 92.614C779.211 88.596 781.916 82.9806 781.406 78.2374C780.897 73.4942 776.594 71.1226 772.184 72.7788C767.598 74.5036 763.952 78.5216 761.404 82.5788L769.519 84.7838C770.157 80.0705 768.72 75.3119 765.579 71.74C762.639 68.5648 757.406 66.399 753.819 69.8388C750.232 73.2786 751.653 80.315 752.261 84.7152C753.171 91.0606 755.086 97.2204 757.935 102.963C759.591 106.412 765.677 103.943 764.197 100.317L764.237 100.278Z" fill="#7F72FF"/>
<path d="M722.362 559.584C722.091 582.678 723.955 605.747 727.928 628.498C729.888 639.944 732.341 651.289 735.288 662.533C737.944 672.617 742.148 684.015 738.904 694.442C736.787 701.243 726.919 708.299 732.563 715.865C734.22 718.089 736.719 719.344 738.943 720.892C741.726 722.852 741.883 724.293 740.648 727.37C739.926 728.844 739.386 730.4 739.041 732.005C737.855 739.728 743.696 746.019 744.078 753.457C744.186 755.525 742.991 756.652 742.638 758.495C742.285 760.337 743.02 761.974 743.49 763.738C745.104 769.833 746.639 775.945 748.096 782.073C754.299 808.233 759.043 834.718 762.306 861.404C762.679 864.462 767.52 864.521 767.206 861.404C764.484 838.024 760.559 814.8 755.446 791.824C754.225 786.291 752.918 780.767 751.526 775.253C750.292 770.304 747.214 763.669 748.018 758.779C748.488 755.839 749.165 753.712 748.537 750.655C747.734 746.735 745.842 743.099 744.617 739.277C743.216 734.788 743.814 732.123 745.597 727.879C746.793 724.939 746.734 722.244 744.617 719.765C742.501 717.286 738.914 716.345 736.777 713.885C732.857 709.299 739.404 703.752 741.462 699.685C745.46 691.845 744.568 682.711 742.755 674.381C740.335 663.278 736.924 652.41 734.563 641.287C728.849 614.366 726.242 587.093 725.743 559.613C725.675 558.724 724.934 558.037 724.042 558.037C723.151 558.037 722.41 558.724 722.342 559.613L722.362 559.584Z" fill="#7F72FF"/>
<path d="M630.075 544.1C621.255 580.027 624.195 616.826 626.734 653.321C627.361 662.504 627.939 671.686 628.233 680.879C628.507 689.277 629.762 699.234 626.704 707.221C624.048 714.179 618.541 718.716 619.58 726.733C620.207 731.525 627.302 747.156 618.1 748.205C616.473 748.401 614.925 750.165 616.042 751.791C625.019 764.982 621.853 781.348 619.658 796.097C617.6 809.974 615.738 824.517 622.196 837.541C623.509 840.197 627.322 837.875 626.116 835.238C613.758 807.798 637.945 775.458 620.138 749.39L618.08 752.977C623.598 752.33 626.596 748.077 627.292 742.756C628.498 733.583 621.05 726.458 626.106 717.403C628.008 714.003 630.281 710.974 631.447 707.192C632.467 703.381 632.939 699.444 632.849 695.5C632.966 685.877 632.408 676.224 631.781 666.62C629.164 626.077 623.411 584.995 632.986 544.904C633.447 543.002 630.526 542.189 630.046 544.1H630.075Z" fill="#7F72FF"/>
<path d="M704.987 546.825C709.887 557.752 722.146 564.269 733.887 561.574C736.572 560.956 735.406 557.046 732.77 557.497C722.666 559.388 712.547 554.277 708.074 545.021C707.094 542.924 704.065 544.757 704.987 546.825Z" fill="#382C80"/>
</svg>
