<svg width="1000" height="1000" viewBox="0 0 1000 1000" fill="none" xmlns="http://www.w3.org/2000/svg">
<path d="M739.629 297.199C740.109 335.683 732.985 374.619 716.932 409.732C705.035 435.732 682.632 475.627 649.469 474.932C631.986 474.569 615.924 465.592 601.351 455.92C550.577 422.227 508.8 376.442 478.263 323.816C463.436 298.267 451.98 270.994 442.18 243.181C437.544 230.01 410.555 172.317 420.022 161.136C423.393 157.147 428.989 156.01 434.144 155.128L619.805 123.151C640.159 119.642 655.545 109.039 674.077 103.688C690.953 98.7881 692.021 107.343 698.361 122.494C707.74 144.887 719.598 169.534 724.292 193.495C730.966 227.795 739.188 261.86 739.629 297.199Z" fill="var(--color-illustration-secondary, #7F72FF)"/>
<path d="M736.582 297.199C736.69 337.124 728.948 377.039 711.553 413.103C705.428 425.785 698.411 438.329 689.307 449.128C680.594 459.467 668.844 469.708 654.801 471.1C636.788 472.893 618.952 462.28 604.586 452.813C589.199 442.611 574.602 431.267 560.917 418.876C518.917 380.882 485.421 334.441 462.623 282.597C455.998 267.622 450.794 252.158 444.669 236.997C440.504 226.678 436.133 216.417 432.243 206.029C428.352 195.641 424.06 184.518 422.658 173.288C422.363 171.178 422.287 169.043 422.433 166.918C422.5 165.843 422.819 164.799 423.364 163.87C422.384 165.075 424.422 162.89 424.462 162.89C425.012 162.481 425.6 162.123 426.216 161.822C428.105 160.945 430.102 160.322 432.155 159.969C437.339 158.872 442.621 158.117 447.835 157.216L513.436 145.906C534.839 142.215 556.245 138.534 577.655 134.862L610.466 129.237C620.432 127.522 630.066 125.767 639.572 122.171C647.902 119.025 655.918 115.115 664.199 111.842C668.131 110.234 672.156 108.866 676.253 107.745C678.86 107.059 682.035 106.236 684.691 107.187C688.885 108.706 690.669 115.458 692.168 119.221C695.637 127.894 699.43 136.42 703.076 145.015C707.074 154.413 710.916 163.889 714.15 173.582C717.491 183.607 719.628 193.77 721.705 204.109C725.821 224.61 730.192 245.102 732.77 265.849C734.08 276.255 734.839 286.723 735.043 297.209C735.141 303.089 744.285 303.089 744.196 297.209C743.893 274.923 740.59 252.864 736.415 231.01C732.338 209.695 728.85 187.89 721.607 167.388C714.934 148.503 706.555 130.148 698.715 111.704C696.431 106.314 693.491 100.797 687.611 98.7391C680.673 96.3087 672.705 99.2389 666.179 101.601C657.074 104.884 648.401 109.215 639.415 112.782C629.899 116.555 620.285 118.662 610.23 120.368L541.846 132.177C519.051 136.097 496.25 140.017 473.442 143.937L439.936 149.699C431.802 151.1 420.806 151.718 415.818 159.45C410.83 167.182 414.642 179.707 416.857 187.762C420.481 200.314 424.817 212.649 429.842 224.708C442.337 255.764 453.058 287.428 469.042 316.926C487.414 350.706 510.448 381.733 537.465 409.095C550.957 422.731 565.445 435.342 580.811 446.825C596.295 458.428 612.955 470.482 631.702 476.117C647.382 480.841 663.856 478.92 677.458 469.64C690.061 461.055 699.557 448.491 707.348 435.555C726.86 403.137 738.14 365.926 741.55 328.343C742.476 317.986 742.839 307.586 742.638 297.189C742.609 293.279 736.572 293.269 736.582 297.199Z" fill="var(--color-illustration-secondary, #7F72FF)"/>
<path d="M645.785 366.72C654.105 394.287 660.799 421.855 661.671 450.608C662.249 469.473 661.426 489.014 653.321 506.066C646.461 520.57 634.505 532.389 620.697 540.601C606.889 548.814 591.219 553.577 575.343 556.085C542.817 561.142 509.527 557.036 479.205 544.227C454.019 533.565 427.01 524.461 403.49 510.084C389.221 501.372 416.671 520.374 403.49 510.084C379.46 491.396 407.714 488.24 392.2 462.005C389.368 457.223 386.918 452.049 386.409 446.512C385.38 435.398 370.562 422.217 380.646 422.796C406.126 424.256 451.755 435.114 476.51 441.563C503.362 448.56 529.43 459.781 557.105 461.672C551.878 422.152 545.672 382.776 538.485 343.543C535.545 327.255 526.99 305.607 529.665 289.222C530.645 283.175 533.997 275.09 540.994 274.688C546.658 274.355 550.568 280.568 555.792 281.901C563.632 283.861 569.757 278.736 577.028 275.952C590.258 270.896 605.164 267.691 618.531 272.699C632.585 277.971 642.169 291.319 648.911 304.882C653.88 314.956 657.8 325.815 658.006 337.016C658.212 348.218 654.233 359.86 645.677 366.857C633.026 377.206 613.543 374.834 599.833 365.652C594.717 362.222 589.847 357.439 588.945 351.324C588.044 345.209 593.149 338.212 599.147 339.398C593.267 337.271 586.956 334.733 583.918 329.235C580.88 323.737 584.231 314.849 590.396 315.515C585.399 312.82 583.041 306.941 584.79 301.54C586.845 296.295 592.453 293.368 597.932 294.68" fill="var(--color-illustration-base, #FFFFFF)"/>
<path d="M642.894 367.553C651.165 396.11 657.829 425.216 658.25 455.057C658.446 469.189 657.682 483.536 653.125 497.021C648.878 509.12 641.5 519.876 631.741 528.194C610.769 546.52 581.673 553.459 554.429 554.38C540.103 554.878 525.771 553.598 511.76 550.568C497.932 547.579 485.084 542.483 472.031 537.161C457.331 531.144 442.396 525.529 427.98 518.767C420.637 515.366 413.474 511.591 406.518 507.458C404.499 506.243 400.873 503.165 398.227 504.057C396.572 504.54 395.426 506.047 395.405 507.771C395.503 510.76 398.825 512.436 400.991 513.945C402.843 515.229 405.744 517.816 408.203 516.973C409.863 516.494 411.013 514.986 411.036 513.259C410.967 511.025 409.252 509.82 407.674 508.555C404.499 506.007 401.02 503.489 398.786 500.02C395.904 495.561 397.806 491.778 399.334 486.995C401.509 480.554 401.384 473.559 398.982 467.199C397.022 462.044 393.592 457.595 391.7 452.401C389.936 447.501 389.848 442.484 387.712 437.701C386.016 433.899 383.674 430.459 381.832 426.745C381.659 426.204 381.425 425.685 381.136 425.197C379.538 423.638 381.41 424.961 380.999 424.902V425.049C380.807 425.846 380.218 426.487 379.44 426.745C379.627 427 383.694 426.911 384.203 426.951C393.886 427.774 403.499 429.401 413.045 431.184C433.105 434.928 453.038 439.544 472.776 444.738C500.843 452.137 527.881 463.916 557.105 466.131C559.29 466.288 561.848 463.946 561.554 461.682C556.98 426.866 551.688 392.157 545.678 357.557C544.335 349.903 543.13 342.21 541.317 334.664C539.661 327.804 537.73 320.944 536.201 314.084C534.672 307.224 533.496 300.305 533.898 293.298C534.143 289.074 535.26 281.901 539.641 279.862C541.934 278.794 543.884 280.235 545.746 281.528C548.275 283.302 550.646 285.262 553.635 286.252C560.838 288.633 567.698 285.586 574.098 282.479C587.112 276.178 604.135 271.817 618.061 277.667C630.556 282.93 638.641 295.17 644.521 306.832C651.224 320.258 656.281 336.007 651.087 350.795C645.893 365.583 631.163 371.375 616.542 367.876C609.623 366.23 602.606 362.976 597.569 357.812C595.325 355.538 593.051 352.304 593.57 348.923C594.021 345.983 596.069 343.758 599.078 344.16C604.664 344.895 604.958 336.604 600.332 334.909C596.118 333.37 589.964 331.391 587.906 326.912C586.926 324.825 587.269 320.111 590.327 320.229C594.991 320.405 596.706 313.712 592.698 311.487C586.289 307.93 588.778 297.404 596.618 299.129C602.381 300.393 604.85 291.534 599.068 290.309C591.228 288.584 582.888 292.524 580.193 300.354C577.694 307.626 581.369 315.966 587.945 319.621L590.307 310.889C581.673 310.556 576.871 319.797 578.282 327.461C579.997 336.859 589.837 341.103 597.814 344.033L599.058 334.782C591.571 333.802 585.446 340.446 584.29 347.375C582.898 355.685 588.367 363.006 594.599 367.827C606.359 376.98 623.509 381.547 637.964 376.461C653.39 371.071 661.68 356.106 662.562 340.368C663.542 323.041 655.604 304.862 646.118 290.731C636.818 276.854 623.578 266.427 606.369 265.564C597.598 265.113 588.729 266.985 580.448 269.759C576.282 271.182 572.213 272.874 568.267 274.825C564.876 276.481 560.878 278.5 556.997 277.432C554.057 276.628 551.822 274.178 549.323 272.61C546.001 270.337 541.874 269.568 537.955 270.494C531.389 272.267 527.567 278.618 525.813 284.772C521.472 300.011 527.166 317.063 530.978 331.812C536.299 352.392 539.229 373.766 542.64 394.768C546.331 417.445 549.719 440.168 552.802 462.936L557.095 457.311C529.655 455.351 503.979 444.512 477.568 437.77C457.066 432.546 436.457 427.646 415.642 423.785C405.646 421.933 395.571 420.267 385.438 419.356C382.057 419.052 377.363 418.082 374.746 420.924C372.13 423.766 373.462 427.245 374.854 430.145C376.745 434.065 379.313 437.623 381.038 441.621C383.115 446.521 383.096 451.833 385.154 456.753C388.574 464.887 394.826 472.001 392.906 481.39C391.671 487.417 388.329 492.924 390.015 499.255C391.093 503.352 393.935 506.83 396.953 509.682C398.688 511.319 400.589 512.75 402.441 514.249C402.878 514.652 403.336 515.031 403.813 515.386C405.146 516.209 403.47 517.238 403.343 513.348L406.175 509.633C406.351 509.574 408.87 509.467 408.889 509.947C408.889 509.947 408.576 509.8 408.537 509.751C408.259 509.533 407.956 509.348 407.635 509.202C406.802 508.683 405.998 508.134 405.195 507.575C404.391 507.017 403.637 506.488 402.872 505.919C402.108 505.351 402.696 505.684 402.539 505.674C402.421 505.595 402.313 505.503 402.216 505.4L402.127 505.311C401.428 504.619 401.755 505.468 403.107 507.859L400.285 511.583C400.863 511.387 397.884 511.887 397.61 511.28C397.61 511.339 397.894 511.387 397.962 511.446C398.388 511.743 398.841 511.999 399.315 512.211C401.726 513.592 404.068 515.082 406.479 516.454C412.956 520.149 419.64 523.481 426.422 526.587C439.563 532.614 453.048 537.818 466.455 543.247C480.292 548.843 493.895 554.488 508.497 557.741C522.525 560.869 536.874 562.326 551.244 562.083C579.37 561.563 609.143 555.017 631.83 537.583C642.08 529.743 650.871 519.737 656.437 508.007C662.494 495.266 664.738 481.184 665.257 467.18C666.512 432.566 658.927 398.883 648.686 366.053C647.539 362.388 641.826 363.917 642.904 367.641L642.894 367.553Z" fill="var(--color-illustration-primary, #382C80)"/>
<path d="M458.134 582.634C361.016 766.746 183.783 853.251 160.684 874.36C151.531 882.729 139.487 891.069 132.264 901.222C122.347 915.255 126.384 928.966 127.453 944.675C127.656 946.956 127.689 949.249 127.551 951.535C127.487 953.711 126.847 955.831 125.698 957.68C123.248 961.178 118.182 961.992 114.125 960.62C110.067 959.248 106.814 956.278 103.805 953.25C83.6997 933.031 68.2629 908.656 58.5783 881.837C57.1671 877.917 55.8735 873.89 56.0891 869.744C57.1867 848.41 92.8783 829.015 107.402 816.912L170.514 764.375C182.352 754.516 194.289 744.559 203.834 732.476C211.919 722.254 218.142 710.71 225.09 699.685C239.79 676.361 257.802 655.35 276.628 635.269C285.311 626.008 294.572 617.522 303.666 608.907C312.33 600.695 316.583 590.689 323.266 580.654C331.43 568.375 342.318 555.762 357.008 554.498" fill="var(--color-illustration-base, #FFFFFF)"/>
<path d="M455.478 581.076C437.069 615.614 415.289 648.247 390.455 678.497C368.144 705.601 343.831 730.992 317.72 754.457C295.406 774.522 272.028 793.372 247.689 810.925C229.392 824.155 210.606 836.679 191.613 848.89C180.755 855.877 169.161 862.394 159.214 870.685C153.481 875.458 147.768 880.319 142.162 885.248C134.597 891.912 127.315 899.429 123.993 909.17C120.828 918.421 122.033 928.25 123.013 937.776C123.523 942.745 124.973 949.536 123.141 954.299C121.181 959.267 114.84 957.239 111.586 954.926C107.265 951.868 103.599 947.468 100.081 943.558C96.5631 939.648 93.2213 935.591 90.0363 931.396C83.6488 922.929 77.9623 913.955 73.0333 904.564C68.1333 895.313 63.0275 885.15 60.7147 874.88C58.9997 867.324 62.5865 860.464 67.3199 854.76C77.7667 842.216 92.1237 833.68 105.06 824.018C113.458 817.746 121.337 810.758 129.393 804.055L158.244 780.074C176.002 765.306 195.073 751.184 209.096 732.613C216.045 723.411 221.66 713.327 227.716 703.556C233.814 693.83 240.428 684.437 247.532 675.42C261.79 657.209 277.337 640.044 294.053 624.058C302.285 616.218 310.791 608.927 317.014 599.274C322.659 590.513 327.412 581.203 334.223 573.236C340.103 566.376 347.639 559.829 357.027 558.83C362.378 558.261 362.437 549.804 357.027 550.372C335.83 552.616 323.286 571.932 313.349 588.72C310.409 593.62 307.469 598.52 303.725 602.802C299.805 607.232 295.199 611.132 290.907 615.199C282.195 623.461 273.845 632.006 265.77 640.885C249.913 658.329 234.851 676.645 222.189 696.569C215.898 706.467 210.282 716.796 203.403 726.312C196.523 735.827 187.821 744.206 178.903 751.988C159.891 768.54 140.222 784.328 120.857 800.517C113.125 806.936 105.559 813.6 97.3961 819.48C90.6341 824.38 83.7937 829.123 77.2375 834.288C65.3991 843.637 50.0131 857.22 52.3161 874.037C53.0609 879.456 55.2561 884.65 57.2749 889.717C59.2937 894.783 61.4595 899.566 63.8409 904.358C68.7372 914.217 74.4614 923.642 80.9517 932.533C87.2305 941.241 94.2294 949.407 101.875 956.945C108.411 963.315 119.515 969.44 127.551 961.59C131.284 957.944 131.716 952.388 131.549 947.458C131.353 941.97 130.569 936.522 130.05 931.053C129.07 920.655 129.814 910.953 136.253 902.31C142.692 893.666 151.58 887.306 159.587 880.397C161.292 878.937 162.919 877.388 164.634 875.948L165.712 875.076C166.427 874.507 165.241 875.438 165.78 875.027L166.555 874.439C171.455 870.803 176.59 867.49 181.696 864.158C198.728 853.084 215.829 842.118 232.528 830.535C256.313 814.051 279.411 796.568 301.52 777.889C328.149 755.506 353.141 731.244 376.304 705.291C402.473 676.008 425.807 644.31 445.992 610.623C451.166 601.94 456.102 593.12 460.8 584.163C462.642 580.664 457.34 577.548 455.478 581.056V581.076Z" fill="var(--color-illustration-primary, #382C80)"/>
<path d="M465.935 582.771C406.949 694.236 312.82 780.544 208.254 848.958C192.574 859.219 168.074 869.274 161.214 886.649C159.509 890.941 155.922 895.351 151.316 894.94C149.498 894.662 147.768 893.971 146.259 892.921C126.561 880.975 113.164 861.1 101.777 841.118C91.5848 823.223 89.468 811.973 105.55 798.772C123.356 784.151 141.006 769.372 158.744 754.604C170.818 744.578 182.999 734.445 192.75 722.146C201.002 711.748 207.352 700.008 214.447 688.826C229.451 665.091 247.826 643.746 267.034 623.284C275.854 613.866 285.341 605.232 294.621 596.461C303.441 588.112 307.792 577.92 314.594 567.718C322.914 555.223 334.027 542.395 349.011 541.101" fill="var(--color-illustration-secondary, #7F72FF)"/>
<path d="M463.27 581.213C435.32 633.554 399.256 681.026 357.832 723.44C316.407 765.854 269.935 803.006 220.847 836.14C209.861 843.549 198.621 850.291 187.233 857.063C176.963 863.168 165.967 870.244 159.793 880.818C158.294 883.396 157.51 886.414 155.628 888.756C152.963 892.088 150.483 891 147.288 888.991C140.985 884.966 135.224 880.147 130.148 874.654C120.064 863.972 112.165 851.389 104.992 838.639C99.2781 828.486 94.0841 817.079 102.826 807.073C108.177 800.958 115.272 796.136 121.524 790.972C128.404 785.275 135.264 779.565 142.104 773.841C155.128 763.012 168.564 752.526 180.932 740.943C193.035 729.594 202.404 716.609 210.988 702.488C228.285 674.068 248.816 648.401 271.866 624.401C277.697 618.335 283.802 612.533 289.927 606.761C295.758 601.283 301.531 595.981 306.146 589.435C314.525 577.449 320.484 563.955 331.509 553.978C336.409 549.559 342.338 546.07 348.992 545.345C354.333 544.766 354.421 536.329 348.992 536.887C334.067 538.426 323.159 548.647 314.574 560.221C309.88 566.552 306.097 573.431 301.942 580.125C297.444 587.387 291.985 593.061 285.792 598.882C260.88 622.324 237.458 647.764 217.946 675.93C208.146 690.081 200.453 705.741 189.781 719.265C179.109 732.789 165.654 743.54 152.541 754.457C138.263 766.344 124.033 778.281 109.715 790.119C99.6309 798.449 88.1551 807.269 89.9191 821.852C90.6835 828.349 93.4765 834.415 96.5439 840.129C100.199 846.93 104.247 853.574 108.539 859.983C117.006 872.625 126.934 884.483 139.448 893.235C145.221 897.302 151.904 901.447 158.558 896.635C163.85 892.804 165.017 886.071 168.897 881.102C176.737 871.067 188.899 864.874 199.709 858.562C225.6 843.559 249.973 825.36 273.62 807.171C297.796 788.639 320.967 768.832 343.034 747.832C387.408 705.408 426.775 657.457 457.586 604.262C461.382 597.683 465.066 591.022 468.64 584.28C470.492 580.781 465.191 577.665 463.319 581.173L463.27 581.213Z" fill="var(--color-illustration-secondary, #7F72FF)"/>
<path d="M104.463 839.56C99.9451 831.475 94.1729 821.077 98.6515 811.767C101.033 806.799 105.374 803.192 109.559 799.792C115.4 795.042 121.224 790.273 127.032 785.484C138.479 776.066 149.876 766.589 161.332 757.162C171.808 748.538 182.334 739.855 191.379 729.722C200.424 719.589 207.147 708.162 214.154 696.813C221.305 685.165 229.139 673.951 237.615 663.229C254.844 641.463 274.032 621.549 294.269 602.596C299.538 597.796 304.193 592.361 308.126 586.416C312.046 580.37 315.437 574.019 319.534 568.09C326.482 558.026 336.086 546.766 349.051 545.315C354.382 544.717 354.49 536.319 349.051 536.858C336.713 538.083 326.884 545.286 319.083 554.576C310.763 564.484 305.363 576.185 297.787 586.544C293.613 592.228 288.134 596.814 283.029 601.636C277.56 606.81 272.131 612.024 266.898 617.443C256.99 627.714 247.464 638.415 238.38 649.43C229.174 660.465 220.636 672.04 212.812 684.093C205.128 696.049 198.562 708.828 189.713 719.99C180.864 731.153 170.015 740.502 159.147 749.626C147.387 759.511 135.607 769.396 123.808 779.28C117.131 784.847 110.451 790.407 103.767 795.96C99.0925 799.88 94.7315 804.3 92.3697 810.003C87.7147 821.254 93.5751 832.916 99.1415 842.657C101.101 846.097 106.393 843.01 104.463 839.541V839.56Z" fill="var(--color-illustration-primary, #382C80)"/>
<path d="M337.438 666.384C315.721 692.188 293.828 717.834 270.2 741.933C247.288 765.315 223.072 787.385 197.945 808.367C183.176 820.695 167.879 832.347 153.002 844.529C150.983 846.175 153.669 849.693 155.805 848.165C183.333 828.437 209.382 806.113 234.43 783.357C258.655 761.356 281.695 738.084 303.452 713.64C316.358 699.136 328.736 684.181 340.359 668.629C341.603 666.953 338.791 664.767 337.419 666.384H337.438Z" fill="var(--color-illustration-primary, #382C80)"/>
<path d="M358.135 658.995C359.158 658.995 359.988 658.166 359.988 657.143C359.988 656.12 359.158 655.291 358.135 655.291C357.112 655.291 356.283 656.12 356.283 657.143C356.283 658.166 357.112 658.995 358.135 658.995Z" fill="var(--color-illustration-primary, #382C80)"/>
<path d="M160.587 867.039L166.026 870.773C167.986 872.106 169.789 868.95 167.868 867.627L162.42 863.903C160.46 862.58 158.676 865.726 160.587 867.039Z" fill="var(--color-illustration-primary, #382C80)"/>
<path d="M114.164 960.698C118.222 962.041 123.288 961.227 125.738 957.758C126.896 955.902 127.538 953.771 127.6 951.584C127.739 949.298 127.706 947.005 127.502 944.724C126.405 929.044 122.396 915.324 132.314 901.271C133.147 900.095 134.058 898.938 135.009 897.802C131.697 894.862 126.826 894.009 122.269 894.019C117.193 894.019 112.048 894.881 107.079 893.862C86.0679 889.521 83.2651 862.747 74.3275 847.537C73.9209 846.718 73.3347 846.001 72.6125 845.44C70.8093 844.264 68.4377 845.313 66.5659 846.361L57.9223 851.193C55.4135 852.594 52.6891 854.27 51.8855 857.024C51.5684 858.447 51.5351 859.919 51.7875 861.355C53.5711 877.359 62.9203 894.519 70.6329 908.66C79.5146 925.047 90.699 940.076 103.845 953.289C106.854 956.357 110.107 959.365 114.164 960.698Z" fill="var(--color-illustration-primary, #382C80)"/>
<path d="M113.028 964.814C118.849 966.46 125.905 965.275 129.413 959.914C133.333 953.926 131.912 945.626 131.236 938.942C130.589 932.562 129.707 926.143 130.139 919.724C130.667 912.753 133.414 906.135 137.979 900.84C139.321 899.213 139.939 896.361 137.979 894.813C130.139 888.482 121.407 890.295 112.097 890.118C105.468 889.986 99.2651 886.827 95.2603 881.543C87.3125 871.626 84.9409 858.406 79.1099 847.332C77.4439 844.166 75.5427 841.207 71.6815 840.756C66.9187 840.197 62.2147 843.911 58.2653 846.126C54.9333 847.988 51.1113 849.811 49.0239 853.182C46.6033 857.102 47.4559 861.669 48.1811 865.922C49.7981 875.369 53.5515 884.405 57.6479 893.009C61.7443 901.614 66.3111 910.189 71.2405 918.391C76.7719 927.555 83.0176 936.268 89.9193 944.45C96.2991 952.025 103.473 961.257 113.008 964.814C118.153 966.774 120.378 958.493 115.272 956.592C111.528 955.2 108.706 952.221 105.962 949.438C102.78 946.171 99.7095 942.816 96.7499 939.373C91.3553 933.037 86.3888 926.348 81.8833 919.352C72.7791 905.24 63.9983 889.579 58.8729 873.537C57.6807 869.939 56.7923 866.248 56.2171 862.502C55.9917 860.954 55.4723 858.896 56.3837 857.484C57.2951 856.073 59.8725 854.995 61.2837 854.172C63.3319 853.016 65.3899 851.859 67.4479 850.722C68.2512 850.373 69.0304 849.97 69.7803 849.517L70.8387 849.164C70.0547 848.674 70.0253 848.841 70.7309 849.674C71.6227 852.104 73.2397 854.427 74.2687 856.828C78.8061 867.431 81.9911 878.897 89.5567 887.874C93.6576 892.86 99.2726 896.373 105.55 897.88C110.284 898.929 114.978 898.527 119.76 898.35C123.827 898.194 128.639 898.115 131.991 900.83V894.803C123.965 904.515 120.887 915.275 121.662 927.78C122.034 933.905 122.985 939.981 123.318 946.106C123.465 948.84 124.053 953.191 122.112 955.494C120.456 957.454 117.506 957.239 115.252 956.611C110.009 955.092 107.755 963.315 113.028 964.814Z" fill="var(--color-illustration-primary, #382C80)"/>
<path d="M132.501 908.993C129.553 909.939 126.383 909.939 123.436 908.993C121.094 908.268 120.055 912.021 122.456 912.678C126.064 913.687 129.901 913.512 133.402 912.178C135.362 911.443 134.578 908.395 132.54 909.032L132.501 908.993Z" fill="var(--color-illustration-base, #FFFFFF)"/>
<path d="M130.942 918.127C127.737 920.165 124.601 920.508 120.887 920.567C118.927 920.567 118.349 923.781 120.407 924.085C124.714 924.546 129.043 923.435 132.598 920.959C134.362 919.812 132.735 917.039 130.942 918.127Z" fill="var(--color-illustration-base, #FFFFFF)"/>
<path d="M130.785 927.839C127.933 929.988 124.369 930.969 120.818 930.583C118.437 930.426 118.555 933.934 120.818 934.209C125.143 934.597 129.426 933.108 132.578 930.122C133.784 929.044 132.137 926.819 130.805 927.839H130.785Z" fill="var(--color-illustration-base, #FFFFFF)"/>
<path d="M143.103 915.099C144.613 914.187 147.504 912.943 149.297 913.844C150.15 913.844 150.277 914.001 149.522 914.354C149.095 914.662 148.695 915.006 148.327 915.383C147.341 916.203 146.201 916.819 144.975 917.196C143.996 917.503 143.38 918.472 143.519 919.489C143.657 920.507 144.508 921.276 145.534 921.312C150.689 921.625 147.396 929.25 143.574 925.398C141.614 923.438 138.742 926.378 140.634 928.397C142.169 930.178 144.508 931.048 146.833 930.705C149.159 930.361 151.146 928.85 152.1 926.702C154.187 921.988 150.502 917.157 145.573 917.127L146.631 921.047C149.101 919.607 155.775 915.549 152.913 911.825C150.453 908.64 144.201 910.649 141.555 912.413C139.899 913.521 141.398 916.167 143.143 915.118L143.103 915.099Z" fill="var(--color-illustration-primary, #382C80)"/>
<path d="M386.771 629.056C427.931 622.196 469.787 625.479 505.959 640.179C542.13 654.879 572.324 681.212 589.327 715.306C603.469 743.667 608.094 776.213 608.418 808.896C608.584 825.135 607.673 841.51 606.379 857.896C605.399 870.401 599.519 891.216 605.703 901.918C609.682 908.778 618.306 911.482 626.499 913.031C634.691 914.579 643.482 915.579 649.754 920.508C650.555 921.059 651.194 921.813 651.606 922.694C651.962 923.904 651.934 925.194 651.528 926.388C650.051 931.624 646.73 936.149 642.179 939.128C637.279 942.343 631.506 943.528 625.911 944.557C590.572 951.094 553.097 953.044 520.531 942.039C518.571 941.372 516.552 940.618 515.278 939.099C513.661 937.139 513.544 934.326 513.495 931.68C512.858 892 515.455 852.222 512.378 812.6C511.29 798.596 512.074 772.489 505.194 760.19C496.374 744.51 472.854 749.165 458.409 749.861C439.328 750.792 420.189 747.901 401.892 742.295C363.32 730.535 361.467 685.455 337.928 652.576" fill="var(--color-illustration-base, #FFFFFF)"/>
<path d="M387.613 632.124C456.135 620.981 533.565 638.984 575.205 698.46C595.726 727.781 603.155 763.336 604.507 798.586C605.192 818.645 604.537 838.728 602.547 858.7C601.253 872.135 595.932 887.482 600.93 900.702C606.81 916.294 625.499 915.657 638.885 919.558C640.684 920.048 642.432 920.704 644.109 921.518C646.451 922.733 648.176 923.419 647.402 926.28C646.422 930.053 643.325 933.523 640.159 935.649C632.849 940.549 622.392 941.186 613.905 942.509C595.285 945.351 576.254 946.625 557.428 945.126C548.365 944.427 539.383 942.925 530.586 940.637C528.384 940.049 526.192 939.396 524.01 938.677C522.51 938.197 520.09 937.795 518.914 936.717C517.738 935.639 517.806 933.317 517.767 931.67C517.689 928.868 517.699 926.065 517.689 923.262C517.62 902.937 518.238 882.621 518.326 862.296C518.394 843.529 517.346 824.909 516.493 806.172C515.895 792.452 516.18 777.977 512.005 764.776C510.045 758.593 506.762 753.203 501.313 749.508C496.099 745.97 489.651 744.716 483.467 744.265C477.283 743.814 470.874 744.343 464.602 744.853C456.344 745.552 448.045 745.604 439.779 745.01C430.436 744.265 421.174 742.725 412.094 740.404C404.744 738.552 397.551 736.484 391.122 732.378C380.891 725.792 374.285 715.316 368.886 704.683C362.731 692.56 357.978 679.781 351.736 667.707C348.656 661.765 345.162 656.048 341.279 650.597C338.408 646.539 331.646 650.43 334.556 654.517C350.569 677.057 355.352 705.908 372.776 727.595C382.067 739.169 394.277 745.137 408.399 748.842C426.448 753.661 445.178 755.417 463.808 754.036C474.765 753.173 491.248 750.39 499.48 759.916C503.616 764.698 504.733 771.95 505.605 777.987C506.644 785.19 506.938 792.501 507.252 799.762C508.026 818.069 509.378 836.277 509.486 854.642C509.614 875.663 509.055 896.684 509.094 917.715C509.094 922.743 508.996 927.829 509.261 932.856C509.496 937.335 510.594 941.588 514.631 944.116C517.973 946.214 522.197 947.154 525.95 948.203C530.576 949.51 535.257 950.561 539.994 951.359C558.976 954.671 578.361 954.691 597.5 952.78C607.388 951.8 617.227 950.339 626.988 948.497C635.495 946.9 644.05 944.489 649.881 937.658C652.46 934.728 654.331 931.244 655.349 927.476C656.545 922.674 654.859 919.244 650.881 916.49C644.021 911.737 635.504 910.816 627.547 909.307C620.51 907.974 611.377 905.916 608.29 898.527C605.585 892.108 606.683 884.091 607.506 877.398C608.486 869.47 609.868 861.649 610.446 853.672C611.2 843.412 611.779 833.092 612.014 822.851C612.876 785.033 609.074 745.657 591.434 711.592C576.391 682.643 551.656 659.289 522.834 644.266C489.671 626.988 451.549 620.687 414.426 622.784C404.902 623.346 395.415 624.419 386.006 625.999C381.969 626.675 383.684 632.79 387.692 632.133L387.613 632.124Z" fill="var(--color-illustration-primary, #382C80)"/>
<path d="M305.744 663.405C328.921 708.005 363.319 730.496 401.892 742.285C420.198 747.881 439.328 750.782 458.409 749.851C472.854 749.155 496.403 744.49 505.194 760.18C512.054 772.479 511.289 798.586 512.377 812.591C513.122 822.136 513.524 831.691 513.739 841.256C513.886 847.675 512.26 854.829 518.257 859.121C523.285 862.718 536.554 863.315 542.757 864.609C562.704 868.778 583.23 869.388 603.39 866.412C615.287 864.638 627.517 861.355 636.475 853.319C642.276 848.116 646.529 839.952 643.962 832.583C642.982 829.701 641.022 827.251 639.464 824.605C632.976 813.512 633.691 798.224 632.496 785.827C630.065 760.788 625.636 736.209 614.278 713.503C597.275 679.409 567.081 653.076 530.909 638.376C500.176 625.881 455.233 580.556 422.296 583.212C409.134 584.251 400.148 592.61 387.711 587.132C370.463 579.488 363.476 605.752 348.355 594.511" fill="var(--color-illustration-secondary, #7F72FF)"/>
<path d="M303.02 665.012C317.485 692.737 338.888 715.972 366.407 731.123C395.464 747.078 429.881 755.555 463.015 753.046C474.393 752.183 490.739 749.381 499.638 758.583C503.959 763.052 505.243 769.892 506.223 775.801C507.271 783.095 507.88 790.445 508.046 797.812C508.742 814.6 509.741 831.309 509.947 848.116C510.026 855.24 512.809 861.277 519.747 864.021C525.833 866.442 532.585 866.785 539.004 867.774C548.128 869.186 557.056 871.038 566.307 871.694C576.449 872.422 586.634 872.251 596.746 871.185C613.092 869.45 632.251 865.912 643.051 852.202C648 845.92 650.626 837.6 647.343 829.946C645.795 826.32 643.188 823.282 641.6 819.666C639.921 815.557 638.826 811.232 638.347 806.818C637.269 798.596 637.239 790.256 636.387 781.995C635.407 772.773 634.182 763.561 632.388 754.457C625.646 720.255 609.427 689.316 583.388 665.865C571.12 654.808 557.316 645.586 542.405 638.484C536.29 635.544 529.959 633.221 524 629.968C518.042 626.714 512.515 623.176 506.948 619.491C494.336 611.142 482.086 602.243 469.101 594.462C457.899 587.749 445.649 581.222 432.586 579.233C425.771 578.186 418.809 578.664 412.202 580.634C404.097 582.967 397.247 586.064 388.907 582.888C383.761 580.817 377.978 581.024 372.992 583.457C368.719 585.417 365.27 588.7 361.311 591.199C357.351 593.698 354.245 593.855 350.354 591.101C346.258 588.161 342.367 594.942 346.434 597.824C350.707 600.862 355.715 602.204 360.811 600.509C365.221 599.039 368.759 596.04 372.571 593.492C376.177 591.081 379.96 589.131 384.331 590.434C387.702 591.414 390.642 592.904 394.229 593.247C398.356 593.518 402.498 593.012 406.44 591.757C413.211 589.797 419.621 587.308 426.784 587.632C432.664 587.896 438.339 589.592 443.748 591.728C456.616 596.726 468.425 604.527 479.842 612.171C491.464 619.942 502.803 628.243 514.886 635.318C526.97 642.394 540.366 646.902 552.44 654.125C579.615 670.353 602.087 694.638 614.366 723.979C621.481 741.002 625.234 759.308 627.43 777.556C629.321 793.236 627.665 811.395 635.426 825.732C637.171 828.947 640.042 831.946 640.601 835.679C641.159 839.413 639.484 843.372 637.308 846.459C632.408 853.319 624.019 857.328 616.12 859.68C598.324 864.991 578.537 865.393 560.182 863.511C552.254 862.698 544.502 860.934 536.603 859.895C531.488 859.219 521.903 859.229 518.738 854.368C517.003 851.742 517.356 848.174 517.425 845.185C517.523 840.472 517.327 835.748 517.14 831.034C516.807 822.743 516.062 814.482 515.67 806.191C515.043 792.589 515.288 778.163 511.094 765.031C509.202 759.102 506.066 753.908 500.833 750.331C495.884 746.989 489.798 745.755 483.938 745.284C477.509 744.775 471.051 745.343 464.632 745.862C456.594 746.557 448.515 746.639 440.465 746.107C423.016 744.741 405.863 740.805 389.564 734.426C362.222 723.959 338.232 706.261 321.14 682.378C316.465 675.794 312.245 668.898 308.508 661.739C306.607 658.113 301.129 661.328 303.02 664.954V665.012Z" fill="var(--color-illustration-secondary, #7F72FF)"/>
<path d="M313.8 652.763C314.672 675.979 323.404 697.568 340.387 713.65C356.949 729.33 378.48 738.836 399.991 745.588C415.675 750.631 431.986 753.461 448.452 753.997C460.28 754.3 472.148 752.037 483.947 753.085C488.563 753.487 493.551 754.594 497.295 757.466C501.45 760.651 503.175 765.629 504.331 770.529C507.115 782.142 506.987 794.314 507.477 806.172C507.81 814.237 508.536 822.263 508.869 830.329C509.045 834.778 509.271 839.237 509.202 843.696C509.153 847.136 508.967 850.644 509.8 854.025C513.24 868.02 530.664 866.579 541.758 868.363C546.589 869.146 548.804 862.032 543.825 860.856C538.847 859.68 533.516 859.17 528.42 858.063C523.324 856.955 518.62 855.662 518.208 849.566C517.767 842.52 518.208 835.356 517.885 828.281C517.561 821.205 516.964 814.12 516.601 807.034C516.003 795.274 515.837 783.396 513.602 771.754C511.574 761.19 507.036 751.654 496.599 747.342C486.701 743.256 475.431 744.402 465.033 745.245C450.335 746.568 435.524 745.853 421.022 743.119C397.59 738.611 373.443 730.026 353.99 715.933C344.304 709.057 336.201 700.189 330.225 689.924C323.776 678.546 320.728 665.728 320.131 652.684C319.944 648.617 313.614 648.578 313.77 652.684L313.8 652.763Z" fill="var(--color-illustration-primary, #382C80)"/>
<path d="M562.652 870.744C566.689 870.744 570.727 870.803 574.755 870.744C579.38 870.665 579.4 863.521 574.755 863.551C570.717 863.551 566.689 863.707 562.652 863.815C558.202 863.943 558.173 870.675 562.652 870.744Z" fill="var(--color-illustration-primary, #382C80)"/>
<path d="M570.688 843.784C573.486 824.51 573.318 804.922 570.188 785.699C567.16 767.079 561.77 747.479 552.381 731.055C544.1 716.58 531.36 704.967 517.817 695.471C510.624 690.466 503.093 685.967 495.277 682.006C488.27 678.419 481.125 675.714 475.461 670.04C469.797 664.366 466.122 657.623 461.525 651.351C456.567 644.599 450.687 639.003 443.033 635.416C440.504 634.231 438.27 637.974 440.818 639.199C454.264 645.677 459.899 658.642 468.954 669.579C473.466 675.023 479.165 679.361 485.614 682.26C493.057 685.652 500.289 689.487 507.272 693.746C521.501 702.478 535.172 713.248 544.904 726.978C555.351 741.678 561.015 760.464 564.847 777.938C569.537 799.426 570.476 821.564 567.62 843.372C567.395 845.107 570.462 845.538 570.717 843.784H570.688Z" fill="var(--color-illustration-primary, #382C80)"/>
<path d="M631.683 826.34C628.447 828.294 624.799 829.465 621.031 829.76C618.453 829.995 618.404 834.033 621.031 833.837C625.505 833.488 629.823 832.041 633.604 829.623C635.662 828.329 633.78 825.066 631.644 826.34H631.683Z" fill="var(--color-illustration-primary, #382C80)"/>
<path d="M603.224 881.906C600.677 881.772 598.123 881.854 595.59 882.151C587.867 883.131 580.115 886.747 575.99 893.343C573.206 897.782 572.07 903.397 568.15 906.857C562.965 911.404 555.135 910.444 548.354 909.219L513.485 902.917C513.387 912.502 513.358 922.086 513.485 931.67C513.534 934.316 513.652 937.139 515.269 939.089C516.543 940.628 518.562 941.382 520.522 942.029C553.087 953.034 590.562 951.084 625.901 944.548C631.497 943.568 637.289 942.333 642.169 939.118C646.721 936.139 650.041 931.614 651.518 926.378C651.925 925.184 651.952 923.894 651.597 922.684C651.185 921.803 650.545 921.049 649.744 920.498C643.472 915.598 634.692 914.56 626.489 913.021C618.286 911.482 609.672 908.778 605.693 901.908C602.783 896.9 602.548 889.54 603.224 881.906Z" fill="var(--color-illustration-primary, #382C80)"/>
<path d="M603.223 877.643C594.982 877.349 586.465 878.79 579.596 883.621C576.537 885.73 573.959 888.462 572.03 891.638C570.07 894.94 569.09 898.821 566.807 901.967C562.112 908.582 551.862 905.544 545.296 904.348L514.612 898.86C511.907 898.37 509.241 900.007 509.212 902.966C509.114 913.227 508.506 923.762 509.33 934.003C509.624 937.756 510.751 941.196 513.828 943.529C517.336 946.194 522.373 947.243 526.568 948.429C544.512 953.387 563.367 954.779 581.918 954.073C591.434 953.701 600.911 952.76 610.338 951.467C619.58 950.202 629.644 949.271 638.386 945.861C646.226 942.794 652.792 936.816 655.369 928.593C658.309 919.146 649.94 914.56 642.169 912.08C633.574 909.346 623.931 909.581 615.797 905.416C606.644 900.722 606.771 891.099 607.516 881.994C607.957 876.526 599.431 876.555 598.99 881.994C598.392 889.335 598.255 897.537 602.057 904.142C605.487 910.111 611.857 913.521 618.247 915.481C625.332 917.676 632.839 918.049 639.905 920.303C641.479 920.784 643.001 921.417 644.452 922.194C646.01 923.037 647.392 923.527 647.392 925.33C647.451 928.731 643.364 933.033 640.904 934.924C634.574 939.824 625.332 940.52 617.708 941.784C609.27 943.176 600.793 944.264 592.228 944.93C575.166 946.282 557.81 946.126 540.935 942.97C536.427 942.134 531.964 941.088 527.548 939.834C523.981 938.854 518.395 938.305 517.748 933.954C517.081 929.24 517.562 924.154 517.562 919.352C517.562 913.874 517.562 908.396 517.64 902.917L512.25 907.024L543.022 912.58C550.94 914.011 559.682 916.128 567.346 912.443C575.009 908.758 575.705 900.369 580.556 894.225C585.926 887.424 595.089 885.895 603.223 886.179C608.711 886.355 608.702 877.839 603.223 877.643Z" fill="var(--color-illustration-primary, #382C80)"/>
<path d="M600.185 902.966C602.955 900.321 606.616 898.81 610.446 898.732C612.866 898.664 612.856 894.812 610.446 894.969C605.688 895.198 601.198 897.235 597.892 900.663C597.306 901.304 597.327 902.293 597.94 902.909C598.553 903.524 599.541 903.549 600.185 902.966Z" fill="var(--color-illustration-base, #FFFFFF)"/>
<path d="M609.995 910.787C610.524 907.42 612.999 904.688 616.296 903.829C618.668 903.182 617.649 899.458 615.316 900.154C610.829 901.477 607.503 905.264 606.771 909.885C606.457 911.992 609.642 912.952 610.024 910.787H609.995Z" fill="var(--color-illustration-base, #FFFFFF)"/>
<path d="M621.941 912.188C621.944 910.528 622.615 908.938 623.803 907.778C624.94 906.514 623.46 904.279 621.843 905.308C619.614 906.853 618.375 909.465 618.589 912.168C618.717 914.275 621.941 914.305 621.892 912.168L621.941 912.188Z" fill="var(--color-illustration-base, #FFFFFF)"/>
<path d="M617.198 888.942C617.251 888.032 617.694 887.19 618.413 886.63C620.118 886.113 620.847 886.63 620.599 888.178C620.392 888.943 620.611 889.76 621.171 890.32C621.731 890.88 622.548 891.099 623.313 890.893C624.45 890.491 626.253 889.53 627.478 890.089C628.654 890.03 628.85 890.726 628.086 892.157C627.631 892.469 627.141 892.726 626.626 892.921C624.313 893.97 625.979 898.047 628.38 897.076C631.624 895.773 634.76 892.774 633.025 888.982C631.065 884.63 625.812 885.277 622.137 886.639L624.852 889.354C625.499 886.208 623.568 882.925 620.099 882.837C616.865 882.759 614.817 885.64 614.523 888.58C614.366 890.089 616.933 890.452 617.198 888.942Z" fill="var(--color-illustration-primary, #382C80)"/>
<path d="M697.402 662.788C655.262 701.4 633.466 730.408 586.73 783.406C583.604 786.954 582.467 792.167 578.508 794.764C570.56 799.998 560.035 794.98 551.94 790.08C548.324 787.875 544.335 785.111 543.816 780.907C543.336 776.987 546.129 773.479 548.765 770.509C591.66 722.303 623.059 698.803 672.049 642.551" fill="var(--color-illustration-primary, #382C80)"/>
<path d="M695.118 660.504C685.916 668.883 676.498 676.841 667.609 685.632C659.426 693.746 651.577 702.184 643.844 710.729C626.342 730.084 609.544 750.057 592.316 769.667C587.416 775.262 582.418 780.505 578.596 786.924C575.176 792.706 569.668 792.52 563.837 790.354C560.76 789.126 557.806 787.606 555.017 785.817C553.116 784.67 549.745 783.024 549.137 780.662C548.53 778.3 551.097 775.811 552.479 774.233C554.851 771.538 557.271 768.883 559.702 766.227C576.44 747.94 594.08 730.594 611.808 713.258C633.77 691.698 656.281 670.069 675.459 645.991C679.291 641.189 672.999 634.397 668.54 639.062C657.535 650.597 647.039 662.582 635.985 674.087C626.577 683.887 616.963 693.413 607.29 702.909C588.474 721.353 569.57 739.698 551.793 759.161C547.226 764.159 540.788 769.608 538.916 776.35C536.838 783.828 541.679 789.668 547.559 793.53C558.477 800.693 576.273 807.906 585.652 794.51C587.357 792.079 588.425 789.247 590.209 786.866C592.914 783.24 596.246 780.006 599.205 776.536C604.288 770.656 609.348 764.776 614.386 758.896C623.291 748.508 632.199 738.13 641.11 727.762C650.185 717.243 659.456 706.907 668.923 696.755C678.919 686.033 688.924 674.959 699.685 665.003C702.742 662.17 698.185 657.643 695.118 660.436V660.504Z" fill="var(--color-illustration-primary, #382C80)"/>
<path d="M375.344 309.057C384.409 305.245 396.767 309.919 398.208 319.837C399.991 332.155 403.392 344.18 402.069 356.793C401.89 359.414 401.246 361.982 400.167 364.378C396.434 371.963 387.006 374.413 378.705 376.04C378.46 376.089 380.871 390.681 381.126 391.994C382.106 397.198 382.772 396.963 379.107 401.383C374.492 406.959 364.172 410.124 358.125 407.547C351.932 404.911 350.579 399.109 349.815 392.906C347.306 372.629 347.365 351.746 348.59 331.362" fill="var(--color-illustration-base, #FFFFFF)"/>
<path d="M376.226 312.271C381.636 310.252 388.594 311.007 392.465 315.711C394.611 318.318 394.679 321.64 395.169 324.835C395.885 329.49 396.777 334.106 397.404 338.77C398.054 343.192 398.332 347.66 398.237 352.128C398.119 356.048 397.904 360.624 395.512 363.888C391.592 369.288 383.576 370.532 377.5 371.679C375.958 372.101 374.752 373.303 374.325 374.844C373.492 377.304 374.707 380.91 375.06 383.36C375.511 386.428 375.952 389.505 376.481 392.553C376.677 393.709 377.461 395.385 377.167 396.473C377.431 395.493 376.589 396.963 376.451 397.11C375.636 398.087 374.756 399.007 373.815 399.864C370.65 402.343 365.828 404.058 361.791 403.431C357.194 402.715 355.832 398.433 355.176 394.425C354.218 387.604 353.674 380.731 353.549 373.845C353 359.684 353.323 345.523 353.99 331.371C354.313 324.404 343.69 324.511 343.21 331.371C342.277 344.364 342.084 357.4 342.632 370.415C342.916 376.794 343.504 383.155 344.258 389.525C344.856 394.611 345.307 399.932 347.767 404.528C352.49 413.397 363.084 415.024 371.855 411.78C376.489 410.161 380.567 407.258 383.615 403.411C386.251 400.03 387.016 397.276 386.183 393.062C385.605 390.073 385.026 387.104 384.517 384.105C384.213 382.273 383.899 380.44 383.605 378.598C383.488 377.892 383.449 377.137 383.272 376.442C383.096 375.746 383.36 376.696 383.272 376.696C382.91 376.696 384.076 374.09 383.076 377.255L379.911 380.44C388.407 378.647 397.923 375.971 402.902 368.219C408.615 359.341 406.616 346.307 405.018 336.516C404.038 330.636 403.009 324.707 401.814 318.876C401.106 315.215 399.207 311.89 396.414 309.419C390.315 304.273 381.882 302.895 374.462 305.833C370.542 307.41 372.159 313.771 376.226 312.261V312.271Z" fill="var(--color-illustration-primary, #382C80)"/>
<path d="M336.154 361.604C337.178 364.194 338.636 366.59 340.466 368.69C350.501 379.94 359.723 371.208 358.674 358.713C358.067 351.422 356.714 343.621 360.164 337.153C360.463 336.485 360.924 335.902 361.506 335.458C363.329 334.204 365.916 335.723 366.945 337.692C367.974 339.662 368.121 341.975 369.082 343.974C368.366 338.231 368.866 331.763 372.943 327.657C376.461 324.1 381.832 323.149 386.839 323.061C391.847 322.973 396.943 323.512 401.784 322.228C409.624 320.15 418.141 308.91 413.868 300.786C412.754 298.442 410.552 296.802 407.988 296.405C405.44 296.199 402.725 298.169 402.686 300.727C401.128 297.493 399.53 294.21 397.09 291.574C394.65 288.937 391.21 287.026 387.604 287.301C383.997 287.575 380.577 290.545 380.597 294.161C378.163 291.841 374.621 291.107 371.466 292.269C368.31 293.43 366.09 296.285 365.74 299.629C362.447 297.895 358.88 296.111 355.215 296.513C351.55 296.915 347.963 300.58 349.139 304.108C347.845 300.188 337.193 316.564 336.85 317.426C332.111 329.486 331.18 342.708 334.184 355.313C334.682 357.457 335.34 359.56 336.154 361.604Z" fill="var(--color-illustration-primary, #382C80)"/>
<path d="M333.224 363.319C335.742 369.199 340.162 375.52 346.679 377.275C352.05 378.725 357.175 376.069 360.017 371.473C363.565 365.74 362.82 359.282 362.457 352.853C362.261 349.452 362.104 345.915 362.996 342.592C363.398 341.764 363.726 340.901 363.976 340.015C364.476 339.388 364.28 339.26 363.388 339.623C362.585 339.466 362.349 339.623 362.673 339.986C362.32 341.064 363.868 344.249 364.29 345.287C365.221 347.63 367.122 349.207 369.778 348.874C372.022 348.57 374.364 346.444 374.119 343.974C373.717 340.113 373.414 335.331 375.922 332.038C378.431 328.745 383.135 328.363 386.869 328.265C396.6 328.02 405.656 328.696 413.055 321.238C418.846 315.358 422.708 305.94 418.396 298.149C416.298 294.357 412.437 291.358 407.988 291.191C403.196 291.005 398.335 294.484 397.649 299.335L407.204 298.091C403.843 291.172 399.286 283.91 391.103 282.411C387.427 281.614 383.586 282.453 380.577 284.709C377.568 286.966 375.687 290.419 375.423 294.171L384.164 290.545C375.952 283.606 362.604 286.85 360.752 298.287L368.288 295.219C363.055 292.485 357.077 289.898 351.217 292.367C345.923 294.379 342.91 299.972 344.141 305.499L353.539 301.53C350.942 295.65 344.327 299.247 341.387 302.432C338.212 305.927 335.402 309.736 332.998 313.8C329.372 319.905 328.157 328.01 327.52 334.968C326.585 344.474 327.825 354.069 331.146 363.025C333.547 369.19 343.602 366.504 341.162 360.262C338.69 353.776 337.488 346.876 337.624 339.937C337.693 333.478 338.604 325.893 341.338 319.994C342.522 317.804 343.899 315.724 345.454 313.78C346.356 312.536 347.277 311.321 348.296 310.174C348.816 309.586 349.521 309.047 349.992 308.41C350.315 307.969 349.903 308.782 349.943 308.41C349.854 309.272 343.769 304.696 344.68 306.734C347.159 312.291 355.254 308.175 354.078 302.814C353.422 299.776 362.761 303.931 363.133 304.118C365.76 305.49 370.111 304.51 370.66 301.06C371.14 298.022 373.992 295.298 376.942 297.836C378.429 299.229 380.594 299.623 382.478 298.844C384.361 298.065 385.615 296.257 385.683 294.22C385.958 291.123 390.75 293.083 391.985 294.014C394.925 296.268 396.571 300.178 398.149 303.441C399.991 307.254 407.067 306.617 407.704 302.197C408.027 299.894 407.782 301.824 407.478 301.717C407.844 301.798 408.181 301.974 408.458 302.226C409.211 303.035 409.679 304.067 409.791 305.166C410.056 307.695 408.615 310.36 407.145 312.31C402.598 318.328 396.248 318.004 389.348 317.955C382.253 317.906 374.531 318.788 369.298 324.129C364.064 329.47 363.241 337.114 364.074 344.092L373.874 342.769C372.502 339.496 372.11 335.821 369.494 333.204C366.877 330.587 363.192 329.558 359.89 331.087C353.363 334.096 353.128 344.592 353.588 350.687C354 356.136 356.528 364.113 352.324 368.749C347.424 374.207 340.711 363.77 339.065 360.036C337.32 355.881 331.528 359.36 333.224 363.319Z" fill="var(--color-illustration-primary, #382C80)"/>
<path d="M418.151 447.158C425.011 459.497 429.372 473.471 431.871 487.446C435.908 509.986 435.791 532.967 437.584 555.762C438.074 561.956 438.75 568.286 441.504 573.882C443.072 577.097 445.316 580.095 445.914 583.682C449.403 604.507 411.007 609.162 397.718 610.887C365.28 615.179 334.998 610.123 304.373 597.843C296.533 594.697 288.301 590.581 284.587 583.006C281.049 575.793 282.538 567.042 285.772 559.682C289.006 552.322 293.848 545.766 297.248 538.485C304.245 523.52 304.716 506.546 307.215 490.465C309.944 472.656 315.705 455.446 324.247 439.583C329.735 429.45 336.576 419.14 336.193 407.625C336.086 404.499 335.468 401.196 336.772 398.345C338.79 393.915 344.612 392.592 349.414 393.396C354.216 394.199 358.694 396.502 363.526 397.12C372.453 398.256 382.655 393.778 389.927 399.08C398.747 405.538 395.474 421.1 403.97 428.009" fill="var(--color-illustration-base, #FFFFFF)"/>
<path d="M415.141 448.913C426.108 469.071 429.538 492.033 431.008 514.651C431.772 526.293 432.193 537.955 432.968 549.598C433.185 555.153 433.738 560.691 434.624 566.179C435.604 571.344 437.691 575.676 440.082 580.282C446.511 592.61 431.85 598.833 422.305 601.646C409.261 605.487 395.62 607.124 382.125 607.643C360.291 608.486 338.701 604.811 318.053 597.843C309.311 594.903 298.6 591.836 291.936 585.035C284.36 577.302 287.771 565.993 292.259 557.595C297.404 547.961 303.196 539.2 306.146 528.547C309.027 518.179 309.968 507.419 311.408 496.786C312.807 485.988 315.249 475.351 318.7 465.024C322.188 454.763 326.99 445.296 332.243 435.859C337.192 426.98 341.828 417.435 341.387 407.008C341.21 402.843 340.407 399.08 345.454 398.433C349.903 397.874 354.362 400.295 358.556 401.373C363.525 402.686 368.356 402.529 373.462 402.049C377.382 401.677 382.282 400.765 385.928 402.696C391.935 405.861 391.915 415.926 393.944 421.58C395.162 425.412 397.358 428.861 400.314 431.586C405.302 435.908 412.623 428.646 407.605 424.295C401.725 419.072 402.186 409.105 399.001 402.245C394.522 392.602 384.879 390.485 375.128 391.416C369.728 391.906 364.858 392.396 359.585 390.759C354.46 389.201 349.491 387.378 344.052 388.084C339.525 388.672 335.085 390.808 332.665 394.846C329.617 399.922 331.41 405.626 330.852 411.094C329.734 422.129 322.169 431.792 317.377 441.474C312.134 452.039 308.056 463.142 305.215 474.589C299.59 497.315 301.295 521.785 289.427 542.659C283.772 552.597 277.01 562.965 277.716 574.921C278.363 585.838 285.262 593.698 294.641 598.598C304.813 603.909 316.201 607.496 327.294 610.466C338.544 613.509 350.053 615.498 361.673 616.404C379.478 617.61 397.364 616.333 414.818 612.612C426.578 610.191 442.875 606.075 448.618 594.158C450.015 591.295 450.63 588.114 450.402 584.937C450.02 579.38 446.639 575.46 444.63 570.462C442.415 564.964 442.062 558.878 441.621 553.028C441.151 546.864 440.808 540.69 440.465 534.516C439.112 509.957 437.691 484.604 428.646 461.437C426.512 455.931 424.011 450.575 421.159 445.404C418.973 441.484 413.005 444.983 415.141 448.913Z" fill="var(--color-illustration-primary, #382C80)"/>
<path d="M371.522 414.25C381.322 412.672 391.18 416.984 399.628 422.256C421.315 435.771 437.789 455.772 450.902 477.43C457.534 488.578 463.576 500.066 469.002 511.848C473.755 521.962 477.028 536.221 484.418 544.511C507.408 570.354 530.282 596.314 553.41 622.049C570.638 641.208 591.218 664.463 617.707 669.648C623.137 670.706 629.614 672.725 630.849 678.115C631.731 681.927 629.311 685.876 626.037 688.013C623.176 689.865 615.169 689.453 614.973 693.511C614.865 695.667 616.296 697.578 617.756 699.175C623.708 705.682 631.229 710.554 639.601 713.326C642.541 714.306 645.618 715.031 648.029 716.933C652.733 720.637 653.34 728.026 650.439 733.269C647.539 738.512 641.933 741.785 636.161 743.363C639.924 745.186 641.512 750.135 640.257 754.143C639.003 758.152 635.436 761.092 631.496 762.522C627.556 763.953 623.274 764.012 619.089 763.737C621.275 769.02 618.433 775.576 613.444 778.359C608.456 781.142 601.978 780.476 597.108 777.487C599.362 781.936 595.54 787.189 591.228 789.678C578.331 797.107 562.759 789.678 551.459 782.367C505.399 752.507 476.891 708.005 444.453 665.551C409.655 620.005 382.643 569.008 364.515 514.631" fill="var(--color-illustration-base, #FFFFFF)"/>
<path d="M371.522 417.523C387.849 415.485 403.333 428.009 414.711 438.299C426.471 448.942 436.33 461.516 444.787 474.912C453.735 489.093 462.163 504.41 468.131 520.11C470.718 526.911 473.031 533.928 476.578 540.308C480.577 547.471 486.829 553.351 492.258 559.467C515.847 586.142 538.828 613.533 563.377 639.327C573.422 649.881 584.437 660.073 597.393 666.963C603.717 670.275 610.462 672.712 617.444 674.205C619.933 674.763 622.853 675.371 624.901 676.988C627.655 679.173 626.156 682.976 623.255 684.309C620.825 685.436 617.904 685.348 615.415 686.533C612.593 687.886 610.515 690.247 610.378 693.511C610.133 701.704 620.756 708.828 626.92 712.523C630.546 714.671 634.393 716.419 638.396 717.737C641.865 718.883 645.844 719.598 647.216 723.45C650.087 731.505 641.493 737.111 634.976 739.012C631.32 740.09 630.468 745.323 633.898 747.254C637.328 749.185 636.348 753.771 633.721 756.074C629.801 759.573 624.059 759.485 619.11 759.2C616.336 759.044 613.837 762.219 614.788 764.894C616.048 768.36 614.722 772.236 611.603 774.204C607.869 776.634 603.018 775.664 599.392 773.587C596.325 771.832 591.248 774.841 592.816 778.634C594.992 783.906 586.995 787.219 583.016 787.953C577.401 788.992 571.54 787.473 566.356 785.357C555.41 780.897 545.384 773.254 536.251 765.864C517.797 750.949 501.872 733.24 487.133 714.718C472.198 695.961 457.978 676.557 443.69 657.31C428.515 636.844 414.869 615.287 402.863 592.816C389.249 567.375 377.829 540.818 368.729 513.436C366.965 508.115 358.488 510.408 360.282 515.768C377.723 567.892 403.2 616.97 435.791 661.23C451.059 681.908 466.288 702.733 482.36 722.793C498.432 742.854 515.955 761.66 536.466 777.242C547.658 785.739 560.339 794.882 574.618 796.842C581.331 797.763 588.592 796.842 594.335 793.001C599.637 789.463 604.135 782.799 601.43 776.341L594.855 781.388C601.528 785.219 610.339 786.101 616.905 781.495C622.785 777.34 625.891 769.53 623.422 762.581L619.09 768.265C627.91 768.775 637.622 767.207 642.796 759.249C647.049 752.703 645.364 743.442 638.435 739.522L637.357 747.764C644.59 745.657 651.744 741.443 654.997 734.328C657.937 727.831 657.251 719.52 651.998 714.375C649.235 711.67 645.53 710.455 641.944 709.318C637.953 708.044 634.14 706.269 630.595 704.036C627.368 701.998 624.406 699.569 621.775 696.804C621.257 696.064 620.673 695.371 620.031 694.736L619.737 694.275C619.257 694.001 618.953 694.275 618.825 695.138C618.767 695.079 622.53 693.981 622.638 693.962C629.272 692.413 635.378 687.69 635.583 680.242C635.799 672.549 629.253 668.1 622.608 666.179C615.425 664.101 608.575 662.788 601.862 659.319C594.964 655.606 588.521 651.104 582.663 645.903C570.404 635.24 559.761 622.804 548.922 610.76C535.777 596.171 522.691 581.536 509.663 566.856C503.13 559.512 496.597 552.182 490.063 544.865C484.497 538.642 481.116 532.027 478.156 524.285C471.851 507.733 464.075 491.78 454.92 476.617C445.493 460.937 434.34 446.11 420.836 433.782C407.557 421.708 389.564 408.302 370.611 411.085C366.995 411.614 367.808 417.945 371.483 417.523H371.522Z" fill="var(--color-illustration-primary, #382C80)"/>
<path d="M697.127 656.124C704.621 664.289 709.88 674.25 712.396 685.044C714.209 692.884 713.836 702.507 707.202 706.986C700.342 711.631 690.983 707.966 683.907 703.595C662.675 690.464 645.291 671.953 633.515 649.94C631.467 646.108 629.595 642.041 629.341 637.7C629.086 633.358 630.928 628.645 634.75 626.577C638.798 624.391 643.796 625.597 648.108 627.233C659.346 631.397 669.722 637.596 678.713 645.52" fill="var(--color-illustration-secondary, #7F72FF)"/>
<path d="M695.02 658.25C699.883 663.731 703.646 670.095 706.103 676.998C708.161 682.711 709.896 689.13 709.043 695.245C706.672 711.856 688.669 700.88 680.78 695.412C669.681 687.68 659.776 678.362 651.38 667.756C647.277 662.554 643.566 657.054 640.277 651.302C637.474 646.451 632.564 639.248 635.259 633.427C638.415 626.567 650.253 633.427 654.644 635.544C662.039 639.158 668.934 643.717 675.155 649.107C680.055 653.38 687.317 646.236 682.358 641.904C675.238 635.591 667.284 630.285 658.72 626.136C651.194 622.549 641.512 617.835 633.24 621.628C625.116 625.342 622.931 635.103 625.087 643.119C627.311 651.371 632.603 659.27 637.435 666.237C647.309 680.497 659.597 692.923 673.744 702.958C680.359 707.652 687.797 712.523 695.99 713.66C703.83 714.747 711.67 711.7 715.266 704.389C719.088 696.627 717.599 687.317 714.874 679.487C711.476 670.025 706.184 661.355 699.322 654.007C696.705 651.126 692.462 655.389 695.069 658.27L695.02 658.25Z" fill="var(--color-illustration-primary, #382C80)"/>
<path d="M667.169 663.366C666.015 661.97 665.049 660.428 664.297 658.78C661.72 652.37 668.501 647.128 672.137 642.629L685.642 625.969C719.883 583.702 754.389 541.689 788.473 499.255C805.407 478.185 822.371 457.115 841.04 437.515C843.833 434.575 846.724 431.635 850.272 429.675C854.251 427.48 858.817 426.647 863.296 425.844L924.889 414.848L917.725 463.279C917.137 467.278 916.5 471.384 914.423 474.844C912.747 477.617 910.248 479.743 907.788 481.89L771.176 599.313L722 641.581L697.411 662.68C691.806 667.492 683.554 679.732 677.057 670.618" fill="var(--color-illustration-secondary, #7F72FF)"/>
<path d="M669.745 661.857C668.373 660.005 666.59 657.937 666.805 655.487C667.021 653.037 668.765 651.145 670.206 649.46C673.626 645.54 676.988 641.62 680.29 637.582C688.176 627.945 696.111 618.345 704.094 608.78C720.108 589.494 736.075 570.168 751.997 550.803C767.918 531.438 783.788 511.943 799.605 492.317C814.648 473.775 829.74 454.851 846.91 438.221C851.81 433.429 857.298 431.753 863.942 430.557L884.395 426.902L926.143 419.444L920.263 413.564L914.814 450.226C913.942 456.106 913.452 462.211 911.972 467.974C910.541 473.56 906.396 476.725 902.172 480.331L844.626 529.792L730.368 628.086L698.822 655.193C694.99 658.495 691.452 661.965 687.797 665.444C686.611 666.59 684.857 668.609 683.132 668.981C681.701 669.295 681.398 668.501 680.447 667.266C678.84 665.208 675.351 665.62 673.665 667.266C671.617 669.226 672.088 672.019 673.665 674.048C680.016 682.241 688.855 677.782 694.902 671.921C703.134 663.944 711.876 656.584 720.578 649.107L781.015 597.167L902.025 493.14C907.121 488.759 913.05 484.614 917.146 479.234C921.243 473.854 921.968 466.994 922.948 460.398L929.475 416.112C930.024 412.388 927.446 409.575 923.595 410.232L884.581 417.18L865.442 420.62C859.63 421.659 853.682 422.531 848.419 425.285C843.156 428.039 838.923 432.752 834.924 437.104C830.661 441.749 826.496 446.502 822.351 451.255C814.041 460.751 806.005 470.492 798.076 480.302C764.926 521.325 731.933 562.485 699.096 603.782C689.95 615.307 680.783 626.825 671.598 638.337C668.452 642.257 664.297 645.932 662.072 650.528C659.504 655.84 661.229 660.455 664.62 664.895C666.903 667.894 672.058 664.993 669.765 661.886L669.745 661.857Z" fill="var(--color-illustration-secondary, #7F72FF)"/>
<path d="M873.38 456.615C822.057 508.908 770.636 561.132 718.344 612.435C703.565 626.939 688.708 641.365 673.92 655.859C670.382 659.328 675.782 664.679 679.359 661.298C732.279 610.642 784.062 558.682 835.022 506.056C849.428 491.18 863.74 476.212 877.956 461.153C880.798 458.125 876.31 453.607 873.38 456.586V456.615Z" fill="var(--color-illustration-primary, #382C80)"/>
<path d="M896.527 445.032L896.89 444.503C897.299 443.795 897.528 442.997 897.556 442.18C897.561 440.789 896.81 439.506 895.596 438.828C894.383 438.128 892.889 438.128 891.676 438.828C890.994 439.239 890.43 439.82 890.039 440.514C889.932 440.7 889.834 440.896 889.736 441.082C889.228 442.003 889.088 443.081 889.344 444.101C889.921 446.182 892.072 447.405 894.155 446.835C895.12 446.521 895.948 445.884 896.498 445.032H896.527Z" fill="var(--color-illustration-primary, #382C80)"/>
<path d="M586.426 238.399C590.758 246.033 589.827 256.411 588.21 264.663C586.338 274.218 582.261 284.645 586.544 294.063C587.524 296.238 590.552 296.875 592.551 296.023C594.893 295.043 595.736 292.75 595.334 290.339C593.668 280.284 597.579 270.739 598.274 260.743C599.116 251.716 597 242.66 592.247 234.939C589.984 231.225 584.26 234.547 586.367 238.35L586.426 238.399Z" fill="var(--color-illustration-primary, #382C80)"/>
<path d="M667.345 390.308C664.042 382.88 656.349 378.676 648.725 376.843C641.394 375.079 632.633 375.52 626.684 370.199C622.637 366.573 615.003 371.483 618.658 376.392C623.833 383.331 631.584 384.83 639.787 385.487C647.627 386.104 657.339 385.742 661.661 393.601C663.728 397.355 668.962 394.062 667.296 390.308H667.345Z" fill="var(--color-illustration-primary, #382C80)"/>
<path d="M409.772 599.539C410.869 592.443 416.837 587.779 422.071 583.525C427.951 578.694 433.909 573.912 440.122 569.502C452.382 560.809 465.602 553.822 480.469 550.793C485.937 549.676 483.566 541.591 478.185 542.503C461.584 545.315 446.825 554.067 433.507 564.063C426.912 569.031 420.522 574.274 414.319 579.743C408.488 584.858 403.539 590.611 402.814 598.608C402.431 602.528 409.164 603.508 409.772 599.588V599.539Z" fill="var(--color-illustration-primary, #382C80)"/>
<path d="M464.152 494.218C464.573 485.28 467.827 476.578 472.57 469.091C477.313 461.603 483.82 455.665 489.583 448.932C492.219 445.845 488.681 440.112 484.908 442.866C469.228 454.449 457.468 474.5 457.694 494.218C457.743 498.393 463.956 498.363 464.152 494.218Z" fill="var(--color-illustration-primary, #382C80)"/>
<path d="M402.617 449.638C397.786 452.578 391.298 456.282 388.221 461.231C386.467 464.063 387.594 466.739 388.907 469.444C390.22 472.148 391.425 475.324 393.454 477.558C394.594 478.721 396.278 479.168 397.844 478.724C401.823 477.48 405.469 474.216 409.124 472.178C413.126 469.986 417.248 468.023 421.472 466.298C423.765 465.318 425.343 463.289 424.657 460.692C424.069 458.458 421.355 456.655 419.052 457.507C414.806 459.084 410.668 460.937 406.664 463.054C404.832 464.034 403.038 465.014 401.265 466.102C399.491 467.19 397.345 469.355 395.443 470.022L399.834 471.188C398.805 470.1 398.138 467.993 397.423 466.651C397.119 466.082 395.875 464.563 395.933 463.897C395.757 465.69 397.031 464.103 397.541 463.554C400.165 460.671 403.059 458.045 406.184 455.714C409.791 453.117 406.566 447.198 402.617 449.618V449.638Z" fill="var(--color-illustration-primary, #382C80)"/>
<path d="M490.709 294.367C479.234 264.241 466.503 234.587 454.263 204.795C452.918 201.744 451.798 198.6 450.912 195.387C450.265 192.809 449.932 189.036 450.392 187.615C450.585 186.945 450.919 186.323 451.372 185.792C451.372 185.792 452.852 184.273 453.499 183.754C457.86 180.285 464.602 178.06 470.257 176.375C486.731 171.475 503.979 169.113 520.972 166.839C528.351 165.859 535.74 164.958 543.11 163.899C551.93 162.645 560.554 160.459 569.227 158.392C604.223 150.052 639.052 140.83 673.332 129.913C678.37 128.306 676.272 120.446 671.137 121.945C639.268 131.246 607.329 140.291 575.097 148.249C564.592 150.836 554.076 153.766 543.384 155.452C536.172 156.588 528.92 157.49 521.687 158.49C503.851 160.959 485.751 163.439 468.473 168.642C462.054 170.602 455.312 172.876 449.853 176.825C443.444 181.441 441.582 187.164 442.993 195.004C444.522 203.56 449.03 211.792 452.372 219.749C455.998 228.387 459.62 237.014 463.24 245.631C470.414 262.713 477.568 279.814 485.202 296.689C486.603 299.786 491.964 297.571 490.739 294.357L490.709 294.367Z" fill="var(--color-illustration-base, #FFFFFF)"/>
<path d="M682.192 160.048C684.487 162.007 685.811 164.87 685.818 167.888C685.818 172.562 693.187 172.562 693.07 167.888C693.011 162.965 690.871 158.298 687.18 155.04C683.779 152.1 678.791 157 682.192 160.028V160.048Z" fill="var(--color-illustration-base, #FFFFFF)"/>
<path d="M742.785 139.184C759.451 131.207 776.111 123.164 792.765 115.056C809.317 106.961 826.095 99.1801 842.412 90.4973C844.656 89.3017 842.686 86.1069 840.452 87.1359C823.645 94.7995 807.23 103.335 790.697 111.567C774.165 119.799 757.642 128.08 741.168 136.42C739.326 137.4 740.943 140.056 742.785 139.174V139.184Z" fill="var(--color-illustration-primary, #382C80)"/>
<path d="M738.366 124.052C738.856 129.932 738.287 136.224 735.504 141.565C735.182 142.141 735.139 142.832 735.387 143.443C735.634 144.055 736.146 144.521 736.778 144.711C742.222 146.398 747.513 148.542 752.595 151.12C755.104 152.463 757.319 148.699 754.83 147.288C749.585 144.162 743.875 141.892 737.915 140.565L739.414 143.202C741.374 136.812 742.521 130.716 741.845 124.033C741.619 121.828 738.18 121.779 738.366 124.033V124.052Z" fill="var(--color-illustration-primary, #382C80)"/>
<path d="M770.481 211.811C795.725 213.722 821.058 214.849 846.372 213.889C849.233 213.781 849.253 209.342 846.372 209.43C821.068 210.175 795.755 210.322 770.481 208.548C768.383 208.401 768.403 211.655 770.481 211.811Z" fill="var(--color-illustration-primary, #382C80)"/>
<path d="M774.4 198.797C771.224 201.355 768.118 204.216 764.6 206.353C763.98 206.734 763.566 207.375 763.474 208.097C763.383 208.819 763.624 209.544 764.129 210.067C767.892 213.987 771.607 218.054 775.478 221.915C777.634 224.071 780.848 220.818 778.81 218.583C775.125 214.546 771.254 210.665 767.471 206.725V210.067C770.293 206.882 773.772 204.187 776.967 201.404C778.78 199.816 776.173 197.327 774.36 198.797H774.4Z" fill="var(--color-illustration-primary, #382C80)"/>
<path d="M637.034 73.8765C639.598 61.0331 644.253 48.6975 650.813 37.3617C652.047 35.2155 648.755 33.2947 647.51 35.4017C640.737 47.0071 635.976 59.6741 633.427 72.8671C632.967 75.2191 636.563 76.2285 637.034 73.8471V73.8765Z" fill="var(--color-illustration-primary, #382C80)"/>
<path d="M623.911 69.9171C626.802 73.6019 629.791 77.2671 632.525 81.0499C633.133 82.0323 634.405 82.3644 635.416 81.8045C640.6 78.7763 645.353 74.5721 649.989 70.7599C651.949 69.1821 649.352 65.8011 647.294 67.2711C642.394 70.7599 637.121 74.2781 632.858 78.4921H635.798C632.584 74.8661 629.526 71.0833 626.429 67.3495C624.93 65.5365 622.451 68.1139 623.872 69.9171H623.911Z" fill="var(--color-illustration-primary, #382C80)"/>
<path d="M687.514 80.56C690.059 73.6736 693.805 67.293 698.578 61.7146L695.089 60.2642C695.932 67.771 696.716 75.7678 695.716 83.2844C695.716 84.3562 696.429 85.2974 697.461 85.5874C703.542 87.1729 709.796 88.0024 716.081 88.057L713.954 84.3624C710.519 89.692 707.779 95.4389 705.801 101.463C705.075 103.825 708.741 105.442 709.848 103.169C712.563 97.6708 715.111 92.0946 718.198 86.7928C718.626 86.0319 718.622 85.1021 718.188 84.3446C717.754 83.5871 716.954 83.1137 716.081 83.0982C710.241 82.92 704.431 82.1982 698.725 80.9422L700.479 83.2354C700.038 75.5228 700.185 67.9082 699.176 60.2152C698.98 58.6864 696.961 57.2262 695.687 58.7648C690.559 64.9202 686.627 71.9798 684.094 79.58C683.359 81.7752 686.72 82.6376 687.514 80.56Z" fill="var(--color-illustration-primary, #382C80)"/>
<path d="M508.713 121.612C506.547 117.584 513.034 115.948 515.631 117.192C518.571 118.604 520.659 121.465 522.599 123.954C524.05 125.797 527.323 123.308 525.882 121.416C522.491 116.977 517.562 111.156 511.182 112.596C506.429 113.704 502.754 118.907 505.381 123.494C506.606 125.63 509.84 123.729 508.673 121.534L508.713 121.612Z" fill="var(--color-illustration-primary, #382C80)"/>
<path d="M753.713 285.047C755.165 285.023 756.511 285.803 757.211 287.075C758.054 288.477 757.75 289.81 757.545 291.329C757.339 292.848 759.661 293.7 760.641 292.612C762.601 290.417 762.082 286.968 760.504 284.694C758.944 282.238 756.095 280.917 753.213 281.313C751.057 281.617 751.625 285.047 753.713 285.047Z" fill="var(--color-illustration-primary, #382C80)"/>
<path d="M949.193 437.192C935.061 477.097 919.224 519.512 884.513 546.226C882.484 547.785 884.444 551.303 886.561 549.725C922.478 523.059 938.256 478.734 952.466 438.093C953.181 436.035 949.928 435.153 949.202 437.192H949.193Z" fill="var(--color-illustration-primary, #382C80)"/>
<path d="M945.9 512.897L950.996 504.498C952.349 502.264 948.84 500.216 947.507 502.45L942.49 510.907C941.196 513.103 944.577 515.072 945.9 512.867V512.897Z" fill="var(--color-illustration-primary, #382C80)"/>
<path d="M678.194 884.444C677.851 881.122 677.341 877.467 678.478 874.233C679.458 871.381 682.241 868.353 685.563 869.431C692.923 871.744 689.082 882.239 687.2 886.855C686.357 888.943 689.219 890.971 690.993 889.795C695.197 886.943 701.302 882.592 706.535 885.601C712.582 889.09 707.172 896.959 704.272 900.644C702.233 903.221 705.555 906.837 707.976 904.348C710.975 901.271 717.051 901.408 719.295 905.436C721.794 909.905 717.835 915.079 713.327 915.687L715.355 920.489C717.874 918.931 721.451 916.804 724.577 917.862C726.792 918.607 728.419 921.136 726.968 923.233C725.116 925.908 728.928 928.192 731.133 926.447C738.327 920.665 748.029 927.564 746.049 936.179C745.314 939.383 750.106 940.726 750.949 937.541C752.683 931.497 750.397 925.018 745.255 921.4C739.689 917.578 732.447 918.578 727.38 922.664L731.545 925.879C734.211 921.959 732.525 916.833 728.889 914.207C723.852 910.571 717.423 912.992 712.7 915.922C709.995 917.598 711.906 921.106 714.728 920.724C722.676 919.656 727.939 909.866 723.842 902.751C719.922 895.891 709.642 895.068 704.242 900.614L707.947 904.319C712.562 898.439 718.06 889.08 711.22 882.602C704.379 876.124 694.785 880.936 688.356 885.307L692.149 888.247C693.854 883.415 695.687 878.006 693.982 872.89C692.747 869.186 689.709 865.854 685.74 865.178C681.771 864.501 678.164 866.824 676.116 870.078C673.353 874.39 673.803 879.652 674.382 884.503C674.666 886.875 678.419 886.943 678.164 884.503L678.194 884.444Z" fill="var(--color-illustration-primary, #382C80)"/>
<path d="M428.695 943.558C423.678 941.49 421.61 933.484 425.843 929.652C430.077 925.82 437.339 928.427 438.828 933.572C439.554 936.061 443.915 935.718 443.562 932.925C442.641 925.595 452.264 923.409 457.85 924.105L459.967 925.32C458.27 922.372 457.822 918.867 458.724 915.586C459.626 912.306 461.803 909.523 464.769 907.857C466.543 906.877 466.17 904.652 464.769 903.603C461.731 901.31 461.604 896.861 463.113 893.656C465.024 889.609 469.542 888.1 473.775 888.404C483.311 889.09 489.014 897.841 492.993 905.524C494.375 908.19 498.256 905.848 496.991 903.192C491.768 892.255 481.576 880.475 467.983 884.062C457.546 886.816 453.117 900.977 462.29 907.857V903.564C456.489 906.855 453.025 913.121 453.323 919.783C453.45 922.302 454.116 926.839 456.361 928.437C458.605 930.034 461.447 928.29 462.241 925.957C464.808 918.117 452.646 918.735 448.442 920.214C442.562 922.272 437.731 926.986 438.858 933.572L443.503 932.288C440.749 924.291 429.362 920.391 422.923 926.702C416.68 932.817 419.846 944.077 427.823 946.792C429.91 947.507 430.665 944.352 428.715 943.558H428.695Z" fill="var(--color-illustration-primary, #382C80)"/>
<path d="M686.73 928.711C692.61 927.652 697.059 931.288 699.529 936.227C700.509 938.276 703.733 936.835 703.164 934.699C701.204 927.319 692.776 923.478 685.681 924.899C683.192 925.398 684.26 929.132 686.73 928.691V928.711Z" fill="var(--color-illustration-primary, #382C80)"/>
<path d="M716.119 294.729C713.095 330.833 703.709 366.118 688.395 398.952C686.435 403.156 692.756 406.792 694.599 402.588C709.608 368.394 718.837 331.946 721.911 294.729C722.215 291.015 716.423 291.035 716.119 294.729Z" fill="var(--color-illustration-base, #FFFFFF)"/>
</svg>
