<svg width="1000" height="1000" viewBox="0 0 1000 1000" fill="none" xmlns="http://www.w3.org/2000/svg">
<path d="M137.899 507.321C148.679 542.405 177.952 568.081 201.325 596.344C228.618 629.36 248.865 667.737 268.808 705.8C305.96 776.742 339.201 850.84 377.931 920.616C379.999 924.36 382.37 928.329 386.153 930.102C389.358 931.602 393.013 931.22 396.355 930.71C430.341 925.624 462.015 911.237 491.111 893.392C498.304 888.982 505.889 883.592 507.977 875.154C508.731 872.067 508.594 868.47 506.624 865.863C505.203 863.982 503.057 862.874 500.989 861.845C488.367 855.554 469.629 851.301 458.957 841.961C444.904 829.652 437.24 805.201 430.821 788.257C402.428 713.244 369.1 640.192 331.057 569.58C296.659 505.723 254.617 440.357 190.917 409.497" fill="white"/>
<path d="M135.048 508.105C146.534 544.492 175.326 570.188 198.807 598.872C225.865 631.918 245.847 670.02 265.447 707.731C286.213 747.558 305.696 788.091 325.59 828.271C335.605 848.527 345.729 868.735 356.205 888.756C361.432 898.719 366.743 908.637 372.14 918.509C376.334 926.153 380.529 934.473 390.289 935.1C400.05 935.728 411.046 932.258 420.356 929.71C430.12 927.022 439.701 923.709 449.04 919.793C458.459 915.846 467.67 911.42 476.637 906.533C484.967 902.006 493.67 897.429 501.137 891.52C507.399 886.62 512.897 879.417 512.544 871.018C512.182 862.1 504.44 858.631 497.256 855.603C481.38 848.88 464.201 844.882 453.94 829.78C444.14 815.315 439.113 798.087 432.949 781.897C425.083 761.219 416.838 740.701 408.214 720.343C390.783 679.124 371.836 638.585 351.374 598.725C317.583 532.81 279.834 461.623 216.575 419.385C209.05 414.345 201.177 409.845 193.015 405.92C188.194 403.617 183.95 410.722 188.792 413.143C253.785 445.62 293.759 510.006 327.177 571.903C367.259 646.098 401.657 722.989 431.342 801.889C436.8 816.413 442.837 832.093 454.097 843.216C465.779 854.77 482.694 857.916 497.119 864.629C501.461 866.657 505.106 868.647 503.979 874.066C503.058 878.466 499.785 882.004 496.423 884.777C489.318 890.657 480.577 895.038 472.511 899.477C454.773 909.14 436.124 917.196 416.573 922.409C411.82 923.674 407.008 924.771 402.177 925.692C396.944 926.672 390.084 928.868 385.683 924.879C382.577 922.057 380.705 917.333 378.716 913.727C375.998 908.761 373.306 903.806 370.64 898.86C360.566 880.073 350.844 861.101 341.299 842.02C321.856 803.251 303.079 764.139 283.362 725.518C264.742 689.022 245.935 652.018 222.494 618.345C211.616 602.665 199.317 588.298 186.567 574.157C174.278 560.535 161.802 546.815 152.169 531.125C147.372 523.418 143.535 515.154 140.742 506.517C139.586 502.911 133.882 504.439 135.039 508.085L135.048 508.105Z" fill="#382C80"/>
<path d="M130.344 490.014C142.319 540.092 173.728 583.359 204.824 623.823C215.604 637.847 232.264 652.321 238.644 668.599C245.504 686.073 247.307 705.839 251.883 723.91L270.092 795.891C273.365 808.827 277.02 822.479 286.272 832.073C302.51 848.929 328.608 846.557 349.972 840.756C373.031 834.484 397.012 826.722 416.376 812.424C430.606 801.909 458.389 788.316 453.313 765.649C450.373 752.448 437.201 744.696 427.392 735.425C409.487 718.53 401.186 693.834 392.494 670.647C376.882 628.997 357.949 587.347 335.272 549C301.952 492.63 261.448 436.761 200.698 410.555" fill="white"/>
<path d="M126.08 491.18C134.714 526.597 152.648 558.722 173.267 588.484C183.44 603.184 193.965 617.884 205.451 631.604C216.358 644.619 229.735 656.555 235.546 672.941C241.838 690.688 243.7 709.691 248.286 727.889L263.623 788.502C267.739 804.78 271.12 822.704 283.116 835.16C293.513 845.989 308.596 849.86 323.247 849.439C339.662 848.988 355.802 844.068 371.267 839.011C388.162 833.484 404.449 826.36 418.904 815.923C437.201 802.712 468.336 785.709 455.262 758.201C448.667 744.343 433.575 736.935 424.01 725.429C412.848 712.003 406.37 695.275 400.265 679.115C386.604 642.659 371.649 606.791 353.362 572.383C337.084 541.728 318.631 511.76 297.228 484.32C277.02 458.419 253.255 434.83 224.884 417.954C217.787 413.744 210.432 409.984 202.863 406.694C197.699 404.44 193.191 412.055 198.395 414.328C257.939 440.357 297.502 494.375 329.803 548.569C349.226 581.46 366.07 615.808 380.185 651.302C392.17 681.094 400.373 716.384 424.706 739.032C434.251 747.911 449.843 756.672 449.422 771.607C449.079 783.955 436.976 792.805 427.803 799.194C415.886 807.495 404.087 816.021 390.847 822.116C375.356 829.055 359.193 834.381 342.611 838.012C328.891 841.148 312.937 842.726 299.776 836.434C284.468 829.104 279.068 813.032 275.089 797.714C270.091 778.438 265.289 759.092 260.389 739.786C255.901 722.048 252.618 704.163 248.512 686.357C246.62 678.174 244.357 669.883 240.593 662.337C237.046 655.232 232.048 648.891 226.952 642.855C216.172 630.046 205.323 617.541 195.298 604.066C174.336 575.881 154.314 546.178 141.986 513.073C139.044 505.146 136.567 497.054 134.567 488.838C133.225 483.311 124.689 485.653 126.041 491.19L126.08 491.18Z" fill="#382C80"/>
<path d="M500.98 861.846C488.358 855.554 469.62 851.301 458.948 841.961C448.952 833.21 442.19 818.314 436.81 804.339C431.744 806.103 426.858 808.344 422.218 811.033C418.219 813.287 413.937 815.874 412.369 820.333C408.684 830.77 422.1 841.373 421.12 852.585C420.434 860.474 412.947 865.325 405.891 868.078C391.191 873.831 374.991 875.742 361.213 883.357C360.336 883.805 359.528 884.376 358.812 885.052C365.057 897.008 371.427 908.863 377.922 920.616C379.989 924.36 382.361 928.329 386.144 930.103C389.348 931.602 393.004 931.22 396.346 930.71C430.332 925.624 462.006 911.238 491.102 893.392C498.295 888.982 505.88 883.592 507.968 875.154C508.722 872.067 508.585 868.47 506.615 865.864C505.204 863.982 503.058 862.875 500.98 861.846Z" fill="#382C80"/>
<path d="M503.223 858.033C490.866 852.016 476.91 849.007 465.395 841.373C452.724 832.926 446.364 816.873 441.082 803.202C440.268 801.095 438.083 799.282 435.643 800.115C425.911 803.535 410.623 809.082 407.771 820.362C405.116 830.828 413.994 838.796 416.288 848.243C419.473 861.326 400.96 865.471 391.866 868.068C379.949 871.469 365.514 873.89 355.694 881.965C354.146 883.239 354.146 885.708 354.998 887.325C359.016 894.996 363.08 902.64 367.19 910.257C370.698 916.745 373.834 924.213 378.724 929.857C383.477 935.306 389.828 936.139 396.678 935.169C404.424 934.024 412.092 932.404 419.639 930.318C434.523 926.204 448.993 920.722 462.867 913.942C475.96 907.641 489.905 900.781 501.332 891.716C512.484 882.896 518.688 865.903 503.214 858.033C498.147 855.456 493.668 863.08 498.745 865.667C516.042 874.487 487.132 890.746 479.919 894.911C465.993 903.065 451.401 910.025 436.299 915.716C428.975 918.421 421.513 920.741 413.945 922.664C410.025 923.664 406.063 924.536 402.058 925.281C398.138 926.016 392.866 927.613 388.965 926.437C385.349 925.349 383.458 921.41 381.743 918.382C379.538 914.462 377.421 910.542 375.284 906.622C370.999 898.736 366.781 890.811 362.633 882.847L361.947 888.198C366.847 884.17 374.363 882.318 380.341 880.485C386.564 878.613 392.885 877.065 399.098 875.134C408.565 872.194 420.07 868.166 424.216 858.2C428.361 848.233 422.04 839.58 418.081 830.995C415.905 826.271 415.082 821.675 419.512 818C424.657 813.747 431.781 810.807 437.995 808.622L432.556 805.535C438.298 820.333 444.953 836.708 457.849 846.753C469.845 856.103 485.289 859.131 498.755 865.687C503.851 868.147 508.339 860.522 503.223 858.033Z" fill="#382C80"/>
<path d="M447.56 846.45C449.712 841.456 454.005 837.703 459.241 836.238C461.593 835.542 460.603 832.103 458.261 832.593C451.617 833.945 446.658 838.825 444.169 845.009C443.375 846.969 446.746 848.39 447.589 846.45H447.56Z" fill="white"/>
<path d="M463.808 855.191C465.126 851.589 467.556 848.5 470.747 846.371C472.824 844.96 470.933 841.608 468.787 842.961C464.698 845.584 461.639 849.537 460.124 854.152C459.3 856.514 462.995 857.484 463.838 855.181L463.808 855.191Z" fill="white"/>
<path d="M479.018 856.818L484.898 851.379C486.584 849.821 484.046 847.292 482.38 848.86L476.568 854.348C474.932 855.897 477.391 858.347 479.038 856.818H479.018Z" fill="white"/>
<path d="M197.631 194.828C241.662 181.921 276.031 229.54 302.363 256.058C314.447 268.24 327.559 279.333 340.662 290.358C356.342 303.618 365.769 286.027 374.903 274.796C395.483 249.483 413.858 222.484 432.213 195.543C440.053 184.068 447.952 172.396 452.382 159.283C454.675 152.423 456.165 145.015 460.976 139.683C465.901 134.366 473.312 132.118 480.361 133.803C497.364 138.076 492.042 155.775 501.294 166.251C511.456 177.756 533.634 181.588 547.628 185.567C556.722 188.144 565.905 190.741 575.342 191.339C580.046 191.643 585.24 191.604 588.798 194.701C593.071 198.405 593.051 205.363 590.297 210.302C587.543 215.241 582.741 218.652 578.106 221.886C584.221 221.611 587.651 229.922 585.182 235.527C582.712 241.133 576.881 244.347 571.462 247.18C575.02 247.459 578.133 249.681 579.554 252.955C580.975 256.229 580.47 260.021 578.244 262.81C576.017 265.599 572.431 266.93 568.923 266.27C575.548 269.21 575.264 279.461 570.344 284.763C565.425 290.064 559.457 289.937 553.381 292.926C545.746 296.689 538.632 303.706 532.134 309.106C517.924 320.993 504.596 333.9 490.455 345.866C447.188 382.518 388.447 401.167 331.626 397.649C314.28 396.571 296.817 393.17 281.421 385.115C251.609 369.503 232.97 338.565 205.539 319.063" fill="white"/>
<path d="M198.503 197.984C232.636 189.164 260.831 217.231 281.91 240.124C294.837 254.147 307.841 267.769 322.139 280.441C326.268 284.099 330.427 287.716 334.615 291.289C338.104 294.229 341.583 297.385 346.032 298.835C352.97 301.089 359.477 298.61 364.799 294.024C370.943 288.732 375.491 281.489 380.538 275.208C387.855 266.1 394.95 256.816 401.823 247.356C415.543 228.586 428.799 209.476 441.592 190.026C447.383 181.206 452.715 172.112 456.292 162.184C459.526 153.227 460.996 141.271 471.776 138.4C490.258 133.5 488.935 156.206 495.609 166.408C505.537 181.569 527.449 184.94 543.629 189.262C555.458 192.427 566.738 195.142 578.968 196.19C584.505 196.641 588.768 199.13 587.298 205.343C585.916 211.008 580.262 214.702 575.793 217.819C572.049 220.445 573.343 226.296 578.145 226.502C582.065 226.668 581.663 232.676 580.203 234.979C577.743 238.899 573.068 241.064 569.129 243.122C565.797 244.857 566.248 250.962 570.236 251.619C577.782 252.815 576.636 262.399 568.933 261.586C564.297 261.086 562.68 268.201 566.591 270.249C571.373 272.758 569.266 279.696 565.905 282.587C561.132 286.683 553.645 287.203 548.216 290.427C542.061 294.092 536.73 299.022 531.33 303.677C525.137 309.018 518.914 314.319 512.818 319.788C501.254 330.176 489.955 341.034 477.43 350.295C466.191 358.576 454.183 365.76 441.572 371.747C415.666 384.015 387.656 391.223 359.046 392.984C330.126 394.748 299.315 392.112 274.619 375.648C249.482 358.88 232.401 332.783 207.626 315.466C203.246 312.399 199.306 319.474 203.481 322.571C226.932 339.976 243.661 364.848 267.495 381.851C293.406 400.334 326.422 403.989 357.439 402.314C387.955 400.646 417.861 393.095 445.512 380.077C459.378 373.573 472.518 365.62 484.712 356.352C498.04 346.14 510.221 334.429 522.785 323.247C529.638 317.152 536.576 311.154 543.6 305.254C547.073 302.154 550.895 299.467 554.987 297.248C558.486 295.474 562.377 294.719 565.973 293.181C572.431 290.417 577.214 285.086 578.311 278.05C579.291 271.758 577.086 265.31 571.236 262.203L568.894 270.856C576.371 271.67 583.79 266.182 584.799 258.626C585.808 251.07 580.105 243.808 572.667 242.632L573.784 251.139C581.173 247.268 589.826 241.907 590.561 232.685C591.169 224.943 586.181 217.505 578.106 217.172L580.448 225.845C588.121 220.484 596.285 214.085 596.833 203.952C597.372 194.152 590.316 188.105 581.085 187.037C575.489 186.4 570.001 186.214 564.425 185.077C558.417 183.823 552.547 182.039 546.628 180.442C538.033 178.119 529.311 176.198 520.962 173.052C513.671 170.308 505.556 166.339 502.087 158.931C499.206 152.766 498.784 145.73 495.452 139.703C486.201 122.925 461.633 126.649 453.518 142.388C451.313 146.661 450.02 151.306 448.618 155.873C446.731 161.707 444.266 167.337 441.258 172.68C435.525 183.078 428.518 192.75 421.825 202.541C407.909 222.925 393.856 243.25 378.656 262.713C372.874 270.121 367.327 278.226 360.82 285.027C358.517 287.438 355.626 290.211 352.118 290.515C347.169 290.946 343.121 286.468 339.691 283.587C323.266 269.867 307.518 255.706 292.798 240.124C268.181 214.046 236.634 179.599 196.758 191.663C192.74 192.878 194.406 199.013 198.493 197.964L198.503 197.984Z" fill="#382C80"/>
<path d="M231.118 462.241C236.694 498.501 221.582 534.359 212.89 570.041C202.747 611.671 201.267 655.016 199.934 697.95C197.435 778.026 199.866 859.16 195.475 938.864C195.24 943.146 194.848 947.752 192.212 950.986C189.987 953.74 186.567 954.965 183.304 955.994C150.503 966.245 115.684 967.127 81.756 963.765C73.3672 962.932 64.2042 961.423 58.628 954.7C56.5994 952.26 55.1588 948.958 55.786 945.753C56.2466 943.44 57.746 941.519 59.1082 939.687C67.7224 928.515 82.7458 916.5 88.2534 903.427C95.525 886.218 91.752 860.865 90.135 842.824C82.9546 762.954 81.0656 682.696 84.4804 602.577C87.5968 530.115 96.8676 452.96 140.762 397.384" fill="white"/>
<path d="M228.276 463.025C234.067 503.587 214.614 542.855 206.578 581.781C198.366 621.52 197.18 662.327 195.936 702.742C194.652 744.882 194.74 787.022 194.387 829.162C194.201 850.379 193.927 871.596 193.329 892.804C193.035 903.381 192.646 913.945 192.163 924.497C191.947 929.289 191.741 934.071 191.437 938.854C191.104 944.234 190.457 948.732 185.028 951.114C176.551 954.847 166.408 956.484 157.294 958.062C147.15 959.782 136.903 960.826 126.62 961.188C116.556 961.57 106.462 961.394 96.4068 960.786C87.5868 960.247 77.973 960.237 69.6234 957.19C65.8112 955.788 60.9994 952.946 60.1762 948.615C59.353 944.283 63.9884 940.196 66.7128 937.149C72.2596 930.965 78.2866 925.202 83.51 918.725C94.1038 905.573 97.1026 890.863 96.838 874.233C96.544 856.024 93.898 837.796 92.5456 819.656C90.9253 798.39 89.684 777.101 88.8216 755.79C87.0968 713.467 86.8518 671.121 88.0866 628.752C90.1446 558.486 93.408 482.017 130.432 420.012C134.688 412.898 139.361 406.043 144.427 399.481C147.288 395.757 140.82 390.661 137.861 394.415C92.085 451.872 83.2552 529.214 80.1584 600.215C78.1984 644.295 77.9011 688.395 79.2666 732.515C80.5406 775.204 83.9902 817.618 87.5672 860.16C88.9784 877.026 89.9878 895.557 79.6586 909.983C74.249 917.48 67.4086 923.85 61.2542 930.681C56.2072 936.276 49.8666 942.646 51.9834 950.829C56.5698 968.587 82.1968 968.195 96.3578 969.038C116.832 970.397 137.393 969.453 157.657 966.225C167.78 964.52 178.384 962.56 187.87 958.64C195.71 955.416 198.65 949.154 199.375 941C201.198 919.264 201.335 897.253 201.737 875.458C202.59 831.358 202.315 787.258 202.864 743.158C203.393 700.155 203.697 656.722 208.744 613.964C211.458 592.285 215.842 570.847 221.857 549.843C227.296 530.39 233.068 510.888 234.793 490.68C235.625 480.928 235.332 471.112 233.92 461.427C233.372 457.674 227.688 459.271 228.227 462.995L228.276 463.025Z" fill="#382C80"/>
<path d="M230.363 443.376C241.437 493.659 232.058 546.276 221.759 596.256C218.191 613.582 209.528 633.858 210.871 651.302C212.302 670.03 219.318 688.542 223.091 706.849L238.115 779.565C240.81 792.628 243.475 806.505 239.34 819.176C232.078 841.432 207.568 850.673 185.851 854.76C162.331 859.18 137.371 862.678 113.733 858.249C96.3383 854.995 65.4193 854.878 60.0979 832.269C57.0011 819.108 65.4389 806.387 70.2311 793.775C78.9727 770.754 75.6603 744.912 73.3671 720.275C69.2413 675.988 68.1045 630.242 71.7795 585.848C77.1891 520.58 89.2235 452.646 132.451 402.588" fill="white"/>
<path d="M226.1 444.552C233.94 480.919 231.156 518.463 225.12 554.88C222.238 572.275 219.24 589.905 214.536 606.908C210.204 622.588 204.932 638.435 206.784 654.928C208.744 672.451 214.712 689.101 218.446 706.251C222.523 724.979 226.207 743.795 230.088 762.562C233.577 779.457 240.368 799.125 235.566 816.344C231.862 829.623 220.719 838.325 208.528 843.588C194.73 849.546 179.275 851.83 164.497 853.858C147.129 856.381 129.479 856.266 112.145 853.515C92.457 850.311 57.2652 848.086 64.9288 818.804C67.1044 810.493 71.4654 802.947 74.4838 794.951C77.3052 787.181 79.0814 779.071 79.766 770.833C81.4516 753.35 79.1878 735.788 77.61 718.383C74.0572 681.219 73.1271 643.85 74.8268 606.555C77.9236 544.463 86.4398 477.362 121.475 424.354C125.785 417.839 130.495 411.598 135.577 405.665C139.262 401.363 133.029 395.081 129.325 399.413C86.2046 449.853 73.4058 516.807 67.761 581.095C64.5111 619.892 64.2948 658.884 67.1142 697.715C68.4078 716.502 71.0342 735.269 71.4752 754.104C71.8329 763.377 71.0695 772.66 69.2016 781.75C67.2416 790.57 63.3216 798.567 59.8426 806.877C54.2958 820.107 52.2182 835.474 63.0668 846.646C71.044 854.868 83.0588 857.857 93.976 859.709C107.765 862.051 121.857 864.609 135.851 864.746C154.236 864.923 172.935 862.139 190.878 858.278C204.138 855.436 217.505 850.742 228.207 842.196C240.055 832.73 246.052 819 245.896 803.898C245.807 795.313 244.102 786.797 242.377 778.418C240.28 768.206 238.173 758.001 236.056 747.803C232.048 728.418 228.559 708.848 223.463 689.718C218.691 671.765 212.919 653.576 216.466 634.838C218.054 626.449 220.572 618.276 222.856 610.064C225.267 601.401 227.031 592.63 228.736 583.81C236.135 546.442 242.172 508.085 238.781 469.904C237.969 460.587 236.584 451.328 234.635 442.18C233.44 436.614 224.904 438.975 226.1 444.532V444.552Z" fill="#382C80"/>
<path d="M232.146 234.067C236.889 244.759 246.787 244.445 254.078 252.001C260.629 259.022 263.372 268.781 261.438 278.187C259.909 285.047 256.234 291.27 253.843 297.904C245.102 322.218 254.225 348.786 258.537 374.256C260.713 387.133 267.357 398.854 256.705 410.193C250.697 416.573 242.191 419.914 233.802 422.462C194.985 434.108 153.413 432.651 115.506 418.317C109.626 416.083 103.746 413.417 99.4932 408.831C90.3596 398.942 91.5552 383.596 93.8582 370.336C101.561 325.952 115.526 295.415 112.253 250.492" fill="white"/>
<path d="M229.314 235.723C231.853 241.603 236.331 245.249 241.79 248.365C248.209 252.031 253.55 255.921 256.206 263.173C259.312 271.748 256.99 279.529 253.462 287.546C249.934 295.562 247.219 303.079 246.229 311.693C244.22 329.48 248.63 347.385 252.06 364.76C253.638 372.688 255.304 380.567 256.96 388.476C258.695 396.561 257.578 403.333 251.08 408.938C244.936 414.201 236.792 416.68 229.158 418.836C220.603 421.264 211.875 423.033 203.05 424.128C185.531 426.296 167.788 425.89 150.385 422.923C141.785 421.452 133.299 419.373 124.993 416.7C117.389 414.24 108.333 411.653 102.806 405.538C92.3693 394.052 97.6809 374.325 100.395 360.918C104.1 342.671 109.215 324.737 112.822 306.47C116.589 288.071 117.884 269.253 116.673 250.512C116.291 244.867 107.442 244.818 107.853 250.512C110.352 287.36 98.8373 321.944 91.5461 357.567C88.3905 372.972 84.0197 391.298 91.8401 406.047C99.7781 421.032 120.799 425.932 135.94 429.646C154.488 434.18 173.617 435.872 192.672 434.663C210.518 433.536 229.305 430.41 245.778 423.207C253.275 419.934 260.812 414.848 264.614 407.341C268.162 400.344 267.554 392.749 265.849 385.33C261.664 367.004 256.784 348.159 255.069 329.402C254.089 318.092 254.843 306.94 259.155 296.336C262.909 287.085 267.358 278.54 266.015 268.24C264.928 259.949 260.89 251.835 254.177 246.68C247.464 241.525 239.222 240.222 234.979 232.411C232.901 228.609 227.688 231.96 229.305 235.723H229.314Z" fill="#382C80"/>
<path d="M242.848 542.454C247.63 536.485 252.344 530.547 255.205 523.373C257.881 516.699 258.929 509.437 259.468 502.303C260.733 485.643 261.536 468.493 261.223 451.823C261.125 446.972 254.206 447.119 253.794 451.823C252.422 467.141 252.736 482.644 251.991 498.001C251.638 505.096 251.011 512.162 248.904 518.983C246.65 526.254 242.583 532.703 238.506 539.112C236.85 541.699 240.868 544.933 242.848 542.454Z" fill="#382C80"/>
<path d="M59.1081 939.667C67.7223 928.495 82.7457 916.48 88.2533 903.407C93.4179 891.167 93.0063 874.811 91.7519 859.895C97.0796 859.271 102.454 859.153 107.804 859.542C112.391 859.836 117.369 860.287 120.731 863.619C128.571 871.4 121.152 886.796 126.914 896.459C130.981 903.26 139.821 904.299 147.387 903.75C163.067 902.535 178.531 897.165 194.25 898.007C195.249 898.016 196.241 898.178 197.19 898.488C196.779 911.963 196.21 925.408 195.505 938.815C195.269 943.097 194.877 947.703 192.241 950.937C190.017 953.691 186.596 954.916 183.333 955.945C150.532 966.196 115.713 967.078 81.7853 963.716C73.3965 962.883 64.2335 961.374 58.6573 954.651C56.6287 952.211 55.1881 948.909 55.8153 945.704C56.2465 943.421 57.6969 941.5 59.1081 939.667Z" fill="#382C80"/>
<path d="M62.2339 942.793C71.5537 930.945 84.4407 921.233 91.2027 907.513C98.3567 892.97 97.4551 875.575 96.1811 859.885L91.7515 864.305C98.2579 863.466 104.845 863.466 111.352 864.305C117.516 865.217 119.887 868.764 120.172 874.732C120.603 884.082 118.329 894.724 125.738 902.094C133.147 909.464 144.476 908.729 153.962 907.455C160.606 906.563 167.163 905.191 173.768 904.064C180.628 902.898 189.066 901.124 195.965 902.76L192.711 898.497C192.437 907.468 192.11 916.438 191.731 925.408C191.548 929.563 191.342 933.719 191.114 937.874C190.928 941.029 191.006 944.822 189.154 947.595C187.017 950.849 182.029 951.741 178.57 952.75C174.748 953.854 170.9 954.834 167.025 955.69C158.788 957.546 150.446 958.901 142.045 959.747C125.627 961.299 109.107 961.45 92.6629 960.198C84.2349 959.61 50.8953 957.66 62.8905 941.853C66.3303 937.315 58.6471 932.905 55.2465 937.384C46.3481 949.144 55.0603 961.1 67.2515 965.402C73.3079 967.548 79.9229 967.989 86.2733 968.538C94.4857 969.253 102.728 969.714 110.969 969.841C126.925 970.141 142.875 968.973 158.617 966.353C166.445 965.027 174.188 963.237 181.804 960.992C188.027 959.14 194.318 957.003 197.484 950.81C200.826 944.185 200.11 935.453 200.424 928.27C200.894 918.346 201.273 908.415 201.561 898.478C201.545 896.494 200.224 894.758 198.317 894.215C185.753 891.177 171.22 895.665 158.823 897.792C149.611 899.379 131.687 903.211 129.256 890.02C127.531 880.671 131.589 869.97 124.993 861.826C117.771 852.898 101.846 854.309 91.7319 855.466C89.5171 855.711 87.0965 857.288 87.3121 859.885C88.4783 874.233 89.9679 891.138 82.9021 904.299C76.2381 916.686 64.5663 925.565 55.9619 936.502C52.5025 941 58.7157 947.262 62.2339 942.793Z" fill="#382C80"/>
<path d="M102.836 899.615C97.7986 895.126 91.2816 893.068 84.6568 894.715C82.2362 895.312 83.3142 898.733 85.6368 898.36C90.8192 897.463 96.1334 898.897 100.16 902.28C101.983 903.819 104.629 901.241 102.816 899.624L102.836 899.615Z" fill="white"/>
<path d="M92.4675 914.814C89.0591 911.347 84.5599 909.159 79.7275 908.621C77.5421 908.376 77.0129 912.159 79.2081 912.482C83.1723 913 86.8671 914.772 89.7529 917.539C91.5463 919.264 94.2413 916.559 92.4773 914.814H92.4675Z" fill="white"/>
<path d="M77.718 922.223L70.0936 919.822C67.9082 919.136 66.9576 922.586 69.1136 923.252L76.7576 925.585C78.9136 926.241 79.825 922.899 77.6886 922.223H77.718Z" fill="white"/>
<path d="M150.748 198.885C111.675 239.065 61.3715 293.945 69.7113 349.335C72.4109 366.889 77.6949 383.946 85.3913 399.952C103.835 438.534 140.507 468.934 182.558 477.881C203.031 482.242 225.6 484.31 245.817 478.861C271.206 472.051 294.647 459.388 314.261 441.886C315.815 440.475 317.344 439.041 318.847 437.584C338.026 418.856 352.275 395.846 364.25 372.032C378.372 343.945 387.349 314.721 379.215 283.253C377.333 275.992 374.168 268.328 367.582 264.741C360.997 261.154 350.609 264.682 350.285 272.17C352.392 265.77 348.237 258.018 341.74 256.225C335.242 254.432 327.696 258.959 326.226 265.545C324.962 261.88 326.226 257.881 326.158 254.01C326.089 250.139 323.806 245.523 319.945 245.719C317.72 245.837 315.936 247.552 314.447 249.208C310.64 253.481 307.309 258.153 304.51 263.144C307.214 254.324 308.792 245.043 311.585 236.253C313.545 230.01 316.828 224.493 315.878 217.584C315.299 213.458 312.938 209.312 309.018 207.891C305.098 206.47 300.59 208.097 297.493 210.89C294.396 213.683 292.426 217.495 290.525 221.2L269.994 261.027C266.074 257.107 260.919 253.932 255.225 255.372C248.581 257.068 243.759 263.075 241.437 269.533C239.114 275.992 238.859 282.969 238.271 289.81C236.81 305.985 233.313 321.912 227.864 337.212C225.322 344.348 222.133 351.237 218.338 357.792C215.721 362.359 209.518 376.608 204.746 378.656C195.661 382.527 179.873 350.952 176.149 343.974C159.715 313.232 156.902 297.277 158.784 262.438" fill="white"/>
<path d="M148.18 196.308C130.599 214.144 113.351 232.274 98.4649 252.472C84.3529 271.66 71.8089 293.073 66.8403 316.573C61.5973 341.299 67.0853 366.553 76.2679 389.721C84.9703 411.643 97.9063 431.41 115.35 447.374C132.106 462.866 152.283 474.182 174.239 480.4C200.179 487.534 228.197 489.22 254.04 481.076C278.523 473.412 300.985 460.378 319.788 442.925C339.133 424.824 353.784 402.255 365.936 378.872C379.813 352.177 390.358 323.012 385.909 292.514C384.213 280.852 380.813 265.545 368.955 260.047C359.155 255.49 346.709 261.027 345.435 272.101C344.817 277.55 353.49 278.481 354.843 273.375C357.244 264.379 352.246 254.089 342.955 251.531C333.665 248.973 324.1 255.225 321.542 264.202H330.794C329.539 259.224 331.725 254.147 330.117 249.13C328.853 245.21 325.825 241.711 321.64 241.015C311.84 239.389 304.275 253.755 300.306 260.615L309.126 264.32C311.086 257.783 312.477 251.129 314.183 244.534C315.741 238.507 318.338 232.774 319.886 226.805C322.307 217.378 319.377 204.628 308.263 202.688C296.601 200.659 289.928 211.596 285.41 220.396C278.876 233.097 272.359 245.808 265.859 258.528L273.395 257.548C265.771 250.296 255.853 247.542 246.808 254.157C238.154 260.498 235.361 271.013 234.264 281.156C231.608 305.813 227.943 330.156 216.006 352.294C212.39 359.007 209.362 367.896 203.942 373.335C202.698 374.589 202.962 374.55 201.002 373.11C198.539 371.076 196.383 368.696 194.603 366.044C185.94 354.284 178.923 340.338 172.916 327.05C163.468 306.185 162.018 284.978 162.998 262.37C163.233 256.95 154.923 257.009 154.599 262.37C153.365 282.479 153.619 302.324 160.695 321.434C166.49 336.647 173.85 351.216 182.657 364.907C188.106 373.521 200.297 391.681 211.185 379.215C216.575 373.1 219.72 365.005 223.64 357.9C229.551 346.857 234.093 335.135 237.164 322.992C240.839 309.194 242.162 295.396 243.74 281.264C244.416 275.168 245.818 268.749 250.061 264.085C255.353 258.273 261.233 259.351 266.574 264.447C268.701 266.486 272.66 266.299 274.11 263.467C278.867 254.236 283.613 244.998 288.35 235.753C290.663 231.245 292.926 226.707 295.298 222.229C297.258 218.466 299.669 213.693 304.118 212.429C308.93 211.096 311.135 216.035 311.154 220.063C311.154 224.434 309.126 228.589 307.685 232.627C304.285 242.123 302.677 252.168 299.845 261.831C298.307 267.064 305.921 270.259 308.665 265.535C310.347 262.546 312.216 259.665 314.261 256.911C314.967 255.931 318.867 250.286 320.141 250.708C322.023 251.335 321.248 255.99 321.121 257.313C320.733 260.471 320.882 263.672 321.562 266.78C322.738 271.444 329.539 271.248 330.813 266.78C333.704 256.646 348.326 260.674 345.621 270.856L355.039 272.13C355.411 268.759 360.419 267.701 363.094 268.21C368.19 269.112 371.199 274.718 372.894 279.069C377.148 290.162 378.079 302.824 377.275 314.584C375.619 339.084 364.76 362.045 353.059 383.243C341.544 404.107 327.716 423.874 309.782 439.73C292.25 455.075 271.626 466.474 249.307 473.158C225.787 480.282 200.12 478.322 176.61 471.894C156.552 466.291 138.064 456.121 122.593 442.18C106.879 428.089 94.4365 410.733 86.1365 391.328C77.0715 370.317 70.3683 346.071 74.1315 323.1C78.0515 299.394 90.2525 277.814 104.09 258.557C118.79 238.154 135.97 219.573 153.325 201.463C156.569 198.072 151.473 192.956 148.171 196.308H148.18Z" fill="#382C80"/>
<path d="M140.487 195.112C112.067 207.029 90.879 232.666 79.5698 261.311C68.2606 289.957 65.9968 321.464 67.6628 352.216C68.5938 369.454 71.4162 386.516 77.5608 402.588C78.5408 405.244 79.6286 407.958 79.6972 410.791C79.7658 413.623 78.8936 416.2 78.482 418.905C75.8752 435.977 90.732 445.002 105.971 445.561C108.715 445.659 111.724 445.473 113.752 443.601C115.408 442.111 116.065 439.848 116.692 437.721C123.988 414.137 139.056 393.719 159.44 379.793C165.898 375.413 172.974 371.679 180.667 370.385C186.733 369.405 193.916 369.405 197.601 364.505C201.452 359.35 198.757 351.677 194.142 347.179C189.526 342.681 183.362 340.084 178.462 335.928C157.578 318.288 157.401 287.213 158.744 262.428" fill="white"/>
<path d="M139.517 191.604C104.6 205.931 81.3346 238.105 70.8094 273.62C64.7236 294.2 62.5872 315.76 62.7048 337.134C62.8224 358.508 64.8314 380.254 71.8972 400.51C73.8572 406.106 75.3958 410.085 74.2786 416.083C73.3856 420.216 73.3489 424.488 74.1708 428.636C75.7584 435.771 80.7368 441.612 86.9794 445.218C93.5887 448.998 101.154 450.775 108.755 450.334C119.535 449.52 120.603 440.151 123.837 431.841C130.774 414.197 142.384 398.776 157.422 387.231C165.624 380.959 174.386 376.167 184.695 374.697C192.241 373.619 200.836 371.757 203.482 363.476C206.716 353.353 199.317 344.494 191.536 339.153C187.135 336.134 182.539 333.635 178.737 329.813C175.519 326.534 172.817 322.788 170.72 318.7C161.822 301.766 162.351 280.999 162.959 262.399C163.135 256.96 154.952 257.068 154.56 262.399C152.345 292.838 154.56 326.511 182.667 344.611C187.184 347.551 201.826 358.419 191.261 363.486C188.096 365.005 184.107 364.995 180.687 365.524C175.997 366.287 171.439 367.716 167.153 369.768C151.934 376.824 138.861 389.368 129.002 402.706C123.871 409.696 119.572 417.26 116.193 425.246C114.625 428.921 113.312 432.654 112.067 436.447C111.411 438.466 111.087 440.083 108.824 440.681C106.864 441.2 104.129 440.73 102.169 440.436C95.868 439.514 89.0962 436.8 85.4016 431.351C80.3742 423.952 85.2154 416.406 84.0688 408.458C83.422 403.96 81.315 399.756 79.8842 395.473C78.3298 390.699 77.0214 385.848 75.9642 380.94C73.8215 370.889 72.5104 360.679 72.0442 350.413C71.0152 330.401 71.613 310.154 75.5428 290.456C83.2554 251.815 105.217 214.84 142.3 198.229C146.024 196.563 143.28 189.997 139.488 191.574L139.517 191.604Z" fill="#382C80"/>
<path d="M318.818 437.554C337.997 418.827 352.246 395.816 364.221 372.002C378.343 343.915 387.32 314.692 379.186 283.224C377.304 275.962 374.139 268.299 367.553 264.712C360.968 261.125 350.58 264.653 350.256 272.14C352.363 265.741 348.208 257.989 341.711 256.196C335.213 254.402 327.667 258.93 326.197 265.515C324.933 261.85 326.197 257.852 326.129 253.981C326.06 250.11 323.777 245.494 319.916 245.69C317.691 245.808 315.907 247.523 314.418 249.179C310.611 253.451 307.28 258.124 304.481 263.114C307.185 254.294 308.763 245.014 311.556 236.223C313.516 229.981 316.799 224.463 315.849 217.554C315.27 213.428 312.909 209.283 308.989 207.862C305.069 206.441 300.561 208.068 297.464 210.861C294.367 213.654 292.397 217.466 290.496 221.17L269.994 261.027C266.074 257.107 260.92 253.932 255.226 255.372C248.581 257.068 243.76 263.075 241.437 269.533C239.115 275.992 238.86 282.969 238.272 289.81C235.136 326.266 221.318 359.801 196.72 400.02" fill="white"/>
<path d="M321.336 442.004C322.434 440.955 323.502 439.897 324.57 438.828C342.436 420.787 356.136 398.952 367.641 376.422C378.833 354.49 387.849 330.666 387.349 305.676C387.104 293.808 385.477 280.029 379.313 269.631C373.796 260.341 362.732 254.775 352.549 260.537C348.313 262.856 345.534 267.158 345.16 271.974C344.602 277.775 353.608 279.128 355.156 273.62C357.714 264.496 352.608 253.922 343.19 251.296C333.773 248.669 323.806 254.833 321.307 264.036L331.176 264.32C329.911 259.655 331.969 254.804 330.744 250.051C329.696 245.974 326.883 242.074 322.669 240.927C317.22 239.438 312.869 243.113 309.586 246.984C306.007 251.167 302.824 255.675 300.08 260.449L309.361 264.594C311.213 258.361 312.585 252.011 314.182 245.71C315.574 240.241 317.514 235.067 319.288 229.736C322.512 220.092 321.376 206.265 309.841 202.835C297.415 199.15 289.771 211.361 285.047 220.592L265.692 258.41L273.581 257.548C269.602 253.716 264.898 250.541 259.244 250.08C253.589 249.62 248.003 252.393 244.024 256.254C234.655 265.329 234.303 278.687 233.195 290.809C231.078 313.878 224.101 336.183 214.467 357.185C208 371.066 200.803 384.596 192.907 397.717C189.967 402.617 197.415 407.155 200.444 402.323C212.87 382.478 224.189 361.869 232.117 339.77C235.664 329.96 238.439 319.887 240.418 309.645C242.446 299.012 242.584 288.193 244.426 277.579C245.406 271.876 247.562 265.594 252.491 262.066C257.421 258.538 262.291 260.557 266.329 264.496C268.495 266.593 272.679 266.633 274.218 263.644L289.82 233.44C292.132 228.942 294.308 224.326 296.836 219.945C298.679 216.76 301.736 212.105 306.029 212.448C309.606 212.742 310.88 216.849 310.929 219.926C310.929 224.287 308.91 228.422 307.46 232.44C304.039 241.937 302.471 251.991 299.62 261.654C297.983 267.142 305.96 270.935 308.89 265.8C310.616 262.739 312.538 259.793 314.643 256.98C315.407 256 319.004 250.708 320.072 250.855C321.376 251.031 320.984 255.706 320.925 256.441C320.67 259.969 320.317 263.301 321.268 266.74C322.552 271.474 329.764 272.072 331.127 267.015C332.165 263.203 336.164 260.037 340.27 261.135C344.376 262.232 346.483 266.878 345.405 270.719L355.401 272.356C355.695 269.318 359.909 268.23 362.428 268.436C367.034 268.887 369.925 273.248 371.748 277.079C376.373 286.811 377.432 298.973 377.187 309.606C376.677 332.489 367.906 354.068 357.528 374.129C346.189 396.042 332.763 417.161 314.966 434.428C313.232 436.124 311.448 437.77 309.635 439.377" fill="#382C80"/>
<path d="M576.146 162.086C572.089 190.198 564.741 217.736 554.253 244.132C548.716 257.94 545.884 259.92 530.733 258.254C516.319 256.643 502.058 253.884 488.084 250.002C486.612 249.668 485.198 249.116 483.889 248.365C480.783 246.405 479.469 242.387 479.675 238.703C479.881 235.018 481.341 231.549 482.733 228.138C494.336 199.64 501.48 170.161 508.281 140.262C508.86 137.714 509.497 135.058 511.221 133.059C515.22 128.325 522.687 129.531 528.665 131.148L559.967 139.634C565.847 141.222 572.364 143.309 575.215 148.699C577.332 152.727 576.813 157.578 576.146 162.086Z" fill="#7F72FF"/>
<path d="M573.285 161.302C569.118 185.627 562.677 209.506 554.047 232.627C552.273 237.527 550.529 242.427 548.275 247.072C547.099 249.492 545.796 252.325 543.257 253.569C541.072 254.647 538.23 254.412 535.888 254.294C529.538 253.861 523.219 253.053 516.964 251.874C511.378 250.894 505.812 249.816 500.304 248.483C495.512 247.327 485.535 246.709 484.565 240.849C483.752 235.949 487.094 230.451 488.867 226.012C491.131 220.328 493.219 214.565 495.179 208.773C499.099 197.229 502.45 185.498 505.518 173.709C507.059 167.829 508.529 161.903 509.928 155.932C511.26 150.316 511.888 143.937 514.044 138.556C516.229 132.99 522.726 134.921 527.293 136.106C534.065 137.87 540.798 139.781 547.55 141.614C553.43 143.221 559.927 144.299 565.474 146.906C572.118 150.022 571.873 155.608 571.031 162.086C570.286 167.77 580.252 169.172 581.105 163.448C581.958 157.725 582.693 151.453 579.694 146.073C576.695 140.693 571.148 137.763 565.464 135.852C558.702 133.588 551.646 132.03 544.767 130.168C537.887 128.306 531.047 125.934 523.971 124.954C518.953 124.248 513.71 124.552 509.545 127.708C503.901 131.99 503.234 139.654 501.705 146.073C498.295 160.94 494.738 175.777 490.475 190.428C486.437 204.324 480.792 217.564 476.353 231.284C474.608 236.654 474.118 242.711 477.078 247.777C480.626 253.834 487.936 254.794 494.189 256.284C507.762 259.498 521.864 262.468 535.849 263.144C543.983 263.506 550.441 261.125 554.576 253.824C557.595 248.483 559.594 242.427 561.691 236.694C564.631 228.589 567.248 220.337 569.531 212.007C573.818 195.609 577.016 178.945 579.106 162.125C579.557 158.803 573.824 157.98 573.285 161.302Z" fill="#7F72FF"/>
<path d="M208.656 94.378C212.983 92.2676 217.811 91.4024 222.602 91.879C226.718 92.1501 230.615 93.8322 233.636 96.6418C236.576 99.5818 237.997 104.021 236.665 107.892C235.903 109.868 234.687 111.637 233.117 113.057C228.232 117.67 221.755 120.219 215.036 120.172C208.335 120.077 201.87 117.687 196.72 113.4" fill="#382C80"/>
<path d="M210.635 97.7492C215.888 95.456 222.621 94.8092 227.844 97.5728C233.861 100.748 233.881 106.853 228.824 110.93C219.769 118.241 207.715 115.899 198.944 109.578C194.897 106.638 189.761 113.272 193.583 116.526C200.443 122.347 209.009 125.611 218.083 124.64C226.58 123.68 236.38 118.937 240.173 110.842C243.701 103.296 239.624 94.6916 232.725 90.7422C224.679 86.1362 214.781 87.2338 206.686 91.0068C202.1 93.1432 206.098 99.719 210.606 97.7492H210.635Z" fill="#382C80"/>
<path d="M153.805 139.634C155.74 149.664 158.446 159.529 161.9 169.142C164.84 177.168 167.378 184.607 166.986 193.28C166.849 196.22 166.506 199.091 166.084 201.972C165.624 205.118 164.026 209.077 165.849 211.949C167.946 215.271 172.611 218.191 175.649 220.582C179.27 223.408 183.067 226.001 187.017 228.344C189.97 230.244 193.195 231.682 196.582 232.607C200.005 233.527 203.646 233.179 206.833 231.627C212.252 228.687 214.398 221.886 214.124 215.751C213.85 209.616 211.713 203.707 210.812 197.631C210.266 194.889 210.384 192.057 211.155 189.369C213.115 183.754 220.278 182.088 224.561 178.687C229.335 174.907 232.987 169.895 235.125 164.193C239.761 151.6 236.958 137.077 229.961 125.611C227.089 120.964 223.649 116.694 219.72 112.9C206.614 99.9434 186.786 96.6067 170.161 104.56C159.009 109.96 150.003 120.201 153.805 139.634Z" fill="white"/>
<path d="M150.404 140.575C151.57 147.999 153.207 155.341 155.304 162.557C157.431 169.642 160.42 176.541 161.821 183.832C163.32 191.604 161.723 198.65 160.753 206.314C159.93 212.782 163.379 216.849 168.23 220.671C177.775 228.187 190.114 239.359 203.216 237.644C216.319 235.929 220.111 222.111 218.416 210.822C217.544 205.04 212.536 194.269 216.926 189.262C218.553 187.409 221.287 186.4 223.394 185.204C225.878 183.8 228.181 182.098 230.254 180.138C239.878 170.975 243.484 157.598 241.76 144.632C238.428 119.525 216.956 96.8476 191.182 95.4364C179.363 94.7994 166.633 98.7978 157.979 107.02C148.552 115.948 147.052 128.658 149.297 140.879C150.384 146.857 159.42 144.299 158.391 138.37C156.823 129.423 157.97 120.348 164.82 113.87C170.994 107.99 180.02 105.158 188.34 105.05C210.449 104.815 229.431 124.65 232.205 145.916C233.616 156.696 230.303 168.584 221.131 175.179C217.691 177.649 213.575 178.991 210.449 181.931C206.764 185.4 205.392 190.134 205.686 195.112C206.195 203.834 214.398 219.857 205.578 226.776C200.678 230.588 193.818 226.854 189.388 224.248C184.461 221.25 179.695 217.995 175.11 214.497C172.66 212.703 169.72 211.008 169.445 207.784C169.22 205.059 170.631 201.286 170.945 198.483C171.74 191.947 171.288 185.32 169.612 178.952C165.976 165.359 160.4 152.492 157.195 138.674C156.157 134.215 149.669 136.185 150.404 140.575Z" fill="#382C80"/>
<path d="M150.404 140.575C151.57 147.999 153.207 155.341 155.304 162.557C157.431 169.642 160.42 176.541 161.821 183.832C163.32 191.604 161.723 198.65 160.753 206.314C159.93 212.782 163.379 216.849 168.23 220.671C177.775 228.187 190.114 239.359 203.216 237.644C216.319 235.929 220.111 222.111 218.416 210.822C217.544 205.04 212.536 194.269 216.926 189.262C218.553 187.409 221.287 186.4 223.394 185.204C225.878 183.8 228.181 182.098 230.254 180.138C239.878 170.975 243.484 157.598 241.76 144.632C238.428 119.525 216.956 96.8476 191.182 95.4364C179.363 94.7994 166.633 98.7978 157.979 107.02C148.552 115.948 147.052 128.658 149.297 140.879C150.384 146.857 159.42 144.299 158.391 138.37C156.823 129.423 157.97 120.348 164.82 113.87C170.994 107.99 180.02 105.158 188.34 105.05C210.449 104.815 229.431 124.65 232.205 145.916C233.616 156.696 230.303 168.584 221.131 175.179C217.691 177.649 213.575 178.991 210.449 181.931C206.764 185.4 205.392 190.134 205.686 195.112C206.195 203.834 214.398 219.857 205.578 226.776C200.678 230.588 193.818 226.854 189.388 224.248C184.461 221.25 179.695 217.995 175.11 214.497C172.66 212.703 169.72 211.008 169.445 207.784C169.22 205.059 170.631 201.286 170.945 198.483C171.74 191.947 171.288 185.32 169.612 178.952C165.976 165.359 160.4 152.492 157.195 138.674C156.157 134.215 149.669 136.185 150.404 140.575Z" fill="#382C80"/>
<path d="M223.64 127.414C218.906 128.168 214.349 130.52 214.653 135.999C214.865 138.226 215.758 140.334 217.211 142.035C218.191 143.309 220.023 144.387 220.827 145.73C221.905 146.181 222.062 146.798 221.278 147.582C220.513 148.121 219.729 148.631 218.916 149.101C216.339 150.659 218.602 154.432 221.258 153.109C224.59 151.453 228.892 148.641 226.158 144.534C224.914 142.633 222.66 141.594 221.121 139.919C219.788 138.507 218.014 136.263 218.671 134.107C219.445 131.579 222.356 131.079 224.502 130.628C226.648 130.177 225.688 127.081 223.61 127.414H223.64Z" fill="#382C80"/>
<path d="M203.53 142.222C203.683 142.354 203.844 142.478 204.01 142.594C203.901 142.462 203.803 142.321 203.716 142.173V141.193L205.676 140.497L205.833 140.624C205.833 140.624 205.539 140.252 205.706 140.497C205.872 140.742 205.706 140.497 205.706 140.409C205.706 140.32 205.794 140.644 205.804 140.703C205.86 140.956 205.748 141.217 205.524 141.348C205.301 141.48 205.018 141.453 204.824 141.281C204.657 141.163 204.686 141.085 204.608 140.889C204.432 140.477 204.549 140.81 204.539 141.016C204.53 141.222 204.539 141.163 204.539 141.242C204.539 141.32 204.539 141.389 204.539 141.242C204.539 141.095 205.372 140.418 204.853 140.722C204.334 141.026 205.617 140.722 205.647 140.722L205.823 140.801L205.294 140.575C204.971 140.458 204.628 140.369 204.314 140.281C203.56 140.097 202.769 140.376 202.296 140.991C201.823 141.606 201.757 142.442 202.129 143.123C202.837 144.58 204.454 145.36 206.035 145.008C207.617 144.656 208.75 143.263 208.773 141.643C208.958 140.217 208.32 138.809 207.127 138.008C206.101 137.328 204.782 137.277 203.706 137.875C202.631 138.474 201.979 139.622 202.017 140.852C202.054 142.082 202.773 143.188 203.883 143.721C204.483 144.064 205.208 144.111 205.847 143.848C206.486 143.586 206.969 143.044 207.156 142.378C207.303 141.656 207.118 140.905 206.65 140.335C206.182 139.765 205.483 139.435 204.745 139.438C203.383 139.438 202.423 141.32 203.559 142.3L203.53 142.222Z" fill="#382C80"/>
<path d="M227.609 136.734C227.766 136.861 227.923 136.988 228.089 137.106C227.982 136.972 227.884 136.831 227.795 136.685V135.705L229.755 135.009L229.912 135.136C229.912 135.136 229.618 134.774 229.785 135.009C229.951 135.244 229.785 135.009 229.785 134.921C229.785 134.832 229.883 135.166 229.883 135.224C229.94 135.477 229.827 135.738 229.603 135.87C229.38 136.002 229.097 135.975 228.903 135.803C228.736 135.685 228.765 135.607 228.687 135.411C228.511 134.999 228.628 135.332 228.618 135.538C228.609 135.744 228.618 135.685 228.618 135.763C228.618 135.842 228.618 135.901 228.618 135.763C228.618 135.626 229.451 134.94 228.932 135.244C228.413 135.548 229.696 135.244 229.726 135.244L229.902 135.313L229.373 135.097C229.052 134.98 228.725 134.882 228.393 134.803C227.639 134.619 226.848 134.897 226.375 135.512C225.902 136.127 225.836 136.964 226.208 137.645C226.971 139.029 228.517 139.788 230.079 139.546C231.642 139.139 232.763 137.768 232.852 136.155C233.035 134.73 232.398 133.323 231.206 132.52C230.18 131.84 228.861 131.789 227.786 132.387C226.71 132.986 226.059 134.134 226.096 135.364C226.133 136.594 226.853 137.7 227.962 138.233C228.561 138.58 229.288 138.629 229.928 138.366C230.569 138.103 231.052 137.558 231.235 136.89C231.383 136.168 231.197 135.417 230.729 134.847C230.261 134.277 229.562 133.947 228.824 133.95C228.155 133.968 227.559 134.378 227.302 134.996C227.046 135.615 227.178 136.326 227.638 136.812L227.609 136.734Z" fill="#382C80"/>
<path d="M190.32 187.213C199.365 191.035 210.782 191.741 219.455 186.233C223.571 183.607 221.014 176.669 216.055 178.148C208.215 180.471 201.267 182.333 192.937 181.01C189.507 180.471 186.449 185.596 190.32 187.233V187.213Z" fill="#382C80"/>
<path d="M199.473 136.9C201.776 134.94 205.275 135.44 208.038 135.44C210.802 135.44 210.733 131.422 208.038 131.138C204.01 130.716 199.787 131.206 197.121 134.548C196.535 135.207 196.564 136.209 197.188 136.833C197.812 137.457 198.814 137.486 199.473 136.9Z" fill="#382C80"/>
<path d="M215.917 163.958C216.749 163.133 217.203 162.001 217.172 160.83C217.14 159.659 216.626 158.553 215.751 157.774C214.47 156.689 212.685 156.421 211.142 157.083C209.599 157.745 208.562 159.222 208.465 160.898C208.368 162.575 209.228 164.162 210.684 164.997C211.836 165.67 213.23 165.784 214.476 165.308C215.722 164.832 216.684 163.816 217.093 162.547C217.464 161.064 217.054 159.494 216.006 158.382C214.761 157.02 212.419 156.569 211.027 157.99C210.477 158.566 210.218 159.36 210.32 160.15C210.423 160.939 210.877 161.64 211.556 162.057C211.799 162.232 212.076 162.352 212.37 162.41C212.478 162.41 212.772 162.537 212.37 162.41C212.154 162.312 212.105 162.292 212.233 162.41C212.36 162.527 212.321 162.41 211.968 162.184C212.223 162.439 211.87 162.027 211.831 161.959C212.017 162.292 211.743 161.763 211.752 161.694C211.762 161.626 211.841 162.39 211.801 161.763C211.752 161.62 211.752 161.465 211.801 161.322C211.801 161.087 211.801 161.038 211.801 161.175C211.801 161.312 211.801 161.273 211.939 160.861L212.184 160.548C211.948 160.812 212.331 160.44 212.399 160.391C212.027 160.646 212.879 160.185 212.576 160.303C212.105 160.401 212.487 160.303 212.576 160.303C213.046 160.205 212.576 160.244 212.487 160.303C212.566 160.303 213.124 160.42 212.762 160.303L213.115 160.45C212.938 160.342 212.948 160.352 213.115 160.45C213.281 160.548 213.301 160.606 213.203 160.508C213.105 160.41 213.134 160.44 213.262 160.587C213.389 160.734 213.389 160.763 213.32 160.646C213.252 160.528 213.262 160.548 213.418 160.881C213.281 160.489 213.497 161.047 213.418 161.067C213.34 161.087 213.418 160.734 213.418 160.734C213.36 161.096 213.35 161.175 213.418 160.989C213.487 160.802 213.418 160.881 213.418 161.047C213.281 161.518 213.546 160.753 213.35 161.165C213.222 161.312 213.222 161.312 213.35 161.165L213.134 161.341C213.36 161.165 213.134 161.341 213.026 161.341C213.507 161.126 212.683 161.43 212.968 161.341C213.252 161.253 213.262 161.469 213.075 161.341C212.879 161.341 212.889 161.214 213.075 161.341L212.83 161.243C213.085 161.371 212.83 161.243 212.83 161.155C212.723 160.91 213.075 161.488 212.83 161.155C212.938 161.4 212.752 160.802 212.83 161.087C212.909 161.371 212.83 161.528 212.879 161.087V161.43C212.879 161.234 212.879 161.145 212.879 161.371C212.968 161.165 212.987 161.136 212.879 161.263C212.839 161.338 212.793 161.41 212.742 161.479C212.21 162.35 212.436 163.484 213.262 164.085C214.062 164.702 215.195 164.635 215.917 163.929V163.958Z" fill="#382C80"/>
<path d="M166.8 165.075C165.232 161.155 163.282 157.588 162.292 153.423C161.498 150.081 161.919 146.112 164.546 143.897C166.927 141.937 170.563 141.937 173.366 143.26C176.169 144.583 181.333 148.925 182.088 152.218C182.549 148.237 181.851 144.208 180.079 140.614C178.276 136.969 173.689 132.774 175.296 128.364C177.051 123.562 183.891 123.121 188.036 123.17C198.562 123.298 208.195 123.337 218.26 120.534C228.324 117.731 237.438 117.594 244.798 108.951C246.65 106.785 248.208 104.139 248.13 101.287C247.924 93.7998 239.624 93.9468 235.753 90.213C230.941 85.5874 228.246 79.8152 222.513 75.7188C211.804 68.0598 198.546 64.8429 185.518 66.742C165.467 69.878 148.278 85.362 141.535 104.521C139.86 109.294 138.86 114.507 136.361 118.956C133.588 123.856 129.648 123.856 124.738 126.101C114.154 131.001 104.325 137.978 97.6315 147.661C89.4485 159.421 86.6261 175.502 92.7315 188.458C97.4453 198.405 106.912 205.588 117.329 209.136C124.715 211.525 132.467 212.58 140.222 212.252C147.21 212.066 155.275 213.732 161.469 209.518C166.369 206.167 168.329 199.895 169.162 194.005C170.223 186.624 170.1 179.121 168.799 171.778C168.373 169.479 167.702 167.232 166.8 165.075Z" fill="#382C80"/>
<path d="M170.377 164.095C168.926 160.263 164.066 152.061 166.712 148.013C169.495 143.75 176.717 150.444 177.678 153.443C179.314 158.529 186.243 157.363 186.694 152.218C187.117 147.988 186.487 143.719 184.861 139.791C183.813 137.292 178.364 131.393 180.579 129.207C182.48 127.326 187.527 128.002 189.898 128.031C195.269 128.168 200.644 128.024 206 127.6C214.722 126.757 223.522 124.562 231.931 122.141C239.212 120.034 246.003 116.105 250.237 109.646C254.157 103.766 253.745 96.0341 247.856 91.6633C245.69 90.0659 243.171 89.2819 240.849 87.9883C237.438 86.0969 235.194 82.4807 232.803 79.5113C221.925 65.9971 202.903 59.9113 185.978 62.2241C170.112 64.3311 156.02 73.5137 146.465 86.1557C141.565 92.6237 138.448 99.7385 135.891 107.373C134.538 111.401 133.597 117.094 129.54 119.29C126.159 121.103 122.269 122.063 118.829 123.837C103.58 131.677 90.3499 144.721 86.2339 161.812C82.2257 178.472 87.5373 195.132 101.14 205.647C108.916 211.534 118.114 215.253 127.796 216.427C132.99 217.113 138.105 216.986 143.319 217.084C148.533 217.182 153.629 217.593 158.587 216.104C167.349 213.497 171.71 205.735 173.356 197.249C175.473 186.351 175.532 174.268 171.494 163.791C169.279 158.039 159.91 160.548 162.164 166.359C165.398 174.709 165.781 184.273 164.624 193.103C163.566 201.208 159.94 207.107 151.188 207.529C135.812 208.254 118.094 207.725 105.697 197.396C93.7211 187.38 91.3397 171.504 97.3961 157.51C103.707 142.986 117.31 134.088 131.49 128.462C138.233 125.787 141.29 120.622 143.456 113.909C145.798 106.608 147.69 99.9443 152.041 93.5057C159.675 82.1965 171.798 73.6999 185.312 71.2989C193.32 69.9445 201.545 70.7531 209.136 73.6411C217.123 76.5811 222.611 81.4223 227.756 88.0471C231.617 93.0451 235.096 95.3383 240.496 98.1803C247.571 101.875 238.8 108.96 234.469 111.048C227.746 114.311 218.975 115.762 211.674 117.124C202.736 118.8 193.809 117.731 184.832 118.447C178.442 118.956 171.112 121.73 170.289 129.041C169.887 132.716 171.484 135.999 173.434 138.997C176.237 143.29 177.825 146.935 177.492 152.218L186.517 151.002C183.656 142.8 172.739 134.842 164.056 139.154C152.511 144.897 159.861 158.754 163.634 166.937C165.379 170.72 171.857 168.005 170.377 164.095Z" fill="#382C80"/>
<path d="M493.894 230.951C499.539 213.027 504.978 195.044 510.466 177.051L514.435 164.036C515.748 159.715 516.591 152.639 519.835 149.336C525.029 144.025 537.671 150.091 543.58 151.718C547.725 152.855 551.881 153.972 556.036 155.118C558.437 155.785 561.465 155.951 561.916 159.097C562.141 160.665 561.151 163.517 560.808 165.075C558.848 174.222 556.634 183.29 554.164 192.28C551.89 200.688 549.427 209.041 546.775 217.339C545.442 221.494 544.07 225.62 542.649 229.745C541.502 233.068 539.415 244.308 533.829 242.123C531.036 241.025 529.85 245.504 532.594 246.601C538.298 248.875 542.286 244.102 544.207 239.271C547.451 231.078 550.038 222.533 552.645 214.114C557.957 196.955 563.65 178.991 566.257 161.194C567.159 155.03 563.592 152.521 558.153 151.032C549.734 148.739 541.297 146.308 532.78 144.387C527.616 143.231 521.305 142.555 517.218 146.7C515.327 148.66 514.503 151.296 513.7 153.795C512.23 158.421 510.887 163.096 509.486 167.751C503.214 188.517 496.873 209.273 490.778 230.108C490.19 232.127 493.306 232.97 493.933 230.97L493.894 230.951Z" fill="#382C80"/>
<path d="M512.74 238.781C510.202 238.147 507.614 239.618 506.86 242.123C506.152 244.647 507.555 247.281 510.045 248.101C512.363 248.987 514.985 248.153 516.366 246.092C517.781 243.926 517.614 241.089 515.954 239.104C515.18 238.327 513.947 238.251 513.083 238.928C512.22 239.599 511.982 240.802 512.524 241.75C512.851 242.267 512.909 242.908 512.681 243.475C512.549 243.828 512.215 244.065 511.838 244.073C511.446 244.073 510.858 243.808 510.858 243.524C510.858 243.24 511.26 242.427 511.701 242.544C514.112 243.005 515.17 239.438 512.73 238.81L512.74 238.781Z" fill="#382C80"/>
<path d="M90.046 388.888C82.99 395.111 77.698 403.646 77.012 413.152C76.7278 417.072 82.5784 417.582 83.6956 414.054C86.126 406.361 89.213 399.638 95.2596 394.16C98.7974 390.936 93.5838 385.801 90.0362 388.927L90.046 388.888Z" fill="#382C80"/>
<path d="M261.644 288.506C267.524 276.54 274.12 264.633 279.226 252.325C281.186 247.63 273.6 244.7 271.15 248.924C264.506 260.351 259.557 273.306 254.726 285.586C253.167 289.565 259.753 292.338 261.644 288.526V288.506Z" fill="#382C80"/>
<path d="M86.2731 748.224L106.794 752.918L105.266 750.243C101.679 761.915 98.6701 773.763 95.3185 785.523L98.3271 783.818C94.5608 782.218 90.7026 780.843 86.7729 779.702C84.3719 779.026 82.6471 782.73 85.0285 783.837C88.9297 785.637 92.9353 787.202 97.0237 788.522C98.3212 788.867 99.6558 788.108 100.023 786.817C103.139 774.998 106.608 763.297 109.47 751.39C109.778 750.23 109.103 749.037 107.951 748.704L87.2727 744.598C84.9207 744.138 83.9015 747.675 86.2927 748.214L86.2731 748.224Z" fill="#7F72FF"/>
<path d="M110.45 697.205C113.39 707.525 116.614 717.785 119.054 728.242C119.544 730.339 122.298 730.408 123.376 728.81C124.454 727.213 131.5 726.713 133.529 726.243C136.992 725.439 140.435 724.557 143.858 723.597C147.396 722.617 151.816 721.637 150.718 717.05C149.317 711.17 147.572 705.614 146.534 699.626C145.495 693.638 144.113 687.866 141.212 682.486C140.669 681.572 139.583 681.131 138.556 681.408C131.265 684.23 123.268 686.994 116.712 691.286C114.88 692.482 115.987 695.824 118.28 695.01C125.591 692.413 132.51 688.66 139.84 685.926L137.194 684.848C139.752 689.904 140.84 695.402 141.761 700.949C142.202 703.585 142.584 706.241 143.123 708.858C143.662 711.474 145.465 714.738 145.505 717.266C145.505 718.491 147.465 717.54 144.289 718.305C142.849 718.638 141.438 719.118 140.007 719.51C137.152 720.281 134.28 721.003 131.393 721.676C127.473 722.587 121.406 722.421 119.339 726.419L123.66 726.988C119.917 716.933 116.938 706.564 113.664 696.333C113.027 694.373 109.921 695.167 110.499 697.205H110.45Z" fill="#7F72FF"/>
<path d="M115.292 579.909C113.684 585.603 112.067 591.297 110.392 596.961C109.412 600.362 107.305 604.174 110.107 607.212C112.91 610.25 118.173 612.328 121.867 613.954C126.701 615.983 131.701 617.586 136.812 618.747C138.137 619.082 139.491 618.312 139.88 617.002C141.392 611.071 143.385 605.274 145.838 599.666C147.034 597.049 148.376 594.501 149.758 591.973C150.679 590.297 151.963 588.592 151.385 586.563C150.405 583.045 143.996 580.987 141.007 579.703C136.489 577.743 132.099 576.763 127.218 577.449C124.611 577.822 125.337 581.889 127.816 581.928C132.315 581.991 136.743 583.052 140.781 585.035C141.673 585.466 145.975 587.053 146.289 587.975C146.524 588.621 143.77 592.473 143.349 593.267C139.665 600.349 136.883 607.866 135.068 615.64L138.135 613.896C130.893 612.827 120.917 610.211 115.243 605.33C113.214 603.586 113.371 603.174 113.616 600.734C113.861 598.294 114.841 595.834 115.439 593.482C116.517 589.258 117.634 585.054 118.761 580.84C119 579.894 118.442 578.929 117.503 578.664C116.563 578.399 115.583 578.929 115.292 579.86V579.909Z" fill="#7F72FF"/>
<path d="M84.078 636.671C87.2336 635.919 90.3827 635.152 93.5252 634.368C94.5836 634.103 96.72 633.064 97.8176 633.3C100.042 633.78 100.13 636.093 100.62 637.847C102.431 644.114 103.874 650.482 104.942 656.918L107.284 653.86C100.491 654.323 93.7774 655.589 87.2826 657.633C86.4581 657.861 85.8176 658.511 85.6024 659.339C85.3873 660.166 85.6301 661.046 86.2394 661.646C86.8488 662.247 87.7321 662.476 88.5566 662.249C95.0442 661.024 101.385 659.564 107.931 658.633C109.274 658.446 109.891 656.79 109.636 655.644C108.558 651.028 107.539 646.412 106.275 641.845C105.344 638.494 104.766 633.682 102.58 630.879C101.012 628.86 99.0132 628.919 96.7004 629.36C92.1238 630.173 87.5374 631.859 83.0686 633.123C80.7754 633.77 81.7358 637.239 84.0486 636.69L84.078 636.671Z" fill="#7F72FF"/>
<path d="M157.686 615.336C155.974 620.047 154.426 624.819 153.041 629.654C152.198 632.594 149.395 638.641 150.699 641.718C151.835 644.423 156.49 644.824 158.833 645.569C164.252 647.294 169.681 648.98 175.11 650.685C176.156 650.972 177.265 650.522 177.815 649.587C181.343 642.139 185.165 633.437 186.008 625.146C186.645 618.796 177.364 617.384 172.631 616.453C171.473 616.131 170.273 616.809 169.951 617.967C169.629 619.126 170.307 620.326 171.465 620.648C174.14 621.628 177.472 622.167 179.873 623.705C181.618 624.823 181.284 624.509 180.853 626.518C180.53 627.978 180.157 629.458 179.756 630.879C178.174 636.466 176.135 641.914 173.66 647.167L176.365 646.069L164.605 642.472C162.498 641.835 160.381 641.189 158.254 640.512L156.441 639.964C154.579 640.055 154.151 639.545 155.158 638.435C154.815 635.387 156.696 630.977 157.461 628.066C158.509 624.068 159.822 620.148 161.214 616.257C162.008 614.043 158.49 613.102 157.696 615.277L157.686 615.336Z" fill="#7F72FF"/>
<path d="M160.921 554.88C163.857 562.647 166.28 570.599 168.173 578.684C168.463 579.738 169.422 580.468 170.515 580.468C181.148 579.086 191.761 577.528 202.375 576.028C203.009 575.854 203.548 575.435 203.873 574.864C204.198 574.292 204.283 573.615 204.109 572.981L198.347 557.369C197.024 553.782 196.132 548.677 193.555 545.727C191.742 543.659 189.203 543.424 186.636 543.933C181.736 544.913 176.787 546.766 172.044 548.324C169.153 549.304 170.329 553.714 173.318 552.92C176.689 552.018 180.021 551.019 183.372 549.98C187.626 548.726 189.684 548.089 191.536 553.126L199.327 574.264L201.061 571.207C190.654 572.667 180.246 574.078 169.868 575.656L172.808 577.351C169.594 569.678 166.928 561.769 164.086 553.959C163.351 551.999 160.166 552.822 160.881 554.841L160.921 554.88Z" fill="#7F72FF"/>
<path d="M198.689 732.152C195.063 730.878 191.509 729.438 188.027 727.83C186.422 727.208 184.874 726.447 183.401 725.557C181.137 723.979 180.598 723.518 181.598 720.892C184.332 713.669 187.174 706.447 190.173 699.332L187.008 700.616C193.142 704.31 199.434 707.966 205.824 711.18C208.421 712.493 210.635 708.789 208.117 707.26C202.002 703.536 195.563 700.145 189.183 696.902C188.603 696.58 187.908 696.538 187.294 696.787C186.679 697.037 186.21 697.551 186.018 698.185C184.175 703.085 182.157 707.985 180.206 712.885C178.893 716.178 175.62 721.245 176.62 724.949C177.521 728.252 181.52 729.467 184.352 730.751C188.678 732.725 193.15 734.364 197.729 735.651C199.983 736.298 200.845 732.946 198.709 732.182L198.689 732.152Z" fill="#7F72FF"/>
<path d="M147.671 786.366C146.691 783.553 145.711 780.741 144.731 777.928C144.025 775.899 141.232 770.803 143.006 768.785C144.397 767.217 149.082 766.825 151.061 766.168L160.322 763.306C161.214 763.032 164.242 761.65 164.958 761.876C166.193 762.277 166.869 764.816 167.31 765.933C168.496 768.873 169.329 771.93 170.318 774.9C170.897 776.654 171.828 777.84 170.789 779.506C169.887 780.937 168.407 781.28 166.869 781.956C164.242 783.151 161.655 784.396 159.097 785.729C156.892 786.885 158.431 790.776 160.832 789.835C165.987 787.806 177.933 785.18 176.228 777.752C175.091 772.754 172.759 767.775 171.053 762.934C170.073 760.092 169.093 757.054 165.546 757.123C161.136 757.181 155.863 759.955 151.679 761.268C147.925 762.444 142.986 763.071 139.821 765.56C137.488 767.393 137.508 769.627 138.341 772.273C139.948 777.36 142.388 782.318 144.339 787.277C145.132 789.296 148.406 788.483 147.661 786.366H147.671Z" fill="#7F72FF"/>
<path d="M111.479 833.249C112.298 826.7 113.668 820.232 115.575 813.914L113.508 815.482L138.008 815.56L135.881 813.943C137.566 821.214 138.049 828.713 137.312 836.14L139.076 833.818C135.672 834.818 132.18 835.494 128.649 835.836C125.787 836.228 126.806 840.325 129.286 840.55C133.092 840.773 136.895 840.056 140.36 838.463C141.382 838.141 142.092 837.211 142.133 836.14C142.601 828.299 141.941 820.431 140.173 812.777C139.897 811.829 139.034 811.172 138.047 811.16H113.547C112.587 811.177 111.749 811.816 111.479 812.738C109.409 819.211 108.18 825.923 107.824 832.71C107.745 834.788 111.224 835.346 111.518 833.21L111.479 833.249Z" fill="#7F72FF"/>
<path d="M208.852 815.335C203.697 812.297 196.729 805.329 201.678 799.116C203.442 796.911 206.098 795.039 208.215 793.187C209.459 792.099 218.809 783.524 219.436 789.375C219.74 792.168 224.159 792.207 223.865 789.375C223.733 787.453 222.798 785.675 221.29 784.477C219.782 783.278 217.839 782.769 215.937 783.073C209.998 783.818 204.618 790.404 200.502 794.206C195.847 798.518 194.171 801.723 196.798 807.926C198.741 812.606 202.376 816.382 206.98 818.5C209.077 819.431 210.9 816.54 208.822 815.354L208.852 815.335Z" fill="#7F72FF"/>
<path d="M93.5059 519.6C99.2879 520.992 105.08 522.354 110.862 523.775L109.46 521.932C110.233 530.952 108.908 540.029 105.589 548.451L108.529 546.805C102.27 545.467 95.9478 544.447 89.5859 543.747C86.9105 543.443 86.3225 547.912 88.9489 548.451C95.2116 549.77 101.538 550.768 107.902 551.44C108.963 551.435 109.891 550.727 110.176 549.706C113.329 540.809 114.401 531.308 113.312 521.932C113.292 521.082 112.726 520.342 111.91 520.1C106.03 518.885 100.258 517.611 94.4369 516.366C92.3397 515.925 91.4381 519.1 93.5451 519.6H93.5059Z" fill="#7F72FF"/>
<path d="M125.581 488.877C125.483 495.384 125.513 501.901 125.229 508.399C125.236 509.453 125.939 510.375 126.953 510.662C135.352 512.358 143.77 513.955 152.188 515.562C152.921 515.748 153.698 515.589 154.299 515.131C154.9 514.673 155.26 513.966 155.275 513.21C155.816 507.178 155.871 501.112 155.442 495.071C155.158 492.131 150.885 492.013 150.777 495.071C150.571 501.117 150.777 507.154 150.395 513.21L153.482 510.858C145.064 509.261 136.646 507.644 128.208 506.135L129.923 508.399C129.59 501.901 129.58 495.384 129.433 488.877C129.257 487.952 128.449 487.282 127.507 487.282C126.565 487.282 125.757 487.952 125.581 488.877Z" fill="#7F72FF"/>
<path d="M185.058 497.717C185.144 502.385 186.012 507.006 187.625 511.388C187.895 512.255 188.678 512.861 189.585 512.907C195.008 513.489 200.491 513.138 205.795 511.868C208.519 511.201 207.294 507.399 204.668 507.771C199.675 508.504 194.631 508.831 189.585 508.751L191.369 509.78C189.437 506.049 188.428 501.909 188.429 497.707C188.38 495.531 185.028 495.521 185.048 497.707L185.058 497.717Z" fill="#7F72FF"/>
<path d="M275.09 753.467C280.875 752.297 286.521 750.523 291.937 748.175L289.271 747.47C294.886 757.76 300.178 767.707 303.559 779.016L305.235 776.076C298.895 778.555 292.407 780.927 286.272 783.916C283.871 785.072 285.557 789.12 288.105 788.257C294.543 786.052 300.845 783.171 307.078 780.476C308.016 779.929 308.47 778.82 308.185 777.771C304.608 766.54 299.826 754.957 292.642 745.529C292.068 744.636 290.904 744.333 289.967 744.833C284.887 747.125 279.587 748.894 274.15 750.116C271.945 750.615 272.885 753.938 275.13 753.497L275.09 753.467Z" fill="#7F72FF"/>
<path d="M335.36 802.702C336.735 791.751 338.678 780.877 341.181 770.127L338.711 771.529C345.365 772.852 352 774.253 358.644 775.596C360.869 776.037 367.19 776.223 368.317 778.33C368.827 779.31 367.847 782.426 367.709 783.436C367.442 785.435 367.141 787.427 366.808 789.414C366.239 792.68 365.586 795.947 364.848 799.214C363.946 803.075 363.407 805.77 358.88 803.869C354.081 801.765 348.718 801.323 343.641 802.614C340.632 803.369 341.926 807.818 344.915 807.23C349.991 806.25 353.803 807.23 358.537 808.984C361.006 809.896 363.544 810.513 365.828 808.778C367.876 807.22 368.346 804.555 368.915 802.212C370.042 797.508 370.943 792.736 371.659 787.953C372.443 782.701 375.295 775.213 368.915 773.106C364.377 771.597 359.066 771.254 354.362 770.362C349.462 769.441 344.64 768.589 339.789 767.658C338.718 767.386 337.623 768.009 337.31 769.069C334.432 779.924 332.513 791.011 331.577 802.203C331.41 804.349 335.085 804.888 335.369 802.712L335.36 802.702Z" fill="#7F72FF"/>
<path d="M360.575 689.218C357.723 694.461 355.087 699.783 352.735 705.241C351.432 708.181 347.923 713.415 349.237 716.639C350.55 719.863 355.744 722.911 358.566 724.959C363.067 728.195 367.868 730.991 372.904 733.309C374.197 733.916 376.314 733.554 376.579 731.819C377.162 727.344 378.729 723.054 381.165 719.255C382.645 717.021 385.506 714.885 385.879 712.092C386.643 706.378 378.039 701.508 373.688 699.871C371.14 698.891 369.817 702.733 371.914 704.095C374.011 705.457 377.794 707.133 379.176 709.387C381.047 712.474 378.372 714.287 376.775 716.688C374.113 720.865 372.4 725.575 371.757 730.486L375.432 728.997C371.892 727.409 368.461 725.589 365.162 723.548C362.173 721.686 356.9 718.952 354.989 716.002C353.539 715.326 353.353 714.355 354.45 713.062L355.136 711.308C356.208 708.577 357.331 705.862 358.507 703.164C360.271 699.126 362.107 695.128 364.015 691.169C365.093 688.905 361.83 686.925 360.614 689.209L360.575 689.218Z" fill="#7F72FF"/>
<path d="M274.717 688.454C279.206 693.56 283.743 698.617 288.29 703.673C290.525 706.143 293.729 711.788 297.806 710.132C299.531 709.426 300.746 707.652 302.069 706.359L309.174 699.175L315.642 692.639C317.043 691.218 319.317 689.61 320.052 687.65C321.395 684.122 316.955 681.182 314.897 679.056C310.193 674.156 305.519 669.256 300.717 664.454C298.071 661.818 294.895 659.201 291.054 661.22C286.477 663.64 282.508 669.422 278.921 673.078C276.961 675.106 280.029 678.213 282.048 676.204C284.89 673.382 287.604 670.236 290.652 667.629C293.7 665.022 294.719 665.003 297.453 667.717C299.051 669.305 300.579 670.99 302.138 672.617C305.264 675.881 308.429 679.124 311.575 682.417C312.31 683.182 315.701 685.857 315.622 686.592C315.73 685.612 312.869 688.836 312.339 689.375L304 697.862C302.461 699.42 298.051 705.418 296.071 705.535C295.327 705.535 292.818 702.047 292.093 701.272L286.801 695.598C283.714 692.286 280.597 689.013 277.471 685.739C275.746 683.936 273.139 686.612 274.756 688.454H274.717Z" fill="#7F72FF"/>
<path d="M341.779 604.546C332.532 601.184 322.594 600.174 312.859 601.606C311.806 601.897 311.076 602.856 311.076 603.949C311.354 613.438 310.718 622.933 309.175 632.3C308.856 633.602 309.608 634.926 310.89 635.318C316.669 637.39 322.595 639.028 328.618 640.218C332.704 641.022 339.457 643.09 343.553 641.992C346.993 641.071 346.493 637.621 346.238 634.848C345.778 628.654 345.356 622.451 344.474 616.306C344.112 613.768 340.035 614.425 340.064 616.904C340.123 621.324 340.456 625.724 340.799 630.124C340.956 632.202 341.544 634.652 341.328 636.73C341.172 637.886 341.417 637.984 342.054 637.043C340.829 636.955 339.604 636.837 338.388 636.7C329.449 635.657 320.66 633.588 312.193 630.536L313.908 633.564C315.544 623.762 316.221 613.823 315.927 603.89L314.153 606.232C323.073 604.994 332.15 605.54 340.858 607.839C343.053 608.398 343.857 605.242 341.779 604.488V604.546Z" fill="#7F72FF"/>
<path d="M248.62 589.102C242.372 594.523 236.613 600.485 231.412 606.918C230.717 607.642 230.574 608.734 231.059 609.613C236.459 616.904 241.486 624.793 247.395 631.663C251.737 636.71 257.509 630.752 261.811 628.145C265.114 626.185 269.357 624.401 272.209 621.775C273.712 620.66 274.199 618.628 273.365 616.953C272.091 613.964 268.808 610.926 266.848 608.398C263.82 604.478 260.694 600.695 257.558 596.883C256.029 595.021 252.756 597.5 254.197 599.47C257.578 604.135 260.988 608.77 264.516 613.327C265.336 614.64 266.285 615.867 267.348 616.992C268.955 618.355 269.416 617.433 267.446 619.011C265.065 620.922 261.958 622.333 259.342 623.911C257.93 624.764 252.609 629.184 251.257 628.811C249.904 628.439 247.513 623.911 246.553 622.647L234.9 607.33V609.574C239.716 603.063 245.133 597.019 251.08 591.522C252.717 590.023 250.306 587.651 248.669 589.102H248.62Z" fill="#7F72FF"/>
<path d="M260.645 534.79C259.404 540.16 258.143 545.528 256.862 550.891C256.098 554.125 253.481 559.77 254.785 563.141C256.088 566.513 261.057 568.1 263.791 569.56C268.233 571.912 272.815 573.99 277.511 575.783C278.565 576.064 279.677 575.612 280.235 574.676C284.822 566.248 289.438 557.83 293.906 549.333C294.244 548.725 294.288 547.997 294.025 547.353C293.762 546.709 293.221 546.219 292.554 546.021C284.655 542.993 276.805 539.729 268.799 536.985C265.986 536.005 264.987 540.258 267.603 541.346C275.443 544.61 283.44 547.383 291.358 550.372L290.026 547.04C285.292 555.38 280.696 563.808 276.08 572.226L278.805 571.119C275.041 569.698 271.327 568.179 267.711 566.424C266.084 565.631 264.467 564.807 262.88 563.935C260.126 562.436 259.097 562.504 259.165 558.565C259.224 554.909 260.743 550.725 261.459 547.099C262.223 543.277 263.001 539.458 263.791 535.643C264.212 533.594 261.116 532.703 260.645 534.77V534.79Z" fill="#7F72FF"/>
<path d="M425.217 763.346C421.777 762.307 416.093 759.132 412.477 760.67C410.683 761.444 409.733 763.365 408.743 764.904C407.07 767.517 405.437 770.15 403.843 772.803C401.961 775.88 400.628 778.565 403.323 781.564C406.815 785.167 411.155 787.836 415.946 789.325C418.543 790.129 420.081 786.336 417.778 784.984C415.475 783.632 412.957 782.485 410.703 780.956C409.096 779.868 407.194 778.996 407.224 776.928C407.224 775.86 409.135 773.841 409.674 773.008C410.791 771.205 412.614 766.482 414.525 765.629C416.436 764.776 422.198 767.177 424.07 767.638C425.217 767.884 426.358 767.193 426.67 766.062C426.982 764.93 426.357 763.752 425.246 763.375L425.217 763.346Z" fill="#7F72FF"/>
<path d="M386.134 763.395C397.678 757.162 409.742 747.891 415.651 735.847C417.376 732.329 413.035 728.516 410.026 731.515C400.99 740.541 393.111 749.724 382.263 756.77C378.127 759.455 381.763 765.747 386.134 763.395Z" fill="#382C80"/>
<path d="M113.381 786.836C103.818 786.565 94.5078 783.706 86.4404 778.565C81.5404 775.527 77.5518 782.887 82.0304 786.121C91.3725 792.801 102.97 795.533 114.312 793.726C118.349 793.147 117.173 786.944 113.332 786.866L113.381 786.836Z" fill="#382C80"/>
<path d="M274.227 497.717C273.923 500.402 272.267 505.419 273.315 508.007C274.139 510.016 276.177 510.339 278.088 510.76C285.452 512.343 293.042 512.578 300.491 511.456C302.862 511.103 302.323 507.066 299.913 507.242C294.899 507.729 289.851 507.765 284.83 507.35C282.645 507.125 278.274 507.174 277.373 505.292C276.549 503.567 277.51 499.579 277.627 497.717C277.755 495.502 274.462 495.59 274.227 497.717Z" fill="#7F72FF"/>
<path d="M465.906 502.94C473.165 489.518 481.496 476.703 490.817 464.622L485.349 471.688C498.69 454.583 514.102 439.201 531.232 425.892L524.078 431.42C544.406 415.802 566.646 402.846 590.258 392.866L581.389 396.61C604.111 387.113 627.961 380.578 652.351 377.167L642.031 378.558C666.296 375.385 690.874 375.421 715.129 378.666L704.349 377.216C729.241 380.561 753.584 387.167 776.752 396.865L766.56 392.523C791.687 403.303 814.531 417.523 836.14 434.183L826.898 427.039C839.815 437.113 851.673 448.472 864.295 458.918C873.174 466.278 883.552 472.472 895.655 471.923C905.408 471.694 914.833 468.357 922.556 462.397C929.896 456.723 936.345 448.628 938.471 439.328C940.971 428.323 940.872 414.681 933.993 405.116C926.633 394.895 919.136 384.958 909.561 376.696C899.987 368.435 890.02 360.722 879.74 353.47C864.717 342.877 848.135 334.272 831.289 327.01C791.716 309.929 750.694 299.247 707.505 296.856C668.274 294.72 628.995 300.105 591.787 312.722C552.988 325.981 518.11 345.866 486.28 371.62C453.734 397.962 425.441 430.773 405.008 467.356C396.012 483.448 400.598 506.556 417.65 515.572C434.065 524.245 456.507 520.247 465.866 502.93L465.906 502.94Z" fill="#7F72FF"/>
<path d="M562.719 588.465C567.067 580.143 572.085 572.188 577.723 564.68L572.274 571.746C579.542 562.422 587.884 553.988 597.127 546.619L589.973 552.146C601.628 543.187 614.372 535.742 627.899 529.988L619.079 533.722C632.127 528.265 645.822 524.507 659.827 522.54L649.537 523.922C663.026 522.212 676.68 522.251 690.158 524.039L679.378 522.599C692.992 524.398 706.318 527.939 719.029 533.134L708.925 528.881C722.064 534.535 734.461 541.776 745.842 550.441L736.728 543.394C750.35 553.92 762.335 566.091 776.496 575.95L787.139 580.419C792.861 582.263 798.974 582.537 804.838 581.213C814.158 579.958 823.791 576.136 830.318 569.002C843.773 554.302 847.39 532.85 837.256 515.2C828.044 499.138 814.716 488.446 799.781 477.96C788.119 469.728 774.752 464.103 761.64 458.683C739.1 449.354 714.511 444.395 690.1 443.248C639.14 440.857 590.042 460.173 551.508 492.817C531.485 509.708 514.667 530.067 501.861 552.92C492.953 569.061 497.402 592.12 514.503 601.136C530.712 609.701 553.635 605.958 562.719 588.494V588.465Z" fill="#7F72FF"/>
<path d="M693.384 760.68C686.739 755.025 679.664 751.321 670.844 751.164C664.18 751.056 657.619 752.81 651.9 756.231C639.955 763.767 632.939 777.104 633.496 791.217C634.348 815.56 655.889 837.551 681.026 835.493C693.344 834.513 705.3 829.741 713.66 820.313C722.019 810.885 727.321 798.91 726.4 786.238C725.708 773.697 720.357 761.866 711.396 753.065C705.853 747.688 699.106 743.71 691.718 741.462C683.535 739.081 675.802 740.09 667.6 741.462C659.74 742.756 650.097 750.88 646.451 757.74C642.662 764.606 641.188 772.51 642.247 780.28C644.658 798.243 659.24 809.974 677.047 811.003L678.35 811.072L668.893 809.807C671.001 810.244 673.057 810.901 675.028 811.767L666.463 808.151C667.624 808.739 668.73 809.431 669.766 810.219L662.572 804.662C663.244 805.215 663.864 805.829 664.425 806.495L658.907 799.351C659.7 800.375 660.389 801.474 660.965 802.634L657.437 794.274C657.914 795.478 658.243 796.735 658.417 798.018L657.173 788.806C657.228 789.667 657.185 790.532 657.045 791.383L658.28 782.211C658.134 783.06 657.908 783.894 657.604 784.7L661.063 776.487C660.543 777.679 659.91 778.818 659.172 779.888L664.513 773.028C663.687 774.042 662.768 774.977 661.769 775.821L668.629 770.509C667.569 771.268 666.441 771.924 665.258 772.469L673.303 769.079C672.503 769.4 671.672 769.64 670.824 769.794L679.742 768.598C678.44 768.753 677.124 768.753 675.822 768.598L684.642 769.784C683.789 769.649 682.954 769.419 682.153 769.098L690.12 772.44C688.935 771.905 687.808 771.248 686.759 770.48L693.423 775.635C692.427 774.791 691.511 773.856 690.689 772.842L695.804 779.457C695.028 778.411 694.324 777.315 693.697 776.174L696.98 783.906C696.473 782.72 696.089 781.485 695.834 780.221L696.97 788.649C696.845 787.793 696.812 786.925 696.872 786.062L695.755 794.392C695.99 792.714 696.421 791.07 697.039 789.492L694.021 796.646L680.105 807.201L672.598 808.181H673.744C684.862 808.039 694.836 801.314 699.136 791.06C703.174 781.485 701.802 767.844 693.384 760.68Z" fill="#7F72FF"/>
<path d="M747.352 646.569C737.777 634.309 727.223 622.294 712.787 615.66C696.646 608.074 678.898 604.542 661.082 605.37C629.438 607.104 597.03 620.158 576.508 645.109C570.168 652.821 565.787 660.661 565.787 671C565.787 679.987 569.776 690.718 576.508 696.902C590.699 709.926 614.366 711.876 628.301 696.902C632.036 692.859 636.062 689.096 640.346 685.641L632.898 691.404C640.084 685.977 647.915 681.46 656.212 677.958L647.49 681.643C654.866 678.56 662.605 676.43 670.52 675.302L661.053 676.567C668.183 675.664 675.396 675.627 682.535 676.459L673.293 675.214C678.843 675.939 684.277 677.371 689.463 679.477L681.319 676.037C686.801 678.578 691.976 681.734 696.745 685.445L690.12 680.32C694.471 683.779 698.577 687.523 702.644 691.306C714.767 702.576 735.523 704.203 747.362 691.306C752.889 685.289 756.995 677.37 756.613 668.952C756.221 660.014 752.81 653.595 747.362 646.598L747.352 646.569Z" fill="#7F72FF"/>
<path d="M941.059 311.046C929.465 274.453 899.683 251.266 862.306 259.88C839.766 265.065 816.432 276.472 807.005 297.62C801.595 309.772 801.497 323.551 801.968 336.82C803.212 371.826 835.876 396.826 868.059 404.029C876.35 405.891 885.032 406.645 893.333 404.822C900.576 403.077 907.382 399.858 913.325 395.365C938.893 376.794 950.604 341.171 941.059 311.046Z" fill="#382C80"/>
<path d="M944.46 310.105C936.169 282.616 916.432 258.224 886.64 253.942C871.175 251.727 855.387 255.343 841.079 261.213C826.771 267.083 813.061 276.286 804.947 289.927C795.696 305.48 794.716 326.315 797.215 343.827C799.361 358.939 807.279 372.629 818.089 383.253C841.285 406.047 881.955 421.218 911.737 402.804C942.284 383.909 956.612 343.749 945.959 309.655C943.999 303.441 934.277 306.058 936.159 312.35C943.94 338.369 936.002 367.827 916.02 386.3C910.307 391.583 903.486 396.1 896.038 398.521C887.384 401.314 878.261 400.785 869.49 398.805C856.482 395.896 844.236 390.272 833.553 382.302C823.008 374.384 814.031 363.594 809.935 350.942C807.701 344.023 807.279 337.075 807.211 329.852C807.132 321.366 807.583 312.849 810.151 304.696C814.394 290.976 824.998 281.107 837.355 274.433C849.115 268.093 863.041 263.34 876.477 262.977C906.367 262.174 928.417 285.302 937.698 311.977C939.138 316.221 945.783 314.496 944.46 310.105Z" fill="#382C80"/>
<path d="M848.224 362.878C859.229 355.225 868.696 344.601 878.447 335.438C888.443 326.04 898.733 316.867 908.435 307.165C914.952 300.648 905.093 290.907 898.351 297.091C888.247 306.362 878.643 316.24 868.823 325.815C859.239 335.174 848.312 344.17 840.178 354.833C836.611 359.507 843.569 366.122 848.224 362.878Z" fill="white"/>
<path d="M846.519 303.784C853.849 313.957 862.796 322.953 870.656 332.743C878.623 342.681 885.572 353.372 893.549 363.28C898.694 369.67 909.043 361.428 904.819 354.588C898.057 343.621 889.139 333.635 880.721 323.963C872.302 314.29 863.786 304.363 853.535 296.758C849.468 293.73 843.588 299.698 846.519 303.784Z" fill="white"/>
<path d="M288.173 112.508C288.663 105.53 289.153 98.0138 292.809 91.83C296.464 85.6462 302.138 84.2448 308.734 82.7552C320.66 80.0602 329.784 72.3672 330.402 59.441C330.96 47.7888 323.218 35.6662 312.507 31.1288C300.57 26.072 287.419 33.5592 279.804 42.7908C276.727 46.5148 280.735 53.2278 285.39 50.033C293.691 44.3588 302.589 34.794 312.624 43.0456C320.543 49.5626 325.07 63.312 315.427 70.5738C311.135 73.798 305.216 74.0528 300.257 75.7286C295.77 77.1084 291.76 79.7194 288.683 83.2648C281.745 91.5458 281.186 102.189 280.99 112.508C280.892 117.173 287.85 117.075 288.173 112.508Z" fill="#382C80"/>
<path d="M279.578 123.847C276.252 123.587 273.167 125.598 272.062 128.747C271.031 132.392 273.097 136.194 276.717 137.312C278.414 137.76 280.22 137.503 281.725 136.599C283.229 135.694 284.304 134.219 284.704 132.51C285.158 130.775 284.915 128.932 284.028 127.375C282.47 124.79 279.157 123.884 276.501 125.317C274.319 126.693 273.577 129.525 274.806 131.794C275.121 132.392 275.575 132.906 276.129 133.294C277.334 134.274 275.845 133.059 275.639 132.794C275.08 132.118 275.247 132.333 276.139 133.46L275.58 132.755C275.58 132.755 275.149 131.5 275.306 132.118C275.217 131.138 275.178 130.922 275.198 131.324C275.198 131.569 275.198 131.461 275.266 130.991C275.335 130.52 275.364 130.413 275.266 130.658C275.168 130.903 275.266 130.795 275.57 130.001C276.128 129.01 277.209 128.429 278.344 128.511C278.745 128.577 279.13 128.717 279.48 128.923C279.725 129.139 279.774 129.168 279.608 129.001C279.441 128.835 279.471 128.874 279.863 129.315C280.047 129.643 280.139 130.016 280.127 130.393L280.019 130.952C280.108 130.589 280.117 130.599 280.019 130.952C279.804 131.442 280.323 130.854 279.921 131.148C279.719 131.409 279.738 131.409 279.98 131.148L279.627 131.432C280.059 131.118 279.578 131.304 279.471 131.432C279.608 131.265 280.627 131.265 279.569 131.344C281.625 131.312 283.285 129.656 283.322 127.6C283.265 125.551 281.618 123.903 279.569 123.847H279.578Z" fill="#382C80"/>
</svg>
