<svg width="1000" height="1000" viewBox="0 0 1000 1000" fill="none" xmlns="http://www.w3.org/2000/svg">
<path d="M549.167 113.566C566.091 112.41 583.094 111.714 600.058 111.371C608.545 111.195 617.032 111.126 625.538 111.244C634.211 111.361 643.315 111.175 651.714 113.547C667.394 117.976 674.303 133.745 679.458 147.768C686.2 166.134 693.668 184.175 700.91 202.345C718.226 245.788 734.23 289.702 749.91 333.733C757.319 354.47 765.59 375.011 770.49 396.522C774.723 414.907 778.408 436.623 767.128 453.215C758.014 466.641 742.305 475.118 727.517 480.772C712.287 486.591 696.3 490.192 680.046 491.464C674.087 491.925 673.96 501.186 680.046 500.862C695.49 500.019 710.752 497.119 725.429 492.238C740.786 487.152 755.976 479.851 767.756 468.552C773.126 463.51 777.481 457.485 780.584 450.804C785.072 440.769 785.709 429.783 784.808 418.954C782.848 395.512 775.478 373.09 767.53 351.109C751.056 305.568 734.73 260.018 716.835 214.996C708.583 194.23 699.312 173.758 691.737 152.727C686.239 137.459 680.653 120.534 667.129 110.421C657.996 103.561 646.735 102.336 635.671 101.973C626.508 101.669 617.326 101.757 608.163 101.973C588.141 102.532 567.983 103.384 548.216 106.716C544.384 107.353 545.276 113.792 549.137 113.576L549.167 113.566Z" fill="var(--color-illustration-primary, #382C80)"/>
<path d="M512.162 153.276C468.219 166.379 444.248 185.351 421.139 209.361C398.031 233.371 379.137 261.125 361.996 289.721C353.176 304.421 342.798 320.925 325.962 324.384C317.612 326.089 308.88 324.168 301.021 320.885C287.402 315.143 275.802 305.474 267.701 293.112C256.186 275.472 252.589 256.127 234.155 243.328C230.755 240.976 226.061 238.967 222.719 241.368C219.377 243.769 219.887 248.865 219.867 253.04C219.798 264.516 211.047 272.856 206.902 282.793C202.65 293.102 200.351 304.111 200.12 315.26C199.65 337.281 207.068 359.595 221.523 376.334C227.972 383.792 236.517 390.514 246.376 390.671" fill="var(--color-illustration-base, #FFFFFF)"/>
<path d="M511.182 149.719C492.807 155.187 474.922 162.508 458.673 172.778C445.218 181.284 433.095 191.672 421.894 202.942C406.851 218.269 393.168 234.874 380.999 252.57C374.648 261.693 368.602 271.033 362.771 280.509C357.871 288.349 353.412 296.572 347.747 303.922C342.396 310.85 335.664 317.416 327.001 319.798C316.681 322.62 305.666 318.886 296.621 313.918C288.154 309.261 280.728 302.925 274.796 295.298C269.092 287.957 265.153 279.431 261.076 271.131C256.999 262.83 252.707 254.892 246.552 248.071C241.045 241.966 231.421 233.009 222.425 236.311C212.88 239.82 216.545 251.011 214.34 258.528C211.753 267.23 205.236 274.355 201.894 282.803C193.366 304.854 193.251 329.272 201.57 351.403C208.656 370.199 223.905 394.327 246.347 395.199C252.227 395.424 252.168 386.379 246.347 386.124C237.007 385.693 229.628 378.901 223.954 372.061C217.717 364.486 212.884 355.857 209.685 346.581C203.078 327.574 203.161 306.881 209.92 287.928C212.968 279.451 218.848 272.513 222.209 264.202C223.765 260.316 224.557 256.167 224.542 251.982C224.542 248.493 223.885 243.475 228.844 245.543C236.841 248.885 243.122 257.558 247.385 264.751C251.893 272.317 255.314 280.431 259.547 288.173C268.446 304.372 281.744 317.387 298.884 324.609C308.087 328.529 318.337 330.627 328.216 328.167C336.056 326.207 342.857 321.542 348.423 315.838C354.529 309.576 359.331 302.118 363.849 294.69C369.248 285.801 374.629 276.903 380.313 268.23C391.651 250.602 404.355 233.891 418.307 218.25C430.342 204.981 443.385 192.398 458.213 182.274C475.049 170.789 493.747 162.733 513.191 156.794C517.718 155.422 515.798 148.327 511.231 149.689L511.182 149.719Z" fill="var(--color-illustration-primary, #382C80)"/>
<path d="M547.099 577.224C582.957 545.354 595.236 494.757 599.793 446.992C601.077 433.556 600.773 417.504 589.631 409.83C584.211 406.077 577.342 405.283 570.785 404.597L483.918 395.561C476.294 394.768 468.346 394.013 461.192 396.747C442.817 403.754 437.358 452.166 432.498 469.071C424.079 498.285 416.68 527.871 412.094 557.908C404.577 607.32 404.832 658.691 420.061 706.28C429.803 736.729 445.463 765.002 463.338 791.54C482.066 819.313 505.145 846.665 536.956 857.151" fill="var(--color-illustration-base, #FFFFFF)"/>
<path d="M549.657 579.782C569.874 562.475 583.045 539.249 591.395 514.22C595.645 501.24 598.866 487.946 601.028 474.461C603.135 461.721 605.37 448.432 605.095 435.487C604.84 423.482 601.322 410.467 589.984 404.362C583.614 400.932 576.322 400.305 569.266 399.56L544.1 396.904L493.042 391.514C480.586 390.211 464.749 386.732 453.989 395.199C446.943 400.755 443.082 409.624 440.073 417.837C436.506 427.637 434.193 437.799 432.008 447.942C426.5 473.54 418.66 498.559 413.074 524.186C399.628 586.534 395.708 653.203 417.102 714.306C427.343 743.53 442.582 770.754 459.996 796.274C475.304 818.745 493.228 840.766 517.307 854.241C523.132 857.439 529.27 860.033 535.623 861.983C541.856 863.943 544.306 854.456 538.289 852.29C514.141 843.588 495.11 825.056 479.724 805.074C462.454 782.68 447.784 758.397 435.996 732.691C410.82 677.38 408.233 615.64 417.572 556.34C420.022 540.827 423.207 525.441 426.872 510.172C430.253 496.109 434.428 482.282 438.005 468.277C442.435 450.961 444.405 432.831 451.51 416.288C454.342 409.693 458.242 402.568 465.083 400.765C472.158 398.874 479.783 400.148 486.966 400.883L510.584 403.303L558.604 408.203C570.531 409.428 587.357 408.36 592.973 421.463C597.49 431.998 595.344 444.885 594.09 455.871C592.691 468.444 590.541 480.922 587.651 493.238C581.879 517.542 572.432 541.415 556.899 561.211C553.123 565.987 548.995 570.475 544.551 574.637C541.131 577.871 546.168 582.741 549.666 579.752L549.657 579.782Z" fill="var(--color-illustration-primary, #382C80)"/>
<path d="M608.78 410.693C623.914 464.609 621.647 521.927 602.302 574.48C587.22 615.14 561.877 653.115 558.692 696.353C557.173 716.992 560.858 737.611 564.572 757.975C574.901 815.56 587.22 872.978 596.197 930.71C600.538 958.63 571.697 956.19 548.892 958.15C516.464 960.992 483.281 959.669 451.118 960.551C450.101 960.686 449.068 960.483 448.178 959.973C447.488 959.392 447.009 958.6 446.815 957.719C445.159 952.152 447.364 945.959 451.098 941.559C454.832 937.158 459.918 934.022 464.887 931.043C496.374 912.266 501.833 894.362 494.287 860.356C486.525 825.517 479.44 790.501 474.687 755.104C462.486 664.091 462.172 569.717 486.153 480.194" fill="var(--color-illustration-base, #FFFFFF)"/>
<path d="M605.281 411.643C616.068 450.876 617.661 492.068 609.936 532.017C605.968 551.844 599.839 571.177 591.659 589.67C584.025 607.163 575.421 624.225 568.228 641.914C561.034 659.603 555.488 678.017 554.116 697.147C552.587 719.02 556.722 740.825 560.593 762.248C568.433 805.838 577.391 849.233 585.093 892.853C586.942 903.371 588.716 913.903 590.415 924.448C591.395 930.622 593.649 938.599 589.631 944.224C586.848 948.144 581.791 949.673 577.302 950.663C571.344 951.996 565.209 952.299 559.133 952.623C539.621 953.809 520.227 955.073 500.666 955.249C489.622 955.337 478.567 955.318 467.523 955.426L460.045 955.524C457.909 955.524 454.655 955.092 452.607 955.68H451.118C451.627 956.768 451.647 956.602 451.196 955.181C451.196 954.367 451.069 953.642 451.137 952.809C451.412 950.33 452.327 947.966 453.793 945.949C458.781 938.677 468.023 935.11 475.059 930.269C480.974 926.351 486.311 921.624 490.915 916.226C498.824 906.514 502.372 894.901 502.136 882.435C501.874 874.943 500.889 867.493 499.196 860.189C496.893 849.488 494.492 838.815 492.278 828.104C487.917 806.936 483.977 785.67 480.831 764.277C468.552 680.741 466.68 594.374 483.654 511.329C485.705 501.3 488.024 491.337 490.612 481.439C492.111 475.676 483.252 473.236 481.684 478.979C458.693 563.259 457.625 652.223 467.758 738.561C470.306 760.494 473.625 782.325 477.715 804.055C481.694 825.517 487.054 846.714 490.945 868.176C493.189 880.524 493.777 893.872 487.123 905.014C483.712 910.417 479.345 915.153 474.236 918.989C467.248 924.497 459.046 928.231 452.166 933.866C445.287 939.501 439.838 948.566 441.906 957.827C442.886 962.139 445.512 965.079 450.098 965.382C455.341 965.735 460.771 965.177 466.033 965.118C488.652 964.863 511.28 965.206 533.879 964.01C542.757 963.55 551.607 962.746 560.486 962.188C566.991 961.938 573.466 961.174 579.85 959.904C592.238 957.131 601.557 949.124 601.41 935.659C601.361 931.298 600.43 926.947 599.735 922.674C598.8 916.892 597.843 911.123 596.863 905.367C594.903 894.078 592.891 882.808 590.826 871.557C586.701 849.272 582.34 827.026 578.086 804.78C573.755 782.358 569.208 759.916 565.709 737.346C562.357 715.718 561.789 694.314 567.15 672.96C576.861 634.358 599.147 600.44 610.818 562.475C622.996 522.668 625.796 480.584 619.001 439.514C617.333 429.466 615.085 419.522 612.269 409.732C610.995 405.293 604.096 407.165 605.33 411.643H605.281Z" fill="var(--color-illustration-primary, #382C80)"/>
<path d="M486.153 480.214C462.172 569.737 462.486 664.111 474.687 755.123C477.558 776.556 481.292 797.861 485.516 819.068C487.603 829.594 489.299 840.462 492.17 850.801C495.237 861.855 502.284 861.659 513.309 863.952C538.294 869.125 564.085 869.011 589.023 863.619C606.899 859.748 631.232 861.796 635.083 839.119C636.73 829.456 634.182 819.607 631.35 810.219C619.207 770.039 600.764 730.388 599.245 687.866C597.775 646.824 617.316 612.22 628.292 573.667C643.495 519.754 641.293 462.418 622 409.83" fill="var(--color-illustration-base, #FFFFFF)"/>
<path d="M482.683 479.253C464.24 546.795 459.604 617.375 463.583 687.092C465.62 722.311 469.681 757.385 475.745 792.138C478.812 809.778 481.87 827.496 485.849 844.931C487.26 851.095 488.593 857.906 493.61 862.257C497.628 865.736 502.92 866.736 507.987 867.706C524.765 870.91 541.385 873.066 558.516 872.312C573.412 871.655 587.779 868.313 602.469 866.236C612.72 864.785 623.852 863.09 631.732 855.74C642.345 845.842 641.365 829.633 638.18 816.736C634.133 800.38 627.978 784.494 622.5 768.569C617.022 752.644 611.867 736.729 608.31 720.333C604.791 704.114 602.959 687.454 604.576 670.873C606.114 655.095 610.691 639.738 615.826 624.813C621.03 609.672 626.939 594.766 631.594 579.429C646.021 531.589 646.89 480.684 634.103 432.38C631.947 424.324 629.389 416.386 626.489 408.566C624.44 403.049 615.532 405.401 617.571 411.026C628.574 441.392 633.957 473.507 633.456 505.802C632.947 537.867 625.861 568.424 615.101 598.5C604.752 627.4 593.394 656.565 594.472 687.817C595.589 720.069 606.301 750.841 616.728 781.044C619.305 788.512 621.873 795.989 624.293 803.516C626.861 811.513 629.762 819.745 630.614 828.153C631.251 834.425 630.908 841.677 626.92 846.9C624.333 850.291 620.422 852.369 616.453 853.682C606.546 856.955 595.795 857.386 585.603 859.464C568.982 862.84 551.965 863.83 535.064 862.404C526.979 861.585 518.941 860.342 510.986 858.68C506.987 857.925 501.323 857.563 498.657 853.996C497.099 851.908 496.57 849.096 495.943 846.695C494.835 842.402 493.924 838.071 493.071 833.729C491.396 825.213 489.769 816.687 488.171 808.171C481.669 774.611 476.916 740.736 473.932 706.682C468.14 639.513 469.943 571.442 483.948 505.321C485.666 497.22 487.567 489.158 489.651 481.135C490.817 476.656 483.938 474.755 482.723 479.224L482.683 479.253Z" fill="var(--color-illustration-primary, #382C80)"/>
<path d="M510.78 457.713C500.484 505.048 493.655 553.072 490.347 601.401C486.496 657.084 487.113 713.385 495.247 768.687C499.657 798.773 506.419 828.594 516.807 857.22C517.973 860.444 523.157 859.043 521.981 855.789C503.361 804.476 496.041 749.577 493.934 695.245C491.846 641.502 494.914 587.534 501.774 534.202C505.018 508.898 509.036 483.644 514.396 458.742C514.896 456.429 511.348 455.439 510.839 457.762L510.78 457.713Z" fill="var(--color-illustration-secondary, #7F72FF)"/>
<path d="M538.004 451.608C526.701 504.807 520.343 558.937 519.012 613.308C517.689 668.57 521.384 724.048 531.086 778.496C536.444 808.863 543.867 838.829 553.302 868.186C554.282 871.332 559.319 869.979 558.29 866.804C541.454 814.894 531.36 760.984 526.705 706.692C522.03 652.076 522.854 597.089 528.077 542.542C531.017 512.338 535.29 482.252 541.062 452.46C541.454 450.5 538.426 449.599 538.004 451.608Z" fill="var(--color-illustration-secondary, #7F72FF)"/>
<path d="M566.346 451.794C558.143 508.056 551.989 564.886 550.401 621.755C548.882 675.528 551.979 729.653 563.249 782.358C569.394 811.081 577.4 840.521 590.091 867.118C591.238 869.509 595.364 867.814 594.423 865.295C585.172 840.687 576.411 816.295 570.393 790.658C564.418 764.847 560.256 738.65 557.938 712.258C552.959 657.163 555.086 601.714 559.898 546.697C562.661 515.151 566.434 483.722 569.609 452.225C569.796 450.383 566.611 449.922 566.346 451.784V451.794Z" fill="var(--color-illustration-secondary, #7F72FF)"/>
<path d="M603.371 442.307C614.494 498.099 600.293 554.488 589.121 609.064C583.643 635.838 578.822 662.68 578.704 690.12C578.586 717.158 582.232 744.138 588.288 770.48C595.227 800.625 605.242 830.015 616.708 858.68C617.884 861.62 622.726 860.375 621.55 857.347C601.793 806.221 585.231 753.134 583.908 697.901C582.575 642.139 600.568 588.504 607.918 533.692C612.063 502.94 612.69 471.952 606.536 441.445C606.115 439.367 602.949 440.249 603.371 442.317V442.307Z" fill="var(--color-illustration-secondary, #7F72FF)"/>
<path d="M482.683 479.253C464.24 546.795 459.604 617.375 463.583 687.092C465.62 722.311 469.681 757.385 475.745 792.138C478.812 809.778 481.87 827.496 485.849 844.931C487.26 851.095 488.593 857.906 493.61 862.257C497.628 865.736 502.92 866.736 507.987 867.706C524.765 870.91 541.385 873.066 558.516 872.312C573.412 871.655 587.779 868.313 602.469 866.236C612.72 864.785 623.852 863.09 631.732 855.74C642.345 845.842 641.365 829.633 638.18 816.736C634.133 800.38 627.978 784.494 622.5 768.569C617.022 752.644 611.867 736.729 608.31 720.333C604.791 704.114 602.959 687.454 604.576 670.873C606.114 655.095 610.691 639.738 615.826 624.813C621.03 609.672 626.939 594.766 631.594 579.429C646.021 531.589 646.89 480.684 634.103 432.38C631.947 424.324 629.389 416.386 626.489 408.566C624.44 403.049 615.532 405.401 617.571 411.026C628.574 441.392 633.957 473.507 633.456 505.802C632.947 537.867 625.861 568.424 615.101 598.5C604.752 627.4 593.394 656.565 594.472 687.817C595.589 720.069 606.301 750.841 616.728 781.044C619.305 788.512 621.873 795.989 624.293 803.516C626.861 811.513 629.762 819.745 630.614 828.153C631.251 834.425 630.908 841.677 626.92 846.9C624.333 850.291 620.422 852.369 616.453 853.682C606.546 856.955 595.795 857.386 585.603 859.464C568.982 862.84 551.965 863.83 535.064 862.404C526.979 861.585 518.941 860.342 510.986 858.68C506.987 857.925 501.323 857.563 498.657 853.996C497.099 851.908 496.57 849.096 495.943 846.695C494.835 842.402 493.924 838.071 493.071 833.729C491.396 825.213 489.769 816.687 488.171 808.171C481.669 774.611 476.916 740.736 473.932 706.682C468.14 639.513 469.943 571.442 483.948 505.321C485.666 497.22 487.567 489.158 489.651 481.135C490.817 476.656 483.938 474.755 482.723 479.224L482.683 479.253Z" fill="var(--color-illustration-primary, #382C80)"/>
<path d="M466.68 193.368C451.157 223.062 448.57 276.491 445.365 309.723C443.738 326.648 442.092 343.621 438.73 360.272C435.947 374.06 428.636 389.152 430.077 403.539C430.783 410.604 436.408 415.945 442.151 419.611C458.811 430.263 478.979 432.654 498.403 433.007C533.173 433.625 568.767 428.186 599.284 410.634C605.634 406.969 612.181 402.216 614.346 394.885C616.816 386.496 612.827 377.696 609.946 369.405C602.557 348.257 600.881 323.11 601.126 300.746C601.695 256.911 585.446 217.75 563.984 180.304" fill="var(--color-illustration-base, #FFFFFF)"/>
<path d="M463.603 191.565C455.087 207.49 451.088 225.6 448.06 243.24C444.855 262.066 443.16 281.097 441.386 300.08C439.26 322.865 437.819 346.434 431.322 368.474C428.117 379.372 423.952 390.661 424.697 402.206C425.383 412.986 432.801 420.346 441.67 425.589C460.869 436.908 483.957 438.701 505.753 438.583C528.293 438.456 551.136 435.643 572.608 428.627C583.427 425.177 593.821 420.519 603.596 414.74C612.416 409.36 620.06 401.784 620.736 390.887C621.442 379.47 615.062 368.533 612.279 357.724C609.47 346.379 607.757 334.792 607.163 323.12C606.477 311.791 607.026 300.443 606.389 289.124C605.725 277.698 604.046 266.354 601.371 255.225C596.148 233.391 587.426 212.262 576.685 192.584C573.97 187.625 571.148 182.715 568.267 177.884C565.023 172.445 556.722 177.296 559.77 182.843C570.099 201.639 579.664 221.063 586.23 241.515C592.678 261.519 595.835 282.436 595.579 303.451C595.423 325.197 596.912 347.639 603.606 368.455C606.379 377.069 612.955 388.456 606.996 397.071C601.832 404.538 591.091 408.831 583.133 412.437C564.121 421.002 543.198 425.295 522.471 426.823C501.891 428.342 479.783 428.636 459.987 422.149C451.862 419.483 441.249 415.181 436.751 407.39C434.32 403.186 434.879 397.688 435.555 393.062C436.483 387.668 437.793 382.346 439.475 377.137C445.914 355.136 448.129 332.508 450.255 309.753C452.019 290.496 453.274 271.199 455.616 252.001C457.958 232.803 461.114 212.644 469.767 195.161C471.786 191.084 465.798 187.498 463.622 191.565H463.603Z" fill="var(--color-illustration-primary, #382C80)"/>
<path d="M243.857 410.016C235.371 398.452 236.615 313.32 236.37 281.225C236.125 250.08 233.773 216.065 238.693 185.302C257.146 187.331 269.543 204.06 281.529 216.31C287.977 222.895 294.122 233.136 304.225 230.539C311.203 228.746 361.359 193.191 363.79 195.69C380.737 213.128 396.93 231.251 412.368 250.061C415.475 253.844 450.794 232.421 454.891 230.275C470.283 222.199 485.594 213.974 500.823 205.598C498.579 207.117 506.644 234.44 507.056 237.595C509.241 254.667 512.152 271.836 514.612 288.977C518.532 316.319 521.498 343.775 523.51 371.346C524 378.049 523.961 384.938 524.814 391.602C525.313 395.522 527.548 399.854 527.44 403.715C527.146 414.123 513.994 422.07 506.35 427.108C489.579 438.162 472.413 448.583 454.851 458.37C441.406 465.857 429.097 448.677 419.219 440.906C407.246 431.495 394.679 422.866 381.596 415.073C380.126 414.201 378.539 413.309 376.843 413.437C375.447 413.664 374.13 414.236 373.012 415.103C352.931 428.156 332.92 441.337 312.761 454.303C303.833 460.026 297.973 463.711 288.555 456.674C267.711 441.122 259.312 431.037 243.857 410.056" fill="var(--color-illustration-secondary, #7F72FF)"/>
<path d="M246.974 408.194C243.269 402.882 243.054 392.465 242.427 385.595C241.231 372.13 240.839 358.596 240.604 345.091C240.104 316.671 240.604 288.33 240.055 259.949C239.545 235.449 238.908 210.704 242.721 186.449L238.693 189.516C252.227 191.241 262.291 201.982 271.101 211.429C275.335 215.967 279.588 220.475 283.734 225.149C287.742 229.628 292.426 234.087 298.6 235.057C305.627 236.164 311.477 231.941 317.161 228.452C324.943 223.679 332.587 218.652 340.28 213.752C347.002 209.459 353.715 205 360.801 201.296C361.359 201.002 361.928 200.718 362.496 200.434C363.221 200.081 363.319 200.022 363.006 200.198C363.065 200.198 363.986 199.787 364.045 199.875C364.104 199.963 362.967 199.659 363.388 199.963C360.709 198.415 359.991 198.209 361.232 199.346L362.751 200.914C368.827 207.212 374.805 213.608 380.685 220.102C386.402 226.381 392.024 232.744 397.551 239.193C400.236 242.329 402.902 245.487 405.548 248.669C407.282 250.776 408.909 253.775 411.673 254.628C414.436 255.48 417.631 254.373 420.228 253.393C424.339 251.787 428.357 249.952 432.262 247.895C440.338 243.769 448.119 239.134 456.037 234.724C471.58 226.07 487.495 218.064 503.077 209.479L497.619 202.413C494.561 205.353 496.207 211.057 496.884 214.604C497.971 220.23 499.441 225.786 500.862 231.343C502.193 236.785 503.214 242.298 503.92 247.856C505.439 258.704 507.144 269.524 508.771 280.362C512.038 302.105 514.7 323.927 516.758 345.826C517.738 356.724 518.777 367.641 519.267 378.588C519.342 383.358 519.702 388.12 520.345 392.847C521.041 397.129 523.794 401.794 522.305 406.145C520.12 412.564 513.161 416.994 507.791 420.551C499.598 426 491.307 431.299 482.919 436.447C473.733 442.092 464.442 447.55 455.047 452.823C451.882 454.597 449.334 455.998 445.63 455.126C442.131 454.312 438.936 451.98 436.212 449.736C430.263 444.836 424.971 439.289 418.846 434.575C410.738 428.329 402.379 422.449 393.768 416.935C389.721 414.328 385.242 410.761 380.616 409.242C375.716 407.635 371.992 410.036 368.033 412.613C358.638 418.716 349.243 424.834 339.848 430.969C329.647 437.613 319.455 444.287 309.165 450.794C305.705 452.98 301.393 456.263 297.032 455.479C292.299 454.636 287.742 449.942 284.106 447.011C270.023 435.643 258.793 422.08 248.022 407.625C244.387 402.725 236.096 407.459 239.751 412.457C249.463 425.765 259.43 438.74 271.905 449.608C275.168 452.45 278.54 455.145 281.96 457.782C285.968 460.869 289.966 464.112 295.072 465.102C304.108 466.847 311.997 460.633 319.121 456.047C328.974 449.697 338.803 443.304 348.61 436.868L362.045 428.048L369.082 423.442C371.12 422.119 373.982 419.385 376.383 418.699C379.499 417.798 386.114 423.442 388.897 425.226C393.706 428.303 398.439 431.491 403.098 434.791C410.401 439.892 417.349 445.485 423.893 451.529C429.499 456.753 435.81 462.711 443.542 464.436C452.676 466.474 459.967 461.016 467.503 456.655C484.741 446.708 502.548 436.614 518.395 424.53C524.412 419.944 530.517 414.152 531.86 406.351C532.605 402.01 531.292 398.09 530.164 393.954C528.675 388.535 528.783 382.704 528.518 377.118C527.45 354.666 524.853 332.175 522.05 309.88C520.476 297.467 518.721 285.053 516.787 272.64C514.935 260.537 513.602 248.258 511.427 236.213C510.525 231.215 508.938 226.306 507.722 221.376C506.909 218.113 506.125 214.84 505.508 211.527C505.312 210.547 505.106 209.361 505.037 208.587C505.054 208.145 505.031 207.702 504.969 207.264C504.626 206.118 505.302 207.558 503.989 208.764C507.742 205.167 503.009 199.258 498.53 201.698C477.264 213.458 455.91 224.992 434.595 236.625C430.548 238.84 426.451 241.006 422.266 242.966C420.738 243.691 419.189 244.387 417.592 244.975C416.857 245.249 416.112 245.523 415.348 245.739L414.475 245.974C413.495 246.229 414.064 246.219 414.152 246.072C413.95 246.086 413.747 246.086 413.544 246.072C413.994 246.159 414.434 246.29 414.858 246.464C415.838 246.523 415.308 246.846 414.534 245.798C413.976 245.024 413.29 244.289 412.672 243.544C409.719 239.996 406.74 236.468 403.735 232.96C398.194 226.498 392.559 220.122 386.83 213.83C381.1 207.539 375.279 201.332 369.366 195.21C366.632 192.378 364.789 190.408 360.82 191.692C354.686 193.652 348.913 197.993 343.523 201.384C335.546 206.392 327.677 211.557 319.729 216.613C316.407 218.74 313.065 220.847 309.684 222.866C308.439 223.601 307.195 224.336 305.921 225.032L304.314 225.874L303.696 226.178C302.893 226.551 304.461 225.943 303.696 226.178C297.816 228.05 293.289 222.974 289.731 219.014C285.086 213.85 280.323 208.793 275.551 203.746C265.31 192.966 253.991 182.999 238.693 181.069C236.809 181.057 235.155 182.317 234.665 184.136C228.785 221.915 232.244 260.655 232.44 298.728C232.597 326.854 232.489 355.136 234.871 383.184C235.317 389.227 236.08 395.243 237.154 401.206C237.83 404.734 238.624 408.782 240.731 411.78C243.397 415.544 249.649 411.967 246.974 408.135V408.194Z" fill="var(--color-illustration-secondary, #7F72FF)"/>
<path d="M651.4 902.535C645.52 903.045 639.366 897.635 640.405 891.373C641.238 886.414 646.853 883.592 651.508 884.307C657.153 885.179 659.005 890.824 660.495 895.557C661.984 900.291 663.435 904.701 666.914 908.209C669.158 910.453 672.108 907.621 671 905.054C668.423 899.056 672.862 889.981 679.948 890.167C686.563 890.334 690.728 898.909 687.151 904.25L692.051 906.308C693.452 901.114 700.087 897.576 704.977 900.624C709.465 903.417 710.014 910.316 706.555 914.079C705.513 915.152 705.513 916.858 706.555 917.931C709.671 920.538 713.052 920.596 716.854 919.528C721.098 918.342 725.841 915.726 729.594 919.381C738.199 927.741 728.017 939.079 722.048 945.224C719.608 947.742 723.42 951.564 725.89 949.075C733.456 941.441 741.923 931.2 736.582 919.93C734.681 915.932 731.182 912.668 726.694 912.09C724.1 911.865 721.489 912.22 719.05 913.129C716.658 913.864 712.699 916.069 710.416 914.109V917.96C716.168 911.659 715.316 900.565 707.701 895.989C699.861 891.255 689.179 896.351 686.896 904.916C686.092 907.935 690.12 909.444 691.796 906.974C697.676 898.262 690.424 885.013 679.967 884.895C668.589 884.758 662.327 898.184 666.531 907.709L670.618 904.564C665.159 899.232 665.522 890.569 660.877 884.64C656.82 879.456 649.901 878.202 643.972 880.789C638.043 883.376 634.515 889.432 636.132 895.822C637.857 902.486 644.452 907.523 651.381 906.7C653.968 906.396 654.066 902.329 651.381 902.564L651.4 902.535Z" fill="var(--color-illustration-primary, #382C80)"/>
<path d="M669.295 939.961C673.685 937.531 678.791 937.472 682.711 940.892C684.877 942.774 688.062 939.618 685.877 937.717C680.575 933.091 672.549 932.435 666.943 936.913C665.169 938.325 667.433 940.99 669.295 939.961Z" fill="var(--color-illustration-primary, #382C80)"/>
<path d="M596.197 930.71C595.053 923.288 593.848 915.873 592.58 908.464C589.968 908.899 587.417 909.649 584.985 910.698C568.451 916.922 550.982 920.302 533.32 920.694C531.007 920.743 528.586 920.694 526.519 919.714C522.599 917.754 521.227 913.09 519.708 909.032C517.953 904.338 515.454 899.752 511.505 896.665C508.3 894.166 502.42 892.314 496.805 891.765C494.531 907.445 485.045 919.068 464.965 931.043C459.977 933.983 454.91 937.109 451.176 941.559C447.442 946.008 445.237 952.152 446.894 957.719C447.087 958.6 447.566 959.392 448.256 959.973C449.146 960.483 450.179 960.686 451.196 960.551C483.359 959.669 516.542 960.992 548.97 958.15C571.736 956.161 600.538 958.64 596.197 930.71Z" fill="var(--color-illustration-primary, #382C80)"/>
<path d="M598.431 930.093C597.275 922.671 596.069 915.259 594.815 907.856C594.589 906.524 593.1 906.063 591.973 906.239C587.014 907.014 582.369 909.287 577.626 910.836C573.088 912.315 568.482 913.58 563.837 914.628C553.622 917.001 543.179 918.263 532.693 918.391C526.891 918.391 524.627 915.54 522.667 910.453C521.188 906.622 519.727 902.849 517.326 899.507C512.426 892.745 504.822 890.334 496.746 889.472C495.702 889.47 494.786 890.169 494.512 891.177C491.709 909.248 478.107 920.42 463.211 929.397C455.488 934.042 447.354 939.501 444.728 948.634C443.748 952.035 443.415 956.523 445.14 959.767C447.472 964.118 452.98 962.834 457.056 962.756C480.655 962.286 504.263 962.756 527.842 961.776C537.534 961.384 547.187 960.492 556.869 959.894C563.788 959.473 570.766 959.15 577.587 957.827C583.604 956.66 589.954 954.544 594.148 949.849C599.048 944.361 599.411 937.021 598.421 930.073C598 927.133 593.521 928.387 593.962 931.308C594.776 937.031 594.374 943.323 589.954 947.537C586.122 951.192 580.615 952.603 575.548 953.515C569.353 954.479 563.106 955.072 556.84 955.288C548.167 955.818 539.514 956.641 530.831 957.043C510.251 958.023 489.602 957.768 468.983 957.954C464.005 958.003 459.026 958.072 454.048 958.189C450.549 958.268 448.658 957.866 448.56 954.103C448.57 951.177 449.387 948.312 450.922 945.822C455.655 937.688 465.357 933.846 472.825 928.76C485.81 919.94 496.462 908.395 498.951 892.402L496.717 894.097C501.539 894.617 507.007 895.793 510.751 899.076C514.494 902.359 516.425 907.082 518.169 911.688C519.384 914.893 520.737 918.235 523.471 920.459C526.499 922.909 530.223 923.076 533.957 922.988C543.961 922.743 553.919 921.555 563.7 919.44C568.827 918.331 573.893 916.961 578.88 915.334C583.633 913.795 588.278 911.522 593.227 910.738L590.385 909.121C591.627 916.529 592.832 923.945 594.002 931.367C594.423 934.258 598.882 933.013 598.431 930.093Z" fill="var(--color-illustration-primary, #382C80)"/>
<path d="M477.333 904.436C482.184 911.1 486.153 917.529 488.514 925.526C489.24 927.986 493.101 926.937 492.366 924.458C490.004 916.461 485.966 908.317 479.998 902.378C478.675 901.065 476.157 902.829 477.333 904.436Z" fill="var(--color-illustration-base, #FFFFFF)"/>
<path d="M469.434 918.235C473.648 922.625 476.029 927.731 477.744 933.513C478.499 936.071 482.134 934.983 481.664 932.425C480.517 925.928 476.764 920.097 472.07 915.579C471.325 914.921 470.197 914.957 469.494 915.659C468.792 916.362 468.757 917.49 469.414 918.235H469.434Z" fill="var(--color-illustration-base, #FFFFFF)"/>
<path d="M462.76 927.535C465.929 930.542 468.167 934.396 469.208 938.638C469.698 940.363 472.717 940.118 472.472 938.197C471.757 933.08 469.178 928.408 465.23 925.075C463.554 923.595 461.094 926.055 462.76 927.535Z" fill="var(--color-illustration-base, #FFFFFF)"/>
<path d="M555.958 931.073C551.479 933.425 551.303 940.432 555.35 943.362C559.398 946.292 566.023 943.803 566.924 938.756C567.375 936.237 563.759 935.149 563.004 937.678C562.426 939.706 559.525 941.284 557.653 939.873C555.782 938.462 556.517 935.326 558.143 933.993C559.77 932.66 557.683 930.181 555.919 931.112L555.958 931.073Z" fill="var(--color-illustration-base, #FFFFFF)"/>
<path d="M236.586 253.834C251.286 266.574 261.997 282.881 273.238 298.62C280.176 308.351 285.713 320.64 300.139 317.573C305.274 316.485 310.301 313.947 315.192 312.036C321.346 309.635 327.481 307.185 333.645 304.804C337.996 303.128 342.534 301.315 346.748 301.325C350.472 301.481 354.094 302.595 357.263 304.559C365.936 309.459 373.237 317.054 381.048 324.237L407.135 348.237C411.163 351.932 415.191 356.126 420.052 358.733C426.039 361.947 432.478 362.516 439.152 362.878C463.485 364.201 487.789 364.838 512.162 364.486C518.189 364.407 523.971 359.243 523.696 352.961C523.422 346.836 518.62 341.269 512.162 341.436C490.984 341.946 469.816 341.436 448.658 340.456L440.651 340.054C439.211 339.976 437.77 339.917 436.339 339.819C436.525 339.819 432.419 339.329 434.222 339.662C430.038 338.898 428.411 336.771 424.422 333.175L398.031 309.478C382.665 295.68 365.495 276.815 342.759 279.422C331.146 280.745 320.092 286.399 309.312 290.662L302.187 293.504C300.766 294.082 299.345 294.68 297.914 295.219L296.738 295.68C295.356 295.935 295.121 296.091 296.003 296.17C294.563 293.181 300.854 300.09 297.963 296.503C297.522 295.935 296.983 295.347 296.513 294.817C294.641 292.799 292.426 291.123 290.545 289.114C275.727 273.257 263.604 254.814 245.073 242.838C238.467 238.575 230.51 248.601 236.576 253.853L236.586 253.834Z" fill="var(--color-illustration-base, #FFFFFF)"/>
<path d="M421.012 298.042C423.384 325.58 426.137 353.059 429.636 380.469C431.335 393.791 433.184 407.08 435.183 420.336C436.163 427.108 437.29 433.879 438.407 440.632C439.544 447.56 440.23 454.842 442.327 461.564C443.062 463.995 447.051 463.662 446.904 460.947C446.541 454.185 444.885 447.413 443.777 440.739C442.69 434.232 441.651 427.715 440.612 421.208C438.469 407.684 436.434 394.144 434.507 380.587C430.587 353.147 427.147 325.619 424.383 298.042C424.177 295.944 420.875 295.905 421.061 298.042H421.012Z" fill="var(--color-illustration-primary, #382C80)"/>
<path d="M421.169 277.903C424.109 277.903 424.109 273.346 421.169 273.346C418.229 273.346 418.229 277.903 421.169 277.903Z" fill="var(--color-illustration-primary, #382C80)"/>
<path d="M362.212 251.462C365.073 251.462 365.073 247.013 362.212 247.013C359.35 247.013 359.35 251.462 362.212 251.462Z" fill="var(--color-illustration-primary, #382C80)"/>
<path d="M374.227 309.429C382.127 306.832 389.787 303.553 397.12 299.629C400.765 297.757 404.832 295.709 407.008 292.064C409.291 288.251 409.301 283.547 409.771 279.245C410.751 270.347 412.192 260.88 411.467 251.942C410.673 242.24 397.316 239.81 394.209 249.61C391.69 257.577 391.112 266.358 390.171 274.669C390.034 275.884 388.672 281.705 389.289 282.509C389.685 281.228 390.588 280.166 391.788 279.569C391.073 279.99 390.348 280.402 389.613 280.794C388.306 281.538 387 282.306 385.693 283.097C379.01 287.058 372.665 291.561 366.72 296.562C360.84 301.638 367.083 311.624 374.207 309.429H374.227Z" fill="var(--color-illustration-base, #FFFFFF)"/>
<path d="M309.233 308.841C309.645 328.147 312.889 347.267 317.073 366.083C318.926 374.423 316.623 383.037 315.398 391.367C313.898 401.569 312.183 411.771 311.037 422.031C309.988 431.469 326.07 433.703 327.697 424.285C329.431 414.377 330.637 404.352 331.979 394.385C332.665 389.436 333.43 384.497 333.939 379.529C334.424 374.676 334.159 369.777 333.155 365.005C331.45 355.783 329.235 346.689 327.824 337.408C326.354 327.922 325.237 318.377 324.129 308.841C323.669 304.823 321.023 301.354 316.652 301.354C312.539 301.407 309.218 304.728 309.165 308.841H309.233Z" fill="var(--color-illustration-base, #FFFFFF)"/>
<path d="M475.255 409.84C477.401 400.755 479.695 391.681 482.243 382.694C484.791 373.707 488.436 364.907 490.337 355.813C491.317 351.138 488.965 346.238 484.154 344.925C479.038 343.514 475.128 346.679 473.266 351.109C469.581 359.831 467.984 369.729 466.053 378.999C464.093 388.594 462.466 398.227 461.202 407.939C460.153 415.975 473.423 417.582 475.255 409.84Z" fill="var(--color-illustration-base, #FFFFFF)"/>
<path d="M479.498 390.808C482.654 392.024 485.829 393.2 488.946 394.532C490.278 395.101 491.631 395.65 492.944 396.238C493.717 396.557 494.473 396.917 495.208 397.316C494.737 395.238 494.626 394.98 494.875 396.541C495.071 401.579 495.1 406.871 497.53 411.496C499.343 414.956 504.165 416.004 507.438 414.093C511.123 411.937 511.613 407.782 510.025 404.195C509.3 402.539 510.025 399.374 509.78 397.531C509.486 393.703 507.637 390.162 504.665 387.731C501.725 385.291 497.962 384.497 494.385 383.488C490.396 382.371 486.466 381.106 482.517 379.823C475.441 377.539 472.785 388.221 479.498 390.808Z" fill="var(--color-illustration-base, #FFFFFF)"/>
<path d="M330.97 389.819C335.341 391.063 339.79 392.631 344.229 393.366C347.463 393.895 350.766 392.523 351.697 389.133C352.535 385.903 350.656 382.592 347.453 381.655C343.063 380.42 338.388 379.979 333.88 379.264C330.94 378.794 328 380.009 327.148 383.086C326.392 385.994 328.085 388.977 330.97 389.819Z" fill="var(--color-illustration-base, #FFFFFF)"/>
<path d="M229.804 325.315C238.581 328.254 247.773 329.759 257.029 329.774C260.343 329.738 263.239 327.53 264.153 324.345C266.613 313.428 270.543 303.049 273.395 292.269C275.443 284.527 263.83 279.039 260.067 286.654C254.922 297.101 252.158 309.047 249.894 320.415L257.029 314.986C248.449 315.641 239.825 315.408 231.294 314.29C224.728 313.437 224.15 323.394 229.804 325.315Z" fill="var(--color-illustration-base, #FFFFFF)"/>
<path d="M324.09 289.418C323.159 280.49 322.218 271.533 321.591 262.575C321.542 262.027 321.503 261.478 321.493 260.929L321.268 261.909C322.44 261.478 323.638 261.121 324.855 260.841L331.283 258.881C335.811 257.489 340.348 256.127 344.866 254.696L357.704 250.639C359.047 250.218 362.359 248.493 363.81 248.738C365.525 249.032 368.112 252.423 369.307 253.53C376.416 260.063 383.527 266.597 390.642 273.13C394.944 277.05 401.373 270.68 397.061 266.711C388.466 258.812 380.019 250.678 371.179 243.054C366.622 239.134 362.937 239.604 357.459 241.358C351.981 243.113 346.532 244.847 341.074 246.621C335.615 248.395 330.176 250.218 324.727 252.021C320.876 253.295 315.26 254.118 313.839 258.577C313.193 260.596 313.643 262.732 313.839 264.79C314.14 267.704 314.467 270.608 314.819 273.502C315.473 279.16 316.198 284.799 316.995 290.417C317.544 294.416 324.512 293.514 324.09 289.437V289.418Z" fill="var(--color-illustration-base, #FFFFFF)"/>
<path d="M252.913 330.519C265.084 348.061 277.511 365.417 289.829 382.861C291.133 384.957 293.85 385.668 296.013 384.478C300.286 382.184 304.549 379.891 308.851 377.667C313.153 375.442 317.377 373.639 321.082 370.728C324.453 368.072 320.719 363.202 317.162 364.025C312.614 365.074 308.342 367.622 304.196 369.748C299.894 371.963 295.631 374.256 291.456 376.667L297.65 378.294C284.812 361.163 272.082 343.935 259.106 326.912C256.382 323.345 250.286 326.667 252.923 330.519H252.913Z" fill="var(--color-illustration-base, #FFFFFF)"/>
<path d="M330.362 364.544C337.879 361.124 345.454 357.782 353.186 354.833C354.931 354.166 356.93 353.157 358.86 353.294C360.791 353.431 362.859 354.676 364.642 355.479L375.177 360.193C380.656 362.643 385.438 365.789 390.534 361.085C396.328 355.648 401.808 349.886 406.949 343.827C408.958 341.495 405.822 338.261 403.539 340.417C400.599 343.2 397.865 346.199 395.072 349.129C392.563 351.765 389.995 355.489 387.006 357.557C383.782 359.801 379.617 356.812 376.334 355.372L365.74 350.736C363.094 349.58 360.556 348.316 357.587 348.61C354.941 348.864 352.432 350.207 350.031 351.236C342.72 354.343 335.536 357.704 328.529 361.457C326.471 362.565 328.284 365.485 330.342 364.544H330.362Z" fill="var(--color-illustration-base, #FFFFFF)"/>
<path d="M387.143 366.269C392.249 376.177 397.355 386.075 402.588 395.904L410.085 409.977C412.045 413.593 413.721 417.817 417.464 419.875C421.384 422.07 426.725 423.217 431.067 424.266C435.134 425.246 438.505 424.844 441.847 422.306C449.814 416.2 457.458 410.849 466.994 407.4C470.179 406.243 468.797 401.098 465.573 402.274C458.05 404.957 450.956 408.717 444.512 413.437C442.954 414.603 441.465 415.847 439.946 417.072C437.358 419.179 435.8 419.954 432.429 419.287C430.283 418.856 428.166 418.141 426.059 417.562C423.717 416.925 420.561 416.514 418.699 414.867C415.465 411.996 413.613 406.724 411.545 402.99C409.219 398.782 406.897 394.575 404.577 390.367C399.775 381.757 394.921 373.172 390.015 364.613C388.937 362.731 386.095 364.397 387.075 366.308L387.143 366.269Z" fill="var(--color-illustration-base, #FFFFFF)"/>
<path d="M451.392 343.631C449.618 333.263 447.727 322.924 445.855 312.575C445.316 309.576 444.561 306.695 447.511 304.735C449.184 303.763 450.908 302.883 452.676 302.099C456.785 300.028 460.816 297.813 464.769 295.454C472.085 291.075 479.113 286.23 485.81 280.95C492.866 275.394 500.51 269.347 506.145 262.33C507.105 261.37 507.105 259.812 506.145 258.851C505.184 257.891 503.626 257.891 502.666 258.851C495.296 265.437 488.661 272.62 480.851 278.755C472.907 284.989 464.486 290.589 455.665 295.503C449.354 299.031 439.985 301.266 441.269 310.203C442.905 321.738 445.473 333.243 447.688 344.68C448.158 347.12 451.813 346.071 451.392 343.7V343.631Z" fill="var(--color-illustration-base, #FFFFFF)"/>
<path d="M439.24 249.345C442.66 256.999 445.933 264.722 449.393 272.366C452.852 280.01 455.969 287.879 459.987 295.17C461.545 297.983 465.396 295.513 464.191 292.72C460.888 285.076 456.684 277.736 453.038 270.239C449.393 262.742 445.679 255.206 442.258 247.591C441.337 245.553 438.338 247.317 439.26 249.345H439.24Z" fill="var(--color-illustration-base, #FFFFFF)"/>
<path d="M451.804 417.317C459.506 426.422 468.601 434.546 476.794 443.219C478.91 445.463 482.311 442.062 480.175 439.838C471.982 431.302 463.74 422.012 454.43 414.74C453.708 414.015 452.534 414.013 451.809 414.735C451.083 415.458 451.081 416.631 451.804 417.357V417.317Z" fill="var(--color-illustration-base, #FFFFFF)"/>
<path d="M507.076 394.493C511.486 393.435 515.954 390.799 519.992 388.78C522.707 387.418 520.335 383.458 517.63 384.732C513.534 386.692 508.81 388.574 505.272 391.396C503.724 392.621 505.429 394.885 507.076 394.493Z" fill="var(--color-illustration-base, #FFFFFF)"/>
<path d="M447.972 388.878C447.406 385.626 447.303 382.31 447.668 379.029L445.787 380.92C447.002 380.812 448.197 380.626 449.393 380.42L451.157 380.117C451.451 380.068 452.607 380.038 452.313 379.783C452.823 380.215 452.686 382.606 452.715 383.282C452.79 384.837 452.718 386.396 452.5 387.937L454.822 386.173C452.56 386.205 450.303 386.405 448.07 386.771C445.287 387.182 445.943 391.808 448.727 391.671C450.987 391.576 453.238 391.314 455.459 390.887C456.491 390.588 457.204 389.648 457.213 388.574C457.388 386.223 457.342 383.861 457.076 381.518C456.89 379.93 456.753 378.117 455.694 376.834C454.742 375.755 453.275 375.284 451.872 375.609C449.638 375.967 447.435 376.504 445.287 377.216C444.482 377.459 443.922 378.189 443.895 379.029C443.661 382.634 443.868 386.254 444.513 389.809C444.944 392.082 448.344 391.112 447.972 388.829V388.878Z" fill="var(--color-illustration-base, #FFFFFF)"/>
<path d="M343.004 327.589C341.763 325.265 341.245 322.624 341.514 320.003L339.613 321.905C342.377 321.718 345.434 321.111 348.178 321.444L346.65 320.817C347.483 321.601 347.522 323.002 347.786 324.227C348.129 325.874 348.414 327.53 348.678 329.186L351.148 325.932C348.727 325.932 346.297 325.932 343.866 326.011C342.465 326.011 341.328 327.147 341.328 328.549C341.328 329.951 342.465 331.087 343.866 331.087C346.297 331.166 348.766 331.087 351.148 331.087C351.945 331.073 352.692 330.695 353.175 330.061C353.659 329.427 353.825 328.606 353.627 327.834C353.255 325.923 352.843 324.012 352.363 322.12C351.971 320.611 351.618 318.661 350.207 317.72C348.796 316.779 347.002 317.152 345.464 317.348L339.113 318.19C338.298 318.433 337.732 319.173 337.712 320.023C337.474 323.313 338.195 326.602 339.79 329.49C340.926 331.607 344.121 329.725 343.004 327.608V327.589Z" fill="var(--color-illustration-base, #FFFFFF)"/>
<path d="M264.281 268.328C266.79 247.699 268.573 226.952 270.67 206.274C270.925 203.736 266.937 203.746 266.692 206.274C264.653 226.943 262.301 247.621 260.684 268.328C260.498 270.67 264.006 270.572 264.281 268.328Z" fill="var(--color-illustration-base, #FFFFFF)"/>
<path d="M237.36 205.471C244.971 212.978 252.576 220.491 260.174 228.011C262.34 230.177 264.447 233.087 267.809 231.598C271.729 229.834 275.649 225.933 279.039 223.268C281.225 221.582 278.344 217.809 276.099 219.416C272.924 221.641 269.906 224.414 266.564 226.374C265.27 227.129 267.211 227.197 265.868 226.57C265.051 225.996 264.311 225.321 263.663 224.561C261.997 223.062 260.361 221.543 258.704 220.024C252.472 214.301 246.209 208.617 239.967 202.893C238.252 201.325 235.723 203.815 237.399 205.471H237.36Z" fill="var(--color-illustration-base, #FFFFFF)"/>
<path d="M270.984 359.958C262.939 369.97 255.684 380.592 249.287 391.73L252.227 390.534C247.991 388.941 243.52 388.06 238.997 387.927C235.606 387.819 235.684 392.896 238.997 393.151C243.028 393.448 247.006 394.254 250.835 395.552C251.973 395.861 253.176 395.371 253.775 394.356C259.767 383.208 266.491 372.47 273.904 362.212C275.129 360.507 272.317 358.292 270.964 359.958H270.984Z" fill="var(--color-illustration-base, #FFFFFF)"/>
<path d="M292.897 232.95C292.897 290.417 292.24 347.855 291.681 405.322C291.681 408.507 296.581 408.507 296.63 405.322C297.993 347.904 297.757 290.368 296.63 232.95C296.581 230.569 292.926 230.559 292.926 232.95H292.897Z" fill="var(--color-illustration-primary, #382C80)"/>
<path d="M293.857 432.292L294.425 434.536C294.756 435.681 295.945 436.347 297.094 436.03C298.243 435.713 298.923 434.532 298.62 433.38L298.061 431.135C297.732 429.984 296.545 429.305 295.386 429.607C294.24 429.948 293.566 431.132 293.857 432.292Z" fill="var(--color-illustration-primary, #382C80)"/>
<path d="M368.543 297.787C367.808 279.294 366.759 260.811 365.603 242.329C364.995 232.323 364.623 222.219 363.467 212.252C363.153 209.636 359.008 209.616 359.321 212.252C360.536 222.209 360.889 232.323 361.516 242.329C362.663 260.811 363.682 279.314 364.986 297.787C365.142 300.021 368.602 300.07 368.504 297.787H368.543Z" fill="var(--color-illustration-primary, #382C80)"/>
<path d="M374.962 418.307C373.815 389.73 372.247 361.183 370.748 332.626C370.601 329.98 366.465 329.96 366.602 332.626C368.161 361.183 369.415 389.779 371.434 418.307C371.6 420.542 375.05 420.591 374.962 418.307Z" fill="var(--color-illustration-primary, #382C80)"/>
<path d="M365.025 309.537L365.407 314.574C365.442 315.642 366.299 316.499 367.367 316.534C368.449 316.534 369.327 315.657 369.327 314.574L368.866 309.537C368.866 308.454 367.989 307.577 366.906 307.577C365.824 307.577 364.946 308.454 364.946 309.537H365.025Z" fill="var(--color-illustration-primary, #382C80)"/>
<path d="M417.151 256.774L417.572 258.459C417.858 259.458 418.892 260.043 419.895 259.773C420.873 259.462 421.446 258.449 421.208 257.45L420.787 255.774C420.48 254.792 419.465 254.214 418.464 254.451C417.485 254.762 416.913 255.775 417.151 256.774Z" fill="var(--color-illustration-primary, #382C80)"/>
<path d="M504.449 160.979C522.961 150.199 572.304 140.938 643.237 189.507C707.064 233.224 746.872 311.752 735.514 390.965C732.329 413.221 722.666 435.673 704.34 448.697C687.043 460.976 664.032 463.26 643.364 458.497C622.696 453.734 604.076 442.494 587.151 429.705C566.428 414.02 547.766 395.786 531.605 375.432C518.747 359.252 512.985 332.655 487.231 337.055C478.842 338.486 470.061 340.162 466.827 330.029C464.514 322.777 470.012 315.574 475.118 309.939C471.302 311.674 466.792 310.367 464.495 306.862C462.395 303.255 462.973 298.688 465.906 295.719C469.257 292.416 474.863 291.799 477.401 287.82C474.912 288.144 472.344 288.467 469.934 287.82C467.523 287.173 465.298 285.155 465.122 282.656C464.975 280.539 466.288 278.598 467.709 277.011C470.691 273.678 474.372 271.044 478.489 269.298C474.05 269.298 468.434 267.936 467.787 263.546C467.278 260.086 470.365 257.225 473.246 255.245C485.037 247.174 498.57 242.005 512.74 240.163C526.333 238.418 529.547 240.672 538.641 230.363C541.327 227.315 545.756 226.286 549.794 226.796C553.831 227.305 557.555 229.148 561.142 231.068C606.35 255.333 635.23 302.05 666.002 341.358" fill="var(--color-illustration-base, #FFFFFF)"/>
<path d="M506.282 164.115C516.768 158.107 529.488 156.167 541.464 156.108C562.593 156 583.496 162.047 602.577 170.808C651.724 193.348 692.315 231.882 714.826 281.254C725.561 304.689 731.654 329.982 732.77 355.734C733.75 381.214 730.937 409.125 715.825 430.547C699.44 453.754 669.893 460.055 643.374 453.499C615.042 446.502 590.336 427.617 569.159 408.262C558.227 398.278 548.025 387.523 538.632 376.079C532.007 367.994 527.411 358.86 521.697 350.168C516.435 342.171 509.604 334.586 499.931 332.234C494.561 330.921 489.357 331.46 483.977 332.332C480.351 332.92 474.853 334.125 472.629 330.372C469.14 324.394 475.098 317.896 478.861 313.712C482.027 310.194 478.999 302.667 473.716 304.892C469.718 306.558 466.553 302.52 469.904 299.306C471.531 297.748 474.059 297.062 475.99 295.954C478.353 294.609 480.399 292.771 481.988 290.564C484.242 287.497 481.253 282.077 477.401 282.567C475.686 282.783 473.579 283.263 471.864 282.812C469.63 282.215 470.629 281.764 471.864 280.353C474.469 277.569 477.64 275.377 481.164 273.924C486.241 271.65 483.369 264.075 478.479 263.987C476.876 264.088 475.272 263.812 473.795 263.183C473.511 263.026 473.079 262.918 472.952 262.575C473.236 263.35 473.246 262.272 473.697 261.821C476.892 258.675 481.125 256.46 485.075 254.392C493.57 250.006 502.738 247.068 512.201 245.7C518.267 244.818 524.941 245.288 530.713 243.132C533.566 242.029 536.188 240.404 538.445 238.34C541.444 235.723 543.218 232.274 547.589 232.166C551.96 232.058 555.88 234.42 559.506 236.409C563.386 238.539 567.163 240.826 570.834 243.269C578.097 248.162 584.977 253.601 591.414 259.537C604.252 271.297 615.62 284.547 626.381 298.198C638.572 313.663 650.185 329.558 662.641 344.797C666.012 348.904 673.284 343.386 670.079 339.064C646.383 307.126 624.176 273.101 593.639 247.111C585.991 240.542 577.794 234.641 569.139 229.471C560.731 224.502 550.676 218.779 540.719 222.719C534.055 225.355 531.262 232.636 523.961 233.783C514.847 235.214 505.909 235.439 496.972 238.105C490.988 239.891 485.189 242.247 479.655 245.141C474.706 247.719 469.042 250.698 465.426 255.069C461.937 259.292 461.133 265.437 465.014 269.769C468.395 273.512 473.609 274.571 478.45 274.669L475.755 264.731C469.199 267.671 459.947 274.041 459.791 282.068C459.614 291.642 469.708 294.18 477.352 293.21L472.766 285.213C470.649 288.085 465.592 288.996 462.858 291.378C459.523 294.349 457.72 298.677 457.958 303.138C458.468 313.369 469.022 318.279 477.793 314.564L471.384 306.254C466.376 311.86 461.045 318.553 461.025 326.471C461.025 332.498 464.289 338.859 469.757 341.622C479.675 346.61 490.612 338.839 500.588 343.455C509.516 347.581 514.386 357.792 519.13 365.809C525.931 377.324 534.506 387.427 543.63 397.169C554.5 408.842 566.259 419.654 578.802 429.509C591.003 439.093 603.831 448.04 617.923 454.646C644.589 467.141 677.527 471.159 703.644 454.92C728.075 439.74 738.199 411.163 741.011 383.841C743.717 356.244 740.694 328.385 732.133 302.011C714.62 247.65 676.459 203.119 627.4 174.748C605.301 162.008 580.997 152.139 555.478 149.336C540.219 147.661 523.971 148.592 509.633 154.472C507.229 155.432 504.894 156.558 502.646 157.843C498.608 160.195 502.254 166.447 506.311 164.115H506.282Z" fill="var(--color-illustration-primary, #382C80)"/>
<path d="M584.28 129.707C555.86 128.982 527.754 133.97 499.471 135.587C485.212 136.42 470.747 136.518 456.586 134.391C452.264 133.745 446.904 133.803 443.699 130.667C439.965 127.022 438.593 119.397 438.084 114.468C437.349 107.432 438.28 100.327 439.593 93.3784C440.671 87.714 442.004 82.1149 443.591 76.5812C448.021 61.205 467.415 49.543 481.811 45.1428C503.92 38.42 531.007 40.086 553.831 40.7132C579.37 41.4188 605.144 40.0174 630.781 40.4388" fill="var(--color-illustration-base, #FFFFFF)"/>
<path d="M584.28 125.709C556.37 124.974 528.753 129.491 500.98 131.187C487.387 132.02 473.658 132.245 460.124 130.52C455.89 129.972 448.756 130.334 445.973 126.6C443.189 122.867 442.621 116.947 442.356 112.43C441.974 105.717 442.993 99.0722 444.316 92.5062C445.492 86.6262 446.502 80.1876 449.001 74.729C453.166 65.6444 461.849 59.2156 470.424 54.6096C491.004 43.565 515.66 43.957 538.367 44.5352C569.129 45.3192 599.999 45.4564 630.761 44.5352C635.995 44.3686 635.946 36.7442 630.761 36.4306C615.473 35.5094 600.009 36.4306 584.701 36.607C570.335 36.803 556.007 36.607 541.65 36.1464C516.846 35.4212 490.229 34.9312 467.552 46.505C458.144 51.3168 448.785 58.1572 443.052 67.2222C439.877 72.279 438.476 78.0904 437.094 83.8822C435.287 90.9538 434.087 98.1666 433.507 105.442C432.89 115.027 433.762 130.922 443.523 136.077C448.619 138.801 455.332 138.841 460.967 139.497C468.332 140.332 475.742 140.711 483.154 140.634C516.993 140.458 550.382 133.215 584.251 133.774C589.396 133.862 589.386 125.934 584.251 125.787L584.28 125.709Z" fill="var(--color-illustration-primary, #382C80)"/>
<path d="M554.341 239.81C546.354 233.783 533.585 231.176 524.196 235.116C519.953 236.899 519.786 244.426 525.402 244.024C529.802 243.71 534.222 243.132 538.612 243.534C542.981 244.097 547.247 245.279 551.283 247.042C555.821 248.826 557.585 242.26 554.341 239.81Z" fill="var(--color-illustration-primary, #382C80)"/>
<path d="M618.433 277.383C626.792 266.293 636.749 256.504 647.98 248.336C653.422 244.426 659.148 240.928 665.111 237.87C671.461 234.626 678.184 232.421 684.632 229.422C689.767 227.021 685.985 219.622 680.938 220.671C673.882 222.17 666.992 225.659 660.642 229.01C653.997 232.527 647.657 236.591 641.689 241.162C629.882 250.089 619.715 260.998 611.642 273.404C608.81 277.765 615.464 281.303 618.443 277.383H618.433Z" fill="var(--color-illustration-primary, #382C80)"/>
<path d="M479.734 68.9764C481.72 73.353 482.111 78.2866 480.841 82.9218C479.097 89.2232 475.147 99.1898 468.179 100.719C457.461 103.116 446.444 103.886 435.496 103.002C431.802 102.659 428.039 102.022 424.814 100.17C421.59 98.3176 418.934 95.0934 418.709 91.3498C418.307 85.6168 423.981 83.2354 428.509 81.7262C429.283 81.4616 431.449 81.2264 431.998 80.6384C433.174 79.3448 432.478 79.9328 431.449 78.3942C429.195 75.023 427.343 72.1712 426.598 68.0552C425.994 65.1704 426.112 62.1812 426.941 59.3528C428.235 55.4328 433.585 47.9946 447.109 43.4082" fill="var(--color-illustration-primary, #382C80)"/>
<path d="M475.696 70.0936C477.813 75.2974 477.44 79.972 475.578 85.166C474.314 88.6744 472.511 92.9276 469.395 95.1816C467.68 96.4262 465.475 96.5732 463.515 96.9162C460.398 97.4454 457.262 97.8178 454.116 98.053C447.92 98.5814 441.688 98.5486 435.496 97.955C431.576 97.5336 424.824 96.436 423.844 91.683C423.139 88.253 428.333 86.9986 430.851 86.3126C434.771 85.2542 439.505 81.834 436.839 77.1398C434.34 72.72 431.106 69.8388 431.008 64.3312C430.949 60.8424 431.988 58.7158 434.507 56.06C438.25 52.0812 443.209 49.5234 448.227 47.6124C453.244 45.7014 451.294 37.5184 445.933 39.2824C437.407 42.0754 428.293 46.8676 423.746 55.031C418.934 63.7236 421.992 76.4146 429.019 83.1472L427.558 79.6486V80.0014L429.009 76.493C429.695 76.4048 429.538 76.493 428.558 76.6498C428.088 76.738 427.578 76.836 427.147 76.9634C425.844 77.3714 424.568 77.859 423.325 78.4236C421.161 79.2646 419.168 80.4934 417.445 82.0496C413.749 85.6505 412.62 91.1392 414.593 95.9068C419.424 108.382 435.565 108.735 446.786 108.314C453.478 108.038 460.134 107.189 466.68 105.775C471.833 104.898 476.386 101.911 479.244 97.5336C485.457 88.5666 487.721 77.0026 483.379 66.8596C481.527 62.5476 473.922 65.6836 475.716 70.0936H475.696Z" fill="var(--color-illustration-primary, #382C80)"/>
<path d="M464.612 73.8176C454.881 86.5576 455.557 108.255 456.772 123.406C457.105 127.512 457.644 131.696 459.487 135.371C463.995 144.378 473.569 146.465 482.713 146.396C487.035 146.396 488.71 149.013 489.112 153.149L490.563 168.299C491.258 175.512 492.572 183.783 498.775 187.547C502.617 189.879 507.497 189.801 511.848 188.683C514.788 187.973 517.563 186.702 520.021 184.94C528.616 178.57 532.007 165.114 531.34 154.962C530.248 140.44 528.238 126.002 525.323 111.734C523.638 103.1 521.56 94.5936 519.943 85.9696C518.757 79.58 516.307 74.8662 510.78 71.0344C501.332 64.5529 489.565 62.4136 478.44 65.1544" fill="var(--color-illustration-base, #FFFFFF)"/>
<path d="M461.319 71.887C455.145 80.0896 453.009 90.507 452.196 100.562C451.809 105.779 451.73 111.015 451.96 116.242C452.166 121.7 452.264 127.433 453.724 132.725C456.664 143.505 465.72 149.317 476.372 150.659C478.332 150.914 481.272 150.414 483.056 151.091C484.839 151.767 484.457 154.207 484.634 156.167C485.182 162.38 485.506 168.672 486.515 174.836C488.279 185.616 495.041 194.838 506.958 194.436C518.336 194.073 527.861 187.213 532.438 176.953C537.181 166.408 536.868 155.697 535.711 144.427C534.244 130.544 532.042 116.749 529.116 103.1C527.616 96.044 526.519 88.7528 524.637 81.7948C523.219 76.3003 520.08 71.4035 515.68 67.82C504.9 59.2548 490.298 56.7362 477.107 60.0584C470.404 61.744 473.246 71.8184 479.949 70.368C489.426 68.2904 500.118 70.0054 508.036 75.8266C511.164 78.1259 513.356 81.4771 514.21 85.264C515.611 90.6834 516.493 96.289 517.689 101.748C520.247 113.4 522.53 125.111 524.186 136.93C525.549 146.632 527.479 157.216 525.068 166.898C522.922 175.551 517.709 183.058 508.242 184.303C498.285 185.616 496.286 176.149 495.443 168.309C494.826 162.557 494.698 156.549 493.591 150.895C492.846 147.073 490.602 143.603 486.731 142.349C482.86 141.095 478.518 141.947 474.52 141.055C470.522 140.164 466.915 138.458 464.524 135.068C461.368 130.599 461.261 124.67 460.859 119.388C460.436 114.261 460.272 109.116 460.369 103.972C460.614 94.1722 462.064 83.892 467.925 75.7188C470.816 71.691 464.24 68.0258 461.339 71.8674L461.319 71.887Z" fill="var(--color-illustration-primary, #382C80)"/>
<path d="M503.92 136.116C500.245 137.704 495.659 138.615 491.748 139.556C487.727 140.483 483.647 141.138 479.538 141.516C473.658 142.094 473.344 150.953 479.538 150.944C484.517 150.925 489.468 150.189 494.238 148.758C499.236 147.278 503.058 144.907 507.458 142.271C511.476 139.86 507.958 134.431 503.881 136.155L503.92 136.116Z" fill="var(--color-illustration-primary, #382C80)"/>
<path d="M444.748 61.5186C451.323 73.504 460.428 85.2738 473.442 89.38C474.876 89.9334 476.43 90.1023 477.95 89.87C480.488 89.3114 482.252 86.8124 482.605 84.2448C482.822 81.6454 482.273 79.0393 481.027 76.7478C483.458 78.5118 486.094 80.3346 489.093 80.4228C492.091 80.511 495.345 77.9924 494.806 75.0426C497.746 75.317 499.363 78.6196 500.304 81.4518C502.847 89.0643 504.967 96.8116 506.654 104.658C505.763 101.357 505.625 97.8967 506.252 94.5348C506.909 91.0264 509.192 87.1456 512.72 87.0672C515.015 87.1856 517.078 88.5037 518.15 90.5364C519.186 92.5467 519.878 94.7164 520.198 96.9554C521.426 102.835 522.922 108.64 524.686 114.37C525.078 115.644 525.833 117.173 527.166 117.104C527.734 117.028 528.261 116.766 528.665 116.359C531.174 114.213 532.34 110.92 533.349 107.775C536.819 96.8868 540.905 87.3024 541.758 75.6208C542.032 71.8772 542.032 67.918 540.258 64.6056C538.387 61.1266 534.81 59.7056 531.037 60.0682C529.4 48.3082 511.241 44.3882 501.725 42.2322C488.33 39.2654 474.518 38.6717 460.918 40.478C450.334 41.7912 439.142 44.7508 432.282 52.9044" fill="var(--color-illustration-primary, #382C80)"/>
<path d="M441.67 63.312C447.413 74.3664 455.047 85.362 466.298 91.3792C471.531 94.182 478.322 96.8084 483.467 92.4376C489.112 87.6454 488.064 80.266 485.427 74.1998L478.567 81.1186C482.615 84.0586 487.387 86.5674 492.542 85.0876C497.018 83.8174 500.079 79.6945 500 75.0426L493.385 80.07C495.913 80.609 497.158 88.7528 497.805 90.9382C499.265 95.9264 500.441 100.973 501.725 106.02L511.603 103.296C510.752 100.565 510.593 97.6654 511.143 94.8582C511.593 93.0648 512.387 90.7422 513.985 92.9766C515.582 95.211 515.484 98.7292 516.003 101.218C516.709 104.648 517.532 108.078 518.434 111.43C519.767 116.457 521.785 123.533 528.567 122.141C533.643 121.103 536.289 115.046 537.759 110.705C541.483 99.719 545.599 88.645 546.638 77.0124C547.128 71.6714 547.001 65.8698 543.963 61.2246C541.072 57.0228 536.12 54.7312 531.046 55.2466L535.692 58.7844C534.133 50.4446 526.636 45.525 519.335 42.4772C511.334 39.2471 502.968 37.0059 494.424 35.8034C482.087 34.0195 469.555 34.069 457.233 35.9504C446.727 37.5086 435.888 41.0954 428.813 49.4058C424.726 54.198 431.488 61.1658 435.82 56.403C441.955 49.6606 450.579 47.1028 459.34 45.7406C470.089 44.0882 481.019 43.9826 491.797 45.427C499.141 46.3566 506.381 47.9675 513.426 50.2388C518.983 52.1008 525.411 54.9526 526.421 61.352C526.744 63.312 529.135 64.978 531.076 64.8898C541.797 64.39 535.574 84.3918 533.908 90.0268C532.399 95.113 530.566 100.091 528.9 105.119C528.528 106.246 528.195 107.412 527.744 108.519C527.208 109.399 526.743 110.32 526.352 111.273C524.872 112.704 526.019 113.233 529.772 112.978L529.322 111.548C529.322 110.019 528.234 108.01 527.812 106.52C525.411 98.1118 524.333 81.1774 511.819 82.4318C500.98 83.5 500 97.9942 501.715 106.04C503.087 112.518 512.828 109.744 511.593 103.316C510.206 96.355 508.406 89.4829 506.203 82.7356C504.508 77.3946 502.372 71.3088 496.198 69.9956C493.081 69.3194 489.338 71.4558 489.583 75.0328C489.661 76.2676 484.212 72.8278 483.575 72.377C478.999 69.1528 474.814 75.1994 476.666 79.2958C477.235 80.5404 478.322 83.1472 477.333 84.4702C476.343 85.7932 474.834 84.8524 473.589 84.4702C469.74 83.1873 466.166 81.1927 463.054 78.5902C456.723 73.4256 451.951 66.6832 447.815 59.7056C445.473 55.7856 439.563 59.2352 441.67 63.2924V63.312Z" fill="var(--color-illustration-primary, #382C80)"/>
<path d="M469.796 108.304C469.375 110.617 469.042 112.929 468.718 115.252C468.292 117.168 468.052 119.121 468.003 121.083C468.238 124.797 473.207 124.15 475.725 123.69C478.077 123.259 477.568 119.231 475.157 119.476C474.108 119.584 472.217 120.054 471.237 119.476L472.315 121.338C472.119 119.378 472.629 117.222 472.805 115.301C473.001 113.125 473.177 110.96 473.285 108.774C473.393 106.814 470.12 106.285 469.757 108.304H469.796Z" fill="var(--color-illustration-primary, #382C80)"/>
<path d="M477.293 102.561C478.44 102.199 479.605 101.895 480.782 101.65C481.987 101.545 483.181 101.335 484.349 101.022C486.084 100.366 486.486 97.5728 484.349 97.1024C481.556 96.4654 478.234 97.9354 476.029 99.5916C474.667 100.63 475.373 103.178 477.293 102.532V102.561Z" fill="var(--color-illustration-primary, #382C80)"/>
<path d="M464.877 94.2212C462.993 93.9811 461.086 93.9811 459.203 94.2212C458.085 94.5301 457.371 95.6216 457.537 96.7692C457.696 97.913 458.665 98.77 459.82 98.788C461.702 98.7708 463.575 98.5207 465.396 98.0432C466.323 97.7713 466.914 96.8646 466.788 95.9068C466.653 94.951 465.842 94.2358 464.877 94.2212Z" fill="var(--color-illustration-primary, #382C80)"/>
<path d="M478.685 104.207C477.325 105.083 476.861 106.854 477.617 108.284C478.193 109.221 479.225 109.779 480.324 109.748C481.423 109.718 482.422 109.103 482.945 108.136C483.468 107.169 483.436 105.997 482.86 105.06C482.41 104.362 481.708 103.863 480.9 103.668C479.546 103.286 478.134 104.051 477.715 105.393C477.572 105.976 477.652 106.591 477.94 107.118C478.27 107.577 478.736 107.92 479.273 108.098C479.749 108.24 480.257 108.24 480.733 108.098L480.116 108.176C480.2 108.162 480.286 108.162 480.371 108.176L479.763 108.088H479.93L479.381 107.853C479.606 107.951 479.636 108.078 479.224 107.677C479.469 107.922 478.901 107.167 479.077 107.49L478.842 106.951C478.878 107.029 478.901 107.111 478.91 107.196L478.832 106.599C478.837 106.657 478.837 106.716 478.832 106.775L478.91 106.167C478.842 106.452 479.048 105.883 479.048 105.873L479.293 105.56C479.185 105.668 479.214 105.648 479.391 105.501C479.773 105.197 479.195 105.501 479.645 105.344C480.096 105.187 479.773 105.276 479.645 105.295L480.243 105.217C480.185 105.227 480.125 105.227 480.067 105.217L480.655 105.295C480.39 105.295 480.224 105.089 480.763 105.393C480.986 105.511 481.17 105.691 481.292 105.913C481.184 105.726 481.213 105.815 481.39 106.177C481.331 105.971 481.341 106.069 481.39 106.471C481.39 106.256 481.39 106.354 481.341 106.746C481.387 106.55 481.347 106.628 481.223 106.981C481.321 106.804 481.272 106.873 481.066 107.167C481.763 106.467 481.83 105.359 481.223 104.58C480.626 103.796 479.539 103.578 478.685 104.07V104.207Z" fill="var(--color-illustration-primary, #382C80)"/>
<path d="M460.918 106.452C459.555 107.331 459.095 109.108 459.859 110.538C460.397 111.537 461.442 112.158 462.577 112.152C463.712 112.145 464.75 111.513 465.277 110.508C465.804 109.503 465.733 108.29 465.092 107.353C464.642 106.653 463.941 106.152 463.132 105.952C461.776 105.57 460.363 106.34 459.947 107.686C459.794 108.265 459.875 108.882 460.173 109.401C460.5 109.863 460.968 110.206 461.506 110.381C461.979 110.524 462.483 110.524 462.956 110.381L462.339 110.46H462.603L461.986 110.381H462.152L461.604 110.146C461.829 110.244 461.858 110.372 461.447 109.98C461.702 110.215 461.123 109.47 461.3 109.793L461.074 109.245C461.103 109.328 461.126 109.413 461.143 109.499L461.055 108.892C461.065 108.95 461.065 109.01 461.055 109.068L461.133 108.47C461.065 108.745 461.27 108.176 461.27 108.176L461.515 107.853C461.408 107.961 461.437 107.941 461.613 107.794C461.996 107.5 461.427 107.794 461.878 107.637C461.996 107.579 462.329 107.481 461.878 107.637L462.466 107.559H462.29L462.878 107.637C462.613 107.637 462.446 107.422 462.985 107.726C463.207 107.85 463.391 108.033 463.515 108.255C463.407 108.069 463.446 108.157 463.613 108.519C463.564 108.304 463.613 108.402 463.613 108.804C463.613 108.598 463.613 108.686 463.554 109.088C463.603 108.882 463.554 108.96 463.436 109.313C463.534 109.147 463.485 109.205 463.279 109.499C464.034 108.813 464.135 107.663 463.514 106.855C462.892 106.047 461.755 105.85 460.898 106.403L460.918 106.452Z" fill="var(--color-illustration-primary, #382C80)"/>
<path d="M481.674 130.07C483.634 129.178 485.809 128.668 487.779 127.669C488.845 127.032 489.203 125.657 488.583 124.582C487.936 123.53 486.577 123.172 485.496 123.768C483.536 124.64 481.772 125.963 479.841 126.934C478.978 127.444 478.686 128.553 479.185 129.423C479.708 130.269 480.805 130.554 481.674 130.07Z" fill="var(--color-illustration-primary, #382C80)"/>
<path d="M469.14 471.012C442.513 541.826 434.928 619.56 445.385 694.334C448.26 715.502 452.758 736.418 458.84 756.897C459.732 759.837 464.289 758.612 463.475 755.613C453.597 719.226 447.345 682.113 446.08 644.442C444.829 606.797 448.096 569.138 455.812 532.271C460.122 511.833 465.759 491.697 472.687 471.992C473.471 469.738 469.963 468.836 469.15 471.012H469.14Z" fill="var(--color-illustration-secondary, #7F72FF)"/>
<path d="M446.845 477.264C427.245 526.783 420.434 581.399 426.265 634.289C426.569 637.043 430.92 637.102 430.636 634.289C425.334 581.369 432.331 528.263 450.236 478.195C451 476.049 447.668 475.206 446.855 477.264H446.845Z" fill="var(--color-illustration-secondary, #7F72FF)"/>
<path d="M428.254 664.199C430.939 664.199 430.939 660.024 428.254 660.024C425.569 660.024 425.559 664.199 428.254 664.199Z" fill="var(--color-illustration-secondary, #7F72FF)"/>
<path d="M523.402 481.89C528.288 494.471 537.987 504.587 550.352 509.996C557.712 513.201 565.327 514.19 573.294 514.181C574.578 514.181 575.783 514.298 577.038 514.386C575.901 514.308 577.038 513.073 576.695 514.22C576.117 516.278 576.832 519.894 576.881 522.06C577.018 528.381 586.407 528.351 586.681 522.06C586.897 517.032 587.896 510.937 583.829 507.056C578.753 502.215 569.825 504.89 563.563 504.116C548.961 502.421 536.123 492.209 530.478 478.832C528.792 474.843 521.825 477.725 523.412 481.772L523.402 481.89Z" fill="var(--color-illustration-primary, #382C80)"/>
<path d="M228.187 383.38C232.45 387.663 237.987 391.102 243.985 391.347C249.982 391.592 256.441 387.859 257.842 381.988C259.243 376.118 253.814 369.248 247.895 370.454C253.667 370.013 258.361 364.476 258.469 358.694C258.577 352.912 254.549 347.463 249.198 345.248C255.078 344.758 260.517 340.182 261.517 334.37C262.517 328.559 258.518 322.179 252.697 321.013C255.804 321.062 258.371 318.19 258.93 315.133C259.488 312.075 258.489 308.949 257.225 306.107C256.078 303.53 254.588 300.942 252.158 299.512C242.358 293.779 230.598 299.374 223.277 287.908" fill="var(--color-illustration-base, #FFFFFF)"/>
<path d="M212.86 371.395C221.229 383.155 231.392 399.952 248.601 396.277C256.098 394.679 262.752 387.996 262.615 380.019C262.487 372.179 256.215 364.535 247.915 365.554V375.354C256.147 374.315 262.546 368.259 263.124 359.752C263.644 352.01 258.312 344.552 251.541 341.24L249.218 349.854C257.43 349.041 264.898 343.504 266.329 335.007C267.64 326.516 262.388 318.388 254.108 316.093L252.756 326.07C268.73 324.786 265.79 302.873 255.833 295.69C251.237 292.377 245.563 291.711 240.153 290.976C235.351 290.329 230.863 289.437 227.923 285.223C224.081 279.725 215.026 284.821 218.809 290.554C224.003 298.443 231.206 300.541 240.153 301.54C243.475 301.913 247.895 302.197 250.443 304.647C251.639 305.793 256.627 315.574 252.785 315.917C247.385 316.397 245.543 324.384 251.433 325.883C255.096 326.754 257.405 330.378 256.646 334.066C255.725 338.124 251.805 340.211 248.013 340.779C244.22 341.348 243.367 347.698 246.915 349.217C250.629 350.815 253.961 353.745 253.844 358.135C253.649 362.094 250.585 365.312 246.641 365.701C243.995 366.073 242.593 369.415 243.211 371.747C243.955 374.589 246.631 375.53 249.257 375.177C250.923 374.952 252.619 377.137 253.177 378.49C254.04 380.587 253.03 382.41 251.276 383.792C247.905 386.389 243.23 386.477 239.418 384.909C235.371 383.253 232.176 380.117 229.128 377.069C225.688 373.658 222.268 370.209 218.76 366.857C215.82 364.084 210.4 367.778 212.938 371.346L212.86 371.395Z" fill="var(--color-illustration-primary, #382C80)"/>
<path d="M550.245 211.88C547.168 192.28 551.039 170.485 563.112 154.589C567.12 149.317 572.373 144.348 578.929 143.417C582.987 142.839 587.073 143.878 591.032 144.907C594.6 145.838 598.676 147.2 599.97 150.65C601.509 154.756 598.186 158.911 595.413 162.302C581.388 179.73 576.296 202.702 581.644 224.424" fill="var(--color-illustration-base, #FFFFFF)"/>
<path d="M553.116 211.106C551.715 199.822 552.854 188.368 556.448 177.58C559.574 167.858 565.082 156.285 573.902 150.473C579.115 147.043 584.505 148.366 590.16 149.973C591.375 150.316 594.501 150.953 595.06 152.374C595.766 154.207 592.688 157.274 591.659 158.539C584.601 167.145 579.483 177.173 576.656 187.939C573.52 200.149 573.059 213.634 576.656 225.806C578.557 232.284 587.994 229.559 586.691 223.032C584.133 210.155 584.466 197.425 588.808 184.95C590.969 178.859 593.999 173.112 597.804 167.888C601.44 162.851 606.526 157.862 605.419 151.071C604.38 144.672 598.647 141.624 592.914 140.095C586.367 138.351 579.703 137.39 573.314 140.095C561.554 144.936 554.214 158.088 550.107 169.495C545.1 183.391 545.139 198.297 547.442 212.723C548.049 216.525 553.714 214.869 553.194 211.135L553.116 211.106Z" fill="var(--color-illustration-primary, #382C80)"/>
<path d="M432.821 231.186C430.6 211.06 435.282 190.776 446.1 173.66C449.462 168.397 455.685 161.9 462.633 163.37C471.855 165.33 471.649 175.453 466.935 181.686" fill="var(--color-illustration-base, #FFFFFF)"/>
<path d="M436.584 231.186C435.242 213.997 438.28 196.661 446.472 181.402C449.197 176.326 454.371 166.418 461.506 167.437C468.023 168.417 465.23 175.747 463.211 179.462C460.947 183.636 466.572 188.438 469.992 184.695C475.422 178.815 476.647 168.584 470.473 162.674C462.809 155.324 451.96 159.803 445.973 166.78C438.907 174.993 434.34 185.988 431.537 196.347C428.405 207.681 427.576 219.527 429.097 231.186C429.714 235.831 436.996 236.086 436.614 231.186H436.584Z" fill="var(--color-illustration-primary, #382C80)"/>
<path d="M436.437 128.443C428.117 145.348 429.822 163.311 432.85 181.363C433.742 186.625 441.543 184.303 440.798 179.168C438.613 164.017 435.477 146.377 442.396 131.951C444.297 127.972 438.397 124.464 436.437 128.462V128.443Z" fill="var(--color-illustration-primary, #382C80)"/>
<path d="M751.556 297.346C760.19 289.761 770.264 315.192 772.636 320.072C778.361 331.673 783.366 343.615 787.62 355.832C791.731 367.821 795.073 380.06 797.626 392.474C798.91 398.766 800.007 405.116 800.86 411.486C801.654 417.455 802.624 423.825 801.477 429.803C800.469 435.185 797.444 439.98 793.02 443.209C788.12 446.747 782.828 447.345 777.075 448.256C771.979 449.069 772.567 456.782 777.075 457.987C789.345 461.261 803.192 452.107 808.945 441.602C816.177 428.421 812.14 411.731 809.543 397.776C803.927 367.602 793.588 337.849 778.457 311.095C774.723 304.49 770.98 296.542 764.806 291.848C759.308 287.673 751.517 287.075 746.362 292.103C742.922 295.464 748.048 300.462 751.605 297.346H751.556Z" fill="var(--color-illustration-primary, #382C80)"/>
<path d="M626.734 137.204C604.517 138.429 584.221 118.359 582.702 96.1616C581.183 73.9646 596.53 52.4438 617.13 44.0452C628.38 39.4588 641.561 38.4494 652.557 43.6434C658.155 46.4159 663.083 50.3716 667.002 55.2368C674.842 64.6644 679.526 76.8654 679.085 89.1252C678.644 101.385 672.843 113.527 663.033 120.877" fill="var(--color-illustration-base, #FFFFFF)"/>
<path d="M626.734 133.754C612.435 134.029 599.49 124.807 592.492 112.694C585.084 99.8562 585.848 84.3918 592.953 71.5832C600.347 58.1101 613.312 48.5882 628.38 45.5642C636.886 43.9472 645.961 44.9174 653.429 49.4842C660.416 53.757 665.796 60.4602 669.452 67.7122C677.547 83.7548 675.332 105.119 660.504 116.575C654.879 120.926 660.818 128.835 666.531 124.415C682.28 112.106 687.484 90.2816 681.418 71.642C675.106 52.238 658.642 36.0876 637.543 35.48C600.499 34.4118 566.718 74.9936 581.624 110.862C589.102 128.845 606.859 141.859 626.704 140.654C631.095 140.389 631.183 133.666 626.704 133.794L626.734 133.754Z" fill="var(--color-illustration-primary, #382C80)"/>
<path d="M625.058 63.8118C615.493 66.35 610.877 75.9932 608.653 84.8818C605.84 96.24 609.76 105.707 619.129 112.508C628.253 119.103 639.307 120.936 648.392 113.282C656.592 106.123 660.683 95.3462 659.299 84.5486C657.692 73.4942 649.097 64.4488 637.945 63.0572C635.563 62.7534 635.005 66.889 637.376 67.281C647.805 69.0855 655.337 78.2602 655.075 88.841C654.977 99.082 647.764 111.949 636.759 113.449C626.489 114.85 612.847 104.629 611.798 94.1624C610.818 84.7054 616.159 70.1034 625.91 66.8988C626.693 66.6086 627.123 65.7682 626.901 64.9641C626.678 64.1599 625.878 63.6594 625.058 63.8118Z" fill="var(--color-illustration-primary, #382C80)"/>
<path d="M628.174 81.9908C625.097 85.8422 624.656 92.418 630.232 94.3192C632.487 95.1098 634.996 94.4368 636.553 92.6238C638.034 90.665 638.667 88.1932 638.307 85.7638C638.062 82.8238 633.525 82.7258 633.652 85.7638C633.652 87.0966 633.78 90.5364 631.614 90.115C628.674 89.527 629.791 85.7638 630.987 84.137C632.182 82.5102 629.448 80.3836 628.174 81.9614V81.9908Z" fill="var(--color-illustration-primary, #382C80)"/>
<path d="M741.511 421.218C746.597 420.934 750.478 423.403 752.791 427.892C754.349 430.93 755.574 433.997 758.583 435.898C763.772 439 770.416 438.11 774.606 433.752C776.948 431.302 773.155 427.529 770.892 430.028C768.835 432.355 765.614 433.273 762.64 432.38C758.887 431.292 757.74 427.774 755.78 424.795C752.694 420.051 747.208 417.438 741.58 418.033C739.571 418.229 739.492 421.345 741.58 421.228L741.511 421.218Z" fill="var(--color-illustration-primary, #382C80)"/>
<path d="M784.631 317.465C789.531 317.622 794.363 317.691 799.223 317.955L796.813 316.123C797.933 320.849 798.083 325.753 797.254 330.538L801.889 329.313C797.136 324.257 793 318.827 788.757 313.349C786.856 310.88 782.877 314.065 784.455 316.662C788.364 322.646 792.894 328.2 797.969 333.233C799.312 334.615 802.252 334.115 802.604 332.008C803.684 326.275 803.348 320.364 801.624 314.79C801.31 313.716 800.332 312.972 799.214 312.957C794.314 313.124 789.482 313.094 784.621 313.153C781.838 313.153 781.838 317.377 784.621 317.465H784.631Z" fill="var(--color-illustration-primary, #382C80)"/>
<path d="M216.604 932.748C204.687 924.908 192.603 911.188 191.662 896.332C191.319 890.844 192.427 883.748 197.993 881.122C206.225 877.202 214.34 885.483 218.887 891.402C220.494 893.499 224.767 892.441 223.65 889.442C220.357 880.554 221.69 870.264 228.06 862.982C231.774 858.798 236.88 855.75 241.584 860.581C246.101 865.226 245.092 872.606 244.269 878.427C243.769 881.926 248.552 883.464 249.698 879.917C251.933 872.998 260.272 868.411 267.22 871.44C273.59 874.213 276.55 882.719 273.679 888.913C273.161 889.924 273.272 891.142 273.964 892.042C274.655 892.943 275.803 893.365 276.913 893.127C289.731 890.344 304.764 892.147 314.456 901.731C322.992 910.218 325.727 924.379 318.798 934.62C316.701 937.737 321.738 940.647 323.825 937.56C331.979 925.467 328.961 908.738 319.288 898.36C308.234 886.6 290.505 884.258 275.384 887.58L278.628 891.784C282.959 882.396 279.039 870.224 269.2 866.128C259.361 862.032 247.278 868.274 244.269 878.407L249.796 879.152C250.688 871.577 251.305 863.217 245.876 857.122C240.868 851.546 233.685 851.242 227.883 855.73C217.201 863.923 213.703 879.172 218.926 891.383L223.013 888.227C217.338 881.592 209.097 873.89 199.571 875.742C192.055 877.202 188.027 883.935 187.243 891.098C185.185 909.542 200.12 926.878 214.82 935.845C216.78 937.06 218.563 934.003 216.633 932.748H216.604Z" fill="var(--color-illustration-primary, #382C80)"/>
<path d="M266.544 935.806C266.28 927.711 277.324 924.477 280.519 932.405C281.656 935.189 286.242 933.964 285.086 931.141C282.92 925.83 277.599 922.243 271.729 923.36C265.858 924.477 262.095 930.093 262.438 935.806C262.595 938.423 266.633 938.462 266.544 935.806Z" fill="var(--color-illustration-primary, #382C80)"/>
<path d="M342.622 916.147C349.09 913.08 357.968 919.411 356.018 926.702C355.205 929.75 359.938 931.063 360.742 928.005C363.437 917.431 350.275 906.2 340.524 912.551C339.623 913.169 339.352 914.378 339.903 915.323C340.454 916.267 341.639 916.627 342.622 916.147Z" fill="var(--color-illustration-primary, #382C80)"/>
</svg>
