<svg width="1000" height="1000" viewBox="0 0 1000 1000" fill="none" xmlns="http://www.w3.org/2000/svg">
<path d="M162.429 867.941C224.071 718.364 319.611 500.304 387.604 353.5C387.604 353.5 411.761 267.593 470.149 283.028C577.538 307.185 578.214 314.574 578.214 314.574C582.536 453.127 583.006 730.094 578.547 868.607L162.429 867.941Z" fill="var(--color-illustration-secondary, #7F72FF)"/>
<ellipse cx="503.41" cy="290.639" rx="77.4396" ry="196.647" transform="rotate(-76.81 503.41 290.639)" fill="var(--color-illustration-base, #FFFFFF)"/>
<path d="M690.992 334.439C686.092 354.48 662.67 363.319 644.834 367.916C613.072 376.099 579.057 375.579 546.648 372.296C507.361 368.244 468.728 359.333 431.635 345.768C401.873 334.909 372.022 320.964 347.169 301.031C332.714 289.437 314.574 272.268 315.162 252.031C315.75 232.137 336.722 221.308 353.206 215.918C382.763 206.235 415.25 205.706 445.992 207.784C485.425 210.6 524.348 218.357 561.848 230.872C593.208 241.241 624.254 254.775 651.312 273.992C667.698 285.615 687.964 302.412 691.316 323.571C691.89 327.188 691.78 330.881 690.992 334.458C689.865 339.505 697.627 341.671 698.754 336.605C703.399 315.76 689.385 296.63 675.097 283.048C651.9 261.007 622.422 245.886 593.1 233.842C554.861 218.327 514.782 207.803 473.854 202.531C438.436 197.846 401.412 196.484 366.279 204.069C345.699 208.519 319.758 217.339 310.331 238.164C301.658 257.352 312.291 277.236 325.178 291.554C345.572 314.182 373.825 329.774 401.294 342.112C438.623 358.88 478.44 370.16 518.787 376.677C555.145 382.557 592.777 384.948 629.321 379.274C651.861 375.765 679.232 368.709 693.158 348.894C695.772 345.16 697.67 340.973 698.754 336.546C699.998 331.548 692.237 329.402 690.992 334.439Z" fill="var(--color-illustration-primary, #382C80)"/>
<path d="M617.6 265.192C627.4 215.927 592.424 165.898 535.78 152.619C480.596 139.683 426.774 166.751 413.437 213.379C412.643 216.277 413.02 219.371 414.485 221.994C417.935 228.364 426.872 239.79 449.011 248.855C481.772 262.272 610.132 302.55 617.6 265.192Z" fill="var(--color-illustration-secondary, #7F72FF)"/>
<path d="M621.451 266.26C629.654 223.375 605.997 181.931 568.747 161.077C529.175 138.939 476.313 139.458 439.936 167.937C431.552 174.448 424.386 182.391 418.768 191.398C414.054 199.013 407.008 211.057 409.468 220.259C411.33 227.384 417.7 233.832 423.188 238.389C431.165 245.043 440.347 249.757 449.961 253.569C479.32 265.088 509.683 273.861 540.66 279.774C557.947 283.126 576.264 286.154 593.913 284.233C605.213 282.999 618.737 278.971 621.481 266.299C622.578 261.243 614.817 259.087 613.719 264.163C611.759 272.983 601.665 275.296 593.913 276.178C580.193 277.736 566.003 275.982 552.459 273.747C522.52 268.847 492.934 260.429 464.338 250.355C449.902 245.269 435.016 239.575 424.158 228.334C422.293 226.426 420.625 224.335 419.179 222.092C416.112 217.25 417.425 213.33 419.336 208.293C422.78 199.343 427.869 191.116 434.34 184.038C462.838 152.678 510.359 146.612 548.873 160.734C590.777 176.09 622.471 218.387 613.729 264.124C612.7 269.181 620.481 271.356 621.451 266.26Z" fill="var(--color-illustration-primary, #382C80)"/>
<path d="M339.143 278.187C344.582 279.461 350.903 275.903 351.981 270.229C353.215 264.503 349.693 258.827 344.013 257.391C338.584 256.117 332.253 259.684 331.185 265.359C330.117 271.033 333.312 276.825 339.143 278.187Z" fill="var(--color-illustration-primary, #382C80)"/>
<path d="M388.28 319.876C393.719 321.15 400.04 317.583 401.118 311.909C402.342 306.2 398.837 300.544 393.18 299.1C387.741 297.826 381.42 301.383 380.342 307.058C379.117 312.769 382.622 318.427 388.28 319.876Z" fill="var(--color-illustration-primary, #382C80)"/>
<path d="M447.933 344.356C453.372 345.63 459.693 342.063 460.761 336.389C461.829 330.715 458.634 324.923 452.803 323.561C447.364 322.287 441.043 325.844 439.975 331.518C438.907 337.193 442.102 342.984 447.933 344.356Z" fill="var(--color-illustration-primary, #382C80)"/>
<path d="M522.334 362.251C527.773 363.525 534.094 359.958 535.172 354.294C536.25 348.629 533.036 342.818 527.205 341.456C521.766 340.182 515.445 343.739 514.376 349.413C513.308 355.087 516.503 360.879 522.334 362.251Z" fill="var(--color-illustration-primary, #382C80)"/>
<path d="M598.509 368.68C603.948 369.954 610.269 366.397 611.347 360.722C612.582 354.999 609.065 349.325 603.39 347.884C597.951 346.61 591.63 350.168 590.552 355.842C589.317 361.566 592.834 367.24 598.509 368.68Z" fill="var(--color-illustration-primary, #382C80)"/>
<path d="M658.388 353C663.827 354.274 670.148 350.717 671.226 345.042C672.461 339.319 668.943 333.645 663.268 332.204C657.829 330.93 651.508 334.498 650.43 340.172C649.196 345.893 652.714 351.564 658.388 353Z" fill="var(--color-illustration-primary, #382C80)"/>
<path d="M429.665 216.417C439.397 197.659 455.287 182.821 474.667 174.395C480.087 172.056 485.727 170.263 491.503 169.044C492.545 168.759 493.355 167.939 493.629 166.895C493.903 165.85 493.598 164.739 492.83 163.979C492.062 163.22 490.948 162.928 489.906 163.213C468.128 167.993 448.649 180.101 434.722 197.513C430.787 202.432 427.347 207.727 424.452 213.321C423.65 214.766 424.124 216.586 425.53 217.456C426.974 218.284 428.815 217.8 429.665 216.368V216.417Z" fill="var(--color-illustration-base, #FFFFFF)"/>
<path d="M501.96 167.692C505.88 167.692 505.88 161.655 501.96 161.655C498.04 161.655 498.04 167.692 501.96 167.692Z" fill="var(--color-illustration-base, #FFFFFF)"/>
<path d="M530.145 205.804C530.214 205.598 530.292 205.402 530.361 205.196C530.547 204.657 530.037 205.902 530.361 205.255C530.527 204.894 530.717 204.543 530.929 204.207C531.008 204.067 531.096 203.933 531.194 203.805L531.37 203.54L531.194 203.775C531.458 203.511 531.674 203.207 531.938 202.942C532.203 202.678 532.477 202.433 532.762 202.188L532.536 202.364L532.791 202.178L533.203 201.913C533.399 201.786 533.604 201.678 533.81 201.57C534.016 201.463 534.016 201.463 534.124 201.423L533.722 201.59C534.143 201.39 534.599 201.27 535.065 201.237L534.261 201.345C534.551 201.316 534.843 201.316 535.133 201.345L534.339 201.237L534.849 201.345C535.3 201.453 534.584 201.286 534.604 201.237C534.669 201.267 534.732 201.303 534.79 201.345L534.447 201.09C534.506 201.178 534.839 201.541 534.447 201.09C534.055 200.639 534.447 201.031 534.447 201.09C534.447 201.149 534.692 201.61 534.447 201.09C534.202 200.571 534.398 201.002 534.447 201.139C534.487 201.277 534.516 201.418 534.535 201.561L534.428 200.757C534.452 201.041 534.452 201.326 534.428 201.61L534.535 200.806C534.535 201.08 534.418 201.335 534.359 201.6C534.241 202.1 534.614 201.1 534.447 201.423C534.379 201.541 534.33 201.668 534.261 201.796C534.146 202.054 533.99 202.292 533.8 202.501C533.947 202.403 534.232 201.962 533.908 202.354L533.624 202.668C533.438 202.874 533.242 203.06 533.046 203.246L532.801 203.462C532.37 203.844 533.242 203.178 532.958 203.334L532.615 203.56C532.526 203.56 532.036 203.824 532.536 203.619C533.036 203.413 532.536 203.619 532.448 203.619C532.264 203.667 532.077 203.706 531.889 203.736L532.693 203.628C531.495 203.757 530.288 203.774 529.087 203.677L529.89 203.785C529.008 203.658 530.4 204.099 530.694 204.501C530.863 204.697 530.981 204.933 531.037 205.187C531.008 205.103 530.985 205.018 530.968 204.932L531.076 205.735C531.066 205.598 531.066 205.461 531.076 205.324L530.968 206.127C530.98 206.058 530.996 205.989 531.017 205.922C531.076 205.696 531.017 205.804 530.851 206.255C530.927 206.144 530.993 206.026 531.047 205.902C531.213 205.637 531.399 205.392 531.576 205.138C531.752 204.883 531.948 204.677 532.095 204.432C531.664 205.128 531.909 204.667 532.095 204.491L532.379 204.158C532.575 203.942 532.781 203.736 532.997 203.54C533.113 203.456 533.222 203.361 533.32 203.256C532.958 203.54 532.869 203.609 533.056 203.481C533.124 203.43 533.196 203.384 533.271 203.344L533.634 203.129C534.143 202.874 533.506 203.129 533.457 203.197C533.546 203.04 534.271 202.982 534.437 202.962L533.634 203.07C533.911 203.045 534.19 203.045 534.467 203.07L533.663 202.962L534.065 203.04C534.349 203.109 534.467 203.285 533.83 202.913C534.173 203.109 533.614 202.707 533.575 202.668C533.722 202.825 533.702 202.795 533.516 202.57C533.351 202.395 533.23 202.184 533.163 201.953L533.056 201.149C533.075 201.325 533.075 201.502 533.056 201.678L533.163 200.875C533.163 201.061 533.046 201.247 533.026 201.433C533.252 200.933 533.291 200.826 533.154 201.1L533.085 201.218C532.909 201.472 532.987 201.384 533.301 200.963L533.114 201.178C533.036 201.257 532.526 201.678 532.987 201.325C533.448 200.973 532.909 201.325 532.801 201.414C532.693 201.502 532.095 201.757 532.634 201.521C533.173 201.286 532.497 201.521 532.37 201.58C532.242 201.639 531.889 201.678 531.644 201.717L532.448 201.61C531.52 201.709 530.586 201.725 529.655 201.659L531.184 207.284L535.016 204.746C536.359 203.861 536.777 202.08 535.966 200.69C535.155 199.301 533.399 198.788 531.968 199.522L528.136 202.07C526.968 202.773 526.401 204.161 526.744 205.481C527.137 206.781 528.326 207.677 529.684 207.695C531.938 207.803 534.408 207.695 536.309 206.353C537.494 205.548 538.393 204.389 538.877 203.04C539.475 201.433 539.093 199.624 537.897 198.395C535.819 196.435 532.311 196.749 530.057 198.278C529.099 198.928 528.249 199.725 527.538 200.639C526.802 201.469 526.167 202.384 525.647 203.364C524.765 205.029 525.007 207.067 526.254 208.479C527.44 209.704 528.969 209.753 530.547 209.744C531.774 209.817 533.005 209.711 534.202 209.43C535.449 209.025 536.584 208.334 537.515 207.411C539.356 205.821 540.459 203.541 540.562 201.11C540.484 198.434 538.74 195.779 535.947 195.357C530.547 194.534 525.892 199.395 524.353 204.177C524.127 204.958 524.222 205.797 524.618 206.508C525.014 207.218 525.677 207.741 526.46 207.96C528.063 208.365 529.7 207.436 530.174 205.853L530.145 205.804Z" fill="var(--color-illustration-primary, #382C80)"/>
<path d="M522.736 204.52C523.145 202.225 522.959 199.863 522.197 197.66C521.464 195.299 519.942 193.261 517.885 191.888C515.51 190.415 512.42 190.866 510.565 192.956C508.896 195.034 508.398 197.818 509.242 200.345C509.503 201.451 509.968 202.498 510.614 203.432C511.38 204.478 512.389 205.322 513.554 205.892C514.583 206.504 515.673 207.007 516.807 207.392C518.918 207.856 521.037 206.644 521.707 204.589C522.055 203.285 522.055 201.913 521.707 200.61C521.565 199.672 521.322 198.752 520.982 197.866C520.061 195.632 518.307 193.466 515.788 193.025C513.828 192.682 511.721 193.24 510.819 195.161C510.122 196.595 510.038 198.25 510.584 199.748C511.16 201.236 512.163 202.521 513.465 203.442C514.337 204.057 515.277 204.567 516.268 204.961C516.87 205.276 517.553 205.403 518.228 205.324C518.883 205.249 519.494 204.955 519.963 204.491C520.905 203.504 521.096 202.019 520.433 200.826L518.13 196.847C517.289 195.407 515.439 194.922 513.999 195.764C512.56 196.606 512.075 198.455 512.917 199.895L515.22 203.883L519.345 199.748C518.885 199.542 518.424 199.336 517.973 199.111L517.268 198.728L516.974 198.532C516.876 198.474 516.445 198.15 516.846 198.464C516.846 198.464 517.248 198.777 516.846 198.464L516.592 198.229C516.523 198.15 516.347 198.013 516.317 197.915C516.317 197.974 516.709 198.493 516.503 198.121L516.337 197.837C516.102 197.445 516.435 198.111 516.435 198.111C516.435 198.111 516.258 197.435 516.239 197.327L516.347 198.131C516.317 197.867 516.317 197.601 516.347 197.337L516.239 198.14L516.298 197.827C516.396 197.327 516.013 198.336 516.18 198.062C516.258 197.935 516.229 197.984 516.072 198.199C515.94 198.434 515.717 198.604 515.455 198.67C514.681 199.12 514.975 198.924 515.288 198.875L514.494 198.983C514.651 198.969 514.808 198.969 514.965 198.983L514.161 198.875C514.313 198.898 514.464 198.93 514.612 198.973C514.837 199.042 514.808 199.032 514.543 198.915C514.279 198.797 514.249 198.787 514.455 198.915L514.788 199.111C515.22 199.385 514.73 198.993 514.612 198.954C514.72 198.954 514.867 199.189 514.945 199.277C515.171 199.512 515.2 199.757 514.877 199.14C515.004 199.385 515.19 199.61 515.327 199.865C515.543 200.287 515.327 199.934 515.327 199.708C515.327 199.885 515.465 200.051 515.523 200.228C515.582 200.404 515.71 200.875 515.778 201.208C515.935 201.894 516.053 202.599 516.151 203.295L516.043 202.492C516.077 202.794 516.077 203.1 516.043 203.403L516.151 202.599C516.136 202.71 516.11 202.818 516.072 202.923C516.117 202.684 516.229 202.463 516.396 202.286C516.529 202.082 516.715 201.92 516.935 201.815C517.454 201.649 517.562 201.59 517.258 201.668L518.062 201.561C517.941 201.58 517.819 201.58 517.699 201.561L518.503 201.668C517.895 201.502 519.11 202.002 518.503 201.668L517.964 201.394L517.062 200.943C516.748 200.786 516.425 200.63 516.082 200.453C515.964 200.385 515.847 200.296 515.719 200.228C515.592 200.159 516.278 200.728 515.798 200.228C515.719 200.149 515.612 199.963 515.504 199.914C515.778 200.287 515.847 200.375 515.719 200.189L515.582 199.973C515.494 199.826 515.416 199.669 515.337 199.512C515.082 199.052 515.523 200.022 515.406 199.679C515.167 199.024 514.989 198.348 514.877 197.66L514.984 198.464C514.926 197.976 514.926 197.482 514.984 196.994L514.877 197.797C514.902 197.616 514.938 197.436 514.984 197.258C515.082 196.857 515.249 196.896 514.886 197.386C514.951 197.278 515.01 197.167 515.063 197.053C515.386 196.514 514.73 197.396 514.935 197.18L515.19 196.915C515.367 196.768 515.337 196.778 515.112 196.964C514.886 197.151 514.857 197.16 515.043 197.033L515.171 196.955C515.445 196.817 515.337 196.857 514.847 197.082C514.984 197.082 515.131 196.994 515.269 196.974L514.465 197.082C514.677 197.058 514.89 197.058 515.102 197.082L514.298 196.974C514.47 196.996 514.64 197.029 514.808 197.072C515.043 197.164 515.043 197.164 514.808 197.072C514.543 196.964 514.553 196.964 514.808 197.072L515.19 197.307C515.494 197.484 514.69 196.847 515.063 197.209C515.269 197.405 515.661 197.68 515.778 197.954C515.7 197.768 515.386 197.425 515.67 197.827L515.955 198.268C516.121 198.552 516.278 198.836 516.425 199.13L516.503 199.297L516.405 199.071C516.445 199.216 516.497 199.357 516.562 199.493C516.791 200.128 516.955 200.785 517.052 201.453L516.944 200.649C517.072 201.602 517.072 202.568 516.944 203.521L517.052 202.717V202.893C516.87 203.683 516.981 204.512 517.366 205.226C517.769 205.899 518.414 206.393 519.169 206.608C519.953 206.82 520.789 206.71 521.492 206.304C522.179 205.914 522.68 205.264 522.883 204.501L522.736 204.52Z" fill="var(--color-illustration-primary, #382C80)"/>
<path d="M518.355 217.172C519.662 217.069 520.976 217.105 522.275 217.28L521.472 217.172C521.903 217.231 522.334 217.299 522.775 217.388C523.56 217.583 524.39 217.475 525.098 217.084C525.792 216.681 526.296 216.018 526.5 215.242C526.704 214.466 526.591 213.641 526.186 212.948C525.784 212.269 525.134 211.773 524.373 211.566C522.385 211.134 520.345 210.989 518.316 211.135C517.522 211.155 516.764 211.469 516.19 212.017C515.62 212.582 515.299 213.351 515.299 214.154C515.299 214.956 515.62 215.725 516.19 216.29C516.749 216.861 517.517 217.179 518.316 217.172H518.355Z" fill="var(--color-illustration-primary, #382C80)"/>
<path d="M576.195 195.494L578.155 198.807C579.056 200.214 580.906 200.661 582.349 199.82C583.793 198.978 584.316 197.148 583.535 195.671L581.575 192.368C580.712 190.891 578.814 190.393 577.337 191.256C575.859 192.119 575.361 194.017 576.224 195.494H576.195Z" fill="var(--color-illustration-primary, #382C80)"/>
<path d="M472.56 248.934C475.99 233.861 497.668 236.145 504.155 223.454C507.301 217.299 505.302 210.88 503.401 204.726C501.353 198.121 501.725 192.133 505.694 186.282C510.026 179.893 516.788 178.442 524.108 178.315C532.801 178.148 538.877 182.235 543.297 189.507C547.469 196.104 548.584 204.184 546.354 211.664C544.1 218.789 539.151 222.885 534.134 228.001C529.567 232.646 528.322 238.487 532.34 243.975C534.369 246.739 537.074 248.875 538.74 251.903C540.821 255.868 541.412 260.447 540.406 264.81C539.426 269.318 546.286 271.268 547.354 266.77C549.091 259.795 547.814 252.411 543.836 246.425C542.081 243.867 537.103 240.427 537.044 237.184C536.976 233.577 543.13 230.088 545.315 227.697C555.723 216.3 557.752 200.022 549.833 186.665C546.07 180.324 540.562 174.483 533.281 172.445C525.664 170.439 517.612 170.854 510.241 173.631C497.295 178.913 492.758 194.211 496.521 206.666C498.158 212.096 500.588 218.064 495.865 222.699C492.67 225.845 487.456 227.354 483.477 229.275C475.814 232.979 469.042 238.82 467.249 247.503C466.533 250.953 471.766 252.403 472.55 248.973L472.56 248.934Z" fill="var(--color-illustration-primary, #382C80)"/>
<path d="M340.26 234.42C362.437 261.066 392.298 278.941 424.461 291.074C442.817 298.032 461.78 303.02 480.9 307.332C500.245 311.654 519.766 315.662 539.386 318.553C561.064 321.748 582.869 323.022 604.615 319.739C609.005 319.082 607.133 312.408 602.772 313.065C564.552 318.837 525.352 309.9 488.112 301.864C453.303 294.347 418.415 284.547 387.613 266.152C371.473 256.519 356.528 244.788 344.258 230.48C341.887 227.707 337.976 231.705 340.279 234.459L340.26 234.42Z" fill="var(--color-illustration-primary, #382C80)"/>
<path d="M641.199 314.172C646.288 312.84 650.99 310.321 654.919 306.822C658.839 303.422 653.066 297.679 649.244 301.148C646.339 303.782 642.899 305.757 639.16 306.94C634.574 308.41 636.455 315.437 641.12 314.192L641.199 314.172Z" fill="var(--color-illustration-primary, #382C80)"/>
<path d="M576.528 386.555C578.645 508.513 578.972 630.503 577.508 752.526C577.126 787.101 576.479 821.675 576.225 856.25C576.225 861.747 584.555 861.728 584.751 856.25C588.925 734.396 588.063 612.151 585.466 490.269C584.731 455.684 583.682 421.12 582.526 386.555C582.399 382.635 576.421 382.635 576.489 386.555H576.528Z" fill="var(--color-illustration-primary, #382C80)"/>
<path d="M381.42 349.678C353.568 416.377 327.246 483.712 299.276 550.372C270.141 619.795 240.241 688.915 209.116 757.446C192.633 793.706 175.218 829.554 158.95 865.912C156.882 870.538 163.458 874.654 165.908 869.97C182.353 838.531 196.994 806.103 211.713 773.832C227.184 739.858 242.345 705.774 257.195 671.578C287.164 602.645 316.074 533.258 343.925 463.417C358.831 426.177 373.786 389.005 387.437 351.324C388.819 347.502 382.959 346.091 381.459 349.678H381.42Z" fill="var(--color-illustration-primary, #382C80)"/>
<path d="M505.596 445.345C508.536 444.679 511.476 444.032 514.573 443.307C516.738 442.788 519.228 442.004 519.992 439.906C520.58 438.329 519.992 436.427 520.796 435.006C521.981 432.948 525.157 433.272 527.077 434.654C531.086 437.525 532.095 443.327 530.596 448.021C529.096 452.715 525.607 456.488 521.952 459.781C515.494 465.582 509.261 469.091 502.401 474.05C497.501 477.617 493.522 483.85 495.541 489.592C496.737 492.983 499.726 495.365 502.519 497.638C513.818 506.88 525.304 518.326 533.683 530.311C535.78 533.32 538.504 536.926 542.12 536.368C544.972 535.937 547.138 532.918 549.96 533.173C552.273 533.379 553.88 535.819 553.88 538.132C553.88 540.445 552.606 542.571 551.146 544.365C548.206 547.971 538.044 557.369 532.967 556.909C526.872 556.36 526.656 547.246 523.099 543.071C515.141 533.722 499.51 524.931 488.495 520.139C479.155 516.072 480.802 523.285 480.39 531.487C480.006 539.295 480.059 547.118 480.547 554.919C481.331 567.287 485.77 571.579 491.739 581.203C494.404 585.466 493.581 591.199 491.033 595.521C488.485 599.842 484.457 603.096 480.537 606.232C467.415 616.718 474.657 593.923 474.265 589.376C473.628 581.712 467.062 576.46 463.701 569.874C458.801 560.192 456.096 548.971 453.989 538.377C453.342 535.123 447.335 505.86 449.442 504.88C435.31 511.476 418.278 522.765 401.931 519.032C398.521 518.248 395.071 516.738 393.111 513.838C391.151 510.937 391.387 506.399 394.317 504.479C398.315 501.872 403.931 505.459 408.341 503.646C414.221 501.215 421.571 495.649 426.314 491.425C428.666 489.328 441.014 472.668 443.082 473.148C434.007 470.992 427.627 460.937 429.528 451.813C431.165 443.973 438.044 437.897 445.698 435.428C448.991 434.36 452.617 433.87 455.9 434.967C461.29 436.77 464.514 442.464 465.524 448.06C466.533 453.656 465.847 459.399 466.092 465.083C465.857 459.712 480.175 454.195 483.791 452.411C490.984 448.854 498.138 447.08 505.596 445.345Z" fill="var(--color-illustration-primary, #382C80)"/>
<path d="M506.419 448.315C510.712 447.384 516.219 447.041 519.982 444.61C521.183 443.865 522.148 442.794 522.766 441.523C522.991 441.043 523.422 436.898 523.657 436.77C526.539 435.212 527.862 442.827 527.813 443.973C527.648 446.186 526.915 448.319 525.686 450.167C522.864 454.744 518.111 458.35 513.848 461.476C506.723 466.69 497.188 470.767 492.974 478.989C488.76 487.211 492.435 494.434 499.02 500C507.087 506.656 514.623 513.93 521.56 521.756C524.863 525.549 527.783 529.596 530.753 533.604C533.232 536.966 536.319 540.464 540.778 540.709C542.395 540.781 544.005 540.462 545.472 539.778C546.825 539.19 549.314 536.77 549.226 538.955C549.118 541.65 544.394 545.09 542.562 546.687C540.523 548.471 537.279 551.587 534.496 552.146C531.556 552.734 530.89 548.843 529.929 546.481C526.911 539.043 520.884 534.114 514.485 529.508C507.093 524.232 499.155 519.767 490.808 516.19C485.183 513.759 478.332 513.524 476.519 520.707C475.745 523.775 476 527.107 475.912 530.233C475.755 535.456 475.53 540.65 475.637 545.913C475.804 554.733 476.216 563.416 480.273 571.393C482.088 574.695 484.073 577.901 486.221 580.997C489.161 585.593 489.563 589.817 486.28 594.462C483.732 598.098 479.969 600.911 476.48 603.557C474.648 604.929 475.069 603.704 475.794 604.429C478.313 606.938 476.951 605.301 477.245 604.135C477.735 602.263 477.519 599.921 477.813 597.971C478.166 595.638 478.705 593.257 478.842 590.895C479.371 581.967 472.492 575.881 468.385 568.747C462.858 559.153 460.594 547.618 458.438 536.877C457.458 531.791 456.429 526.685 455.498 521.57C454.93 518.277 454.362 514.984 453.979 511.662C453.842 510.427 453.734 509.202 453.656 507.967C453.499 505.4 454.342 506.801 452.725 508.134C457.047 504.577 451.539 498.755 447.1 500.853C436.085 506.076 425.06 513.299 412.721 514.857C409.066 515.308 396.708 515.651 396.561 509.898C396.493 507.115 399.903 508.291 401.824 508.526C404.404 508.979 407.053 508.848 409.576 508.144C417.641 505.557 426.432 498.657 431.861 492.219C434.203 489.445 436.457 486.594 438.799 483.81C440.063 482.321 441.328 480.87 442.67 479.42C443.082 478.989 444.121 478.293 444.287 477.793C444.562 476.96 445.855 477.793 443.062 477.842C448.354 477.754 449.481 470.061 444.317 468.591C438.951 467.077 434.944 462.597 434.036 457.096C433.056 450.843 437.143 445.336 442.239 442.18C447.727 438.809 455.155 437.123 458.958 443.572C462.652 449.853 461.173 458.105 461.369 465.063C461.535 471.149 470.375 471.07 470.777 465.063C470.728 465.729 471.757 464.161 472.276 463.74C473.399 462.87 474.596 462.099 475.853 461.437C478.342 460.006 480.949 458.82 483.556 457.625C491.003 454.227 498.77 451.581 506.743 449.726C512.427 448.374 510.016 439.73 504.332 440.984C494.595 443.179 485.136 446.466 476.137 450.784C470.1 453.636 461.878 457.527 461.369 465.092H470.777C470.492 454.489 472.041 442.396 463.574 434.291C455.988 427.019 444.199 429.391 436.261 434.81C428.548 440.112 423.325 448.766 424.726 458.33C426.129 467.579 432.808 475.155 441.808 477.705L443.062 468.454C439.25 468.522 436.457 472.227 434.154 474.853C430.91 478.538 427.941 482.458 424.726 486.182C420.944 490.572 415.857 494.149 410.899 497.08C407.331 499.187 405.175 499.569 401.099 499.098C397.933 498.726 394.738 498.706 391.926 500.451C386.624 503.753 385.938 511.182 389.054 516.209C392.906 522.422 401.295 524.314 408.076 524.441C423.874 524.725 438.025 515.415 451.774 508.889L446.149 501.607C442.7 504.459 444.709 511.985 445.169 515.592C446.071 522.011 447.266 528.332 448.511 534.741C449.916 542.678 451.764 550.531 454.048 558.261C455.547 563.062 457.479 567.716 459.82 572.167C462.251 576.734 466.033 580.458 468.327 585.074C470.894 590.229 468.846 595.305 468.327 600.754C467.876 605.321 468.042 611.72 473.432 613.278C480.028 615.189 488.025 606.614 491.739 602.371C498.599 594.531 499.912 585.172 494.218 576.381C491.974 572.912 489.455 569.521 487.75 565.729C485.555 560.829 485.212 555.644 484.996 550.392C484.751 544.688 484.771 538.975 484.996 533.271C485.075 531.086 485.134 528.92 485.173 526.744C485.173 525.98 485.82 522.197 484.83 523.167C483.84 524.137 484.977 523.393 486.094 523.971C487.211 524.549 488.319 524.951 489.397 525.411C491.357 526.333 493.317 527.313 495.277 528.351C500.382 530.967 505.297 533.937 509.986 537.24C513.387 539.68 517.425 542.601 519.894 546.06C522.207 549.294 522.746 553.488 525.098 556.732C529.929 563.416 537.368 561.407 543.208 557.369C548.824 553.449 556.389 547.628 558.036 540.601C559.009 536.689 557.527 532.576 554.282 530.184C550.284 527.42 547.138 529.429 543.326 531.027C540.18 532.34 539.21 530.488 537.446 528.087C535.849 525.97 534.32 523.824 532.673 521.756C529.016 517.178 525.106 512.806 520.962 508.663C516.031 503.748 510.854 499.087 505.449 494.698C503.42 493.022 500.863 491.327 499.677 488.897C498.099 485.643 499.863 482.105 502.029 479.626C506.027 475.049 512.172 472.099 517.042 468.522C521.756 465.043 526.411 461.261 529.959 456.547C535.231 449.54 537.544 437.329 528.783 431.733C525.637 429.724 521.041 429.489 518.542 432.645C516.768 434.889 517.875 438.25 515.092 439.867C512.309 441.484 507.84 441.641 504.812 442.347C500.902 443.278 502.548 449.158 506.419 448.315Z" fill="var(--color-illustration-primary, #382C80)"/>
<path d="M47.1419 858.072C35.892 782.352 35.0973 705.444 44.7801 629.507L41.1051 633.182L142.741 623.245L138.988 619.501L149.768 704.761C150.601 711.347 151.238 717.991 152.296 724.547C153.011 728.977 154.599 733.671 158.695 736.082C163.595 738.953 170.054 737.523 175.355 737.131L197.699 735.484C200.394 735.278 201.717 733.23 201.355 730.682C194.358 680.565 187.576 630.467 180.716 580.36C180.118 576.038 176.718 566.317 181.696 564.396C187.066 562.328 194.211 562.289 199.924 561.456C212.439 559.692 225.041 558.428 237.654 557.536C243.671 557.124 249.698 556.82 255.735 556.624C261.439 556.428 268.005 555.497 273.581 556.997C283.528 559.662 283.155 575.078 284.616 583.153C289.516 610.191 297.522 636.524 303.294 663.366C303.848 665.282 305.592 666.608 307.587 666.629C321.836 667.119 336.092 667.59 350.354 668.041C352.817 668.025 354.811 666.035 354.833 663.572L351.589 591.777L347.081 596.295L398.452 595.726C401.765 595.726 406.39 594.746 409.497 595.844C412.917 597.079 412.437 603.125 412.849 606.242C413.9 614.853 414.926 623.473 415.926 632.104C419.846 666.286 423.207 700.518 426.363 734.779C426.588 737.238 428.391 739.796 431.184 739.61L479.204 736.445C481.723 736.278 484.153 734.367 484.036 731.613L481.762 679.075L475.647 683.74C488.969 687.909 502.982 689.41 516.885 688.16L512.044 683.26C514.004 700.733 515.092 718.54 518.022 735.906C519.071 742.109 522.707 746.607 528.881 748.165C533.565 749.351 541.464 747.372 545.139 750.939C546.543 752.257 548.589 752.631 550.369 751.893C552.148 751.156 553.331 749.444 553.39 747.519C553.39 706.496 552.339 665.496 550.235 624.519L544.355 629.027C584.104 637.179 625.077 637.356 664.895 629.546L659.426 625.44C660.847 667.306 661.151 709.161 660.671 751.047C660.708 753.368 662.583 755.239 664.905 755.27C674.705 755.613 684.505 756.897 694.305 756.339C703.242 755.819 713.179 754.055 717.57 745.265C722.058 736.288 721.059 725.175 720.51 715.492C719.755 701.772 720.637 688.052 720.98 674.332L722.186 625.068L722.803 599.95C722.97 593.472 720.843 581.722 729.134 579.939C736.298 578.41 744.598 579.243 751.889 579.302C760.147 579.373 768.406 579.674 776.664 580.203C784.922 580.732 793.151 581.497 801.35 582.496C805.374 582.986 809.396 583.542 813.414 584.162C814.923 584.398 816.765 584.456 818.049 585.368C819.941 586.73 819.823 589.17 820.009 591.414C824.047 628.752 825.889 666.424 826.35 703.967C826.381 706.406 828.351 708.375 830.789 708.407C841.826 707.811 852.839 709.945 862.855 714.62L860.64 710.818C863.433 738.679 866.785 766.482 869.676 794.333C872.567 822.185 875.673 850.085 876.183 878.006C876.291 883.631 885.003 883.65 884.934 878.006C883.954 824.782 875.967 771.725 870.371 718.854C870.077 716.1 870.175 712.895 869.46 710.22C868.392 706.182 863.335 705.065 859.778 703.762C850.516 700.449 840.691 698.997 830.867 699.489L835.297 703.918C834.801 669.246 832.935 634.619 829.701 600.038C829.113 593.737 829.809 584.26 824.997 579.341C820.391 574.637 811.199 574.931 805.162 574.147C788.457 571.993 771.642 570.795 754.8 570.56C746.656 570.452 738.297 570.158 730.192 571.021C724.087 571.677 718.511 574.117 716.061 580.115C713.277 586.906 714.316 595.609 714.101 602.773L713.483 628.85C712.758 659.495 711.033 690.267 712.268 720.892C712.503 726.85 712.768 733.24 710.925 738.993C709.23 744.324 705.506 746.137 700.263 747.117C688.65 749.302 676.547 747.117 664.875 746.754L669.109 750.988C669.55 709.122 669.109 667.237 668.011 625.381C667.943 622.441 665.336 620.716 662.562 621.226C624.255 628.363 584.923 627.947 546.775 620.001C543.953 619.413 540.709 621.304 540.895 624.509C542.855 665.48 543.803 706.479 543.737 747.509L551.94 744.118C548.02 740.316 543.12 739.551 537.887 739.326C535.613 739.228 533.055 739.473 530.87 738.718C527.626 737.581 527.489 734.641 527.117 731.525C525.157 715.463 523.5 699.361 521.687 683.28C521.423 680.879 519.727 678.174 516.856 678.438C503.83 679.708 490.682 678.375 478.175 674.518C476.721 674.143 475.175 674.455 473.981 675.364C472.786 676.274 472.075 677.682 472.05 679.183L474.334 731.721L479.165 726.88L431.145 730.055L435.977 734.886C432.468 696.774 428.235 658.711 423.687 620.716C422.707 612.494 422.776 603.076 420.248 595.236C417.807 587.612 411.124 586.642 404.127 586.71C385.095 586.906 366.063 587.181 347.042 587.416C344.557 587.443 342.55 589.45 342.524 591.934L345.905 663.66L350.374 659.181C336.115 658.731 321.865 658.25 307.606 657.819L311.889 661.092C306.058 634.26 297.973 607.947 293.034 580.928C291.26 571.226 291.074 558.898 282.734 552.165C278.657 548.882 273.561 548.01 268.465 547.853C261.713 547.657 254.882 548.108 248.14 548.441C234.178 549.14 220.259 550.398 206.382 552.214C200.339 552.998 194.309 553.884 188.291 554.87C183.284 555.693 176.345 555.791 172.876 560.172C169.554 564.386 171.034 570.041 171.72 574.872L174.728 596.04C176.776 610.456 179.236 624.813 181.177 639.238C185.361 670.402 189.742 701.527 194.064 732.672L197.719 727.87L179.256 729.202C174.797 729.526 164.311 732.142 161.273 728.056C159.989 726.321 159.842 723.43 159.548 721.353C159.087 718.079 158.705 714.787 158.284 711.504L155.922 693.06L146.485 619.462C146.249 617.61 144.956 615.493 142.741 615.709L41.1051 625.842C39.115 625.922 37.52 627.517 37.4399 629.507C27.8496 706.044 29.0669 783.55 41.0561 859.748C41.6931 863.766 47.7495 862.041 47.1517 858.072H47.1419Z" fill="var(--color-illustration-primary, #382C80)"/>
<path d="M581.664 629.821C569.532 628.802 557.475 627.038 545.56 624.538C547.599 665.502 548.598 706.502 548.559 747.538C542.914 741.227 530.409 747.078 524.97 740.59C523.128 738.375 522.726 735.337 522.403 732.466L516.885 683.26C503.423 684.647 489.819 683.246 476.921 679.144C477.679 696.653 478.437 714.166 479.195 731.682L431.175 734.847C427.078 690.002 422.253 645.249 416.7 600.587C416.347 597.794 415.857 594.707 413.76 592.924C411.663 591.14 408.762 591.14 406.087 591.14L347.1 591.836C348.185 615.767 349.276 639.699 350.374 663.631L307.606 662.239C301.315 632.839 292.426 604.821 287.693 575.342C243.632 675.42 199.375 778.516 165.046 861.62C213.438 861.914 261.827 862.012 310.213 861.914C337.49 861.829 364.76 861.63 392.024 861.316C413.045 861.11 432.341 865.579 453.44 864.815C495.159 863.296 536.926 863.6 578.694 863.952C580.556 803.408 581.517 718.168 581.664 629.821Z" fill="var(--color-illustration-primary, #382C80)"/>
<path d="M581.664 625.793C569.898 624.764 558.204 623.049 546.638 620.658C544.208 620.158 541.395 621.775 541.533 624.578C543.551 665.548 544.551 706.548 544.531 747.577L551.391 744.735C547.638 741.09 542.953 740.394 537.906 740.178C535.535 740.08 533.007 740.267 530.674 739.541C526.98 738.375 526.754 735.004 526.313 731.564C524.353 715.502 522.707 699.401 520.904 683.319C520.678 681.359 519.228 679.075 516.876 679.291C503.779 680.575 490.557 679.242 477.98 675.371C476.763 675.049 475.465 675.31 474.467 676.077C473.469 676.845 472.884 678.032 472.884 679.291C473.641 696.8 474.399 714.313 475.157 731.829L479.185 727.801L431.165 730.966L435.193 734.994C431.684 696.885 427.673 658.829 423.158 620.824C422.178 612.651 422.276 603.312 419.748 595.442C417.386 588.063 410.928 587.23 404.146 587.298C385.115 587.475 366.083 587.739 347.061 587.965C344.848 587.991 343.06 589.779 343.034 591.993C344.125 615.924 345.216 639.856 346.307 663.787L350.335 659.76L307.567 658.368L311.487 661.308C305.206 632.261 296.386 603.782 291.584 574.411C291.045 571.128 285.576 570.364 284.224 573.431C250.649 649.597 217.659 726.06 185.254 802.82C177.172 822.048 169.142 841.298 161.165 860.571C160.136 863.061 162.694 865.648 165.085 865.667C219.318 866.001 273.552 866.187 327.765 865.883C341.407 865.805 355.042 865.703 368.67 865.579C381.93 865.462 395.209 864.972 408.439 865.991C420.993 866.971 433.488 868.735 446.081 868.931C459.605 869.137 473.187 868.215 486.721 868C517.385 867.51 548.05 867.745 578.714 868C580.923 867.963 582.705 866.181 582.742 863.972C584.535 805.172 585.143 746.372 585.486 687.641C585.603 668.38 585.678 649.107 585.711 629.821C585.711 624.636 577.665 624.627 577.655 629.821C577.548 693.383 577.107 756.956 575.784 820.509C575.483 834.987 575.117 849.461 574.686 863.933L578.714 859.905C551.274 859.68 523.902 859.464 496.501 859.778C482.781 859.928 469.088 860.232 455.42 860.689C442.68 861.12 430.067 859.925 417.376 858.729C390.916 856.161 364.094 857.582 337.506 857.749C310.347 857.938 283.191 858.004 256.039 857.945C225.718 857.945 195.393 857.827 165.066 857.592L168.986 862.688C199.261 789.443 230.294 716.524 262.086 643.933C271.748 621.719 281.457 599.552 291.211 577.43L283.851 576.45C288.663 605.85 297.483 634.27 303.755 663.346C304.264 665.088 305.861 666.285 307.675 666.286L350.442 667.678C352.66 667.662 354.454 665.868 354.47 663.65C353.379 639.719 352.285 615.787 351.187 591.855L347.169 595.883L398.541 595.285C401.932 595.285 406.44 594.305 409.654 595.403C413.525 596.687 413.055 602.9 413.476 606.32C414.534 614.931 415.563 623.552 416.563 632.182C420.542 666.365 424.106 700.59 427.255 734.857C427.441 736.915 428.94 739.032 431.273 738.885L479.293 735.719C481.502 735.683 483.284 733.901 483.32 731.692C482.556 714.182 481.798 696.67 481.047 679.154L475.941 683.074C489.207 687.186 503.155 688.634 516.984 687.337L512.858 683.26C514.818 700.645 515.798 718.442 518.806 735.68C519.786 741.56 523.167 745.892 529.096 747.372C534.065 748.616 541.787 746.558 545.707 750.37C546.877 751.464 548.579 751.772 550.057 751.158C551.536 750.543 552.518 749.119 552.567 747.519C552.567 706.496 551.568 665.496 549.569 624.519L544.473 628.439C556.747 630.968 569.159 632.78 581.644 633.868C586.818 634.26 586.789 626.244 581.664 625.793V625.793Z" fill="var(--color-illustration-primary, #382C80)"/>
<path d="M619.031 699.273C617.888 692.755 617.233 686.161 617.071 679.546C617.002 676.684 617.071 673.666 618.6 671.216C620.403 668.354 623.852 666.972 627.194 666.433C630.536 665.894 633.956 666.002 637.249 665.248C638.686 675.307 639.09 685.486 638.454 695.628C632.603 696.863 626.582 697.078 620.658 696.265" fill="var(--color-illustration-secondary, #7F72FF)"/>
<path d="M622.265 698.381C621.285 691.521 620.158 683.583 621.138 676.655C622.245 668.815 632.555 670.412 638.396 669.324L633.035 665.248C634.522 675.304 634.818 685.501 633.917 695.628L637.259 691.237C631.768 692.026 626.207 692.203 620.677 691.766C615.679 691.502 614.454 699.675 619.482 700.586C626.185 701.759 633.056 701.559 639.68 699.998C641.648 699.441 643.013 697.653 643.031 695.608C643.249 685.091 642.686 674.573 641.346 664.14C641.012 661.759 638.141 660.798 636.142 661.2C628.106 662.768 617.336 661.886 613.984 671.412C612.573 675.44 613.102 679.938 613.465 684.093C613.956 689.501 614.738 694.88 615.807 700.204C616.659 704.516 622.833 702.576 622.265 698.421V698.381Z" fill="var(--color-illustration-secondary, #7F72FF)"/>
<path d="M142.506 810.66C141.369 804.141 140.714 797.548 140.546 790.933C140.477 788.061 140.546 785.053 142.075 782.593C143.878 779.741 147.337 778.359 150.669 777.82C154.001 777.281 157.431 777.389 160.724 776.625C162.161 786.684 162.565 796.863 161.93 807.005C156.078 808.234 150.058 808.45 144.133 807.642" fill="var(--color-illustration-secondary, #7F72FF)"/>
<path d="M145.74 809.798C144.76 802.938 143.643 795 144.623 788.061C145.72 780.221 156.03 781.819 161.871 780.741L156.51 776.654C157.999 786.711 158.298 796.907 157.402 807.034L160.744 802.644C155.25 803.432 149.685 803.609 144.152 803.173C139.154 802.908 137.929 811.081 142.957 811.993C149.663 813.161 156.537 812.961 163.164 811.405C165.126 810.841 166.486 809.056 166.506 807.014C166.731 796.495 166.174 785.974 164.84 775.537C164.507 773.155 161.635 772.185 159.636 772.597C151.6 774.155 140.84 773.273 137.488 782.808C136.067 786.826 136.596 791.334 136.959 795.49C137.45 800.898 138.232 806.276 139.301 811.601C140.154 815.913 146.328 813.963 145.759 809.817L145.74 809.798Z" fill="var(--color-illustration-secondary, #7F72FF)"/>
<path d="M81.4322 732.162C80.2897 725.644 79.6345 719.05 79.4722 712.435C79.4036 709.573 79.4722 706.555 81.001 704.105C82.8042 701.243 86.2538 699.861 89.5956 699.322C92.9374 698.783 96.3576 698.891 99.6504 698.136C101.088 708.195 101.492 718.375 100.856 728.516C95.0045 729.752 88.9837 729.967 83.059 729.153" fill="var(--color-illustration-secondary, #7F72FF)"/>
<path d="M84.6663 731.28C83.6863 724.42 82.5593 716.482 83.5393 709.553C84.6467 701.713 94.9563 703.311 100.797 702.223L95.4365 698.146C96.9233 708.203 97.2193 718.4 96.3185 728.526L99.6701 724.136C94.1762 724.924 88.6118 725.102 83.0787 724.665C78.0807 724.4 76.8557 732.574 81.8831 733.485C88.5894 734.658 95.4639 734.458 102.091 732.897C104.053 732.334 105.412 730.548 105.433 728.507C105.654 717.97 105.09 707.432 103.747 696.98C103.414 694.599 100.542 693.638 98.5431 694.04C90.5071 695.608 79.7467 694.726 76.3853 704.252C74.9741 708.27 75.5033 712.778 75.8659 716.933C76.3574 722.341 77.1393 727.719 78.2081 733.044C79.0607 737.356 85.2347 735.406 84.6663 731.26V731.28Z" fill="var(--color-illustration-secondary, #7F72FF)"/>
<path d="M214.32 634.838C213.183 628.323 212.528 621.732 212.36 615.121C212.292 612.249 212.36 609.241 213.889 606.781C215.692 603.919 219.152 602.547 222.484 602.008C225.816 601.469 229.246 601.577 232.539 600.813C233.976 610.872 234.379 621.051 233.744 631.193C227.891 632.418 221.872 632.633 215.947 631.83" fill="var(--color-illustration-secondary, #7F72FF)"/>
<path d="M217.554 633.956C216.574 627.096 215.457 619.158 216.437 612.22C217.535 604.38 227.844 605.977 233.685 604.899L228.324 600.813C229.814 610.869 230.113 621.066 229.216 631.193L232.558 626.802C227.064 627.59 221.5 627.768 215.967 627.331C210.969 627.057 209.744 635.23 214.771 636.151C221.477 637.328 228.351 637.131 234.979 635.573C236.941 635.01 238.3 633.224 238.32 631.183C238.538 620.663 237.975 610.142 236.635 599.705C236.302 597.324 233.43 596.363 231.431 596.765C223.395 598.323 212.635 597.441 209.283 606.977C207.862 610.995 208.391 615.503 208.754 619.648C209.244 625.057 210.026 630.435 211.096 635.759C211.949 640.081 218.123 638.131 217.554 633.986V633.956Z" fill="var(--color-illustration-secondary, #7F72FF)"/>
<path d="M270.68 754.31C269.537 747.792 268.882 741.198 268.72 734.583C268.651 731.721 268.72 728.703 270.249 726.253C272.052 723.391 275.501 722.009 278.843 721.47C282.185 720.931 285.605 721.039 288.898 720.284C290.335 730.343 290.739 740.523 290.103 750.664C284.252 751.9 278.231 752.115 272.307 751.301" fill="var(--color-illustration-base, #FFFFFF)"/>
<path d="M273.933 753.418C272.953 746.558 271.817 738.61 272.816 731.692C273.933 723.901 284.223 725.459 290.064 724.381L284.684 720.284C286.174 730.341 286.473 740.538 285.576 750.664L288.927 746.264C283.436 747.048 277.876 747.225 272.346 746.793C267.328 746.519 266.103 754.722 271.14 755.613C277.849 756.79 284.727 756.593 291.358 755.035C293.329 754.471 294.693 752.676 294.709 750.625C294.931 740.106 294.37 729.584 293.034 719.148C292.691 716.756 289.809 715.796 287.8 716.208C279.774 717.766 268.984 716.884 265.643 726.429C264.231 730.447 264.77 734.955 265.133 739.11C265.625 744.519 266.406 749.897 267.475 755.221C268.328 759.533 274.502 757.583 273.933 753.438V753.418Z" fill="var(--color-illustration-base, #FFFFFF)"/>
<path d="M363.319 820.078C362.177 813.563 361.522 806.972 361.359 800.36C361.291 797.489 361.359 794.48 362.888 792.02C364.691 789.169 368.141 787.787 371.483 787.248C374.825 786.709 378.245 786.817 381.538 786.052C382.975 796.111 383.378 806.291 382.743 816.432C376.89 817.657 370.871 817.873 364.946 817.069" fill="var(--color-illustration-base, #FFFFFF)"/>
<path d="M366.553 819.196C365.573 812.336 364.436 804.388 365.436 797.459C366.553 789.668 376.843 791.236 382.684 790.149L377.304 786.052C378.793 796.109 379.092 806.306 378.196 816.432L381.547 812.022C376.056 812.811 370.495 812.988 364.966 812.551C359.948 812.287 358.723 820.489 363.76 821.42C370.47 822.593 377.347 822.393 383.978 820.832C385.949 820.274 387.315 818.481 387.329 816.432C387.551 805.913 386.99 795.391 385.653 784.955C385.31 782.563 382.429 781.593 380.42 782.015C372.394 783.583 361.604 782.701 358.262 792.236C356.851 796.264 357.39 800.772 357.753 804.917C358.243 810.326 359.025 815.704 360.095 821.028C360.948 825.35 367.122 823.4 366.553 819.255V819.196Z" fill="var(--color-illustration-base, #FFFFFF)"/>
<path d="M382.135 664.493C381.378 660.137 380.942 655.732 380.832 651.312C380.832 649.401 380.832 647.392 381.861 645.746C383.066 643.786 385.369 642.913 387.604 642.551C389.838 642.188 392.122 642.267 394.317 641.757C395.278 648.47 395.551 655.264 395.13 662.033C391.218 662.857 387.194 663.003 383.233 662.464" fill="var(--color-illustration-base, #FFFFFF)"/>
<path d="M385.487 664.493C384.987 660.279 384.262 655.555 384.781 651.312C385.193 647.97 385.928 647 389.279 646.559C391.337 646.294 393.395 646.196 395.443 645.853L390.073 641.757C391.051 648.472 391.212 655.28 390.553 662.033L393.915 657.633C390.368 658.027 386.796 658.131 383.233 657.947C378.244 657.878 376.97 665.787 382.027 666.816C386.768 667.722 391.648 667.595 396.335 666.443C398.31 665.882 399.679 664.086 399.697 662.033C399.745 654.878 399.316 647.728 398.413 640.63C398.07 638.219 395.198 637.298 393.189 637.69C387.251 638.758 379.842 638.494 377.509 645.471C375.491 651.42 377.666 659.456 378.921 665.414C379.695 669.04 385.957 668.354 385.506 664.522L385.487 664.493Z" fill="var(--color-illustration-base, #FFFFFF)"/>
<path d="M515.68 814.159C514.917 809.804 514.482 805.398 514.376 800.978C514.327 799.018 514.376 797.058 515.356 795.411C516.552 793.451 518.865 792.579 521.089 792.216C523.314 791.854 525.607 791.932 527.812 791.423C528.77 798.136 529.039 804.93 528.616 811.699C524.707 812.523 520.686 812.668 516.728 812.13" fill="var(--color-illustration-base, #FFFFFF)"/>
<path d="M519.041 814.159C518.542 809.945 517.826 805.221 518.346 800.978C518.757 797.646 519.492 796.666 522.844 796.225C524.902 795.96 526.95 795.862 529.008 795.519L523.628 791.423C524.613 798.136 524.778 804.945 524.118 811.699L527.469 807.299C523.927 807.697 520.357 807.802 516.797 807.612C511.799 807.544 510.525 815.452 515.592 816.481C520.332 817.387 525.213 817.26 529.9 816.109C531.873 815.547 533.238 813.75 533.251 811.699C533.307 804.544 532.882 797.393 531.977 790.296C531.634 787.885 528.763 786.964 526.754 787.356C520.805 788.424 513.406 788.159 511.074 795.137C509.055 801.095 511.231 809.131 512.485 815.08C513.25 818.716 519.512 817.971 519.061 814.188L519.041 814.159Z" fill="var(--color-illustration-base, #FFFFFF)"/>
<path d="M634.466 820.078C633.328 813.562 632.673 806.972 632.506 800.36C632.437 797.489 632.506 794.48 634.035 792.02C635.838 789.169 639.297 787.787 642.629 787.248C645.961 786.709 649.391 786.817 652.684 786.052C654.121 796.111 654.525 806.291 653.89 816.432C648.037 817.657 642.018 817.873 636.093 817.069" fill="var(--color-illustration-secondary, #7F72FF)"/>
<path d="M637.699 819.196C636.719 812.336 635.592 804.398 636.582 797.459C637.68 789.619 647.989 791.217 653.83 790.139L648.47 786.052C649.959 796.109 650.258 806.306 649.361 816.432L652.703 812.042C647.209 812.83 641.645 813.008 636.112 812.571C631.114 812.297 629.889 820.47 634.916 821.391C641.623 822.559 648.496 822.359 655.124 820.803C657.086 820.24 658.445 818.454 658.466 816.413C658.691 805.89 658.134 795.365 656.8 784.925C656.466 782.544 653.595 781.583 651.596 781.985C643.56 783.543 632.799 782.661 629.438 792.197C628.027 796.215 628.556 800.723 628.919 804.868C629.409 810.277 630.191 815.655 631.261 820.979C632.113 825.301 638.287 823.351 637.719 819.206L637.699 819.196Z" fill="var(--color-illustration-secondary, #7F72FF)"/>
<path d="M743.197 669.746C742.054 663.228 741.399 656.634 741.237 650.018C741.168 647.147 741.237 644.138 742.766 641.679C744.569 638.827 748.018 637.445 751.35 636.906C754.682 636.367 758.122 636.475 761.415 635.71C762.847 645.77 763.251 655.949 762.62 666.09C756.769 667.326 750.748 667.541 744.824 666.727" fill="var(--color-illustration-secondary, #7F72FF)"/>
<path d="M746.43 668.854C745.45 661.994 744.323 654.056 745.303 647.118C746.411 639.278 756.711 640.875 762.551 639.797L757.201 635.71C758.686 645.767 758.982 655.964 758.083 666.09L761.424 661.7C755.934 662.488 750.373 662.666 744.843 662.229C739.845 661.965 738.62 670.138 743.647 671.049C750.351 672.217 757.221 672.017 763.845 670.461C765.809 669.901 767.17 668.113 767.187 666.071C767.408 655.555 766.848 645.036 765.511 634.603C765.178 632.222 762.306 631.251 760.307 631.663C752.271 633.231 741.501 632.339 738.149 641.875C736.738 645.893 737.267 650.401 737.63 654.556C738.118 659.964 738.897 665.342 739.962 670.667C740.825 674.979 746.999 673.029 746.43 668.883V668.854Z" fill="var(--color-illustration-secondary, #7F72FF)"/>
<path d="M781.456 769.745C780.318 763.226 779.663 756.633 779.496 750.018C779.437 747.156 779.496 744.138 781.035 741.688C782.838 738.826 786.287 737.444 789.619 736.905C792.951 736.366 796.381 736.474 799.674 735.719C801.114 745.778 801.522 755.958 800.889 766.099C795.035 767.334 789.011 767.55 783.083 766.736" fill="var(--color-illustration-secondary, #7F72FF)"/>
<path d="M784.68 768.853C783.7 761.993 782.583 754.055 783.563 747.127C784.66 739.287 794.97 740.884 800.811 739.796L795.45 735.719C796.94 745.776 797.239 755.973 796.342 766.099L799.684 761.66C794.19 762.449 788.625 762.626 783.092 762.189C778.104 761.925 776.879 770.098 781.897 771.009C788.603 772.182 795.478 771.982 802.104 770.421C804.072 769.866 805.435 768.076 805.446 766.031C805.676 755.525 805.125 745.017 803.8 734.592C803.457 732.211 800.595 731.251 798.586 731.652C790.56 733.22 779.79 732.338 776.438 741.864C775.017 745.892 775.546 750.39 775.919 754.545C776.402 759.954 777.181 765.333 778.251 770.656C779.104 774.968 785.278 773.028 784.709 768.873L784.68 768.853Z" fill="var(--color-illustration-secondary, #7F72FF)"/>
<path d="M721.725 856.328C720.582 849.81 719.927 843.216 719.765 836.601C719.696 833.729 719.765 830.721 721.303 828.261C723.097 825.409 726.556 824.027 729.888 823.488C733.22 822.949 736.65 823.057 739.943 822.293C741.384 832.351 741.788 842.531 741.148 852.673C735.297 853.908 729.276 854.123 723.351 853.31" fill="var(--color-illustration-secondary, #7F72FF)"/>
<path d="M724.949 855.436C723.969 848.576 722.852 840.638 723.832 833.7C724.93 825.86 735.239 827.457 741.08 826.379L735.72 822.293C737.208 832.349 737.508 842.546 736.611 852.673L739.953 848.282C734.459 849.071 728.895 849.248 723.362 848.811C718.364 848.547 717.139 856.72 722.166 857.631C728.873 858.799 735.746 858.599 742.374 857.043C744.336 856.48 745.695 854.694 745.716 852.653C745.931 842.133 745.364 831.611 744.02 821.175C743.687 818.794 740.816 817.824 738.816 818.235C730.78 819.794 720.02 818.912 716.668 828.447C715.247 832.465 715.777 836.973 716.139 841.128C716.651 846.531 717.452 851.903 718.54 857.22C719.393 861.532 725.567 859.582 724.998 855.436H724.949Z" fill="var(--color-illustration-secondary, #7F72FF)"/>
<path d="M952.681 236.733C959.728 244.279 965.519 254.059 963.04 264.731C961.08 273.061 954.681 279.5 947.458 283.636C938.638 288.683 929.103 289.966 919.107 289.849C906.817 289.712 894.538 289.427 882.259 289.124C869.979 288.82 857.602 288.487 845.273 288.193C834.405 287.948 822.684 286.517 811.895 288.006C803.594 289.153 790.599 294.974 785.131 285.39C780.486 277.266 787.316 266.309 794.088 261.703C797.214 259.577 801.203 258.361 801.781 254.059C802.467 248.973 798.42 244.2 798.459 238.948C798.537 225.228 810.787 218.25 823.263 219.279C824.586 219.274 825.658 218.202 825.664 216.878C824.899 199.238 827.202 176.767 840.256 163.556C847.606 156.118 859.611 153.041 869.274 157.745C880.318 163.125 886.835 176.639 881.945 188.252C881.2 190.036 883.346 191.78 884.983 191.29C894.871 188.35 907.523 188.007 915.236 196.004C921.498 202.472 922.301 213.958 914.991 219.877C913.295 221.249 914.726 224.15 916.745 224.101C929.896 223.767 942.783 227.785 952.27 237.144C954.436 239.281 957.758 235.968 955.602 233.812C945.302 223.493 931.161 218.848 916.745 219.112L918.499 223.336C927.368 216.221 926.819 202.531 920.145 194.083C911.59 183.303 895.832 182.872 883.67 186.488L886.708 189.526C895.136 169.475 875.555 148.366 855.26 150.904C836.64 153.266 827.085 170.867 823.302 187.566C821.174 197.169 820.353 207.016 820.862 216.839L823.263 214.448C813.022 213.664 802.291 217.388 797.057 226.707C794.736 230.865 793.638 235.594 793.892 240.349C794.004 242.472 794.396 244.571 795.058 246.592C795.45 247.777 796.656 249.943 796.822 250.962C797.528 255.529 794.862 255.755 792.255 257.401C785.141 261.919 779.417 270.464 779.153 279.039C778.964 283.173 780.441 287.21 783.251 290.247C786.061 293.284 789.972 295.068 794.108 295.2C799.233 295.484 804.3 294.004 809.258 292.995C815.981 291.623 822.871 292.113 829.701 292.181C844.627 292.338 859.552 292.691 874.477 293.024C889.403 293.357 904.23 293.69 919.107 293.818C929.583 293.906 939.579 292.475 948.859 287.301C957.327 282.577 964.765 274.865 966.793 265.123C969.263 253.275 963.079 242.525 955.19 234.185C953.612 232.558 951.123 235.067 952.681 236.733Z" fill="var(--color-illustration-primary, #382C80)"/>
<path d="M207.666 393.67C189.046 395.904 170.426 397.345 151.806 398.188C133.186 399.031 113.155 400.677 94.6816 396.522C81.6574 393.582 63.0276 383.253 66.536 367.122C68.1824 359.546 74.9738 353.764 82.3336 351.981C91.4378 349.737 101.14 353.245 108.294 358.88C109.091 359.624 110.281 359.757 111.222 359.208C112.164 358.66 112.635 357.558 112.38 356.499C110.705 344.298 110.019 329.97 119.515 320.601C123.366 316.809 128.697 314.417 134.136 315.544C139.575 316.671 144.475 320.954 144.858 326.736C144.858 328.111 145.972 329.225 147.347 329.225C148.722 329.225 149.836 328.111 149.836 326.736C151.845 307.93 170.896 294.396 189.036 301.697C206.892 308.92 211.262 333.772 195.161 345.474C192.593 347.345 194.906 351.589 197.709 349.825C208.234 343.22 223.395 345.258 231.029 355.44C238.663 365.622 236.301 380.665 227.109 389.084C224.816 391.191 228.187 394.474 230.5 392.474C241.799 382.723 244.063 364.378 234.988 352.353C225.913 340.329 207.774 337.526 195.132 345.493L197.68 349.844C216.447 336.193 213.183 307.214 192.201 297.669C170.406 287.752 147.229 303.951 144.828 326.756H149.807C148.827 312.604 132.167 306.558 120.848 313.359C105.432 322.62 105.501 342.161 107.657 357.812L111.253 355.058C100.473 347.061 85.6264 343.122 73.4646 350.57C63.4 356.744 58.5196 368.866 63.4784 379.97C68.5352 391.249 81.0008 398.011 92.5354 400.697C109.578 404.666 127.668 403.392 145.005 402.598C165.957 401.618 186.87 399.599 207.666 396.914C209.675 396.649 209.714 393.474 207.666 393.719V393.67Z" fill="var(--color-illustration-primary, #382C80)"/>
<path d="M290.643 148.601C282.117 152.521 271.356 144.191 274.041 134.881C275.494 130.264 279.18 126.692 283.841 125.385C289.006 123.974 296.052 126.904 295.817 132.98C295.719 135.577 299.962 136.244 300.433 133.607C302.902 120.005 319.886 124.082 326.795 131.569C330.009 135.068 332.42 140.046 331.42 144.897C330.323 150.218 325.776 154.491 320.268 154.432C317.132 154.432 317.161 159.136 320.268 159.274C327.373 159.587 333.322 154.834 335.644 148.229C338.075 141.369 335.458 133.882 330.744 128.629C325.56 122.808 317.367 118.829 309.488 119.75C302.37 120.41 296.666 125.927 295.768 133.019H300.472C300.354 126.159 294.533 121.259 287.918 120.779C280.519 120.211 273.385 125.297 270.67 132.049C265.437 145.122 280.029 157.529 292.309 151.532C294.269 150.552 292.554 147.768 290.623 148.65L290.643 148.601Z" fill="var(--color-illustration-primary, #382C80)"/>
<path d="M612.621 482.723L609.564 478.803V481.419C617.404 473.373 630.947 481.341 625.832 491.974C625.156 493.375 625.94 495.531 627.792 495.374C635.965 494.728 650.4 495.521 649.744 507.066C648.989 520.266 633.211 521.766 623.225 520.423C620.422 520.041 619.099 524.226 622.029 524.794C634.887 527.293 652.311 523.99 654.271 508.33C656.163 493.218 639.189 489.886 627.811 490.847L629.771 494.257C632.525 488.073 631.241 480.429 625.479 476.353C619.573 472.386 611.638 473.436 606.967 478.803C606.299 479.547 606.299 480.675 606.967 481.419L610.23 485.133C611.7 486.819 613.954 484.398 612.641 482.713L612.621 482.723Z" fill="var(--color-illustration-primary, #382C80)"/>
</svg>
