<svg width="1000" height="1000" viewBox="0 0 1000 1000" fill="none" xmlns="http://www.w3.org/2000/svg">
<path d="M741.541 869.636C748.401 869.852 752.86 876.82 755.623 883.111C759.785 892.569 762.996 902.418 765.208 912.511C766.188 916.735 766.884 921.155 765.776 925.33C764.737 928.638 762.991 931.681 760.661 934.248C742.766 955.808 712.641 962.119 684.711 964.275C651.003 966.87 617.106 965.336 583.771 959.708C573.579 957.983 563.338 955.847 553.988 951.437C545.364 947.37 536.985 940.236 536.26 930.739C536.155 927.803 536.486 924.867 537.24 922.027C539.686 911.028 543.707 900.44 549.177 890.589" fill="var(--color-illustration-primary, #382C80)"/>
<path d="M741.54 873.057C746.352 873.645 749.38 879.338 751.213 883.268C753.727 888.84 755.84 894.584 757.534 900.457C759.239 906.122 761.052 912.11 761.65 918.019C762.267 924.173 759.259 928.662 755.27 932.993C742.403 946.958 723.842 953.368 705.614 956.68C683.162 960.757 659.691 960.953 637.014 960.012C613.719 959.032 589.131 957.297 566.669 950.653C557.183 947.84 542.836 942.264 541.483 930.739C540.758 924.536 543.629 917.235 545.58 911.433C547.786 905.149 550.405 899.017 553.42 893.078C556.183 887.433 548.226 882.621 544.913 888.109C538.053 899.419 532.173 913.932 531.193 927.231C530.321 938.913 538.053 948.203 547.598 953.887C558.663 960.463 571.804 962.972 584.339 965.039C598.618 967.416 613.01 969.051 627.459 969.939C654.222 971.537 681.858 971.184 708.309 966.343C730.172 962.335 753.565 953.319 766.746 934.385C775.341 922.027 768.5 904.789 763.806 892.147C759.827 881.367 754.908 867.206 741.58 866.226C737.121 865.893 737.317 872.537 741.58 873.086L741.54 873.057Z" fill="var(--color-illustration-primary, #382C80)"/>
<path d="M63.2435 97.71C44.8587 239.026 43.3691 379.205 59.4215 520.796C63.3415 555.752 69.1627 593.08 93.1237 618.796C125.229 653.223 178.119 655.203 225.14 654.801L830.828 649.558C854.143 649.352 878.447 648.921 899.174 638.209C924.791 624.97 940.824 597.637 947.194 569.472C953.564 541.307 951.721 511.995 949.624 483.183C941.843 375.932 939.089 249.061 929.593 135.028C926.106 92.2941 892.393 58.2578 849.694 54.3646C640.385 35.48 75.1309 6.325 63.2435 97.71Z" fill="var(--color-illustration-base, #FFFFFF)"/>
<path d="M59.8428 96.779C42.3985 223.805 39.3412 352.394 50.7288 480.106C53.2278 508.016 55.3054 536.525 61.6166 563.896C67.2516 588.396 77.669 612.367 97.1024 629.027C135.087 661.582 189.859 659.828 236.86 659.466C365.822 658.46 494.777 657.431 623.725 656.379L817.157 654.752C844.94 654.517 874.585 655.908 900.232 643.364C922.38 632.584 937.697 611.691 946.547 589.17C957.141 562.201 957.68 532.448 956.18 503.91C954.642 474.834 952.26 445.806 950.673 416.69C947.409 356.959 945.018 297.179 941.735 237.458C940.108 207.98 938.276 178.511 935.992 149.072C935.012 136.645 934.316 124.288 930.279 112.39C926.726 101.987 921.402 92.2756 914.54 83.6862C900.973 66.7319 881.907 55.053 860.64 50.67C846.548 47.8378 831.671 47.4948 817.353 46.3286C750.517 40.8994 683.59 36.7769 616.571 33.961C538.759 30.58 460.869 28.62 383.017 29.4236C314.966 30.1292 246.464 32.3146 178.991 41.801C155.04 45.1624 130.883 49.396 107.863 57.04C93.0256 61.94 76.297 68.3982 65.9678 80.756C62.0662 85.18 59.4915 90.6147 58.5394 96.436C57.6966 102.571 67.0948 105.256 67.9376 99.0232C68.1296 97.7745 68.4179 96.5426 68.8 95.3384C68.9738 94.2713 69.4042 93.2623 70.0544 92.3984C70.6552 91.3338 71.3093 90.3002 72.0144 89.3016C72.72 88.3216 71.6126 89.6838 72.7102 88.4196C73.259 87.7826 73.8078 87.1554 74.386 86.5576C75.366 85.5776 76.346 84.5976 77.4142 83.7156C78.4935 82.7411 79.6504 81.8561 80.8736 81.0696C83.8693 79.0069 86.9919 77.1346 90.2228 75.464C107.147 66.644 127.512 61.695 146.877 57.775C206.755 45.6524 268.72 42.8006 329.656 40.968C405.41 38.6944 481.262 39.7136 557.016 42.193C627.23 44.4993 697.405 48.1416 767.54 53.12C794.735 55.031 821.93 57.04 849.066 59.5782C870.118 61.5175 889.656 71.3481 903.76 87.0966C911.048 95.2795 916.628 104.835 920.175 115.203C924.095 126.787 924.732 138.723 925.673 150.875C930.22 209.254 933.013 267.74 935.816 326.226C938.527 382.975 941.735 439.681 945.439 496.345C947.311 525.539 947.889 555.791 937.707 583.672C929.593 605.909 914.187 626.459 891.99 635.965C865.873 647.127 835.15 644.403 807.387 644.648L711.641 645.501C585.946 646.611 460.251 647.764 334.556 648.96L239.79 649.862C214.614 650.097 189.154 650.842 164.183 646.971C141.585 643.492 118.78 636.22 101.532 620.54C82.4416 603.194 73.6412 578.518 68.8 553.782C63.312 525.764 61.205 496.942 58.8432 468.522C56.2756 437.665 54.5312 406.743 53.61 375.756C51.7966 313.331 53.2162 250.854 57.8632 188.576C60.1106 158.222 63.0833 127.936 66.7812 97.7198C67.2418 93.8096 60.3818 92.8394 59.8428 96.779Z" fill="var(--color-illustration-primary, #382C80)"/>
<path d="M362.624 208.675C362.624 208.675 323.081 331.273 379.284 536.28C383.809 553.126 395.183 567.307 410.644 575.382C475.255 608.702 431.636 444.258 463.956 444.258C480.841 444.258 474.501 528.645 517.395 514.582C560.29 500.519 525.774 380.264 549 376.745C572.226 373.227 555.4 459.732 586.975 459.732C635.505 459.732 599.715 385.595 627.763 380.969C652.577 376.883 612.299 530.057 675.587 514.582C709.622 506.262 667.855 357.057 685.436 354.95C703.017 352.843 688.641 459.31 710.044 444.258C755.055 412.613 705.144 196.719 705.144 196.719L362.624 208.675Z" fill="var(--color-illustration-secondary, #7F72FF)" stroke="var(--color-illustration-secondary, #7F72FF)" stroke-width="1.54"/>
<path d="M638.248 261.782C655.242 258.381 672.921 258.606 690.188 258.842C698.822 258.959 707.456 259.194 716.09 259.292C723.832 259.381 733.994 257.715 740.825 262.076C748.596 267.044 749.959 280.196 751.821 288.389C754.419 299.804 756.298 311.371 757.446 323.022C757.975 328.284 758.347 333.557 758.592 338.839C758.818 343.906 759.739 350.207 757.328 354.921C753.771 361.859 743.902 362.761 737.052 363.241C714.434 364.878 691.766 366.054 669.138 367.484C653.282 368.464 637.043 369.983 622.225 376.108C608.309 381.861 596.363 392.131 592.904 407.351C590.473 418.131 592.041 429.303 592.904 440.132L595.579 475.196C599.607 528.116 603.331 581.036 607.908 633.956C608.447 640.179 618.139 640.307 617.708 633.956C614.493 585.26 610.534 536.554 606.82 487.858L604.017 450.843C603.135 439.26 601.244 427.225 602.106 415.563C603.39 398.227 616.541 388.329 632.094 383.498C650.146 377.892 669.432 377.804 688.13 376.638C700.184 375.886 712.242 375.125 724.302 374.354C733.426 373.756 743.255 373.894 752.017 370.905C759.857 368.21 766.256 362.751 768.079 354.343C770.362 343.876 768.157 331.636 766.922 321.14C765.573 309.605 763.584 298.154 760.964 286.84C758.877 277.805 757.132 267.191 751.36 259.635C744.931 251.237 734.582 250.237 724.733 250.276C715.218 250.276 705.712 250.051 696.196 249.943C676.312 249.698 655.438 248.963 635.975 253.667C630.663 254.951 632.937 262.86 638.219 261.801L638.248 261.782Z" fill="var(--color-illustration-primary, #382C80)"/>
<path d="M77.5121 146.543C186.018 141.572 294.582 138.403 403.205 137.037C511.188 135.626 619.181 135.969 727.184 138.066C788.336 139.282 849.468 141.095 910.581 143.505C916.373 143.731 916.373 134.685 910.581 134.499C802.016 130.383 693.393 128.162 584.711 127.835C476.715 127.417 368.735 128.838 260.772 132.098C199.672 133.954 138.586 136.384 77.5121 139.389C72.9257 139.615 72.8865 146.759 77.5121 146.543Z" fill="var(--color-illustration-primary, #382C80)"/>
<path d="M476.999 753.065C451.059 687.601 443.229 583.202 530.272 564.21C576.783 554.057 628.086 567.659 672.235 583.055C685.671 587.739 698.93 593.325 710.612 601.45C727.85 613.425 741.06 630.546 750.694 649.195C766.972 680.722 772.891 716.737 770.362 751.968C769.059 770.098 764.198 786.787 760.494 804.417C757.554 818.324 749.586 835.777 751.576 849.654C753.565 863.531 765.786 874.154 759.573 888.198C753.849 901.153 737.856 908.925 725.273 913.05C694.667 923.125 667.257 919.371 636.093 920.322C606.81 921.214 578.527 918.137 551.489 905.054C545.864 902.339 540.288 899.056 536.525 894.068C528.861 883.915 535.447 866.99 534.927 855.015C534.349 841.736 530.596 829.897 520.835 820.45C501.088 801.281 487.26 778.663 476.999 753.065Z" fill="var(--color-illustration-base, #FFFFFF)"/>
<path d="M480.204 752.183C470.585 727.887 465.042 702.169 463.799 676.067C462.76 651.351 465.965 624.97 479.401 603.645C495.081 578.782 522.668 568.365 550.941 566.317C592.875 563.2 634.956 575.333 673.97 589.523C693.198 596.51 710.798 606.124 724.773 621.295C737.954 635.583 747.725 653.164 754.281 671.402C761.288 691.146 764.993 711.909 765.247 732.858C765.61 754.761 761.17 775.331 756.427 796.558C754.35 805.829 751.713 814.815 749.165 823.998C746.725 832.818 744.657 842.069 746.108 851.203C747.46 859.68 752.419 866.755 754.781 874.889C757.241 883.347 752.919 890.412 746.568 895.802C732.741 907.562 712.2 911.963 694.628 913.619C674.048 915.579 653.243 914.334 632.634 914.726C612.024 915.118 591.552 913.335 571.874 907.072C562.573 904.132 551.823 900.477 544.316 893.999C537.456 888.119 538.201 879.897 539.2 871.636C540.249 862.894 541.16 854.809 539.779 846.028C538.544 837.355 535.154 829.131 529.92 822.106C524.285 814.717 517.033 808.622 511.143 801.389C505.09 793.824 499.61 785.818 494.748 777.438C489.886 769.171 485.593 760.583 481.9 751.733C479.391 745.764 469.522 748.205 471.953 754.477C479.342 773.557 488.721 791.589 501.461 807.671C504.479 811.483 507.664 815.178 510.996 818.716C514.593 822.547 518.709 825.968 521.698 830.309C526.901 837.855 529.155 847.224 529.204 856.308C529.253 865.393 526.519 874.066 527.127 883.053C527.783 892.774 532.487 899.889 540.416 905.416C549.03 911.414 559.702 915.295 569.649 918.401C580.026 921.552 590.677 923.717 601.46 924.869C623.451 927.378 645.883 925.967 667.972 926.006C689.474 926.006 711.318 924.644 731.594 916.853C746.99 910.973 765.972 899.811 766.874 881.24C767.325 872.224 762.386 864.58 759.24 856.475C755.594 847.087 757.005 838.061 759.553 828.574C765.247 807.436 771.313 786.307 774.479 764.59C777.562 742.659 777.079 720.374 773.048 698.597C765.737 658.015 744.893 616.277 709.054 593.864C690.718 582.389 669.295 575.872 648.706 569.727C627.41 563.367 605.586 558.408 583.447 556.438C549.461 553.4 510.633 557.33 484.771 581.918C444.454 620.305 451.716 687.239 467.014 735.259C469.019 741.57 471.244 747.803 473.687 753.957C475.344 757.887 481.782 756.182 480.204 752.183Z" fill="var(--color-illustration-primary, #382C80)"/>
<path d="M570.649 797.636L563.642 526.235L597.442 513.632L623.48 514.867C623.48 514.867 639.935 511.554 646.432 515.984C658.016 523.902 672.588 730.3 672.588 730.3C680.144 767.736 674.117 842.147 636.201 846.744C636.22 846.783 580.997 860.336 570.649 797.636Z" fill="var(--color-illustration-primary, #382C80)"/>
<path d="M575.186 797.636L572.814 705.8L569.032 559.564L568.179 526.244L564.847 530.625L586.24 522.638C589.915 521.266 594.08 520.227 597.579 518.404C599.235 517.542 597.579 518.169 597.873 518.189C599.333 518.267 600.813 518.326 602.273 518.395C609.741 518.747 618.032 520.257 625.44 519.1C630.34 518.326 635.77 517.611 640.719 518.63C641.61 518.806 643.325 519.923 644.1 519.904C643.668 519.904 643.218 518.973 643.737 519.718C642.757 518.385 643.845 520.031 644.09 520.57C644.531 521.55 643.766 519.718 644.198 520.815C644.354 521.227 644.501 521.638 644.648 522.06C645.001 523.108 645.315 524.177 645.628 525.245C646.363 527.901 646.961 530.605 647.52 533.32C649.049 540.758 650.215 548.265 651.293 555.782C654.233 576.009 656.369 596.344 658.408 616.669C661.955 652.047 664.915 687.484 667.541 722.94C668.521 735.817 670.873 748.42 670.922 761.376C671.073 774.244 669.791 787.089 667.1 799.674C664.64 810.729 660.965 822.302 653.802 831.299C648.725 837.688 642.561 841.099 634.603 842.51C630.729 843.253 626.787 843.582 622.843 843.49C604.527 843.186 589.073 833.69 581.135 817.03C578.188 810.478 576.15 803.554 575.078 796.45C574.098 790.707 565.347 793.147 566.327 798.871C570.394 822.391 583.31 844.088 607.565 850.517C618.926 853.486 630.873 853.378 642.179 850.203C665.307 843.343 673.911 815.237 677.459 794.147C679.676 780.718 680.484 767.094 679.87 753.497C679.527 745.529 677.91 736.366 677.155 729.487C675.95 718.481 675.509 707.339 674.627 696.304C672.961 675.397 671.151 654.49 669.197 633.584C667.081 611.21 664.797 588.837 661.906 566.552C659.946 551.46 658.437 535.662 653.939 521.06C652.371 515.984 650.568 512.24 645.187 510.408C639.121 508.379 632.193 509.036 625.97 509.908C625.088 510.025 624.206 510.153 623.324 510.31C622.177 510.515 622.451 510.31 623.49 510.31L619.472 510.114L603.577 509.359C601.048 509.241 598.314 508.761 595.844 509.418C587.093 511.75 578.469 515.896 569.982 519.061L562.534 521.844C560.592 522.423 559.246 524.189 559.202 526.215L561.574 618.1L565.347 764.345L566.209 797.665C566.258 803.467 575.333 803.486 575.186 797.636Z" fill="var(--color-illustration-primary, #382C80)"/>
<path d="M709.485 313.8C694.854 330.46 388.124 347.777 366.72 326.148C345.317 304.519 354.402 232.46 362.506 208.94C370.611 185.42 695.383 170.965 705.261 196.592C715.14 222.219 724.117 297.14 709.485 313.8Z" fill="var(--color-illustration-secondary, #7F72FF)"/>
<path d="M706.281 310.595C705.536 311.409 706.055 310.821 706.202 310.733C705.758 311.025 705.297 311.291 704.82 311.526C703.586 312.124 704.321 311.791 703.978 311.918C703.243 312.203 702.508 312.467 701.763 312.712C697.874 313.921 693.918 314.902 689.915 315.652C677.586 318.171 665.062 319.798 652.567 321.248C616.307 325.472 579.733 327.922 543.228 329.637C506.067 331.381 468.748 332.391 431.587 331.254C417.907 331.023 404.249 330.104 390.662 328.5C386.26 327.957 381.894 327.152 377.589 326.089C375.896 325.663 374.23 325.136 372.6 324.511C371.522 324.09 373.13 324.786 372.424 324.443C372.13 324.296 371.836 324.168 371.552 324.012C371.007 323.716 370.481 323.389 369.974 323.032C371.199 323.894 369.288 322.267 368.847 321.758C367.566 320.207 366.452 318.525 365.525 316.74C363.419 312.607 361.867 308.215 360.909 303.677C358.381 292.897 357.891 281.734 358.047 270.719C358.332 250.747 360.478 229.824 366.671 210.733C366.936 209.92 365.917 211.047 366.956 210.204C365.721 211.184 366.956 210.204 367.367 209.94C367.779 209.675 366.75 210.263 367.877 209.616C368.524 209.244 369.161 208.881 369.837 208.538C371.025 207.886 372.28 207.364 373.58 206.98C375.54 206.284 377.549 205.686 379.549 205.128C390.907 201.982 402.637 200.13 414.29 198.464C448.541 193.564 483.203 191.173 517.738 189.477C554.508 187.664 591.395 186.831 628.194 187.958C642.61 188.399 657.045 189.115 671.383 190.741C680.134 191.721 689.591 192.79 697.902 196.21C696.765 195.739 698.627 196.553 698.999 196.759C699.568 197.072 700.126 197.396 700.655 197.739C700.655 197.739 701.194 198.356 701.224 198.415C700.518 196.984 701.224 198.415 701.439 199.071C701.733 199.934 702.047 200.786 702.321 201.649C702.998 203.726 703.605 205.824 704.164 207.94C705.457 212.762 706.526 217.652 707.466 222.562C711.68 244.583 714.17 267.828 712.082 290.182C711.475 296.63 710.7 305.294 706.33 310.488C702.596 314.927 708.976 321.375 712.749 316.897C718.06 310.586 719.697 302.197 720.716 294.171C722.147 282.959 721.98 271.552 721.275 260.282C719.952 239.036 717.59 215.967 709.946 195.916C707.27 188.919 699.528 186.704 692.835 185.077C681.193 182.245 669.05 181.157 657.124 180.285C621.462 177.609 585.525 177.972 549.804 179.06C511.584 180.216 473.237 182.451 435.144 186.694C420.503 188.331 405.852 190.222 391.387 193.035C382.44 194.779 372.718 196.563 364.604 200.943C361.938 202.19 359.766 204.29 358.43 206.911C354.951 214.477 353.824 223.885 352.55 232.019C348.796 255.147 346.973 279.706 351.57 302.853C353.98 315.476 358.88 329.48 371.905 333.861C381.93 337.212 393.014 338.016 403.47 338.878C438.75 341.818 474.383 341.103 509.722 340.044C549.49 338.849 589.269 336.585 628.88 332.841C644.727 331.342 660.573 329.607 676.322 327.226C686.014 325.756 696.147 324.394 705.408 321.042C707.937 320.121 710.828 319.082 712.7 317.005C716.629 312.712 710.23 306.274 706.281 310.595Z" fill="var(--color-illustration-secondary, #7F72FF)"/>
<path d="M97.3674 223.64C90.7328 232.872 88.8218 245.739 87.1264 256.686C84.6865 272.592 83.5589 288.673 83.7552 304.764C83.912 318.102 84.4706 332.283 88.567 345.091C91.0758 352.931 94.7802 358.057 102.601 360.771C111.656 363.937 121.632 364.897 131.109 365.877C144.829 367.298 158.647 367.965 172.445 368.376C201.845 369.248 231.304 368.954 260.645 367.494C271.072 366.975 281.539 366.377 291.897 365.083C299.463 364.103 305.784 363.123 310.39 356.391C316.564 347.365 318.23 335.213 319.602 324.639C321.396 309.588 322.003 294.42 321.415 279.275C321.13 265.509 319.82 251.784 317.495 238.213C316.192 230.99 315.045 222.729 308.528 218.368C302.178 214.124 293.916 212.429 286.547 210.998C274.655 208.813 262.64 207.36 250.571 206.647C221.963 204.672 193.253 204.672 164.644 206.647C152.235 207.396 139.871 208.769 127.6 210.763C119.3 212.174 110.274 213.703 102.767 217.75C101.487 218.447 100.285 219.278 99.1804 220.23C98.1465 221.061 97.2531 222.054 96.5344 223.17C93.3592 227.638 100.729 231.901 103.875 227.462C103.13 228.511 104.041 227.354 104.316 227.109C104.59 226.864 104.012 227.256 104.982 226.639C106.157 225.918 107.382 225.283 108.647 224.738C111.855 223.46 115.15 222.412 118.506 221.602C128.376 219.274 138.396 217.637 148.494 216.702C175.287 213.976 202.231 213.047 229.148 213.918C251.09 214.516 274.453 215.173 295.621 221.641C298.501 222.417 301.266 223.571 303.844 225.071C305.804 226.257 306.088 226.609 306.784 228.54C310.223 238.232 311.223 248.963 312.134 259.136C313.418 273.412 313.811 287.754 313.31 302.079C312.869 314.819 311.929 327.853 308.557 340.211C307.401 344.464 306 349.031 303.324 352.598C301.492 355.048 300.247 355.607 297.444 356.205C290.153 357.743 282.48 358.165 274.904 358.664C248.327 360.556 221.602 361.046 194.956 360.86C169.642 360.683 143.761 360.468 118.712 356.42C114.601 355.819 110.535 354.944 106.54 353.804C105.443 353.47 103.512 352.824 103.042 352.588C102.571 352.353 102.062 352.108 101.542 351.844C101.205 351.651 100.878 351.442 100.562 351.216C94.2902 345.542 93.5454 332.763 92.7222 324.982C91.3041 309.915 91.1697 294.756 92.3204 279.667C93.2122 266.123 94.7998 252.423 98.3376 239.281C99.4744 235.077 100.758 230.735 103.012 226.982C105.266 223.228 99.7782 220.308 97.3674 223.64Z" fill="var(--color-illustration-primary, #382C80)"/>
<path d="M104.628 419.415C133.048 418.993 161.419 419.415 189.82 418.797C218.22 418.18 246.66 418.356 275.011 416.602C280.813 416.249 280.891 407.566 275.011 407.498C246.65 407.184 218.171 408.801 189.82 409.605C161.468 410.408 133.029 412.27 104.628 413.29C100.708 413.427 100.708 419.473 104.628 419.415Z" fill="var(--color-illustration-primary, #382C80)"/>
<path d="M108.98 463.181C130.071 464.929 151.247 465.413 172.396 464.632C193.583 463.907 214.643 461.692 235.792 460.281C241.564 459.908 241.672 451.235 235.792 451.216C225.178 451.157 214.614 452.519 204.05 453.401C193.485 454.283 182.96 454.94 172.396 455.361C151.286 456.263 130.109 456.341 108.98 456.106C104.384 456.047 104.521 462.78 108.98 463.152V463.181Z" fill="var(--color-illustration-primary, #382C80)"/>
<path d="M110.45 505.018C132.755 504.185 155.148 504.194 177.453 504.969C183.333 505.174 183.284 496.1 177.453 495.894C155.102 495.132 132.725 495.754 110.45 497.756C105.874 498.158 105.717 505.194 110.45 505.018Z" fill="var(--color-illustration-primary, #382C80)"/>
<path d="M808.817 238.634L811.552 264.565C811.993 268.73 812.414 272.895 812.875 277.05C813.227 280.206 813.129 284.175 815.54 286.615C817.5 288.575 820.293 288.741 822.89 288.683C827.33 288.594 831.769 288.389 836.198 288.232C844.757 287.938 853.313 287.667 861.865 287.418L874.213 287.056C877.427 286.958 881.239 287.35 884.101 285.586C890.216 281.813 887.149 271.866 886.649 266.094L884.385 240.3C883.836 234.097 882.778 228.138 875.663 226.903C866.647 225.335 856.583 226.159 847.469 226.443C837.914 226.737 828.065 227.05 818.696 229.089C813.668 230.177 814.776 238.085 819.901 237.997C836.444 237.723 852.79 235.684 869.401 236.135H874.193C874.928 236.841 874.644 240.378 874.722 241.27L875.702 252.746L876.878 266.133L877.388 271.876C877.447 272.552 878.064 278.187 878.368 277.413C879.485 277.06 879.025 277.021 876.976 277.295L873.174 277.462L867.47 277.726L855.122 278.285C846.877 278.657 838.639 279.003 830.407 279.324C828.339 279.412 825.791 279.931 823.753 279.598C821.489 279.226 822.008 280.137 821.851 277.089C821.646 272.954 820.773 268.71 820.234 264.604L816.853 238.673C816.187 233.607 808.18 233.43 808.729 238.673L808.817 238.634Z" fill="var(--color-illustration-primary, #382C80)"/>
<path d="M822.881 338.702C842.755 337.477 862.698 337.369 882.563 336.203C888.355 335.86 888.443 327.265 882.563 327.128C862.365 326.638 841.922 329.088 821.97 331.95C818.148 332.498 819.03 338.937 822.881 338.702Z" fill="var(--color-illustration-primary, #382C80)"/>
<path d="M834.445 377.265C851.879 376.775 869.627 376.785 886.963 374.785C892.608 374.129 892.96 365.662 886.963 365.711C869.489 365.848 851.84 368.053 834.445 369.709C829.701 370.16 829.545 377.402 834.445 377.265Z" fill="var(--color-illustration-primary, #382C80)"/>
<path d="M862.169 411.663C870.35 412.558 878.621 412.137 886.669 410.418C892.167 409.203 889.737 401.265 884.376 402.118C877.052 403.353 869.62 403.832 862.199 403.548C856.916 403.294 857.093 411.163 862.199 411.663H862.169Z" fill="var(--color-illustration-primary, #382C80)"/>
<path d="M468.581 441.68C450.745 440.122 445.649 459.8 444.012 473.54C441.729 492.689 442.895 511.407 443.571 530.596C444.091 545.188 441.807 565.327 425.539 571.011C410.202 576.362 398.727 559.427 390.71 549.245C387.398 545.031 380.675 550.45 383.37 554.919C389.515 565.111 397.639 575.499 408.928 580.184C419.885 584.741 431.674 581.801 440.141 573.745C449.706 564.651 453.215 551.617 453.607 538.788C454.087 523.314 451.764 507.899 452.284 492.395C452.587 483.507 452.95 474.304 454.763 465.573C456.243 458.428 460.192 449.814 468.581 449.295C470.609 449.192 472.2 447.518 472.2 445.487C472.2 443.457 470.609 441.783 468.581 441.68Z" fill="var(--color-illustration-primary, #382C80)"/>
<path d="M549.48 375.04C527.342 389.407 533.869 423.148 535.476 445.12C537.181 468.464 535.976 496.08 514.494 510.447C509.653 513.691 513.897 521.119 519.1 518.287C539.896 507.066 545.717 480.802 545.374 459.046C545.139 444.14 542.65 429.371 542.679 414.456C542.679 402.5 544.1 388.819 553.714 380.479C556.654 377.892 552.803 372.845 549.48 375.001V375.04Z" fill="var(--color-illustration-primary, #382C80)"/>
<path d="M643.462 505.39C649.117 511.437 655.399 517.836 663.983 519.032C671.396 519.954 678.772 517.063 683.583 511.348C695.961 497.295 691.472 478.166 691.423 461.163C691.423 456.263 684.622 456.596 684.015 461.163C682.251 474.383 686.435 489.23 679.556 501.431C671.863 515.082 657.172 509.927 647.284 501.607C644.677 499.412 641.11 502.842 643.501 505.39H643.462Z" fill="var(--color-illustration-primary, #382C80)"/>
<path d="M697.451 432.674C697.157 436.829 697.01 441.131 699.597 444.65C702.044 447.959 706.249 449.461 710.24 448.452C719.922 446.09 725.273 434.585 726.998 425.706C727.978 420.542 720.245 418.288 719.04 423.511C717.835 428.734 715.483 434.614 711.337 438.289C709.377 440.014 706.79 441.435 704.889 438.985C703.458 437.143 703.066 434.193 702.743 431.959C702.292 428.793 697.656 429.842 697.451 432.674Z" fill="var(--color-illustration-primary, #382C80)"/>
<path d="M699.793 198.238C711.336 221.02 716.481 246.508 714.679 271.983C714.236 278.245 713.349 284.468 712.023 290.603C711.043 295.18 710.318 301.766 707.358 305.617C702.958 311.35 693.56 313.281 686.964 314.76C679.124 316.534 671.137 317.465 663.19 318.612C650.655 320.415 638.229 322.444 625.607 323.62C596.932 326.285 568.11 326.736 539.367 327.285C510.623 327.834 481.596 328.49 452.862 331.587C429.646 334.086 402.598 339.427 380.891 327.794C350.864 311.732 352.02 271.013 356.92 242.123C357.665 237.693 358.531 233.293 359.517 228.922C360.497 224.473 361.712 217.486 366.112 214.977C376.344 209.146 387.026 236.36 389.387 242.721C394.151 255.935 396.906 269.79 397.561 283.822C398.237 295.69 398.688 310.282 388.692 318.622C384.772 321.905 390.103 328.98 394.229 325.805C403.931 318.347 407.174 307.038 407.655 295.19C408.045 281.459 406.558 267.74 403.235 254.412C400.04 241.211 394.856 228.06 387.065 216.878C380.754 207.842 368.984 199.336 358.762 208.303C351.177 214.957 349.795 226.786 348.08 236.174C346.277 245.765 345.16 255.472 344.739 265.221C344.082 283.057 346.248 302.403 356.156 317.72C367.122 334.703 385.624 342.406 405.234 343.984C421.159 345.268 437.055 342.847 452.852 341.122C469.12 339.349 485.467 338.339 501.852 337.702C534.545 336.428 567.297 336.585 599.97 334.762C626.234 333.292 652.174 329.754 678.144 325.697C687.503 324.237 697.147 322.414 705.682 318.122C715.345 313.271 717.962 305.509 720.324 295.445C728.442 261.159 723.7 225.086 706.996 194.064C704.467 189.36 697.47 193.515 699.861 198.229L699.793 198.238Z" fill="var(--color-illustration-primary, #382C80)"/>
<path d="M373.344 272.709C373.05 272.248 372.756 271.778 372.502 271.288C372.384 271.082 372.276 270.866 372.168 270.651C372.061 270.435 372.041 270.366 371.972 270.219C372.07 270.435 371.972 270.219 371.972 270.102C371.785 269.626 371.631 269.138 371.512 268.642C371.443 268.377 371.394 268.112 371.345 267.848C371.345 267.897 371.345 268.142 371.345 267.848C371.335 267.655 371.335 267.462 371.345 267.27C371.345 267.034 371.345 266.809 371.345 266.574V266.113C371.345 266.113 371.345 266.378 371.345 266.113C371.384 265.894 371.436 265.678 371.502 265.466C371.502 265.329 371.806 264.682 371.6 265.114C371.786 264.731 372.012 264.398 372.217 264.026C372.335 263.81 372.168 264.075 372.149 264.104L372.394 263.81C372.541 263.644 372.698 263.487 372.854 263.34C373.011 263.193 373.207 263.036 372.992 263.212C372.776 263.389 372.992 263.212 373.06 263.212L373.609 262.869L373.854 262.752C373.854 262.752 373.501 262.869 373.736 262.801L374.442 262.605C374.06 262.605 374.756 262.507 374.442 262.605H374.716H375.001C375.079 262.605 375.461 262.683 375.167 262.605C374.873 262.526 375.422 262.683 375.5 262.703C375.579 262.722 375.941 262.85 375.667 262.752C375.393 262.654 375.765 262.801 375.814 262.83C376.006 262.932 376.192 263.043 376.373 263.163C376.725 263.389 376.196 262.977 376.5 263.271C376.666 263.415 376.824 263.569 376.97 263.732L377.166 263.947C377.539 264.379 377.059 263.732 377.215 264.016C377.372 264.3 377.656 264.731 377.852 265.104C377.852 265.192 377.99 265.506 377.852 265.104L377.95 265.368C378.037 265.612 378.109 265.861 378.166 266.113C378.166 266.201 378.303 266.78 378.264 266.544C378.309 266.869 378.335 267.197 378.342 267.524C378.359 268.205 378.326 268.887 378.244 269.563C378.244 269.328 378.244 269.504 378.244 269.563C378.244 269.798 378.186 269.984 378.146 270.2L377.97 271.082C377.823 271.797 377.647 272.513 377.48 273.218C377.265 273.999 377.482 274.835 378.051 275.412C378.619 275.989 379.452 276.219 380.236 276.015C381.02 275.811 381.636 275.204 381.851 274.424C382.596 271.376 383.242 268.259 382.615 265.123C382.108 262.609 380.597 260.411 378.431 259.038C376.135 257.645 373.248 257.675 370.983 259.116C368.688 260.624 367.189 263.08 366.896 265.809C366.524 269.034 367.798 272.258 369.532 274.914C369.942 275.614 370.694 276.042 371.505 276.038C372.316 276.033 373.064 275.596 373.465 274.891C373.867 274.186 373.862 273.321 373.452 272.62L373.344 272.709Z" fill="var(--color-illustration-primary, #382C80)"/>
<path d="M704.948 532.036C704.948 532.036 700.655 483.262 718.452 481.968C736.249 480.674 756.496 548.481 726.89 562.612C703.272 568.6 704.948 532.036 704.948 532.036Z" fill="var(--color-illustration-secondary, #7F72FF)" stroke="var(--color-illustration-secondary, #7F72FF)" stroke-width="1.54"/>
<path d="M708.113 563.533C713.836 567.796 721.99 567.522 728.193 564.455C735.249 560.976 739.757 554.321 742.521 547.158C748.871 530.664 747.205 511.995 740.326 496.002C738.023 490.651 730.202 495.267 732.486 500.588C737.779 512.914 738.813 526.652 735.426 539.631C732.388 551.038 723.597 562.642 710.524 557.732C706.878 556.37 705.438 561.564 708.074 563.533H708.113Z" fill="var(--color-illustration-primary, #382C80)"/>
<path d="M380.49 443.376C380.117 453.558 390.917 459.438 399.884 456.116C410.899 452.009 413.604 439.612 413.653 429.156C413.653 422.913 413.829 417.925 419.778 414.622C424.335 412.084 429.304 410.457 432.881 406.449C441.701 396.571 437.144 382.772 439.496 371.061C440.544 365.858 432.851 363.613 431.469 368.847C428.97 378.294 432.361 389.074 428.245 398.031C424.835 405.45 415.045 406.145 409.939 412.094C404.235 418.738 406.519 427.49 405.568 435.418C404.951 440.514 402.902 445.855 398.228 448.54C393.553 451.225 386.899 449.471 386.732 443.395C386.625 439.377 380.647 439.387 380.49 443.395V443.376Z" fill="var(--color-illustration-base, #FFFFFF)"/>
<path d="M483.478 424.364C485.634 431.606 493.278 435.83 500.628 434.418C508.909 432.831 514.691 424.775 514.887 416.592C514.995 411.878 508.615 411.565 507.125 415.544C505.714 419.277 503.989 423.609 500.089 425.412C496.914 426.882 492.308 425.794 491.034 422.276C489.328 417.611 482.018 419.454 483.478 424.364Z" fill="var(--color-illustration-base, #FFFFFF)"/>
<path d="M650.979 466.945C653.272 471.159 658.976 473.021 663.494 471.845C668.323 470.506 671.699 466.153 671.794 461.143C672.02 456.753 665.071 455.782 664.101 460.094C663.19 464.142 659.789 464.867 656.8 462.456C653.645 459.898 648.852 463.034 650.979 466.945Z" fill="var(--color-illustration-base, #FFFFFF)"/>
<path d="M880.289 525.676C869.627 526.656 858.945 527.038 848.263 527.744C843.078 528.087 837.904 528.469 832.73 528.832C828.261 529.145 823.194 528.9 818.882 530.282C811.963 532.507 810.591 539.788 810.513 546.148C810.376 557.075 810.572 568.022 810.601 578.949C810.601 582.585 814.394 584.358 817.461 582.869C826.095 578.645 836.022 579.527 845.352 579.507C855.701 579.507 866.059 579.037 876.369 578.135C881.377 577.704 886.365 577.155 891.343 576.489C894.94 576.019 898.87 575.646 901.085 572.363C903.584 568.678 902.31 563.367 902.065 559.261C901.712 553.91 901.369 548.559 901.036 543.208C900.673 537.407 891.598 537.328 891.961 543.208C892.274 548.245 892.578 553.283 892.872 558.32C892.98 560.211 893.068 562.103 893.196 563.984C893.45 567.581 893.196 567.022 889.501 567.502C880.472 568.672 871.41 569.492 862.316 569.962C846.195 570.815 827.869 567.708 812.914 575.039L819.774 578.959L819.598 551.94C819.598 548.804 819.225 545.452 819.774 542.356C820.558 537.916 824.115 538.338 827.879 537.867C845.352 535.721 862.776 532.85 880.289 531.095C883.719 530.752 883.768 525.343 880.289 525.676Z" fill="var(--color-illustration-primary, #382C80)"/>
<path d="M532.8 596.04C537.823 608.783 548.228 618.65 561.22 622.99C571.187 626.234 582.182 626.038 591.669 630.487C605.565 636.994 613.67 653.909 610.054 668.825C606.437 683.74 591.434 695.059 576.126 694.471C589.18 698.391 604.281 704.399 607.378 717.678C609.711 727.634 603.703 738.042 595.373 743.981C587.043 749.92 576.753 752.33 566.816 754.624C582.819 756.29 601.939 760.259 607.486 775.351C613.444 791.57 598.539 808.279 582.761 815.315C590.708 816.981 599.852 819.598 602.87 827.124C605.712 834.2 601.175 842.628 594.452 846.224C587.729 849.821 579.595 849.566 572.128 848.057C524.255 838.384 494.051 796.166 476.979 753.046C454.302 695.784 445.472 608.692 501.96 575.088" fill="var(--color-illustration-base, #FFFFFF)"/>
<path d="M512.956 563.896C489.436 573.196 472.158 591.091 462.897 614.493C453.774 637.514 452.784 663.435 455.44 687.797C458.29 713.465 464.942 738.566 475.177 762.277C487.917 792.02 507.056 820.676 534.741 838.394C548.265 847.047 565.474 854.329 581.781 854.26C591.091 854.26 600.205 850.791 605.419 842.745C610.064 835.581 609.888 826.242 604.066 819.794C599.019 814.208 591.199 812.061 584.104 810.572L585.29 819.647C601.95 811.944 619.639 792.961 611.828 773.253C604.811 755.555 583.594 751.693 566.836 749.949L568.091 759.2C586.897 754.829 610.652 746.735 612.367 723.92C613.857 704.046 593.041 695.049 577.293 690.345L576.146 698.842C598.431 699.224 617.551 679.115 614.464 656.702C613.008 646.288 607.429 636.895 598.98 630.634C588.7 623.098 575.705 623.598 563.916 620.324C551.188 616.741 540.826 607.483 535.839 595.236C534.369 591.591 528.381 593.169 529.861 596.883C533.517 606.216 539.831 614.271 548.02 620.05C557.477 626.675 568.257 628.008 579.263 630.32C589.768 632.535 598.431 637.337 603.508 647.118C607.957 655.702 608.271 666.169 603.429 674.646C597.822 684.398 587.365 690.341 576.117 690.169C571.138 690.032 570.384 697.245 574.97 698.666C586.485 702.213 604.948 708.613 603.263 723.891C601.303 741.756 579.86 746.852 565.562 750.096C559.996 751.36 561.877 758.818 566.807 759.357C579.027 760.69 597.089 763.15 602.606 776.115C609.113 791.413 592.473 805.515 580.243 811.052C576.372 812.816 577.44 819.264 581.428 820.127C587.034 821.332 595.962 822.9 598.245 829.123C600.911 836.385 593.061 842.255 586.946 843.539C578.89 845.234 570.021 842.667 562.377 840.178C555.423 837.882 548.755 834.797 542.503 830.985C517.023 815.58 499.383 790.041 487.094 763.483C477.12 741.813 470.312 718.822 466.876 695.216C463.574 672.872 463.387 649.313 469.61 627.459C475.49 606.879 487.819 588.896 506.772 578.4C510.275 576.463 513.907 574.767 517.64 573.324" fill="var(--color-illustration-primary, #382C80)"/>
<path d="M718.472 644.697C704.301 630.908 627.332 605.938 635.495 646.236C636.73 652.331 639.984 657.8 643.335 663.013C657.81 685.315 675.452 705.393 695.706 722.617C689.072 742.54 694.374 765.943 708.936 781.064" fill="var(--color-illustration-base, #FFFFFF)"/>
<path d="M721.039 642.1C714.179 635.367 704.379 631.173 695.559 627.792C684.318 623.48 672.362 620.275 660.279 619.658C650.685 619.168 638.993 620.55 633.123 629.184C624.303 642.198 634.427 658.878 641.757 669.814C655.876 690.841 672.759 709.874 691.953 726.4L690.571 721.157C683.858 742.021 688.17 771.137 706.662 785.023C710.416 787.836 715.404 782.407 712.993 778.702C707.544 770.333 702.213 762.777 699.822 752.879C697.555 743.349 697.927 733.382 700.9 724.048C701.442 722.179 700.911 720.163 699.518 718.805C684.305 705.972 670.542 691.512 658.476 675.685C652.596 667.933 646.079 659.671 642.188 650.704C640.228 646.275 638.778 640.454 640.787 635.75C643.403 629.625 653.125 628.89 659.407 629.046C669.863 629.252 680.31 631.781 690.208 635.015C698.793 637.808 709.083 641.042 715.894 647.284C719.334 650.43 724.391 645.442 721.029 642.149L721.039 642.1Z" fill="var(--color-illustration-primary, #382C80)"/>
<path d="M820.391 99.8268C828.692 100.091 836.933 101.218 845.224 101.718C849.85 102.002 850.996 94.329 846.332 93.545C837.717 92.0848 829.103 91.9476 820.391 91.6732C815.138 91.5164 815.148 99.67 820.391 99.8268Z" fill="var(--color-illustration-primary, #382C80)"/>
<path d="M115.301 100.807C109.656 100.493 104.59 105.707 105.354 111.391C106.118 117.075 112.4 120.965 117.859 119.407C123.925 117.682 126.434 110.499 123.866 105.021C122.564 102.291 120.037 100.347 117.065 99.7876C113.437 99.0266 109.716 100.587 107.716 103.708C104.345 108.5 112.126 114.595 115.899 110.019C116.575 109.205 115.84 109.852 115.575 110.019C115.085 110.019 115.027 110.019 115.419 110.019C115.811 110.019 115.762 110.019 115.301 110.019C115.154 109.744 114.164 109.578 115.095 110.019C114.644 109.823 114.831 108.853 114.86 109.862C114.86 108.951 114.86 110.195 114.86 110.44C114.684 110.842 114.948 109.568 114.86 110.44C114.991 110.146 114.932 110.234 114.684 110.705C114.727 110.563 114.831 110.448 114.968 110.391C114.968 110.45 114.752 110.489 114.684 110.499C114.331 110.568 114.978 110.626 114.272 110.499C113.743 110.097 115.076 110.675 114.272 110.499C113.851 110.195 113.547 110.117 113.508 109.862C113.442 109.319 113.605 108.774 113.959 108.357C114.312 107.94 114.824 107.69 115.37 107.667C119.721 107.539 119.682 101.169 115.37 100.934L115.301 100.807Z" fill="var(--color-illustration-primary, #382C80)"/>
<path d="M160.038 96.8378C155.344 95.113 149.778 98.4646 148.69 103.237C147.406 108.843 151.444 115.115 156.844 116.81C162.812 118.682 167.624 113.253 167.496 107.549C167.339 102.649 163.155 96.191 157.559 96.7692C152.708 97.269 150.611 103.276 155.031 106.118C155.543 106.488 156.117 106.763 156.726 106.932C156.305 106.804 156.383 106.883 156.951 107.157C156.697 106.951 157.108 107.52 157.255 107.765C156.951 107.265 157.451 108.47 157.255 108.392C157.211 108.229 157.269 108.055 157.402 107.951C158.118 107.883 158.813 107.677 159.45 107.343C158.98 106.363 157 106.187 157.177 104.639C157.282 104.284 157.452 103.952 157.677 103.659C157.892 103.453 157.147 103.404 158.127 103.717C162.567 105.138 164.292 98.3764 160.029 96.8574L160.038 96.8378Z" fill="var(--color-illustration-primary, #382C80)"/>
<path d="M197.68 96.9456C194.198 99.8533 192.747 104.535 193.975 108.902C195.586 113.588 200.301 116.468 205.206 115.762C207.61 115.473 209.799 114.234 211.283 112.321C212.767 110.408 213.424 107.98 213.105 105.579C212.429 100.209 207.97 96.5634 202.57 97.4258C200.002 97.8374 198.415 100.895 198.768 103.237C199.189 106.05 201.276 107.51 203.971 107.833C203.285 107.716 203.138 107.716 203.53 107.833C203.922 107.941 203.785 107.892 203.129 107.677C202.805 107.49 202.511 107.059 202.952 107.559C202.217 106.736 202.952 107.971 202.639 106.922C202.727 107.245 202.639 108 202.786 107.412C202.874 107.079 203.08 106.177 202.786 106.922C202.954 106.564 203.175 106.234 203.442 105.942C203.746 105.746 203.687 105.785 203.256 106.05L203.658 105.864C203.158 105.971 203.089 106.001 203.462 105.932C203.834 105.864 203.766 105.873 203.236 105.932C203.236 106.02 203.922 106.207 203.011 105.834C202.492 105.628 203.57 106.079 202.766 105.658C203.089 105.834 203.158 106.393 203.08 105.942C203.08 105.775 202.668 104.893 202.864 105.501C202.648 104.835 202.648 105.501 202.795 104.786C202.668 105.374 202.844 104.443 202.903 104.266C203.054 103.778 203.312 103.329 203.658 102.953C205.254 101.292 205.254 98.6658 203.658 97.0044C201.913 95.26 199.493 95.5736 197.719 97.0044L197.68 96.9456Z" fill="var(--color-illustration-primary, #382C80)"/>
<path d="M105.158 310.997C112.998 299.972 120.691 288.888 128.394 277.785C135.332 267.799 146.034 255.245 157.999 266.476C167.535 275.433 176.325 285.321 185.439 294.7C195.069 304.611 204.713 314.506 214.369 324.384C215.388 325.36 216.995 325.36 218.015 324.384C231.552 313.199 245.059 301.991 258.538 290.76C262.262 287.644 266.956 282.43 272.052 285.223C275.354 287.036 277.746 291.103 280.078 293.975C285.684 300.942 290.858 308.224 295.934 315.535C297.698 318.083 301.863 315.74 300.139 313.075C294.68 304.752 288.772 296.734 282.44 289.055C277.54 283.087 272.375 276.54 263.996 280.539C260.076 282.42 256.744 285.645 253.412 288.379C249.139 291.877 244.886 295.405 240.623 298.924C231.862 306.176 223.114 313.447 214.379 320.738H218.024C206.754 309.279 195.461 297.846 184.146 286.438C178.717 280.957 173.284 275.482 167.848 270.014C163.693 265.849 159.46 260.635 153.795 258.469C143.427 254.549 134.391 262.86 128.58 270.523C119.182 282.901 111.008 296.415 102.473 309.4C101.365 311.095 104.021 312.585 105.168 310.978L105.158 310.997Z" fill="var(--color-illustration-primary, #382C80)"/>
<path d="M134.264 275.962C131.207 277.991 131.501 282.146 134.343 284.41C138.596 287.791 143.457 283.626 146.103 280.382L142.692 279.5C143.672 284.567 150.66 287.85 155.432 287.83C159.881 287.83 164.331 283.273 161.498 279.01C160.928 278.076 159.76 277.699 158.751 278.123C157.742 278.547 157.194 279.644 157.461 280.705L152.767 282.665C151.927 282.401 151.108 282.073 150.317 281.685C148.7 280.931 147.377 280.313 146.7 278.363C146.453 277.584 145.778 277.018 144.968 276.911C144.158 276.804 143.358 277.175 142.918 277.863C142.109 279.07 141.098 280.128 139.929 280.99C136.048 281.643 134.718 280.908 135.94 278.785C137.616 277.569 136.067 274.767 134.284 275.952L134.264 275.962Z" fill="var(--color-illustration-primary, #382C80)"/>
<path d="M262.203 297.434C262.843 300.193 265.252 302.181 268.083 302.285C270.949 302.278 273.411 300.247 273.963 297.434C274.183 296.362 273.533 295.302 272.478 295.013C271.422 294.723 270.323 295.302 269.964 296.336C269.964 297.419 269.087 298.296 268.004 298.296C266.922 298.296 266.044 297.419 266.044 296.336C265.339 293.818 261.556 294.876 262.124 297.405L262.203 297.434Z" fill="var(--color-illustration-primary, #382C80)"/>
<path d="M212.507 245.2C209.592 244.96 206.716 246.001 204.63 248.053C202.545 250.105 201.456 252.963 201.649 255.882C202.08 262.281 208.048 267.172 214.154 267.76C220.259 268.348 226.707 265.104 228.854 259.224C230.921 253.501 228.609 246.69 223.14 243.877C220.279 242.417 217.819 246.533 220.602 248.209C227.619 252.423 224.11 261.772 216.741 262.722C213.166 263.255 209.594 261.741 207.49 258.802C204.452 254.51 206.735 248.179 212.517 248.483C214.673 248.591 214.585 245.396 212.517 245.171L212.507 245.2Z" fill="var(--color-illustration-primary, #382C80)"/>
<path d="M144.623 591.483C151.846 598.951 165.203 598.578 171.799 590.376C174.739 586.759 176.522 580.331 172.122 577.028C168.525 574.323 163.145 576.332 161.166 580.086C158.539 585.044 162.146 590.719 166.83 592.826C169.361 593.865 172.137 594.15 174.827 593.649C179.835 592.845 184.362 588.523 189.321 591.101C192.947 592.973 196.063 595.56 199.876 597.226C202.925 598.559 206.091 599.608 209.333 600.362C216.872 602.064 224.686 602.158 232.265 600.636C235.136 600.078 233.911 595.736 231.059 596.265C221.932 598.021 212.498 597.224 203.796 593.962C199.327 592.257 195.573 589.788 191.585 587.23C188.547 585.27 185.891 584.848 182.441 586.162C177.679 587.975 171.789 591.689 167.026 587.759C164.184 585.407 164.311 579.008 168.927 581.124C171.495 582.3 170.887 584.388 169.721 586.563C169.253 587.418 168.677 588.209 168.006 588.915C162.518 594.737 152.571 594.737 147.014 589.131C145.476 587.573 143.094 589.954 144.623 591.522V591.483Z" fill="var(--color-illustration-primary, #382C80)"/>
<path d="M266.897 606.252C269.465 606.252 269.475 602.263 266.897 602.263C264.32 602.263 264.33 606.252 266.897 606.252Z" fill="var(--color-illustration-primary, #382C80)"/>
<path d="M835.787 267.916C837.747 266.084 839.54 264.173 841.383 262.262C843.999 259.537 845.303 257.96 848.86 260.439C853.378 263.575 857.347 268.093 861.541 271.67C863.639 273.453 866.677 270.513 864.599 268.612C861.332 265.653 858.046 262.742 854.74 259.88C852.712 258.146 850.036 254.98 847.273 254.294C844.97 253.716 843.353 254.804 841.736 256.372C838.796 259.243 836.071 262.419 833.425 265.555C832.862 266.22 832.903 267.206 833.519 267.822C834.136 268.439 835.122 268.48 835.787 267.916Z" fill="var(--color-illustration-primary, #382C80)"/>
<path d="M409.615 206.412C423.923 225.1 429.068 247.719 427.069 270.905C426.843 273.512 431.283 274.159 431.685 271.533C435.32 247.621 427.226 223.052 412.085 204.52C410.977 203.168 408.557 205.01 409.635 206.412H409.615Z" fill="var(--color-illustration-primary, #382C80)"/>
<path d="M428.686 296.817V297.405V297.699C428.686 298.064 428.784 298.423 428.97 298.737L429.323 299.188C429.499 299.381 429.722 299.526 429.97 299.61C430.207 299.737 430.475 299.795 430.744 299.776C431.278 299.782 431.791 299.57 432.165 299.188C432.292 299.041 432.41 298.884 432.518 298.737C432.703 298.423 432.801 298.064 432.802 297.699C432.802 297.601 432.802 297.503 432.802 297.405V296.817C432.804 296.259 432.586 295.724 432.194 295.327C431.796 294.936 431.262 294.715 430.705 294.71C430.15 294.715 429.619 294.937 429.225 295.327C428.828 295.721 428.605 296.257 428.607 296.817H428.686Z" fill="var(--color-illustration-primary, #382C80)"/>
<path d="M679.536 195.984C683.605 203.44 686.475 211.49 688.042 219.838C688.561 222.356 692.256 221.249 691.854 218.789C690.353 210.082 687.149 201.756 682.427 194.289C681.937 193.546 680.952 193.316 680.184 193.764C679.415 194.212 679.131 195.183 679.536 195.975V195.984Z" fill="var(--color-illustration-primary, #382C80)"/>
<path d="M694.04 247.003C696.48 247.003 696.48 243.211 694.04 243.211C691.6 243.211 691.6 247.003 694.04 247.003Z" fill="var(--color-illustration-primary, #382C80)"/>
<path d="M446.492 745.98C448.208 753.893 452.152 761.15 457.86 766.893C459.889 768.912 462.907 765.854 460.986 763.777C455.965 758.455 452.33 751.98 450.402 744.922C449.736 742.403 445.924 743.461 446.482 745.99L446.492 745.98Z" fill="var(--color-illustration-primary, #382C80)"/>
<path d="M443.16 764.345C444.268 766.592 446.027 768.453 448.207 769.686C450.461 770.931 452.225 767.726 450.167 766.286C448.698 765.248 447.49 763.883 446.639 762.297C446.074 761.328 444.83 761.001 443.861 761.567C442.892 762.133 442.565 763.376 443.131 764.345H443.16Z" fill="var(--color-illustration-primary, #382C80)"/>
<path d="M816.697 711.484C826.84 711.543 836.993 711.533 847.146 711.543C849.615 711.543 849.615 707.711 847.146 707.721C836.993 707.721 826.84 707.721 816.697 707.78C815.674 707.78 814.845 708.609 814.845 709.632C814.845 710.655 815.674 711.484 816.697 711.484Z" fill="var(--color-illustration-primary, #382C80)"/>
<path d="M817.521 746.117L825.606 752.272C827.84 753.987 830.074 750.155 827.82 748.479L819.677 742.432C817.462 740.786 815.374 744.481 817.521 746.117Z" fill="var(--color-illustration-primary, #382C80)"/>
<path d="M802.977 782.24L811.062 792.432C812.659 794.392 815.501 791.589 813.894 789.6L805.76 779.447C804.182 777.487 801.468 780.26 803.006 782.201L802.977 782.24Z" fill="var(--color-illustration-primary, #382C80)"/>
<path d="M532.732 663.258C536.387 665.463 540.023 667.688 543.718 669.814C546.148 671.216 548.304 667.502 545.913 666.071C542.258 663.876 538.543 661.769 534.849 659.652C533.853 659.067 532.572 659.401 531.987 660.397C531.403 661.392 531.736 662.674 532.732 663.258Z" fill="var(--color-illustration-primary, #382C80)"/>
<path d="M524.039 731.153L531.644 734.563C532.386 734.974 533.296 734.925 533.99 734.438C534.683 733.952 535.038 733.112 534.904 732.275C534.77 731.438 534.17 730.751 533.359 730.506L525.647 727.36C523.481 726.468 521.883 730.192 524.039 731.162V731.153Z" fill="var(--color-illustration-primary, #382C80)"/>
<path d="M528.95 788.345L533.34 789.463C535.859 790.109 536.937 786.189 534.408 785.543L530.018 784.465C527.519 783.847 526.451 787.689 528.95 788.326V788.345Z" fill="var(--color-illustration-primary, #382C80)"/>
</svg>
