<svg width="1000" height="1000" viewBox="0 0 1000 1000" fill="none" xmlns="http://www.w3.org/2000/svg">
<path d="M894.724 485.104L931.817 481.086C935.169 480.723 938.746 480.4 941.725 481.968C944.704 483.536 946.312 486.437 947.791 489.298C961.874 516.542 965.353 548.02 965.5 578.694C965.608 602.792 963.177 628.596 948.017 647.294C944.41 651.763 940.04 655.771 934.767 658.074C926.506 661.671 916.755 660.632 908.572 656.869C900.389 653.105 893.578 646.873 887.619 640.13" fill="var(--color-illustration-primary, #382C80)"/>
<path d="M894.724 487.946C904.632 487.27 914.511 486.329 924.399 485.427C928.701 485.035 934.199 483.634 938.383 484.839C942.842 486.113 944.606 491.209 946.439 495.1C954.406 511.976 958.415 530.605 960.218 549.098C962.045 566.588 962.075 584.219 960.306 601.714C958.503 618.061 953.524 635.612 941.588 647.549C934.052 655.075 924.438 657.055 914.344 653.85C904.936 650.91 897.586 643.795 891.04 636.72C886.767 632.104 880.142 638.905 884.18 643.58C896.724 658.054 916.353 670.883 936.022 662.709C953.338 655.516 962.629 634.917 966.323 617.727C970.655 597.657 970.184 576.43 968.577 556.066C966.901 534.908 963.06 513.926 954.416 494.424C952.368 489.798 950.261 484.536 946.576 480.949C942.891 477.362 937.688 476.862 932.69 477.362C919.763 478.636 906.837 480.469 893.989 482.37C890.834 482.84 891.559 488.181 894.744 487.956L894.724 487.946Z" fill="var(--color-illustration-primary, #382C80)"/>
<path d="M914.873 591.826C915.618 565.513 917.813 527.685 912.658 501.803C909.934 488.083 903.613 471.903 888.07 468.807C881.788 467.562 875.115 469.787 868.745 469.306C860.522 468.575 852.565 466.024 845.45 461.839C833.416 454.979 823.537 445.032 813.198 435.83C802.859 426.627 791.501 417.876 778.114 414.338C754.986 408.243 730.966 418.758 709.887 430.077C701.116 434.781 692.433 439.681 683.427 443.885C669.481 450.373 654.654 455.194 639.327 456.821C623.049 458.546 599.254 465.181 605.585 487.368C608.016 495.904 616.042 501.931 624.568 504.43C633.094 506.929 642.208 506.497 651.028 506.047C638.004 506.713 630.232 521.08 622.774 529.89C613.214 541.021 604.3 552.692 596.079 564.847C580.193 588.729 567.767 615.562 565.464 644.472C564.7 654.036 565.268 664.356 570.923 672.108C593.776 703.468 620.187 652.723 641.032 652.88C656.486 652.998 676.047 667.423 690.698 672.382C710.592 679.124 731.045 684.083 751.458 689.042C757.27 690.443 763.218 691.864 769.098 691.061C779.378 689.659 787.64 681.81 793.481 673.235C803.692 658.27 808.043 639.719 829.496 650.43C844.921 658.123 858.121 668.589 875.899 660.504C887.6 655.193 897.116 645.628 903.397 634.417C909.679 623.206 912.835 610.417 913.678 597.598" fill="var(--color-illustration-base, #FFFFFF)"/>
<path d="M917.892 591.826C918.529 574.068 919.528 556.321 919.538 538.543C919.538 522.54 918.93 505.223 913.609 489.926C908.709 475.784 898.066 463.691 881.975 464.357C876.947 464.563 872.028 465.592 866.99 464.985C861.592 464.265 856.348 462.666 851.467 460.251C842.128 455.733 834.151 449.02 826.497 442.121C812.777 429.763 799.057 415.985 780.878 410.565C761.797 404.871 741.991 410.163 724.332 417.925C704.987 426.412 687.396 438.436 667.394 445.492C657.995 448.807 648.255 451.066 638.356 452.225C632.044 452.837 625.83 454.219 619.854 456.341C605.967 461.633 596.501 473.207 601.038 488.622C607.369 510.182 632.545 511.721 651.018 510.8V501.303C640.659 502.195 633.378 508.742 627.145 516.572C619.962 525.598 612.592 534.486 605.585 543.61C590.287 563.435 576.763 584.868 568.424 608.604C564.315 620.176 561.725 632.233 560.721 644.472C559.868 655.252 560.897 666.649 567.581 675.557C572.295 681.81 578.851 686.847 586.955 687.102C593.815 687.307 600.274 684.22 605.86 680.585C612.239 676.439 617.963 671.353 623.931 666.649C628.37 663.141 633.79 658.544 639.611 657.741C649.019 656.437 659.848 662.945 667.845 667.002C677.972 672.31 688.536 676.739 699.42 680.242C713.14 684.465 726.997 687.993 740.904 691.394C752.811 694.334 765.472 698.646 777.409 693.648C787.12 689.581 794.225 681.29 799.684 672.539C803.545 666.355 806.877 657.231 813.404 653.36C817.785 650.763 822.822 652.547 827.075 654.566C832.769 657.261 838.11 660.642 843.843 663.268C855.809 668.756 867.667 669.883 879.74 663.993C904.867 651.733 916.441 624.127 918.166 597.579C918.548 591.787 909.66 591.875 909.199 597.579C907.337 620.364 897.302 643.825 876.242 654.967C865.609 660.593 855.544 658.476 845.264 653.272C836.865 649.029 828.094 642.492 818.294 642.414C801.477 642.355 796.038 662.268 787.61 673.215C780.594 682.319 771.509 687.915 759.729 685.955C746.793 683.73 733.887 679.908 721.215 676.518C709.818 673.47 697.901 670.638 687.072 665.855C677.831 661.798 669.138 656.584 659.799 652.704C652.537 649.675 644.06 646.824 636.132 648.705C630.32 650.097 625.156 653.723 620.452 657.28C614.709 661.641 609.329 666.473 603.439 670.638C598.902 673.852 593.492 677.498 587.759 677.498C580.419 677.586 574.48 670.491 572.079 664.209C568.267 654.35 570.001 642.355 571.893 632.271C576.793 606.32 589.307 582.614 604.35 561.172C612.092 550.156 620.922 540.102 629.144 529.469C634.681 522.305 641.032 511.642 651.038 510.77C657.035 510.251 657.212 500.97 651.038 501.274C636.524 501.999 612.71 502.411 609.544 483.487C607.496 471.276 619.197 465.798 629.144 463.309C635.495 461.721 642.022 461.349 648.46 460.173C657.477 458.504 666.305 455.94 674.812 452.519C692.207 445.659 707.917 435.506 724.792 427.519C741.041 419.836 759.778 413.799 777.712 418.768C795.039 423.589 808.034 437.104 821.068 448.707C834.102 460.31 848.38 471.08 866.079 473.207C874.713 474.187 883.895 470.512 892.088 474.422C897.87 477.176 901.731 482.644 904.338 488.318C911.296 503.45 911.6 521.423 912.178 537.75C912.835 555.782 912.178 573.804 911.796 591.836C911.718 595.756 917.676 595.756 917.833 591.836L917.892 591.826Z" fill="var(--color-illustration-primary, #382C80)"/>
<path d="M175.963 229.667C173.898 229.961 171.811 230.307 169.701 230.706C163.885 231.799 158.136 233.223 152.482 234.969C116.947 245.945 85.4208 269.269 62.0282 298.355C48.3082 315.388 44.9468 330.813 42.487 351.716C40.919 365.103 41.0268 378.882 44.9076 391.779C49.4744 406.969 59.1372 420.287 70.8188 430.979C85.803 444.699 104.893 454.744 125.199 455.9C135.597 456.488 146.357 454.812 156.245 458.115C164.879 461.006 169.387 467.611 171.406 475.99C172.131 478.93 170.299 480.968 171.876 483.879C173.768 487.348 180.304 490.298 183.636 492.082C201.071 501.352 221.807 502.734 241.182 502.94C269.378 503.244 297.564 501.709 325.56 498.344C351.55 495.208 377.872 490.308 400.814 477.705C412.515 471.276 423.423 462.584 429.793 450.843C440.24 431.596 436.653 407.174 426.039 387.996C415.426 368.817 398.913 353.774 382.655 339.113C347.806 307.685 314.486 273.101 273.11 250.09C253.03 238.918 231.098 230.872 208.097 228.795C184.42 226.658 156.931 226.325 134.156 233.401C106.246 242.064 79.9818 257.44 61.2148 279.833C42.4478 302.226 31.7462 331.989 35.1468 361.007C37.2048 378.735 44.3 395.532 53.0122 411.114C57.6574 419.434 62.8122 427.549 69.5448 434.311C89.2918 454.185 118.956 459.477 146.602 464.063C157.382 465.847 169.524 468.591 175.022 478.038C181.706 489.543 174.738 503.881 167.878 515.278" fill="var(--color-illustration-secondary, #7F72FF)"/>
<path d="M535.437 531.899C520.58 521.864 504.998 511.103 497.06 494.982C491.347 483.35 490.2 470.09 487.338 457.458C476.019 407.978 438.28 363.104 398.844 332.998C358.664 302.275 324.423 265.192 280.108 239.349C277.109 237.605 273.845 235.851 270.396 236.164C254.863 237.576 272.611 253.187 276.031 256.656C284.276 265.038 292.498 273.431 300.697 281.832C317.664 299.224 334.514 316.704 351.246 334.272C376.471 360.811 401.458 387.571 426.206 414.554C434.82 423.952 445.316 431.635 453.705 441.014C463.652 452.166 466.268 468.454 472.609 481.703C487.309 512.25 514.053 534.927 540.062 556.634" fill="var(--color-illustration-primary, #382C80)"/>
<path d="M536.985 529.243C525.96 521.668 514.592 513.857 506.321 503.165C497.06 491.2 494.973 476.705 492.219 462.26C487.054 435.202 474.677 410.114 458.556 387.927C442.406 365.976 423.211 346.438 401.549 329.901C378.539 312.114 357.253 292.299 334.909 273.689C323.767 264.388 312.369 255.392 300.364 247.16C294.484 243.113 288.457 239.193 282.254 235.635C277.03 232.646 271.239 230.529 265.339 232.93C256.431 236.556 260.547 245.67 264.967 251.178C271.435 259.194 279.451 266.211 286.625 273.571C332.616 320.689 377.676 368.631 422.286 417.082C432.086 427.676 445.287 436.026 453.303 448.08C460.565 458.987 462.995 472.325 468.571 484.065C480.331 508.781 500.235 528.616 520.619 546.364C525.921 550.97 531.301 555.488 536.701 559.996C541.327 563.867 548.049 557.212 543.375 553.322C522.707 536.093 501.421 518.483 486.211 496.011C478.999 485.378 474.363 474.236 470.002 462.231C468.095 456.603 465.698 451.153 462.838 445.943C459.389 440.004 454.646 435.095 449.677 430.4C444.708 425.706 439.279 421.139 434.281 416.288C428.48 410.653 423.158 404.528 417.621 398.56C407.207 387.244 396.731 375.978 386.193 364.76C364.717 341.828 343.053 319.099 321.199 296.572C310.249 285.269 299.26 274.019 288.232 262.82C282.264 256.764 274.071 250.453 269.612 243.073C269.009 242.305 268.605 241.399 268.436 240.437C268.436 241.094 267.456 241.28 268.436 240.829C269.8 240.317 271.284 240.208 272.709 240.516C276.148 241.202 279.52 243.818 282.509 245.612C285.932 247.689 289.313 249.839 292.652 252.06C304.583 260.101 316.094 268.749 327.138 277.971C348.531 295.611 368.856 314.525 390.671 331.665C411.506 348.031 431.037 365.279 447.452 386.222C466.072 410.036 479.694 436.996 485.535 466.758C488.475 481.556 491.572 495.668 501.215 507.683C510.133 518.747 522.177 526.793 533.908 534.565C537.23 536.77 540.258 531.468 537.015 529.243H536.985Z" fill="var(--color-illustration-primary, #382C80)"/>
<path d="M544.894 434.889C528.351 429.44 509.8 427.578 493.297 434.34C479.508 440.014 468.797 451.833 454.097 455.537C424.511 462.976 391.651 449.06 367.024 434.203C331.842 412.989 297.519 390.449 264.055 366.583C248.307 355.352 230.921 344.523 216.349 331.852C200.287 317.867 219.132 316.593 231.696 322.698C272.816 342.671 313.869 362.793 354.852 383.066C376.236 393.637 397.6 404.251 418.944 414.907C440.504 425.687 449.657 435.604 469.747 421.002C483.879 410.742 504.243 410.614 520.609 414.24C536.583 417.778 551.421 425.138 565.866 432.86" fill="var(--color-illustration-primary, #382C80)"/>
<path d="M545.864 431.4C534.29 427.578 521.972 425.295 509.751 426.5C497.932 427.627 487.681 432.017 477.823 438.446C467.964 444.875 458.624 451.274 446.6 452.95C434.262 454.675 421.659 452.793 409.801 449.275C385.213 441.994 363.653 427.421 342.23 413.799C319.638 399.4 297.421 384.468 275.58 369.003C264.722 361.35 253.795 353.794 242.917 346.179C237.36 342.259 231.843 338.339 226.541 334.115C224.238 332.283 221.935 330.431 219.749 328.461C217.985 326.883 216.672 324.541 214.996 323.061C217.936 325.668 211.802 323.355 215.526 324.1C217.035 324.404 218.907 323.972 220.494 324.188C225.541 324.884 229.981 327.128 234.508 329.362L272.728 347.982C298.208 360.435 323.629 372.946 348.992 385.516C373.796 397.796 398.972 409.546 423.364 422.668C432.4 427.568 442.17 433.889 452.891 433.154C465.347 432.311 473.638 422.315 485.231 419.052C512.328 411.437 540.111 424.511 563.543 436.829C568.894 439.642 573.647 431.567 568.296 428.705C545.766 416.7 521.246 405.136 495.1 407.38C489.605 407.777 484.185 408.891 478.979 410.693C472.991 412.868 468.317 416.396 462.907 419.601C453.274 425.304 445.022 423.109 435.634 418.18C383.547 390.867 330.401 365.456 277.55 339.652C264.241 333.119 250.923 326.638 237.595 320.209C229.99 316.524 220.631 312.516 212.017 315.113C203.403 317.71 204.746 326.393 209.665 331.969C218.23 341.671 230.51 349.09 241.084 356.381C264.604 372.61 287.869 389.182 311.801 404.803C334.899 419.875 358.263 435.967 383.213 447.835C407.174 459.222 437.888 468.14 463.456 456.498C475.951 450.804 485.927 440.543 499.206 436.427C513.906 431.88 529.537 433.938 543.943 438.387C548.461 439.799 550.333 432.801 545.903 431.331L545.864 431.4Z" fill="var(--color-illustration-primary, #382C80)"/>
<path d="M191.506 278.344C208.166 278.197 224.257 289.712 229.5 305.499C232.205 313.653 232.195 322.453 231.607 330.979C228.315 378.931 207.431 417.66 182.823 457.684C163.831 488.573 146.798 521.384 140.222 557.095C133.647 592.806 138.645 631.839 160.381 660.867C170.818 674.803 184.695 685.935 199.865 694.471C277.403 738.14 382.478 707.603 425.412 629.36C434.859 612.141 439.348 592.61 441.857 573.128C448.266 523.363 447.021 446.394 412.682 406.528" fill="var(--color-illustration-secondary, #7F72FF)"/>
<path d="M191.506 281.46C208.338 281.868 222.803 293.52 226.786 309.88C228.952 318.974 228.04 328.774 227.001 337.967C225.898 347.257 224.119 356.454 221.68 365.485C212.213 400.922 192.878 431.743 174.238 462.878C155.04 495.012 138.38 529.723 133.813 567.287C129.697 601.028 136.087 637.298 157.039 664.728C194.103 713.258 262.938 728.595 320.18 714.483C378.166 700.185 429.126 656.016 442.797 596.687C449.569 567.287 450.922 535.927 449.099 505.87C447.315 476.578 442.435 445.012 427.304 419.336C423.952 413.698 420.028 408.42 415.593 403.588C411.947 399.589 406.577 405.361 409.771 409.399C427.411 431.753 435.065 461.084 438.191 488.916C441.236 517.287 440.752 545.925 436.751 574.176C434.203 592.571 429.773 611.014 420.679 627.351C413.971 639.38 405.667 650.447 395.993 660.25C376.551 679.802 352.522 694.175 326.099 702.056C271.288 718.54 203.873 706.78 166.437 660.573C144.985 634.113 139.252 597.677 143.897 564.66C149.131 527.42 166.633 493.297 185.93 461.564C203.913 431.988 221.21 401.52 229.824 367.729C234.126 350.913 237.419 332.048 235.322 314.692C233.728 299.975 224.873 287.032 211.733 280.215C205.486 276.981 198.551 275.3 191.516 275.315C187.596 275.315 187.596 281.362 191.516 281.44L191.506 281.46Z" fill="var(--color-illustration-primary, #382C80)"/>
<path d="M231.735 351.746L231.725 351.804L231.715 351.824L231.735 351.746Z" fill="var(--color-illustration-primary, #382C80)"/>
<path d="M233.136 310.056V310.076L233.146 310.145L233.136 310.056Z" fill="var(--color-illustration-primary, #382C80)"/>
<path fill-rule="evenodd" clip-rule="evenodd" d="M138.939 555.135C138.939 554.849 138.858 554.844 138.771 554.839C138.612 554.828 138.434 554.817 138.713 553.038C138.877 551.957 139.106 550.886 139.399 549.833C139.53 549.382 139.665 548.956 139.799 548.532L139.799 548.531C139.957 548.034 140.114 547.539 140.262 547.011C140.791 545.129 140.801 544.786 140.673 544.639C140.397 544.297 140.261 543.863 140.291 543.424C140.415 541.695 140.771 539.991 141.349 538.357C143.662 530.674 146.181 523.001 149.189 515.621C153.109 506.037 157.454 496.678 162.223 487.544C162.684 486.605 163.201 485.696 163.772 484.82L164.144 484.251C165.015 482.199 166.194 480.188 167.378 478.167L167.378 478.167C168.207 476.752 169.039 475.333 169.769 473.893C169.859 473.721 169.952 473.54 170.048 473.354L170.05 473.351C170.717 472.055 171.508 470.52 172.082 470.1C172.337 469.741 172.56 469.361 172.749 468.963C174.077 466.306 175.665 463.795 177.254 461.281C178.138 459.882 179.023 458.482 179.863 457.056C179.977 456.868 180.132 456.652 180.292 456.429L180.293 456.429C180.491 456.153 180.697 455.866 180.843 455.606C181.723 453.848 182.83 452.101 183.952 450.331C184.318 449.753 184.686 449.173 185.048 448.589C185.421 447.965 185.797 447.34 186.174 446.714L186.18 446.704C187.449 444.593 188.725 442.472 189.948 440.328C190.634 439.093 191.437 437.672 192.123 436.584C197.559 427.519 202.518 418.177 206.98 408.595C207.758 406.805 208.562 405.002 209.371 403.186L209.371 403.186L209.371 403.186C211.618 398.143 213.905 393.01 215.8 387.829C216.05 387.089 216.319 386.486 216.588 385.882C216.867 385.254 217.147 384.625 217.407 383.841C217.633 383.188 217.865 382.531 218.099 381.87C218.97 379.403 219.858 376.889 220.484 374.423C220.622 373.854 220.788 373.296 220.974 372.727C221.087 372.385 221.185 372.035 221.284 371.682L221.284 371.681C221.349 371.449 221.414 371.216 221.484 370.983C221.54 370.798 221.597 370.612 221.654 370.425C221.956 369.432 222.269 368.408 222.533 367.328C222.934 365.769 223.454 363.78 223.973 361.8C224.493 359.821 225.051 357.508 225.433 355.313C225.598 354.387 225.769 353.462 225.94 352.538L225.94 352.538C226.46 349.728 226.978 346.921 227.325 344.082C227.413 343.377 227.517 342.674 227.622 341.971C227.797 340.796 227.972 339.62 228.07 338.437L228.609 332.763C229.007 329.082 229.076 325.373 228.814 321.679C228.709 320.396 228.616 318.934 228.525 317.5V317.5L228.525 317.499C228.422 315.878 228.321 314.293 228.207 313.045C228.044 311.088 227.649 309.157 227.031 307.293C223.528 296.97 215.877 288.576 205.922 284.135C205.517 283.933 205.094 283.774 204.672 283.615C204.46 283.535 204.249 283.456 204.04 283.371C203.422 283.108 202.787 282.889 202.139 282.714C200.386 282.203 199.043 281.867 197.958 281.595C196.816 281.309 195.959 281.094 195.21 280.823C194.865 280.686 194.556 280.577 194.281 280.479C193.945 280.361 193.659 280.26 193.417 280.147C193.064 279.995 192.734 279.793 192.437 279.549C192.099 279.184 191.794 278.791 191.525 278.373C191.457 278.275 191.761 278.148 192.388 278.138C195.083 278.04 195.612 277.991 195.445 277.765C195.361 277.651 195.093 277.516 194.84 277.388C194.594 277.264 194.362 277.146 194.318 277.06C194.306 277.034 194.292 277.01 194.279 276.987L194.279 276.987C194.113 276.692 194.069 276.613 197.66 276.923C200.508 277.32 203.318 277.956 206.059 278.824C206.48 278.941 206.98 279.108 207.529 279.304L209.244 280.078C210.135 280.456 211.021 280.953 211.864 281.426L211.864 281.426C212.18 281.604 212.49 281.777 212.791 281.94C220.59 286.377 226.806 293.141 230.569 301.285C231.39 303.138 232.046 305.06 232.529 307.028C232.641 307.56 232.778 308.239 232.918 308.937L232.918 308.938C232.997 309.332 233.078 309.733 233.156 310.115C233.209 310.776 233.313 311.431 233.469 312.075C233.672 313.007 233.679 312.725 233.686 312.44C233.69 312.311 233.693 312.182 233.714 312.163C234.425 316.483 234.724 320.86 234.606 325.237C234.567 327.406 234.466 329.562 234.302 331.705C234.204 332.778 234.104 333.85 234.004 334.923L234.004 334.924L234.003 334.934C233.902 336.004 233.802 337.074 233.705 338.143C233.686 338.143 233.67 338.077 233.655 338.013C233.622 337.873 233.592 337.743 233.538 338.32C233.464 339.12 233.502 339.068 233.58 338.962C233.605 338.927 233.634 338.887 233.665 338.868C233.517 339.69 233.425 340.561 233.329 341.456L233.329 341.456C233.311 341.628 233.292 341.801 233.273 341.975C233.184 343.045 233.03 344.109 232.813 345.16C232.747 345.749 232.636 346.332 232.48 346.904C232.46 346.937 232.44 346.938 232.419 346.94C232.358 346.944 232.291 346.949 232.195 347.747C232.131 348.296 232.202 348.185 232.267 348.085C232.301 348.034 232.332 347.985 232.342 348.031C232.525 348.673 232.227 349.859 231.935 351.02L231.935 351.021C231.866 351.296 231.797 351.569 231.735 351.834L231.5 352.51C231.442 352.835 231.372 353.214 231.301 353.596C231.131 354.518 230.958 355.457 230.951 355.685C230.917 356.739 230.715 357.782 230.353 358.772C229.975 359.893 229.709 361.049 229.559 362.222C229.451 363.006 229.177 364.319 228.854 365.75C228.612 366.819 228.283 367.933 227.98 368.955L227.98 368.955L227.98 368.956C227.878 369.301 227.779 369.635 227.687 369.954C227.256 371.385 226.913 372.698 226.59 373.962C226.353 374.887 226.08 375.785 225.801 376.704L225.801 376.704C225.698 377.041 225.595 377.381 225.492 377.725C224.953 378.521 224.616 379.436 224.512 380.391C224.414 381.09 224.243 381.776 224.003 382.439C223.356 384.193 222.768 385.908 222.199 387.604L222.131 387.807L222.131 387.807C221.586 389.434 221.045 391.05 220.377 392.612C219.858 393.856 219.362 395.104 218.869 396.347C218.169 398.109 217.474 399.861 216.721 401.579C216.068 403.049 215.444 404.512 214.849 405.969C214.296 407.203 213.706 408.422 213.117 409.639L212.995 409.89C212.937 410.011 212.879 410.131 212.821 410.252C212.453 411.004 212.095 411.746 211.741 412.48C211.066 413.88 210.405 415.249 209.724 416.592C209.289 417.451 208.874 418.313 208.459 419.175L208.459 419.175C207.884 420.37 207.308 421.567 206.676 422.756H206.669C206.348 423.317 206.033 423.916 205.715 424.521L205.714 424.521C205.173 425.549 204.625 426.591 204.03 427.48C203.577 428.159 203.024 429.248 202.45 430.377L202.447 430.383C202.351 430.571 202.255 430.761 202.158 430.949C200.722 433.977 199.064 436.896 197.2 439.681C196.135 441.743 194.882 443.858 193.632 445.967L193.632 445.968C192.868 447.256 192.106 448.543 191.388 449.814C190.91 450.649 190.373 451.448 189.781 452.205L189.291 453.009C188.664 454.083 188.013 455.157 187.361 456.232L187.361 456.232C186.23 458.098 185.098 459.963 184.097 461.829C183.329 463.287 182.437 464.678 181.431 465.984C180.944 466.641 180.52 467.343 180.167 468.081V467.993C179.266 469.845 178.158 471.786 176.767 474.206C170.975 484.222 165.477 494.385 160.734 504.88L160.141 506.178C159.513 507.551 158.893 508.905 158.274 510.27L157.059 512.975C156.677 513.896 156.304 514.827 155.942 515.778C155.504 517.081 154.884 518.315 154.099 519.443C153.56 519.982 152.727 521.923 151.747 524.559C150.356 528.528 149.415 530.85 148.748 531.419C148.212 532.326 147.841 533.322 147.651 534.359C147.449 535.072 147.243 535.798 147.034 536.532L147.033 536.537C146.339 538.976 145.621 541.503 144.966 543.973C144.27 546.913 143.79 547.981 143.466 548.236C143.173 548.47 142.958 548.788 142.849 549.147C142.408 550.288 142.08 551.47 141.869 552.675C141.681 553.844 141.307 554.976 140.761 556.027C139.84 557.281 139.086 557.693 138.939 555.135ZM206.559 422.756H206.664C206.59 422.853 206.509 422.945 206.421 423.031C206.387 423.044 206.249 423.26 206.123 423.456L206.123 423.456C205.965 423.704 205.826 423.92 205.941 423.658C206.089 423.322 206.298 423.016 206.559 422.756ZM231.48 352.402C231.623 351.848 231.706 351.279 231.725 350.707C231.689 350.778 231.663 350.854 231.647 350.932C231.514 351.41 231.458 351.906 231.48 352.402ZM198.405 437.349C198.131 437.966 197.7 438.72 197.268 439.475L197.268 439.475C197.415 439.198 197.513 438.978 197.613 438.756C197.76 438.429 197.909 438.096 198.219 437.564C198.405 437.202 198.513 437.113 198.405 437.349Z" fill="var(--color-illustration-primary, #382C80)"/>
<path d="M225.492 377.667L225.473 377.696L225.463 377.745L225.492 377.667Z" fill="var(--color-illustration-primary, #382C80)"/>
<path d="M237.174 285.458C245.771 313.243 248.952 342.42 246.543 371.404C244.083 400.51 235.38 428.019 222.699 454.224C199.836 501.48 163.968 554.713 182.882 609.584C190.467 631.594 207.205 649.46 227.687 660.201C250.11 671.961 276.129 674.469 300.825 669.854C348.943 660.857 388.937 625.842 410.35 582.634C437.113 528.675 433.585 464.475 409.801 410.154C408.566 407.351 404.46 409.771 405.675 412.564C426.843 461.025 431.782 517.542 412.182 567.404C394.915 611.289 358.831 648.744 313.026 662.229C287.703 669.697 259.596 669.756 235.243 658.799C214.065 649.274 195.975 632.006 187.85 609.985C168.005 556.164 204.099 502.969 226.462 456.449C239.134 430.077 247.689 402.382 250.286 373.149C252.956 343.257 249.56 313.133 240.3 284.586C239.653 282.626 236.527 283.44 237.154 285.458H237.174Z" fill="var(--color-illustration-base, #FFFFFF)"/>
<path d="M324.688 339.143C332.91 332.724 328.941 317.397 317.475 319.621C309.517 321.16 305.274 332.626 310.821 338.643C314.27 342.377 320.66 342.279 324.688 339.143Z" fill="var(--color-illustration-primary, #382C80)"/>
<path d="M325.952 340.407C330.942 336.264 332.406 329.222 329.48 323.433C328.009 320.664 325.476 318.611 322.462 317.746C319.448 316.881 316.212 317.279 313.496 318.847C307.479 322.208 304.402 330.362 307.028 336.791C310.252 344.69 320.033 345.444 326.158 340.623C328.039 339.153 325.609 336.085 323.62 337.34C318.974 340.28 311.86 339.731 310.654 333.42C309.792 328.833 312.614 323.335 317.161 321.895C327.187 318.729 329.568 332.518 323.414 337.898C321.64 339.417 324.198 341.838 325.952 340.407Z" fill="var(--color-illustration-primary, #382C80)"/>
<path d="M318.161 333.674C337.888 394.16 327.03 460.8 304.637 519.002C298.267 535.525 290.584 551.43 282.518 567.169C281.186 569.756 284.959 572.001 286.438 569.462C302.383 541.934 314.114 511.437 322.169 480.704C330.372 449.442 334.498 416.582 331.852 384.291C330.488 366.761 326.888 349.478 321.14 332.861C320.493 331.009 317.553 331.773 318.2 333.674H318.161Z" fill="var(--color-illustration-primary, #382C80)"/>
<path d="M269.014 552.597L294.396 567.032C295.238 567.414 295.948 568.039 296.434 568.825C296.993 569.982 296.483 571.354 295.935 572.53C292.011 580.956 286.287 588.419 279.167 594.394C278.127 582.301 275.358 570.42 270.945 559.114" fill="var(--color-illustration-primary, #382C80)"/>
<path d="M268.103 554.165C272.522 556.879 277.011 559.486 281.489 562.112L288.212 566.032C289.761 566.934 294.151 568.463 294.21 570.678C294.21 572.353 291.75 575.666 290.878 577.116C289.761 578.99 288.544 580.802 287.232 582.545C284.377 586.278 281.127 589.692 277.54 592.728L281.548 594.394C280.472 582.084 277.648 569.99 273.159 558.477C272.101 555.801 267.76 556.918 268.789 559.672C272.989 570.842 275.701 582.516 276.854 594.394C276.886 595.327 277.461 596.156 278.325 596.513C279.188 596.87 280.18 596.689 280.862 596.05C285.155 592.377 288.977 588.187 292.24 583.574C294.68 580.125 299.1 574.529 299.002 570.041C298.914 565.219 292.142 563.181 288.751 561.309C282.509 557.849 276.276 554.351 269.955 551.029C269.089 550.525 267.979 550.819 267.475 551.685C266.972 552.551 267.266 553.661 268.132 554.165H268.103Z" fill="var(--color-illustration-primary, #382C80)"/>
<path d="M210.616 251.345C158.96 243.24 99.0036 255.666 71.7988 304.833C48.2788 347.267 60.0388 405.361 102.375 431.253C113.723 438.172 127.228 442.552 140.595 442.2C153.188 441.866 166.643 436.976 172.435 425.03C173.768 422.276 169.769 419.856 168.29 422.609C156.637 444.267 124.072 437.554 106.873 427.686C86.9006 416.171 72.72 396.169 67.5456 373.845C62.6456 352.735 64.537 330.205 74.1116 310.644C83.5 291.485 99.327 276.217 118.212 266.456C146.171 252.001 179.099 249.943 209.793 254.363C211.753 254.647 212.625 251.658 210.626 251.345H210.616Z" fill="var(--color-illustration-base, #FFFFFF)"/>
<path d="M252.864 652.694C256.499 644.276 260.811 636.23 265.016 628.096C265.511 627.249 265.226 626.161 264.379 625.665C263.532 625.17 262.443 625.455 261.948 626.302C256.98 634.192 252.761 642.529 249.345 651.204C248.522 653.164 252.001 654.683 252.864 652.694Z" fill="var(--color-illustration-primary, #382C80)"/>
<path d="M360.017 581.046C364.673 584.677 368.609 589.148 371.62 594.227C372.953 596.461 376.471 594.413 375.119 592.179C371.789 586.702 367.429 581.923 362.281 578.106C360.595 576.832 358.361 579.733 360.007 581.046H360.017Z" fill="var(--color-illustration-primary, #382C80)"/>
<path d="M388.594 448.834C393.859 451.389 399.122 453.937 404.381 456.478C406.851 457.654 409.007 453.94 406.528 452.803C401.209 450.353 395.878 447.923 390.534 445.512C388.309 444.532 386.349 447.737 388.574 448.834H388.594Z" fill="var(--color-illustration-primary, #382C80)"/>
<path d="M217.182 525.078C223.209 525.196 229.236 525.166 235.263 525.137C237.821 525.137 237.821 521.217 235.263 521.217C229.236 521.158 223.209 521.09 217.182 521.168C216.099 521.168 215.222 522.046 215.222 523.128C215.222 524.21 216.099 525.088 217.182 525.088V525.078Z" fill="var(--color-illustration-primary, #382C80)"/>
<path d="M267.132 378.705C270.113 379.04 273.026 379.82 275.776 381.018C278.05 382.067 280.029 378.666 277.736 377.647C274.553 376.161 271.126 375.271 267.622 375.021C265.545 374.903 265.016 378.411 267.123 378.705H267.132Z" fill="var(--color-illustration-primary, #382C80)"/>
<path d="M94.8974 382.802C94.7602 379.97 102.12 378.372 103.953 377.706C106.893 376.657 109.754 375.56 112.655 374.472C115.066 373.57 114.007 369.67 111.587 370.552C106.559 372.512 101.395 374.256 96.485 376.432C93.545 377.735 91.2322 379.734 91.9084 383.115C92.2416 384.791 94.9856 384.429 94.8484 382.714L94.8974 382.802Z" fill="var(--color-illustration-primary, #382C80)"/>
<path d="M135.705 280.48C139.987 284.792 144.358 289.026 148.739 293.22C150.503 294.925 153.207 292.24 151.434 290.525C147.053 286.301 142.663 282.077 138.204 277.952C136.538 276.403 134.088 278.824 135.705 280.451V280.48Z" fill="var(--color-illustration-primary, #382C80)"/>
<path d="M160.92 388.956C161.577 392.563 162.223 396.179 162.88 399.785C163.37 402.402 167.368 401.294 166.869 398.678C166.192 395.081 165.467 391.485 164.752 387.898C164.252 385.36 160.44 386.447 160.891 388.966L160.92 388.956Z" fill="var(--color-illustration-primary, #382C80)"/>
<path d="M212.076 327.422C190.712 327.304 169.995 334.458 150.248 341.936C147.778 342.916 148.797 346.836 151.355 345.944C171.23 338.976 190.839 331.842 212.115 330.705C214.212 330.597 214.242 327.432 212.115 327.422H212.076Z" fill="var(--color-illustration-primary, #382C80)"/>
<path d="M157.882 351.834L152.1 338.359C151.659 337.379 150.895 336.134 149.807 336.311C149.323 336.442 148.889 336.715 148.562 337.095L133.774 351.177C142.267 351.138 150.761 350.704 159.254 349.874" fill="var(--color-illustration-primary, #382C80)"/>
<path d="M159.636 351.354C157.892 346.846 156.343 342.112 154.217 337.771C153.335 335.977 152.365 334.125 150.091 334.037C147.239 333.919 144.672 337.545 142.849 339.28L132.069 349.501C131.413 350.189 131.225 351.197 131.587 352.075C131.95 352.953 132.795 353.534 133.745 353.559C142.238 353.5 150.731 353.088 159.225 352.324C162.351 352.04 162.37 347.11 159.225 347.424C150.731 348.254 142.238 348.717 133.745 348.815L135.43 352.873C139.566 348.953 143.594 344.111 148.17 340.681C149.572 339.633 149.425 339.417 150.532 340.319C151.434 341.054 151.914 343.347 152.433 344.484C153.697 347.257 155.001 350.011 156.353 352.765C157.225 354.597 160.41 353.294 159.666 351.363L159.636 351.354Z" fill="var(--color-illustration-primary, #382C80)"/>
<path d="M491.935 78.8058C470.179 78.943 449.53 91.1244 436.231 108.343C422.933 125.562 416.445 147.318 414.74 169.015C411.741 207.47 423.746 247.209 448.854 276.491C473.961 305.774 512.172 323.845 550.774 322.992C562.21 322.738 573.863 320.817 583.878 315.28C593.894 309.743 602.116 300.207 604.086 288.937C606.418 275.531 599.95 262.37 594.364 249.963C587.622 235.008 581.85 219.034 582.604 202.648C583.114 191.976 586.397 181.627 587.504 170.994C591.022 136.077 569.227 101.748 538.994 83.9116C528.685 77.8356 517.199 73.308 505.243 72.769C493.287 72.23 480.821 76.0226 472.482 84.6074" fill="var(--color-illustration-secondary, #7F72FF)"/>
<path d="M491.935 77.13C468.581 77.2378 447.149 90.0954 433.399 108.568C418.523 128.58 412.437 154.06 412.045 178.648C411.261 228.089 434.693 276.874 476.578 303.98C496.439 316.92 519.377 324.36 543.051 325.54C566.179 326.52 594.198 320.64 604.321 297.052C609.221 285.733 606.918 273.532 602.596 262.477C597.422 249.189 590.611 236.713 587.269 222.758C585.639 216.185 584.94 209.416 585.191 202.648C585.564 194.563 587.622 186.684 588.964 178.727C590.941 167.736 590.731 156.463 588.347 145.554C582.741 120.769 566.189 98.9546 545.227 84.9112C523.667 70.4366 491.327 61.9498 470.845 83.0296C468.836 85.0876 471.903 88.1452 473.991 86.1754C493.12 68.1924 521.031 75.3072 540.827 88.0276C558.947 99.6406 573.696 117.349 580.781 137.772C584.385 147.947 585.83 158.761 585.025 169.524C584.045 181.843 579.86 193.711 579.948 206.157C580.027 218.123 583.32 229.834 587.681 240.898C592.208 252.413 598.853 263.487 601.175 275.747C603.594 287.583 599.381 299.798 590.18 307.626C580.791 315.936 568.139 319.278 555.88 320.131C533.585 321.669 511.035 316.564 491.2 306.46C449.795 285.37 423.031 243.74 417.602 197.915C414.554 172.259 417.7 144.642 430.116 121.691C442.533 98.739 465.308 81.393 491.915 80.5306C494.061 80.4522 494.081 77.179 491.915 77.179L491.935 77.13Z" fill="var(--color-illustration-secondary, #7F72FF)"/>
<path d="M504.302 286.83C479.097 268.446 458.732 241.084 446.992 212.282C435.251 183.48 432.498 149.013 452.872 123.18C464.446 108.48 481.409 98.9252 500.294 98.4548C518.749 98.0218 536.149 107.034 546.442 122.357C551.591 129.906 554.586 138.714 555.105 147.837C555.664 158.764 553.371 169.573 552.979 180.461C552.319 200.471 556.463 220.348 565.062 238.428C569.776 248.365 578.498 257.764 580.517 268.74C582.477 279.147 576.264 289.143 568.081 295.092C548.059 309.664 522.648 298.443 504.782 285.909C502.176 284.077 499.735 288.34 502.293 290.153C518.816 301.913 541.013 312.399 561.426 304.578C577.969 298.238 590.826 280.578 584.221 262.683C580.507 252.589 573.314 244.063 568.855 234.263C563.82 223.19 560.493 211.417 558.986 199.346C557.487 187.253 558.437 175.434 559.613 163.36C560.662 152.58 560.789 141.741 556.86 131.451C550.34 114.558 536.505 101.537 519.247 96.0538C500.774 90.3502 479.851 94.427 464.201 105.521C434.801 126.326 427.941 163.586 436.927 196.661C446.933 233.411 471.952 267.221 502.813 289.28C504.361 290.358 505.762 287.899 504.302 286.83Z" fill="var(--color-illustration-base, #FFFFFF)"/>
<path d="M498.648 190.977C496.501 193.064 494.238 195.416 493.944 198.395C493.65 201.374 496.688 204.667 499.402 203.403C501.215 202.56 501.842 200.169 501.313 198.248C500.64 196.363 499.536 194.662 498.089 193.28" fill="var(--color-illustration-primary, #382C80)"/>
<path d="M497.423 189.752C494.777 192.182 491.866 195.161 491.925 199.042C492.017 202.152 494.096 204.852 497.08 205.735C500.186 206.47 502.862 204.148 503.577 201.257C504.557 197.484 502.078 194.289 499.735 191.633C497.775 189.389 494.434 192.701 496.443 194.926C497.511 196.112 498.902 197.494 499.157 199.15C499.373 200.59 498.569 202.207 497.04 201.002C493.836 198.483 498.099 194.073 499.863 192.182C500.299 191.746 500.469 191.111 500.309 190.515C500.15 189.92 499.685 189.455 499.089 189.295C498.494 189.136 497.859 189.306 497.423 189.742V189.752Z" fill="var(--color-illustration-primary, #382C80)"/>
<path d="M496.893 194.485C505.076 178.442 512.328 161.861 520.276 145.691C521.472 143.26 517.836 141.104 516.611 143.554C508.506 159.744 500.196 176.228 493.708 193.142C493.003 194.985 496.002 196.239 496.893 194.485Z" fill="var(--color-illustration-primary, #382C80)"/>
<path d="M510.662 148.837C513.23 150.052 515.817 151.198 518.424 152.325C519.767 152.904 520.952 153.149 522.197 152.208C523.941 150.875 524.343 147.964 524.882 145.975C525.581 143.739 526.07 141.442 526.342 139.115C526.568 135.842 524.03 133.029 520.845 135.195C519.032 136.635 517.326 138.204 515.739 139.889C513.637 141.725 511.65 143.689 509.79 145.769C509.048 146.62 509.091 147.9 509.89 148.698C510.688 149.496 511.968 149.54 512.818 148.797C516.17 146.053 519.11 142.692 522.315 139.762L523.481 138.703C522.334 137.929 521.776 138.008 521.825 138.939C521.364 139.625 521.384 141.291 521.188 142.124C520.815 143.75 520.345 147.896 519.061 148.984L520.629 148.337C519.355 148.435 517.689 147.494 516.562 147.073C515.053 146.53 513.54 146.014 512.025 145.524C510.153 144.907 508.84 147.886 510.662 148.748V148.837Z" fill="var(--color-illustration-primary, #382C80)"/>
<path d="M496.59 206.823C511.221 231.794 527.362 256.166 552.107 272.179C554.87 273.973 557.457 269.533 554.684 267.769C530.87 252.599 514.092 228.785 499.343 205.216C498.256 203.481 495.541 205.049 496.59 206.823Z" fill="var(--color-illustration-primary, #382C80)"/>
<path d="M549.598 274.943C551.381 271.768 553.106 268.377 555.997 266.045L553.371 266.378C555.272 267.642 557.291 269.494 557.546 271.944L559.398 269.494C556.61 270.65 553.428 270.326 550.931 268.632C548.49 267.191 545.452 270.827 547.804 272.679C551.678 275.693 556.924 276.255 561.348 274.13C562.34 273.55 562.818 272.376 562.514 271.268C561.191 267.299 559.065 264.036 555.047 262.448C554.103 262.189 553.102 262.59 552.597 263.428C550.519 266.848 548.118 269.925 546.775 273.767C546.197 275.423 548.735 276.452 549.598 274.953V274.943Z" fill="var(--color-illustration-primary, #382C80)"/>
<path d="M477.215 110.94C478.773 114.782 480.292 118.633 482.046 122.396C482.948 124.356 486.231 122.945 485.486 120.946C484.065 117.026 482.389 113.263 480.763 109.45C479.91 107.49 476.382 108.902 477.215 110.94Z" fill="var(--color-illustration-primary, #382C80)"/>
<path d="M444.444 176.943C447.08 178.05 450.255 178.393 453.048 178.981C455.596 179.511 456.674 175.561 454.126 175.061C451.186 174.493 447.923 173.552 444.904 173.562C442.827 173.562 442.758 176.228 444.444 176.933V176.943Z" fill="var(--color-illustration-primary, #382C80)"/>
<path d="M537.524 154.481C539.891 154.403 542.2 153.729 544.237 152.521C546.295 151.316 544.414 148.082 542.375 149.327C540.894 150.245 539.213 150.792 537.475 150.924C535.251 151.091 535.192 154.501 537.475 154.432L537.524 154.481Z" fill="var(--color-illustration-primary, #382C80)"/>
<path d="M539.092 204.775C541.238 203.648 543.394 202.55 545.492 201.365C547.589 200.179 545.746 196.778 543.532 197.964C541.317 199.15 539.318 200.316 537.22 201.521C535.123 202.727 536.975 205.892 539.122 204.775H539.092Z" fill="var(--color-illustration-primary, #382C80)"/>
<path d="M470.267 231.48C472.736 230.5 475.167 229.432 477.636 228.324C479.596 227.442 478.175 224.081 476.176 224.865C473.687 225.845 471.276 226.913 468.797 227.991C466.837 228.854 468.258 232.303 470.267 231.48Z" fill="var(--color-illustration-primary, #382C80)"/>
<path d="M507.928 263.359L505.527 273.159C504.92 275.639 508.781 276.697 509.339 274.218L511.564 264.349C512.093 261.987 508.506 260.978 507.928 263.369V263.359Z" fill="var(--color-illustration-primary, #382C80)"/>
<path d="M553.606 287.124L556.468 290.064C556.924 290.592 557.637 290.82 558.314 290.656C558.992 290.492 559.521 289.962 559.685 289.285C559.85 288.607 559.621 287.894 559.094 287.438L556.154 284.586C555.45 283.88 554.307 283.878 553.601 284.581C552.895 285.285 552.893 286.428 553.596 287.134L553.606 287.124Z" fill="var(--color-illustration-primary, #382C80)"/>
<path d="M525.637 119.976L527.665 115.017C527.929 114.046 527.36 113.044 526.391 112.773C525.423 112.531 524.436 113.092 524.147 114.047L522.187 119.025C521.936 119.973 522.489 120.949 523.432 121.22C524.378 121.455 525.343 120.908 525.627 119.976H525.637Z" fill="var(--color-illustration-primary, #382C80)"/>
<path d="M619.903 900.516C637.543 886.228 650.685 867 663.023 844.441C673.235 825.732 680.212 803.575 698.048 791.913C709.691 784.308 724.155 782.544 736.817 776.791C742.403 774.263 747.832 770.745 750.939 765.462C755.163 758.279 754.31 749.018 750.939 741.403C744.824 727.683 731.211 718.128 716.58 714.62C701.949 711.112 686.445 713.032 672.088 717.56C658.907 721.676 646.265 728.017 636.063 737.317C626.841 745.735 621.442 757.24 608.623 759.455C595.236 761.768 580.938 757.279 568.894 751.752C553.106 744.51 538.396 734.543 521.609 730.075C491.494 722.039 457.527 734.093 437.613 758.073C417.7 782.054 411.898 816.422 420.865 846.273C429.832 876.124 452.676 901.065 480.772 914.569C508.869 928.074 541.719 930.514 572.079 923.448C591.414 918.891 606.889 911.051 619.903 900.516Z" fill="var(--color-illustration-secondary, #7F72FF)"/>
<path d="M621.138 901.8C645.461 882.327 660.446 854.535 674.058 827.095C680.585 813.904 688.082 800.262 701.233 792.648C714.845 784.759 731.692 784.122 744.765 775.174C756.927 766.854 758.73 752.389 752.742 739.551C746.999 727.233 735.474 718.354 722.842 713.885C707.162 708.348 689.728 709.828 673.999 714.346C659.123 718.618 644.501 725.665 633.241 736.474C628.409 741.119 624.568 746.725 619.521 751.174C613.268 756.682 605.713 757.965 597.549 757.407C579.723 756.172 563.906 746.47 548.412 738.473C534.525 731.3 520.149 725.469 504.312 725.067C490.69 724.819 477.201 727.78 464.936 733.71C438.544 746.274 420.708 771.46 415.651 800.047C410.536 828.976 418.317 858.376 436.075 881.641C474.344 931.759 549.911 943.989 604.439 913.981C610.511 910.601 616.276 906.696 621.667 902.31C624.137 900.35 620.687 896.88 618.178 898.831C570.932 936.316 495.002 933.072 451.578 891.118C431.224 871.44 418.758 844.509 419.326 815.991C419.895 787.277 433.438 759.2 457.919 743.471C469.434 736.017 482.614 731.525 496.286 730.398C511.593 729.232 525.833 733.152 539.543 739.757C553.253 746.362 566.209 754.565 580.781 759.181C592.953 763.032 608.388 765.296 619.55 757.554C624.254 754.29 627.89 749.822 631.634 745.549C636.325 740.127 641.751 735.387 647.755 731.466C661.713 722.483 677.65 717.037 694.187 715.6C709.514 714.365 725.429 717.648 737.405 727.762C748.479 737.131 757.985 756.368 745.402 768.491C734.965 778.526 718.158 779.888 705.32 785.494C693.383 790.707 684.74 799.674 677.988 810.68C670.853 822.44 665.777 835.238 659.113 847.214C651.763 860.424 643.609 873.272 633.633 884.66C629.026 889.909 624.026 894.8 618.678 899.291C616.934 900.742 619.413 903.133 621.138 901.8Z" fill="var(--color-illustration-secondary, #7F72FF)"/>
<path d="M724.42 733.142C708.358 710.141 677.115 733.681 661.337 744.579C650.459 752.085 639.562 759.867 627.439 765.266C612.955 771.705 597.52 773.244 581.859 771.362C551.087 767.667 522.177 752.811 490.768 753.585C467.885 754.143 443.581 764.433 434.281 786.689C423.629 812.169 434.918 839.717 448.57 861.6C455.341 872.459 463.221 882.847 473.618 890.491C484.398 898.429 497.491 902.525 510.633 904.299C535.211 907.631 560.466 903.319 582.918 892.921C606.281 882.141 625.058 864.962 639.219 843.627C647.323 831.416 654.389 818.431 663.719 807.073C672.529 796.353 683.298 787.407 695.451 780.711C701.509 777.372 707.876 774.628 714.463 772.518C719.941 770.764 725.9 769.578 730.516 765.962C739.169 759.102 737.376 746.705 731.231 738.865C727.311 733.857 721.95 730.3 716.678 726.85C714.081 725.145 711.709 729.281 714.257 730.996C719.549 734.563 725.282 738.258 728.791 743.736C732.603 749.694 733.358 758.201 727.037 762.767C722.47 766.07 716.198 766.952 710.965 768.755C705.292 770.706 699.783 773.105 694.491 775.929C672.745 787.542 657.829 805.505 644.893 826.046C637.876 837.198 631.065 848.586 622.216 858.386C614.624 866.8 605.931 874.151 596.373 880.24C576.349 893.083 553.182 900.178 529.4 900.751C517.336 900.967 505.106 899.566 493.659 895.655C481.017 891.334 470.649 883.396 462.299 873.115C446.59 853.78 432.174 827.32 435.144 801.742C438.182 775.547 460.976 760.582 485.741 758.455C513.495 756.035 539.906 767.707 566.532 773.44C580.781 776.497 595.53 778.134 609.995 775.615C623.402 773.273 635.671 767.04 647.059 759.808C658.446 752.575 668.962 744.481 680.379 737.513C691.796 730.545 710.759 721.127 721.255 734.984C722.636 736.817 725.782 735.102 724.41 733.142H724.42Z" fill="var(--color-illustration-base, #FFFFFF)"/>
<path d="M589.053 809.739C591.908 810.746 593.7 813.581 593.385 816.593C593.071 819.605 590.731 822.007 587.729 822.403C584.727 822.798 581.845 821.083 580.761 818.255C579.678 815.427 580.675 812.225 583.173 810.513" fill="var(--color-illustration-primary, #382C80)"/>
<path d="M589.562 807.887C584.662 806.338 578.782 809.847 578.488 815.178C578.194 820.509 583.839 825.487 589.209 823.998C594.109 822.655 596.991 816.658 594.835 812.052C593.693 809.823 591.658 808.184 589.237 807.545C586.816 806.906 584.237 807.326 582.144 808.7C579.909 810.258 581.889 813.816 584.3 812.395C586.365 811.161 589.029 811.685 590.474 813.61C591.777 815.57 590.601 818.51 588.572 819.49C586.152 820.646 583.035 818.51 582.859 815.893C582.663 812.953 585.946 810.993 588.543 811.62C589.457 811.653 590.273 811.049 590.507 810.164C590.742 809.28 590.333 808.351 589.523 807.926L589.562 807.887Z" fill="var(--color-illustration-primary, #382C80)"/>
<path d="M584.006 814.776C568.482 807.789 551.538 809.298 535.104 806.613C526.607 805.231 518.708 801.811 510.3 800.105C501.891 798.4 493.346 799.125 485.496 795.558C482.713 794.294 480.243 798.253 483.046 799.743C489.798 803.32 497.285 803.33 504.684 804.221C513.808 805.309 522.256 809.121 531.242 810.856C548.304 814.119 566.032 812.12 582.585 818.147C584.545 818.853 585.917 815.629 584.006 814.776Z" fill="var(--color-illustration-primary, #382C80)"/>
<path d="M486.564 792.638L483.409 805.574C476.961 803.748 471.511 799.423 468.268 793.559C474.384 794.154 480.559 793.571 486.456 791.844" fill="var(--color-illustration-primary, #382C80)"/>
<path d="M484.957 792.197C483.85 796.479 482.752 800.801 481.37 805.015L483.977 803.535C478.194 801.632 473.323 797.651 470.306 792.363L468.268 795.96C474.599 796.488 480.974 795.921 487.113 794.284C490.21 793.471 488.867 788.581 485.79 789.492C480.108 791.156 474.166 791.748 468.268 791.236C466.435 791.089 465.377 793.343 466.219 794.794C469.824 801.142 475.826 805.777 482.879 807.661C484.006 807.957 485.163 807.3 485.486 806.181C486.192 801.791 487.211 797.45 488.211 793.128C488.691 791.031 485.516 790.139 484.986 792.236L484.957 792.197Z" fill="var(--color-illustration-primary, #382C80)"/>
<path d="M593.639 816.187C607.477 807.642 621.422 799.223 634.936 790.168C637.288 788.6 635.132 784.817 632.712 786.356C618.933 795.058 605.575 804.417 592.14 813.62C590.581 814.688 591.993 817.206 593.639 816.187Z" fill="var(--color-illustration-primary, #382C80)"/>
<path d="M638.964 798.479C634.916 793.002 630.39 787.896 625.44 783.22L643.766 779.966L635.152 795.558" fill="var(--color-illustration-primary, #382C80)"/>
<path d="M640.493 797.587C636.434 791.914 631.942 786.563 627.057 781.583L626.077 785.503C632.212 784.612 638.317 783.387 644.423 782.318L641.718 778.79C638.837 783.984 635.906 789.149 633.064 794.363C631.565 797.116 635.74 799.576 637.278 796.832C640.218 791.648 642.992 786.415 645.863 781.211C646.321 780.366 646.238 779.33 645.65 778.569C645.063 777.808 644.082 777.464 643.149 777.693C637.053 778.781 630.899 779.731 624.842 781.025C624.033 781.241 623.402 781.875 623.189 782.686C622.976 783.496 623.214 784.359 623.813 784.945C628.895 789.472 633.562 794.444 637.759 799.802C638.993 801.36 641.679 799.302 640.532 797.665L640.493 797.587Z" fill="var(--color-illustration-primary, #382C80)"/>
<path d="M483.595 881.485C486.278 877.285 489.485 873.445 493.14 870.058C495.031 868.294 492.16 865.471 490.308 867.226C486.412 870.839 483.073 875.01 480.4 879.603C479.185 881.681 482.36 883.523 483.614 881.485H483.595Z" fill="var(--color-illustration-primary, #382C80)"/>
<path d="M586.289 849.664C587.671 853.762 589.985 857.482 593.051 860.532C595.011 862.492 598.049 859.454 596.089 857.494C593.493 854.763 591.424 851.577 589.984 848.096C589.004 846.009 585.613 847.488 586.289 849.664Z" fill="var(--color-illustration-primary, #382C80)"/>
<path d="M678.282 766.344C680.885 768.676 684.006 770.356 687.386 771.244C688.343 771.409 689.268 770.819 689.522 769.882C689.776 768.945 689.275 767.969 688.366 767.628C685.721 766.694 683.26 765.305 681.094 763.522C679.134 761.866 676.302 764.659 678.262 766.344H678.282Z" fill="var(--color-illustration-primary, #382C80)"/>
<path d="M709.534 742.06C711.425 741.982 713.346 741.58 715.227 741.325C716.179 741.058 716.735 740.072 716.472 739.12C716.192 738.184 715.224 737.635 714.277 737.875C712.552 738.14 710.768 738.287 709.073 738.699C707.221 739.159 707.583 742.148 709.534 742.06Z" fill="var(--color-illustration-primary, #382C80)"/>
<path d="M441.494 791.246C444.052 793.195 447 794.569 450.138 795.274C452.715 795.852 453.813 791.864 451.235 791.354C448.431 790.772 445.784 789.596 443.474 787.904C441.406 786.415 439.554 789.796 441.514 791.295L441.494 791.246Z" fill="var(--color-illustration-primary, #382C80)"/>
<path d="M560.074 778.369C559.736 781.287 559.952 784.243 560.711 787.081C561.338 789.472 565.121 788.443 564.425 786.101C563.684 783.608 563.402 781.002 563.592 778.408C563.749 776.115 560.329 776.203 560.074 778.408V778.369Z" fill="var(--color-illustration-primary, #382C80)"/>
<path d="M706.016 243.24C699.636 235.567 698.715 224.718 702.223 215.555C705.986 205.755 714.963 198.826 724.636 195.357C734.788 191.712 746.872 190.457 755.447 198.131C763.071 204.991 767.697 215.3 769.529 225.257C771.597 236.498 769.529 247.062 765.511 257.597C763.445 262.59 761.787 267.742 760.553 273.003C759.386 278.657 758.916 284.449 757.407 290.035C751.713 311.076 725.175 318.778 710.308 301.795C694.814 284.155 710.024 257.499 703.017 237.027C702.037 234.028 697.294 235.253 698.225 238.35C705.085 260.831 688.758 288.261 707.946 307.165C723.999 322.973 751.674 317.789 760.572 296.915C762.934 291.368 763.698 285.409 764.639 279.5C765.884 271.66 768.344 264.633 771.039 257.234C775.164 245.925 776.507 234.244 773.881 222.405C771.44 211.429 765.658 199.865 756.486 193.005C746.96 185.881 734.063 187.213 723.45 191.045C712.327 195.093 702.262 203.04 698.146 214.428C694.285 225.09 695.882 237.184 703.517 245.739C705.045 247.454 707.437 244.965 706.016 243.24Z" fill="var(--color-illustration-secondary, #7F72FF)"/>
<path d="M296.983 768.912C278.118 774.723 260.184 771.999 242.378 764.277C228.315 758.161 214.232 750.792 198.464 751.135C184.969 751.439 171.112 756.946 162.694 767.795C154.717 778.085 151.737 792.589 156.863 804.809C162.684 818.696 177.002 826.928 190.183 832.622C204.436 838.743 219.702 842.165 235.204 842.716C264.016 843.764 296.67 835.219 316.593 813.159C321.472 807.863 325.312 801.696 327.912 794.98C330.303 788.62 332.352 780.074 329.441 773.567C322.581 758.122 297.013 763.698 285.478 769.039C282.538 770.382 285.096 774.586 287.957 773.293C298.737 768.442 327.158 763.042 325.531 782.593C324.502 795.117 316.946 806.201 307.802 814.364C287.83 832.22 258.92 838.757 232.764 837.316C218.462 836.551 204.413 833.232 191.28 827.516C179.834 822.489 167.133 815.452 161.763 803.535C156.392 791.619 160.312 776.713 169.426 767.628C179.295 757.828 194.309 754.359 207.784 756.603C223.248 759.181 236.772 767.805 251.521 772.646C266.6 777.682 282.923 777.576 297.934 772.342C300.1 771.587 299.218 768.187 296.954 768.873L296.983 768.912Z" fill="var(--color-illustration-secondary, #7F72FF)"/>
<path d="M321.728 189.017C316.172 179.579 310.556 165.996 317.808 155.873C320.67 151.865 325.491 148.631 330.548 148.552C337.006 148.454 340.779 154.129 343.71 159.127C349.492 169.005 352.686 182.421 343.945 191.653C340.142 195.661 334.449 197.797 329.245 195.328C324.041 192.858 320.738 187.135 322.914 181.51C323.894 178.923 319.847 177.913 318.808 180.383C314.976 189.497 322.679 199.718 331.989 200.963C342.769 202.364 351.697 192.349 353.549 182.5C355.744 170.74 349.384 155.314 340.015 147.945C332.175 141.741 321.307 145.632 315.623 152.894C306.724 164.252 312.683 179.648 319.259 190.545C319.698 191.183 320.555 191.375 321.224 190.984C321.893 190.592 322.147 189.752 321.807 189.056L321.728 189.017Z" fill="var(--color-illustration-secondary, #7F72FF)"/>
<path d="M677.88 581.34C683.76 569.58 686.014 553.243 696.5 544.384C702.439 539.337 710.592 541.738 715.394 547.324C724.283 557.702 720.059 572.579 716.815 584.28C715.384 589.445 722.274 591.885 725.116 587.779C731.19 579.007 740.142 572.638 750.419 569.776C756.094 568.198 761.983 568.12 765.012 573.941C767.854 579.419 766.462 585.926 765.257 591.659C764.742 593.846 765.881 596.086 767.951 596.958C770.021 597.831 772.419 597.083 773.626 595.187C779.055 587.122 791.942 587.347 798.959 593.09C808.249 600.744 806.897 614.807 801.536 624.254C798.792 629.076 805.789 632.976 808.876 628.547C818.02 615.434 817.108 595.07 803.614 585.133C791.991 576.577 773.969 578.273 765.717 590.562L774.086 594.09C775.762 586.073 777.085 577.528 773.214 569.913C770.013 563.352 763.22 559.32 755.927 559.653C740.423 560.201 725.802 570.854 717.276 583.173L725.576 586.671C729.496 572.324 732.926 555.968 723.117 543.11C717.335 535.535 706.457 530.537 697.147 534.29C680.712 540.915 678.262 563.69 672.098 577.881C670.412 581.801 675.959 585.25 677.978 581.291L677.88 581.34Z" fill="var(--color-illustration-primary, #382C80)"/>
<path d="M787.757 548.089C771.578 552.381 755.672 543.316 743.491 533.389C731.986 523.99 722.235 512.103 718.765 497.374C718.106 495.157 715.812 493.858 713.571 494.434C689.591 500.519 665.287 500.314 640.806 502.127C635.74 502.489 635.612 510.035 640.806 510.094C665.777 510.388 691.619 509.114 715.816 502.577L710.622 499.637C714.924 516.66 726.243 530.38 739.904 540.954C753.722 551.675 771.93 561.054 789.708 555.174C794.167 553.694 792.363 546.864 787.748 548.089H787.757Z" fill="var(--color-illustration-primary, #382C80)"/>
<path d="M460.8 426.402C456.39 423.805 450.285 427.382 448.913 432.282C447.541 437.182 449.746 442.494 452.96 446.482C456.527 450.922 461.623 454.391 467.297 454.94C472.972 455.488 479.116 452.607 481.409 447.394C482.948 443.885 482.654 439.808 481.547 436.133C479.518 429.42 474.481 423.393 467.738 421.433C460.996 419.473 452.774 422.58 450.02 429.009" fill="var(--color-illustration-secondary, #7F72FF)"/>
<path d="M462.554 423.384C457.331 420.591 451.519 421.874 447.55 426.206C443.18 430.959 443.327 437.917 445.767 443.542C451.098 455.9 466.68 464.583 479.175 456.88C492.101 448.883 487.897 430.195 477.911 421.6C468.356 413.348 449.716 413.642 445.806 427.892C444.405 432.997 450.941 434.967 453.773 431.243C457.791 425.981 464.553 424.197 470.208 428.166C475.402 431.821 480.988 442.288 475.353 447.717C469.953 452.911 462.084 449.412 457.713 444.836C455.116 442.121 452.646 438.368 453.058 434.428C453.411 431.037 456.508 428.421 459.918 429.803C463.583 431.292 466.043 425.265 462.603 423.423L462.554 423.384Z" fill="var(--color-illustration-secondary, #7F72FF)"/>
<path d="M556.634 427.48C562.37 429.479 568.274 430.959 574.274 431.9C585.789 433.987 597.971 434.173 608.819 429.215C613.445 427.098 617.639 424.128 622.304 422.08C626.926 420.176 631.77 418.859 636.72 418.16C645.001 416.769 653.488 416.102 661.798 417.337C682.584 420.424 701.174 436.731 705.535 457.282C708.319 470.424 704.781 484.634 696.715 495.325C692.913 500.392 687.337 506.007 681.3 508.34C677.302 509.878 667.266 509.584 667.58 503.283C667.799 501.806 668.386 500.408 669.285 499.216C675.277 489.262 677.23 477.392 674.744 466.043C673.421 460.163 670.696 454.283 665.796 450.716C659.583 446.218 651.243 446.306 643.609 447.109C626.773 448.873 610.025 453.205 593.159 451.843C574.803 450.373 557.683 442.258 541.581 433.331" fill="var(--color-illustration-primary, #382C80)"/>
<path d="M555.782 430.587C568.365 435.379 583.006 438.289 596.471 436.633C603.395 435.72 610.075 433.47 616.14 430.008C622.611 426.283 629.681 423.712 637.033 422.413C651.018 420.042 665.395 420.395 677.958 427.607C688.425 433.625 696.902 443.415 700.322 455.047C704.291 468.591 700.665 483.654 691.649 494.404C688.14 498.589 683.064 503.989 677.233 504.381C676.371 504.439 672.735 504.557 672.284 503.469C671.931 502.617 675.9 496.952 676.429 495.737C681.672 483.693 682.437 469.11 676.91 456.998C671.03 444.169 658.29 440.779 645.187 441.876C627.282 443.376 609.564 448.403 591.473 446.443C574.333 444.581 559.398 436.271 544.051 429.126C538.494 426.539 533.908 434.026 539.151 437.437C552.352 445.943 567.767 452.784 583.251 455.675C600.548 458.889 617.551 455.841 634.681 453.274C642.198 452.147 650.891 450.334 658.378 452.568C666.13 454.871 669.354 462.456 670.5 469.875C671.691 477.8 670.515 485.9 667.119 493.16C664.591 498.501 660.21 504.351 665.277 509.82C673.352 518.473 686.837 511.956 693.697 505.547C704.449 495.513 710.676 481.55 710.955 466.847C711.239 439.857 688.415 416.72 662.337 412.996C653.39 411.722 644.393 412.476 635.534 413.976C626.518 415.544 619.109 418.817 611.22 423.295C594.972 432.517 574.549 430.155 557.448 424.324C553.528 422.972 551.92 429.087 555.733 430.538L555.782 430.587Z" fill="var(--color-illustration-primary, #382C80)"/>
<path d="M560.015 443.278C557.565 454.254 556.223 465.612 557.781 476.745C559.339 487.877 564.004 498.824 572.167 506.546C582.506 516.346 597.441 520.051 611.681 519.58C625.92 519.11 639.719 514.886 653.311 510.633C656.251 509.731 659.191 508.791 661.602 506.968C666.551 503.273 668.354 496.776 672.01 491.807C672.562 490.959 673.308 490.254 674.185 489.749C675.851 488.906 677.85 489.426 679.644 489.955C682.868 490.935 686.18 491.915 688.787 494.042C691.394 496.168 693.129 499.726 692.129 502.93C691.489 504.6 690.484 506.107 689.189 507.34C676.067 521.305 658.437 530.723 639.768 535.045C621.099 539.367 601.44 538.71 582.781 534.349C575.979 532.761 569.119 530.605 563.641 526.274C558.986 522.599 555.595 517.562 552.861 512.279C549.111 504.934 546.598 497.021 545.423 488.857C543.855 478.028 544.678 466.974 543.257 456.125C541.836 445.277 537.612 434.046 528.606 427.843" fill="var(--color-illustration-primary, #382C80)"/>
<path d="M556.654 442.356C550.519 469.463 551.93 502.852 579.654 517.552C592.287 524.255 606.908 525.509 620.903 523.696C628.702 522.599 636.405 520.902 643.942 518.62C650.695 516.66 658.878 515.121 664.591 510.78C666.943 508.946 668.937 506.693 670.471 504.136C672.176 501.411 673.176 497.717 675.302 495.316C677.429 492.915 681.751 495.041 684.122 496.354C685.828 497.334 687.748 498.736 687.66 500.853C687.592 502.666 686.024 503.9 684.789 505.155C674.576 515.304 662.113 522.899 648.411 527.322C632.838 532.29 616.39 533.913 600.146 532.085C585.172 530.537 568.208 527.636 559.692 513.887C555.1 506.328 552.015 497.951 550.607 489.22C549.118 480.4 549.51 471.345 548.863 462.446C547.785 447.688 543.679 432.645 530.997 423.727C525.941 420.169 521.452 428.313 526.215 431.91C538.534 441.2 538.857 458.517 539.239 472.472C539.67 488.828 542.062 504.9 550.803 519.081C559.378 532.997 573.206 538.034 588.641 540.788C605.301 543.777 622.647 544.022 639.278 540.356C653.888 537.178 667.653 530.92 679.654 522.001C688.875 515.072 704.957 502.293 692.011 490.788C688.003 487.231 679.673 483.703 674.254 484.839C667.727 486.202 665.208 494.287 661.945 499.196C657.555 505.811 648.48 507.036 641.365 509.094C632.898 511.535 624.235 513.74 615.434 514.435C599.392 515.709 581.732 512.054 571.334 498.814C559.192 483.428 559.682 462.397 563.494 444.179C564.406 439.808 557.771 437.927 556.771 442.327L556.654 442.356Z" fill="var(--color-illustration-primary, #382C80)"/>
<path fill-rule="evenodd" clip-rule="evenodd" d="M636.426 575.568C660.044 585.427 674.626 610.25 679.34 635.407C681.888 648.833 681.947 663.278 675.92 675.518C669.285 688.983 656.202 698.097 642.737 704.742C630.928 710.573 618.1 715.012 604.929 714.953C578.469 714.845 554.723 696.157 541.924 672.999C529.126 649.842 525.48 622.843 523.834 596.383C522.696 578.272 519.859 561.469 516.89 543.878C516.637 542.383 516.384 540.883 516.131 539.376C513.331 522.724 530.701 531.678 541.279 537.13C543.214 538.127 544.921 539.007 546.236 539.592L588.082 558.212C597.226 562.259 606.32 566.277 615.846 569.217C618.033 569.883 620.242 570.489 622.452 571.095C627.174 572.389 631.9 573.685 636.426 575.568ZM622.333 668.158C629.752 664.503 636.955 659.485 640.61 652.067L640.64 652.047C643.962 645.295 643.933 637.347 642.512 630.036C639.915 616.189 631.888 602.498 618.874 597.089C616.367 596.033 613.744 595.319 611.12 594.604C609.918 594.277 608.717 593.95 607.526 593.59C602.309 591.887 597.203 589.861 592.238 587.524C588.677 585.941 585.191 584.075 581.694 582.202C575.037 578.638 568.34 575.053 561.015 573.363C553.038 571.52 552.224 572.422 553.469 580.125C555.007 589.65 556.242 598.843 556.85 608.545C557.761 623.039 559.76 637.935 566.816 650.685C573.872 663.435 586.946 673.725 601.518 673.793C608.77 673.823 615.826 671.373 622.333 668.158Z" fill="var(--color-illustration-primary, #382C80)"/>
<path d="M683.26 634.338C679.81 616.649 672.019 599.274 659.221 586.318C653.05 580.033 645.678 575.054 637.543 571.677C627.145 567.424 615.983 565.415 605.487 561.299C594.394 556.938 583.574 551.822 572.687 546.981C563.533 542.904 554.145 539.141 545.247 534.633C537.838 530.89 522.854 520.825 514.867 528.146C509.771 532.82 512.426 541.18 513.397 546.913C515.357 558.379 517.248 569.854 518.542 581.418C521.001 603.449 521.354 625.518 527.293 647.01C536.995 682.162 563.935 717.736 603.488 718.922C625.048 719.569 648.372 709.122 664.748 695.51C673.019 688.65 679.448 679.83 682.574 669.462C686.004 658.025 685.347 645.942 683.27 634.309C682.358 629.252 674.646 631.369 675.547 636.436C678.977 655.555 676.302 674.352 661.357 687.886C648.333 699.646 629.262 708.632 611.798 710.582C575.195 714.659 547.471 683.348 536.995 651.459C530.929 633.006 529.077 613.739 527.734 594.472C527.038 584.554 525.774 574.676 524.353 564.837C523.677 560.28 522.942 555.742 522.187 551.195C521.393 546.383 519.708 541.033 519.865 536.142C519.992 532.134 524.304 534.035 526.999 534.937C531.899 536.583 536.534 539.2 541.17 541.542C557.967 550.029 575.676 557.154 592.933 564.66C602.852 568.961 613.059 572.563 623.48 575.44C633.231 578.165 642.227 581.81 649.94 588.523C663.983 600.764 672.039 618.374 675.547 636.396C676.498 641.522 684.24 639.385 683.26 634.338Z" fill="var(--color-illustration-primary, #382C80)"/>
<path d="M637.2 650.028C633.035 657.868 625.283 662.68 617.326 666.11C608.133 670.03 598.274 671.216 589.033 666.816C571.226 658.348 564.249 638.543 561.956 620.246C560.721 610.446 560.417 600.499 559.104 590.67C558.526 586.309 557.614 581.957 557.144 577.587C557.144 577.822 557.036 575.685 557.016 575.676C557.281 575.803 555.39 575.813 555.723 576.46C555.86 576.724 561.044 577.44 561.603 577.528C570.815 580.007 578.841 585.368 587.347 589.523C596.256 593.835 605.36 596.589 614.699 599.695C633.015 605.791 645.344 632.035 637.239 650.028C635.132 654.683 642.031 658.76 644.099 654.066C652.517 635.446 644.276 609.75 628.145 597.716C624.221 594.89 619.828 592.78 615.17 591.483C608.048 589.465 601.074 586.96 594.296 583.986C583.839 579.233 574.166 572.461 562.936 569.609C556.399 567.953 548.765 567.787 549.098 576.567C549.323 582.447 550.862 588.386 551.577 594.207C552.361 600.636 552.744 607.075 553.283 613.523C555.145 635.759 561.407 659.769 581.83 672.029C592.267 678.291 604.282 679.203 615.738 675.283C626.939 671.441 638.425 664.846 644.158 654.076C646.5 649.519 639.601 645.471 637.2 650.028Z" fill="var(--color-illustration-primary, #382C80)"/>
<path d="M596.148 622.5C606.448 605.605 612.024 581.859 629.213 570.305C640.101 562.985 657.074 563.23 664.493 574.078C668.207 579.527 668.874 586.514 668.462 593.1C667.188 613.68 656.761 632.555 644.942 649.479C631.761 668.393 617.316 692.599 590.376 685.984C567.326 680.3 560.691 657.731 566.042 636.681" fill="var(--color-illustration-base, #FFFFFF)"/>
<path d="M598.755 624.009C608.555 608.172 613.719 587.622 628.782 575.617C635.642 570.188 645.354 567.669 653.693 570.962C664.748 575.333 664.885 588.494 663.288 598.49C659.877 619.893 647.167 638.004 634.985 655.33C625.548 668.756 613.014 684.73 594.521 681.79C584.819 680.232 576.42 674.685 572.285 665.64C568.365 656.976 568.59 646.961 570.07 637.749C570.913 632.516 563.7 630.301 561.985 635.524C555.586 655.036 561.72 678.958 581.458 688.003C591.375 692.55 602.9 693.403 613.072 689.218C622.725 685.249 630.173 677.645 636.504 669.56C651.459 650.43 666.806 628.4 671.539 604.154C673.803 592.541 674.636 578.331 666.022 568.963C658.907 561.211 647.274 559.574 637.474 562.103C611.181 568.963 605.311 600.568 593.551 620.903C591.591 624.274 596.716 627.253 598.755 623.95V624.009Z" fill="var(--color-illustration-primary, #382C80)"/>
<path d="M869.872 482.174C875.989 498.82 878.3 516.624 876.634 534.28C876.222 539.18 883.866 539.18 884.229 534.28C885.65 515.768 882.582 497.795 875.957 480.498C874.517 476.745 868.431 478.352 869.872 482.174Z" fill="var(--color-illustration-primary, #382C80)"/>
</svg>
