<svg width="24" height="24" viewBox="0 0 24 24" fill="none" xmlns="http://www.w3.org/2000/svg">
<path d="M2.66323 19.0183L3.63345 20.6942C3.83505 21.047 4.12486 21.3242 4.46507 21.5258L7.93013 15.5281H1C1 15.9187 1.1008 16.3093 1.30241 16.6621L2.66323 19.0183Z" fill="#0066DA"/>
<path d="M12 8.4719L8.53495 2.47418C8.19474 2.67579 7.90493 2.95299 7.70333 3.3058L1.30241 14.394C1.10451 14.7392 1.00026 15.1301 1 15.528H7.93013L12 8.4719Z" fill="#00AC47"/>
<path d="M19.5349 21.5258C19.8751 21.3242 20.1649 21.047 20.3665 20.6942L20.7697 20.0012L22.6976 16.6621C22.8992 16.3093 23 15.9187 23 15.5281H16.0693L17.5441 18.4261L19.5349 21.5258Z" fill="#EA4335"/>
<path d="M12 8.47193L15.465 2.47422C15.1248 2.27262 14.7342 2.17181 14.331 2.17181H9.66893C9.26573 2.17181 8.87512 2.28522 8.53491 2.47422L12 8.47193Z" fill="#00832D"/>
<path d="M16.0699 15.5281H7.93015L4.46509 21.5258C4.80529 21.7274 5.1959 21.8282 5.59911 21.8282H18.401C18.8042 21.8282 19.1948 21.7148 19.535 21.5258L16.0699 15.5281Z" fill="#2684FC"/>
<path d="M19.4971 8.84991L16.2967 3.3058C16.0951 2.95299 15.8053 2.67579 15.4651 2.47418L12 8.4719L16.0699 15.528H22.9874C22.9874 15.1374 22.8866 14.7468 22.685 14.394L19.4971 8.84991Z" fill="#FFBA00"/>
</svg>
