<svg width="25" height="24" viewBox="0 0 25 24" fill="none" xmlns="http://www.w3.org/2000/svg">
<path d="M6.98731 12.0001H4.39308M7.85206 15.0267H4.39308V8.97345H7.85206M13.8944 9.14369C13.8944 9.14369 10.7132 8.30273 10.457 10.3327C10.2009 12.3627 14.6111 11.4266 14.3246 13.6533C14.0576 15.7244 10.8894 14.8424 10.8894 14.8424M21.2555 14.2559C21.0349 14.4953 20.7677 14.6872 20.4703 14.8197C20.1729 14.9522 19.8516 15.0226 19.526 15.0266C18.0927 15.0266 16.9318 13.6711 16.9318 12C16.9318 10.3288 18.0927 8.97335 19.526 8.97335C19.8516 8.97729 20.1729 9.04769 20.4703 9.18021C20.7677 9.31274 21.0349 9.50461 21.2555 9.74406M2.5 2H22.5C23.6046 2 24.5 2.89543 24.5 4V20C24.5 21.1046 23.6046 22 22.5 22H2.5C1.39543 22 0.5 21.1046 0.5 20V4C0.5 2.89543 1.39543 2 2.5 2Z" stroke="#1B1B1F" stroke-linecap="round" stroke-linejoin="round"/>
</svg>
