<svg width="25" height="25" viewBox="0 0 25 25" fill="none" xmlns="http://www.w3.org/2000/svg">
<path d="M8.75 5H16.25L11.75 11C12.4794 11 13.1979 11.1774 13.8435 11.5168C14.4891 11.8562 15.0426 12.3474 15.4562 12.9482C15.8698 13.549 16.1312 14.2413 16.2178 14.9656C16.3045 15.6898 16.2137 16.4243 15.9535 17.1056C15.6932 17.787 15.2712 18.395 14.7239 18.877C14.1765 19.3591 13.5201 19.7009 12.8113 19.873C12.1025 20.0451 11.3624 20.0423 10.655 19.8648C9.94746 19.6874 9.29371 19.3406 8.75 18.8544M2.5 24.5H22.5C23.6046 24.5 24.5 23.6046 24.5 22.5V2.5C24.5 1.39543 23.6046 0.5 22.5 0.5H2.5C1.39543 0.5 0.5 1.39543 0.5 2.5V22.5C0.5 23.6046 1.39543 24.5 2.5 24.5Z" stroke="#1B1B1F" stroke-linecap="round" stroke-linejoin="round"/>
</svg>
