<svg width="25" height="25" viewBox="0 0 25 25" fill="none" xmlns="http://www.w3.org/2000/svg">
<path d="M8.75 18.8544C9.39387 19.4302 10.1899 19.8085 11.043 19.9442C11.896 20.0799 12.7701 19.9672 13.5609 19.6196C14.3516 19.2719 15.0256 18.704 15.5024 17.9837C15.9791 17.2634 16.2385 16.421 16.2494 15.5573C16.2604 14.6936 16.0226 13.8449 15.5643 13.1127C15.106 12.3805 14.4467 11.7957 13.665 11.428C12.8834 11.0604 12.0124 10.9255 11.1562 11.0394C10.2999 11.1534 9.49456 11.5114 8.83625 12.0706L10.25 5H16.25M2.5 24.5H22.5C23.6046 24.5 24.5 23.6046 24.5 22.5V2.5C24.5 1.39543 23.6046 0.5 22.5 0.5H2.5C1.39543 0.5 0.5 1.39543 0.5 2.5V22.5C0.5 23.6046 1.39543 24.5 2.5 24.5Z" stroke="#1B1B1F" stroke-linecap="round" stroke-linejoin="round"/>
</svg>
