<svg width="25" height="25" viewBox="0 0 25 25" fill="none" xmlns="http://www.w3.org/2000/svg">
<path d="M9.06219 7.25C9.27402 6.76486 9.58617 6.33007 9.97809 5.97422C10.37 5.61838 10.8328 5.34955 11.3361 5.18541C11.8394 5.02127 12.3717 4.96555 12.8981 5.02191C13.4245 5.07827 13.9329 5.24543 14.39 5.5124C14.8472 5.77937 15.2426 6.1401 15.5503 6.57086C15.858 7.00161 16.071 7.49264 16.1753 8.01163C16.2796 8.53062 16.2729 9.06581 16.1555 9.58201C16.0382 10.0982 15.8128 10.5837 15.4944 11.0066L8.75 20H16.25M2.5 24.5H22.5C23.6046 24.5 24.5 23.6046 24.5 22.5V2.5C24.5 1.39543 23.6046 0.5 22.5 0.5H2.5C1.39543 0.5 0.5 1.39543 0.5 2.5V22.5C0.5 23.6046 1.39543 24.5 2.5 24.5Z" stroke="#1B1B1F" stroke-linecap="round" stroke-linejoin="round"/>
</svg>
